<svg width="16" height="16" viewBox="0 0 16 16" fill="none" xmlns="http://www.w3.org/2000/svg">
    <path d="M5.32829 15.3516C5.32856 15.441 5.34724 15.5293 5.38317 15.6112C5.41911 15.693 5.47153 15.7666 5.53715 15.8273C5.60278 15.8879 5.6802 15.9344 5.76459 15.9638C5.84898 15.9932 5.93852 16.0049 6.02762 15.9981C9.41442 15.7557 12.6131 13.3588 13.6344 9.61517C13.688 9.39986 13.8496 9.29189 14.0648 9.29189C14.1751 9.29633 14.2793 9.34408 14.3547 9.42481C14.43 9.50553 14.4706 9.61272 14.4675 9.72314C14.4675 10.5579 13.3945 12.7394 11.8602 14.0054C11.782 14.0712 11.7196 14.1538 11.6778 14.247C11.6359 14.3403 11.6156 14.4418 11.6184 14.544C11.62 14.6271 11.6379 14.709 11.6712 14.7852C11.7045 14.8613 11.7525 14.9301 11.8124 14.9877C11.8723 15.0452 11.943 15.0904 12.0204 15.1205C12.0978 15.1507 12.1804 15.1652 12.2635 15.1634C12.3979 15.1634 12.6131 15.0826 12.882 14.8401C13.955 13.8703 16 11.1501 16 8.16039C16 3.77712 12.6113 0 7.88197 0C3.66203 0 0.00634766 3.44752 0.00634766 7.43363C0.00634766 10.0729 2.10306 12.0657 4.87133 12.0657C6.99519 12.0657 8.95747 10.5579 9.49521 8.48368C9.54886 8.26836 9.70981 8.16039 9.92503 8.16039C10.0354 8.16483 10.1396 8.21257 10.2151 8.29328C10.2906 8.37398 10.3313 8.48116 10.3283 8.59165C10.3283 9.53435 8.55415 12.8221 4.95212 12.8221C4.09185 12.8221 3.01698 12.5797 2.26401 12.1484C2.16321 12.0995 2.05341 12.072 1.94149 12.0676C1.85579 12.0643 1.77033 12.0788 1.6905 12.1101C1.61067 12.1415 1.53818 12.189 1.47759 12.2497C1.41701 12.3104 1.36964 12.3831 1.33846 12.463C1.30729 12.5429 1.29298 12.6284 1.29644 12.7141C1.29992 12.824 1.33137 12.9311 1.38781 13.0253C1.44425 13.1196 1.52382 13.1979 1.61896 13.2527C2.61367 13.821 3.79647 14.1146 5.00577 14.1146C8.0164 14.1146 10.7582 12.0676 11.5648 9.05132C11.6184 8.836 11.78 8.72803 11.9946 8.72803C12.105 8.73248 12.2092 8.78021 12.2847 8.86092C12.3601 8.94162 12.4008 9.04881 12.3979 9.15929C12.3979 10.3981 10.1939 14.3842 5.94683 14.7075C5.78251 14.7197 5.62848 14.7922 5.51432 14.9111C5.40016 15.03 5.33391 15.1868 5.32829 15.3516Z" fill="#4F43DD" />
    <path d="M9.53686 5.03681C10.1166 5.03249 10.6856 5.19276 11.1779 5.49901C11.2276 5.22661 11.2551 4.95061 11.2599 4.67375C11.2599 3.39514 10.2854 2.24976 9.09884 2.24976C8.17608 2.24976 7.5992 3.0144 7.5992 3.95899C7.5948 4.46928 7.77402 4.96412 8.10413 5.35315C8.55136 5.13983 9.04143 5.03162 9.53686 5.03681Z" fill="white" />
    <path d="M12.3171 9.66876C12.4818 9.10554 12.5544 8.7147 12.5544 8.46087C12.5494 8.35126 12.5024 8.24776 12.4232 8.17183C12.344 8.0959 12.2387 8.05335 12.129 8.05298C12.0268 8.05488 11.9282 8.0909 11.8488 8.15531C11.7695 8.21972 11.7139 8.30883 11.691 8.40846C11.6462 8.59347 11.5502 9.09481 11.4556 9.41304C11.4947 9.29392 11.5305 9.17289 11.5629 9.04998C11.6165 8.83404 11.7781 8.7267 11.9927 8.7267C12.103 8.73098 12.2072 8.77858 12.2827 8.85918C12.3582 8.93978 12.3989 9.0469 12.396 9.15732C12.3909 9.3309 12.3631 9.50305 12.3133 9.6694L12.3171 9.66876Z" fill="#352D8E" />
    <path d="M14.602 9.08026C14.5968 8.9708 14.5499 8.86749 14.4709 8.79161C14.3918 8.71573 14.2867 8.67305 14.1772 8.67236C14.0751 8.6744 13.9767 8.71049 13.8974 8.77489C13.8182 8.83929 13.7627 8.92832 13.7398 9.02785C13.6944 9.21727 13.5965 9.72619 13.5006 10.0438H13.505C13.5517 9.90236 13.5953 9.75903 13.6313 9.61317C13.6849 9.39723 13.8465 9.28988 14.0617 9.28988C14.172 9.29416 14.2761 9.34179 14.3515 9.42241C14.4269 9.50303 14.4675 9.61015 14.4644 9.72051C14.4613 9.85456 14.4429 9.98782 14.4095 10.1177C14.5433 9.6479 14.602 9.3082 14.602 9.08026Z" fill="#352D8E" />
    <path d="M9.5369 5.03674C9.82498 5.03616 10.1118 5.0746 10.3896 5.15103C10.5354 4.95208 10.6083 4.70894 10.596 4.46253C10.5836 4.21613 10.4868 3.9815 10.3218 3.79814C10.1568 3.61477 9.93371 3.49386 9.69006 3.45575C9.4464 3.41765 9.19706 3.46467 8.984 3.58891L9.42581 4.3163L8.59836 3.95829C8.48628 4.13921 8.43008 4.34921 8.43682 4.56196C8.44356 4.7747 8.51293 4.98072 8.63623 5.15419C8.92987 5.07501 9.23278 5.03552 9.5369 5.03674Z" fill="#163B36" />
    <path d="M3.16204 9.71815C3.51062 9.71815 3.79321 9.43546 3.79321 9.08674C3.79321 8.73802 3.51062 8.45532 3.16204 8.45532C2.81346 8.45532 2.53088 8.73802 2.53088 9.08674C2.53088 9.43546 2.81346 9.71815 3.16204 9.71815Z" fill="#352D8E" />
    <path d="M3.16204 7.19251C3.51062 7.19251 3.79321 6.90982 3.79321 6.5611C3.79321 6.21238 3.51062 5.92969 3.16204 5.92969C2.81346 5.92969 2.53088 6.21238 2.53088 6.5611C2.53088 6.90982 2.81346 7.19251 3.16204 7.19251Z" fill="#352D8E" />
    <path d="M1.89972 8.45521C2.2483 8.45521 2.53088 8.17252 2.53088 7.8238C2.53088 7.47508 2.2483 7.19238 1.89972 7.19238C1.55113 7.19238 1.26855 7.47508 1.26855 7.8238C1.26855 8.17252 1.55113 8.45521 1.89972 8.45521Z" fill="#352D8E" />
    <path d="M4.74002 12.0645H4.86625C6.9901 12.0645 8.95238 10.5567 9.49013 8.48247C9.54378 8.26716 9.70473 8.15919 9.91995 8.15919C10.0303 8.16363 10.1345 8.21137 10.21 8.29207C10.2855 8.37278 10.3262 8.47996 10.3233 8.59045C10.3136 8.81084 10.2638 9.02761 10.1762 9.23007C10.1914 9.20656 10.2047 9.18185 10.216 9.15619C10.3757 8.79102 10.4582 8.39677 10.4583 7.99818C10.4583 7.37876 10.0279 6.97466 9.40997 6.97466C8.33258 6.97466 8.11672 7.91546 7.66229 8.92131C7.19081 9.96566 6.32486 11.0953 4.14105 11.0953C1.87202 11.0953 -0.459484 9.506 0.109191 6.27442C0.116134 6.23401 0.121814 6.19802 0.126232 6.16455C0.0429058 6.58204 0.000626917 7.0067 0 7.43243C0.00631161 10.0339 2.03802 12.0039 4.74002 12.0645Z" fill="#352D8E" />
</svg>