<svg width="16" height="16" viewBox="0 0 16 16" fill="none" xmlns="http://www.w3.org/2000/svg">
<g id="Component 1">
<path id="Subtract" fill-rule="evenodd" clip-rule="evenodd" d="M8.0001 14.4C11.5347 14.4 14.4001 11.5346 14.4001 8C14.4001 4.46538 11.5347 1.6 8.0001 1.6C4.46548 1.6 1.6001 4.46538 1.6001 8C1.6001 11.5346 4.46548 14.4 8.0001 14.4ZM11.8011 8.99093C12.0194 9.24032 11.9941 9.61936 11.7447 9.8376C11.4953 10.0558 11.1163 10.0305 10.898 9.78112L8.98859 7.59884L7.57531 9.7188C7.47171 9.87416 7.30167 9.97248 7.1153 9.98464C6.92895 9.99688 6.74753 9.9216 6.62455 9.78104L4.19895 7.00906C3.98075 6.75968 4.00601 6.38062 4.25538 6.1624C4.50476 5.9442 4.88383 5.96946 5.10203 6.21884L7.01155 8.40107L8.42485 6.28112C8.52845 6.12573 8.6985 6.02744 8.88487 6.01523C9.07123 6.00302 9.25265 6.07829 9.37563 6.21885L11.8011 8.99093Z" fill="#D24235"/>
</g>
</svg>
