<svg width="20" height="20" viewBox="0 0 20 20" fill="none" xmlns="http://www.w3.org/2000/svg">
<path d="M18.676 11.1428L16.197 10.8195C16.2319 10.5524 16.25 10.2789 16.25 10C16.25 9.72108 16.2319 9.44763 16.197 9.18054L18.676 8.85716C18.7249 9.2312 18.75 9.61266 18.75 10C18.75 10.3873 18.7249 10.7688 18.676 11.1428ZM18.086 6.65061C17.791 5.93925 17.4049 5.27524 16.9422 4.67314L14.96 6.19645C15.291 6.62731 15.5666 7.10149 15.7767 7.60824L18.086 6.65061ZM15.3269 3.05775L13.8035 5.04005C13.3726 4.70895 12.8985 4.43341 12.3918 4.22327L13.3494 1.91395C14.0608 2.20894 14.7248 2.59506 15.3269 3.05775ZM11.1428 1.32396L10.8195 3.80296C10.5524 3.76811 10.2789 3.75 10 3.75C9.72108 3.75 9.44763 3.76811 9.18054 3.80296L8.85717 1.32396C9.2312 1.27516 9.61266 1.25 10 1.25C10.3873 1.25 10.7688 1.27516 11.1428 1.32396ZM6.65061 1.91395L7.60824 4.22327C7.10149 4.43341 6.62731 4.70895 6.19645 5.04005L4.67314 3.05775C5.27524 2.59506 5.93925 2.20894 6.65061 1.91395ZM3.05775 4.67314L5.04005 6.19645C4.70895 6.62731 4.43341 7.10149 4.22327 7.60824L1.91395 6.65061C2.20894 5.93925 2.59506 5.27524 3.05775 4.67314ZM1.32396 8.85717C1.27516 9.2312 1.25 9.61266 1.25 10C1.25 10.3873 1.27516 10.7688 1.32396 11.1428L3.80296 10.8195C3.76811 10.5524 3.75 10.2789 3.75 10C3.75 9.72108 3.76811 9.44763 3.80296 9.18054L1.32396 8.85717ZM1.91395 13.3494L4.22327 12.3918C4.43341 12.8985 4.70895 13.3726 5.04005 13.8035L3.05775 15.3269C2.59506 14.7248 2.20894 14.0608 1.91395 13.3494ZM4.67314 16.9422L6.19645 14.96C6.62731 15.291 7.10149 15.5666 7.60824 15.7767L6.65061 18.086C5.93925 17.791 5.27524 17.4049 4.67314 16.9422ZM8.85717 18.676L9.18054 16.197C9.44763 16.2319 9.72108 16.25 10 16.25C10.2789 16.25 10.5524 16.2319 10.8195 16.197L11.1428 18.676C10.7688 18.7249 10.3873 18.75 10 18.75C9.61266 18.75 9.2312 18.7249 8.85717 18.676ZM13.3494 18.086L12.3918 15.7767C12.8985 15.5666 13.3726 15.291 13.8035 14.96L15.3269 16.9422C14.7248 17.4049 14.0608 17.791 13.3494 18.086ZM16.9422 15.3269L14.96 13.8035C15.291 13.3726 15.5666 12.8985 15.7767 12.3918L18.086 13.3494C17.791 14.0608 17.405 14.7248 16.9422 15.3269Z" fill="#030615"/>
</svg>
