<svg width="16" height="16" viewBox="0 0 16 16" fill="none" xmlns="http://www.w3.org/2000/svg">
<g clip-path="url(#clip0_167_6185)">
<path fill-rule="evenodd" clip-rule="evenodd" d="M14.1818 3.81818H1.81818C1.3161 3.81818 0.909091 4.22519 0.909091 4.72727V11.2727C0.909091 11.7748 1.3161 12.1818 1.81818 12.1818H14.1818C14.6839 12.1818 15.0909 11.7748 15.0909 11.2727V4.72727C15.0909 4.22519 14.6839 3.81818 14.1818 3.81818ZM1.81818 2.90909C0.814029 2.90909 0 3.72312 0 4.72727V11.2727C0 12.2769 0.814029 13.0909 1.81818 13.0909H14.1818C15.186 13.0909 16 12.2769 16 11.2727V4.72727C16 3.72312 15.186 2.90909 14.1818 2.90909H1.81818Z" fill="#030615"/>
<path d="M4.35516 8.78076H5.46871C5.4534 9.13133 5.36921 9.42739 5.21615 9.66894C5.06309 9.90835 4.84497 10.09 4.5618 10.214C4.28118 10.338 3.94189 10.4 3.54392 10.4C3.23524 10.4 2.961 10.3572 2.7212 10.2717C2.4814 10.1841 2.27732 10.0558 2.10894 9.88697C1.94057 9.7181 1.81302 9.50968 1.72628 9.26172C1.6421 9.01162 1.60001 8.72411 1.60001 8.3992V7.60721C1.60001 7.2823 1.64465 6.99479 1.73394 6.74469C1.82578 6.49459 1.95588 6.2851 2.12425 6.11623C2.29517 5.94522 2.50053 5.81697 2.74033 5.73146C2.98269 5.64382 3.25565 5.6 3.55923 5.6C3.96485 5.6 4.30414 5.66413 4.57711 5.79238C4.85007 5.92064 5.06053 6.10768 5.2085 6.35351C5.35901 6.59719 5.44957 6.89539 5.48019 7.24809H4.36282C4.35516 7.02578 4.32455 6.85157 4.27098 6.72545C4.21996 6.59719 4.13832 6.50741 4.02607 6.45611C3.91383 6.40267 3.75821 6.37595 3.55923 6.37595C3.41127 6.37595 3.28371 6.3984 3.17657 6.44329C3.06942 6.48604 2.98141 6.55551 2.91253 6.6517C2.84365 6.74789 2.79263 6.87401 2.75947 7.03006C2.72886 7.1861 2.71355 7.37635 2.71355 7.6008V8.3992C2.71355 8.61937 2.72758 8.80748 2.75564 8.96353C2.7837 9.11743 2.82835 9.24355 2.88957 9.34188C2.9508 9.44021 3.03371 9.51182 3.1383 9.55671C3.24545 9.6016 3.38065 9.62405 3.54392 9.62405C3.7327 9.62405 3.88449 9.60053 3.99929 9.55351C4.11664 9.50648 4.20337 9.42204 4.2595 9.3002C4.31562 9.17835 4.34751 9.00521 4.35516 8.78076Z" fill="#030615"/>
<path d="M8.52616 9.10781C8.52616 9.02445 8.51724 8.94856 8.49938 8.88016C8.48152 8.81176 8.44325 8.7487 8.38458 8.69098C8.32846 8.63326 8.24555 8.57555 8.13585 8.51783C8.02871 8.46012 7.8884 8.40027 7.71492 8.33827C7.50829 8.2656 7.30803 8.18864 7.11415 8.10741C6.92026 8.02405 6.74552 7.92785 6.5899 7.81884C6.43429 7.70982 6.31056 7.58156 6.21872 7.43407C6.12943 7.28443 6.08479 7.10915 6.08479 6.90821C6.08479 6.71155 6.12688 6.53306 6.21107 6.37274C6.2978 6.21242 6.42025 6.07562 6.57842 5.96232C6.73659 5.84689 6.92154 5.75818 7.13328 5.69619C7.34757 5.6342 7.58609 5.6032 7.84885 5.6032C8.206 5.6032 8.51468 5.6652 8.77489 5.78918C9.03765 5.91316 9.24046 6.0831 9.38332 6.299C9.52873 6.51489 9.60144 6.76286 9.60144 7.04288H8.48407C8.48407 6.91035 8.46111 6.79385 8.41519 6.69339C8.37182 6.59078 8.30167 6.51062 8.20473 6.4529C8.10779 6.39519 7.98279 6.36633 7.82972 6.36633C7.68686 6.36633 7.56824 6.39091 7.47385 6.44008C7.38201 6.48711 7.31313 6.5523 7.26721 6.63567C7.22384 6.7169 7.20216 6.80882 7.20216 6.91142C7.20216 6.98838 7.22384 7.05785 7.26721 7.11984C7.31313 7.17969 7.37563 7.2342 7.45471 7.28337C7.5338 7.33039 7.62691 7.37635 7.73406 7.42124C7.84375 7.46613 7.96365 7.50995 8.09376 7.5527C8.34631 7.63607 8.56953 7.72799 8.76341 7.82846C8.95729 7.92679 9.11929 8.03794 9.24939 8.16192C9.3795 8.28377 9.47771 8.42164 9.54404 8.57555C9.61037 8.72946 9.64353 8.90474 9.64353 9.1014C9.64353 9.29592 9.60272 9.47334 9.52108 9.63367C9.442 9.79185 9.32592 9.92866 9.17286 10.0441C9.0198 10.1574 8.83484 10.245 8.618 10.307C8.40371 10.369 8.16391 10.4 7.8986 10.4C7.64094 10.4 7.39732 10.3701 7.16772 10.3102C6.93812 10.2482 6.73531 10.1552 6.55929 10.0313C6.38582 9.90514 6.24933 9.74589 6.14984 9.55351C6.05035 9.35898 6.0006 9.12919 6.0006 8.86413H7.1218C7.1218 9.00521 7.13838 9.12598 7.17155 9.22645C7.20471 9.32478 7.25573 9.40387 7.32461 9.46373C7.39349 9.52144 7.47767 9.56526 7.57717 9.59519C7.67921 9.62298 7.79528 9.63687 7.92539 9.63687C8.07335 9.63687 8.1907 9.61336 8.27743 9.56633C8.36672 9.5193 8.4305 9.45624 8.46876 9.37715C8.50703 9.29806 8.52616 9.20828 8.52616 9.10781Z" fill="#030615"/>
<path d="M12.1347 9.33868L13.1908 5.66733H14.4L12.7852 10.3359H11.9701L12.1347 9.33868ZM11.2316 5.66733L12.2839 9.33868L12.4561 10.3359H11.6372L10.0338 5.66733H11.2316Z" fill="#030615"/>
</g>
<defs>
<clipPath id="clip0_167_6185">
<rect width="16" height="16" fill="white"/>
</clipPath>
</defs>
</svg>
