<svg width="16" height="16" viewBox="0 0 16 16" fill="none" xmlns="http://www.w3.org/2000/svg">
<path d="M4.9336 14.6667L4.00026 13.7333L8.60026 9.11667L10.9336 11.45L14.3836 8L15.3336 8.95L10.9336 13.3333L8.60026 11L4.9336 14.6667ZM2.66693 14C2.30026 14 1.98637 13.8694 1.72526 13.6083C1.46415 13.3472 1.3336 13.0333 1.3336 12.6667V3.33333C1.3336 2.96667 1.46415 2.65278 1.72526 2.39167C1.98637 2.13056 2.30026 2 2.66693 2H12.0003C12.3669 2 12.6808 2.13056 12.9419 2.39167C13.203 2.65278 13.3336 2.96667 13.3336 3.33333V6.13333H2.66693V14ZM2.66693 4.8H12.0003V3.33333H2.66693V4.8Z" fill="#030615"/>
</svg>
