<svg width="20" height="20" viewBox="0 0 20 20" fill="none" xmlns="http://www.w3.org/2000/svg">
<path fill-rule="evenodd" clip-rule="evenodd" d="M11.2108 2.35529L10 1L8.7892 2.35529L7.21885 1.44049L6.48611 3.10361L4.70993 2.71885L4.52699 4.52699L2.71885 4.70993L3.10361 6.48611L1.44049 7.21885L2.35529 8.7892L1 10L2.35529 11.2108L1.44049 12.7812L3.10361 13.5139L2.71885 15.2901L4.52699 15.473L4.70993 17.2812L6.48611 16.8964L7.21885 18.5595L8.7892 17.6447L10 19L11.2108 17.6447L12.7812 18.5595L13.5139 16.8964L15.2901 17.2812L15.473 15.473L17.2812 15.2901L16.8964 13.5139L18.5595 12.7812L17.6447 11.2108L19 10L17.6447 8.7892L18.5595 7.21885L16.8964 6.48611L17.2812 4.70993L15.473 4.52699L15.2901 2.71885L13.5139 3.10361L12.7812 1.44049L11.2108 2.35529ZM10 14C12.2091 14 14 12.2091 14 10C14 7.79086 12.2091 6 10 6C7.79086 6 6 7.79086 6 10C6 12.2091 7.79086 14 10 14Z" fill="#FFB019"/>
<path fill-rule="evenodd" clip-rule="evenodd" d="M11.2108 2.35529L10 1L8.7892 2.35529L7.21885 1.44049L6.48611 3.10361L4.70993 2.71885L4.52699 4.52699L2.71885 4.70993L3.10361 6.48611L1.44049 7.21885L2.35529 8.7892L1 10L2.35529 11.2108L1.44049 12.7812L3.10361 13.5139L2.71885 15.2901L4.52699 15.473L4.70993 17.2812L6.48611 16.8964L7.21885 18.5595L8.7892 17.6447L10 19L11.2108 17.6447L12.7812 18.5595L13.5139 16.8964L15.2901 17.2812L15.473 15.473L17.2812 15.2901L16.8964 13.5139L18.5595 12.7812L17.6447 11.2108L19 10L17.6447 8.7892L18.5595 7.21885L16.8964 6.48611L17.2812 4.70993L15.473 4.52699L15.2901 2.71885L13.5139 3.10361L12.7812 1.44049L11.2108 2.35529ZM10 14C12.2091 14 14 12.2091 14 10C14 7.79086 12.2091 6 10 6C7.79086 6 6 7.79086 6 10C6 12.2091 7.79086 14 10 14Z" fill="url(#paint0_linear_3841_480)" fill-opacity="0.4"/>
<g opacity="0.9">
<circle cx="10" cy="10" r="5" fill="#FFB019"/>
<circle cx="10" cy="10" r="5" fill="url(#paint1_linear_3841_480)" fill-opacity="0.5"/>
</g>
<defs>
<linearGradient id="paint0_linear_3841_480" x1="10" y1="1" x2="10" y2="19" gradientUnits="userSpaceOnUse">
<stop stop-opacity="0"/>
<stop offset="1"/>
</linearGradient>
<linearGradient id="paint1_linear_3841_480" x1="10" y1="15" x2="10" y2="5" gradientUnits="userSpaceOnUse">
<stop stop-color="white" stop-opacity="0"/>
<stop offset="0.495447" stop-color="white" stop-opacity="0.545026"/>
<stop offset="0.495547" stop-color="white" stop-opacity="0.715026"/>
<stop offset="1" stop-color="white"/>
</linearGradient>
</defs>
</svg>
