<svg width="20" height="20" viewBox="0 0 20 20" fill="none" xmlns="http://www.w3.org/2000/svg">
<path d="M3.33341 16.6666C2.87508 16.6666 2.48272 16.5034 2.15633 16.177C1.82994 15.8506 1.66675 15.4583 1.66675 14.9999V4.99992C1.66675 4.54159 1.82994 4.14922 2.15633 3.82284C2.48272 3.49645 2.87508 3.33325 3.33341 3.33325H16.6667C17.1251 3.33325 17.5174 3.49645 17.8438 3.82284C18.1702 4.14922 18.3334 4.54159 18.3334 4.99992V14.9999C18.3334 15.4583 18.1702 15.8506 17.8438 16.177C17.5174 16.5034 17.1251 16.6666 16.6667 16.6666H3.33341ZM3.33341 14.9999H16.6667V6.66658H3.33341V14.9999ZM6.25008 14.1666L5.08341 12.9999L7.22925 10.8333L5.06258 8.66658L6.25008 7.49992L9.58341 10.8333L6.25008 14.1666ZM10.0001 14.1666V12.4999H15.0001V14.1666H10.0001Z" fill="#67748A"/>
</svg>
