<svg xmlns="http://www.w3.org/2000/svg" width="20px" height="20px" viewBox="0 0 351 365"><linearGradient id="a" x1="176" x2="176" y1="30%" y2="99%" gradientUnits="userSpaceOnUse"><stop offset="0" stop-color="#f05a28"/><stop offset="1" stop-color="#fbca0a"/></linearGradient><path d="M342 161a137 137 0 0 0-13-46 139 139 0 0 0-17-27l-10-10c5-20-6-38-6-38-20-1-32 6-37 10l-2-1-10-4-11-3-11-2h-2c-9-28-33-39-33-39-27 17-33 42-33 42v1l-4 1-7 2a161 161 0 0 0-29 16h-1c-38-15-72 3-72 3-3 40 15 65 19 70l-2 7a173 173 0 0 0-7 32c-35 18-45 53-45 53 29 34 63 36 63 36a154 154 0 0 0 22 30c-11 30 2 55 2 55 32 2 53-14 58-17l9 3a143 143 0 0 0 39 4h5c15 22 42 25 42 25 19-20 20-40 20-44v-2a111 111 0 0 0 31-33l2-2c21 1 37-13 37-13-4-23-17-34-19-36h-1v-21l-1-2v-4a96 96 0 0 0-12-35 92 92 0 0 0-80-44h-7a68 68 0 0 0-30 10 73 73 0 0 0-30 35 69 69 0 0 0-5 21v8l1 2a55 55 0 0 0 23 40 54 54 0 0 0 30 9h8l2-1 3-1 5-2 5-3 2-1c1-1 2-4 0-5-1-2-3-2-4-1h-2a33 33 0 0 1-9 3l-2 1h-7l-1-1a39 39 0 0 1-21-9 38 38 0 0 1-13-29l1-2v-6a48 48 0 0 1 34-37l8-2h8l9 2a60 60 0 0 1 40 31c3 5 5 11 6 17v13a81 81 0 0 1-2 15l-3 9-10 17a77 77 0 0 1-58 32h-5a47 47 0 0 1-6-1 105 105 0 0 1-40-11c-12-7-23-16-32-27a103 103 0 0 1-11-17 103 103 0 0 1-7-19l-4-20v-11a120 120 0 0 1 5-30l7-20a109 109 0 0 1 29-38l8-5a77 77 0 0 1 12-7h2l2-1 9-3 2-1 2-1 4-1h3l2-1h3l2-1h5l2-1h11a129 129 0 0 1 26 2 120 120 0 0 1 56 26l2 2 1 1 2 2 3 3 2 2a131 131 0 0 1 22 30v1l1 1 1 3 1 2 1 2 3 9 4 12c0 1 1 2 3 2l2-3v-13" fill="url(#a)"/></svg>