<svg xmlns="http://www.w3.org/2000/svg" width="20px" height="20px" viewBox="0 0 10240 10240"><path d="M10000 2060c-100-50-150 50-210 100l-60 50c-150 170-330 280-560 270-340-20-640 90-890 350-60-320-240-520-520-650-140-60-290-130-390-270-70-100-90-220-130-330-20-60-40-130-120-140-80-20-110 50-150 110-130 240-180 510-170 780 10 600 260 1080 760 1430 50 30 70 70 50 130l-110 350c-20 80-60 90-140 60-270-120-500-290-710-500-350-340-670-730-1070-1030a4740 4740 0 00-290-200c-400-400 60-730 160-770 110-40 40-180-320-180s-690 120-1110 290l-190 50c-380-70-770-90-1190-40-780 90-1400 460-1850 1100-550 770-680 1650-520 2560 160 960 640 1760 1380 2380 770 650 1650 960 2660 900 610-30 1290-120 2060-780a2360 2360 0 00 1440 110c300-60 280-350 170-400-890-420-690-250-870-390 450-550 1130-1110 1400-2950 20-150 0-240 0-360 0-70 10-100 90-100 230-30 440-90 640-200 580-320 810-850 860-1480 10-100 0-200-100-250zM4980 7750c-860-690-1280-920-1450-910-160 10-130 200-100 320 40 120 90 210 160 310 40 70 80 180-50 260-280 170-760-60-780-70-560-340-1030-790-1360-1400-320-580-510-1210-540-1880-10-170 40-220 200-250a1890 1890 0 01 630-20c880 130 1630 530 2250 1170 360 360 630 790 910 1220a5810 5810 0 00 1390 1510c-330 40-880 40-1260-260m410-2710a130 130 0 01 180-120 130 130 0 01 80 120 130 130 0 01-20 70 130 130 0 01-110 60 130 130 0 01-50-10 130 130 0 01-50-50 130 130 0 01-30-70m1290 670c-80 30-170 60-250 70-120 0-250-50-330-110-110-100-190-150-220-320-20-70-10-180 0-250 30-130 0-220-90-300-80-70-180-90-290-90-40 0-80-10-100-30a110 110 0 01-40-30 110 110 0 01-20-30 110 110 0 01 0-50l10-40 80-90c150-80 320-60 470 10 150 60 260 170 410 330 170 190 200 240 290 380 70 110 140 230 180 360 30 80-10 150-100 190" fill="#4D6BFE"/></svg>
