<svg width="38" height="38" viewBox="0 0 38 38" fill="none" xmlns="http://www.w3.org/2000/svg">
  <path d="M19 0C8.52432 0 0 8.52432 0 19C0 29.4757 8.52432 38 19 38C29.4757 38 38 29.4757 38 19C38 8.52432 29.4757 0 19 0Z" fill="#1A1A1A"/>
  <path fill-rule="evenodd" clip-rule="evenodd" d="M17.3896 9.65967C20.8443 9.65967 23.8501 11.5132 25.4834 14.2798H27.1904V14.2896C29.5471 14.2898 31.5347 16.185 31.54 18.5903H31.5498C31.5496 20.9801 29.59 22.9398 27.2002 22.9399H25.9365C24.5054 26.072 21.4102 28.2839 17.7793 28.4321L17.3896 28.4399L16.9062 28.4272C11.9416 28.1759 8.0002 24.0779 8 19.0503V19.0396C8.00022 13.8499 12.1999 9.65009 17.3896 9.6499V9.65967ZM17.3896 12.5103C13.7899 12.5104 10.8606 15.4299 10.8604 19.0396V19.0503C10.8606 22.65 13.7799 25.5794 17.3896 25.5796C20.2896 25.5796 22.7496 23.6898 23.5996 21.0698L23.9199 20.0796H27.2002C27.9968 20.0795 28.6837 19.4055 28.6895 18.6001H28.6797C28.6797 17.8103 28.0202 17.1404 27.1904 17.1401H23.7002L23.3203 16.3101C22.2903 14.0601 20.0196 12.5103 17.3896 12.5103Z" fill="#2EAFFF"/>
</svg>

