<svg width="20" height="20" viewBox="0 0 20 20" fill="none" xmlns="http://www.w3.org/2000/svg">
<path d="M15.5535 5.01557C14.5023 4.5343 13.3925 4.19287 12.2526 4C12.0966 4.27886 11.9555 4.56577 11.8298 4.85952C10.6155 4.67655 9.38067 4.67655 8.16641 4.85952C8.04063 4.5658 7.89949 4.27889 7.74357 4C6.60289 4.1945 5.4924 4.53674 4.44013 5.01809C2.3511 8.10885 1.78479 11.1228 2.06794 14.0941C3.29133 14.998 4.66066 15.6854 6.11639 16.1265C6.44417 15.6856 6.73422 15.2179 6.98346 14.7283C6.51007 14.5515 6.05317 14.3334 5.61804 14.0764C5.73256 13.9934 5.84456 13.9078 5.95279 13.8248C7.21891 14.4202 8.60083 14.7289 9.99997 14.7289C11.3991 14.7289 12.781 14.4202 14.0472 13.8248C14.1566 13.9141 14.2686 13.9997 14.3819 14.0764C13.9459 14.3338 13.4882 14.5524 13.014 14.7296C13.2629 15.2189 13.553 15.6862 13.881 16.1265C15.338 15.6872 16.7084 15.0001 17.932 14.0953C18.2642 10.6497 17.3644 7.66336 15.5535 5.01557ZM7.34212 12.2668C6.55307 12.2668 5.90119 11.5507 5.90119 10.6698C5.90119 9.78889 6.53042 9.06654 7.3396 9.06654C8.14879 9.06654 8.79563 9.78889 8.78179 10.6698C8.76795 11.5507 8.14627 12.2668 7.34212 12.2668ZM12.6578 12.2668C11.8675 12.2668 11.2182 11.5507 11.2182 10.6698C11.2182 9.78889 11.8474 9.06654 12.6578 9.06654C13.4683 9.06654 14.1101 9.78889 14.0962 10.6698C14.0824 11.5507 13.462 12.2668 12.6578 12.2668Z" fill="#5865F2"/>
</svg>
