<svg width="512" height="512" viewBox="0 0 512 512" fill="none" xmlns="http://www.w3.org/2000/svg">
<path d="M409.105 333.507C391.926 356.747 365.618 372.254 335.933 374.517C335.009 374.582 334.084 374.646 333.147 374.698C298.339 376.431 272.046 360.55 254.61 345.807C223.757 329.472 199.617 325.359 185.493 321.803C175.221 319.216 166.234 314.043 162.382 311.456C158.967 309.426 152.098 304.718 146.975 295.937C141.235 286.095 140.902 276.693 140.991 272.697C143.983 272.296 147.848 271.856 152.367 271.571C156.065 271.339 159.647 271.248 163.666 271.235C194.84 271.196 219.017 272.722 236.607 280.534C246.121 284.75 254.942 290.363 262.8 297.204C272.904 306.024 293.563 319.966 319.024 315.207C322.259 314.599 325.366 313.797 328.358 312.814C337.525 311.495 353.202 310.435 371.666 315.336C389.191 319.992 401.8 328.036 409.105 333.507Z" fill="#0A60B5" stroke="black" stroke-width="8" stroke-miterlimit="10"/>
<path d="M406.82 173.454C399.075 163.42 389.662 153.934 378.544 147.462C366.696 140.568 351.578 134.631 333.292 133.023C288.618 129.091 258.074 153.87 252.509 158.556C245.584 165.054 217.887 188.046 184.547 200.812C178.739 202.881 167.557 207.77 157.62 218.685C149.759 227.316 145.912 236.15 144.027 241.64C148.002 242.188 152.106 242.584 156.337 242.827C188.664 244.627 216.438 244.806 234.608 235.907C246.61 230.035 257.138 221.673 266.216 211.881C282.578 194.225 306.441 186.348 328.163 191.748C338.139 193.14 355.514 194.199 375.608 188.046C389.482 183.795 399.819 178.446 406.82 173.454Z" fill="#0A60B5" stroke="black" stroke-width="8" stroke-miterlimit="10"/>
<path d="M103.656 180.905C91.263 174.535 81.5884 167.187 74.9897 161.435C71.3011 158.217 65.5703 160.856 65.5703 165.771V205.96C65.5703 207.711 66.3616 209.371 67.7146 210.452L84.1793 226.293C85.0472 219.923 86.9107 211.262 91.0971 201.688C95.041 192.654 99.7762 185.744 103.656 180.905Z" fill="#0A60B5" stroke="black" stroke-width="8" stroke-miterlimit="10"/>
<path d="M368.734 270.592C370.618 264.787 371.663 258.698 371.818 252.493C371.947 247.591 371.38 245.759 370.528 241.012C379.289 239.541 390.232 237.142 400.206 234.561C410.748 231.84 418.542 228.679 427.304 225.531C428.581 231.659 429.923 234.639 430.388 239.18C430.826 243.463 431.097 247.9 431.175 252.493C431.407 266.761 429.665 279.7 426.981 291.039C418.723 286.756 408.916 282.318 397.625 278.423C387.122 274.785 377.354 272.308 368.734 270.592Z" fill="#0A60B5" stroke="black" stroke-width="8" stroke-miterlimit="10"/>
<path d="M74.6068 355.448C70.8288 358.191 65.5703 355.487 65.5703 350.786V301.427C65.5703 299.933 66.1447 298.517 67.1402 297.461C67.638 296.933 68.0975 296.637 68.3017 296.521L84.6133 289.516C85.813 296.057 87.7914 303.887 91.0971 312.412C94.9644 322.379 99.5592 330.453 103.656 336.595C93.9688 342.88 84.2814 349.164 74.6068 355.448Z" fill="#0A60B5" stroke="black" stroke-width="8" stroke-miterlimit="10"/>
<path fill-rule="evenodd" clip-rule="evenodd" d="M179.649 139.803C212.273 138.184 236.669 151.849 249.244 160.981C239.725 169.389 213.966 189.679 183.499 201.397C181.444 202.132 178.717 203.221 175.61 204.807C153.564 215.666 140.455 237.306 139.87 260.424C139.772 264.315 139.97 268.192 140.485 272.001C140.429 272.009 140.374 272.016 140.318 272.024C140.229 275.989 140.562 285.318 146.298 295.083C151.418 303.796 158.283 308.467 161.697 310.481C163.391 311.61 166.078 313.237 169.431 314.922C173.371 317.021 177.74 318.781 182.559 320.143C183.296 320.357 184.042 320.559 184.794 320.747C186.548 321.185 188.458 321.639 190.52 322.128C205.056 325.578 227.082 330.805 254.088 345C256.815 347.289 259.755 349.596 262.906 351.852C261.949 352.709 261.143 353.458 260.491 354.073C254.922 358.782 224.356 383.689 179.649 379.737C161.351 378.12 146.209 372.153 134.365 365.224C114.411 353.559 99.3333 335.107 91.108 313.51C85.8083 299.588 81.1888 281.584 80.8551 260.398C80.56 242.305 83.46 226.368 87.4123 213.151C99.513 172.768 134.801 143.152 176.865 139.982L176.865 139.982L176.865 139.982C177.789 139.918 178.713 139.854 179.649 139.803ZM408.148 332.266C400.825 326.841 388.261 318.92 370.86 314.331C352.407 309.468 336.739 310.52 327.577 311.829C324.587 312.804 321.482 313.599 318.248 314.203C292.802 318.925 272.155 305.092 262.056 296.34C260.093 294.643 258.069 293.022 255.989 291.48C262.786 285.507 270.259 280.352 278.405 276.349C296.588 267.418 324.382 267.597 356.732 269.394C401.311 271.883 432.108 293.12 444.401 302.873C445.774 303.963 446.557 305.606 446.557 307.351V347.426C446.557 352.34 440.795 354.971 437.086 351.75C430.442 345.997 420.67 338.639 408.148 332.266ZM265.226 212.522C262.303 215.689 259.23 218.707 256.006 221.54C262.249 226.172 268.996 230.093 276.134 233.233C293.714 240.983 317.876 242.498 349.033 242.459C394.728 242.395 428.373 225.187 443.81 215.82C445.517 214.78 446.557 212.933 446.557 210.931V161.745C446.557 157.062 441.27 154.367 437.471 157.1C428.48 163.572 415.109 171.832 397.866 178.329C391.656 181.989 383.918 185.727 374.696 188.565C354.589 194.75 337.201 193.685 327.218 192.286C305.48 186.858 281.6 194.776 265.226 212.522Z" fill="#E11312"/>
<path d="M249.244 160.981L251.892 163.979L255.631 160.676L251.595 157.744L249.244 160.981ZM179.649 139.803L179.451 135.807L179.441 135.808L179.43 135.809L179.649 139.803ZM183.499 201.397L184.845 205.163L184.89 205.147L184.934 205.13L183.499 201.397ZM175.61 204.807L177.378 208.396L177.404 208.383L177.429 208.37L175.61 204.807ZM139.87 260.424L135.871 260.323L135.871 260.323L139.87 260.424ZM140.485 272.001L141.008 275.967L144.986 275.442L144.449 271.466L140.485 272.001ZM140.318 272.024L139.791 268.058L136.397 268.51L136.319 271.933L140.318 272.024ZM146.298 295.083L142.849 297.109L142.85 297.109L146.298 295.083ZM161.697 310.481L163.916 307.153L163.824 307.092L163.73 307.037L161.697 310.481ZM169.431 314.922L171.312 311.392L171.27 311.37L171.228 311.348L169.431 314.922ZM182.559 320.143L183.673 316.301L183.66 316.298L183.647 316.294L182.559 320.143ZM184.794 320.747L185.765 316.866L185.765 316.866L184.794 320.747ZM190.52 322.128L191.443 318.236L191.443 318.236L190.52 322.128ZM254.088 345L256.659 341.936L256.33 341.659L255.949 341.459L254.088 345ZM262.906 351.852L265.574 354.833L269.293 351.505L265.235 348.6L262.906 351.852ZM260.491 354.073L263.074 357.127L263.158 357.056L263.238 356.981L260.491 354.073ZM179.649 379.737L180.002 375.752L180.001 375.752L179.649 379.737ZM134.365 365.224L136.385 361.771L136.384 361.77L134.365 365.224ZM91.108 313.51L87.3696 314.933L87.3699 314.934L91.108 313.51ZM80.8551 260.398L84.8546 260.335L84.8546 260.333L80.8551 260.398ZM87.4123 213.151L83.5807 212.003L83.58 212.005L87.4123 213.151ZM176.865 139.982L176.593 135.991L176.578 135.992L176.564 135.993L176.865 139.982ZM176.865 139.982L176.666 135.987L176.629 135.989L176.593 135.991L176.865 139.982ZM176.865 139.982L177.065 143.977L177.104 143.975L177.142 143.973L176.865 139.982ZM370.86 314.331L371.88 310.463L371.879 310.463L370.86 314.331ZM408.148 332.266L405.766 335.48L406.035 335.68L406.333 335.831L408.148 332.266ZM327.577 311.829L327.011 307.869L326.667 307.918L326.337 308.026L327.577 311.829ZM318.248 314.203L318.978 318.135L318.981 318.135L318.248 314.203ZM262.056 296.34L264.676 293.317L264.672 293.314L262.056 296.34ZM255.989 291.48L253.349 288.475L249.63 291.744L253.607 294.693L255.989 291.48ZM278.405 276.349L276.642 272.758L276.641 272.759L278.405 276.349ZM356.732 269.394L356.955 265.4L356.954 265.4L356.732 269.394ZM444.401 302.873L446.889 299.741L446.887 299.739L444.401 302.873ZM437.086 351.75L439.709 348.73L439.705 348.726L437.086 351.75ZM256.006 221.54L253.365 218.536L249.647 221.803L253.623 224.753L256.006 221.54ZM265.226 212.522L268.165 215.236L268.166 215.235L265.226 212.522ZM276.134 233.233L277.747 229.573L277.745 229.572L276.134 233.233ZM349.033 242.459L349.038 246.459L349.038 246.459L349.033 242.459ZM443.81 215.82L445.886 219.239L445.891 219.236L443.81 215.82ZM437.471 157.1L435.135 153.853L435.135 153.854L437.471 157.1ZM397.866 178.329L396.455 174.586L396.132 174.707L395.835 174.883L397.866 178.329ZM374.696 188.565L375.872 192.388L375.873 192.388L374.696 188.565ZM327.218 192.286L326.249 196.167L326.454 196.218L326.663 196.248L327.218 192.286ZM251.595 157.744C238.61 148.315 213.322 134.127 179.451 135.807L179.847 143.798C211.224 142.241 234.729 155.383 246.893 164.217L251.595 157.744ZM184.934 205.13C216.028 193.171 242.198 172.541 251.892 163.979L246.596 157.983C237.251 166.237 211.904 186.186 182.063 197.664L184.934 205.13ZM177.429 208.37C180.352 206.877 182.916 205.853 184.845 205.163L182.152 197.631C179.971 198.41 177.081 199.565 173.791 201.245L177.429 208.37ZM143.869 260.525C144.417 238.86 156.696 218.582 177.378 208.396L173.843 201.219C150.433 212.749 136.493 235.752 135.871 260.323L143.869 260.525ZM144.449 271.466C143.964 267.878 143.775 264.214 143.869 260.525L135.871 260.323C135.768 264.416 135.976 268.507 136.521 272.537L144.449 271.466ZM140.846 275.989C140.9 275.981 140.954 275.974 141.008 275.967L139.961 268.036C139.904 268.043 139.847 268.051 139.791 268.058L140.846 275.989ZM149.747 293.057C144.542 284.195 144.236 275.715 144.317 272.114L136.319 271.933C136.221 276.262 136.583 286.44 142.849 297.109L149.747 293.057ZM163.73 307.037C160.625 305.204 154.391 300.959 149.747 293.056L142.85 297.109C148.446 306.632 155.941 311.729 159.664 313.926L163.73 307.037ZM171.228 311.348C168.021 309.737 165.475 308.193 163.916 307.153L159.478 313.809C161.306 315.028 164.135 316.737 167.635 318.496L171.228 311.348ZM183.647 316.294C179.088 315.006 174.987 313.35 171.312 311.392L167.551 318.452C171.756 320.693 176.392 322.557 181.471 323.992L183.647 316.294ZM185.765 316.866C185.062 316.691 184.364 316.502 183.673 316.301L181.445 323.985C182.228 324.212 183.022 324.427 183.824 324.627L185.765 316.866ZM191.443 318.236C189.376 317.745 187.49 317.298 185.765 316.866L183.824 324.627C185.605 325.073 187.54 325.532 189.596 326.02L191.443 318.236ZM255.949 341.459C228.482 327.023 206.055 321.704 191.443 318.236L189.596 326.02C204.058 329.452 225.682 334.588 252.227 348.54L255.949 341.459ZM265.235 348.6C262.175 346.41 259.317 344.167 256.659 341.936L251.516 348.063C254.314 350.412 257.335 352.783 260.578 355.105L265.235 348.6ZM263.238 356.981C263.869 356.385 264.648 355.661 265.574 354.833L260.239 348.871C259.25 349.757 258.417 350.53 257.745 351.164L263.238 356.981ZM179.297 383.721C225.654 387.819 257.29 362.018 263.074 357.127L257.909 351.018C252.555 355.546 223.059 379.559 180.002 375.752L179.297 383.721ZM132.345 368.676C144.61 375.852 160.316 382.044 179.297 383.721L180.001 375.752C162.385 374.196 147.807 368.454 136.385 361.771L132.345 368.676ZM87.3699 314.934C95.9012 337.334 111.56 356.526 132.346 368.677L136.384 361.77C117.262 350.593 102.765 332.88 94.846 312.087L87.3699 314.934ZM76.8556 260.461C77.1979 282.197 81.9376 300.663 87.3696 314.933L94.8463 312.087C89.679 298.512 85.1796 280.971 84.8546 260.335L76.8556 260.461ZM83.58 212.005C79.5286 225.553 76.5529 241.901 76.8557 260.464L84.8546 260.333C84.5671 242.709 87.3915 227.182 91.2447 214.297L83.58 212.005ZM176.564 135.993C132.774 139.293 96.1347 170.107 83.5807 212.003L91.244 214.299C102.891 175.429 136.829 147.01 177.165 143.971L176.564 135.993ZM176.593 135.991L176.593 135.991L177.137 143.973L177.137 143.973L176.593 135.991ZM176.666 135.987L176.666 135.987L177.065 143.977L177.065 143.977L176.666 135.987ZM179.43 135.809C178.46 135.862 177.507 135.928 176.588 135.992L177.142 143.973C178.071 143.908 178.966 143.846 179.868 143.797L179.43 135.809ZM369.84 318.199C386.602 322.619 398.707 330.25 405.766 335.48L410.529 329.053C402.943 323.432 389.921 315.221 371.88 310.463L369.84 318.199ZM328.143 315.788C336.97 314.527 352.065 313.514 369.84 318.199L371.879 310.463C352.749 305.421 336.508 306.512 327.011 307.869L328.143 315.788ZM318.981 318.135C322.385 317.5 325.66 316.661 328.817 315.631L326.337 308.026C323.514 308.946 320.578 309.699 317.515 310.27L318.981 318.135ZM259.437 299.363C269.82 308.361 291.7 323.198 318.978 318.135L317.518 310.27C293.904 314.652 274.49 301.823 264.676 293.317L259.437 299.363ZM253.607 294.693C255.607 296.176 257.552 297.734 259.441 299.366L264.672 293.314C262.633 291.552 260.532 289.868 258.372 288.267L253.607 294.693ZM276.641 272.759C268.143 276.935 260.379 282.296 253.349 288.475L258.63 294.484C265.192 288.717 272.374 283.769 280.169 279.939L276.641 272.759ZM356.954 265.4C340.756 264.5 325.519 263.993 312.001 264.856C298.515 265.718 286.417 267.957 276.642 272.758L280.168 279.939C288.576 275.809 299.467 273.673 312.511 272.84C325.523 272.009 340.358 272.491 356.51 273.388L356.954 265.4ZM446.887 299.739C434.284 289.741 402.704 267.955 356.955 265.4L356.509 273.387C399.917 275.812 429.931 296.5 441.915 306.006L446.887 299.739ZM450.557 307.351C450.557 304.399 449.227 301.598 446.889 299.741L441.913 306.005C442.321 306.329 442.557 306.813 442.557 307.351H450.557ZM450.557 347.426V307.351H442.557V347.426H450.557ZM434.464 354.77C440.766 360.244 450.557 355.763 450.557 347.426H442.557C442.557 348.917 440.823 349.698 439.709 348.73L434.464 354.77ZM406.333 335.831C418.504 342.024 428.008 349.181 434.468 354.774L439.705 348.726C432.876 342.813 422.837 335.253 409.962 328.701L406.333 335.831ZM258.647 224.545C261.982 221.614 265.154 218.498 268.165 215.236L262.287 209.809C259.452 212.88 256.479 215.8 253.365 218.536L258.647 224.545ZM277.745 229.572C270.88 226.552 264.392 222.781 258.389 218.328L253.623 224.753C260.106 229.562 267.112 233.634 274.523 236.894L277.745 229.572ZM349.028 238.459C317.781 238.498 294.446 236.935 277.747 229.573L274.52 236.893C292.982 245.032 317.972 246.498 349.038 246.459L349.028 238.459ZM441.735 212.4C426.633 221.564 393.715 238.396 349.027 238.459L349.038 246.459C395.74 246.394 430.114 228.81 445.886 219.239L441.735 212.4ZM442.557 210.931C442.557 211.537 442.245 212.09 441.73 212.403L445.891 219.236C448.789 217.471 450.557 214.329 450.557 210.931H442.557ZM442.557 161.745V210.931H450.557V161.745H442.557ZM439.808 160.347C440.973 159.509 442.557 160.337 442.557 161.745H450.557C450.557 153.786 441.567 149.225 435.135 153.853L439.808 160.347ZM399.276 182.072C416.924 175.422 430.604 166.971 439.808 160.347L435.135 153.854C426.355 160.172 413.295 168.241 396.455 174.586L399.276 182.072ZM375.873 192.388C385.437 189.444 393.461 185.568 399.897 181.775L395.835 174.883C389.85 178.41 382.398 182.01 373.52 184.742L375.873 192.388ZM326.663 196.248C336.999 197.696 355.02 198.802 375.872 192.388L373.52 184.742C354.157 190.698 337.403 189.674 327.773 188.325L326.663 196.248ZM268.166 215.235C283.661 198.44 306.085 191.132 326.249 196.167L328.187 188.405C304.876 182.584 279.538 191.111 262.286 209.81L268.166 215.235Z" fill="black"/>
</svg>
