<svg xmlns="http://www.w3.org/2000/svg" width="20px" height="20px" viewBox="0 0 10240 10240"><path d="M8360 4760 7100 9700a90 90 0 00 0 40 90 90 0 00 90 70h2530a90 90 0 00 90-110L8540 4760a90 90 0 00-140-50 90 90 0 00-40 50M1410 5880 430 9700a90 90 0 00 90 110h1950a90 90 0 00 80-30 90 90 0 00 10-40 90 90 0 00 0-40l-980-3820a90 90 0 00-30-50 90 90 0 00-50-20 90 90 0 00-60 20 90 90 0 00-30 50" fill="#00e5e5"/><g fill="#006eff"><path d="M3130 2710 1350 9700a90 90 0 00 20 80 90 90 0 00 70 30h3570a90 90 0 00 90-110L3310 2710a90 90 0 00-30-40 90 90 0 00-60-20 90 90 0 00-50 20 90 90 0 00-40 40"/><path d="M6210 490a90 90 0 00-30-50 90 90 0 00-60-10 90 90 0 00-50 10 90 90 0 00-30 50L3600 9700a90 90 0 00 90 110h4870a90 90 0 00 80-30 100 100 0 00 10-40 90 90 0 00 0-40"/></g><path d="M4420 3730 2870 9700a90 90 0 00 20 80 90 90 0 00 80 30h3080a90 90 0 00 80-30 90 90 0 00 10-80L4600 3730a90 90 0 00-40-50 90 90 0 00-50-20 90 90 0 00-60 20 90 90 0 00-30 50" fill="#00e5e5"/></svg>
