<svg width="20" height="20" fill="none" xmlns="http://www.w3.org/2000/svg">
  <defs>
    <clipPath clipPathUnits="userSpaceOnUse" id="a">
      <path style="opacity:1;vector-effect:non-scaling-stroke;fill:#ff2a2a;fill-opacity:1;stroke:none;stroke-width:.264583;stroke-linecap:square;stroke-opacity:1;-inkscape-stroke:hairline;paint-order:stroke markers fill" class="powerclip" d="M14.053 93.5h42.909v29h-42.91ZM25.98 109l9.526 5.5 9.526-5.5v-3l-9.526-5.5-9.526 5.5z"/>
    </clipPath>
  </defs>
  <g style="display:inline">
    <path style="display:inline;vector-effect:non-scaling-stroke;fill:#b8e1f2;fill-opacity:1;stroke:none;stroke-width:.330729;stroke-linecap:square;stroke-dasharray:none;stroke-opacity:1;-inkscape-stroke:hairline;paint-order:stroke markers fill" d="m63.28 121.849-16.455 9.5v19l16.454 9.5 16.455-9.5v-19l-16.455-9.5" transform="matrix(.48619 0 0 .48619 -20.766 -58.48)"/>
    <path style="opacity:1;vector-effect:non-scaling-stroke;fill:#69a8d5;fill-opacity:1;stroke:none;stroke-width:.264583;stroke-linecap:square;stroke-opacity:1;-inkscape-stroke:hairline;paint-order:stroke markers fill" d="m46.825 150.349 16.454-9.5 16.455 9.5-16.455 9.5z" transform="matrix(.48619 0 0 .48619 -20.766 -58.48)"/>
    <path style="opacity:1;vector-effect:non-scaling-stroke;fill:#86bce0;fill-opacity:1;stroke:none;stroke-width:.264583;stroke-linecap:square;stroke-opacity:1;-inkscape-stroke:hairline;paint-order:stroke markers fill" d="m79.734 150.349-16.455-9.5v-15l16.455 9.5z" transform="matrix(.48619 0 0 .48619 -20.766 -58.48)"/>
    <path style="opacity:1;vector-effect:non-scaling-stroke;fill:#287abe;fill-opacity:1;stroke:none;stroke-width:.264583;stroke-linecap:square;stroke-opacity:1;-inkscape-stroke:hairline;paint-order:stroke markers fill" d="m63.28 125.849-16.455 9.5v15l16.454-9.5v-15" transform="matrix(.48619 0 0 .48619 -20.766 -58.48)"/>
    <g style="display:inline">
      <path style="vector-effect:non-scaling-stroke;fill:#b8e1f2;fill-opacity:1;stroke:none;stroke-width:.264583;stroke-linecap:square;stroke-opacity:1;-inkscape-stroke:hairline;paint-order:stroke markers fill" d="m61.488 72.5-1.732-1v2l1.732 1z" transform="matrix(.48619 0 0 .48619 -16.105 -22.575)"/>
      <path style="vector-effect:non-scaling-stroke;fill:#e9f6fd;fill-opacity:1;stroke:none;stroke-width:.264583;stroke-linecap:square;stroke-opacity:1;-inkscape-stroke:hairline;paint-order:stroke markers fill" d="m61.488 72.5 1.732-1v2l-1.732 1z" transform="matrix(.48619 0 0 .48619 -16.105 -22.575)"/>
      <path style="vector-effect:non-scaling-stroke;fill:#b5daed;fill-opacity:1;stroke:none;stroke-width:.264583;stroke-linecap:square;stroke-opacity:1;-inkscape-stroke:hairline;paint-order:stroke markers fill" d="m59.756 71.5 1.732-1 1.732 1-1.732 1z" transform="matrix(.48619 0 0 .48619 -16.105 -22.575)"/>
      <path style="vector-effect:non-scaling-stroke;fill:#b8e1f2;fill-opacity:1;stroke:none;stroke-width:.264583;stroke-linecap:square;stroke-opacity:1;-inkscape-stroke:hairline;paint-order:stroke markers fill" d="m61.488 72.5-1.732-1v2l1.732 1z" transform="matrix(.48619 0 0 .48619 -17.368 -21.845)"/>
      <path style="vector-effect:non-scaling-stroke;fill:#e9f6fd;fill-opacity:1;stroke:none;stroke-width:.264583;stroke-linecap:square;stroke-opacity:1;-inkscape-stroke:hairline;paint-order:stroke markers fill" d="m61.488 72.5 1.732-1v2l-1.732 1z" transform="matrix(.48619 0 0 .48619 -17.368 -21.845)"/>
      <path style="vector-effect:non-scaling-stroke;fill:#b5daed;fill-opacity:1;stroke:none;stroke-width:.264583;stroke-linecap:square;stroke-opacity:1;-inkscape-stroke:hairline;paint-order:stroke markers fill" d="m59.756 71.5 1.732-1 1.732 1-1.732 1z" transform="matrix(.48619 0 0 .48619 -17.368 -21.845)"/>
      <path style="vector-effect:non-scaling-stroke;fill:#b8e1f2;fill-opacity:1;stroke:none;stroke-width:.264583;stroke-linecap:square;stroke-opacity:1;-inkscape-stroke:hairline;paint-order:stroke markers fill" d="m61.488 72.5-1.732-1v2l1.732 1z" transform="matrix(.48619 0 0 .48619 -18.632 -21.116)"/>
      <path style="vector-effect:non-scaling-stroke;fill:#e9f6fd;fill-opacity:1;stroke:none;stroke-width:.264583;stroke-linecap:square;stroke-opacity:1;-inkscape-stroke:hairline;paint-order:stroke markers fill" d="m61.488 72.5 1.732-1v2l-1.732 1z" transform="matrix(.48619 0 0 .48619 -18.632 -21.116)"/>
      <path style="vector-effect:non-scaling-stroke;fill:#b5daed;fill-opacity:1;stroke:none;stroke-width:.264583;stroke-linecap:square;stroke-opacity:1;-inkscape-stroke:hairline;paint-order:stroke markers fill" d="m59.756 71.5 1.732-1 1.732 1-1.732 1z" transform="matrix(.48619 0 0 .48619 -18.632 -21.116)"/>
      <path style="vector-effect:non-scaling-stroke;fill:#b8e1f2;fill-opacity:1;stroke:none;stroke-width:.264583;stroke-linecap:square;stroke-opacity:1;-inkscape-stroke:hairline;paint-order:stroke markers fill" d="m61.488 72.5-1.732-1v2l1.732 1z" transform="matrix(.48619 0 0 .48619 -23.684 -22.575)"/>
      <path style="vector-effect:non-scaling-stroke;fill:#e9f6fd;fill-opacity:1;stroke:none;stroke-width:.264583;stroke-linecap:square;stroke-opacity:1;-inkscape-stroke:hairline;paint-order:stroke markers fill" d="m61.488 72.5 1.732-1v2l-1.732 1z" transform="matrix(.48619 0 0 .48619 -23.684 -22.575)"/>
      <path style="vector-effect:non-scaling-stroke;fill:#b5daed;fill-opacity:1;stroke:none;stroke-width:.264583;stroke-linecap:square;stroke-opacity:1;-inkscape-stroke:hairline;paint-order:stroke markers fill" d="m59.756 71.5 1.732-1 1.732 1-1.732 1z" transform="matrix(.48619 0 0 .48619 -23.684 -22.575)"/>
      <path style="vector-effect:non-scaling-stroke;fill:#b8e1f2;fill-opacity:1;stroke:none;stroke-width:.264583;stroke-linecap:square;stroke-opacity:1;-inkscape-stroke:hairline;paint-order:stroke markers fill" d="m61.488 72.5-1.732-1v2l1.732 1z" transform="matrix(.48619 0 0 .48619 -22.421 -21.845)"/>
      <path style="vector-effect:non-scaling-stroke;fill:#e9f6fd;fill-opacity:1;stroke:none;stroke-width:.264583;stroke-linecap:square;stroke-opacity:1;-inkscape-stroke:hairline;paint-order:stroke markers fill" d="m61.488 72.5 1.732-1v2l-1.732 1z" transform="matrix(.48619 0 0 .48619 -22.421 -21.845)"/>
      <path style="vector-effect:non-scaling-stroke;fill:#b5daed;fill-opacity:1;stroke:none;stroke-width:.264583;stroke-linecap:square;stroke-opacity:1;-inkscape-stroke:hairline;paint-order:stroke markers fill" d="m59.756 71.5 1.732-1 1.732 1-1.732 1z" transform="matrix(.48619 0 0 .48619 -22.421 -21.845)"/>
      <path style="vector-effect:non-scaling-stroke;fill:#b8e1f2;fill-opacity:1;stroke:none;stroke-width:.264583;stroke-linecap:square;stroke-opacity:1;-inkscape-stroke:hairline;paint-order:stroke markers fill" d="m61.488 72.5-1.732-1v2l1.732 1z" transform="matrix(.48619 0 0 .48619 -21.158 -21.116)"/>
      <path style="vector-effect:non-scaling-stroke;fill:#e9f6fd;fill-opacity:1;stroke:none;stroke-width:.264583;stroke-linecap:square;stroke-opacity:1;-inkscape-stroke:hairline;paint-order:stroke markers fill" d="m61.488 72.5 1.732-1v2l-1.732 1z" transform="matrix(.48619 0 0 .48619 -21.158 -21.116)"/>
      <path style="vector-effect:non-scaling-stroke;fill:#b5daed;fill-opacity:1;stroke:none;stroke-width:.264583;stroke-linecap:square;stroke-opacity:1;-inkscape-stroke:hairline;paint-order:stroke markers fill" d="m59.756 71.5 1.732-1 1.732 1-1.732 1z" transform="matrix(.48619 0 0 .48619 -21.158 -21.116)"/>
      <path style="vector-effect:non-scaling-stroke;fill:#b8e1f2;fill-opacity:1;stroke:none;stroke-width:.264583;stroke-linecap:square;stroke-opacity:1;-inkscape-stroke:hairline;paint-order:stroke markers fill" d="m61.488 72.5-1.732-1v2l1.732 1z" transform="matrix(.48619 0 0 .48619 -19.895 -20.387)"/>
      <path style="vector-effect:non-scaling-stroke;fill:#e9f6fd;fill-opacity:1;stroke:none;stroke-width:.264583;stroke-linecap:square;stroke-opacity:1;-inkscape-stroke:hairline;paint-order:stroke markers fill" d="m61.488 72.5 1.732-1v2l-1.732 1z" transform="matrix(.48619 0 0 .48619 -19.895 -20.387)"/>
      <path style="vector-effect:non-scaling-stroke;fill:#b5daed;fill-opacity:1;stroke:none;stroke-width:.264583;stroke-linecap:square;stroke-opacity:1;-inkscape-stroke:hairline;paint-order:stroke markers fill" d="m59.756 71.5 1.732-1 1.732 1-1.732 1z" transform="matrix(.48619 0 0 .48619 -19.895 -20.387)"/>
    </g>
    <g style="display:inline">
      <g style="display:inline">
        <path style="vector-effect:non-scaling-stroke;fill:#b8e1f2;fill-opacity:1;stroke:none;stroke-width:.264583;stroke-linecap:square;stroke-opacity:1;-inkscape-stroke:hairline;paint-order:stroke markers fill" d="m61.488 72.5-1.732-1v2l1.732 1z" transform="matrix(.48619 0 0 .48619 -16.105 -24.033)"/>
        <path style="vector-effect:non-scaling-stroke;fill:#e9f6fd;fill-opacity:1;stroke:none;stroke-width:.264583;stroke-linecap:square;stroke-opacity:1;-inkscape-stroke:hairline;paint-order:stroke markers fill" d="m61.488 72.5 1.732-1v2l-1.732 1z" transform="matrix(.48619 0 0 .48619 -16.105 -24.033)"/>
        <path style="vector-effect:non-scaling-stroke;fill:#b5daed;fill-opacity:1;stroke:none;stroke-width:.264583;stroke-linecap:square;stroke-opacity:1;-inkscape-stroke:hairline;paint-order:stroke markers fill" d="m59.756 71.5 1.732-1 1.732 1-1.732 1z" transform="matrix(.48619 0 0 .48619 -16.105 -24.033)"/>
        <path style="vector-effect:non-scaling-stroke;fill:#b8e1f2;fill-opacity:1;stroke:none;stroke-width:.264583;stroke-linecap:square;stroke-opacity:1;-inkscape-stroke:hairline;paint-order:stroke markers fill" d="m61.488 72.5-1.732-1v2l1.732 1z" transform="matrix(.48619 0 0 .48619 -17.368 -23.304)"/>
        <path style="vector-effect:non-scaling-stroke;fill:#e9f6fd;fill-opacity:1;stroke:none;stroke-width:.264583;stroke-linecap:square;stroke-opacity:1;-inkscape-stroke:hairline;paint-order:stroke markers fill" d="m61.488 72.5 1.732-1v2l-1.732 1z" transform="matrix(.48619 0 0 .48619 -17.368 -23.304)"/>
        <path style="vector-effect:non-scaling-stroke;fill:#b5daed;fill-opacity:1;stroke:none;stroke-width:.264583;stroke-linecap:square;stroke-opacity:1;-inkscape-stroke:hairline;paint-order:stroke markers fill" d="m59.756 71.5 1.732-1 1.732 1-1.732 1z" transform="matrix(.48619 0 0 .48619 -17.368 -23.304)"/>
        <path style="vector-effect:non-scaling-stroke;fill:#b8e1f2;fill-opacity:1;stroke:none;stroke-width:.264583;stroke-linecap:square;stroke-opacity:1;-inkscape-stroke:hairline;paint-order:stroke markers fill" d="m61.488 72.5-1.732-1v2l1.732 1z" transform="matrix(.48619 0 0 .48619 -18.632 -22.575)"/>
        <path style="vector-effect:non-scaling-stroke;fill:#e9f6fd;fill-opacity:1;stroke:none;stroke-width:.264583;stroke-linecap:square;stroke-opacity:1;-inkscape-stroke:hairline;paint-order:stroke markers fill" d="m61.488 72.5 1.732-1v2l-1.732 1z" transform="matrix(.48619 0 0 .48619 -18.632 -22.575)"/>
        <path style="vector-effect:non-scaling-stroke;fill:#b5daed;fill-opacity:1;stroke:none;stroke-width:.264583;stroke-linecap:square;stroke-opacity:1;-inkscape-stroke:hairline;paint-order:stroke markers fill" d="m59.756 71.5 1.732-1 1.732 1-1.732 1z" transform="matrix(.48619 0 0 .48619 -18.632 -22.575)"/>
        <path style="vector-effect:non-scaling-stroke;fill:#b8e1f2;fill-opacity:1;stroke:none;stroke-width:.264583;stroke-linecap:square;stroke-opacity:1;-inkscape-stroke:hairline;paint-order:stroke markers fill" d="m61.488 72.5-1.732-1v2l1.732 1z" transform="matrix(.48619 0 0 .48619 -23.684 -24.033)"/>
        <path style="vector-effect:non-scaling-stroke;fill:#e9f6fd;fill-opacity:1;stroke:none;stroke-width:.264583;stroke-linecap:square;stroke-opacity:1;-inkscape-stroke:hairline;paint-order:stroke markers fill" d="m61.488 72.5 1.732-1v2l-1.732 1z" transform="matrix(.48619 0 0 .48619 -23.684 -24.033)"/>
        <path style="vector-effect:non-scaling-stroke;fill:#b5daed;fill-opacity:1;stroke:none;stroke-width:.264583;stroke-linecap:square;stroke-opacity:1;-inkscape-stroke:hairline;paint-order:stroke markers fill" d="m59.756 71.5 1.732-1 1.732 1-1.732 1z" transform="matrix(.48619 0 0 .48619 -23.684 -24.033)"/>
        <path style="vector-effect:non-scaling-stroke;fill:#b8e1f2;fill-opacity:1;stroke:none;stroke-width:.264583;stroke-linecap:square;stroke-opacity:1;-inkscape-stroke:hairline;paint-order:stroke markers fill" d="m61.488 72.5-1.732-1v2l1.732 1z" transform="matrix(.48619 0 0 .48619 -22.421 -23.304)"/>
        <path style="vector-effect:non-scaling-stroke;fill:#e9f6fd;fill-opacity:1;stroke:none;stroke-width:.264583;stroke-linecap:square;stroke-opacity:1;-inkscape-stroke:hairline;paint-order:stroke markers fill" d="m61.488 72.5 1.732-1v2l-1.732 1z" transform="matrix(.48619 0 0 .48619 -22.421 -23.304)"/>
        <path style="vector-effect:non-scaling-stroke;fill:#b5daed;fill-opacity:1;stroke:none;stroke-width:.264583;stroke-linecap:square;stroke-opacity:1;-inkscape-stroke:hairline;paint-order:stroke markers fill" d="m59.756 71.5 1.732-1 1.732 1-1.732 1z" transform="matrix(.48619 0 0 .48619 -22.421 -23.304)"/>
        <path style="vector-effect:non-scaling-stroke;fill:#b8e1f2;fill-opacity:1;stroke:none;stroke-width:.264583;stroke-linecap:square;stroke-opacity:1;-inkscape-stroke:hairline;paint-order:stroke markers fill" d="m61.488 72.5-1.732-1v2l1.732 1z" transform="matrix(.48619 0 0 .48619 -21.158 -22.575)"/>
        <path style="vector-effect:non-scaling-stroke;fill:#e9f6fd;fill-opacity:1;stroke:none;stroke-width:.264583;stroke-linecap:square;stroke-opacity:1;-inkscape-stroke:hairline;paint-order:stroke markers fill" d="m61.488 72.5 1.732-1v2l-1.732 1z" transform="matrix(.48619 0 0 .48619 -21.158 -22.575)"/>
        <path style="vector-effect:non-scaling-stroke;fill:#b5daed;fill-opacity:1;stroke:none;stroke-width:.264583;stroke-linecap:square;stroke-opacity:1;-inkscape-stroke:hairline;paint-order:stroke markers fill" d="m59.756 71.5 1.732-1 1.732 1-1.732 1z" transform="matrix(.48619 0 0 .48619 -21.158 -22.575)"/>
        <path style="vector-effect:non-scaling-stroke;fill:#b8e1f2;fill-opacity:1;stroke:none;stroke-width:.264583;stroke-linecap:square;stroke-opacity:1;-inkscape-stroke:hairline;paint-order:stroke markers fill" d="m61.488 72.5-1.732-1v2l1.732 1z" transform="matrix(.48619 0 0 .48619 -19.895 -21.845)"/>
        <path style="vector-effect:non-scaling-stroke;fill:#e9f6fd;fill-opacity:1;stroke:none;stroke-width:.264583;stroke-linecap:square;stroke-opacity:1;-inkscape-stroke:hairline;paint-order:stroke markers fill" d="m61.488 72.5 1.732-1v2l-1.732 1z" transform="matrix(.48619 0 0 .48619 -19.895 -21.845)"/>
        <path style="vector-effect:non-scaling-stroke;fill:#b5daed;fill-opacity:1;stroke:none;stroke-width:.264583;stroke-linecap:square;stroke-opacity:1;-inkscape-stroke:hairline;paint-order:stroke markers fill" d="m59.756 71.5 1.732-1 1.732 1-1.732 1z" transform="matrix(.48619 0 0 .48619 -19.895 -21.845)"/>
      </g>
      <g style="display:inline">
        <path style="vector-effect:non-scaling-stroke;fill:#b8e1f2;fill-opacity:1;stroke:none;stroke-width:.264583;stroke-linecap:square;stroke-opacity:1;-inkscape-stroke:hairline;paint-order:stroke markers fill" d="m61.488 72.5-1.732-1v2l1.732 1z" transform="matrix(.48619 0 0 .48619 -16.105 -25.492)"/>
        <path style="vector-effect:non-scaling-stroke;fill:#e9f6fd;fill-opacity:1;stroke:none;stroke-width:.264583;stroke-linecap:square;stroke-opacity:1;-inkscape-stroke:hairline;paint-order:stroke markers fill" d="m61.488 72.5 1.732-1v2l-1.732 1z" transform="matrix(.48619 0 0 .48619 -16.105 -25.492)"/>
        <path style="vector-effect:non-scaling-stroke;fill:#b5daed;fill-opacity:1;stroke:none;stroke-width:.264583;stroke-linecap:square;stroke-opacity:1;-inkscape-stroke:hairline;paint-order:stroke markers fill" d="m59.756 71.5 1.732-1 1.732 1-1.732 1z" transform="matrix(.48619 0 0 .48619 -16.105 -25.492)"/>
        <path style="vector-effect:non-scaling-stroke;fill:#b8e1f2;fill-opacity:1;stroke:none;stroke-width:.264583;stroke-linecap:square;stroke-opacity:1;-inkscape-stroke:hairline;paint-order:stroke markers fill" d="m61.488 72.5-1.732-1v2l1.732 1z" transform="matrix(.48619 0 0 .48619 -17.368 -24.763)"/>
        <path style="vector-effect:non-scaling-stroke;fill:#e9f6fd;fill-opacity:1;stroke:none;stroke-width:.264583;stroke-linecap:square;stroke-opacity:1;-inkscape-stroke:hairline;paint-order:stroke markers fill" d="m61.488 72.5 1.732-1v2l-1.732 1z" transform="matrix(.48619 0 0 .48619 -17.368 -24.763)"/>
        <path style="vector-effect:non-scaling-stroke;fill:#b5daed;fill-opacity:1;stroke:none;stroke-width:.264583;stroke-linecap:square;stroke-opacity:1;-inkscape-stroke:hairline;paint-order:stroke markers fill" d="m59.756 71.5 1.732-1 1.732 1-1.732 1z" transform="matrix(.48619 0 0 .48619 -17.368 -24.763)"/>
        <path style="vector-effect:non-scaling-stroke;fill:#b8e1f2;fill-opacity:1;stroke:none;stroke-width:.264583;stroke-linecap:square;stroke-opacity:1;-inkscape-stroke:hairline;paint-order:stroke markers fill" d="m61.488 72.5-1.732-1v2l1.732 1z" transform="matrix(.48619 0 0 .48619 -18.632 -24.033)"/>
        <path style="vector-effect:non-scaling-stroke;fill:#e9f6fd;fill-opacity:1;stroke:none;stroke-width:.264583;stroke-linecap:square;stroke-opacity:1;-inkscape-stroke:hairline;paint-order:stroke markers fill" d="m61.488 72.5 1.732-1v2l-1.732 1z" transform="matrix(.48619 0 0 .48619 -18.632 -24.033)"/>
        <path style="vector-effect:non-scaling-stroke;fill:#b5daed;fill-opacity:1;stroke:none;stroke-width:.264583;stroke-linecap:square;stroke-opacity:1;-inkscape-stroke:hairline;paint-order:stroke markers fill" d="m59.756 71.5 1.732-1 1.732 1-1.732 1z" transform="matrix(.48619 0 0 .48619 -18.632 -24.033)"/>
        <path style="vector-effect:non-scaling-stroke;fill:#b8e1f2;fill-opacity:1;stroke:none;stroke-width:.264583;stroke-linecap:square;stroke-opacity:1;-inkscape-stroke:hairline;paint-order:stroke markers fill" d="m61.488 72.5-1.732-1v2l1.732 1z" transform="matrix(.48619 0 0 .48619 -23.684 -25.492)"/>
        <path style="vector-effect:non-scaling-stroke;fill:#e9f6fd;fill-opacity:1;stroke:none;stroke-width:.264583;stroke-linecap:square;stroke-opacity:1;-inkscape-stroke:hairline;paint-order:stroke markers fill" d="m61.488 72.5 1.732-1v2l-1.732 1z" transform="matrix(.48619 0 0 .48619 -23.684 -25.492)"/>
        <path style="vector-effect:non-scaling-stroke;fill:#b5daed;fill-opacity:1;stroke:none;stroke-width:.264583;stroke-linecap:square;stroke-opacity:1;-inkscape-stroke:hairline;paint-order:stroke markers fill" d="m59.756 71.5 1.732-1 1.732 1-1.732 1z" transform="matrix(.48619 0 0 .48619 -23.684 -25.492)"/>
        <path style="vector-effect:non-scaling-stroke;fill:#b8e1f2;fill-opacity:1;stroke:none;stroke-width:.264583;stroke-linecap:square;stroke-opacity:1;-inkscape-stroke:hairline;paint-order:stroke markers fill" d="m61.488 72.5-1.732-1v2l1.732 1z" transform="matrix(.48619 0 0 .48619 -22.421 -24.763)"/>
        <path style="vector-effect:non-scaling-stroke;fill:#e9f6fd;fill-opacity:1;stroke:none;stroke-width:.264583;stroke-linecap:square;stroke-opacity:1;-inkscape-stroke:hairline;paint-order:stroke markers fill" d="m61.488 72.5 1.732-1v2l-1.732 1z" transform="matrix(.48619 0 0 .48619 -22.421 -24.763)"/>
        <path style="vector-effect:non-scaling-stroke;fill:#b5daed;fill-opacity:1;stroke:none;stroke-width:.264583;stroke-linecap:square;stroke-opacity:1;-inkscape-stroke:hairline;paint-order:stroke markers fill" d="m59.756 71.5 1.732-1 1.732 1-1.732 1z" transform="matrix(.48619 0 0 .48619 -22.421 -24.763)"/>
        <path style="vector-effect:non-scaling-stroke;fill:#b8e1f2;fill-opacity:1;stroke:none;stroke-width:.264583;stroke-linecap:square;stroke-opacity:1;-inkscape-stroke:hairline;paint-order:stroke markers fill" d="m61.488 72.5-1.732-1v2l1.732 1z" transform="matrix(.48619 0 0 .48619 -21.158 -24.033)"/>
        <path style="vector-effect:non-scaling-stroke;fill:#e9f6fd;fill-opacity:1;stroke:none;stroke-width:.264583;stroke-linecap:square;stroke-opacity:1;-inkscape-stroke:hairline;paint-order:stroke markers fill" d="m61.488 72.5 1.732-1v2l-1.732 1z" transform="matrix(.48619 0 0 .48619 -21.158 -24.033)"/>
        <path style="vector-effect:non-scaling-stroke;fill:#b5daed;fill-opacity:1;stroke:none;stroke-width:.264583;stroke-linecap:square;stroke-opacity:1;-inkscape-stroke:hairline;paint-order:stroke markers fill" d="m59.756 71.5 1.732-1 1.732 1-1.732 1z" transform="matrix(.48619 0 0 .48619 -21.158 -24.033)"/>
        <path style="vector-effect:non-scaling-stroke;fill:#b8e1f2;fill-opacity:1;stroke:none;stroke-width:.264583;stroke-linecap:square;stroke-opacity:1;-inkscape-stroke:hairline;paint-order:stroke markers fill" d="m61.488 72.5-1.732-1v2l1.732 1z" transform="matrix(.48619 0 0 .48619 -19.895 -23.304)"/>
        <path style="vector-effect:non-scaling-stroke;fill:#e9f6fd;fill-opacity:1;stroke:none;stroke-width:.264583;stroke-linecap:square;stroke-opacity:1;-inkscape-stroke:hairline;paint-order:stroke markers fill" d="m61.488 72.5 1.732-1v2l-1.732 1z" transform="matrix(.48619 0 0 .48619 -19.895 -23.304)"/>
        <path style="vector-effect:non-scaling-stroke;fill:#b5daed;fill-opacity:1;stroke:none;stroke-width:.264583;stroke-linecap:square;stroke-opacity:1;-inkscape-stroke:hairline;paint-order:stroke markers fill" d="m59.756 71.5 1.732-1 1.732 1-1.732 1z" transform="matrix(.48619 0 0 .48619 -19.895 -23.304)"/>
      </g>
    </g>
    <path style="opacity:1;vector-effect:non-scaling-stroke;fill:#b8e1f2;fill-opacity:1;stroke:none;stroke-width:.264583;stroke-linecap:square;stroke-opacity:1;-inkscape-stroke:hairline;paint-order:stroke markers fill" d="M40.703 88.5 50.23 94v-5l-9.526-5.5z" transform="matrix(.48619 0 0 .48619 -14.421 -34.243)"/>
    <path style="opacity:1;vector-effect:non-scaling-stroke;fill:#e9f6fd;fill-opacity:1;stroke:none;stroke-width:.264583;stroke-linecap:square;stroke-opacity:1;-inkscape-stroke:hairline;paint-order:stroke markers fill" d="m50.23 94 9.526-5.5v-5L50.229 89z" transform="matrix(.48619 0 0 .48619 -14.421 -34.243)"/>
    <path style="opacity:1;vector-effect:non-scaling-stroke;fill:#fff;fill-opacity:1;stroke:none;stroke-width:.264583;stroke-linecap:square;stroke-opacity:1;-inkscape-stroke:hairline;paint-order:stroke markers fill" d="M40.703 83.5 50.23 78l9.527 5.5-9.527 5.5z" transform="matrix(.48619 0 0 .48619 -14.421 -34.243)"/>
    <g style="display:inline">
      <path style="opacity:1;vector-effect:non-scaling-stroke;fill:#3d8ac6;fill-opacity:.5;stroke:none;stroke-width:.264583;stroke-linecap:square;stroke-opacity:1;-inkscape-stroke:hairline;paint-order:stroke markers fill" d="m19.053 108 16.454 9.5v15L19.053 123Z" transform="matrix(.48619 0 0 .48619 -7.263 -45.183)"/>
      <path style="vector-effect:non-scaling-stroke;fill:#3d8ac6;fill-opacity:.25;stroke:none;stroke-width:.264583;stroke-linecap:square;stroke-opacity:1;-inkscape-stroke:hairline;paint-order:stroke markers fill" d="m51.962 108-16.455 9.5v15l16.455-9.5Z" transform="matrix(.48619 0 0 .48619 -7.263 -45.183)"/>
    </g>
    <path style="opacity:1;vector-effect:non-scaling-stroke;fill:#72bfe6;fill-opacity:.85;stroke:none;stroke-width:.264583;stroke-linecap:square;stroke-opacity:1;-inkscape-stroke:hairline;paint-order:stroke markers fill" d="m19.053 108 16.454-9.5 16.455 9.5-16.455 9.5-16.454-9.5" clip-path="url(#a)" transform="matrix(.48619 0 0 .48619 -7.263 -45.183)"/>
  </g>
</svg>