<svg width="20" height="20" viewBox="0 0 20 20" fill="none" xmlns="http://www.w3.org/2000/svg">
<path d="M17.8022 2.05956C17.6703 1.98015 17.5165 1.98015 17.3846 2.05956L12.7693 4.7371L11.0769 2.19571C11.0659 2.18436 11.055 2.17302 11.055 2.16167L11.044 2.15033C11.033 2.12764 11.011 2.11629 11 2.10495L10.989 2.0936C10.978 2.08225 10.956 2.07091 10.9341 2.05956C10.9231 2.05956 10.9231 2.04822 10.9121 2.04822C10.9011 2.03687 10.8791 2.03687 10.8681 2.02553C10.8572 2.02553 10.8462 2.01418 10.8352 2.01418C10.8242 2.01418 10.8132 2.01418 10.7912 2.00284C10.7802 2.00284 10.7583 2.00284 10.7473 2.00284C10.7363 2.00284 10.7253 2.00284 10.7143 2.00284C10.6923 2.00284 10.6813 2.00284 10.6593 2.01418C10.6484 2.01418 10.6484 2.01418 10.6374 2.01418C10.6154 2.01418 10.6044 2.02553 10.5824 2.03687C10.5714 2.03687 10.5714 2.03687 10.5605 2.04822C10.5494 2.04822 10.5385 2.05956 10.5275 2.05956L2.20879 6.88141C2.1978 6.88141 2.1978 6.89274 2.18681 6.89274H2.17582C2.15385 6.90411 2.13187 6.92676 2.12088 6.93813L2.10989 6.94946C2.0989 6.96083 2.08791 6.98349 2.07692 6.99486L2.06593 7.00619C2.05494 7.02889 2.04396 7.05159 2.03297 7.07429V7.08562C2.02198 7.10831 2.02198 7.11964 2.02198 7.14234C2.02198 7.15367 2.02198 7.15367 2.02198 7.16504C2 7.2104 2 7.2331 2 7.2558V17.5575C2 17.705 2.07692 17.8525 2.20879 17.9319C2.27473 17.9659 2.35165 17.9886 2.41758 17.9886C2.48352 17.9886 2.56044 17.9659 2.62638 17.9319L7.24176 15.2544L8.92309 17.8071C8.92309 17.8071 8.92309 17.8071 8.93407 17.8185C8.93407 17.8298 8.94508 17.8298 8.94508 17.8411C8.95605 17.8525 8.95605 17.8525 8.96703 17.8638L8.97804 17.8752C8.98901 17.8865 8.98901 17.8865 9.00002 17.8979L9.011 17.9092C9.02197 17.9206 9.03298 17.9206 9.04396 17.9319C9.04396 17.9319 9.05497 17.9319 9.05497 17.9433C9.05497 17.9433 9.05497 17.9433 9.06594 17.9433C9.07692 17.9546 9.08793 17.9546 9.0989 17.9546C9.10991 17.9546 9.10991 17.9546 9.12089 17.9659C9.13186 17.9659 9.14287 17.9773 9.15385 17.9773C9.16486 17.9773 9.16486 17.9773 9.17583 17.9886C9.18681 17.9886 9.19782 17.9886 9.20879 18H9.2198C9.24175 18 9.25276 18 9.27475 18C9.27475 18 9.27475 18 9.28572 18C9.29669 18 9.31868 18 9.32969 18C9.34066 18 9.34066 18 9.35164 18C9.36265 18 9.37362 18 9.38464 17.9886C9.39561 17.9886 9.39561 17.9886 9.40658 17.9773C9.41759 17.9773 9.42857 17.9659 9.43958 17.9659C9.45055 17.9659 9.45055 17.9546 9.46157 17.9546C9.46157 17.9546 9.47254 17.9546 9.47254 17.9433L17.7912 13.1214C17.9231 13.042 18 12.9059 18 12.747V2.43397C18 2.27513 17.9231 2.13898 17.8022 2.05956ZM2.83517 16.8314V8.63994L6.75823 14.5509L2.83517 16.8314ZM9.06594 6.88141C8.93407 6.96083 8.85714 7.09695 8.85714 7.2558V16.1734L3.02198 7.40328L10.6044 3.00124L12.033 5.15689L9.06594 6.88141ZM17.1758 12.4861L9.69232 16.8314V7.5054L17.1758 3.17142V12.4861Z" fill="#00D2D2"/>
</svg>
