<svg width="24" height="24" viewBox="0 0 24 24" fill="none" xmlns="http://www.w3.org/2000/svg">
<path d="M21 11.8172C21 10.6544 19.5067 9.55253 17.2173 8.86919C17.7456 6.5938 17.5108 4.78351 16.4762 4.20393C16.2377 4.06798 15.9588 4.00358 15.6543 4.00358V4.8014C15.8231 4.8014 15.9588 4.83359 16.0726 4.89441C16.5715 5.17347 16.788 6.23604 16.6192 7.6027C16.5789 7.939 16.5128 8.29319 16.4321 8.65454C15.713 8.48281 14.9278 8.35043 14.1023 8.26457C13.607 7.6027 13.0934 7.00166 12.576 6.47574C13.7721 5.39171 14.8948 4.79782 15.658 4.79782V4C14.649 4 13.3282 4.70122 11.9927 5.91763C10.6572 4.70838 9.33632 4.01431 8.32735 4.01431V4.81213C9.08683 4.81213 10.2132 5.40244 11.4093 6.47932C10.8956 7.00523 10.382 7.6027 9.89401 8.26457C9.06482 8.35043 8.27966 8.48281 7.56054 8.65811C7.47615 8.30035 7.41378 7.95331 7.36975 7.62059C7.19731 6.25393 7.41011 5.19136 7.90542 4.90873C8.01549 4.84433 8.15858 4.81571 8.32735 4.81571V4.01789C8.01916 4.01789 7.74032 4.08229 7.49817 4.21824C6.46718 4.79782 6.23604 6.60454 6.76804 8.87277C4.48594 9.55968 3 10.658 3 11.8172C3 12.9799 4.49327 14.0818 6.78271 14.7652C6.25438 17.0406 6.4892 18.8509 7.52385 19.4304C7.76233 19.5664 8.04117 19.6308 8.34937 19.6308C9.35834 19.6308 10.6792 18.9296 12.0147 17.7132C13.3502 18.9224 14.671 19.6165 15.68 19.6165C15.9882 19.6165 16.267 19.5521 16.5092 19.4161C17.5402 18.8366 17.7713 17.0298 17.2393 14.7616C19.5141 14.0783 21 12.9763 21 11.8172ZM16.223 9.43089C16.0872 9.89241 15.9185 10.3682 15.7277 10.8441C15.5773 10.5578 15.4195 10.2716 15.247 9.98542C15.0783 9.69921 14.8985 9.42015 14.7187 9.14825C15.2397 9.22338 15.7424 9.3164 16.223 9.43089ZM14.5426 13.2411C14.2564 13.7241 13.9629 14.182 13.6584 14.6078C13.1117 14.6543 12.5577 14.6793 12 14.6793C11.446 14.6793 10.892 14.6543 10.349 14.6113C10.0444 14.1856 9.74725 13.7312 9.46107 13.2518C9.18223 12.7832 8.92907 12.3073 8.69792 11.8279C8.9254 11.3485 9.18223 10.8691 9.4574 10.4004C9.74358 9.91745 10.0371 9.45951 10.3416 9.03377C10.8883 8.98726 11.4423 8.96221 12 8.96221C12.554 8.96221 13.108 8.98726 13.651 9.03019C13.9556 9.45593 14.2528 9.91029 14.5389 10.3897C14.8178 10.8584 15.0709 11.3342 15.3021 11.8136C15.0709 12.293 14.8178 12.7724 14.5426 13.2411ZM15.7277 12.776C15.9258 13.2554 16.0946 13.7348 16.234 14.1999C15.7534 14.3144 15.247 14.411 14.7224 14.4861C14.9022 14.2106 15.0819 13.928 15.2507 13.6382C15.4195 13.352 15.5773 13.0622 15.7277 12.776ZM12.0073 16.5934C11.6661 16.2499 11.3249 15.8671 10.9874 15.4485C11.3176 15.4628 11.6551 15.4736 11.9963 15.4736C12.3412 15.4736 12.6824 15.4664 13.0163 15.4485C12.6861 15.8671 12.3449 16.2499 12.0073 16.5934ZM9.27762 14.4861C8.75662 14.411 8.25397 14.318 7.77334 14.2035C7.90909 13.742 8.07786 13.2661 8.26865 12.7903C8.41908 13.0765 8.57684 13.3627 8.74929 13.6489C8.92173 13.9352 9.09784 14.2142 9.27762 14.4861ZM11.989 7.04101C12.3302 7.38447 12.6714 7.76728 13.009 8.18586C12.6788 8.17155 12.3412 8.16082 12 8.16082C11.6551 8.16082 11.3139 8.16797 10.98 8.18586C11.3102 7.76728 11.6514 7.38447 11.989 7.04101ZM9.27395 9.14825C9.09417 9.42373 8.91439 9.70637 8.74562 9.99616C8.57684 10.2824 8.41908 10.5686 8.26865 10.8548C8.07053 10.3754 7.90175 9.89598 7.76233 9.43089C8.24297 9.31998 8.74929 9.22338 9.27395 9.14825ZM5.95353 13.6275C4.65471 13.0873 3.81451 12.3789 3.81451 11.8172C3.81451 11.2555 4.65471 10.5435 5.95353 10.0069C6.26906 9.87452 6.61394 9.75645 6.96983 9.64555C7.17896 10.3468 7.45414 11.0766 7.79535 11.8243C7.45781 12.5685 7.1863 13.2948 6.98084 13.9924C6.61761 13.8815 6.27273 13.7599 5.95353 13.6275ZM7.92744 18.74C7.42846 18.4609 7.21199 17.3983 7.38076 16.0317C7.42112 15.6954 7.48716 15.3412 7.56788 14.9798C8.287 15.1516 9.07216 15.2839 9.89768 15.3698C10.393 16.0317 10.9066 16.6327 11.424 17.1586C10.2279 18.2427 9.10518 18.8366 8.34203 18.8366C8.17693 18.833 8.03751 18.8008 7.92744 18.74ZM16.6302 16.0138C16.8027 17.3804 16.5899 18.443 16.0946 18.7256C15.9845 18.79 15.8414 18.8187 15.6726 18.8187C14.9132 18.8187 13.7868 18.2284 12.5907 17.1515C13.1044 16.6256 13.618 16.0281 14.106 15.3662C14.9352 15.2804 15.7203 15.148 16.4395 14.9727C16.5238 15.334 16.5899 15.6811 16.6302 16.0138ZM18.0428 13.6275C17.7273 13.7599 17.3824 13.8779 17.0265 13.9888C16.8174 13.2876 16.5422 12.5578 16.201 11.81C16.5385 11.0659 16.81 10.3396 17.0155 9.64197C17.3787 9.75288 17.7236 9.87452 18.0465 10.0069C19.3453 10.5471 20.1855 11.2555 20.1855 11.8172C20.1818 12.3789 19.3416 13.0908 18.0428 13.6275Z" fill="#61DAFB"/>
<path d="M11.9963 13.4521C12.9223 13.4521 13.673 12.7201 13.673 11.8171C13.673 10.9141 12.9223 10.1821 11.9963 10.1821C11.0703 10.1821 10.3196 10.9141 10.3196 11.8171C10.3196 12.7201 11.0703 13.4521 11.9963 13.4521Z" fill="#61DAFB"/>
</svg>
