<svg width="20" height="20" viewBox="0 0 20 20" fill="none" xmlns="http://www.w3.org/2000/svg">
<path fill-rule="evenodd" clip-rule="evenodd" d="M17.8449 14.3551L10.4994 2.20377C10.3351 1.93208 9.92926 1.93208 9.76499 2.20377L3.52247 12.5302C3.41277 12.7119 3.61078 12.9216 3.80758 12.8323C3.8884 12.7955 3.98167 12.7585 4.08409 12.7216L4.082 12.7257C4.082 12.7257 4.25255 12.6617 4.54075 12.5733C4.85838 12.4789 5.20644 12.3895 5.52154 12.314C6.40322 12.1171 7.55853 11.9568 8.60029 12.1242C9.55904 12.2781 10.2267 12.5267 10.713 12.7711C10.936 12.8833 11.1465 12.6017 10.9663 12.4322C10.2691 11.7766 9.1962 10.9852 7.56438 10.6536C7.49294 10.6391 7.4571 10.5611 7.49404 10.5001L9.95164 6.4346C10.0325 6.30105 10.2319 6.30105 10.3127 6.4346L15.0063 14.199C15.1052 14.3625 15.0223 14.5714 14.8366 14.6315C14.4688 14.7505 14.0295 14.8394 13.5377 14.8394C13.2248 14.8394 12.91 14.8037 12.5945 14.7328C12.5945 14.7328 11.6849 14.5939 10.4692 13.8921C9.25342 13.1904 6.90938 12.2952 4.27912 13.7445C3.15843 14.4412 2.4117 15.3942 2.01821 15.9925C1.95658 16.0862 2.06297 16.1979 2.16418 16.1456C3.06791 15.6785 5.50456 14.5753 7.70021 14.9719C9.00525 15.2075 10.4966 16.1607 12.047 16.7073C14.6116 17.6268 17.126 16.0863 17.1314 16.083C17.3972 15.9131 17.5533 15.7839 17.5799 15.7615L17.612 15.7344C18.0218 15.3884 18.1196 14.8093 17.8449 14.3551Z" fill="#00ADD4"/>
</svg>
