<svg width="20" height="20" viewBox="0 0 20 20" fill="none" xmlns="http://www.w3.org/2000/svg">
<path d="M9.1052 3.17642L2.8656 5.75845C2.51859 5.90228 2.52225 6.39494 2.87135 6.53327L9.13684 9.01802C9.68736 9.23636 10.3004 9.23636 10.851 9.01802L17.1165 6.53327C17.4656 6.39468 17.4695 5.90201 17.1222 5.75845L10.8829 3.17668C10.3136 2.94111 9.67417 2.94111 9.10494 3.17668" fill="#FFCC00"/>
<path d="M10.55 10.3748V16.582C10.5501 16.6502 10.5669 16.7173 10.5988 16.7776C10.6308 16.8378 10.677 16.8893 10.7334 16.9276C10.7898 16.9659 10.8547 16.9899 10.9225 16.9973C10.9902 17.0048 11.0588 16.9957 11.1222 16.9706L18.1042 14.2604C18.182 14.2295 18.2488 14.1759 18.2958 14.1067C18.3428 14.0374 18.368 13.9556 18.3681 13.8719V7.66493C18.368 7.59675 18.3512 7.52963 18.3193 7.4694C18.2873 7.40917 18.2411 7.35766 18.1847 7.31935C18.1283 7.28104 18.0634 7.2571 17.9956 7.24961C17.9279 7.24211 17.8593 7.25129 17.7959 7.27635L10.8139 9.98651C10.7361 10.0174 10.6693 10.071 10.6223 10.1403C10.5753 10.2096 10.5501 10.2911 10.55 10.3748Z" fill="#31C2F2"/>
<path d="M8.92001 10.6951L6.63766 11.7973L2.26358 13.8932C1.98639 14.0271 1.63232 13.8252 1.63232 13.5166V7.69099C1.63232 7.57959 1.68933 7.48336 1.76621 7.41119C1.79764 7.37988 1.83328 7.35313 1.87212 7.33169C1.97672 7.26893 2.12577 7.2522 2.2526 7.3024L8.8855 9.93046C9.22544 10.0643 9.25159 10.5366 8.92027 10.6953" fill="#ED3049"/>
<path d="M8.91993 10.6951L6.84782 11.6956L1.76587 7.4107C1.79729 7.37939 1.83294 7.35264 1.87178 7.3312C1.97638 7.26844 2.12543 7.25171 2.25226 7.30192L8.88515 9.92997C9.2251 10.0639 9.25125 10.5364 8.91993 10.6951Z" fill="#C62842"/>
</svg>
