<svg width="16" height="16" viewBox="0 0 16 16" fill="none" xmlns="http://www.w3.org/2000/svg">
<g clip-path="url(#clip0_3798_266)">
<path d="M16 8C16 12.4188 12.4188 16 8 16C3.58125 16 0 12.4188 0 8C0 3.58125 3.58125 0 8 0C12.4188 0 16 3.58125 16 8Z" fill="#13AA52"/>
<path d="M10.1375 7.02188C9.63435 4.79375 8.43748 4.05938 8.30935 3.77813C8.16873 3.58125 8.0281 3.23125 8.0281 3.23125C8.02498 3.225 8.02185 3.2125 8.0156 3.20312C8.0031 3.4 7.99373 3.47813 7.80623 3.675C7.51873 3.90313 6.03435 5.15 5.91248 7.68125C5.79998 10.0438 7.61873 11.4531 7.8656 11.6344L7.89373 11.6531V11.65C7.89685 11.6625 7.97185 12.2125 8.02498 12.7969H8.21873C8.26248 12.3844 8.33123 11.975 8.42185 11.5688L8.43748 11.5594C8.54685 11.4812 8.6531 11.3938 8.7531 11.3031L8.76248 11.2938C9.28748 10.8094 10.225 9.69063 10.2187 7.90938C10.2156 7.6125 10.1875 7.31563 10.1375 7.02188ZM8.00623 10.3C8.00623 10.3 8.00623 6.98438 8.1156 6.98438C8.19998 6.98438 8.30935 11.2594 8.30935 11.2594C8.15935 11.2406 8.00623 10.5562 8.00623 10.3Z" fill="white"/>
</g>
<defs>
<clipPath id="clip0_3798_266">
<rect width="16" height="16" fill="white"/>
</clipPath>
</defs>
</svg>
