<?xml version="1.0" encoding="UTF-8"?>
<!-- Uploaded to: SVG Repo, www.svgrepo.com, Generator: SVG Repo Mixer Tools -->
<svg width="800px" height="800px" viewBox="0 -41 256 256" version="1.1" xmlns="http://www.w3.org/2000/svg" xmlns:xlink="http://www.w3.org/1999/xlink" preserveAspectRatio="xMidYMid">
    <defs>
        <linearGradient x1="28.0276375%" y1="64.7748416%" x2="65.9335499%" y2="20.3838598%" id="linearGradient-1">
            <stop stop-color="#8855FF" offset="0%">
</stop>
            <stop stop-color="#00B6FF" offset="100%">
</stop>
        </linearGradient>
        <linearGradient x1="49.1979953%" y1="50.8639512%" x2="57.1260448%" y2="43.3468532%" id="linearGradient-2">
            <stop stop-color="#FFFFFF" offset="7%">
</stop>
            <stop stop-color="#009FFF" offset="89%">
</stop>
        </linearGradient>
        <linearGradient x1="19.3675746%" y1="222.565203%" x2="129.608939%" y2="308.847796%" id="linearGradient-3">
            <stop stop-color="#FFFFFF" offset="7%">
</stop>
            <stop stop-color="#009FFF" offset="89%">
</stop>
        </linearGradient>
        <linearGradient x1="11.0147792%" y1="39.4618813%" x2="75.4298469%" y2="63.2664677%" id="linearGradient-4">
            <stop stop-color="#4036C1" offset="0%">
</stop>
            <stop stop-color="#539EFF" offset="98%">
</stop>
        </linearGradient>
    </defs>
    <g>
        <path d="M136.783412,169.367928 L252.361179,53.7726222 C254.691678,51.4494249 256.001554,48.2941079 256.001554,45.0034441 C256.001554,41.7127802 254.691678,38.5574632 252.361179,36.234266 L252.361179,36.234266 L222.002285,5.85783313 C218.262138,2.1058189 213.181672,-0.00210121184 207.883908,2.05693905e-05 L48.2848669,2.05693905e-05 C42.9825633,2.05693905e-05 37.8977735,2.10806501 34.1489518,5.85783313 L3.68482719,36.2868811 C1.35879123,38.5659311 0.0335189273,41.6757481 0,44.932039 C-0.0322647266,48.1883299 1.22991899,51.3242829 3.50944363,53.6498537 L3.68482719,53.8252372 L119.262594,169.420543 C121.585792,171.751041 124.741109,173.060917 128.031772,173.060917 C131.322436,173.060917 134.477753,171.751041 136.80095,169.420543 L136.783412,169.367928 Z" fill="url(#linearGradient-1)">
</path>
        <path d="M33.219419,6.78736601 C37.3934586,2.59262355 43.4013883,0.785628232 49.1968614,1.98185642 L249.905809,42.6883811 C253.222728,43.3744507 255.362287,46.6112191 254.693781,49.9317222 C254.610511,50.3481829 254.481098,50.754069 254.307937,51.1418687 C257.133291,46.3099114 256.332619,40.178642 252.361179,36.234266 L222.002285,5.85783313 C218.262138,2.1058189 213.181672,-0.00210121184 207.883908,2.05693905e-05 L48.2848669,2.05693905e-05 C42.9825633,0.000968523605 37.8977735,2.10806501 34.1489518,5.85783313 L33.219419,6.78736601 Z" fill="url(#linearGradient-2)" opacity="0.400000006">
</path>
        <path d="M211.794961,8.89196875 L200.114416,32.6213646 L249.905809,42.6883811 C253.222728,43.3744507 255.362287,46.6112191 254.693781,49.9317222 C254.610511,50.3481829 254.481098,50.754069 254.307937,51.1418687 C257.133291,46.3099114 256.332619,40.178642 252.361179,36.234266 L222.002285,5.85783313 C218.262138,2.1058189 213.181672,-0.00210121184 207.883908,0 L206.340533,0 C208.467022,-0.00569817817 210.443189,1.09580347 211.556681,2.90746631 C212.670174,4.71912916 212.760447,6.97974722 211.794961,8.87443039 L211.794961,8.89196875 Z" fill="url(#linearGradient-3)" opacity="0.400000006">
</path>
        <path d="M254.307937,51.2120222 C255.652249,48.10273 254.223732,44.4921923 251.115956,43.1443783 C250.728156,42.9712173 250.32227,42.8418043 249.905809,42.7585345 L200.114416,32.6213646 L133.117896,167.824552 C131.326447,171.444229 127.172131,173.227835 123.313955,172.033758 C127.930426,173.943924 133.242579,172.89256 136.783412,169.367928 L252.361179,53.7726222 C253.130964,53.0181214 253.786765,52.1555363 254.307937,51.2120222 L254.307937,51.2120222 Z" fill="url(#linearGradient-4)">
</path>
    </g>
</svg>