<?xml version="1.0" encoding="UTF-8"?>
<svg id="logos" xmlns="http://www.w3.org/2000/svg" xmlns:xlink="http://www.w3.org/1999/xlink" viewBox="0 0 367.96 194.52">
  <defs>
    <style>
      .cls-1 {
        fill: url(#linear-gradient);
      }

      .cls-1, .cls-2 {
        stroke-width: 0px;
      }
    </style>
    <linearGradient id="linear-gradient" x1="276.28" y1="67.16" x2="310.64" y2="92.01" gradientUnits="userSpaceOnUse">
      <stop offset="0" stop-color="#21daa9"/>
      <stop offset=".07" stop-color="#17cfbb"/>
      <stop offset=".23" stop-color="#06bae0"/>
      <stop offset=".31" stop-color="#00b3ee"/>
      <stop offset=".39" stop-color="#01a6eb"/>
      <stop offset=".53" stop-color="#0486e3"/>
      <stop offset=".65" stop-color="#0768dc"/>
      <stop offset="1" stop-color="#5f1ae4"/>
    </linearGradient>
  </defs>
  <g id="QXM_RGB" data-name="QXM RGB">
    <g id="QXM_RGB-2" data-name="QXM RGB">
      <g id="QXM_RGB-3" data-name="QXM RGB">
        <g id="RGB_qualtrics_XM" data-name="RGB qualtrics XM">
          <g>
            <g>
              <g>
                <path class="cls-2" d="m145.16,111.19c-1.53,0-1.84-1.13-1.84-3.08v-19.51c0-6.64-3.74-10.61-10.01-10.61-7.49,0-10.89,5.77-10.94,11.49v.24s4.98,0,4.98,0v-.24c-.03-2.04.67-3.94,1.91-5.2,1.02-1.04,2.33-1.58,3.79-1.58,2.99,0,4.77,2.34,4.77,6.27v1.82l-6.01,2.85c-6.81,3.19-11.28,5.78-11.28,12.5,0,5.9,3.72,9.87,9.25,9.87,3.14,0,6.13-1.55,8.47-4.38.8,2.79,2.87,4.38,5.75,4.38,1.01,0,2.09-.22,3.11-.64l.14-.06v-4.8l-.34.19c-.49.27-1.09.54-1.75.49Zm-7.33-15.53v11.34c-1.35,2.2-3.98,4.4-6.82,4.4-3.06,0-4.95-2-4.95-5.21,0-4.48,3.92-6.87,7.34-8.45l4.44-2.08Z"/>
                <path class="cls-2" d="m173.18,67.2h-5.5l-.19,11.52h-4.78v4.98h4.98v23.92c0,5.37,2.51,8.33,7.06,8.33,1.79,0,3.55-.5,5.39-1.53l.12-.07v-4.96l-.38.31c-1.18.96-2.52,1.5-3.78,1.5-2.41,0-2.92-2.01-2.92-3.69v-23.8h7.86v-4.98h-7.86v-11.52Z"/>
                <path class="cls-2" d="m109.29,106.64c-2.07,3.01-4.46,4.66-6.72,4.66-2.96,0-4.02-2.91-4.02-5.63v-26.95h-5.5v27.12c0,6.32,2.88,9.95,7.9,9.95,4.13,0,6.84-2.25,8.48-4.35l.09,3.67h5.27v-36.4h-5.5v27.92Z"/>
                <path class="cls-2" d="m81.12,82.04c-1.37-2.55-3.91-3.99-7.09-3.99s-5.87,1.51-7.92,4.26c-2.51,3.36-3.78,8.31-3.78,14.7,0,13.98,5.64,18.96,10.93,18.96,2.99,0,5.58-1.23,7.23-3.4v20.36h5.5v-54.21h-4.71l-.15,3.32Zm-.64,5.09v19.98c-1.51,2.74-3.35,4.02-5.78,4.02-4.5,0-6.78-4.75-6.78-14.13s2.57-14.18,7.04-14.18c2.47,0,4.64,1.69,5.53,4.31Z"/>
                <rect class="cls-2" x="151.71" y="61.71" width="5.5" height="53.68"/>
                <rect class="cls-2" x="206.96" y="78.73" width="5.5" height="36.4"/>
                <rect class="cls-2" x="206.96" y="67.2" width="5.5" height="6.28"/>
                <path class="cls-2" d="m256.89,93.62l-.03-.02h0c-3.43-1.77-5.85-3.26-5.85-6.34,0-2.67,1.89-4.46,4.71-4.46,1.51,0,2.78.52,3.67,1.51,1.1,1.21,1.61,3.09,1.4,5.16l-.03.26h5.06v-.22c.18-3.43-.82-6.46-2.79-8.52-1.81-1.9-4.32-2.9-7.26-2.9-5.89,0-10.01,3.9-10.01,9.49,0,6.09,4.88,8.7,8.44,10.6,3.55,1.93,6.9,3.74,6.9,7.54,0,3.2-2.33,5.52-5.54,5.52-3.49,0-6.01-2.94-6.11-7.14v-.23h-5.1v.24c.17,7.39,4.46,11.98,11.21,11.98s10.79-4.27,10.79-10.63c0-6.83-5.02-9.49-9.45-11.84Z"/>
                <path class="cls-2" d="m235.6,103.87c-.11,2.59-.82,4.73-2.02,5.98-.85.89-1.94,1.34-3.22,1.34-4.17,0-6.38-4.86-6.38-14.06s2.28-14.2,6.43-14.2c1.19,0,2.2.42,3,1.25,1.12,1.16,1.8,3.14,1.92,5.55h5.13c-.06-3.81-1.08-6.86-3.01-8.86-1.7-1.77-4-2.66-6.84-2.66-7.78,0-12.06,6.7-12.06,18.87s4.15,18.87,11.7,18.87c6.07,0,9.87-4.49,10.35-12.08h-5.01Z"/>
              </g>
              <path class="cls-2" d="m274.02,112.36c.11-.2.17-.44.17-.71,0-.39-.12-.69-.35-.91-.24-.22-.58-.33-1.03-.33h-1.96v3.93h1.05v-1.31h.8l.71,1.31h.91l-.84-1.53c.24-.1.42-.25.53-.45Zm-.84-.22c-.13.07-.31.11-.56.11h-.72v-1.05h.72c.24,0,.43.04.56.13.13.08.19.23.19.42s-.06.32-.19.39Z"/>
              <path class="cls-2" d="m275.69,110.96c-.18-.42-.42-.79-.74-1.09-.31-.3-.68-.54-1.1-.71-.42-.17-.88-.25-1.37-.25s-.95.09-1.37.25c-.42.17-.79.41-1.11.71-.31.3-.56.67-.74,1.09s-.27.89-.27,1.41.09.99.27,1.42c.18.43.42.8.74,1.11s.68.55,1.11.72c.42.17.88.25,1.37.25s.95-.08,1.37-.25c.42-.17.79-.41,1.1-.72.31-.31.56-.68.74-1.11.18-.43.27-.9.27-1.42s-.09-.99-.27-1.41Zm-.67,2.56c-.14.34-.34.64-.58.89-.24.25-.53.44-.87.58-.34.13-.69.2-1.07.2s-.74-.07-1.08-.2c-.34-.13-.63-.33-.87-.58-.25-.25-.44-.55-.58-.89-.14-.34-.21-.72-.21-1.14s.07-.79.21-1.13c.14-.34.34-.64.58-.89.24-.25.53-.44.87-.58.33-.13.69-.2,1.08-.2s.73.07,1.07.2c.33.13.62.33.87.58.25.25.44.55.58.89.14.34.21.72.21,1.13s-.07.8-.21,1.14Z"/>
            </g>
            <path class="cls-1" d="m305.98,66.94l-4.73,16.76h-.06l-5.08-16.76h-11.11l-3.85,6.84-4.07-6.84h-5.71l6.64,10.74-7.29,12.04h5.41l4.65-7.92,4.81,7.92h8.57v-15.71h.06c.12.66.23,1.22.34,1.69.1.47.21.9.31,1.3.1.4.21.78.32,1.14.11.36.23.75.35,1.18l3.36,10.4h4.53l3.32-10.4c.24-.84.47-1.64.68-2.42.21-.78.39-1.65.55-2.63h.06v15.45h4.71v-22.78h-6.78Zm-22.44,10.73l5.92-9.82v19.44l-5.92-9.63Z"/>
          </g>
        </g>
        <path class="cls-2" d="m191.81,83.04l-.28-4.31h-5.26v36.66h5.5v-26.37s2.23-6,8.76-5.7c.58.03.83.07,1.19.1v-5.48s-1.38,0-1.38,0c-3.88.16-6.01,1.37-8.53,5.1Z"/>
      </g>
    </g>
  </g>
</svg>