<svg width="20" height="20" viewBox="0 0 20 20" fill="none" xmlns="http://www.w3.org/2000/svg">
<rect x="2" y="14.8" width="3.2" height="3.2" fill="#FE0208"/>
<rect x="14.8" y="14.8" width="3.2" height="3.2" fill="#FE0208"/>
<rect x="2" y="11.6001" width="3.2" height="3.2" fill="#FE4900"/>
<rect x="14.8" y="11.6001" width="3.2" height="3.2" fill="#FE4900"/>
<rect x="2" y="8.3999" width="3.2" height="3.2" fill="#FF7000"/>
<rect x="14.8" y="8.3999" width="3.2" height="3.2" fill="#FF7000"/>
<rect x="2" y="5.19995" width="3.2" height="3.2" fill="#FFA301"/>
<rect x="14.8" y="5.19995" width="3.2" height="3.2" fill="#FFA301"/>
<rect x="5.19995" y="5.19995" width="3.2" height="3.2" fill="#FFA301"/>
<rect x="11.6001" y="5.19995" width="3.2" height="3.2" fill="#FFA301"/>
<rect x="5.19995" y="8.3999" width="3.2" height="3.2" fill="#FF7000"/>
<rect x="11.6001" y="8.3999" width="3.2" height="3.2" fill="#FF7000"/>
<rect x="8.3999" y="8.3999" width="3.2" height="3.2" fill="#FF7000"/>
<rect x="8.3999" y="11.6001" width="3.2" height="3.2" fill="#FE4900"/>
<rect x="2" y="2" width="3.2" height="3.2" fill="#FECE00"/>
<rect x="14.8" y="2" width="3.2" height="3.2" fill="#FECE00"/>
</svg>
