<?xml version="1.0" encoding="UTF-8"?>
<svg xmlns="http://www.w3.org/2000/svg" xmlns:xlink="http://www.w3.org/1999/xlink" width="24px" height="24px" viewBox="0 0 24 24" version="1.1">
<g id="surface1">
<path style=" stroke:none;fill-rule:evenodd;fill:rgb(98.431373%,98.431373%,98.431373%);fill-opacity:1;" d="M 12.949219 5.390625 C 12.890625 5.449219 12.863281 5.496094 12.863281 5.546875 C 12.863281 5.789062 13.167969 5.910156 13.308594 5.726562 C 13.507812 5.464844 13.183594 5.15625 12.949219 5.390625 M 10.765625 6.175781 C 10.527344 6.324219 10.609375 6.648438 10.886719 6.648438 C 10.984375 6.644531 11.0625 6.597656 11.109375 6.511719 C 11.214844 6.308594 10.957031 6.054688 10.765625 6.175781 M 12.949219 6.230469 L 12.863281 6.3125 L 12.863281 7.375 C 12.863281 8.34375 12.859375 8.441406 12.820312 8.5 C 12.734375 8.628906 12.695312 8.652344 12.5625 8.652344 C 12.335938 8.652344 12.238281 8.5 12.238281 8.148438 C 12.238281 7.921875 12.167969 7.824219 12 7.824219 C 11.933594 7.824219 11.890625 7.84375 11.835938 7.894531 L 11.761719 7.964844 L 11.761719 8.925781 C 11.761719 9.863281 11.761719 9.886719 11.804688 9.886719 C 11.832031 9.886719 11.859375 9.878906 11.867188 9.863281 C 11.9375 9.753906 12.582031 9.703125 12.804688 9.792969 C 13.070312 9.902344 13.257812 10.03125 13.398438 10.199219 C 13.519531 10.34375 13.546875 10.390625 13.660156 10.679688 C 13.75 10.917969 13.683594 11.398438 13.519531 11.683594 C 13.402344 11.878906 13.042969 12.191406 12.925781 12.191406 C 12.90625 12.191406 12.886719 12.203125 12.878906 12.214844 C 12.800781 12.339844 12.171875 12.324219 11.898438 12.191406 C 11.84375 12.164062 11.789062 12.144531 11.78125 12.144531 C 11.769531 12.144531 11.761719 12.417969 11.761719 12.75 C 11.757812 13.402344 11.746094 13.507812 11.644531 13.613281 C 11.53125 13.734375 11.371094 13.730469 11.230469 13.605469 L 11.148438 13.53125 L 11.140625 10.34375 L 11.136719 7.152344 L 11.050781 7.070312 C 10.933594 6.949219 10.8125 6.957031 10.675781 7.085938 C 10.636719 7.121094 10.632812 7.167969 10.632812 7.449219 C 10.632812 7.855469 10.683594 7.824219 10.023438 7.824219 L 9.503906 7.824219 L 9.492188 7.890625 C 9.484375 7.925781 9.46875 7.972656 9.460938 7.992188 C 9.457031 8.011719 9.441406 8.078125 9.429688 8.136719 C 9.421875 8.195312 9.394531 8.324219 9.371094 8.425781 C 9.347656 8.523438 9.320312 8.652344 9.3125 8.710938 C 9.300781 8.769531 9.273438 8.894531 9.25 8.988281 C 9.210938 9.160156 9.1875 9.269531 9.144531 9.515625 C 9.128906 9.589844 9.109375 9.667969 9.101562 9.683594 C 9.09375 9.695312 9.078125 9.761719 9.070312 9.828125 C 9.058594 9.894531 9.035156 10.019531 9.011719 10.105469 C 8.992188 10.191406 8.964844 10.3125 8.953125 10.378906 C 8.941406 10.445312 8.914062 10.574219 8.890625 10.667969 C 8.871094 10.761719 8.84375 10.890625 8.832031 10.957031 C 8.820312 11.023438 8.792969 11.152344 8.769531 11.242188 C 8.632812 11.851562 8.652344 12.757812 8.808594 13.039062 C 8.820312 13.0625 8.832031 13.097656 8.832031 13.121094 C 8.832031 13.144531 8.859375 13.21875 8.890625 13.285156 C 8.925781 13.351562 8.953125 13.414062 8.953125 13.425781 C 8.953125 13.441406 9.085938 13.6875 9.175781 13.835938 C 9.304688 14.046875 9.601562 14.375 9.828125 14.554688 C 9.894531 14.609375 9.953125 14.660156 9.960938 14.667969 C 9.984375 14.699219 10.480469 14.992188 10.5625 15.023438 C 10.640625 15.050781 10.75 15.097656 10.859375 15.144531 C 10.886719 15.15625 10.933594 15.171875 10.96875 15.179688 C 11 15.1875 11.109375 15.214844 11.203125 15.242188 C 11.300781 15.265625 11.402344 15.289062 11.425781 15.289062 C 11.53125 15.289062 11.6875 15.550781 11.734375 15.804688 C 11.769531 16 11.769531 17.363281 11.734375 17.515625 C 11.652344 17.855469 11.507812 17.972656 11.050781 18.074219 C 11 18.082031 10.890625 18.109375 10.8125 18.132812 C 10.734375 18.152344 10.625 18.179688 10.570312 18.191406 C 10.519531 18.203125 10.410156 18.230469 10.332031 18.253906 C 10.253906 18.273438 10.144531 18.300781 10.09375 18.3125 C 9.703125 18.394531 9.550781 18.464844 9.550781 18.5625 C 9.550781 18.582031 9.542969 18.605469 9.527344 18.613281 C 9.394531 18.695312 9.4375 18.695312 12 18.695312 C 13.566406 18.695312 14.496094 18.6875 14.496094 18.671875 C 14.496094 18.59375 14.378906 18.433594 14.320312 18.433594 C 14.300781 18.433594 14.28125 18.425781 14.269531 18.414062 C 14.253906 18.394531 14.101562 18.355469 13.90625 18.3125 C 13.855469 18.300781 13.746094 18.273438 13.667969 18.253906 C 13.589844 18.230469 13.480469 18.203125 13.429688 18.191406 C 13.375 18.179688 13.265625 18.152344 13.1875 18.132812 C 13.109375 18.109375 13 18.082031 12.949219 18.070312 C 12.28125 17.929688 12.242188 17.84375 12.242188 16.679688 C 12.242188 15.789062 12.269531 15.589844 12.425781 15.410156 C 12.457031 15.382812 12.480469 15.34375 12.484375 15.332031 C 12.492188 15.316406 12.542969 15.296875 12.601562 15.285156 C 12.769531 15.253906 12.953125 15.207031 12.972656 15.1875 C 12.984375 15.175781 13.023438 15.167969 13.058594 15.167969 C 13.09375 15.167969 13.132812 15.160156 13.136719 15.148438 C 13.144531 15.136719 13.179688 15.117188 13.214844 15.109375 C 13.355469 15.074219 13.910156 14.773438 14.050781 14.660156 C 14.246094 14.5 14.316406 14.433594 14.464844 14.28125 C 14.5625 14.179688 14.671875 14.058594 14.707031 14.003906 C 14.742188 13.953125 14.78125 13.90625 14.789062 13.898438 C 14.800781 13.894531 14.808594 13.878906 14.808594 13.867188 C 14.808594 13.851562 14.832031 13.808594 14.863281 13.765625 C 14.949219 13.648438 15.167969 13.179688 15.167969 13.113281 C 15.167969 13.09375 15.179688 13.0625 15.191406 13.039062 C 15.328125 12.773438 15.378906 11.636719 15.261719 11.386719 C 15.25 11.363281 15.230469 11.273438 15.214844 11.195312 C 15.1875 11.042969 15.175781 10.972656 15.109375 10.679688 C 15.085938 10.582031 15.058594 10.453125 15.046875 10.390625 C 15.035156 10.332031 15.007812 10.207031 14.988281 10.117188 C 14.964844 10.023438 14.941406 9.90625 14.9375 9.851562 C 14.929688 9.800781 14.914062 9.734375 14.902344 9.707031 C 14.890625 9.679688 14.871094 9.59375 14.855469 9.515625 C 14.816406 9.296875 14.789062 9.171875 14.75 8.988281 C 14.726562 8.894531 14.703125 8.769531 14.6875 8.710938 C 14.675781 8.652344 14.648438 8.527344 14.628906 8.4375 C 14.605469 8.34375 14.582031 8.214844 14.570312 8.148438 C 14.558594 8.082031 14.546875 8.011719 14.539062 7.992188 C 14.53125 7.972656 14.515625 7.925781 14.507812 7.890625 L 14.496094 7.824219 L 13.976562 7.824219 C 13.292969 7.824219 13.367188 7.921875 13.367188 7.039062 C 13.367188 6.371094 13.363281 6.296875 13.324219 6.25 C 13.210938 6.117188 13.070312 6.109375 12.949219 6.230469 M 11.835938 7.054688 C 11.667969 7.210938 11.773438 7.488281 12 7.488281 C 12.101562 7.488281 12.125 7.476562 12.179688 7.414062 C 12.320312 7.242188 12.214844 6.984375 12 6.984375 C 11.933594 6.984375 11.890625 7.003906 11.835938 7.054688 M 12.253906 10.367188 C 12.242188 10.382812 12.214844 10.390625 12.1875 10.390625 C 11.882812 10.390625 11.652344 10.972656 11.820312 11.316406 C 12.136719 11.964844 13.078125 11.734375 13.078125 11.007812 C 13.078125 10.726562 12.847656 10.390625 12.652344 10.390625 C 12.625 10.390625 12.597656 10.382812 12.589844 10.367188 C 12.578125 10.355469 12.503906 10.34375 12.421875 10.34375 C 12.335938 10.34375 12.261719 10.355469 12.253906 10.367188 "/>
<path style=" stroke:none;fill-rule:evenodd;fill:rgb(76.862746%,7.843138%,29.803923%);fill-opacity:1;" d="M 0 12 L 0 24 L 24 24 L 24 0 L 0 0 L 0 12 M 13.308594 5.324219 C 13.507812 5.5 13.453125 5.773438 13.207031 5.855469 C 13.015625 5.917969 12.816406 5.769531 12.816406 5.566406 C 12.816406 5.300781 13.117188 5.148438 13.308594 5.324219 M 11.039062 6.136719 C 11.265625 6.292969 11.226562 6.589844 10.972656 6.695312 C 10.753906 6.785156 10.496094 6.527344 10.585938 6.308594 C 10.664062 6.117188 10.890625 6.03125 11.039062 6.136719 M 13.308594 6.164062 C 13.4375 6.277344 13.441406 6.304688 13.441406 7.070312 L 13.441406 7.777344 L 14.519531 7.777344 L 14.554688 7.847656 C 14.574219 7.886719 14.59375 7.949219 14.59375 7.988281 C 14.59375 8.027344 14.605469 8.089844 14.617188 8.128906 C 14.644531 8.203125 14.679688 8.363281 14.707031 8.554688 C 14.71875 8.621094 14.734375 8.691406 14.746094 8.707031 C 14.753906 8.722656 14.773438 8.800781 14.789062 8.875 C 14.828125 9.125 14.890625 9.410156 14.929688 9.542969 C 14.941406 9.582031 14.953125 9.644531 14.953125 9.675781 C 14.953125 9.710938 14.96875 9.785156 14.988281 9.839844 C 15.007812 9.894531 15.023438 9.976562 15.023438 10.023438 C 15.023438 10.066406 15.035156 10.109375 15.046875 10.117188 C 15.0625 10.125 15.070312 10.175781 15.070312 10.226562 C 15.070312 10.28125 15.082031 10.34375 15.09375 10.367188 C 15.117188 10.410156 15.148438 10.5625 15.191406 10.8125 C 15.199219 10.878906 15.222656 10.960938 15.238281 11 C 15.25 11.035156 15.265625 11.105469 15.265625 11.148438 C 15.265625 11.191406 15.273438 11.234375 15.289062 11.242188 C 15.300781 11.253906 15.3125 11.308594 15.3125 11.371094 C 15.3125 11.433594 15.324219 11.5 15.34375 11.515625 C 15.382812 11.558594 15.398438 12.410156 15.359375 12.570312 C 15.34375 12.632812 15.324219 12.734375 15.320312 12.792969 C 15.3125 12.851562 15.296875 12.910156 15.285156 12.921875 C 15.273438 12.933594 15.265625 12.972656 15.265625 13.007812 C 15.265625 13.042969 15.25 13.089844 15.230469 13.117188 C 15.210938 13.144531 15.191406 13.183594 15.191406 13.207031 C 15.191406 13.230469 15.183594 13.265625 15.171875 13.289062 C 15.160156 13.3125 15.109375 13.414062 15.0625 13.511719 C 14.949219 13.742188 14.894531 13.84375 14.835938 13.90625 C 14.8125 13.933594 14.785156 13.972656 14.78125 13.992188 C 14.761719 14.039062 14.378906 14.472656 14.355469 14.472656 C 14.347656 14.472656 14.296875 14.515625 14.242188 14.566406 C 14.058594 14.746094 13.527344 15.0625 13.234375 15.167969 C 13.210938 15.175781 13.148438 15.199219 13.105469 15.214844 C 13.058594 15.230469 12.984375 15.25 12.941406 15.257812 C 12.898438 15.265625 12.859375 15.277344 12.851562 15.289062 C 12.84375 15.300781 12.789062 15.3125 12.734375 15.3125 C 12.667969 15.3125 12.605469 15.332031 12.554688 15.367188 C 12.484375 15.414062 12.457031 15.457031 12.34375 15.679688 C 12.292969 15.785156 12.296875 17.597656 12.347656 17.640625 C 12.367188 17.65625 12.382812 17.683594 12.382812 17.699219 C 12.382812 17.789062 12.667969 17.976562 12.808594 17.976562 C 12.839844 17.976562 12.890625 17.988281 12.917969 18.003906 C 12.949219 18.019531 13.019531 18.042969 13.074219 18.050781 C 13.128906 18.0625 13.222656 18.082031 13.277344 18.089844 C 13.335938 18.101562 13.398438 18.121094 13.414062 18.132812 C 13.433594 18.144531 13.496094 18.160156 13.554688 18.171875 C 13.609375 18.183594 13.703125 18.199219 13.757812 18.210938 C 13.8125 18.222656 13.882812 18.242188 13.914062 18.257812 C 13.941406 18.273438 13.988281 18.289062 14.019531 18.289062 C 14.21875 18.289062 14.5 18.453125 14.535156 18.59375 C 14.574219 18.746094 14.800781 18.730469 12 18.730469 L 9.46875 18.730469 L 9.460938 18.65625 C 9.457031 18.613281 9.46875 18.570312 9.492188 18.554688 C 9.511719 18.535156 9.527344 18.511719 9.527344 18.496094 C 9.527344 18.460938 9.652344 18.359375 9.71875 18.347656 C 9.753906 18.339844 9.8125 18.324219 9.855469 18.3125 C 9.894531 18.296875 9.953125 18.289062 9.980469 18.289062 C 10.011719 18.289062 10.058594 18.273438 10.085938 18.257812 C 10.117188 18.242188 10.1875 18.222656 10.242188 18.210938 C 10.296875 18.199219 10.390625 18.183594 10.445312 18.171875 C 10.503906 18.160156 10.566406 18.144531 10.585938 18.132812 C 10.601562 18.121094 10.664062 18.101562 10.722656 18.089844 C 10.777344 18.082031 10.871094 18.0625 10.925781 18.050781 C 10.980469 18.042969 11.050781 18.019531 11.082031 18.003906 C 11.109375 17.988281 11.160156 17.976562 11.191406 17.976562 C 11.300781 17.976562 11.566406 17.828125 11.566406 17.769531 C 11.566406 17.753906 11.574219 17.738281 11.585938 17.730469 C 11.691406 17.683594 11.75 15.929688 11.652344 15.679688 C 11.546875 15.414062 11.4375 15.3125 11.265625 15.3125 C 11.207031 15.3125 11.15625 15.300781 11.148438 15.289062 C 11.140625 15.277344 11.101562 15.265625 11.058594 15.257812 C 10.980469 15.246094 10.847656 15.203125 10.769531 15.164062 C 10.746094 15.152344 10.714844 15.144531 10.703125 15.144531 C 10.5 15.144531 9.695312 14.5625 9.371094 14.183594 C 9.210938 13.996094 8.929688 13.570312 8.929688 13.511719 C 8.929688 13.5 8.902344 13.4375 8.867188 13.371094 C 8.835938 13.308594 8.808594 13.238281 8.808594 13.21875 C 8.808594 13.199219 8.792969 13.152344 8.773438 13.113281 C 8.753906 13.074219 8.734375 13.023438 8.734375 12.996094 C 8.734375 12.96875 8.726562 12.933594 8.714844 12.921875 C 8.703125 12.910156 8.6875 12.851562 8.679688 12.792969 C 8.675781 12.734375 8.65625 12.640625 8.644531 12.589844 C 8.601562 12.441406 8.609375 11.671875 8.652344 11.554688 C 8.671875 11.503906 8.6875 11.414062 8.6875 11.359375 C 8.6875 11.304688 8.699219 11.253906 8.710938 11.242188 C 8.726562 11.234375 8.734375 11.191406 8.734375 11.148438 C 8.734375 11.105469 8.746094 11.035156 8.761719 11 C 8.785156 10.9375 8.800781 10.871094 8.855469 10.550781 C 8.867188 10.476562 8.882812 10.40625 8.894531 10.386719 C 8.90625 10.371094 8.921875 10.300781 8.933594 10.234375 C 8.964844 10.011719 9 9.835938 9.023438 9.789062 C 9.039062 9.765625 9.046875 9.710938 9.046875 9.664062 C 9.046875 9.617188 9.058594 9.570312 9.070312 9.5625 C 9.085938 9.554688 9.097656 9.507812 9.097656 9.453125 C 9.097656 9.402344 9.113281 9.320312 9.132812 9.273438 C 9.152344 9.226562 9.167969 9.144531 9.167969 9.09375 C 9.167969 9.042969 9.179688 8.996094 9.191406 8.988281 C 9.207031 8.980469 9.214844 8.9375 9.214844 8.894531 C 9.214844 8.855469 9.226562 8.78125 9.242188 8.734375 C 9.257812 8.691406 9.277344 8.601562 9.289062 8.542969 C 9.300781 8.484375 9.320312 8.371094 9.335938 8.292969 C 9.351562 8.21875 9.371094 8.132812 9.386719 8.109375 C 9.398438 8.085938 9.40625 8.035156 9.40625 7.992188 C 9.40625 7.953125 9.425781 7.886719 9.445312 7.847656 L 9.480469 7.777344 L 10.558594 7.777344 L 10.558594 7.488281 C 10.558594 7.023438 10.773438 6.792969 11.039062 6.976562 C 11.195312 7.085938 11.183594 6.789062 11.183594 10.300781 C 11.183594 12.128906 11.191406 13.488281 11.207031 13.488281 C 11.21875 13.488281 11.230469 13.507812 11.238281 13.53125 C 11.261719 13.621094 11.433594 13.679688 11.527344 13.625 C 11.699219 13.53125 11.6875 13.582031 11.6875 12.789062 C 11.6875 11.996094 11.679688 12.03125 11.84375 12.109375 C 11.910156 12.140625 11.980469 12.167969 12 12.167969 C 12.023438 12.167969 12.050781 12.179688 12.066406 12.199219 C 12.109375 12.238281 12.730469 12.238281 12.773438 12.199219 C 12.789062 12.179688 12.820312 12.167969 12.84375 12.167969 C 12.886719 12.167969 13.039062 12.09375 13.050781 12.066406 C 13.054688 12.054688 13.070312 12.046875 13.082031 12.046875 C 13.105469 12.046875 13.203125 11.96875 13.292969 11.878906 C 13.523438 11.644531 13.679688 11.25 13.648438 10.980469 C 13.617188 10.730469 13.601562 10.640625 13.570312 10.597656 C 13.550781 10.570312 13.535156 10.535156 13.535156 10.519531 C 13.535156 10.460938 13.410156 10.285156 13.261719 10.140625 C 12.886719 9.769531 12.355469 9.6875 11.875 9.925781 C 11.675781 10.023438 11.6875 10.082031 11.6875 8.976562 C 11.6875 7.898438 11.6875 7.902344 11.835938 7.8125 C 11.972656 7.734375 12.226562 7.792969 12.253906 7.914062 C 12.261719 7.945312 12.277344 7.96875 12.289062 7.96875 C 12.300781 7.96875 12.3125 8.074219 12.3125 8.203125 L 12.3125 8.441406 L 12.398438 8.527344 C 12.480469 8.613281 12.648438 8.65625 12.648438 8.59375 C 12.648438 8.582031 12.667969 8.570312 12.691406 8.5625 C 12.808594 8.53125 12.816406 8.46875 12.816406 7.34375 C 12.816406 6.210938 12.8125 6.253906 12.949219 6.140625 C 13.027344 6.070312 13.21875 6.082031 13.308594 6.164062 M 12.171875 6.976562 C 12.210938 7 12.25 7.042969 12.253906 7.074219 C 12.261719 7.105469 12.277344 7.128906 12.289062 7.128906 C 12.328125 7.128906 12.3125 7.320312 12.269531 7.386719 C 12.15625 7.5625 11.921875 7.609375 11.796875 7.476562 C 11.527344 7.199219 11.839844 6.78125 12.171875 6.976562 M 12.699219 10.34375 C 13.359375 10.636719 13.273438 11.566406 12.570312 11.734375 C 12.007812 11.867188 11.503906 11.253906 11.75 10.738281 C 11.824219 10.578125 12.023438 10.367188 12.101562 10.367188 C 12.117188 10.367188 12.152344 10.351562 12.179688 10.332031 C 12.25 10.277344 12.566406 10.285156 12.699219 10.34375 "/>
<path style=" stroke:none;fill-rule:evenodd;fill:rgb(84.705883%,36.862746%,50.196081%);fill-opacity:1;" d="M 12.949219 5.296875 C 12.796875 5.425781 12.769531 5.621094 12.886719 5.753906 C 12.921875 5.796875 12.960938 5.832031 12.972656 5.832031 C 12.980469 5.832031 12.957031 5.792969 12.914062 5.746094 C 12.679688 5.480469 13.0625 5.09375 13.308594 5.351562 C 13.34375 5.390625 13.382812 5.417969 13.386719 5.414062 C 13.394531 5.40625 13.363281 5.367188 13.316406 5.328125 C 13.21875 5.242188 13.03125 5.226562 12.949219 5.296875 M 13.398438 5.554688 C 13.398438 5.621094 13.40625 5.652344 13.417969 5.636719 C 13.429688 5.617188 13.4375 5.582031 13.4375 5.554688 C 13.4375 5.53125 13.429688 5.492188 13.417969 5.476562 C 13.40625 5.457031 13.398438 5.488281 13.398438 5.554688 M 13.316406 5.765625 C 13.28125 5.800781 13.265625 5.832031 13.28125 5.832031 C 13.308594 5.832031 13.40625 5.714844 13.386719 5.703125 C 13.382812 5.699219 13.351562 5.730469 13.316406 5.765625 M 13.035156 5.859375 C 13.050781 5.871094 13.089844 5.878906 13.117188 5.878906 C 13.140625 5.878906 13.179688 5.871094 13.199219 5.859375 C 13.222656 5.84375 13.195312 5.835938 13.117188 5.835938 C 13.039062 5.835938 13.011719 5.84375 13.035156 5.859375 M 10.6875 6.164062 C 10.644531 6.203125 10.609375 6.242188 10.609375 6.25 C 10.609375 6.261719 10.644531 6.234375 10.691406 6.195312 C 10.960938 5.957031 11.34375 6.339844 11.089844 6.585938 C 11.046875 6.625 11.023438 6.660156 11.027344 6.667969 C 11.035156 6.675781 11.070312 6.640625 11.109375 6.597656 C 11.355469 6.320312 10.964844 5.921875 10.6875 6.164062 M 12.917969 6.171875 C 12.808594 6.273438 12.8125 6.230469 12.820312 7.378906 L 12.828125 8.410156 L 12.835938 7.355469 L 12.839844 6.300781 L 12.914062 6.210938 C 13.015625 6.085938 13.199219 6.078125 13.308594 6.191406 C 13.34375 6.230469 13.382812 6.257812 13.386719 6.253906 C 13.394531 6.246094 13.363281 6.207031 13.316406 6.167969 C 13.199219 6.0625 13.023438 6.066406 12.917969 6.171875 M 10.570312 6.347656 C 10.5625 6.382812 10.566406 6.433594 10.578125 6.464844 C 10.597656 6.507812 10.601562 6.496094 10.601562 6.402344 C 10.605469 6.273438 10.59375 6.257812 10.570312 6.347656 M 13.410156 6.882812 C 13.414062 7.210938 13.417969 7.546875 13.421875 7.632812 C 13.425781 7.71875 13.433594 7.464844 13.433594 7.066406 C 13.4375 6.671875 13.429688 6.335938 13.421875 6.320312 C 13.410156 6.304688 13.40625 6.558594 13.410156 6.882812 M 10.609375 6.558594 C 10.609375 6.585938 10.726562 6.6875 10.738281 6.667969 C 10.738281 6.664062 10.710938 6.632812 10.675781 6.59375 C 10.636719 6.558594 10.609375 6.542969 10.609375 6.558594 M 10.804688 6.699219 C 10.820312 6.710938 10.859375 6.71875 10.882812 6.71875 C 10.910156 6.71875 10.945312 6.710938 10.964844 6.699219 C 10.980469 6.6875 10.949219 6.679688 10.882812 6.679688 C 10.816406 6.679688 10.785156 6.6875 10.804688 6.699219 M 10.6875 7.003906 C 10.644531 7.042969 10.609375 7.082031 10.609375 7.089844 C 10.609375 7.101562 10.644531 7.074219 10.691406 7.035156 C 10.8125 6.929688 10.945312 6.929688 11.070312 7.035156 L 11.160156 7.105469 L 11.164062 10.292969 L 11.171875 13.476562 L 11.175781 10.296875 C 11.183594 7.320312 11.179688 7.113281 11.140625 7.066406 C 11.011719 6.914062 10.820312 6.890625 10.6875 7.003906 M 11.832031 6.976562 C 11.554688 7.144531 11.761719 7.675781 12.050781 7.542969 C 12.101562 7.519531 12.097656 7.519531 12.011719 7.519531 C 11.785156 7.519531 11.644531 7.300781 11.746094 7.105469 C 11.828125 6.945312 12.058594 6.90625 12.191406 7.03125 C 12.257812 7.09375 12.285156 7.101562 12.246094 7.042969 C 12.171875 6.9375 11.949219 6.902344 11.832031 6.976562 M 10.574219 7.164062 C 10.566406 7.1875 10.5625 7.335938 10.5625 7.496094 L 10.566406 7.789062 L 10.582031 7.464844 C 10.601562 7.125 10.597656 7.101562 10.574219 7.164062 M 12.28125 7.199219 C 12.296875 7.292969 12.25 7.40625 12.171875 7.464844 C 12.140625 7.492188 12.125 7.511719 12.140625 7.511719 C 12.175781 7.511719 12.214844 7.476562 12.269531 7.386719 C 12.3125 7.320312 12.328125 7.128906 12.292969 7.128906 C 12.28125 7.128906 12.277344 7.160156 12.28125 7.199219 M 9.472656 7.792969 C 9.464844 7.804688 9.625 7.808594 9.824219 7.804688 C 10.488281 7.792969 10.554688 7.785156 10.015625 7.78125 C 9.722656 7.777344 9.476562 7.785156 9.472656 7.792969 M 11.832031 7.816406 C 11.6875 7.902344 11.6875 7.902344 11.6875 8.976562 C 11.6875 9.84375 11.691406 9.957031 11.726562 9.96875 C 11.765625 9.984375 11.871094 9.941406 11.847656 9.921875 C 11.839844 9.914062 11.816406 9.917969 11.789062 9.933594 C 11.761719 9.945312 11.734375 9.953125 11.726562 9.941406 C 11.691406 9.90625 11.710938 8.015625 11.746094 7.945312 C 11.828125 7.785156 12.058594 7.746094 12.191406 7.871094 C 12.257812 7.933594 12.285156 7.941406 12.246094 7.882812 C 12.171875 7.777344 11.949219 7.742188 11.832031 7.816406 M 13.632812 7.792969 C 14.074219 7.808594 14.539062 7.808594 14.527344 7.792969 C 14.523438 7.785156 14.277344 7.777344 13.984375 7.78125 C 13.691406 7.785156 13.53125 7.789062 13.632812 7.792969 M 9.421875 7.886719 C 9.414062 7.90625 9.410156 7.949219 9.410156 7.976562 C 9.410156 8.011719 9.417969 8.003906 9.433594 7.949219 C 9.460938 7.863281 9.449219 7.816406 9.421875 7.886719 M 14.546875 7.871094 C 14.546875 7.890625 14.558594 7.933594 14.566406 7.96875 L 14.585938 8.027344 L 14.589844 7.96875 C 14.589844 7.933594 14.582031 7.890625 14.566406 7.871094 C 14.546875 7.839844 14.546875 7.839844 14.546875 7.871094 M 12.28125 8.117188 C 12.292969 8.390625 12.304688 8.414062 12.308594 8.191406 C 12.308594 8.066406 12.304688 7.96875 12.292969 7.96875 C 12.285156 7.96875 12.277344 8.035156 12.28125 8.117188 M 9.359375 8.179688 C 9.347656 8.226562 9.335938 8.296875 9.339844 8.328125 C 9.339844 8.375 9.34375 8.371094 9.359375 8.304688 C 9.371094 8.257812 9.386719 8.191406 9.394531 8.152344 C 9.40625 8.117188 9.40625 8.089844 9.398438 8.089844 C 9.390625 8.089844 9.375 8.128906 9.359375 8.179688 M 14.605469 8.148438 C 14.640625 8.339844 14.660156 8.394531 14.660156 8.316406 C 14.660156 8.277344 14.644531 8.207031 14.625 8.160156 C 14.59375 8.082031 14.59375 8.082031 14.605469 8.148438 M 9.304688 8.4375 C 9.292969 8.457031 9.289062 8.5 9.289062 8.527344 C 9.292969 8.566406 9.300781 8.554688 9.316406 8.5 C 9.339844 8.417969 9.328125 8.367188 9.304688 8.4375 M 14.667969 8.425781 C 14.667969 8.445312 14.675781 8.488281 14.6875 8.519531 L 14.707031 8.578125 L 14.710938 8.519531 C 14.710938 8.488281 14.699219 8.445312 14.6875 8.425781 C 14.667969 8.390625 14.664062 8.390625 14.667969 8.425781 M 12.3125 8.460938 C 12.3125 8.488281 12.398438 8.574219 12.457031 8.601562 C 12.476562 8.613281 12.46875 8.601562 12.445312 8.574219 C 12.417969 8.550781 12.378906 8.511719 12.355469 8.484375 C 12.332031 8.457031 12.3125 8.449219 12.3125 8.460938 M 12.703125 8.550781 C 12.671875 8.566406 12.648438 8.589844 12.648438 8.597656 C 12.648438 8.621094 12.734375 8.578125 12.757812 8.542969 C 12.765625 8.53125 12.765625 8.519531 12.761719 8.523438 C 12.757812 8.523438 12.730469 8.539062 12.703125 8.550781 M 9.242188 8.726562 C 9.226562 8.777344 9.21875 8.851562 9.21875 8.890625 C 9.21875 8.9375 9.226562 8.945312 9.230469 8.914062 C 9.238281 8.890625 9.253906 8.820312 9.269531 8.765625 C 9.300781 8.636719 9.277344 8.601562 9.242188 8.726562 M 14.726562 8.710938 C 14.734375 8.746094 14.75 8.816406 14.757812 8.867188 L 14.777344 8.964844 L 14.78125 8.878906 C 14.78125 8.832031 14.765625 8.761719 14.746094 8.722656 C 14.71875 8.664062 14.714844 8.660156 14.726562 8.710938 M 9.183594 8.992188 C 9.175781 9 9.167969 9.042969 9.171875 9.082031 L 9.171875 9.15625 L 9.195312 9.074219 C 9.21875 8.996094 9.214844 8.960938 9.183594 8.992188 M 14.785156 9 C 14.789062 9.019531 14.796875 9.0625 14.808594 9.097656 L 14.828125 9.15625 L 14.828125 9.097656 C 14.832031 9.0625 14.820312 9.019531 14.808594 9 C 14.789062 8.96875 14.785156 8.96875 14.785156 9 M 9.121094 9.292969 C 9.109375 9.332031 9.097656 9.40625 9.097656 9.453125 L 9.101562 9.539062 L 9.121094 9.445312 C 9.128906 9.390625 9.144531 9.316406 9.15625 9.28125 C 9.179688 9.191406 9.15625 9.199219 9.121094 9.292969 M 14.84375 9.265625 C 14.851562 9.296875 14.867188 9.378906 14.878906 9.445312 C 14.890625 9.511719 14.914062 9.597656 14.925781 9.636719 L 14.953125 9.707031 L 14.941406 9.636719 C 14.914062 9.441406 14.875 9.277344 14.851562 9.242188 C 14.835938 9.210938 14.832031 9.21875 14.84375 9.265625 M 9.0625 9.566406 C 9.054688 9.578125 9.050781 9.613281 9.050781 9.644531 C 9.050781 9.707031 9.050781 9.707031 9.074219 9.636719 C 9.09375 9.5625 9.09375 9.539062 9.0625 9.566406 M 9.011719 9.8125 C 8.996094 9.863281 8.957031 10.058594 8.9375 10.1875 C 8.925781 10.273438 8.980469 10.097656 9.023438 9.917969 C 9.050781 9.792969 9.042969 9.714844 9.011719 9.8125 M 12.378906 9.785156 C 12.40625 9.789062 12.453125 9.789062 12.472656 9.785156 C 12.496094 9.777344 12.472656 9.773438 12.421875 9.773438 C 12.367188 9.773438 12.347656 9.777344 12.378906 9.785156 M 14.964844 9.828125 C 14.972656 9.867188 14.988281 9.941406 15 9.996094 L 15.019531 10.09375 L 15.019531 10.007812 C 15.019531 9.960938 15.003906 9.886719 14.984375 9.839844 C 14.953125 9.761719 14.953125 9.761719 14.964844 9.828125 M 12.058594 9.820312 C 11.945312 9.859375 11.878906 9.894531 11.890625 9.910156 C 11.898438 9.914062 11.917969 9.90625 11.933594 9.890625 C 11.949219 9.875 11.984375 9.863281 12.011719 9.863281 C 12.039062 9.863281 12.09375 9.847656 12.132812 9.828125 C 12.214844 9.789062 12.164062 9.785156 12.058594 9.820312 M 12.707031 9.828125 C 12.746094 9.847656 12.800781 9.863281 12.828125 9.859375 C 12.859375 9.859375 12.847656 9.847656 12.792969 9.828125 C 12.683594 9.785156 12.613281 9.785156 12.707031 9.828125 M 12.984375 9.921875 C 12.984375 9.925781 13.023438 9.953125 13.074219 9.980469 L 13.164062 10.03125 L 13.09375 9.972656 C 13.027344 9.917969 12.984375 9.898438 12.984375 9.921875 M 13.285156 10.148438 C 13.335938 10.210938 13.386719 10.265625 13.390625 10.269531 C 13.429688 10.3125 13.535156 10.492188 13.535156 10.519531 C 13.535156 10.535156 13.550781 10.570312 13.570312 10.597656 C 13.609375 10.648438 13.621094 10.628906 13.585938 10.566406 C 13.574219 10.542969 13.546875 10.480469 13.519531 10.429688 C 13.496094 10.378906 13.410156 10.269531 13.332031 10.1875 C 13.253906 10.105469 13.230469 10.089844 13.285156 10.148438 M 15.027344 10.132812 C 15.03125 10.207031 15.070312 10.261719 15.070312 10.195312 C 15.070312 10.160156 15.0625 10.125 15.046875 10.117188 C 15.035156 10.109375 15.023438 10.117188 15.027344 10.132812 M 12.179688 10.332031 C 12.132812 10.371094 12.132812 10.371094 12.179688 10.351562 C 12.238281 10.328125 12.589844 10.328125 12.671875 10.351562 L 12.730469 10.371094 L 12.671875 10.335938 C 12.585938 10.28125 12.242188 10.28125 12.179688 10.332031 M 8.882812 10.417969 C 8.867188 10.460938 8.855469 10.527344 8.859375 10.570312 L 8.863281 10.644531 L 8.878906 10.558594 C 8.890625 10.515625 8.90625 10.445312 8.914062 10.410156 C 8.941406 10.320312 8.914062 10.328125 8.882812 10.417969 M 15.085938 10.402344 C 15.144531 10.652344 15.144531 10.648438 15.132812 10.527344 C 15.125 10.464844 15.109375 10.394531 15.09375 10.371094 C 15.074219 10.339844 15.074219 10.347656 15.085938 10.402344 M 12.046875 10.386719 C 12.046875 10.394531 12.015625 10.421875 11.980469 10.441406 C 11.941406 10.464844 11.886719 10.519531 11.855469 10.5625 L 11.800781 10.644531 L 11.882812 10.558594 C 11.925781 10.515625 11.996094 10.453125 12.035156 10.421875 C 12.074219 10.394531 12.09375 10.371094 12.078125 10.371094 C 12.0625 10.367188 12.046875 10.375 12.046875 10.386719 M 12.804688 10.421875 C 12.84375 10.449219 12.914062 10.511719 12.957031 10.558594 L 13.039062 10.644531 L 12.984375 10.566406 C 12.929688 10.484375 12.792969 10.367188 12.753906 10.367188 C 12.742188 10.371094 12.765625 10.394531 12.804688 10.421875 M 8.824219 10.691406 C 8.816406 10.714844 8.808594 10.753906 8.808594 10.785156 C 8.8125 10.820312 8.820312 10.8125 8.835938 10.753906 C 8.859375 10.671875 8.851562 10.625 8.824219 10.691406 M 11.738281 10.761719 C 11.597656 11.085938 11.765625 11.515625 12.09375 11.671875 C 12.21875 11.734375 12.207031 11.703125 12.082031 11.640625 C 11.777344 11.484375 11.621094 11.042969 11.765625 10.753906 C 11.789062 10.710938 11.804688 10.667969 11.796875 10.660156 C 11.789062 10.65625 11.761719 10.699219 11.738281 10.761719 M 13.046875 10.679688 C 13.253906 10.980469 13.074219 11.5 12.710938 11.667969 C 12.65625 11.691406 12.632812 11.710938 12.65625 11.710938 C 13 11.714844 13.316406 10.902344 13.054688 10.671875 C 13.027344 10.648438 13.027344 10.652344 13.046875 10.679688 M 15.148438 10.679688 C 15.148438 10.699219 15.15625 10.742188 15.167969 10.777344 L 15.1875 10.835938 L 15.1875 10.777344 C 15.191406 10.742188 15.179688 10.699219 15.167969 10.679688 C 15.148438 10.648438 15.144531 10.648438 15.148438 10.679688 M 13.609375 10.738281 C 13.609375 10.78125 13.621094 10.828125 13.632812 10.847656 C 13.660156 10.894531 13.660156 10.820312 13.632812 10.726562 C 13.613281 10.667969 13.613281 10.667969 13.609375 10.738281 M 8.761719 11 C 8.746094 11.058594 8.738281 11.128906 8.742188 11.164062 C 8.75 11.210938 8.753906 11.207031 8.757812 11.144531 C 8.757812 11.105469 8.773438 11.035156 8.785156 10.996094 C 8.800781 10.953125 8.808594 10.914062 8.800781 10.90625 C 8.796875 10.898438 8.777344 10.941406 8.761719 11 M 13.664062 11.027344 C 13.664062 11.105469 13.667969 11.136719 13.671875 11.09375 C 13.679688 11.050781 13.679688 10.984375 13.671875 10.949219 C 13.667969 10.914062 13.664062 10.949219 13.664062 11.027344 M 15.207031 10.96875 C 15.21875 11 15.230469 11.070312 15.242188 11.125 L 15.257812 11.21875 L 15.261719 11.136719 C 15.261719 11.089844 15.246094 11.019531 15.226562 10.980469 C 15.199219 10.921875 15.195312 10.921875 15.207031 10.96875 M 13.621094 11.257812 C 13.609375 11.296875 13.609375 11.335938 13.617188 11.34375 C 13.621094 11.351562 13.636719 11.320312 13.644531 11.28125 C 13.652344 11.238281 13.65625 11.199219 13.648438 11.191406 C 13.640625 11.1875 13.628906 11.214844 13.621094 11.257812 M 8.703125 11.246094 C 8.695312 11.257812 8.6875 11.296875 8.691406 11.339844 L 8.691406 11.410156 L 8.714844 11.332031 C 8.738281 11.25 8.734375 11.21875 8.703125 11.246094 M 15.265625 11.261719 C 15.269531 11.335938 15.308594 11.390625 15.308594 11.324219 C 15.3125 11.289062 15.300781 11.253906 15.289062 11.242188 C 15.273438 11.234375 15.265625 11.242188 15.265625 11.261719 M 13.5625 11.464844 C 13.441406 11.722656 13.324219 11.878906 13.175781 11.980469 C 13.144531 12.003906 13.125 12.027344 13.128906 12.035156 C 13.175781 12.078125 13.558594 11.617188 13.558594 11.519531 C 13.558594 11.5 13.574219 11.46875 13.589844 11.453125 C 13.605469 11.4375 13.609375 11.417969 13.605469 11.414062 C 13.597656 11.40625 13.578125 11.429688 13.5625 11.464844 M 8.640625 11.59375 C 8.601562 11.738281 8.617188 12.59375 8.660156 12.660156 C 8.6875 12.703125 8.691406 12.703125 8.675781 12.648438 C 8.644531 12.539062 8.632812 11.738281 8.664062 11.621094 C 8.679688 11.5625 8.683594 11.507812 8.679688 11.503906 C 8.671875 11.496094 8.65625 11.539062 8.640625 11.59375 M 15.328125 11.570312 C 15.355469 11.679688 15.351562 12.515625 15.328125 12.625 C 15.3125 12.699219 15.3125 12.703125 15.339844 12.660156 C 15.386719 12.59375 15.386719 11.558594 15.339844 11.515625 C 15.316406 11.492188 15.316406 11.5 15.328125 11.570312 M 12.292969 11.738281 C 12.332031 11.761719 12.472656 11.761719 12.539062 11.738281 C 12.5625 11.726562 12.515625 11.71875 12.421875 11.71875 C 12.320312 11.71875 12.269531 11.726562 12.292969 11.738281 M 11.699219 12.078125 C 11.691406 12.09375 11.691406 12.410156 11.695312 12.78125 L 11.699219 13.453125 L 11.707031 12.773438 C 11.710938 12.042969 11.707031 12.0625 11.839844 12.132812 C 11.917969 12.171875 11.949219 12.179688 11.914062 12.144531 C 11.863281 12.097656 11.710938 12.050781 11.699219 12.078125 M 13.054688 12.066406 C 13.054688 12.078125 13.023438 12.097656 12.980469 12.113281 C 12.9375 12.128906 12.910156 12.148438 12.914062 12.15625 C 12.929688 12.171875 13.074219 12.101562 13.09375 12.070312 C 13.101562 12.058594 13.09375 12.046875 13.082031 12.046875 C 13.066406 12.046875 13.054688 12.054688 13.054688 12.066406 M 12.023438 12.207031 C 12.148438 12.265625 12.703125 12.265625 12.804688 12.210938 C 12.84375 12.1875 12.859375 12.167969 12.839844 12.167969 C 12.816406 12.167969 12.789062 12.179688 12.773438 12.199219 C 12.75 12.21875 12.644531 12.226562 12.421875 12.226562 C 12.195312 12.226562 12.089844 12.21875 12.066406 12.199219 C 12.050781 12.179688 12.015625 12.167969 11.988281 12.167969 C 11.953125 12.167969 11.960938 12.179688 12.023438 12.207031 M 8.691406 12.84375 C 8.6875 12.878906 8.699219 12.914062 8.710938 12.925781 C 8.742188 12.941406 8.742188 12.894531 8.710938 12.828125 C 8.695312 12.785156 8.691406 12.785156 8.691406 12.84375 M 15.28125 12.847656 C 15.269531 12.886719 15.265625 12.921875 15.273438 12.929688 C 15.292969 12.949219 15.316406 12.871094 15.308594 12.824219 C 15.300781 12.792969 15.292969 12.796875 15.28125 12.847656 M 8.738281 12.988281 C 8.734375 13.039062 8.78125 13.164062 8.796875 13.148438 C 8.800781 13.144531 8.789062 13.09375 8.773438 13.042969 C 8.753906 12.992188 8.738281 12.964844 8.738281 12.988281 M 15.222656 13.046875 C 15.207031 13.097656 15.199219 13.144531 15.203125 13.148438 C 15.222656 13.164062 15.265625 13.050781 15.257812 13.003906 C 15.253906 12.96875 15.246094 12.980469 15.222656 13.046875 M 8.808594 13.21875 C 8.808594 13.253906 8.90625 13.46875 8.917969 13.457031 C 8.925781 13.453125 8.902344 13.390625 8.871094 13.316406 C 8.835938 13.246094 8.808594 13.203125 8.808594 13.21875 M 15.144531 13.277344 C 15.128906 13.320312 15.105469 13.375 15.09375 13.398438 C 15.078125 13.425781 15.074219 13.449219 15.082031 13.457031 C 15.089844 13.464844 15.105469 13.4375 15.121094 13.402344 C 15.136719 13.363281 15.160156 13.308594 15.175781 13.277344 C 15.1875 13.25 15.195312 13.21875 15.1875 13.210938 C 15.179688 13.203125 15.160156 13.234375 15.144531 13.277344 M 8.929688 13.503906 C 8.929688 13.566406 9.199219 13.984375 9.371094 14.183594 C 9.703125 14.570312 10.5 15.144531 10.710938 15.144531 C 10.726562 15.144531 10.753906 15.15625 10.769531 15.171875 C 10.785156 15.183594 10.808594 15.191406 10.824219 15.1875 C 10.839844 15.183594 10.753906 15.136719 10.628906 15.085938 C 9.976562 14.816406 9.398438 14.300781 9.035156 13.664062 C 8.976562 13.558594 8.929688 13.488281 8.929688 13.503906 M 11.207031 13.535156 C 11.246094 13.605469 11.28125 13.617188 11.246094 13.546875 C 11.234375 13.515625 11.210938 13.488281 11.199219 13.488281 C 11.191406 13.488281 11.195312 13.507812 11.207031 13.535156 M 15.003906 13.585938 C 14.976562 13.640625 14.957031 13.691406 14.960938 13.699219 C 14.96875 13.703125 14.996094 13.664062 15.023438 13.605469 C 15.050781 13.550781 15.066406 13.5 15.0625 13.496094 C 15.058594 13.492188 15.03125 13.53125 15.003906 13.585938 M 11.640625 13.546875 C 11.613281 13.582031 11.519531 13.632812 11.425781 13.664062 C 11.398438 13.671875 11.398438 13.675781 11.429688 13.679688 C 11.488281 13.679688 11.59375 13.625 11.648438 13.5625 C 11.675781 13.535156 11.691406 13.511719 11.683594 13.511719 C 11.675781 13.511719 11.65625 13.527344 11.640625 13.546875 M 14.855469 13.835938 C 14.816406 13.894531 14.789062 13.945312 14.800781 13.945312 C 14.820312 13.945312 14.863281 13.882812 14.917969 13.78125 C 14.96875 13.691406 14.933594 13.722656 14.855469 13.835938 M 14.714844 14.050781 C 14.6875 14.09375 14.558594 14.234375 14.429688 14.367188 C 14.292969 14.503906 14.246094 14.558594 14.316406 14.5 C 14.421875 14.414062 14.554688 14.269531 14.757812 14.035156 C 14.777344 14.011719 14.785156 13.988281 14.78125 13.980469 C 14.777344 13.976562 14.746094 14.007812 14.714844 14.050781 M 14.15625 14.613281 C 14.152344 14.625 14.039062 14.707031 13.910156 14.792969 C 13.777344 14.878906 13.679688 14.953125 13.691406 14.953125 C 13.726562 14.953125 14.183594 14.636719 14.183594 14.613281 C 14.183594 14.585938 14.167969 14.585938 14.15625 14.613281 M 13.53125 15.007812 C 13.480469 15.035156 13.445312 15.058594 13.449219 15.0625 C 13.457031 15.074219 13.65625 14.976562 13.65625 14.964844 C 13.65625 14.945312 13.621094 14.953125 13.53125 15.007812 M 13.34375 15.09375 C 13.324219 15.105469 13.269531 15.132812 13.222656 15.152344 C 13.179688 15.171875 13.160156 15.191406 13.179688 15.191406 C 13.203125 15.191406 13.226562 15.179688 13.234375 15.167969 C 13.246094 15.15625 13.269531 15.144531 13.292969 15.144531 C 13.316406 15.144531 13.355469 15.128906 13.382812 15.109375 C 13.429688 15.070312 13.40625 15.0625 13.34375 15.09375 M 10.953125 15.230469 C 10.988281 15.25 11.042969 15.261719 11.070312 15.257812 C 11.117188 15.25 11.113281 15.246094 11.058594 15.242188 C 11.023438 15.242188 10.988281 15.230469 10.980469 15.214844 C 10.972656 15.203125 10.945312 15.191406 10.925781 15.191406 C 10.898438 15.195312 10.90625 15.207031 10.953125 15.230469 M 12.960938 15.230469 C 12.886719 15.257812 12.882812 15.261719 12.9375 15.261719 C 12.96875 15.261719 13.023438 15.246094 13.054688 15.226562 C 13.128906 15.1875 13.074219 15.1875 12.960938 15.230469 M 11.148438 15.289062 C 11.15625 15.300781 11.191406 15.3125 11.226562 15.308594 C 11.285156 15.308594 11.285156 15.304688 11.242188 15.289062 C 11.175781 15.257812 11.128906 15.257812 11.148438 15.289062 M 12.769531 15.289062 L 12.707031 15.308594 L 12.773438 15.308594 C 12.808594 15.3125 12.84375 15.300781 12.851562 15.289062 C 12.867188 15.261719 12.851562 15.261719 12.769531 15.289062 M 11.425781 15.351562 C 11.535156 15.429688 11.589844 15.511719 11.640625 15.660156 C 11.65625 15.710938 11.675781 15.742188 11.679688 15.726562 C 11.707031 15.648438 11.480469 15.3125 11.402344 15.3125 C 11.378906 15.3125 11.386719 15.324219 11.425781 15.351562 M 12.46875 15.414062 C 12.421875 15.46875 12.375 15.542969 12.367188 15.574219 C 12.359375 15.609375 12.34375 15.648438 12.328125 15.667969 C 12.316406 15.683594 12.3125 15.703125 12.320312 15.710938 C 12.328125 15.71875 12.347656 15.695312 12.363281 15.65625 C 12.425781 15.5 12.480469 15.417969 12.554688 15.367188 C 12.597656 15.332031 12.617188 15.3125 12.59375 15.3125 C 12.574219 15.3125 12.515625 15.359375 12.46875 15.414062 M 12.300781 16.667969 C 12.296875 17.144531 12.300781 17.339844 12.304688 17.109375 C 12.308594 16.875 12.308594 16.484375 12.304688 16.242188 C 12.300781 16 12.300781 16.191406 12.300781 16.667969 M 11.699219 16.667969 C 11.699219 17.128906 11.703125 17.316406 11.707031 17.082031 C 11.710938 16.84375 11.710938 16.46875 11.707031 16.242188 C 11.703125 16.011719 11.699219 16.207031 11.699219 16.667969 M 11.636719 17.648438 C 11.621094 17.699219 11.597656 17.734375 11.585938 17.734375 C 11.578125 17.734375 11.566406 17.746094 11.566406 17.761719 C 11.566406 17.777344 11.578125 17.78125 11.589844 17.773438 C 11.625 17.753906 11.695312 17.59375 11.679688 17.578125 C 11.675781 17.570312 11.65625 17.601562 11.636719 17.648438 M 12.359375 17.707031 C 12.40625 17.804688 12.5625 17.949219 12.59375 17.917969 C 12.601562 17.910156 12.597656 17.902344 12.582031 17.902344 C 12.546875 17.902344 12.382812 17.738281 12.382812 17.699219 C 12.382812 17.683594 12.367188 17.65625 12.347656 17.640625 C 12.324219 17.621094 12.328125 17.640625 12.359375 17.707031 M 11.460938 17.867188 C 11.421875 17.902344 11.398438 17.929688 11.410156 17.929688 C 11.417969 17.929688 11.460938 17.902344 11.5 17.867188 C 11.539062 17.835938 11.5625 17.808594 11.550781 17.808594 C 11.539062 17.808594 11.5 17.835938 11.460938 17.867188 M 11.0625 18.015625 L 11.003906 18.050781 L 11.0625 18.035156 C 11.097656 18.027344 11.15625 18.011719 11.195312 18 L 11.269531 17.980469 L 11.195312 17.980469 C 11.15625 17.976562 11.097656 17.996094 11.0625 18.015625 M 12.804688 18 C 12.84375 18.011719 12.902344 18.027344 12.9375 18.035156 L 12.996094 18.050781 L 12.9375 18.015625 C 12.902344 17.996094 12.84375 17.976562 12.804688 17.980469 L 12.730469 17.980469 L 12.804688 18 M 10.824219 18.070312 C 10.777344 18.101562 10.835938 18.101562 10.90625 18.070312 L 10.957031 18.050781 L 10.90625 18.050781 C 10.882812 18.050781 10.84375 18.058594 10.824219 18.070312 M 13.09375 18.070312 C 13.164062 18.101562 13.222656 18.101562 13.175781 18.070312 C 13.15625 18.058594 13.117188 18.050781 13.09375 18.050781 L 13.042969 18.050781 L 13.09375 18.070312 M 10.585938 18.132812 L 10.523438 18.171875 L 10.585938 18.15625 C 10.617188 18.148438 10.675781 18.132812 10.714844 18.121094 L 10.789062 18.101562 L 10.714844 18.097656 C 10.675781 18.097656 10.617188 18.113281 10.585938 18.132812 M 13.285156 18.121094 C 13.324219 18.132812 13.382812 18.148438 13.414062 18.15625 L 13.476562 18.171875 L 13.414062 18.132812 C 13.382812 18.113281 13.324219 18.097656 13.285156 18.097656 L 13.210938 18.101562 L 13.285156 18.121094 M 10.34375 18.191406 C 10.296875 18.222656 10.355469 18.222656 10.429688 18.191406 L 10.476562 18.171875 L 10.429688 18.171875 C 10.402344 18.167969 10.363281 18.179688 10.34375 18.191406 M 13.570312 18.191406 C 13.644531 18.222656 13.703125 18.222656 13.65625 18.191406 C 13.636719 18.179688 13.597656 18.167969 13.570312 18.171875 L 13.523438 18.171875 L 13.570312 18.191406 M 10.105469 18.253906 L 10.042969 18.289062 L 10.105469 18.277344 C 10.136719 18.265625 10.195312 18.25 10.234375 18.242188 L 10.308594 18.222656 L 10.234375 18.21875 C 10.195312 18.21875 10.136719 18.234375 10.105469 18.253906 M 13.765625 18.242188 C 13.804688 18.25 13.863281 18.265625 13.894531 18.277344 L 13.957031 18.289062 L 13.894531 18.253906 C 13.863281 18.234375 13.804688 18.21875 13.765625 18.21875 L 13.691406 18.222656 L 13.765625 18.242188 M 9.863281 18.3125 C 9.816406 18.34375 9.875 18.34375 9.949219 18.3125 L 9.996094 18.292969 L 9.949219 18.289062 C 9.921875 18.289062 9.882812 18.300781 9.863281 18.3125 M 14.050781 18.3125 C 14.125 18.34375 14.183594 18.34375 14.136719 18.3125 C 14.117188 18.300781 14.078125 18.289062 14.050781 18.289062 L 14.003906 18.292969 L 14.050781 18.3125 M 9.648438 18.378906 C 9.574219 18.425781 9.527344 18.472656 9.527344 18.492188 C 9.527344 18.5 9.570312 18.472656 9.617188 18.433594 C 9.667969 18.394531 9.734375 18.359375 9.769531 18.351562 L 9.828125 18.34375 L 9.765625 18.339844 C 9.734375 18.335938 9.679688 18.355469 9.648438 18.378906 M 14.234375 18.359375 C 14.269531 18.371094 14.316406 18.386719 14.332031 18.394531 C 14.351562 18.402344 14.34375 18.394531 14.316406 18.375 C 14.292969 18.351562 14.25 18.335938 14.222656 18.339844 C 14.183594 18.339844 14.183594 18.34375 14.234375 18.359375 M 14.445312 18.496094 C 14.488281 18.550781 14.519531 18.613281 14.519531 18.652344 L 14.519531 18.71875 L 9.480469 18.71875 L 9.480469 18.671875 C 9.480469 18.644531 9.492188 18.597656 9.507812 18.570312 C 9.535156 18.519531 9.53125 18.519531 9.496094 18.550781 C 9.46875 18.570312 9.457031 18.609375 9.460938 18.65625 L 9.46875 18.730469 L 12 18.730469 C 14.433594 18.730469 14.53125 18.730469 14.539062 18.6875 C 14.554688 18.621094 14.527344 18.546875 14.464844 18.472656 C 14.378906 18.375 14.363281 18.394531 14.445312 18.496094 "/>
<path style=" stroke:none;fill-rule:evenodd;fill:rgb(89.411765%,61.176473%,67.450982%);fill-opacity:1;" d="M 12.984375 5.320312 C 12.855469 5.398438 12.808594 5.558594 12.875 5.683594 C 12.914062 5.761719 12.984375 5.828125 12.984375 5.789062 C 12.984375 5.773438 12.96875 5.753906 12.953125 5.742188 C 12.839844 5.667969 12.835938 5.5 12.949219 5.390625 C 13.070312 5.269531 13.210938 5.277344 13.324219 5.410156 C 13.347656 5.4375 13.367188 5.453125 13.367188 5.441406 C 13.371094 5.324219 13.105469 5.242188 12.984375 5.320312 M 13.375 5.554688 C 13.375 5.609375 13.378906 5.628906 13.386719 5.597656 C 13.390625 5.566406 13.390625 5.523438 13.382812 5.5 C 13.378906 5.480469 13.375 5.503906 13.375 5.554688 M 13.296875 5.742188 L 13.242188 5.820312 L 13.308594 5.753906 C 13.347656 5.71875 13.371094 5.683594 13.363281 5.675781 C 13.359375 5.671875 13.328125 5.699219 13.296875 5.742188 M 13.0625 5.824219 C 13.097656 5.832031 13.152344 5.832031 13.183594 5.824219 C 13.210938 5.820312 13.183594 5.816406 13.117188 5.816406 C 13.050781 5.816406 13.027344 5.820312 13.0625 5.824219 M 10.738281 6.167969 C 10.65625 6.214844 10.613281 6.265625 10.652344 6.265625 C 10.667969 6.265625 10.6875 6.25 10.695312 6.234375 C 10.769531 6.117188 10.9375 6.117188 11.050781 6.230469 C 11.171875 6.347656 11.164062 6.488281 11.03125 6.605469 C 10.980469 6.652344 10.980469 6.652344 11.042969 6.613281 C 11.210938 6.511719 11.191406 6.265625 11.011719 6.160156 C 10.917969 6.109375 10.828125 6.109375 10.738281 6.167969 M 12.984375 6.160156 C 12.839844 6.25 12.839844 6.242188 12.839844 7.378906 C 12.839844 8.609375 12.84375 8.589844 12.5625 8.644531 L 12.46875 8.660156 L 12.582031 8.652344 C 12.695312 8.644531 12.742188 8.613281 12.820312 8.5 C 12.859375 8.441406 12.863281 8.34375 12.863281 7.375 L 12.863281 6.3125 L 12.949219 6.230469 C 13.070312 6.109375 13.210938 6.117188 13.324219 6.25 C 13.347656 6.277344 13.367188 6.292969 13.367188 6.28125 C 13.371094 6.167969 13.105469 6.082031 12.984375 6.160156 M 10.613281 6.394531 C 10.613281 6.460938 10.621094 6.484375 10.625 6.449219 C 10.628906 6.414062 10.628906 6.359375 10.625 6.328125 C 10.621094 6.300781 10.613281 6.328125 10.613281 6.394531 M 13.375 7.035156 C 13.371094 7.441406 13.375 7.777344 13.386719 7.785156 C 13.394531 7.789062 13.402344 7.578125 13.398438 7.3125 C 13.386719 6.390625 13.378906 6.304688 13.375 7.035156 M 10.683594 6.589844 C 10.722656 6.625 10.757812 6.652344 10.761719 6.644531 C 10.769531 6.636719 10.742188 6.609375 10.699219 6.578125 L 10.621094 6.523438 L 10.683594 6.589844 M 10.84375 6.664062 C 10.871094 6.671875 10.914062 6.671875 10.9375 6.664062 C 10.960938 6.660156 10.9375 6.652344 10.882812 6.652344 C 10.832031 6.65625 10.8125 6.660156 10.84375 6.664062 M 10.738281 7.007812 C 10.65625 7.054688 10.613281 7.105469 10.652344 7.105469 C 10.667969 7.105469 10.6875 7.089844 10.695312 7.074219 C 10.769531 6.957031 10.9375 6.957031 11.050781 7.070312 L 11.136719 7.152344 L 11.140625 10.34375 L 11.148438 13.53125 L 11.230469 13.605469 C 11.390625 13.75 11.710938 13.695312 11.710938 13.527344 C 11.710938 13.511719 11.695312 13.523438 11.675781 13.554688 C 11.59375 13.671875 11.425781 13.710938 11.304688 13.640625 C 11.148438 13.550781 11.160156 13.789062 11.160156 10.320312 C 11.160156 6.847656 11.171875 7.09375 11.011719 7 C 10.917969 6.949219 10.828125 6.949219 10.738281 7.007812 M 11.839844 7.019531 C 11.6875 7.140625 11.683594 7.359375 11.828125 7.457031 L 11.890625 7.496094 L 11.824219 7.417969 C 11.679688 7.242188 11.78125 6.984375 12 6.984375 C 12.214844 6.984375 12.320312 7.242188 12.175781 7.421875 L 12.109375 7.5 L 12.171875 7.445312 C 12.433594 7.210938 12.117188 6.804688 11.839844 7.019531 M 10.609375 7.457031 C 10.601562 7.644531 10.605469 7.789062 10.613281 7.777344 C 10.625 7.769531 10.628906 7.613281 10.625 7.4375 L 10.621094 7.117188 L 10.609375 7.457031 M 11.945312 7.503906 C 11.976562 7.511719 12.023438 7.511719 12.054688 7.503906 C 12.082031 7.5 12.058594 7.496094 12 7.496094 C 11.941406 7.496094 11.917969 7.5 11.945312 7.503906 M 9.457031 7.910156 C 9.4375 7.96875 9.433594 8.023438 9.441406 8.03125 C 9.449219 8.039062 9.460938 8.015625 9.46875 7.976562 C 9.507812 7.8125 9.453125 7.824219 10.039062 7.816406 L 10.570312 7.8125 L 10.027344 7.804688 L 9.484375 7.800781 L 9.457031 7.910156 M 11.847656 7.851562 C 11.710938 7.953125 11.710938 7.953125 11.710938 8.988281 C 11.710938 10.035156 11.703125 9.980469 11.863281 9.894531 C 11.90625 9.871094 12 9.835938 12.070312 9.8125 C 12.144531 9.789062 12.183594 9.769531 12.160156 9.769531 C 12.101562 9.765625 11.882812 9.839844 11.867188 9.867188 C 11.859375 9.878906 11.832031 9.886719 11.804688 9.886719 C 11.761719 9.886719 11.761719 9.863281 11.761719 8.925781 L 11.761719 7.964844 L 11.835938 7.894531 C 12.027344 7.710938 12.238281 7.847656 12.238281 8.152344 C 12.238281 8.410156 12.335938 8.640625 12.441406 8.640625 C 12.453125 8.640625 12.429688 8.605469 12.382812 8.566406 C 12.304688 8.496094 12.300781 8.492188 12.289062 8.25 C 12.265625 7.855469 12.074219 7.683594 11.847656 7.851562 M 13.960938 7.816406 L 14.496094 7.824219 L 14.511719 7.890625 C 14.539062 8.011719 14.546875 8.042969 14.5625 8.03125 C 14.570312 8.023438 14.5625 7.96875 14.542969 7.910156 L 14.515625 7.800781 L 13.972656 7.804688 L 13.429688 7.8125 L 13.960938 7.816406 M 9.386719 8.222656 C 9.371094 8.304688 9.359375 8.386719 9.367188 8.402344 C 9.375 8.421875 9.382812 8.40625 9.382812 8.367188 C 9.382812 8.332031 9.394531 8.28125 9.410156 8.253906 C 9.421875 8.226562 9.429688 8.175781 9.425781 8.140625 C 9.421875 8.09375 9.410156 8.117188 9.386719 8.222656 M 14.578125 8.171875 C 14.59375 8.308594 14.632812 8.457031 14.636719 8.375 C 14.636719 8.34375 14.621094 8.261719 14.601562 8.195312 C 14.570312 8.078125 14.570312 8.078125 14.578125 8.171875 M 9.324219 8.519531 C 9.316406 8.5625 9.3125 8.601562 9.320312 8.605469 C 9.324219 8.613281 9.339844 8.585938 9.347656 8.542969 C 9.355469 8.503906 9.359375 8.464844 9.351562 8.457031 C 9.347656 8.449219 9.332031 8.480469 9.324219 8.519531 M 14.640625 8.496094 C 14.640625 8.527344 14.652344 8.570312 14.664062 8.59375 C 14.695312 8.640625 14.695312 8.554688 14.664062 8.484375 C 14.644531 8.441406 14.644531 8.441406 14.640625 8.496094 M 9.28125 8.71875 C 9.257812 8.839844 9.238281 8.992188 9.25 8.964844 C 9.289062 8.851562 9.316406 8.734375 9.308594 8.6875 C 9.300781 8.636719 9.296875 8.644531 9.28125 8.71875 M 14.699219 8.734375 C 14.722656 8.90625 14.777344 9.144531 14.796875 9.164062 C 14.804688 9.171875 14.808594 9.148438 14.796875 9.109375 C 14.789062 9.070312 14.769531 8.980469 14.757812 8.914062 C 14.746094 8.851562 14.726562 8.761719 14.714844 8.722656 L 14.6875 8.652344 L 14.699219 8.734375 M 9.21875 9.023438 C 9.21875 9.042969 9.210938 9.085938 9.203125 9.121094 C 9.191406 9.171875 9.191406 9.175781 9.214844 9.136719 C 9.230469 9.113281 9.238281 9.070312 9.234375 9.042969 C 9.226562 9.011719 9.222656 9.003906 9.21875 9.023438 M 14.820312 9.277344 C 14.824219 9.328125 14.839844 9.414062 14.855469 9.46875 L 14.878906 9.5625 L 14.867188 9.46875 C 14.859375 9.414062 14.847656 9.328125 14.832031 9.277344 L 14.808594 9.179688 L 14.820312 9.277344 M 9.148438 9.359375 C 9.132812 9.445312 9.105469 9.558594 9.09375 9.609375 C 9.078125 9.660156 9.074219 9.707031 9.082031 9.710938 C 9.097656 9.726562 9.144531 9.554688 9.144531 9.484375 C 9.144531 9.453125 9.15625 9.40625 9.167969 9.382812 C 9.183594 9.355469 9.191406 9.304688 9.1875 9.269531 C 9.183594 9.226562 9.171875 9.253906 9.148438 9.359375 M 14.882812 9.628906 C 14.878906 9.664062 14.890625 9.699219 14.902344 9.707031 C 14.933594 9.726562 14.933594 9.679688 14.902344 9.613281 C 14.886719 9.570312 14.882812 9.570312 14.882812 9.628906 M 12.300781 9.742188 C 12.25 9.757812 12.285156 9.761719 12.421875 9.761719 C 12.554688 9.761719 12.589844 9.757812 12.539062 9.742188 C 12.5 9.734375 12.445312 9.726562 12.421875 9.726562 C 12.394531 9.726562 12.339844 9.734375 12.300781 9.742188 M 9.042969 9.851562 C 9.015625 9.992188 9 10.121094 9.007812 10.09375 C 9.050781 9.984375 9.074219 9.863281 9.066406 9.816406 C 9.058594 9.769531 9.054688 9.777344 9.042969 9.851562 M 12.707031 9.792969 C 12.910156 9.847656 12.90625 9.847656 12.832031 9.804688 C 12.792969 9.785156 12.734375 9.769531 12.699219 9.769531 C 12.636719 9.773438 12.636719 9.773438 12.707031 9.792969 M 14.9375 9.851562 C 14.953125 9.992188 15.011719 10.269531 15.035156 10.289062 C 15.046875 10.300781 15.046875 10.277344 15.039062 10.234375 C 15.03125 10.195312 15.011719 10.109375 15 10.042969 C 14.988281 9.976562 14.964844 9.886719 14.953125 9.839844 L 14.929688 9.757812 L 14.9375 9.851562 M 13.007812 9.894531 C 13.007812 9.898438 13.0625 9.9375 13.125 9.980469 C 13.253906 10.0625 13.414062 10.230469 13.496094 10.363281 C 13.519531 10.40625 13.546875 10.4375 13.554688 10.429688 C 13.566406 10.417969 13.476562 10.285156 13.378906 10.171875 C 13.273438 10.050781 13.007812 9.855469 13.007812 9.894531 M 8.964844 10.199219 C 8.953125 10.242188 8.953125 10.28125 8.960938 10.289062 C 8.964844 10.292969 8.980469 10.265625 8.988281 10.222656 C 8.996094 10.183594 9 10.144531 8.992188 10.136719 C 8.984375 10.128906 8.972656 10.160156 8.964844 10.199219 M 12.203125 10.355469 C 12.140625 10.386719 12.140625 10.390625 12.183594 10.390625 C 12.214844 10.390625 12.242188 10.382812 12.253906 10.367188 C 12.261719 10.355469 12.335938 10.34375 12.421875 10.34375 C 12.503906 10.34375 12.578125 10.355469 12.589844 10.367188 C 12.597656 10.382812 12.625 10.390625 12.65625 10.390625 C 12.699219 10.390625 12.691406 10.382812 12.628906 10.355469 C 12.527344 10.3125 12.300781 10.3125 12.203125 10.355469 M 8.917969 10.414062 C 8.898438 10.507812 8.875 10.71875 8.894531 10.644531 C 8.898438 10.617188 8.917969 10.558594 8.929688 10.511719 C 8.945312 10.460938 8.953125 10.402344 8.945312 10.378906 C 8.941406 10.347656 8.933594 10.355469 8.917969 10.414062 M 15.050781 10.390625 C 15.050781 10.421875 15.058594 10.480469 15.070312 10.523438 C 15.085938 10.5625 15.105469 10.660156 15.121094 10.734375 C 15.136719 10.8125 15.152344 10.871094 15.160156 10.863281 C 15.167969 10.855469 15.117188 10.582031 15.070312 10.402344 C 15.054688 10.339844 15.050781 10.339844 15.050781 10.390625 M 11.972656 10.488281 L 11.867188 10.589844 L 11.976562 10.511719 C 12.121094 10.40625 12.132812 10.390625 12.105469 10.390625 C 12.089844 10.390625 12.03125 10.4375 11.972656 10.488281 M 12.71875 10.402344 C 12.71875 10.40625 12.777344 10.449219 12.847656 10.5 L 12.972656 10.585938 L 12.867188 10.488281 C 12.773438 10.402344 12.71875 10.371094 12.71875 10.402344 M 13.558594 10.480469 C 13.558594 10.496094 13.574219 10.539062 13.597656 10.574219 C 13.617188 10.613281 13.632812 10.632812 13.632812 10.617188 C 13.632812 10.601562 13.617188 10.558594 13.597656 10.519531 C 13.578125 10.484375 13.558594 10.464844 13.558594 10.480469 M 11.839844 10.636719 C 11.800781 10.691406 11.75 10.800781 11.761719 10.808594 C 11.765625 10.816406 11.796875 10.773438 11.824219 10.714844 C 11.875 10.609375 11.878906 10.582031 11.839844 10.636719 M 13.019531 10.710938 C 13.046875 10.769531 13.070312 10.808594 13.074219 10.796875 C 13.085938 10.777344 13.015625 10.640625 12.988281 10.621094 C 12.976562 10.617188 12.992188 10.65625 13.019531 10.710938 M 13.648438 10.714844 C 13.65625 10.753906 13.671875 10.878906 13.679688 10.992188 L 13.699219 11.195312 L 13.691406 10.96875 C 13.691406 10.835938 13.675781 10.71875 13.660156 10.691406 C 13.632812 10.648438 13.632812 10.652344 13.648438 10.714844 M 8.847656 10.765625 C 8.835938 10.800781 8.835938 10.835938 8.839844 10.839844 C 8.847656 10.847656 8.859375 10.824219 8.871094 10.789062 C 8.878906 10.753906 8.878906 10.71875 8.875 10.714844 C 8.867188 10.707031 8.855469 10.730469 8.847656 10.765625 M 11.726562 10.902344 C 11.707031 10.984375 11.710938 11.121094 11.734375 11.160156 C 11.753906 11.183594 11.757812 11.144531 11.757812 11.023438 C 11.761719 10.839844 11.75 10.808594 11.726562 10.902344 M 13.085938 11.015625 C 13.085938 11.191406 13.085938 11.191406 13.109375 11.09375 C 13.128906 11.023438 13.128906 10.96875 13.109375 10.914062 C 13.089844 10.84375 13.085938 10.859375 13.085938 11.015625 M 8.777344 11.101562 C 8.753906 11.21875 8.730469 11.34375 8.722656 11.375 C 8.710938 11.421875 8.714844 11.425781 8.730469 11.398438 C 8.746094 11.378906 8.761719 11.316406 8.769531 11.257812 C 8.78125 11.195312 8.796875 11.113281 8.8125 11.070312 C 8.824219 11.027344 8.832031 10.96875 8.828125 10.9375 C 8.824219 10.910156 8.800781 10.980469 8.777344 11.101562 M 15.179688 10.96875 C 15.203125 11.164062 15.246094 11.367188 15.269531 11.386719 C 15.285156 11.40625 15.289062 11.394531 15.277344 11.351562 C 15.269531 11.320312 15.253906 11.238281 15.238281 11.171875 C 15.226562 11.105469 15.207031 11.015625 15.191406 10.96875 L 15.167969 10.882812 L 15.179688 10.96875 M 11.761719 11.226562 C 11.757812 11.359375 12.140625 11.746094 12.210938 11.679688 C 12.214844 11.671875 12.171875 11.644531 12.113281 11.617188 C 11.980469 11.554688 11.898438 11.46875 11.820312 11.316406 C 11.789062 11.25 11.761719 11.210938 11.761719 11.226562 M 13.050781 11.242188 C 13.042969 11.269531 13.03125 11.3125 13.019531 11.339844 C 13.003906 11.382812 13.007812 11.378906 13.042969 11.332031 C 13.066406 11.304688 13.078125 11.261719 13.074219 11.238281 C 13.066406 11.203125 13.0625 11.203125 13.050781 11.242188 M 13.644531 11.292969 C 13.636719 11.328125 13.636719 11.363281 13.640625 11.371094 C 13.648438 11.375 13.660156 11.351562 13.667969 11.316406 C 13.679688 11.28125 13.679688 11.25 13.671875 11.242188 C 13.667969 11.234375 13.65625 11.257812 13.644531 11.292969 M 12.90625 11.484375 C 12.867188 11.527344 12.78125 11.59375 12.710938 11.625 C 12.644531 11.660156 12.601562 11.6875 12.617188 11.6875 C 12.679688 11.6875 12.828125 11.59375 12.921875 11.496094 C 12.976562 11.445312 13.007812 11.402344 12.996094 11.402344 C 12.980469 11.402344 12.941406 11.441406 12.90625 11.484375 M 13.585938 11.496094 C 13.511719 11.71875 13.289062 11.96875 13.035156 12.113281 C 12.960938 12.15625 12.914062 12.191406 12.929688 12.191406 C 13.113281 12.195312 13.675781 11.570312 13.625 11.421875 C 13.621094 11.40625 13.601562 11.4375 13.585938 11.496094 M 8.664062 11.683594 C 8.628906 11.921875 8.644531 12.472656 8.6875 12.625 C 8.710938 12.707031 8.710938 12.707031 8.699219 12.601562 C 8.664062 12.234375 8.660156 11.90625 8.6875 11.726562 C 8.703125 11.617188 8.714844 11.511719 8.707031 11.496094 C 8.703125 11.476562 8.683594 11.5625 8.664062 11.683594 M 15.304688 11.605469 C 15.328125 11.800781 15.328125 12.359375 15.308594 12.550781 L 15.289062 12.707031 L 15.324219 12.539062 C 15.367188 12.324219 15.367188 11.84375 15.324219 11.628906 L 15.289062 11.460938 L 15.304688 11.605469 M 12.328125 11.707031 C 12.371094 11.710938 12.449219 11.710938 12.496094 11.707031 C 12.546875 11.699219 12.511719 11.695312 12.421875 11.695312 C 12.328125 11.695312 12.285156 11.699219 12.328125 11.707031 M 11.726562 12.136719 C 11.71875 12.144531 11.714844 12.457031 11.714844 12.824219 C 11.714844 13.203125 11.726562 13.472656 11.734375 13.441406 C 11.746094 13.40625 11.757812 13.101562 11.757812 12.761719 C 11.757812 12.421875 11.769531 12.144531 11.78125 12.144531 C 11.789062 12.144531 11.84375 12.164062 11.898438 12.191406 C 12.179688 12.328125 12.800781 12.335938 12.878906 12.210938 C 12.890625 12.191406 12.878906 12.191406 12.851562 12.203125 C 12.578125 12.316406 12.214844 12.300781 11.917969 12.171875 C 11.796875 12.117188 11.753906 12.109375 11.726562 12.136719 M 8.710938 12.761719 C 8.710938 12.800781 8.773438 13.027344 8.804688 13.105469 C 8.828125 13.160156 8.828125 13.160156 8.832031 13.113281 C 8.832031 13.082031 8.820312 13.054688 8.808594 13.046875 C 8.796875 13.039062 8.78125 12.980469 8.773438 12.917969 C 8.757812 12.808594 8.714844 12.695312 8.710938 12.761719 M 15.238281 12.875 C 15.222656 12.957031 15.199219 13.03125 15.1875 13.042969 C 15.175781 13.054688 15.167969 13.085938 15.167969 13.113281 C 15.171875 13.15625 15.175781 13.15625 15.195312 13.105469 C 15.238281 13.003906 15.289062 12.785156 15.28125 12.757812 C 15.273438 12.742188 15.257812 12.796875 15.238281 12.875 M 15.121094 13.253906 C 15.050781 13.421875 14.914062 13.695312 14.859375 13.769531 C 14.828125 13.8125 14.804688 13.855469 14.8125 13.859375 C 14.832031 13.878906 14.933594 13.707031 15.03125 13.5 C 15.082031 13.394531 15.136719 13.285156 15.148438 13.253906 C 15.164062 13.222656 15.171875 13.195312 15.164062 13.1875 C 15.15625 13.179688 15.136719 13.210938 15.121094 13.253906 M 8.878906 13.308594 C 8.882812 13.351562 8.949219 13.453125 8.949219 13.414062 C 8.949219 13.394531 8.933594 13.359375 8.914062 13.332031 C 8.894531 13.308594 8.878906 13.296875 8.878906 13.308594 M 8.953125 13.472656 C 8.953125 13.5 9.144531 13.84375 9.171875 13.859375 C 9.203125 13.882812 9.195312 13.839844 9.164062 13.804688 C 9.148438 13.789062 9.09375 13.703125 9.042969 13.613281 C 8.992188 13.523438 8.953125 13.460938 8.953125 13.472656 M 9.265625 14.003906 C 9.308594 14.0625 9.367188 14.128906 9.390625 14.152344 C 9.417969 14.175781 9.386719 14.128906 9.324219 14.046875 C 9.191406 13.871094 9.152344 13.84375 9.265625 14.003906 M 14.714844 13.988281 C 14.683594 14.039062 14.578125 14.167969 14.476562 14.269531 C 14.320312 14.433594 14.246094 14.5 14.050781 14.660156 C 13.910156 14.773438 13.355469 15.074219 13.214844 15.109375 C 13.164062 15.121094 13.097656 15.167969 13.132812 15.167969 C 13.214844 15.167969 13.65625 14.945312 13.929688 14.765625 C 14.238281 14.5625 14.902344 13.894531 14.792969 13.898438 C 14.78125 13.898438 14.746094 13.9375 14.714844 13.988281 M 9.636719 14.414062 C 9.914062 14.679688 10.332031 14.957031 10.632812 15.078125 C 10.679688 15.097656 10.746094 15.125 10.785156 15.140625 C 10.824219 15.15625 10.859375 15.164062 10.867188 15.15625 C 10.875 15.152344 10.847656 15.132812 10.808594 15.121094 C 10.769531 15.105469 10.71875 15.085938 10.691406 15.074219 C 10.664062 15.0625 10.605469 15.039062 10.5625 15.019531 C 10.480469 14.992188 9.984375 14.699219 9.960938 14.667969 C 9.953125 14.660156 9.894531 14.609375 9.828125 14.554688 C 9.761719 14.503906 9.652344 14.402344 9.582031 14.335938 C 9.515625 14.265625 9.449219 14.207031 9.4375 14.207031 C 9.429688 14.207031 9.515625 14.300781 9.636719 14.414062 M 10.980469 15.203125 C 11.03125 15.222656 11.09375 15.238281 11.113281 15.238281 C 11.132812 15.238281 11.105469 15.222656 11.050781 15.203125 C 11 15.183594 10.941406 15.167969 10.921875 15.167969 C 10.898438 15.167969 10.925781 15.1875 10.980469 15.203125 M 12.972656 15.191406 C 12.964844 15.207031 12.9375 15.214844 12.917969 15.214844 C 12.859375 15.214844 12.6875 15.265625 12.703125 15.277344 C 12.710938 15.289062 12.882812 15.246094 13.042969 15.195312 L 13.117188 15.171875 L 13.050781 15.171875 C 13.015625 15.167969 12.980469 15.179688 12.972656 15.191406 M 11.195312 15.265625 C 11.222656 15.273438 11.265625 15.285156 11.292969 15.285156 L 11.339844 15.285156 L 11.292969 15.265625 C 11.265625 15.253906 11.222656 15.242188 11.195312 15.242188 L 11.148438 15.242188 L 11.195312 15.265625 M 11.40625 15.304688 C 11.484375 15.316406 11.617188 15.488281 11.671875 15.648438 C 11.695312 15.710938 11.710938 15.734375 11.710938 15.703125 C 11.714844 15.5625 11.507812 15.285156 11.40625 15.292969 L 11.339844 15.296875 L 11.40625 15.304688 M 12.503906 15.316406 C 12.492188 15.335938 12.457031 15.375 12.429688 15.40625 C 12.371094 15.480469 12.289062 15.660156 12.289062 15.714844 C 12.289062 15.738281 12.308594 15.707031 12.328125 15.648438 C 12.382812 15.488281 12.515625 15.316406 12.59375 15.304688 L 12.660156 15.296875 L 12.59375 15.292969 C 12.558594 15.289062 12.519531 15.300781 12.503906 15.316406 M 12.253906 15.859375 C 12.234375 15.988281 12.242188 17.449219 12.265625 17.519531 C 12.273438 17.554688 12.285156 17.171875 12.285156 16.675781 C 12.289062 15.777344 12.285156 15.683594 12.253906 15.859375 M 11.71875 16.667969 C 11.71875 17.15625 11.726562 17.527344 11.734375 17.496094 C 11.746094 17.464844 11.753906 17.089844 11.753906 16.667969 C 11.753906 16.246094 11.746094 15.871094 11.734375 15.839844 C 11.726562 15.808594 11.71875 16.179688 11.71875 16.667969 M 11.628906 17.71875 C 11.539062 17.871094 11.398438 17.964844 11.15625 18.023438 C 11.058594 18.046875 11.007812 18.070312 11.039062 18.070312 C 11.125 18.074219 11.417969 17.972656 11.492188 17.917969 C 11.570312 17.859375 11.644531 17.769531 11.679688 17.695312 C 11.738281 17.570312 11.707031 17.585938 11.628906 17.71875 M 12.289062 17.609375 C 12.285156 17.707031 12.484375 17.953125 12.5625 17.953125 C 12.574219 17.953125 12.550781 17.929688 12.511719 17.898438 C 12.429688 17.835938 12.386719 17.777344 12.332031 17.664062 C 12.308594 17.617188 12.289062 17.59375 12.289062 17.609375 M 12.769531 18.027344 C 12.8125 18.042969 12.890625 18.054688 12.9375 18.0625 C 13 18.070312 12.992188 18.0625 12.898438 18.039062 C 12.835938 18.019531 12.757812 18.003906 12.730469 18.003906 C 12.707031 18.003906 12.722656 18.015625 12.769531 18.027344 M 10.871094 18.097656 C 10.839844 18.117188 10.839844 18.121094 10.871094 18.121094 C 10.890625 18.121094 10.925781 18.109375 10.945312 18.097656 C 10.976562 18.074219 10.976562 18.074219 10.945312 18.074219 C 10.925781 18.074219 10.890625 18.082031 10.871094 18.097656 M 13.054688 18.097656 C 13.074219 18.109375 13.109375 18.121094 13.128906 18.121094 C 13.160156 18.121094 13.160156 18.117188 13.128906 18.097656 C 13.109375 18.082031 13.074219 18.074219 13.054688 18.074219 C 13.023438 18.074219 13.023438 18.074219 13.054688 18.097656 M 10.609375 18.160156 C 10.511719 18.1875 10.507812 18.191406 10.585938 18.183594 C 10.707031 18.167969 10.851562 18.125 10.777344 18.125 C 10.742188 18.125 10.667969 18.140625 10.609375 18.160156 M 13.246094 18.148438 C 13.292969 18.160156 13.371094 18.175781 13.414062 18.183594 C 13.480469 18.191406 13.472656 18.183594 13.378906 18.15625 C 13.3125 18.136719 13.238281 18.121094 13.210938 18.125 C 13.1875 18.125 13.203125 18.136719 13.246094 18.148438 M 10.390625 18.214844 C 10.359375 18.238281 10.359375 18.238281 10.390625 18.238281 C 10.410156 18.238281 10.445312 18.230469 10.464844 18.214844 C 10.496094 18.195312 10.496094 18.191406 10.464844 18.191406 C 10.445312 18.191406 10.410156 18.203125 10.390625 18.214844 M 13.535156 18.214844 C 13.554688 18.230469 13.589844 18.238281 13.609375 18.238281 C 13.640625 18.238281 13.640625 18.238281 13.609375 18.214844 C 13.589844 18.203125 13.554688 18.191406 13.535156 18.191406 C 13.503906 18.191406 13.503906 18.195312 13.535156 18.214844 M 10.128906 18.277344 C 10.03125 18.308594 10.03125 18.308594 10.105469 18.300781 C 10.226562 18.285156 10.375 18.246094 10.296875 18.246094 C 10.261719 18.246094 10.1875 18.261719 10.128906 18.277344 M 13.726562 18.269531 C 13.773438 18.28125 13.851562 18.296875 13.894531 18.300781 C 13.960938 18.308594 13.953125 18.304688 13.859375 18.277344 C 13.792969 18.257812 13.71875 18.242188 13.691406 18.242188 C 13.664062 18.246094 13.683594 18.253906 13.726562 18.269531 M 9.910156 18.335938 C 9.878906 18.355469 9.878906 18.359375 9.910156 18.359375 C 9.933594 18.359375 9.964844 18.347656 9.984375 18.335938 C 10.015625 18.316406 10.015625 18.3125 9.984375 18.3125 C 9.964844 18.3125 9.933594 18.324219 9.910156 18.335938 M 14.015625 18.335938 C 14.035156 18.347656 14.066406 18.359375 14.089844 18.359375 C 14.121094 18.359375 14.121094 18.355469 14.089844 18.335938 C 14.066406 18.324219 14.035156 18.3125 14.015625 18.3125 C 13.984375 18.3125 13.984375 18.316406 14.015625 18.335938 M 9.703125 18.382812 C 9.671875 18.398438 9.648438 18.414062 9.648438 18.421875 C 9.648438 18.429688 9.667969 18.429688 9.691406 18.417969 C 9.714844 18.410156 9.765625 18.394531 9.804688 18.382812 C 9.871094 18.367188 9.871094 18.363281 9.816406 18.363281 C 9.78125 18.363281 9.730469 18.371094 9.703125 18.382812 M 14.183594 18.378906 C 14.21875 18.382812 14.253906 18.398438 14.265625 18.410156 C 14.28125 18.421875 14.304688 18.429688 14.328125 18.429688 C 14.351562 18.429688 14.34375 18.417969 14.304688 18.394531 C 14.269531 18.378906 14.21875 18.363281 14.183594 18.363281 L 14.125 18.367188 L 14.183594 18.378906 M 9.503906 18.597656 C 9.453125 18.726562 9.363281 18.71875 12.011719 18.714844 L 14.507812 18.707031 L 14.503906 18.636719 C 14.5 18.601562 14.484375 18.554688 14.46875 18.542969 C 14.449219 18.523438 14.445312 18.527344 14.460938 18.5625 C 14.515625 18.707031 14.753906 18.695312 12.003906 18.695312 C 9.417969 18.695312 9.441406 18.695312 9.53125 18.605469 C 9.546875 18.59375 9.554688 18.566406 9.546875 18.550781 C 9.542969 18.535156 9.523438 18.554688 9.503906 18.597656 "/>
<path style=" stroke:none;fill-rule:evenodd;fill:rgb(86.274511%,48.627451%,61.176473%);fill-opacity:1;" d="M 13.402344 7.066406 C 13.402344 7.683594 13.410156 7.785156 13.441406 7.792969 C 13.464844 7.800781 13.46875 7.796875 13.445312 7.78125 C 13.425781 7.765625 13.414062 7.582031 13.410156 7.054688 L 13.402344 6.347656 L 13.402344 7.066406 M 10.589844 7.492188 C 10.585938 7.691406 10.574219 7.777344 10.554688 7.785156 C 10.53125 7.792969 10.53125 7.796875 10.554688 7.796875 C 10.601562 7.800781 10.609375 7.753906 10.601562 7.472656 L 10.59375 7.210938 L 10.589844 7.492188 M 12.222656 9.785156 C 12.246094 9.789062 12.28125 9.789062 12.304688 9.785156 C 12.328125 9.777344 12.308594 9.773438 12.265625 9.773438 C 12.21875 9.773438 12.199219 9.777344 12.222656 9.785156 M 12.535156 9.785156 C 12.558594 9.789062 12.59375 9.789062 12.617188 9.785156 C 12.640625 9.777344 12.621094 9.773438 12.574219 9.773438 C 12.53125 9.773438 12.511719 9.777344 12.535156 9.785156 M 13.285156 10.128906 C 13.335938 10.179688 13.382812 10.222656 13.390625 10.222656 C 13.394531 10.222656 13.359375 10.179688 13.308594 10.128906 C 13.257812 10.074219 13.207031 10.03125 13.203125 10.03125 C 13.195312 10.03125 13.234375 10.074219 13.285156 10.128906 M 12.910156 11.515625 L 12.828125 11.605469 L 12.917969 11.519531 C 13 11.445312 13.019531 11.425781 13 11.425781 C 12.996094 11.425781 12.957031 11.464844 12.910156 11.515625 M 11.855469 11.457031 C 11.855469 11.460938 11.890625 11.496094 11.933594 11.535156 L 12.011719 11.605469 L 11.941406 11.527344 C 11.875 11.453125 11.855469 11.4375 11.855469 11.457031 M 12.355469 12.28125 C 12.398438 12.285156 12.460938 12.285156 12.5 12.28125 C 12.535156 12.277344 12.5 12.269531 12.421875 12.269531 C 12.339844 12.273438 12.3125 12.277344 12.355469 12.28125 M 14.589844 14.179688 L 14.507812 14.269531 L 14.597656 14.183594 C 14.648438 14.140625 14.6875 14.097656 14.6875 14.09375 C 14.6875 14.078125 14.667969 14.09375 14.589844 14.179688 "/>
</g>
</svg>
