<svg width="1305" height="343" viewBox="0 0 1305 343" fill="none" xmlns="http://www.w3.org/2000/svg">
<rect width="1305" height="343" rx="80" fill="white"/>
<path d="M572.754 72.6431H583.798V171.767H572.754V163.024H572.479C568.335 168.431 561.708 173.7 550.38 173.7C532.701 173.7 518.613 159.698 518.613 136.409C518.613 113.12 532.701 99.1189 550.38 99.1189C561.708 99.1189 568.335 104.11 572.479 110.211H572.754V72.6431ZM572.754 136.409C572.754 119.776 564.608 108.823 551.486 108.823C536.983 108.823 529.659 122.547 529.659 136.409C529.659 150.272 536.983 163.995 551.486 163.995C564.608 163.995 572.754 153.042 572.754 136.409Z" fill="#163B36"/>
<path d="M625.037 108.823C611.638 108.823 607.214 112.704 606.527 122.963H595.477C596.168 109.378 604.592 99.1189 625.037 99.1189C638.434 99.1189 650.449 104.387 650.449 121.422V155.803C650.449 161.349 651.435 164.397 658.457 163.564V171.33C656.382 172.102 654.181 172.477 651.97 172.436C645.338 172.436 641.331 170.637 639.4 162.87H639.106C634.685 169.526 626.814 173.685 615.213 173.685C600.987 173.685 592.005 165.507 592.005 153.583C592.005 137.505 603.88 133.346 622.127 129.882C634.01 127.662 639.41 126.135 639.41 119.068C639.4 113.537 636.36 108.823 625.037 108.823ZM639.4 144.448V132.668C637.327 134.744 630.558 136.687 623.106 138.213C609.428 141.123 603.056 144.587 603.056 153.042C603.056 159.981 607.2 163.995 616.32 163.995C629.456 163.995 639.4 158.033 639.4 144.448Z" fill="#163B36"/>
<path d="M714.166 101.062H725.219V167.876C725.219 186.71 713.341 196.295 694.002 196.295C674.666 196.295 663.198 186.036 662.098 173.992H673.179C674.563 181.198 680.365 186.606 693.484 186.606C706.606 186.606 714.2 180.921 714.2 167.772V157.067H713.925C709.781 163.163 703.154 168.154 691.549 168.154C674.148 168.154 660.057 156.928 660.057 133.639C660.057 110.35 674.148 99.1189 691.549 99.1189C703.154 99.1189 709.781 104.387 713.925 109.795H714.2L714.166 101.062ZM714.166 133.639C714.166 117.001 706.017 108.823 692.898 108.823C678.393 108.823 671.076 119.776 671.076 133.639C671.076 147.501 678.393 158.449 692.898 158.449C706.037 158.449 714.166 150.272 714.166 133.639Z" fill="#163B36"/>
<path d="M793.124 152.353C793.124 165.239 781.384 173.7 765.359 173.7C743.815 173.7 733.87 163.44 733.178 148.195H744.229C744.916 156.095 747.686 163.995 765.359 163.995C777.375 163.995 782.071 157.756 782.071 153.042C782.071 142.788 772.816 142.233 762.739 139.735C751.963 137.103 735.939 135.854 735.939 119.221C735.939 108.129 745.746 99.1189 762.324 99.1189C779.865 99.1189 789.257 109.101 790.356 121.298H779.31C778.204 115.896 775.583 108.823 762.324 108.823C752.378 108.823 747.014 112.843 747.014 118.389C747.014 126.705 756.546 127.399 766.353 129.758C778.896 132.806 793.124 134.883 793.124 152.353Z" fill="#163B36"/>
<path d="M830.47 110.766H816.644V153.32C816.644 161.363 821.087 162.736 830.47 162.057V171.767C827.746 172.339 824.969 172.618 822.184 172.599C812.802 172.599 805.608 168.857 805.608 154.44V110.776H795.237V101.061H805.608V77.4949H816.659V101.061H830.485L830.47 110.766Z" fill="#163B36"/>
<path d="M889.196 149.994H900.247C896.652 163.163 886.573 173.7 869.033 173.7C847.62 173.7 834.638 158.588 834.638 136.409C834.638 112.843 847.897 99.1189 868.48 99.1189C890.577 99.1189 901.353 114.231 901.353 139.319H845.689C845.689 152.076 853.286 163.995 868.618 163.995C882.706 163.995 887.952 154.846 889.196 149.994ZM845.689 129.639H890.303C890.303 118.27 881.74 108.823 868.48 108.823C855.221 108.823 845.689 118.24 845.689 129.639Z" fill="#163B36"/>
<path d="M946.929 99.535V110.627H946.651C931.343 108.149 920.688 118.943 920.688 134.055V171.767H909.634V101.062H920.688V115.063H920.962C924.692 105.775 930.347 99.1188 940.439 99.1188C942.61 99.0962 944.779 99.2353 946.929 99.535Z" fill="#163B36"/>
<path d="M399.744 191.205C399.746 191.907 399.892 192.6 400.173 193.243C400.454 193.885 400.864 194.463 401.377 194.939C401.89 195.415 402.496 195.78 403.156 196.011C403.816 196.242 404.516 196.333 405.213 196.28C431.701 194.377 456.718 175.563 464.705 146.178C465.124 144.488 466.388 143.64 468.071 143.64C468.934 143.675 469.749 144.05 470.338 144.684C470.928 145.317 471.245 146.159 471.221 147.026C471.221 153.578 462.829 170.701 450.829 180.638C450.217 181.155 449.73 181.803 449.402 182.535C449.075 183.267 448.916 184.064 448.938 184.866C448.95 185.518 449.091 186.162 449.351 186.759C449.611 187.357 449.987 187.897 450.455 188.349C450.924 188.8 451.477 189.155 452.082 189.391C452.688 189.628 453.334 189.742 453.983 189.728C455.035 189.728 456.718 189.094 458.821 187.19C467.212 179.578 483.206 158.227 483.206 134.759C483.206 100.353 456.703 70.7053 419.716 70.7053C386.712 70.7053 358.121 97.766 358.121 129.055C358.121 149.771 374.519 165.413 396.17 165.413C412.78 165.413 428.127 153.578 432.333 137.296C432.752 135.606 434.011 134.759 435.694 134.759C436.558 134.794 437.373 135.169 437.963 135.802C438.553 136.436 438.871 137.277 438.849 138.144C438.849 145.544 424.973 171.35 396.802 171.35C390.073 171.35 381.667 169.447 375.778 166.062C374.99 165.679 374.131 165.463 373.256 165.428C372.585 165.402 371.917 165.516 371.293 165.762C370.668 166.008 370.101 166.381 369.627 166.858C369.154 167.334 368.783 167.904 368.539 168.531C368.295 169.159 368.184 169.83 368.211 170.503C368.238 171.365 368.484 172.206 368.925 172.946C369.367 173.685 369.989 174.3 370.733 174.731C378.513 179.191 387.763 181.496 397.221 181.496C420.767 181.496 442.21 165.428 448.519 141.752C448.938 140.062 450.202 139.215 451.88 139.215C452.744 139.249 453.559 139.624 454.149 140.258C454.739 140.891 455.057 141.732 455.035 142.6C455.035 152.324 437.797 183.612 404.581 186.15C403.296 186.245 402.091 186.814 401.198 187.747C400.306 188.68 399.788 189.912 399.744 191.205Z" fill="#4F43DD"/>
<path d="M432.658 110.241C437.192 110.207 441.643 111.465 445.493 113.869C445.882 111.73 446.096 109.564 446.134 107.391C446.134 97.3546 438.513 88.364 429.233 88.364C422.016 88.364 417.504 94.3661 417.504 101.78C417.47 105.786 418.871 109.67 421.453 112.724C424.951 111.049 428.784 110.2 432.658 110.241Z" fill="white"/>
<path d="M454.403 146.599C455.691 142.178 456.259 139.111 456.259 137.118C456.219 136.258 455.852 135.445 455.233 134.85C454.613 134.254 453.789 133.919 452.932 133.917C452.133 133.932 451.361 134.214 450.741 134.72C450.12 135.225 449.685 135.925 449.506 136.707C449.155 138.159 448.405 142.094 447.665 144.592C447.971 143.657 448.25 142.707 448.504 141.742C448.923 140.047 450.187 139.205 451.865 139.205C452.728 139.238 453.543 139.612 454.134 140.245C454.724 140.877 455.042 141.718 455.02 142.585C454.98 143.947 454.763 145.299 454.373 146.604L454.403 146.599Z" fill="#352D8E"/>
<path d="M472.272 141.98C472.232 141.121 471.865 140.31 471.247 139.715C470.629 139.119 469.807 138.784 468.95 138.779C468.152 138.795 467.381 139.078 466.762 139.583C466.142 140.089 465.708 140.787 465.529 141.569C465.174 143.056 464.409 147.05 463.658 149.543H463.693C464.058 148.433 464.399 147.308 464.68 146.163C465.1 144.468 466.363 143.626 468.047 143.626C468.909 143.659 469.723 144.033 470.313 144.666C470.903 145.299 471.22 146.139 471.196 147.006C471.172 148.058 471.028 149.104 470.766 150.123C471.813 146.436 472.272 143.769 472.272 141.98Z" fill="#352D8E"/>
<path d="M432.658 110.241C434.911 110.236 437.155 110.538 439.327 111.138C440.468 109.576 441.038 107.668 440.941 105.734C440.845 103.8 440.087 101.958 438.797 100.519C437.507 99.0793 435.762 98.1302 433.856 97.831C431.951 97.5321 430.001 97.901 428.334 98.8764L431.79 104.586L425.318 101.776C424.442 103.196 424.002 104.844 424.055 106.514C424.108 108.184 424.65 109.801 425.614 111.163C427.911 110.541 430.28 110.231 432.658 110.241Z" fill="#163B36"/>
<path d="M382.802 146.986C385.528 146.986 387.738 144.767 387.738 142.03C387.738 139.292 385.528 137.073 382.802 137.073C380.076 137.073 377.866 139.292 377.866 142.03C377.866 144.767 380.076 146.986 382.802 146.986Z" fill="#352D8E"/>
<path d="M382.802 127.161C385.528 127.161 387.738 124.942 387.738 122.205C387.738 119.468 385.528 117.249 382.802 117.249C380.076 117.249 377.866 119.468 377.866 122.205C377.866 124.942 380.076 127.161 382.802 127.161Z" fill="#352D8E"/>
<path d="M372.93 137.074C375.656 137.074 377.866 134.855 377.866 132.117C377.866 129.38 375.656 127.161 372.93 127.161C370.203 127.161 367.993 129.38 367.993 132.117C367.993 134.855 370.203 137.074 372.93 137.074Z" fill="#352D8E"/>
<path d="M395.143 165.403H396.13C412.741 165.403 428.088 153.568 432.293 137.286C432.713 135.596 433.971 134.749 435.655 134.749C436.518 134.784 437.333 135.159 437.923 135.792C438.513 136.426 438.832 137.267 438.809 138.134C438.734 139.864 438.344 141.566 437.659 143.155C437.778 142.97 437.882 142.776 437.97 142.575C439.219 139.708 439.864 136.614 439.865 133.485C439.865 128.623 436.499 125.451 431.666 125.451C423.24 125.451 421.552 132.836 417.998 140.731C414.31 148.929 407.538 157.795 390.458 157.795C372.712 157.795 354.478 145.321 358.926 119.955C358.98 119.637 359.024 119.355 359.059 119.092C358.407 122.369 358.076 125.703 358.071 129.044C358.121 149.464 374.011 164.927 395.143 165.403Z" fill="#352D8E"/>
<path d="M285.065 263.4C281.385 262.52 277.945 261.8 277.945 258.24C277.945 255.52 279.905 254 283.905 254C288.505 254 290.505 256.04 291.025 259.88H294.785C294.305 254.12 290.345 250.84 283.865 250.84C277.705 250.84 274.185 253.84 274.185 258.4C274.185 263.92 279.265 265.24 283.585 266.32C289.145 267.72 291.945 268.2 291.945 272.2C291.945 275.12 290.505 277.4 285.345 277.4C279.385 277.4 277.145 274.36 276.745 270.4H272.985C273.385 276.8 278.345 280.56 285.505 280.56C292.625 280.56 295.705 276.8 295.705 272.08C295.705 266 290.625 264.72 285.065 263.4ZM312.818 266.56V280H316.018V265.76C316.018 261.08 312.898 259.04 309.178 259.04C305.698 259.04 303.538 260.6 302.458 262.04H302.378V251.4H299.178V280H302.378V267.28C302.378 264.12 304.778 261.84 308.378 261.84C311.578 261.84 312.818 263.92 312.818 266.56ZM319.941 253.8C319.941 254.84 320.661 255.76 321.941 255.76C323.221 255.76 323.941 254.84 323.941 253.8C323.941 252.72 323.221 251.8 321.941 251.8C320.661 251.8 319.941 252.72 319.941 253.8ZM320.341 280H323.541V259.6H320.341V280ZM331.311 277.36C332.511 279.12 334.431 280.56 337.711 280.56C342.831 280.56 346.911 276.52 346.911 269.8C346.911 263.08 342.831 259.04 337.711 259.04C334.431 259.04 332.511 260.56 331.311 262.12H331.231V259.6H328.031V287.08H331.231V277.36H331.311ZM337.391 261.84C341.591 261.84 343.551 265.8 343.551 269.8C343.551 273.8 341.591 277.76 337.391 277.76C333.591 277.76 331.231 274.6 331.231 269.8C331.231 265 333.591 261.84 337.391 261.84ZM374.26 262.24C373.06 260.48 371.14 259.04 367.86 259.04C362.74 259.04 358.66 263.08 358.66 269.8C358.66 276.52 362.74 280.56 367.86 280.56C371.14 280.56 373.06 279.04 374.26 277.48H374.34V280H377.54V251.4H374.34V262.24H374.26ZM368.18 277.76C363.98 277.76 362.02 273.8 362.02 269.8C362.02 265.8 363.98 261.84 368.18 261.84C371.98 261.84 374.34 265 374.34 269.8C374.34 274.6 371.98 277.76 368.18 277.76ZM387.717 280.56C391.117 280.56 393.437 279.2 394.757 277H394.837C395.037 279.52 396.117 280.2 397.877 280.2C398.437 280.2 398.917 280.12 399.437 280V277.76C399.197 277.8 399.077 277.8 398.957 277.8C398.157 277.8 397.917 277 397.917 275.4V265.6C397.917 260.6 394.477 259 390.677 259C384.677 259 382.197 262 381.997 265.92H385.357C385.557 262.96 386.677 261.8 390.557 261.8C393.917 261.8 394.797 263.2 394.797 264.8C394.797 266.8 393.197 267.2 389.717 267.84C384.437 268.84 380.997 270.08 380.997 274.76C380.997 278.2 383.597 280.56 387.717 280.56ZM388.037 277.76C385.397 277.76 384.357 276.6 384.357 274.6C384.357 272.24 386.037 271.32 389.997 270.48C392.197 270.04 394.197 269.52 394.797 268.88V272.12C394.797 276.04 391.877 277.76 388.037 277.76ZM400.354 259.6V262.4H403.354V274.52C403.354 279.16 405.434 280.2 408.434 280.2C409.154 280.2 409.634 280.16 410.554 280V277.28C409.874 277.36 409.554 277.4 408.874 277.4C407.074 277.4 406.554 276.84 406.554 274.68V262.4H410.554V259.6H406.554V252.8H403.354V259.6H400.354ZM419.344 280.56C422.744 280.56 425.064 279.2 426.384 277H426.464C426.664 279.52 427.744 280.2 429.504 280.2C430.064 280.2 430.544 280.12 431.064 280V277.76C430.824 277.8 430.704 277.8 430.584 277.8C429.784 277.8 429.544 277 429.544 275.4V265.6C429.544 260.6 426.104 259 422.304 259C416.304 259 413.824 262 413.624 265.92H416.984C417.184 262.96 418.304 261.8 422.184 261.8C425.544 261.8 426.424 263.2 426.424 264.8C426.424 266.8 424.824 267.2 421.344 267.84C416.064 268.84 412.624 270.08 412.624 274.76C412.624 278.2 415.224 280.56 419.344 280.56ZM419.664 277.76C417.024 277.76 415.984 276.6 415.984 274.6C415.984 272.24 417.664 271.32 421.624 270.48C423.824 270.04 425.824 269.52 426.424 268.88V272.12C426.424 276.04 423.504 277.76 419.664 277.76ZM446.889 277.36C448.089 279.12 450.009 280.56 453.289 280.56C458.409 280.56 462.489 276.52 462.489 269.8C462.489 263.08 458.409 259.04 453.289 259.04C450.009 259.04 448.089 260.56 446.889 262.12H446.809V259.6H443.609V287.08H446.809V277.36H446.889ZM452.969 261.84C457.169 261.84 459.129 265.8 459.129 269.8C459.129 273.8 457.169 277.76 452.969 277.76C449.169 277.76 446.809 274.6 446.809 269.8C446.809 265 449.169 261.84 452.969 261.84ZM465.466 253.8C465.466 254.84 466.186 255.76 467.466 255.76C468.746 255.76 469.466 254.84 469.466 253.8C469.466 252.72 468.746 251.8 467.466 251.8C466.186 251.8 465.466 252.72 465.466 253.8ZM465.866 280H469.066V259.6H465.866V280ZM476.836 277.36C478.036 279.12 479.956 280.56 483.236 280.56C488.356 280.56 492.436 276.52 492.436 269.8C492.436 263.08 488.356 259.04 483.236 259.04C479.956 259.04 478.036 260.56 476.836 262.12H476.756V259.6H473.556V287.08H476.756V277.36H476.836ZM482.916 261.84C487.116 261.84 489.076 265.8 489.076 269.8C489.076 273.8 487.116 277.76 482.916 277.76C479.116 277.76 476.756 274.6 476.756 269.8C476.756 265 479.116 261.84 482.916 261.84ZM504.893 280.6C510.133 280.6 513.013 277.52 514.053 273.72H510.813C510.453 275.16 508.933 277.84 504.933 277.84C500.453 277.84 498.413 274.24 498.333 270.64H514.293C514.333 270.32 514.333 269.64 514.333 269.04C514.333 263.08 510.853 259 504.893 259C498.853 259 494.973 263.24 494.973 269.76C494.973 275.96 498.453 280.6 504.893 280.6ZM504.733 261.76C508.533 261.76 510.933 264.48 510.933 267.84H498.333C498.533 264.28 501.213 261.76 504.733 261.76ZM517.8 251.4V280H521V251.4H517.8ZM525.126 253.8C525.126 254.84 525.846 255.76 527.126 255.76C528.406 255.76 529.126 254.84 529.126 253.8C529.126 252.72 528.406 251.8 527.126 251.8C525.846 251.8 525.126 252.72 525.126 253.8ZM525.526 280H528.726V259.6H525.526V280ZM533.216 280H536.416V267.28C536.416 264.12 538.816 261.84 542.416 261.84C545.616 261.84 546.856 263.92 546.856 266.56V280H550.056V265.76C550.056 261.08 546.936 259.04 543.216 259.04C539.736 259.04 537.576 260.6 536.496 262.04H536.416V259.6H533.216V280ZM563.264 280.6C568.504 280.6 571.384 277.52 572.424 273.72H569.184C568.824 275.16 567.304 277.84 563.304 277.84C558.824 277.84 556.784 274.24 556.704 270.64H572.664C572.704 270.32 572.704 269.64 572.704 269.04C572.704 263.08 569.224 259 563.264 259C557.224 259 553.344 263.24 553.344 269.76C553.344 275.96 556.824 280.6 563.264 280.6ZM563.104 261.76C566.904 261.76 569.304 264.48 569.304 267.84H556.704C556.904 264.28 559.584 261.76 563.104 261.76ZM584.181 267.88C581.341 267.2 578.741 267 578.741 264.64C578.741 263 579.981 261.84 582.861 261.84C586.661 261.84 587.461 263.88 587.781 265.44H591.141C590.821 261.92 588.101 259.04 582.821 259.04C578.141 259.04 575.381 261.32 575.381 264.76C575.381 269 579.581 270 583.141 270.76C585.661 271.32 588.581 271.6 588.581 274.4C588.581 275.96 587.661 277.76 583.741 277.76C579.541 277.76 578.101 275.68 577.941 273.2H574.581C574.701 277.4 577.861 280.56 583.741 280.56C588.941 280.56 591.941 278.12 591.941 274.28C591.941 269.76 587.821 268.72 584.181 267.88ZM602.681 259.6L609.161 280H612.641L617.161 263.44H617.241L621.761 280H625.241L631.761 259.6H628.281L623.561 276.4H623.481L619.001 259.6H615.521L611.041 276.4H610.961L606.281 259.6H602.681ZM633.991 253.8C633.991 254.84 634.711 255.76 635.991 255.76C637.271 255.76 637.991 254.84 637.991 253.8C637.991 252.72 637.271 251.8 635.991 251.8C634.711 251.8 633.991 252.72 633.991 253.8ZM634.391 280H637.591V259.6H634.391V280ZM640.486 259.6V262.4H643.486V274.52C643.486 279.16 645.566 280.2 648.566 280.2C649.286 280.2 649.766 280.16 650.686 280V277.28C650.006 277.36 649.686 277.4 649.006 277.4C647.206 277.4 646.686 276.84 646.686 274.68V262.4H650.686V259.6H646.686V252.8H643.486V259.6H640.486ZM667.981 266.56V280H671.181V265.76C671.181 261.08 668.061 259.04 664.341 259.04C660.861 259.04 658.701 260.6 657.621 262.04H657.541V251.4H654.341V280H657.541V267.28C657.541 264.12 659.941 261.84 663.541 261.84C666.741 261.84 667.981 263.92 667.981 266.56ZM693.6 280.6C698.84 280.6 701.72 277.52 702.76 273.72H699.52C699.16 275.16 697.64 277.84 693.64 277.84C689.16 277.84 687.12 274.24 687.04 270.64H703C703.04 270.32 703.04 269.64 703.04 269.04C703.04 263.08 699.56 259 693.6 259C687.56 259 683.68 263.24 683.68 269.76C683.68 275.96 687.16 280.6 693.6 280.6ZM693.44 261.76C697.24 261.76 699.64 264.48 699.64 267.84H687.04C687.24 264.28 689.92 261.76 693.44 261.76ZM703.746 259.6L710.986 269.56L703.106 280H706.906L712.826 271.76H712.906L718.946 280H722.786L714.826 269.56L722.026 259.6H718.226L712.986 267.32H712.906L707.586 259.6H703.746ZM723.577 259.6V262.4H726.577V274.52C726.577 279.16 728.657 280.2 731.657 280.2C732.377 280.2 732.857 280.16 733.777 280V277.28C733.097 277.36 732.777 277.4 732.097 277.4C730.297 277.4 729.777 276.84 729.777 274.68V262.4H733.777V259.6H729.777V252.8H726.577V259.6H723.577ZM737.236 259.6V280H740.436V269.12C740.436 265.2 742.956 262.24 746.716 262.24C747.196 262.24 747.556 262.28 748.036 262.36V259.16C747.476 259.08 746.916 259.04 746.156 259.04C743.236 259.04 741.596 260.96 740.516 263.64H740.436V259.6H737.236ZM755.412 280.56C758.812 280.56 761.132 279.2 762.452 277H762.532C762.732 279.52 763.812 280.2 765.572 280.2C766.132 280.2 766.612 280.12 767.132 280V277.76C766.892 277.8 766.772 277.8 766.652 277.8C765.852 277.8 765.612 277 765.612 275.4V265.6C765.612 260.6 762.172 259 758.372 259C752.372 259 749.892 262 749.692 265.92H753.052C753.252 262.96 754.372 261.8 758.252 261.8C761.612 261.8 762.492 263.2 762.492 264.8C762.492 266.8 760.892 267.2 757.412 267.84C752.132 268.84 748.692 270.08 748.692 274.76C748.692 278.2 751.292 280.56 755.412 280.56ZM755.732 277.76C753.092 277.76 752.052 276.6 752.052 274.6C752.052 272.24 753.732 271.32 757.692 270.48C759.892 270.04 761.892 269.52 762.492 268.88V272.12C762.492 276.04 759.572 277.76 755.732 277.76ZM779.35 280.6C785.55 280.6 789.31 276.16 789.31 269.8C789.31 263.44 785.55 259 779.35 259C773.11 259 769.35 263.44 769.35 269.8C769.35 276.16 773.11 280.6 779.35 280.6ZM779.35 277.8C774.75 277.8 772.71 274.16 772.71 269.8C772.71 265.44 774.75 261.8 779.35 261.8C783.91 261.8 785.95 265.44 785.95 269.8C785.95 274.16 783.91 277.8 779.35 277.8ZM792.802 259.6V280H796.002V269.12C796.002 265.2 798.522 262.24 802.282 262.24C802.762 262.24 803.122 262.28 803.602 262.36V259.16C803.042 259.08 802.482 259.04 801.722 259.04C798.802 259.04 797.162 260.96 796.082 263.64H796.002V259.6H792.802ZM820.17 262.24C818.97 260.48 817.05 259.04 813.77 259.04C808.65 259.04 804.57 263.08 804.57 269.8C804.57 276.52 808.65 280.56 813.77 280.56C817.05 280.56 818.97 279.04 820.17 277.48H820.25V280H823.45V251.4H820.25V262.24H820.17ZM814.09 277.76C809.89 277.76 807.93 273.8 807.93 269.8C807.93 265.8 809.89 261.84 814.09 261.84C817.89 261.84 820.25 265 820.25 269.8C820.25 274.6 817.89 277.76 814.09 277.76ZM827.543 253.8C827.543 254.84 828.263 255.76 829.543 255.76C830.823 255.76 831.543 254.84 831.543 253.8C831.543 252.72 830.823 251.8 829.543 251.8C828.263 251.8 827.543 252.72 827.543 253.8ZM827.943 280H831.143V259.6H827.943V280ZM835.633 280H838.833V267.28C838.833 264.12 841.233 261.84 844.833 261.84C848.033 261.84 849.273 263.92 849.273 266.56V280H852.473V265.76C852.473 261.08 849.353 259.04 845.633 259.04C842.153 259.04 839.993 260.6 838.913 262.04H838.833V259.6H835.633V280ZM862.481 280.56C865.881 280.56 868.201 279.2 869.521 277H869.601C869.801 279.52 870.881 280.2 872.641 280.2C873.201 280.2 873.681 280.12 874.201 280V277.76C873.961 277.8 873.841 277.8 873.721 277.8C872.921 277.8 872.681 277 872.681 275.4V265.6C872.681 260.6 869.241 259 865.441 259C859.441 259 856.961 262 856.761 265.92H860.121C860.321 262.96 861.441 261.8 865.321 261.8C868.681 261.8 869.561 263.2 869.561 264.8C869.561 266.8 867.961 267.2 864.481 267.84C859.201 268.84 855.761 270.08 855.761 274.76C855.761 278.2 858.361 280.56 862.481 280.56ZM862.801 277.76C860.161 277.76 859.121 276.6 859.121 274.6C859.121 272.24 860.801 271.32 864.761 270.48C866.961 270.04 868.961 269.52 869.561 268.88V272.12C869.561 276.04 866.641 277.76 862.801 277.76ZM877.533 259.6V280H880.733V269.12C880.733 265.2 883.253 262.24 887.013 262.24C887.493 262.24 887.853 262.28 888.333 262.36V259.16C887.773 259.08 887.213 259.04 886.453 259.04C883.533 259.04 881.893 260.96 880.813 263.64H880.733V259.6H877.533ZM897.636 279.8C896.756 283.32 894.916 284.36 893.236 284.36C892.636 284.36 892.316 284.32 891.636 284.24V286.96C892.556 287.12 893.036 287.16 893.756 287.16C896.516 287.16 898.476 285.76 900.516 280.6L908.756 259.6H905.316L899.316 275.84H899.236L892.956 259.6H889.356L897.636 279.8ZM918.444 259.6L925.764 280H929.404L936.724 259.6H933.284L927.684 276.8H927.644L921.964 259.6H918.444ZM947.366 280.6C952.606 280.6 955.486 277.52 956.526 273.72H953.286C952.926 275.16 951.406 277.84 947.406 277.84C942.926 277.84 940.886 274.24 940.806 270.64H956.766C956.806 270.32 956.806 269.64 956.806 269.04C956.806 263.08 953.326 259 947.366 259C941.326 259 937.446 263.24 937.446 269.76C937.446 275.96 940.926 280.6 947.366 280.6ZM947.206 261.76C951.006 261.76 953.406 264.48 953.406 267.84H940.806C941.006 264.28 943.686 261.76 947.206 261.76ZM960.273 251.4V280H963.473V251.4H960.273ZM976.963 280.6C983.163 280.6 986.923 276.16 986.923 269.8C986.923 263.44 983.163 259 976.963 259C970.723 259 966.963 263.44 966.963 269.8C966.963 276.16 970.723 280.6 976.963 280.6ZM976.963 277.8C972.363 277.8 970.323 274.16 970.323 269.8C970.323 265.44 972.363 261.8 976.963 261.8C981.523 261.8 983.563 265.44 983.563 269.8C983.563 274.16 981.523 277.8 976.963 277.8ZM1004.98 266.96H1008.34C1007.86 262.4 1004.42 259.04 999.376 259.04C993.416 259.04 989.496 263.4 989.496 269.8C989.496 276.2 993.416 280.56 999.376 280.56C1004.42 280.56 1008.06 277.12 1008.34 272.48H1004.98C1004.82 274.92 1003.5 277.76 999.376 277.76C994.536 277.76 992.856 273.64 992.856 269.8C992.856 265.96 994.536 261.84 999.376 261.84C1003.46 261.84 1004.82 264.72 1004.98 266.96ZM1011.22 253.8C1011.22 254.84 1011.94 255.76 1013.22 255.76C1014.5 255.76 1015.22 254.84 1015.22 253.8C1015.22 252.72 1014.5 251.8 1013.22 251.8C1011.94 251.8 1011.22 252.72 1011.22 253.8ZM1011.62 280H1014.82V259.6H1011.62V280ZM1017.71 259.6V262.4H1020.71V274.52C1020.71 279.16 1022.79 280.2 1025.79 280.2C1026.51 280.2 1026.99 280.16 1027.91 280V277.28C1027.23 277.36 1026.91 277.4 1026.23 277.4C1024.43 277.4 1023.91 276.84 1023.91 274.68V262.4H1027.91V259.6H1023.91V252.8H1020.71V259.6H1017.71ZM1037.69 279.8C1036.81 283.32 1034.97 284.36 1033.29 284.36C1032.69 284.36 1032.37 284.32 1031.69 284.24V286.96C1032.61 287.12 1033.09 287.16 1033.81 287.16C1036.57 287.16 1038.53 285.76 1040.57 280.6L1048.81 259.6H1045.37L1039.37 275.84H1039.29L1033.01 259.6H1029.41L1037.69 279.8Z" fill="#3A3631"/>
</svg>
