<svg width="1194" height="255" viewBox="0 0 1194 255" fill="none" xmlns="http://www.w3.org/2000/svg">
<path d="M435.64 4.83997H458V204.84H435.64V187.2H435.08C426.69 198.11 413.27 208.74 390.33 208.74C354.53 208.74 326 180.49 326 133.5C326 86.5099 354.53 58.26 390.33 58.26C413.27 58.26 426.69 68.33 435.08 80.64H435.64V4.83997ZM435.64 133.5C435.64 99.9399 419.14 77.84 392.57 77.84C363.2 77.84 348.37 105.53 348.37 133.5C348.37 161.47 363.2 189.16 392.57 189.16C419.14 189.16 435.64 167.06 435.64 133.5Z" fill="#F5F4F2"/>
<path d="M541.51 77.84C514.38 77.84 505.42 85.67 504.03 106.37H481.65C483.05 78.96 500.11 58.26 541.51 58.26C568.64 58.26 592.97 68.89 592.97 103.26V172.63C592.97 183.82 594.97 189.97 609.19 188.29V203.96C604.987 205.516 600.531 206.272 596.05 206.19C582.62 206.19 574.51 202.56 570.6 186.89H570C561.05 200.32 545.11 208.71 521.62 208.71C492.81 208.71 474.62 192.21 474.62 168.15C474.62 135.71 498.67 127.32 535.62 120.33C559.68 115.85 570.62 112.77 570.62 98.51C570.6 87.35 564.44 77.84 541.51 77.84ZM570.6 149.72V125.95C566.4 130.14 552.69 134.06 537.6 137.14C509.9 143.01 497 150 497 167.06C497 181.06 505.39 189.16 523.86 189.16C550.46 189.16 570.6 177.13 570.6 149.72Z" fill="#F5F4F2"/>
<path d="M722 62.18H744.38V196.99C744.38 234.99 720.33 254.33 681.17 254.33C642.01 254.33 618.79 233.63 616.56 209.33H639C641.8 223.87 653.55 234.78 680.12 234.78C706.69 234.78 722.07 223.31 722.07 196.78V175.18H721.51C713.12 187.48 699.7 197.55 676.2 197.55C640.96 197.55 612.43 174.9 612.43 127.91C612.43 80.92 640.96 58.26 676.2 58.26C699.7 58.26 713.12 68.89 721.51 79.8H722.07L722 62.18ZM722 127.91C722 94.34 705.5 77.84 678.93 77.84C649.56 77.84 634.74 99.94 634.74 127.91C634.74 155.88 649.56 177.97 678.93 177.97C705.54 177.97 722 161.47 722 127.91Z" fill="#F5F4F2"/>
<path d="M881.89 165.67C881.89 191.67 858.12 208.74 825.67 208.74C782.04 208.74 761.9 188.04 760.5 157.28H782.88C784.27 173.22 789.88 189.16 825.67 189.16C850 189.16 859.51 176.57 859.51 167.06C859.51 146.37 840.77 145.25 820.36 140.21C798.54 134.9 766.09 132.38 766.09 98.82C766.09 76.44 785.95 58.26 819.52 58.26C855.04 58.26 874.06 78.4 876.29 103.01H853.92C851.68 92.11 846.37 77.84 819.52 77.84C799.38 77.84 788.52 85.95 788.52 97.14C788.52 113.92 807.82 115.32 827.68 120.08C853.08 126.23 881.89 130.42 881.89 165.67Z" fill="#F5F4F2"/>
<path d="M957.52 81.76H929.52V167.62C929.52 183.85 938.52 186.62 957.52 185.25V204.84C952.002 205.995 946.377 206.558 940.74 206.52C921.74 206.52 907.17 198.97 907.17 169.88V81.78H886.17V62.18H907.17V14.63H929.55V62.18H957.55L957.52 81.76Z" fill="#F5F4F2"/>
<path d="M1076.44 160.91H1098.82C1091.54 187.48 1071.13 208.74 1035.61 208.74C992.25 208.74 965.96 178.25 965.96 133.5C965.96 85.95 992.81 58.26 1034.49 58.26C1079.24 58.26 1101.06 88.75 1101.06 139.37H988.34C988.34 165.11 1003.72 189.16 1034.77 189.16C1063.3 189.16 1073.92 170.7 1076.44 160.91ZM988.34 119.84H1078.68C1078.68 96.9 1061.34 77.84 1034.49 77.84C1007.64 77.84 988.34 96.84 988.34 119.84Z" fill="#F5F4F2"/>
<path d="M1193.35 59.0999V81.4799H1192.79C1161.79 76.4799 1140.21 98.2599 1140.21 128.75V204.84H1117.83V62.1799H1140.21V90.43H1140.77C1148.32 71.69 1159.77 58.2599 1180.21 58.2599C1184.6 58.2142 1189 58.4949 1193.35 59.0999Z" fill="#F5F4F2"/>
<path d="M85.2867 244.06C85.2909 245.476 85.5868 246.875 86.1559 248.172C86.7251 249.468 87.5552 250.633 88.5946 251.594C89.6339 252.555 90.8601 253.291 92.1966 253.757C93.5331 254.222 94.9512 254.407 96.3624 254.3C150.001 250.46 200.661 212.5 216.835 153.21C217.684 149.8 220.243 148.09 223.652 148.09C225.399 148.16 227.049 148.917 228.243 150.195C229.436 151.474 230.078 153.171 230.03 154.92C230.03 168.14 213.036 202.69 188.736 222.74C187.497 223.782 186.51 225.09 185.847 226.567C185.184 228.044 184.863 229.652 184.907 231.27C184.932 232.586 185.216 233.884 185.743 235.09C186.271 236.296 187.03 237.385 187.98 238.297C188.929 239.208 190.048 239.923 191.274 240.401C192.5 240.878 193.808 241.109 195.123 241.08C197.253 241.08 200.661 239.8 204.92 235.96C221.913 220.6 254.3 177.52 254.3 130.17C254.3 60.75 200.631 0.929932 125.731 0.929932C58.8972 0.929932 1 55.5299 1 118.66C1 160.46 34.2069 192.02 78.0496 192.02C111.686 192.02 142.764 168.14 151.281 135.29C152.13 131.88 154.679 130.17 158.088 130.17C159.836 130.24 161.487 130.996 162.682 132.275C163.877 133.553 164.522 135.25 164.475 137C164.475 151.93 136.377 204 79.3291 204C65.7045 204 48.6812 200.16 36.7559 193.33C35.1595 192.556 33.4205 192.12 31.6479 192.05C30.2906 191.998 28.9373 192.227 27.6729 192.724C26.4085 193.22 25.2605 193.973 24.301 194.934C23.3415 195.896 22.5913 197.046 22.0975 198.312C21.6038 199.578 21.3772 200.932 21.4319 202.29C21.487 204.029 21.9851 205.726 22.879 207.218C23.7729 208.711 25.033 209.951 26.5399 210.82C42.2937 219.82 61.0263 224.47 80.1787 224.47C127.86 224.47 171.283 192.05 184.058 144.28C184.907 140.87 187.466 139.16 190.865 139.16C192.613 139.23 194.264 139.986 195.459 141.264C196.654 142.543 197.299 144.24 197.253 145.99C197.253 165.61 162.346 228.74 95.0829 233.86C92.4804 234.053 90.0409 235.201 88.2329 237.084C86.4249 238.966 85.3757 241.451 85.2867 244.06Z" fill="#DEDEFC"/>
<path d="M151.94 80.6999C161.121 80.6314 170.133 83.1697 177.93 88.0199C178.718 83.7059 179.153 79.3347 179.23 74.9499C179.23 54.6999 163.796 36.5599 145.003 36.5599C130.389 36.5599 121.253 48.6699 121.253 63.6299C121.183 71.7115 124.021 79.5486 129.249 85.7099C136.332 82.3314 144.094 80.6177 151.94 80.6999Z" fill="white"/>
<path d="M195.973 154.06C198.582 145.14 199.732 138.95 199.732 134.93C199.652 133.194 198.908 131.555 197.654 130.352C196.4 129.15 194.731 128.476 192.994 128.47C191.376 128.5 189.814 129.071 188.557 130.091C187.3 131.111 186.42 132.522 186.057 134.1C185.347 137.03 183.828 144.97 182.328 150.01C182.948 148.123 183.515 146.207 184.028 144.26C184.877 140.84 187.436 139.14 190.835 139.14C192.582 139.208 194.233 139.962 195.428 141.238C196.624 142.515 197.269 144.211 197.223 145.96C197.142 148.709 196.702 151.436 195.913 154.07L195.973 154.06Z" fill="#C9C6FA"/>
<path d="M232.159 144.74C232.077 143.007 231.334 141.37 230.082 140.169C228.831 138.967 227.166 138.291 225.431 138.28C223.815 138.312 222.255 138.884 221 139.904C219.745 140.924 218.867 142.334 218.504 143.91C217.784 146.91 216.235 154.97 214.716 160H214.786C215.525 157.76 216.215 155.49 216.785 153.18C217.634 149.76 220.193 148.06 223.602 148.06C225.349 148.128 226.998 148.882 228.192 150.159C229.386 151.436 230.028 153.132 229.98 154.88C229.931 157.003 229.639 159.113 229.11 161.17C231.229 153.73 232.159 148.35 232.159 144.74Z" fill="#C9C6FA"/>
<path d="M151.94 80.6999C156.503 80.6907 161.046 81.2996 165.445 82.5099C167.755 79.359 168.909 75.5083 168.713 71.6059C168.518 67.7035 166.984 63.9876 164.371 61.0835C161.758 58.1795 158.225 56.2646 154.366 55.6611C150.507 55.0576 146.558 55.8023 143.184 57.77L150.181 69.29L137.076 63.62C135.301 66.4853 134.411 69.8112 134.518 73.1805C134.625 76.5499 135.723 79.8127 137.676 82.5599C142.327 81.3061 147.124 80.6805 151.94 80.6999Z" fill="#163B36"/>
<path d="M50.9802 154.84C56.5009 154.84 60.9763 150.363 60.9763 144.84C60.9763 139.317 56.5009 134.84 50.9802 134.84C45.4596 134.84 40.9842 139.317 40.9842 144.84C40.9842 150.363 45.4596 154.84 50.9802 154.84Z" fill="#C9C6FA"/>
<path d="M50.9802 114.84C56.5009 114.84 60.9763 110.363 60.9763 104.84C60.9763 99.317 56.5009 94.8398 50.9802 94.8398C45.4596 94.8398 40.9842 99.317 40.9842 104.84C40.9842 110.363 45.4596 114.84 50.9802 114.84Z" fill="#C9C6FA"/>
<path d="M30.9881 134.84C36.5088 134.84 40.9842 130.363 40.9842 124.84C40.9842 119.317 36.5088 114.84 30.9881 114.84C25.4675 114.84 20.9921 119.317 20.9921 124.84C20.9921 130.363 25.4675 134.84 30.9881 134.84Z" fill="#C9C6FA"/>
<path d="M75.9704 192H77.9696C111.606 192 142.684 168.12 151.201 135.27C152.05 131.86 154.599 130.15 158.008 130.15C159.756 130.22 161.407 130.976 162.602 132.255C163.797 133.533 164.442 135.23 164.395 136.98C164.243 140.47 163.454 143.904 162.066 147.11C162.308 146.738 162.518 146.346 162.696 145.94C165.225 140.157 166.532 133.913 166.535 127.6C166.535 117.79 159.717 111.39 149.931 111.39C132.868 111.39 129.449 126.29 122.252 142.22C114.785 158.76 101.071 176.65 66.4842 176.65C30.5483 176.65 -6.37709 151.48 2.62935 100.3C2.73931 99.66 2.82926 99.0899 2.89924 98.5599C1.57955 105.172 0.909953 111.897 0.900024 118.64C0.999985 159.84 33.1773 191.04 75.9704 192Z" fill="#C9C6FA"/>
</svg>
