<svg width="1194" height="255" viewBox="0 0 1194 255" fill="none" xmlns="http://www.w3.org/2000/svg">
<path d="M435.64 4.58078H458V204.581H435.64V186.941H435.08C426.69 197.851 413.27 208.481 390.33 208.481C354.53 208.481 326 180.231 326 133.241C326 86.2508 354.53 58.0008 390.33 58.0008C413.27 58.0008 426.69 68.0708 435.08 80.3808H435.64V4.58078ZM435.64 133.241C435.64 99.6808 419.14 77.5808 392.57 77.5808C363.2 77.5808 348.37 105.271 348.37 133.241C348.37 161.211 363.2 188.901 392.57 188.901C419.14 188.901 435.64 166.801 435.64 133.241Z" fill="#163B36"/>
<path d="M541.51 77.5808C514.38 77.5808 505.42 85.4108 504.03 106.111H481.65C483.05 78.7008 500.11 58.0008 541.51 58.0008C568.64 58.0008 592.97 68.6308 592.97 103.001V172.371C592.97 183.561 594.97 189.711 609.19 188.031V203.701C604.987 205.257 600.531 206.013 596.05 205.931C582.62 205.931 574.51 202.301 570.6 186.631H570C561.05 200.061 545.11 208.451 521.62 208.451C492.81 208.451 474.62 191.951 474.62 167.891C474.62 135.451 498.67 127.061 535.62 120.071C559.68 115.591 570.62 112.511 570.62 98.2508C570.6 87.0908 564.44 77.5808 541.51 77.5808ZM570.6 149.461V125.691C566.4 129.881 552.69 133.801 537.6 136.881C509.9 142.751 497 149.741 497 166.801C497 180.801 505.39 188.901 523.86 188.901C550.46 188.901 570.6 176.871 570.6 149.461Z" fill="#163B36"/>
<path d="M722 61.9208H744.38V196.731C744.38 234.731 720.33 254.071 681.17 254.071C642.01 254.071 618.79 233.371 616.56 209.071H639C641.8 223.611 653.55 234.521 680.12 234.521C706.69 234.521 722.07 223.051 722.07 196.521V174.921H721.51C713.12 187.221 699.7 197.291 676.2 197.291C640.96 197.291 612.43 174.641 612.43 127.651C612.43 80.6608 640.96 58.0008 676.2 58.0008C699.7 58.0008 713.12 68.6308 721.51 79.5408H722.07L722 61.9208ZM722 127.651C722 94.0808 705.5 77.5808 678.93 77.5808C649.56 77.5808 634.74 99.6808 634.74 127.651C634.74 155.621 649.56 177.711 678.93 177.711C705.54 177.711 722 161.211 722 127.651V127.651Z" fill="#163B36"/>
<path d="M881.89 165.411C881.89 191.411 858.12 208.481 825.67 208.481C782.04 208.481 761.9 187.781 760.5 157.021H782.88C784.27 172.961 789.88 188.901 825.67 188.901C850 188.901 859.51 176.311 859.51 166.801C859.51 146.111 840.77 144.991 820.36 139.951C798.54 134.641 766.09 132.121 766.09 98.5608C766.09 76.1808 785.95 58.0008 819.52 58.0008C855.04 58.0008 874.06 78.1408 876.29 102.751H853.92C851.68 91.8508 846.37 77.5808 819.52 77.5808C799.38 77.5808 788.52 85.6908 788.52 96.8808C788.52 113.661 807.82 115.061 827.68 119.821C853.08 125.971 881.89 130.161 881.89 165.411Z" fill="#163B36"/>
<path d="M957.52 81.5008H929.52V167.361C929.52 183.591 938.52 186.361 957.52 184.991V204.581C952.002 205.735 946.377 206.299 940.74 206.261C921.74 206.261 907.17 198.711 907.17 169.621V81.5208H886.17V61.9208H907.17V14.3708H929.55V61.9208H957.55L957.52 81.5008Z" fill="#163B36"/>
<path d="M1076.44 160.651H1098.82C1091.54 187.221 1071.13 208.481 1035.61 208.481C992.25 208.481 965.96 177.991 965.96 133.241C965.96 85.6908 992.81 58.0008 1034.49 58.0008C1079.24 58.0008 1101.06 88.4908 1101.06 139.111H988.34C988.34 164.851 1003.72 188.901 1034.77 188.901C1063.3 188.901 1073.92 170.441 1076.44 160.651ZM988.34 119.581H1078.68C1078.68 96.6408 1061.34 77.5808 1034.49 77.5808C1007.64 77.5808 988.34 96.5808 988.34 119.581Z" fill="#163B36"/>
<path d="M1193.35 58.8408V81.2208H1192.79C1161.79 76.2208 1140.21 98.0007 1140.21 128.491V204.581H1117.83V61.9208H1140.21V90.1708H1140.77C1148.32 71.4308 1159.77 58.0008 1180.21 58.0008C1184.6 57.955 1189 58.2358 1193.35 58.8408V58.8408Z" fill="#163B36"/>
<path d="M85.2867 243.801C85.2909 245.217 85.5868 246.616 86.1559 247.913C86.7251 249.209 87.5552 250.374 88.5946 251.335C89.6339 252.296 90.8601 253.032 92.1966 253.497C93.5331 253.963 94.9512 254.148 96.3624 254.041C150.001 250.201 200.661 212.241 216.835 152.951C217.684 149.541 220.243 147.831 223.652 147.831C225.399 147.901 227.049 148.657 228.243 149.936C229.436 151.214 230.078 152.912 230.03 154.661C230.03 167.881 213.036 202.431 188.736 222.481C187.497 223.523 186.51 224.831 185.847 226.308C185.184 227.785 184.863 229.392 184.907 231.011C184.932 232.327 185.216 233.625 185.743 234.831C186.271 236.036 187.03 237.126 187.98 238.038C188.929 238.949 190.048 239.664 191.274 240.142C192.5 240.619 193.808 240.85 195.123 240.821C197.253 240.821 200.661 239.541 204.92 235.701C221.913 220.341 254.3 177.261 254.3 129.911C254.3 60.4908 200.631 0.670776 125.731 0.670776C58.8972 0.670776 1 55.2708 1 118.401C1 160.201 34.2069 191.761 78.0496 191.761C111.686 191.761 142.764 167.881 151.281 135.031C152.13 131.621 154.679 129.911 158.088 129.911C159.836 129.981 161.487 130.737 162.682 132.015C163.877 133.294 164.522 134.991 164.475 136.741C164.475 151.671 136.377 203.741 79.3291 203.741C65.7045 203.741 48.6812 199.901 36.7559 193.071C35.1595 192.297 33.4205 191.861 31.6479 191.791C30.2906 191.739 28.9373 191.968 27.6729 192.464C26.4085 192.961 25.2605 193.714 24.301 194.675C23.3415 195.637 22.5913 196.787 22.0975 198.053C21.6038 199.319 21.3772 200.673 21.4319 202.031C21.487 203.77 21.9851 205.466 22.879 206.959C23.7729 208.452 25.033 209.692 26.5399 210.561C42.2937 219.561 61.0263 224.211 80.1787 224.211C127.86 224.211 171.283 191.791 184.058 144.021C184.907 140.611 187.466 138.901 190.865 138.901C192.613 138.971 194.264 139.727 195.459 141.005C196.654 142.284 197.299 143.981 197.253 145.731C197.253 165.351 162.346 228.481 95.0829 233.601C92.4804 233.794 90.0409 234.942 88.2329 236.825C86.4249 238.707 85.3757 241.192 85.2867 243.801V243.801Z" fill="#4F43DD"/>
<path d="M151.94 80.4408C161.121 80.3723 170.133 82.9105 177.93 87.7608C178.718 83.4467 179.153 79.0755 179.23 74.6908C179.23 54.4408 163.796 36.3008 145.003 36.3008C130.389 36.3008 121.253 48.4108 121.253 63.3708C121.183 71.4524 124.021 79.2894 129.249 85.4508C136.332 82.0722 144.094 80.3585 151.94 80.4408V80.4408Z" fill="white"/>
<path d="M195.973 153.801C198.582 144.881 199.732 138.691 199.732 134.671C199.652 132.935 198.908 131.296 197.654 130.093C196.4 128.891 194.731 128.217 192.994 128.211C191.376 128.241 189.814 128.811 188.557 129.831C187.3 130.852 186.42 132.263 186.057 133.841C185.347 136.771 183.828 144.711 182.328 149.751C182.948 147.864 183.515 145.947 184.028 144.001C184.877 140.581 187.436 138.881 190.835 138.881C192.582 138.949 194.233 139.702 195.428 140.979C196.624 142.256 197.269 143.952 197.223 145.701C197.142 148.45 196.702 151.176 195.913 153.811L195.973 153.801Z" fill="#352D8E"/>
<path d="M232.159 144.481C232.077 142.747 231.334 141.111 230.082 139.909C228.831 138.708 227.166 138.032 225.431 138.021C223.815 138.053 222.255 138.625 221 139.645C219.745 140.664 218.867 142.074 218.504 143.651C217.784 146.651 216.235 154.711 214.716 159.741H214.786C215.525 157.501 216.215 155.231 216.785 152.921C217.634 149.501 220.193 147.801 223.602 147.801C225.349 147.869 226.998 148.623 228.192 149.9C229.386 151.176 230.028 152.873 229.98 154.621C229.931 156.744 229.639 158.854 229.11 160.911C231.229 153.471 232.159 148.091 232.159 144.481Z" fill="#352D8E"/>
<path d="M151.94 80.4408C156.503 80.4315 161.046 81.0404 165.445 82.2508C167.755 79.0998 168.909 75.2492 168.713 71.3467C168.518 67.4443 166.984 63.7284 164.371 60.8243C161.758 57.9203 158.225 56.0054 154.366 55.4019C150.507 54.7984 146.558 55.5431 143.184 57.5108L150.181 69.0308L137.076 63.3608C135.301 66.2261 134.411 69.552 134.518 72.9214C134.625 76.2907 135.723 79.5535 137.676 82.3007C142.327 81.0469 147.124 80.4213 151.94 80.4408V80.4408Z" fill="#163B36"/>
<path d="M50.9802 154.581C56.5009 154.581 60.9763 150.104 60.9763 144.581C60.9763 139.058 56.5009 134.581 50.9802 134.581C45.4596 134.581 40.9842 139.058 40.9842 144.581C40.9842 150.104 45.4596 154.581 50.9802 154.581Z" fill="#352D8E"/>
<path d="M50.9802 114.581C56.5009 114.581 60.9763 110.104 60.9763 104.581C60.9763 99.0579 56.5009 94.5808 50.9802 94.5808C45.4596 94.5808 40.9842 99.0579 40.9842 104.581C40.9842 110.104 45.4596 114.581 50.9802 114.581Z" fill="#352D8E"/>
<path d="M30.9881 134.581C36.5088 134.581 40.9842 130.104 40.9842 124.581C40.9842 119.058 36.5088 114.581 30.9881 114.581C25.4675 114.581 20.9921 119.058 20.9921 124.581C20.9921 130.104 25.4675 134.581 30.9881 134.581Z" fill="#352D8E"/>
<path d="M75.9704 191.741H77.9696C111.606 191.741 142.684 167.861 151.201 135.011C152.05 131.601 154.599 129.891 158.008 129.891C159.756 129.961 161.407 130.717 162.602 131.995C163.797 133.273 164.442 134.971 164.395 136.721C164.243 140.211 163.454 143.644 162.066 146.851C162.308 146.478 162.518 146.087 162.696 145.681C165.225 139.897 166.532 133.653 166.535 127.341C166.535 117.531 159.717 111.131 149.931 111.131C132.868 111.131 129.449 126.031 122.252 141.961C114.785 158.501 101.071 176.391 66.4842 176.391C30.5483 176.391 -6.37709 151.221 2.62935 100.041C2.73931 99.4008 2.82926 98.8308 2.89924 98.3008C1.57955 104.913 0.909953 111.638 0.900024 118.381C0.999985 159.581 33.1773 190.781 75.9704 191.741Z" fill="#352D8E"/>
<path d="M435.64 4.58078H458V204.581H435.64V186.941H435.08C426.69 197.851 413.27 208.481 390.33 208.481C354.53 208.481 326 180.231 326 133.241C326 86.2508 354.53 58.0008 390.33 58.0008C413.27 58.0008 426.69 68.0708 435.08 80.3808H435.64V4.58078ZM435.64 133.241C435.64 99.6808 419.14 77.5808 392.57 77.5808C363.2 77.5808 348.37 105.271 348.37 133.241C348.37 161.211 363.2 188.901 392.57 188.901C419.14 188.901 435.64 166.801 435.64 133.241Z" fill="#163B36"/>
<path d="M541.51 77.5808C514.38 77.5808 505.42 85.4108 504.03 106.111H481.65C483.05 78.7008 500.11 58.0008 541.51 58.0008C568.64 58.0008 592.97 68.6308 592.97 103.001V172.371C592.97 183.561 594.97 189.711 609.19 188.031V203.701C604.987 205.257 600.531 206.013 596.05 205.931C582.62 205.931 574.51 202.301 570.6 186.631H570C561.05 200.061 545.11 208.451 521.62 208.451C492.81 208.451 474.62 191.951 474.62 167.891C474.62 135.451 498.67 127.061 535.62 120.071C559.68 115.591 570.62 112.511 570.62 98.2508C570.6 87.0908 564.44 77.5808 541.51 77.5808ZM570.6 149.461V125.691C566.4 129.881 552.69 133.801 537.6 136.881C509.9 142.751 497 149.741 497 166.801C497 180.801 505.39 188.901 523.86 188.901C550.46 188.901 570.6 176.871 570.6 149.461Z" fill="#163B36"/>
<path d="M722 61.9208H744.38V196.731C744.38 234.731 720.33 254.071 681.17 254.071C642.01 254.071 618.79 233.371 616.56 209.071H639C641.8 223.611 653.55 234.521 680.12 234.521C706.69 234.521 722.07 223.051 722.07 196.521V174.921H721.51C713.12 187.221 699.7 197.291 676.2 197.291C640.96 197.291 612.43 174.641 612.43 127.651C612.43 80.6608 640.96 58.0008 676.2 58.0008C699.7 58.0008 713.12 68.6308 721.51 79.5408H722.07L722 61.9208ZM722 127.651C722 94.0808 705.5 77.5808 678.93 77.5808C649.56 77.5808 634.74 99.6808 634.74 127.651C634.74 155.621 649.56 177.711 678.93 177.711C705.54 177.711 722 161.211 722 127.651V127.651Z" fill="#163B36"/>
<path d="M881.89 165.411C881.89 191.411 858.12 208.481 825.67 208.481C782.04 208.481 761.9 187.781 760.5 157.021H782.88C784.27 172.961 789.88 188.901 825.67 188.901C850 188.901 859.51 176.311 859.51 166.801C859.51 146.111 840.77 144.991 820.36 139.951C798.54 134.641 766.09 132.121 766.09 98.5608C766.09 76.1808 785.95 58.0008 819.52 58.0008C855.04 58.0008 874.06 78.1408 876.29 102.751H853.92C851.68 91.8508 846.37 77.5808 819.52 77.5808C799.38 77.5808 788.52 85.6908 788.52 96.8808C788.52 113.661 807.82 115.061 827.68 119.821C853.08 125.971 881.89 130.161 881.89 165.411Z" fill="#163B36"/>
<path d="M957.52 81.5008H929.52V167.361C929.52 183.591 938.52 186.361 957.52 184.991V204.581C952.002 205.735 946.377 206.299 940.74 206.261C921.74 206.261 907.17 198.711 907.17 169.621V81.5208H886.17V61.9208H907.17V14.3708H929.55V61.9208H957.55L957.52 81.5008Z" fill="#163B36"/>
<path d="M1076.44 160.651H1098.82C1091.54 187.221 1071.13 208.481 1035.61 208.481C992.25 208.481 965.96 177.991 965.96 133.241C965.96 85.6908 992.81 58.0008 1034.49 58.0008C1079.24 58.0008 1101.06 88.4908 1101.06 139.111H988.34C988.34 164.851 1003.72 188.901 1034.77 188.901C1063.3 188.901 1073.92 170.441 1076.44 160.651ZM988.34 119.581H1078.68C1078.68 96.6408 1061.34 77.5808 1034.49 77.5808C1007.64 77.5808 988.34 96.5808 988.34 119.581Z" fill="#163B36"/>
<path d="M1193.35 58.8408V81.2208H1192.79C1161.79 76.2208 1140.21 98.0007 1140.21 128.491V204.581H1117.83V61.9208H1140.21V90.1708H1140.77C1148.32 71.4308 1159.77 58.0008 1180.21 58.0008C1184.6 57.955 1189 58.2358 1193.35 58.8408V58.8408Z" fill="#163B36"/>
<path d="M85.2867 243.801C85.2909 245.217 85.5868 246.616 86.1559 247.913C86.7251 249.209 87.5552 250.374 88.5946 251.335C89.6339 252.296 90.8601 253.032 92.1966 253.497C93.5331 253.963 94.9512 254.148 96.3624 254.041C150.001 250.201 200.661 212.241 216.835 152.951C217.684 149.541 220.243 147.831 223.652 147.831C225.399 147.901 227.049 148.657 228.243 149.936C229.436 151.214 230.078 152.912 230.03 154.661C230.03 167.881 213.036 202.431 188.736 222.481C187.497 223.523 186.51 224.831 185.847 226.308C185.184 227.785 184.863 229.392 184.907 231.011C184.932 232.327 185.216 233.625 185.743 234.831C186.271 236.036 187.03 237.126 187.98 238.038C188.929 238.949 190.048 239.664 191.274 240.142C192.5 240.619 193.808 240.85 195.123 240.821C197.253 240.821 200.661 239.541 204.92 235.701C221.913 220.341 254.3 177.261 254.3 129.911C254.3 60.4908 200.631 0.670776 125.731 0.670776C58.8972 0.670776 1 55.2708 1 118.401C1 160.201 34.2069 191.761 78.0496 191.761C111.686 191.761 142.764 167.881 151.281 135.031C152.13 131.621 154.679 129.911 158.088 129.911C159.836 129.981 161.487 130.737 162.682 132.015C163.877 133.294 164.522 134.991 164.475 136.741C164.475 151.671 136.377 203.741 79.3291 203.741C65.7045 203.741 48.6812 199.901 36.7559 193.071C35.1595 192.297 33.4205 191.861 31.6479 191.791C30.2906 191.739 28.9373 191.968 27.6729 192.464C26.4085 192.961 25.2605 193.714 24.301 194.675C23.3415 195.637 22.5913 196.787 22.0975 198.053C21.6038 199.319 21.3772 200.673 21.4319 202.031C21.487 203.77 21.9851 205.466 22.879 206.959C23.7729 208.452 25.033 209.692 26.5399 210.561C42.2937 219.561 61.0263 224.211 80.1787 224.211C127.86 224.211 171.283 191.791 184.058 144.021C184.907 140.611 187.466 138.901 190.865 138.901C192.613 138.971 194.264 139.727 195.459 141.005C196.654 142.284 197.299 143.981 197.253 145.731C197.253 165.351 162.346 228.481 95.0829 233.601C92.4804 233.794 90.0409 234.942 88.2329 236.825C86.4249 238.707 85.3757 241.192 85.2867 243.801V243.801Z" fill="#4F43DD"/>
<path d="M151.94 80.4408C161.121 80.3723 170.133 82.9105 177.93 87.7608C178.718 83.4467 179.153 79.0755 179.23 74.6908C179.23 54.4408 163.796 36.3008 145.003 36.3008C130.389 36.3008 121.253 48.4108 121.253 63.3708C121.183 71.4524 124.021 79.2894 129.249 85.4508C136.332 82.0722 144.094 80.3585 151.94 80.4408V80.4408Z" fill="white"/>
<path d="M195.973 153.801C198.582 144.881 199.732 138.691 199.732 134.671C199.652 132.935 198.908 131.296 197.654 130.093C196.4 128.891 194.731 128.217 192.994 128.211C191.376 128.241 189.814 128.811 188.557 129.831C187.3 130.852 186.42 132.263 186.057 133.841C185.347 136.771 183.828 144.711 182.328 149.751C182.948 147.864 183.515 145.947 184.028 144.001C184.877 140.581 187.436 138.881 190.835 138.881C192.582 138.949 194.233 139.702 195.428 140.979C196.624 142.256 197.269 143.952 197.223 145.701C197.142 148.45 196.702 151.176 195.913 153.811L195.973 153.801Z" fill="#352D8E"/>
<path d="M232.159 144.481C232.077 142.747 231.334 141.111 230.082 139.909C228.831 138.708 227.166 138.032 225.431 138.021C223.815 138.053 222.255 138.625 221 139.645C219.745 140.664 218.867 142.074 218.504 143.651C217.784 146.651 216.235 154.711 214.716 159.741H214.786C215.525 157.501 216.215 155.231 216.785 152.921C217.634 149.501 220.193 147.801 223.602 147.801C225.349 147.869 226.998 148.623 228.192 149.9C229.386 151.176 230.028 152.873 229.98 154.621C229.931 156.744 229.639 158.854 229.11 160.911C231.229 153.471 232.159 148.091 232.159 144.481Z" fill="#352D8E"/>
<path d="M151.94 80.4408C156.503 80.4315 161.046 81.0404 165.445 82.2508C167.755 79.0998 168.909 75.2492 168.713 71.3467C168.518 67.4443 166.984 63.7284 164.371 60.8243C161.758 57.9203 158.225 56.0054 154.366 55.4019C150.507 54.7984 146.558 55.5431 143.184 57.5108L150.181 69.0308L137.076 63.3608C135.301 66.2261 134.411 69.552 134.518 72.9214C134.625 76.2907 135.723 79.5535 137.676 82.3007C142.327 81.0469 147.124 80.4213 151.94 80.4408V80.4408Z" fill="#163B36"/>
<path d="M50.9802 154.581C56.5009 154.581 60.9763 150.104 60.9763 144.581C60.9763 139.058 56.5009 134.581 50.9802 134.581C45.4596 134.581 40.9842 139.058 40.9842 144.581C40.9842 150.104 45.4596 154.581 50.9802 154.581Z" fill="#352D8E"/>
<path d="M50.9802 114.581C56.5009 114.581 60.9763 110.104 60.9763 104.581C60.9763 99.0579 56.5009 94.5808 50.9802 94.5808C45.4596 94.5808 40.9842 99.0579 40.9842 104.581C40.9842 110.104 45.4596 114.581 50.9802 114.581Z" fill="#352D8E"/>
<path d="M30.9881 134.581C36.5088 134.581 40.9842 130.104 40.9842 124.581C40.9842 119.058 36.5088 114.581 30.9881 114.581C25.4675 114.581 20.9921 119.058 20.9921 124.581C20.9921 130.104 25.4675 134.581 30.9881 134.581Z" fill="#352D8E"/>
<path d="M75.9704 191.741H77.9696C111.606 191.741 142.684 167.861 151.201 135.011C152.05 131.601 154.599 129.891 158.008 129.891C159.756 129.961 161.407 130.717 162.602 131.995C163.797 133.273 164.442 134.971 164.395 136.721C164.243 140.211 163.454 143.644 162.066 146.851C162.308 146.478 162.518 146.087 162.696 145.681C165.225 139.897 166.532 133.653 166.535 127.341C166.535 117.531 159.717 111.131 149.931 111.131C132.868 111.131 129.449 126.031 122.252 141.961C114.785 158.501 101.071 176.391 66.4842 176.391C30.5483 176.391 -6.37709 151.221 2.62935 100.041C2.73931 99.4008 2.82926 98.8308 2.89924 98.3008C1.57955 104.913 0.909953 111.638 0.900024 118.381C0.999985 159.581 33.1773 190.781 75.9704 191.741Z" fill="#352D8E"/>
</svg>
