<svg width="990" height="253" viewBox="0 0 990 253" fill="none" xmlns="http://www.w3.org/2000/svg">
<path d="M302.644 128.59C302.644 139.794 305.371 148.935 310.826 156.011C316.428 163.088 324.094 166.626 333.824 166.626C343.112 166.626 350.557 163.014 356.16 155.79C361.762 148.566 364.563 139.352 364.563 128.148C364.563 117.091 361.836 108.171 356.381 101.39C350.926 94.6079 343.481 91.2171 334.046 91.2171C324.61 91.2171 317.018 94.6816 311.268 101.611C305.518 108.54 302.644 117.533 302.644 128.59ZM364.784 167.732V165.963C361.983 171.417 357.708 175.988 351.958 179.673C346.356 183.212 339.648 184.981 331.834 184.981C316.649 184.981 304.413 179.673 295.125 169.059C285.984 158.296 281.414 144.807 281.414 128.59C281.414 113.11 286.132 99.989 295.567 89.2268C305.002 78.3172 317.091 72.8624 331.834 72.8624C340.532 72.8624 347.609 74.6315 353.064 78.1697C358.518 81.5606 362.278 85.7622 364.342 90.7748V25H384.908V162.424C384.908 169.648 385.276 176.209 386.014 182.106H365.89C365.153 177.978 364.784 173.187 364.784 167.732Z" fill="white"/>
<path d="M402.575 153.579C402.575 144.438 405.524 137.141 411.421 131.686C417.318 126.084 425.131 122.619 434.861 121.292L463.61 117.091C469.065 116.353 471.792 113.7 471.792 109.129C471.792 103.527 469.875 98.957 466.042 95.4187C462.209 91.8805 456.46 90.1114 448.793 90.1114C441.717 90.1114 436.115 92.1016 431.987 96.0821C427.859 99.9153 425.426 105.075 424.689 111.562L404.786 106.918C405.818 96.7456 410.462 88.4896 418.718 82.1503C426.974 75.6635 436.852 72.4201 448.351 72.4201C463.389 72.4201 474.519 76.1058 481.743 83.4771C488.967 90.7011 492.579 99.989 492.579 111.341V164.636C492.579 170.975 493.022 176.799 493.906 182.106H473.561C472.824 177.683 472.455 172.892 472.455 167.732C469.507 172.449 465.158 176.577 459.408 180.116C453.806 183.654 446.729 185.423 438.179 185.423C427.711 185.423 419.161 182.327 412.526 176.135C405.892 169.796 402.575 162.277 402.575 153.579ZM441.053 167.953C450.341 167.953 457.786 165.447 463.389 160.434C468.991 155.422 471.792 147.461 471.792 136.551V131.686L439.284 136.551C434.567 137.288 430.807 138.983 428.006 141.637C425.205 144.291 423.804 147.903 423.804 152.473C423.804 156.601 425.352 160.213 428.448 163.309C431.692 166.405 435.894 167.953 441.053 167.953Z" fill="white"/>
<path d="M508.377 187.856L528.501 183.212C529.238 190.73 532.26 196.922 537.568 201.787C542.875 206.8 549.509 209.306 557.47 209.306C579.142 209.306 589.978 197.807 589.978 174.808V159.55C587.324 164.709 583.123 168.911 577.373 172.155C571.771 175.398 565.136 177.02 557.47 177.02C543.317 177.02 531.597 172.228 522.309 162.645C513.168 152.915 508.598 140.531 508.598 125.494C508.598 110.899 513.168 98.6621 522.309 88.7845C531.449 78.7595 543.17 73.7469 557.47 73.7469C573.687 73.7469 584.597 79.3492 590.199 90.5536V75.7372H610.765V174.145C610.765 181.221 609.807 187.782 607.89 193.826C606.121 200.018 603.246 205.694 599.266 210.854C595.285 216.014 589.683 220.068 582.459 223.017C575.383 225.965 567.053 227.44 557.47 227.44C544.349 227.44 533.218 223.68 524.078 216.162C514.937 208.79 509.704 199.355 508.377 187.856ZM560.566 159.55C569.559 159.55 576.857 156.454 582.459 150.262C588.061 143.922 590.862 135.666 590.862 125.494C590.862 115.321 588.061 107.139 582.459 100.947C576.857 94.6079 569.559 91.4382 560.566 91.4382C551.426 91.4382 543.981 94.5342 538.231 100.726C532.629 106.918 529.828 115.174 529.828 125.494C529.828 135.961 532.555 144.291 538.01 150.483C543.612 156.527 551.131 159.55 560.566 159.55Z" fill="white"/>
<path d="M625.167 154.463L643.964 147.829C644.701 153.579 647.207 158.37 651.483 162.203C655.758 165.889 661.508 167.732 668.732 167.732C674.334 167.732 678.757 166.405 682 163.751C685.243 160.95 686.865 157.559 686.865 153.579C686.865 146.502 682.295 141.932 673.154 139.868L655.021 135.887C646.765 134.118 640.278 130.58 635.56 125.273C630.843 119.965 628.484 113.552 628.484 106.033C628.484 96.893 632.17 89.0056 639.541 82.3714C647.06 75.7372 655.979 72.4201 666.299 72.4201C673.081 72.4201 679.125 73.4521 684.433 75.5161C689.74 77.4326 693.868 80.0126 696.816 83.256C699.765 86.4994 701.976 89.5216 703.451 92.3228C704.925 95.1239 706.031 97.9987 706.768 100.947L688.413 107.803C688.118 106.033 687.602 104.338 686.865 102.716C686.128 100.947 684.949 99.0307 683.327 96.9667C681.853 94.9027 679.641 93.281 676.693 92.1016C673.744 90.7748 670.28 90.1114 666.299 90.1114C661.139 90.1114 656.864 91.5119 653.473 94.313C650.23 97.1141 648.608 100.431 648.608 104.264C648.608 111.046 652.662 115.321 660.771 117.091L678.02 120.85C687.455 122.914 694.679 126.747 699.691 132.349C704.851 137.804 707.431 144.512 707.431 152.473C707.431 160.876 703.967 168.469 697.038 175.251C690.256 182.032 680.747 185.423 668.51 185.423C655.389 185.423 645.143 182.18 637.772 175.693C630.401 169.059 626.199 161.982 625.167 154.463Z" fill="white"/>
<path d="M754.125 42.1238V75.7372H777.123V94.5342H754.125V149.819C754.125 154.832 755.23 158.518 757.442 160.876C759.801 163.235 763.634 164.415 768.941 164.415C772.037 164.415 774.765 164.12 777.123 163.53V181.221C773.585 182.548 768.867 183.212 762.97 183.212C753.83 183.212 746.606 180.558 741.299 175.251C735.991 169.943 733.337 162.498 733.337 152.915V94.5342H712.993V75.7372H718.742C724.197 75.7372 728.251 74.2629 730.905 71.3144C733.706 68.2184 735.107 64.2379 735.107 59.3728V42.1238H754.125Z" fill="white"/>
<path d="M808.434 117.975H866.594C866.299 110.014 863.645 103.527 858.633 98.5147C853.62 93.3547 846.544 90.7748 837.403 90.7748C829.147 90.7748 822.366 93.5022 817.058 98.957C811.751 104.264 808.876 110.604 808.434 117.975ZM869.69 145.618L887.602 151.81C884.506 161.687 878.757 169.796 870.353 176.135C861.95 182.327 851.777 185.423 839.836 185.423C824.946 185.423 812.267 180.337 801.8 170.164C791.48 159.844 786.32 145.986 786.32 128.59C786.32 112.373 791.332 98.957 801.357 88.3422C811.382 77.7275 823.324 72.4201 837.182 72.4201C853.252 72.4201 865.783 77.5063 874.776 87.6788C883.769 97.7038 888.266 111.193 888.266 128.148C888.266 130.801 888.118 133.013 887.823 134.782H807.77C807.918 144.217 811.014 151.957 817.058 158.002C823.25 164.046 830.843 167.068 839.836 167.068C855.021 167.068 864.972 159.918 869.69 145.618Z" fill="white"/>
<path d="M965 74.6315V96.7456C961.904 96.3033 958.881 96.0821 955.933 96.0821C936.472 96.0821 926.742 106.992 926.742 128.811V182.106H905.955V75.7372H926.3V94.313C932.787 80.7497 943.402 73.9681 958.144 73.9681C960.503 73.9681 962.788 74.1892 965 74.6315Z" fill="white"/>
<path d="M91.4245 219.459C91.4278 220.591 91.6609 221.711 92.1095 222.748C92.558 223.784 93.2122 224.716 94.0313 225.485C94.8503 226.253 95.8167 226.842 96.87 227.214C97.9232 227.587 99.0408 227.735 100.153 227.649C142.424 224.578 182.348 194.217 195.094 146.796C195.764 144.068 197.781 142.701 200.467 142.701C201.844 142.757 203.144 143.362 204.085 144.384C205.025 145.407 205.531 146.765 205.493 148.163C205.493 158.737 192.101 186.371 172.95 202.407C171.974 203.24 171.196 204.287 170.674 205.468C170.151 206.649 169.898 207.935 169.933 209.229C169.953 210.282 170.177 211.32 170.592 212.284C171.007 213.249 171.606 214.12 172.354 214.849C173.102 215.578 173.985 216.15 174.951 216.532C175.917 216.914 176.948 217.099 177.984 217.075C179.662 217.075 182.348 216.052 185.704 212.98C199.096 200.695 224.62 166.239 224.62 128.368C224.62 72.8449 182.325 25 123.297 25C70.6274 25 25 68.6699 25 119.162C25 152.594 51.1696 177.837 85.721 177.837C112.229 177.837 136.721 158.737 143.433 132.463C144.102 129.736 146.111 128.368 148.797 128.368C150.175 128.424 151.476 129.029 152.418 130.051C153.36 131.074 153.868 132.431 153.831 133.831C153.831 145.772 131.687 187.418 86.7294 187.418C75.9921 187.418 62.5764 184.347 53.1784 178.884C51.9203 178.265 50.5499 177.917 49.1529 177.861C48.0833 177.819 47.0167 178.002 46.0203 178.399C45.0239 178.796 44.1191 179.398 43.363 180.168C42.6068 180.937 42.0156 181.857 41.6265 182.869C41.2374 183.882 41.0588 184.965 41.1019 186.051C41.1454 187.442 41.5379 188.799 42.2424 189.992C42.9468 191.186 43.9399 192.178 45.1274 192.873C57.5426 200.071 72.3054 203.791 87.399 203.791C124.975 203.791 159.196 177.861 169.264 139.653C169.933 136.926 171.95 135.558 174.628 135.558C176.006 135.615 177.307 136.219 178.249 137.242C179.191 138.264 179.698 139.622 179.662 141.021C179.662 156.713 152.153 207.206 99.1446 211.301C97.0936 211.455 95.1711 212.374 93.7463 213.879C92.3214 215.385 91.4946 217.372 91.4245 219.459V219.459Z" fill="#B9B4F1"/>
<path d="M143.974 88.7857C151.21 88.7309 158.312 90.7611 164.456 94.6404C165.077 91.1899 165.42 87.6938 165.48 84.1868C165.48 67.9906 153.317 53.4819 138.507 53.4819C126.99 53.4819 119.79 63.1677 119.79 75.1329C119.735 81.5967 121.972 87.8649 126.092 92.7928C131.674 90.0906 137.791 88.72 143.974 88.7857V88.7857Z" fill="white"/>
<path d="M144.103 68.6766C151.656 68.8906 157.608 75.2782 157.397 82.9433C157.321 85.6969 156.46 88.2406 155.038 90.3602C151.463 89.2944 147.737 88.7576 143.975 88.786C140.054 88.7443 136.159 89.2802 132.411 90.3671C130.846 88.0369 129.963 85.2032 130.046 82.1688C130.257 74.5038 136.551 68.4628 144.103 68.6766Z" fill="black"/>
</svg>
