<svg width="16" height="16" viewBox="0 0 16 16" fill="none" xmlns="http://www.w3.org/2000/svg">
<path d="M3.33333 14C2.96667 14 2.65278 13.8694 2.39167 13.6083C2.13056 13.3472 2 13.0333 2 12.6667V10C2 9.63333 2.13056 9.31944 2.39167 9.05833C2.65278 8.79722 2.96667 8.66667 3.33333 8.66667H12.6667C13.0333 8.66667 13.3472 8.79722 13.6083 9.05833C13.8694 9.31944 14 9.63333 14 10H3.33333V12.6667H10V14H3.33333ZM3.33333 7.33333C2.96667 7.33333 2.65278 7.20278 2.39167 6.94167C2.13056 6.68056 2 6.36667 2 6V3.33333C2 2.96667 2.13056 2.65278 2.39167 2.39167C2.65278 2.13056 2.96667 2 3.33333 2H12.6667C13.0333 2 13.3472 2.13056 13.6083 2.39167C13.8694 2.65278 14 2.96667 14 3.33333V6C14 6.36667 13.8694 6.68056 13.6083 6.94167C13.3472 7.20278 13.0333 7.33333 12.6667 7.33333H3.33333ZM3.33333 6H12.6667V3.33333H3.33333V6ZM12.6667 15.3333V14H11.3333V12.6667H12.6667V11.3333H14V12.6667H15.3333V14H14V15.3333H12.6667Z" fill="#030615"/>
</svg>
