<svg width="20" height="20" viewBox="0 0 20 20" fill="none" xmlns="http://www.w3.org/2000/svg">
<path fill-rule="evenodd" clip-rule="evenodd" d="M10.8071 2C8.05238 2 6.07812 3.00497 4.80437 4.50789C3.54877 5.98938 3.0293 7.88784 3.0293 9.60927V13.7025C3.0293 14.6777 3.20628 15.4725 3.54669 16.1077C3.89168 16.7514 4.38096 17.1868 4.9266 17.4715C5.94129 18.001 7.15361 18.0004 7.93943 18H7.99996H8.74996V17.25C8.74996 16.971 8.75136 16.5234 8.83933 16.0681C8.93036 15.5969 9.09204 15.2389 9.3198 15.0382C9.35186 15.0099 9.38605 14.9801 9.42188 14.9489C9.65136 14.7488 9.94838 14.4898 10.1868 14.2027C10.3407 14.0173 10.493 13.7946 10.6003 13.5346C12.3608 13.4835 13.9377 13.18 15.0924 12.1746C16.4008 11.0355 16.9804 9.16892 16.9804 6.42564V6.4198V6.41392V6.408V6.40205V6.39605V6.39002V6.38395V6.37785V6.37171V6.36553V6.35931V6.35306V6.34677V6.34044V6.33408V6.32768V6.32125V6.31478V6.30828V6.30174V6.29517V6.28856V6.28192V6.27525V6.26854V6.26179V6.25502V6.24821V6.24136V6.23449V6.22758V6.22064V6.21366V6.20665V6.19962V6.19255V6.18544V6.17831V6.17115V6.16395V6.15672V6.14947V6.14218V6.13486V6.12751V6.12014V6.11273V6.10529V6.09783V6.09033V6.08281V6.07526V6.06767V6.06006V6.05243V6.04476V6.03707V6.02935V6.0216V6.01382V6.00602V5.99819V5.99034V5.98246V5.97455V5.96662V5.95866V5.95067V5.94266V5.93463V5.92656V5.91848V5.91037V5.90224V5.89408V5.88589V5.87769V5.86946V5.8612V5.85293V5.84463V5.83631V5.82796V5.81959V5.8112V5.80279V5.79436V5.7859V5.77743V5.76893V5.76041V5.75187V5.74331V5.73473V5.72613V5.71751V5.70887V5.7002V5.69152V5.68282V5.67411V5.66537V5.65661V5.64784V5.63904V5.63023V5.6214V5.61255V5.60369V5.59481V5.58591V5.57699V5.56806V5.55911V5.55014V5.54116V5.53216V5.52315V5.51412V5.50508V5.49602V5.48694V5.47785V5.46875V5.45963V5.45049V5.44135V5.43219V5.42301V5.41382V5.40462V5.39541V5.38618V5.37694V5.36769V5.35842V5.34915V5.33986V5.33056V5.32125V5.31192V5.30259V5.29324V5.28389V5.27452V5.26515V5.25576V5.24636V5.23696V5.22754V5.21811V5.20868V5.19924V5.18978V5.18032V5.17085V5.16138V5.15189V5.1424V5.1329V5.12339V5.11388V5.10435V5.09482V5.08529V5.07575V5.0662V5.05664V5.04708V5.03752V5.02795V5.01837V5.00879V4.9992V4.98961V4.98002V4.97042V4.96081V4.95121V4.9416V4.93198V4.92236V4.91274V4.90312V4.89349V4.88386V4.87423V4.8646V4.85496V4.84532V4.83569V4.82605V4.8164V4.80676V4.79712V4.78748V4.77783V4.76819V4.75854V4.7489V4.73926V4.72962V4.71997V4.71033V4.70069V4.69105V4.68142V4.67178V4.66215V4.65252V4.64289V4.63327V4.62364V4.61402V4.60441V4.59479V4.58518V4.57558V4.56598V4.55638V4.54678V4.53719V4.52761V4.51803V4.50846V4.49889V4.48932V4.47977V4.47021V4.46067V4.45113V4.4416V4.43207V4.42255V4.41304V4.40353V4.39403V4.38454V4.37506V4.36559V4.35612V4.34666V4.33722V4.32778V4.31835V4.30892V4.29951V4.29011V4.28072V4.27133V4.26196V4.2526V4.24325V4.2339V4.22457V4.21526V4.20595V4.19665V4.18737V4.1781V4.16884V4.15959V4.15035V4.14113V4.13192V4.12273V4.11354V4.10437V4.09522V4.08608V4.07695V4.06783V4.05874V4.04965V4.04058V4.03153V4.02249V4.01346V4.00446V3.99547V3.98649V3.97753V3.96859V3.95966V3.95075V3.94186V3.93298V3.92412V3.91528V3.90646V3.89766V3.88887V3.8801V3.87135V3.86262V3.85391V3.84522V3.83654V3.82789V3.81926V3.81064V3.80205V3.79348V3.78492V3.77639V3.76788V3.75939V3.75092V3.74248V3.73405V3.72565V3.71727V3.70891V3.70057V3.69226V3.68397V3.6757V3.66745V3.65923V3.65104V3.64286V3.63471V3.62659V3.61849V3.61041V3.60236V3.59434V3.58633V3.57836V3.57041V3.56249V3.55459V3.54672V3.53887V3.53105V3.52326V3.5155V3.50776V3.50005V3.49237V3.48471V3.47708V3.46948V3.46191V3.45437V3.44686V3.43938V3.43192V3.4245V3.4171V3.40973V3.4024V3.39509V3.38781V3.38057V3.37335V3.36617V3.35902V3.3519V3.34481V3.33775V3.33072V3.32373V3.31677V3.30984V3.30294V3.29608V3.28925V3.28245V3.27568V3.26895V3.26226V3.25559V3.24897V3.24237V3.23581V3.22929V3.2228V3.21634V3.20992V3.20354V3.19719V3.19088V3.18461V3.17837V3.17217V3.166V3.15987V3.15378V3.14773V3.14171V3.13573V3.12979V3.12389V3.11802V3.1122V3.10641V3.10066V3.09495V3.08928V3.08365V3.07806V3.07251V3.067V3.06153V3.0561V3.05071V3.04536V3.04005V3.03479V3.02956V3.02438V3.01924V3.01414V3.00908V3.00407V2.9991V2.99417V2.98928V2.98444V2.97964V2.97489V2.97018V2.96551V2.96088V2.9563V2.95177V2.94728V2.94283V2.93844V2.93408V2.92977V2.92551V2.92129V2.91712V2.913V2.90892V2.90489V2.9009V2.89697V2.89308V2.88923V2.88544V2.88169V2.87799V2.87434V2.87074V2.86719V2.86368V2.86023V2.85682V2.85347V2.85016V2.8469V2.8437V2.84054V2.83743V2.83438V2.83137V2.82842V2.82552V2.82267V2.81987V2.81712V2.81442V2.81178V2.80919V2.80665V2.80417V2.80173V2.79935V2.79703V2.79475V2.79254V2.79037V2.78826V2.7862V2.7842V2.78226V2.78036V2.77853V2.77675V2.77502V2.77335V2.77174V2.77018V2.76868V2.76723V2.76584V2.76451V2.76323V2.76202V2.76086V2.75976V2.75871V2.7568V2.75512V2.75367V2.75246V2.7511V2.75003V2H16.2304H10.8071ZM8.44737 13.8081C8.60466 13.6703 8.74361 13.5486 8.86473 13.4274C8.42325 13.3419 8.01932 13.2205 7.68817 13.1038C7.38282 12.9962 7.12812 12.8885 6.94822 12.807C6.85808 12.7662 6.78617 12.7317 6.73549 12.7067C6.71013 12.6942 6.69004 12.684 6.67558 12.6766L6.65816 12.6676L6.6527 12.6648L6.65079 12.6638L6.64973 12.6632C6.64958 12.6631 6.64944 12.6631 6.99994 12L6.64973 12.6632L5.98638 12.3126L6.68738 10.9864L7.34937 11.3364L7.35042 11.3369L7.35872 11.3412C7.36697 11.3454 7.38057 11.3523 7.39916 11.3615C7.43636 11.3798 7.49336 11.4072 7.56728 11.4407C7.71552 11.5079 7.92956 11.5985 8.18672 11.6891C8.71066 11.8737 9.36988 12.0429 9.99996 12.0429C11.9583 12.0429 13.2665 11.7755 14.1074 11.0434C14.9244 10.332 15.4804 9.01495 15.4804 6.42564V6.4198V6.41392V6.408V6.40205V6.39605V6.39002V6.38395V6.37785V6.37171V6.36553V6.35931V6.35306V6.34677V6.34044V6.33408V6.32768V6.32125V6.31478V6.30828V6.30174V6.29517V6.28856V6.28192V6.27525V6.26854V6.26179V6.25502V6.24821V6.24136V6.23449V6.22758V6.22064V6.21366V6.20665V6.19962V6.19255V6.18544V6.17831V6.17115V6.16395V6.15672V6.14947V6.14218V6.13486V6.12751V6.12014V6.11273V6.10529V6.09783V6.09033V6.08281V6.07526V6.06767V6.06006V6.05243V6.04476V6.03707V6.02935V6.0216V6.01382V6.00602V5.99819V5.99034V5.98246V5.97455V5.96662V5.95866V5.95067V5.94266V5.93463V5.92656V5.91848V5.91037V5.90224V5.89408V5.88589V5.87769V5.86946V5.8612V5.85293V5.84463V5.83631V5.82796V5.81959V5.8112V5.80279V5.79436V5.7859V5.77743V5.76893V5.76041V5.75187V5.74331V5.73473V5.72613V5.71751V5.70887V5.7002V5.69152V5.68282V5.67411V5.66537V5.65661V5.64784V5.63904V5.63023V5.6214V5.61255V5.60369V5.59481V5.58591V5.57699V5.56806V5.55911V5.55014V5.54116V5.53216V5.52315V5.51412V5.50508V5.49602V5.48694V5.47785V5.46875V5.45963V5.45049V5.44135V5.43219V5.42301V5.41382V5.40462V5.39541V5.38618V5.37694V5.36769V5.35842V5.34915V5.33986V5.33056V5.32125V5.31192V5.30259V5.29324V5.28389V5.27452V5.26515V5.25576V5.24636V5.23696V5.22754V5.21811V5.20868V5.19924V5.18978V5.18032V5.17085V5.16138V5.15189V5.1424V5.1329V5.12339V5.11388V5.10435V5.09482V5.08529V5.07575V5.0662V5.05664V5.04708V5.03752V5.02795V5.01837V5.00879V4.9992V4.98961V4.98002V4.97042V4.96081V4.95121V4.9416V4.93198V4.92236V4.91274V4.90312V4.89349V4.88386V4.87423V4.8646V4.85496V4.84532V4.83569V4.82605V4.8164V4.80676V4.79712V4.78748V4.77783V4.76819V4.75854V4.7489V4.73926V4.72962V4.71997V4.71033V4.70069V4.69105V4.68142V4.67178V4.66215V4.65252V4.64289V4.63327V4.62364V4.61402V4.60441V4.59479V4.58518V4.57558V4.56598V4.55638V4.54678V4.53719V4.52761V4.51803V4.50846V4.49889V4.48932V4.47977V4.47021V4.46067V4.45113V4.4416V4.43207V4.42255V4.41304V4.40353V4.39403V4.38454V4.37506V4.36559V4.35612V4.34666V4.33722V4.32778V4.31835V4.30892V4.29951V4.29011V4.28072V4.27133V4.26196V4.2526V4.24325V4.2339V4.22457V4.21526V4.20595V4.19665V4.18737V4.1781V4.16884V4.15959V4.15035V4.14113V4.13192V4.12273V4.11354V4.10437V4.09522V4.08608V4.07695V4.06783V4.05874V4.04965V4.04058V4.03153V4.02249V4.01346V4.00446V3.99547V3.98649V3.97753V3.96859V3.95966V3.95075V3.94186V3.93298V3.92412V3.91528V3.90646V3.89766V3.88887V3.8801V3.87135V3.86262V3.85391V3.84522V3.83654V3.82789V3.81926V3.81064V3.80205V3.79348V3.78492V3.77639V3.76788V3.75939V3.75092V3.74248V3.73405V3.72565V3.71727V3.70891V3.70057V3.69226V3.68397V3.6757V3.66745V3.65923V3.65104V3.64286V3.63471V3.62659V3.61849V3.61041V3.60236V3.59434V3.58633V3.57836V3.57041V3.56249V3.55459V3.54672V3.53887V3.53105V3.52326V3.5155V3.50776V3.50005L10.8071 3.5C8.45066 3.5 6.91103 4.34222 5.94867 5.47771C4.96816 6.63464 4.5293 8.16581 4.5293 9.60927V13.7025C4.5293 14.5011 4.67454 15.0366 4.86881 15.3991C5.0585 15.7531 5.31635 15.9829 5.62052 16.1416C6.0926 16.388 6.66884 16.4653 7.27408 16.4893C7.29074 16.2712 7.31892 16.0302 7.36657 15.7835C7.48153 15.1885 7.73182 14.4383 8.32799 13.9129C8.36886 13.8768 8.40872 13.8419 8.44737 13.8081ZM7.99994 9C8.55222 9 8.99994 8.55228 8.99994 8C8.99994 7.44772 8.55222 7 7.99994 7C7.44766 7 6.99994 7.44772 6.99994 8C6.99994 8.55228 7.44766 9 7.99994 9Z" fill="#29B5E8"/>
</svg>
