<svg width="20" height="20" viewBox="0 0 20 20" fill="none" xmlns="http://www.w3.org/2000/svg">
<g clip-path="url(#clip0_3440_344)">
<path fill-rule="evenodd" clip-rule="evenodd" d="M10.5105 3.03491L16.9275 6.51747V13.4826L10.5105 16.9652L4.09351 13.4826V6.51747L10.5105 3.03491ZM4.81351 6.90819V12.0244L9.52704 4.35011L4.81351 6.90819ZM10.5105 4.10243L5.077 12.9488H15.9441L10.5105 4.10243ZM15.2241 13.6256H5.797L10.5105 16.1837L15.2241 13.6256ZM16.2075 12.0244L11.494 4.35011L16.2075 6.90819V12.0244Z" fill="#E10098"/>
<path d="M4.45288 8.13758C5.29047 8.13758 5.96947 7.49931 5.96947 6.71198C5.96947 5.92464 5.29047 5.28638 4.45288 5.28638C3.61528 5.28638 2.93628 5.92464 2.93628 6.71198C2.93628 7.49931 3.61528 8.13758 4.45288 8.13758Z" fill="#E10098"/>
<path d="M4.45288 14.7128C5.29047 14.7128 5.96947 14.0745 5.96947 13.2872C5.96947 12.4998 5.29047 11.8616 4.45288 11.8616C3.61528 11.8616 2.93628 12.4998 2.93628 13.2872C2.93628 14.0745 3.61528 14.7128 4.45288 14.7128Z" fill="#E10098"/>
<path d="M10.5107 17.9999C11.3483 17.9999 12.0273 17.3616 12.0273 16.5743C12.0273 15.7869 11.3483 15.1487 10.5107 15.1487C9.67314 15.1487 8.99414 15.7869 8.99414 16.5743C8.99414 17.3616 9.67314 17.9999 10.5107 17.9999Z" fill="#E10098"/>
<path d="M16.5676 14.7128C17.4052 14.7128 18.0842 14.0745 18.0842 13.2872C18.0842 12.4998 17.4052 11.8616 16.5676 11.8616C15.73 11.8616 15.051 12.4998 15.051 13.2872C15.051 14.0745 15.73 14.7128 16.5676 14.7128Z" fill="#E10098"/>
<path d="M16.5676 8.13831C17.4052 8.13831 18.0842 7.50005 18.0842 6.71271C18.0842 5.92537 17.4052 5.28711 16.5676 5.28711C15.73 5.28711 15.051 5.92537 15.051 6.71271C15.051 7.50005 15.73 8.13831 16.5676 8.13831Z" fill="#E10098"/>
<path d="M10.5107 4.8512C11.3483 4.8512 12.0273 4.21294 12.0273 3.4256C12.0273 2.63826 11.3483 2 10.5107 2C9.67314 2 8.99414 2.63826 8.99414 3.4256C8.99414 4.21294 9.67314 4.8512 10.5107 4.8512Z" fill="#E10098"/>
</g>
<defs>
<clipPath id="clip0_3440_344">
<rect width="16" height="16" fill="white" transform="translate(2 2)"/>
</clipPath>
</defs>
</svg>
