<svg width="20" height="20" viewBox="0 0 20 20" fill="none" xmlns="http://www.w3.org/2000/svg">
<path d="M9.99102 17.8942C14.3558 17.8942 17.8941 14.3558 17.8941 9.99102C17.8941 5.62624 14.3558 2.08789 9.99102 2.08789C5.62624 2.08789 2.08789 5.62624 2.08789 9.99102C2.08789 14.3558 5.62624 17.8942 9.99102 17.8942Z" fill="#FF4500"/>
<path d="M15.2618 9.9911C15.2382 9.35463 14.7038 8.85761 14.0654 8.87922C13.7825 8.88905 13.5134 9.00496 13.3092 9.19938C12.4094 8.58645 11.3525 8.25048 10.2661 8.22695L10.7788 5.76152L12.4702 6.11716C12.5173 6.55131 12.9063 6.86568 13.3404 6.81843C13.7746 6.77136 14.0889 6.38236 14.0417 5.94821C13.9945 5.51407 13.6056 5.1997 13.1715 5.24694C12.9219 5.27241 12.698 5.41782 12.5744 5.63402L10.6374 5.24694C10.5058 5.21743 10.3741 5.29998 10.3446 5.43363V5.43749L9.76119 8.17988C8.66108 8.19762 7.59047 8.53552 6.67897 9.15231C6.21532 8.71624 5.48455 8.73784 5.04847 9.20342C4.61239 9.66707 4.63399 10.3979 5.09958 10.8339C5.19002 10.9184 5.29399 10.9911 5.40991 11.0422C5.402 11.1581 5.402 11.274 5.40991 11.39C5.40991 13.1599 7.47262 14.5999 10.0166 14.5999C12.5605 14.5999 14.6232 13.1619 14.6232 11.39C14.6311 11.274 14.6311 11.1581 14.6232 11.0422C15.0201 10.8438 15.2697 10.4351 15.2618 9.9911ZM7.35864 10.7828C7.35864 10.3467 7.71428 9.9911 8.15036 9.9911C8.58644 9.9911 8.94208 10.3467 8.94208 10.7828C8.94208 11.2189 8.58644 11.5745 8.15036 11.5745C7.71235 11.5705 7.35864 11.2189 7.35864 10.7828ZM11.9497 12.9869V12.9555C11.3878 13.3779 10.7003 13.5939 9.99688 13.5646C9.2935 13.5941 8.60611 13.3779 8.04411 12.9555C7.96946 12.8651 7.98316 12.7297 8.07361 12.655C8.15211 12.5902 8.26416 12.5902 8.34477 12.655C8.82019 13.0028 9.39975 13.1796 9.98898 13.152C10.5784 13.1835 11.1599 13.0145 11.6411 12.6708C11.7275 12.5863 11.8689 12.5883 11.9535 12.6747C12.038 12.7611 12.0361 12.9025 11.9497 12.9869ZM11.8416 11.6314C11.828 11.6314 11.8162 11.6314 11.8023 11.6314L11.8083 11.6019C11.3722 11.6019 11.0166 11.2463 11.0166 10.8102C11.0166 10.3741 11.3722 10.0185 11.8083 10.0185C12.2444 10.0185 12.6 10.3741 12.6 10.8102C12.6176 11.2465 12.2777 11.6137 11.8416 11.6314Z" fill="white"/>
</svg>
