<svg width="20" height="20" viewBox="0 0 20 20" fill="none" xmlns="http://www.w3.org/2000/svg">
<path d="M13.3312 11.875H3.00171C3.65009 12.9959 4.86199 13.75 6.25002 13.75H16.5625H16.5796H16.5737L16.5682 13.75C16.5663 13.75 16.5644 13.75 16.5625 13.75C16.5568 13.75 16.5512 13.7499 16.5455 13.7498C15.1717 13.7376 13.9743 12.9867 13.3312 11.875Z" fill="#A8CB54"/>
<path d="M16.5682 6.25003C16.572 6.25 16.5758 6.25 16.5796 6.25C17.0895 6.25909 17.5 6.67544 17.5 7.1875C17.5 7.69956 17.0895 8.11575 16.5796 8.12484C15.544 8.12484 14.7046 8.96447 14.7046 10C14.7046 11.0355 15.544 11.875 16.5796 11.875C17.0895 11.8841 17.5 12.3004 17.5 12.8125C17.5 13.3246 17.0895 13.7409 16.5796 13.75C16.5758 13.75 16.572 13.75 16.5682 13.75C16.5663 13.75 16.5644 13.75 16.5625 13.75C16.5568 13.75 16.5512 13.7499 16.5455 13.7498C14.4901 13.7316 12.8296 12.0597 12.8296 10C12.8296 7.94031 14.4901 6.26844 16.5455 6.25016C16.5512 6.25006 16.5568 6.25 16.5625 6.25C16.5644 6.25 16.5663 6.25 16.5682 6.25003Z" fill="#DCF3A3"/>
<path d="M13.3312 8.125H3.00171C3.65009 7.00412 4.86199 6.25 6.25002 6.25H16.5625C16.5568 6.25 16.5512 6.25006 16.5455 6.25016C15.1717 6.26237 13.9743 7.01331 13.3312 8.125Z" fill="#B5DD64"/>
<path d="M12.8296 10H2.5C2.5 10.683 2.68262 11.3234 3.00168 11.875H13.3312C13.0122 11.3234 12.8296 10.683 12.8296 10Z" fill="#B5DD64"/>
<path d="M13.3312 8.125H3.00168C2.68262 8.67656 2.5 9.31697 2.5 10H12.8296C12.8296 9.31697 13.0122 8.67656 13.3312 8.125Z" fill="#A8CB54"/>
</svg>
