<svg width="20" height="20" viewBox="0 0 20 20" fill="none" xmlns="http://www.w3.org/2000/svg">
<path fill-rule="evenodd" clip-rule="evenodd" d="M14.0917 18L18.1069 9.93163L14.0917 2H2.10693V18H14.0917ZM10.989 8.34535C11.8962 8.34535 12.6316 7.6271 12.6316 6.7411C12.6316 5.85509 11.8962 5.13684 10.989 5.13684C10.0818 5.13684 9.34644 5.85509 9.34644 6.7411C9.34644 7.43651 9.79948 8.02858 10.433 8.25112L9.69942 10.4006C9.56507 10.3776 9.42683 10.3655 9.28571 10.3655C9.11496 10.3655 8.94843 10.3831 8.78791 10.4166L8.18626 8.22362C8.72571 7.99537 9.1031 7.47072 9.1031 6.85998C9.1031 6.0396 8.42217 5.37456 7.58219 5.37456C6.74222 5.37456 6.06128 6.0396 6.06128 6.85998C6.06128 7.68035 6.74222 8.3454 7.58219 8.3454C7.6267 8.3454 7.67076 8.34353 7.71429 8.33987L8.32438 10.5636C8.10415 10.6591 7.90157 10.7863 7.72273 10.9393L6.30261 9.55234C6.38156 9.40456 6.4262 9.23652 6.4262 9.05829C6.4262 8.46762 5.93592 7.98879 5.33114 7.98879C4.72636 7.98879 4.23608 8.46762 4.23608 9.05829C4.23608 9.64896 4.72636 10.1278 5.33114 10.1278C5.57674 10.1278 5.80346 10.0488 5.98613 9.91547L7.39111 11.2877C7.09103 11.6758 6.91309 12.159 6.91309 12.6828C6.91309 13.9626 7.97535 15 9.28571 15C10.5961 15 11.6583 13.9626 11.6583 12.6828C11.6583 12.1646 11.4842 11.6862 11.19 11.3002L12.7026 9.82292C12.8715 9.94008 13.0779 10.009 13.3008 10.009C13.872 10.009 14.335 9.55673 14.335 8.99887C14.335 8.44102 13.872 7.98879 13.3008 7.98879C12.7296 7.98879 12.2666 8.44102 12.2666 8.99887C12.2666 9.16641 12.3084 9.32443 12.3823 9.46352L10.8607 10.9496C10.6578 10.7737 10.4239 10.6312 10.1679 10.531L10.9145 8.34373C10.9392 8.3448 10.964 8.34535 10.989 8.34535Z" fill="#FCBC41"/>
</svg>
