<svg width="20" height="20" viewBox="0 0 20 20" fill="none" xmlns="http://www.w3.org/2000/svg">
<g clip-path="url(#clip0_3790_744)">
<path d="M8.39703 17.7294C8.68112 17.534 7.93694 17.6077 7.87518 17.4764C7.58056 17.4509 7.28897 17.3962 7.0044 17.313C6.47019 17.1721 5.20416 16.285 5.07138 15.4524C4.9386 14.6197 5.07138 13.0024 5.63646 12.0544C5.99738 11.4736 6.46162 10.9693 7.0044 10.5685C7.0044 10.5685 5.90202 7.84948 5.8063 5.79664C5.71057 3.74379 5.85261 0.0672533 7.16188 -5.4377e-07C8.47114 -0.0672543 8.23955 3.35628 8.03266 5.58206C7.89992 7.06087 7.87824 8.54813 7.96782 10.0304C8.51833 9.84781 9.09138 9.74858 9.66924 9.73579C10.1774 9.7238 10.6852 9.77324 11.1823 9.88311C11.1823 9.88311 11.5899 6.72538 12.9548 4.75901C14.3196 2.79263 15.7338 0.768614 16.6602 1.34187C17.5866 1.91513 16.4101 3.96477 15.5918 5.03122C14.7735 6.09768 13.3531 7.69896 12.8806 8.55404C12.5714 9.12331 12.2981 9.71275 12.0624 10.3187C12.9052 10.7678 13.595 11.4742 14.0386 12.3427C14.6778 13.7134 14.7396 15.4139 14.3937 16.1313C14.2135 16.4638 13.9649 16.7509 13.6654 16.9724C13.366 17.1938 13.0232 17.344 12.6614 17.4123C12.2538 17.4444 10.5277 17.8863 10.5277 17.8863L8.39703 17.7294Z" fill="white"/>
<path d="M11.4109 9.90861C11.4109 9.90861 12.4392 7.12238 13.3624 5.55312C14.2857 3.98387 15.524 2.80212 15.913 3.04231C16.3021 3.28251 15.1164 4.75568 14.085 6.18723C13.2381 7.45529 12.4707 8.77854 11.7876 10.1488L11.4109 9.90861Z" fill="#DD00A1"/>
<path d="M7.28558 10.3893L7.57893 10.1491C7.57893 10.1491 7.53879 7.3629 7.57893 5.66555C7.61907 3.96819 7.70553 1.85129 7.15898 1.87371C6.61242 1.89613 6.23261 3.52303 6.44567 5.83848C6.60322 7.377 6.88416 8.89922 7.28558 10.3893Z" fill="#DD00A1"/>
<path d="M6.36223 16.3681C6.69308 16.3681 6.96128 16.0899 6.96128 15.7468C6.96128 15.4037 6.69308 15.1255 6.36223 15.1255C6.03139 15.1255 5.76318 15.4037 5.76318 15.7468C5.76318 16.0899 6.03139 16.3681 6.36223 16.3681Z" fill="#F9D8D2"/>
<path d="M13.4396 16.3681C13.7705 16.3681 14.0387 16.0899 14.0387 15.7468C14.0387 15.4037 13.7705 15.1255 13.4396 15.1255C13.1088 15.1255 12.8406 15.4037 12.8406 15.7468C12.8406 16.0899 13.1088 16.3681 13.4396 16.3681Z" fill="#F9D8D2"/>
<path d="M10.8954 15.6928C10.8847 15.6831 10.871 15.6778 10.8568 15.6778C10.8426 15.6778 10.8289 15.6831 10.8182 15.6928C10.8182 15.6928 10.6422 16.013 10.3828 16.0322C10.295 16.0292 10.2087 16.0078 10.1291 15.9692C10.0495 15.9307 9.97824 15.8759 9.9196 15.8081V15.3725C10.0863 15.2796 10.355 14.9914 10.355 14.8921C10.3321 14.7854 10.2724 14.691 10.1871 14.6267C10.1018 14.5624 9.99678 14.5326 9.8918 14.5431C9.58302 14.5431 9.36686 14.7512 9.36686 14.9242C9.36686 15.0971 9.70653 15.3181 9.80226 15.3853V15.8497C9.75485 15.9148 9.69444 15.9686 9.62516 16.0073C9.55588 16.046 9.47936 16.0687 9.40083 16.0739C9.1538 16.0739 8.96853 15.728 8.96853 15.7248C8.96131 15.711 8.94926 15.7007 8.93488 15.6959C8.9205 15.6912 8.9049 15.6923 8.89133 15.6992C8.87906 15.706 8.86972 15.7174 8.86515 15.731C8.86057 15.7447 8.8611 15.7596 8.86663 15.7728C8.86663 15.7921 9.08587 16.186 9.40083 16.186C9.48922 16.1829 9.57602 16.1608 9.65574 16.1211C9.73547 16.0814 9.80639 16.025 9.86401 15.9554C9.99452 16.0931 10.1692 16.1763 10.355 16.1892H10.3982C10.5093 16.1672 10.6144 16.1199 10.7057 16.0507C10.797 15.9815 10.8724 15.892 10.9262 15.7889C10.9362 15.7781 10.9418 15.7638 10.9418 15.7488C10.9418 15.7339 10.9362 15.7195 10.9262 15.7088C10.9173 15.701 10.9067 15.6955 10.8954 15.6928Z" fill="#10110E"/>
<path d="M7.00449 10.5683C7.00449 10.5683 6.1615 8.32653 5.9824 7.13838C5.8033 5.95023 5.67361 4.00627 5.88976 2.70283C5.97659 2.09881 6.09931 1.50092 6.25722 0.912598C6.25722 0.912598 5.85271 3.95183 6.00402 5.28089C6.15532 6.60996 7.00449 10.5683 7.00449 10.5683Z" fill="#E5E5E5"/>
<path d="M11.1824 9.88013C11.1824 9.88013 11.8 6.48862 12.6985 5.15315C13.5971 3.81768 14.7242 2.20999 15.2769 1.80006L15.8389 1.39014C15.8389 1.39014 13.5724 3.8433 12.6985 5.87372C11.8247 7.90415 11.1824 9.88013 11.1824 9.88013Z" fill="#E5E5E5"/>
<path d="M7.58191 13.7231C7.48908 13.7231 7.39833 13.7517 7.32115 13.8052C7.24396 13.8587 7.1838 13.9347 7.14828 14.0236C7.11275 14.1126 7.10346 14.2105 7.12157 14.3049C7.13968 14.3993 7.18438 14.4861 7.25002 14.5541C7.31566 14.6222 7.39929 14.6686 7.49034 14.6874C7.58139 14.7062 7.67576 14.6965 7.76152 14.6597C7.84729 14.6228 7.92059 14.5604 7.97217 14.4804C8.02374 14.4003 8.05127 14.3062 8.05127 14.2099C8.05128 14.0819 8.00268 13.9591 7.91599 13.868C7.82929 13.7769 7.71149 13.7248 7.58808 13.7231H7.58191ZM7.70542 14.1747C7.67977 14.1747 7.6547 14.1668 7.63337 14.152C7.61204 14.1373 7.59542 14.1163 7.5856 14.0917C7.57579 14.0671 7.57322 14.04 7.57822 14.014C7.58323 13.9879 7.59558 13.9639 7.61372 13.9451C7.63186 13.9263 7.65496 13.9135 7.68012 13.9083C7.70528 13.9031 7.73136 13.9057 7.75505 13.9159C7.77875 13.9261 7.79901 13.9434 7.81326 13.9655C7.82751 13.9876 7.83511 14.0136 7.83511 14.0402C7.83552 14.0579 7.83258 14.0754 7.82643 14.0919C7.82029 14.1084 7.81108 14.1235 7.79932 14.1363C7.78757 14.149 7.77349 14.1593 7.75791 14.1665C7.74233 14.1736 7.72554 14.1775 7.70851 14.1779L7.70542 14.1747Z" fill="#10110E"/>
<path d="M12.1983 13.7232C12.1054 13.7225 12.0145 13.7505 11.937 13.8034C11.8595 13.8564 11.7988 13.932 11.7627 14.0207C11.7267 14.1094 11.7167 14.2072 11.7343 14.3018C11.7518 14.3963 11.7959 14.4834 11.8611 14.5519C11.9263 14.6204 12.0097 14.6673 12.1006 14.6867C12.1915 14.7061 12.2859 14.6971 12.3719 14.6609C12.4579 14.6246 12.5316 14.5627 12.5837 14.483C12.6358 14.4033 12.6639 14.3094 12.6645 14.2131C12.6649 14.1492 12.6532 14.0858 12.63 14.0266C12.6068 13.9674 12.5725 13.9135 12.5293 13.868C12.486 13.8225 12.4344 13.7863 12.3776 13.7614C12.3209 13.7366 12.2599 13.7236 12.1983 13.7232ZM12.3372 14.1747C12.3202 14.1751 12.3032 14.1721 12.2873 14.1657C12.2715 14.1593 12.2569 14.1498 12.2446 14.1376C12.2323 14.1254 12.2224 14.1108 12.2155 14.0946C12.2086 14.0785 12.2048 14.0611 12.2044 14.0434C12.2044 14.008 12.2175 13.9739 12.2411 13.9482C12.2647 13.9226 12.2969 13.9073 12.331 13.9057C12.3481 13.9053 12.365 13.9083 12.3809 13.9147C12.3968 13.9211 12.4113 13.9306 12.4237 13.9428C12.436 13.955 12.4459 13.9696 12.4528 13.9858C12.4597 14.0019 12.4634 14.0193 12.4638 14.037C12.4642 14.0543 12.4614 14.0714 12.4554 14.0875C12.4494 14.1036 12.4404 14.1183 12.4289 14.1308C12.4175 14.1433 12.4037 14.1533 12.3885 14.1603C12.3733 14.1673 12.3569 14.1711 12.3403 14.1715L12.3372 14.1747Z" fill="#10110E"/>
<path opacity="0.2" d="M9.97819 17.6492C12.3828 17.6492 14.3321 16.1924 14.3321 14.3954C14.3321 12.5984 12.3828 11.1416 9.97819 11.1416C7.57358 11.1416 5.62427 12.5984 5.62427 14.3954C5.62427 16.1924 7.57358 17.6492 9.97819 17.6492Z" fill="#8ACCCE"/>
<path d="M15.2492 12.5859V10.4338C15.4113 10.3954 15.5569 10.3028 15.6634 10.1703C15.77 10.0378 15.8316 9.87273 15.839 9.70037C15.8175 9.49208 15.7225 9.29939 15.5723 9.15936C15.4221 9.01933 15.2273 8.94186 15.0253 8.94186C14.8233 8.94186 14.6285 9.01933 14.4783 9.15936C14.3281 9.29939 14.2331 9.49208 14.2116 9.70037C14.2203 9.87328 14.2832 10.0385 14.3908 10.1709C14.4984 10.3033 14.6448 10.3956 14.8076 10.4338V12.5314H14.7458C14.1283 10.3089 12.3033 8.91895 9.91948 8.91895C7.53563 8.91895 5.70143 10.296 5.0962 12.5314H4.88931C4.66627 12.5209 4.44814 12.6015 4.28183 12.7561C4.11553 12.9106 4.01433 13.1266 4 13.3577V15.0038C4.01277 15.2358 4.1134 15.4531 4.27997 15.6085C4.44654 15.7638 4.66556 15.8446 4.88931 15.8333H5.17031C5.40613 16.4641 5.78662 17.0258 6.27886 17.4698L5.88052 17.8445C5.85638 17.8657 5.83651 17.8917 5.82205 17.9209C5.80758 17.9501 5.79881 17.9819 5.79623 18.0147C5.79365 18.0474 5.79731 18.0803 5.807 18.1115C5.8167 18.1428 5.83224 18.1718 5.85273 18.1968C6.75748 19.3273 8.23658 19.9902 9.90713 19.9902C11.5777 19.9902 13.0599 19.3497 13.9646 18.1968C14.0062 18.1457 14.0266 18.0797 14.0214 18.0131C14.0162 17.9465 13.9858 17.8847 13.9368 17.8413L13.5354 17.4602C14.0264 17.0189 14.4068 16.4606 14.6439 15.8333H14.9527C15.1767 15.8446 15.3958 15.7633 15.562 15.6071C15.7281 15.451 15.8278 15.2329 15.839 15.0006V13.3577C15.8335 13.1804 15.7733 13.0097 15.667 12.8707C15.5608 12.7317 15.4143 12.6318 15.2492 12.5859ZM9.91948 11.3049C12.1242 11.3049 13.9152 12.8101 13.9152 14.6579C13.9152 16.6595 11.905 17.5402 9.91948 17.5402C7.93397 17.5402 5.92375 16.6531 5.92375 14.6419C5.92375 12.8101 7.70546 11.2888 9.91948 11.2888V11.3049Z" fill="#E1E1E1"/>
<path d="M15.3975 14.4628H14.8077V14.1425C14.8077 13.7347 14.7673 13.328 14.6873 12.9288H14.9405C15.0506 12.9208 15.1592 12.9585 15.2426 13.0336C15.326 13.1086 15.3772 13.2149 15.3851 13.3291L15.3975 14.4628Z" fill="#515151"/>
<path d="M14.9528 15.4301H14.644C14.7027 15.2007 14.746 14.9675 14.7737 14.7319H15.3913V15.0042C15.3905 15.0605 15.379 15.1162 15.3575 15.1679C15.3359 15.2196 15.3048 15.2665 15.2658 15.3057C15.2268 15.345 15.1807 15.3759 15.1302 15.3967C15.0797 15.4175 15.0257 15.4277 14.9714 15.4269H14.9528V15.4301Z" fill="#515151"/>
<path d="M9.91937 19.5677C8.44027 19.5677 7.12174 19.0169 6.29419 18.0369L6.69561 17.6494C7.64457 18.3063 8.76652 18.6419 9.90702 18.6102C11.0479 18.6449 12.1707 18.309 13.1184 17.6494L13.5353 18.0369C12.717 19.0169 11.4108 19.5677 9.91937 19.5677Z" fill="#515151"/>
<path d="M4.88923 12.9448H5.1517C5.07415 13.3444 5.03485 13.751 5.03436 14.1586C5.02818 14.2653 5.02818 14.3722 5.03436 14.4789H4.46001V13.358C4.45835 13.2506 4.49767 13.147 4.5694 13.0696C4.64112 12.9922 4.73944 12.9473 4.84291 12.9448H4.88923Z" fill="#515151"/>
<path d="M9.91953 11.0136C9.41905 11.0165 8.92135 11.0909 8.44043 11.2346V9.55963C8.92173 9.41958 9.41966 9.35058 9.91953 9.35466C10.4204 9.35058 10.9194 9.41957 11.4017 9.55963V11.2442C10.9219 11.0891 10.4221 11.0114 9.91953 11.0136Z" fill="black"/>
<path d="M4.44474 14.7319H5.06232C5.09258 14.9652 5.13692 15.1962 5.19509 15.4237H4.88631C4.77619 15.4316 4.66753 15.3939 4.58418 15.3189C4.50082 15.2438 4.44956 15.1376 4.44165 15.0234V14.7319H4.44474Z" fill="#515151"/>
<path d="M15.0268 10.0462C15.2314 10.0462 15.3973 9.89139 15.3973 9.70037C15.3973 9.50935 15.2314 9.35449 15.0268 9.35449C14.8221 9.35449 14.6562 9.50935 14.6562 9.70037C14.6562 9.89139 14.8221 10.0462 15.0268 10.0462Z" fill="#515151"/>
</g>
<defs>
<clipPath id="clip0_3790_744">
<rect width="13" height="20" fill="white" transform="translate(4)"/>
</clipPath>
</defs>
</svg>
