<svg width="20" height="20" viewBox="0 0 20 20" fill="none" xmlns="http://www.w3.org/2000/svg">
<path d="M16.9334 4.25779L13.0957 8.85446L11.0728 6.56355L14.7976 2.40963C15.2902 1.86033 16.1226 1.78269 16.7082 2.23142C17.3458 2.71995 17.4482 3.64118 16.9334 4.25779Z" fill="#0774B6"/>
<path d="M5.12548 2.22787L11.8084 10.1091L5.03076 17.9106C4.51211 18.5076 3.60325 18.5594 3.02009 18.0252C2.45408 17.5068 2.40856 16.6302 2.91783 16.0559L8.19157 10.1091L2.90785 4.151C2.39649 3.57436 2.41821 2.70043 2.9576 2.14992C3.56231 1.53275 4.56666 1.56886 5.12548 2.22787Z" fill="#0774B6"/>
<path d="M17.1275 16.1845L13.2185 11.6362L11.3181 13.709L15.0724 17.9724C15.5713 18.539 16.4359 18.5917 16.9999 18.0898C17.5551 17.5959 17.6118 16.7481 17.1275 16.1845Z" fill="#0774B6"/>
</svg>
