<svg width="20" height="20" viewBox="0 0 20 20" fill="none" xmlns="http://www.w3.org/2000/svg">
<path d="M15.5364 14.1227L12.3878 12.1351C11.9455 11.8567 11.3799 12.0223 11.1239 12.5056C11.0247 12.6961 10.9858 12.9055 11.0046 13.1091V16.9937C11.0046 17.5489 11.4174 18 11.9268 18C12.4348 18 12.8476 17.5489 12.8476 16.9937V14.7599L14.6115 15.8732C15.0539 16.1529 15.6209 15.9859 15.8755 15.5026C16.1315 15.0192 15.9801 14.4011 15.5364 14.1227Z" fill="#29B5E8"/>
<path d="M6.99988 10.0037C7.00529 9.6433 6.83085 9.30792 6.54418 9.12699L3.3678 7.13239C3.22987 7.0456 3.07166 7 2.91345 7C2.58757 7 2.28467 7.18975 2.1224 7.49571C1.87089 7.96936 2.02099 8.57686 2.4564 8.85045L4.28731 9.99926L2.4564 11.1495C2.24545 11.2819 2.09401 11.4952 2.0318 11.7512C1.96825 12.0071 2.0007 12.2748 2.1224 12.5043C2.28467 12.8102 2.58757 13 2.9121 13C3.07166 13 3.22987 12.9544 3.3678 12.8676L6.54418 10.873C6.82815 10.6936 7.00258 10.3611 6.99988 10.0037Z" fill="#29B5E8"/>
<path d="M4.46152 5.88429L7.598 7.86441C7.96385 8.09659 8.41516 8.02065 8.70358 7.71254C8.8865 7.52855 9 7.2657 9 6.97365V3.00466C9 2.44976 8.58875 2 8.08269 2C7.5753 2 7.16405 2.44976 7.16405 3.00466V5.26368L5.38284 4.13928C4.94221 3.86037 4.37874 4.02538 4.1237 4.50727C3.86867 4.98915 4.02089 5.60538 4.46152 5.88429Z" fill="#29B5E8"/>
<path d="M12 10.1861C12 10.2674 11.9531 10.38 11.8952 10.4394L10.4394 11.8952C10.3815 11.9531 10.2674 12 10.1861 12H9.81548C9.73417 12 9.62002 11.9531 9.56216 11.8952L8.10477 10.4394C8.04691 10.38 8 10.2674 8 10.1861V9.81548C8 9.7326 8.04691 9.62002 8.10477 9.56216L9.56216 8.10477C9.62002 8.04691 9.73417 8 9.81548 8H10.1861C10.2674 8 10.3815 8.04691 10.4394 8.10477L11.8952 9.56216C11.9531 9.62002 12 9.7326 12 9.81548V10.1861ZM10.7005 10.0078V9.99218C10.7005 9.93276 10.6661 9.84988 10.6239 9.8061L10.1939 9.37764C10.1517 9.33385 10.0688 9.29945 10.0078 9.29945H9.99218C9.93276 9.29945 9.84988 9.33385 9.8061 9.37764L9.37764 9.8061C9.33542 9.84832 9.30102 9.9312 9.30102 9.99218V10.0078C9.30102 10.0688 9.33542 10.1517 9.37764 10.1939L9.8061 10.6239C9.84988 10.6661 9.93276 10.7005 9.99218 10.7005H10.0078C10.0688 10.7005 10.1517 10.6661 10.1939 10.6239L10.6239 10.1939C10.6661 10.1517 10.7005 10.0688 10.7005 10.0078Z" fill="#29B5E8"/>
<path d="M12.3877 7.86434L15.5366 5.88425C15.979 5.60681 16.1318 4.98912 15.8758 4.50724C15.6198 4.02536 15.054 3.86035 14.6117 4.13926L12.8475 5.24904V3.00465C12.8475 2.44976 12.4346 2 11.9265 2C11.4171 2 11.0042 2.44976 11.0042 3.00465V6.89474C10.9868 7.09625 11.023 7.30653 11.1235 7.49636C11.3796 7.97824 11.9453 8.14325 12.3877 7.86434Z" fill="#29B5E8"/>
<path d="M8.2269 12.0178C8.0186 11.9739 7.79561 12.0105 7.598 12.135L4.46152 14.1227C4.02089 14.401 3.86867 15.0192 4.1237 15.5025C4.37874 15.9874 4.94221 16.1529 5.38284 15.8731L7.16405 14.7453V16.9937C7.16405 17.5488 7.5753 18 8.08269 18C8.58875 18 9 17.5488 9 16.9937V13.0124C9 12.51 8.66486 12.094 8.2269 12.0178Z" fill="#29B5E8"/>
<path d="M17.8755 7.50466C17.6208 7.02169 17.0538 6.85681 16.6114 7.1355L13.4626 9.11407C13.161 9.30375 12.9948 9.65102 13.0001 10.0041C12.9974 10.3558 13.1637 10.6987 13.4626 10.8854L16.6114 12.8655C17.0538 13.1427 17.6195 12.9778 17.8755 12.4963C18.1316 12.0148 17.9787 11.3991 17.5364 11.1204L15.7535 9.99975L17.5364 8.87915C17.9801 8.60192 18.1316 7.98617 17.8755 7.50466Z" fill="#29B5E8"/>
</svg>
