<svg width="20" height="20" viewBox="0 0 20 20" fill="none" xmlns="http://www.w3.org/2000/svg">
<path d="M5.24286 4.32007H2.8L5.24286 9.5915L1 15.2486H3.57143L6.27143 11.2629L7.81429 15.2486H10.3857L7.81429 9.5915L11.5429 4.32007H9.22857L6.65714 7.92007L5.24286 4.32007Z" fill="#1A9EDB"/>
<path d="M19 4.41365V6.59937C17.0714 5.5708 13.8572 4.96297 13.4714 9.20583C13.0857 13.4487 14.3714 13.3201 15.6572 13.3201C16.9429 13.3201 17.0714 11.6487 16.9429 10.7487H15.6572V9.07725H19L18.4857 14.4773C15.5286 15.763 10.5143 16.4058 11.2857 9.20583C11.9028 3.44583 16.6 3.59937 19 4.41365Z" fill="#1A9EDB"/>
</svg>
