<svg width="20" height="20" viewBox="0 0 20 20" fill="none" xmlns="http://www.w3.org/2000/svg">
<path fill-rule="evenodd" clip-rule="evenodd" d="M3 2C2.44772 2 2 2.44772 2 3V17C2 17.5523 2.44772 18 3 18H17C17.5523 18 18 17.5523 18 17V3C18 2.44772 17.5523 2 17 2H3ZM5.5741 9.87038V8.15386H7.39658V13.0769H5.5741V10.6154H5.05339V13.0769H3.2309V11.1881V9.55037V9.54545V8.15386H5.05339V9.87038H5.5741ZM12.083 13.0769H7.91729V8.15386H12.083V10.6154H9.73978V12.3385H10.2605V11.1077H12.083V13.0769ZM9.73978 8.89232V9.87694H10.2605V8.89232H9.73978ZM14.9469 8.15386V9.87694H14.4262V8.15386H12.6037V9.38463L13.3847 10.2462L12.6037 11.1077V13.0769H14.4262V10.6088H14.9469V13.0769H16.7694V11.1077L15.9883 10.2462L16.7694 9.38463V8.15386H14.9469Z" fill="#7660D9"/>
</svg>
