<svg width="20" height="20" viewBox="0 0 20 20" fill="none" xmlns="http://www.w3.org/2000/svg">
<path d="M10.1696 2C9.65357 2 9.17871 2.28546 8.93442 2.7411C8.69288 3.19674 8.72033 3.7512 9.00853 4.17939L9.6069 3.58376C9.58769 3.52338 9.57671 3.46299 9.57671 3.39986C9.57671 3.07323 9.84021 2.80972 10.1668 2.80972C10.4935 2.80972 10.757 3.07323 10.757 3.39986C10.757 3.72649 10.4935 3.99 10.1668 3.99C10.1037 3.99 10.0433 3.97902 9.98295 3.9598L9.38457 4.55543C9.88139 4.89305 10.5374 4.87383 11.015 4.51151C11.4926 4.1492 11.6847 3.52063 11.4926 2.95245C11.3032 2.38153 10.768 2 10.1696 2Z" fill="#34A853"/>
<path d="M9.61249 6.07613C9.61249 5.60402 9.46153 5.14289 9.17607 4.76685L8.40203 5.54089C8.64357 5.98555 8.55848 6.53451 8.19067 6.88311L8.61338 7.91242C9.23371 7.50893 9.61249 6.81723 9.61249 6.07613Z" fill="#FBBC04"/>
<path d="M7.44422 7.18765H7.42501C6.95015 7.18765 6.52745 6.88572 6.37374 6.43557C6.22003 5.98542 6.36825 5.4886 6.74429 5.19491C7.12033 4.90121 7.6391 4.882 8.0371 5.1455L8.80566 4.37695C8.05906 3.77034 7.00505 3.72368 6.20631 4.26167C5.40756 4.79965 5.05622 5.79328 5.3362 6.7128C5.61617 7.63231 6.46432 8.26088 7.42501 8.26088C7.57323 8.26088 7.72145 8.24715 7.86693 8.21696L7.44422 7.18765Z" fill="#EA4335"/>
<path d="M10.1971 8.07715C9.71129 8.07715 9.2282 8.14851 8.76432 8.28576L9.37916 9.78717C9.64541 9.7213 9.91989 9.68836 10.1971 9.68836C11.7946 9.68836 13.167 10.8165 13.4799 12.3838C13.7901 13.9511 12.9529 15.5184 11.479 16.1277C10.005 16.7371 8.30319 16.221 7.41661 14.8953C6.53003 13.5695 6.70021 11.7991 7.82834 10.6683C8.06439 10.4322 8.33338 10.2346 8.62708 10.0781L8.02047 8.5822C5.75599 9.69111 4.68277 12.3234 5.52817 14.7004C6.37358 17.0774 8.86588 18.4416 11.3225 17.8707C13.7791 17.3025 15.4178 14.9804 15.1323 12.4744C14.8469 9.96833 12.7251 8.07715 10.2026 8.07715H10.1971Z" fill="#4285F4"/>
</svg>
