<svg width="20" height="20" viewBox="0 0 20 20" fill="none" xmlns="http://www.w3.org/2000/svg">
<path fill-rule="evenodd" clip-rule="evenodd" d="M5.27885 3.1439C5.28648 3.14823 5.28947 3.14981 5.28913 3.14964C5.58072 3.30379 5.85393 3.36159 6.19309 3.40898C6.24785 3.41663 6.30595 3.42411 6.36696 3.43196C6.66942 3.47089 7.04341 3.51903 7.43709 3.6431C8.07731 3.84487 8.68385 4.30723 9.12041 4.64001C9.1719 4.67926 9.22102 4.7167 9.26755 4.7517C9.95978 5.27239 10.556 5.87787 11.0699 6.57709C11.0982 6.61561 11.1275 6.65517 11.1575 6.69573C11.5389 7.21149 12.0406 7.88986 12.2526 8.66535C12.3821 9.13933 12.5468 9.58142 12.724 10.0571C12.7946 10.2466 12.8672 10.4414 12.9403 10.6457C13.0122 10.8465 13.0817 11.0725 13.1449 11.2781C13.1773 11.3837 13.2081 11.4839 13.2368 11.5726C13.2425 11.5802 13.2557 11.5966 13.2816 11.6213C13.3395 11.6765 13.4317 11.7459 13.5669 11.8281C13.8397 11.9939 14.2037 12.1622 14.623 12.347C14.6956 12.379 14.7699 12.4115 14.8453 12.4445C15.1884 12.5946 15.5532 12.7542 15.8777 12.9182C16.2603 13.1115 16.6737 13.3519 16.9534 13.6562C17.0524 13.764 17.2367 14.0036 17.2023 14.3413C17.1652 14.7061 16.9081 14.894 16.7796 14.9662C16.6417 15.0436 16.4938 15.0822 16.3841 15.1045C16.2654 15.1286 16.1402 15.1434 16.0222 15.1531C16.0184 15.1534 16.0145 15.1537 16.0107 15.154C16.2078 15.2839 16.4049 15.4294 16.5843 15.5952C16.8403 15.8317 17.0851 16.0961 17.3084 16.3372C17.3907 16.4261 17.4701 16.5118 17.546 16.5918L18 17.0701L17.0662 18L16.6122 17.5217C16.5116 17.4158 16.4181 17.3148 16.3281 17.2176C16.1184 16.9911 15.9278 16.7852 15.7119 16.5857C15.4611 16.354 15.1765 16.1893 14.8241 15.9854C14.7298 15.9308 14.6307 15.8734 14.526 15.8112C14.4177 15.7468 14.3193 15.6863 14.2259 15.6289C14.0573 15.5252 13.905 15.4316 13.7401 15.3431C13.713 15.333 13.6757 15.3176 13.6362 15.2963C13.608 15.281 13.549 15.2473 13.4874 15.1898C13.4391 15.1447 13.2911 14.9949 13.2712 14.7402C13.2475 14.4377 13.4165 14.2398 13.5191 14.1557C13.6127 14.079 13.7053 14.0455 13.7449 14.0323C14.0404 13.9336 14.4039 13.8978 14.6486 13.8737C14.6915 13.8695 14.7308 13.8656 14.7654 13.8618C14.6298 13.801 14.4898 13.7397 14.3468 13.6771C14.2681 13.6427 14.1885 13.6078 14.1081 13.5724C13.6949 13.3902 13.2573 13.1912 12.9024 12.9754C12.7237 12.8669 12.5454 12.742 12.394 12.5976C12.2458 12.4563 12.0887 12.2635 12.0069 12.0123C11.9607 11.8702 11.9222 11.7443 11.8859 11.6252C11.8315 11.4474 11.7818 11.2846 11.7175 11.1049C11.6573 10.9368 11.5927 10.7635 11.5266 10.586C11.3419 10.0904 11.1452 9.56226 10.9984 9.02505C10.8556 8.50276 10.497 8.01526 10.0758 7.44259C10.0604 7.42166 10.0449 7.40061 10.0293 7.37944C9.59117 6.78325 9.08557 6.26996 8.49661 5.82695C8.44943 5.79146 8.40282 5.75623 8.35673 5.7214C7.88335 5.36365 7.46541 5.0478 7.05405 4.91816C6.77781 4.8311 6.53346 4.7991 6.23717 4.76029C6.16708 4.75111 6.09408 4.74155 6.01706 4.73079C5.62738 4.67635 5.18037 4.5934 4.69177 4.33511C4.6354 4.3053 4.52039 4.23622 4.38993 4.15786C4.33784 4.12656 4.28328 4.09379 4.22901 4.06145C4.08346 3.97472 3.91713 3.87698 3.74614 3.78085C3.78253 3.83392 3.82061 3.88819 3.86021 3.94354C4.02291 4.17094 4.19407 4.39333 4.35923 4.60794C4.41448 4.67973 4.46906 4.75066 4.52243 4.8206C4.7087 5.06472 4.93103 5.35928 5.03424 5.59003C5.13576 5.81699 5.26609 6.18166 5.39613 6.54552C5.4491 6.69374 5.50202 6.84182 5.55293 6.9804C5.6465 7.23512 5.73773 7.47179 5.823 7.66517C5.86551 7.76159 5.90368 7.84068 5.93699 7.90212C5.95347 7.93252 5.96732 7.95592 5.97841 7.97324C5.98982 7.99107 5.9957 7.99836 5.99567 7.99833L6.10987 8.13737L6.13945 8.31653C6.22504 8.83501 6.17502 9.3619 6.12024 9.80976C6.10796 9.91014 6.09555 10.0062 6.08361 10.0986C6.03828 10.4494 5.9996 10.7488 5.9996 11.0406C5.9996 11.3869 6.098 11.7636 6.21431 12.2088C6.23046 12.2707 6.24696 12.3338 6.26358 12.3984C6.27117 12.4279 6.28885 12.4806 6.31779 12.5421C6.3346 12.5778 6.35268 12.6111 6.37093 12.6405C6.37327 12.637 6.37566 12.6333 6.3781 12.6294C6.43778 12.5355 6.49672 12.3787 6.54311 12.1499C6.61165 11.812 6.63 11.4663 6.64762 11.1344C6.65503 10.9948 6.66231 10.8577 6.67314 10.7246L6.67318 10.7241C6.67361 10.7188 6.67519 10.6993 6.67842 10.6766L6.67853 10.6758C6.67966 10.6678 6.68505 10.6294 6.69828 10.5832L6.69863 10.582C6.70349 10.5649 6.72502 10.4894 6.77747 10.4068C6.81152 10.3582 6.91874 10.2479 6.99621 10.1938C7.12284 10.1359 7.40921 10.1093 7.5553 10.1472C7.65721 10.1977 7.80035 10.3162 7.84598 10.3723C7.87163 10.4103 7.90839 10.4771 7.92091 10.5049C7.94326 10.5576 7.95371 10.6014 7.95715 10.6161C7.96526 10.6508 7.96885 10.6789 7.9698 10.6864L7.96984 10.6867C7.97232 10.7062 7.97361 10.7229 7.97399 10.7279L7.97402 10.7283L7.97926 10.8071C7.98359 10.8684 7.99205 10.9685 8.01046 11.0987C8.04752 11.3607 8.12446 11.7406 8.28641 12.1602C8.60687 12.9904 9.25553 13.9722 10.6177 14.5303L11.2223 14.778L10.7386 16.0166L10.134 15.7689C8.76413 15.2077 7.93351 14.2978 7.43368 13.4117C7.2382 13.6959 6.94668 13.9415 6.5375 14.024C5.96897 14.1386 5.57329 13.7627 5.3905 13.5273C5.19175 13.2713 5.06215 12.9637 5.00419 12.7386C4.99033 12.6847 4.97519 12.6276 4.9593 12.5676C4.84699 12.1437 4.69715 11.5782 4.69715 11.0406C4.69715 10.6515 4.75079 10.24 4.79757 9.88113C4.80828 9.799 4.81863 9.71963 4.82789 9.64391C4.87378 9.26872 4.89833 8.95454 4.873 8.67875C4.78152 8.53122 4.7022 8.36442 4.63599 8.21426C4.53313 7.98098 4.43016 7.71219 4.33391 7.45019C4.26719 7.26854 4.20492 7.09422 4.14721 6.93266C4.02874 6.60096 3.92946 6.32301 3.85016 6.14572C3.85016 6.14572 3.84837 6.14181 3.84387 6.13349C3.83916 6.12478 3.83248 6.11306 3.82336 6.09805C3.80485 6.06758 3.77985 6.02934 3.74738 5.98249C3.6819 5.88799 3.59743 5.77474 3.49621 5.64209C3.44956 5.58095 3.39945 5.51584 3.34702 5.44773C3.17901 5.22945 2.98726 4.98032 2.80966 4.7321C2.57859 4.40914 2.34052 4.04596 2.18613 3.69858C2.10872 3.5244 2.0392 3.32559 2.0121 3.11797C1.98479 2.90883 1.99544 2.64647 2.13154 2.39556C2.34436 2.00319 2.7458 1.99536 2.86766 2.0009C3.02884 2.00822 3.18673 2.05432 3.3076 2.09648C3.5613 2.18498 3.8563 2.33089 4.12306 2.47401C4.39649 2.62071 4.66894 2.7802 4.88399 2.90835C4.95441 2.95032 5.02088 2.99025 5.07851 3.02487C5.10804 3.04261 5.13526 3.05895 5.15949 3.07347C5.19635 3.09554 5.22649 3.11348 5.25039 3.12746L5.27885 3.1439Z" fill="#007AAE"/>
</svg>
