<svg width="20" height="20" viewBox="0 0 20 20" fill="none" xmlns="http://www.w3.org/2000/svg">
<path fill-rule="evenodd" clip-rule="evenodd" d="M18 2.41276C18 2.18466 17.8153 2 17.5872 2H2.41276C2.18466 2 2 2.18466 2 2.41276V17.5872C2 17.8153 2.18466 18 2.41276 18H17.5872C17.8153 18 18 17.8153 18 17.5872V2.41276ZM8.90776 9.13057L7.53912 12.601C7.5228 12.6445 7.48481 12.6716 7.4359 12.6716H6.62126C6.57778 12.6716 6.53435 12.6445 6.51807 12.601L5.15485 9.174V12.563C5.15485 12.6227 5.10597 12.6716 5.04623 12.6716H4.13924C4.07949 12.6716 4.03061 12.6227 4.03061 12.563V7.4415C4.03061 7.38175 4.07949 7.33288 4.13924 7.33288H5.50787C5.55132 7.33288 5.58934 7.36003 5.61106 7.39803L7.05031 10.9391L8.41895 7.40347C8.43523 7.36003 8.47326 7.33288 8.52213 7.33288H9.97224C10.032 7.33288 10.0809 7.38175 10.0809 7.4415V12.563C10.0809 12.6227 10.032 12.6716 9.97224 12.6716H9.02178C8.96207 12.6716 8.91316 12.6227 8.91316 12.563L8.90776 9.13057ZM15.8594 12.1776C16.0658 11.9875 16.2341 11.7811 16.3428 11.5584C16.4134 11.436 16.4799 11.2484 16.5282 11.1121C16.5356 11.0912 16.5426 11.0714 16.5491 11.0533C16.5708 10.999 16.5383 10.9339 16.4785 10.9176L15.6096 10.6677C15.5552 10.6514 15.4955 10.6786 15.4792 10.7329C15.4521 10.809 15.4141 10.8904 15.3651 10.9827C15.3 11.1076 15.2131 11.2271 15.0882 11.3412C14.9741 11.4498 14.8221 11.5421 14.6428 11.6181C14.4582 11.6942 14.2409 11.7268 13.9965 11.7268C13.7793 11.7268 13.5675 11.6888 13.372 11.6128C13.171 11.5367 12.9972 11.4227 12.8397 11.2814C12.6876 11.1348 12.5682 10.9556 12.4758 10.7438C12.3835 10.5374 12.34 10.2984 12.34 10.0269C12.34 9.72271 12.3835 9.46747 12.4813 9.23934C12.579 9.01126 12.7039 8.832 12.8614 8.69082C13.0189 8.54417 13.1981 8.43554 13.3937 8.35951C13.5838 8.28348 13.7793 8.25633 13.9748 8.25633C14.2355 8.25633 14.4473 8.29432 14.6211 8.37035C14.8003 8.44098 14.947 8.53329 15.061 8.64735C15.1805 8.75597 15.262 8.87004 15.3217 8.99494C15.3651 9.08185 15.3977 9.15787 15.4249 9.22846C15.4466 9.28278 15.5064 9.30993 15.5607 9.29365L16.4242 9.01665C16.4785 8.99494 16.5111 8.93519 16.4948 8.88088C16.4459 8.72338 16.3808 8.54961 16.2776 8.37579C16.1635 8.15854 16.006 7.96305 15.7996 7.7784C15.5878 7.58831 15.3272 7.44165 15.0339 7.32219C14.7297 7.20269 14.3767 7.14293 13.964 7.14293C13.5892 7.14293 13.2253 7.21356 12.8777 7.34934C12.5356 7.49052 12.2423 7.68605 11.9816 7.9359C11.7263 8.1857 11.5254 8.48441 11.3679 8.84288C11.2538 9.09812 11.1886 9.37512 11.1615 9.67384C11.1398 9.78246 11.1398 9.89653 11.1398 10.0105C11.1398 10.1137 11.1452 10.217 11.1561 10.3201C11.1832 10.6243 11.2592 10.9176 11.3679 11.1783C11.52 11.5258 11.7154 11.83 11.9707 12.0744C12.226 12.3242 12.5247 12.5197 12.8723 12.6555C13.2145 12.7859 13.5838 12.8564 13.9802 12.8564H13.9911C14.4147 12.8564 14.7786 12.7859 15.0882 12.661C15.3977 12.5252 15.6476 12.3676 15.8594 12.1776Z" fill="#1094DE"/>
</svg>
