<svg width="20" height="20" viewBox="0 0 20 20" fill="none" xmlns="http://www.w3.org/2000/svg">
<path d="M10.0783 3.38997C10.4187 3.30883 10.6296 2.96438 10.5492 2.62062C10.4689 2.27685 10.1278 2.06395 9.78732 2.14508C9.44688 2.22622 9.23604 2.57067 9.31639 2.91444C9.39674 3.2582 9.73786 3.47111 10.0783 3.38997Z" fill="#72BF00"/>
<path d="M10.0768 17.8514C10.4173 17.7703 10.6281 17.4258 10.5478 17.082C10.4674 16.7383 10.1263 16.5254 9.78586 16.6065C9.44542 16.6876 9.23457 17.0321 9.31492 17.3759C9.39528 17.7196 9.7364 17.9325 10.0768 17.8514Z" fill="#72BF00"/>
<path d="M15.4483 5.347C15.6956 5.09724 15.6956 4.69231 15.4483 4.44255C15.201 4.19279 14.7999 4.19279 14.5526 4.44255C14.3052 4.69231 14.3052 5.09724 14.5526 5.347C14.7999 5.59676 15.201 5.59676 15.4483 5.347Z" fill="#72BF00"/>
<path d="M15.1445 15.7303C15.4849 15.6492 15.6958 15.3047 15.6154 14.9609C15.5351 14.6172 15.1939 14.4043 14.8535 14.4854C14.513 14.5666 14.3022 14.911 14.3826 15.2548C14.4629 15.5985 14.804 15.8114 15.1445 15.7303Z" fill="#72BF00"/>
<path d="M5.31549 15.5589C5.56283 15.3092 5.56283 14.9042 5.31549 14.6545C5.06815 14.4047 4.66712 14.4047 4.41978 14.6545C4.17244 14.9042 4.17244 15.3092 4.41978 15.5589C4.66712 15.8087 5.06815 15.8087 5.31549 15.5589Z" fill="#72BF00"/>
<path d="M2.90741 10.6314C3.24785 10.5503 3.45869 10.2058 3.37834 9.86207C3.29799 9.5183 2.95687 9.3054 2.61643 9.38654C2.27598 9.46767 2.06514 9.81213 2.14549 10.1559C2.22584 10.4997 2.56696 10.7126 2.90741 10.6314Z" fill="#72BF00"/>
<path d="M17.5521 10.462C17.7994 10.2122 17.7994 9.8073 17.5521 9.55754C17.3047 9.30778 16.9037 9.30778 16.6564 9.55754C16.409 9.8073 16.409 10.2122 16.6564 10.462C16.9037 10.7118 17.3047 10.7118 17.5521 10.462Z" fill="#72BF00"/>
<path d="M5.31549 5.32918C5.56283 5.07942 5.56283 4.67448 5.31549 4.42473C5.06815 4.17497 4.66712 4.17497 4.41978 4.42473C4.17244 4.67448 4.17244 5.07942 4.41978 5.32918C4.66712 5.57894 5.06815 5.57894 5.31549 5.32918Z" fill="#72BF00"/>
<path d="M9.93243 4.25366C9.84918 4.25366 9.76674 4.27024 9.68983 4.30244C9.61293 4.33464 9.54306 4.38183 9.48424 4.44132C9.42541 4.50081 9.37878 4.57143 9.34701 4.64913C9.31523 4.72684 9.29894 4.81011 9.29907 4.89417V7.44125V7.45043C9.29674 7.53586 9.3114 7.6209 9.34217 7.70052C9.37294 7.78013 9.41921 7.85272 9.47823 7.91397C9.53725 7.97523 9.60783 8.02392 9.6858 8.05717C9.76377 8.09042 9.84755 8.10755 9.93219 8.10755C10.0168 8.10755 10.1006 8.09042 10.1786 8.05717C10.2566 8.02392 10.3271 7.97523 10.3862 7.91397C10.4452 7.85272 10.4914 7.78013 10.5222 7.70052C10.553 7.6209 10.5676 7.53586 10.5653 7.45043V7.43304V4.88645C10.5636 4.71809 10.4961 4.55722 10.3776 4.43875C10.2591 4.32029 10.0992 4.25378 9.93243 4.25366Z" fill="#72BF00"/>
<path d="M9.93243 11.9277C9.84921 11.9275 9.76676 11.944 9.68983 11.976C9.6129 12.0081 9.543 12.0552 9.48415 12.1146C9.4253 12.1741 9.37866 12.2446 9.3469 12.3223C9.31513 12.4 9.29888 12.4832 9.29907 12.5673V15.1158V15.1332C9.29674 15.2186 9.3114 15.3037 9.34217 15.3833C9.37294 15.4629 9.41921 15.5355 9.47823 15.5967C9.53725 15.658 9.60783 15.7067 9.6858 15.7399C9.76377 15.7732 9.84755 15.7903 9.93219 15.7903C10.0168 15.7903 10.1006 15.7732 10.1786 15.7399C10.2566 15.7067 10.3271 15.658 10.3862 15.5967C10.4452 15.5355 10.4914 15.4629 10.5222 15.3833C10.553 15.3037 10.5676 15.2186 10.5653 15.1332V15.1158V12.5673C10.5655 12.4833 10.5493 12.4001 10.5175 12.3224C10.4858 12.2448 10.4392 12.1742 10.3804 12.1148C10.3216 12.0554 10.2518 12.0083 10.1749 11.9762C10.098 11.9441 10.0156 11.9276 9.93243 11.9277Z" fill="#72BF00"/>
<path d="M8.66752 9.37011H4.8683C4.78369 9.36777 4.69947 9.38256 4.62063 9.41364C4.54178 9.44471 4.4699 9.49142 4.40923 9.55102C4.34857 9.61062 4.30035 9.68189 4.26742 9.76062C4.23449 9.83935 4.21753 9.92395 4.21753 10.0094C4.21753 10.0949 4.23449 10.1795 4.26742 10.2582C4.30035 10.3369 4.34857 10.4082 4.40923 10.4678C4.4699 10.5274 4.54178 10.5741 4.62063 10.6052C4.69947 10.6363 4.78369 10.6511 4.8683 10.6487H8.66752C8.83242 10.6441 8.98905 10.5748 9.10408 10.4554C9.21912 10.336 9.28348 10.176 9.28348 10.0094C9.28348 9.84285 9.21912 9.68284 9.10408 9.56345C8.98905 9.44406 8.83242 9.37469 8.66752 9.37011Z" fill="#72BF00"/>
<path d="M14.9998 10.6487C15.0844 10.6511 15.1686 10.6363 15.2475 10.6052C15.3263 10.5741 15.3982 10.5274 15.4589 10.4678C15.5195 10.4082 15.5677 10.3369 15.6007 10.2582C15.6336 10.1795 15.6506 10.0949 15.6506 10.0094C15.6506 9.92395 15.6336 9.83935 15.6007 9.76062C15.5677 9.68189 15.5195 9.61062 15.4589 9.55102C15.3982 9.49142 15.3263 9.44471 15.2475 9.41364C15.1686 9.38256 15.0844 9.36777 14.9998 9.37011H11.2006C11.116 9.36777 11.0317 9.38256 10.9529 9.41364C10.8741 9.44471 10.8022 9.49142 10.7415 9.55102C10.6808 9.61062 10.6326 9.68189 10.5997 9.76062C10.5668 9.83935 10.5498 9.92395 10.5498 10.0094C10.5498 10.0949 10.5668 10.1795 10.5997 10.2582C10.6326 10.3369 10.6808 10.4082 10.7415 10.4678C10.8022 10.5274 10.8741 10.5741 10.9529 10.6052C11.0317 10.6363 11.116 10.6511 11.2006 10.6487H14.9998Z" fill="#72BF00"/>
<path d="M12.4668 8.0916C12.5501 8.0918 12.6327 8.07535 12.7097 8.04322C12.7866 8.01109 12.8566 7.9639 12.9154 7.90437C12.9743 7.84484 13.0209 7.77415 13.0526 7.69636C13.0843 7.61857 13.1005 7.53521 13.1002 7.45109V7.4337V3.22593C13.1035 3.13979 13.0896 3.05386 13.0592 2.97328C13.0288 2.89271 12.9827 2.81916 12.9235 2.75703C12.8643 2.6949 12.7933 2.64547 12.7148 2.61171C12.6362 2.57795 12.5517 2.56055 12.4663 2.56055C12.381 2.56055 12.2965 2.57795 12.2179 2.61171C12.1394 2.64547 12.0684 2.6949 12.0092 2.75703C11.95 2.81916 11.9039 2.89271 11.8735 2.97328C11.8431 3.05386 11.8292 3.13979 11.8325 3.22593V7.43515V7.45254C11.8325 7.53661 11.8489 7.61985 11.8808 7.69751C11.9127 7.77516 11.9594 7.84571 12.0184 7.90511C12.0773 7.96451 12.1472 8.0116 12.2242 8.04368C12.3011 8.07577 12.3836 8.09222 12.4668 8.09209V8.0916Z" fill="#72BF00"/>
<path d="M7.3836 11.9277C7.30037 11.9275 7.21793 11.944 7.141 11.976C7.06407 12.0081 6.99417 12.0552 6.93532 12.1146C6.87647 12.1741 6.82982 12.2446 6.79806 12.3223C6.7663 12.4 6.75005 12.4832 6.75023 12.5673V16.7775V16.7934C6.74692 16.8796 6.76086 16.9655 6.79122 17.0461C6.82158 17.1266 6.86773 17.2002 6.92692 17.2623C6.9861 17.3244 7.0571 17.3739 7.13565 17.4076C7.21421 17.4414 7.2987 17.4588 7.38408 17.4588C7.46945 17.4588 7.55395 17.4414 7.6325 17.4076C7.71105 17.3739 7.78205 17.3244 7.84123 17.2623C7.90042 17.2002 7.94657 17.1266 7.97693 17.0461C8.00729 16.9655 8.02123 16.8796 8.01792 16.7934V16.7775V12.5673C8.01792 12.4832 8.0015 12.4 7.96961 12.3223C7.93773 12.2447 7.89099 12.1741 7.83207 12.1147C7.77316 12.0553 7.70322 12.0082 7.62627 11.9761C7.54932 11.9441 7.46685 11.9276 7.3836 11.9277Z" fill="#72BF00"/>
<path d="M3.21828 8.07547H7.40115C7.565 8.06904 7.72001 7.99879 7.83368 7.87947C7.94735 7.76014 8.01084 7.601 8.01084 7.43544C8.01084 7.26987 7.94735 7.11073 7.83368 6.9914C7.72001 6.87208 7.565 6.80183 7.40115 6.7954H3.21828C3.13297 6.79206 3.04787 6.80613 2.96807 6.83679C2.88828 6.86745 2.81544 6.91405 2.75391 6.97381C2.69238 7.03358 2.64343 7.10527 2.61 7.18459C2.57656 7.26391 2.55933 7.34923 2.55933 7.43544C2.55933 7.52164 2.57656 7.60696 2.61 7.68628C2.64343 7.7656 2.69238 7.83729 2.75391 7.89706C2.81544 7.95682 2.88828 8.00342 2.96807 8.03408C3.04787 8.06474 3.13297 8.07881 3.21828 8.07547Z" fill="#72BF00"/>
<path d="M16.6519 11.9277H12.4662C12.3816 11.9254 12.2974 11.9402 12.2185 11.9713C12.1397 12.0023 12.0678 12.049 12.0071 12.1086C11.9465 12.1682 11.8982 12.2395 11.8653 12.3182C11.8324 12.397 11.8154 12.4816 11.8154 12.567C11.8154 12.6525 11.8324 12.7371 11.8653 12.8158C11.8982 12.8946 11.9465 12.9658 12.0071 13.0254C12.0678 13.085 12.1397 13.1317 12.2185 13.1628C12.2974 13.1939 12.3816 13.2087 12.4662 13.2063H16.6519C16.7366 13.2087 16.8208 13.1939 16.8996 13.1628C16.9785 13.1317 17.0503 13.085 17.111 13.0254C17.1717 12.9658 17.2199 12.8946 17.2528 12.8158C17.2857 12.7371 17.3027 12.6525 17.3027 12.567C17.3027 12.4816 17.2857 12.397 17.2528 12.3182C17.2199 12.2395 17.1717 12.1682 17.111 12.1086C17.0503 12.049 16.9785 12.0023 16.8996 11.9713C16.8208 11.9402 16.7366 11.9254 16.6519 11.9277Z" fill="#72BF00"/>
<path d="M7.40067 5.5339C7.4839 5.53409 7.56634 5.51768 7.64327 5.48561C7.7202 5.45354 7.79009 5.40643 7.84895 5.34701C7.9078 5.28758 7.95444 5.217 7.9862 5.13932C8.01797 5.06165 8.03422 4.97839 8.03403 4.89435V4.87697V3.22593C8.03734 3.13979 8.02341 3.05386 7.99305 2.97328C7.96269 2.89271 7.91653 2.81916 7.85735 2.75703C7.79816 2.6949 7.72716 2.64547 7.64861 2.61171C7.57006 2.57795 7.48556 2.56055 7.40019 2.56055C7.31481 2.56055 7.23032 2.57795 7.15177 2.61171C7.07321 2.64547 7.00222 2.6949 6.94303 2.75703C6.88385 2.81916 6.83769 2.89271 6.80733 2.97328C6.77697 3.05386 6.76303 3.13979 6.76635 3.22593V4.87745V4.89484C6.76635 4.97891 6.78276 5.06215 6.81465 5.13981C6.84654 5.21746 6.89328 5.28801 6.95219 5.34741C7.01111 5.40681 7.08104 5.4539 7.15799 5.48598C7.23495 5.51806 7.31741 5.53451 7.40067 5.53438V5.5339Z" fill="#72BF00"/>
<path d="M4.86674 13.2068C5.03059 13.2004 5.1856 13.1301 5.29927 13.0108C5.41294 12.8915 5.47643 12.7323 5.47643 12.5668C5.47643 12.4012 5.41294 12.2421 5.29927 12.1228C5.1856 12.0034 5.03059 11.9332 4.86674 11.9268H3.21828C3.13297 11.9234 3.04787 11.9375 2.96807 11.9681C2.88828 11.9988 2.81544 12.0454 2.75391 12.1052C2.69238 12.1649 2.64343 12.2366 2.61 12.3159C2.57656 12.3953 2.55933 12.4806 2.55933 12.5668C2.55933 12.653 2.57656 12.7383 2.61 12.8176C2.64343 12.8969 2.69238 12.9686 2.75391 13.0284C2.81544 13.0882 2.88828 13.1348 2.96807 13.1654C3.04787 13.1961 3.13297 13.2102 3.21828 13.2068H4.86674Z" fill="#72BF00"/>
<path d="M14.9979 8.0916H16.6507C16.8156 8.08702 16.9722 8.01765 17.0873 7.89826C17.2023 7.77887 17.2667 7.61886 17.2667 7.45229C17.2667 7.28571 17.2023 7.12571 17.0873 7.00632C16.9722 6.88693 16.8156 6.81756 16.6507 6.81299H14.9979C14.9133 6.81064 14.8291 6.82544 14.7503 6.85651C14.6714 6.88758 14.5995 6.93429 14.5389 6.99389C14.4782 7.05349 14.43 7.12476 14.3971 7.20349C14.3641 7.28223 14.3472 7.36682 14.3472 7.45229C14.3472 7.53776 14.3641 7.62235 14.3971 7.70109C14.43 7.77982 14.4782 7.85109 14.5389 7.91069C14.5995 7.97029 14.6714 8.017 14.7503 8.04807C14.8291 8.07914 14.9133 8.09394 14.9979 8.0916Z" fill="#72BF00"/>
<path d="M12.4664 14.468C12.2983 14.468 12.1371 14.5354 12.0182 14.6553C11.8992 14.7752 11.8323 14.9379 11.832 15.1076V15.125V16.7779C11.8384 16.9434 11.908 17.0999 12.0261 17.2147C12.1443 17.3294 12.3019 17.3936 12.4659 17.3936C12.6298 17.3936 12.7874 17.3294 12.9056 17.2147C13.0238 17.0999 13.0933 16.9434 13.0997 16.7779V15.125V15.1076C13.0997 14.9379 13.033 14.7753 12.9142 14.6553C12.7954 14.5354 12.6343 14.468 12.4664 14.468Z" fill="#72BF00"/>
</svg>
