<svg width="20" height="20" viewBox="0 0 20 20" fill="none" xmlns="http://www.w3.org/2000/svg">
<path d="M16.5937 17.1199C16.2112 17.4159 15.7563 17.5909 15.3539 17.854C15.2897 17.8957 15.2126 17.9197 15.182 17.9996H15.1232C15.1232 17.9802 15.1232 17.9608 15.1232 17.9415C15.1243 14.8166 15.1208 11.6917 15.1349 8.56681C15.1361 8.27495 15.0267 8.12992 14.7901 8.00187C14.3088 7.74229 13.8404 7.45867 13.3655 7.18733C12.2463 6.5478 11.1266 5.90945 10.0074 5.27048C9.87319 5.27519 9.76848 5.35387 9.6602 5.41669C8.04613 6.34577 6.43384 7.27778 4.82095 8.2086C4.33902 7.95547 3.85412 7.70705 3.41577 7.38112C3.44636 7.35763 3.47521 7.33123 3.50815 7.31185C5.60062 6.10497 7.6954 4.9005 9.78495 3.68836C9.95145 3.59147 10.0674 3.63142 10.2139 3.71598C12.2463 4.89053 14.28 6.06389 16.3195 7.22549C16.5272 7.34356 16.596 7.471 16.5955 7.70474C16.5883 10.8431 16.5919 13.9815 16.5931 17.1199H16.5937Z" fill="#EBEFF5"/>
<path d="M10.0633 17.9994H9.94565C9.9433 17.983 9.94212 17.9672 9.94155 17.9507C10.0928 17.6671 9.96682 17.3617 10.0098 17.0704C10.038 16.8807 9.9633 16.7732 9.79092 16.6805C9.33605 16.4361 8.89944 16.1578 8.44518 15.9117C7.86438 15.5963 7.31948 15.2164 6.71167 14.9497C7.15887 14.6226 7.64254 14.3578 8.14155 14.1182C8.30513 14.2027 8.46988 14.2838 8.63111 14.3719C9.08951 14.6226 9.52141 14.9204 10.0051 15.1254C10.327 14.9497 10.6459 14.7677 10.9725 14.6009C11.2802 14.4435 11.5456 14.2051 11.8922 14.1223C12.1852 14.2321 12.4241 14.4476 12.7101 14.5598C13.1961 14.7495 13.3486 15.0672 13.3156 15.5834C13.2921 15.9511 13.2462 16.22 12.866 16.3422C12.7719 16.3721 12.6972 16.4373 12.6489 16.5272C11.7515 16.9565 10.9036 17.4727 10.0628 18L10.0633 17.9994Z" fill="#A5EDFC"/>
<path d="M2.00296 6.61571C2.00179 6.59637 2.00118 6.57637 2 6.55698C4.60264 5.05712 7.20584 3.55721 9.80612 2.05382C9.93262 1.98098 10.0303 1.98276 10.1551 2.055C12.7141 3.53255 15.275 5.00719 17.8376 6.47891C17.9541 6.54583 18 6.62103 18 6.75609C17.9965 9.88446 17.997 13.0129 17.9988 16.1413C17.9988 16.254 17.9918 16.3474 17.8741 16.4096C17.4434 16.6387 17.0409 16.9188 16.5937 17.1197C16.5925 13.9813 16.589 10.8429 16.596 7.70451C16.596 7.47082 16.5278 7.34338 16.3201 7.22531C14.28 6.0631 12.2469 4.88973 10.2145 3.7158C10.0686 3.63124 9.95205 3.59128 9.78551 3.68818C7.696 4.90032 5.60179 6.10479 3.50875 7.31166C3.47577 7.331 3.44697 7.35745 3.41633 7.38093C3.39986 7.38093 3.38282 7.38093 3.36635 7.38093C2.91205 7.12606 2.45779 6.87063 2.00353 6.61571H2.00296Z" fill="#5E789B"/>
<path d="M7.3416 16.481C6.51958 16.996 5.67694 17.4752 4.82372 17.9368C4.82254 14.6945 4.82198 11.4515 4.8208 8.20863C6.4337 7.2778 8.04598 6.3458 9.66005 5.41672C9.76833 5.35446 9.87304 5.27578 10.0072 5.27051C10.006 5.97347 10.0049 6.67644 10.0037 7.3794C9.25167 7.80754 8.49497 8.22919 7.7488 8.66731C7.38339 8.88223 6.98269 9.04138 6.66316 9.3315C6.66316 9.63333 6.67257 9.93522 6.66141 10.2365C6.65553 10.3939 6.71144 10.4802 6.85031 10.5565C7.25981 10.782 7.65939 11.0246 8.06306 11.2601C7.95007 11.3999 7.78353 11.4603 7.63822 11.5531C7.33163 11.7499 6.9856 11.8832 6.71026 12.1299C6.70965 12.4399 6.71671 12.75 6.70494 13.0595C6.69906 13.2157 6.75318 13.2997 6.89087 13.3772C7.3128 13.6139 7.72471 13.8693 8.14014 14.1172C7.64113 14.3562 7.15746 14.6211 6.71026 14.9488C6.70965 15.0169 6.71497 15.0856 6.70673 15.1531C6.63845 15.7286 6.67845 16.2519 7.33986 16.4804L7.3416 16.481Z" fill="#C7D3E5"/>
<path d="M10.0037 7.37989C10.0049 6.67693 10.0061 5.97396 10.0073 5.271C11.1271 5.90996 12.2468 6.54831 13.3654 7.18784C13.8403 7.45919 14.3087 7.74224 14.79 8.00243C15.0266 8.13043 15.136 8.27547 15.1348 8.56738C15.1207 11.6922 15.1243 14.8171 15.1231 17.942C14.2987 17.4704 13.4737 16.9988 12.6493 16.5267C12.6976 16.4368 12.7717 16.3716 12.8665 16.3417C13.2466 16.2201 13.2931 15.9505 13.316 15.5829C13.349 15.0667 13.1966 14.7496 12.7105 14.5593C12.4245 14.4477 12.1857 14.2316 11.8926 14.1218C12.2522 13.854 12.6523 13.6537 13.0406 13.4347C13.2154 13.3366 13.3231 13.2297 13.3043 13.0048C13.2801 12.7147 13.296 12.4216 13.2942 12.1298C12.8571 11.8026 12.378 11.5466 11.8903 11.3052C11.9214 11.2242 11.9985 11.1995 12.065 11.1614C12.4257 10.9534 12.7864 10.7455 13.1466 10.5359C13.2036 10.5024 13.2913 10.4801 13.2884 10.4038C13.2737 10.0226 13.3678 9.63622 13.2401 9.25975C13.1401 9.19928 13.0406 9.13759 12.9394 9.07886C11.9609 8.51156 10.9817 7.94545 10.0032 7.37872L10.0037 7.37989Z" fill="#A3B7D5"/>
<path d="M4.82081 8.20834C4.82199 11.4513 4.82256 14.6936 4.82373 17.9365C4.29945 17.728 3.84048 17.4027 3.3562 17.1219C3.35912 16.9951 3.36444 16.8688 3.36444 16.742C3.36505 13.6218 3.36505 10.5017 3.36505 7.38086C3.38152 7.38086 3.39855 7.38086 3.41502 7.38086C3.85343 7.70684 4.33827 7.95582 4.8202 8.20834H4.82081Z" fill="#A2B6D4"/>
<path d="M8.14152 14.1182C7.72608 13.8703 7.31418 13.6149 6.89225 13.3782C6.75455 13.3007 6.69987 13.2167 6.70632 13.0605C6.71808 12.751 6.71102 12.4409 6.71164 12.1309C6.8546 12.1432 6.95992 12.2359 7.07705 12.3023C8.04853 12.855 9.01945 13.4099 9.99037 13.9643C9.99564 14.3513 10.001 14.7389 10.0062 15.1259C9.52255 14.921 9.09065 14.6232 8.63225 14.3725C8.47102 14.2844 8.30566 14.2033 8.1427 14.1188L8.14152 14.1182Z" fill="#1ACEF1"/>
<path d="M7.34161 16.4808C6.68025 16.2518 6.63964 15.7291 6.70848 15.1536C6.71672 15.0861 6.71084 15.0173 6.71201 14.9492C7.31987 15.2158 7.86477 15.5964 8.44552 15.9111C8.89978 16.1572 9.33583 16.4356 9.79126 16.6799C9.96369 16.7727 10.0384 16.8801 10.0102 17.0698C9.9666 17.3617 10.0925 17.6665 9.9419 17.9502C9.0722 17.4663 8.23192 16.9301 7.34223 16.4802L7.34161 16.4808Z" fill="#1ACEF1"/>
<path d="M10.0055 15.1254C10.0002 14.7383 9.99494 14.3507 9.99023 13.9637C10.6628 13.6566 11.2736 13.2396 11.9214 12.8884C12.381 12.6394 12.8117 12.3375 13.2948 12.1309C13.296 12.4227 13.2807 12.7158 13.3048 13.0059C13.3231 13.2308 13.216 13.3371 13.0412 13.4358C12.6529 13.6548 12.2527 13.855 11.8932 14.1229C11.5466 14.2057 11.2812 14.4447 10.9735 14.6015C10.6469 14.7683 10.328 14.9503 10.0061 15.1259L10.0055 15.1254Z" fill="#8AE6F9"/>
<path d="M3.3658 7.38082C3.3658 10.501 3.3658 13.6212 3.36523 16.742C3.36523 16.8688 3.35992 16.9951 3.35695 17.1219C2.90622 16.8659 2.45493 16.6104 2.00415 16.3543C2.00415 13.1085 2.00415 9.86205 2.00415 6.61621C2.45846 6.87108 2.91272 7.12656 3.36697 7.38144L3.3658 7.38082Z" fill="#334866"/>
<path d="M10.0038 7.37988C10.983 7.94661 11.9616 8.51273 12.9401 9.08007C13.0414 9.1388 13.1402 9.20045 13.2408 9.26092C13.1796 9.30793 13.1231 9.36313 13.0572 9.4013C12.2593 9.86229 11.4638 10.328 10.6582 10.7749C10.4246 10.9047 10.2239 11.1061 9.94032 11.1384C8.93585 10.5652 7.93199 9.99151 6.92757 9.4189C6.84578 9.3725 6.77514 9.28911 6.66333 9.33198C6.9823 9.04186 7.383 8.88214 7.74898 8.66779C8.49514 8.22911 9.25185 7.80802 10.0038 7.37988Z" fill="#B2F1FE"/>
<path d="M13.2943 12.13C12.8112 12.3367 12.3804 12.6386 11.9209 12.8876C11.2731 13.2388 10.6622 13.6563 9.98967 13.9629C9.01875 13.4085 8.04783 12.8541 7.07635 12.3015C6.95927 12.2351 6.85395 12.1423 6.71094 12.13C6.98633 11.8834 7.3323 11.7495 7.63889 11.5533C7.78426 11.4605 7.95075 11.4 8.06374 11.2603C8.13259 11.2961 8.20261 11.3301 8.27028 11.3677C8.83165 11.6825 9.39301 11.9973 9.95437 12.3126C10.0785 12.3138 10.1732 12.2451 10.2763 12.1875C10.8123 11.8898 11.3148 11.5304 11.8909 11.3055C12.3787 11.5468 12.8577 11.8029 13.2949 12.13H13.2943Z" fill="#B2F1FE"/>
<path d="M9.95432 12.3127C9.39296 11.9979 8.83216 11.6826 8.27023 11.3678C8.20256 11.3296 8.13253 11.2961 8.06369 11.2603C7.66002 11.0248 7.26049 10.7817 6.85093 10.5568C6.71206 10.4804 6.65616 10.3941 6.66204 10.2367C6.67263 9.93543 6.66439 9.63359 6.66383 9.33171C6.77564 9.28884 6.84623 9.37223 6.92802 9.41863C7.93249 9.99124 8.93691 10.565 9.94077 11.1382C9.94548 11.5299 9.95018 11.9216 9.95489 12.3127H9.95432Z" fill="#1ACEF1"/>
<path d="M9.9543 12.3128C9.9496 11.9211 9.94489 11.5294 9.94019 11.1382C10.2244 11.106 10.4245 10.9039 10.6581 10.7748C11.4636 10.3278 12.2592 9.86211 13.0571 9.40112C13.123 9.36295 13.1795 9.30775 13.2407 9.26074C13.3684 9.63721 13.2742 10.023 13.2889 10.4047C13.2919 10.4811 13.2042 10.5034 13.1471 10.5369C12.787 10.7466 12.4263 10.9544 12.0656 11.1623C11.9991 11.2005 11.9214 11.2252 11.8908 11.3063C11.3147 11.5311 10.8128 11.8906 10.2762 12.1883C10.1732 12.2459 10.0784 12.3146 9.9543 12.3134V12.3128Z" fill="#8AE6F9"/>
</svg>
