<svg width="20" height="20" viewBox="0 0 20 20" fill="none" xmlns="http://www.w3.org/2000/svg">
<path fill-rule="evenodd" clip-rule="evenodd" d="M10 16.7692C13.7385 16.7692 16.7692 13.7385 16.7692 10C16.7692 9.6405 16.7412 9.28755 16.6872 8.9432L14.8672 9.39699C14.8913 9.59462 14.9038 9.79588 14.9038 10C14.9038 12.719 12.6996 14.9231 9.98069 14.9231C7.26175 14.9231 5.05762 12.719 5.05762 10C5.05762 9.36158 5.17915 8.75152 5.40034 8.19171L3.77533 7.33551C3.42484 8.15325 3.23077 9.05396 3.23077 10C3.23077 13.7385 6.26146 16.7692 10 16.7692ZM5.80874 4.68402C6.96147 3.77393 8.4173 3.23077 10 3.23077C12.0255 3.23077 13.8433 4.1204 15.0838 5.53025L13.7621 6.84739C12.859 5.76539 11.5002 5.07695 9.98069 5.07695C8.80048 5.07695 7.71726 5.49225 6.86921 6.18469L5.80874 4.68402ZM6.49817 8.77015C6.36231 9.15486 6.28839 9.56881 6.28839 10C6.28839 11.3849 7.0508 12.5917 8.1788 13.2236L9.98086 10.6154L10.9765 13.5565C12.532 13.1219 13.673 11.6942 13.673 10C13.673 9.89827 13.6689 9.79746 13.6608 9.69778L9.99729 10.6112L10.0002 10.6154L9.99392 10.612L9.98105 10.6153L9.98761 10.6087L6.49817 8.77015ZM9.99226 10.6041L7.58181 7.19308C8.22708 6.64109 9.06496 6.30772 9.98069 6.30772C11.1597 6.30772 12.2097 6.86035 12.8857 7.72071L9.99226 10.6041ZM10 18C14.4183 18 18 14.4183 18 10C18 5.58172 14.4183 2 10 2C5.58172 2 2 5.58172 2 10C2 14.4183 5.58172 18 10 18Z" fill="#4285F4"/>
</svg>
