<svg width="75" height="24" viewBox="0 0 75 24" fill="none" xmlns="http://www.w3.org/2000/svg">
<rect width="74.3554" height="24" rx="8" fill="#655CFC"/>
<g clip-path="url(#clip0_339_2445)">
<path fill-rule="evenodd" clip-rule="evenodd" d="M12.3131 7.05303C13.7123 5.48284 16.0292 5.02223 17.9341 5.92856C20.4649 7.13289 21.3883 10.2008 20.0104 12.5672L16.9106 17.885C16.7374 18.1821 16.4523 18.3989 16.1181 18.4878C15.7838 18.5766 15.4276 18.5303 15.1278 18.3589L18.8806 11.9196C19.8803 10.2021 19.2116 7.9758 17.3768 7.09924C16 6.44158 14.317 6.77012 13.2999 7.90116C12.7389 8.52206 12.4239 9.32371 12.4134 10.1574C12.4029 10.9912 12.6976 11.8003 13.2428 12.435C13.3408 12.5489 13.4462 12.6562 13.5585 12.7564L11.3676 16.5223C11.2819 16.6695 11.1678 16.7986 11.0319 16.902C10.8959 17.0055 10.7408 17.0815 10.5752 17.1255C10.4097 17.1695 10.237 17.1807 10.0671 17.1585C9.89722 17.1364 9.73338 17.0812 9.58495 16.9962L11.9634 12.9078C11.6217 12.4192 11.3764 11.871 11.2403 11.2919L9.78283 13.8023C9.60958 14.0994 9.32453 14.3163 8.99026 14.4051C8.656 14.494 8.29984 14.4477 8 14.2763L11.769 7.8008C11.9258 7.53488 12.1081 7.28447 12.3131 7.05303ZM16.6632 9.11419C17.5709 9.63415 17.8844 10.7905 17.3592 11.6905L13.745 17.8842C13.5718 18.1814 13.2867 18.3982 12.9524 18.487C12.6182 18.5759 12.262 18.5295 11.9622 18.3582L15.3181 12.5918C15.0488 12.5356 14.7951 12.4221 14.5743 12.2591C14.3536 12.0961 14.1712 11.8876 14.0396 11.6479C13.908 11.4081 13.8305 11.143 13.8123 10.8706C13.7942 10.5983 13.8358 10.3253 13.9344 10.0704C14.033 9.81563 14.1861 9.58503 14.3833 9.39463C14.5804 9.20423 14.8169 9.05856 15.0763 8.96765C15.3358 8.87673 15.612 8.84275 15.886 8.86805C16.16 8.89335 16.4252 8.97732 16.6632 9.11419ZM15.3486 10.2782C15.2865 10.3255 15.2344 10.3845 15.1952 10.4517H15.1951C15.1361 10.5531 15.1088 10.6694 15.1165 10.7862C15.1242 10.9029 15.1667 11.0148 15.2385 11.1076C15.3103 11.2004 15.4082 11.27 15.5199 11.3076C15.6316 11.3452 15.752 11.3491 15.8659 11.3188C15.9799 11.2885 16.0822 11.2254 16.1599 11.1374C16.2377 11.0495 16.2874 10.9406 16.3028 10.8246C16.3182 10.7086 16.2986 10.5907 16.2464 10.4858C16.1943 10.3809 16.1119 10.2937 16.0098 10.2352C15.9419 10.1963 15.8671 10.1711 15.7894 10.161C15.7118 10.1508 15.6329 10.156 15.5573 10.1761C15.4816 10.1962 15.4107 10.2309 15.3486 10.2782Z" fill="white"/>
</g>
<path d="M26.3928 15.3473H24.7053L27.7778 6.62H29.7295L32.8062 15.3473H31.1187L28.7877 8.40977H28.7195L26.3928 15.3473ZM26.4482 11.9254H31.0505V13.1953H26.4482V11.9254Z" fill="white"/>
<path d="M33.9323 15.3473V8.80181H35.4749V15.3473H33.9323ZM34.7079 7.87284C34.4636 7.87284 34.2534 7.79187 34.0772 7.62994C33.9011 7.46517 33.813 7.26772 33.813 7.03761C33.813 6.80465 33.9011 6.60721 34.0772 6.44528C34.2534 6.28051 34.4636 6.19812 34.7079 6.19812C34.9551 6.19812 35.1653 6.28051 35.3386 6.44528C35.5147 6.60721 35.6028 6.80465 35.6028 7.03761C35.6028 7.26772 35.5147 7.46517 35.3386 7.62994C35.1653 7.79187 34.9551 7.87284 34.7079 7.87284Z" fill="white"/>
<path d="M37.0592 15.3473V8.80181H38.5549V9.89272H38.6231C38.7424 9.51488 38.947 9.22369 39.2368 9.01914C39.5294 8.81176 39.8632 8.70806 40.2382 8.70806C40.3234 8.70806 40.4186 8.71232 40.5237 8.72085C40.6316 8.72653 40.7211 8.73647 40.7922 8.75068V10.1697C40.7268 10.147 40.6231 10.1271 40.4811 10.1101C40.3419 10.0902 40.2069 10.0802 40.0762 10.0802C39.795 10.0802 39.5422 10.1413 39.3177 10.2635C39.0961 10.3828 38.9214 10.549 38.7936 10.762C38.6657 10.9751 38.6018 11.2208 38.6018 11.4993V15.3473H37.0592Z" fill="white"/>
<path d="M41.8832 15.3473V6.62H43.4258V9.8842H43.4897C43.5692 9.72511 43.6814 9.55607 43.8263 9.3771C43.9712 9.19528 44.1672 9.04045 44.4144 8.91261C44.6616 8.78193 44.9769 8.71659 45.3604 8.71659C45.8661 8.71659 46.3221 8.84585 46.7283 9.10437C47.1374 9.36005 47.4613 9.73931 47.6999 10.2422C47.9414 10.7422 48.0621 11.3558 48.0621 12.0831C48.0621 12.8018 47.9442 13.4126 47.7084 13.9155C47.4726 14.4183 47.1516 14.8018 46.7454 15.066C46.3391 15.3302 45.8789 15.4623 45.3647 15.4623C44.9897 15.4623 44.6786 15.3998 44.4314 15.2748C44.1843 15.1498 43.9854 14.9993 43.8349 14.8231C43.6871 14.6441 43.5721 14.4751 43.4897 14.316H43.4002V15.3473H41.8832ZM43.3959 12.0745C43.3959 12.4978 43.4556 12.8686 43.5749 13.1868C43.6971 13.5049 43.8718 13.7535 44.0991 13.9325C44.3292 14.1086 44.6076 14.1967 44.9343 14.1967C45.2752 14.1967 45.5607 14.1058 45.7908 13.924C46.0209 13.7393 46.1942 13.4879 46.3107 13.1697C46.43 12.8487 46.4897 12.4836 46.4897 12.0745C46.4897 11.6683 46.4314 11.3075 46.315 10.9922C46.1985 10.6768 46.0252 10.4297 45.7951 10.2507C45.565 10.0717 45.278 9.98221 44.9343 9.98221C44.6047 9.98221 44.3249 10.0689 44.0948 10.2422C43.8647 10.4154 43.69 10.6583 43.5707 10.9708C43.4542 11.2833 43.3959 11.6512 43.3959 12.0745Z" fill="white"/>
<path d="M50.1077 17.8018C49.8974 17.8018 49.7028 17.7848 49.5239 17.7507C49.3477 17.7194 49.2071 17.6825 49.102 17.6399L49.4599 16.4382C49.6844 16.5035 49.8847 16.5348 50.0608 16.5319C50.2369 16.5291 50.3918 16.4737 50.5253 16.3657C50.6617 16.2606 50.7767 16.0845 50.8705 15.8373L51.0026 15.4836L48.629 8.80181H50.2653L51.7739 13.745H51.842L53.3548 8.80181H54.9955L52.3747 16.1399C52.2526 16.4865 52.0906 16.7833 51.8889 17.0305C51.6872 17.2805 51.4401 17.4708 51.1474 17.6015C50.8577 17.7351 50.5111 17.8018 50.1077 17.8018Z" fill="white"/>
<path d="M59.3294 8.80181V9.995H55.5666V8.80181H59.3294ZM56.4955 7.23363H58.0382V13.3785C58.0382 13.5859 58.0694 13.745 58.1319 13.8558C58.1973 13.9637 58.2825 14.0376 58.3876 14.0774C58.4927 14.1172 58.6092 14.137 58.737 14.137C58.8336 14.137 58.9217 14.1299 59.0012 14.1157C59.0836 14.1015 59.1461 14.0887 59.1887 14.0774L59.4487 15.2833C59.3663 15.3118 59.2484 15.343 59.095 15.3771C58.9444 15.4112 58.7598 15.4311 58.541 15.4368C58.1546 15.4481 57.8066 15.3899 57.497 15.262C57.1873 15.1314 56.9416 14.9297 56.7598 14.6569C56.5808 14.3842 56.4927 14.0433 56.4955 13.6342V7.23363Z" fill="white"/>
<path d="M63.4449 15.4751C62.7886 15.4751 62.2218 15.3387 61.7446 15.066C61.2701 14.7904 60.9051 14.4012 60.6494 13.8984C60.3937 13.3927 60.2659 12.7976 60.2659 12.1129C60.2659 11.4396 60.3937 10.8487 60.6494 10.3402C60.9079 9.8288 61.2687 9.43107 61.7318 9.14698C62.1949 8.86005 62.7389 8.71659 63.3639 8.71659C63.7673 8.71659 64.148 8.78193 64.5059 8.91261C64.8667 9.04045 65.1849 9.23931 65.4605 9.5092C65.7389 9.77909 65.9576 10.1228 66.1167 10.5405C66.2758 10.9552 66.3554 11.4495 66.3554 12.0234V12.4964H60.9903V11.4566H64.8767C64.8738 11.1612 64.8099 10.8984 64.6849 10.6683C64.5599 10.4353 64.3852 10.2521 64.1608 10.1186C63.9392 9.98505 63.6807 9.91829 63.3852 9.91829C63.0699 9.91829 62.7929 9.995 62.5542 10.1484C62.3156 10.299 62.1295 10.4978 61.996 10.745C61.8653 10.9893 61.7986 11.2578 61.7957 11.5504V12.4581C61.7957 12.8387 61.8653 13.1654 62.0045 13.4382C62.1437 13.7081 62.3383 13.9154 62.5883 14.0603C62.8383 14.2024 63.1309 14.2734 63.4662 14.2734C63.6906 14.2734 63.8937 14.2422 64.0755 14.1797C64.2574 14.1143 64.415 14.0191 64.5485 13.8941C64.6821 13.7691 64.7829 13.6143 64.8511 13.4297L66.2914 13.5916C66.2005 13.9723 66.0272 14.3047 65.7716 14.5887C65.5187 14.87 65.1949 15.0887 64.8 15.245C64.4051 15.3984 63.9534 15.4751 63.4449 15.4751Z" fill="white"/>
<defs>
<clipPath id="clip0_339_2445">
<rect width="12.7054" height="13.064" fill="white" transform="translate(8 5.46802)"/>
</clipPath>
</defs>
</svg>
