<svg width="59" height="15" viewBox="0 -1 59 14" fill="none" xmlns="http://www.w3.org/2000/svg">
    <g clip-path="url(#clip0_339_2391)">
        <path fill-rule="evenodd" clip-rule="evenodd"
            d="M4.32238 1.58501C5.72154 0.0148234 8.03851 -0.44579 9.94339 0.460546C12.4742 1.66487 13.3975 4.73273 12.0196 7.09921L8.91989 12.417C8.74665 12.7141 8.4616 12.9309 8.12734 13.0198C7.79308 13.1086 7.43691 13.0623 7.13707 12.8909L10.8899 6.45162C11.8896 4.73408 11.2209 2.50778 9.38603 1.63123C8.00929 0.973563 6.32628 1.3021 5.30921 2.43314C4.7482 3.05405 4.43321 3.8557 4.42271 4.6894C4.41221 5.52314 4.7069 6.33232 5.25208 6.96697C5.35006 7.08085 5.45551 7.1882 5.56773 7.28834L3.37686 11.0543C3.29118 11.2015 3.17712 11.3306 3.04116 11.434C2.90521 11.5375 2.75004 11.6134 2.5845 11.6575C2.41897 11.7015 2.24632 11.7127 2.07641 11.6905C1.9065 11.6684 1.74265 11.6132 1.59423 11.5282L3.97264 7.43974C3.631 6.95122 3.38566 6.40294 3.24956 5.82391L1.7921 8.33428C1.61885 8.63143 1.33381 8.84825 0.999542 8.93713C0.665278 9.02596 0.309122 8.97964 0.00927734 8.80824L3.77825 2.33278C3.93513 2.06686 4.11734 1.81646 4.32238 1.58501ZM8.67251 3.64617C9.5802 4.16613 9.89368 5.32252 9.36847 6.22247L5.75427 12.4162C5.58103 12.7134 5.29598 12.9301 4.96172 13.019C4.62746 13.1079 4.27129 13.0615 3.97145 12.8902L7.32735 7.12377C7.05807 7.06756 6.80434 6.95406 6.5836 6.79109C6.36286 6.62809 6.18043 6.41955 6.04889 6.17985C5.91731 5.94011 5.83977 5.67494 5.82161 5.40258C5.80345 5.13025 5.84508 4.85725 5.94366 4.60243C6.04224 4.34761 6.19537 4.11701 6.39253 3.92661C6.58969 3.73622 6.82616 3.59055 7.08561 3.49963C7.34506 3.40871 7.62129 3.37473 7.89528 3.40003C8.16927 3.42533 8.43444 3.50931 8.67251 3.64617ZM7.35788 4.81019C7.29577 4.85748 7.24364 4.91645 7.20452 4.98371H7.20433C7.14536 5.08505 7.11805 5.20143 7.12574 5.31819C7.13348 5.4349 7.17593 5.54677 7.24775 5.63956C7.31958 5.73235 7.41748 5.80196 7.52918 5.83955C7.64087 5.87717 7.76127 5.88106 7.87521 5.85079C7.98915 5.82048 8.09147 5.7574 8.16919 5.66942C8.24696 5.58144 8.29669 5.4726 8.31209 5.35663C8.32749 5.24062 8.30787 5.12271 8.2557 5.01779C8.20353 4.91287 8.12117 4.82564 8.01904 4.76715C7.95122 4.72829 7.87637 4.7031 7.79872 4.69295C7.72107 4.68283 7.64218 4.68794 7.56655 4.70806C7.49091 4.72818 7.42002 4.76286 7.35788 4.81019Z"
            fill="white" />
    </g>
    <path
        d="M18.4021 9.87925H16.7146L19.787 1.15198H21.7387L24.8155 9.87925H23.128L20.797 2.94175H20.7288L18.4021 9.87925ZM18.4575 6.45738H23.0598V7.72726H18.4575V6.45738Z"
        fill="white" />
    <path
        d="M25.9416 9.87925V3.3338H27.4842V9.87925H25.9416ZM26.7172 2.40482C26.4729 2.40482 26.2626 2.32385 26.0865 2.16192C25.9104 1.99715 25.8223 1.7997 25.8223 1.56959C25.8223 1.33664 25.9104 1.13919 26.0865 0.977261C26.2626 0.812489 26.4729 0.730103 26.7172 0.730103C26.9643 0.730103 27.1746 0.812489 27.3479 0.977261C27.524 1.13919 27.6121 1.33664 27.6121 1.56959C27.6121 1.7997 27.524 1.99715 27.3479 2.16192C27.1746 2.32385 26.9643 2.40482 26.7172 2.40482Z"
        fill="white" />
    <path
        d="M29.0685 9.87925V3.3338H30.5642V4.42471H30.6324C30.7517 4.04686 30.9563 3.75567 31.246 3.55113C31.5386 3.34374 31.8725 3.24005 32.2475 3.24005C32.3327 3.24005 32.4279 3.24431 32.533 3.25283C32.6409 3.25851 32.7304 3.26846 32.8014 3.28266V4.70169C32.7361 4.67897 32.6324 4.65908 32.4903 4.64203C32.3511 4.62215 32.2162 4.61221 32.0855 4.61221C31.8043 4.61221 31.5514 4.67328 31.327 4.79544C31.1054 4.91476 30.9307 5.08095 30.8028 5.29402C30.675 5.50709 30.6111 5.75283 30.6111 6.03124V9.87925H29.0685Z"
        fill="white" />
    <path
        d="M33.8924 9.87925V1.15198H35.435V4.41618H35.499C35.5785 4.25709 35.6907 4.08806 35.8356 3.90908C35.9805 3.72726 36.1765 3.57243 36.4237 3.44459C36.6708 3.31391 36.9862 3.24857 37.3697 3.24857C37.8754 3.24857 38.3313 3.37783 38.7376 3.63635C39.1467 3.89203 39.4706 4.2713 39.7092 4.77414C39.9507 5.27414 40.0714 5.88777 40.0714 6.61505C40.0714 7.3338 39.9535 7.94459 39.7177 8.44743C39.4819 8.95027 39.1609 9.3338 38.7546 9.598C38.3484 9.86221 37.8882 9.99431 37.374 9.99431C36.999 9.99431 36.6879 9.93181 36.4407 9.80681C36.1936 9.68181 35.9947 9.53124 35.8441 9.3551C35.6964 9.17613 35.5813 9.00709 35.499 8.848H35.4095V9.87925H33.8924ZM35.4052 6.60652C35.4052 7.02982 35.4649 7.40056 35.5842 7.71874C35.7063 8.03692 35.8811 8.2855 36.1083 8.46448C36.3384 8.64061 36.6169 8.72868 36.9436 8.72868C37.2845 8.72868 37.57 8.63777 37.8001 8.45595C38.0302 8.2713 38.2035 8.01988 38.32 7.70169C38.4393 7.38067 38.499 7.01561 38.499 6.60652C38.499 6.20027 38.4407 5.83948 38.3242 5.52414C38.2078 5.2088 38.0345 4.96164 37.8044 4.78266C37.5742 4.60368 37.2873 4.51419 36.9436 4.51419C36.614 4.51419 36.3342 4.60084 36.1041 4.77414C35.874 4.94743 35.6992 5.19033 35.5799 5.50283C35.4635 5.81533 35.4052 6.18323 35.4052 6.60652Z"
        fill="white" />
    <path
        d="M42.117 12.3338C41.9067 12.3338 41.7121 12.3168 41.5331 12.2827C41.357 12.2514 41.2164 12.2145 41.1113 12.1719L41.4692 10.9702C41.6937 11.0355 41.8939 11.0668 42.0701 11.0639C42.2462 11.0611 42.401 11.0057 42.5346 10.8977C42.6709 10.7926 42.786 10.6165 42.8797 10.3693L43.0118 10.0156L40.6383 3.3338H42.2746L43.7831 8.27698H43.8513L45.3641 3.3338H47.0047L44.384 10.6719C44.2618 11.0185 44.0999 11.3153 43.8982 11.5625C43.6965 11.8125 43.4493 12.0028 43.1567 12.1335C42.867 12.267 42.5204 12.3338 42.117 12.3338Z"
        fill="white" />
    <path
        d="M51.3386 3.3338V4.52698H47.5758V3.3338H51.3386ZM48.5048 1.76561H50.0474V7.9105C50.0474 8.11789 50.0787 8.27698 50.1412 8.38777C50.2065 8.49573 50.2918 8.56959 50.3969 8.60936C50.502 8.64914 50.6185 8.66902 50.7463 8.66902C50.8429 8.66902 50.931 8.66192 51.0105 8.64772C51.0929 8.63351 51.1554 8.62073 51.198 8.60936L51.458 9.81533C51.3756 9.84374 51.2577 9.87499 51.1043 9.90908C50.9537 9.94317 50.769 9.96306 50.5503 9.96874C50.1639 9.9801 49.8159 9.92186 49.5062 9.79402C49.1966 9.66334 48.9508 9.46164 48.769 9.18891C48.5901 8.91618 48.502 8.57527 48.5048 8.16618V1.76561Z"
        fill="white" />
    <path
        d="M55.4541 10.0071C54.7979 10.0071 54.2311 9.87073 53.7538 9.598C53.2794 9.32243 52.9144 8.93323 52.6587 8.43039C52.403 7.9247 52.2752 7.32953 52.2752 6.64488C52.2752 5.97158 52.403 5.38067 52.6587 4.87215C52.9172 4.36078 53.278 3.96306 53.7411 3.67897C54.2041 3.39203 54.7482 3.24857 55.3732 3.24857C55.7766 3.24857 56.1573 3.31391 56.5152 3.44459C56.876 3.57243 57.1942 3.7713 57.4698 4.04118C57.7482 4.31107 57.9669 4.65482 58.126 5.07243C58.2851 5.48721 58.3646 5.98152 58.3646 6.55539V7.0284H52.9996V5.98863H56.886C56.8831 5.69317 56.8192 5.43039 56.6942 5.20027C56.5692 4.96732 56.3945 4.78408 56.17 4.65056C55.9485 4.51703 55.6899 4.45027 55.3945 4.45027C55.0791 4.45027 54.8021 4.52698 54.5635 4.68039C54.3249 4.83095 54.1388 5.02982 54.0053 5.27698C53.8746 5.5213 53.8078 5.78976 53.805 6.08238V6.99005C53.805 7.37073 53.8746 7.69743 54.0138 7.97016C54.153 8.24005 54.3476 8.44743 54.5976 8.59232C54.8476 8.73436 55.1402 8.80539 55.4754 8.80539C55.6999 8.80539 55.903 8.77414 56.0848 8.71164C56.2666 8.6463 56.4243 8.55113 56.5578 8.42613C56.6913 8.30113 56.7922 8.1463 56.8604 7.96164L58.3007 8.12357C58.2098 8.50425 58.0365 8.83664 57.7808 9.12073C57.528 9.40198 57.2041 9.62073 56.8092 9.77698C56.4144 9.93039 55.9627 10.0071 55.4541 10.0071Z"
        fill="white" />
    <defs>
        <clipPath id="clip0_339_2391">
            <rect width="12.7054" height="13.064" fill="white" transform="translate(0.00927734)" />
        </clipPath>
    </defs>
</svg>