<svg width="13" height="14" viewBox="0 0 13 14" fill="none" xmlns="http://www.w3.org/2000/svg">
<path fill-rule="evenodd" clip-rule="evenodd" d="M4.46566 6.41707C4.19852 6.05063 3.97719 5.70569 3.81753 5.45546L2.08572 7.23069C1.61242 7.71585 1.27704 8.57689 1.07201 9.73682C0.965714 10.3382 0.900407 10.9825 0.859985 11.6362L5.3266 7.05761C5.31882 7.05357 5.31079 7.04942 5.30257 7.04516C5.20201 6.99308 5.07027 6.92485 4.95544 6.85371C4.81016 6.76369 4.6184 6.62659 4.46566 6.41707ZM5.86129 6.50952C5.86128 6.50952 5.86129 6.50951 5.86129 6.50952V6.50952ZM0.209647 13.4485C0.132499 13.5276 -0.00152385 13.4725 1.31045e-05 13.3621C0.000551225 13.3234 0.00112725 13.2846 0.00174496 13.2457C0.00174443 13.2457 0.00174548 13.2457 0.00174496 13.2457C0.00463613 13.0637 0.00844199 12.8791 0.0135474 12.6931C0.0153274 12.6282 0.0172656 12.5631 0.0193784 12.4979C0.0917704 10.2634 0.369155 7.84465 1.51308 6.67205L3.76161 4.36713C3.77779 4.35056 3.7983 4.33817 3.82132 4.33559C4.03762 4.31135 4.19576 4.55958 4.49582 5.03056C4.65283 5.27702 4.84871 5.58448 5.11212 5.94581C5.22838 6.10529 5.43329 6.21162 5.65807 6.32826C5.93374 6.47131 6.2393 6.62987 6.44787 6.92101C6.48039 6.9664 6.47292 7.02819 6.43393 7.06816L0.209647 13.4485Z" fill="white"/>
<path d="M5.68144 8.71116L5.68145 8.71115C5.83059 8.60242 5.93529 8.46046 6.01369 8.33392C6.07578 8.23371 6.13465 8.12015 6.18685 8.01947C6.19915 7.99573 6.21109 7.97271 6.22261 7.95075C6.30759 7.78871 6.38696 7.65146 6.48082 7.53972L12.1657 13.0855C11.1559 13.0569 10.1135 12.9892 9.16719 12.8219C7.98664 12.6132 7.02545 12.2607 6.45137 11.7006L4.32242 9.62373C4.35674 9.59759 4.40042 9.56641 4.45587 9.52907C4.52955 9.47944 4.6215 9.42082 4.7284 9.35267C4.9785 9.19323 5.31039 8.98164 5.68144 8.71116ZM6.42114 7.05235L6.48908 7.14718L6.42114 7.05235Z" stroke="white" stroke-width="0.8"/>
<path fill-rule="evenodd" clip-rule="evenodd" d="M6.17195 11.987C5.44764 11.2805 5.1116 9.8826 6.50018 6.99998C4.24345 8.00851 3.45261 9.33422 3.84165 9.71376L6.17195 11.987Z" fill="white"/>
<path d="M11.2006 7.04925L11.2006 7.04924C11.7607 6.47516 12.1132 5.51397 12.3219 4.33342C12.4892 3.38709 12.5569 2.34465 12.5856 1.33489L7.0397 7.0198C7.15145 7.11366 7.2887 7.19304 7.45074 7.27802C7.47269 7.28954 7.4957 7.30147 7.51943 7.31377C7.62012 7.36597 7.73369 7.42485 7.83391 7.48695C7.96043 7.56534 8.10238 7.67004 8.21109 7.81918L11.2006 7.04925ZM11.2006 7.04925L9.12374 9.17822M11.2006 7.04925L9.12374 9.17822M9.12374 9.17822C9.0976 9.14389 9.06641 9.1002 9.02907 9.04475C8.97946 8.97109 8.92087 8.87919 8.85277 8.77238C8.69331 8.52227 8.4817 8.19037 8.21113 7.81923L9.12374 9.17822ZM6.85242 7.21179L6.85267 7.21153C6.85258 7.21162 6.8525 7.21171 6.85241 7.21179L6.85242 7.21179Z" stroke="white" stroke-width="0.8"/>
<path fill-rule="evenodd" clip-rule="evenodd" d="M11.4871 7.32821C10.7805 8.05249 9.38259 8.38858 6.49997 6.99998C7.50849 9.25669 8.83421 10.0476 9.21375 9.65849L11.4871 7.32821Z" fill="white"/>
<path d="M7.31862 5.28888L7.3186 5.2889C7.16947 5.39763 7.06478 5.5396 6.98639 5.66613C6.9243 5.76633 6.86544 5.87987 6.81325 5.98055C6.80094 6.0043 6.789 6.02733 6.77748 6.0493C6.6925 6.21133 6.61313 6.34858 6.51928 6.46032L0.834376 0.914478C1.84413 0.943158 2.88657 1.01085 3.83289 1.17812C5.01345 1.38679 5.97464 1.73936 6.54872 2.2994L6.82804 2.01308L6.54873 2.2994L8.67771 4.37628C8.64339 4.40243 8.5997 4.43361 8.54424 4.47096C8.47056 4.52058 8.37862 4.5792 8.27173 4.64733C8.02163 4.80678 7.68972 5.01837 7.31862 5.28888Z" stroke="white" stroke-width="0.8"/>
<path fill-rule="evenodd" clip-rule="evenodd" d="M6.8282 2.01392C7.55248 2.72051 7.88856 4.11834 6.49997 7.00098C8.75668 5.99247 9.54756 4.66673 9.15848 4.28721L6.8282 2.01392Z" fill="white"/>
<path fill-rule="evenodd" clip-rule="evenodd" d="M1.51286 6.67143C2.21946 5.94712 3.61729 5.61108 6.49992 6.99966C5.49141 4.74293 4.16568 3.9521 3.78616 4.34113L1.51286 6.67143Z" fill="white"/>
<path d="M6.50483 7.27807C6.65853 7.27617 6.78158 7.15002 6.77968 6.99632C6.77778 6.84262 6.65164 6.71957 6.49793 6.72147C6.34423 6.72337 6.22118 6.84951 6.22308 7.00321C6.22498 7.15692 6.35113 7.27997 6.50483 7.27807Z" fill="white"/>
</svg>
