<svg width="36" height="15" viewBox="0 0 36 15" fill="none" xmlns="http://www.w3.org/2000/svg">
<path d="M13.9978 0.6076C14.3369 0.937818 14.5586 1.3737 14.6108 1.84919C14.6108 2.04732 14.5586 2.17943 14.4412 2.43037C14.3239 2.68134 12.8761 5.2174 12.4457 5.91744C12.1979 6.3269 12.0675 6.81563 12.0675 7.29114C12.0675 7.77986 12.1979 8.25537 12.4457 8.66484C12.8761 9.36487 14.3239 11.9142 14.4412 12.1651C14.5586 12.4161 14.6108 12.5349 14.6108 12.7331C14.5586 13.2086 14.3499 13.6445 14.0108 13.9615C13.6848 14.3049 13.2544 14.5294 12.7978 14.5691C12.6022 14.5691 12.4718 14.5162 12.237 14.3974C12.0022 14.2785 9.44588 12.8519 8.75461 12.4161C8.70243 12.3897 8.65027 12.35 8.58506 12.3236L5.16788 10.2763C5.24612 10.9367 5.53306 11.5707 6.00258 12.033C6.09391 12.1255 6.18518 12.2047 6.28955 12.284C6.21127 12.3236 6.11997 12.3632 6.04173 12.4161C5.35046 12.8519 2.83321 14.3181 2.58543 14.437C2.33761 14.5559 2.22021 14.6087 2.01152 14.6087C1.542 14.5559 1.11158 14.3445 0.798547 14.0011C0.459456 13.6709 0.237729 13.235 0.185547 12.7595C0.198577 12.5614 0.250759 12.3632 0.355093 12.1915C0.472487 11.9406 1.92024 9.39129 2.35064 8.69126C2.59846 8.28179 2.72888 7.80628 2.72888 7.31756C2.72888 6.82884 2.59846 6.35332 2.35064 5.94385C1.92024 5.2174 0.459456 2.66813 0.355093 2.41716C0.250759 2.24545 0.198577 2.04732 0.185547 1.84919C0.237729 1.3737 0.446395 0.937818 0.785517 0.6076C1.11158 0.264174 1.542 0.0528348 2.01152 0C2.20715 0.0132087 2.40279 0.0660433 2.58543 0.171713C2.79409 0.264174 4.63309 1.34729 5.6113 1.92847L5.83303 2.06053C5.9113 2.11336 5.97652 2.15299 6.0287 2.17943L6.13303 2.24545L9.61543 4.33242C9.53718 3.5399 9.13285 2.81342 8.50679 2.3247C8.58506 2.2851 8.67637 2.24545 8.75461 2.19261C9.44588 1.75676 11.9631 0.277382 12.2109 0.171713C12.3805 0.0660433 12.5761 0.0132087 12.7848 0C13.2413 0.0528348 13.6717 0.264174 13.9978 0.6076ZM7.58076 8.24217L8.32421 7.48927C8.42855 7.3836 8.42855 7.2251 8.32421 7.11943L7.58076 6.36653C7.47643 6.26086 7.31991 6.26086 7.21558 6.36653L6.47212 7.11943C6.36779 7.2251 6.36779 7.3836 6.47212 7.48927L7.21558 8.24217C7.30688 8.33463 7.47643 8.33463 7.58076 8.24217Z" fill="white"/>
<path d="M18.3083 11.7255C17.7941 11.7255 17.3339 11.5934 16.9276 11.3292C16.5214 11.065 16.2003 10.6815 15.9645 10.1786C15.7287 9.67579 15.6108 9.065 15.6108 8.34625C15.6108 7.61897 15.7302 7.00534 15.9688 6.50534C16.2103 6.0025 16.5356 5.62324 16.9446 5.36755C17.3537 5.10903 17.8097 4.97977 18.3125 4.97977C18.6961 4.97977 19.0114 5.04511 19.2586 5.17579C19.5057 5.30363 19.7017 5.45846 19.8466 5.64028C19.9915 5.81926 20.1037 5.98829 20.1833 6.14738H20.2472V2.88318H21.7941V11.6105H20.277V10.5792H20.1833C20.1037 10.7383 19.9887 10.9073 19.8381 11.0863C19.6875 11.2624 19.4887 11.413 19.2415 11.538C18.9944 11.663 18.6833 11.7255 18.3083 11.7255ZM18.7387 10.4599C19.0654 10.4599 19.3438 10.3718 19.5739 10.1957C19.804 10.0167 19.9787 9.76812 20.0981 9.44994C20.2174 9.13176 20.277 8.76102 20.277 8.33772C20.277 7.91443 20.2174 7.54653 20.0981 7.23403C19.9816 6.92153 19.8083 6.67863 19.5782 6.50534C19.3509 6.33204 19.0711 6.24539 18.7387 6.24539C18.3949 6.24539 18.108 6.33488 17.8779 6.51386C17.6478 6.69284 17.4745 6.94 17.358 7.25534C17.2415 7.57068 17.1833 7.93147 17.1833 8.33772C17.1833 8.74682 17.2415 9.11187 17.358 9.43289C17.4773 9.75108 17.652 10.0025 17.8821 10.1872C18.1151 10.369 18.4006 10.4599 18.7387 10.4599Z" fill="white"/>
<path d="M23.504 11.6105V2.88318H25.0467V6.14738H25.1106C25.1901 5.98829 25.3023 5.81926 25.4472 5.64028C25.5921 5.45846 25.7881 5.30363 26.0353 5.17579C26.2825 5.04511 26.5978 4.97977 26.9813 4.97977C27.487 4.97977 27.943 5.10903 28.3492 5.36755C28.7583 5.62324 29.0822 6.0025 29.3208 6.50534C29.5623 7.00534 29.683 7.61897 29.683 8.34625C29.683 9.065 29.5651 9.67579 29.3293 10.1786C29.0935 10.6815 28.7725 11.065 28.3663 11.3292C27.96 11.5934 27.4998 11.7255 26.9856 11.7255C26.6106 11.7255 26.2995 11.663 26.0523 11.538C25.8052 11.413 25.6063 11.2624 25.4557 11.0863C25.308 10.9073 25.193 10.7383 25.1106 10.5792H25.0211V11.6105H23.504ZM25.0168 8.33772C25.0168 8.76102 25.0765 9.13176 25.1958 9.44994C25.318 9.76812 25.4927 10.0167 25.72 10.1957C25.9501 10.3718 26.2285 10.4599 26.5552 10.4599C26.8961 10.4599 27.1816 10.369 27.4117 10.1872C27.6418 10.0025 27.8151 9.75108 27.9316 9.43289C28.0509 9.11187 28.1106 8.74682 28.1106 8.33772C28.1106 7.93147 28.0523 7.57068 27.9359 7.25534C27.8194 6.94 27.6461 6.69284 27.416 6.51386C27.1859 6.33488 26.8989 6.24539 26.5552 6.24539C26.2256 6.24539 25.9458 6.33204 25.7157 6.50534C25.4856 6.67863 25.3109 6.92153 25.1915 7.23403C25.0751 7.54653 25.0168 7.91443 25.0168 8.33772Z" fill="white"/>
<path d="M34.2609 5.065V6.25818H30.4981V5.065H34.2609ZM31.4271 3.49682H32.9697V9.6417C32.9697 9.84909 33.0009 10.0082 33.0634 10.119C33.1288 10.2269 33.214 10.3008 33.3191 10.3406C33.4242 10.3803 33.5407 10.4002 33.6685 10.4002C33.7651 10.4002 33.8532 10.3931 33.9328 10.3789C34.0151 10.3647 34.0776 10.3519 34.1203 10.3406L34.3802 11.5465C34.2978 11.5749 34.1799 11.6062 34.0265 11.6403C33.8759 11.6744 33.6913 11.6943 33.4725 11.6999C33.0862 11.7113 32.7382 11.6531 32.4285 11.5252C32.1188 11.3945 31.8731 11.1928 31.6913 10.9201C31.5123 10.6474 31.4242 10.3065 31.4271 9.89738V3.49682Z" fill="white"/>
<path d="M35.8659 7.23474L35.7892 7.45335H35.7607L35.6841 7.23532V7.45335H35.6347V7.1554H35.6962L35.775 7.37678L35.8541 7.1554H35.9153V7.45335H35.8659V7.23474ZM35.5913 7.20035H35.511V7.45335H35.461V7.20035H35.3801V7.1554H35.5913V7.20035Z" fill="white"/>
</svg>
