<svg width="38" height="24" viewBox="8 0 38 24" fill="none" xmlns="http://www.w3.org/2000/svg">
    <path
        d="M21.8122 5.30325C22.1513 5.63347 22.3731 6.06936 22.4252 6.54484C22.4252 6.74297 22.3731 6.87509 22.2557 7.12602C22.1383 7.37699 20.6905 9.91306 20.2602 10.6131C20.0124 11.0226 19.8819 11.5113 19.8819 11.9868C19.8819 12.4755 20.0124 12.951 20.2602 13.3605C20.6905 14.0605 22.1383 16.6098 22.2557 16.8607C22.3731 17.1117 22.4252 17.2306 22.4252 17.4287C22.3731 17.9042 22.1644 18.3401 21.8253 18.6571C21.4992 19.0005 21.0688 19.2251 20.6123 19.2647C20.4167 19.2647 20.2862 19.2119 20.0515 19.093C19.8167 18.9741 17.2603 17.5476 16.5691 17.1117C16.5169 17.0853 16.4647 17.0457 16.3995 17.0192L12.9823 14.9719C13.0606 15.6324 13.3475 16.2664 13.817 16.7287C13.9084 16.8211 13.9996 16.9004 14.104 16.9796C14.0257 17.0192 13.9344 17.0589 13.8562 17.1117C13.1649 17.5476 10.6477 19.0138 10.3999 19.1326C10.1521 19.2515 10.0347 19.3043 9.82597 19.3043C9.35645 19.2515 8.92603 19.0402 8.613 18.6967C8.27391 18.3665 8.05218 17.9307 8 17.4552C8.01303 17.257 8.06521 17.0589 8.16955 16.8872C8.28694 16.6362 9.7347 14.0869 10.1651 13.3869C10.4129 12.9774 10.5433 12.5019 10.5433 12.0132C10.5433 11.5245 10.4129 11.049 10.1651 10.6395C9.7347 9.91306 8.27391 7.36378 8.16955 7.11281C8.06521 6.9411 8.01303 6.74297 8 6.54484C8.05218 6.06936 8.26085 5.63347 8.59997 5.30325C8.92603 4.95983 9.35645 4.74849 9.82597 4.69565C10.0216 4.70886 10.2172 4.7617 10.3999 4.86736C10.6085 4.95983 12.4475 6.04294 13.4258 6.62412L13.6475 6.75618C13.7258 6.80901 13.791 6.84864 13.8432 6.87509L13.9475 6.9411L17.4299 9.02807C17.3516 8.23555 16.9473 7.50907 16.3212 7.02035C16.3995 6.98076 16.4908 6.9411 16.5691 6.88827C17.2603 6.45241 19.7776 4.97303 20.0254 4.86736C20.1949 4.7617 20.3906 4.70886 20.5993 4.69565C21.0558 4.74849 21.4862 4.95983 21.8122 5.30325ZM15.3952 12.9378L16.1387 12.1849C16.243 12.0793 16.243 11.9207 16.1387 11.8151L15.3952 11.0622C15.2909 10.9565 15.1344 10.9565 15.03 11.0622L14.2866 11.8151C14.1822 11.9207 14.1822 12.0793 14.2866 12.1849L15.03 12.9378C15.1213 13.0303 15.2909 13.0303 15.3952 12.9378Z"
        fill="white" />
    <path
        d="M29.1227 16.4212C28.6085 16.4212 28.1483 16.2891 27.742 16.0249C27.3358 15.7607 27.0147 15.3771 26.7789 14.8743C26.5431 14.3714 26.4252 13.7607 26.4252 13.0419C26.4252 12.3146 26.5446 11.701 26.7832 11.201C27.0247 10.6982 27.35 10.3189 27.7591 10.0632C28.1681 9.80469 28.6241 9.67543 29.1269 9.67543C29.5105 9.67543 29.8258 9.74077 30.073 9.87145C30.3201 9.99929 30.5162 10.1541 30.661 10.3359C30.8059 10.5149 30.9181 10.6839 30.9977 10.843H31.0616V7.57883H32.6085V16.3061H31.0914V15.2749H30.9977C30.9181 15.4339 30.8031 15.603 30.6525 15.782C30.5019 15.9581 30.3031 16.1087 30.0559 16.2337C29.8088 16.3587 29.4977 16.4212 29.1227 16.4212ZM29.5531 15.1555C29.8798 15.1555 30.1582 15.0675 30.3883 14.8913C30.6184 14.7124 30.7931 14.4638 30.9125 14.1456C31.0318 13.8274 31.0914 13.4567 31.0914 13.0334C31.0914 12.6101 31.0318 12.2422 30.9125 11.9297C30.796 11.6172 30.6227 11.3743 30.3926 11.201C30.1653 11.0277 29.8855 10.9411 29.5531 10.9411C29.2093 10.9411 28.9224 11.0305 28.6923 11.2095C28.4622 11.3885 28.2889 11.6357 28.1724 11.951C28.0559 12.2663 27.9977 12.6271 27.9977 13.0334C27.9977 13.4425 28.0559 13.8075 28.1724 14.1286C28.2917 14.4467 28.4664 14.6982 28.6966 14.8828C28.9295 15.0646 29.215 15.1555 29.5531 15.1555Z"
        fill="white" />
    <path
        d="M34.3184 16.3061V7.57883H35.8611V10.843H35.925C36.0045 10.6839 36.1167 10.5149 36.2616 10.3359C36.4065 10.1541 36.6025 9.99929 36.8497 9.87145C37.0969 9.74077 37.4122 9.67543 37.7957 9.67543C38.3014 9.67543 38.7574 9.80469 39.1636 10.0632C39.5727 10.3189 39.8966 10.6982 40.1352 11.201C40.3767 11.701 40.4974 12.3146 40.4974 13.0419C40.4974 13.7607 40.3795 14.3714 40.1437 14.8743C39.9079 15.3771 39.5869 15.7607 39.1807 16.0249C38.7744 16.2891 38.3142 16.4212 37.8 16.4212C37.425 16.4212 37.1139 16.3587 36.8667 16.2337C36.6196 16.1087 36.4207 15.9581 36.2701 15.782C36.1224 15.603 36.0074 15.4339 35.925 15.2749H35.8355V16.3061H34.3184ZM35.8312 13.0334C35.8312 13.4567 35.8909 13.8274 36.0102 14.1456C36.1324 14.4638 36.3071 14.7124 36.5344 14.8913C36.7645 15.0675 37.0429 15.1555 37.3696 15.1555C37.7105 15.1555 37.996 15.0646 38.2261 14.8828C38.4562 14.6982 38.6295 14.4467 38.746 14.1286C38.8653 13.8075 38.925 13.4425 38.925 13.0334C38.925 12.6271 38.8667 12.2663 38.7503 11.951C38.6338 11.6357 38.4605 11.3885 38.2304 11.2095C38.0003 11.0305 37.7133 10.9411 37.3696 10.9411C37.04 10.9411 36.7602 11.0277 36.5301 11.201C36.3 11.3743 36.1253 11.6172 36.0059 11.9297C35.8895 12.2422 35.8312 12.6101 35.8312 13.0334Z"
        fill="white" />
    <path
        d="M45.0753 9.76065V10.9538H41.3125V9.76065H45.0753ZM42.2415 8.19247H43.7841V14.3374C43.7841 14.5447 43.8153 14.7038 43.8778 14.8146C43.9432 14.9226 44.0284 14.9964 44.1335 15.0362C44.2386 15.076 44.3551 15.0959 44.483 15.0959C44.5795 15.0959 44.6676 15.0888 44.7472 15.0746C44.8295 15.0604 44.892 15.0476 44.9347 15.0362L45.1946 16.2422C45.1122 16.2706 44.9943 16.3018 44.8409 16.3359C44.6903 16.37 44.5057 16.3899 44.2869 16.3956C43.9006 16.407 43.5526 16.3487 43.2429 16.2209C42.9332 16.0902 42.6875 15.8885 42.5057 15.6158C42.3267 15.343 42.2386 15.0021 42.2415 14.593V8.19247Z"
        fill="white" />
</svg>