<svg width="52" height="24" viewBox="0 0 52 24" fill="none" xmlns="http://www.w3.org/2000/svg">
<rect width="51.7298" height="24" rx="8" fill="#FF6B4C"/>
<path d="M21.8122 5.30328C22.1513 5.6335 22.3731 6.06938 22.4252 6.54487C22.4252 6.743 22.3731 6.87511 22.2557 7.12605C22.1383 7.37701 20.6905 9.91308 20.2602 10.6131C20.0124 11.0226 19.8819 11.5113 19.8819 11.9868C19.8819 12.4755 20.0124 12.9511 20.2602 13.3605C20.6905 14.0606 22.1383 16.6098 22.2557 16.8608C22.3731 17.1118 22.4252 17.2306 22.4252 17.4287C22.3731 17.9043 22.1644 18.3401 21.8253 18.6571C21.4992 19.0006 21.0688 19.2251 20.6123 19.2647C20.4167 19.2647 20.2862 19.2119 20.0515 19.093C19.8167 18.9742 17.2603 17.5476 16.5691 17.1118C16.5169 17.0853 16.4647 17.0457 16.3995 17.0193L12.9823 14.972C13.0606 15.6324 13.3475 16.2664 13.817 16.7287C13.9084 16.8212 13.9996 16.9004 14.104 16.9797C14.0257 17.0193 13.9344 17.0589 13.8562 17.1118C13.1649 17.5476 10.6477 19.0138 10.3999 19.1327C10.1521 19.2515 10.0347 19.3044 9.82597 19.3044C9.35645 19.2515 8.92603 19.0402 8.613 18.6968C8.27391 18.3666 8.05218 17.9307 8 17.4552C8.01303 17.2571 8.06521 17.0589 8.16955 16.8872C8.28694 16.6362 9.7347 14.087 10.1651 13.3869C10.4129 12.9775 10.5433 12.502 10.5433 12.0132C10.5433 11.5245 10.4129 11.049 10.1651 10.6395C9.7347 9.91308 8.27391 7.36381 8.16955 7.11284C8.06521 6.94113 8.01303 6.743 8 6.54487C8.05218 6.06938 8.26085 5.6335 8.59997 5.30328C8.92603 4.95985 9.35645 4.74851 9.82597 4.69568C10.0216 4.70889 10.2172 4.76172 10.3999 4.86739C10.6085 4.95985 12.4475 6.04297 13.4258 6.62415L13.6475 6.7562C13.7258 6.80904 13.791 6.84867 13.8432 6.87511L13.9475 6.94113L17.4299 9.0281C17.3516 8.23558 16.9473 7.5091 16.3212 7.02038C16.3995 6.98078 16.4908 6.94113 16.5691 6.88829C17.2603 6.45244 19.7776 4.97306 20.0254 4.86739C20.1949 4.76172 20.3906 4.70889 20.5993 4.69568C21.0558 4.74851 21.4862 4.95985 21.8122 5.30328ZM15.3952 12.9378L16.1387 12.1849C16.243 12.0793 16.243 11.9208 16.1387 11.8151L15.3952 11.0622C15.2909 10.9565 15.1344 10.9565 15.03 11.0622L14.2866 11.8151C14.1822 11.9208 14.1822 12.0793 14.2866 12.1849L15.03 12.9378C15.1213 13.0303 15.2909 13.0303 15.3952 12.9378Z" fill="white"/>
<path d="M26.1227 16.4212C25.6085 16.4212 25.1483 16.2891 24.7421 16.0249C24.3358 15.7607 24.0148 15.3772 23.779 14.8743C23.5432 14.3715 23.4253 13.7607 23.4253 13.0419C23.4253 12.3147 23.5446 11.701 23.7832 11.201C24.0247 10.6982 24.35 10.3189 24.7591 10.0632C25.1682 9.80471 25.6242 9.67545 26.127 9.67545C26.5105 9.67545 26.8259 9.74079 27.073 9.87147C27.3202 9.99931 27.5162 10.1541 27.6611 10.336C27.806 10.5149 27.9182 10.684 27.9977 10.8431H28.0617V7.57886H29.6085V16.3061H28.0915V15.2749H27.9977C27.9182 15.434 27.8031 15.603 27.6526 15.782C27.502 15.9581 27.3031 16.1087 27.056 16.2337C26.8088 16.3587 26.4977 16.4212 26.1227 16.4212ZM26.5531 15.1556C26.8798 15.1556 27.1582 15.0675 27.3884 14.8914C27.6185 14.7124 27.7932 14.4638 27.9125 14.1456C28.0318 13.8274 28.0915 13.4567 28.0915 13.0334C28.0915 12.6101 28.0318 12.2422 27.9125 11.9297C27.796 11.6172 27.6227 11.3743 27.3926 11.201C27.1653 11.0277 26.8855 10.9411 26.5531 10.9411C26.2094 10.9411 25.9225 11.0306 25.6923 11.2095C25.4622 11.3885 25.2889 11.6357 25.1725 11.951C25.056 12.2664 24.9977 12.6272 24.9977 13.0334C24.9977 13.4425 25.056 13.8076 25.1725 14.1286C25.2918 14.4468 25.4665 14.6982 25.6966 14.8828C25.9296 15.0647 26.2151 15.1556 26.5531 15.1556Z" fill="white"/>
<path d="M31.3185 16.3061V7.57886H32.8611V10.8431H32.925C33.0046 10.684 33.1168 10.5149 33.2617 10.336C33.4066 10.1541 33.6026 9.99931 33.8497 9.87147C34.0969 9.74079 34.4122 9.67545 34.7958 9.67545C35.3014 9.67545 35.7574 9.80471 36.1637 10.0632C36.5728 10.3189 36.8966 10.6982 37.1353 11.201C37.3767 11.701 37.4975 12.3147 37.4975 13.0419C37.4975 13.7607 37.3796 14.3715 37.1438 14.8743C36.908 15.3772 36.587 15.7607 36.1807 16.0249C35.7745 16.2891 35.3142 16.4212 34.8 16.4212C34.425 16.4212 34.1139 16.3587 33.8668 16.2337C33.6196 16.1087 33.4208 15.9581 33.2702 15.782C33.1225 15.603 33.0074 15.434 32.925 15.2749H32.8355V16.3061H31.3185ZM32.8313 13.0334C32.8313 13.4567 32.8909 13.8274 33.0103 14.1456C33.1324 14.4638 33.3071 14.7124 33.5344 14.8914C33.7645 15.0675 34.0429 15.1556 34.3696 15.1556C34.7105 15.1556 34.9961 15.0647 35.2262 14.8828C35.4563 14.6982 35.6296 14.4468 35.7461 14.1286C35.8654 13.8076 35.925 13.4425 35.925 13.0334C35.925 12.6272 35.8668 12.2664 35.7503 11.951C35.6338 11.6357 35.4605 11.3885 35.2304 11.2095C35.0003 11.0306 34.7134 10.9411 34.3696 10.9411C34.0401 10.9411 33.7603 11.0277 33.5301 11.201C33.3 11.3743 33.1253 11.6172 33.006 11.9297C32.8895 12.2422 32.8313 12.6101 32.8313 13.0334Z" fill="white"/>
<path d="M42.0753 9.76068V10.9539H38.3125V9.76068H42.0753ZM39.2415 8.19249H40.7841V14.3374C40.7841 14.5448 40.8154 14.7039 40.8779 14.8147C40.9432 14.9226 41.0285 14.9965 41.1336 15.0362C41.2387 15.076 41.3552 15.0959 41.483 15.0959C41.5796 15.0959 41.6677 15.0888 41.7472 15.0746C41.8296 15.0604 41.8921 15.0476 41.9347 15.0362L42.1947 16.2422C42.1123 16.2706 41.9944 16.3019 41.841 16.336C41.6904 16.3701 41.5057 16.3899 41.287 16.3956C40.9006 16.407 40.5526 16.3487 40.2429 16.2209C39.9333 16.0902 39.6875 15.8885 39.5057 15.6158C39.3268 15.3431 39.2387 15.0022 39.2415 14.5931V8.19249Z" fill="white"/>
<path d="M43.6803 11.9304L43.6037 12.149H43.5752L43.4985 11.931V12.149H43.4491V11.8511H43.5106L43.5894 12.0725L43.6685 11.8511H43.7297V12.149H43.6803V11.9304ZM43.4058 11.896H43.3255V12.149H43.2755V11.896H43.1946V11.8511H43.4058V11.896Z" fill="white"/>
</svg>
