<svg width="53" height="24" viewBox="0 0 53 24" fill="none" xmlns="http://www.w3.org/2000/svg">
<rect x="-0.000732422" width="53.0007" height="24" rx="8" fill="#FF694A" fill-opacity="0.1"/>
<path d="M21.8115 5.30325C22.1506 5.63347 22.3723 6.06935 22.4245 6.54483C22.4245 6.74297 22.3723 6.87508 22.255 7.12602C22.1376 7.37698 20.6898 9.91305 20.2594 10.6131C20.0116 11.0226 19.8812 11.5113 19.8812 11.9868C19.8812 12.4755 20.0116 12.951 20.2594 13.3605C20.6898 14.0605 22.1376 16.6098 22.255 16.8607C22.3723 17.1117 22.4245 17.2306 22.4245 17.4287C22.3723 17.9042 22.1637 18.3401 21.8245 18.6571C21.4985 19.0005 21.0681 19.2251 20.6116 19.2647C20.4159 19.2647 20.2855 19.2119 20.0508 19.093C19.816 18.9741 17.2596 17.5476 16.5683 17.1117C16.5161 17.0853 16.464 17.0457 16.3988 17.0192L12.9816 14.9719C13.0598 15.6324 13.3468 16.2664 13.8163 16.7287C13.9076 16.8211 13.9989 16.9004 14.1033 16.9796C14.025 17.0192 13.9337 17.0589 13.8555 17.1117C13.1642 17.5476 10.6469 19.0138 10.3991 19.1326C10.1513 19.2515 10.0339 19.3043 9.82524 19.3043C9.35572 19.2515 8.9253 19.0402 8.61227 18.6967C8.27318 18.3665 8.05145 17.9307 7.99927 17.4552C8.0123 17.257 8.06448 17.0589 8.16881 16.8872C8.28621 16.6362 9.73396 14.0869 10.1644 13.3869C10.4122 12.9774 10.5426 12.5019 10.5426 12.0132C10.5426 11.5245 10.4122 11.049 10.1644 10.6395C9.73396 9.91305 8.27318 7.36377 8.16881 7.11281C8.06448 6.9411 8.0123 6.74297 7.99927 6.54483C8.05145 6.06935 8.26012 5.63347 8.59924 5.30325C8.9253 4.95982 9.35572 4.74848 9.82524 4.69565C10.0209 4.70886 10.2165 4.76169 10.3991 4.86736C10.6078 4.95982 12.4468 6.04293 13.425 6.62412L13.6468 6.75617C13.725 6.80901 13.7902 6.84863 13.8424 6.87508L13.9468 6.9411L17.4291 9.02807C17.3509 8.23555 16.9466 7.50907 16.3205 7.02035C16.3988 6.98075 16.4901 6.9411 16.5683 6.88826C17.2596 6.4524 19.7768 4.97303 20.0247 4.86736C20.1942 4.76169 20.3898 4.70886 20.5985 4.69565C21.055 4.74848 21.4854 4.95982 21.8115 5.30325ZM15.3945 12.9378L16.1379 12.1849C16.2423 12.0792 16.2423 11.9207 16.1379 11.8151L15.3945 11.0622C15.2901 10.9565 15.1336 10.9565 15.0293 11.0622L14.2858 11.8151C14.1815 11.9207 14.1815 12.0792 14.2858 12.1849L15.0293 12.9378C15.1206 13.0303 15.2901 13.0303 15.3945 12.9378Z" fill="#FF694A"/>
<path d="M30.5731 6.95393V16.9264H28.5773V15.9093C28.3685 16.266 28.0688 16.5566 27.7034 16.7415C27.3122 16.9396 26.8688 17.0453 26.4252 17.0453C25.8776 17.0585 25.3297 16.9 24.8732 16.583C24.4037 16.266 24.0384 15.8301 23.8037 15.315C23.5429 14.7206 23.4124 14.0866 23.4254 13.4393C23.4124 12.7921 23.5429 12.1581 23.8037 11.5769C24.0384 11.075 24.4037 10.6391 24.8602 10.3353C25.3297 10.0315 25.8776 9.88623 26.4252 9.89944C26.8558 9.89944 27.2861 9.9919 27.6643 10.19C28.0297 10.375 28.3294 10.6523 28.5382 10.9958V7.62758L30.5731 6.95393ZM28.1731 14.9583C28.4337 14.6149 28.5773 14.113 28.5773 13.4658C28.5773 12.8185 28.447 12.3298 28.1731 11.9864C27.8991 11.643 27.4685 11.4449 27.0252 11.4581C26.5819 11.4317 26.1516 11.6298 25.8643 11.9732C25.5907 12.3166 25.447 12.8054 25.447 13.4393C25.447 14.0866 25.5907 14.5885 25.8643 14.9451C26.1382 15.3018 26.5819 15.4999 27.0252 15.4867C27.521 15.4867 27.9122 15.3018 28.1731 14.9583Z" fill="#262A38"/>
<path d="M37.2858 10.3352C37.7552 10.639 38.1206 11.0749 38.3421 11.5768C38.6031 12.158 38.7334 12.792 38.7206 13.4392C38.7334 14.0864 38.6031 14.7336 38.3421 15.3148C38.1073 15.83 37.7425 16.2658 37.2728 16.5828C36.8161 16.8866 36.2685 17.0452 35.7206 17.0319C35.2773 17.0452 34.8337 16.9395 34.4425 16.7281C34.0773 16.5432 33.7773 16.2526 33.5815 15.896V16.9262H31.5731V7.64062L33.5949 6.96698V11.0352C33.7903 10.6786 34.0903 10.388 34.4555 10.2031C34.8467 9.99174 35.2773 9.88607 35.7206 9.89928C36.2685 9.88607 36.8161 10.0446 37.2858 10.3352ZM36.2946 14.9582C36.5685 14.6015 36.6988 14.0996 36.6988 13.4392C36.6988 12.8052 36.5685 12.3164 36.2946 11.973C36.0206 11.6296 35.6425 11.4579 35.1467 11.4579C34.7034 11.4315 34.2728 11.6296 33.9861 11.9863C33.7121 12.3429 33.5815 12.8316 33.5815 13.4656C33.5815 14.1128 33.7121 14.6148 33.9861 14.9582C34.26 15.3148 34.6903 15.5129 35.1467 15.4865C35.5903 15.5129 36.0206 15.3148 36.2946 14.9582Z" fill="#262A38"/>
<path d="M41.743 11.1802V13.8484C41.743 14.2314 41.8476 14.5088 42.0303 14.6805C42.2388 14.8654 42.5127 14.9579 42.7997 14.9447C43.0212 14.9447 43.256 14.9051 43.4648 14.8522V16.4373C43.0866 16.5694 42.6954 16.6354 42.3039 16.6222C41.4694 16.6222 40.83 16.3844 40.3866 15.9089C39.9433 15.4334 39.7215 14.7598 39.7215 13.888V8.0366L41.743 7.37616V9.64806H43.4648V11.1802H41.743Z" fill="#262A38"/>
<path d="M44.9506 11.9304L44.8739 12.149H44.8454L44.7688 11.9309V12.149H44.7194V11.851H44.7809L44.8597 12.0724L44.9388 11.851H45V12.149H44.9506V11.9304ZM44.6761 11.896H44.5958V12.149H44.5458V11.896H44.4648V11.851H44.6761V11.896Z" fill="#262A38"/>
</svg>
