<svg width="65" height="24" viewBox="8 0 65 24" fill="none" xmlns="http://www.w3.org/2000/svg">
    <path
        d="M14.5898 5.5C10.9426 5.5 8 8.41667 8 12C8 15.5833 10.9426 18.5 14.5898 18.5C18.2369 18.5 21.1795 15.5833 21.1795 12C21.1795 8.41667 18.2369 5.5 14.5898 5.5ZM13.2221 14.7083C11.7301 14.7083 10.4867 13.5 10.4867 12C10.4867 10.5 11.7301 9.29167 13.2221 9.29167C14.7141 9.29167 15.9575 10.5 15.9575 12C15.9575 13.5 14.7141 14.7083 13.2221 14.7083ZM18.1126 12.9583H16.8278V11.0417H18.1126C18.6514 11.0417 19.1073 11.4583 19.1073 12C19.1073 12.5417 18.6514 12.9583 18.1126 12.9583Z"
        fill="#171615" />
    <path
        d="M29.3349 16H26.3775V7.27273H29.3945C30.261 7.27273 31.0053 7.44744 31.6275 7.79688C32.2525 8.14347 32.7326 8.64205 33.0678 9.29261C33.403 9.94318 33.5707 10.7216 33.5707 11.6278C33.5707 12.5369 33.4016 13.3182 33.0636 13.9716C32.7283 14.625 32.244 15.1264 31.6104 15.4759C30.9797 15.8253 30.2212 16 29.3349 16ZM27.9584 14.6321H29.2582C29.8661 14.6321 30.3732 14.5213 30.7795 14.2997C31.1857 14.0753 31.4911 13.7415 31.6957 13.2983C31.9002 12.8523 32.0025 12.2955 32.0025 11.6278C32.0025 10.9602 31.9002 10.4062 31.6957 9.96591C31.4911 9.52273 31.1886 9.19176 30.788 8.97301C30.3903 8.75142 29.8959 8.64062 29.305 8.64062H27.9584V14.6321ZM39.1744 13.2472V9.45455H40.7171V16H39.2213V14.8366H39.1531C39.0054 15.2031 38.7625 15.5028 38.4244 15.7358C38.0892 15.9687 37.6759 16.0852 37.1844 16.0852C36.7554 16.0852 36.3761 15.9901 36.0466 15.7997C35.7199 15.6065 35.4642 15.3267 35.2796 14.9602C35.0949 14.5909 35.0026 14.1449 35.0026 13.6222V9.45455H36.5452V13.3835C36.5452 13.7983 36.6588 14.1278 36.8861 14.3722C37.1134 14.6165 37.4117 14.7386 37.781 14.7386C38.0082 14.7386 38.2284 14.6832 38.4415 14.5724C38.6546 14.4616 38.8293 14.2969 38.9656 14.0781C39.1048 13.8565 39.1744 13.5795 39.1744 13.2472ZM45.1564 16.1278C44.503 16.1278 43.9419 15.9844 43.4732 15.6974C43.0073 15.4105 42.6479 15.0142 42.3951 14.5085C42.1451 14 42.0201 13.4148 42.0201 12.7528C42.0201 12.0881 42.1479 11.5014 42.4036 10.9929C42.6593 10.4815 43.0201 10.0838 43.486 9.79972C43.9547 9.51278 44.5087 9.36932 45.1479 9.36932C45.6792 9.36932 46.1493 9.46733 46.5584 9.66335C46.9703 9.85653 47.2985 10.1307 47.5428 10.4858C47.7871 10.8381 47.9263 11.25 47.9604 11.7216H46.486C46.4263 11.4062 46.2843 11.1435 46.0598 10.9332C45.8382 10.7202 45.5414 10.6136 45.1692 10.6136C44.8539 10.6136 44.5769 10.6989 44.3382 10.8693C44.0996 11.0369 43.9135 11.2784 43.78 11.5938C43.6493 11.9091 43.584 12.2869 43.584 12.7273C43.584 13.1733 43.6493 13.5568 43.78 13.8778C43.9107 14.196 44.0939 14.4418 44.3297 14.6151C44.5684 14.7855 44.8482 14.8707 45.1692 14.8707C45.3965 14.8707 45.5996 14.8281 45.7786 14.7429C45.9604 14.6548 46.1124 14.5284 46.2345 14.3636C46.3567 14.1989 46.4405 13.9986 46.486 13.7628H47.9604C47.9235 14.2259 47.7871 14.6364 47.5513 14.9943C47.3155 15.3494 46.9945 15.6278 46.5882 15.8295C46.182 16.0284 45.7047 16.1278 45.1564 16.1278ZM50.6313 13.946L50.627 12.0838H50.8742L53.2265 9.45455H55.029L52.1356 12.6761H51.816L50.6313 13.946ZM49.225 16V7.27273H50.7677V16H49.225ZM53.333 16L51.2023 13.0213L52.2421 11.9347L55.1782 16H53.333ZM59.0806 16H56.1232V7.27273H59.1403C60.0067 7.27273 60.7511 7.44744 61.3732 7.79688C61.9982 8.14347 62.4783 8.64205 62.8136 9.29261C63.1488 9.94318 63.3164 10.7216 63.3164 11.6278C63.3164 12.5369 63.1474 13.3182 62.8093 13.9716C62.4741 14.625 61.9897 15.1264 61.3562 15.4759C60.7255 15.8253 59.967 16 59.0806 16ZM57.7042 14.6321H59.0039C59.6119 14.6321 60.119 14.5213 60.5252 14.2997C60.9315 14.0753 61.2369 13.7415 61.4414 13.2983C61.646 12.8523 61.7482 12.2955 61.7482 11.6278C61.7482 10.9602 61.646 10.4062 61.4414 9.96591C61.2369 9.52273 60.9343 9.19176 60.5337 8.97301C60.136 8.75142 59.6417 8.64062 59.0508 8.64062H57.7042V14.6321ZM64.8165 16V7.27273H68.1574C68.7881 7.27273 69.3122 7.37216 69.7298 7.57102C70.1503 7.76705 70.4642 8.03551 70.6716 8.37642C70.8818 8.71733 70.9869 9.10369 70.9869 9.53551C70.9869 9.89062 70.9188 10.1946 70.7824 10.4474C70.646 10.6974 70.4628 10.9006 70.2327 11.0568C70.0026 11.2131 69.7455 11.3253 69.4614 11.3935V11.4787C69.771 11.4957 70.0679 11.5909 70.352 11.7642C70.6389 11.9347 70.8733 12.1761 71.0551 12.4886C71.237 12.8011 71.3279 13.179 71.3279 13.6222C71.3279 14.0739 71.2185 14.4801 70.9997 14.8409C70.781 15.1989 70.4514 15.4815 70.0111 15.6889C69.5708 15.8963 69.0168 16 68.3492 16H64.8165ZM66.3975 14.679H68.0977C68.6716 14.679 69.085 14.5696 69.3378 14.3509C69.5935 14.1293 69.7213 13.8452 69.7213 13.4986C69.7213 13.2401 69.6574 13.0071 69.5296 12.7997C69.4017 12.5895 69.2199 12.4247 68.9841 12.3054C68.7483 12.1832 68.4671 12.1222 68.1404 12.1222H66.3975V14.679ZM66.3975 10.9844H67.9614C68.2341 10.9844 68.4798 10.9347 68.6986 10.8352C68.9173 10.733 69.0892 10.5895 69.2142 10.4048C69.3421 10.2173 69.406 9.99574 69.406 9.74006C69.406 9.40199 69.2867 9.12358 69.048 8.90483C68.8122 8.68608 68.4614 8.5767 67.9955 8.5767H66.3975V10.9844Z"
        fill="#171615" />
</svg>