<svg width="16px" height="16px" viewBox="0 0 16 16" version="1.1" xmlns="http://www.w3.org/2000/svg" xmlns:xlink="http://www.w3.org/1999/xlink">
        <g stroke="none" stroke-width="1" fill="none" fill-rule="evenodd">
        <g id="duckdb" transform="translate(0.142857, 0.285714)" fill="currentColor" fill-rule="nonzero">
            <path d="M7.5312,0 C3.36297143,0 0,3.33333714 0,7.42857143 C0,11.5237714 3.36297143,14.8571429 7.5312,14.8571429 C11.6993143,14.8571429 15.0622857,11.5237714 15.0622857,7.42857143 C15.0622857,3.33333714 11.6993143,0 7.5312,0 Z M5.96811429,10.5237714 C4.26297143,10.5237714 2.84194286,9.14285714 2.84194286,7.42857143 C2.84194286,5.71428571 4.26297143,4.33333714 5.96811429,4.33333714 C7.67325714,4.33333714 9.09428571,5.71428571 9.09428571,7.42857143 C9.09428571,9.14285714 7.67325714,10.5237714 5.96811429,10.5237714 Z M11.5572571,8.52377143 L10.0889143,8.52377143 L10.0889143,6.33337143 L11.5572571,6.33337143 C12.1730286,6.33337143 12.6940571,6.80948571 12.6940571,7.42857143 C12.6940571,8.04765714 12.1730286,8.52377143 11.5572571,8.52377143 Z" id="Shape"></path>
        </g>
    </g>
</svg>