<svg width="76" height="24" viewBox="0 0 76 24" fill="none" xmlns="http://www.w3.org/2000/svg">
<rect width="75.0538" height="24" rx="8" fill="#0073FF"/>
<path d="M14.4562 12.0068H15.7614C15.813 12.0068 15.8625 11.9863 15.899 11.9498C15.9354 11.9133 15.9559 11.8639 15.9559 11.8123C15.9558 11.7856 15.9505 11.7591 15.9404 11.7345L13.6956 5.62449C13.6817 5.58854 13.6575 5.55752 13.626 5.53536C13.5945 5.51319 13.5571 5.50089 13.5186 5.5H12.2094C12.1578 5.5 12.1084 5.52049 12.0719 5.55697C12.0354 5.59345 12.0149 5.64293 12.0149 5.69452C12.0149 5.71708 12.0189 5.73946 12.0266 5.76066L14.2733 11.8862C14.2881 11.9223 14.3135 11.9532 14.3461 11.9747C14.3788 11.9962 14.4171 12.0074 14.4562 12.0068V12.0068Z" fill="white"/>
<path d="M14.2248 18.5H15.5301C15.5817 18.5 15.6312 18.4795 15.6676 18.443C15.7041 18.4065 15.7246 18.3571 15.7246 18.3055C15.7246 18.2829 15.7206 18.2605 15.713 18.2393L11.0852 5.6284C11.0713 5.59215 11.0467 5.56092 11.0148 5.53873C10.9829 5.51654 10.9451 5.50441 10.9063 5.50391H9.60297C9.55138 5.50391 9.5019 5.5244 9.46542 5.56088C9.42894 5.59736 9.40845 5.64684 9.40845 5.69843C9.40847 5.72099 9.41242 5.74336 9.42012 5.76457L14.0478 18.3775C14.062 18.413 14.0863 18.4437 14.1178 18.4655C14.1493 18.4873 14.1866 18.4993 14.2248 18.5Z" fill="white"/>
<path d="M11.6532 18.5H12.9565C13.0055 18.5002 13.0528 18.4818 13.0888 18.4487C13.1249 18.4155 13.1471 18.3699 13.151 18.3211C13.151 18.2953 13.147 18.2698 13.1394 18.2452L10.8868 12.1294C10.8729 12.0934 10.8487 12.0624 10.8172 12.0402C10.7857 12.0181 10.7483 12.0058 10.7098 12.0049H9.39867C9.34913 12.0079 9.3026 12.0297 9.26861 12.0658C9.23461 12.102 9.21573 12.1498 9.21582 12.1994C9.21576 12.2207 9.21972 12.2418 9.22749 12.2617L11.4704 18.3794C11.4852 18.4156 11.5106 18.4464 11.5432 18.4679C11.5758 18.4894 11.6141 18.5006 11.6532 18.5Z" fill="white"/>
<path d="M14.6137 5.76651L15.6661 8.62795C15.6799 8.6639 15.7042 8.69493 15.7357 8.71709C15.7672 8.73925 15.8046 8.75156 15.8431 8.75245H17.1425C17.1941 8.75245 17.2436 8.73195 17.2801 8.69547C17.3165 8.65899 17.337 8.60951 17.337 8.55792C17.337 8.53537 17.3331 8.51298 17.3254 8.49178L16.273 5.6284C16.2591 5.59245 16.2349 5.56143 16.2034 5.53926C16.1719 5.5171 16.1345 5.50479 16.096 5.50391H14.7907C14.7391 5.50391 14.6896 5.5244 14.6532 5.56088C14.6167 5.59736 14.5962 5.64684 14.5962 5.69843C14.5978 5.722 14.6038 5.74507 14.6137 5.76651V5.76651Z" fill="white"/>
<path d="M9.24689 18.5H10.5502C10.6018 18.5 10.6513 18.4795 10.6877 18.443C10.7242 18.4065 10.7447 18.357 10.7447 18.3055C10.7447 18.2829 10.7407 18.2605 10.733 18.2393L9.67484 15.3701C9.66086 15.3338 9.63635 15.3026 9.60445 15.2804C9.57255 15.2582 9.53474 15.2461 9.49588 15.2456H8.19452C8.14293 15.2456 8.09346 15.2661 8.05698 15.3026C8.0205 15.3391 8 15.3885 8 15.4401C8.00007 15.4633 8.00402 15.4863 8.01167 15.5082L9.06404 18.3774C9.07857 18.4139 9.10383 18.4452 9.13647 18.4671C9.16911 18.4889 9.2076 18.5004 9.24689 18.5V18.5Z" fill="white"/>
<path d="M21.3372 16.5085V7.78125H26.9281V9.10653H22.9181V11.4759H26.5445V12.8011H22.9181V16.5085H21.3372Z" fill="white"/>
<path d="M28.2982 16.5085V9.96307H29.8408V16.5085H28.2982ZM29.0738 9.03409C28.8294 9.03409 28.6192 8.95312 28.4431 8.79119C28.2669 8.62642 28.1789 8.42898 28.1789 8.19886C28.1789 7.96591 28.2669 7.76847 28.4431 7.60653C28.6192 7.44176 28.8294 7.35938 29.0738 7.35938C29.3209 7.35938 29.5311 7.44176 29.7044 7.60653C29.8806 7.76847 29.9686 7.96591 29.9686 8.19886C29.9686 8.42898 29.8806 8.62642 29.7044 8.79119C29.5311 8.95312 29.3209 9.03409 29.0738 9.03409Z" fill="white"/>
<path d="M37.2716 9.96307L34.9407 16.5085H33.2361L30.9052 9.96307H32.5501L34.0543 14.8253H34.1225L35.631 9.96307H37.2716Z" fill="white"/>
<path d="M41.0121 16.6364C40.3559 16.6364 39.7891 16.5 39.3119 16.2273C38.8374 15.9517 38.4724 15.5625 38.2167 15.0597C37.961 14.554 37.8332 13.9588 37.8332 13.2741C37.8332 12.6009 37.961 12.0099 38.2167 11.5014C38.4752 10.9901 38.836 10.5923 39.2991 10.3082C39.7621 10.0213 40.3062 9.87784 40.9312 9.87784C41.3346 9.87784 41.7153 9.94318 42.0732 10.0739C42.434 10.2017 42.7522 10.4006 43.0278 10.6705C43.3062 10.9403 43.5249 11.2841 43.684 11.7017C43.8431 12.1165 43.9227 12.6108 43.9227 13.1847V13.6577H38.5576V12.6179H42.444C42.4411 12.3224 42.3772 12.0597 42.2522 11.8295C42.1272 11.5966 41.9525 11.4134 41.7281 11.2798C41.5065 11.1463 41.2479 11.0795 40.9525 11.0795C40.6371 11.0795 40.3602 11.1562 40.1215 11.3097C39.8829 11.4602 39.6968 11.6591 39.5633 11.9062C39.4326 12.1506 39.3658 12.419 39.363 12.7116V13.6193C39.363 14 39.4326 14.3267 39.5718 14.5994C39.711 14.8693 39.9056 15.0767 40.1556 15.2216C40.4056 15.3636 40.6982 15.4347 41.0335 15.4347C41.2579 15.4347 41.461 15.4034 41.6428 15.3409C41.8246 15.2756 41.9823 15.1804 42.1158 15.0554C42.2494 14.9304 42.3502 14.7756 42.4184 14.5909L43.8587 14.7528C43.7678 15.1335 43.5945 15.4659 43.3389 15.75C43.086 16.0312 42.7621 16.25 42.3673 16.4062C41.9724 16.5597 41.5207 16.6364 41.0121 16.6364Z" fill="white"/>
<path d="M48.4941 9.96307V11.1562H44.7313V9.96307H48.4941ZM45.6603 8.39489H47.2029V14.5398C47.2029 14.7472 47.2342 14.9063 47.2967 15.017C47.362 15.125 47.4473 15.1989 47.5524 15.2386C47.6575 15.2784 47.774 15.2983 47.9018 15.2983C47.9984 15.2983 48.0865 15.2912 48.166 15.277C48.2484 15.2628 48.3109 15.25 48.3535 15.2386L48.6134 16.4446C48.5311 16.473 48.4132 16.5043 48.2598 16.5384C48.1092 16.5724 47.9245 16.5923 47.7058 16.598C47.3194 16.6094 46.9714 16.5511 46.6617 16.4233C46.3521 16.2926 46.1063 16.0909 45.9245 15.8182C45.7455 15.5455 45.6575 15.2045 45.6603 14.7955V8.39489Z" fill="white"/>
<path d="M49.7822 16.5085V9.96307H51.278V11.054H51.3461C51.4655 10.6761 51.67 10.3849 51.9598 10.1804C52.2524 9.97301 52.5862 9.86932 52.9612 9.86932C53.0464 9.86932 53.1416 9.87358 53.2467 9.8821C53.3547 9.88778 53.4441 9.89773 53.5152 9.91193V11.331C53.4498 11.3082 53.3461 11.2884 53.2041 11.2713C53.0649 11.2514 52.9299 11.2415 52.7993 11.2415C52.518 11.2415 52.2652 11.3026 52.0407 11.4247C51.8191 11.544 51.6444 11.7102 51.5166 11.9233C51.3887 12.1364 51.3248 12.3821 51.3248 12.6605V16.5085H49.7822Z" fill="white"/>
<path d="M56.3043 16.6406C55.8895 16.6406 55.516 16.5668 55.1836 16.419C54.854 16.2685 54.5927 16.0469 54.3995 15.7543C54.2091 15.4616 54.114 15.1009 54.114 14.6719C54.114 14.3026 54.1822 13.9972 54.3185 13.7557C54.4549 13.5142 54.641 13.321 54.8768 13.1761C55.1126 13.0313 55.3782 12.9219 55.6736 12.848C55.9719 12.7713 56.2802 12.7159 56.5984 12.6818C56.9819 12.642 57.293 12.6065 57.5316 12.5753C57.7702 12.5412 57.9435 12.4901 58.0515 12.4219C58.1623 12.3509 58.2177 12.2415 58.2177 12.0938V12.0682C58.2177 11.7472 58.1225 11.4986 57.9322 11.3224C57.7418 11.1463 57.4677 11.0582 57.1097 11.0582C56.7319 11.0582 56.4322 11.1406 56.2106 11.3054C55.9918 11.4702 55.8441 11.6648 55.7674 11.8892L54.327 11.6847C54.4407 11.2869 54.6282 10.9545 54.8895 10.6875C55.1509 10.4176 55.4705 10.2159 55.8484 10.0824C56.2262 9.94602 56.6438 9.87784 57.1012 9.87784C57.4165 9.87784 57.7305 9.91477 58.043 9.98864C58.3555 10.0625 58.641 10.1847 58.8995 10.3551C59.158 10.5227 59.3654 10.7514 59.5216 11.0412C59.6807 11.331 59.7603 11.6932 59.7603 12.1278V16.5085H58.2773V15.6094H58.2262C58.1324 15.7912 58.0003 15.9616 57.8299 16.1207C57.6623 16.277 57.4506 16.4034 57.1949 16.5C56.9421 16.5938 56.6452 16.6406 56.3043 16.6406ZM56.7049 15.5071C57.0145 15.5071 57.283 15.446 57.5103 15.3239C57.7376 15.1989 57.9123 15.0341 58.0344 14.8295C58.1594 14.625 58.2219 14.402 58.2219 14.1605V13.3892C58.1736 13.429 58.0913 13.4659 57.9748 13.5C57.8611 13.5341 57.7333 13.5639 57.5913 13.5895C57.4492 13.6151 57.3086 13.6378 57.1694 13.6577C57.0302 13.6776 56.9094 13.6946 56.8072 13.7088C56.577 13.7401 56.3711 13.7912 56.1893 13.8622C56.0074 13.9332 55.864 14.0327 55.7589 14.1605C55.6537 14.2855 55.6012 14.4474 55.6012 14.6463C55.6012 14.9304 55.7049 15.1449 55.9123 15.2898C56.1197 15.4347 56.3839 15.5071 56.7049 15.5071Z" fill="white"/>
<path d="M62.852 12.6733V16.5085H61.3094V9.96307H62.7838V11.0753H62.8605C63.0111 10.7088 63.2511 10.4176 63.5807 10.2017C63.9131 9.9858 64.3236 9.87784 64.8122 9.87784C65.2639 9.87784 65.6574 9.97443 65.9926 10.1676C66.3307 10.3608 66.5921 10.6406 66.7767 11.0071C66.9642 11.3736 67.0565 11.8182 67.0537 12.3409V16.5085H65.5111V12.5795C65.5111 12.142 65.3975 11.7997 65.1702 11.5526C64.9457 11.3054 64.6347 11.1818 64.2369 11.1818C63.9671 11.1818 63.727 11.2415 63.5168 11.3608C63.3094 11.4773 63.146 11.6463 63.0267 11.8679C62.9102 12.0895 62.852 12.358 62.852 12.6733Z" fill="white"/>
</svg>
