<svg width="10px" height="13px" viewBox="0 0 10 13" version="1.1" xmlns="http://www.w3.org/2000/svg" xmlns:xlink="http://www.w3.org/1999/xlink">
        <g stroke="none" stroke-width="1" fill="none" fill-rule="evenodd">
        <g id="fivetran" transform="translate(0.660156, 0.000000)" fill="#FFFFFF" fill-rule="nonzero">
            <path d="M6.456154,6.50682146 L7.761414,6.50682146 C7.813004,6.50682146 7.862474,6.4863 7.898954,6.44982 C7.935434,6.41334 7.955934,6.36387 7.955934,6.31228 C7.955834,6.28558 7.950544,6.25915 7.940374,6.23446 L5.695574,0.124492 C5.681714,0.088543 5.657494,0.0575211 5.625974,0.0353571 C5.594464,0.013193 5.557074,0.000888257 5.518554,0 L4.209414,0 C4.157824,0 4.108354,0.0204912 4.071874,0.0569714 C4.035394,0.0934516 4.014894,0.142932 4.014894,0.194523 C4.014894,0.217079 4.018864,0.239458 4.026564,0.26066 L6.273304,6.3862 C6.288144,6.42234 6.313534,6.45317 6.346144,6.47468 C6.378754,6.49619 6.417094,6.50738 6.456154,6.50682146 L6.456154,6.50682146 Z" id="Path"></path>
            <path d="M6.224844,13 L7.530104,13 C7.581694,13 7.631164,12.9795 7.667644,12.943 C7.704124,12.9065 7.724624,12.8571 7.724624,12.8055 C7.724624,12.7829 7.720644,12.7605 7.712954,12.7393 L3.085234,0.128398 C3.071254,0.0921465 3.046744,0.060918 3.014844,0.038729 C2.982944,0.0165401 2.945134,0.00441078 2.906274,0.00390625 L1.602974,0.00390625 C1.551384,0.00390625 1.501904,0.0243975 1.465424,0.0608777 C1.428944,0.0973578 1.408444,0.146839 1.408444,0.198429 C1.408444,0.220985 1.412424,0.243364 1.420114,0.264567 L6.047834,12.8775 C6.061994,12.913 6.086344,12.9437 6.117834,12.9655 C6.149324,12.9873 6.186554,12.9993 6.224844,13 Z" id="Path"></path>
            <path d="M3.653204,13.0000229 L4.956504,13.0000229 C5.005504,13.0002 5.052764,12.9818 5.088834,12.9487 C5.124894,12.9155 5.147104,12.8699 5.151024,12.8211 C5.150954,12.7953 5.147024,12.7698 5.139354,12.7452 L2.886784,6.62938 C2.872924,6.59343 2.848694,6.5624 2.817184,6.54024 C2.785664,6.51808 2.748274,6.50577 2.709754,6.50488 L1.398674,6.50488 C1.349134,6.50786 1.302604,6.52966 1.268604,6.56583 C1.234614,6.60199 1.215734,6.64978 1.21582333,6.69941 C1.215764,6.7207 1.219724,6.74183 1.227494,6.76165 L3.470354,12.8794 C3.485194,12.9156 3.510564,12.9464 3.543174,12.9679 C3.575794,12.9894 3.614134,13.0006 3.653204,13.0000229 Z" id="Path"></path>
            <path d="M6.613704,0.266514 L7.666074,3.12795 C7.679934,3.1639 7.704154,3.19493 7.735664,3.21709 C7.767184,3.23925 7.804574,3.25156 7.843094,3.25245 L9.142504,3.25245 C9.194094,3.25245 9.243574,3.23195 9.280054,3.19547 C9.316534,3.15899 9.337034,3.10951 9.337034,3.05792 C9.337004,3.03537 9.333054,3.01298 9.325354,2.99178 L8.272994,0.128398 C8.259134,0.0924493 8.234914,0.0614274 8.203394,0.0392633 C8.171884,0.0170993 8.134484,0.00479451 8.095974,0.00390625 L6.790714,0.00390625 C6.739124,0.00390625 6.689654,0.0243975 6.653174,0.0608777 C6.616684,0.0973578 6.596194,0.146839 6.596194,0.198429 C6.597844,0.221999 6.603784,0.245071 6.613704,0.266514 L6.613704,0.266514 Z" id="Path"></path>
            <path d="M1.246884,13.0000101 L2.550194,13.0000101 C2.601784,13.0000101 2.651264,12.9795 2.687744,12.943 C2.724224,12.9065 2.744724,12.857 2.744724,12.8055 C2.744694,12.7829 2.740744,12.7605 2.733054,12.7393 L1.674844,9.87009 C1.660854,9.83384 1.636344,9.80262 1.604444,9.78043 C1.572554,9.75824 1.534734,9.74611 1.495884,9.74561 L0.194523,9.74561 C0.142933,9.74561 0.093458,9.76609 0.056978,9.80257 C0.020497,9.83905 2.22044605e-16,9.88854 2.22044605e-16,9.94013 C7.1e-05,9.96331 0.004016,9.98632 0.011671,10.0082 L1.064034,12.8774 C1.078574,12.9139 1.103834,12.9452 1.136474,12.9671 C1.169114,12.9889 1.207604,13.0004 1.246884,13.0000101 L1.246884,13.0000101 Z" id="Path"></path>
        </g>
    </g>
</svg>