<svg width="60" height="13" viewBox="0 0 60 13" fill="none" xmlns="http://www.w3.org/2000/svg">
<path d="M7.11631 6.5068H8.42157C8.47316 6.5068 8.52263 6.4863 8.55911 6.44982C8.59559 6.41334 8.61609 6.36387 8.61609 6.31228C8.61599 6.28558 8.6107 6.25915 8.60053 6.23446L6.35573 0.124492C6.34187 0.088543 6.31765 0.0575211 6.28613 0.0353571C6.25462 0.013193 6.21723 0.000888257 6.17871 0H4.86957C4.81798 0 4.76851 0.0204912 4.73203 0.0569714C4.69555 0.0934516 4.67505 0.142932 4.67505 0.194523C4.67508 0.217079 4.67902 0.239458 4.68672 0.26066L6.93346 6.3862C6.9483 6.42234 6.97369 6.45317 7.0063 6.47468C7.03891 6.49619 7.07725 6.50738 7.11631 6.5068V6.5068Z" fill="white"/>
<path d="M6.885 13H8.19026C8.24185 13 8.29132 12.9795 8.3278 12.943C8.36428 12.9065 8.38478 12.8571 8.38478 12.8055C8.38475 12.7829 8.3808 12.7605 8.37311 12.7393L3.74539 0.128398C3.73141 0.0921465 3.7069 0.060918 3.675 0.038729C3.6431 0.0165401 3.60529 0.00441078 3.56643 0.00390625H2.26313C2.21154 0.00390625 2.16206 0.0243975 2.12558 0.0608777C2.0891 0.0973578 2.0686 0.146839 2.0686 0.198429C2.06863 0.220985 2.07258 0.243364 2.08027 0.264567L6.70799 12.8775C6.72215 12.913 6.7465 12.9437 6.77799 12.9655C6.80948 12.9873 6.84671 12.9993 6.885 13Z" fill="white"/>
<path d="M4.31336 13H5.61666C5.66566 13.0002 5.71292 12.9818 5.74899 12.9487C5.78505 12.9155 5.80726 12.8699 5.81118 12.8211C5.81111 12.7953 5.80718 12.7698 5.79951 12.7452L3.54694 6.62938C3.53308 6.59343 3.50885 6.5624 3.47734 6.54024C3.44582 6.51808 3.40843 6.50577 3.36991 6.50488H2.05883C2.00929 6.50786 1.96276 6.52966 1.92876 6.56583C1.89477 6.60199 1.87589 6.64978 1.87598 6.69941C1.87592 6.7207 1.87988 6.74183 1.88765 6.76165L4.13051 12.8794C4.14535 12.9156 4.17072 12.9464 4.20333 12.9679C4.23595 12.9894 4.27429 13.0006 4.31336 13Z" fill="white"/>
<path d="M7.27386 0.266514L8.32623 3.12795C8.34009 3.1639 8.36431 3.19493 8.39582 3.21709C8.42734 3.23925 8.46473 3.25156 8.50325 3.25245H9.80266C9.85425 3.25245 9.90373 3.23195 9.94021 3.19547C9.97669 3.15899 9.99719 3.10951 9.99719 3.05792C9.99716 3.03537 9.99321 3.01298 9.98551 2.99178L8.93315 0.128398C8.91929 0.0924493 8.89507 0.0614274 8.86355 0.0392633C8.83204 0.0170993 8.79464 0.00479451 8.75613 0.00390625H7.45087C7.39928 0.00390625 7.34981 0.0243975 7.31333 0.0608777C7.27684 0.0973578 7.25635 0.146839 7.25635 0.198429C7.258 0.221999 7.26394 0.245071 7.27386 0.266514V0.266514Z" fill="white"/>
<path d="M1.90704 13H3.21035C3.26194 13 3.31142 12.9795 3.3479 12.943C3.38438 12.9065 3.40488 12.857 3.40488 12.8055C3.40485 12.7829 3.4009 12.7605 3.39321 12.7393L2.335 9.87009C2.32101 9.83384 2.2965 9.80262 2.2646 9.78043C2.23271 9.75824 2.19489 9.74611 2.15604 9.74561H0.854679C0.803089 9.74561 0.753614 9.76609 0.717134 9.80257C0.680653 9.83905 0.660156 9.88854 0.660156 9.94013C0.660227 9.96331 0.664172 9.98632 0.671827 10.0082L1.72419 12.8774C1.73873 12.9139 1.76399 12.9452 1.79663 12.9671C1.82927 12.9889 1.86776 13.0004 1.90704 13V13Z" fill="white"/>
<path d="M13.9973 11.0085V2.28125H19.5882V3.60653H15.5783V5.97585H19.2047V7.30114H15.5783V11.0085H13.9973Z" fill="white"/>
<path d="M20.9583 11.0085V4.46307H22.501V11.0085H20.9583ZM21.7339 3.53409C21.4896 3.53409 21.2794 3.45312 21.1032 3.29119C20.9271 3.12642 20.839 2.92898 20.839 2.69886C20.839 2.46591 20.9271 2.26847 21.1032 2.10653C21.2794 1.94176 21.4896 1.85938 21.7339 1.85938C21.9811 1.85938 22.1913 1.94176 22.3646 2.10653C22.5407 2.26847 22.6288 2.46591 22.6288 2.69886C22.6288 2.92898 22.5407 3.12642 22.3646 3.29119C22.1913 3.45312 21.9811 3.53409 21.7339 3.53409Z" fill="white"/>
<path d="M29.9318 4.46307L27.6008 11.0085H25.8963L23.5653 4.46307H25.2102L26.7145 9.32528H26.7827L28.2912 4.46307H29.9318Z" fill="white"/>
<path d="M33.6723 11.1364C33.0161 11.1364 32.4493 11 31.972 10.7273C31.4976 10.4517 31.1325 10.0625 30.8768 9.55966C30.6212 9.05398 30.4933 8.45881 30.4933 7.77415C30.4933 7.10085 30.6212 6.50994 30.8768 6.00142C31.1354 5.49006 31.4962 5.09233 31.9592 4.80824C32.4223 4.52131 32.9663 4.37784 33.5913 4.37784C33.9947 4.37784 34.3754 4.44318 34.7334 4.57386C35.0942 4.7017 35.4124 4.90057 35.6879 5.17045C35.9663 5.44034 36.1851 5.78409 36.3442 6.2017C36.5033 6.61648 36.5828 7.1108 36.5828 7.68466V8.15767H31.2178V7.1179H35.1041C35.1013 6.82244 35.0374 6.55966 34.9124 6.32955C34.7874 6.09659 34.6126 5.91335 34.3882 5.77983C34.1666 5.64631 33.9081 5.57955 33.6126 5.57955C33.2973 5.57955 33.0203 5.65625 32.7817 5.80966C32.543 5.96023 32.357 6.15909 32.2234 6.40625C32.0928 6.65057 32.026 6.91903 32.0232 7.21165V8.11932C32.0232 8.5 32.0928 8.8267 32.232 9.09943C32.3712 9.36932 32.5658 9.5767 32.8158 9.72159C33.0658 9.86364 33.3584 9.93466 33.6936 9.93466C33.918 9.93466 34.1212 9.90341 34.303 9.84091C34.4848 9.77557 34.6425 9.6804 34.776 9.5554C34.9095 9.4304 35.0104 9.27557 35.0786 9.09091L36.5189 9.25284C36.428 9.63352 36.2547 9.96591 35.999 10.25C35.7462 10.5312 35.4223 10.75 35.0274 10.9062C34.6325 11.0597 34.1808 11.1364 33.6723 11.1364Z" fill="white"/>
<path d="M41.1543 4.46307V5.65625H37.3915V4.46307H41.1543ZM38.3205 2.89489H39.8631V9.03977C39.8631 9.24716 39.8943 9.40625 39.9568 9.51705C40.0222 9.625 40.1074 9.69886 40.2125 9.73864C40.3176 9.77841 40.4341 9.7983 40.562 9.7983C40.6585 9.7983 40.7466 9.79119 40.8262 9.77699C40.9085 9.76278 40.971 9.75 41.0137 9.73864L41.2736 10.9446C41.1912 10.973 41.0733 11.0043 40.9199 11.0384C40.7693 11.0724 40.5847 11.0923 40.3659 11.098C39.9796 11.1094 39.6316 11.0511 39.3219 10.9233C39.0122 10.7926 38.7665 10.5909 38.5847 10.3182C38.4057 10.0455 38.3176 9.70455 38.3205 9.29545V2.89489Z" fill="white"/>
<path d="M42.4424 11.0085V4.46307H43.9381V5.55398H44.0063C44.1256 5.17614 44.3302 4.88494 44.6199 4.6804C44.9125 4.47301 45.2463 4.36932 45.6213 4.36932C45.7066 4.36932 45.8017 4.37358 45.9069 4.3821C46.0148 4.38778 46.1043 4.39773 46.1753 4.41193V5.83097C46.11 5.80824 46.0063 5.78835 45.8642 5.77131C45.725 5.75142 45.5901 5.74148 45.4594 5.74148C45.1782 5.74148 44.9253 5.80256 44.7009 5.92472C44.4793 6.04403 44.3046 6.21023 44.1767 6.4233C44.0489 6.63636 43.985 6.8821 43.985 7.16051V11.0085H42.4424Z" fill="white"/>
<path d="M48.9645 11.1406C48.5497 11.1406 48.1761 11.0668 47.8437 10.919C47.5142 10.7685 47.2528 10.5469 47.0596 10.2543C46.8693 9.96165 46.7741 9.60085 46.7741 9.17188C46.7741 8.80256 46.8423 8.49716 46.9787 8.25568C47.115 8.0142 47.3011 7.82102 47.5369 7.67614C47.7727 7.53125 48.0383 7.42188 48.3338 7.34801C48.6321 7.27131 48.9403 7.21591 49.2585 7.18182C49.642 7.14205 49.9531 7.10653 50.1917 7.07528C50.4304 7.04119 50.6037 6.99006 50.7116 6.92188C50.8224 6.85085 50.8778 6.74148 50.8778 6.59375V6.56818C50.8778 6.24716 50.7827 5.99858 50.5923 5.82244C50.402 5.64631 50.1278 5.55824 49.7699 5.55824C49.392 5.55824 49.0923 5.64063 48.8707 5.8054C48.652 5.97017 48.5042 6.16477 48.4275 6.3892L46.9872 6.18466C47.1008 5.78693 47.2883 5.45455 47.5497 5.1875C47.8111 4.91761 48.1307 4.71591 48.5085 4.58239C48.8863 4.44602 49.304 4.37784 49.7613 4.37784C50.0767 4.37784 50.3906 4.41477 50.7031 4.48864C51.0156 4.5625 51.3011 4.68466 51.5596 4.85511C51.8182 5.02273 52.0256 5.25142 52.1818 5.54119C52.3409 5.83097 52.4204 6.19318 52.4204 6.62784V11.0085H50.9375V10.1094H50.8863C50.7926 10.2912 50.6605 10.4616 50.49 10.6207C50.3224 10.777 50.1108 10.9034 49.8551 11C49.6023 11.0938 49.3054 11.1406 48.9645 11.1406ZM49.365 10.0071C49.6747 10.0071 49.9432 9.94602 50.1704 9.82386C50.3977 9.69886 50.5724 9.53409 50.6946 9.32955C50.8196 9.125 50.8821 8.90199 50.8821 8.66051V7.8892C50.8338 7.92898 50.7514 7.96591 50.6349 8C50.5213 8.03409 50.3935 8.06392 50.2514 8.08949C50.1094 8.11506 49.9687 8.13778 49.8295 8.15767C49.6903 8.17756 49.5696 8.1946 49.4673 8.20881C49.2372 8.24006 49.0312 8.29119 48.8494 8.36222C48.6676 8.43324 48.5241 8.53267 48.419 8.66051C48.3139 8.78551 48.2613 8.94744 48.2613 9.14631C48.2613 9.4304 48.365 9.64489 48.5724 9.78977C48.7798 9.93466 49.044 10.0071 49.365 10.0071Z" fill="white"/>
<path d="M55.5122 7.1733V11.0085H53.9695V4.46307H55.444V5.57528H55.5207C55.6712 5.20881 55.9113 4.91761 56.2408 4.7017C56.5732 4.4858 56.9837 4.37784 57.4724 4.37784C57.9241 4.37784 58.3176 4.47443 58.6528 4.66761C58.9908 4.8608 59.2522 5.14063 59.4369 5.5071C59.6244 5.87358 59.7167 6.31818 59.7139 6.84091V11.0085H58.1712V7.07955C58.1712 6.64205 58.0576 6.29972 57.8303 6.05256C57.6059 5.8054 57.2948 5.68182 56.8971 5.68182C56.6272 5.68182 56.3872 5.74148 56.1769 5.8608C55.9695 5.97727 55.8062 6.14631 55.6869 6.3679C55.5704 6.58949 55.5122 6.85795 55.5122 7.1733Z" fill="white"/>
</svg>
