<svg width="13" height="14" viewBox="0 0 13 14" fill="none" xmlns="http://www.w3.org/2000/svg">
<path fill-rule="evenodd" clip-rule="evenodd" d="M6.49995 1.58331C3.5088 1.58331 1.08325 4.04975 1.08325 7.0925C1.08325 9.52664 2.6353 11.5918 4.78753 12.3202C5.05825 12.3713 5.15763 12.2007 5.15763 12.0552C5.15763 11.9238 5.15261 11.4899 5.15027 11.0295C3.64335 11.3628 3.32535 10.3795 3.32535 10.3795C3.07895 9.74269 2.72393 9.57337 2.72393 9.57337C2.23247 9.23143 2.76097 9.23843 2.76097 9.23843C3.3049 9.27722 3.59131 9.80617 3.59131 9.80617C4.07441 10.6484 4.85849 10.4049 5.16756 10.2641C5.2162 9.90819 5.35657 9.66494 5.51149 9.52747C4.30837 9.38815 3.04361 8.91575 3.04361 6.80476C3.04361 6.20326 3.25521 5.71179 3.60171 5.32598C3.54547 5.18713 3.36006 4.62687 3.65418 3.86802C3.65418 3.86802 4.10904 3.71995 5.14416 4.43273C5.57627 4.31068 6.03965 4.24943 6.49995 4.24737C6.9603 4.24943 7.42404 4.31068 7.8569 4.43273C8.8908 3.71995 9.34504 3.86802 9.34504 3.86802C9.63985 4.62687 9.45435 5.18713 9.39812 5.32598C9.74544 5.71179 9.95561 6.20326 9.95561 6.80476C9.95561 8.92077 8.68843 9.38671 7.48225 9.5231C7.67656 9.69405 7.84964 10.0293 7.84964 10.5433C7.84964 11.2804 7.84336 11.8736 7.84336 12.0552C7.84336 12.2018 7.94086 12.3736 8.21545 12.3195C10.3665 11.5902 11.9166 9.52581 11.9166 7.0925C11.9166 4.04975 9.4914 1.58331 6.49995 1.58331Z" fill="white"/>
<path fill-rule="evenodd" clip-rule="evenodd" d="M3.1353 9.4937C3.12337 9.52115 3.08103 9.52927 3.04246 9.51046C3.00318 9.49247 2.98111 9.45517 2.99385 9.42773C3.00551 9.39952 3.04794 9.39176 3.08713 9.41047C3.12651 9.42856 3.14893 9.46622 3.1353 9.4937Z" fill="white"/>
<path fill-rule="evenodd" clip-rule="evenodd" d="M3.35165 9.74233C3.32581 9.76667 3.27531 9.75536 3.24104 9.71687C3.20561 9.67845 3.19898 9.6271 3.22517 9.60236C3.25181 9.57799 3.30078 9.5894 3.3363 9.62782C3.37173 9.66667 3.37865 9.71766 3.35165 9.74233Z" fill="white"/>
<path fill-rule="evenodd" clip-rule="evenodd" d="M3.5667 10.0595C3.53351 10.0829 3.47924 10.0609 3.44569 10.012C3.41252 9.96297 3.41252 9.90422 3.44641 9.88067C3.48006 9.85713 3.53351 9.87829 3.56752 9.92693C3.6006 9.97666 3.6006 10.0355 3.5667 10.0595Z" fill="white"/>
<path fill-rule="evenodd" clip-rule="evenodd" d="M3.86065 10.3657C3.83096 10.399 3.7677 10.3901 3.72144 10.3447C3.6741 10.3002 3.66088 10.2372 3.69067 10.2039C3.72072 10.1705 3.78431 10.1799 3.83096 10.225C3.87798 10.2693 3.89232 10.3328 3.86065 10.3657Z" fill="white"/>
<path fill-rule="evenodd" clip-rule="evenodd" d="M4.26197 10.544C4.2489 10.5872 4.18798 10.6068 4.12662 10.5885C4.06538 10.5696 4.02526 10.519 4.03765 10.4754C4.05039 10.432 4.11157 10.4116 4.17335 10.4312C4.23452 10.45 4.27472 10.5001 4.26197 10.544Z" fill="white"/>
<path fill-rule="evenodd" clip-rule="evenodd" d="M4.70909 10.5774C4.71061 10.6229 4.65857 10.6605 4.59418 10.6612C4.5294 10.6628 4.477 10.626 4.47632 10.5813C4.47632 10.5355 4.52716 10.4981 4.59195 10.497C4.65633 10.4957 4.70909 10.5323 4.70909 10.5774Z" fill="white"/>
<path fill-rule="evenodd" clip-rule="evenodd" d="M5.11888 10.5053C5.12657 10.5497 5.08183 10.5952 5.01788 10.6072C4.95497 10.619 4.8968 10.5916 4.88882 10.5477C4.88098 10.5022 4.92655 10.4567 4.98935 10.4449C5.05341 10.4336 5.11072 10.4603 5.11888 10.5053Z" fill="white"/>
</svg>
