<?xml version="1.0" encoding="UTF-8"?>
<svg viewBox="0 0 10 14" version="1.1" xmlns="http://www.w3.org/2000/svg" xmlns:xlink="http://www.w3.org/1999/xlink">
        <g stroke="none" stroke-width="1" fill="none" fill-rule="evenodd">
        <g id="googlesheets" transform="translate(-0.000000, 0.500000)" fill-rule="nonzero">
            <path d="M5.90390025,0.0197297487 L9.53140025,3.64313 L9.53140025,12.2631 C9.53120025,12.4584 9.45190025,12.6458 9.31090025,12.7839 C9.16980025,12.922 8.97860025,12.9997 8.77920025,12.9999 L0.752820246,12.9999 C0.553370246,12.9999 0.362070246,12.9223 0.220920246,12.7843 C0.0797702462,12.6463 0.000320246164,12.459 0,12.2637 L0,0.75709 C0,0.66024 0.0193402462,0.56432 0.0571402462,0.47482 C0.0949502462,0.38533 0.150400246,0.30401 0.220320246,0.23553 C0.290240246,0.16704 0.373270246,0.11273 0.464640246,0.0757 C0.556010246,0.03867 0.653940246,0.0197297487 0.752820246,0.0197297487 L5.90390025,0.0197297487 Z M7.23650025,6.3948 L2.27660025,6.3948 L2.27660025,10.607 L7.23650025,10.607 L7.23650025,6.3948 Z M6.62690025,9.3542 L6.62690025,10.01 L5.06490025,10.01 L5.06490025,9.3578 L6.62690025,9.3542 Z M4.45170025,9.3542 L4.45170025,10.0065 L2.89030025,10.0065 L2.89030025,9.3542 L4.45170025,9.3542 Z M6.62690025,8.2006 L6.62690025,8.9086 L5.06490025,8.9086 L5.06490025,8.2042 L6.62690025,8.2006 Z M4.45170025,8.2006 L4.45170025,8.901 L2.89030025,8.9045 L2.89030025,8.2006 L4.45170025,8.2006 Z M4.45170025,7.0024 L4.45170025,7.7474 L2.89030025,7.7398 L2.89030025,7.0024 L4.45170025,7.0024 Z M5.06490025,7.0024 L6.62690025,7.0036 L6.62690025,7.7398 L5.06490025,7.7398 L5.06490025,7.0024 Z" id="Combined-Shape" fill="#FFFFFF"></path>
            <path d="M9.53140025,3.63749 L6.66390025,3.63749 C6.46450025,3.63733 6.27320025,3.55966 6.13220025,3.42152 C5.99120025,3.28338 5.91190025,3.09607 5.91170025,2.90072 L5.91170025,0 L9.53140025,3.63749 Z" id="Path" fill="#8ED1B1"></path>
        </g>
    </g>
</svg>