<svg width="13" height="14" viewBox="0 0 13 14" fill="none" xmlns="http://www.w3.org/2000/svg">
<path d="M8.24917 5.36384H8.64567L9.7757 4.24051L9.83121 3.7636C9.18387 3.19563 8.40153 2.80105 7.55813 2.6172C6.71472 2.43335 5.8381 2.46624 5.01104 2.71281C4.18401 2.95936 3.43384 3.41147 2.83142 4.02633C2.229 4.64123 1.79422 5.39865 1.56812 6.22701C1.69402 6.17572 1.83348 6.1674 1.96462 6.20338L4.2247 5.83288C4.2247 5.83288 4.33968 5.64366 4.39916 5.65549C4.88341 5.12682 5.55265 4.80214 6.26986 4.7479C6.98704 4.69369 7.69797 4.91404 8.2571 5.36384H8.24917Z" fill="white"/>
<path d="M11.3855 6.22699C11.1258 5.27617 10.5925 4.42138 9.85104 3.76752L8.26504 5.34409C8.59557 5.61257 8.86047 5.95217 9.03974 6.33726C9.21901 6.72232 9.30797 7.14284 9.29991 7.56709V7.84692C9.48529 7.84692 9.66882 7.88322 9.84009 7.95374C10.0113 8.02427 10.1669 8.12762 10.298 8.25791C10.4291 8.3882 10.5331 8.54287 10.604 8.71311C10.6749 8.88337 10.7114 9.06583 10.7114 9.2501C10.7114 9.43435 10.6749 9.6168 10.604 9.78707C10.5331 9.9573 10.4291 10.112 10.298 10.2423C10.1669 10.3726 10.0113 10.4759 9.84009 10.5464C9.66882 10.617 9.48529 10.6533 9.29991 10.6533H6.47683L6.19531 10.937V12.62L6.47683 12.8999H9.29991C10.0883 12.906 10.8576 12.6597 11.4942 12.1974C12.1309 11.7352 12.6009 11.0815 12.8348 10.3331C13.0687 9.58469 13.054 8.78136 12.793 8.04185C12.532 7.30238 12.0385 6.66606 11.3855 6.22699Z" fill="white"/>
<path d="M3.64957 12.8842H6.47265V10.6375H3.64957C3.44843 10.6375 3.24966 10.5945 3.06669 10.5114L2.67018 10.6336L1.53223 11.7569L1.43311 12.151C2.07124 12.6301 2.84991 12.8876 3.64957 12.8842Z" fill="white"/>
<path d="M3.64969 5.5964C2.88473 5.60095 2.14035 5.84285 1.52045 6.28836C0.900544 6.73387 0.436119 7.36069 0.192011 8.08135C-0.0521286 8.80197 -0.0637313 9.58038 0.158796 10.3079C0.381324 11.0354 0.826899 11.6757 1.43322 12.1392L3.07076 10.5114C2.86267 10.4179 2.6805 10.2757 2.53988 10.0968C2.39922 9.91802 2.30435 9.70794 2.26333 9.48463C2.22235 9.26133 2.23646 9.03145 2.30448 8.81478C2.37247 8.59807 2.49236 8.40102 2.65382 8.2405C2.81531 8.07998 3.01353 7.96084 3.23151 7.8932C3.44952 7.8256 3.68076 7.81157 3.9054 7.85232C4.13004 7.89308 4.34135 7.98742 4.52127 8.12721C4.70119 8.26702 4.84429 8.44811 4.93831 8.65497L6.57586 7.02715C6.23214 6.5805 5.78916 6.2189 5.28151 5.9707C4.77389 5.7225 4.21538 5.59438 3.64969 5.5964Z" fill="white"/>
</svg>
