<svg width="99" height="24" viewBox="8 0 99 24" fill="none" xmlns="http://www.w3.org/2000/svg">
    <path
        d="M17.5314 17.7631C17.5312 17.9584 17.4519 18.1458 17.3109 18.2839C17.1698 18.422 16.9786 18.4997 16.7792 18.4999H8.75282C8.55337 18.4999 8.36207 18.4223 8.22092 18.2843C8.07977 18.1463 8.00032 17.959 8 17.7637V6.25709C7.99992 6.16024 8.01934 6.06432 8.05714 5.97482C8.09495 5.88533 8.1504 5.80401 8.22032 5.73553C8.29024 5.66704 8.37327 5.61273 8.46464 5.5757C8.55601 5.53867 8.65394 5.51965 8.75282 5.51973H13.9039L17.5314 9.14313V17.7631Z"
        fill="white" />
    <path
        d="M17.5314 9.13749H14.6639C14.4645 9.13733 14.2732 9.05966 14.1322 8.92152C13.9912 8.78338 13.9119 8.59607 13.9117 8.40072V5.5L17.5314 9.13749Z"
        fill="#8ED1B1" />
    <path fill-rule="evenodd" clip-rule="evenodd"
        d="M15.2365 16.107H10.2766V11.8948H15.2365V16.107ZM13.0649 12.5024V13.2398H14.6269V12.5036L13.0649 12.5024ZM13.0649 13.7042V14.4086H14.6269V13.7006L13.0649 13.7042ZM13.0649 14.8578V15.51H14.6269V14.8542L13.0649 14.8578ZM12.4517 15.5065V14.8542H10.8903V15.5065H12.4517ZM12.4517 14.401V13.7006H10.8903V14.4045L12.4517 14.401ZM12.4517 13.2474V12.5024H10.8903V13.2398L12.4517 13.2474Z"
        fill="#23A566" />
    <path
        d="M28.3467 10.0597C28.2757 9.82955 28.1777 9.62358 28.0527 9.44176C27.9305 9.2571 27.7828 9.09943 27.6095 8.96875C27.4391 8.83807 27.243 8.74006 27.0214 8.67472C26.7999 8.60653 26.5584 8.57244 26.297 8.57244C25.8283 8.57244 25.4107 8.69034 25.0442 8.92614C24.6777 9.16193 24.3893 9.50852 24.1791 9.96591C23.9717 10.4205 23.868 10.9744 23.868 11.6278C23.868 12.2869 23.9717 12.8452 24.1791 13.3026C24.3865 13.7599 24.6749 14.108 25.0442 14.3466C25.4135 14.5824 25.8425 14.7003 26.3311 14.7003C26.7743 14.7003 27.1578 14.6151 27.4817 14.4446C27.8084 14.2741 28.0598 14.0327 28.2359 13.7202C28.4121 13.4048 28.5001 13.0355 28.5001 12.6122L28.8581 12.6676H26.4888V11.4318H30.03V12.4801C30.03 13.2273 29.8709 13.8736 29.5527 14.419C29.2345 14.9645 28.797 15.3849 28.2402 15.6804C27.6834 15.973 27.0442 16.1193 26.3226 16.1193C25.5186 16.1193 24.8126 15.9389 24.2047 15.5781C23.5996 15.2145 23.1266 14.6989 22.7857 14.0312C22.4476 13.3608 22.2786 12.5653 22.2786 11.6449C22.2786 10.9403 22.378 10.3111 22.5768 9.7571C22.7786 9.20312 23.0598 8.73295 23.4206 8.34659C23.7814 7.95739 24.2047 7.66193 24.6905 7.46023C25.1763 7.25568 25.7047 7.15341 26.2757 7.15341C26.7587 7.15341 27.2089 7.22443 27.6266 7.36648C28.0442 7.50568 28.4149 7.70455 28.7388 7.96307C29.0655 8.22159 29.3339 8.52841 29.5442 8.88352C29.7544 9.23864 29.8922 9.63068 29.9575 10.0597H28.3467ZM34.3436 16.1278C33.7044 16.1278 33.1504 15.9872 32.6817 15.706C32.2129 15.4247 31.8493 15.0312 31.5908 14.5256C31.3351 14.0199 31.2073 13.429 31.2073 12.7528C31.2073 12.0767 31.3351 11.4844 31.5908 10.9759C31.8493 10.4673 32.2129 10.0724 32.6817 9.79119C33.1504 9.50994 33.7044 9.36932 34.3436 9.36932C34.9828 9.36932 35.5368 9.50994 36.0056 9.79119C36.4743 10.0724 36.8365 10.4673 37.0922 10.9759C37.3507 11.4844 37.48 12.0767 37.48 12.7528C37.48 13.429 37.3507 14.0199 37.0922 14.5256C36.8365 15.0312 36.4743 15.4247 36.0056 15.706C35.5368 15.9872 34.9828 16.1278 34.3436 16.1278ZM34.3522 14.892C34.6987 14.892 34.9885 14.7969 35.2215 14.6065C35.4544 14.4134 35.6277 14.1548 35.7414 13.831C35.8578 13.5071 35.9161 13.1463 35.9161 12.7486C35.9161 12.348 35.8578 11.9858 35.7414 11.6619C35.6277 11.3352 35.4544 11.0753 35.2215 10.8821C34.9885 10.6889 34.6987 10.5923 34.3522 10.5923C33.997 10.5923 33.7016 10.6889 33.4658 10.8821C33.2328 11.0753 33.0581 11.3352 32.9416 11.6619C32.828 11.9858 32.7712 12.348 32.7712 12.7486C32.7712 13.1463 32.828 13.5071 32.9416 13.831C33.0581 14.1548 33.2328 14.4134 33.4658 14.6065C33.7016 14.7969 33.997 14.892 34.3522 14.892ZM41.6424 16.1278C41.0032 16.1278 40.4492 15.9872 39.9804 15.706C39.5117 15.4247 39.1481 15.0312 38.8895 14.5256C38.6338 14.0199 38.506 13.429 38.506 12.7528C38.506 12.0767 38.6338 11.4844 38.8895 10.9759C39.1481 10.4673 39.5117 10.0724 39.9804 9.79119C40.4492 9.50994 41.0032 9.36932 41.6424 9.36932C42.2816 9.36932 42.8356 9.50994 43.3043 9.79119C43.7731 10.0724 44.1353 10.4673 44.3909 10.9759C44.6495 11.4844 44.7787 12.0767 44.7787 12.7528C44.7787 13.429 44.6495 14.0199 44.3909 14.5256C44.1353 15.0312 43.7731 15.4247 43.3043 15.706C42.8356 15.9872 42.2816 16.1278 41.6424 16.1278ZM41.6509 14.892C41.9975 14.892 42.2873 14.7969 42.5202 14.6065C42.7532 14.4134 42.9265 14.1548 43.0401 13.831C43.1566 13.5071 43.2148 13.1463 43.2148 12.7486C43.2148 12.348 43.1566 11.9858 43.0401 11.6619C42.9265 11.3352 42.7532 11.0753 42.5202 10.8821C42.2873 10.6889 41.9975 10.5923 41.6509 10.5923C41.2958 10.5923 41.0003 10.6889 40.7645 10.8821C40.5316 11.0753 40.3569 11.3352 40.2404 11.6619C40.1267 11.9858 40.0699 12.348 40.0699 12.7486C40.0699 13.1463 40.1267 13.5071 40.2404 13.831C40.3569 14.1548 40.5316 14.4134 40.7645 14.6065C41.0003 14.7969 41.2958 14.892 41.6509 14.892ZM48.9326 18.5909C48.3786 18.5909 47.9028 18.5156 47.505 18.3651C47.1073 18.2173 46.7877 18.0185 46.5462 17.7685C46.3047 17.5185 46.1371 17.2415 46.0434 16.9375L47.4326 16.6009C47.4951 16.7287 47.586 16.8551 47.7053 16.9801C47.8246 17.108 47.9851 17.2131 48.1868 17.2955C48.3914 17.3807 48.6485 17.4233 48.9582 17.4233C49.3957 17.4233 49.7579 17.3168 50.0448 17.1037C50.3317 16.8935 50.4752 16.5469 50.4752 16.0639V14.8239H50.3985C50.319 14.983 50.2025 15.1463 50.0491 15.3139C49.8985 15.4815 49.6982 15.6222 49.4482 15.7358C49.2011 15.8494 48.89 15.9062 48.515 15.9062C48.0121 15.9062 47.5562 15.7884 47.1471 15.5526C46.7408 15.3139 46.417 14.9588 46.1755 14.4872C45.9368 14.0128 45.8175 13.419 45.8175 12.706C45.8175 11.9872 45.9368 11.3807 46.1755 10.8864C46.417 10.3892 46.7422 10.0128 47.1513 9.7571C47.5604 9.49858 48.0164 9.36932 48.5192 9.36932C48.9028 9.36932 49.2181 9.43466 49.4653 9.56534C49.7153 9.69318 49.9141 9.84801 50.0618 10.0298C50.2096 10.2088 50.3218 10.3778 50.3985 10.5369H50.4837V9.45455H52.005V16.1065C52.005 16.6662 51.8715 17.1293 51.6045 17.4957C51.3374 17.8622 50.9724 18.1364 50.5093 18.3182C50.0462 18.5 49.5207 18.5909 48.9326 18.5909ZM48.9454 14.696C49.2721 14.696 49.5505 14.6165 49.7806 14.4574C50.0107 14.2983 50.1854 14.0696 50.3047 13.7713C50.4241 13.473 50.4837 13.1151 50.4837 12.6974C50.4837 12.2855 50.4241 11.9247 50.3047 11.6151C50.1883 11.3054 50.015 11.0653 49.7849 10.8949C49.5576 10.7216 49.2778 10.6349 48.9454 10.6349C48.6016 10.6349 48.3147 10.7244 48.0846 10.9034C47.8545 11.0824 47.6812 11.3281 47.5647 11.6406C47.4482 11.9503 47.39 12.3026 47.39 12.6974C47.39 13.098 47.4482 13.4489 47.5647 13.75C47.684 14.0483 47.8587 14.2812 48.0888 14.4489C48.3218 14.6136 48.6073 14.696 48.9454 14.696ZM55.1266 7.27273V16H53.584V7.27273H55.1266ZM59.6085 16.1278C58.9523 16.1278 58.3855 15.9915 57.9083 15.7188C57.4338 15.4432 57.0688 15.054 56.8131 14.5511C56.5574 14.0455 56.4296 13.4503 56.4296 12.7656C56.4296 12.0923 56.5574 11.5014 56.8131 10.9929C57.0716 10.4815 57.4324 10.0838 57.8955 9.79972C58.3586 9.51278 58.9026 9.36932 59.5276 9.36932C59.931 9.36932 60.3117 9.43466 60.6696 9.56534C61.0304 9.69318 61.3486 9.89205 61.6242 10.1619C61.9026 10.4318 62.1213 10.7756 62.2804 11.1932C62.4395 11.608 62.5191 12.1023 62.5191 12.6761V13.1491H57.154V12.1094H61.0404C61.0375 11.8139 60.9736 11.5511 60.8486 11.321C60.7236 11.0881 60.5489 10.9048 60.3245 10.7713C60.1029 10.6378 59.8443 10.571 59.5489 10.571C59.2336 10.571 58.9566 10.6477 58.7179 10.8011C58.4793 10.9517 58.2932 11.1506 58.1597 11.3977C58.029 11.642 57.9622 11.9105 57.9594 12.2031V13.1108C57.9594 13.4915 58.029 13.8182 58.1682 14.0909C58.3074 14.3608 58.502 14.5682 58.752 14.7131C59.002 14.8551 59.2946 14.9261 59.6299 14.9261C59.8543 14.9261 60.0574 14.8949 60.2392 14.8324C60.4211 14.767 60.5787 14.6719 60.7122 14.5469C60.8458 14.4219 60.9466 14.267 61.0148 14.0824L62.4551 14.2443C62.3642 14.625 62.1909 14.9574 61.9353 15.2415C61.6824 15.5227 61.3586 15.7415 60.9637 15.8977C60.5688 16.0511 60.1171 16.1278 59.6085 16.1278ZM71.6077 9.67188C71.5679 9.29972 71.4003 9.00994 71.1048 8.80256C70.8122 8.59517 70.4315 8.49148 69.9628 8.49148C69.6332 8.49148 69.3506 8.54119 69.1148 8.64062C68.879 8.74006 68.6986 8.875 68.5736 9.04545C68.4486 9.21591 68.3847 9.41051 68.3818 9.62926C68.3818 9.81108 68.423 9.96875 68.5054 10.1023C68.5906 10.2358 68.7057 10.3494 68.8506 10.4432C68.9955 10.5341 69.156 10.6108 69.3321 10.6733C69.5082 10.7358 69.6858 10.7884 69.8648 10.831L70.683 11.0355C71.0125 11.1122 71.3293 11.2159 71.6332 11.3466C71.9401 11.4773 72.2142 11.642 72.4557 11.8409C72.7 12.0398 72.8932 12.2798 73.0352 12.5611C73.1773 12.8423 73.2483 13.1719 73.2483 13.5497C73.2483 14.0611 73.1176 14.5114 72.8562 14.9006C72.5949 15.2869 72.217 15.5895 71.7227 15.8082C71.2312 16.0241 70.6361 16.1321 69.9372 16.1321C69.2582 16.1321 68.6687 16.027 68.1687 15.8168C67.6716 15.6065 67.2824 15.2997 67.0011 14.8963C66.7227 14.4929 66.5722 14.0014 66.5494 13.4219H68.1048C68.1276 13.7259 68.2213 13.9787 68.3861 14.1804C68.5509 14.3821 68.7653 14.5327 69.0295 14.6321C69.2966 14.7315 69.5949 14.7812 69.9244 14.7812C70.2682 14.7812 70.5693 14.7301 70.8278 14.6278C71.0892 14.5227 71.2937 14.3778 71.4415 14.1932C71.5892 14.0057 71.6645 13.7869 71.6673 13.5369C71.6645 13.3097 71.5977 13.1222 71.467 12.9744C71.3364 12.8239 71.1531 12.6989 70.9173 12.5994C70.6844 12.4972 70.4116 12.4062 70.0991 12.3267L69.1062 12.071C68.3875 11.8864 67.8193 11.6065 67.4017 11.2315C66.9869 10.8537 66.7795 10.3523 66.7795 9.72727C66.7795 9.21307 66.9187 8.76278 67.1972 8.37642C67.4784 7.99006 67.8605 7.69034 68.3435 7.47727C68.8264 7.26136 69.3733 7.15341 69.9841 7.15341C70.6034 7.15341 71.146 7.26136 71.6119 7.47727C72.0807 7.69034 72.4486 7.98722 72.7156 8.3679C72.9827 8.74574 73.1205 9.1804 73.129 9.67188H71.6077ZM76.1301 12.1648V16H74.5875V7.27273H76.096V10.5668H76.1727C76.3262 10.1974 76.5634 9.90625 76.8844 9.69318C77.2083 9.47727 77.6202 9.36932 78.1202 9.36932C78.5747 9.36932 78.971 9.46449 79.3091 9.65483C79.6472 9.84517 79.9085 10.1236 80.0932 10.4901C80.2807 10.8565 80.3744 11.304 80.3744 11.8324V16H78.8318V12.071C78.8318 11.6307 78.7182 11.2884 78.4909 11.044C78.2665 10.7969 77.9512 10.6733 77.5449 10.6733C77.2722 10.6733 77.0279 10.733 76.8119 10.8523C76.5989 10.9687 76.4313 11.1378 76.3091 11.3594C76.1898 11.581 76.1301 11.8494 76.1301 12.1648ZM84.8426 16.1278C84.1863 16.1278 83.6196 15.9915 83.1423 15.7188C82.6679 15.4432 82.3028 15.054 82.0471 14.5511C81.7914 14.0455 81.6636 13.4503 81.6636 12.7656C81.6636 12.0923 81.7914 11.5014 82.0471 10.9929C82.3056 10.4815 82.6664 10.0838 83.1295 9.79972C83.5926 9.51278 84.1366 9.36932 84.7616 9.36932C85.165 9.36932 85.5457 9.43466 85.9037 9.56534C86.2645 9.69318 86.5826 9.89205 86.8582 10.1619C87.1366 10.4318 87.3554 10.7756 87.5145 11.1932C87.6735 11.608 87.7531 12.1023 87.7531 12.6761V13.1491H82.388V12.1094H86.2744C86.2716 11.8139 86.2076 11.5511 86.0826 11.321C85.9576 11.0881 85.7829 10.9048 85.5585 10.7713C85.3369 10.6378 85.0784 10.571 84.7829 10.571C84.4676 10.571 84.1906 10.6477 83.952 10.8011C83.7133 10.9517 83.5272 11.1506 83.3937 11.3977C83.263 11.642 83.1963 11.9105 83.1934 12.2031V13.1108C83.1934 13.4915 83.263 13.8182 83.4022 14.0909C83.5414 14.3608 83.736 14.5682 83.986 14.7131C84.236 14.8551 84.5287 14.9261 84.8639 14.9261C85.0883 14.9261 85.2914 14.8949 85.4733 14.8324C85.6551 14.767 85.8127 14.6719 85.9463 14.5469C86.0798 14.4219 86.1806 14.267 86.2488 14.0824L87.6892 14.2443C87.5983 14.625 87.425 14.9574 87.1693 15.2415C86.9164 15.5227 86.5926 15.7415 86.1977 15.8977C85.8028 16.0511 85.3511 16.1278 84.8426 16.1278ZM91.9538 16.1278C91.2976 16.1278 90.7308 15.9915 90.2535 15.7188C89.7791 15.4432 89.414 15.054 89.1584 14.5511C88.9027 14.0455 88.7748 13.4503 88.7748 12.7656C88.7748 12.0923 88.9027 11.5014 89.1584 10.9929C89.4169 10.4815 89.7777 10.0838 90.2407 9.79972C90.7038 9.51278 91.2478 9.36932 91.8728 9.36932C92.2763 9.36932 92.6569 9.43466 93.0149 9.56534C93.3757 9.69318 93.6939 9.89205 93.9694 10.1619C94.2478 10.4318 94.4666 10.7756 94.6257 11.1932C94.7848 11.608 94.8643 12.1023 94.8643 12.6761V13.1491H89.4993V12.1094H93.3856C93.3828 11.8139 93.3189 11.5511 93.1939 11.321C93.0689 11.0881 92.8942 10.9048 92.6697 10.7713C92.4481 10.6378 92.1896 10.571 91.8942 10.571C91.5788 10.571 91.3018 10.6477 91.0632 10.8011C90.8246 10.9517 90.6385 11.1506 90.505 11.3977C90.3743 11.642 90.3075 11.9105 90.3047 12.2031V13.1108C90.3047 13.4915 90.3743 13.8182 90.5135 14.0909C90.6527 14.3608 90.8473 14.5682 91.0973 14.7131C91.3473 14.8551 91.6399 14.9261 91.9751 14.9261C92.1996 14.9261 92.4027 14.8949 92.5845 14.8324C92.7663 14.767 92.924 14.6719 93.0575 14.5469C93.191 14.4219 93.2919 14.267 93.3601 14.0824L94.8004 14.2443C94.7095 14.625 94.5362 14.9574 94.2805 15.2415C94.0277 15.5227 93.7038 15.7415 93.3089 15.8977C92.914 16.0511 92.4623 16.1278 91.9538 16.1278ZM99.4358 9.45455V10.6477H95.673V9.45455H99.4358ZM96.602 7.88636H98.1446V14.0312C98.1446 14.2386 98.1759 14.3977 98.2384 14.5085C98.3037 14.6165 98.3889 14.6903 98.494 14.7301C98.5992 14.7699 98.7156 14.7898 98.8435 14.7898C98.9401 14.7898 99.0281 14.7827 99.1077 14.7685C99.1901 14.7543 99.2526 14.7415 99.2952 14.7301L99.5551 15.9361C99.4727 15.9645 99.3548 15.9957 99.2014 16.0298C99.0509 16.0639 98.8662 16.0838 98.6475 16.0895C98.2611 16.1009 97.9131 16.0426 97.6034 15.9148C97.2938 15.7841 97.048 15.5824 96.8662 15.3097C96.6872 15.0369 96.5992 14.696 96.602 14.2869V7.88636ZM105.803 11.1847L104.397 11.3381C104.357 11.196 104.288 11.0625 104.188 10.9375C104.092 10.8125 103.961 10.7116 103.796 10.6349C103.632 10.5582 103.43 10.5199 103.191 10.5199C102.87 10.5199 102.6 10.5895 102.382 10.7287C102.166 10.8679 102.059 11.0483 102.062 11.2699C102.059 11.4602 102.129 11.6151 102.271 11.7344C102.416 11.8537 102.654 11.9517 102.987 12.0284L104.103 12.267C104.722 12.4006 105.183 12.6122 105.484 12.902C105.788 13.1918 105.941 13.571 105.944 14.0398C105.941 14.4517 105.82 14.8153 105.582 15.1307C105.346 15.4432 105.018 15.6875 104.597 15.8636C104.177 16.0398 103.694 16.1278 103.149 16.1278C102.347 16.1278 101.703 15.9602 101.214 15.625C100.725 15.2869 100.434 14.8168 100.34 14.2145L101.845 14.0696C101.913 14.3651 102.058 14.5881 102.279 14.7386C102.501 14.8892 102.789 14.9645 103.144 14.9645C103.511 14.9645 103.805 14.8892 104.026 14.7386C104.251 14.5881 104.363 14.402 104.363 14.1804C104.363 13.9929 104.291 13.8381 104.146 13.7159C104.004 13.5937 103.782 13.5 103.481 13.4347L102.365 13.2003C101.737 13.0696 101.272 12.8494 100.971 12.5398C100.67 12.2273 100.521 11.8324 100.524 11.3551C100.521 10.9517 100.63 10.6023 100.852 10.3068C101.076 10.0085 101.387 9.77841 101.785 9.61648C102.186 9.4517 102.647 9.36932 103.17 9.36932C103.937 9.36932 104.541 9.53267 104.981 9.85938C105.424 10.1861 105.698 10.6278 105.803 11.1847Z"
        fill="white" />
</svg>