<svg width="71" height="24" viewBox="0 0 71 24" fill="none" xmlns="http://www.w3.org/2000/svg">
<rect width="70.8515" height="24" rx="8" fill="#4E4E4E"/>
<path d="M17.578 6.23943C17.5845 6.39233 17.546 6.54366 17.4674 6.6742C17.3889 6.80474 17.2735 6.90927 17.1359 6.97376C16.9984 7.03824 16.8447 7.06035 16.6952 7.03694C16.5451 7.01342 16.4054 6.9457 16.2939 6.84244C16.182 6.73874 16.1033 6.60432 16.0674 6.45603C16.0316 6.30782 16.0401 6.1518 16.0921 6.00774C16.1439 5.86446 16.2369 5.7397 16.3595 5.64916C16.4815 5.55894 16.6278 5.50724 16.7794 5.50068C16.9822 5.4921 17.1804 5.56491 17.3302 5.7035C17.4799 5.8421 17.5689 6.03478 17.5777 6.23917L17.578 6.23943Z" fill="white"/>
<path d="M13.1081 15.33C11.0669 15.33 9.28435 14.5822 8.35864 13.475C8.70318 14.4683 9.34572 15.329 10.1971 15.9382C11.0484 16.5475 12.0659 16.8744 13.1094 16.8744C14.1529 16.8744 15.1707 16.5472 16.0218 15.9382C16.8728 15.3293 17.5151 14.4683 17.8596 13.475C16.9319 14.5822 15.1493 15.33 13.1081 15.33Z" fill="white"/>
<path d="M13.1077 8.12881C15.149 8.12881 16.9318 8.87692 17.8572 9.98387C17.5127 8.99055 16.8701 8.12985 16.0188 7.5206C15.1674 6.91135 14.1502 6.58423 13.107 6.58423C12.0637 6.58423 11.0457 6.91135 10.1946 7.52034C9.34354 8.12933 8.70074 8.99029 8.3562 9.98361C9.28373 8.879 11.0665 8.12881 13.1077 8.12881Z" fill="white"/>
<path d="M10.3059 17.483C10.3144 17.6755 10.2659 17.8663 10.1666 18.0314C10.0672 18.1962 9.92214 18.3278 9.74844 18.4089C9.57474 18.4901 9.3844 18.5182 9.19276 18.4885C9.00111 18.4589 8.82767 18.3736 8.687 18.243C8.54632 18.1125 8.44725 17.9432 8.40174 17.7557C8.35669 17.5684 8.36772 17.3719 8.43347 17.1907C8.49925 17.0097 8.61679 16.8527 8.77151 16.7382C8.92622 16.6238 9.11033 16.5599 9.30119 16.5521C9.5568 16.5417 9.80565 16.6337 9.99443 16.8082C10.1831 16.9834 10.295 17.226 10.3059 17.4832V17.483Z" fill="white"/>
<path d="M8.59153 7.8782C8.47971 7.8834 8.36842 7.85427 8.27247 7.79551C8.17652 7.73674 8.10007 7.65041 8.05274 7.54822C8.00542 7.44602 7.98955 7.33109 8.00672 7.21928C8.02388 7.10746 8.07354 7.00293 8.14947 6.91972C8.2254 6.83651 8.32421 6.77775 8.43291 6.7507C8.5416 6.72366 8.65653 6.73042 8.76185 6.76942C8.86716 6.80843 8.95869 6.87786 9.02448 6.96965C9.10192 7.07661 9.14016 7.20697 9.13277 7.33882C9.12539 7.47066 9.07282 7.59594 8.98391 7.69357C8.8825 7.80539 8.74104 7.87143 8.59127 7.8782H8.59153Z" fill="white"/>
<path d="M22.9082 8.80181H24.4508V15.7223C24.4508 16.1939 24.3613 16.5831 24.1823 16.8899C24.0033 17.1967 23.7448 17.4254 23.4067 17.576C23.0687 17.7265 22.6582 17.8018 22.1752 17.8018C22.1184 17.8018 22.0658 17.8004 22.0175 17.7976C21.9692 17.7976 21.9167 17.7961 21.8599 17.7933V16.5362C21.9025 16.539 21.9408 16.5405 21.9749 16.5405C22.009 16.5433 22.0445 16.5447 22.0815 16.5447C22.3769 16.5447 22.5886 16.4723 22.7164 16.3274C22.8442 16.1853 22.9082 15.9765 22.9082 15.701V8.80181ZM23.6752 7.87284C23.428 7.87284 23.2164 7.79187 23.0403 7.62994C22.867 7.46517 22.7803 7.26772 22.7803 7.03761C22.7803 6.80465 22.867 6.60721 23.0403 6.44528C23.2164 6.28051 23.428 6.19812 23.6752 6.19812C23.9195 6.19812 24.1283 6.28051 24.3016 6.44528C24.4778 6.60721 24.5658 6.80465 24.5658 7.03761C24.5658 7.26772 24.4778 7.46517 24.3016 7.62994C24.1283 7.79187 23.9195 7.87284 23.6752 7.87284Z" fill="white"/>
<path d="M30.2069 12.5944V8.80181H31.7495V15.3473H30.2538V14.1839H30.1856C30.0379 14.5504 29.795 14.8501 29.4569 15.0831C29.1217 15.316 28.7083 15.4325 28.2168 15.4325C27.7879 15.4325 27.4086 15.3373 27.0791 15.147C26.7524 14.9538 26.4967 14.674 26.312 14.3075C26.1274 13.9382 26.035 13.4922 26.035 12.9694V8.80181H27.5776V12.7308C27.5776 13.1456 27.6913 13.4751 27.9185 13.7194C28.1458 13.9637 28.4441 14.0859 28.8134 14.0859C29.0407 14.0859 29.2609 14.0305 29.4739 13.9197C29.687 13.8089 29.8617 13.6441 29.9981 13.4254C30.1373 13.2038 30.2069 12.9268 30.2069 12.5944Z" fill="white"/>
<path d="M33.3338 17.8018V8.80181H34.8508V9.8842H34.9403C35.0198 9.72511 35.1321 9.55607 35.2769 9.3771C35.4218 9.19528 35.6179 9.04045 35.865 8.91261C36.1122 8.78193 36.4275 8.71659 36.811 8.71659C37.3167 8.71659 37.7727 8.84585 38.1789 9.10437C38.588 9.36005 38.9119 9.73931 39.1505 10.2422C39.392 10.7422 39.5127 11.3558 39.5127 12.0831C39.5127 12.8018 39.3948 13.4126 39.159 13.9155C38.9233 14.4183 38.6022 14.8018 38.196 15.066C37.7897 15.3302 37.3295 15.4623 36.8153 15.4623C36.4403 15.4623 36.1292 15.3998 35.8821 15.2748C35.6349 15.1498 35.436 14.9993 35.2855 14.8231C35.1377 14.6441 35.0227 14.4751 34.9403 14.316H34.8764V17.8018H33.3338ZM34.8466 12.0745C34.8466 12.4978 34.9062 12.8686 35.0255 13.1868C35.1477 13.5049 35.3224 13.7535 35.5497 13.9325C35.7798 14.1086 36.0582 14.1967 36.3849 14.1967C36.7258 14.1967 37.0113 14.1058 37.2414 13.924C37.4716 13.7393 37.6448 13.4879 37.7613 13.1697C37.8806 12.8487 37.9403 12.4836 37.9403 12.0745C37.9403 11.6683 37.8821 11.3075 37.7656 10.9922C37.6491 10.6768 37.4758 10.4297 37.2457 10.2507C37.0156 10.0717 36.7287 9.98221 36.3849 9.98221C36.0554 9.98221 35.7755 10.0689 35.5454 10.2422C35.3153 10.4154 35.1406 10.6583 35.0213 10.9708C34.9048 11.2833 34.8466 11.6512 34.8466 12.0745Z" fill="white"/>
<path d="M41.5679 17.8018C41.3576 17.8018 41.163 17.7848 40.9841 17.7507C40.8079 17.7194 40.6673 17.6825 40.5622 17.6399L40.9201 16.4382C41.1446 16.5035 41.3449 16.5348 41.521 16.5319C41.6971 16.5291 41.852 16.4737 41.9855 16.3657C42.1219 16.2606 42.2369 16.0845 42.3307 15.8373L42.4628 15.4836L40.0892 8.80181H41.7255L43.2341 13.745H43.3023L44.815 8.80181H46.4557L43.8349 16.1399C43.7128 16.4865 43.5508 16.7833 43.3491 17.0305C43.1474 17.2805 42.9003 17.4708 42.6076 17.6015C42.3179 17.7351 41.9713 17.8018 41.5679 17.8018Z" fill="white"/>
<path d="M50.7896 8.80181V9.995H47.0268V8.80181H50.7896ZM47.9558 7.23363H49.4984V13.3785C49.4984 13.5859 49.5296 13.745 49.5921 13.8558C49.6575 13.9637 49.7427 14.0376 49.8478 14.0774C49.9529 14.1172 50.0694 14.137 50.1972 14.137C50.2938 14.137 50.3819 14.1299 50.4614 14.1157C50.5438 14.1015 50.6063 14.0887 50.6489 14.0774L50.9089 15.2833C50.8265 15.3118 50.7086 15.343 50.5552 15.3771C50.4046 15.4112 50.22 15.4311 50.0012 15.4368C49.6148 15.4481 49.2668 15.3899 48.9572 15.262C48.6475 15.1314 48.4018 14.9297 48.22 14.6569C48.041 14.3842 47.9529 14.0433 47.9558 13.6342V7.23363Z" fill="white"/>
<path d="M54.9051 15.4751C54.2488 15.4751 53.682 15.3387 53.2048 15.066C52.7303 14.7904 52.3653 14.4012 52.1096 13.8984C51.8539 13.3927 51.7261 12.7976 51.7261 12.1129C51.7261 11.4396 51.8539 10.8487 52.1096 10.3402C52.3681 9.8288 52.7289 9.43107 53.192 9.14698C53.6551 8.86005 54.1991 8.71659 54.8241 8.71659C55.2275 8.71659 55.6082 8.78193 55.9661 8.91261C56.3269 9.04045 56.6451 9.23931 56.9207 9.5092C57.1991 9.77909 57.4178 10.1228 57.5769 10.5405C57.736 10.9552 57.8156 11.4495 57.8156 12.0234V12.4964H52.4505V11.4566H56.3369C56.334 11.1612 56.2701 10.8984 56.1451 10.6683C56.0201 10.4353 55.8454 10.2521 55.621 10.1186C55.3994 9.98505 55.1409 9.91829 54.8454 9.91829C54.5301 9.91829 54.2531 9.995 54.0144 10.1484C53.7758 10.299 53.5897 10.4978 53.4562 10.745C53.3255 10.9893 53.2588 11.2578 53.2559 11.5504V12.4581C53.2559 12.8387 53.3255 13.1654 53.4647 13.4382C53.6039 13.7081 53.7985 13.9154 54.0485 14.0603C54.2985 14.2024 54.5911 14.2734 54.9264 14.2734C55.1508 14.2734 55.3539 14.2422 55.5357 14.1797C55.7176 14.1143 55.8752 14.0191 56.0088 13.8941C56.1423 13.7691 56.2431 13.6143 56.3113 13.4297L57.7517 13.5916C57.6607 13.9723 57.4874 14.3047 57.2318 14.5887C56.9789 14.87 56.6551 15.0887 56.2602 15.245C55.8653 15.3984 55.4136 15.4751 54.9051 15.4751Z" fill="white"/>
<path d="M59.1186 15.3473V8.80181H60.6143V9.89272H60.6825C60.8018 9.51488 61.0064 9.22369 61.2961 9.01914C61.5887 8.81176 61.9226 8.70806 62.2976 8.70806C62.3828 8.70806 62.478 8.71232 62.5831 8.72085C62.691 8.72653 62.7805 8.73647 62.8515 8.75068V10.1697C62.7862 10.147 62.6825 10.1271 62.5405 10.1101C62.4012 10.0902 62.2663 10.0802 62.1356 10.0802C61.8544 10.0802 61.6015 10.1413 61.3771 10.2635C61.1555 10.3828 60.9808 10.549 60.853 10.762C60.7251 10.9751 60.6612 11.2208 60.6612 11.4993V15.3473H59.1186Z" fill="white"/>
</svg>
