<svg width="56" height="13" viewBox="0 0 56 13" fill="none" xmlns="http://www.w3.org/2000/svg">
<path d="M10.2025 0.739428C10.209 0.892327 10.1705 1.04366 10.092 1.1742C10.0134 1.30474 9.89798 1.40927 9.76042 1.47376C9.62286 1.53824 9.46919 1.56035 9.31967 1.53694C9.16957 1.51342 9.02989 1.4457 8.91844 1.34244C8.80656 1.23874 8.72777 1.10432 8.69195 0.956034C8.65607 0.807817 8.66465 0.651798 8.71666 0.507741C8.76844 0.364464 8.86145 0.239704 8.98397 0.149158C9.10604 0.058938 9.25227 0.00723547 9.40392 0.000680834C9.60674 -0.00790018 9.80489 0.0649085 9.95466 0.203505C10.1044 0.342101 10.1934 0.534784 10.2022 0.739168L10.2025 0.739428Z" fill="white"/>
<path d="M5.73262 9.83004C3.69138 9.83004 1.90886 9.08219 0.983154 7.97498C1.3277 8.96829 1.97023 9.829 2.82157 10.4382C3.67291 11.0475 4.69041 11.3744 5.73392 11.3744C6.77742 11.3744 7.79518 11.0472 8.64626 10.4382C9.49734 9.82926 10.1396 8.96829 10.4842 7.97498C9.55637 9.08219 7.77386 9.83004 5.73262 9.83004Z" fill="white"/>
<path d="M5.73226 2.62881C7.7735 2.62881 9.55627 3.37692 10.4817 4.48387C10.1372 3.49055 9.49464 2.62985 8.6433 2.0206C7.79196 1.41135 6.77472 1.08423 5.73148 1.08423C4.68823 1.08423 3.67021 1.41135 2.81913 2.02034C1.96805 2.62933 1.32525 3.49029 0.980713 4.48361C1.90824 3.379 3.69101 2.62881 5.73226 2.62881Z" fill="white"/>
<path d="M2.93046 11.983C2.93891 12.1755 2.89044 12.3663 2.79108 12.5314C2.69175 12.6962 2.54665 12.8278 2.37295 12.9089C2.19925 12.9901 2.00891 13.0182 1.81727 12.9885C1.62563 12.9589 1.45218 12.8736 1.31151 12.743C1.17083 12.6125 1.07176 12.4432 1.02625 12.2557C0.981204 12.0684 0.992236 11.8719 1.05798 11.6907C1.12377 11.5097 1.2413 11.3527 1.39602 11.2382C1.55074 11.1238 1.73484 11.0599 1.9257 11.0521C2.18131 11.0417 2.43016 11.1337 2.61894 11.3082C2.80762 11.4834 2.91956 11.726 2.93046 11.9832V11.983Z" fill="white"/>
<path d="M1.21604 2.3782C1.10422 2.3834 0.992931 2.35427 0.89698 2.29551C0.801029 2.23674 0.72458 2.15041 0.677254 2.04822C0.629928 1.94602 0.614066 1.83109 0.631228 1.71928C0.648391 1.60746 0.698056 1.50293 0.773985 1.41972C0.849914 1.33651 0.948726 1.27775 1.05742 1.2507C1.16611 1.22366 1.28105 1.23042 1.38636 1.26942C1.49167 1.30843 1.5832 1.37786 1.64899 1.46965C1.72643 1.57661 1.76467 1.70697 1.75729 1.83882C1.7499 1.97066 1.69733 2.09594 1.60842 2.19357C1.50701 2.30539 1.36556 2.37143 1.21578 2.3782H1.21604Z" fill="white"/>
<path d="M15.5327 3.30181H17.0753V10.2223C17.0753 10.6939 16.9858 11.0831 16.8068 11.3899C16.6278 11.6967 16.3693 11.9254 16.0312 12.076C15.6932 12.2265 15.2827 12.3018 14.7997 12.3018C14.7429 12.3018 14.6903 12.3004 14.642 12.2976C14.5937 12.2976 14.5412 12.2961 14.4844 12.2933V11.0362C14.527 11.039 14.5653 11.0405 14.5994 11.0405C14.6335 11.0433 14.669 11.0447 14.706 11.0447C15.0014 11.0447 15.2131 10.9723 15.3409 10.8274C15.4688 10.6853 15.5327 10.4765 15.5327 10.201V3.30181ZM16.2997 2.37284C16.0526 2.37284 15.8409 2.29187 15.6648 2.12994C15.4915 1.96517 15.4048 1.76772 15.4048 1.53761C15.4048 1.30465 15.4915 1.10721 15.6648 0.945279C15.8409 0.780506 16.0526 0.69812 16.2997 0.69812C16.544 0.69812 16.7528 0.780506 16.9261 0.945279C17.1023 1.10721 17.1903 1.30465 17.1903 1.53761C17.1903 1.76772 17.1023 1.96517 16.9261 2.12994C16.7528 2.29187 16.544 2.37284 16.2997 2.37284Z" fill="white"/>
<path d="M22.8314 7.09443V3.30181H24.374V9.84727H22.8783V8.68392H22.8101C22.6624 9.05039 22.4195 9.35011 22.0814 9.58306C21.7462 9.81602 21.3328 9.9325 20.8414 9.9325C20.4124 9.9325 20.0331 9.83733 19.7036 9.64698C19.3769 9.4538 19.1212 9.17397 18.9365 8.8075C18.7519 8.43818 18.6595 7.99215 18.6595 7.46943V3.30181H20.2022V7.23079C20.2022 7.64556 20.3158 7.97511 20.5431 8.21943C20.7703 8.46375 21.0686 8.5859 21.4379 8.5859C21.6652 8.5859 21.8854 8.53051 22.0985 8.41971C22.3115 8.30892 22.4862 8.14414 22.6226 7.92539C22.7618 7.7038 22.8314 7.42681 22.8314 7.09443Z" fill="white"/>
<path d="M25.9583 12.3018V3.30181H27.4753V4.3842H27.5648C27.6444 4.22511 27.7566 4.05607 27.9015 3.8771C28.0463 3.69528 28.2424 3.54045 28.4895 3.41261C28.7367 3.28193 29.052 3.21659 29.4356 3.21659C29.9412 3.21659 30.3972 3.34585 30.8034 3.60437C31.2125 3.86005 31.5364 4.23931 31.775 4.74215C32.0165 5.24215 32.1373 5.85579 32.1373 6.58306C32.1373 7.30181 32.0194 7.91261 31.7836 8.41545C31.5478 8.91829 31.2267 9.30181 30.8205 9.56602C30.4142 9.83022 29.954 9.96233 29.4398 9.96233C29.0648 9.96233 28.7537 9.89983 28.5066 9.77483C28.2594 9.64983 28.0606 9.49926 27.91 9.32312C27.7623 9.14414 27.6472 8.97511 27.5648 8.81602H27.5009V12.3018H25.9583ZM27.4711 6.57454C27.4711 6.99784 27.5307 7.36858 27.65 7.68676C27.7722 8.00494 27.9469 8.25352 28.1742 8.4325C28.4043 8.60863 28.6827 8.6967 29.0094 8.6967C29.3503 8.6967 29.6358 8.60579 29.8659 8.42397C30.0961 8.23931 30.2694 7.98789 30.3858 7.66971C30.5052 7.34869 30.5648 6.98363 30.5648 6.57454C30.5648 6.16829 30.5066 5.8075 30.3901 5.49215C30.2736 5.17681 30.1003 4.92965 29.8702 4.75068C29.6401 4.5717 29.3532 4.48221 29.0094 4.48221C28.6799 4.48221 28.4 4.56886 28.1699 4.74215C27.9398 4.91545 27.7651 5.15835 27.6458 5.47085C27.5293 5.78335 27.4711 6.15125 27.4711 6.57454Z" fill="white"/>
<path d="M34.1924 12.3018C33.9822 12.3018 33.7876 12.2848 33.6086 12.2507C33.4324 12.2194 33.2918 12.1825 33.1867 12.1399L33.5447 10.9382C33.7691 11.0035 33.9694 11.0348 34.1455 11.0319C34.3216 11.0291 34.4765 10.9737 34.61 10.8657C34.7464 10.7606 34.8614 10.5845 34.9552 10.3373L35.0873 9.98363L32.7137 3.30181H34.3501L35.8586 8.245H35.9268L37.4395 3.30181H39.0802L36.4594 10.6399C36.3373 10.9865 36.1753 11.2833 35.9736 11.5305C35.7719 11.7805 35.5248 11.9708 35.2322 12.1015C34.9424 12.2351 34.5958 12.3018 34.1924 12.3018Z" fill="white"/>
<path d="M43.4141 3.30181V4.495H39.6513V3.30181H43.4141ZM40.5803 1.73363H42.1229V7.87852C42.1229 8.0859 42.1541 8.245 42.2166 8.35579C42.282 8.46375 42.3672 8.53761 42.4723 8.57738C42.5774 8.61715 42.6939 8.63704 42.8217 8.63704C42.9183 8.63704 43.0064 8.62994 43.0859 8.61573C43.1683 8.60153 43.2308 8.58875 43.2734 8.57738L43.5334 9.78335C43.451 9.81176 43.3331 9.84301 43.1797 9.8771C43.0291 9.91119 42.8445 9.93108 42.6257 9.93676C42.2394 9.94812 41.8913 9.88988 41.5817 9.76204C41.272 9.63136 41.0263 9.42965 40.8445 9.15693C40.6655 8.8842 40.5774 8.54329 40.5803 8.1342V1.73363Z" fill="white"/>
<path d="M47.5296 9.97511C46.8733 9.97511 46.3066 9.83875 45.8293 9.56602C45.3549 9.29045 44.9898 8.90125 44.7341 8.3984C44.4784 7.89272 44.3506 7.29755 44.3506 6.61289C44.3506 5.9396 44.4784 5.34869 44.7341 4.84017C44.9926 4.3288 45.3534 3.93107 45.8165 3.64698C46.2796 3.36005 46.8236 3.21659 47.4486 3.21659C47.852 3.21659 48.2327 3.28193 48.5907 3.41261C48.9514 3.54045 49.2696 3.73931 49.5452 4.0092C49.8236 4.27909 50.0424 4.62284 50.2014 5.04045C50.3605 5.45522 50.4401 5.94954 50.4401 6.5234V6.99642H45.075V5.95664H48.9614C48.9586 5.66119 48.8946 5.3984 48.7696 5.16829C48.6446 4.93534 48.4699 4.7521 48.2455 4.61858C48.0239 4.48505 47.7654 4.41829 47.4699 4.41829C47.1546 4.41829 46.8776 4.495 46.6389 4.6484C46.4003 4.79897 46.2142 4.99784 46.0807 5.245C45.95 5.48931 45.8833 5.75778 45.8804 6.05039V6.95806C45.8804 7.33874 45.95 7.66545 46.0892 7.93818C46.2284 8.20806 46.423 8.41545 46.673 8.56034C46.923 8.70238 47.2157 8.7734 47.5509 8.7734C47.7753 8.7734 47.9784 8.74215 48.1603 8.67965C48.3421 8.61431 48.4997 8.51914 48.6333 8.39414C48.7668 8.26914 48.8676 8.11431 48.9358 7.92965L50.3762 8.09159C50.2853 8.47227 50.112 8.80465 49.8563 9.08875C49.6034 9.37 49.2796 9.58875 48.8847 9.745C48.4898 9.8984 48.0381 9.97511 47.5296 9.97511Z" fill="white"/>
<path d="M51.7431 9.84727V3.30181H53.2388V4.39272H53.307C53.4263 4.01488 53.6309 3.72369 53.9206 3.51914C54.2133 3.31176 54.5471 3.20806 54.9221 3.20806C55.0073 3.20806 55.1025 3.21232 55.2076 3.22085C55.3155 3.22653 55.405 3.23647 55.476 3.25068V4.66971C55.4107 4.64698 55.307 4.6271 55.165 4.61005C55.0258 4.59017 54.8908 4.58022 54.7601 4.58022C54.4789 4.58022 54.226 4.6413 54.0016 4.76346C53.78 4.88278 53.6053 5.04897 53.4775 5.26204C53.3496 5.47511 53.2857 5.72085 53.2857 5.99926V9.84727H51.7431Z" fill="white"/>
</svg>
