<svg width="63" height="24" viewBox="0 0 63 24" fill="none" xmlns="http://www.w3.org/2000/svg">
<rect x="-0.000732422" width="63.0007" height="24" rx="8" fill="#F37726" fill-opacity="0.1"/>
<path d="M20.4315 13.2716C20.4315 14.613 20.3285 15.0508 20.0542 15.3743C19.7546 15.6493 19.3629 15.8015 18.9566 15.8005L19.0596 16.5983C19.6893 16.6069 20.2999 16.3807 20.7723 15.9631C21.2638 15.4541 21.4353 14.7503 21.4353 13.6702V8.59871H20.4291V13.2784L20.4315 13.2716Z" fill="#282828"/>
<path d="M27.9357 12.6604L27.9813 14.1852H27.101L27.0438 13.268H27.021C26.8363 13.588 26.569 13.8533 26.2469 14.0364C25.9255 14.2188 25.5611 14.3122 25.1917 14.3067C24.3229 14.3067 23.2848 13.8206 23.2848 11.8579V8.58827H24.2909V11.6905C24.2909 12.7545 24.611 13.4697 25.5233 13.4697C25.8096 13.4645 26.0877 13.3746 26.3234 13.2114C26.5591 13.0483 26.7413 12.8191 26.8475 12.5525C26.9085 12.3859 26.9395 12.2095 26.9389 12.032V8.59296H27.9451V12.6604H27.9359H27.9357Z" fill="#282828"/>
<path d="M29.8318 10.417L29.7862 8.58281H30.6893L30.735 9.54122H30.7578C30.9547 9.19844 31.2422 8.9157 31.5891 8.72356C31.9348 8.53204 32.3269 8.43889 32.7224 8.45431C34.0578 8.45431 35.0639 9.60065 35.0639 11.2975C35.0639 13.3084 33.8543 14.3012 32.5486 14.3012C32.2131 14.3152 31.8799 14.2416 31.582 14.0877C31.2832 13.9334 31.0299 13.7043 30.8472 13.4231H30.8244V16.4612H29.8297V10.4079L29.8321 10.417H29.8318ZM30.8265 11.9074C30.829 12.0468 30.8443 12.1857 30.8721 12.3224C30.9536 12.6606 31.1466 12.962 31.4202 13.1786C31.6928 13.3942 32.0306 13.5119 32.3789 13.5125C33.4422 13.5125 34.0573 12.6344 34.0573 11.3527C34.0573 10.2314 33.4742 9.27301 32.4133 9.27301C32.0565 9.28292 31.7133 9.41246 31.4381 9.64053C31.1628 9.8686 30.9722 10.1822 30.8951 10.5317C30.8548 10.6665 30.8317 10.8059 30.8265 10.9466V11.9051V11.9074V11.9074Z" fill="#282828"/>
<path d="M36.8437 8.59349L38.0532 11.8975L38.4077 13.0438H38.4305L38.7849 11.8766L39.8826 8.59584H40.9459L39.4387 12.583C38.7186 14.4998 38.2292 15.4835 37.5434 16.0843C37.1968 16.4075 36.7718 16.6346 36.311 16.7425L36.0596 15.8873C36.382 15.7796 36.6809 15.6107 36.9399 15.3897C37.3058 15.0832 37.5955 14.6953 37.7858 14.2569C37.8265 14.1812 37.8536 14.099 37.8658 14.014C37.8569 13.9222 37.8336 13.8326 37.7971 13.7478L35.7528 8.59584H36.8505L36.8437 8.59349Z" fill="#282828"/>
<path d="M43.5866 6.9853V8.59038H45.0248V9.3653H43.5866V12.3782C43.5866 13.066 43.7808 13.4651 44.3411 13.4651C44.5377 13.4682 44.7338 13.445 44.9241 13.3963L44.9697 14.1597C44.6837 14.2608 44.3812 14.3075 44.0779 14.2973C43.8768 14.3096 43.6754 14.278 43.4877 14.2043C43.3 14.1305 43.1309 14.0169 42.9915 13.8709C42.7057 13.5706 42.6027 13.073 42.6027 12.4149V9.3653H41.7457V8.59038H42.6032V7.24908L43.5866 6.9853Z" fill="#282828"/>
<path d="M46.8784 11.5722C46.9012 12.9479 47.7703 13.5143 48.7741 13.5143C49.2989 13.5307 49.8209 13.4322 50.3038 13.2255L50.4752 13.9525C49.8966 14.1962 49.2732 14.314 48.6459 14.2986C46.9445 14.2986 45.9271 13.1658 45.9271 11.4784C45.9271 9.79092 46.9104 8.46316 48.5201 8.46316C50.3242 8.46316 50.8066 10.0682 50.8066 11.0976C50.805 11.2563 50.7935 11.4148 50.7722 11.5722H46.8853H46.8784V11.5722ZM49.8258 10.8455C49.8374 10.1988 49.5629 9.19246 48.4333 9.19246C47.4159 9.19246 46.972 10.1394 46.8921 10.8455H49.8279H49.8256H49.8258Z" fill="#282828"/>
<path d="M52.2697 10.337L52.224 8.59196H53.1044L53.1387 9.69034H53.1843C53.436 8.93837 54.0418 8.46581 54.7142 8.46581C54.8107 8.46451 54.9067 8.47598 55 8.50022V9.45863C54.8873 9.43413 54.7722 9.4224 54.6571 9.42422C53.9482 9.42422 53.4475 9.96768 53.3104 10.7288C53.2821 10.8855 53.2669 11.0442 53.2648 11.2034V14.1842H52.2697V10.337Z" fill="#282828"/>
<path d="M15.9899 7.22181C15.9953 7.34864 15.9632 7.47417 15.8977 7.58244C15.8322 7.69071 15.7358 7.77742 15.6211 7.83091C15.5063 7.8844 15.3783 7.90273 15.2534 7.88332C15.1282 7.86381 15.0116 7.80764 14.9187 7.72199C14.8253 7.63597 14.7596 7.52448 14.7297 7.40148C14.6998 7.27832 14.7069 7.14891 14.7503 7.02964C14.7935 6.91079 14.8711 6.80731 14.9733 6.7322C15.0752 6.65737 15.1972 6.61448 15.3237 6.60905C15.4931 6.60193 15.6582 6.66232 15.7831 6.77728C15.9081 6.89224 15.9823 7.05207 15.9896 7.22181H15.9899Z" fill="#767677"/>
<path d="M12.261 14.7622C10.5581 14.7622 9.07082 14.1419 8.29877 13.2235C8.5862 14.0474 9.12224 14.7616 9.83225 15.2667C10.5423 15.7718 11.3913 16.0432 12.2619 16.0432C13.1324 16.0432 13.9815 15.7718 14.6915 15.2667C15.4015 14.7616 15.9376 14.0474 16.225 13.2235C15.4512 14.1419 13.9639 14.7622 12.261 14.7622V14.7622Z" fill="#F37726"/>
<path d="M12.2606 8.78879C13.9635 8.78879 15.4508 9.40932 16.2228 10.3275C15.9354 9.50357 15.3994 8.78943 14.6893 8.2843C13.9793 7.77916 13.1303 7.50782 12.2597 7.50782C11.3892 7.50782 10.5401 7.77916 9.83008 8.2843C9.12007 8.78943 8.58403 9.50357 8.29659 10.3275C9.07039 9.41104 10.5577 8.78879 12.2606 8.78879Z" fill="#F37726"/>
<path d="M9.92315 16.5479C9.93021 16.7076 9.88976 16.8658 9.80688 17.0028C9.72401 17.1395 9.60274 17.2484 9.45805 17.3159C9.31336 17.3835 9.15218 17.4065 8.99447 17.3819C8.83676 17.3574 8.6899 17.2866 8.57254 17.1783C8.45518 17.0701 8.37231 16.9297 8.33456 16.7741C8.29698 16.6187 8.30619 16.4557 8.36103 16.3055C8.41591 16.1551 8.51397 16.0246 8.64282 15.9304C8.77168 15.8361 8.92549 15.7822 9.08493 15.7757C9.29817 15.7669 9.50599 15.8435 9.66327 15.9882C9.82067 16.1335 9.91406 16.3347 9.92315 16.5481V16.5481V16.5479Z" fill="#989798"/>
<path d="M8.49293 8.58107C8.39943 8.58517 8.3068 8.56123 8.22676 8.51249C8.14671 8.46374 8.08293 8.39235 8.04345 8.30715C8.00397 8.22196 7.99052 8.12705 8.00483 8.03431C8.01915 7.94156 8.06059 7.85507 8.12393 7.78605C8.18727 7.71703 8.26971 7.66829 8.3606 7.64607C8.4515 7.62386 8.54695 7.62925 8.63502 7.6616C8.72309 7.69396 8.79924 7.75154 8.85434 7.82747C8.91894 7.91618 8.95085 8.02432 8.94468 8.13368C8.93852 8.24304 8.89467 8.34695 8.8205 8.42794C8.73568 8.52047 8.61788 8.57547 8.49271 8.58086L8.49293 8.58107Z" fill="#6F7070"/>
</svg>
