<svg width="13" height="14" viewBox="0 0 13 14" fill="none" xmlns="http://www.w3.org/2000/svg">
<path d="M7.00501 0.5C6.58574 0.5 6.19992 0.731937 6.00144 1.10214C5.80518 1.47235 5.82748 1.92285 6.06165 2.27075L6.54783 1.78681C6.53221 1.73774 6.52329 1.68868 6.52329 1.63738C6.52329 1.37199 6.73739 1.1579 7.00278 1.1579C7.26817 1.1579 7.48227 1.37199 7.48227 1.63738C7.48227 1.90277 7.26817 2.11687 7.00278 2.11687C6.95149 2.11687 6.90242 2.10795 6.85336 2.09234L6.36718 2.57628C6.77084 2.85059 7.30385 2.83498 7.6919 2.5406C8.07995 2.24622 8.23606 1.73551 8.07995 1.27387C7.92607 0.809993 7.49119 0.5 7.00501 0.5Z" fill="white"/>
<path d="M6.5522 3.81177C6.5522 3.42819 6.42954 3.05352 6.1976 2.74799L5.5687 3.37689C5.76495 3.73818 5.69581 4.18421 5.39697 4.46744L5.74042 5.30375C6.24444 4.97592 6.5522 4.41392 6.5522 3.81177Z" fill="white"/>
<path d="M4.79039 4.71501H4.77477C4.38896 4.71501 4.04551 4.46969 3.92062 4.10394C3.79573 3.73819 3.91616 3.33453 4.22169 3.09591C4.52723 2.85728 4.94873 2.84167 5.2721 3.05576L5.89655 2.43132C5.28994 1.93845 4.43356 1.90054 3.78458 2.33765C3.1356 2.77476 2.85014 3.58208 3.07762 4.32919C3.3051 5.07629 3.99422 5.587 4.77477 5.587C4.8952 5.587 5.01563 5.57585 5.13383 5.55132L4.79039 4.71501Z" fill="white"/>
<path d="M7.02726 5.43756C6.63252 5.43756 6.24001 5.49555 5.86312 5.60705L6.36267 6.82695C6.579 6.77343 6.80201 6.74667 7.02726 6.74667C8.32522 6.74667 9.4403 7.66327 9.69454 8.93669C9.94655 10.2101 9.26635 11.4835 8.06875 11.9786C6.87115 12.4737 5.48845 12.0545 4.7681 10.9773C4.04776 9.90012 4.18603 8.46166 5.10263 7.54284C5.29442 7.35104 5.51298 7.19047 5.75161 7.06335L5.25874 5.84791C3.41885 6.7489 2.54686 8.88763 3.23375 10.8189C3.92064 12.7503 5.94563 13.8587 7.94163 13.3948C9.93763 12.9331 11.269 11.0464 11.0371 9.01029C10.8052 6.97414 9.08124 5.43756 7.03172 5.43756H7.02726Z" fill="white"/>
</svg>
