<svg width="13" height="14" viewBox="0 0 13 14" fill="none" xmlns="http://www.w3.org/2000/svg">
<path d="M12.9998 4.36779C12.3085 5.30694 10.8121 5.51307 10.6472 4.95488C10.4823 4.39669 11.348 4.01714 11.8029 3.95507C9.16123 3.2443 9.63602 5.13968 8.1709 5.32921C8.97643 5.73151 9.82177 6.38162 10.389 6.46644C11.3589 6.61712 12.7222 6.08073 12.9998 4.36779Z" fill="white"/>
<path d="M6.43727 4.95487C6.28279 4.87242 6.12785 4.77955 5.98333 4.68668C5.89849 4.62691 5.83481 4.54177 5.80143 4.44351C5.76805 4.34525 5.76671 4.23894 5.79758 4.13986L5.85965 4.01619C5.8805 4.03656 6.02455 4.33603 6.63344 4.61465C6.84003 4.70942 7.6034 5.07902 7.6342 5.0885C7.91282 5.15057 8.36676 4.85158 8.24309 4.62413C8.14832 4.49003 7.75834 4.06736 7.71712 3.8186C7.67542 3.62242 7.68585 3.313 7.2627 2.91829C6.86041 2.54727 5.98333 2.44445 5.36449 2.52642C5.53981 2.68137 5.83833 2.95999 5.55023 3.11446C5.38531 3.19493 5.22689 3.28809 5.07639 3.39308C4.60254 3.775 4.56037 4.60044 5.11761 5.0956C5.54076 5.4671 6.05677 6.02434 5.4493 6.66403C5.02616 7.10754 4.00455 6.88057 3.36439 6.23046C2.65363 5.50832 2.58018 4.13607 3.26962 3.07324L3.36439 2.92872C3.32928 2.93062 3.29464 2.93765 3.26157 2.94957C3.0962 3.01117 2.92988 3.06282 2.77635 3.13531C1.80132 3.55668 1.00022 4.29959 0.506641 5.24013C0.269719 5.69407 -0.630584 7.77851 0.753987 9.87289C0.784787 9.19198 1.00181 8.53144 1.2392 8.1808C1.49697 7.80931 2.05421 7.47904 2.58018 8.1808C2.92087 8.62432 2.9929 9.30523 3.41604 9.30523C3.83918 9.30523 3.93206 8.62432 4.22157 8.1808C4.69542 7.45866 5.33558 7.74723 5.57298 8.11873C5.8826 8.64736 5.98556 9.2719 5.86202 9.87195C5.5526 11.3882 2.77683 11.3683 1.85852 11.0566C1.85852 11.0566 2.82847 11.9441 4.64424 11.9649C5.29436 11.9749 7.43992 11.7067 8.28668 9.40616C9.28507 6.68914 6.86041 5.18279 6.43727 4.95487ZM6.27237 3.28363C6.69551 2.82921 7.32478 3.4381 7.29398 4.18109C6.74716 3.60347 6.47849 3.55182 6.0454 3.72714C6.03497 3.59399 6.2103 3.34617 6.27237 3.28457V3.28363Z" fill="white"/>
</svg>
