<svg width="13" height="14" viewBox="0 0 13 14" fill="none" xmlns="http://www.w3.org/2000/svg">
<path fill-rule="evenodd" clip-rule="evenodd" d="M2.64927 4H5.3839L6.71989 6.35388L4.10159 10.9511H1.3665L0 8.5677L2.64927 4ZM2.76115 4.59415L0.455816 8.56884L1.48031 10.3558L3.75972 6.35353L2.76115 4.59415ZM4.10159 6.55115L1.82054 10.5563H3.87206L6.15312 6.55115H4.10159ZM6.15371 6.15627H4.10179L3.10208 4.39487H5.15398L6.15371 6.15627Z" fill="#171615"/>
<path fill-rule="evenodd" clip-rule="evenodd" d="M12.9999 8.59759L11.6326 10.9659L8.92608 10.9459L6.25391 6.37978L7.62146 4.01111L10.3688 4.0194L12.9999 8.59759ZM12.4294 8.39738L10.1399 4.41357L8.08017 4.40736L10.4065 8.38249L12.4294 8.39738ZM10.0644 8.57977L7.73641 4.60175L6.71064 6.37842L9.03864 10.3564L10.0644 8.57977ZM9.38032 10.5544L10.4063 8.77736L12.4315 8.7923L11.4056 10.5693L9.38032 10.5544Z" fill="#171615"/>
</svg>
