<svg width="87" height="24" viewBox="0 0 87 24" fill="none" xmlns="http://www.w3.org/2000/svg">
<rect width="86.1008" height="24" rx="8" fill="#00D2D2"/>
<g clip-path="url(#clip0_339_2457)">
<path d="M22.6429 5.3583C22.5207 5.28665 22.3781 5.28665 22.2559 5.3583L17.9792 7.77376L16.411 5.48112C16.4008 5.47088 16.3906 5.46065 16.3906 5.45041L16.3805 5.44018C16.3703 5.41971 16.3499 5.40947 16.3397 5.39924L16.3295 5.389C16.3193 5.37877 16.299 5.36853 16.2786 5.3583C16.2684 5.3583 16.2684 5.34806 16.2583 5.34806C16.2481 5.33783 16.2277 5.33783 16.2175 5.32759C16.2074 5.32759 16.1971 5.31736 16.187 5.31736C16.1768 5.31736 16.1666 5.31736 16.1462 5.30712C16.1361 5.30712 16.1157 5.30712 16.1055 5.30712C16.0953 5.30712 16.0852 5.30712 16.0749 5.30712C16.0546 5.30712 16.0444 5.30712 16.024 5.31736C16.0139 5.31736 16.0139 5.31736 16.0037 5.31736C15.9833 5.31736 15.9731 5.32759 15.9528 5.33783C15.9426 5.33783 15.9426 5.33783 15.9324 5.34806C15.9222 5.34806 15.912 5.3583 15.9019 5.3583L8.19347 9.70817C8.18329 9.70817 8.18329 9.71839 8.17311 9.71839H8.16292C8.14256 9.72865 8.12219 9.74909 8.11201 9.75935L8.10183 9.76957C8.09165 9.77982 8.08146 9.80027 8.07128 9.81052L8.0611 9.82074C8.05091 9.84122 8.04073 9.8617 8.03055 9.88217V9.89239C8.02037 9.91287 8.02037 9.92309 8.02037 9.94357C8.02037 9.95379 8.02037 9.95379 8.02037 9.96405C8 10.005 8 10.0254 8 10.0459V19.3393C8 19.4723 8.07128 19.6054 8.19347 19.677C8.25457 19.7077 8.32585 19.7282 8.38695 19.7282C8.44804 19.7282 8.51932 19.7077 8.58042 19.677L12.8572 17.2616L14.4152 19.5645C14.4152 19.5645 14.4152 19.5645 14.4253 19.5747C14.4253 19.5849 14.4355 19.5849 14.4355 19.5952C14.4457 19.6054 14.4457 19.6054 14.4559 19.6156L14.4661 19.6259C14.4763 19.6361 14.4763 19.6361 14.4865 19.6463L14.4966 19.6566C14.5068 19.6668 14.517 19.6668 14.5272 19.677C14.5272 19.677 14.5374 19.677 14.5374 19.6873C14.5374 19.6873 14.5374 19.6873 14.5475 19.6873C14.5577 19.6975 14.5679 19.6975 14.5781 19.6975C14.5883 19.6975 14.5883 19.6975 14.5985 19.7077C14.6086 19.7077 14.6188 19.718 14.629 19.718C14.6392 19.718 14.6392 19.718 14.6494 19.7282C14.6595 19.7282 14.6697 19.7282 14.6799 19.7385H14.6901C14.7105 19.7385 14.7207 19.7385 14.741 19.7385C14.741 19.7385 14.741 19.7385 14.7512 19.7385C14.7614 19.7385 14.7817 19.7385 14.7919 19.7385C14.8021 19.7385 14.8021 19.7385 14.8123 19.7385C14.8225 19.7385 14.8327 19.7384 14.8429 19.7282C14.853 19.7282 14.853 19.7282 14.8632 19.718C14.8734 19.718 14.8836 19.7077 14.8938 19.7077C14.9039 19.7077 14.9039 19.6975 14.9141 19.6975C14.9141 19.6975 14.9243 19.6975 14.9243 19.6873L22.6327 15.3374C22.7549 15.2658 22.8261 15.143 22.8261 14.9997V5.69605C22.8261 5.55277 22.7549 5.42994 22.6429 5.3583ZM8.77389 18.6842V11.2946L12.4091 16.627L8.77389 18.6842ZM14.5475 9.70817C14.4253 9.77982 14.3541 9.90262 14.3541 10.0459V18.0906L8.947 10.179L15.9731 6.2078L17.2969 8.15245L14.5475 9.70817ZM22.0624 14.7643L15.128 18.6842V10.2711L22.0624 6.36133V14.7643Z" fill="#171615"/>
</g>
<path d="M34.1719 7.57031V16.2976H32.7656L28.6534 10.353H28.581V16.2976H27V7.57031H28.4148L32.5227 13.5192H32.5994V7.57031H34.1719Z" fill="#171615"/>
<path d="M38.6794 16.4254C38.0402 16.4254 37.4862 16.2848 37.0175 16.0036C36.5487 15.7223 36.1851 15.3288 35.9266 14.8232C35.6709 14.3175 35.5431 13.7266 35.5431 13.0504C35.5431 12.3743 35.6709 11.782 35.9266 11.2734C36.1851 10.7649 36.5487 10.37 37.0175 10.0888C37.4862 9.80753 38.0402 9.6669 38.6794 9.6669C39.3186 9.6669 39.8726 9.80753 40.3414 10.0888C40.8101 10.37 41.1723 10.7649 41.428 11.2734C41.6865 11.782 41.8158 12.3743 41.8158 13.0504C41.8158 13.7266 41.6865 14.3175 41.428 14.8232C41.1723 15.3288 40.8101 15.7223 40.3414 16.0036C39.8726 16.2848 39.3186 16.4254 38.6794 16.4254ZM38.6879 15.1896C39.0345 15.1896 39.3243 15.0945 39.5573 14.9041C39.7902 14.7109 39.9635 14.4524 40.0772 14.1286C40.1936 13.8047 40.2519 13.4439 40.2519 13.0462C40.2519 12.6456 40.1936 12.2834 40.0772 11.9595C39.9635 11.6328 39.7902 11.3729 39.5573 11.1797C39.3243 10.9865 39.0345 10.8899 38.6879 10.8899C38.3328 10.8899 38.0374 10.9865 37.8016 11.1797C37.5686 11.3729 37.3939 11.6328 37.2774 11.9595C37.1638 12.2834 37.107 12.6456 37.107 13.0462C37.107 13.4439 37.1638 13.8047 37.2774 14.1286C37.3939 14.4524 37.5686 14.7109 37.8016 14.9041C38.0374 15.0945 38.3328 15.1896 38.6879 15.1896Z" fill="#171615"/>
<path d="M46.3915 9.75213V10.9453H42.6287V9.75213H46.3915ZM43.5577 8.18395H45.1003V14.3288C45.1003 14.5362 45.1316 14.6953 45.1941 14.8061C45.2594 14.9141 45.3446 14.9879 45.4498 15.0277C45.5549 15.0675 45.6713 15.0874 45.7992 15.0874C45.8958 15.0874 45.9838 15.0803 46.0634 15.0661C46.1458 15.0518 46.2083 15.0391 46.2509 15.0277L46.5108 16.2337C46.4284 16.2621 46.3105 16.2933 46.1571 16.3274C46.0066 16.3615 45.8219 16.3814 45.6032 16.3871C45.2168 16.3984 44.8688 16.3402 44.5591 16.2124C44.2495 16.0817 44.0037 15.88 43.8219 15.6072C43.6429 15.3345 43.5549 14.9936 43.5577 14.5845V8.18395Z" fill="#171615"/>
<path d="M50.507 16.4254C49.8508 16.4254 49.284 16.2891 48.8067 16.0163C48.3323 15.7408 47.9672 15.3516 47.7116 14.8487C47.4559 14.343 47.328 13.7479 47.328 13.0632C47.328 12.3899 47.4559 11.799 47.7116 11.2905C47.9701 10.7791 48.3309 10.3814 48.7939 10.0973C49.257 9.81037 49.8011 9.6669 50.4261 9.6669C50.8295 9.6669 51.2101 9.73224 51.5681 9.86293C51.9289 9.99077 52.2471 10.1896 52.5226 10.4595C52.8011 10.7294 53.0198 11.0732 53.1789 11.4908C53.338 11.9055 53.4175 12.3999 53.4175 12.9737V13.4467H48.0525V12.407H51.9388C51.936 12.1115 51.8721 11.8487 51.7471 11.6186C51.6221 11.3857 51.4474 11.2024 51.2229 11.0689C51.0013 10.9354 50.7428 10.8686 50.4474 10.8686C50.132 10.8686 49.855 10.9453 49.6164 11.0987C49.3778 11.2493 49.1917 11.4482 49.0582 11.6953C48.9275 11.9396 48.8607 12.2081 48.8579 12.5007V13.4084C48.8579 13.7891 48.9275 14.1158 49.0667 14.3885C49.2059 14.6584 49.4005 14.8658 49.6505 15.0107C49.9005 15.1527 50.1931 15.2237 50.5283 15.2237C50.7528 15.2237 50.9559 15.1925 51.1377 15.13C51.3195 15.0646 51.4772 14.9695 51.6107 14.8445C51.7442 14.7195 51.8451 14.5646 51.9133 14.38L53.3536 14.5419C53.2627 14.9226 53.0894 15.255 52.8337 15.5391C52.5809 15.8203 52.257 16.0391 51.8621 16.1953C51.4672 16.3487 51.0155 16.4254 50.507 16.4254Z" fill="#171615"/>
<path d="M56.6041 16.4297C56.1893 16.4297 55.8157 16.3558 55.4833 16.2081C55.1538 16.0575 54.8924 15.8359 54.6992 15.5433C54.5089 15.2507 54.4137 14.8899 54.4137 14.4609C54.4137 14.0916 54.4819 13.7862 54.6183 13.5447C54.7546 13.3033 54.9407 13.1101 55.1765 12.9652C55.4123 12.8203 55.6779 12.7109 55.9734 12.6371C56.2717 12.5604 56.5799 12.505 56.8981 12.4709C57.2816 12.4311 57.5927 12.3956 57.8313 12.3643C58.07 12.3303 58.2433 12.2791 58.3512 12.2109C58.462 12.1399 58.5174 12.0305 58.5174 11.8828V11.8572C58.5174 11.5362 58.4222 11.2876 58.2319 11.1115C58.0416 10.9354 57.7674 10.8473 57.4095 10.8473C57.0316 10.8473 56.7319 10.9297 56.5103 11.0945C56.2916 11.2592 56.1438 11.4538 56.0671 11.6783L54.6268 11.4737C54.7404 11.076 54.9279 10.7436 55.1893 10.4766C55.4506 10.2067 55.7702 10.005 56.1481 9.87145C56.5259 9.73509 56.9435 9.6669 57.4009 9.6669C57.7163 9.6669 58.0302 9.70384 58.3427 9.7777C58.6552 9.85156 58.9407 9.97372 59.1992 10.1442C59.4577 10.3118 59.6651 10.5405 59.8214 10.8303C59.9805 11.12 60.06 11.4822 60.06 11.9169V16.2976H58.5771V15.3984H58.5259C58.4322 15.5803 58.3001 15.7507 58.1296 15.9098C57.962 16.0661 57.7504 16.1925 57.4947 16.2891C57.2418 16.3828 56.945 16.4297 56.6041 16.4297ZM57.0046 15.2962C57.3143 15.2962 57.5827 15.2351 57.81 15.1129C58.0373 14.9879 58.212 14.8232 58.3342 14.6186C58.4592 14.4141 58.5217 14.1911 58.5217 13.9496V13.1783C58.4734 13.218 58.391 13.255 58.2745 13.2891C58.1609 13.3232 58.033 13.353 57.891 13.3786C57.7489 13.4041 57.6083 13.4268 57.4691 13.4467C57.3299 13.4666 57.2092 13.4837 57.1069 13.4979C56.8768 13.5291 56.6708 13.5803 56.489 13.6513C56.3072 13.7223 56.1637 13.8217 56.0586 13.9496C55.9535 14.0746 55.9009 14.2365 55.9009 14.4354C55.9009 14.7195 56.0046 14.9339 56.212 15.0788C56.4194 15.2237 56.6836 15.2962 57.0046 15.2962Z" fill="#171615"/>
<path d="M61.6773 16.2976V7.57031H63.2199V10.8345H63.2838C63.3634 10.6754 63.4756 10.5064 63.6205 10.3274C63.7654 10.1456 63.9614 9.99077 64.2085 9.86293C64.4557 9.73224 64.7711 9.6669 65.1546 9.6669C65.6603 9.6669 66.1162 9.79616 66.5225 10.0547C66.9316 10.3104 67.2554 10.6896 67.4941 11.1925C67.7355 11.6925 67.8563 12.3061 67.8563 13.0334C67.8563 13.7521 67.7384 14.3629 67.5026 14.8658C67.2668 15.3686 66.9458 15.7521 66.5395 16.0163C66.1333 16.2805 65.673 16.4126 65.1588 16.4126C64.7838 16.4126 64.4728 16.3501 64.2256 16.2251C63.9784 16.1001 63.7796 15.9496 63.629 15.7734C63.4813 15.5945 63.3662 15.4254 63.2838 15.2663H63.1943V16.2976H61.6773ZM63.1901 13.0249C63.1901 13.4482 63.2497 13.8189 63.3691 14.1371C63.4912 14.4553 63.6659 14.7038 63.8932 14.8828C64.1233 15.0589 64.4017 15.147 64.7284 15.147C65.0693 15.147 65.3549 15.0561 65.585 14.8743C65.8151 14.6896 65.9884 14.4382 66.1049 14.12C66.2242 13.799 66.2838 13.4339 66.2838 13.0249C66.2838 12.6186 66.2256 12.2578 66.1091 11.9425C65.9926 11.6271 65.8193 11.38 65.5892 11.201C65.3591 11.022 65.0722 10.9325 64.7284 10.9325C64.3989 10.9325 64.1191 11.0192 63.889 11.1925C63.6588 11.3658 63.4841 11.6087 63.3648 11.9212C63.2483 12.2337 63.1901 12.6016 63.1901 13.0249Z" fill="#171615"/>
<path d="M70.7083 7.57031V16.2976H69.1657V7.57031H70.7083Z" fill="#171615"/>
<path d="M75.1903 16.4254C74.534 16.4254 73.9673 16.2891 73.49 16.0163C73.0155 15.7408 72.6505 15.3516 72.3948 14.8487C72.1391 14.343 72.0113 13.7479 72.0113 13.0632C72.0113 12.3899 72.1391 11.799 72.3948 11.2905C72.6533 10.7791 73.0141 10.3814 73.4772 10.0973C73.9403 9.81037 74.4843 9.6669 75.1093 9.6669C75.5127 9.6669 75.8934 9.73224 76.2513 9.86293C76.6121 9.99077 76.9303 10.1896 77.2059 10.4595C77.4843 10.7294 77.703 11.0732 77.8621 11.4908C78.0212 11.9055 78.1008 12.3999 78.1008 12.9737V13.4467H72.7357V12.407H76.6221C76.6192 12.1115 76.5553 11.8487 76.4303 11.6186C76.3053 11.3857 76.1306 11.2024 75.9062 11.0689C75.6846 10.9354 75.4261 10.8686 75.1306 10.8686C74.8153 10.8686 74.5383 10.9453 74.2996 11.0987C74.061 11.2493 73.8749 11.4482 73.7414 11.6953C73.6107 11.9396 73.544 12.2081 73.5411 12.5007V13.4084C73.5411 13.7891 73.6107 14.1158 73.7499 14.3885C73.8891 14.6584 74.0837 14.8658 74.3337 15.0107C74.5837 15.1527 74.8763 15.2237 75.2116 15.2237C75.436 15.2237 75.6391 15.1925 75.8209 15.13C76.0028 15.0646 76.1604 14.9695 76.294 14.8445C76.4275 14.7195 76.5283 14.5646 76.5965 14.38L78.0369 14.5419C77.9459 14.9226 77.7726 15.255 77.517 15.5391C77.2641 15.8203 76.9403 16.0391 76.5454 16.1953C76.1505 16.3487 75.6988 16.4254 75.1903 16.4254Z" fill="#171615"/>
<defs>
<clipPath id="clip0_339_2457">
<rect width="15" height="15" fill="white" transform="translate(8 4.5)"/>
</clipPath>
</defs>
</svg>
