<svg width="71" height="15" viewBox="0 0 71 15" fill="none" xmlns="http://www.w3.org/2000/svg">
<g clip-path="url(#clip0_339_2426)">
<path d="M14.6429 0.858299C14.5207 0.786654 14.3781 0.786654 14.2559 0.858299L9.97916 3.27376L8.41101 0.981117C8.4008 0.970883 8.39063 0.960648 8.39063 0.950413L8.38046 0.940178C8.37026 0.919708 8.34989 0.909473 8.33972 0.899238L8.32952 0.889003C8.31935 0.878769 8.29897 0.868534 8.2786 0.858299C8.26843 0.858299 8.26843 0.848064 8.25826 0.848064C8.24806 0.837829 8.22769 0.837829 8.21752 0.827594C8.20735 0.827594 8.19715 0.817359 8.18698 0.817359C8.17678 0.817359 8.16661 0.817359 8.14623 0.807124C8.13607 0.807124 8.11569 0.807124 8.10552 0.807124C8.09532 0.807124 8.08515 0.807124 8.07495 0.807124C8.05461 0.807124 8.04441 0.807124 8.02403 0.817359C8.01387 0.817359 8.01387 0.817359 8.0037 0.817359C7.98333 0.817359 7.97312 0.827594 7.95278 0.837829C7.94258 0.837829 7.94258 0.837829 7.93241 0.848064C7.92221 0.848064 7.91204 0.858299 7.90187 0.858299L0.193473 5.20817C0.18329 5.20817 0.18329 5.21839 0.173108 5.21839H0.162925C0.142559 5.22865 0.122194 5.24909 0.112011 5.25935L0.101828 5.26957C0.0916454 5.27982 0.0814623 5.30027 0.0712796 5.31052L0.0610969 5.32074C0.0509139 5.34122 0.0407312 5.3617 0.0305484 5.38217V5.39239C0.0203656 5.41287 0.0203656 5.42309 0.0203656 5.44357C0.0203656 5.45379 0.0203656 5.45379 0.0203656 5.46405C0 5.50496 0 5.52544 0 5.54592V14.8393C0 14.9723 0.0712796 15.1054 0.193473 15.177C0.25457 15.2077 0.32585 15.2282 0.386946 15.2282C0.448043 15.2282 0.519321 15.2077 0.580421 15.177L4.85719 12.7616L6.41517 15.0645C6.41517 15.0645 6.41517 15.0645 6.42534 15.0747C6.42534 15.0849 6.43555 15.0849 6.43555 15.0952C6.44572 15.1054 6.44572 15.1054 6.45588 15.1156L6.46609 15.1259C6.47626 15.1361 6.47626 15.1361 6.48646 15.1463L6.49663 15.1566C6.5068 15.1668 6.517 15.1668 6.52717 15.177C6.52717 15.177 6.53737 15.177 6.53737 15.1873C6.53737 15.1873 6.53737 15.1873 6.54754 15.1873C6.55771 15.1975 6.56791 15.1975 6.57808 15.1975C6.58829 15.1975 6.58829 15.1975 6.59846 15.2077C6.60863 15.2077 6.61883 15.218 6.629 15.218C6.6392 15.218 6.6392 15.218 6.64937 15.2282C6.65954 15.2282 6.66974 15.2282 6.67991 15.2385H6.69011C6.71045 15.2385 6.72066 15.2385 6.74103 15.2385C6.74103 15.2385 6.74103 15.2385 6.7512 15.2385C6.76137 15.2385 6.78174 15.2385 6.79194 15.2385C6.80211 15.2385 6.80211 15.2385 6.81228 15.2385C6.82248 15.2385 6.83265 15.2384 6.84285 15.2282C6.85302 15.2282 6.85302 15.2282 6.86319 15.218C6.8734 15.218 6.88356 15.2077 6.89377 15.2077C6.90394 15.2077 6.90394 15.1975 6.91414 15.1975C6.91414 15.1975 6.92431 15.1975 6.92431 15.1873L14.6327 10.8374C14.7549 10.7658 14.8261 10.643 14.8261 10.4997V1.19605C14.8261 1.05277 14.7549 0.929943 14.6429 0.858299ZM0.773893 14.1842V6.79458L4.40914 12.127L0.773893 14.1842ZM6.54754 5.20817C6.42534 5.27982 6.35406 5.40262 6.35406 5.54592V13.5906L0.947002 5.67896L7.97312 1.7078L9.29691 3.65245L6.54754 5.20817ZM14.0624 10.2643L7.12796 14.1842V5.77109L14.0624 1.86133V10.2643Z" fill="#171615"/>
</g>
<path d="M26.1719 3.07031V11.7976H24.7656L20.6534 5.85298H20.581V11.7976H19V3.07031H20.4148L24.5227 9.01918H24.5994V3.07031H26.1719Z" fill="#171615"/>
<path d="M30.6794 11.9254C30.0402 11.9254 29.4862 11.7848 29.0175 11.5036C28.5487 11.2223 28.1851 10.8288 27.9266 10.3232C27.6709 9.81747 27.5431 9.22656 27.5431 8.55043C27.5431 7.87429 27.6709 7.28196 27.9266 6.77344C28.1851 6.26491 28.5487 5.87003 29.0175 5.58878C29.4862 5.30753 30.0402 5.1669 30.6794 5.1669C31.3186 5.1669 31.8726 5.30753 32.3414 5.58878C32.8101 5.87003 33.1723 6.26491 33.428 6.77344C33.6865 7.28196 33.8158 7.87429 33.8158 8.55043C33.8158 9.22656 33.6865 9.81747 33.428 10.3232C33.1723 10.8288 32.8101 11.2223 32.3414 11.5036C31.8726 11.7848 31.3186 11.9254 30.6794 11.9254ZM30.6879 10.6896C31.0345 10.6896 31.3243 10.5945 31.5573 10.4041C31.7902 10.2109 31.9635 9.95242 32.0772 9.62855C32.1936 9.30469 32.2519 8.94389 32.2519 8.54616C32.2519 8.1456 32.1936 7.78338 32.0772 7.45952C31.9635 7.13281 31.7902 6.87287 31.5573 6.67969C31.3243 6.48651 31.0345 6.38991 30.6879 6.38991C30.3328 6.38991 30.0374 6.48651 29.8016 6.67969C29.5686 6.87287 29.3939 7.13281 29.2774 7.45952C29.1638 7.78338 29.107 8.1456 29.107 8.54616C29.107 8.94389 29.1638 9.30469 29.2774 9.62855C29.3939 9.95242 29.5686 10.2109 29.8016 10.4041C30.0374 10.5945 30.3328 10.6896 30.6879 10.6896Z" fill="#171615"/>
<path d="M38.3915 5.25213V6.44531H34.6287V5.25213H38.3915ZM35.5577 3.68395H37.1003V9.82884C37.1003 10.0362 37.1316 10.1953 37.1941 10.3061C37.2594 10.4141 37.3446 10.4879 37.4498 10.5277C37.5549 10.5675 37.6713 10.5874 37.7992 10.5874C37.8958 10.5874 37.9838 10.5803 38.0634 10.5661C38.1458 10.5518 38.2083 10.5391 38.2509 10.5277L38.5108 11.7337C38.4284 11.7621 38.3105 11.7933 38.1571 11.8274C38.0066 11.8615 37.8219 11.8814 37.6032 11.8871C37.2168 11.8984 36.8688 11.8402 36.5591 11.7124C36.2495 11.5817 36.0037 11.38 35.8219 11.1072C35.6429 10.8345 35.5549 10.4936 35.5577 10.0845V3.68395Z" fill="#171615"/>
<path d="M42.507 11.9254C41.8508 11.9254 41.284 11.7891 40.8067 11.5163C40.3323 11.2408 39.9672 10.8516 39.7116 10.3487C39.4559 9.84304 39.328 9.24787 39.328 8.56321C39.328 7.88991 39.4559 7.29901 39.7116 6.79048C39.9701 6.27912 40.3309 5.88139 40.7939 5.5973C41.257 5.31037 41.8011 5.1669 42.4261 5.1669C42.8295 5.1669 43.2101 5.23224 43.5681 5.36293C43.9289 5.49077 44.2471 5.68963 44.5226 5.95952C44.8011 6.2294 45.0198 6.57315 45.1789 6.99077C45.338 7.40554 45.4175 7.89986 45.4175 8.47372V8.94673H40.0525V7.90696H43.9388C43.936 7.61151 43.8721 7.34872 43.7471 7.11861C43.6221 6.88565 43.4474 6.70242 43.2229 6.56889C43.0013 6.43537 42.7428 6.36861 42.4474 6.36861C42.132 6.36861 41.855 6.44531 41.6164 6.59872C41.3778 6.74929 41.1917 6.94815 41.0582 7.19531C40.9275 7.43963 40.8607 7.7081 40.8579 8.00071V8.90838C40.8579 9.28906 40.9275 9.61577 41.0667 9.88849C41.2059 10.1584 41.4005 10.3658 41.6505 10.5107C41.9005 10.6527 42.1931 10.7237 42.5283 10.7237C42.7528 10.7237 42.9559 10.6925 43.1377 10.63C43.3195 10.5646 43.4772 10.4695 43.6107 10.3445C43.7442 10.2195 43.8451 10.0646 43.9133 9.87997L45.3536 10.0419C45.2627 10.4226 45.0894 10.755 44.8337 11.0391C44.5809 11.3203 44.257 11.5391 43.8621 11.6953C43.4672 11.8487 43.0155 11.9254 42.507 11.9254Z" fill="#171615"/>
<path d="M48.6041 11.9297C48.1893 11.9297 47.8157 11.8558 47.4833 11.7081C47.1538 11.5575 46.8924 11.3359 46.6992 11.0433C46.5089 10.7507 46.4137 10.3899 46.4137 9.96094C46.4137 9.59162 46.4819 9.28622 46.6183 9.04474C46.7546 8.80327 46.9407 8.61009 47.1765 8.4652C47.4123 8.32031 47.6779 8.21094 47.9734 8.13707C48.2717 8.06037 48.5799 8.00497 48.8981 7.97088C49.2816 7.93111 49.5927 7.8956 49.8313 7.86435C50.07 7.83026 50.2433 7.77912 50.3512 7.71094C50.462 7.63991 50.5174 7.53054 50.5174 7.38281V7.35724C50.5174 7.03622 50.4222 6.78764 50.2319 6.61151C50.0416 6.43537 49.7674 6.3473 49.4095 6.3473C49.0316 6.3473 48.7319 6.42969 48.5103 6.59446C48.2916 6.75923 48.1438 6.95384 48.0671 7.17827L46.6268 6.97372C46.7404 6.57599 46.9279 6.24361 47.1893 5.97656C47.4506 5.70668 47.7702 5.50497 48.1481 5.37145C48.5259 5.23509 48.9435 5.1669 49.4009 5.1669C49.7163 5.1669 50.0302 5.20384 50.3427 5.2777C50.6552 5.35156 50.9407 5.47372 51.1992 5.64418C51.4577 5.81179 51.6651 6.04048 51.8214 6.33026C51.9805 6.62003 52.06 6.98224 52.06 7.4169V11.7976H50.5771V10.8984H50.5259C50.4322 11.0803 50.3001 11.2507 50.1296 11.4098C49.962 11.5661 49.7504 11.6925 49.4947 11.7891C49.2418 11.8828 48.945 11.9297 48.6041 11.9297ZM49.0046 10.7962C49.3143 10.7962 49.5827 10.7351 49.81 10.6129C50.0373 10.4879 50.212 10.3232 50.3342 10.1186C50.4592 9.91406 50.5217 9.69105 50.5217 9.44957V8.67827C50.4734 8.71804 50.391 8.75497 50.2745 8.78906C50.1609 8.82315 50.033 8.85298 49.891 8.87855C49.7489 8.90412 49.6083 8.92685 49.4691 8.94673C49.3299 8.96662 49.2092 8.98366 49.1069 8.99787C48.8768 9.02912 48.6708 9.08026 48.489 9.15128C48.3072 9.2223 48.1637 9.32173 48.0586 9.44957C47.9535 9.57457 47.9009 9.73651 47.9009 9.93537C47.9009 10.2195 48.0046 10.4339 48.212 10.5788C48.4194 10.7237 48.6836 10.7962 49.0046 10.7962Z" fill="#171615"/>
<path d="M53.6773 11.7976V3.07031H55.2199V6.33452H55.2838C55.3634 6.17543 55.4756 6.00639 55.6205 5.82741C55.7654 5.6456 55.9614 5.49077 56.2085 5.36293C56.4557 5.23224 56.7711 5.1669 57.1546 5.1669C57.6603 5.1669 58.1162 5.29616 58.5225 5.55469C58.9316 5.81037 59.2554 6.18963 59.4941 6.69247C59.7355 7.19247 59.8563 7.80611 59.8563 8.53338C59.8563 9.25213 59.7384 9.86293 59.5026 10.3658C59.2668 10.8686 58.9458 11.2521 58.5395 11.5163C58.1333 11.7805 57.673 11.9126 57.1588 11.9126C56.7838 11.9126 56.4728 11.8501 56.2256 11.7251C55.9784 11.6001 55.7796 11.4496 55.629 11.2734C55.4813 11.0945 55.3662 10.9254 55.2838 10.7663H55.1943V11.7976H53.6773ZM55.1901 8.52486C55.1901 8.94815 55.2497 9.31889 55.3691 9.63707C55.4912 9.95526 55.6659 10.2038 55.8932 10.3828C56.1233 10.5589 56.4017 10.647 56.7284 10.647C57.0693 10.647 57.3549 10.5561 57.585 10.3743C57.8151 10.1896 57.9884 9.93821 58.1049 9.62003C58.2242 9.29901 58.2838 8.93395 58.2838 8.52486C58.2838 8.11861 58.2256 7.75781 58.1091 7.44247C57.9926 7.12713 57.8193 6.87997 57.5892 6.70099C57.3591 6.52202 57.0722 6.43253 56.7284 6.43253C56.3989 6.43253 56.1191 6.51918 55.889 6.69247C55.6588 6.86577 55.4841 7.10866 55.3648 7.42116C55.2483 7.73366 55.1901 8.10156 55.1901 8.52486Z" fill="#171615"/>
<path d="M62.7083 3.07031V11.7976H61.1657V3.07031H62.7083Z" fill="#171615"/>
<path d="M67.1903 11.9254C66.534 11.9254 65.9673 11.7891 65.49 11.5163C65.0155 11.2408 64.6505 10.8516 64.3948 10.3487C64.1391 9.84304 64.0113 9.24787 64.0113 8.56321C64.0113 7.88991 64.1391 7.29901 64.3948 6.79048C64.6533 6.27912 65.0141 5.88139 65.4772 5.5973C65.9403 5.31037 66.4843 5.1669 67.1093 5.1669C67.5127 5.1669 67.8934 5.23224 68.2513 5.36293C68.6121 5.49077 68.9303 5.68963 69.2059 5.95952C69.4843 6.2294 69.703 6.57315 69.8621 6.99077C70.0212 7.40554 70.1008 7.89986 70.1008 8.47372V8.94673H64.7357V7.90696H68.6221C68.6192 7.61151 68.5553 7.34872 68.4303 7.11861C68.3053 6.88565 68.1306 6.70242 67.9062 6.56889C67.6846 6.43537 67.4261 6.36861 67.1306 6.36861C66.8153 6.36861 66.5383 6.44531 66.2996 6.59872C66.061 6.74929 65.8749 6.94815 65.7414 7.19531C65.6107 7.43963 65.544 7.7081 65.5411 8.00071V8.90838C65.5411 9.28906 65.6107 9.61577 65.7499 9.88849C65.8891 10.1584 66.0837 10.3658 66.3337 10.5107C66.5837 10.6527 66.8763 10.7237 67.2116 10.7237C67.436 10.7237 67.6391 10.6925 67.8209 10.63C68.0028 10.5646 68.1604 10.4695 68.294 10.3445C68.4275 10.2195 68.5283 10.0646 68.5965 9.87997L70.0369 10.0419C69.9459 10.4226 69.7726 10.755 69.517 11.0391C69.2641 11.3203 68.9403 11.5391 68.5454 11.6953C68.1505 11.8487 67.6988 11.9254 67.1903 11.9254Z" fill="#171615"/>
<defs>
<clipPath id="clip0_339_2426">
<rect width="15" height="15" fill="white"/>
</clipPath>
</defs>
</svg>
