<svg width="56" height="24" viewBox="8 0 56 24" fill="none" xmlns="http://www.w3.org/2000/svg">
    <path d="M11.7025 6.26845H10.2818V9.21842H11.7025V6.26845Z" fill="white" />
    <path d="M11.7025 12.3282H10.2818V15.2782H11.7025V12.3282Z" fill="white" />
    <path d="M11.7025 10.0795H10.2818V11.4713H11.7025V10.0795Z" fill="white" />
    <path d="M9.42072 8.69412H8V18.5H9.42072V8.69412Z" fill="white" />
    <path d="M13.9377 14.7621H12.517V17.7121H13.9377V14.7621Z" fill="white" />
    <path d="M13.9377 8.69766H12.517V11.6476H13.9377V8.69766Z" fill="white" />
    <path d="M13.9377 12.5087H12.517V13.9005H13.9377V12.5087Z" fill="white" />
    <path d="M16.1722 5.5H14.7515V15.3059H16.1722V5.5Z" fill="white" />
    <path
        d="M21.1009 18.4545V9.45455H22.618V10.5369H22.7075C22.787 10.3778 22.8992 10.2088 23.0441 10.0298C23.189 9.84801 23.385 9.69318 23.6322 9.56534C23.8793 9.43466 24.1947 9.36932 24.5782 9.36932C25.0839 9.36932 25.5399 9.49858 25.9461 9.7571C26.3552 10.0128 26.6791 10.392 26.9177 10.8949C27.1592 11.3949 27.2799 12.0085 27.2799 12.7358C27.2799 13.4545 27.162 14.0653 26.9262 14.5682C26.6904 15.071 26.3694 15.4545 25.9632 15.7188C25.5569 15.983 25.0967 16.1151 24.5825 16.1151C24.2075 16.1151 23.8964 16.0526 23.6492 15.9276C23.4021 15.8026 23.2032 15.652 23.0526 15.4759C22.9049 15.2969 22.7899 15.1278 22.7075 14.9688H22.6436V18.4545H21.1009ZM22.6137 12.7273C22.6137 13.1506 22.6734 13.5213 22.7927 13.8395C22.9149 14.1577 23.0896 14.4062 23.3168 14.5852C23.547 14.7614 23.8254 14.8494 24.1521 14.8494C24.493 14.8494 24.7785 14.7585 25.0086 14.5767C25.2387 14.392 25.412 14.1406 25.5285 13.8224C25.6478 13.5014 25.7075 13.1364 25.7075 12.7273C25.7075 12.321 25.6492 11.9602 25.5328 11.6449C25.4163 11.3295 25.243 11.0824 25.0129 10.9034C24.7828 10.7244 24.4958 10.6349 24.1521 10.6349C23.8225 10.6349 23.5427 10.7216 23.3126 10.8949C23.0825 11.0682 22.9078 11.3111 22.7884 11.6236C22.672 11.9361 22.6137 12.304 22.6137 12.7273ZM30.4824 16.1321C30.0676 16.1321 29.6941 16.0582 29.3617 15.9105C29.0321 15.7599 28.7708 15.5384 28.5776 15.2457C28.3872 14.9531 28.2921 14.5923 28.2921 14.1634C28.2921 13.794 28.3603 13.4886 28.4966 13.2472C28.633 13.0057 28.8191 12.8125 29.0549 12.6676C29.2907 12.5227 29.5563 12.4134 29.8517 12.3395C30.15 12.2628 30.4583 12.2074 30.7765 12.1733C31.16 12.1335 31.4711 12.098 31.7097 12.0668C31.9483 12.0327 32.1216 11.9815 32.2296 11.9134C32.3404 11.8423 32.3958 11.733 32.3958 11.5852V11.5597C32.3958 11.2386 32.3006 10.9901 32.1103 10.8139C31.9199 10.6378 31.6458 10.5497 31.2878 10.5497C30.91 10.5497 30.6103 10.6321 30.3887 10.7969C30.1699 10.9616 30.0222 11.1562 29.9455 11.3807L28.5051 11.1761C28.6188 10.7784 28.8063 10.446 29.0676 10.179C29.329 9.90909 29.6486 9.70739 30.0265 9.57386C30.4043 9.4375 30.8219 9.36932 31.2793 9.36932C31.5946 9.36932 31.9086 9.40625 32.2211 9.48011C32.5336 9.55398 32.8191 9.67614 33.0776 9.84659C33.3361 10.0142 33.5435 10.2429 33.6997 10.5327C33.8588 10.8224 33.9384 11.1847 33.9384 11.6193V16H32.4554V15.1009H32.4043C32.3105 15.2827 32.1784 15.4531 32.008 15.6122C31.8404 15.7685 31.6287 15.8949 31.373 15.9915C31.1202 16.0852 30.8233 16.1321 30.4824 16.1321ZM30.883 14.9986C31.1926 14.9986 31.4611 14.9375 31.6884 14.8153C31.9157 14.6903 32.0904 14.5256 32.2125 14.321C32.3375 14.1165 32.4 13.8935 32.4 13.652V12.8807C32.3517 12.9205 32.2694 12.9574 32.1529 12.9915C32.0392 13.0256 31.9114 13.0554 31.7694 13.081C31.6273 13.1065 31.4867 13.1293 31.3475 13.1491C31.2083 13.169 31.0875 13.1861 30.9853 13.2003C30.7551 13.2315 30.5492 13.2827 30.3674 13.3537C30.1855 13.4247 30.0421 13.5241 29.937 13.652C29.8319 13.777 29.7793 13.9389 29.7793 14.1378C29.7793 14.4219 29.883 14.6364 30.0904 14.7812C30.2978 14.9261 30.562 14.9986 30.883 14.9986ZM37.0301 12.1648V16H35.4875V9.45455H36.9619V10.5668H37.0386C37.1892 10.2003 37.4292 9.90909 37.7588 9.69318C38.0912 9.47727 38.5017 9.36932 38.9903 9.36932C39.442 9.36932 39.8355 9.46591 40.1707 9.65909C40.5088 9.85227 40.7702 10.1321 40.9548 10.4986C41.1423 10.8651 41.2346 11.3097 41.2318 11.8324V16H39.6892V12.071C39.6892 11.6335 39.5755 11.2912 39.3483 11.044C39.1238 10.7969 38.8128 10.6733 38.415 10.6733C38.1452 10.6733 37.9051 10.733 37.6949 10.8523C37.4875 10.9687 37.3241 11.1378 37.2048 11.3594C37.0883 11.581 37.0301 11.8494 37.0301 12.1648ZM45.2269 16.1151C44.7127 16.1151 44.2525 15.983 43.8462 15.7188C43.44 15.4545 43.119 15.071 42.8832 14.5682C42.6474 14.0653 42.5295 13.4545 42.5295 12.7358C42.5295 12.0085 42.6488 11.3949 42.8874 10.8949C43.1289 10.392 43.4542 10.0128 43.8633 9.7571C44.2724 9.49858 44.7283 9.36932 45.2312 9.36932C45.6147 9.36932 45.93 9.43466 46.1772 9.56534C46.4244 9.69318 46.6204 9.84801 46.7653 10.0298C46.9102 10.2088 47.0224 10.3778 47.1019 10.5369H47.1658V7.27273H48.7127V16H47.1957V14.9688H47.1019C47.0224 15.1278 46.9073 15.2969 46.7567 15.4759C46.6062 15.652 46.4073 15.8026 46.1602 15.9276C45.913 16.0526 45.6019 16.1151 45.2269 16.1151ZM45.6573 14.8494C45.984 14.8494 46.2624 14.7614 46.4925 14.5852C46.7227 14.4062 46.8974 14.1577 47.0167 13.8395C47.136 13.5213 47.1957 13.1506 47.1957 12.7273C47.1957 12.304 47.136 11.9361 47.0167 11.6236C46.9002 11.3111 46.7269 11.0682 46.4968 10.8949C46.2695 10.7216 45.9897 10.6349 45.6573 10.6349C45.3136 10.6349 45.0266 10.7244 44.7965 10.9034C44.5664 11.0824 44.3931 11.3295 44.2766 11.6449C44.1602 11.9602 44.1019 12.321 44.1019 12.7273C44.1019 13.1364 44.1602 13.5014 44.2766 13.8224C44.396 14.1406 44.5707 14.392 44.8008 14.5767C45.0337 14.7585 45.3192 14.8494 45.6573 14.8494ZM52.238 16.1321C51.8232 16.1321 51.4497 16.0582 51.1173 15.9105C50.7877 15.7599 50.5264 15.5384 50.3332 15.2457C50.1428 14.9531 50.0477 14.5923 50.0477 14.1634C50.0477 13.794 50.1159 13.4886 50.2522 13.2472C50.3886 13.0057 50.5747 12.8125 50.8105 12.6676C51.0463 12.5227 51.3119 12.4134 51.6073 12.3395C51.9056 12.2628 52.2139 12.2074 52.5321 12.1733C52.9156 12.1335 53.2267 12.098 53.4653 12.0668C53.7039 12.0327 53.8772 11.9815 53.9852 11.9134C54.096 11.8423 54.1514 11.733 54.1514 11.5852V11.5597C54.1514 11.2386 54.0562 10.9901 53.8659 10.8139C53.6755 10.6378 53.4014 10.5497 53.0434 10.5497C52.6656 10.5497 52.3659 10.6321 52.1443 10.7969C51.9255 10.9616 51.7778 11.1562 51.7011 11.3807L50.2607 11.1761C50.3744 10.7784 50.5619 10.446 50.8232 10.179C51.0846 9.90909 51.4042 9.70739 51.7821 9.57386C52.1599 9.4375 52.5775 9.36932 53.0349 9.36932C53.3502 9.36932 53.6642 9.40625 53.9767 9.48011C54.2892 9.55398 54.5747 9.67614 54.8332 9.84659C55.0917 10.0142 55.2991 10.2429 55.4553 10.5327C55.6144 10.8224 55.694 11.1847 55.694 11.6193V16H54.211V15.1009H54.1599C54.0661 15.2827 53.934 15.4531 53.7636 15.6122C53.596 15.7685 53.3843 15.8949 53.1286 15.9915C52.8758 16.0852 52.5789 16.1321 52.238 16.1321ZM52.6386 14.9986C52.9482 14.9986 53.2167 14.9375 53.444 14.8153C53.6713 14.6903 53.846 14.5256 53.9681 14.321C54.0931 14.1165 54.1556 13.8935 54.1556 13.652V12.8807C54.1073 12.9205 54.025 12.9574 53.9085 12.9915C53.7948 13.0256 53.667 13.0554 53.525 13.081C53.3829 13.1065 53.2423 13.1293 53.1031 13.1491C52.9639 13.169 52.8431 13.1861 52.7409 13.2003C52.5107 13.2315 52.3048 13.2827 52.123 13.3537C51.9411 13.4247 51.7977 13.5241 51.6926 13.652C51.5875 13.777 51.5349 13.9389 51.5349 14.1378C51.5349 14.4219 51.6386 14.6364 51.846 14.7812C52.0534 14.9261 52.3176 14.9986 52.6386 14.9986ZM62.4164 11.1847L61.0101 11.3381C60.9704 11.196 60.9008 11.0625 60.8013 10.9375C60.7047 10.8125 60.574 10.7116 60.4093 10.6349C60.2445 10.5582 60.0428 10.5199 59.8042 10.5199C59.4831 10.5199 59.2133 10.5895 58.9945 10.7287C58.7786 10.8679 58.6721 11.0483 58.6749 11.2699C58.6721 11.4602 58.7417 11.6151 58.8837 11.7344C59.0286 11.8537 59.2672 11.9517 59.5996 12.0284L60.7161 12.267C61.3354 12.4006 61.7956 12.6122 62.0968 12.902C62.4008 13.1918 62.5542 13.571 62.557 14.0398C62.5542 14.4517 62.4334 14.8153 62.1948 15.1307C61.959 15.4432 61.6309 15.6875 61.2104 15.8636C60.79 16.0398 60.307 16.1278 59.7615 16.1278C58.9604 16.1278 58.3155 15.9602 57.8269 15.625C57.3383 15.2869 57.0471 14.8168 56.9533 14.2145L58.4576 14.0696C58.5258 14.3651 58.6706 14.5881 58.8922 14.7386C59.1138 14.8892 59.4022 14.9645 59.7573 14.9645C60.1238 14.9645 60.4178 14.8892 60.6394 14.7386C60.8638 14.5881 60.976 14.402 60.976 14.1804C60.976 13.9929 60.9036 13.8381 60.7587 13.7159C60.6167 13.5937 60.3951 13.5 60.0939 13.4347L58.9775 13.2003C58.3496 13.0696 57.8851 12.8494 57.584 12.5398C57.2829 12.2273 57.1337 11.8324 57.1365 11.3551C57.1337 10.9517 57.2431 10.6023 57.4647 10.3068C57.6891 10.0085 58.0002 9.77841 58.3979 9.61648C58.7985 9.4517 59.2601 9.36932 59.7829 9.36932C60.5499 9.36932 61.1536 9.53267 61.5939 9.85938C62.0371 10.1861 62.3113 10.6278 62.4164 11.1847Z"
        fill="white" />
</svg>