<svg width="8px" height="13px" viewBox="0 0 8 13" version="1.1" xmlns="http://www.w3.org/2000/svg" xmlns:xlink="http://www.w3.org/1999/xlink">
        <g stroke="none" stroke-width="1" fill="none" fill-rule="evenodd">
        <g id="pandas" transform="translate(0.000000, 0.812500)" fill="#FFFFFF" fill-rule="nonzero">
            <polygon id="Path" points="3.2396875 0.67239375 1.996575 0.67239375 1.996575 3.2536175 3.2396875 3.2536175"></polygon>
            <polygon id="Path" points="3.2396875 5.974675 1.996575 5.974675 1.996575 8.555925 3.2396875 8.555925"></polygon>
            <polygon id="Path" points="3.2396875 4.0070625 1.996575 4.0070625 1.996575 5.2248875 3.2396875 5.2248875"></polygon>
            <polygon id="Path" points="1.24313 2.794855 0 2.794855 0 11.375 1.24313 11.375"></polygon>
            <polygon id="Path" points="5.1954875 8.1043375 3.952375 8.1043375 3.952375 10.6855875 5.1954875 10.6855875"></polygon>
            <polygon id="Path" points="5.1954875 2.7979525 3.952375 2.7979525 3.952375 5.37915 5.1954875 5.37915"></polygon>
            <polygon id="Path" points="5.1954875 6.1326125 3.952375 6.1326125 3.952375 7.3504375 5.1954875 7.3504375"></polygon>
            <polygon id="Path" points="7.150675 0 5.9075625 0 5.9075625 8.5801625 7.150675 8.5801625"></polygon>
        </g>
    </g>
</svg>