<svg width="66" height="24" viewBox="8 0 66 24" fill="none" xmlns="http://www.w3.org/2000/svg">
    <path fill-rule="evenodd" clip-rule="evenodd"
        d="M11.4673 18.3737C10.91 18.1179 10.581 17.5241 10.6548 16.9077L11.0302 13.7743L8.86476 12.8655C8.32224 12.6378 7.97737 12.0905 8.00116 11.4949C8.02495 10.8993 8.41234 10.3821 8.97125 10.1998L11.6506 9.32575L12.1067 6.67619C12.2058 6.10086 12.6415 5.64569 13.2051 5.52881C13.7686 5.41193 14.3452 5.65715 14.6585 6.14696L15.876 8.0503L18.4451 7.39043C19.0308 7.23999 19.6454 7.48823 19.9694 8.00602C20.2933 8.52382 20.2533 9.19424 19.8703 9.6686L18.0321 11.945L19.0949 14.0423C19.3462 14.538 19.2886 15.1372 18.9477 15.5743C18.6069 16.0114 18.0457 16.2057 17.5128 16.071L15.2963 15.511L13.0881 18.0249C12.681 18.4883 12.0246 18.6296 11.4673 18.3737ZM14.8144 13.9251L17.8507 14.6923L16.3675 11.7656L18.7882 8.7678L15.2481 9.67708L13.4851 6.92082L12.8834 10.4159L9.39926 11.5525L12.5476 12.8738L12.0438 17.0792L14.8144 13.9251Z"
        fill="white" />
    <path
        d="M25.3493 16V7.27273H28.6221C29.2925 7.27273 29.855 7.39773 30.3096 7.64773C30.767 7.89773 31.1121 8.24148 31.3451 8.67898C31.5809 9.11364 31.6988 9.60795 31.6988 10.1619C31.6988 10.7216 31.5809 11.2187 31.3451 11.6534C31.1093 12.0881 30.7613 12.4304 30.301 12.6804C29.8408 12.9276 29.2741 13.0511 28.6008 13.0511H26.4317V11.7514H28.3877C28.7797 11.7514 29.1008 11.6832 29.3508 11.5469C29.6008 11.4105 29.7854 11.223 29.9047 10.9844C30.0269 10.7457 30.088 10.4716 30.088 10.1619C30.088 9.85227 30.0269 9.57955 29.9047 9.34375C29.7854 9.10795 29.5993 8.92472 29.3465 8.79403C29.0965 8.66051 28.7741 8.59375 28.3792 8.59375H26.9303V16H25.3493ZM33.9606 18.4545C33.7504 18.4545 33.5557 18.4375 33.3768 18.4034C33.2006 18.3722 33.06 18.3352 32.9549 18.2926L33.3129 17.0909C33.5373 17.1563 33.7376 17.1875 33.9137 17.1847C34.0898 17.1818 34.2447 17.1264 34.3782 17.0185C34.5146 16.9134 34.6296 16.7372 34.7234 16.4901L34.8555 16.1364L32.4819 9.45455H34.1182L35.6268 14.3977H35.695L37.2077 9.45455H38.8484L36.2276 16.7926C36.1055 17.1392 35.9435 17.4361 35.7418 17.6832C35.5401 17.9332 35.293 18.1236 35.0004 18.2543C34.7106 18.3878 34.364 18.4545 33.9606 18.4545ZM44.7249 9.67188C44.6851 9.29972 44.5175 9.00994 44.222 8.80256C43.9294 8.59517 43.5487 8.49148 43.08 8.49148C42.7504 8.49148 42.4678 8.54119 42.232 8.64062C41.9962 8.74006 41.8158 8.875 41.6908 9.04545C41.5658 9.21591 41.5019 9.41051 41.499 9.62926C41.499 9.81108 41.5402 9.96875 41.6226 10.1023C41.7078 10.2358 41.8229 10.3494 41.9678 10.4432C42.1127 10.5341 42.2732 10.6108 42.4493 10.6733C42.6254 10.7358 42.803 10.7884 42.982 10.831L43.8002 11.0355C44.1297 11.1122 44.4465 11.2159 44.7504 11.3466C45.0573 11.4773 45.3314 11.642 45.5729 11.8409C45.8172 12.0398 46.0104 12.2798 46.1524 12.5611C46.2945 12.8423 46.3655 13.1719 46.3655 13.5497C46.3655 14.0611 46.2348 14.5114 45.9735 14.9006C45.7121 15.2869 45.3342 15.5895 44.8399 15.8082C44.3485 16.0241 43.7533 16.1321 43.0544 16.1321C42.3754 16.1321 41.786 16.027 41.286 15.8168C40.7888 15.6065 40.3996 15.2997 40.1183 14.8963C39.8399 14.4929 39.6894 14.0014 39.6666 13.4219H41.222C41.2448 13.7259 41.3385 13.9787 41.5033 14.1804C41.6681 14.3821 41.8825 14.5327 42.1467 14.6321C42.4138 14.7315 42.7121 14.7812 43.0416 14.7812C43.3854 14.7812 43.6865 14.7301 43.945 14.6278C44.2064 14.5227 44.411 14.3778 44.5587 14.1932C44.7064 14.0057 44.7817 13.7869 44.7845 13.5369C44.7817 13.3097 44.7149 13.1222 44.5842 12.9744C44.4536 12.8239 44.2703 12.6989 44.0345 12.5994C43.8016 12.4972 43.5289 12.4062 43.2164 12.3267L42.2235 12.071C41.5047 11.8864 40.9365 11.6065 40.5189 11.2315C40.1041 10.8537 39.8967 10.3523 39.8967 9.72727C39.8967 9.21307 40.036 8.76278 40.3144 8.37642C40.5956 7.99006 40.9777 7.69034 41.4607 7.47727C41.9436 7.26136 42.4905 7.15341 43.1013 7.15341C43.7206 7.15341 44.2632 7.26136 44.7291 7.47727C45.1979 7.69034 45.5658 7.98722 45.8328 8.3679C46.0999 8.74574 46.2377 9.1804 46.2462 9.67188H44.7249ZM47.7047 18.4545V9.45455H49.2218V10.5369H49.3113C49.3908 10.3778 49.503 10.2088 49.6479 10.0298C49.7928 9.84801 49.9888 9.69318 50.236 9.56534C50.4831 9.43466 50.7985 9.36932 51.182 9.36932C51.6877 9.36932 52.1436 9.49858 52.5499 9.7571C52.959 10.0128 53.2828 10.392 53.5215 10.8949C53.763 11.3949 53.8837 12.0085 53.8837 12.7358C53.8837 13.4545 53.7658 14.0653 53.53 14.5682C53.2942 15.071 52.9732 15.4545 52.5669 15.7188C52.1607 15.983 51.7005 16.1151 51.1863 16.1151C50.8113 16.1151 50.5002 16.0526 50.253 15.9276C50.0059 15.8026 49.807 15.652 49.6564 15.4759C49.5087 15.2969 49.3936 15.1278 49.3113 14.9688H49.2473V18.4545H47.7047ZM49.2175 12.7273C49.2175 13.1506 49.2772 13.5213 49.3965 13.8395C49.5186 14.1577 49.6934 14.4062 49.9206 14.5852C50.1507 14.7614 50.4292 14.8494 50.7559 14.8494C51.0968 14.8494 51.3823 14.7585 51.6124 14.5767C51.8425 14.392 52.0158 14.1406 52.1323 13.8224C52.2516 13.5014 52.3113 13.1364 52.3113 12.7273C52.3113 12.321 52.253 11.9602 52.1365 11.6449C52.0201 11.3295 51.8468 11.0824 51.6167 10.9034C51.3865 10.7244 51.0996 10.6349 50.7559 10.6349C50.4263 10.6349 50.1465 10.7216 49.9164 10.8949C49.6863 11.0682 49.5115 11.3111 49.3922 11.6236C49.2757 11.9361 49.2175 12.304 49.2175 12.7273ZM57.0862 16.1321C56.6714 16.1321 56.2979 16.0582 55.9655 15.9105C55.6359 15.7599 55.3746 15.5384 55.1814 15.2457C54.991 14.9531 54.8959 14.5923 54.8959 14.1634C54.8959 13.794 54.964 13.4886 55.1004 13.2472C55.2368 13.0057 55.4229 12.8125 55.6586 12.6676C55.8944 12.5227 56.1601 12.4134 56.4555 12.3395C56.7538 12.2628 57.0621 12.2074 57.3802 12.1733C57.7638 12.1335 58.0748 12.098 58.3135 12.0668C58.5521 12.0327 58.7254 11.9815 58.8334 11.9134C58.9442 11.8423 58.9996 11.733 58.9996 11.5852V11.5597C58.9996 11.2386 58.9044 10.9901 58.714 10.8139C58.5237 10.6378 58.2496 10.5497 57.8916 10.5497C57.5138 10.5497 57.214 10.6321 56.9925 10.7969C56.7737 10.9616 56.626 11.1562 56.5493 11.3807L55.1089 11.1761C55.2226 10.7784 55.4101 10.446 55.6714 10.179C55.9328 9.90909 56.2524 9.70739 56.6302 9.57386C57.0081 9.4375 57.4257 9.36932 57.8831 9.36932C58.1984 9.36932 58.5123 9.40625 58.8248 9.48011C59.1373 9.55398 59.4229 9.67614 59.6814 9.84659C59.9399 10.0142 60.1473 10.2429 60.3035 10.5327C60.4626 10.8224 60.5422 11.1847 60.5422 11.6193V16H59.0592V15.1009H59.0081C58.9143 15.2827 58.7822 15.4531 58.6118 15.6122C58.4442 15.7685 58.2325 15.8949 57.9768 15.9915C57.724 16.0852 57.4271 16.1321 57.0862 16.1321ZM57.4868 14.9986C57.7964 14.9986 58.0649 14.9375 58.2922 14.8153C58.5194 14.6903 58.6942 14.5256 58.8163 14.321C58.9413 14.1165 59.0038 13.8935 59.0038 13.652V12.8807C58.9555 12.9205 58.8731 12.9574 58.7567 12.9915C58.643 13.0256 58.5152 13.0554 58.3731 13.081C58.2311 13.1065 58.0905 13.1293 57.9513 13.1491C57.8121 13.169 57.6913 13.1861 57.589 13.2003C57.3589 13.2315 57.153 13.2827 56.9711 13.3537C56.7893 13.4247 56.6459 13.5241 56.5408 13.652C56.4356 13.777 56.3831 13.9389 56.3831 14.1378C56.3831 14.4219 56.4868 14.6364 56.6942 14.7812C56.9015 14.9261 57.1658 14.9986 57.4868 14.9986ZM62.0913 16V9.45455H63.587V10.5455H63.6552C63.7745 10.1676 63.9791 9.87642 64.2688 9.67188C64.5614 9.46449 64.8952 9.3608 65.2702 9.3608C65.3555 9.3608 65.4506 9.36506 65.5558 9.37358C65.6637 9.37926 65.7532 9.3892 65.8242 9.40341V10.8224C65.7589 10.7997 65.6552 10.7798 65.5131 10.7628C65.3739 10.7429 65.239 10.733 65.1083 10.733C64.8271 10.733 64.5742 10.794 64.3498 10.9162C64.1282 11.0355 63.9535 11.2017 63.8256 11.4148C63.6978 11.6278 63.6339 11.8736 63.6339 12.152V16H62.0913ZM68.2533 13.946L68.249 12.0838H68.4962L70.8485 9.45455H72.651L69.7576 12.6761H69.438L68.2533 13.946ZM66.847 16V7.27273H68.3897V16H66.847ZM70.955 16L68.8243 13.0213L69.8641 11.9347L72.8002 16H70.955Z"
        fill="white" />
</svg>