<svg width="14px" height="14px" viewBox="0 0 10 10" version="1.1" xmlns="http://www.w3.org/2000/svg" xmlns:xlink="http://www.w3.org/1999/xlink">
        <g stroke="none" stroke-width="1" fill="none" fill-rule="evenodd">
        <g id="pyspark" transform="translate(0.600002, 0.850000)" fill="#FFFFFF">
            <path d="M2.42710804,9.01158979 C2.03699804,8.83252979 1.80669804,8.41686979 1.85835804,7.98538979 L2.12113804,5.79200979 L0.605330043,5.15584979 C0.225566043,4.99645979 -0.0158429571,4.61334979 0.000810042941,4.19642979 C0.0174630429,3.77950979 0.288636043,3.41746979 0.679873043,3.28985979 L2.55541804,2.67802479 L2.87468804,0.823332793 C2.94405804,0.420601793 3.24904804,0.101982793 3.64356804,0.020166793 C4.03801804,-0.061649207 4.44163804,0.110004793 4.66094804,0.452871793 L5.51319804,1.78520979 L7.31156804,1.32330079 C7.72155804,1.21799279 8.15177804,1.39176079 8.37857804,1.75421379 C8.60530804,2.11667379 8.57730804,2.58596779 8.30920804,2.91801979 L7.02246804,4.51149979 L7.76642804,5.97960979 C7.94233804,6.32659979 7.90201804,6.74603979 7.66338804,7.05200979 C7.42482804,7.35797979 7.03198804,7.49398979 6.65895804,7.39969979 L5.10740804,7.00769979 L3.56166804,8.76742979 C3.27669804,9.09180979 2.81721804,9.19071979 2.42710804,9.01158979 Z M4.77007804,5.89756979 L6.89548804,6.43460979 L5.85724804,4.38591979 L7.55173804,2.28745979 L5.07366804,2.92395579 L3.83956804,0.994573793 L3.41837804,3.44112979 L0.979480043,4.23674979 L3.18331804,5.16165979 L2.83065804,8.10543979 L4.77007804,5.89756979 Z" id="Shape"></path>
        </g>
    </g>
</svg>