<svg width="73" height="24" viewBox="0 0 73 24" fill="none" xmlns="http://www.w3.org/2000/svg">
<rect width="72.6621" height="24" rx="8" fill="#35668F"/>
<path d="M14.4121 5.5C11.1329 5.5 11.3376 6.91889 11.3376 6.91889L11.3413 8.38885H14.4705V8.8302H10.0984C10.0984 8.8302 8 8.59276 8 11.8941C8 15.1955 9.83149 15.0784 9.83149 15.0784H10.9245V13.5465C10.9245 13.5465 10.8656 11.7191 12.7268 11.7191C14.5879 11.7191 15.8305 11.7191 15.8305 11.7191C15.8305 11.7191 17.5742 11.7472 17.5742 10.0375C17.5742 8.3279 17.5742 7.2107 17.5742 7.2107C17.5742 7.2107 17.839 5.5 14.412 5.5H14.4121ZM12.6866 6.48848C12.9979 6.48848 13.2496 6.73956 13.2496 7.0502C13.2496 7.36085 12.9979 7.61192 12.6866 7.61192C12.3752 7.61192 12.1236 7.36085 12.1236 7.0502C12.1236 6.73956 12.3752 6.48848 12.6866 6.48848V6.48848Z" fill="white"/>
<path d="M14.588 18.5C17.8672 18.5 17.6625 17.0811 17.6625 17.0811L17.6588 15.6111H14.5295V15.1698H18.9017C18.9017 15.1698 21.0001 15.4072 21.0001 12.1058C21.0001 8.80446 19.1686 8.92153 19.1686 8.92153H18.0756V10.4535C18.0756 10.4535 18.1345 12.2809 16.2733 12.2809C14.4121 12.2809 13.1696 12.2809 13.1696 12.2809C13.1696 12.2809 11.4259 12.2528 11.4259 13.9624C11.4259 15.6721 11.4259 16.7893 11.4259 16.7893C11.4259 16.7893 11.1611 18.5 14.588 18.5H14.588ZM16.3135 17.5115C16.0022 17.5115 15.7505 17.2604 15.7505 16.9498C15.7505 16.6391 16.0022 16.388 16.3135 16.388C16.6249 16.388 16.8765 16.6391 16.8765 16.9498C16.8765 17.2604 16.6249 17.5115 16.3135 17.5115Z" fill="white"/>
<path d="M25 15.1363V6.40906H28.2727C28.9432 6.40906 29.5057 6.53406 29.9602 6.78406C30.4176 7.03406 30.7628 7.37781 30.9957 7.81531C31.2315 8.24997 31.3494 8.74429 31.3494 9.29826C31.3494 9.85792 31.2315 10.3551 30.9957 10.7897C30.7599 11.2244 30.4119 11.5667 29.9517 11.8167C29.4915 12.0639 28.9247 12.1875 28.2514 12.1875H26.0824V10.8878H28.0384C28.4304 10.8878 28.7514 10.8196 29.0014 10.6832C29.2514 10.5468 29.4361 10.3593 29.5554 10.1207C29.6776 9.88207 29.7386 9.60792 29.7386 9.29826C29.7386 8.9886 29.6776 8.71588 29.5554 8.48008C29.4361 8.24429 29.25 8.06105 28.9972 7.93036C28.7472 7.79684 28.4247 7.73008 28.0298 7.73008H26.581V15.1363H25Z" fill="white"/>
<path d="M33.6112 17.5909C33.401 17.5909 33.2064 17.5738 33.0274 17.5397C32.8513 17.5085 32.7107 17.4716 32.6056 17.4289L32.9635 16.2272C33.1879 16.2926 33.3882 16.3238 33.5644 16.321C33.7405 16.3181 33.8953 16.2628 34.0289 16.1548C34.1652 16.0497 34.2803 15.8735 34.374 15.6264L34.5061 15.2727L32.1325 8.59088H33.7689L35.2774 13.5341H35.3456L36.8584 8.59088H38.499L35.8783 15.9289C35.7561 16.2755 35.5942 16.5724 35.3925 16.8196C35.1908 17.0696 34.9436 17.2599 34.651 17.3906C34.3612 17.5241 34.0146 17.5909 33.6112 17.5909Z" fill="white"/>
<path d="M42.8329 8.59088V9.78406H39.0701V8.59088H42.8329ZM39.9991 7.02269H41.5417V13.1676C41.5417 13.375 41.573 13.5341 41.6355 13.6449C41.7008 13.7528 41.786 13.8267 41.8912 13.8664C41.9963 13.9062 42.1128 13.9261 42.2406 13.9261C42.3372 13.9261 42.4253 13.919 42.5048 13.9048C42.5872 13.8906 42.6497 13.8778 42.6923 13.8664L42.9522 15.0724C42.8699 15.1008 42.752 15.1321 42.5985 15.1662C42.448 15.2003 42.2633 15.2201 42.0446 15.2258C41.6582 15.2372 41.3102 15.1789 41.0005 15.0511C40.6909 14.9204 40.4451 14.7187 40.2633 14.446C40.0843 14.1733 39.9963 13.8324 39.9991 13.4233V7.02269Z" fill="white"/>
<path d="M45.8042 11.3011V15.1363H44.2616V6.40906H45.7702V9.70309H45.8469C46.0003 9.33377 46.2375 9.04258 46.5585 8.82951C46.8824 8.6136 47.2943 8.50565 47.7943 8.50565C48.2489 8.50565 48.6452 8.60082 48.9832 8.79116C49.3213 8.9815 49.5827 9.25991 49.7673 9.62639C49.9548 9.99286 50.0486 10.4403 50.0486 10.9687V15.1363H48.506V11.2074C48.506 10.767 48.3923 10.4247 48.165 10.1804C47.9406 9.93321 47.6253 9.80963 47.219 9.80963C46.9463 9.80963 46.702 9.86928 46.4861 9.9886C46.273 10.1051 46.1054 10.2741 45.9832 10.4957C45.8639 10.7173 45.8042 10.9858 45.8042 11.3011Z" fill="white"/>
<path d="M54.4741 15.2642C53.8349 15.2642 53.2809 15.1235 52.8122 14.8423C52.3434 14.561 51.9798 14.1676 51.7212 13.6619C51.4656 13.1562 51.3377 12.5653 51.3377 11.8892C51.3377 11.213 51.4656 10.6207 51.7212 10.1122C51.9798 9.60366 52.3434 9.20877 52.8122 8.92752C53.2809 8.64627 53.8349 8.50565 54.4741 8.50565C55.1133 8.50565 55.6673 8.64627 56.136 8.92752C56.6048 9.20877 56.967 9.60366 57.2227 10.1122C57.4812 10.6207 57.6105 11.213 57.6105 11.8892C57.6105 12.5653 57.4812 13.1562 57.2227 13.6619C56.967 14.1676 56.6048 14.561 56.136 14.8423C55.6673 15.1235 55.1133 15.2642 54.4741 15.2642ZM54.4826 14.0284C54.8292 14.0284 55.119 13.9332 55.3519 13.7429C55.5849 13.5497 55.7582 13.2912 55.8718 12.9673C55.9883 12.6434 56.0465 12.2826 56.0465 11.8849C56.0465 11.4843 55.9883 11.1221 55.8718 10.7983C55.7582 10.4716 55.5849 10.2116 55.3519 10.0184C55.119 9.82525 54.8292 9.72866 54.4826 9.72866C54.1275 9.72866 53.832 9.82525 53.5962 10.0184C53.3633 10.2116 53.1886 10.4716 53.0721 10.7983C52.9585 11.1221 52.9016 11.4843 52.9016 11.8849C52.9016 12.2826 52.9585 12.6434 53.0721 12.9673C53.1886 13.2912 53.3633 13.5497 53.5962 13.7429C53.832 13.9332 54.1275 14.0284 54.4826 14.0284Z" fill="white"/>
<path d="M60.4603 11.3011V15.1363H58.9177V8.59088H60.3921V9.70309H60.4688C60.6194 9.33661 60.8595 9.04542 61.189 8.82951C61.5214 8.6136 61.9319 8.50565 62.4206 8.50565C62.8723 8.50565 63.2657 8.60224 63.601 8.79542C63.939 8.9886 64.2004 9.26843 64.385 9.63491C64.5725 10.0014 64.6649 10.446 64.662 10.9687V15.1363H63.1194V11.2074C63.1194 10.7699 63.0058 10.4275 62.7785 10.1804C62.5541 9.93321 62.243 9.80963 61.8453 9.80963C61.5754 9.80963 61.3353 9.86928 61.1251 9.9886C60.9177 10.1051 60.7544 10.2741 60.635 10.4957C60.5186 10.7173 60.4603 10.9858 60.4603 11.3011Z" fill="white"/>
</svg>
