<svg width="58" height="13" viewBox="0 0 58 13" fill="none" xmlns="http://www.w3.org/2000/svg">
<path d="M7.13129 0C3.8521 0 4.05687 1.41889 4.05687 1.41889L4.06052 2.88885H7.18978V3.3302H2.81759C2.81759 3.3302 0.719238 3.09276 0.719238 6.39413C0.719238 9.69551 2.55073 9.57843 2.55073 9.57843H3.64378V8.04647C3.64378 8.04647 3.58486 6.21905 5.44602 6.21905C7.30719 6.21905 8.54969 6.21905 8.54969 6.21905C8.54969 6.21905 10.2934 6.24718 10.2934 4.53754C10.2934 2.8279 10.2934 1.7107 10.2934 1.7107C10.2934 1.7107 10.5582 0 7.13129 0L7.13129 0ZM5.40582 0.988483C5.71715 0.988483 5.96879 1.23956 5.96879 1.5502C5.96879 1.86085 5.71715 2.11192 5.40582 2.11192C5.09448 2.11192 4.84284 1.86085 4.84284 1.5502C4.84284 1.23956 5.09448 0.988483 5.40582 0.988483V0.988483Z" fill="white"/>
<path d="M7.30728 13C10.5865 13 10.3817 11.5811 10.3817 11.5811L10.378 10.1111H7.24879V9.66977H11.621C11.621 9.66977 13.7193 9.90721 13.7193 6.60583C13.7193 3.30446 11.8878 3.42153 11.8878 3.42153H10.7948V4.9535C10.7948 4.9535 10.8537 6.78091 8.99254 6.78091C7.13138 6.78091 5.88888 6.78091 5.88888 6.78091C5.88888 6.78091 4.14512 6.75279 4.14512 8.46243C4.14512 10.1721 4.14512 11.2893 4.14512 11.2893C4.14512 11.2893 3.88037 13 7.30728 13H7.30728ZM9.03275 12.0115C8.72141 12.0115 8.46978 11.7604 8.46978 11.4498C8.46978 11.1391 8.72141 10.888 9.03275 10.888C9.34409 10.888 9.59573 11.1391 9.59573 11.4498C9.59573 11.7604 9.34409 12.0115 9.03275 12.0115Z" fill="white"/>
<path d="M17.7192 9.63633V0.909058H20.992C21.6624 0.909058 22.2249 1.03406 22.6795 1.28406C23.1369 1.53406 23.482 1.87781 23.715 2.31531C23.9508 2.74997 24.0687 3.24429 24.0687 3.79826C24.0687 4.35792 23.9508 4.85508 23.715 5.28974C23.4792 5.7244 23.1312 6.06673 22.6709 6.31673C22.2107 6.56389 21.644 6.68747 20.9707 6.68747H18.8016V5.38775H20.7576C21.1496 5.38775 21.4707 5.31957 21.7207 5.18321C21.9707 5.04684 22.1553 4.85934 22.2746 4.62071C22.3968 4.38207 22.4579 4.10792 22.4579 3.79826C22.4579 3.4886 22.3968 3.21588 22.2746 2.98008C22.1553 2.74429 21.9692 2.56105 21.7164 2.43036C21.4664 2.29684 21.144 2.23008 20.7491 2.23008H19.3002V9.63633H17.7192Z" fill="white"/>
<path d="M26.3305 12.0909C26.1203 12.0909 25.9257 12.0738 25.7467 12.0397C25.5705 12.0085 25.4299 11.9716 25.3248 11.9289L25.6828 10.7272C25.9072 10.7926 26.1075 10.8238 26.2836 10.821C26.4597 10.8181 26.6146 10.7628 26.7481 10.6548C26.8845 10.5497 26.9995 10.3735 27.0933 10.1264L27.2254 9.77269L24.8518 3.09088H26.4881L27.9967 8.03406H28.0649L29.5776 3.09088H31.2183L28.5975 10.4289C28.4754 10.7755 28.3134 11.0724 28.1117 11.3196C27.91 11.5696 27.6629 11.7599 27.3703 11.8906C27.0805 12.0241 26.7339 12.0909 26.3305 12.0909Z" fill="white"/>
<path d="M35.5522 3.09088V4.28406H31.7894V3.09088H35.5522ZM32.7184 1.52269H34.261V7.66758C34.261 7.87497 34.2922 8.03406 34.3547 8.14485C34.4201 8.25281 34.5053 8.32667 34.6104 8.36644C34.7155 8.40622 34.832 8.4261 34.9598 8.4261C35.0564 8.4261 35.1445 8.419 35.224 8.4048C35.3064 8.39059 35.3689 8.37781 35.4115 8.36644L35.6715 9.57241C35.5891 9.60082 35.4712 9.63207 35.3178 9.66616C35.1672 9.70025 34.9826 9.72014 34.7638 9.72582C34.3774 9.73718 34.0294 9.67894 33.7198 9.5511C33.4101 9.42042 33.1644 9.21872 32.9826 8.94599C32.8036 8.67326 32.7155 8.33235 32.7184 7.92326V1.52269Z" fill="white"/>
<path d="M38.5235 5.8011V9.63633H36.9809V0.909058H38.4894V4.20309H38.5661C38.7195 3.83377 38.9567 3.54258 39.2777 3.32951C39.6016 3.1136 40.0135 3.00565 40.5135 3.00565C40.9681 3.00565 41.3644 3.10082 41.7025 3.29116C42.0405 3.4815 42.3019 3.75991 42.4866 4.12639C42.6741 4.49286 42.7678 4.94031 42.7678 5.46872V9.63633H41.2252V5.70735C41.2252 5.26701 41.1116 4.92468 40.8843 4.68036C40.6599 4.43321 40.3445 4.30963 39.9383 4.30963C39.6655 4.30963 39.4212 4.36928 39.2053 4.4886C38.9922 4.60508 38.8246 4.77411 38.7025 4.99571C38.5831 5.2173 38.5235 5.48576 38.5235 5.8011Z" fill="white"/>
<path d="M47.1933 9.76417C46.5541 9.76417 46.0001 9.62355 45.5314 9.3423C45.0626 9.06105 44.699 8.66758 44.4405 8.1619C44.1848 7.65622 44.057 7.06531 44.057 6.38917C44.057 5.71304 44.1848 5.12071 44.4405 4.61218C44.699 4.10366 45.0626 3.70877 45.5314 3.42752C46.0001 3.14627 46.5541 3.00565 47.1933 3.00565C47.8325 3.00565 48.3865 3.14627 48.8553 3.42752C49.324 3.70877 49.6862 4.10366 49.9419 4.61218C50.2004 5.12071 50.3297 5.71304 50.3297 6.38917C50.3297 7.06531 50.2004 7.65622 49.9419 8.1619C49.6862 8.66758 49.324 9.06105 48.8553 9.3423C48.3865 9.62355 47.8325 9.76417 47.1933 9.76417ZM47.2018 8.52838C47.5484 8.52838 47.8382 8.43321 48.0712 8.24286C48.3041 8.04968 48.4774 7.79116 48.5911 7.4673C48.7075 7.14343 48.7658 6.78264 48.7658 6.38491C48.7658 5.98434 48.7075 5.62213 48.5911 5.29826C48.4774 4.97156 48.3041 4.71161 48.0712 4.51843C47.8382 4.32525 47.5484 4.22866 47.2018 4.22866C46.8467 4.22866 46.5513 4.32525 46.3155 4.51843C46.0825 4.71161 45.9078 4.97156 45.7913 5.29826C45.6777 5.62213 45.6209 5.98434 45.6209 6.38491C45.6209 6.78264 45.6777 7.14343 45.7913 7.4673C45.9078 7.79116 46.0825 8.04968 46.3155 8.24286C46.5513 8.43321 46.8467 8.52838 47.2018 8.52838Z" fill="white"/>
<path d="M53.1796 5.8011V9.63633H51.637V3.09088H53.1114V4.20309H53.1881C53.3387 3.83661 53.5787 3.54542 53.9083 3.32951C54.2406 3.1136 54.6512 3.00565 55.1398 3.00565C55.5915 3.00565 55.985 3.10224 56.3202 3.29542C56.6583 3.4886 56.9196 3.76843 57.1043 4.13491C57.2918 4.50139 57.3841 4.94599 57.3813 5.46872V9.63633H55.8387V5.70735C55.8387 5.26985 55.725 4.92752 55.4977 4.68036C55.2733 4.43321 54.9622 4.30963 54.5645 4.30963C54.2946 4.30963 54.0546 4.36928 53.8443 4.4886C53.637 4.60508 53.4736 4.77411 53.3543 4.99571C53.2378 5.2173 53.1796 5.48576 53.1796 5.8011Z" fill="white"/>
</svg>
