<svg width="63" height="24" viewBox="8 0 63 24" fill="none" xmlns="http://www.w3.org/2000/svg">
    <path
        d="M17.1704 9.28555L16.202 10.254C17.7867 11.8386 17.7867 14.3916 16.202 15.947C14.6174 17.5316 12.0643 17.5316 10.509 15.947C8.92438 14.3623 8.92438 11.8093 10.509 10.254L13.0181 7.74492L13.3702 7.39278V5.5L9.58465 9.28555C7.47178 11.3984 7.47178 14.8025 9.58465 16.9153C11.6975 19.0282 15.1016 19.0282 17.1704 16.9153C19.2833 14.7878 19.2833 11.3984 17.1704 9.28555Z"
        fill="white" />
    <path
        d="M15.9819 8.3465C15.9819 8.73547 15.6666 9.05079 15.2777 9.05079C14.8887 9.05079 14.5734 8.73547 14.5734 8.3465C14.5734 7.95752 14.8887 7.64221 15.2777 7.64221C15.6666 7.64221 15.9819 7.95752 15.9819 8.3465Z"
        fill="white" />
    <path
        d="M23.9853 16V7.27273H27.258C27.9285 7.27273 28.491 7.39773 28.9455 7.64773C29.4029 7.89773 29.7481 8.24148 29.981 8.67898C30.2168 9.11364 30.3347 9.60795 30.3347 10.1619C30.3347 10.7216 30.2168 11.2187 29.981 11.6534C29.7452 12.0881 29.3972 12.4304 28.937 12.6804C28.4768 12.9276 27.91 13.0511 27.2367 13.0511H25.0677V11.7514H27.0236C27.4157 11.7514 27.7367 11.6832 27.9867 11.5469C28.2367 11.4105 28.4214 11.223 28.5407 10.9844C28.6628 10.7457 28.7239 10.4716 28.7239 10.1619C28.7239 9.85227 28.6628 9.57955 28.5407 9.34375C28.4214 9.10795 28.2353 8.92472 27.9824 8.79403C27.7324 8.66051 27.41 8.59375 27.0151 8.59375H25.5662V16H23.9853ZM32.5965 18.4545C32.3863 18.4545 32.1917 18.4375 32.0127 18.4034C31.8366 18.3722 31.696 18.3352 31.5908 18.2926L31.9488 17.0909C32.1732 17.1563 32.3735 17.1875 32.5496 17.1847C32.7258 17.1818 32.8806 17.1264 33.0141 17.0185C33.1505 16.9134 33.2656 16.7372 33.3593 16.4901L33.4914 16.1364L31.1178 9.45455H32.7542L34.2627 14.3977H34.3309L35.8437 9.45455H37.4843L34.8636 16.7926C34.7414 17.1392 34.5795 17.4361 34.3778 17.6832C34.1761 17.9332 33.9289 18.1236 33.6363 18.2543C33.3465 18.3878 32.9999 18.4545 32.5965 18.4545ZM37.8242 8.59801V7.27273H44.7873V8.59801H42.0899V16H40.5217V8.59801H37.8242ZM47.9653 16.1278C47.3261 16.1278 46.7721 15.9872 46.3034 15.706C45.8346 15.4247 45.471 15.0312 45.2125 14.5256C44.9568 14.0199 44.8289 13.429 44.8289 12.7528C44.8289 12.0767 44.9568 11.4844 45.2125 10.9759C45.471 10.4673 45.8346 10.0724 46.3034 9.79119C46.7721 9.50994 47.3261 9.36932 47.9653 9.36932C48.6045 9.36932 49.1585 9.50994 49.6272 9.79119C50.096 10.0724 50.4582 10.4673 50.7139 10.9759C50.9724 11.4844 51.1017 12.0767 51.1017 12.7528C51.1017 13.429 50.9724 14.0199 50.7139 14.5256C50.4582 15.0312 50.096 15.4247 49.6272 15.706C49.1585 15.9872 48.6045 16.1278 47.9653 16.1278ZM47.9738 14.892C48.3204 14.892 48.6102 14.7969 48.8431 14.6065C49.0761 14.4134 49.2494 14.1548 49.363 13.831C49.4795 13.5071 49.5378 13.1463 49.5378 12.7486C49.5378 12.348 49.4795 11.9858 49.363 11.6619C49.2494 11.3352 49.0761 11.0753 48.8431 10.8821C48.6102 10.6889 48.3204 10.5923 47.9738 10.5923C47.6187 10.5923 47.3233 10.6889 47.0875 10.8821C46.8545 11.0753 46.6798 11.3352 46.5633 11.6619C46.4497 11.9858 46.3929 12.348 46.3929 12.7486C46.3929 13.1463 46.4497 13.5071 46.5633 13.831C46.6798 14.1548 46.8545 14.4134 47.0875 14.6065C47.3233 14.7969 47.6187 14.892 47.9738 14.892ZM52.4089 16V9.45455H53.9047V10.5455H53.9729C54.0922 10.1676 54.2967 9.87642 54.5865 9.67188C54.8791 9.46449 55.2129 9.3608 55.5879 9.3608C55.6731 9.3608 55.7683 9.36506 55.8734 9.37358C55.9814 9.37926 56.0709 9.3892 56.1419 9.40341V10.8224C56.0766 10.7997 55.9729 10.7798 55.8308 10.7628C55.6916 10.7429 55.5567 10.733 55.426 10.733C55.1447 10.733 54.8919 10.794 54.6675 10.9162C54.4459 11.0355 54.2712 11.2017 54.1433 11.4148C54.0155 11.6278 53.9516 11.8736 53.9516 12.152V16H52.4089ZM59.7503 16.1278C59.0969 16.1278 58.5358 15.9844 58.0671 15.6974C57.6011 15.4105 57.2418 15.0142 56.9889 14.5085C56.7389 14 56.6139 13.4148 56.6139 12.7528C56.6139 12.0881 56.7418 11.5014 56.9974 10.9929C57.2531 10.4815 57.6139 10.0838 58.0798 9.79972C58.5486 9.51278 59.1026 9.36932 59.7418 9.36932C60.273 9.36932 60.7432 9.46733 61.1523 9.66335C61.5642 9.85653 61.8923 10.1307 62.1367 10.4858C62.381 10.8381 62.5202 11.25 62.5543 11.7216H61.0798C61.0202 11.4062 60.8781 11.1435 60.6537 10.9332C60.4321 10.7202 60.1352 10.6136 59.7631 10.6136C59.4477 10.6136 59.1707 10.6989 58.9321 10.8693C58.6935 11.0369 58.5074 11.2784 58.3739 11.5938C58.2432 11.9091 58.1778 12.2869 58.1778 12.7273C58.1778 13.1733 58.2432 13.5568 58.3739 13.8778C58.5046 14.196 58.6878 14.4418 58.9236 14.6151C59.1622 14.7855 59.4421 14.8707 59.7631 14.8707C59.9903 14.8707 60.1935 14.8281 60.3724 14.7429C60.5543 14.6548 60.7063 14.5284 60.8284 14.3636C60.9506 14.1989 61.0344 13.9986 61.0798 13.7628H62.5543C62.5173 14.2259 62.381 14.6364 62.1452 14.9943C61.9094 15.3494 61.5884 15.6278 61.1821 15.8295C60.7759 16.0284 60.2986 16.1278 59.7503 16.1278ZM65.3615 12.1648V16H63.8189V7.27273H65.3274V10.5668H65.4041C65.5576 10.1974 65.7948 9.90625 66.1158 9.69318C66.4397 9.47727 66.8516 9.36932 67.3516 9.36932C67.8061 9.36932 68.2024 9.46449 68.5405 9.65483C68.8786 9.84517 69.1399 10.1236 69.3246 10.4901C69.5121 10.8565 69.6059 11.304 69.6059 11.8324V16H68.0632V12.071C68.0632 11.6307 67.9496 11.2884 67.7223 11.044C67.4979 10.7969 67.1826 10.6733 66.7763 10.6733C66.5036 10.6733 66.2593 10.733 66.0434 10.8523C65.8303 10.9687 65.6627 11.1378 65.5405 11.3594C65.4212 11.581 65.3615 11.8494 65.3615 12.1648Z"
        fill="white" />
</svg>