<svg width="49" height="24" viewBox="8 0 49 24" fill="none" xmlns="http://www.w3.org/2000/svg">
    <g clip-path="url(#clip0_1618_1441)">
        <path fill-rule="evenodd" clip-rule="evenodd"
            d="M12.7664 5.5C12.0478 5.50053 11.4662 6.08255 11.4667 6.79973C11.4662 7.51692 12.0483 8.09894 12.7669 8.09947H14.0671V6.80027C14.0677 6.08308 13.4855 5.50106 12.7664 5.5C12.7669 5.5 12.7669 5.5 12.7664 5.5V5.5ZM12.7664 8.96667H9.30021C8.58159 8.9672 7.99947 9.54922 8 10.2664C7.99894 10.9836 8.58106 11.5656 9.29968 11.5667H12.7664C13.485 11.5661 14.0671 10.9841 14.0666 10.2669C14.0671 9.54922 13.485 8.9672 12.7664 8.96667V8.96667Z"
            fill="white" />
        <path fill-rule="evenodd" clip-rule="evenodd"
            d="M21 10.2664C21.0005 9.54922 20.4184 8.9672 19.6998 8.96667C18.9812 8.9672 18.399 9.54922 18.3996 10.2664V11.5667H19.6998C20.4184 11.5661 21.0005 10.9841 21 10.2664ZM17.5333 10.2664V6.79973C17.5338 6.08308 16.9522 5.50106 16.2336 5.5C15.515 5.50053 14.9329 6.08255 14.9334 6.79973V10.2664C14.9323 10.9836 15.5145 11.5656 16.2331 11.5667C16.9517 11.5661 17.5338 10.9841 17.5333 10.2664Z"
            fill="white" />
        <path fill-rule="evenodd" clip-rule="evenodd"
            d="M16.2331 18.5C16.9517 18.4995 17.5338 17.9174 17.5333 17.2003C17.5338 16.4831 16.9517 15.9011 16.2331 15.9005H14.9329V17.2003C14.9323 17.9169 15.5145 18.4989 16.2331 18.5ZM16.2331 15.0328H19.6998C20.4184 15.0323 21.0005 14.4503 21 13.7331C21.0011 13.0159 20.4189 12.4339 19.7003 12.4328H16.2336C15.515 12.4333 14.9329 13.0153 14.9334 13.7325C14.9329 14.4503 15.5145 15.0323 16.2331 15.0328V15.0328Z"
            fill="white" />
        <path fill-rule="evenodd" clip-rule="evenodd"
            d="M8 13.7331C7.99947 14.4503 8.58159 15.0323 9.30021 15.0328C10.0188 15.0323 10.601 14.4503 10.6004 13.7331V12.4333H9.30021C8.58159 12.4339 7.99947 13.0159 8 13.7331ZM11.4667 13.7331V17.1997C11.4656 17.9169 12.0478 18.4989 12.7664 18.5C13.485 18.4995 14.0671 17.9175 14.0666 17.2003V13.7341C14.0677 13.0169 13.4855 12.4349 12.7669 12.4339C12.0478 12.4339 11.4662 13.0159 11.4667 13.7331C11.4667 13.7336 11.4667 13.7331 11.4667 13.7331Z"
            fill="white" />
    </g>
    <path
        d="M30.8226 9.67188C30.7828 9.29972 30.6152 9.00994 30.3198 8.80256C30.0272 8.59517 29.6465 8.49148 29.1777 8.49148C28.8482 8.49148 28.5655 8.54119 28.3297 8.64062C28.0939 8.74006 27.9135 8.875 27.7885 9.04545C27.6635 9.21591 27.5996 9.41051 27.5968 9.62926C27.5968 9.81108 27.638 9.96875 27.7203 10.1023C27.8056 10.2358 27.9206 10.3494 28.0655 10.4432C28.2104 10.5341 28.3709 10.6108 28.547 10.6733C28.7232 10.7358 28.9007 10.7884 29.0797 10.831L29.8979 11.0355C30.2274 11.1122 30.5442 11.2159 30.8482 11.3466C31.155 11.4773 31.4292 11.642 31.6706 11.8409C31.9149 12.0398 32.1081 12.2798 32.2502 12.5611C32.3922 12.8423 32.4632 13.1719 32.4632 13.5497C32.4632 14.0611 32.3326 14.5114 32.0712 14.9006C31.8098 15.2869 31.432 15.5895 30.9377 15.8082C30.4462 16.0241 29.851 16.1321 29.1522 16.1321C28.4732 16.1321 27.8837 16.027 27.3837 15.8168C26.8865 15.6065 26.4973 15.2997 26.2161 14.8963C25.9377 14.4929 25.7871 14.0014 25.7644 13.4219H27.3198C27.3425 13.7259 27.4363 13.9787 27.601 14.1804C27.7658 14.3821 27.9803 14.5327 28.2445 14.6321C28.5115 14.7315 28.8098 14.7812 29.1394 14.7812C29.4831 14.7812 29.7843 14.7301 30.0428 14.6278C30.3042 14.5227 30.5087 14.3778 30.6564 14.1932C30.8042 14.0057 30.8794 13.7869 30.8823 13.5369C30.8794 13.3097 30.8127 13.1222 30.682 12.9744C30.5513 12.8239 30.3681 12.6989 30.1323 12.5994C29.8993 12.4972 29.6266 12.4062 29.3141 12.3267L28.3212 12.071C27.6024 11.8864 27.0343 11.6065 26.6167 11.2315C26.2019 10.8537 25.9945 10.3523 25.9945 9.72727C25.9945 9.21307 26.1337 8.76278 26.4121 8.37642C26.6934 7.99006 27.0755 7.69034 27.5584 7.47727C28.0414 7.26136 28.5882 7.15341 29.199 7.15341C29.8184 7.15341 30.361 7.26136 30.8269 7.47727C31.2956 7.69034 31.6635 7.98722 31.9306 8.3679C32.1976 8.74574 32.3354 9.1804 32.3439 9.67188H30.8226ZM35.3451 7.27273V16H33.8025V7.27273H35.3451ZM38.8129 16.1321C38.3981 16.1321 38.0245 16.0582 37.6921 15.9105C37.3626 15.7599 37.1012 15.5384 36.908 15.2457C36.7177 14.9531 36.6225 14.5923 36.6225 14.1634C36.6225 13.794 36.6907 13.4886 36.8271 13.2472C36.9634 13.0057 37.1495 12.8125 37.3853 12.6676C37.6211 12.5227 37.8867 12.4134 38.1822 12.3395C38.4805 12.2628 38.7887 12.2074 39.1069 12.1733C39.4904 12.1335 39.8015 12.098 40.0401 12.0668C40.2788 12.0327 40.4521 11.9815 40.56 11.9134C40.6708 11.8423 40.7262 11.733 40.7262 11.5852V11.5597C40.7262 11.2386 40.631 10.9901 40.4407 10.8139C40.2504 10.6378 39.9762 10.5497 39.6183 10.5497C39.2404 10.5497 38.9407 10.6321 38.7191 10.7969C38.5004 10.9616 38.3526 11.1562 38.2759 11.3807L36.8356 11.1761C36.9492 10.7784 37.1367 10.446 37.3981 10.179C37.6594 9.90909 37.979 9.70739 38.3569 9.57386C38.7347 9.4375 39.1523 9.36932 39.6097 9.36932C39.9251 9.36932 40.239 9.40625 40.5515 9.48011C40.864 9.55398 41.1495 9.67614 41.408 9.84659C41.6665 10.0142 41.8739 10.2429 42.0302 10.5327C42.1893 10.8224 42.2688 11.1847 42.2688 11.6193V16H40.7859V15.1009H40.7347C40.641 15.2827 40.5089 15.4531 40.3384 15.6122C40.1708 15.7685 39.9592 15.8949 39.7035 15.9915C39.4506 16.0852 39.1538 16.1321 38.8129 16.1321ZM39.2134 14.9986C39.5231 14.9986 39.7915 14.9375 40.0188 14.8153C40.2461 14.6903 40.4208 14.5256 40.543 14.321C40.668 14.1165 40.7305 13.8935 40.7305 13.652V12.8807C40.6822 12.9205 40.5998 12.9574 40.4833 12.9915C40.3697 13.0256 40.2418 13.0554 40.0998 13.081C39.9577 13.1065 39.8171 13.1293 39.6779 13.1491C39.5387 13.169 39.418 13.1861 39.3157 13.2003C39.0856 13.2315 38.8796 13.2827 38.6978 13.3537C38.516 13.4247 38.3725 13.5241 38.2674 13.652C38.1623 13.777 38.1097 13.9389 38.1097 14.1378C38.1097 14.4219 38.2134 14.6364 38.4208 14.7812C38.6282 14.9261 38.8924 14.9986 39.2134 14.9986ZM46.673 16.1278C46.0196 16.1278 45.4585 15.9844 44.9898 15.6974C44.5239 15.4105 44.1645 15.0142 43.9117 14.5085C43.6617 14 43.5367 13.4148 43.5367 12.7528C43.5367 12.0881 43.6645 11.5014 43.9202 10.9929C44.1759 10.4815 44.5367 10.0838 45.0026 9.79972C45.4713 9.51278 46.0253 9.36932 46.6645 9.36932C47.1958 9.36932 47.6659 9.46733 48.075 9.66335C48.487 9.85653 48.8151 10.1307 49.0594 10.4858C49.3037 10.8381 49.4429 11.25 49.477 11.7216H48.0026C47.9429 11.4062 47.8009 11.1435 47.5764 10.9332C47.3548 10.7202 47.058 10.6136 46.6858 10.6136C46.3705 10.6136 46.0935 10.6989 45.8548 10.8693C45.6162 11.0369 45.4301 11.2784 45.2966 11.5938C45.1659 11.9091 45.1006 12.2869 45.1006 12.7273C45.1006 13.1733 45.1659 13.5568 45.2966 13.8778C45.4273 14.196 45.6105 14.4418 45.8463 14.6151C46.085 14.7855 46.3648 14.8707 46.6858 14.8707C46.9131 14.8707 47.1162 14.8281 47.2952 14.7429C47.477 14.6548 47.629 14.5284 47.7512 14.3636C47.8733 14.1989 47.9571 13.9986 48.0026 13.7628H49.477C49.4401 14.2259 49.3037 14.6364 49.0679 14.9943C48.8321 15.3494 48.5111 15.6278 48.1048 15.8295C47.6986 16.0284 47.2213 16.1278 46.673 16.1278ZM52.1479 13.946L52.1436 12.0838H52.3908L54.7431 9.45455H56.5456L53.6522 12.6761H53.3326L52.1479 13.946ZM50.7417 16V7.27273H52.2843V16H50.7417ZM54.8496 16L52.7189 13.0213L53.7587 11.9347L56.6948 16H54.8496Z"
        fill="white" />
    <defs>
        <clipPath id="clip0_1618_1441">
            <rect width="13" height="13" fill="white" transform="translate(8 5.5)" />
        </clipPath>
    </defs>
</svg>