<svg width="14px" height="14px" viewBox="0 0 9 8" version="1.1" xmlns="http://www.w3.org/2000/svg" xmlns:xlink="http://www.w3.org/1999/xlink">
        <g stroke="none" stroke-width="1" fill="none" fill-rule="evenodd">
        <g id="slack" transform="translate(0.666665, 0.208333)" fill="#FFFFFF">
            <path d="M2.78040168,0 C2.36121835,0.000309166667 2.02195168,0.339820833 2.02224316,0.758175833 C2.02195168,1.17653667 2.36151002,1.51604833 2.78069335,1.5163575 L3.53914362,1.5163575 L3.53914362,0.758490833 C3.53949335,0.34013 3.19987668,0.000618333333 2.78040168,0 C2.78069335,0 2.78069335,0 2.78040168,0 L2.78040168,0 Z M2.78040168,2.02222417 L0.758457517,2.02222417 C0.339262517,2.02253333 -0.000307482728,2.362045 8.40821405e-07,2.7804 C-0.000616649395,3.19876667 0.338953351,3.53826667 0.758148351,3.53890833 L2.78040168,3.53890833 C3.19958502,3.53855833 3.53914335,3.19905833 3.53885187,2.78069167 C3.53914335,2.362045 3.19958502,2.02253333 2.78040168,2.02222417 L2.78040168,2.02222417 Z" id="Shape"></path>
            <path d="M7.58333521,2.7804 C7.58362668,2.362045 7.24406835,2.02253333 6.82488502,2.02222417 C6.40570168,2.02253333 6.06608502,2.362045 6.06643475,2.7804 L6.06643475,3.53890833 L6.82488502,3.53890833 C7.24406835,3.53855833 7.58362668,3.19905833 7.58333521,2.7804 Z M5.56109354,2.7804 L5.56109354,0.758175833 C5.56138502,0.34013 5.22211835,0.000618333333 4.80293502,0 C4.38375168,0.000309166667 4.04419335,0.339820833 4.04448411,0.758175833 L4.04448411,2.7804 C4.04384335,3.19876667 4.38346002,3.53826667 4.80264335,3.53890833 C5.22182668,3.53855833 5.56138502,3.19905833 5.56109354,2.7804 Z" id="Shape"></path>
            <path d="M4.80264335,7.58333333 C5.22182668,7.58304167 5.56138502,7.24348333 5.56109354,6.825175 C5.56138502,6.40680833 5.22182668,6.06730833 4.80264335,6.06695833 L4.04419308,6.06695833 L4.04419308,6.825175 C4.04384335,7.24319167 4.38346002,7.58269167 4.80264335,7.58333333 Z M4.80264335,5.5608 L6.82488502,5.5608 C7.24406835,5.56050833 7.58362668,5.22100833 7.58333593,4.80264167 C7.58397668,4.384275 7.24436002,4.044775 6.82517668,4.04413333 L4.80293502,4.04413333 C4.38375168,4.044425 4.04419335,4.383925 4.04448483,4.80229167 C4.04419335,5.22100833 4.38346002,5.56050833 4.80264335,5.5608 L4.80264335,5.5608 Z" id="Shape"></path>
            <path d="M1.47299209e-06,4.80264167 C-0.000307482728,5.22100833 0.339262517,5.56050833 0.758457517,5.5608 C1.17763502,5.56050833 1.51725168,5.22100833 1.51690195,4.80264167 L1.51690195,4.044425 L0.758457517,4.044425 C0.339262517,4.044775 -0.000307482728,4.384275 1.47299209e-06,4.80264167 Z M2.02224244,4.80264167 L2.02224244,6.824825 C2.02160168,7.24319167 2.36121835,7.58269167 2.78040168,7.58333333 C3.19958502,7.58304167 3.53914335,7.24354167 3.53885259,6.825175 L3.53885259,4.803225 C3.53949335,4.38485833 3.19987668,4.04535833 2.78069335,4.044775 C2.36121835,4.044775 2.02195168,4.384275 2.02224244,4.80264167 C2.02224244,4.80293333 2.02224244,4.80264167 2.02224244,4.80264167 Z" id="Shape"></path>
        </g>
    </g>
</svg>