<svg width="14px" height="14px" viewBox="0 0 14 14" version="1.1" xmlns="http://www.w3.org/2000/svg" xmlns:xlink="http://www.w3.org/1999/xlink">
        <g stroke="none" stroke-width="1" fill="none" fill-rule="evenodd">
        <g id="snowflake" transform="translate(0.000000, 0.000000)" fill="#FFFFFF" fill-rule="nonzero">
            <path d="M12.0016615,10.6698415 L9.04643384,8.96261692 C8.63126923,8.72358308 8.10035692,8.86574769 7.86006307,9.28091231 C7.76696307,9.44446462 7.73047692,9.62437538 7.74809538,9.79924615 L7.74809538,13.1356615 C7.74809538,13.6125231 8.13558307,14 8.61366153,14 C9.09046923,14 9.47796769,13.6125231 9.47796769,13.1356615 L9.47796769,11.2171231 L11.1335538,12.1732154 C11.5488154,12.4135846 12.0809231,12.2701385 12.32,11.8549846 C12.5602615,11.4398308 12.4181077,10.9089077 12.0016615,10.6698415 Z" id="Path"></path>
            <path d="M4.65180153,7.01131846 C4.65683077,6.70309231 4.49453846,6.41624308 4.22782769,6.2615 L1.27257846,4.55553538 C1.1442523,4.48130308 0.997058458,4.44230769 0.849862458,4.44230769 C0.546663381,4.44230769 0.264850919,4.6046 0.113880304,4.86628154 C-0.120123234,5.27138769 0.0195243964,5.79098154 0.424628612,6.02498615 L2.12807538,7.00754923 L0.424628612,7.99137231 C0.228366919,8.1046 0.0874610117,8.28702 0.0295891041,8.50592615 C-0.0295410806,8.72484308 0.000652998358,8.95380769 0.113880304,9.15007692 C0.264850919,9.41175846 0.546663381,9.57405077 0.848603535,9.57405077 C0.997058458,9.57405077 1.1442523,9.53504462 1.27257846,9.46082308 L4.22782769,7.75484769 C4.49202923,7.60136462 4.65432153,7.31703538 4.65180153,7.01131846 Z" id="Path"></path>
            <path d="M1.9432323,3.34651692 L4.89848153,5.05248154 C5.24319384,5.25252 5.66842769,5.18709692 5.94017846,4.92163538 C6.11252923,4.76312308 6.21946769,4.53666769 6.21946769,4.28504462 L6.21946769,0.865564 C6.21946769,0.387490923 5.83198,0 5.35516153,0 C4.87709384,0 4.48959538,0.387490923 4.48959538,0.865564 L4.48959538,2.81182462 L2.81130769,1.8431 C2.39614307,1.60280615 1.86523077,1.74497077 1.62493692,2.16013538 C1.38464307,2.57531077 1.52805692,3.10622308 1.9432323,3.34651692 Z" id="Path"></path>
            <path d="M8.58834307,7.14973538 C8.58834307,7.21514769 8.55059692,7.30573846 8.5040523,7.35354308 L7.33276923,8.52482615 C7.28622461,8.57137077 7.19438461,8.60911692 7.12896153,8.60911692 L6.83079384,8.60911692 C6.76537077,8.60911692 6.67353077,8.57137077 6.62698615,8.52482615 L5.45444307,7.35354308 C5.40789846,7.30573846 5.3701523,7.21514769 5.3701523,7.14973538 L5.3701523,6.85156769 C5.3701523,6.78488462 5.40789846,6.69430462 5.45444307,6.64776 L6.62698615,5.47521692 C6.67353077,5.42867231 6.76537077,5.39092615 6.83079384,5.39092615 L7.12896153,5.39092615 C7.19438461,5.39092615 7.28622461,5.42867231 7.33276923,5.47521692 L8.5040523,6.64776 C8.55059692,6.69430462 8.58834307,6.78488462 8.58834307,6.85156769 L8.58834307,7.14973538 Z M7.54287692,7.00631077 L7.54287692,6.99373231 C7.54287692,6.94591692 7.51518923,6.87924462 7.48122307,6.84401846 L7.13525077,6.49929538 C7.10128461,6.46406923 7.03460153,6.43639231 6.98553692,6.43639231 L6.97295846,6.43639231 C6.92515384,6.43639231 6.85847077,6.46406923 6.82324461,6.49929538 L6.4785323,6.84401846 C6.44456615,6.87798462 6.41687846,6.94466769 6.41687846,6.99373231 L6.41687846,7.00631077 C6.41687846,7.05537538 6.44456615,7.12205846 6.4785323,7.15602462 L6.82324461,7.50199692 C6.85847077,7.53596308 6.92515384,7.56364 6.97295846,7.56364 L6.98553692,7.56364 C7.03460153,7.56364 7.10128461,7.53596308 7.13525077,7.50199692 L7.48122307,7.15602462 C7.51518923,7.12205846 7.54287692,7.05537538 7.54287692,7.00631077 Z" id="Shape"></path>
            <path d="M9.04635846,5.05248154 L12.0015538,3.34651692 C12.4168154,3.10747231 12.5601538,2.57531077 12.3198923,2.16013538 C12.0796308,1.74497077 11.5487077,1.60280615 11.1335538,1.8431 L9.47788153,2.79924615 L9.47788153,0.865564 C9.47788153,0.387490923 9.09039384,0 8.61357538,0 C8.13549692,0 7.74800923,0.387490923 7.74800923,0.865564 L7.74800923,4.21711231 C7.73165077,4.39072308 7.76562769,4.57189385 7.85997692,4.73544615 C8.10027077,5.15061077 8.63118307,5.29277538 9.04635846,5.05248154 Z" id="Path"></path>
            <path d="M5.49103692,8.86193538 C5.29477846,8.8242 5.08467077,8.85564615 4.89848153,8.96258462 L1.9432323,10.6698092 C1.52805692,10.9088 1.38464307,11.4397231 1.62493692,11.8548769 C1.86523077,12.2713231 2.39614307,12.4134769 2.81130769,12.1732154 L4.48959538,11.2045231 L4.48959538,13.1356615 C4.48959538,13.6125231 4.87709384,14 5.35516153,14 C5.83198,14 6.21946769,13.6125231 6.21946769,13.1356615 L6.21946769,9.71618308 C6.21946769,9.28466 5.9036923,8.92735846 5.49103692,8.86193538 Z" id="Path"></path>
            <path d="M13.8484769,4.85626615 C13.6094,4.43984154 13.0772923,4.29767692 12.6621385,4.53797077 L9.70684615,6.24393538 C9.42377692,6.40748769 9.26777384,6.70691538 9.27280307,7.01137231 C9.27028307,7.31456923 9.42628615,7.61022769 9.70684615,7.77126 L12.6621385,9.47848462 C13.0772923,9.71751846 13.6082154,9.57535385 13.8484769,9.16018923 C14.0887385,8.74502462 13.9452923,8.21410154 13.5301385,7.97380769 L11.8569231,7.00760308 L13.5301385,6.04138769 C13.9465846,5.80235385 14.0887385,5.27144154 13.8484769,4.85626615 Z" id="Path"></path>
        </g>
    </g>
</svg>