<svg width="77" height="13" viewBox="0 0 77 13" fill="none" xmlns="http://www.w3.org/2000/svg">
<path d="M11.1444 9.90771L8.40026 8.32243C8.01475 8.10047 7.52176 8.23248 7.29863 8.61799C7.21218 8.76986 7.1783 8.93692 7.19466 9.0993V12.1974C7.19466 12.6402 7.55447 13 7.9984 13C8.44115 13 8.80097 12.6402 8.80097 12.1974V10.4159L10.3383 11.3037C10.7239 11.5269 11.218 11.3937 11.44 11.0082C11.6631 10.6227 11.5311 10.1297 11.1444 9.90771Z" fill="white"/>
<path d="M4.31953 6.51051C4.3242 6.2243 4.1735 5.95794 3.92584 5.81425L1.18168 4.23014C1.06252 4.16121 0.92584 4.125 0.789158 4.125C0.507616 4.125 0.245933 4.2757 0.105746 4.51869C-0.111543 4.89486 0.0181298 5.37734 0.394298 5.59463L1.97607 6.50701L0.394298 7.42056C0.212055 7.5257 0.0812138 7.69509 0.0274756 7.89836C-0.027431 8.10164 0.000606359 8.31425 0.105746 8.4965C0.245933 8.73949 0.507616 8.89019 0.787989 8.89019C0.92584 8.89019 1.06252 8.85397 1.18168 8.78505L3.92584 7.20093C4.17117 7.05841 4.32187 6.79439 4.31953 6.51051Z" fill="white"/>
<path d="M1.80443 3.10748L4.54859 4.69159C4.86868 4.87734 5.26354 4.81659 5.51588 4.57009C5.67592 4.4229 5.77522 4.21262 5.77522 3.97897V0.803738C5.77522 0.359813 5.41541 0 4.97265 0C4.52873 0 4.16891 0.359813 4.16891 0.803738V2.61098L2.6105 1.71145C2.22499 1.48832 1.732 1.62033 1.50887 2.00584C1.28574 2.39136 1.41891 2.88435 1.80443 3.10748Z" fill="white"/>
<path d="M7.97489 6.63904C7.97489 6.69978 7.93984 6.7839 7.89662 6.82829L6.809 7.91591C6.76578 7.95913 6.6805 7.99418 6.61975 7.99418H6.34288C6.28213 7.99418 6.19685 7.95913 6.15363 7.91591L5.06484 6.82829C5.02162 6.7839 4.98657 6.69978 4.98657 6.63904V6.36217C4.98657 6.30025 5.02162 6.21614 5.06484 6.17292L6.15363 5.08413C6.19685 5.04091 6.28213 5.00586 6.34288 5.00586H6.61975C6.6805 5.00586 6.76578 5.04091 6.809 5.08413L7.89662 6.17292C7.93984 6.21614 7.97489 6.30025 7.97489 6.36217V6.63904ZM7.0041 6.50586V6.49418C7.0041 6.44978 6.97839 6.38787 6.94685 6.35516L6.62559 6.03506C6.59405 6.00235 6.53213 5.97665 6.48657 5.97665H6.47489C6.4305 5.97665 6.36858 6.00235 6.33587 6.03506L6.01578 6.35516C5.98424 6.3867 5.95853 6.44862 5.95853 6.49418V6.50586C5.95853 6.55142 5.98424 6.61334 6.01578 6.64488L6.33587 6.96614C6.36858 6.99768 6.4305 7.02338 6.47489 7.02338H6.48657C6.53213 7.02338 6.59405 6.99768 6.62559 6.96614L6.94685 6.64488C6.97839 6.61334 7.0041 6.55142 7.0041 6.50586Z" fill="white"/>
<path d="M8.40019 4.69159L11.1443 3.10748C11.5299 2.88551 11.663 2.39136 11.4399 2.00584C11.2168 1.62033 10.7238 1.48832 10.3383 1.71145L8.80089 2.5993V0.803738C8.80089 0.359813 8.44108 0 7.99832 0C7.55439 0 7.19458 0.359813 7.19458 0.803738V3.91589C7.17939 4.0771 7.21094 4.24533 7.29855 4.3972C7.52168 4.78271 8.01467 4.91472 8.40019 4.69159Z" fill="white"/>
<path d="M5.09882 8.22894C4.91658 8.1939 4.72148 8.2231 4.54859 8.3224L1.80443 9.90768C1.41891 10.1296 1.28574 10.6226 1.50887 11.0081C1.732 11.3948 2.22499 11.5268 2.6105 11.3037L4.16891 10.4042V12.1974C4.16891 12.6402 4.52873 13 4.97265 13C5.41541 13 5.77522 12.6402 5.77522 12.1974V9.02217C5.77522 8.62147 5.482 8.28969 5.09882 8.22894Z" fill="white"/>
<path d="M12.8593 4.50939C12.6373 4.12271 12.1432 3.9907 11.7577 4.21383L9.0135 5.79794C8.75065 5.94981 8.60579 6.22785 8.61046 6.51056C8.60812 6.7921 8.75298 7.06664 9.0135 7.21617L11.7577 8.80145C12.1432 9.02341 12.6362 8.8914 12.8593 8.50589C13.0824 8.12038 12.9492 7.62738 12.5637 7.40425L11.01 6.50706L12.5637 5.60986C12.9504 5.3879 13.0824 4.89491 12.8593 4.50939Z" fill="white"/>
<path d="M22.026 4.67396C21.9862 4.3018 21.8186 4.01203 21.5232 3.80464C21.2306 3.59726 20.8499 3.49356 20.3811 3.49356C20.0516 3.49356 19.7689 3.54328 19.5331 3.64271C19.2973 3.74214 19.1169 3.87709 18.9919 4.04754C18.8669 4.218 18.803 4.4126 18.8002 4.63135C18.8002 4.81317 18.8414 4.97084 18.9237 5.10436C19.009 5.23788 19.124 5.35152 19.2689 5.44527C19.4138 5.53618 19.5743 5.61288 19.7504 5.67538C19.9266 5.73788 20.1041 5.79044 20.2831 5.83305L21.1013 6.0376C21.4308 6.1143 21.7476 6.218 22.0516 6.34868C22.3584 6.47936 22.6325 6.64413 22.874 6.843C23.1183 7.04186 23.3115 7.28192 23.4536 7.56317C23.5956 7.84442 23.6666 8.17396 23.6666 8.5518C23.6666 9.06317 23.536 9.51345 23.2746 9.90265C23.0132 10.289 22.6354 10.5916 22.1411 10.8103C21.6496 11.0262 21.0544 11.1342 20.3556 11.1342C19.6766 11.1342 19.0871 11.0291 18.5871 10.8188C18.0899 10.6086 17.7007 10.3018 17.4195 9.89839C17.1411 9.49498 16.9905 9.00351 16.9678 8.42396H18.5232C18.5459 8.72794 18.6396 8.98078 18.8044 9.18248C18.9692 9.38419 19.1837 9.53476 19.4479 9.63419C19.7149 9.73362 20.0132 9.78334 20.3428 9.78334C20.6865 9.78334 20.9877 9.7322 21.2462 9.62993C21.5075 9.52481 21.7121 9.37993 21.8598 9.19527C22.0075 9.00777 22.0828 8.78902 22.0857 8.53902C22.0828 8.31175 22.0161 8.12425 21.8854 7.97652C21.7547 7.82595 21.5715 7.70095 21.3357 7.60152C21.1027 7.49925 20.83 7.40834 20.5175 7.32879L19.5246 7.07311C18.8058 6.88845 18.2377 6.60862 17.82 6.23362C17.4053 5.85578 17.1979 5.35436 17.1979 4.72936C17.1979 4.21515 17.3371 3.76487 17.6155 3.37851C17.8968 2.99214 18.2789 2.69243 18.7618 2.47936C19.2448 2.26345 19.7916 2.1555 20.4024 2.1555C21.0218 2.1555 21.5644 2.26345 22.0303 2.47936C22.499 2.69243 22.8669 2.9893 23.134 3.36998C23.401 3.74782 23.5388 4.18248 23.5473 4.67396H22.026Z" fill="white"/>
<path d="M26.5485 7.16686V11.0021H25.0059V4.45663H26.4803V5.56885H26.557C26.7076 5.20237 26.9476 4.91118 27.2772 4.69527C27.6096 4.47936 28.0201 4.3714 28.5087 4.3714C28.9604 4.3714 29.3539 4.468 29.6891 4.66118C30.0272 4.85436 30.2885 5.13419 30.4732 5.50067C30.6607 5.86714 30.753 6.31175 30.7502 6.83447V11.0021H29.2076V7.07311C29.2076 6.63561 29.0939 6.29328 28.8667 6.04612C28.6422 5.79896 28.3311 5.67538 27.9334 5.67538C27.6635 5.67538 27.4235 5.73504 27.2132 5.85436C27.0059 5.97084 26.8425 6.13987 26.7232 6.36146C26.6067 6.58305 26.5485 6.85152 26.5485 7.16686Z" fill="white"/>
<path d="M35.1714 11.1299C34.5322 11.1299 33.9783 10.9893 33.5095 10.7081C33.0408 10.4268 32.6771 10.0333 32.4186 9.52765C32.1629 9.02197 32.0351 8.43106 32.0351 7.75493C32.0351 7.07879 32.1629 6.48646 32.4186 5.97794C32.6771 5.46942 33.0408 5.07453 33.5095 4.79328C33.9783 4.51203 34.5322 4.3714 35.1714 4.3714C35.8106 4.3714 36.3646 4.51203 36.8334 4.79328C37.3021 5.07453 37.6643 5.46942 37.92 5.97794C38.1785 6.48646 38.3078 7.07879 38.3078 7.75493C38.3078 8.43106 38.1785 9.02197 37.92 9.52765C37.6643 10.0333 37.3021 10.4268 36.8334 10.7081C36.3646 10.9893 35.8106 11.1299 35.1714 11.1299ZM35.18 9.89413C35.5265 9.89413 35.8163 9.79896 36.0493 9.60862C36.2822 9.41544 36.4555 9.15692 36.5692 8.83305C36.6856 8.50919 36.7439 8.14839 36.7439 7.75067C36.7439 7.3501 36.6856 6.98788 36.5692 6.66402C36.4555 6.33731 36.2822 6.07737 36.0493 5.88419C35.8163 5.69101 35.5265 5.59442 35.18 5.59442C34.8248 5.59442 34.5294 5.69101 34.2936 5.88419C34.0606 6.07737 33.8859 6.33731 33.7694 6.66402C33.6558 6.98788 33.599 7.3501 33.599 7.75067C33.599 8.14839 33.6558 8.50919 33.7694 8.83305C33.8859 9.15692 34.0606 9.41544 34.2936 9.60862C34.5294 9.79896 34.8248 9.89413 35.18 9.89413Z" fill="white"/>
<path d="M40.7784 11.0021L38.929 4.45663H40.5014L41.652 9.0589H41.7117L42.8878 4.45663H44.4432L45.6193 9.03334H45.6832L46.8168 4.45663H48.3935L46.5398 11.0021H44.9332L43.706 6.57879H43.6165L42.3892 11.0021H40.7784Z" fill="white"/>
<path d="M52.7838 4.45663V5.64981H48.9145V4.45663H52.7838ZM49.8818 11.0021V3.83873C49.8818 3.39839 49.9728 3.03192 50.1546 2.7393C50.3392 2.44669 50.5864 2.22794 50.896 2.08305C51.2057 1.93817 51.5495 1.86572 51.9273 1.86572C52.1943 1.86572 52.4316 1.88703 52.6389 1.92964C52.8463 1.97226 52.9997 2.01061 53.0992 2.0447L52.7924 3.23788C52.727 3.218 52.6446 3.19811 52.5452 3.17822C52.4458 3.1555 52.335 3.14413 52.2128 3.14413C51.9259 3.14413 51.7227 3.21373 51.6034 3.35294C51.487 3.4893 51.4287 3.68532 51.4287 3.94101V11.0021H49.8818Z" fill="white"/>
<path d="M55.5325 2.27481V11.0021H53.9899V2.27481H55.5325Z" fill="white"/>
<path d="M59.0003 11.1342C58.5855 11.1342 58.2119 11.0603 57.8795 10.9126C57.55 10.762 57.2886 10.5404 57.0954 10.2478C56.9051 9.95521 56.8099 9.59442 56.8099 9.16544C56.8099 8.79612 56.8781 8.49072 57.0145 8.24925C57.1508 8.00777 57.3369 7.81459 57.5727 7.6697C57.8085 7.52481 58.0741 7.41544 58.3696 7.34158C58.6679 7.26487 58.9761 7.20947 59.2943 7.17538C59.6778 7.13561 59.9889 7.1001 60.2275 7.06885C60.4662 7.03476 60.6395 6.98362 60.7474 6.91544C60.8582 6.84442 60.9136 6.73504 60.9136 6.58731V6.56175C60.9136 6.24072 60.8185 5.99214 60.6281 5.81601C60.4378 5.63987 60.1636 5.5518 59.8057 5.5518C59.4278 5.5518 59.1281 5.63419 58.9065 5.79896C58.6878 5.96373 58.54 6.15834 58.4633 6.38277L57.023 6.17822C57.1366 5.7805 57.3241 5.44811 57.5855 5.18106C57.8469 4.91118 58.1665 4.70947 58.5443 4.57595C58.9221 4.43959 59.3398 4.3714 59.7971 4.3714C60.1125 4.3714 60.4264 4.40834 60.7389 4.4822C61.0514 4.55606 61.3369 4.67822 61.5954 4.84868C61.854 5.01629 62.0614 5.24498 62.2176 5.53476C62.3767 5.82453 62.4562 6.18675 62.4562 6.6214V11.0021H60.9733V10.1029H60.9221C60.8284 10.2848 60.6963 10.4552 60.5258 10.6143C60.3582 10.7706 60.1466 10.897 59.8909 10.9936C59.6381 11.0873 59.3412 11.1342 59.0003 11.1342ZM59.4008 10.0007C59.7105 10.0007 59.979 9.93959 60.2062 9.81743C60.4335 9.69243 60.6082 9.52766 60.7304 9.32311C60.8554 9.11856 60.9179 8.89555 60.9179 8.65408V7.88277C60.8696 7.92254 60.7872 7.95947 60.6707 7.99356C60.5571 8.02765 60.4293 8.05748 60.2872 8.08305C60.1452 8.10862 60.0045 8.13135 59.8653 8.15123C59.7261 8.17112 59.6054 8.18817 59.5031 8.20237C59.273 8.23362 59.067 8.28476 58.8852 8.35578C58.7034 8.4268 58.5599 8.52623 58.4548 8.65408C58.3497 8.77908 58.2971 8.94101 58.2971 9.13987C58.2971 9.42396 58.4008 9.63845 58.6082 9.78334C58.8156 9.92822 59.0798 10.0007 59.4008 10.0007Z" fill="white"/>
<path d="M65.4116 8.94811L65.4073 7.08589H65.6545L68.0068 4.45663H69.8093L66.9159 7.67822H66.5962L65.4116 8.94811ZM64.0053 11.0021V2.27481H65.548V11.0021H64.0053ZM68.1133 11.0021L65.9826 8.02339L67.0224 6.93675L69.9585 11.0021H68.1133Z" fill="white"/>
<path d="M73.4635 11.1299C72.8073 11.1299 72.2405 10.9936 71.7632 10.7208C71.2888 10.4453 70.9238 10.0561 70.6681 9.55322C70.4124 9.04754 70.2845 8.45237 70.2845 7.76771C70.2845 7.09442 70.4124 6.50351 70.6681 5.99498C70.9266 5.48362 71.2874 5.08589 71.7505 4.8018C72.2135 4.51487 72.7576 4.3714 73.3826 4.3714C73.786 4.3714 74.1667 4.43675 74.5246 4.56743C74.8854 4.69527 75.2036 4.89413 75.4792 5.16402C75.7576 5.43391 75.9763 5.77765 76.1354 6.19527C76.2945 6.61004 76.374 7.10436 76.374 7.67822V8.15123H71.009V7.11146H74.8953C74.8925 6.81601 74.8286 6.55322 74.7036 6.32311C74.5786 6.09016 74.4039 5.90692 74.1794 5.77339C73.9578 5.63987 73.6993 5.57311 73.4039 5.57311C73.0885 5.57311 72.8115 5.64981 72.5729 5.80322C72.3343 5.95379 72.1482 6.15265 72.0147 6.39981C71.884 6.64413 71.8172 6.9126 71.8144 7.20521V8.11288C71.8144 8.49356 71.884 8.82027 72.0232 9.093C72.1624 9.36288 72.357 9.57027 72.607 9.71515C72.857 9.8572 73.1496 9.92822 73.4848 9.92822C73.7093 9.92822 73.9124 9.89697 74.0942 9.83447C74.276 9.76913 74.4337 9.67396 74.5672 9.54896C74.7007 9.42396 74.8016 9.26913 74.8698 9.08447L76.3101 9.2464C76.2192 9.62709 76.0459 9.95947 75.7902 10.2436C75.5374 10.5248 75.2135 10.7436 74.8186 10.8998C74.4238 11.0532 73.9721 11.1299 73.4635 11.1299Z" fill="white"/>
</svg>
