<svg width="93" height="24" viewBox="0 0 93 24" fill="none" xmlns="http://www.w3.org/2000/svg">
<rect width="92.374" height="24" rx="8" fill="#29B5E8"/>
<path d="M19.1444 15.4077L16.4003 13.8224C16.0148 13.6005 15.5218 13.7325 15.2986 14.118C15.2122 14.2699 15.1783 14.4369 15.1947 14.5993V17.6974C15.1947 18.1402 15.5545 18.5 15.9984 18.5C16.4412 18.5 16.801 18.1402 16.801 17.6974V15.9159L18.3383 16.8037C18.7239 17.0269 19.218 16.8937 19.44 16.5082C19.6631 16.1227 19.5311 15.6297 19.1444 15.4077Z" fill="white"/>
<path d="M12.3195 12.0105C12.3242 11.7243 12.1735 11.4579 11.9258 11.3143L9.18168 9.73014C9.06252 9.66121 8.92584 9.625 8.78916 9.625C8.50762 9.625 8.24593 9.7757 8.10575 10.0187C7.88846 10.3949 8.01813 10.8773 8.3943 11.0946L9.97607 12.007L8.3943 12.9206C8.21205 13.0257 8.08121 13.1951 8.02748 13.3984C7.97257 13.6016 8.00061 13.8143 8.10575 13.9965C8.24593 14.2395 8.50762 14.3902 8.78799 14.3902C8.92584 14.3902 9.06252 14.354 9.18168 14.285L11.9258 12.7009C12.1712 12.5584 12.3219 12.2944 12.3195 12.0105Z" fill="white"/>
<path d="M9.80443 8.60748L12.5486 10.1916C12.8687 10.3773 13.2635 10.3166 13.5159 10.0701C13.6759 9.9229 13.7752 9.71262 13.7752 9.47897V6.30374C13.7752 5.85981 13.4154 5.5 12.9727 5.5C12.5287 5.5 12.1689 5.85981 12.1689 6.30374V8.11098L10.6105 7.21145C10.225 6.98832 9.732 7.12033 9.50887 7.50584C9.28574 7.89136 9.41891 8.38435 9.80443 8.60748Z" fill="white"/>
<path d="M15.9749 12.139C15.9749 12.1998 15.9398 12.2839 15.8966 12.3283L14.809 13.4159C14.7658 13.4591 14.6805 13.4942 14.6197 13.4942H14.3429C14.2821 13.4942 14.1969 13.4591 14.1536 13.4159L13.0648 12.3283C13.0216 12.2839 12.9866 12.1998 12.9866 12.139V11.8622C12.9866 11.8003 13.0216 11.7161 13.0648 11.6729L14.1536 10.5841C14.1969 10.5409 14.2821 10.5059 14.3429 10.5059H14.6197C14.6805 10.5059 14.7658 10.5409 14.809 10.5841L15.8966 11.6729C15.9398 11.7161 15.9749 11.8003 15.9749 11.8622V12.139ZM15.0041 12.0059V11.9942C15.0041 11.9498 14.9784 11.8879 14.9469 11.8552L14.6256 11.5351C14.594 11.5024 14.5321 11.4767 14.4866 11.4767H14.4749C14.4305 11.4767 14.3686 11.5024 14.3359 11.5351L14.0158 11.8552C13.9842 11.8867 13.9585 11.9486 13.9585 11.9942V12.0059C13.9585 12.0514 13.9842 12.1133 14.0158 12.1449L14.3359 12.4661C14.3686 12.4977 14.4305 12.5234 14.4749 12.5234H14.4866C14.5321 12.5234 14.594 12.4977 14.6256 12.4661L14.9469 12.1449C14.9784 12.1133 15.0041 12.0514 15.0041 12.0059Z" fill="white"/>
<path d="M16.4002 10.1916L19.1443 8.60748C19.5299 8.38551 19.663 7.89136 19.4399 7.50584C19.2168 7.12033 18.7238 6.98832 18.3383 7.21145L16.8009 8.0993V6.30374C16.8009 5.85981 16.4411 5.5 15.9983 5.5C15.5544 5.5 15.1946 5.85981 15.1946 6.30374V9.41589C15.1794 9.5771 15.2109 9.74533 15.2986 9.8972C15.5217 10.2827 16.0147 10.4147 16.4002 10.1916Z" fill="white"/>
<path d="M13.0988 13.7289C12.9166 13.6939 12.7215 13.7231 12.5486 13.8224L9.80443 15.4077C9.41891 15.6296 9.28574 16.1226 9.50887 16.5081C9.732 16.8948 10.225 17.0268 10.6105 16.8037L12.1689 15.9042V17.6974C12.1689 18.1402 12.5287 18.5 12.9727 18.5C13.4154 18.5 13.7752 18.1402 13.7752 17.6974V14.5222C13.7752 14.1215 13.482 13.7897 13.0988 13.7289Z" fill="white"/>
<path d="M20.8593 10.0094C20.6373 9.62271 20.1432 9.4907 19.7577 9.71383L17.0135 11.2979C16.7506 11.4498 16.6058 11.7279 16.6105 12.0106C16.6081 12.2921 16.753 12.5666 17.0135 12.7162L19.7577 14.3014C20.1432 14.5234 20.6362 14.3914 20.8593 14.0059C21.0824 13.6204 20.9492 13.1274 20.5637 12.9043L19.01 12.0071L20.5637 11.1099C20.9504 10.8879 21.0824 10.3949 20.8593 10.0094Z" fill="white"/>
<path d="M30.026 10.174C29.9862 9.8018 29.8186 9.51203 29.5232 9.30464C29.2306 9.09726 28.8499 8.99356 28.3811 8.99356C28.0516 8.99356 27.7689 9.04328 27.5331 9.14271C27.2973 9.24214 27.1169 9.37709 26.9919 9.54754C26.8669 9.718 26.803 9.9126 26.8002 10.1313C26.8002 10.3132 26.8414 10.4708 26.9237 10.6044C27.009 10.7379 27.124 10.8515 27.2689 10.9453C27.4138 11.0362 27.5743 11.1129 27.7504 11.1754C27.9266 11.2379 28.1041 11.2904 28.2831 11.3331L29.1013 11.5376C29.4308 11.6143 29.7476 11.718 30.0516 11.8487C30.3584 11.9794 30.6325 12.1441 30.874 12.343C31.1183 12.5419 31.3115 12.7819 31.4536 13.0632C31.5956 13.3444 31.6666 13.674 31.6666 14.0518C31.6666 14.5632 31.536 15.0135 31.2746 15.4027C31.0132 15.789 30.6354 16.0916 30.1411 16.3103C29.6496 16.5262 29.0544 16.6342 28.3556 16.6342C27.6766 16.6342 27.0871 16.5291 26.5871 16.3188C26.0899 16.1086 25.7007 15.8018 25.4195 15.3984C25.1411 14.995 24.9905 14.5035 24.9678 13.924H26.5232C26.5459 14.2279 26.6396 14.4808 26.8044 14.6825C26.9692 14.8842 27.1837 15.0348 27.4479 15.1342C27.7149 15.2336 28.0132 15.2833 28.3428 15.2833C28.6865 15.2833 28.9877 15.2322 29.2462 15.1299C29.5075 15.0248 29.7121 14.8799 29.8598 14.6953C30.0075 14.5078 30.0828 14.289 30.0857 14.039C30.0828 13.8117 30.0161 13.6242 29.8854 13.4765C29.7547 13.326 29.5715 13.201 29.3357 13.1015C29.1027 12.9992 28.83 12.9083 28.5175 12.8288L27.5246 12.5731C26.8058 12.3885 26.2377 12.1086 25.82 11.7336C25.4053 11.3558 25.1979 10.8544 25.1979 10.2294C25.1979 9.71515 25.3371 9.26487 25.6155 8.87851C25.8968 8.49214 26.2789 8.19243 26.7618 7.97936C27.2448 7.76345 27.7916 7.6555 28.4024 7.6555C29.0218 7.6555 29.5644 7.76345 30.0303 7.97936C30.499 8.19243 30.8669 8.4893 31.134 8.86998C31.401 9.24782 31.5388 9.68248 31.5473 10.174H30.026Z" fill="white"/>
<path d="M34.5485 12.6669V16.5021H33.0059V9.95663H34.4803V11.0688H34.557C34.7076 10.7024 34.9476 10.4112 35.2772 10.1953C35.6096 9.97936 36.0201 9.8714 36.5087 9.8714C36.9604 9.8714 37.3539 9.968 37.6891 10.1612C38.0272 10.3544 38.2885 10.6342 38.4732 11.0007C38.6607 11.3671 38.753 11.8117 38.7502 12.3345V16.5021H37.2076V12.5731C37.2076 12.1356 37.0939 11.7933 36.8667 11.5461C36.6422 11.299 36.3311 11.1754 35.9334 11.1754C35.6635 11.1754 35.4235 11.235 35.2132 11.3544C35.0059 11.4708 34.8425 11.6399 34.7232 11.8615C34.6067 12.0831 34.5485 12.3515 34.5485 12.6669Z" fill="white"/>
<path d="M43.1714 16.6299C42.5322 16.6299 41.9783 16.4893 41.5095 16.2081C41.0408 15.9268 40.6771 15.5333 40.4186 15.0277C40.1629 14.522 40.0351 13.9311 40.0351 13.2549C40.0351 12.5788 40.1629 11.9865 40.4186 11.4779C40.6771 10.9694 41.0408 10.5745 41.5095 10.2933C41.9783 10.012 42.5322 9.8714 43.1714 9.8714C43.8106 9.8714 44.3646 10.012 44.8334 10.2933C45.3021 10.5745 45.6643 10.9694 45.92 11.4779C46.1785 11.9865 46.3078 12.5788 46.3078 13.2549C46.3078 13.9311 46.1785 14.522 45.92 15.0277C45.6643 15.5333 45.3021 15.9268 44.8334 16.2081C44.3646 16.4893 43.8106 16.6299 43.1714 16.6299ZM43.18 15.3941C43.5265 15.3941 43.8163 15.299 44.0493 15.1086C44.2822 14.9154 44.4555 14.6569 44.5692 14.3331C44.6856 14.0092 44.7439 13.6484 44.7439 13.2507C44.7439 12.8501 44.6856 12.4879 44.5692 12.164C44.4555 11.8373 44.2822 11.5774 44.0493 11.3842C43.8163 11.191 43.5265 11.0944 43.18 11.0944C42.8248 11.0944 42.5294 11.191 42.2936 11.3842C42.0606 11.5774 41.8859 11.8373 41.7694 12.164C41.6558 12.4879 41.599 12.8501 41.599 13.2507C41.599 13.6484 41.6558 14.0092 41.7694 14.3331C41.8859 14.6569 42.0606 14.9154 42.2936 15.1086C42.5294 15.299 42.8248 15.3941 43.18 15.3941Z" fill="white"/>
<path d="M48.7784 16.5021L46.929 9.95663H48.5014L49.652 14.5589H49.7117L50.8878 9.95663H52.4432L53.6193 14.5333H53.6832L54.8168 9.95663H56.3935L54.5398 16.5021H52.9332L51.706 12.0788H51.6165L50.3892 16.5021H48.7784Z" fill="white"/>
<path d="M60.7838 9.95663V11.1498H56.9145V9.95663H60.7838ZM57.8818 16.5021V9.33873C57.8818 8.89839 57.9728 8.53192 58.1546 8.2393C58.3392 7.94669 58.5864 7.72794 58.896 7.58305C59.2057 7.43817 59.5495 7.36572 59.9273 7.36572C60.1943 7.36572 60.4316 7.38703 60.6389 7.42964C60.8463 7.47226 60.9997 7.51061 61.0992 7.5447L60.7924 8.73788C60.727 8.718 60.6446 8.69811 60.5452 8.67822C60.4458 8.6555 60.335 8.64413 60.2128 8.64413C59.9259 8.64413 59.7227 8.71373 59.6034 8.85294C59.487 8.9893 59.4287 9.18532 59.4287 9.44101V16.5021H57.8818Z" fill="white"/>
<path d="M63.5325 7.77481V16.5021H61.9899V7.77481H63.5325Z" fill="white"/>
<path d="M67.0003 16.6342C66.5855 16.6342 66.2119 16.5603 65.8795 16.4126C65.55 16.262 65.2886 16.0404 65.0954 15.7478C64.9051 15.4552 64.8099 15.0944 64.8099 14.6654C64.8099 14.2961 64.8781 13.9907 65.0145 13.7492C65.1508 13.5078 65.3369 13.3146 65.5727 13.1697C65.8085 13.0248 66.0741 12.9154 66.3696 12.8416C66.6679 12.7649 66.9761 12.7095 67.2943 12.6754C67.6778 12.6356 67.9889 12.6001 68.2275 12.5688C68.4662 12.5348 68.6395 12.4836 68.7474 12.4154C68.8582 12.3444 68.9136 12.235 68.9136 12.0873V12.0617C68.9136 11.7407 68.8185 11.4921 68.6281 11.316C68.4378 11.1399 68.1636 11.0518 67.8057 11.0518C67.4278 11.0518 67.1281 11.1342 66.9065 11.299C66.6878 11.4637 66.54 11.6583 66.4633 11.8828L65.023 11.6782C65.1366 11.2805 65.3241 10.9481 65.5855 10.6811C65.8469 10.4112 66.1665 10.2095 66.5443 10.076C66.9221 9.93959 67.3398 9.8714 67.7971 9.8714C68.1125 9.8714 68.4264 9.90834 68.7389 9.9822C69.0514 10.0561 69.3369 10.1782 69.5954 10.3487C69.854 10.5163 70.0614 10.745 70.2176 11.0348C70.3767 11.3245 70.4562 11.6867 70.4562 12.1214V16.5021H68.9733V15.6029H68.9221C68.8284 15.7848 68.6963 15.9552 68.5258 16.1143C68.3582 16.2706 68.1466 16.397 67.8909 16.4936C67.6381 16.5873 67.3412 16.6342 67.0003 16.6342ZM67.4008 15.5007C67.7105 15.5007 67.979 15.4396 68.2062 15.3174C68.4335 15.1924 68.6082 15.0277 68.7304 14.8231C68.8554 14.6186 68.9179 14.3956 68.9179 14.1541V13.3828C68.8696 13.4225 68.7872 13.4595 68.6707 13.4936C68.5571 13.5277 68.4293 13.5575 68.2872 13.5831C68.1452 13.6086 68.0045 13.6313 67.8653 13.6512C67.7261 13.6711 67.6054 13.6882 67.5031 13.7024C67.273 13.7336 67.067 13.7848 66.8852 13.8558C66.7034 13.9268 66.5599 14.0262 66.4548 14.1541C66.3497 14.2791 66.2971 14.441 66.2971 14.6399C66.2971 14.924 66.4008 15.1385 66.6082 15.2833C66.8156 15.4282 67.0798 15.5007 67.4008 15.5007Z" fill="white"/>
<path d="M73.4116 14.4481L73.4073 12.5859H73.6545L76.0068 9.95663H77.8093L74.9159 13.1782H74.5962L73.4116 14.4481ZM72.0053 16.5021V7.77481H73.548V16.5021H72.0053ZM76.1133 16.5021L73.9826 13.5234L75.0224 12.4367L77.9585 16.5021H76.1133Z" fill="white"/>
<path d="M81.4635 16.6299C80.8073 16.6299 80.2405 16.4936 79.7632 16.2208C79.2888 15.9453 78.9238 15.5561 78.6681 15.0532C78.4124 14.5475 78.2845 13.9524 78.2845 13.2677C78.2845 12.5944 78.4124 12.0035 78.6681 11.495C78.9266 10.9836 79.2874 10.5859 79.7505 10.3018C80.2135 10.0149 80.7576 9.8714 81.3826 9.8714C81.786 9.8714 82.1667 9.93675 82.5246 10.0674C82.8854 10.1953 83.2036 10.3941 83.4792 10.664C83.7576 10.9339 83.9763 11.2777 84.1354 11.6953C84.2945 12.11 84.374 12.6044 84.374 13.1782V13.6512H79.009V12.6115H82.8953C82.8925 12.316 82.8286 12.0532 82.7036 11.8231C82.5786 11.5902 82.4039 11.4069 82.1794 11.2734C81.9578 11.1399 81.6993 11.0731 81.4039 11.0731C81.0885 11.0731 80.8115 11.1498 80.5729 11.3032C80.3343 11.4538 80.1482 11.6527 80.0147 11.8998C79.884 12.1441 79.8172 12.4126 79.8144 12.7052V13.6129C79.8144 13.9936 79.884 14.3203 80.0232 14.593C80.1624 14.8629 80.357 15.0703 80.607 15.2152C80.857 15.3572 81.1496 15.4282 81.4848 15.4282C81.7093 15.4282 81.9124 15.397 82.0942 15.3345C82.276 15.2691 82.4337 15.174 82.5672 15.049C82.7007 14.924 82.8016 14.7691 82.8698 14.5845L84.3101 14.7464C84.2192 15.1271 84.0459 15.4595 83.7902 15.7436C83.5374 16.0248 83.2135 16.2436 82.8186 16.3998C82.4238 16.5532 81.9721 16.6299 81.4635 16.6299Z" fill="white"/>
</svg>
