<svg width="24" height="24" viewBox="8 0 24 24" fill="none" xmlns="http://www.w3.org/2000/svg">
    <path
        d="M13.6585 9.67188C13.6187 9.29972 13.4511 9.00994 13.1556 8.80256C12.863 8.59517 12.4823 8.49148 12.0136 8.49148C11.684 8.49148 11.4014 8.54119 11.1656 8.64062C10.9298 8.74006 10.7494 8.875 10.6244 9.04545C10.4994 9.21591 10.4355 9.41051 10.4326 9.62926C10.4326 9.81108 10.4738 9.96875 10.5562 10.1023C10.6414 10.2358 10.7565 10.3494 10.9014 10.4432C11.0463 10.5341 11.2068 10.6108 11.3829 10.6733C11.559 10.7358 11.7366 10.7884 11.9156 10.831L12.7338 11.0355C13.0633 11.1122 13.3801 11.2159 13.684 11.3466C13.9909 11.4773 14.265 11.642 14.5065 11.8409C14.7508 12.0398 14.944 12.2798 15.086 12.5611C15.2281 12.8423 15.2991 13.1719 15.2991 13.5497C15.2991 14.0611 15.1684 14.5114 14.907 14.9006C14.6457 15.2869 14.2678 15.5895 13.7735 15.8082C13.282 16.0241 12.6869 16.1321 11.988 16.1321C11.309 16.1321 10.7195 16.027 10.2195 15.8168C9.72239 15.6065 9.33318 15.2997 9.05193 14.8963C8.77352 14.4929 8.62296 14.0014 8.60023 13.4219H10.1556C10.1784 13.7259 10.2721 13.9787 10.4369 14.1804C10.6016 14.3821 10.8161 14.5327 11.0803 14.6321C11.3474 14.7315 11.6457 14.7812 11.9752 14.7812C12.319 14.7812 12.6201 14.7301 12.8786 14.6278C13.14 14.5227 13.3445 14.3778 13.4923 14.1932C13.64 14.0057 13.7153 13.7869 13.7181 13.5369C13.7153 13.3097 13.6485 13.1222 13.5178 12.9744C13.3872 12.8239 13.2039 12.6989 12.9681 12.5994C12.7352 12.4972 12.4624 12.4062 12.1499 12.3267L11.157 12.071C10.4383 11.8864 9.87012 11.6065 9.4525 11.2315C9.03773 10.8537 8.83034 10.3523 8.83034 9.72727C8.83034 9.21307 8.96955 8.76278 9.24796 8.37642C9.52921 7.99006 9.91131 7.69034 10.3943 7.47727C10.8772 7.26136 11.4241 7.15341 12.0349 7.15341C12.6542 7.15341 13.1968 7.26136 13.6627 7.47727C14.1315 7.69034 14.4994 7.98722 14.7664 8.3679C15.0335 8.74574 15.1713 9.1804 15.1798 9.67188H13.6585ZM19.9579 13.0682H21.3897L22.2377 14.1676L22.8429 14.8835L24.296 16.75H22.7619L21.7733 15.4972L21.3514 14.9006L19.9579 13.0682ZM24.5048 11.6364C24.5048 12.5767 24.3287 13.3821 23.9764 14.0526C23.627 14.7202 23.1497 15.2315 22.5446 15.5866C21.9423 15.9418 21.2591 16.1193 20.4949 16.1193C19.7306 16.1193 19.046 15.9418 18.4409 15.5866C17.8386 15.2287 17.3613 14.7159 17.0091 14.0483C16.6596 13.3778 16.4849 12.5739 16.4849 11.6364C16.4849 10.696 16.6596 9.89205 17.0091 9.22443C17.3613 8.55398 17.8386 8.04119 18.4409 7.68608C19.046 7.33097 19.7306 7.15341 20.4949 7.15341C21.2591 7.15341 21.9423 7.33097 22.5446 7.68608C23.1497 8.04119 23.627 8.55398 23.9764 9.22443C24.3287 9.89205 24.5048 10.696 24.5048 11.6364ZM22.9153 11.6364C22.9153 10.9744 22.8116 10.4162 22.6042 9.96165C22.3997 9.50426 22.1156 9.15909 21.752 8.92614C21.3883 8.69034 20.9693 8.57244 20.4949 8.57244C20.0204 8.57244 19.6014 8.69034 19.2377 8.92614C18.8741 9.15909 18.5886 9.50426 18.3812 9.96165C18.1767 10.4162 18.0744 10.9744 18.0744 11.6364C18.0744 12.2983 18.1767 12.858 18.3812 13.3153C18.5886 13.7699 18.8741 14.1151 19.2377 14.3509C19.6014 14.5838 20.0204 14.7003 20.4949 14.7003C20.9693 14.7003 21.3883 14.5838 21.752 14.3509C22.1156 14.1151 22.3997 13.7699 22.6042 13.3153C22.8116 12.858 22.9153 12.2983 22.9153 11.6364ZM26.0091 16V7.27273H27.5901V14.6747H31.4339V16H26.0091Z"
        fill="white" />
</svg>