<svg width="13" height="14" viewBox="0 0 13 14" fill="none" xmlns="http://www.w3.org/2000/svg">
<g clip-path="url(#clip0_2043_3862)">
<path d="M6.16201 4.8596H6.83791V6.70296H8.53908V7.35854H6.83791V9.2019H6.16201V7.35854H4.48242V6.70296H6.16201V4.8596Z" fill="white"/>
<path d="M3.02803 2.19661H3.6016V3.83532H5.11742V4.34745H3.6016V6.00647H3.02803V4.34745H1.51221V3.83532H3.02803V2.19661Z" fill="white"/>
<path d="M9.39839 8.11717H9.97196V9.75486H11.5081V10.2467H9.97196V11.9057H9.39839V10.2467H7.88257V9.75486H9.39839V8.11717Z" fill="white"/>
<path d="M6.26448 0.906267H6.75604V2.07424H7.80087V2.50385H6.75604V3.67181H6.26448V2.50385H5.24048V2.07424H6.26448V0.906267Z" fill="white"/>
<path d="M3.04859 8.11717H3.5818V9.77543H5.11818V10.2467H3.58002V11.9057H3.04682V10.2467H1.51221V9.77543H3.04859V8.11717Z" fill="white"/>
<path d="M11.0633 5.65835H11.5549V6.8055H12.5939V7.25593H11.5549V8.40308H11.0633V7.25593H10.0393V6.8055H11.0633V5.65835Z" fill="white"/>
<path fill-rule="evenodd" clip-rule="evenodd" d="M9.39839 2.19661H9.97196V3.83532H11.5081V4.34745H9.97196V6.00647H9.39839V4.34745H7.88257V3.83532H9.39839V2.19661Z" fill="white"/>
<path d="M7.79492 11.6191V11.9672H6.77066V13.0938H6.40199V11.9672H5.37799V11.6191H6.40199V10.4925H6.77066V11.6191H7.79492ZM1.42467 5.74037H1.79334V6.86695H2.81836V7.21506H1.79334V8.32031H1.42467V7.2143H0.40625V6.84563L1.42467 6.84766V5.74037Z" fill="white"/>
</g>
<defs>
<clipPath id="clip0_2043_3862">
<rect width="13" height="13" fill="white" transform="matrix(1 0 0 -1 0 13.5)"/>
</clipPath>
</defs>
</svg>
