<svg width="84" height="24" viewBox="8 0 84 24" fill="none" xmlns="http://www.w3.org/2000/svg">
    <mask id="mask0_1618_1436" style="mask-type:alpha" maskUnits="userSpaceOnUse" x="14" y="5" width="6" height="14">
        <path
            d="M19.616 8.6635L14.0551 5.5V18.5L16.2795 17.2148V13.557L17.9601 14.5209L17.9354 12.0247L16.2795 11.0608V9.60266L19.616 11.5551V8.6635Z"
            fill="white" />
    </mask>
    <g mask="url(#mask0_1618_1436)">
        <path d="M7.48092 5.45058H21.1235V18.5247H7.48092V5.45058Z" fill="#171615" />
    </g>
    <mask id="mask1_1618_1436" style="mask-type:alpha" maskUnits="userSpaceOnUse" x="8" y="5" width="6" height="14">
        <path d="M8 8.6635L13.5608 5.5V18.5L11.3365 17.2148V9.60266L8 11.5551V8.6635Z" fill="white" />
    </mask>
    <g mask="url(#mask1_1618_1436)">
        <path d="M7.40687 5.45058H21.0495V18.5247H7.40687V5.45058Z" fill="#171615" />
    </g>
    <path
        d="M24.4227 8.59801V7.27273H31.3858V8.59801H28.6884V16H27.1202V8.59801H24.4227ZM34.6064 16.1278C33.9502 16.1278 33.3834 15.9915 32.9061 15.7188C32.4317 15.4432 32.0666 15.054 31.811 14.5511C31.5553 14.0455 31.4274 13.4503 31.4274 12.7656C31.4274 12.0923 31.5553 11.5014 31.811 10.9929C32.0695 10.4815 32.4303 10.0838 32.8933 9.79972C33.3564 9.51278 33.9004 9.36932 34.5254 9.36932C34.9289 9.36932 35.3095 9.43466 35.6675 9.56534C36.0283 9.69318 36.3465 9.89205 36.622 10.1619C36.9004 10.4318 37.1192 10.7756 37.2783 11.1932C37.4374 11.608 37.5169 12.1023 37.5169 12.6761V13.1491H32.1519V12.1094H36.0382C36.0354 11.8139 35.9715 11.5511 35.8465 11.321C35.7215 11.0881 35.5468 10.9048 35.3223 10.7713C35.1007 10.6378 34.8422 10.571 34.5468 10.571C34.2314 10.571 33.9544 10.6477 33.7158 10.8011C33.4772 10.9517 33.2911 11.1506 33.1576 11.3977C33.0269 11.642 32.9601 11.9105 32.9573 12.2031V13.1108C32.9573 13.4915 33.0269 13.8182 33.1661 14.0909C33.3053 14.3608 33.4999 14.5682 33.7499 14.7131C33.9999 14.8551 34.2925 14.9261 34.6277 14.9261C34.8522 14.9261 35.0553 14.8949 35.2371 14.8324C35.4189 14.767 35.5766 14.6719 35.7101 14.5469C35.8436 14.4219 35.9445 14.267 36.0127 14.0824L37.453 14.2443C37.3621 14.625 37.1888 14.9574 36.9331 15.2415C36.6803 15.5227 36.3564 15.7415 35.9615 15.8977C35.5666 16.0511 35.1149 16.1278 34.6064 16.1278ZM40.3625 12.1648V16H38.8199V9.45455H40.2944V10.5668H40.3711C40.5216 10.2003 40.7617 9.90909 41.0912 9.69318C41.4236 9.47727 41.8341 9.36932 42.3228 9.36932C42.7745 9.36932 43.1679 9.46591 43.5032 9.65909C43.8412 9.85227 44.1026 10.1321 44.2873 10.4986C44.4748 10.8651 44.5671 11.3097 44.5642 11.8324V16H43.0216V12.071C43.0216 11.6335 42.908 11.2912 42.6807 11.044C42.4563 10.7969 42.1452 10.6733 41.7475 10.6733C41.4776 10.6733 41.2375 10.733 41.0273 10.8523C40.8199 10.9687 40.6566 11.1378 40.5373 11.3594C40.4208 11.581 40.3625 11.8494 40.3625 12.1648ZM51.3037 11.1847L49.8974 11.3381C49.8577 11.196 49.7881 11.0625 49.6886 10.9375C49.592 10.8125 49.4614 10.7116 49.2966 10.6349C49.1318 10.5582 48.9301 10.5199 48.6915 10.5199C48.3704 10.5199 48.1006 10.5895 47.8818 10.7287C47.6659 10.8679 47.5594 11.0483 47.5622 11.2699C47.5594 11.4602 47.629 11.6151 47.771 11.7344C47.9159 11.8537 48.1545 11.9517 48.4869 12.0284L49.6034 12.267C50.2227 12.4006 50.6829 12.6122 50.9841 12.902C51.2881 13.1918 51.4415 13.571 51.4443 14.0398C51.4415 14.4517 51.3207 14.8153 51.0821 15.1307C50.8463 15.4432 50.5182 15.6875 50.0977 15.8636C49.6773 16.0398 49.1943 16.1278 48.6489 16.1278C47.8477 16.1278 47.2028 15.9602 46.7142 15.625C46.2256 15.2869 45.9344 14.8168 45.8406 14.2145L47.3449 14.0696C47.4131 14.3651 47.5579 14.5881 47.7795 14.7386C48.0011 14.8892 48.2895 14.9645 48.6446 14.9645C49.0111 14.9645 49.3051 14.8892 49.5267 14.7386C49.7511 14.5881 49.8633 14.402 49.8633 14.1804C49.8633 13.9929 49.7909 13.8381 49.646 13.7159C49.504 13.5937 49.2824 13.5 48.9812 13.4347L47.8648 13.2003C47.2369 13.0696 46.7724 12.8494 46.4713 12.5398C46.1702 12.2273 46.021 11.8324 46.0239 11.3551C46.021 10.9517 46.1304 10.6023 46.352 10.3068C46.5764 10.0085 46.8875 9.77841 47.2852 9.61648C47.6858 9.4517 48.1474 9.36932 48.6702 9.36932C49.4372 9.36932 50.0409 9.53267 50.4812 9.85938C50.9244 10.1861 51.1986 10.6278 51.3037 11.1847ZM55.5694 16.1278C54.9302 16.1278 54.3762 15.9872 53.9075 15.706C53.4387 15.4247 53.0751 15.0312 52.8166 14.5256C52.5609 14.0199 52.433 13.429 52.433 12.7528C52.433 12.0767 52.5609 11.4844 52.8166 10.9759C53.0751 10.4673 53.4387 10.0724 53.9075 9.79119C54.3762 9.50994 54.9302 9.36932 55.5694 9.36932C56.2086 9.36932 56.7626 9.50994 57.2313 9.79119C57.7001 10.0724 58.0623 10.4673 58.318 10.9759C58.5765 11.4844 58.7058 12.0767 58.7058 12.7528C58.7058 13.429 58.5765 14.0199 58.318 14.5256C58.0623 15.0312 57.7001 15.4247 57.2313 15.706C56.7626 15.9872 56.2086 16.1278 55.5694 16.1278ZM55.5779 14.892C55.9245 14.892 56.2143 14.7969 56.4472 14.6065C56.6802 14.4134 56.8535 14.1548 56.9671 13.831C57.0836 13.5071 57.1418 13.1463 57.1418 12.7486C57.1418 12.348 57.0836 11.9858 56.9671 11.6619C56.8535 11.3352 56.6802 11.0753 56.4472 10.8821C56.2143 10.6889 55.9245 10.5923 55.5779 10.5923C55.2228 10.5923 54.9274 10.6889 54.6916 10.8821C54.4586 11.0753 54.2839 11.3352 54.1674 11.6619C54.0538 11.9858 53.997 12.348 53.997 12.7486C53.997 13.1463 54.0538 13.5071 54.1674 13.831C54.2839 14.1548 54.4586 14.4134 54.6916 14.6065C54.9274 14.7969 55.2228 14.892 55.5779 14.892ZM60.013 16V9.45455H61.5088V10.5455H61.5769C61.6963 10.1676 61.9008 9.87642 62.1906 9.67188C62.4832 9.46449 62.817 9.3608 63.192 9.3608C63.2772 9.3608 63.3724 9.36506 63.4775 9.37358C63.5855 9.37926 63.675 9.3892 63.746 9.40341V10.8224C63.6806 10.7997 63.5769 10.7798 63.4349 10.7628C63.2957 10.7429 63.1608 10.733 63.0301 10.733C62.7488 10.733 62.496 10.794 62.2715 10.9162C62.05 11.0355 61.8752 11.2017 61.7474 11.4148C61.6196 11.6278 61.5556 11.8736 61.5556 12.152V16H60.013ZM64.837 16V7.27273H70.4279V8.59801H66.4179V10.9673H70.0444V12.2926H66.4179V16H64.837ZM73.3406 7.27273V16H71.798V7.27273H73.3406ZM77.78 16.1278C77.1408 16.1278 76.5868 15.9872 76.1181 15.706C75.6493 15.4247 75.2857 15.0312 75.0271 14.5256C74.7715 14.0199 74.6436 13.429 74.6436 12.7528C74.6436 12.0767 74.7715 11.4844 75.0271 10.9759C75.2857 10.4673 75.6493 10.0724 76.1181 9.79119C76.5868 9.50994 77.1408 9.36932 77.78 9.36932C78.4192 9.36932 78.9732 9.50994 79.4419 9.79119C79.9107 10.0724 80.2729 10.4673 80.5286 10.9759C80.7871 11.4844 80.9164 12.0767 80.9164 12.7528C80.9164 13.429 80.7871 14.0199 80.5286 14.5256C80.2729 15.0312 79.9107 15.4247 79.4419 15.706C78.9732 15.9872 78.4192 16.1278 77.78 16.1278ZM77.7885 14.892C78.1351 14.892 78.4249 14.7969 78.6578 14.6065C78.8908 14.4134 79.0641 14.1548 79.1777 13.831C79.2942 13.5071 79.3524 13.1463 79.3524 12.7486C79.3524 12.348 79.2942 11.9858 79.1777 11.6619C79.0641 11.3352 78.8908 11.0753 78.6578 10.8821C78.4249 10.6889 78.1351 10.5923 77.7885 10.5923C77.4334 10.5923 77.1379 10.6889 76.9021 10.8821C76.6692 11.0753 76.4945 11.3352 76.378 11.6619C76.2644 11.9858 76.2075 12.348 76.2075 12.7486C76.2075 13.1463 76.2644 13.5071 76.378 13.831C76.4945 14.1548 76.6692 14.4134 76.9021 14.6065C77.1379 14.7969 77.4334 14.892 77.7885 14.892ZM83.387 16L81.5375 9.45455H83.11L84.2605 14.0568H84.3202L85.4963 9.45455H87.0517L88.2279 14.0312H88.2918L89.4253 9.45455H91.002L89.1483 16H87.5418L86.3145 11.5767H86.225L84.9978 16H83.387Z"
        fill="#171615" />
</svg>