<svg width="116" height="13" viewBox="0 0 116 13" fill="none" xmlns="http://www.w3.org/2000/svg">
  <g clip-path="url(#clip0_1762_4251)">
    <path fill-rule="evenodd" clip-rule="evenodd"
      d="M1.36931 1.70358C0.907814 1.70358 0.533694 1.32947 0.533694 0.867963C0.533694 0.406462 0.907814 0.032341 1.36931 0.032341C1.83082 0.032341 2.20494 0.406462 2.20494 0.867963C2.20494 1.32947 1.83082 1.70358 1.36931 1.70358ZM1.36932 5.54743C0.630933 5.54743 0.0323486 4.94885 0.0323486 4.21046C0.0323486 3.47207 0.630933 2.87348 1.36932 2.87348C2.10771 2.87348 2.70629 3.47207 2.70629 4.21046C2.70629 4.94885 2.10771 5.54743 1.36932 5.54743ZM1.36932 12.2323C0.630933 12.2323 0.0323486 11.6337 0.0323486 10.8954C0.0323486 10.157 0.630933 9.55835 1.36932 9.55835C2.10771 9.55835 2.70629 10.157 2.70629 10.8954C2.70629 11.6337 2.10771 12.2323 1.36932 12.2323ZM0.533694 7.55296C0.533694 8.01446 0.907814 8.38858 1.36931 8.38858C1.83082 8.38858 2.20494 8.01446 2.20494 7.55296C2.20494 7.09146 1.83082 6.71734 1.36931 6.71734C0.907814 6.71734 0.533694 7.09146 0.533694 7.55296ZM5.16301 8.78956C5.16301 9.52795 5.76159 10.1265 6.49998 10.1265C7.23838 10.1265 7.83697 9.52795 7.83697 8.78956C7.83697 8.05117 7.23838 7.45259 6.49998 7.45259C5.76159 7.45259 5.16301 8.05117 5.16301 8.78956ZM6.49999 12.9677C6.03848 12.9677 5.66437 12.5936 5.66437 12.1321C5.66437 11.6706 6.03848 11.2964 6.49999 11.2964C6.96149 11.2964 7.33561 11.6706 7.33561 12.1321C7.33561 12.5936 6.96149 12.9677 6.49999 12.9677ZM5.66437 5.44718C5.66437 5.90868 6.03848 6.2828 6.49999 6.2828C6.96149 6.2828 7.33561 5.90868 7.33561 5.44718C7.33561 4.98568 6.96149 4.61156 6.49999 4.61156C6.03848 4.61156 5.66437 4.98568 5.66437 5.44718ZM6.49999 2.9403C6.03848 2.9403 5.66437 2.56618 5.66437 2.10468C5.66437 1.64318 6.03848 1.26906 6.49999 1.26906C6.96149 1.26906 7.33561 1.64318 7.33561 2.10468C7.33561 2.56618 6.96149 2.9403 6.49999 2.9403ZM10.2937 4.21046C10.2937 4.94885 10.8923 5.54743 11.6307 5.54743C12.3691 5.54743 12.9677 4.94885 12.9677 4.21046C12.9677 3.47207 12.3691 2.87348 11.6307 2.87348C10.8923 2.87348 10.2937 3.47207 10.2937 4.21046ZM11.6307 1.70358C11.1692 1.70358 10.7951 1.32947 10.7951 0.867963C10.7951 0.406462 11.1692 0.032341 11.6307 0.032341C12.0922 0.032341 12.4663 0.406462 12.4663 0.867963C12.4663 1.32947 12.0922 1.70358 11.6307 1.70358ZM10.7951 7.55296C10.7951 8.01446 11.1692 8.38858 11.6307 8.38858C12.0922 8.38858 12.4663 8.01446 12.4663 7.55296C12.4663 7.09146 12.0922 6.71734 11.6307 6.71734C11.1692 6.71734 10.7951 7.09146 10.7951 7.55296ZM11.6307 11.7309C11.1692 11.7309 10.7951 11.3569 10.7951 10.8954C10.7951 10.4339 11.1692 10.0597 11.6307 10.0597C12.0922 10.0597 12.4663 10.4339 12.4663 10.8954C12.4663 11.3569 12.0922 11.7309 11.6307 11.7309Z"
      fill="white" />
  </g>
  <path
    d="M19.4631 10.4091L17 1.68182H18.7003L20.2727 8.09517H20.3537L22.0327 1.68182H23.5795L25.2628 8.09943H25.3395L26.9119 1.68182H28.6122L26.1491 10.4091H24.5895L22.8423 4.28551H22.7741L21.0227 10.4091H19.4631Z"
    fill="white" />
  <path
    d="M31.868 10.5369C31.2117 10.5369 30.645 10.4006 30.1677 10.1278C29.6933 9.85227 29.3282 9.46307 29.0725 8.96023C28.8169 8.45454 28.689 7.85937 28.689 7.17471C28.689 6.50142 28.8169 5.91051 29.0725 5.40199C29.3311 4.89062 29.6919 4.4929 30.1549 4.2088C30.618 3.92187 31.162 3.77841 31.787 3.77841C32.1904 3.77841 32.5711 3.84375 32.9291 3.97443C33.2899 4.10227 33.608 4.30113 33.8836 4.57102C34.162 4.84091 34.3808 5.18466 34.5399 5.60227C34.699 6.01704 34.7785 6.51136 34.7785 7.08523V7.55824H29.4134V6.51846H33.2998C33.297 6.22301 33.233 5.96023 33.108 5.73011C32.983 5.49716 32.8083 5.31392 32.5839 5.1804C32.3623 5.04687 32.1038 4.98011 31.8083 4.98011C31.493 4.98011 31.216 5.05682 30.9774 5.21023C30.7387 5.36079 30.5526 5.55966 30.4191 5.80682C30.2884 6.05113 30.2217 6.3196 30.2188 6.61221V7.51988C30.2188 7.90057 30.2884 8.22727 30.4276 8.5C30.5669 8.76988 30.7615 8.97727 31.0115 9.12216C31.2615 9.2642 31.5541 9.33523 31.8893 9.33523C32.1137 9.33523 32.3169 9.30398 32.4987 9.24148C32.6805 9.17613 32.8382 9.08096 32.9717 8.95596C33.1052 8.83096 33.2061 8.67613 33.2742 8.49148L34.7146 8.65341C34.6237 9.03409 34.4504 9.36648 34.1947 9.65057C33.9419 9.93182 33.618 10.1506 33.2231 10.3068C32.8282 10.4602 32.3765 10.5369 31.868 10.5369Z"
    fill="white" />
  <path
    d="M36.0815 10.4091V3.86363H37.6241V10.4091H36.0815ZM36.8571 2.93466C36.6128 2.93466 36.4025 2.85369 36.2264 2.69176C36.0503 2.52699 35.9622 2.32954 35.9622 2.09943C35.9622 1.86648 36.0503 1.66903 36.2264 1.5071C36.4025 1.34233 36.6128 1.25994 36.8571 1.25994C37.1042 1.25994 37.3145 1.34233 37.4878 1.5071C37.6639 1.66903 37.752 1.86648 37.752 2.09943C37.752 2.32954 37.6639 2.52699 37.4878 2.69176C37.3145 2.85369 37.1042 2.93466 36.8571 2.93466Z"
    fill="white" />
  <path
    d="M42.055 13C41.501 13 41.0251 12.9247 40.6274 12.7741C40.2297 12.6264 39.9101 12.4276 39.6686 12.1776C39.4271 11.9276 39.2595 11.6506 39.1658 11.3466L40.555 11.0099C40.6175 11.1378 40.7084 11.2642 40.8277 11.3892C40.947 11.517 41.1075 11.6222 41.3092 11.7045C41.5138 11.7898 41.7709 11.8324 42.0805 11.8324C42.518 11.8324 42.8802 11.7259 43.1672 11.5128C43.4541 11.3026 43.5976 10.956 43.5976 10.473V9.23295H43.5209C43.4413 9.39204 43.3248 9.5554 43.1714 9.72301C43.0209 9.89062 42.8206 10.0312 42.5706 10.1449C42.3234 10.2585 42.0123 10.3153 41.6373 10.3153C41.1345 10.3153 40.6785 10.1974 40.2694 9.96165C39.8632 9.72301 39.5393 9.3679 39.2979 8.89631C39.0592 8.42187 38.9399 7.82812 38.9399 7.11506C38.9399 6.39631 39.0592 5.78977 39.2979 5.29545C39.5393 4.79829 39.8646 4.42187 40.2737 4.16619C40.6828 3.90767 41.1388 3.77841 41.6416 3.77841C42.0251 3.77841 42.3405 3.84375 42.5876 3.97443C42.8376 4.10227 43.0365 4.2571 43.1842 4.43892C43.3319 4.6179 43.4442 4.78693 43.5209 4.94602H43.6061V3.86363H45.1274V10.5156C45.1274 11.0753 44.9939 11.5384 44.7268 11.9048C44.4598 12.2713 44.0947 12.5455 43.6317 12.7273C43.1686 12.9091 42.643 13 42.055 13ZM42.0677 9.10511C42.3944 9.10511 42.6729 9.02557 42.903 8.86648C43.1331 8.70738 43.3078 8.47869 43.4271 8.1804C43.5464 7.8821 43.6061 7.52415 43.6061 7.10653C43.6061 6.6946 43.5464 6.33381 43.4271 6.02415C43.3106 5.71449 43.1373 5.47443 42.9072 5.30398C42.68 5.13068 42.4001 5.04403 42.0677 5.04403C41.724 5.04403 41.4371 5.13352 41.2069 5.3125C40.9768 5.49148 40.8035 5.73721 40.6871 6.04971C40.5706 6.35937 40.5123 6.71165 40.5123 7.10653C40.5123 7.5071 40.5706 7.85795 40.6871 8.15909C40.8064 8.45738 40.9811 8.69034 41.2112 8.85795C41.4442 9.02273 41.7297 9.10511 42.0677 9.10511Z"
    fill="white" />
  <path
    d="M48.2489 6.57386V10.4091H46.7063V1.68182H48.2149V4.97585H48.2916C48.445 4.60653 48.6822 4.31534 49.0032 4.10227C49.3271 3.88636 49.739 3.77841 50.239 3.77841C50.6935 3.77841 51.0899 3.87358 51.4279 4.06392C51.766 4.25426 52.0273 4.53267 52.212 4.89915C52.3995 5.26562 52.4933 5.71307 52.4933 6.24148V10.4091H50.9506V6.48011C50.9506 6.03977 50.837 5.69744 50.6097 5.45312C50.3853 5.20596 50.07 5.08238 49.6637 5.08238C49.391 5.08238 49.1467 5.14204 48.9308 5.26136C48.7177 5.37784 48.5501 5.54687 48.4279 5.76846C48.3086 5.99005 48.2489 6.25852 48.2489 6.57386Z"
    fill="white" />
  <path
    d="M57.3321 3.86363V5.05682H53.5693V3.86363H57.3321ZM54.4983 2.29545H56.0409V8.44034C56.0409 8.64773 56.0722 8.80682 56.1347 8.91761C56.2 9.02557 56.2853 9.09943 56.3904 9.1392C56.4955 9.17898 56.612 9.19886 56.7398 9.19886C56.8364 9.19886 56.9245 9.19176 57.004 9.17756C57.0864 9.16335 57.1489 9.15057 57.1915 9.1392L57.4514 10.3452C57.3691 10.3736 57.2512 10.4048 57.0978 10.4389C56.9472 10.473 56.7625 10.4929 56.5438 10.4986C56.1574 10.5099 55.8094 10.4517 55.4997 10.3239C55.1901 10.1932 54.9443 9.99148 54.7625 9.71875C54.5836 9.44602 54.4955 9.10511 54.4983 8.69602V2.29545Z"
    fill="white" />
  <path
    d="M63.6998 5.59375L62.2935 5.74716C62.2537 5.60511 62.1841 5.47159 62.0847 5.34659C61.9881 5.22159 61.8574 5.12074 61.6927 5.04403C61.5279 4.96733 61.3262 4.92898 61.0875 4.92898C60.7665 4.92898 60.4966 4.99858 60.2779 5.13778C60.062 5.27699 59.9554 5.45738 59.9583 5.67898C59.9554 5.86932 60.025 6.02415 60.1671 6.14346C60.312 6.26278 60.5506 6.36079 60.883 6.4375L61.9995 6.67613C62.6188 6.80966 63.079 7.02131 63.3802 7.31108C63.6841 7.60085 63.8375 7.98011 63.8404 8.44886C63.8375 8.86079 63.7168 9.22443 63.4782 9.53977C63.2424 9.85227 62.9143 10.0966 62.4938 10.2727C62.0733 10.4489 61.5904 10.5369 61.0449 10.5369C60.2438 10.5369 59.5989 10.3693 59.1103 10.0341C58.6216 9.69602 58.3304 9.22585 58.2367 8.62358L59.741 8.47869C59.8091 8.77415 59.954 8.99716 60.1756 9.14773C60.3972 9.29829 60.6856 9.37358 61.0407 9.37358C61.4071 9.37358 61.7012 9.29829 61.9228 9.14773C62.1472 8.99716 62.2594 8.81108 62.2594 8.58949C62.2594 8.40199 62.187 8.24716 62.0421 8.125C61.9 8.00284 61.6785 7.90909 61.3773 7.84375L60.2608 7.60937C59.633 7.47869 59.1685 7.25852 58.8674 6.94886C58.5662 6.63636 58.4171 6.24148 58.4199 5.7642C58.4171 5.36079 58.5265 5.01136 58.7481 4.71591C58.9725 4.41761 59.2836 4.1875 59.6813 4.02557C60.0819 3.86079 60.5435 3.77841 61.0662 3.77841C61.8333 3.77841 62.437 3.94176 62.8773 4.26846C63.3205 4.59517 63.5946 5.03693 63.6998 5.59375Z"
    fill="white" />
  <path
    d="M70.6928 10.5369C70.0963 10.5369 69.5835 10.429 69.1545 10.2131C68.7255 9.99716 68.3945 9.70596 68.1616 9.33949C67.9315 8.97017 67.8164 8.55398 67.8164 8.09091C67.8164 7.74148 67.8874 7.43182 68.0295 7.16193C68.1744 6.89204 68.3732 6.64204 68.6261 6.41193C68.8818 6.18182 69.1772 5.95312 69.5124 5.72585L71.0593 4.67329C71.2866 4.52557 71.4585 4.36932 71.5749 4.20454C71.6943 4.03977 71.7539 3.84659 71.7539 3.625C71.7539 3.4375 71.6744 3.25994 71.5153 3.09233C71.359 2.92471 71.1431 2.84091 70.8676 2.84091C70.6829 2.84091 70.5195 2.88494 70.3775 2.97301C70.2383 3.05824 70.1289 3.17045 70.0494 3.30966C69.9727 3.44886 69.9343 3.59659 69.9343 3.75284C69.9343 3.94318 69.9869 4.13636 70.092 4.33238C70.1999 4.52841 70.3392 4.73153 70.5096 4.94176C70.6829 5.15199 70.8676 5.375 71.0636 5.61079L75.1588 10.4091H73.4883L70.0877 6.5142C69.8349 6.21875 69.5906 5.92755 69.3548 5.64062C69.1218 5.35369 68.9301 5.0554 68.7795 4.74574C68.6318 4.43324 68.5579 4.09517 68.5579 3.73153C68.5579 3.3196 68.6531 2.9517 68.8434 2.62784C69.0338 2.30113 69.2994 2.04403 69.6403 1.85653C69.984 1.66903 70.386 1.57528 70.8463 1.57528C71.3065 1.57528 71.7014 1.66619 72.0309 1.84801C72.3605 2.02983 72.6147 2.2713 72.7937 2.57244C72.9727 2.87358 73.0622 3.2017 73.0622 3.55682C73.0622 3.96875 72.9599 4.33807 72.7553 4.66477C72.5508 4.98863 72.2667 5.28267 71.9031 5.54687L70.1389 6.83807C69.8491 7.04829 69.6417 7.26136 69.5167 7.47727C69.3917 7.69034 69.3292 7.87216 69.3292 8.02273C69.3292 8.25284 69.3874 8.46165 69.5039 8.64915C69.6204 8.83665 69.7838 8.98721 69.994 9.10085C70.207 9.21165 70.4556 9.26704 70.7397 9.26704C71.0522 9.26704 71.3605 9.19744 71.6644 9.05824C71.9684 8.91619 72.2454 8.71449 72.4954 8.45312C72.7454 8.19176 72.9443 7.87926 73.092 7.51562C73.2397 7.14915 73.3136 6.7429 73.3136 6.29687H74.6389C74.6389 6.84801 74.5778 7.32812 74.4556 7.73721C74.3335 8.14346 74.1758 8.48721 73.9826 8.76846C73.7894 9.04687 73.5849 9.26988 73.369 9.4375C73.3008 9.48579 73.2355 9.53409 73.173 9.58238C73.1105 9.63068 73.0451 9.67898 72.9769 9.72727C72.6701 10.0057 72.3107 10.2102 71.8988 10.3409C71.4897 10.4716 71.0877 10.5369 70.6928 10.5369Z"
    fill="white" />
  <path
    d="M79.0826 10.4091V1.68182H82.4235C83.0542 1.68182 83.5783 1.78125 83.9959 1.98011C84.4164 2.17613 84.7303 2.4446 84.9377 2.78551C85.1479 3.12642 85.253 3.51278 85.253 3.9446C85.253 4.29971 85.1849 4.60369 85.0485 4.85653C84.9121 5.10653 84.7289 5.30966 84.4988 5.46591C84.2687 5.62216 84.0116 5.73437 83.7275 5.80256V5.88778C84.0371 5.90483 84.334 6 84.6181 6.17329C84.905 6.34375 85.1394 6.58523 85.3212 6.89773C85.503 7.21023 85.5939 7.58807 85.5939 8.03125C85.5939 8.48295 85.4846 8.8892 85.2658 9.25C85.0471 9.60795 84.7175 9.89062 84.2772 10.098C83.8369 10.3054 83.2829 10.4091 82.6152 10.4091H79.0826ZM80.6635 9.08807H82.3638C82.9377 9.08807 83.351 8.97869 83.6039 8.75994C83.8596 8.53835 83.9874 8.25426 83.9874 7.90767C83.9874 7.64915 83.9235 7.41619 83.7957 7.20881C83.6678 6.99858 83.486 6.83381 83.2502 6.71449C83.0144 6.59233 82.7332 6.53125 82.4064 6.53125H80.6635V9.08807ZM80.6635 5.39346H82.2275C82.5002 5.39346 82.7459 5.34375 82.9647 5.24432C83.1834 5.14204 83.3553 4.99858 83.4803 4.81392C83.6082 4.62642 83.6721 4.40483 83.6721 4.14915C83.6721 3.81108 83.5528 3.53267 83.3141 3.31392C83.0783 3.09517 82.7275 2.98579 82.2616 2.98579H80.6635V5.39346Z"
    fill="white" />
  <path
    d="M86.8991 10.4091V3.86363H88.4417V10.4091H86.8991ZM87.6747 2.93466C87.4303 2.93466 87.2201 2.85369 87.044 2.69176C86.8678 2.52699 86.7798 2.32954 86.7798 2.09943C86.7798 1.86648 86.8678 1.66903 87.044 1.5071C87.2201 1.34233 87.4303 1.25994 87.6747 1.25994C87.9218 1.25994 88.132 1.34233 88.3053 1.5071C88.4815 1.66903 88.5695 1.86648 88.5695 2.09943C88.5695 2.32954 88.4815 2.52699 88.3053 2.69176C88.132 2.85369 87.9218 2.93466 87.6747 2.93466Z"
    fill="white" />
  <path
    d="M91.9095 10.5412C91.4947 10.5412 91.1211 10.4673 90.7887 10.3196C90.4592 10.169 90.1978 9.94744 90.0046 9.65483C89.8143 9.36221 89.7191 9.00142 89.7191 8.57244C89.7191 8.20312 89.7873 7.89773 89.9237 7.65625C90.06 7.41477 90.2461 7.22159 90.4819 7.0767C90.7177 6.93182 90.9833 6.82244 91.2788 6.74858C91.5771 6.67187 91.8853 6.61648 92.2035 6.58238C92.587 6.54261 92.8981 6.5071 93.1367 6.47585C93.3754 6.44176 93.5487 6.39062 93.6566 6.32244C93.7674 6.25142 93.8228 6.14204 93.8228 5.99432V5.96875C93.8228 5.64773 93.7276 5.39915 93.5373 5.22301C93.347 5.04687 93.0728 4.95881 92.7149 4.95881C92.337 4.95881 92.0373 5.04119 91.8157 5.20596C91.597 5.37074 91.4492 5.56534 91.3725 5.78977L89.9322 5.58523C90.0458 5.1875 90.2333 4.85511 90.4947 4.58807C90.7561 4.31818 91.0757 4.11648 91.4535 3.98295C91.8313 3.84659 92.249 3.77841 92.7063 3.77841C93.0217 3.77841 93.3356 3.81534 93.6481 3.8892C93.9606 3.96307 94.2461 4.08523 94.5046 4.25568C94.7632 4.42329 94.9705 4.65199 95.1268 4.94176C95.2859 5.23153 95.3654 5.59375 95.3654 6.02841V10.4091H93.8825V9.50994H93.8313C93.7376 9.69176 93.6055 9.86221 93.435 10.0213C93.2674 10.1776 93.0558 10.304 92.8001 10.4006C92.5473 10.4943 92.2504 10.5412 91.9095 10.5412ZM92.31 9.40767C92.6197 9.40767 92.8882 9.34659 93.1154 9.22443C93.3427 9.09943 93.5174 8.93466 93.6396 8.73011C93.7646 8.52557 93.8271 8.30256 93.8271 8.06108V7.28977C93.7788 7.32954 93.6964 7.36648 93.5799 7.40057C93.4663 7.43466 93.3384 7.46449 93.1964 7.49006C93.0544 7.51562 92.9137 7.53835 92.7745 7.55824C92.6353 7.57812 92.5146 7.59517 92.4123 7.60937C92.1822 7.64062 91.9762 7.69176 91.7944 7.76278C91.6126 7.8338 91.4691 7.93324 91.364 8.06108C91.2589 8.18608 91.2063 8.34801 91.2063 8.54687C91.2063 8.83096 91.31 9.04545 91.5174 9.19034C91.7248 9.33523 91.989 9.40767 92.31 9.40767Z"
    fill="white" />
  <path
    d="M102.088 5.59375L100.682 5.74716C100.642 5.60511 100.572 5.47159 100.473 5.34659C100.376 5.22159 100.246 5.12074 100.081 5.04403C99.916 4.96733 99.7143 4.92898 99.4756 4.92898C99.1546 4.92898 98.8847 4.99858 98.666 5.13778C98.45 5.27699 98.3435 5.45738 98.3464 5.67898C98.3435 5.86932 98.4131 6.02415 98.5552 6.14346C98.7 6.26278 98.9387 6.36079 99.2711 6.4375L100.388 6.67613C101.007 6.80966 101.467 7.02131 101.768 7.31108C102.072 7.60085 102.226 7.98011 102.228 8.44886C102.226 8.86079 102.105 9.22443 101.866 9.53977C101.63 9.85227 101.302 10.0966 100.882 10.2727C100.461 10.4489 99.9785 10.5369 99.433 10.5369C98.6319 10.5369 97.987 10.3693 97.4983 10.0341C97.0097 9.69602 96.7185 9.22585 96.6248 8.62358L98.129 8.47869C98.1972 8.77415 98.3421 8.99716 98.5637 9.14773C98.7853 9.29829 99.0736 9.37358 99.4287 9.37358C99.7952 9.37358 100.089 9.29829 100.311 9.14773C100.535 8.99716 100.647 8.81108 100.647 8.58949C100.647 8.40199 100.575 8.24716 100.43 8.125C100.288 8.00284 100.067 7.90909 99.7654 7.84375L98.6489 7.60937C98.0211 7.47869 97.5566 7.25852 97.2554 6.94886C96.9543 6.63636 96.8052 6.24148 96.808 5.7642C96.8052 5.36079 96.9145 5.01136 97.1361 4.71591C97.3606 4.41761 97.6716 4.1875 98.0694 4.02557C98.4699 3.86079 98.9316 3.77841 99.4543 3.77841C100.221 3.77841 100.825 3.94176 101.265 4.26846C101.709 4.59517 101.983 5.03693 102.088 5.59375Z"
    fill="white" />
  <path
    d="M106.396 10.5369C105.74 10.5369 105.173 10.4006 104.696 10.1278C104.221 9.85227 103.856 9.46307 103.601 8.96023C103.345 8.45454 103.217 7.85937 103.217 7.17471C103.217 6.50142 103.345 5.91051 103.601 5.40199C103.859 4.89062 104.22 4.4929 104.683 4.2088C105.146 3.92187 105.69 3.77841 106.315 3.77841C106.719 3.77841 107.099 3.84375 107.457 3.97443C107.818 4.10227 108.136 4.30113 108.412 4.57102C108.69 4.84091 108.909 5.18466 109.068 5.60227C109.227 6.01704 109.307 6.51136 109.307 7.08523V7.55824H103.942V6.51846H107.828C107.825 6.22301 107.761 5.96023 107.636 5.73011C107.511 5.49716 107.336 5.31392 107.112 5.1804C106.89 5.04687 106.632 4.98011 106.337 4.98011C106.021 4.98011 105.744 5.05682 105.506 5.21023C105.267 5.36079 105.081 5.55966 104.947 5.80682C104.817 6.05113 104.75 6.3196 104.747 6.61221V7.51988C104.747 7.90057 104.817 8.22727 104.956 8.5C105.095 8.76988 105.29 8.97727 105.54 9.12216C105.79 9.2642 106.082 9.33523 106.417 9.33523C106.642 9.33523 106.845 9.30398 107.027 9.24148C107.209 9.17613 107.366 9.08096 107.5 8.95596C107.633 8.83096 107.734 8.67613 107.802 8.49148L109.243 8.65341C109.152 9.03409 108.979 9.36648 108.723 9.65057C108.47 9.93182 108.146 10.1506 107.751 10.3068C107.356 10.4602 106.905 10.5369 106.396 10.5369Z"
    fill="white" />
  <path
    d="M115.783 5.59375L114.377 5.74716C114.337 5.60511 114.267 5.47159 114.168 5.34659C114.071 5.22159 113.941 5.12074 113.776 5.04403C113.611 4.96733 113.409 4.92898 113.171 4.92898C112.85 4.92898 112.58 4.99858 112.361 5.13778C112.145 5.27699 112.039 5.45738 112.041 5.67898C112.039 5.86932 112.108 6.02415 112.25 6.14346C112.395 6.26278 112.634 6.36079 112.966 6.4375L114.083 6.67613C114.702 6.80966 115.162 7.02131 115.463 7.31108C115.767 7.60085 115.921 7.98011 115.924 8.44886C115.921 8.86079 115.8 9.22443 115.561 9.53977C115.326 9.85227 114.997 10.0966 114.577 10.2727C114.157 10.4489 113.674 10.5369 113.128 10.5369C112.327 10.5369 111.682 10.3693 111.193 10.0341C110.705 9.69602 110.414 9.22585 110.32 8.62358L111.824 8.47869C111.892 8.77415 112.037 8.99716 112.259 9.14773C112.48 9.29829 112.769 9.37358 113.124 9.37358C113.49 9.37358 113.784 9.29829 114.006 9.14773C114.23 8.99716 114.343 8.81108 114.343 8.58949C114.343 8.40199 114.27 8.24716 114.125 8.125C113.983 8.00284 113.762 7.90909 113.461 7.84375L112.344 7.60937C111.716 7.47869 111.252 7.25852 110.951 6.94886C110.649 6.63636 110.5 6.24148 110.503 5.7642C110.5 5.36079 110.61 5.01136 110.831 4.71591C111.056 4.41761 111.367 4.1875 111.764 4.02557C112.165 3.86079 112.627 3.77841 113.149 3.77841C113.916 3.77841 114.52 3.94176 114.961 4.26846C115.404 4.59517 115.678 5.03693 115.783 5.59375Z"
    fill="white" />
  <defs>
    <clipPath id="clip0_1762_4251">
      <rect width="13" height="13" fill="white" />
    </clipPath>
  </defs>
</svg>