<svg width="13" height="14" viewBox="0 0 13 14" fill="none" xmlns="http://www.w3.org/2000/svg">
<g clip-path="url(#clip0_1762_4193)">
<path fill-rule="evenodd" clip-rule="evenodd" d="M1.36919 2.20359C0.907692 2.20359 0.533572 1.82947 0.533572 1.36797C0.533572 0.90647 0.907692 0.532349 1.36919 0.532349C1.8307 0.532349 2.20482 0.90647 2.20482 1.36797C2.20482 1.82947 1.8307 2.20359 1.36919 2.20359ZM1.3692 6.04744C0.630811 6.04744 0.0322266 5.44886 0.0322266 4.71047C0.0322266 3.97208 0.630811 3.37348 1.3692 3.37348C2.10759 3.37348 2.70617 3.97208 2.70617 4.71047C2.70617 5.44886 2.10759 6.04744 1.3692 6.04744ZM1.3692 12.7323C0.630811 12.7323 0.0322266 12.1337 0.0322266 11.3954C0.0322266 10.657 0.630811 10.0584 1.3692 10.0584C2.10759 10.0584 2.70617 10.657 2.70617 11.3954C2.70617 12.1337 2.10759 12.7323 1.3692 12.7323ZM0.533572 8.05297C0.533572 8.51447 0.907692 8.88859 1.36919 8.88859C1.8307 8.88859 2.20482 8.51447 2.20482 8.05297C2.20482 7.59147 1.8307 7.21735 1.36919 7.21735C0.907692 7.21735 0.533572 7.59147 0.533572 8.05297ZM5.16289 9.28957C5.16289 10.028 5.76147 10.6265 6.49986 10.6265C7.23825 10.6265 7.83684 10.028 7.83684 9.28957C7.83684 8.55118 7.23825 7.9526 6.49986 7.9526C5.76147 7.9526 5.16289 8.55118 5.16289 9.28957ZM6.49987 13.4677C6.03836 13.4677 5.66424 13.0936 5.66424 12.6321C5.66424 12.1706 6.03836 11.7964 6.49987 11.7964C6.96137 11.7964 7.33549 12.1706 7.33549 12.6321C7.33549 13.0936 6.96137 13.4677 6.49987 13.4677ZM5.66424 5.94718C5.66424 6.40868 6.03836 6.78281 6.49987 6.78281C6.96137 6.78281 7.33549 6.40868 7.33549 5.94718C7.33549 5.48568 6.96137 5.11157 6.49987 5.11157C6.03836 5.11157 5.66424 5.48568 5.66424 5.94718ZM6.49987 3.44031C6.03836 3.44031 5.66424 3.06619 5.66424 2.60469C5.66424 2.14319 6.03836 1.76907 6.49987 1.76907C6.96137 1.76907 7.33549 2.14319 7.33549 2.60469C7.33549 3.06619 6.96137 3.44031 6.49987 3.44031ZM10.2936 4.71047C10.2936 5.44886 10.8921 6.04744 11.6306 6.04744C12.369 6.04744 12.9676 5.44886 12.9676 4.71047C12.9676 3.97208 12.369 3.37348 11.6306 3.37348C10.8921 3.37348 10.2936 3.97208 10.2936 4.71047ZM11.6306 2.20359C11.1691 2.20359 10.7949 1.82947 10.7949 1.36797C10.7949 0.90647 11.1691 0.532349 11.6306 0.532349C12.0921 0.532349 12.4662 0.90647 12.4662 1.36797C12.4662 1.82947 12.0921 2.20359 11.6306 2.20359ZM10.7949 8.05297C10.7949 8.51447 11.1691 8.88859 11.6306 8.88859C12.0921 8.88859 12.4662 8.51447 12.4662 8.05297C12.4662 7.59147 12.0921 7.21735 11.6306 7.21735C11.1691 7.21735 10.7949 7.59147 10.7949 8.05297ZM11.6306 12.231C11.1691 12.231 10.7949 11.8569 10.7949 11.3954C10.7949 10.9339 11.1691 10.5597 11.6306 10.5597C12.0921 10.5597 12.4662 10.9339 12.4662 11.3954C12.4662 11.8569 12.0921 12.231 11.6306 12.231Z" fill="white"/>
</g>
<defs>
<clipPath id="clip0_1762_4193">
<rect width="13" height="13" fill="white" transform="translate(0 0.5)"/>
</clipPath>
</defs>
</svg>
