<svg width="64" height="64" viewBox="0 0 64 64" fill="none" xmlns="http://www.w3.org/2000/svg">
<path d="M15.5471 48.8654L31.8266 32.1782C31.8769 32.1285 31.908 32.0628 31.9147 31.9925C31.9213 31.9222 31.903 31.8517 31.863 31.7935C30.8731 30.4114 29.0462 30.1718 28.3693 29.2431C26.3641 26.4922 25.8553 24.9351 24.9936 25.0315C24.9334 25.0402 24.8781 25.0694 24.837 25.1141L18.9564 31.1426C15.5731 34.608 15.0868 42.2461 14.999 48.6425C14.9987 48.7062 15.0175 48.7684 15.0529 48.8213C15.0883 48.8742 15.1387 48.9153 15.1977 48.9393C15.2567 48.9632 15.3214 48.969 15.3837 48.9559C15.446 48.9427 15.5029 48.9112 15.5471 48.8654Z" fill="#017CEE"/>
<path d="M48.8644 48.4536L32.1772 32.173C32.1275 32.1226 32.0617 32.0913 31.9912 32.0847C31.9208 32.078 31.8502 32.0964 31.792 32.1366C30.4099 33.1271 30.1702 34.9533 29.2415 35.6302C26.4906 37.6355 24.9335 38.1443 25.03 39.006C25.0387 39.0659 25.0679 39.121 25.1125 39.162L31.141 45.0426C34.6063 48.4259 42.2445 48.9122 48.6409 49C48.7043 49 48.7661 48.9812 48.8187 48.946C48.8713 48.9107 48.9122 48.8605 48.9362 48.8019C48.9602 48.7433 48.9662 48.6788 48.9534 48.6168C48.9406 48.5548 48.9096 48.498 48.8644 48.4536Z" fill="#00AD46"/>
<path d="M31.1411 45.0444C29.2467 43.1962 28.3688 39.5403 31.9993 32.0015C26.0973 34.6391 24.0291 38.1062 25.0461 39.099L31.1411 45.0444Z" fill="#04D659"/>
<path d="M48.452 15.1369L32.1732 31.8242C32.1228 31.8737 32.0915 31.9395 32.0849 32.0099C32.0782 32.0802 32.0966 32.1507 32.1368 32.2088C33.1273 33.5909 34.9529 33.8306 35.6304 34.7593C37.6356 37.5102 38.145 39.0672 39.0062 38.9708C39.0663 38.9622 39.1216 38.933 39.1627 38.8882L45.0433 32.8597C48.4266 29.3944 48.913 21.7562 49.0008 15.3598C49.0009 15.2962 48.9819 15.234 48.9465 15.1811C48.911 15.1283 48.8605 15.0873 48.8016 15.0633C48.7426 15.0394 48.6779 15.0336 48.6156 15.0467C48.5533 15.0598 48.4963 15.0912 48.452 15.1369Z" fill="#00C7D4"/>
<path d="M45.0462 32.8597C43.1981 34.7541 39.5422 35.632 32.0028 32.0015C34.6405 37.9035 38.1075 39.9717 39.1003 38.9546L45.0462 32.8597Z" fill="#11E1EE"/>
<path d="M15.1341 15.5487L31.8214 31.8276C31.871 31.8778 31.9368 31.909 32.0071 31.9157C32.0775 31.9223 32.1478 31.9041 32.206 31.864C33.5881 30.8735 33.8278 29.0473 34.7565 28.3704C37.5074 26.3651 39.0645 25.8563 38.968 24.9946C38.9592 24.9345 38.9301 24.8792 38.8855 24.8381L32.857 18.9574C29.3917 15.5741 21.7535 15.0878 15.3571 15C15.2933 14.9996 15.2309 15.0183 15.1779 15.0538C15.1248 15.0892 15.0837 15.1397 15.0597 15.1988C15.0357 15.2579 15.0299 15.3228 15.0432 15.3852C15.0565 15.4475 15.0882 15.5045 15.1341 15.5487Z" fill="#E43921"/>
<path fill-rule="evenodd" clip-rule="evenodd" d="M32.8599 18.958C34.7542 20.8061 35.6321 24.4621 32.0016 32.0014C37.9036 29.3638 39.9719 25.8961 38.9548 24.9039L32.8599 18.958Z" fill="#FF7557"/>
<path d="M18.9564 31.1426C20.8046 29.2483 24.46 28.371 31.9993 32.0015C29.3617 26.0994 25.8951 24.0312 24.9023 25.0483L18.9564 31.1426Z" fill="#0CB6FF"/>
<path d="M32.0022 32.7263C32.4041 32.7263 32.7299 32.4005 32.7299 31.9986C32.7299 31.5967 32.4041 31.2708 32.0022 31.2708C31.6003 31.2708 31.2745 31.5967 31.2745 31.9986C31.2745 32.4005 31.6003 32.7263 32.0022 32.7263Z" fill="#4A4848"/>
</svg>
