<svg width="100" height="100" viewBox="0 0 100 100" fill="none" xmlns="http://www.w3.org/2000/svg">
<path d="M11.2902 89.6806L49.5926 50.4178C49.8326 50.1718 49.8786 49.7915 49.6784 49.5122C47.3485 46.2599 43.0515 45.6962 41.4586 43.5111C36.7402 37.0386 35.5429 33.3751 33.5154 33.6023C33.3738 33.6182 33.2475 33.6944 33.148 33.7964L19.3111 47.9802C11.3511 56.1398 10.2095 74.1053 10.0002 89.1486C9.99074 89.8283 10.8155 90.167 11.2902 89.6806Z" fill="#017CEE"/>
<path d="M89.6811 88.7102L50.4183 50.4077C50.1723 50.1677 49.792 50.1217 49.5127 50.3218C46.2604 52.6518 45.6967 56.9488 43.5116 58.5417C37.0391 63.26 33.3756 64.4574 33.6028 66.485C33.6187 66.6266 33.6949 66.7529 33.797 66.8521L47.9807 80.6892C56.1403 88.6492 74.1058 89.7907 89.1491 89.9999C89.8288 90.0097 90.1675 89.185 89.6811 88.7102Z" fill="#00AD46"/>
<path fill-rule="evenodd" clip-rule="evenodd" d="M47.982 80.689C43.5248 76.3411 41.4569 67.739 50.0018 50.0002C36.1146 56.2064 31.248 64.3644 33.6421 66.7001L47.982 80.689Z" fill="#04D659"/>
<path d="M88.7102 10.3198L50.4079 49.5826C50.168 49.8285 50.122 50.2088 50.3221 50.4881C52.652 53.7404 56.9492 54.3041 58.5417 56.4892C63.2604 62.9616 64.4578 66.6251 66.485 66.3982C66.6266 66.3823 66.7529 66.3059 66.8526 66.2039L80.6891 52.0201C88.6497 43.8604 89.7911 25.8951 90.0003 10.8517C90.0096 10.1719 89.185 9.83312 88.7102 10.3198Z" fill="#00C7D4"/>
<path fill-rule="evenodd" clip-rule="evenodd" d="M80.6892 52.0201C76.3409 56.4771 67.7388 58.5452 50 50.0002C56.2061 63.8874 64.3642 68.7542 66.6998 66.3599L80.6892 52.0201Z" fill="#11E1EE"/>
<path d="M10.3215 11.2902L49.5843 49.5926C49.8302 49.8325 50.2104 49.8786 50.4898 49.6785C53.7421 47.3485 54.3058 43.0515 56.4907 41.4586C62.9635 36.7402 66.627 35.543 66.3996 33.5154C66.3838 33.3738 66.3074 33.2475 66.2058 33.148L52.0218 19.3112C43.8621 11.3511 25.8968 10.2095 10.8534 10.0002C10.1736 9.99074 9.83483 10.8155 10.3215 11.2902Z" fill="#E43921"/>
<path fill-rule="evenodd" clip-rule="evenodd" d="M52.0198 19.3109C56.4768 23.6591 58.545 32.2609 50 49.9998C63.8871 43.7937 68.754 35.6355 66.3597 33.3001L52.0198 19.3109Z" fill="#FF7557"/>
<path fill-rule="evenodd" clip-rule="evenodd" d="M19.3126 47.9803C23.6608 43.5231 32.2626 41.4552 50.0015 50.0001C43.7954 36.1129 35.6373 31.2463 33.3018 33.6403L19.3126 47.9803Z" fill="#0CB6FF"/>
<path d="M50.0275 51.7074C50.9733 51.6957 51.7306 50.9195 51.7189 49.9736C51.7071 49.0278 50.9309 48.2706 49.9851 48.2823C49.0392 48.294 48.282 49.0702 48.2937 50.016C48.3054 50.9619 49.0816 51.7191 50.0275 51.7074Z" fill="black"/>
</svg>
