<svg width="64" height="64" viewBox="0 0 64 64" fill="none" xmlns="http://www.w3.org/2000/svg">
<path d="M22.1814 29.8059C22.1814 30.3615 22.2413 30.812 22.3461 31.1424C22.4658 31.4727 22.6155 31.8331 22.825 32.2236C22.8998 32.3437 22.9298 32.4639 22.9298 32.569C22.9298 32.7191 22.84 32.8693 22.6454 33.0195L21.7025 33.6502C21.5678 33.7403 21.4331 33.7853 21.3134 33.7853C21.1637 33.7853 21.0141 33.7102 20.8644 33.5751C20.6549 33.3498 20.4753 33.1096 20.3256 32.8693C20.1759 32.614 20.0263 32.3287 19.8616 31.9833C18.6942 33.3649 17.2275 34.0556 15.4615 34.0556C14.2043 34.0556 13.2015 33.6952 12.4682 32.9744C11.7348 32.2536 11.3606 31.2925 11.3606 30.0912C11.3606 28.8148 11.8096 27.7786 12.7226 26.9978C13.6356 26.2169 14.8478 25.8265 16.3894 25.8265C16.8983 25.8265 17.4221 25.8715 17.9758 25.9466C18.5296 26.0217 19.0983 26.1418 19.697 26.277V25.1808C19.697 24.0395 19.4575 23.2436 18.9936 22.7781C18.5146 22.3126 17.7064 22.0873 16.554 22.0873C16.0302 22.0873 15.4914 22.1474 14.9376 22.2825C14.3839 22.4177 13.8451 22.5829 13.3213 22.7931C13.0818 22.8982 12.9022 22.9583 12.7974 22.9883C12.6927 23.0184 12.6178 23.0334 12.558 23.0334C12.3484 23.0334 12.2437 22.8832 12.2437 22.5679V21.832C12.2437 21.5918 12.2736 21.4116 12.3484 21.3065C12.4233 21.2013 12.558 21.0962 12.7675 20.9911C13.2913 20.7208 13.9199 20.4956 14.6533 20.3154C15.3866 20.1201 16.1649 20.03 16.9881 20.03C18.7691 20.03 20.0712 20.4355 20.9093 21.2464C21.7324 22.0573 22.1515 23.2887 22.1515 24.9405V29.8059H22.1814ZM16.105 32.0884C16.5989 32.0884 17.1078 31.9983 17.6466 31.8181C18.1854 31.6379 18.6643 31.3076 19.0684 30.8571C19.3079 30.5717 19.4875 30.2564 19.5773 29.896C19.6671 29.5356 19.7269 29.1001 19.7269 28.5895V27.9588C19.2929 27.8537 18.8289 27.7636 18.35 27.7036C17.8711 27.6435 17.4071 27.6135 16.9432 27.6135C15.9404 27.6135 15.207 27.8087 14.7131 28.2141C14.2192 28.6196 13.9798 29.1902 13.9798 29.941C13.9798 30.6468 14.1594 31.1724 14.5335 31.5328C14.8927 31.9082 15.4166 32.0884 16.105 32.0884ZM28.1231 33.7102C27.8538 33.7102 27.6742 33.6652 27.5544 33.5601C27.4347 33.47 27.3299 33.2597 27.2401 32.9744L23.723 21.3665C23.6332 21.0662 23.5883 20.871 23.5883 20.7659C23.5883 20.5256 23.708 20.3904 23.9475 20.3904H25.4142C25.6986 20.3904 25.8931 20.4355 25.9979 20.5406C26.1176 20.6307 26.2074 20.8409 26.2972 21.1263L28.8116 31.0673L31.1464 21.1263C31.2212 20.8259 31.311 20.6307 31.4308 20.5406C31.5505 20.4505 31.76 20.3904 32.0294 20.3904H33.2267C33.5111 20.3904 33.7057 20.4355 33.8254 20.5406C33.9451 20.6307 34.0499 20.8409 34.1098 21.1263L36.4745 31.1874L39.0637 21.1263C39.1535 20.8259 39.2582 20.6307 39.363 20.5406C39.4827 20.4505 39.6773 20.3904 39.9467 20.3904H41.3386C41.5781 20.3904 41.7128 20.5106 41.7128 20.7659C41.7128 20.8409 41.6978 20.916 41.6828 21.0061C41.6679 21.0962 41.6379 21.2164 41.5781 21.3815L37.9711 32.9894C37.8813 33.2898 37.7766 33.485 37.6568 33.5751C37.5371 33.6652 37.3425 33.7253 37.0881 33.7253H35.801C35.5166 33.7253 35.3221 33.6802 35.2023 33.5751C35.0826 33.47 34.9778 33.2748 34.918 32.9744L32.5981 23.2887L30.2933 32.9594C30.2185 33.2597 30.1287 33.455 30.0089 33.5601C29.8892 33.6652 29.6797 33.7102 29.4103 33.7102H28.1231ZM47.3551 34.1157C46.5769 34.1157 45.7986 34.0256 45.0503 33.8454C44.302 33.6652 43.7183 33.47 43.3291 33.2447C43.0897 33.1096 42.925 32.9594 42.8652 32.8243C42.8053 32.6891 42.7754 32.5389 42.7754 32.4038V31.6379C42.7754 31.3226 42.8951 31.1724 43.1196 31.1724C43.2094 31.1724 43.2992 31.1874 43.389 31.2175C43.4788 31.2475 43.6135 31.3076 43.7632 31.3676C44.272 31.5929 44.8258 31.7731 45.4095 31.8932C46.0082 32.0134 46.5918 32.0734 47.1905 32.0734C48.1334 32.0734 48.8668 31.9082 49.3756 31.5779C49.8845 31.2475 50.1539 30.767 50.1539 30.1513C50.1539 29.7308 50.0192 29.3854 49.7498 29.1001C49.4804 28.8148 48.9715 28.5595 48.2382 28.3192L46.068 27.6435C44.9755 27.2981 44.1673 26.7875 43.6734 26.1118C43.1795 25.4511 42.925 24.7152 42.925 23.9344C42.925 23.3037 43.0597 22.7481 43.3291 22.2675C43.5985 21.787 43.9577 21.3665 44.4067 21.0362C44.8557 20.6908 45.3646 20.4355 45.9632 20.2553C46.5619 20.0751 47.1905 20 47.849 20C48.1783 20 48.5225 20.015 48.8518 20.0601C49.196 20.1051 49.5103 20.1652 49.8246 20.2253C50.1239 20.3003 50.4083 20.3754 50.6777 20.4655C50.9471 20.5556 51.1566 20.6457 51.3063 20.7358C51.5158 20.856 51.6655 20.9761 51.7553 21.1112C51.8451 21.2314 51.89 21.3966 51.89 21.6068V22.3126C51.89 22.6279 51.7703 22.7931 51.5458 22.7931C51.426 22.7931 51.2315 22.733 50.977 22.6129C50.1239 22.2225 49.1661 22.0273 48.1035 22.0273C47.2504 22.0273 46.5769 22.1624 46.1129 22.4477C45.649 22.733 45.4095 23.1685 45.4095 23.7842C45.4095 24.2047 45.5592 24.5651 45.8585 24.8504C46.1578 25.1357 46.7116 25.421 47.5048 25.6763L49.63 26.3521C50.7076 26.6974 51.4859 27.178 51.9499 27.7937C52.4138 28.4093 52.6383 29.1151 52.6383 29.896C52.6383 30.5417 52.5036 31.1274 52.2492 31.6379C51.9798 32.1485 51.6206 32.599 51.1566 32.9594C50.6927 33.3348 50.1389 33.6051 49.4953 33.8003C48.8219 34.0106 48.1184 34.1157 47.3551 34.1157Z" fill="#252F3E"/>
<path fill-rule="evenodd" clip-rule="evenodd" d="M50.1838 41.4138C45.2598 45.0628 38.1058 47 31.9546 47C23.3339 47 15.5662 43.8014 9.69936 38.4855C9.23539 38.0651 9.65446 37.4944 10.2082 37.8248C16.554 41.5189 24.3815 43.7564 32.4784 43.7564C37.9412 43.7564 43.9428 42.6151 49.4654 40.2725C50.2886 39.8971 50.992 40.8131 50.1838 41.4138Z" fill="#FF9900"/>
<path fill-rule="evenodd" clip-rule="evenodd" d="M52.2342 39.0712C51.6056 38.2603 48.0735 38.6808 46.4721 38.876C45.9932 38.936 45.9184 38.5156 46.3524 38.2002C49.1661 36.218 53.7907 36.7887 54.3295 37.4494C54.8683 38.1251 54.1799 42.7653 51.5458 44.9878C51.1417 45.3332 50.7525 45.153 50.9321 44.7025C51.5308 43.2158 52.8628 39.8671 52.2342 39.0712Z" fill="#FF9900"/>
</svg>
