<svg width="64" height="64" viewBox="0 0 64 64" fill="none" xmlns="http://www.w3.org/2000/svg">
<path d="M26.6625 23.75H6.00337C7.30015 25.9918 9.72394 27.5 12.5 27.5H33.125H33.1591L33.1473 27.5L33.1363 27.5C33.1326 27.5 33.1288 27.5 33.125 27.5C33.1136 27.5 33.1023 27.4999 33.091 27.4997C30.3434 27.4752 27.9486 25.9734 26.6625 23.75Z" fill="#A8CB54"/>
<path d="M33.1363 12.5C33.1439 12.5 33.1515 12.5 33.1591 12.5C34.1789 12.5182 35 13.3509 35 14.375C35 15.3991 34.1789 16.2315 33.1591 16.2497C31.088 16.2497 29.4091 17.9289 29.4091 20C29.4091 22.0711 31.088 23.75 33.1591 23.75C34.1789 23.7682 35 24.6009 35 25.625C35 26.6491 34.1789 27.4818 33.1591 27.5C33.1515 27.5 33.1439 27.5 33.1363 27.5C33.1326 27.5 33.1288 27.5 33.125 27.5C33.1136 27.5 33.1023 27.4999 33.091 27.4997C28.9802 27.4631 25.6591 24.1194 25.6591 20C25.6591 15.8806 28.9802 12.5369 33.091 12.5003C33.1023 12.5001 33.1136 12.5 33.125 12.5C33.1288 12.5 33.1326 12.5 33.1363 12.5Z" fill="#DCF3A3"/>
<path d="M33.125 12.5H33.1591C33.1515 12.5 33.1439 12.5 33.1363 12.5C33.1326 12.5 33.1288 12.5 33.125 12.5Z" fill="#B5DD64"/>
<path d="M26.6625 16.25H6.00337C7.30015 14.0082 9.72394 12.5 12.5 12.5H33.125C33.1136 12.5 33.1023 12.5001 33.091 12.5003C30.3434 12.5248 27.9486 14.0266 26.6625 16.25Z" fill="#B5DD64"/>
<path d="M25.6591 20H5C5 21.3661 5.36523 22.6468 6.00337 23.75H26.6625C26.0243 22.6468 25.6591 21.3661 25.6591 20Z" fill="#B5DD64"/>
<path d="M26.6625 16.25H6.00337C5.36523 17.3531 5 18.6339 5 20H25.6591C25.6591 18.6339 26.0243 17.3531 26.6625 16.25Z" fill="#A8CB54"/>
<path d="M53.6078 41.7561C53.487 40.8739 52.9896 40.1178 52.0871 39.4247L51.5684 39.0816L51.2202 39.5927C50.7796 40.2508 50.5523 41.168 50.6233 42.0431C50.6588 42.3512 50.7583 42.9043 51.0781 43.3874C50.7583 43.5554 50.1259 43.7935 49.2803 43.7795H33.1501L33.1216 43.9615C32.9724 44.8437 32.9724 47.5882 34.7844 49.7026C36.1629 51.3058 38.2236 52.125 40.9238 52.125C46.7648 52.125 51.0852 49.4785 53.1104 44.6616C53.9062 44.6756 55.6187 44.6686 56.4998 43.0093C56.5212 42.9743 56.578 42.8693 56.7272 42.5612L56.8125 42.3862L56.3151 42.0571C55.7822 41.7071 54.5528 41.5811 53.6078 41.7561ZM46.0543 35.875H43.6027V38.0734H46.0543V35.875ZM46.0543 38.5145H43.6027V40.7059H46.0543V38.5145ZM43.1551 38.5145H40.7036V40.7059H43.1551V38.5145ZM40.2559 38.5145H37.8044V40.7059H40.2559V38.5145ZM37.3567 41.147H34.9052V43.3454H37.3567V41.147ZM40.2559 41.147H37.8044V43.3454H40.2559V41.147ZM43.1551 41.147H40.7036V43.3454H43.1551V41.147ZM46.0543 41.147H43.6027V43.3454H46.0543V41.147ZM48.9534 41.147H46.5019V43.3454H48.9534V41.147Z" fill="#2496ED"/>
</svg>
