<svg width="64" height="64" viewBox="0 0 64 64" fill="none" xmlns="http://www.w3.org/2000/svg">
<path d="M55 32.0328L44.5175 13.276C43.7308 11.8778 42.2818 11 40.7082 11H22.2943C20.7182 11 19.2705 11.8778 18.4825 13.2747L17.1605 15.6484H40.6776L38.0644 20.2968H14.5485L11.934 24.9786H35.4523L32.8378 29.627H9.32313L8 32.0328L9.29015 34.3075H32.8073L35.3888 38.9571H11.8717L14.4862 43.6055H38.0008L40.6153 48.2539H17.0958L18.4825 50.7253C19.2692 52.1222 20.7182 53 22.2906 53H40.707C42.2818 53 43.7295 52.1222 44.5163 50.7253L55 32.0328Z" fill="#EF54AC"/>
</svg>
