<svg width="64" height="64" viewBox="0 0 64 64" fill="none" xmlns="http://www.w3.org/2000/svg"><path d="M46.8997 23.0489L31.5039 14V20.2614L46.8997 29.2704V23.0476V23.0489Z" fill="#FF6492"/><path d="M46.8999 29.2705L42.2811 32L31.5003 25.6756L25.3407 29.2756L20.7207 26.7466L31.5028 20.2615L46.8999 29.2705Z" fill="#141446"/><path d="M25.3407 29.2756L20.7207 26.7466V32L25.3407 29.2756Z" fill="#A14474"/><path d="M16.1006 40.9511L31.5002 32L46.8997 40.9511L31.5002 50L16.1006 40.9511Z" fill="#141446"/><path d="M46.8996 34.7386L31.5 25.5779V32L46.8996 40.9512V34.7386Z" fill="#FF6492"/><path d="M20.7206 32V26.7466L31.5027 20.2614V14L16.1006 23.0489V40.9511L31.5002 32V25.5779L20.7206 32Z" fill="#7A77FF"/></svg>