<svg width="64" height="64" viewBox="0 0 64 64" fill="none" xmlns="http://www.w3.org/2000/svg">
<path d="M23.5647 24.6102L33.0666 19.1276C33.1126 19.101 33.1508 19.0627 33.1774 19.0167C33.204 18.9706 33.218 18.9184 33.2181 18.8652V15.5771C33.2232 15.3355 33.1726 15.0959 33.0702 14.8769C32.9677 14.658 32.8162 14.4656 32.6274 14.3147C32.3913 14.1316 32.1059 14.0232 31.8078 14.0033C31.5097 13.9834 31.2124 14.053 30.954 14.2031L17.6618 21.8729C17.4327 22.0052 17.2424 22.1953 17.1099 22.4242C16.9774 22.6532 16.9073 22.9129 16.9066 23.1774L16.9008 40.5021C16.8954 40.7434 16.9455 40.9828 17.0473 41.2017C17.1491 41.4206 17.2998 41.6131 17.4878 41.7645C17.7245 41.9488 18.0109 42.058 18.3102 42.0781C18.6095 42.0981 18.9079 42.028 19.167 41.8769L21.9819 40.2528C22.0278 40.226 22.0659 40.1877 22.0925 40.1417C22.119 40.0957 22.1331 40.0435 22.1333 39.9904L22.137 27.0815C22.137 26.5807 22.2689 26.0887 22.5194 25.655C22.7699 25.2213 23.1309 24.8605 23.5647 24.6102Z" fill="#FFC11E"/>
<path d="M46.3422 22.1251C46.113 21.991 45.8522 21.9204 45.5867 21.9204C45.3211 21.9204 45.0604 21.991 44.8312 22.1251L31.5396 29.7942C31.3106 29.9266 31.1203 30.1168 30.9877 30.3456C30.8551 30.5745 30.7848 30.8342 30.7837 31.0987L30.7786 48.4893C30.7787 48.7544 30.8485 49.0149 30.9811 49.2444C31.1136 49.474 31.3042 49.6647 31.5338 49.7973C31.7633 49.93 32.0238 49.9999 32.2889 50C32.554 50.0001 32.8145 49.9305 33.0442 49.7982L46.3357 42.1284C46.5648 41.996 46.7551 41.8059 46.8878 41.577C47.0204 41.3481 47.0907 41.0884 47.0916 40.8238L47.0996 23.4332C47.1012 23.1678 47.032 22.9067 46.8993 22.6768C46.7666 22.4469 46.5751 22.2565 46.3444 22.1251" fill="#EF1161"/>
<path d="M30.87 28.631L39.6377 23.5702C39.6837 23.5435 39.722 23.5053 39.7485 23.4593C39.7751 23.4132 39.7891 23.361 39.7892 23.3078V19.4784C39.7946 19.2369 39.7443 18.9974 39.6422 18.7785C39.5402 18.5596 39.3891 18.3671 39.2007 18.2159C38.9642 18.0322 38.6781 17.9235 38.3792 17.9037C38.0803 17.8839 37.7824 17.954 37.5237 18.105L24.2358 25.7763C24.0066 25.9085 23.8162 26.0986 23.6835 26.3275C23.5509 26.5565 23.4806 26.8162 23.4799 27.0808L23.4763 44.4026C23.4709 44.6439 23.521 44.8833 23.6228 45.1022C23.7245 45.3211 23.8753 45.5136 24.0633 45.665C24.2999 45.8493 24.5862 45.9583 24.8854 45.9782C25.1846 45.9981 25.4829 45.9279 25.7418 45.7767L29.2879 43.7307C29.334 43.7042 29.3723 43.666 29.3989 43.6199C29.4255 43.5738 29.4394 43.5216 29.4393 43.4684L29.443 31.1016C29.443 30.6008 29.5749 30.1088 29.8254 29.6751C30.0759 29.2414 30.4361 28.8813 30.87 28.631Z" fill="#FC6E6B"/>
</svg>
