<svg width="64" height="64" viewBox="0 0 64 64" fill="none" xmlns="http://www.w3.org/2000/svg">
<path fill-rule="evenodd" clip-rule="evenodd" d="M49.5593 42.8524L33.5379 15.4594C33.1796 14.8469 32.2944 14.8469 31.9361 15.4594L18.3207 38.7385C18.0814 39.148 18.5133 39.6208 18.9425 39.4195C19.1188 39.3365 19.3222 39.2531 19.5456 39.1699L19.541 39.179C19.541 39.179 19.913 39.0348 20.5416 38.8356C21.2344 38.6228 21.9936 38.4213 22.6808 38.2511C24.6038 37.8072 27.1237 37.4457 29.3959 37.823C31.487 38.17 32.9432 38.7306 34.0039 39.2815C34.4902 39.5344 34.9494 38.8996 34.5563 38.5175C33.0356 37.0396 30.6956 35.2556 27.1364 34.508C26.9806 34.4753 26.9024 34.2995 26.983 34.1619L32.3433 24.997C32.5195 24.6959 32.9545 24.6959 33.1308 24.997L43.368 42.5004C43.5837 42.869 43.4028 43.3398 42.9979 43.4755C42.1957 43.7436 41.2374 43.9441 40.1647 43.9441C39.4822 43.9441 38.7957 43.8636 38.1075 43.7037C38.1075 43.7037 36.1236 43.3906 33.472 41.8085C30.8204 40.2268 25.7078 38.2088 19.971 41.4757C17.5266 43.0465 15.8979 45.1948 15.0397 46.5436C14.9053 46.7547 15.1374 47.0065 15.3581 46.8887C17.3292 45.8356 22.6438 43.3487 27.4327 44.2428C30.2791 44.774 33.5319 46.9228 36.9133 48.155C42.5071 50.2278 47.9912 46.755 48.003 46.7475C48.5827 46.3644 48.9232 46.0732 48.9812 46.0227L49.0512 45.9617C49.945 45.1816 50.1583 43.8763 49.5593 42.8524Z" fill="#00ADD4"/>
</svg>
