<svg width="64" height="64" viewBox="0 0 64 64" fill="none" xmlns="http://www.w3.org/2000/svg">
<path d="M37.3818 24.8118H38.6018L42.0788 21.3554L42.2496 19.888C40.2578 18.1404 37.8506 16.9263 35.2555 16.3606C32.6604 15.7949 29.9631 15.8961 27.4183 16.6548C24.8736 17.4134 22.5654 18.8045 20.7118 20.6964C18.8582 22.5884 17.5204 24.9189 16.8247 27.4677C17.2121 27.3099 17.6412 27.2843 18.0447 27.395L24.9988 26.255C24.9988 26.255 25.3526 25.6728 25.5356 25.7092C27.0256 24.0825 29.0848 23.0835 31.2916 22.9166C33.4983 22.7498 35.6858 23.4278 37.4062 24.8118H37.3818Z" fill="#EA4335"/>
<path d="M47.032 27.4677C46.2328 24.5421 44.5919 21.912 42.3106 19.9001L37.4306 24.7511C38.4476 25.5772 39.2627 26.6221 39.8143 27.807C40.3659 28.9918 40.6396 30.2857 40.6148 31.5911V32.4521C41.1852 32.4521 41.7499 32.5638 42.2769 32.7808C42.8038 32.9978 43.2826 33.3158 43.6859 33.7167C44.0892 34.1176 44.4091 34.5935 44.6274 35.1173C44.8457 35.6412 44.958 36.2026 44.958 36.7696C44.958 37.3365 44.8457 37.8979 44.6274 38.4218C44.4091 38.9456 44.0892 39.4215 43.6859 39.8224C43.2826 40.2233 42.8038 40.5413 42.2769 40.7583C41.7499 40.9753 41.1852 41.087 40.6148 41.087H31.9284L31.0622 41.9601V47.1386L31.9284 47.9997H40.6148C43.0405 48.0184 45.4078 47.2606 47.3666 45.8383C49.3254 44.4159 50.7716 42.4046 51.4913 40.1019C52.211 37.7991 52.166 35.3273 51.3629 33.0519C50.5598 30.7766 49.0413 28.8187 47.032 27.4677Z" fill="#4285F4"/>
<path d="M23.2298 47.9512H31.9162V41.0384H23.2298C22.6109 41.0383 21.9993 40.906 21.4363 40.6504L20.2163 41.0263L16.7149 44.4827L16.4099 45.6954C18.3734 47.1693 20.7693 47.9618 23.2298 47.9512Z" fill="#34A853"/>
<path d="M23.2298 25.5273C20.8761 25.5413 18.5857 26.2856 16.6783 27.6564C14.7709 29.0272 13.3419 30.9559 12.5908 33.1733C11.8396 35.3906 11.8039 37.7857 12.4886 40.0242C13.1733 42.2627 14.5443 44.2327 16.4099 45.659L21.4485 40.6504C20.8082 40.3628 20.2477 39.9251 19.815 39.3748C19.3822 38.8246 19.0903 38.1782 18.9641 37.4911C18.838 36.804 18.8814 36.0967 19.0907 35.43C19.2999 34.7632 19.6688 34.1569 20.1656 33.663C20.6625 33.1691 21.2724 32.8025 21.9431 32.5944C22.6139 32.3864 23.3254 32.3432 24.0166 32.4686C24.7078 32.594 25.358 32.8843 25.9116 33.3144C26.4652 33.7446 26.9055 34.3018 27.1948 34.9383L32.2334 29.9296C31.1758 28.5553 29.8128 27.4427 28.2508 26.679C26.6889 25.9153 24.9704 25.5211 23.2298 25.5273Z" fill="#FBBC05"/>
</svg>
