<svg width="64" height="64" viewBox="0 0 64 64" fill="none" xmlns="http://www.w3.org/2000/svg">
<path fill-rule="evenodd" clip-rule="evenodd" d="M32 15C22.6075 15 15 22.7999 15 32.43C15 40.1428 19.8662 46.6572 26.6237 48.9667C27.4737 49.1192 27.7925 48.5963 27.7925 48.1388C27.7925 47.7248 27.7713 46.3522 27.7713 44.8924C23.5 45.6986 22.395 43.8249 22.055 42.8444C21.8637 42.3433 21.035 40.7964 20.3125 40.3824C19.7175 40.0556 18.8675 39.2495 20.2913 39.2277C21.63 39.2059 22.5862 40.4914 22.905 41.0143C24.435 43.6506 26.8788 42.9098 27.8563 42.4522C28.005 41.3193 28.4513 40.5567 28.94 40.121C25.1575 39.6852 21.205 38.1819 21.205 31.5149C21.205 29.6194 21.8637 28.0507 22.9475 26.8306C22.7775 26.3949 22.1825 24.6083 23.1175 22.2117C23.1175 22.2117 24.5413 21.7541 27.7925 23.9982C29.1525 23.6061 30.5975 23.41 32.0425 23.41C33.4875 23.41 34.9325 23.6061 36.2925 23.9982C39.5438 21.7323 40.9675 22.2117 40.9675 22.2117C41.9025 24.6083 41.3075 26.3949 41.1375 26.8306C42.2213 28.0507 42.88 29.5976 42.88 31.5149C42.88 38.2037 38.9062 39.6852 35.1238 40.121C35.74 40.6657 36.2712 41.7115 36.2712 43.3455C36.2712 45.6768 36.25 47.5505 36.25 48.1388C36.25 48.5963 36.5688 49.141 37.4188 48.9667C40.7936 47.7986 43.7261 45.5748 45.8037 42.6083C47.8812 39.6418 48.9991 36.082 49 32.43C49 22.7999 41.3925 15 32 15Z" fill="#231F1B"/>
</svg>
