<svg width="64" height="64" viewBox="0 0 64 64" fill="none" xmlns="http://www.w3.org/2000/svg">
<g clip-path="url(#clip0_1042_20043)">
<path fill-rule="evenodd" clip-rule="evenodd" d="M17.0725 22V27.9847H15.4587V22H9V27.9889V28.0057V33.9943V40H15.4587V30.9793H17.0725V40H23.5335V22H17.0725ZM25.1383 22V40H39.6717V32.4931H33.2101V36.9631H31.5963V30.9793H39.6717V22H25.1383ZM31.5963 27.9847V25H33.2101V27.9847H31.5963ZM49.3487 27.9847V22H55.8097V26.5L52.5821 29.5027L55.8097 32.5054V40H49.3487V30.9793H47.7349V40H41.2762V32.5054L44.5073 29.5027L41.2762 26.5V22H47.7349V27.9847H49.3487Z" fill="#473982"/>
</g>
<defs>
<clipPath id="clip0_1042_20043">
<rect width="46.8" height="18" fill="white" transform="translate(9 22)"/>
</clipPath>
</defs>
</svg>
