<svg width="64" height="64" viewBox="0 0 64 64" fill="none" xmlns="http://www.w3.org/2000/svg">
<g clip-path="url(#clip0_1042_20047)">
<path d="M15.8691 32.6259C15.8691 33.9395 15.7671 34.3673 15.5049 34.6826C15.213 34.9534 14.8342 35.1032 14.4414 35.103L14.5434 35.8536C15.1523 35.8621 15.7431 35.6404 16.2042 35.2306C16.4523 34.9188 16.6369 34.5587 16.747 34.1718C16.8572 33.7849 16.8906 33.3791 16.8452 32.9787V28.0094H15.8691V32.5958V32.6259Z" fill="#4E4E4E"/>
<path d="M23.1482 32.0338C23.1482 32.5967 23.1482 33.0997 23.1919 33.535H22.325L22.2668 32.6418C22.0854 32.9578 21.8262 33.2188 21.5153 33.3981C21.2043 33.5774 20.8529 33.6687 20.4967 33.6627C19.6517 33.6627 18.6465 33.1898 18.6465 31.2606V28.0554H19.6226V31.0579C19.6226 32.1013 19.9358 32.7994 20.8172 32.7994C20.9985 32.8014 21.1784 32.7661 21.3463 32.6955C21.5143 32.6249 21.6668 32.5205 21.795 32.3884C21.9233 32.2562 22.0246 32.099 22.0931 31.926C22.1616 31.753 22.1959 31.5676 22.1939 31.3807V28.0178H23.17V32.0037L23.1482 32.0338Z" fill="#4E4E4E"/>
<path d="M24.9988 29.8412C24.9988 29.1431 24.9988 28.5726 24.9551 28.0547H25.8292L25.8729 28.993C26.0676 28.654 26.348 28.3758 26.6841 28.1881C27.0202 28.0004 27.3994 27.9101 27.7814 27.9271C29.078 27.9271 30.0541 29.0455 30.0541 30.7119C30.0541 32.6786 28.8813 33.6545 27.6138 33.6545C27.2894 33.6694 26.9668 33.5978 26.6771 33.4465C26.3874 33.2953 26.1405 33.0696 25.9603 32.7912V35.7938H24.9988V29.8637V29.8412ZM25.9603 31.3049C25.9629 31.4412 25.9776 31.5768 26.004 31.7103C26.0867 32.0436 26.2748 32.339 26.5387 32.5497C26.8025 32.7604 27.127 32.8745 27.4609 32.8738C28.4879 32.8738 29.0925 32.0106 29.0925 30.757C29.0925 29.661 28.5244 28.7227 27.4973 28.7227C27.0908 28.757 26.7105 28.9429 26.4275 29.2456C26.1446 29.5482 25.9785 29.9468 25.9603 30.3666V31.3049Z" fill="#4E4E4E"/>
<path d="M31.7929 28.0496L32.9657 31.2848C33.0895 31.6451 33.2206 32.0805 33.308 32.4033C33.41 32.073 33.5193 31.6526 33.6504 31.2623L34.7139 28.0496H35.741L34.2841 31.9529C33.5557 33.8295 33.1114 34.7978 32.4412 35.3833C32.1037 35.701 31.6921 35.9234 31.2466 36.0289L31.0062 35.1882C31.3178 35.0827 31.607 34.9171 31.8585 34.7003C32.2138 34.4018 32.4958 34.0212 32.6816 33.5893C32.7213 33.5145 32.7484 33.4333 32.7617 33.3491C32.7534 33.2585 32.7313 33.1698 32.6962 33.0864L30.7148 28.0345H31.7783L31.7929 28.0496Z" fill="#4E4E4E"/>
<path d="M38.332 26.4749V28.0512H39.7305V28.8018H38.332V31.7594C38.332 32.435 38.5214 32.8253 39.0604 32.8253C39.2518 32.8285 39.4429 32.8058 39.6286 32.7577L39.6723 33.5084C39.3938 33.6078 39.1 33.6536 38.8054 33.6435C38.6104 33.6561 38.415 33.625 38.2327 33.5525C38.0504 33.4799 37.8854 33.3676 37.7492 33.2231C37.4525 32.8142 37.3172 32.3046 37.3704 31.7969V28.7943H36.54V28.0437H37.385V26.7076L38.332 26.4749Z" fill="#4E4E4E"/>
<path d="M41.5286 30.9679C41.5088 31.2225 41.5429 31.4784 41.6285 31.7181C41.7141 31.9578 41.8492 32.1754 42.0245 32.356C42.1997 32.5366 42.4109 32.6758 42.6435 32.764C42.8761 32.8523 43.1244 32.8874 43.3715 32.867C43.8712 32.8785 44.3676 32.7814 44.8283 32.5818L44.9959 33.3324C44.4305 33.5724 43.8225 33.6875 43.2112 33.6702C42.8549 33.6954 42.4975 33.6408 42.1635 33.5102C41.8296 33.3796 41.527 33.1762 41.2765 32.9138C41.026 32.6514 40.8336 32.3362 40.7124 31.99C40.5912 31.6438 40.5441 31.2746 40.5743 30.9078C40.5743 29.2564 41.5286 27.9503 43.0874 27.9503C44.8356 27.9503 45.2727 29.5267 45.2727 30.5325C45.282 30.6875 45.282 30.8429 45.2727 30.9979H41.5067L41.5286 30.9679ZM44.384 30.2173C44.4121 30.0166 44.3981 29.812 44.343 29.6174C44.288 29.4227 44.193 29.2425 44.0646 29.0888C43.9362 28.9352 43.7774 28.8117 43.5987 28.7266C43.4201 28.6416 43.2259 28.597 43.0291 28.5959C42.6289 28.6257 42.2539 28.8085 41.9777 29.1085C41.7015 29.4084 41.5439 29.8038 41.5359 30.2173H44.384Z" fill="#4E4E4E"/>
<path d="M46.7546 29.7566C46.7546 29.111 46.7546 28.5556 46.7109 28.0451H47.5851V29.1186H47.6287C47.7205 28.7872 47.9101 28.4936 48.1711 28.2784C48.4322 28.0632 48.7518 27.937 49.0856 27.9175C49.1775 27.9051 49.2705 27.9051 49.3624 27.9175V28.8558C49.2511 28.8425 49.1386 28.8425 49.0273 28.8558C48.6967 28.869 48.382 29.0058 48.142 29.2407C47.9021 29.4755 47.7533 29.7923 47.7234 30.1319C47.6962 30.2855 47.6816 30.4412 47.6797 30.5973V33.5173H46.7182V29.7641L46.7546 29.7566Z" fill="#4E4E4E"/>
<path d="M46.3257 12.9725C46.3556 13.4768 46.2392 13.9788 45.9913 14.4147C45.7433 14.8506 45.3751 15.2005 44.9335 15.4199C44.4918 15.6393 43.9968 15.7183 43.5115 15.6468C43.0261 15.5753 42.5725 15.3566 42.2082 15.0184C41.8439 14.6803 41.5856 14.238 41.4661 13.748C41.3466 13.258 41.3713 12.7425 41.5372 12.267C41.703 11.7916 42.0024 11.3778 42.3973 11.0783C42.7921 10.7788 43.2646 10.6073 43.7544 10.5855C44.0755 10.5673 44.397 10.6146 44.7003 10.7249C45.0036 10.8352 45.2828 11.0061 45.5217 11.228C45.7607 11.4498 45.9547 11.7181 46.0927 12.0175C46.2307 12.3169 46.3099 12.6415 46.3257 12.9725Z" fill="#767677"/>
<path d="M31.9229 42.37C25.3671 42.37 19.6052 39.9454 16.626 36.3649C17.7819 39.586 19.8677 42.3649 22.6026 44.3275C25.3375 46.2901 28.5902 47.3422 31.9229 47.3422C35.2556 47.3422 38.5083 46.2901 41.2432 44.3275C43.978 42.3649 46.0638 39.586 47.2198 36.3649C44.2479 39.9454 38.5078 42.37 31.9229 42.37Z" fill="#F37726"/>
<path d="M31.9229 19.0866C38.4787 19.0866 44.2406 21.5111 47.2198 25.0917C46.0638 21.8706 43.978 19.0917 41.2432 17.1291C38.5083 15.1665 35.2556 14.1144 31.9229 14.1144C28.5902 14.1144 25.3375 15.1665 22.6026 17.1291C19.8677 19.0917 17.7819 21.8706 16.626 25.0917C19.6052 21.5036 25.338 19.0866 31.9229 19.0866Z" fill="#F37726"/>
<path d="M22.8973 49.3379C22.9358 49.9731 22.7899 50.6057 22.4782 51.1551C22.1665 51.7045 21.7031 52.1459 21.1472 52.423C20.5912 52.7001 19.9677 52.8003 19.3563 52.711C18.7448 52.6216 18.173 52.3467 17.7137 51.9212C17.2544 51.4958 16.9284 50.9391 16.7772 50.322C16.6261 49.7049 16.6566 49.0555 16.8649 48.4564C17.0732 47.8572 17.4499 47.3356 17.9469 46.9578C18.4439 46.5801 19.0389 46.3634 19.6558 46.3353C20.06 46.3131 20.4645 46.3731 20.8462 46.5119C21.2278 46.6508 21.5792 46.8658 21.8802 47.1446C22.1812 47.4234 22.426 47.7606 22.6005 48.137C22.775 48.5133 22.8759 48.9214 22.8973 49.3379Z" fill="#9E9E9E"/>
<path d="M17.3707 18.2706C17.0175 18.2806 16.6692 18.1828 16.3697 17.9895C16.0703 17.7961 15.833 17.5158 15.6877 17.1839C15.5425 16.8519 15.4957 16.4831 15.5533 16.1238C15.6108 15.7645 15.7702 15.4307 16.0114 15.1646C16.2526 14.8984 16.5647 14.7116 16.9086 14.6278C17.2525 14.5439 17.6127 14.5667 17.9441 14.6933C18.2755 14.8199 18.5631 15.0446 18.7708 15.3392C18.9786 15.6338 19.0971 15.9851 19.1116 16.3489C19.1254 16.8409 18.9504 17.3187 18.6244 17.6785C18.2985 18.0383 17.848 18.251 17.3707 18.2706Z" fill="#616262"/>
</g>
<defs>
<clipPath id="clip0_1042_20047">
<rect width="36" height="43" fill="white" transform="translate(14 10)"/>
</clipPath>
</defs>
</svg>
