<svg width="64" height="64" viewBox="0 0 64 64" fill="none" xmlns="http://www.w3.org/2000/svg">
<path d="M41.8471 18.0815C34.9233 13.2394 25.4965 14.1914 19.6819 20.32C13.8673 26.4486 13.4165 35.9076 18.6219 42.5608L23.8191 38.7481C21.2393 35.5496 20.7154 31.1588 22.4701 27.4436C24.2248 23.7283 27.9495 21.342 32.0598 21.2998L31.9368 25.3585L41.8471 18.0815Z" fill="#43C9ED"/>
<path d="M45.6905 21.8696C45.5183 21.6318 45.3378 21.3981 45.1532 21.1727L40.1488 24.8624C42.9739 27.9871 43.7069 32.4756 42.0223 36.3359C40.3379 40.1963 36.5481 42.7132 32.3346 42.7699L32.4577 38.7154L22.4367 46.0948C29.3042 50.7168 38.5019 49.7373 44.2408 43.773C49.9799 37.8086 50.6001 28.5847 45.7111 21.9065L45.6905 21.8696Z" fill="#0194E2"/>
</svg>
