<svg width="64" height="64" viewBox="0 0 64 64" fill="none" xmlns="http://www.w3.org/2000/svg">
<path fill-rule="evenodd" clip-rule="evenodd" d="M47.5808 42.8446C45.5681 42.7887 44.0067 42.9944 42.698 43.5433C42.3212 43.6942 41.7164 43.6942 41.6668 44.167C41.8682 44.3655 41.8924 44.6902 42.069 44.9652C42.3708 45.4643 42.8999 46.1367 43.3777 46.4855L44.9882 47.633C45.9697 48.231 47.0771 48.5804 48.0332 49.179C48.5872 49.5283 49.1405 49.9772 49.6945 50.3516C49.9765 50.5512 50.1474 50.8759 50.5 51V50.9245C50.324 50.701 50.2732 50.3768 50.0978 50.1264L49.3419 49.4037C48.6125 48.4311 47.706 47.5827 46.7245 46.8851C45.919 46.3363 44.1579 45.5884 43.8307 44.6662L43.781 44.6103C44.3339 44.5544 44.9882 44.3604 45.5173 44.2106C46.3736 43.9871 47.1532 44.0362 48.0332 43.8121L49.2421 43.4628V43.2392C48.7891 42.7904 48.4619 42.1918 47.9841 41.7681C46.7008 40.6709 45.2906 39.5983 43.8307 38.7007C43.0505 38.2021 42.0436 37.8773 41.2133 37.4542C40.9104 37.3044 40.4077 37.2295 40.2318 36.9803C39.7777 36.4325 39.5266 35.7087 39.1995 35.0598L37.136 30.7208C36.683 29.7482 36.4055 28.7757 35.8527 27.878C33.2601 23.6385 30.4407 21.0702 26.1118 18.5511C25.1811 18.0274 24.0738 17.8021 22.8965 17.5282L21.009 17.4276C20.6057 17.2532 20.2035 16.7793 19.8509 16.5546C18.4164 15.6569 14.7165 13.7118 13.6588 16.2751C12.9791 17.896 14.6658 19.4918 15.2383 20.3151C15.667 20.8886 16.2198 21.5369 16.5228 22.1853C16.692 22.609 16.7484 23.0583 16.925 23.5072C17.3272 24.6043 17.7051 25.8267 18.2337 26.8496C18.5157 27.3733 18.8119 27.9227 19.1644 28.3962C19.3658 28.6756 19.7184 28.7952 19.7934 29.2441C19.4408 29.7432 19.4166 30.4905 19.2152 31.1148C18.3087 33.933 18.6613 37.4241 19.9446 39.4988C20.3479 40.122 21.2984 41.4942 22.5879 40.9699C23.7206 40.5211 23.4679 39.0997 23.7951 37.8528C23.8713 37.5537 23.8205 37.3542 23.9711 37.1541V37.21L25.0034 39.2797C25.7835 40.5015 27.143 41.7737 28.2752 42.6221C28.8787 43.071 29.3571 43.8445 30.1119 44.1184V44.0429H30.0622C29.911 43.8194 29.6843 43.7188 29.4829 43.5444C29.0299 43.0956 28.5267 42.5467 28.1742 42.0481C27.1176 40.6519 26.1869 39.1053 25.356 37.5096C24.9526 36.7366 24.6001 35.8887 24.274 35.1157C24.1217 34.8161 24.1217 34.3667 23.8707 34.218C23.4927 34.7658 22.9399 35.2409 22.6618 35.9138C22.1835 36.9858 22.1338 38.3077 21.9578 39.6794C21.8563 39.7045 21.9014 39.6794 21.8563 39.7352C21.0519 39.5363 20.7744 38.7124 20.4726 38.0148C19.7178 36.2441 19.5914 33.4014 20.2458 31.3563C20.4218 30.8325 21.1777 29.1865 20.8759 28.6879C20.7236 28.2139 20.2215 27.9401 19.944 27.5656C19.6168 27.0916 19.2654 26.4935 19.0386 25.9698C18.4351 24.5725 18.1333 23.027 17.4783 21.6303C17.1754 20.9819 16.6474 20.3084 16.2193 19.7103C15.7409 19.0368 15.2135 18.5628 14.8356 17.7652C14.7098 17.4858 14.5338 17.042 14.7351 16.7424C14.7848 16.5428 14.8863 16.4629 15.0866 16.4182C15.4138 16.1387 16.3456 16.4931 16.6728 16.6418C17.6036 17.0163 18.3837 17.365 19.1639 17.8882C19.5164 18.1375 19.8944 18.6115 20.3473 18.7367H20.8765C21.682 18.911 22.5874 18.7926 23.3416 19.0161C24.6757 19.4409 25.8834 20.0636 26.9664 20.7376C30.263 22.8074 32.982 25.7502 34.8187 29.267C35.1205 29.8404 35.2463 30.3642 35.5238 30.9628C36.0529 32.1852 36.7073 33.4316 37.2347 34.6294C37.7638 35.8015 38.267 36.9993 39.0218 37.9718C39.3997 38.4955 40.9092 38.7694 41.5884 39.0438C42.0921 39.2674 42.8717 39.4686 43.3258 39.7425C44.181 40.2662 45.0367 40.8649 45.8417 41.4383C46.2439 41.7368 47.503 42.3606 47.578 42.858L47.5808 42.8446ZM21.9144 21.1736C21.5667 21.1706 21.22 21.2125 20.8832 21.2983V21.3541H20.9329C21.1343 21.7532 21.4868 22.0277 21.7384 22.377L22.3177 23.5742L22.3674 23.5183C22.7199 23.2691 22.8965 22.87 22.8965 22.2719C22.7453 22.0975 22.7205 21.9226 22.5947 21.7482C22.4435 21.4989 22.1163 21.3737 21.9144 21.1747V21.1736Z" fill="#00678C"/>
</svg>
