<svg width="64" height="64" viewBox="0 0 64 64" fill="none" xmlns="http://www.w3.org/2000/svg">
<path d="M50.5302 13.1377C50.217 12.9541 49.8517 12.9541 49.5385 13.1377L38.577 19.3295L34.5577 13.4526C34.5316 13.4263 34.5055 13.4001 34.5055 13.3739L34.4795 13.3476C34.4533 13.2952 34.4011 13.2689 34.375 13.2427L34.3489 13.2164C34.3228 13.1902 34.2706 13.164 34.2184 13.1377C34.1923 13.1377 34.1923 13.1115 34.1663 13.1115C34.1401 13.0853 34.0879 13.0853 34.0618 13.059C34.0358 13.059 34.0096 13.0328 33.9836 13.0328C33.9574 13.0328 33.9313 13.0328 33.8791 13.0066C33.8531 13.0066 33.8008 13.0066 33.7748 13.0066C33.7486 13.0066 33.7226 13.0066 33.6964 13.0066C33.6443 13.0066 33.6181 13.0066 33.5659 13.0328C33.5399 13.0328 33.5399 13.0328 33.5138 13.0328C33.4616 13.0328 33.4354 13.059 33.3833 13.0853C33.3572 13.0853 33.3572 13.0853 33.3311 13.1115C33.3049 13.1115 33.2789 13.1377 33.2528 13.1377L13.4959 24.2883C13.4698 24.2883 13.4698 24.3145 13.4437 24.3145H13.4176C13.3654 24.3407 13.3132 24.3931 13.2871 24.4194L13.261 24.4456C13.2349 24.4719 13.2088 24.5243 13.1827 24.5506L13.1566 24.5768C13.1305 24.6293 13.1044 24.6818 13.0783 24.7343V24.7605C13.0522 24.813 13.0522 24.8392 13.0522 24.8917C13.0522 24.9179 13.0522 24.9179 13.0522 24.9442C13 25.049 13 25.1015 13 25.154V48.9768C13 49.3178 13.1827 49.6589 13.4959 49.8425C13.6525 49.9212 13.8352 49.9737 13.9918 49.9737C14.1484 49.9737 14.331 49.9212 14.4876 49.8425L25.4492 43.6507L29.4423 49.554C29.4423 49.554 29.4423 49.554 29.4684 49.5802C29.4684 49.6064 29.4946 49.6064 29.4946 49.6327C29.5206 49.6589 29.5206 49.6589 29.5467 49.6851L29.5728 49.7113C29.5989 49.7375 29.5989 49.7376 29.6251 49.7638L29.6511 49.79C29.6772 49.8163 29.7033 49.8163 29.7294 49.8425C29.7294 49.8425 29.7556 49.8425 29.7556 49.8688C29.7556 49.8688 29.7556 49.8688 29.7816 49.8688C29.8077 49.895 29.8338 49.895 29.8599 49.895C29.886 49.895 29.886 49.895 29.9121 49.9212C29.9382 49.9212 29.9643 49.9475 29.9904 49.9475C30.0165 49.9475 30.0165 49.9475 30.0426 49.9737C30.0687 49.9737 30.0948 49.9737 30.1209 50H30.147C30.1992 50 30.2253 50 30.2775 50C30.2775 50 30.2775 50 30.3036 50C30.3297 50 30.3819 50 30.408 50C30.4341 50 30.4341 50 30.4601 50C30.4863 50 30.5124 49.9999 30.5385 49.9737C30.5646 49.9737 30.5646 49.9737 30.5906 49.9475C30.6168 49.9475 30.6429 49.9212 30.669 49.9212C30.6951 49.9212 30.6951 49.895 30.7212 49.895C30.7212 49.895 30.7473 49.895 30.7473 49.8688L50.5042 38.7183C50.8174 38.5347 51 38.2198 51 37.8525V14.0035C51 13.6362 50.8174 13.3214 50.5302 13.1377ZM14.9835 47.2976V28.3549L24.3008 42.0241L14.9835 47.2976ZM29.7816 24.2883C29.4684 24.4719 29.2857 24.7867 29.2857 25.154V45.7759L15.4272 25.4951L33.4354 15.3154L36.8283 20.3003L29.7816 24.2883ZM49.0426 37.2491L31.2693 47.2976V25.7312L49.0426 15.7089V37.2491Z" fill="#00D2D2"/>
</svg>
