<svg width="64" height="64" viewBox="0 0 64 64" fill="none" xmlns="http://www.w3.org/2000/svg">
<path d="M19.3333 28.3056V25.1389L32.1319 33.9792L44.9306 25.1389V27.9097L32.1319 37.2778L19.3333 28.3056Z" fill="#69D298"/>
<path d="M19.3333 33.5833V30.4167L32.1319 39.2569L44.9306 30.4167V33.1875L32.1319 42.5556L19.3333 33.5833Z" fill="#69D298"/>
<path fill-rule="evenodd" clip-rule="evenodd" d="M16.9583 24.9099C17.4664 23.8339 18.0866 22.8211 18.8038 21.8867C21.8427 17.9274 26.6233 15.375 32 15.375C37.4306 15.375 42.2531 17.9788 45.2871 22.0062C46.0159 22.9737 46.6416 24.0234 47.1477 25.1389C47.2017 25.2579 47.2543 25.3777 47.3056 25.4982C48.155 27.4954 48.625 29.6928 48.625 32C48.625 41.1817 41.1817 48.625 32 48.625C22.8183 48.625 15.375 41.1817 15.375 32C15.375 29.4639 15.9428 27.0605 16.9583 24.9099ZM47.3056 20.74C49.6277 23.8912 51 27.7853 51 32C51 42.4934 42.4934 51 32 51C21.5066 51 13 42.4934 13 32C13 21.5066 21.5066 13 32 13C38.2409 13 43.779 16.009 47.2428 20.6553L47.3056 20.6119V20.74Z" fill="#69D298"/>
</svg>
