<svg width="64" height="64" viewBox="0 0 64 64" fill="none" xmlns="http://www.w3.org/2000/svg">
<path d="M46.0115 47.1293C45.1987 47.7583 44.2322 48.1302 43.3769 48.6893C43.2406 48.7779 43.0768 48.829 43.0118 48.9987H42.8867C42.8867 48.9576 42.8867 48.9164 42.8867 48.8752C42.8892 42.2348 42.8817 35.5945 42.9117 28.9541C42.9142 28.3339 42.6817 28.0257 42.179 27.7536C41.1561 27.202 40.1608 26.5993 39.1517 26.0227C36.7734 24.6637 34.3939 23.3072 32.0156 21.9494C31.7305 21.9594 31.508 22.1266 31.2779 22.2601C27.848 24.2344 24.4219 26.2149 20.9945 28.1929C19.9704 27.655 18.94 27.1271 18.0085 26.4345C18.0735 26.3846 18.1348 26.3285 18.2048 26.2873C22.6513 23.7227 27.1027 21.1632 31.543 18.5874C31.8968 18.3815 32.1432 18.4664 32.4545 18.6461C36.7734 21.142 41.0949 23.6354 45.4288 26.1038C45.8702 26.3547 46.0165 26.6255 46.0153 27.1222C46.0002 33.7912 46.0077 40.4603 46.0103 47.1293H46.0115Z" fill="#EBEFF5"/>
<path d="M32.1344 48.9987H31.8843C31.8793 48.9638 31.8768 48.9301 31.8756 48.8952C32.1969 48.2924 31.9293 47.6435 32.0206 47.0245C32.0806 46.6214 31.9218 46.393 31.5555 46.1959C30.5889 45.6767 29.6611 45.0852 28.6958 44.5623C27.4616 43.8921 26.3037 43.0847 25.0121 42.5181C25.9624 41.823 26.9902 41.2602 28.0506 40.751C28.3982 40.9307 28.7483 41.103 29.0909 41.2902C30.065 41.823 30.9828 42.4557 32.0106 42.8913C32.6946 42.5181 33.3723 42.1313 34.0663 41.7769C34.7203 41.4424 35.2842 40.9357 36.0207 40.7598C36.6434 40.9931 37.1511 41.4511 37.7588 41.6895C38.7916 42.0926 39.1155 42.7677 39.0455 43.8647C38.9954 44.6459 38.8979 45.2175 38.0901 45.477C37.8901 45.5407 37.7313 45.6792 37.6287 45.8701C35.7218 46.7824 33.92 47.8793 32.1332 49L32.1344 48.9987Z" fill="#A5EDFC"/>
<path d="M15.0063 24.8084C15.0038 24.7673 15.0025 24.7248 15 24.6836C20.5306 21.4964 26.0624 18.3091 31.588 15.1144C31.8568 14.9596 32.0644 14.9634 32.3295 15.1169C37.7675 18.2567 43.2093 21.3903 48.6549 24.5177C48.9025 24.6599 49 24.8197 49 25.1067C48.9925 31.7545 48.9937 38.4024 48.9975 45.0502C48.9975 45.2898 48.9825 45.4883 48.7324 45.6205C47.8171 46.1072 46.9618 46.7025 46.0115 47.1293C46.009 40.4603 46.0015 33.7912 46.0165 27.1221C46.0165 26.6255 45.8715 26.3547 45.4301 26.1038C41.0949 23.6341 36.7747 21.1407 32.4558 18.6461C32.1457 18.4664 31.8981 18.3815 31.5442 18.5874C27.104 21.1632 22.6538 23.7227 18.2061 26.2873C18.136 26.3284 18.0748 26.3846 18.0097 26.4345C17.9747 26.4345 17.9385 26.4345 17.9035 26.4345C16.9381 25.8929 15.9728 25.3501 15.0075 24.8084H15.0063Z" fill="#5E789B"/>
<path d="M26.3512 45.7716C24.6044 46.866 22.8138 47.8843 21.0007 48.8652C20.9982 41.9753 20.997 35.0841 20.9945 28.1929C24.4219 26.2149 27.848 24.2344 31.2779 22.2601C31.508 22.1278 31.7305 21.9606 32.0156 21.9494C32.0131 23.4432 32.0106 24.937 32.0081 26.4308C30.4101 27.3406 28.8021 28.2366 27.2165 29.1676C26.44 29.6243 25.5885 29.9625 24.9095 30.579C24.9095 31.2204 24.9295 31.8619 24.9058 32.5021C24.8933 32.8365 25.0121 33.02 25.3072 33.1822C26.1774 33.6614 27.0265 34.1768 27.8843 34.6773C27.6442 34.9743 27.2903 35.1028 26.9815 35.3C26.33 35.7181 25.5947 36.0013 25.0096 36.5255C25.0083 37.1844 25.0233 37.8433 24.9983 38.501C24.9858 38.8329 25.1008 39.0114 25.3934 39.1761C26.29 39.6791 27.1653 40.2219 28.0481 40.7486C26.9877 41.2565 25.9599 41.8193 25.0096 42.5157C25.0083 42.6604 25.0196 42.8064 25.0021 42.9499C24.857 44.1729 24.942 45.2849 26.3475 45.7703L26.3512 45.7716Z" fill="#C7D3E5"/>
<path d="M32.0081 26.432C32.0106 24.9382 32.0131 23.4444 32.0156 21.9506C34.3952 23.3084 36.7747 24.6649 39.1517 26.0239C40.1608 26.6005 41.1562 27.202 42.179 27.7549C42.6817 28.0269 42.9142 28.3351 42.9117 28.9554C42.8817 35.5957 42.8892 42.2361 42.8867 48.8764C41.1349 47.8743 39.3818 46.8722 37.63 45.8689C37.7325 45.6779 37.8901 45.5394 38.0914 45.4758C38.8992 45.2174 38.9979 44.6446 39.0467 43.8634C39.1167 42.7665 38.7929 42.0926 37.76 41.6882C37.1523 41.4511 36.6447 40.9919 36.022 40.7585C36.786 40.1894 37.6362 39.7639 38.4615 39.2984C38.8329 39.09 39.0617 38.8629 39.0217 38.3849C38.9704 37.7684 39.0042 37.1457 39.0004 36.5255C38.0714 35.8303 37.0535 35.2862 36.017 34.7733C36.0832 34.6011 36.247 34.5487 36.3883 34.4676C37.1548 34.0258 37.9213 33.584 38.6866 33.1385C38.8079 33.0674 38.9942 33.02 38.9879 32.8577C38.9567 32.0478 39.1567 31.2267 38.8854 30.4267C38.6728 30.2982 38.4615 30.1671 38.2464 30.0423C36.167 28.8368 34.0863 27.6338 32.0069 26.4295L32.0081 26.432Z" fill="#A3B7D5"/>
<path d="M20.9945 28.1929C20.997 35.0841 20.9982 41.974 21.0007 48.8652C19.8866 48.4222 18.9113 47.7308 17.8822 47.1343C17.8884 46.8648 17.8997 46.5964 17.8997 46.3269C17.901 39.6965 17.901 33.0662 17.901 26.4345C17.936 26.4345 17.9722 26.4345 18.0072 26.4345C18.9388 27.1272 19.9691 27.6563 20.9932 28.1929L20.9945 28.1929Z" fill="#A2B6D4"/>
<path d="M28.0506 40.751C27.1678 40.2244 26.2925 39.6815 25.3959 39.1786C25.1033 39.0139 24.9871 38.8354 25.0008 38.5035C25.0258 37.8458 25.0108 37.1869 25.0121 36.528C25.3159 36.5542 25.5397 36.7513 25.7886 36.8924C27.853 38.0667 29.9162 39.246 31.9794 40.4241C31.9906 41.2465 32.0019 42.0701 32.0131 42.8925C30.9853 42.457 30.0675 41.8243 29.0934 41.2914C28.7508 41.1042 28.3994 40.932 28.0531 40.7523L28.0506 40.751Z" fill="#1ACEF1"/>
<path d="M26.3512 45.7716C24.9458 45.2849 24.8595 44.1742 25.0058 42.9512C25.0233 42.8077 25.0108 42.6616 25.0133 42.5169C26.305 43.0834 27.4629 43.8921 28.697 44.561C29.6623 45.0839 30.5889 45.6754 31.5567 46.1946C31.9231 46.3918 32.0819 46.6201 32.0219 47.0232C31.9293 47.6435 32.1969 48.2911 31.8768 48.8939C30.0287 47.8656 28.2431 46.7262 26.3525 45.7703L26.3512 45.7716Z" fill="#1ACEF1"/>
<path d="M32.0119 42.8913C32.0006 42.0689 31.9894 41.2452 31.9794 40.4228C33.4086 39.7701 34.7065 38.8841 36.0832 38.1378C37.0598 37.6087 37.9751 36.9672 39.0017 36.528C39.0042 37.1482 38.9717 37.7709 39.0229 38.3874C39.0617 38.8654 38.8341 39.0913 38.4628 39.3009C37.6375 39.7664 36.7872 40.1919 36.0232 40.761C35.2867 40.937 34.7228 41.4449 34.0688 41.7781C33.3748 42.1325 32.6971 42.5194 32.0131 42.8925L32.0119 42.8913Z" fill="#8AE6F9"/>
<path d="M17.9022 26.4345C17.9022 33.0649 17.9022 39.6953 17.901 46.3269C17.901 46.5964 17.8897 46.8648 17.8834 47.1343C16.9256 46.5902 15.9666 46.0473 15.0087 45.5032C15.0087 38.6058 15.0087 31.7071 15.0087 24.8097C15.9741 25.3513 16.9394 25.8942 17.9047 26.4358L17.9022 26.4345Z" fill="#334866"/>
<path d="M32.0081 26.432C34.0888 27.6363 36.1683 28.8393 38.2477 30.0449C38.4628 30.1697 38.6728 30.3007 38.8867 30.4292C38.7566 30.5291 38.6366 30.6464 38.4965 30.7275C36.801 31.7071 35.1104 32.6968 33.3986 33.6465C32.9022 33.9222 32.4758 34.3503 31.8731 34.4189C29.7386 33.2009 27.6054 31.9817 25.471 30.7649C25.2972 30.6663 25.1471 30.4891 24.9095 30.5802C25.5873 29.9637 26.4388 29.6243 27.2165 29.1688C28.8021 28.2366 30.4101 27.3418 32.0081 26.432Z" fill="#B2F1FE"/>
<path d="M39.0004 36.5267C37.9738 36.966 37.0585 37.6075 36.082 38.1366C34.7053 38.8829 33.4073 39.7702 31.9781 40.4216C29.9149 39.2435 27.8517 38.0655 25.7873 36.8911C25.5385 36.7501 25.3147 36.5529 25.0108 36.5267C25.596 36.0026 26.3312 35.7181 26.9827 35.3012C27.2916 35.1041 27.6454 34.9755 27.8855 34.6785C28.0318 34.7546 28.1806 34.827 28.3244 34.9069C29.5173 35.5758 30.7102 36.2447 31.9031 36.9148C32.1669 36.9173 32.3682 36.7713 32.5871 36.649C33.7262 36.0163 34.794 35.2526 36.0182 34.7746C37.0548 35.2875 38.0726 35.8316 39.0017 36.5267H39.0004Z" fill="#B2F1FE"/>
<path d="M31.9031 36.9148C30.7102 36.2459 29.5185 35.5758 28.3244 34.9069C28.1806 34.8258 28.0318 34.7546 27.8855 34.6785C27.0277 34.1781 26.1787 33.6614 25.3084 33.1835C25.0133 33.0212 24.8945 32.8378 24.907 32.5033C24.9295 31.8631 24.912 31.2217 24.9108 30.5802C25.1484 30.4891 25.2984 30.6663 25.4722 30.7649C27.6067 31.9817 29.7411 33.2009 31.8743 34.4189C31.8843 35.2513 31.8943 36.0837 31.9043 36.9148L31.9031 36.9148Z" fill="#1ACEF1"/>
<path d="M31.9031 36.9148C31.8931 36.0825 31.8831 35.2501 31.8731 34.4189C32.477 34.3503 32.9022 33.921 33.3986 33.6465C35.1104 32.6968 36.801 31.7071 38.4965 30.7275C38.6366 30.6464 38.7566 30.5291 38.8867 30.4292C39.158 31.2292 38.9579 32.0491 38.9892 32.8602C38.9954 33.0225 38.8091 33.0699 38.6878 33.141C37.9226 33.5866 37.1561 34.0283 36.3896 34.4701C36.2483 34.5512 36.0832 34.6036 36.0182 34.7759C34.794 35.2538 33.7274 36.0176 32.5871 36.6503C32.3682 36.7726 32.1669 36.9186 31.9031 36.9161V36.9148Z" fill="#8AE6F9"/>
</svg>
