<svg width="64" height="64" viewBox="0 0 64 64" fill="none" xmlns="http://www.w3.org/2000/svg">
<path d="M31.0369 31.0041C29.2148 31.5015 27.3667 31.9059 25.5599 32.4639C21.8833 29.1681 17.1859 26.9817 12 26.4259C16.0523 23.5605 24.8976 18.1994 37.5801 18.1777L34.4268 21.0605C34.4268 21.0605 47.7891 20.5869 51.1617 16C51.1357 16.4304 50.8599 16.9948 50.7231 17.3862C49.7632 20.2019 48.0237 22.4748 45.8585 24.2265C43.7498 25.9371 41.3523 27.1504 38.9244 28.1625C36.4443 29.194 33.9512 30.1931 31.3887 30.9133C31.2692 30.9414 31.1563 30.9738 31.0369 31.0041ZM52 30.5521C52 30.5521 39.6671 29.6136 26.8586 33.7225C28.5568 35.4915 29.9901 37.5135 31.0846 39.7302C37.8233 35.9976 47.1637 31.2269 52 30.5521ZM31.9294 41.6484C32.7134 43.6488 33.2368 45.7812 33.4539 48L45.1918 35.9738L31.9294 41.6484Z" fill="#F99D1C"/>
</svg>
