<svg width="57" height="55" viewBox="0 0 57 55" fill="none" xmlns="http://www.w3.org/2000/svg">
<path d="M34.2247 18.3182V14H16.8825C16.8825 14 15 14 15 15.7862V41.9991H19.4025V19.2146C19.4025 18.7198 19.7999 18.3182 20.2894 18.3182H34.2247Z" fill="#0B0B0B"/>
<path d="M23.7745 41.9991V37.6809H37.7107C38.2001 37.6809 38.5975 37.2793 38.5975 36.7846V14H43V40.2139C43 42 41.1175 42 41.1175 42L23.7745 41.9991Z" fill="#0B0B0B"/>
<path d="M28.9222 33.2649C31.8301 33.2649 34.1874 30.9076 34.1874 27.9996C34.1874 25.0916 31.8301 22.7343 28.9222 22.7343C26.0142 22.7343 23.6569 25.0916 23.6569 27.9996C23.6569 30.9076 26.0142 33.2649 28.9222 33.2649Z" fill="#0B0B0B"/>
</svg>
