<svg width="64" height="64" viewBox="0 0 64 64" fill="none" xmlns="http://www.w3.org/2000/svg">
<path d="M44.7775 35.6609C49.1977 28.6102 50.7247 20.4371 49.3375 18.6416C47.5291 16.3001 44.9755 15.0758 41.7462 15.0033C40.4742 14.9748 39.3378 15.1372 38.5058 15.3116C40.4401 16.1771 41.8566 17.4601 42.828 18.6062C44.605 20.7029 45.4765 23.0181 45.5481 23.7925C45.559 23.9104 45.5508 24.0101 45.53 24.0944C45.5588 24.9022 45.4549 25.5851 45.3542 26.2477L45.3514 26.2658C45.2708 26.7975 45.1873 27.3477 45.1678 27.9886C45.1481 28.5989 45.2251 29.2491 45.3074 29.9374L45.3075 29.9378C45.5064 31.6157 45.7306 33.5076 44.5879 35.4195L44.6464 35.4938L44.6469 35.4944L44.6484 35.4964C44.6925 35.5522 44.7357 35.6069 44.7775 35.6609Z" fill="#336791"/>
<path fill-rule="evenodd" clip-rule="evenodd" d="M44.2521 26.0732C44.3324 25.5442 44.4093 25.038 44.4184 24.4795C42.2149 24.2025 41.3374 24.7167 40.9919 25.2181C39.8312 26.8993 42.096 31.017 43.0651 32.779L43.077 32.8005L43.0771 32.8008C43.3206 33.2437 43.4966 33.564 43.5787 33.7643C43.6703 33.9895 43.77 34.1934 43.8737 34.3798C44.5396 32.9438 44.3674 31.4891 44.2 30.0752L44.1997 30.0725C44.1165 29.3724 44.0306 28.6487 44.0529 27.9523C44.0753 27.2368 44.1648 26.6473 44.2516 26.0769L44.2521 26.0732ZM42.3824 26.1132C41.9207 26.1132 41.5306 25.7396 41.5001 25.521C41.4626 25.2399 41.9153 25.0259 42.3824 24.9597C42.8504 24.8935 43.3434 24.9742 43.3819 25.2544C43.3989 25.3804 43.3049 25.5745 43.1412 25.7486C43.0338 25.8629 42.8074 26.0615 42.4996 26.1041C42.4602 26.1096 42.4209 26.1123 42.3815 26.1123L42.3824 26.1132Z" fill="#336791"/>
<path d="M44.0681 36.5874C43.4373 36.7711 42.3044 37.1962 42.4078 39.3245C42.324 40.3967 41.7325 45.3898 41.4321 47.155C41.0357 49.4883 40.1884 50.3571 37.8065 50.8749C35.3369 51.4118 34.4627 50.1349 33.8865 48.6749C33.5143 47.7318 33.3317 43.4822 33.4615 38.7892C33.4631 38.7265 33.4546 38.6658 33.4374 38.6089C33.4227 38.5003 33.3997 38.3903 33.3684 38.2796C33.1751 37.5967 32.7054 37.0254 32.1417 36.7887C31.9176 36.6944 31.5066 36.5215 31.0129 36.6493C31.1182 36.2094 31.301 35.7127 31.4992 35.1745L31.5824 34.9478C31.6764 34.693 31.7936 34.4282 31.918 34.1489C32.5891 32.638 33.5071 30.5686 32.5103 25.8946C32.1363 24.1444 30.889 23.2892 28.9983 23.4878C27.8646 23.6066 26.8276 24.07 26.3104 24.3358C26.1999 24.3925 26.0977 24.4475 26.0032 24.5009C26.1478 22.7365 26.6936 19.4413 28.7335 17.3566C30.0184 16.0434 31.7292 15.395 33.814 15.4295C37.921 15.4975 40.5553 17.6341 42.0415 19.4142C43.3219 20.9486 44.0163 22.4939 44.2927 23.3273C42.2106 23.1124 40.7951 23.5286 40.0774 24.5688C38.5169 26.8301 40.9292 31.2165 42.0905 33.3282L42.0925 33.3318C42.3054 33.719 42.4889 34.0527 42.547 34.1951C42.9254 35.1235 43.4148 35.7438 43.7718 36.1963L43.772 36.1965L43.7767 36.2025C43.8842 36.3391 43.9888 36.4721 44.0681 36.5874Z" fill="#336791"/>
<path d="M26.6736 36.2606C26.5366 36.1419 26.4043 36.0153 26.2773 35.881C25.0515 34.5851 24.494 32.7904 24.7472 30.9558C25.0189 28.9848 24.9175 27.2436 24.8629 26.306L24.8627 26.3027C24.8475 26.0416 24.8367 25.852 24.8367 25.7205C24.8367 25.7152 24.8368 25.7095 24.8369 25.7036C24.8278 25.1589 24.8214 19.7552 27.938 16.5649C27.9652 16.5371 27.9925 16.5095 28.02 16.4822C26.0782 15.8412 21.2523 14.5799 18.3165 16.6891C16.5117 17.9859 15.6841 20.4 15.855 23.8624C15.9086 24.9578 16.5923 28.8628 17.7617 32.7459C19.1137 37.234 20.6465 40.0643 21.9681 40.5114L21.969 40.5117C22.1731 40.58 22.7891 40.7863 23.6807 39.7006C24.9417 38.1626 26.1277 36.8529 26.6736 36.2606Z" fill="#336791"/>
<path d="M43.5214 39.2608C43.6574 39.3732 44.2337 39.5555 45.3656 39.5011C46.391 39.4521 47.4692 39.2245 48.1143 38.9216C48.8641 38.5689 49.393 38.1753 49.7017 37.8833L49.6959 37.8845L49.6818 37.8876L49.6766 37.8887C47.386 38.3684 45.7629 38.3022 44.8529 37.6937C44.7965 37.6557 44.7446 37.6167 44.6972 37.5777C44.6359 37.5996 44.5722 37.618 44.5077 37.6367L44.4841 37.6435L44.4708 37.6473L44.461 37.6502L44.4599 37.6505C43.9449 37.7973 43.4588 37.9359 43.5223 39.2608H43.5214Z" fill="#336791"/>
<path fill-rule="evenodd" clip-rule="evenodd" d="M25.957 25.8866C25.9595 25.9407 25.963 26.0032 25.9668 26.0725L25.9668 26.0727L25.967 26.0749C25.9698 26.1257 25.9728 26.18 25.9758 26.2374C26.033 27.2132 26.1386 29.0287 25.8514 31.1136C25.6456 32.6027 26.0948 34.0555 27.0826 35.1002C27.8593 35.9218 28.8811 36.3761 29.9307 36.3797C30.0515 35.8773 30.2456 35.3495 30.455 34.7809L30.5373 34.556C30.6396 34.2765 30.7592 34.0061 30.885 33.7216L30.9006 33.6864C31.5422 32.2426 32.3394 30.4462 31.4196 26.135C31.2415 25.3025 30.8147 24.8182 30.1132 24.6559C28.577 24.2988 26.4241 25.4678 25.957 25.8866ZM29.9307 26.5838C29.8886 26.5838 29.8457 26.5811 29.8036 26.5748C29.5092 26.533 29.2113 26.3453 29.0082 26.0715C28.9366 25.9744 28.8194 25.7876 28.8426 25.618C28.8516 25.5536 28.8838 25.4611 28.9885 25.3804C29.1746 25.2381 29.5415 25.1846 29.9477 25.2426C30.4452 25.3124 30.9588 25.5518 30.9096 25.91C30.8702 26.1957 30.4237 26.5838 29.9325 26.5838H29.9307Z" fill="#336791"/>
<path d="M26.4996 40.5887C26.6616 40.7002 26.937 40.8352 27.2437 40.9131C28.7317 41.2903 30.804 41.3166 32.2258 39.2989C32.394 39.0595 32.343 38.7521 32.2965 38.5906C32.1998 38.2478 31.9609 37.9359 31.7149 37.8334L31.7141 37.8331C31.4121 37.7063 31.2448 37.6361 30.88 38.0501C30.647 38.3139 30.4762 38.5326 30.3254 38.7257L30.302 38.7557C29.6211 39.6317 29.3097 39.9292 27.2911 40.3499C26.8755 40.4367 26.635 40.5244 26.4996 40.5887Z" fill="#336791"/>
</svg>
