<svg width="64" height="64" viewBox="0 0 64 64" fill="none" xmlns="http://www.w3.org/2000/svg">
<path d="M32.0005 15C22.6118 15 15 22.6109 15 31.9999C15 41.3885 22.6118 49 32.0005 49C41.3891 49 49.0006 41.3885 49.0006 31.9999C49.0006 22.6109 41.3888 15 32.0005 15ZM32.0005 46.8172C29.3292 46.8172 27.1635 45.0327 27.1635 42.8322H36.8375C36.8375 45.0324 34.6717 46.8172 32.0005 46.8172ZM39.9896 41.5124H24.0104V38.615H39.9899L39.9896 41.5124ZM39.9323 37.1237H24.056C24.0032 37.0628 23.9492 37.0028 23.8982 36.941C22.2626 34.9549 21.8773 33.9181 21.5032 32.8615C21.4969 32.8267 23.4866 33.268 24.8975 33.5854C24.8975 33.5854 25.6235 33.7534 26.6849 33.9469C25.6658 32.7523 25.0607 31.2336 25.0607 29.6814C25.0607 26.2736 27.6744 23.2958 26.7314 20.8888C27.6492 20.9635 28.6308 22.8257 28.6971 25.7372C29.6727 24.389 30.081 21.9268 30.081 20.4172C30.081 18.8542 31.1109 17.0385 32.1412 16.9764C31.2228 18.49 32.3791 19.7875 33.4069 23.0063C33.7924 24.2153 33.7432 26.2499 34.0408 27.5403C34.1395 24.8603 34.6003 20.95 36.3004 19.6C35.5504 21.3001 36.4114 23.4275 37.0004 24.4502C37.9505 26.1002 38.5265 27.3504 38.5265 29.7147C38.5265 31.2999 37.9412 32.7925 36.9539 33.9592C38.0765 33.7486 38.8517 33.5587 38.8517 33.5587L42.4974 32.8474C42.4977 32.8471 41.9679 35.0257 39.9323 37.1237Z" fill="#E6522C"/>
</svg>
