<svg width="64" height="64" viewBox="0 0 64 64" fill="none" xmlns="http://www.w3.org/2000/svg">
<path d="M47.5172 19.5705L34.5188 11.6979C33.7632 11.241 32.901 11 32.0226 11C31.1443 11 30.2821 11.241 29.5264 11.6979L16.528 19.5705C15.7553 20.0408 15.1158 20.7083 14.6726 21.5073C14.2293 22.3063 13.9975 23.2093 14.0001 24.1274V39.8726C13.9952 40.7885 14.2235 41.69 14.6627 42.4888C15.1018 43.2876 15.7368 43.9563 16.5054 44.4295L29.5038 52.3021C30.2594 52.7589 31.1216 53 32 53C32.8783 53 33.7405 52.7589 34.4962 52.3021L47.4946 44.4295C48.2631 43.9563 48.8981 43.2876 49.3372 42.4888C49.7764 41.69 50.0047 40.7885 49.9998 39.8726V24.1274C50.0071 23.2137 49.7822 22.3137 49.3471 21.5151C48.912 20.7165 48.2816 20.0465 47.5172 19.5705ZM37.4507 44.1563V45.2862C37.4499 45.3557 37.432 45.4239 37.3987 45.4846C37.3654 45.5453 37.3178 45.5965 37.2601 45.6335L36.602 46.0179C36.4977 46.0735 36.4114 46.0179 36.4114 45.8697V44.7583C35.9463 44.9913 35.414 45.0439 34.9137 44.9065C34.8748 44.88 34.8463 44.8405 34.833 44.7948C34.8198 44.7492 34.8226 44.7002 34.8411 44.6564L35.0771 43.633C35.0972 43.5467 35.1432 43.469 35.2087 43.4107C35.2275 43.3921 35.2489 43.3765 35.2722 43.3644C35.2887 43.3571 35.3065 43.3534 35.3244 43.3534C35.3424 43.3534 35.3602 43.3571 35.3766 43.3644C35.8356 43.4898 36.3244 43.4266 36.7382 43.1884C37.0322 43.0417 37.282 42.8167 37.4609 42.5371C37.6399 42.2574 37.7414 41.9337 37.7548 41.6C37.7548 41.0257 37.4462 40.7849 36.7019 40.7803C35.7579 40.7803 34.8865 40.5951 34.8638 39.1734C34.8746 38.5662 35.017 37.969 35.2806 37.4246C35.5442 36.8801 35.9227 36.4019 36.3887 36.0243V34.8805C36.3884 34.8101 36.4057 34.7408 36.4391 34.6791C36.4725 34.6175 36.5208 34.5657 36.5793 34.5285L37.2147 34.1163C37.3191 34.0608 37.4054 34.1163 37.4054 34.2692V35.413C37.7945 35.2322 38.2289 35.1788 38.6489 35.2602C38.6926 35.2856 38.7253 35.3269 38.7404 35.3758C38.7556 35.4248 38.7521 35.4777 38.7306 35.5242L38.5082 36.5383C38.4894 36.6156 38.4501 36.686 38.3948 36.7421C38.3763 36.7623 38.3548 36.7795 38.3312 36.793C38.3003 36.8036 38.2668 36.8036 38.2359 36.793C37.8262 36.7014 37.3977 36.7726 37.0377 36.9922C36.7755 37.1079 36.5509 37.2974 36.3902 37.5385C36.2295 37.7795 36.1392 38.0623 36.13 38.3537C36.13 38.8723 36.3978 39.0298 37.2964 39.0483C38.4992 39.0483 39.0165 39.604 39.0302 40.8359C39.0189 41.4731 38.8718 42.1002 38.599 42.6736C38.3263 43.247 37.9344 43.753 37.4507 44.1563ZM46.5278 22.8909L34.2284 30.6431C32.6943 31.5693 31.5643 32.5835 31.5643 34.4683V49.9264C31.5643 51.0564 32.0181 51.7788 32.6989 52.0011C32.4743 52.0442 32.2466 52.0674 32.0181 52.0706C31.2958 52.0689 30.5872 51.8689 29.9667 51.4917L16.9683 43.6191C16.3372 43.2291 15.8158 42.6791 15.4547 42.0226C15.0937 41.3661 14.9052 40.6254 14.9078 39.8726V24.1274C14.9045 23.3738 15.0925 22.6322 15.4536 21.9748C15.8147 21.3174 16.3366 20.7667 16.9683 20.3763L29.9667 12.5037C30.585 12.13 31.2904 11.9328 32.009 11.9328C32.7277 11.9328 33.4331 12.13 34.0514 12.5037L47.0498 20.3763C47.579 20.7031 48.0319 21.1438 48.3768 21.6677C48.7217 22.1917 48.9504 22.7861 49.0467 23.4096C48.6246 22.4741 47.6534 22.2148 46.5233 22.8909H46.5278Z" fill="#231F1B"/>
<path d="M44.2436 42.3946C44.2612 42.3496 44.2664 42.3006 44.2586 42.2529V41.4888C44.2634 41.4689 44.2618 41.4478 44.2542 41.4288C44.2466 41.4098 44.2332 41.3937 44.2161 41.3829C44.1989 41.3721 44.1789 41.3671 44.1588 41.3687C44.1387 41.3702 44.1196 41.3783 44.1043 41.3916L40.8683 43.369C40.8258 43.3859 40.7891 43.4151 40.7625 43.4529C40.7359 43.4907 40.7206 43.5355 40.7185 43.582V44.448C40.7137 44.468 40.7152 44.489 40.7229 44.508C40.7305 44.527 40.7438 44.5431 40.761 44.5539C40.7781 44.5647 40.7982 44.5697 40.8183 44.5681C40.8384 44.5666 40.8575 44.5586 40.8728 44.5453L44.1587 42.5076C44.1966 42.4786 44.226 42.4395 44.2436 42.3946Z" fill="#A7FFBF"/>
</svg>
