<svg width="64" height="64" viewBox="0 0 64 64" fill="none" xmlns="http://www.w3.org/2000/svg">
<path d="M11.0022 37.9946C12.6574 37.9946 14.0045 39.3347 14.0045 40.9973C14.0045 42.6527 12.6574 44 11.0022 44C9.34707 44 8 42.6599 8 40.9973C8 39.3419 9.34707 37.9946 11.0022 37.9946Z" fill="black"/>
<path d="M17.0067 31.9964C18.6619 31.9964 20.009 33.3365 20.009 34.9991C20.009 36.6545 18.6691 38.0018 17.0067 38.0018C15.3515 38.0018 14.0045 36.6617 14.0045 34.9991C14.0045 33.3437 15.3444 31.9964 17.0067 31.9964Z" fill="black"/>
<path d="M23.004 25.9982C24.6592 25.9982 26.0063 27.3383 26.0063 28.9937C26.0063 30.6491 24.6664 31.9893 23.004 31.9893C21.3489 31.9893 20.0018 30.6491 20.0018 28.9937C20.0018 27.3455 21.3489 25.9982 23.004 25.9982Z" fill="black"/>
<path d="M23.004 37.9946C24.6592 37.9946 26.0063 39.3347 26.0063 40.9973C26.0063 42.6527 24.6664 44 23.004 44C21.3489 44 20.0018 42.6599 20.0018 40.9973C20.0018 39.3419 21.3489 37.9946 23.004 37.9946Z" fill="black"/>
<path d="M29.0013 31.9964C30.6565 31.9964 32.0036 33.3365 32.0036 34.9991C32.0036 36.6545 30.6637 38.0018 29.0013 38.0018C27.3462 38.0018 25.9991 36.6617 25.9991 34.9991C26.0063 33.3437 27.3462 31.9964 29.0013 31.9964Z" fill="black"/>
<path d="M34.9987 25.9982C36.6538 25.9982 38.0009 27.3383 38.0009 28.9937C38.0009 30.6491 36.661 31.9893 34.9987 31.9893C33.3435 31.9893 31.9964 30.6491 31.9964 28.9937C32.0036 27.3455 33.3435 25.9982 34.9987 25.9982Z" fill="black"/>
<path d="M34.9987 37.9946C36.6538 37.9946 38.0009 39.3347 38.0009 40.9973C38.0009 42.6527 36.661 44 34.9987 44C33.3435 44 31.9964 42.6599 31.9964 40.9973C32.0036 39.3419 33.3435 37.9946 34.9987 37.9946Z" fill="black"/>
<path d="M41.0031 31.9964C42.6583 31.9964 44.0054 33.3365 44.0054 34.9991C44.0054 36.6545 42.6583 38.0018 41.0031 38.0018C39.348 38.0018 38.0009 36.6617 38.0009 34.9991C38.0009 33.3437 39.348 31.9964 41.0031 31.9964Z" fill="black"/>
<path d="M47.0004 25.9982C48.6556 25.9982 49.9955 27.3383 49.9955 28.9937C49.9955 30.6491 48.6556 31.9893 47.0004 31.9893C45.3453 31.9893 44.0054 30.6491 44.0054 28.9937C44.0054 27.3455 45.3453 25.9982 47.0004 25.9982Z" fill="black"/>
<path d="M52.9978 20C54.6529 20 56 21.3401 56 23.0027C56 24.6581 54.6529 26.0054 52.9978 26.0054C51.3426 26.0054 49.9955 24.6653 49.9955 23.0027C50.0027 21.3473 51.3426 20 52.9978 20Z" fill="black"/>
</svg>
