<svg width="64" height="64" viewBox="0 0 64 64" fill="none" xmlns="http://www.w3.org/2000/svg">
<path d="M32 15C22.616 15 15 22.616 15 32C15 41.384 22.616 49 32 49C41.384 49 49 41.384 49 32C49 22.616 41.384 15 32 15ZM32 44.512C25.064 44.512 19.488 38.936 19.488 32C19.488 25.064 25.064 19.488 32 19.488C38.936 19.488 44.512 25.064 44.512 32C44.512 38.936 38.936 44.512 32 44.512Z" fill="#F12E45"/>
<path d="M36.216 31.32C38.1689 31.32 39.752 29.7369 39.752 27.784C39.752 25.8311 38.1689 24.248 36.216 24.248C34.2631 24.248 32.68 25.8311 32.68 27.784C32.68 29.7369 34.2631 31.32 36.216 31.32Z" fill="#F12E45"/>
<path d="M36.216 39.752C38.1689 39.752 39.752 38.1689 39.752 36.216C39.752 34.2631 38.1689 32.68 36.216 32.68C34.2631 32.68 32.68 34.2631 32.68 36.216C32.68 38.1689 34.2631 39.752 36.216 39.752Z" fill="#F12E45"/>
<path d="M27.784 39.752C29.7369 39.752 31.32 38.1689 31.32 36.216C31.32 34.2631 29.7369 32.68 27.784 32.68C25.8311 32.68 24.248 34.2631 24.248 36.216C24.248 38.1689 25.8311 39.752 27.784 39.752Z" fill="#F12E45"/>
<path d="M27.784 31.32C29.7369 31.32 31.32 29.7369 31.32 27.784C31.32 25.8311 29.7369 24.248 27.784 24.248C25.8311 24.248 24.248 25.8311 24.248 27.784C24.248 29.7369 25.8311 31.32 27.784 31.32Z" fill="#F12E45"/>
</svg>
