<svg width="560" height="560" viewBox="0 0 560 560" fill="none" xmlns="http://www.w3.org/2000/svg">
<path d="M221.556 440.815C221.562 442.771 221.97 444.704 222.757 446.495C223.543 448.285 224.689 449.894 226.125 451.221C227.56 452.549 229.254 453.566 231.1 454.209C232.946 454.852 234.905 455.107 236.854 454.959C310.941 449.655 380.913 397.224 403.253 315.332C404.426 310.622 407.961 308.26 412.669 308.26C415.082 308.357 417.36 309.402 419.009 311.168C420.658 312.934 421.545 315.278 421.477 317.694C421.477 335.953 398.006 383.675 364.442 411.368C362.731 412.807 361.367 414.614 360.452 416.654C359.536 418.694 359.093 420.914 359.154 423.15C359.188 424.967 359.58 426.76 360.308 428.426C361.037 430.091 362.086 431.596 363.397 432.855C364.708 434.114 366.254 435.102 367.948 435.761C369.641 436.421 371.448 436.74 373.264 436.699C376.205 436.699 380.913 434.931 386.795 429.628C410.266 408.412 455 348.909 455 283.509C455 187.624 380.872 105 277.418 105C185.106 105 105.138 180.415 105.138 267.611C105.138 325.346 151.004 368.937 211.56 368.937C258.02 368.937 300.945 335.953 312.708 290.58C313.882 285.87 317.402 283.509 322.11 283.509C324.525 283.606 326.805 284.65 328.456 286.415C330.107 288.181 330.997 290.525 330.933 292.942C330.933 313.564 292.122 385.484 213.327 385.484C194.509 385.484 170.996 380.18 154.524 370.746C152.319 369.677 149.917 369.076 147.469 368.978C145.594 368.906 143.725 369.223 141.979 369.909C140.232 370.594 138.647 371.634 137.321 372.963C135.996 374.291 134.96 375.879 134.278 377.628C133.596 379.376 133.283 381.247 133.359 383.122C133.435 385.524 134.123 387.867 135.357 389.929C136.592 391.991 138.333 393.703 140.414 394.904C162.173 407.335 188.047 413.757 214.501 413.757C280.359 413.757 340.335 368.978 357.98 302.998C359.154 298.288 362.688 295.926 367.383 295.926C369.797 296.023 372.077 297.067 373.728 298.833C375.379 300.598 376.269 302.943 376.205 305.359C376.205 332.459 327.992 419.655 235.087 426.727C231.492 426.994 228.123 428.58 225.625 431.18C223.128 433.78 221.679 437.212 221.556 440.815V440.815Z" fill="#DEDEFC"/>
<path d="M313.62 215.18C326.301 215.085 338.748 218.591 349.517 225.29C350.605 219.332 351.206 213.294 351.312 207.238C351.312 179.268 329.995 154.213 304.038 154.213C283.853 154.213 271.233 170.939 271.233 191.602C271.137 202.765 275.057 213.59 282.279 222.1C292.062 217.433 302.782 215.066 313.62 215.18V215.18Z" fill="white"/>
<path d="M374.439 316.505C378.043 304.185 379.63 295.635 379.63 290.083C379.52 287.685 378.493 285.421 376.761 283.76C375.028 282.099 372.724 281.168 370.325 281.16C368.089 281.202 365.932 281.99 364.196 283.399C362.46 284.808 361.244 286.757 360.743 288.936C359.762 292.983 357.664 303.95 355.593 310.912C356.449 308.306 357.231 305.658 357.94 302.97C359.114 298.246 362.648 295.898 367.342 295.898C369.756 295.991 372.035 297.033 373.687 298.796C375.338 300.559 376.228 302.902 376.165 305.318C376.054 309.115 375.446 312.881 374.356 316.519L374.439 316.505Z" fill="#C9C6FA"/>
<path d="M424.418 303.632C424.305 301.237 423.278 298.977 421.55 297.317C419.821 295.658 417.522 294.724 415.126 294.709C412.893 294.754 410.739 295.543 409.006 296.952C407.272 298.36 406.059 300.308 405.558 302.485C404.564 306.629 402.424 317.761 400.325 324.709H400.422C401.444 321.615 402.396 318.48 403.183 315.289C404.357 310.565 407.891 308.217 412.599 308.217C415.012 308.311 417.29 309.353 418.939 311.116C420.588 312.88 421.475 315.223 421.408 317.637C421.341 320.57 420.938 323.485 420.207 326.325C423.134 316.049 424.418 308.618 424.418 303.632Z" fill="#C9C6FA"/>
<path d="M313.62 215.18C319.922 215.168 326.197 216.009 332.273 217.68C335.463 213.328 337.057 208.01 336.787 202.62C336.517 197.229 334.399 192.097 330.79 188.086C327.181 184.075 322.3 181.43 316.971 180.596C311.641 179.763 306.186 180.791 301.525 183.509L311.19 199.421L293.09 191.589C290.638 195.547 289.408 200.141 289.556 204.794C289.703 209.448 291.221 213.955 293.918 217.749C300.341 216.018 306.968 215.154 313.62 215.18V215.18Z" fill="#0E0F34"/>
<path d="M174.172 317.583C181.797 317.583 187.979 311.399 187.979 303.771C187.979 296.143 181.797 289.959 174.172 289.959C166.547 289.959 160.365 296.143 160.365 303.771C160.365 311.399 166.547 317.583 174.172 317.583Z" fill="#C9C6FA"/>
<path d="M174.172 262.333C181.797 262.333 187.979 256.149 187.979 248.521C187.979 240.893 181.797 234.709 174.172 234.709C166.547 234.709 160.365 240.893 160.365 248.521C160.365 256.149 166.547 262.333 174.172 262.333Z" fill="#C9C6FA"/>
<path d="M146.558 289.958C154.183 289.958 160.364 283.774 160.364 276.146C160.364 268.518 154.183 262.334 146.558 262.334C138.932 262.334 132.751 268.518 132.751 276.146C132.751 283.774 138.932 289.958 146.558 289.958Z" fill="#C9C6FA"/>
<path d="M208.689 368.911H211.45C257.91 368.911 300.835 335.927 312.598 290.554C313.772 285.844 317.292 283.482 322 283.482C324.415 283.579 326.694 284.624 328.345 286.389C329.997 288.155 330.886 290.499 330.823 292.916C330.612 297.737 329.522 302.479 327.606 306.908C327.939 306.394 328.23 305.853 328.476 305.292C331.969 297.304 333.774 288.679 333.777 279.96C333.777 266.41 324.361 257.571 310.844 257.571C287.276 257.571 282.554 278.151 272.614 300.154C262.3 322.999 243.357 347.709 195.586 347.709C145.951 347.709 94.9487 312.944 107.389 242.253C107.54 241.369 107.665 240.582 107.761 239.85C105.939 248.982 105.014 258.272 105 267.584C105.138 324.491 149.582 367.585 208.689 368.911Z" fill="#C9C6FA"/>
</svg>
