<?xml version="1.0" encoding="UTF-8"?>
<svg width="60px" height="60px" viewBox="0 0 60 60" version="1.1" xmlns="http://www.w3.org/2000/svg" xmlns:xlink="http://www.w3.org/1999/xlink">
    <!-- Generator: Sketch 63.1 (92452) - https://sketch.com -->
    <title>Slice</title>
    <desc>Created with Sketch.</desc>
    <g id="Page-1" stroke="none" stroke-width="1" fill="none" fill-rule="evenodd">
        <g id="Rectangle-84" transform="translate(8.000000, 0.000000)" fill="#EBF4FF" fill-rule="nonzero">
            <polygon id="Path" points="15 0 45 0 30 60 0 60"></polygon>
        </g>
        <g id="Vector-(2)" transform="translate(11.000000, 11.000000)" stroke="#2491EB" stroke-width="2">
            <path d="M12,32 L12,20 C12,17.7909 10.2091,16 8,16 L4,16 C1.79086,16 0,17.7909 0,20 L0,32 C0,34.2091 1.79086,36 4,36 L8,36 C10.2091,36 12,34.2091 12,32 Z M12,32 L12,12 C12,9.7909 13.7909,8 16,8 L20,8 C22.2091,8 24,9.7909 24,12 L24,32 M12,32 C12,34.2091 13.7909,36 16,36 L20,36 C22.2091,36 24,34.2091 24,32 M24,32 L24,4 C24,1.79086 25.7909,0 28,0 L32,0 C34.2091,0 36,1.79086 36,4 L36,32 C36,34.2091 34.2091,36 32,36 L28,36 C25.7909,36 24,34.2091 24,32 Z" id="Shape"></path>
        </g>
    </g>
</svg>