<?xml version="1.0" encoding="UTF-8"?>
<svg width="60px" height="60px" viewBox="0 0 60 60" version="1.1" xmlns="http://www.w3.org/2000/svg" xmlns:xlink="http://www.w3.org/1999/xlink">
    <!-- Generator: Sketch 63.1 (92452) - https://sketch.com -->
    <title>Slice</title>
    <desc>Created with Sketch.</desc>
    <g id="Page-1" stroke="none" stroke-width="1" fill="none" fill-rule="evenodd">
        <g id="Group" transform="translate(8.000000, 0.000000)" fill-rule="nonzero">
            <g id="Rectangle-84" fill="#EBF4FF">
                <polygon id="Path" points="15 0 45 0 30 60 0 60"></polygon>
            </g>
            <g id="Vector" transform="translate(2.000000, 15.000000)" fill="#2491EB">
                <path d="M28,9 C28,9.55229 28.4477,10 29,10 C29.5523,10 30,9.55229 30,9 L28,9 Z M9,22 C9.55229,22 10,21.5523 10,21 C10,20.4477 9.55229,20 9,20 L9,22 Z M13,10 L33,10 L33,8 L13,8 L13,10 Z M36,13 L36,25 L38,25 L38,13 L36,13 Z M33,28 L13,28 L13,30 L33,30 L33,28 Z M10,25 L10,13 L8,13 L8,25 L10,25 Z M13,28 C11.3431,28 10,26.6569 10,25 L8,25 C8,27.7614 10.2386,30 13,30 L13,28 Z M36,25 C36,26.6569 34.6569,28 33,28 L33,30 C35.7614,30 38,27.7614 38,25 L36,25 Z M33,10 C34.6569,10 36,11.3431 36,13 L38,13 C38,10.2386 35.7614,8 33,8 L33,10 Z M13,8 C10.2386,8 8,10.2386 8,13 L10,13 C10,11.3431 11.3431,10 13,10 L13,8 Z M5,2 L25,2 L25,0 L5,0 L5,2 Z M2,17 L2,5 L0,5 L0,17 L2,17 Z M5,20 C3.34315,20 2,18.6569 2,17 L0,17 C0,19.7614 2.23858,22 5,22 L5,20 Z M25,2 C26.6569,2 28,3.34315 28,5 L30,5 C30,2.23858 27.7614,0 25,0 L25,2 Z M5,0 C2.23858,0 0,2.23858 0,5 L2,5 C2,3.34315 3.34315,2 5,2 L5,0 Z M28,5 L28,9 L30,9 L30,5 L28,5 Z M9,20 L5,20 L5,22 L9,22 L9,20 Z M26,19 C26,20.6569 24.6569,22 23,22 L23,24 C25.7614,24 28,21.7614 28,19 L26,19 Z M23,22 C21.3431,22 20,20.6569 20,19 L18,19 C18,21.7614 20.2386,24 23,24 L23,22 Z M20,19 C20,17.3431 21.3431,16 23,16 L23,14 C20.2386,14 18,16.2386 18,19 L20,19 Z M23,16 C24.6569,16 26,17.3431 26,19 L28,19 C28,16.2386 25.7614,14 23,14 L23,16 Z" id="Shape"></path>
            </g>
        </g>
    </g>
</svg>