<?xml version="1.0" encoding="UTF-8"?>
<svg width="60px" height="60px" viewBox="0 0 60 60" version="1.1" xmlns="http://www.w3.org/2000/svg" xmlns:xlink="http://www.w3.org/1999/xlink">
    <!-- Generator: Sketch 63.1 (92452) - https://sketch.com -->
    <title>Slice</title>
    <desc>Created with Sketch.</desc>
    <g id="Page-1" stroke="none" stroke-width="1" fill="none" fill-rule="evenodd">
        <g id="Rectangle-84" transform="translate(8.000000, 0.000000)" fill="#EBF4FF" fill-rule="nonzero">
            <polygon id="Path" points="15 0 45 0 30 60 0 60"></polygon>
        </g>
        <g id="Vector-(1)" transform="translate(11.000000, 11.000000)" fill="#2491EB" fill-rule="nonzero">
            <path d="M36.2358,7.07999268 L37.2039,6.82943 C37.0849,6.36985 36.6593,6.05724 36.1851,6.08129 L36.2358,7.07999268 Z M18.9999,0.999999925 L19.6668,0.25487 C19.2871,-0.084953 18.7126,-0.0849572 18.333,0.25486 L18.9999,0.999999925 Z M1.76426,7.07975264 L1.81491,6.08105 C1.3408,6.057 0.915122,6.3696 0.796164,6.82918 L1.76426,7.07975264 Z M19,36.3552 L18.7507,37.3237 C18.9143,37.3658 19.0858,37.3658 19.2493,37.3237 L19,36.3552 Z M13.7071,18.4042 C13.3166,18.0137 12.6834,18.0137 12.2929,18.4042 C11.9024,18.7948 11.9024,19.4279 12.2929,19.8185 L13.7071,18.4042 Z M17,23.1114 L16.2929,23.8185 C16.6834,24.209 17.3166,24.209 17.7071,23.8185 L17,23.1114 Z M25.7071,15.8185 C26.0976,15.4279 26.0976,14.7948 25.7071,14.4042 C25.3166,14.0137 24.6834,14.0137 24.2929,14.4042 L25.7071,15.8185 Z M36.1851,6.08129 C35.7927,6.10119 35.3976,6.11127 35,6.11127 L35,8.11127 C35.4314,8.11127 35.8603,8.10034 36.2865,8.07872 L36.1851,6.08129 Z M35,6.11127 C29.1086,6.11127 23.7366,3.89751 19.6668,0.25487 L18.3329,1.74513 C22.7553,5.70328 28.5976,8.11127 35,8.11127 L35,6.11127 Z M18.333,0.25486 C14.2632,3.89736 8.89129,6.11103 3,6.11103 L3,8.11103 C9.40225,8.11103 15.2445,5.70314 19.6668,1.74514 L18.333,0.25486 Z M3,6.11103 C2.60245,6.11103 2.20734,6.10095 1.81491,6.08105 L1.7136,8.07848 C2.13976,8.10009 2.56865,8.11103 3,8.11103 L3,6.11103 Z M0.796164,6.82918 C0.27631,8.83755 0,10.9429 0,13.1114 L2,13.1114 C2,11.1134 2.25451,9.17642 2.73235,7.33035 L0.796164,6.82918 Z M0,13.1114 C0,24.7617 7.96829,34.5485 18.7507,37.3237 L19.2493,35.3868 C9.32899,32.8335 2,23.8271 2,13.1114 L0,13.1114 Z M19.2493,37.3237 C30.0317,34.5485 38,24.7617 38,13.1114 L36,13.1114 C36,23.8271 28.671,32.8335 18.7507,35.3868 L19.2493,37.3237 Z M38,13.1114 C38,10.943 37.7237,8.83773 37.2039,6.82943 L35.2677,7.33058 C35.7455,9.17659 36,11.1135 36,13.1114 L38,13.1114 Z M12.2929,19.8185 L16.2929,23.8185 L17.7071,22.4042 L13.7071,18.4042 L12.2929,19.8185 Z M17.7071,23.8185 L25.7071,15.8185 L24.2929,14.4042 L16.2929,22.4042 L17.7071,23.8185 Z" id="Shape"></path>
        </g>
    </g>
</svg>