<svg width="107" height="106" viewBox="0 0 107 106" fill="none" xmlns="http://www.w3.org/2000/svg">
<path d="M48.6185 102.387C48.6209 102.866 48.722 103.34 48.9155 103.779C49.109 104.218 49.3908 104.613 49.7433 104.938C50.0958 105.263 50.5115 105.513 50.9645 105.671C51.4175 105.828 51.8981 105.891 52.3765 105.855C70.5882 104.555 87.7882 91.6908 93.2807 71.6C93.5698 70.4437 94.437 69.8655 95.5933 69.8655C96.7496 69.8655 97.7613 70.8773 97.7613 72.1782C97.7613 76.6588 91.9798 88.3664 83.7412 95.1597C82.874 95.8824 82.4403 96.8941 82.4403 98.0504C82.4403 99.9294 84.0303 101.375 85.9092 101.375C86.6319 101.375 87.7882 100.941 89.2336 99.6403C95.0151 94.437 106 79.8387 106 63.795C106 40.2714 87.7781 20 62.3496 20C39.6571 20 20 38.5008 20 59.8924C20 74.0571 31.274 84.7529 46.1613 84.7529C57.5798 84.7529 68.1311 76.6588 71.0219 65.5294C71.3109 64.3731 72.1782 63.795 73.3345 63.795C74.4908 63.795 75.5025 64.8067 75.5025 66.1076C75.5025 71.1664 65.963 88.8 46.595 88.8C41.9697 88.8 36.1882 87.4992 32.1412 85.1866C31.5992 84.9236 31.0086 84.776 30.4067 84.7529C28.3832 84.7529 26.9378 86.1983 26.9378 88.2219C26.9378 89.3782 27.6605 90.5345 28.6723 91.1126C34.0202 94.1479 40.3798 95.7378 46.884 95.7378C63.0723 95.7378 77.8151 84.7529 82.1513 68.5647C82.4403 67.4084 83.3076 66.8303 84.4639 66.8303C85.6202 66.8303 86.6319 67.842 86.6319 69.1429C86.6319 75.7916 74.7798 97.1832 51.9429 98.9177C50.0639 99.0622 48.6185 100.652 48.6185 102.387Z" fill="#DD5448"/>
<path d="M71.2358 47.0287C74.3527 47.0055 77.4124 47.8665 80.0599 49.5118C80.3276 48.0501 80.476 46.569 80.5036 45.0832C80.5036 38.2205 75.2627 32.0748 68.8813 32.0748C63.9179 32.0748 60.8161 36.1768 60.8161 41.2472C60.7956 43.9866 61.7623 46.6419 63.5391 48.727C65.8546 47.6054 68.4433 47.0287 71.2358 47.0287Z" fill="white"/>
<path d="M86.1975 71.8895C87.0806 68.8672 87.4724 66.7686 87.4724 65.4056C87.4724 64.3475 86.5126 63.2173 85.1857 63.2173C84.636 63.2261 84.1052 63.419 83.6781 63.7651C83.251 64.1113 82.9523 64.5906 82.8298 65.1266C82.5884 66.1167 82.071 68.808 81.5622 70.5164C81.7732 69.8747 81.9659 69.2247 82.1403 68.5666C82.4294 67.4103 83.2966 66.8321 84.453 66.8321C85.6093 66.8321 86.621 67.8439 86.621 69.1448C86.5937 70.0757 86.444 70.999 86.1758 71.891L86.1975 71.8895Z" fill="#A50906"/>
<path d="M98.4821 68.73C98.4821 67.6719 97.5224 66.5417 96.1969 66.5417C95.6485 66.5526 95.1194 66.7462 94.6935 67.0918C94.2675 67.4374 93.9691 67.9152 93.8453 68.4495C93.601 69.4526 93.0749 72.1974 92.5604 73.9015H92.585C92.8336 73.1427 93.0677 72.3737 93.2802 71.5889C93.5692 70.4326 94.4365 69.8545 95.5928 69.8545C96.7491 69.8545 97.7608 70.8662 97.7608 72.1671C97.7433 72.8866 97.644 73.6019 97.4645 74.299C98.1656 71.7754 98.4821 69.9528 98.4821 68.73Z" fill="#A50906"/>
<path d="M37.8504 70.2986C37.1643 70.2986 36.4937 70.0951 35.9232 69.714C35.3528 69.3328 34.9082 68.791 34.6456 68.1572C34.383 67.5233 34.3144 66.8258 34.4482 66.1529C34.5821 65.48 34.9124 64.8619 35.3976 64.3768C35.8827 63.8916 36.5008 63.5612 37.1737 63.4274C37.8466 63.2936 38.5441 63.3623 39.1779 63.6248C39.8118 63.8874 40.3536 64.332 40.7348 64.9024C41.1159 65.4729 41.3193 66.1436 41.3193 66.8297C41.3193 67.7497 40.9539 68.632 40.3033 69.2826C39.6528 69.9331 38.7704 70.2986 37.8504 70.2986V70.2986Z" fill="#A50906"/>
<path d="M37.8504 56.7121C37.1643 56.7121 36.4937 56.5087 35.9232 56.1275C35.3528 55.7464 34.9082 55.2046 34.6456 54.5707C34.383 53.9369 34.3144 53.2394 34.4482 52.5665C34.5821 51.8936 34.9124 51.2755 35.3976 50.7904C35.8827 50.3052 36.5008 49.9748 37.1737 49.841C37.8466 49.7071 38.5441 49.7758 39.1779 50.0384C39.8118 50.3009 40.3536 50.7456 40.7348 51.316C41.1159 51.8865 41.3193 52.5572 41.3193 53.2432C41.3193 54.1633 40.9539 55.0456 40.3033 55.6961C39.6528 56.3467 38.7704 56.7121 37.8504 56.7121V56.7121Z" fill="#A50906"/>
<path d="M31.0575 63.5054C30.3715 63.5054 29.7008 63.3019 29.1304 62.9207C28.5599 62.5396 28.1153 61.9978 27.8527 61.3639C27.5902 60.7301 27.5215 60.0326 27.6553 59.3597C27.7892 58.6868 28.1196 58.0687 28.6047 57.5836C29.0898 57.0984 29.7079 56.768 30.3808 56.6342C31.0537 56.5003 31.7512 56.569 32.3851 56.8316C33.0189 57.0942 33.5607 57.5388 33.9419 58.1092C34.323 58.6797 34.5265 59.3504 34.5265 60.0365C34.5265 60.9565 34.161 61.8388 33.5105 62.4893C32.8599 63.1399 31.9776 63.5054 31.0575 63.5054Z" fill="#A50906"/>
<path d="M45.4665 84.7443C45.6977 84.7443 45.9289 84.753 46.1616 84.753C57.5801 84.753 68.1314 76.6589 71.0221 65.5295C71.3112 64.3732 72.1784 63.795 73.3347 63.795C74.491 63.795 75.5028 64.8068 75.5028 66.1076C75.5028 66.203 75.5028 66.3042 75.4927 66.4068C75.4927 66.4357 75.4927 66.4661 75.4927 66.4964C75.4855 66.5788 75.4768 66.6626 75.4667 66.7508C75.4667 66.7783 75.4595 66.8057 75.4552 66.8346C75.4234 67.0717 75.3752 67.3256 75.3106 67.5964C75.3106 67.6122 75.3034 67.6296 75.299 67.6469C75.2687 67.7741 75.2369 67.9057 75.2007 68.0401L75.192 68.0733C75.0677 68.5286 74.903 69.0201 74.7107 69.5404C74.7937 69.414 74.8662 69.2811 74.9275 69.1429C75.7864 67.1835 76.2293 65.0672 76.2284 62.9278C76.2284 59.6034 73.9158 57.4354 70.5914 57.4354C64.7983 57.4354 63.6391 62.4855 61.1964 67.8825C58.6598 73.4877 54.0042 79.5496 42.262 79.5496C30.0587 79.5496 17.5229 71.0219 20.5813 53.6774C20.6189 53.462 20.6493 53.2669 20.6709 53.0876C20.2278 55.3288 20.0041 57.6079 20.0032 59.8925C20.0003 73.8361 30.9245 84.4177 45.4665 84.7443Z" fill="#A50906"/>
<path d="M71.2356 47.0284C72.7851 47.0259 74.3278 47.233 75.8218 47.6442C76.5841 46.5724 76.9582 45.2727 76.8824 43.9597C76.8065 42.6467 76.2852 41.3987 75.4045 40.4219C74.5238 39.445 73.3364 38.7976 72.0382 38.5866C70.74 38.3755 69.4087 38.6134 68.2639 39.261L70.6444 43.1635L66.197 41.2411C65.5939 42.2118 65.2915 43.3392 65.3277 44.4814C65.364 45.6236 65.7374 46.7296 66.4008 47.6601C67.9771 47.2353 69.603 47.0228 71.2356 47.0284Z" fill="#3A3631"/>
<circle cx="28" cy="28" r="28" fill="#F8ECEB"/>
<path fill-rule="evenodd" clip-rule="evenodd" d="M24 31L24 10L32 10L32 31L24 31Z" fill="#A50906"/>
<path d="M27.5 47C26.4122 47 25.3488 46.6774 24.4444 46.0731C23.5399 45.4687 22.8349 44.6097 22.4187 43.6047C22.0024 42.5998 21.8935 41.4939 22.1057 40.427C22.3179 39.3601 22.8417 38.3801 23.6109 37.6109C24.3801 36.8417 25.3601 36.3179 26.427 36.1057C27.4939 35.8935 28.5998 36.0024 29.6048 36.4187C30.6098 36.835 31.4688 37.5399 32.0731 38.4444C32.6775 39.3488 33 40.4122 33 41.5C33 42.9587 32.4206 44.3576 31.3891 45.3891C30.3577 46.4205 28.9587 47 27.5 47V47Z" fill="#A50906"/>
</svg>
