<svg width="107" height="107" viewBox="0 0 107 107" fill="none" xmlns="http://www.w3.org/2000/svg">
    <style>
        .daggy-body {
            fill: #4F43DD;
        }

        .daggy-shadow {
            fill: #352D8E;
        }

        @media (prefers-color-scheme: dark) {
            .daggy-body {
                fill: #DEDEFC;
            }

            .daggy-shadow {
                fill: #C9C6FA;
            }

        }
    </style>
    <path class="daggy-body"
        d="M48.686 102.649C48.6874 103.13 48.788 103.606 48.9814 104.047C49.1749 104.487 49.4571 104.883 49.8104 105.21C50.1637 105.536 50.5806 105.787 51.0349 105.945C51.4892 106.103 51.9713 106.166 52.451 106.13C70.6848 104.824 87.906 91.9204 93.404 71.7655C93.6928 70.6064 94.5627 70.0251 95.7214 70.0251C96.3154 70.049 96.8761 70.3061 97.2819 70.7407C97.6877 71.1753 97.9059 71.7524 97.8894 72.3468C97.8894 76.8408 92.1127 88.5856 83.8521 95.4013C83.4311 95.7556 83.0954 96.2003 82.8701 96.7024C82.6448 97.2044 82.5356 97.7509 82.5507 98.301C82.5591 98.7483 82.6556 99.1896 82.8348 99.5995C83.0141 100.009 83.2724 100.38 83.595 100.69C83.9176 100.999 84.2982 101.243 84.715 101.405C85.1317 101.567 85.5764 101.646 86.0235 101.636C86.7472 101.636 87.906 101.201 89.3535 99.8953C95.1302 94.6739 106.14 80.0294 106.14 63.9334C106.14 40.335 87.8958 20 62.4344 20C39.7152 20 20.0338 38.5605 20.0338 60.0207C20.0338 74.2301 31.322 84.9585 46.2258 84.9585C57.6601 84.9585 68.2246 76.8408 71.1197 65.6739C71.4086 64.5147 72.2751 63.9334 73.4338 63.9334C74.0281 63.9573 74.5891 64.2143 74.9954 64.6488C75.4018 65.0833 75.6208 65.6604 75.6051 66.2552C75.6051 71.3304 66.0533 89.0309 46.6607 89.0309C42.0292 89.0309 36.2424 87.7256 32.1885 85.4038C31.6459 85.1407 31.0547 84.9926 30.4522 84.9687C29.9908 84.951 29.5307 85.0289 29.1009 85.1977C28.6711 85.3664 28.2808 85.6223 27.9547 85.9492C27.6285 86.2762 27.3735 86.6671 27.2056 87.0974C27.0378 87.5277 26.9608 87.9881 26.9794 88.4496C26.9981 89.0409 27.1674 89.6175 27.4713 90.125C27.7752 90.6324 28.2035 91.0538 28.7158 91.3493C34.0711 94.4087 40.439 95.9894 46.9496 95.9894C63.1582 95.9894 77.9192 84.9687 82.2619 68.7299C82.5507 67.5707 83.4206 66.9894 84.5759 66.9894C85.1702 67.0134 85.7312 67.2704 86.1375 67.7049C86.5439 68.1394 86.7629 68.7164 86.7473 69.3112C86.7473 75.9808 74.8813 97.441 52.016 99.1814C51.1313 99.2471 50.3021 99.6374 49.6875 100.277C49.0729 100.917 48.7162 101.762 48.686 102.649V102.649Z" />
    <path
        d="M71.3439 47.1167C74.4648 47.0934 77.5284 47.9563 80.1788 49.6051C80.4466 48.1386 80.5943 46.6526 80.6205 45.1621C80.6205 38.2784 75.374 32.1119 68.9857 32.1119C64.0178 32.1119 60.912 36.2286 60.912 41.314C60.8883 44.0613 61.8531 46.7254 63.6304 48.8198C66.0382 47.6713 68.6766 47.0888 71.3439 47.1167V47.1167Z"
        fill="white" />
    <path class="daggy-shadow"
        d="M86.3123 72.0545C87.1992 69.0223 87.5899 66.9181 87.5899 65.5515C87.5629 64.9614 87.31 64.4042 86.8837 63.9954C86.4574 63.5866 85.8902 63.3575 85.2997 63.3555C84.7496 63.3658 84.2186 63.5597 83.7913 63.9065C83.364 64.2532 83.0649 64.733 82.9414 65.2694C82.7002 66.2654 82.1837 68.9645 81.674 70.6778C81.8847 70.0364 82.0772 69.3849 82.2516 68.7231C82.5405 67.5605 83.4104 66.9826 84.5657 66.9826C85.1597 67.0057 85.7207 67.262 86.1271 67.6959C86.5335 68.1299 86.7527 68.7066 86.737 69.301C86.7098 70.2355 86.5601 71.1624 86.2919 72.0579L86.3123 72.0545Z" />
    <path class="daggy-shadow"
        d="M98.6135 68.8864C98.5856 68.2971 98.333 67.7409 97.9076 67.3324C97.4821 66.9238 96.9163 66.6941 96.3266 66.6904C95.7771 66.7013 95.2469 66.8956 94.8203 67.2423C94.3937 67.589 94.0951 68.0684 93.9718 68.6042C93.7271 69.624 93.2004 72.3639 92.6839 74.0738H92.7077C92.9591 73.3123 93.1936 72.5407 93.3873 71.7554C93.6761 70.5928 94.546 70.0149 95.7047 70.0149C96.2984 70.038 96.8591 70.2944 97.265 70.7284C97.6709 71.1625 97.8892 71.7392 97.8727 72.3333C97.8561 73.055 97.7569 73.7724 97.5771 74.4715C98.2974 71.9424 98.6135 70.1135 98.6135 68.8864Z" />
    <path
        d="M71.3444 47.1167C72.8954 47.1136 74.4396 47.3205 75.9351 47.732C76.7202 46.6609 77.1126 45.3519 77.0461 44.0253C76.9796 42.6987 76.4584 41.4355 75.5701 40.4484C74.6818 39.4612 73.4807 38.8102 72.1689 38.6051C70.8572 38.3999 69.5148 38.6531 68.3677 39.322L70.7463 43.238L66.2915 41.3106C65.6881 42.2846 65.3855 43.4152 65.4218 44.5606C65.4581 45.7059 65.8315 46.8151 66.4954 47.749C68.0763 47.3227 69.7071 47.1101 71.3444 47.1167V47.1167Z"
        fill="#163B36" />
    <path class="daggy-shadow"
        d="M37.0242 72.3197C38.9009 72.3197 40.4222 70.7977 40.4222 68.9203C40.4222 67.0429 38.9009 65.5209 37.0242 65.5209C35.1475 65.5209 33.6262 67.0429 33.6262 68.9203C33.6262 70.7977 35.1475 72.3197 37.0242 72.3197Z" />
    <path class="daggy-shadow"
        d="M37.0242 58.7222C38.9009 58.7222 40.4222 57.2002 40.4222 55.3228C40.4222 53.4454 38.9009 51.9235 37.0242 51.9235C35.1475 51.9235 33.6262 53.4454 33.6262 55.3228C33.6262 57.2002 35.1475 58.7222 37.0242 58.7222Z" />
    <path class="daggy-shadow"
        d="M30.228 65.5208C32.1047 65.5208 33.6261 63.9989 33.6261 62.1215C33.6261 60.2441 32.1047 58.7221 30.228 58.7221C28.3514 58.7221 26.83 60.2441 26.83 62.1215C26.83 63.9989 28.3514 65.5208 30.228 65.5208Z" />
    <path class="daggy-shadow"
        d="M45.5192 84.9517H46.1988C57.6331 84.9517 68.1976 76.834 71.0927 65.6671C71.3815 64.5079 72.248 63.9266 73.4068 63.9266C74.0011 63.9505 74.562 64.2075 74.9684 64.642C75.3747 65.0765 75.5938 65.6536 75.5781 66.2484C75.5263 67.4349 75.258 68.602 74.7864 69.6919C74.8683 69.5654 74.9399 69.4323 75.0004 69.2942C75.8602 67.3282 76.3045 65.2057 76.3053 63.0598C76.3053 59.725 73.9878 57.5494 70.6612 57.5494C64.8607 57.5494 63.6986 62.6144 61.252 68.0296C58.7137 73.6522 54.0516 79.7336 42.2944 79.7336C30.0785 79.7336 17.5262 71.1775 20.5879 53.7795C20.6252 53.5619 20.6558 53.3682 20.6796 53.188C20.231 55.4357 20.0034 57.7219 20 60.0139C20.034 74.0193 30.9722 84.6253 45.5192 84.9517Z" />
    <circle cx="28" cy="28" r="28" fill="white" />
    <path
        d="M14 33.25C13.1347 33.25 12.2888 32.9677 11.5694 32.4389C10.8499 31.9101 10.2892 31.1585 9.95803 30.2792C9.62689 29.3998 9.54026 28.4322 9.70907 27.4986C9.87788 26.5651 10.2946 25.7076 10.9064 25.0346C11.5183 24.3615 12.2978 23.9032 13.1465 23.7175C13.9951 23.5318 14.8748 23.6271 15.6743 23.9913C16.4737 24.3556 17.157 24.9724 17.6377 25.7638C18.1185 26.5552 18.375 27.4857 18.375 28.4375C18.375 29.7139 17.9141 30.9379 17.0936 31.8405C16.2731 32.743 15.1603 33.25 14 33.25V33.25Z"
        fill="#352D8E" />
    <path
        d="M27.5625 33.25C26.6106 33.25 25.6802 32.9677 24.8888 32.4389C24.0974 31.9101 23.4806 31.1585 23.1163 30.2792C22.7521 29.3998 22.6568 28.4322 22.8425 27.4986C23.0282 26.5651 23.4865 25.7076 24.1596 25.0346C24.8326 24.3615 25.6901 23.9032 26.6236 23.7175C27.5571 23.5318 28.5248 23.6271 29.4042 23.9913C30.2836 24.3556 31.0352 24.9724 31.564 25.7638C32.0928 26.5552 32.375 27.4857 32.375 28.4375C32.375 29.7139 31.868 30.9379 30.9655 31.8405C30.0629 32.743 28.8388 33.25 27.5625 33.25V33.25Z"
        fill="#352D8E" />
    <path
        d="M41.5625 33.25C40.6106 33.25 39.6802 32.9677 38.8888 32.4389C38.0974 31.9101 37.4806 31.1585 37.1163 30.2792C36.7521 29.3998 36.6568 28.4322 36.8425 27.4986C37.0282 26.5651 37.4865 25.7076 38.1596 25.0346C38.8326 24.3615 39.6901 23.9032 40.6236 23.7175C41.5571 23.5318 42.5248 23.6271 43.4042 23.9913C44.2836 24.3556 45.0352 24.9724 45.564 25.7638C46.0928 26.5552 46.375 27.4857 46.375 28.4375C46.375 29.7139 45.868 30.9379 44.9655 31.8405C44.0629 32.743 42.8388 33.25 41.5625 33.25V33.25Z"
        fill="#352D8E" />
</svg>