<svg width="67" height="67" viewBox="0 0 67 67" fill="none" xmlns="http://www.w3.org/2000/svg">
    <style>
        .daggy-body {
            fill: #4F43DD;
        }
        .daggy-shadow {
            fill: #352D8E;
        }
        @media (prefers-color-scheme: dark) {
            .daggy-body {
                fill: #DEDEFC;
            }
            .daggy-shadow {
                fill: #C9C6FA;
            }

        }
    </style>
    <path class="daggy-body" d="M22.0142 63.3989C22.0153 63.7681 22.0925 64.1331 22.2409 64.4711C22.3894 64.8091 22.606 65.1129 22.8771 65.3635C23.1482 65.6141 23.4681 65.806 23.8167 65.9275C24.1654 66.0489 24.5353 66.0971 24.9034 66.0692C38.8959 65.0678 52.1113 55.1693 56.3304 39.7088C56.5521 38.8196 57.2196 38.3737 58.1088 38.3737C58.5646 38.392 58.9949 38.5892 59.3063 38.9226C59.6177 39.256 59.7852 39.6987 59.7725 40.1547C59.7725 43.6019 55.3395 52.6113 49.0004 57.8395C48.6773 58.1113 48.4197 58.4524 48.2468 58.8375C48.0739 59.2226 47.9901 59.6418 48.0017 60.0638C48.0081 60.4069 48.0822 60.7454 48.2198 61.0599C48.3573 61.3743 48.5555 61.6585 48.8031 61.8961C49.0507 62.1338 49.3428 62.3202 49.6626 62.4448C49.9823 62.5693 50.3236 62.6295 50.6667 62.6219C51.2221 62.6219 52.1113 62.2881 53.2221 61.2868C57.6551 57.2815 66.1038 46.0479 66.1038 33.7008C66.1038 15.5988 52.1035 0 32.5646 0C15.1301 0 0.0267944 14.2376 0.0267944 30.6995C0.0267944 41.5993 8.68929 49.8289 20.1263 49.8289C28.9009 49.8289 37.008 43.6019 39.2297 35.0359C39.4513 34.1467 40.1163 33.7008 41.0055 33.7008C41.4615 33.7192 41.892 33.9163 42.2038 34.2496C42.5157 34.5829 42.6838 35.0256 42.6717 35.4818C42.6717 39.375 35.3417 52.9528 20.4601 52.9528C16.9059 52.9528 12.4651 51.9515 9.35423 50.1705C8.93778 49.9687 8.48415 49.8551 8.02174 49.8368C7.66768 49.8232 7.31463 49.8829 6.9848 50.0124C6.65497 50.1418 6.35549 50.3381 6.10519 50.5889C5.85489 50.8397 5.65919 51.1396 5.53038 51.4697C5.40158 51.7997 5.34247 52.1529 5.35676 52.5069C5.37113 52.9605 5.50107 53.4028 5.73426 53.7921C5.96744 54.1813 6.29615 54.5046 6.68925 54.7312C10.7989 57.0781 15.6855 58.2906 20.6817 58.2906C33.12 58.2906 44.4475 49.8367 47.7801 37.3802C48.0017 36.491 48.6693 36.0451 49.5558 36.0451C50.0119 36.0634 50.4424 36.2606 50.7542 36.5939C51.066 36.9272 51.2341 37.3698 51.2221 37.8261C51.2221 42.9422 42.1163 59.4041 24.5697 60.7392C23.8908 60.7896 23.2544 61.089 22.7828 61.5799C22.3111 62.0708 22.0374 62.7186 22.0142 63.3989Z" fill="#DEDEFC"/>
    <path d="M39.4016 20.8013C41.7966 20.7834 44.1476 21.4453 46.1814 22.71C46.3869 21.5851 46.5003 20.4453 46.5204 19.3019C46.5204 14.0215 42.4943 9.29126 37.592 9.29126C33.7796 9.29126 31.3963 12.4491 31.3963 16.3501C31.3781 18.4574 32.1185 20.501 33.4824 22.1077C35.3301 21.2267 37.3548 20.7798 39.4016 20.8013Z" fill="white"/>
    <path class="daggy-shadow" d="M50.8881 39.9307C51.5687 37.6047 51.8685 35.9906 51.8685 34.9423C51.8478 34.4896 51.6537 34.0622 51.3266 33.7487C50.9994 33.4351 50.5642 33.2593 50.111 33.2578C49.6888 33.2657 49.2814 33.4144 48.9535 33.6804C48.6256 33.9464 48.396 34.3144 48.3013 34.7259C48.1162 35.4899 47.7198 37.5604 47.3287 38.8746C47.4903 38.3826 47.6381 37.8828 47.772 37.3752C47.9936 36.4834 48.6612 36.0401 49.5477 36.0401C50.0036 36.0578 50.4341 36.2544 50.746 36.5873C51.0579 36.9201 51.226 37.3625 51.214 37.8185C51.1931 38.5354 51.0783 39.2463 50.8724 39.9333L50.8881 39.9307Z" fill="#C9C6FA"/>
    <path class="daggy-shadow" d="M60.3271 37.5004C60.3058 37.0484 60.1119 36.6218 59.7854 36.3084C59.459 35.995 59.0248 35.8188 58.5722 35.8159C58.1505 35.8243 57.7437 35.9734 57.4163 36.2393C57.0889 36.5053 56.8598 36.873 56.7652 37.284C56.5774 38.0663 56.1732 40.168 55.7769 41.4797H55.7951C55.9881 40.8955 56.168 40.3036 56.3166 39.7013C56.5383 38.8095 57.2058 38.3662 58.095 38.3662C58.5506 38.3838 58.9809 38.5805 59.2923 38.9135C59.6038 39.2464 59.7714 39.6888 59.7587 40.1446C59.746 40.6982 59.6698 41.2485 59.5318 41.7848C60.0846 39.8447 60.3271 38.4418 60.3271 37.5004Z" fill="#C9C6FA"/>
    <path d="M39.4009 20.8014C40.5911 20.799 41.7761 20.9577 42.9237 21.2734C43.5263 20.4517 43.8273 19.4476 43.7763 18.43C43.7253 17.4124 43.3253 16.4434 42.6437 15.6862C41.962 14.9289 41.0403 14.4296 40.0336 14.2722C39.027 14.1148 37.9968 14.309 37.1166 14.8221L38.9419 17.8261L35.5233 16.3476C35.0603 17.0948 34.8281 17.962 34.8559 18.8406C34.8838 19.7192 35.1704 20.57 35.6798 21.2864C36.893 20.9594 38.1444 20.7963 39.4009 20.8014Z" fill="#163B36"/>
    <path class="daggy-shadow" d="M13.0639 40.1334C14.5041 40.1334 15.6715 38.966 15.6715 37.5258C15.6715 36.0857 14.5041 34.9182 13.0639 34.9182C11.6238 34.9182 10.4563 36.0857 10.4563 37.5258C10.4563 38.966 11.6238 40.1334 13.0639 40.1334Z" fill="#C9C6FA"/>
    <path class="daggy-shadow" d="M13.0639 29.7035C14.5041 29.7035 15.6715 28.536 15.6715 27.0959C15.6715 25.6558 14.5041 24.4883 13.0639 24.4883C11.6238 24.4883 10.4563 25.6558 10.4563 27.0959C10.4563 28.536 11.6238 29.7035 13.0639 29.7035Z" fill="#C9C6FA"/>
    <path class="daggy-shadow" d="M7.84895 34.9191C9.28909 34.9191 10.4566 33.7516 10.4566 32.3115C10.4566 30.8713 9.28909 29.7039 7.84895 29.7039C6.4088 29.7039 5.24133 30.8713 5.24133 32.3115C5.24133 33.7516 6.4088 34.9191 7.84895 34.9191Z" fill="#C9C6FA"/>
    <path class="daggy-shadow" d="M19.5832 49.8241H20.1047C28.8793 49.8241 36.9864 43.5971 39.2081 35.0311C39.4298 34.1419 40.0947 33.696 40.9839 33.696C41.4399 33.7143 41.8704 33.9115 42.1823 34.2447C42.4941 34.578 42.6622 35.0207 42.6502 35.477C42.6104 36.3872 42.4045 37.2824 42.0426 38.1185C42.1055 38.0214 42.1604 37.9193 42.2069 37.8134C42.8667 36.3053 43.2076 34.6771 43.2082 33.031C43.2082 30.473 41.4298 28.8041 38.8769 28.8041C34.4257 28.8041 33.5339 32.6894 31.6564 36.8434C29.7086 41.1564 26.1309 45.8214 17.1086 45.8214C7.73419 45.8214 -1.89834 39.258 0.45112 25.9122C0.479804 25.7453 0.50327 25.5967 0.521523 25.4585C0.177264 27.1827 0.00259008 28.9364 0 30.6946C0.0260762 41.438 8.41999 49.5737 19.5832 49.8241Z" fill="#C9C6FA"/>
</svg>
