<svg width="1120" height="320" viewBox="0 0 1120 320" fill="none" xmlns="http://www.w3.org/2000/svg">
<path d="M424.576 57.2793H443.327V225.001H424.576V210.208H424.106C417.07 219.357 405.816 228.272 386.579 228.272C356.556 228.272 332.631 204.581 332.631 165.175C332.631 125.768 356.556 102.078 386.579 102.078C405.816 102.078 417.07 110.523 424.106 120.846H424.576V57.2793ZM424.576 165.175C424.576 137.031 410.739 118.498 388.457 118.498C363.827 118.498 351.391 141.719 351.391 165.175C351.391 188.631 363.827 211.852 388.457 211.852C410.739 211.852 424.576 193.318 424.576 165.175Z" fill="#030615"/>
<path d="M513.36 118.496C490.609 118.496 483.095 125.062 481.929 142.422H463.161C464.335 119.435 478.642 102.076 513.36 102.076C536.112 102.076 556.515 110.991 556.515 139.814V197.988C556.515 207.372 558.192 212.529 570.117 211.121V224.262C566.593 225.566 562.856 226.201 559.098 226.132C547.835 226.132 541.034 223.087 537.755 209.946H537.252C529.747 221.209 516.379 228.245 496.68 228.245C472.52 228.245 457.266 214.408 457.266 194.231C457.266 167.026 477.434 159.991 508.421 154.129C528.598 150.372 537.772 147.789 537.772 135.83C537.755 126.471 532.59 118.496 513.36 118.496ZM537.755 178.775V158.842C534.233 162.355 522.736 165.643 510.081 168.226C486.852 173.148 476.034 179.01 476.034 193.317C476.034 205.057 483.07 211.85 498.559 211.85C520.866 211.85 537.755 201.762 537.755 178.775Z" fill="#030615"/>
<path d="M664.72 105.364H683.489V218.416C683.489 250.284 663.32 266.502 630.48 266.502C597.64 266.502 578.168 249.143 576.297 228.765H595.116C597.464 240.958 607.318 250.107 629.599 250.107C651.881 250.107 664.779 240.489 664.779 218.24V200.126H664.31C657.274 210.441 646.019 218.886 626.312 218.886C596.76 218.886 572.834 199.892 572.834 160.485C572.834 121.079 596.76 102.076 626.312 102.076C646.019 102.076 657.274 110.991 664.31 120.14H664.779L664.72 105.364ZM664.72 160.485C664.72 132.333 650.883 118.496 628.602 118.496C603.972 118.496 591.543 137.029 591.543 160.485C591.543 183.941 603.972 202.466 628.602 202.466C650.917 202.466 664.72 188.629 664.72 160.485V160.485Z" fill="#030615"/>
<path d="M798.806 192.151C798.806 213.955 778.872 228.27 751.659 228.27C715.071 228.27 698.181 210.911 697.007 185.115H715.775C716.941 198.483 721.645 211.85 751.659 211.85C772.062 211.85 780.038 201.292 780.038 193.317C780.038 175.966 764.322 175.027 747.206 170.8C728.908 166.347 701.695 164.234 701.695 136.09C701.695 117.322 718.349 102.076 746.502 102.076C776.289 102.076 792.239 118.966 794.109 139.604H775.35C773.471 130.463 769.018 118.496 746.502 118.496C729.612 118.496 720.505 125.297 720.505 134.681C720.505 148.753 736.69 149.927 753.345 153.919C774.645 159.076 798.806 162.59 798.806 192.151Z" fill="#030615"/>
<path d="M862.229 121.784H838.748V193.787C838.748 207.398 846.296 209.721 862.229 208.572V225C857.602 225.968 852.885 226.441 848.157 226.409C832.224 226.409 820.005 220.078 820.005 195.682V121.801H802.395V105.364H820.005V65.4883H838.773V105.364H862.254L862.229 121.784Z" fill="#030615"/>
<path d="M961.957 188.159H980.725C974.62 210.441 957.504 228.27 927.717 228.27C891.355 228.27 869.308 202.701 869.308 165.173C869.308 125.297 891.824 102.076 926.778 102.076C964.305 102.076 982.604 127.645 982.604 170.096H888.076C888.076 191.682 900.974 211.85 927.012 211.85C950.938 211.85 959.844 196.369 961.957 188.159ZM888.076 153.718H963.836C963.836 134.48 949.294 118.496 926.778 118.496C904.261 118.496 888.076 134.43 888.076 153.718Z" fill="#030615"/>
<path d="M1060 102.781V121.549H1059.53C1033.53 117.356 1015.44 135.621 1015.44 161.19V225H996.667V105.364H1015.44V129.054H1015.9C1022.24 113.339 1031.84 102.076 1048.98 102.076C1052.66 102.038 1056.35 102.273 1060 102.781V102.781Z" fill="#030615"/>
<path d="M130.768 257.891C130.771 259.078 131.019 260.252 131.497 261.339C131.974 262.426 132.67 263.403 133.542 264.209C134.413 265.015 135.442 265.632 136.562 266.023C137.683 266.413 138.872 266.568 140.056 266.478C185.038 263.258 227.522 231.425 241.085 181.703C241.798 178.844 243.944 177.41 246.802 177.41C248.267 177.469 249.651 178.103 250.652 179.175C251.653 180.247 252.191 181.671 252.15 183.137C252.15 194.224 237.9 223.198 217.521 240.012C216.482 240.886 215.654 241.983 215.098 243.222C214.543 244.46 214.273 245.808 214.31 247.165C214.331 248.269 214.569 249.357 215.011 250.369C215.454 251.38 216.091 252.294 216.887 253.058C217.683 253.822 218.622 254.422 219.65 254.822C220.678 255.223 221.775 255.417 222.878 255.392C224.663 255.392 227.522 254.319 231.093 251.098C245.344 238.217 272.504 202.09 272.504 162.382C272.504 104.166 227.497 54 164.684 54C108.637 54 60.084 99.7881 60.084 152.729C60.084 187.783 87.9316 214.25 124.698 214.25C152.907 214.25 178.969 194.224 186.111 166.676C186.823 163.816 188.961 162.382 191.819 162.382C193.286 162.441 194.669 163.075 195.672 164.147C196.674 165.219 197.215 166.642 197.176 168.11C197.176 180.63 173.612 224.296 125.771 224.296C114.346 224.296 100.07 221.076 90.0692 215.348C88.7304 214.699 87.2721 214.334 85.7856 214.275C84.6474 214.231 83.5124 214.424 82.4521 214.84C81.3918 215.256 80.4291 215.887 79.6244 216.694C78.8198 217.501 78.1906 218.465 77.7766 219.526C77.3625 220.588 77.1725 221.724 77.2184 222.862C77.2646 224.321 77.6823 225.744 78.4319 226.995C79.1816 228.247 80.2383 229.287 81.502 230.016C94.7133 237.563 110.423 241.463 126.484 241.463C166.47 241.463 202.885 214.275 213.598 174.215C214.31 171.355 216.456 169.921 219.307 169.921C220.773 169.98 222.157 170.614 223.159 171.686C224.162 172.758 224.702 174.181 224.663 175.649C224.663 192.102 195.391 245.044 138.983 249.337C136.8 249.499 134.755 250.462 133.238 252.041C131.722 253.62 130.842 255.703 130.768 257.891V257.891Z" fill="#4F43DD"/>
<path d="M186.664 120.897C194.363 120.84 201.921 122.968 208.459 127.036C209.12 123.418 209.484 119.752 209.549 116.075C209.549 99.0932 196.606 83.8809 180.846 83.8809C168.591 83.8809 160.929 94.0364 160.929 106.582C160.87 113.359 163.251 119.932 167.635 125.099C173.575 122.265 180.084 120.828 186.664 120.897V120.897Z" fill="white"/>
<path d="M223.59 182.417C225.778 174.937 226.742 169.746 226.742 166.374C226.675 164.919 226.051 163.544 225 162.536C223.948 161.527 222.549 160.962 221.092 160.957C219.735 160.982 218.425 161.461 217.371 162.316C216.317 163.172 215.579 164.355 215.274 165.678C214.679 168.136 213.405 174.794 212.147 179.021C212.667 177.438 213.142 175.831 213.573 174.199C214.285 171.331 216.431 169.905 219.281 169.905C220.747 169.962 222.131 170.594 223.133 171.665C224.136 172.735 224.676 174.158 224.638 175.624C224.571 177.93 224.201 180.216 223.54 182.425L223.59 182.417Z" fill="#352D8E"/>
<path d="M253.936 174.599C253.867 173.145 253.244 171.773 252.194 170.765C251.145 169.758 249.749 169.191 248.294 169.182C246.938 169.209 245.63 169.688 244.578 170.543C243.526 171.399 242.789 172.581 242.485 173.903C241.881 176.419 240.582 183.178 239.308 187.396H239.366C239.987 185.518 240.565 183.614 241.043 181.677C241.755 178.809 243.901 177.383 246.76 177.383C248.225 177.44 249.608 178.073 250.609 179.143C251.61 180.214 252.149 181.637 252.108 183.103C252.067 184.883 251.823 186.653 251.379 188.377C253.156 182.138 253.936 177.626 253.936 174.599Z" fill="#352D8E"/>
<path d="M186.664 120.896C190.49 120.888 194.3 121.398 197.989 122.413C199.926 119.771 200.894 116.542 200.73 113.269C200.566 109.997 199.28 106.88 197.089 104.445C194.897 102.01 191.934 100.404 188.698 99.8977C185.462 99.3916 182.15 100.016 179.32 101.666L185.188 111.327L174.199 106.572C172.71 108.975 171.964 111.764 172.053 114.59C172.143 117.415 173.064 120.151 174.702 122.455C178.602 121.404 182.625 120.879 186.664 120.896V120.896Z" fill="#030615"/>
<path d="M101.997 183.069C106.627 183.069 110.38 179.314 110.38 174.683C110.38 170.051 106.627 166.297 101.997 166.297C97.3674 166.297 93.6143 170.051 93.6143 174.683C93.6143 179.314 97.3674 183.069 101.997 183.069Z" fill="#352D8E"/>
<path d="M101.997 149.526C106.627 149.526 110.38 145.772 110.38 141.14C110.38 136.508 106.627 132.754 101.997 132.754C97.3674 132.754 93.6143 136.508 93.6143 141.14C93.6143 145.772 97.3674 149.526 101.997 149.526Z" fill="#352D8E"/>
<path d="M85.2324 166.298C89.8621 166.298 93.6152 162.543 93.6152 157.911C93.6152 153.28 89.8621 149.525 85.2324 149.525C80.6027 149.525 76.8496 153.28 76.8496 157.911C76.8496 162.543 80.6027 166.298 85.2324 166.298Z" fill="#352D8E"/>
<path d="M122.955 214.233H124.631C152.839 214.233 178.901 194.207 186.044 166.658C186.756 163.799 188.894 162.365 191.752 162.365C193.218 162.424 194.602 163.058 195.605 164.13C196.607 165.202 197.147 166.625 197.109 168.092C196.981 171.02 196.319 173.899 195.156 176.588C195.358 176.275 195.535 175.947 195.684 175.606C197.805 170.756 198.901 165.52 198.903 160.226C198.903 152 193.186 146.632 184.979 146.632C170.67 146.632 167.803 159.128 161.767 172.487C155.505 186.357 144.004 201.36 114.999 201.36C84.8634 201.36 53.8973 180.252 61.4502 137.332C61.5424 136.796 61.6179 136.318 61.6766 135.873C60.5699 141.418 60.0083 147.058 60 152.712C60.0838 187.263 87.068 213.428 122.955 214.233Z" fill="#352D8E"/>
</svg>
