<svg width="14px" height="14px" viewBox="0 0 14 14" version="1.1" xmlns="http://www.w3.org/2000/svg" xmlns:xlink="http://www.w3.org/1999/xlink">
        <g stroke="none" stroke-width="1" fill="none" fill-rule="evenodd">
        <g id="airbyte" transform="translate(0.009940, 0.000000)" fill="#FFFFFF">
            <path d="M4.62118142,1.69822482 C6.12028142,0.015882039 8.60274928,-0.477632318 10.6436921,0.493441968 C13.3552743,1.78378911 14.3445243,5.07078197 12.8682028,7.60629625 L9.54708499,13.3039284 C9.36147071,13.6222498 9.05605999,13.8545355 8.69792428,13.9497855 C8.33978856,14.0449284 7.95817785,13.9953213 7.63692071,13.8116784 L11.65781,6.91244982 C12.7289171,5.0722284 12.0124528,2.68690697 10.0465207,1.74774625 C8.57144214,1.04310304 6.76821714,1.39510697 5.67849928,2.60693554 C5.07741714,3.27219625 4.73992785,4.13110697 4.72867785,5.02435697 C4.71742785,5.91764982 5.03316714,6.7846284 5.61728856,7.46461054 C5.72226714,7.58662482 5.83524928,7.70164268 5.95548499,7.80893554 L3.60812428,11.8438927 C3.51632428,12.001607 3.39411714,12.1399284 3.24844571,12.2507141 C3.10278499,12.361607 2.93653142,12.4429284 2.75916714,12.4901784 C2.58181356,12.5373213 2.39683142,12.5493213 2.21478499,12.5255355 C2.03273856,12.501857 1.85718499,12.4427141 1.69816356,12.3516427 L4.24645999,7.97114982 C3.88041714,7.44773554 3.61755285,6.86029268 3.47173142,6.2399034 L1.91016714,8.92958554 C1.72454214,9.24796054 1.41914214,9.48026768 1.06099785,9.57549625 C0.70285785,9.67067125 0.321262136,9.62104268 0,9.43739982 L4.03818499,2.49940697 C4.20627071,2.21449268 4.40149571,1.94620697 4.62118142,1.69822482 Z M9.28203499,3.90661054 C10.25456,4.46371054 10.5904314,5.70269982 10.0277064,6.66693197 L6.15534928,13.3030713 C5.96973499,13.6214998 5.66432428,13.8536784 5.30618856,13.9489284 C4.94805285,14.0441784 4.56644214,13.9944641 4.24518499,13.8109284 L7.84079214,7.63261054 C7.55227785,7.57238554 7.28042428,7.4507784 7.04391714,7.27616768 C6.80740999,7.10152482 6.61194928,6.87808911 6.47101356,6.62126768 C6.33003499,6.3644034 6.24695642,6.08029268 6.22749928,5.7884784 C6.20804214,5.49669625 6.25264571,5.20419625 6.35826714,4.93117482 C6.46388856,4.6581534 6.62795642,4.41108197 6.83919928,4.20708197 C7.05044214,4.00309268 7.30380285,3.84701768 7.58178499,3.7496034 C7.85976714,3.65218911 8.15572785,3.61578197 8.44928856,3.64288911 C8.74284928,3.66999625 9.02695999,3.75997482 9.28203499,3.90661054 Z M7.87350285,5.15377482 C7.80695642,5.20444268 7.75110285,5.26762482 7.70918856,5.33968911 L7.70898499,5.33968911 C7.64580285,5.44826768 7.61654214,5.57296054 7.62478142,5.69806054 C7.63307428,5.82310697 7.67855642,5.94296768 7.75550642,6.04238554 C7.83246714,6.1418034 7.93735999,6.21638554 8.05703856,6.25666054 C8.17670642,6.29696768 8.30570642,6.30113554 8.42778499,6.2687034 C8.54986356,6.2362284 8.65949214,6.16864268 8.74276356,6.0743784 C8.82608856,5.98011411 8.87937071,5.86349982 8.89587071,5.73924625 C8.91237071,5.61494982 8.89134928,5.48861768 8.83545285,5.3762034 C8.77955642,5.26378911 8.69131356,5.1703284 8.58188856,5.10766054 C8.50922428,5.06602482 8.42902785,5.03903554 8.34583142,5.02816054 C8.26263499,5.01731768 8.17810999,5.02279268 8.09707785,5.04434982 C8.01603499,5.06590697 7.94008142,5.10306411 7.87350285,5.15377482 Z" id="Shape"></path>
        </g>
    </g>
</svg>