<svg width="20" height="20" viewBox="0 0 20 20" fill="none" xmlns="http://www.w3.org/2000/svg">
<path d="M8.93062 1.84563L1.47406 4.93125C1.05937 5.10313 1.06374 5.69188 1.48093 5.85719L8.96843 8.82656C9.62632 9.08749 10.359 9.08749 11.0169 8.82656L18.5044 5.85719C18.9216 5.69156 18.9262 5.10281 18.5112 4.93125L11.055 1.84594C10.3747 1.56442 9.61056 1.56442 8.93031 1.84594" fill="#FFCC00"/>
<path d="M10.6572 10.4478V17.8656C10.6573 17.9471 10.6773 18.0273 10.7155 18.0993C10.7537 18.1713 10.8089 18.2328 10.8763 18.2786C10.9437 18.3244 11.0213 18.353 11.1023 18.362C11.1833 18.3709 11.2652 18.3599 11.341 18.33L19.6847 15.0912C19.7777 15.0543 19.8575 14.9903 19.9137 14.9075C19.9699 14.8247 20 14.7269 20 14.6269V7.20937C19.9999 7.1279 19.9799 7.04768 19.9417 6.9757C19.9036 6.90372 19.8484 6.84216 19.781 6.79639C19.7136 6.75061 19.636 6.722 19.555 6.71304C19.474 6.70408 19.3921 6.71506 19.3163 6.745L10.9725 9.98375C10.8795 10.0207 10.7998 10.0847 10.7436 10.1675C10.6874 10.2503 10.6573 10.3477 10.6572 10.4478Z" fill="#31C2F2"/>
<path d="M8.70931 10.8306L5.98181 12.1478L0.754619 14.6525C0.423369 14.8125 0.000244141 14.5713 0.000244141 14.2025V7.24063C0.000244141 7.1075 0.0683691 6.9925 0.160244 6.90625C0.197798 6.86884 0.240398 6.83686 0.286807 6.81125C0.411807 6.73625 0.589932 6.71625 0.741494 6.77625L8.66806 9.91688C9.07431 10.0769 9.10556 10.6413 8.70962 10.8309" fill="#ED3049"/>
<path d="M8.70929 10.8306L6.23304 12.0263L0.159912 6.90563C0.197466 6.86822 0.240066 6.83624 0.286475 6.81063C0.411475 6.73563 0.5896 6.71562 0.741162 6.77562L8.66772 9.91625C9.07397 10.0763 9.10523 10.6409 8.70929 10.8306Z" fill="#C62842"/>
</svg>
