<svg width="13" height="14" viewBox="0 0 13 14" fill="none" xmlns="http://www.w3.org/2000/svg">
<path d="M3.66361 6.33282C3.66361 6.49332 3.68091 6.62347 3.71119 6.71892C3.74577 6.81434 3.78902 6.91845 3.84954 7.03126C3.87115 7.06596 3.87981 7.10069 3.87981 7.13105C3.87981 7.17441 3.85387 7.2178 3.79765 7.26119L3.52526 7.44339C3.48635 7.46942 3.44743 7.48242 3.41285 7.48242C3.36961 7.48242 3.32639 7.46073 3.28314 7.4217C3.22262 7.35661 3.17073 7.28722 3.12749 7.2178C3.08424 7.14405 3.04102 7.06163 2.99344 6.96184C2.65619 7.36097 2.23248 7.56051 1.7223 7.56051C1.35911 7.56051 1.06941 7.45639 0.857571 7.24816C0.6457 7.03993 0.537598 6.76228 0.537598 6.41524C0.537598 6.0465 0.667309 5.74715 0.931064 5.52159C1.19482 5.29599 1.54501 5.18321 1.99036 5.18321C2.13738 5.18321 2.2887 5.19621 2.44866 5.21791C2.60864 5.2396 2.77293 5.2743 2.94589 5.31336V4.99668C2.94589 4.66697 2.8767 4.43704 2.74269 4.30256C2.60431 4.16808 2.37083 4.103 2.03791 4.103C1.88659 4.103 1.73094 4.12036 1.57095 4.15939C1.411 4.19845 1.25534 4.24617 1.10402 4.3069C1.03483 4.33726 0.982949 4.35462 0.952673 4.36329C0.922427 4.37198 0.900789 4.37632 0.883513 4.37632C0.822962 4.37632 0.792715 4.33292 0.792715 4.24184V4.02925C0.792715 3.95985 0.801353 3.9078 0.822962 3.87743C0.8446 3.84704 0.883513 3.81668 0.944036 3.78632C1.09536 3.70823 1.27695 3.64317 1.48882 3.59112C1.70067 3.5347 1.92551 3.50867 2.16332 3.50867C2.67783 3.50867 3.05399 3.62581 3.29611 3.86007C3.5339 4.09433 3.65497 4.45007 3.65497 4.92726V6.33282H3.66361ZM1.9082 6.99221C2.05089 6.99221 2.1979 6.96618 2.35355 6.91412C2.50921 6.86206 2.64756 6.76664 2.7643 6.6365C2.83349 6.55405 2.88537 6.46296 2.91131 6.35885C2.93725 6.25473 2.95453 6.12892 2.95453 5.98141V5.79921C2.82915 5.76885 2.69511 5.74282 2.55676 5.72549C2.41841 5.70812 2.28437 5.69946 2.15035 5.69946C1.86065 5.69946 1.64878 5.75585 1.5061 5.87296C1.36342 5.99011 1.29426 6.15495 1.29426 6.37185C1.29426 6.57574 1.34614 6.72758 1.45421 6.8317C1.55798 6.94015 1.70933 6.99221 1.9082 6.99221ZM5.3801 7.46073C5.3023 7.46073 5.25042 7.44773 5.21581 7.41737C5.18123 7.39134 5.15095 7.33058 5.12501 7.24816L4.10896 3.89477C4.08302 3.80801 4.07005 3.75162 4.07005 3.72126C4.07005 3.65184 4.10463 3.61278 4.17382 3.61278H4.59753C4.67969 3.61278 4.73588 3.62581 4.76615 3.65617C4.80073 3.6822 4.82668 3.74293 4.85262 3.82538L5.579 6.69722L6.2535 3.82538C6.27511 3.73859 6.30105 3.6822 6.33566 3.65617C6.37024 3.63014 6.43076 3.61278 6.50859 3.61278H6.85448C6.93664 3.61278 6.99285 3.62581 7.02743 3.65617C7.06201 3.6822 7.09229 3.74293 7.10959 3.82538L7.79273 6.73192L8.54072 3.82538C8.56666 3.73859 8.59691 3.6822 8.62719 3.65617C8.66177 3.63014 8.71798 3.61278 8.79581 3.61278H9.19791C9.2671 3.61278 9.30602 3.64751 9.30602 3.72126C9.30602 3.74293 9.30168 3.76462 9.29735 3.79065C9.29305 3.81668 9.28438 3.8514 9.2671 3.8991L8.22508 7.2525C8.19914 7.33928 8.16889 7.39567 8.13428 7.4217C8.0997 7.44773 8.04349 7.46509 7.96999 7.46509H7.59816C7.516 7.46509 7.45981 7.45206 7.4252 7.4217C7.39062 7.39134 7.36035 7.33495 7.34307 7.24816L6.67288 4.45007L6.00705 7.24383C5.98544 7.33058 5.9595 7.387 5.92489 7.41737C5.89031 7.44773 5.82978 7.46073 5.75196 7.46073H5.3801ZM10.936 7.57787C10.7112 7.57787 10.4864 7.55184 10.2702 7.49979C10.054 7.44773 9.88538 7.39134 9.77295 7.32625C9.70379 7.28722 9.65621 7.24383 9.63893 7.2048C9.62163 7.16574 9.61299 7.12235 9.61299 7.08332V6.86206C9.61299 6.77098 9.64757 6.72758 9.71243 6.72758C9.73837 6.72758 9.76431 6.73192 9.79025 6.74061C9.8162 6.74928 9.85511 6.76664 9.89835 6.78398C10.0453 6.84906 10.2053 6.90112 10.374 6.93582C10.5469 6.97054 10.7155 6.98787 10.8885 6.98787C11.1609 6.98787 11.3727 6.94015 11.5197 6.84473C11.6667 6.74928 11.7446 6.61047 11.7446 6.4326C11.7446 6.31112 11.7056 6.21134 11.6278 6.12892C11.55 6.0465 11.403 5.97275 11.1911 5.90333L10.5642 5.70812C10.2486 5.60834 10.0151 5.46083 9.87241 5.26563C9.72973 5.07476 9.65621 4.86217 9.65621 4.63661C9.65621 4.4544 9.69512 4.2939 9.77295 4.15506C9.85078 4.01624 9.95454 3.89477 10.0843 3.79935C10.214 3.69956 10.361 3.62581 10.5339 3.57375C10.7069 3.5217 10.8885 3.5 11.0787 3.5C11.1738 3.5 11.2733 3.50433 11.3684 3.51736C11.4678 3.53036 11.5586 3.54772 11.6494 3.56509C11.7359 3.58675 11.8181 3.60845 11.8959 3.63448C11.9737 3.66051 12.0342 3.68654 12.0775 3.71256C12.138 3.74729 12.1812 3.78198 12.2072 3.82101C12.2331 3.85574 12.2461 3.90346 12.2461 3.96419V4.16808C12.2461 4.25917 12.2115 4.3069 12.1467 4.3069C12.1121 4.3069 12.0559 4.28953 11.9823 4.25484C11.7359 4.14206 11.4592 4.08566 11.1522 4.08566C10.9058 4.08566 10.7112 4.12469 10.5772 4.20711C10.4431 4.28953 10.374 4.41535 10.374 4.59321C10.374 4.71469 10.4172 4.81881 10.5037 4.90123C10.5901 4.98365 10.7501 5.06607 10.9793 5.13982L11.5932 5.33505C11.9045 5.43481 12.1294 5.57365 12.2634 5.75151C12.3974 5.92935 12.4623 6.13325 12.4623 6.35885C12.4623 6.54538 12.4234 6.71458 12.3499 6.86206C12.272 7.00957 12.1683 7.13971 12.0342 7.24383C11.9002 7.35228 11.7402 7.43037 11.5543 7.48676C11.3598 7.54751 11.1565 7.57787 10.936 7.57787Z" fill="#171615"/>
<path fill-rule="evenodd" clip-rule="evenodd" d="M11.7531 9.68624C10.3306 10.7404 8.2639 11.3 6.48689 11.3C3.99646 11.3 1.75246 10.376 0.0575931 8.84029C-0.0764428 8.71884 0.0446221 8.55397 0.204592 8.64942C2.03782 9.7166 4.2991 10.363 6.63821 10.363C8.21635 10.363 9.95015 10.0333 11.5456 9.35653C11.7834 9.24808 11.9866 9.5127 11.7531 9.68624Z" fill="#171615"/>
<path fill-rule="evenodd" clip-rule="evenodd" d="M12.3454 9.00945C12.1638 8.77519 11.1434 8.89667 10.6808 8.95306C10.5424 8.9704 10.5208 8.84895 10.6462 8.75783C11.459 8.18519 12.795 8.35006 12.9507 8.54093C13.1064 8.73614 12.9075 10.0766 12.1465 10.7187C12.0298 10.8185 11.9173 10.7664 11.9692 10.6363C12.1422 10.2068 12.527 9.23938 12.3454 9.00945Z" fill="#171615"/>
</svg>
