<svg width="13" height="14" viewBox="0 0 13 14" fill="none" xmlns="http://www.w3.org/2000/svg">
<path d="M5.92933 0.5C2.65471 0.5 0 3.15471 0 6.42958C0 9.7042 2.65471 12.3589 5.92933 12.3589C9.20394 12.3589 11.8584 9.7042 11.8584 6.42958C11.8584 3.15471 9.20369 0.5 5.92933 0.5ZM5.92933 10.9284C3.44461 10.9284 1.43025 8.91405 1.43025 6.42933C1.43025 3.94461 3.44461 1.9305 5.92933 1.9305C8.41405 1.9305 10.4284 3.94486 10.4284 6.42958C10.4284 8.9143 8.41405 10.9284 5.92933 10.9284Z" fill="white"/>
<path d="M3.11475 6.20057V8.04366C3.38745 8.51183 3.77219 8.90491 4.2344 9.1876V6.20057H3.11475ZM5.33489 4.64685V9.60888C5.52533 9.6439 5.72012 9.66511 5.92028 9.66511C6.1028 9.66511 6.28072 9.64594 6.45531 9.6168V4.64685H5.33489ZM7.65882 6.96643V9.15513C8.1284 8.85654 8.51396 8.44299 8.77899 7.95367V6.96669L7.65882 6.96643ZM10.1959 10.0818L9.58166 10.6966C9.52963 10.7487 9.50041 10.8194 9.50041 10.893C9.50041 10.9667 9.52963 11.0373 9.58166 11.0895L11.9117 13.4188C11.9639 13.4708 12.0345 13.5 12.1082 13.5C12.1818 13.5 12.2525 13.4708 12.3046 13.4188L12.9189 12.8048C12.9706 12.7525 12.9996 12.6819 12.9996 12.6084C12.9996 12.5349 12.9706 12.4644 12.9189 12.4121L10.5886 10.0818C10.5364 10.03 10.4658 10.0009 10.3923 10.0009C10.3187 10.0009 10.2481 10.03 10.1959 10.0818Z" fill="white"/>
</svg>
