<svg width="20" height="20" viewBox="0 0 20 20" fill="none" xmlns="http://www.w3.org/2000/svg">
<path d="M18.7124 5.54344L10.3469 0.689651V4.04827L18.7124 8.88069V5.54275V5.54344Z" fill="#FF6492"/>
<path d="M18.7124 8.88069L16.2027 10.3448L10.3448 6.95242L6.99789 8.88345L4.48755 7.5269L10.3462 4.04828L18.7124 8.88069Z" fill="#141446"/>
<path d="M6.99789 8.88345L4.48755 7.5269V10.3448L6.99789 8.88345Z" fill="#A14474"/>
<path d="M1.97717 15.1462L10.3448 10.3448L18.7123 15.1462L10.3448 20L1.97717 15.1462Z" fill="#141446"/>
<path d="M18.7124 11.8138L10.3448 6.90001V10.3448L18.7124 15.1462V11.8138Z" fill="#FF6492"/>
<path d="M4.48752 10.3448V7.52689L10.3461 4.04827V0.689651L1.97717 5.54344V15.1462L10.3448 10.3448V6.9L4.48752 10.3448Z" fill="#7A77FF"/>
</svg>
