<svg width="13" height="14" viewBox="0 0 13 14" fill="none" xmlns="http://www.w3.org/2000/svg">
<g clip-path="url(#clip0_2048_4606)">
<path fill-rule="evenodd" clip-rule="evenodd" d="M5.30551 7.91404L5.75966 11.4494C5.55812 11.4778 5.52686 11.4922 5.30657 11.5235C5.1121 10.8373 4.74061 10.3894 4.33445 10.1283C3.97661 9.89798 3.48227 9.84626 3.0092 9.9402L2.97875 9.97504C3.30752 9.94085 3.69574 9.98844 4.09483 10.2412C4.48573 10.4885 4.80159 11.1276 4.91754 11.5124C5.0663 12.0042 5.16934 12.5301 4.76903 13.0878C4.48142 13.488 3.63663 13.7084 2.96178 13.2164C2.46979 12.8577 2.84729 12.6329 1.86421 11.8169C1.45772 11.479 1.60128 10.9057 1.84155 10.5435C2.15823 9.93176 3.79301 9.15444 3.70045 8.17631C3.66748 7.8209 3.61064 7.35799 3.28032 7.04066C3.26822 7.17253 3.29023 7.29904 3.29023 7.29904C3.29023 7.29904 3.15487 7.12681 3.08747 6.89068C3.01992 6.79982 2.96762 6.77124 2.89633 6.6505C2.84558 6.7904 2.8524 6.95232 2.8524 6.95232C2.8524 6.95232 2.74116 6.69004 2.72346 6.46918C2.65752 6.56808 2.6412 6.75598 2.6412 6.75598C2.6412 6.75598 2.49675 6.34291 2.52972 6.12035C2.46378 5.92669 2.26891 5.5427 2.32388 4.66997C2.68424 4.92193 3.47634 4.862 3.78514 4.40729C3.88753 4.25674 3.95761 3.84547 3.73366 3.03502C3.59026 2.51543 3.2342 1.7416 3.09494 1.44798L3.07862 1.45975C3.15138 1.69669 3.30241 2.19217 3.36006 2.43277C3.53545 3.16193 3.58238 3.41552 3.50021 3.75152C3.43014 4.04433 3.26262 4.2349 2.83714 4.44894C2.4119 4.66323 1.84732 4.14152 1.81192 4.1127C1.39877 3.78327 1.07861 3.24654 1.04312 2.98573C1.00609 2.70024 1.20779 2.52882 1.30937 2.29562C1.16411 2.33703 1.00195 2.41076 1.00195 2.41076C1.00195 2.41076 1.19537 2.21069 1.43418 2.03741C1.53332 1.97196 1.59081 1.93055 1.69507 1.84399C1.5442 1.84147 1.42183 1.84561 1.42183 1.84561C1.42183 1.84561 1.67298 1.70969 1.93388 1.61079C1.74306 1.60234 1.56052 1.60932 1.56052 1.60932C1.56052 1.60932 2.12202 1.35817 2.56536 1.17442C2.8701 1.04937 3.16762 1.08624 3.33513 1.32813C3.55461 1.64473 3.78554 1.81703 4.27428 1.92348C4.57496 1.7904 4.66583 1.72243 5.04308 1.61939C5.37518 1.25456 5.63583 1.20739 5.63583 1.20739C5.63583 1.20739 5.50648 1.32561 5.47205 1.51229C5.66035 1.36394 5.8666 1.24011 5.8666 1.24011C5.8666 1.24011 5.7867 1.33885 5.71248 1.4954L5.72937 1.52098C5.94926 1.38911 6.20739 1.28542 6.20739 1.28542C6.20739 1.28542 6.13342 1.37896 6.04686 1.4997C6.21275 1.49824 6.54859 1.50669 6.679 1.52179C7.44861 1.53827 7.60832 0.69973 7.90356 0.594658C8.27343 0.462384 8.43867 0.382647 9.06934 1.00155C9.60997 1.53251 10.0328 2.48368 9.82287 2.69626C9.64708 2.87351 9.29987 2.62772 8.91539 2.14873C8.71231 1.8949 8.5586 1.59487 8.48641 1.21356C8.42543 0.891928 8.1893 0.705089 8.1893 0.705089C8.1893 0.705089 8.32653 1.01064 8.32653 1.28006C8.32653 1.42703 8.34513 1.97708 8.58085 2.28588C8.55714 2.33078 8.54642 2.50885 8.52068 2.5432C8.24598 2.2115 7.65648 1.97415 7.56066 1.90416C7.88546 2.17049 8.63338 2.78265 8.92059 3.36956C9.19236 3.9244 9.03207 4.43327 9.1693 4.5649C9.20844 4.60225 9.75385 5.28148 9.85852 5.6226C10.0416 6.21746 9.8698 6.84229 9.63002 7.22961L8.96159 7.33387C8.86375 7.30683 8.79797 7.29327 8.71004 7.2426C8.75843 7.15669 8.85425 6.94322 8.85571 6.89937L8.81754 6.8332C8.60943 7.12803 8.261 7.41418 7.97137 7.57844C7.59241 7.7933 7.15539 7.76009 6.87087 7.67215C6.064 7.42327 5.30064 6.8781 5.11664 6.73494C5.11664 6.73494 5.11104 6.84927 5.14523 6.87501C5.34904 7.10456 5.81528 7.51925 6.26594 7.80872L5.30551 7.91404ZM8.05784 6.20488C8.36388 6.43337 8.63192 6.58643 8.91498 6.54908C9.08851 6.52642 9.24197 6.25124 9.35037 6.00172C9.42475 5.83006 9.42475 5.64444 9.31594 5.58435C9.26113 5.55366 9.00446 5.56559 8.82436 5.58703C8.4813 5.62779 8.11062 5.74683 8.02926 5.80992C7.88172 5.92401 7.94871 6.12287 8.05784 6.20488ZM8.09252 3.42291C8.10591 3.42518 8.11801 3.42746 8.12751 3.43095C8.239 3.46952 8.16356 3.50784 8.14335 3.55396C8.12378 3.59927 8.09268 3.62875 8.13904 3.77564C8.1401 3.77856 8.14091 3.78124 8.14197 3.78433C8.14424 3.78985 8.14708 3.79683 8.14935 3.80308C8.15496 3.81705 8.16089 3.8311 8.16852 3.84693C8.25297 4.01899 8.34513 4.1809 8.4994 4.26348C8.53919 4.25715 8.5806 4.2522 8.62307 4.25033C8.76809 4.24391 8.85936 4.26681 8.9175 4.29832C8.92286 4.26909 8.92408 4.22703 8.92075 4.16458C8.90922 3.94729 8.96403 3.57703 8.54577 3.38239C8.38776 3.30899 8.16624 3.33148 8.09252 3.42291ZM5.32062 4.90195C5.35212 4.92915 5.37867 4.94832 5.40303 4.9644C5.49536 4.9203 5.60124 4.87646 5.72255 4.83707C5.92782 4.77049 6.09842 4.73614 6.23849 4.71779C6.30548 4.64277 6.38376 4.51098 6.36419 4.27193C6.33764 3.94729 6.0916 3.99942 6.27641 3.82346C6.37345 3.73138 5.7945 3.6108 5.34514 3.91717C5.01376 4.14298 5.00329 4.62758 5.32062 4.90195ZM12.4645 11.5433L6.21235 12.6702L5.67172 8.15918L6.56264 8.03681C6.70644 8.10153 6.80681 8.12621 6.97984 8.17006C7.24877 8.24014 7.5605 8.30712 8.02138 8.07514C8.12873 8.02179 8.35252 7.81741 8.44273 7.70057L12.0926 7.03904L12.4645 11.5433ZM12.08 11.218L11.7572 7.75002L10.8491 9.6543L9.65365 8.86602L8.65644 10.5313L7.497 10.1924L6.47568 11.7501L6.52821 12.2403L12.08 11.218Z" fill="white"/>
</g>
<defs>
<clipPath id="clip0_2048_4606">
<rect width="11.4653" height="13" fill="white" transform="translate(1 0.5)"/>
</clipPath>
</defs>
</svg>
