<svg width="15px" height="16px" viewBox="0 0 15 16" version="1.1" xmlns="http://www.w3.org/2000/svg" xmlns:xlink="http://www.w3.org/1999/xlink">
        <g stroke="none" stroke-width="1" fill="none" fill-rule="evenodd">
        <g id="dbt" transform="translate(0.000000, 0.695650)" fill="#FFFFFF" fill-rule="nonzero">
            <path d="M13.8122,0.6076 C14.1513,0.93782 14.3731,1.37371 14.4252,1.84919 C14.4252,2.04732 14.3731,2.17944 14.2557,2.43037 C14.1383,2.68134 12.6905,5.21741 12.2602,5.91745 C12.0124,6.32695 11.8819,6.81565 11.8819,7.29115 C11.8819,7.77985 12.0124,8.25535 12.2602,8.66485 C12.6905,9.36485 14.1383,11.91415 14.2557,12.16505 C14.3731,12.41605 14.4252,12.53495 14.4252,12.73305 C14.3731,13.20855 14.1644,13.64445 13.8253,13.96145 C13.4992,14.30485 13.0688,14.52945 12.6123,14.56905 C12.4167,14.56905 12.2862,14.51625 12.0515,14.39735 C11.8167,14.27845 9.2603,12.85195 8.5691,12.41605 C8.5169,12.38965 8.4647,12.35005 8.3995,12.32355 L4.9823,10.27625 C5.0606,10.93675 5.3475,11.57075 5.817,12.03305 C5.9084,12.12545 5.9996,12.20475 6.104,12.28395 C6.0257,12.32355 5.9344,12.36325 5.8562,12.41605 C5.1649,12.85195 2.6477,14.31815 2.3999,14.43695 C2.1521,14.55585 2.0347,14.60865 1.82597,14.60865 C1.35645,14.55585 0.92603,14.34455 0.613,14.00105 C0.27391,13.67085 0.05218,13.23505 0,12.75955 C0.01303,12.56135 0.06521,12.36325 0.16955,12.19155 C0.28694,11.94055 1.7347,9.39125 2.1651,8.69125 C2.4129,8.28175 2.5433,7.80625 2.5433,7.31755 C2.5433,6.82885 2.4129,6.35335 2.1651,5.94385 C1.7347,5.21741 0.27391,2.66813 0.16955,2.41716 C0.06521,2.24545 0.01303,2.04732 0,1.84919 C0.05218,1.37371 0.26085,0.93782 0.59997,0.6076 C0.92603,0.26418 1.35645,0.05284 1.82597,8.8817842e-16 C2.0216,0.01321 2.2172,0.06605 2.3999,0.17171 C2.6085,0.26418 4.4475,1.34729 5.4258,1.92847 L5.6475,2.06053 C5.7258,2.11336 5.791,2.15299 5.8432,2.17944 L5.9475,2.24545 L9.4299,4.33242 C9.3516,3.5399 8.9473,2.81342 8.3212,2.3247 C8.3995,2.28511 8.4908,2.24545 8.5691,2.19262 C9.2603,1.75676 11.7776,0.27738 12.0254,0.17171 C12.1949,0.06605 12.3906,0.01321 12.5993,8.8817842e-16 C13.0558,0.05284 13.4862,0.26418 13.8122,0.6076 Z M7.3952,8.24215 L8.1387,7.48925 C8.243,7.38365 8.243,7.22505 8.1387,7.11945 L7.3952,6.36655 C7.2909,6.26085 7.1344,6.26085 7.03,6.36655 L6.2866,7.11945 C6.1822,7.22505 6.1822,7.38365 6.2866,7.48925 L7.03,8.24215 C7.1213,8.33465 7.2909,8.33465 7.3952,8.24215 Z" id="Shape"></path>
        </g>
    </g>
</svg>