<svg width="13" height="14" viewBox="0 0 13 14" fill="none" xmlns="http://www.w3.org/2000/svg">
<path fill-rule="evenodd" clip-rule="evenodd" d="M3.45971 1.5L1.00002 8.52084L6.42436 12.4344L6.48061 12.4792L6.48353 12.4771L6.51532 12.5L6.68884 12.352L6.80718 12.2448L12 8.51875L9.44477 1.60839L7.92595 6.26043H4.97427L3.45971 1.5ZM4.24703 6.26043L3.42837 3.69L2.52784 6.26043H4.24703ZM2.28325 6.9586H4.46939L5.79514 11.1212L1.82773 8.25882L2.28325 6.9586ZM5.1964 6.9586H7.698L6.43104 10.8392L5.1964 6.9586ZM8.42855 6.9586L7.03636 11.2228L11.1641 8.26092L10.6826 6.9586H8.42855ZM10.4244 6.26043L9.4855 3.72124L8.65649 6.26043H10.4244Z" fill="white"/>
</svg>
