<svg width="20" height="20" viewBox="0 0 20 20" fill="none" xmlns="http://www.w3.org/2000/svg">
<g clip-path="url(#clip0_3033_1747)">
<path fill-rule="evenodd" clip-rule="evenodd" d="M0 0H20V20H0V0ZM5.89319 4.87747L9.32605 11.3083V15.5333H10.6464V11.3859L14.1103 4.87747H12.6502L10.5998 8.94721C10.4962 9.16467 10.3953 9.37437 10.2969 9.57631C10.1985 9.77824 10.1079 9.96723 10.0251 10.1433C9.99399 10.0604 9.95774 9.96982 9.91632 9.87144C9.8749 9.77306 9.8283 9.67209 9.77652 9.56854C9.76617 9.54783 9.75581 9.52453 9.74545 9.49864C9.7351 9.47275 9.71957 9.44427 9.69886 9.41321C9.66779 9.33036 9.63154 9.25011 9.59012 9.17244C9.5487 9.09477 9.51246 9.01969 9.48139 8.94721L7.46205 4.87747H5.89319Z" fill="black"/>
</g>
<defs>
<clipPath id="clip0_3033_1747">
<rect width="20" height="20" fill="white"/>
</clipPath>
</defs>
</svg>
