<svg width="20" height="20" viewBox="0 0 20 20" fill="none" xmlns="http://www.w3.org/2000/svg">
<path d="M9.93896 16.9474C11.8792 16.9474 13.74 16.1766 15.112 14.8046C16.484 13.4326 17.2547 11.5718 17.2547 9.63157C17.2547 7.6913 16.484 5.8305 15.112 4.45853C13.74 3.08655 11.8792 2.31578 9.93896 2.31578C7.99869 2.31578 6.13789 3.08655 4.76591 4.45853C3.39394 5.8305 2.62317 7.6913 2.62317 9.63157C2.62317 11.5718 3.39394 13.4326 4.76591 14.8046C6.13789 16.1766 7.99869 16.9474 9.93896 16.9474Z" fill="#FFD21E"/>
<path d="M17.2547 9.63157C17.2547 7.69131 16.4839 5.83051 15.1119 4.45853C13.74 3.08655 11.8792 2.31578 9.9389 2.31578C7.99863 2.31578 6.13783 3.08655 4.76586 4.45853C3.39388 5.83051 2.62311 7.69131 2.62311 9.63157C2.62311 11.5718 3.39388 13.4326 4.76586 14.8046C6.13783 16.1766 7.99863 16.9474 9.9389 16.9474C11.8792 16.9474 13.74 16.1766 15.1119 14.8046C16.4839 13.4326 17.2547 11.5718 17.2547 9.63157ZM1.78101 9.63157C1.78101 8.56026 1.99202 7.49944 2.40199 6.50968C2.81196 5.51992 3.41287 4.6206 4.1704 3.86307C4.92793 3.10554 5.82725 2.50463 6.81701 2.09466C7.80677 1.68469 8.86759 1.47368 9.9389 1.47368C11.0102 1.47368 12.071 1.68469 13.0608 2.09466C14.0506 2.50463 14.9499 3.10554 15.7074 3.86307C16.4649 4.6206 17.0658 5.51992 17.4758 6.50968C17.8858 7.49944 18.0968 8.56026 18.0968 9.63157C18.0968 11.7952 17.2373 13.8702 15.7074 15.4001C14.1775 16.93 12.1025 17.7895 9.9389 17.7895C7.77529 17.7895 5.7003 16.93 4.1704 15.4001C2.6405 13.8702 1.78101 11.7952 1.78101 9.63157Z" fill="#FF9D0B"/>
<path d="M12.3158 7.6421C12.5853 7.73473 12.6906 8.28631 12.9621 8.14315C13.146 8.04552 13.2968 7.89554 13.3955 7.71219C13.4942 7.52884 13.5362 7.32035 13.5164 7.11309C13.4965 6.90583 13.4157 6.70912 13.284 6.54782C13.1523 6.38652 12.9758 6.26789 12.7767 6.20693C12.5777 6.14597 12.365 6.14541 12.1656 6.20534C11.9662 6.26526 11.789 6.38298 11.6565 6.54359C11.524 6.7042 11.4422 6.90049 11.4212 7.10764C11.4003 7.3148 11.4413 7.5235 11.539 7.70736C11.6674 7.94947 12.0758 7.55578 12.3179 7.63999L12.3158 7.6421ZM7.35793 7.6421C7.08845 7.73473 6.98109 8.28631 6.71161 8.14315C6.52772 8.04552 6.37691 7.89554 6.27825 7.71219C6.1796 7.52884 6.13754 7.32035 6.15738 7.11309C6.17723 6.90583 6.25809 6.70912 6.38975 6.54782C6.5214 6.38652 6.69793 6.26789 6.89702 6.20693C7.0961 6.14597 7.30879 6.14541 7.50818 6.20534C7.70758 6.26526 7.88473 6.38298 8.01722 6.54359C8.14971 6.7042 8.2316 6.90049 8.25252 7.10764C8.27345 7.3148 8.23247 7.5235 8.13477 7.70736C8.00635 7.94947 7.59582 7.55578 7.35582 7.63999L7.35793 7.6421Z" fill="#3A3B45"/>
<path d="M9.88635 12.6926C11.9558 12.6926 12.6232 10.8484 12.6232 9.90104C12.6232 9.40841 12.2927 9.5642 11.7621 9.82525C11.2716 10.0674 10.6127 10.4021 9.88845 10.4021C8.37477 10.4021 7.15161 8.95367 7.15161 9.90104C7.15161 10.8484 7.81687 12.6926 9.88845 12.6926H9.88635Z" fill="#FF323D"/>
<path fill-rule="evenodd" clip-rule="evenodd" d="M8.30099 12.2105C8.41208 11.9848 8.56849 11.7843 8.76046 11.6217C8.95243 11.4591 9.17585 11.3377 9.41678 11.2653C9.50099 11.24 9.58731 11.3853 9.67784 11.5347C9.76205 11.6779 9.85047 11.8232 9.93889 11.8232C10.0336 11.8232 10.1284 11.68 10.2189 11.5389C10.3136 11.3916 10.4063 11.2484 10.4968 11.2758C10.949 11.4194 11.327 11.7345 11.5494 12.1537C12.3347 11.5347 12.6231 10.5242 12.6231 9.90105C12.6231 9.40841 12.2926 9.5642 11.762 9.82526L11.7326 9.83999C11.2463 10.0821 10.5978 10.4021 9.88626 10.4021C9.17468 10.4021 8.52836 10.0821 8.03994 9.83999C7.49257 9.56841 7.14941 9.39789 7.14941 9.90105C7.14941 10.5432 7.45678 11.5979 8.30099 12.2105Z" fill="#3A3B45"/>
<path d="M14.8863 8.63157C15.0678 8.63157 15.2418 8.55949 15.3701 8.43117C15.4984 8.30286 15.5705 8.12883 15.5705 7.94736C15.5705 7.7659 15.4984 7.59187 15.3701 7.46355C15.2418 7.33524 15.0678 7.26315 14.8863 7.26315C14.7049 7.26315 14.5308 7.33524 14.4025 7.46355C14.2742 7.59187 14.2021 7.7659 14.2021 7.94736C14.2021 8.12883 14.2742 8.30286 14.4025 8.43117C14.5308 8.55949 14.7049 8.63157 14.8863 8.63157ZM5.09685 8.63157C5.27831 8.63157 5.45234 8.55949 5.58066 8.43117C5.70897 8.30286 5.78106 8.12883 5.78106 7.94736C5.78106 7.7659 5.70897 7.59187 5.58066 7.46355C5.45234 7.33524 5.27831 7.26315 5.09685 7.26315C4.91538 7.26315 4.74135 7.33524 4.61304 7.46355C4.48472 7.59187 4.41264 7.7659 4.41264 7.94736C4.41264 8.12883 4.48472 8.30286 4.61304 8.43117C4.74135 8.55949 4.91538 8.63157 5.09685 8.63157ZM3.68843 10.9474C3.34737 10.9474 3.04421 11.0863 2.83158 11.341C2.65027 11.565 2.55141 11.8445 2.55158 12.1326C2.41902 12.0928 2.28157 12.0715 2.14316 12.0695C1.81685 12.0695 1.52211 12.1937 1.31369 12.4189C1.12774 12.612 1.01051 12.8609 0.980071 13.1273C0.949633 13.3936 1.00768 13.6626 1.14527 13.8926C0.958949 14.0447 0.826769 14.253 0.768426 14.4863C0.717899 14.6758 0.667373 15.0758 0.936847 15.4842C0.835828 15.6395 0.775716 15.8178 0.762097 16.0026C0.748479 16.1874 0.781796 16.3726 0.858952 16.541C1.07369 17.0295 1.61053 17.4126 2.65264 17.8253C3.29895 18.0821 3.89264 18.2463 3.89685 18.2484C4.64682 18.4562 5.41984 18.5694 6.1979 18.5853C7.43158 18.5853 8.31369 18.2063 8.82106 17.461C9.6379 16.2632 9.52211 15.1663 8.46316 14.1095C7.88 13.5242 7.49053 12.6632 7.41053 12.4737C7.24632 11.9137 6.81264 11.2905 6.09474 11.2905C5.90375 11.2935 5.71625 11.3421 5.54781 11.4322C5.37937 11.5223 5.23487 11.6512 5.12632 11.8084C4.91579 11.5432 4.70948 11.3347 4.52422 11.2147C4.27699 11.0474 3.98689 10.9546 3.68843 10.9474ZM3.68843 11.7895C3.79579 11.7895 3.92843 11.8358 4.07158 11.9263C4.52211 12.2126 5.38737 13.701 5.70527 14.28C5.81053 14.4737 5.99369 14.5558 6.15579 14.5558C6.48211 14.5558 6.73474 14.2337 6.18737 13.8232C5.36211 13.2063 5.65053 12.1979 6.04421 12.1368C6.06106 12.1326 6.08 12.1326 6.09474 12.1326C6.45264 12.1326 6.61053 12.7495 6.61053 12.7495C6.61053 12.7495 7.07369 13.9116 7.86948 14.7074C8.66316 15.501 8.70527 16.1389 8.12632 16.9874C7.73053 17.5663 6.97474 17.741 6.1979 17.741C5.39579 17.741 4.57053 17.5516 4.10948 17.4337C4.08632 17.4274 1.2779 16.6337 1.63369 15.96C1.69264 15.8463 1.79158 15.8 1.91579 15.8C2.41685 15.8 3.32632 16.5453 3.72 16.5453C3.80632 16.5453 3.86737 16.5095 3.89474 16.4189C4.06106 15.8189 1.35579 15.5663 1.58316 14.6989C1.62527 14.5453 1.73264 14.4842 1.88632 14.4842C2.54737 14.4842 4.03369 15.6484 4.34527 15.6484C4.36843 15.6484 4.38737 15.6421 4.39579 15.6274C4.55158 15.3747 4.46527 15.1979 3.36421 14.5326C2.26737 13.8674 1.49474 13.4674 1.93264 12.9895C1.98316 12.9347 2.05474 12.9095 2.14316 12.9095C2.81053 12.9095 4.38737 14.3453 4.38737 14.3453C4.38737 14.3453 4.81264 14.7874 5.07158 14.7874C5.13053 14.7874 5.18106 14.7663 5.21474 14.7074C5.39579 14.4 3.5179 12.9768 3.41264 12.3895C3.34106 11.9895 3.46316 11.7895 3.68843 11.7895Z" fill="#FF9D0B"/>
<path d="M8.12632 16.9874C8.70527 16.1368 8.66316 15.4989 7.86948 14.7053C7.07369 13.9116 6.61053 12.7474 6.61053 12.7474C6.61053 12.7474 6.4379 12.0737 6.04421 12.1368C5.65053 12.2 5.36211 13.2063 6.18737 13.8231C7.01053 14.44 6.02316 14.8589 5.70527 14.28C5.38948 13.701 4.52211 12.2126 4.07158 11.9263C3.62316 11.6421 3.30737 11.8 3.41263 12.3895C3.5179 12.9768 5.3979 14.4 5.21474 14.7053C5.03158 15.0147 4.38737 14.3453 4.38737 14.3453C4.38737 14.3453 2.37263 12.5116 1.93263 12.9895C1.49474 13.4674 2.26737 13.8674 3.36421 14.5326C4.46527 15.1979 4.55158 15.3747 4.39579 15.6274C4.2379 15.88 1.81053 13.8316 1.58316 14.701C1.35579 15.5663 4.06106 15.8168 3.89474 16.4168C3.72632 17.0168 1.98737 15.2842 1.63369 15.9579C1.27579 16.6337 4.08632 17.4274 4.10948 17.4337C5.01474 17.6695 7.32 18.1684 8.12632 16.9874Z" fill="#FFD21E"/>
<path d="M16.2948 10.9474C16.6358 10.9474 16.9411 11.0863 17.1516 11.341C17.3329 11.565 17.4318 11.8445 17.4316 12.1326C17.5649 12.0926 17.703 12.0713 17.8422 12.0695C18.1685 12.0695 18.4632 12.1937 18.6716 12.4189C18.8576 12.612 18.9748 12.8609 19.0052 13.1273C19.0357 13.3936 18.9776 13.6626 18.84 13.8926C19.0256 14.045 19.157 14.2532 19.2148 14.4863C19.2653 14.6758 19.3158 15.0758 19.0464 15.4842C19.1474 15.6395 19.2075 15.8178 19.2211 16.0026C19.2347 16.1874 19.2014 16.3726 19.1243 16.541C18.9095 17.0295 18.3727 17.4126 17.3327 17.8253C16.6843 18.0821 16.0906 18.2463 16.0864 18.2484C15.3364 18.4562 14.5634 18.5693 13.7853 18.5853C12.5516 18.5853 11.6695 18.2063 11.1622 17.461C10.3453 16.2631 10.4611 15.1663 11.5201 14.1095C12.1053 13.5242 12.4948 12.6631 12.5748 12.4737C12.739 11.9137 13.1706 11.2905 13.8885 11.2905C14.0795 11.2935 14.267 11.3421 14.4354 11.4322C14.6038 11.5223 14.7483 11.6512 14.8569 11.8084C15.0674 11.5431 15.2737 11.3347 15.4611 11.2147C15.7077 11.0477 15.997 10.955 16.2948 10.9474ZM16.2948 11.7895C16.1874 11.7895 16.0569 11.8358 15.9116 11.9263C15.4632 12.2126 14.5958 13.701 14.2779 14.28C14.235 14.3626 14.1704 14.4319 14.091 14.4805C14.0116 14.5291 13.9205 14.5551 13.8274 14.5558C13.5032 14.5558 13.2485 14.2337 13.7979 13.8231C14.6211 13.2063 14.3327 12.1979 13.939 12.1368C13.9223 12.1341 13.9054 12.1327 13.8885 12.1326C13.5306 12.1326 13.3727 12.7495 13.3727 12.7495C13.3727 12.7495 12.9095 13.9116 12.1158 14.7074C11.32 15.501 11.2779 16.1389 11.859 16.9874C12.2527 17.5663 13.0106 17.741 13.7853 17.741C14.5895 17.741 15.4127 17.5516 15.8758 17.4337C15.8969 17.4274 18.7074 16.6337 18.3516 15.96C18.2906 15.8463 18.1937 15.8 18.0695 15.8C17.5685 15.8 16.6569 16.5453 16.2653 16.5453C16.1769 16.5453 16.1158 16.5095 16.0906 16.4189C15.9222 15.8189 18.6274 15.5663 18.4 14.6989C18.36 14.5453 18.2527 14.4842 18.0969 14.4842C17.4358 14.4842 15.9495 15.6484 15.6379 15.6484C15.6169 15.6484 15.5979 15.6421 15.5895 15.6274C15.4337 15.3747 15.5179 15.1979 16.6169 14.5326C17.7179 13.8674 18.4906 13.4674 18.0485 12.9895C18.0001 12.9347 17.9285 12.9095 17.8422 12.9095C17.1727 12.9095 15.5958 14.3453 15.5958 14.3453C15.5958 14.3453 15.1706 14.7874 14.9137 14.7874C14.8848 14.7887 14.8561 14.7818 14.8308 14.7677C14.8055 14.7536 14.7846 14.7327 14.7706 14.7074C14.5874 14.4 16.4653 12.9768 16.5706 12.3895C16.6422 11.9895 16.52 11.7895 16.2948 11.7895Z" fill="#FF9D0B"/>
<path d="M11.859 16.9874C11.28 16.1368 11.32 15.4989 12.1158 14.7053C12.9095 13.9116 13.3726 12.7474 13.3726 12.7474C13.3726 12.7474 13.5453 12.0737 13.9411 12.1368C14.3326 12.2 14.6211 13.2063 13.7979 13.8231C12.9726 14.44 13.9621 14.8589 14.2779 14.28C14.5958 13.701 15.4632 12.2126 15.9116 11.9263C16.36 11.6421 16.6779 11.8 16.5705 12.3895C16.4653 12.9768 14.5874 14.4 14.7705 14.7053C14.9516 15.0147 15.5958 14.3453 15.5958 14.3453C15.5958 14.3453 17.6126 12.5116 18.0505 12.9895C18.4884 13.4674 17.7179 13.8674 16.619 14.5326C15.5179 15.1979 15.4337 15.3747 15.5874 15.6274C15.7453 15.88 18.1726 13.8316 18.4 14.701C18.6274 15.5663 15.9242 15.8168 16.0905 16.4168C16.259 17.0168 17.9958 15.2842 18.3516 15.9579C18.7074 16.6337 15.899 17.4274 15.8758 17.4337C14.9684 17.6695 12.6632 18.1684 11.859 16.9874Z" fill="#FFD21E"/>
</svg>
