<svg width="14" height="14" viewBox="0 0 14 14" fill="none" xmlns="http://www.w3.org/2000/svg">
<path d="M13.0121 8.36538C12.9798 8.35796 12.9336 8.34527 12.902 8.33942C12.7816 8.32282 12.6604 8.31311 12.539 8.31027C12.3095 8.29529 12.082 8.25806 11.8598 8.19912C11.7913 8.16056 11.7347 8.10381 11.6965 8.03518L11.5437 7.99078C11.7071 6.79967 11.4265 5.59015 10.755 4.59175C10.7942 4.55631 10.8683 4.4909 10.8892 4.47164C10.884 4.39385 10.9095 4.31708 10.9602 4.25776C11.1346 4.10832 11.3233 3.97613 11.5234 3.86314C11.6317 3.80819 11.7368 3.74706 11.838 3.68004C11.8624 3.66198 11.8958 3.63331 11.9214 3.61292C11.9663 3.58432 12.0048 3.54662 12.0342 3.50222C12.0636 3.45784 12.0834 3.40779 12.0922 3.35532C12.101 3.30284 12.0986 3.24909 12.0852 3.1976C12.0718 3.14608 12.0477 3.09798 12.0145 3.05635C11.9813 3.01472 11.9396 2.98054 11.8923 2.95601C11.845 2.93145 11.793 2.91711 11.7398 2.9139C11.6865 2.91072 11.6332 2.91869 11.5832 2.93736C11.5333 2.95604 11.4878 2.98499 11.4498 3.02231C11.424 3.04263 11.3888 3.06928 11.3658 3.08916C11.2774 3.17225 11.1938 3.26038 11.1156 3.35313C10.9608 3.52284 10.7899 3.67713 10.6051 3.81384C10.5324 3.84333 10.4528 3.85195 10.3754 3.83871L10.2314 3.94134C9.40219 3.07342 8.28539 2.53515 7.08839 2.42657C7.08487 2.37638 7.08059 2.28545 7.07923 2.25798C7.01494 2.2135 6.97061 2.14577 6.95569 2.06917C6.94769 1.83992 6.96206 1.61047 6.99859 1.38403C7.02268 1.26546 7.03992 1.14559 7.05015 1.025C7.05134 0.994582 7.04953 0.950382 7.04953 0.91754C7.05487 0.864753 7.04902 0.811419 7.03239 0.761026C7.01576 0.7106 6.98874 0.664245 6.95302 0.624869C6.91734 0.585526 6.87376 0.554087 6.82514 0.532603C6.7765 0.511084 6.72388 0.499966 6.67068 0.5C6.61749 0.500034 6.56487 0.511187 6.51626 0.53274C6.46764 0.554292 6.42413 0.585766 6.38845 0.625142C6.3528 0.664519 6.32581 0.710942 6.30922 0.761369C6.29266 0.811761 6.28688 0.865095 6.29225 0.917916C6.29225 0.921474 6.29303 0.924895 6.29314 0.928453C6.29276 0.95979 6.29125 0.997729 6.29225 1.0251C6.30258 1.14576 6.31982 1.26574 6.3439 1.38441C6.3802 1.61082 6.39433 1.8402 6.38609 2.06934C6.36457 2.14477 6.32194 2.21251 6.26317 2.26461L6.2542 2.42445C6.02383 2.4434 5.7951 2.4785 5.56965 2.5294C4.6226 2.74288 3.76111 3.23383 3.09578 3.93919C3.04974 3.90751 3.0041 3.87525 2.95887 3.84237C2.88395 3.86471 2.80325 3.85691 2.73404 3.82061C2.5493 3.68418 2.37832 3.5301 2.22355 3.36055C2.14565 3.26787 2.06245 3.17971 1.9744 3.09658C1.95134 3.07688 1.9161 3.05002 1.89024 3.02946C1.81518 2.96904 1.72267 2.93425 1.6263 2.93011C1.56903 2.92714 1.51187 2.93764 1.45946 2.9608C1.40705 2.98399 1.36083 3.01916 1.32457 3.06347C1.26319 3.14971 1.23853 3.25669 1.25597 3.36103C1.27342 3.46534 1.33158 3.55856 1.41769 3.62024L1.42354 3.62438C1.44831 3.6446 1.47879 3.67046 1.50178 3.68719C1.6028 3.75424 1.70762 3.81545 1.81569 3.87046C2.01582 3.98349 2.20439 4.11571 2.37876 4.26528C2.42406 4.32936 2.45044 4.40483 2.45492 4.4831L2.57612 4.59121C1.90662 5.5932 1.6315 6.80644 1.80358 7.9983L1.64505 8.04432C1.60369 8.11021 1.5481 8.16607 1.48231 8.20781C1.26025 8.26692 1.03292 8.30428 0.803608 8.31937C0.682058 8.32214 0.560747 8.33189 0.440326 8.34855C0.411247 8.35392 0.370879 8.36412 0.3392 8.37198L0.335881 8.3727L0.33051 8.37431C0.278065 8.38119 0.227639 8.39894 0.182447 8.42635C0.137255 8.45378 0.0983232 8.49032 0.0681153 8.53363C0.0378731 8.57694 0.0170733 8.62607 0.00698117 8.67786C-0.00311094 8.72966 -0.00225583 8.78299 0.0095126 8.83444C0.021281 8.88586 0.043655 8.9343 0.0752655 8.97662C0.106876 9.01894 0.146971 9.05421 0.193018 9.08018C0.239066 9.10614 0.290039 9.12222 0.342689 9.12742C0.395339 9.13259 0.448468 9.12677 0.498724 9.11028L0.504369 9.10939C0.5069 9.10885 0.509055 9.10762 0.511553 9.10714C0.542787 9.09999 0.582061 9.09256 0.609532 9.08514C0.725129 9.04833 0.838537 9.00498 0.949174 8.95528C1.16241 8.86951 1.38351 8.80465 1.60934 8.76154C1.68764 8.76633 1.76304 8.79291 1.82698 8.83824L1.99208 8.81005C2.36265 9.95207 3.1394 10.9193 4.17581 11.5293L4.10681 11.694C4.1389 11.7603 4.15063 11.8346 4.14064 11.9076C4.04626 12.1228 3.93148 12.3285 3.79792 12.5219C3.72447 12.6185 3.65667 12.7192 3.59488 12.8236C3.57979 12.8521 3.5607 12.8956 3.54627 12.9254C3.51893 12.9708 3.50142 13.0214 3.49488 13.0739C3.48832 13.1265 3.49287 13.1798 3.50823 13.2304C3.52355 13.2811 3.54938 13.328 3.58397 13.3681C3.61859 13.4083 3.66125 13.4407 3.70918 13.4634C3.75714 13.4861 3.80931 13.4985 3.86237 13.4999C3.9154 13.5012 3.96815 13.4915 4.01721 13.4713C4.06627 13.4512 4.11054 13.421 4.14718 13.3827C4.18385 13.3444 4.21204 13.2989 4.23 13.249L4.23062 13.2483V13.2474C4.24498 13.2179 4.26534 13.1791 4.27745 13.1515C4.32056 13.0383 4.35706 12.9227 4.38672 12.8054C4.4521 12.5666 4.55079 12.3382 4.6799 12.1269C4.72506 12.0846 4.78192 12.0569 4.84312 12.0474L4.92896 11.8926C6.05301 12.3237 7.29687 12.3269 8.42308 11.9015C8.44713 11.9442 8.49198 12.026 8.50386 12.0467C8.58117 12.059 8.65062 12.1011 8.69718 12.1639C8.8044 12.3666 8.89146 12.5793 8.95718 12.7989C8.98711 12.9163 9.02382 13.0319 9.0671 13.1451C9.07938 13.173 9.09939 13.2122 9.11393 13.2419C9.13183 13.2917 9.15998 13.3373 9.19659 13.3756C9.23319 13.4139 9.27746 13.4442 9.32648 13.4645C9.37554 13.4847 9.42829 13.4945 9.48135 13.4932C9.53441 13.4919 9.58662 13.4796 9.63462 13.4569C9.68258 13.4343 9.72531 13.4019 9.76 13.3618C9.79469 13.3218 9.82055 13.2749 9.83602 13.2242C9.85144 13.1736 9.85606 13.1202 9.8496 13.0677C9.84313 13.0151 9.82572 12.9645 9.79845 12.9191C9.78402 12.8893 9.7641 12.8457 9.74912 12.8174C9.68734 12.7133 9.61953 12.6128 9.54611 12.5164C9.41488 12.3279 9.30243 12.1271 9.21037 11.9168C9.19039 11.8416 9.20083 11.7616 9.23945 11.694C9.2152 11.6446 9.19416 11.5937 9.17637 11.5416C10.2161 10.9266 10.9929 9.95186 11.359 8.8028C11.408 8.8106 11.4933 8.82545 11.5211 8.83109C11.5786 8.77834 11.6546 8.75018 11.7328 8.75261C11.9587 8.79565 12.1798 8.86055 12.3931 8.94635C12.5038 8.99646 12.6172 9.04015 12.733 9.07717C12.7603 9.08432 12.7993 9.09113 12.8307 9.09804C12.8333 9.09875 12.8357 9.09981 12.8382 9.10053L12.8436 9.10135C12.8938 9.11777 12.9469 9.12359 12.9995 9.11839C13.0521 9.11319 13.1031 9.09711 13.1491 9.07115C13.1952 9.04518 13.2352 9.00994 13.2668 8.96766C13.2984 8.92537 13.3208 8.87697 13.3326 8.82555C13.3443 8.77413 13.3452 8.72083 13.3352 8.66907C13.3251 8.61731 13.3043 8.56818 13.2742 8.52487C13.244 8.48156 13.2051 8.44502 13.16 8.41755C13.1149 8.39008 13.0645 8.37233 13.0121 8.36538ZM9.4144 4.51854L7.79614 5.66282L7.7905 5.66015C7.74175 5.69563 7.68424 5.71725 7.62413 5.72275C7.56402 5.72823 7.50357 5.71738 7.44914 5.69135C7.39475 5.66528 7.34843 5.62501 7.31511 5.57479C7.28182 5.52461 7.26277 5.46631 7.25999 5.40617L7.25822 5.40528L7.1458 3.42733C8.00141 3.53328 8.79855 3.91668 9.4144 4.51854ZM6.36597 6.68667H6.97499L7.35359 7.15881L7.21785 7.74764L6.67092 8.01021L6.12239 7.7471L5.98637 7.15799L6.36597 6.68667ZM5.79305 3.49657C5.92643 3.46664 6.06129 3.44351 6.19704 3.42733L6.08445 5.40833L6.07621 5.41226C6.07364 5.47244 6.05479 5.53076 6.02164 5.58109C5.98849 5.63138 5.94227 5.67178 5.88791 5.69799C5.83355 5.72416 5.7731 5.73517 5.71299 5.7298C5.65285 5.72443 5.59534 5.70288 5.54649 5.66747L5.54338 5.66928L3.91465 4.51738C4.43314 4.00911 5.08376 3.65555 5.79305 3.49657ZM3.32404 5.25773L4.811 6.58428L4.80939 6.59235C4.85496 6.6319 4.88893 6.68304 4.90764 6.74035C4.92636 6.79765 4.92913 6.85892 4.91565 6.91766C4.9022 6.97643 4.87299 7.03042 4.83118 7.0739C4.78938 7.11742 4.73649 7.14875 4.67823 7.16463L4.67669 7.17106L2.77065 7.71962C2.67568 6.86049 2.8704 5.99418 3.32404 5.25773ZM5.31495 8.78176L4.55763 10.6071C3.83076 10.143 3.27775 9.45256 2.98436 8.64297L4.93867 8.31188L4.94199 8.31626C4.96358 8.31212 4.98551 8.3102 5.00747 8.31044C5.06227 8.31126 5.11605 8.32549 5.16402 8.35197C5.21198 8.37842 5.25269 8.41625 5.28252 8.4621C5.31235 8.50797 5.33042 8.56045 5.33507 8.61495C5.33976 8.66941 5.3309 8.72418 5.30931 8.77444L5.31495 8.78176ZM7.55034 11.129C6.84177 11.2911 6.10193 11.2533 5.41372 11.0196L6.37486 9.28602H6.37647C6.40507 9.23307 6.44749 9.1888 6.49922 9.15794C6.55098 9.12705 6.61017 9.11073 6.67048 9.11066C6.73076 9.11063 6.78998 9.12684 6.84177 9.15763C6.8936 9.18839 6.93609 9.23259 6.96476 9.28551H6.97194L7.93548 11.0219C7.81044 11.0636 7.68205 11.0992 7.55034 11.129ZM8.79211 10.6144L8.027 8.7705L8.02932 8.76719C7.99542 8.6883 7.9933 8.59942 8.0234 8.51902C8.05354 8.43863 8.11362 8.37291 8.1911 8.33559C8.23106 8.31608 8.27454 8.30483 8.31895 8.30247C8.34464 8.30127 8.3704 8.30319 8.39565 8.30811L8.39897 8.30397L10.3707 8.63633C10.0796 9.45246 9.52419 10.1484 8.79211 10.6144ZM10.5778 7.71319L8.66211 7.16285L8.66034 7.15477C8.60214 7.13876 8.54942 7.10732 8.50772 7.06381C8.46602 7.02029 8.43691 6.96634 8.4235 6.90767C8.41005 6.84897 8.41279 6.78776 8.43143 6.73053C8.45008 6.67326 8.48391 6.62212 8.52934 6.5825L8.52862 6.57867L10.0073 5.25862C10.4602 5.99315 10.6605 6.85485 10.5778 7.71319Z" fill="white"/>
</svg>
