<?xml version="1.0" encoding="UTF-8"?>
<svg xmlns="http://www.w3.org/2000/svg" xmlns:xlink="http://www.w3.org/1999/xlink" width="20px" height="20px" viewBox="0 0 20 20" version="1.1">
<g id="surface1">
<path style=" stroke:none;fill-rule:nonzero;fill:rgb(7.45098%,66.666667%,32.156863%);fill-opacity:1;" d="M 20 10 C 20 15.523438 15.523438 20 10 20 C 4.476562 20 0 15.523438 0 10 C 0 4.476562 4.476562 0 10 0 C 15.523438 0 20 4.476562 20 10 Z M 20 10 "/>
<path style=" stroke:none;fill-rule:nonzero;fill:rgb(100%,100%,100%);fill-opacity:1;" d="M 12.671875 8.777344 C 12.042969 5.992188 10.546875 5.074219 10.386719 4.722656 C 10.210938 4.476562 10.035156 4.039062 10.035156 4.039062 C 10.03125 4.03125 10.027344 4.015625 10.019531 4.003906 C 10.003906 4.25 9.992188 4.347656 9.757812 4.59375 C 9.398438 4.878906 7.542969 6.4375 7.390625 9.601562 C 7.25 12.554688 9.523438 14.316406 9.832031 14.542969 L 9.867188 14.566406 L 9.867188 14.5625 C 9.871094 14.578125 9.964844 15.265625 10.03125 15.996094 L 10.273438 15.996094 C 10.328125 15.480469 10.414062 14.96875 10.527344 14.460938 L 10.546875 14.449219 C 10.683594 14.351562 10.816406 14.242188 10.941406 14.128906 L 10.953125 14.117188 C 11.609375 13.511719 12.78125 12.113281 12.773438 9.886719 C 12.769531 9.515625 12.734375 9.144531 12.671875 8.777344 Z M 10.007812 12.875 C 10.007812 12.875 10.007812 8.730469 10.144531 8.730469 C 10.25 8.730469 10.386719 14.074219 10.386719 14.074219 C 10.199219 14.050781 10.007812 13.195312 10.007812 12.875 Z M 10.007812 12.875 "/>
</g>
</svg>
