<svg width="13" height="14" viewBox="0 0 13 14" fill="none" xmlns="http://www.w3.org/2000/svg">
<path d="M5.16932 3.14139L2.99758 2.04529L0.613525 3.23498L2.84434 4.35506L5.16932 3.14139Z" fill="white"/>
<path d="M6.16542 3.6438L8.44244 4.79371L6.08002 5.97989L3.8457 4.85805L6.16542 3.6438Z" fill="white"/>
<path d="M9.20699 2.06165L11.5466 3.23496L9.45382 4.28544L7.17212 3.13435L9.20699 2.06165Z" fill="white"/>
<path d="M8.19965 1.55633L6.09343 0.5L4.01001 1.53995L6.18058 2.6343L8.19965 1.55633Z" fill="white"/>
<path d="M6.55322 10.6258V13.5L9.10456 12.2267L9.10222 9.35132L6.55322 10.6258Z" fill="white"/>
<path d="M9.10105 8.34764L9.09813 5.50269L6.55322 6.76782V9.61395L9.10105 8.34764Z" fill="white"/>
<path d="M12.1643 7.81482V10.7001L9.98784 11.7857L9.98608 8.91385L12.1643 7.81482Z" fill="white"/>
<path d="M12.1642 6.8058V3.97839L9.98364 5.06221L9.9854 7.91302L12.1642 6.8058Z" fill="white"/>
<path d="M5.65248 6.76781L3.93404 5.90333V9.63733C3.93404 9.63733 1.83191 5.16518 1.63772 4.76336C1.61257 4.7113 1.50963 4.65457 1.48331 4.64053C1.10429 4.44283 0 3.88367 0 3.88367V10.4831L1.52776 11.302V7.85105C1.52776 7.85105 3.60708 11.8471 3.62872 11.891C3.65036 11.9348 3.858 12.3554 4.08144 12.5033C4.37798 12.7005 5.65131 13.4661 5.65131 13.4661L5.65248 6.76781Z" fill="white"/>
</svg>
