<svg width="20" height="20" viewBox="0 0 20 20" fill="none" xmlns="http://www.w3.org/2000/svg">
<path fill-rule="evenodd" clip-rule="evenodd" d="M10 13.2414C12.8947 13.2414 15.2414 10.8947 15.2414 8C15.2414 5.10527 12.8947 2.75862 10 2.75862C7.10527 2.75862 4.75862 5.10527 4.75862 8C4.75862 10.8947 7.10527 13.2414 10 13.2414ZM10 16C14.4183 16 18 12.4183 18 8C18 3.58172 14.4183 0 10 0C5.58172 0 2 3.58172 2 8C2 12.4183 5.58172 16 10 16Z" fill="#6D778B"/>
<path fill-rule="evenodd" clip-rule="evenodd" d="M2 18.7586C2 18.1492 2.51167 17.6552 3.14286 17.6552H16.8571C17.4883 17.6552 18 18.1492 18 18.7586C18 19.368 17.4883 19.8621 16.8571 19.8621H3.14286C2.51167 19.8621 2 19.368 2 18.7586Z" fill="#EF678A"/>
</svg>
