<svg width="20" height="20" viewBox="0 0 20 20" fill="none" xmlns="http://www.w3.org/2000/svg">
<path d="M9.11153 17.8611C8.31888 17.0155 8.29528 16.9789 8.43784 16.8189C8.66368 16.5655 18.2974 7.74814 18.4332 7.66732C18.5528 7.59824 19.7337 8.16838 19.992 8.41988C20.0909 8.51628 19.3234 9.33666 15.1365 13.6083C12.4014 16.3997 10.1098 18.6964 10.0483 18.7094C9.98479 18.7234 9.56313 18.3405 9.11153 17.8585V17.8611ZM6.95115 15.614C6.52379 15.1844 6.25355 14.8469 6.2807 14.7768C6.32942 14.6498 11.8667 10.1735 11.9702 10.1767C12.0978 10.1815 13.4009 11.1717 13.4009 11.2639C13.4009 11.3609 7.83431 16.3326 7.7244 16.3326C7.69201 16.3326 7.34359 16.0087 6.94986 15.6131L6.95115 15.614ZM4.9343 13.5485C4.59973 13.1748 4.38961 12.8729 4.43486 12.8309C4.66823 12.613 7.07593 10.9433 7.15545 10.9443C7.28489 10.9459 8.4469 11.9422 8.4469 12.0518C8.4469 12.1863 5.83945 14.1934 5.66456 14.1934C5.58035 14.1934 5.25175 13.9032 4.9343 13.5485ZM3.27499 11.8455C2.79591 11.361 2.73869 11.2705 2.84731 11.1696C3.00322 11.0247 10.6574 6.08465 10.8125 6.02646C10.935 5.98202 11.995 6.62386 11.995 6.74249C11.995 6.82725 4.14942 12.322 3.95869 12.3705C3.88286 12.39 3.59599 12.1694 3.27499 11.8446V11.8455ZM8.37933 11.0652C8.06334 10.8029 7.80651 10.5431 7.80845 10.4878C7.81039 10.4326 8.08959 10.1925 8.42847 9.95412C8.76757 9.71591 10.2872 8.62874 11.8066 7.53805C13.325 6.44735 14.63 5.55482 14.7063 5.55482C14.9106 5.55482 15.9453 6.15286 15.912 6.2521C15.8641 6.39602 9.2237 11.5407 9.0847 11.5407C9.01261 11.5414 8.69516 11.3272 8.37901 11.0649L8.37933 11.0652ZM1.73302 10.2948C1.35577 9.89594 1.30114 9.7996 1.39973 9.70974C1.48521 9.63183 6.22607 6.83139 6.79825 6.52041C6.89296 6.46901 7.89799 7.19409 7.86599 7.29043C7.82442 7.41517 2.47717 10.772 2.31878 10.772C2.24326 10.7721 1.97838 10.5573 1.73011 10.2948H1.73302ZM13.196 10.3268C12.8491 10.0778 12.5517 9.83377 12.5352 9.78464C12.5119 9.71442 15.657 7.10057 16.3691 6.59725C16.5078 6.4994 16.6169 6.53199 17.2119 6.84895C17.5878 7.04921 17.8946 7.25367 17.894 7.30345C17.8923 7.43072 14.1473 10.7236 13.9728 10.7559C13.8926 10.7697 13.5432 10.5772 13.196 10.3282V10.3268ZM0.456127 8.94189L0 8.47994L0.202462 8.34873C0.313826 8.27658 2.57425 7.04371 5.22599 5.60874L10.0459 3L10.5068 3.22606C10.7604 3.35039 10.9678 3.49424 10.9678 3.5457C10.9678 3.61614 1.05652 9.40325 0.936917 9.40325C0.92376 9.40325 0.707722 9.19539 0.456869 8.9413L0.456127 8.94189ZM7.86858 6.61309C7.64514 6.44538 7.46255 6.26364 7.46288 6.20934C7.46313 6.15503 8.36673 5.57865 9.47067 4.92824L11.4778 3.74606L11.9931 4.02074C12.2765 4.17183 12.5084 4.32461 12.5084 4.36017C12.5084 4.46158 8.57103 6.92333 8.41586 6.92042C8.3387 6.91913 8.09273 6.78061 7.86922 6.61287L7.86858 6.61309ZM11.89 6.10169C11.6195 5.93453 11.3989 5.75289 11.3999 5.69761C11.4015 5.60438 12.7686 4.6887 12.993 4.63051C13.0961 4.60381 14.0161 5.08923 14.0904 5.20948C14.1128 5.24575 14.0647 5.33458 13.9835 5.4069C13.7058 5.65419 12.5654 6.41031 12.4736 6.40805C12.4231 6.40678 12.1605 6.26885 11.89 6.10169Z" fill="#030615"/>
</svg>
