<svg width="13" height="14" viewBox="0 0 13 14" fill="none" xmlns="http://www.w3.org/2000/svg">
<mask id="mask0_2043_3931" style="mask-type:luminance" maskUnits="userSpaceOnUse" x="0" y="0" width="13" height="14">
<path d="M13 0.15686H0V13.8432H13V0.15686Z" fill="white"/>
</mask>
<g mask="url(#mask0_2043_3931)">
<path d="M4.11826 11.1786C4.11826 11.6227 3.75491 12.0264 3.27043 12.0264C2.78596 12.0264 2.42261 11.663 2.42261 11.1786V7.54503C2.42261 7.10093 2.78596 6.6972 3.27043 6.6972C3.75491 6.6972 4.11826 7.06056 4.11826 7.54503V11.1786Z" fill="#171615"/>
</g>
<mask id="mask1_2043_3931" style="mask-type:luminance" maskUnits="userSpaceOnUse" x="0" y="0" width="13" height="14">
<path d="M13 0.15686H0V13.8432H13V0.15686Z" fill="white"/>
</mask>
<g mask="url(#mask1_2043_3931)">
<path d="M6.54029 12.1476C6.54029 12.5917 6.17694 12.9954 5.69246 12.9954C5.20799 12.9954 4.88501 12.632 4.88501 12.1476V6.6165C4.88501 6.1724 5.24836 5.76868 5.73284 5.76868C6.21731 5.76868 6.58066 6.13203 6.58066 6.6165V12.1476H6.54029Z" fill="#171615"/>
</g>
<mask id="mask2_2043_3931" style="mask-type:luminance" maskUnits="userSpaceOnUse" x="0" y="0" width="13" height="14">
<path d="M13 0.15686H0V13.8432H13V0.15686Z" fill="white"/>
</mask>
<g mask="url(#mask2_2043_3931)">
<path d="M1.65537 10.3711C1.65537 10.8152 1.29202 11.219 0.807543 11.219C0.323071 11.219 -0.0402832 10.8556 -0.0402832 10.3711V8.39287C-0.0402832 7.94877 0.323071 7.54504 0.807543 7.54504C1.29202 7.54504 1.65537 7.94877 1.65537 8.39287V10.3711Z" fill="#171615"/>
</g>
<mask id="mask3_2043_3931" style="mask-type:luminance" maskUnits="userSpaceOnUse" x="0" y="0" width="13" height="14">
<path d="M13 0.15686H0V13.8432H13V0.15686Z" fill="white"/>
</mask>
<g mask="url(#mask3_2043_3931)">
<path d="M8.9629 13.0357C8.9629 13.4798 8.59954 13.8836 8.11507 13.8836C7.67097 13.8836 7.30762 13.4798 7.30762 13.0357V5.68791C7.30762 5.24381 7.67097 4.84009 8.15544 4.84009C8.59954 4.84009 9.00327 5.20344 9.00327 5.68791V13.0357H8.9629Z" fill="#171615"/>
</g>
<mask id="mask4_2043_3931" style="mask-type:luminance" maskUnits="userSpaceOnUse" x="0" y="0" width="13" height="14">
<path d="M13 0.15686H0V13.8432H13V0.15686Z" fill="white"/>
</mask>
<g mask="url(#mask4_2043_3931)">
<path d="M11.6274 12.6724C11.4659 12.6724 11.3448 12.632 11.1833 12.5917L10.174 12.2687C10.0125 12.2283 9.89139 12.0264 9.97213 11.865C10.0125 11.7035 10.2144 11.5823 10.3759 11.6631L11.4255 11.9861C11.6274 12.0668 11.8696 12.0264 12.0715 11.865C12.2734 11.7438 12.3541 11.5016 12.3541 11.2997V4.5575C12.3541 4.23452 12.1523 3.95191 11.8696 3.87117L1.97834 0.88359C1.77648 0.802845 1.53424 0.843218 1.33238 0.964336C1.17089 1.12583 1.04977 1.32769 1.04977 1.56993V6.21278C1.04977 6.41465 0.888281 6.53576 0.72679 6.53576C0.524927 6.53576 0.403809 6.37427 0.403809 6.21278V1.56993C0.403809 1.12583 0.605672 0.7221 0.969026 0.479864C1.33238 0.197255 1.77648 0.156882 2.18021 0.278L12.0311 3.26558C12.5964 3.42707 13.0001 3.99229 13.0001 4.59788V11.3401C13.0001 11.7842 12.7982 12.1879 12.4349 12.4705C12.1926 12.5513 11.91 12.6724 11.6274 12.6724Z" fill="#171615"/>
</g>
</svg>
