<svg width="14px" height="13px" viewBox="0 0 14 13" version="1.1" xmlns="http://www.w3.org/2000/svg" xmlns:xlink="http://www.w3.org/1999/xlink">
        <g stroke="none" stroke-width="1" fill="none" fill-rule="evenodd">
        <g id="python" transform="translate(0.719238, 0.000000)" fill="#FFFFFF" fill-rule="nonzero">
            <path d="M6.412052,0 C3.132862,0 3.337632,1.41889 3.337632,1.41889 L3.341282,2.88885 L6.470542,2.88885 L6.470542,3.3302 L2.098352,3.3302 C2.098352,3.3302 0,3.09276 0,6.39413 C0,9.69551 1.831492,9.57843 1.831492,9.57843 L2.924542,9.57843 L2.924542,8.04647 C2.924542,8.04647 2.865622,6.21905 4.726782,6.21905 C6.587952,6.21905 7.830452,6.21905 7.830452,6.21905 C7.830452,6.21905 9.574162,6.24718 9.574162,4.53754 C9.574162,2.8279 9.574162,1.7107 9.574162,1.7107 C9.574162,1.7107 9.838962,0 6.412052,0 L6.412052,0 Z M4.686582,0.988483 C4.997912,0.988483 5.249552,1.23956 5.249552,1.5502 C5.249552,1.86085 4.997912,2.11192 4.686582,2.11192 C4.375242,2.11192 4.123602,1.86085 4.123602,1.5502 C4.123602,1.23956 4.375242,0.988483 4.686582,0.988483 L4.686582,0.988483 Z" id="Shape"></path>
            <path d="M6.588042,13 C9.867262,13 9.662462,11.5811 9.662462,11.5811 L9.658762,10.1111 L6.529552,10.1111 L6.529552,9.66977 L10.901762,9.66977 C10.901762,9.66977 13.000062,9.90721 13.000062,6.60583 C13.000062,3.30446 11.168562,3.42153 11.168562,3.42153 L10.075562,3.42153 L10.075562,4.9535 C10.075562,4.9535 10.134462,6.78091 8.273302,6.78091 C6.412142,6.78091 5.169642,6.78091 5.169642,6.78091 C5.169642,6.78091 3.425882,6.75279 3.425882,8.46243 C3.425882,10.1721 3.425882,11.2893 3.425882,11.2893 C3.425882,11.2893 3.161132,13 6.588042,13 L6.588042,13 Z M8.313512,12.0115 C8.002172,12.0115 7.750542,11.7604 7.750542,11.4498 C7.750542,11.1391 8.002172,10.888 8.313512,10.888 C8.624852,10.888 8.876492,11.1391 8.876492,11.4498 C8.876492,11.7604 8.624852,12.0115 8.313512,12.0115 Z" id="Shape"></path>
        </g>
    </g>
</svg>