<svg width="20" height="20" viewBox="0 0 20 20" fill="none" xmlns="http://www.w3.org/2000/svg">
<path fill-rule="evenodd" clip-rule="evenodd" d="M11.3302 3.49569C11.3302 4.2199 10.7431 4.80699 10.0189 4.80699C9.2947 4.80699 8.70761 4.2199 8.70761 3.49569C8.70761 2.77148 9.2947 2.1844 10.0189 2.1844C10.7431 2.1844 11.3302 2.77148 11.3302 3.49569ZM11.2563 5.66352C10.8916 5.87215 10.4692 5.99138 10.0189 5.99138C8.64058 5.99138 7.52322 4.87402 7.52322 3.49569C7.52322 2.11736 8.64058 1 10.0189 1C11.3972 1 12.5146 2.11736 12.5146 3.49569C12.5146 3.99435 12.3684 4.45885 12.1164 4.84864L15.3494 8.0816C15.7392 7.82964 16.2037 7.68338 16.7024 7.68338C18.0807 7.68338 19.1981 8.80074 19.1981 10.1791C19.1981 11.5574 18.0807 12.6748 16.7024 12.6748C16.2301 12.6748 15.7884 12.5436 15.4118 12.3156L12.1555 15.5719C12.3834 15.9485 12.5146 16.3902 12.5146 16.8624C12.5146 18.2408 11.3972 19.3581 10.0189 19.3581C8.64058 19.3581 7.52322 18.2408 7.52322 16.8624C7.52322 15.4841 8.64058 14.3668 10.0189 14.3668C10.4957 14.3668 10.9412 14.5004 11.3201 14.7324L14.5723 11.4802C14.447 11.2756 14.3504 11.0515 14.288 10.8136H12.4332C12.1525 11.8846 11.178 12.6748 10.0189 12.6748C8.85983 12.6748 7.8853 11.8846 7.60459 10.8136H5.91917C5.63846 11.8846 4.66393 12.6748 3.50485 12.6748C2.12651 12.6748 1.00916 11.5574 1.00916 10.1791C1.00916 8.80074 2.12651 7.68338 3.50485 7.68338C4.69424 7.68338 5.68931 8.5154 5.93976 9.62917H7.584C7.83445 8.5154 8.82952 7.68338 10.0189 7.68338C11.2083 7.68338 12.2034 8.5154 12.4538 9.62917H14.2675C14.3225 9.38448 14.4134 9.15339 14.5345 8.94173L11.2563 5.66352ZM10.0189 11.4904C10.7431 11.4904 11.3302 10.9033 11.3302 10.1791C11.3302 9.45486 10.7431 8.86777 10.0189 8.86777C9.2947 8.86777 8.70761 9.45486 8.70761 10.1791C8.70761 10.9033 9.2947 11.4904 10.0189 11.4904ZM16.7024 11.4904C17.4266 11.4904 18.0137 10.9033 18.0137 10.1791C18.0137 9.45486 17.4266 8.86777 16.7024 8.86777C15.9782 8.86777 15.3911 9.45486 15.3911 10.1791C15.3911 10.9033 15.9782 11.4904 16.7024 11.4904ZM10.0189 18.1737C10.7431 18.1737 11.3302 17.5867 11.3302 16.8624C11.3302 16.1382 10.7431 15.5512 10.0189 15.5512C9.2947 15.5512 8.70761 16.1382 8.70761 16.8624C8.70761 17.5867 9.2947 18.1737 10.0189 18.1737ZM4.81614 10.1791C4.81614 10.9033 4.22906 11.4904 3.50485 11.4904C2.78064 11.4904 2.19355 10.9033 2.19355 10.1791C2.19355 9.45486 2.78064 8.86777 3.50485 8.86777C4.22906 8.86777 4.81614 9.45486 4.81614 10.1791Z" fill="black"/>
</svg>
