<svg xmlns="http://www.w3.org/2000/svg" width="24" height="24">
<path d="M11.719 3.715c-.387.039-.762.16-1.113.359l-1.441.828-1.258.723-.727.418-.875.5-.855.531c-.535.43-.891 1.043-1.012 1.746l-.023.16v6.047l.023.152a2.82 2.82 0 0 0 .789 1.543c.219.219.367.324.867.613l1.465.84.617.355 1.066.609.586.34 1.254.66c.621.215 1.309.207 1.914-.027.223-.082.184-.062 1.887-1.043l1.172-.672.934-.535.844-.484.742-.477c.461-.379.785-.891.934-1.461.086-.348.082-.066.082-3.449V8.969l-.027-.152c-.082-.469-.254-.875-.52-1.23-.082-.105-.277-.328-.332-.375a1.82 1.82 0 0 1-.098-.082c-.168-.145-.27-.215-.711-.469l-1.145-.656-1.336-.766-.574-.332-.551-.316-.68-.391c-.43-.246-.625-.332-.926-.41a2.93 2.93 0 0 0-.973-.074zm.559 1.41a1.7 1.7 0 0 1 .328.109l1.125.641.984.566.777.473c.102.098.109.246.02.348-.047.055-.105.094-.316.215l-.84.484-.742.426-.516.297-.523.293c-.316.156-.707.184-1.051.07a1.07 1.07 0 0 1-.168-.066c-.055-.027-.676-.379-1.117-.637l-.613-.34c-.121-.047-.246-.039-.367.016-.082.039-.57.309-.656.363-.043.027-.094.07-.117.09-.109.109-.117.32-.012.434.074.078.125.109.898.551l.789.453.652.359a2.8 2.8 0 0 0 1.145.242c.316 0 .598-.043.887-.141.277-.09.324-.117 1.477-.781l.746-.426.824-.477 1.242-.695c.063-.02.203-.016.277.012.156.055.414.273.535.457.074.109.137.238.176.355.07.211.066.027.063 3.23v2.934l-.035.117c-.031.121-.125.328-.18.41a2.01 2.01 0 0 1-.262.301c-.121.102-.109.094-1.219.73l-.832.477-.59.34-.422.215c-.102.027-.211-.012-.27-.09-.062-.086-.059-.004-.059-1.824l.02-1.789a1.44 1.44 0 0 1 .543-.855c.035-.027.242-.152.457-.273l1.238-.719c.129-.086.215-.203.262-.348.023-.086.035-.504.016-.742s-.055-.32-.191-.383c-.152-.074-.23-.051-.645.191l-.863.492c-1.129.652-1.148.66-1.426.938-.422.426-.652.871-.785 1.52-.02.09-.02.285-.027 2.426l-.004 2.324-.031.07c-.039.105-.125.184-.273.254a1.41 1.41 0 0 1-1.062.063c-.141-.047-.066-.008-1.398-.773l-1.016-.586-.785-.449-1.301-.746-.719-.437c-.195-.156-.363-.398-.445-.652-.07-.203-.066-.145-.062-1.961l.004-1.672.027-.055c.031-.07.098-.121.184-.137.105-.023.129-.016.766.355l.723.41 1.281.738c.238.137.309.188.422.301a1.39 1.39 0 0 1 .395.75c.012.078.016.301.02 1.059.004 1.055.004 1.031.074 1.16.082.141.145.191.438.363l.484.242c.156.039.332-.062.379-.219.02-.062.023-.152.023-1.352l-.023-1.414a2.82 2.82 0 0 0-.996-1.762c-.152-.125-.262-.195-.879-.547l-1.215-.699-1.418-.812-.547-.336c-.031-.027-.07-.09-.094-.137l-.043-.086v-.18c0-.148.004-.191.031-.289.086-.312.289-.609.535-.781.043-.031.184-.117.313-.191l.555-.32.512-.293 1.641-.941 1.41-.812c.605-.348.656-.371.832-.418l.172-.035c.109-.016.34-.008.457.016zm0 0" fill="rgb(0%,0%,0%)"/>
</svg>