<svg width="13" height="14" viewBox="0 0 13 14" fill="none" xmlns="http://www.w3.org/2000/svg">
<path fill-rule="evenodd" clip-rule="evenodd" d="M6.22295 13.5C9.65979 13.5 12.4459 10.5899 12.4459 7C12.4459 6.32236 12.3466 5.66893 12.1624 5.05473L12.3205 4.97247L12.9191 5.20905L12.9999 4.96048L12.4639 4.75139L12.6573 4.15787L12.4321 4.06857L12.2175 4.73235L12.0817 4.80381C11.2195 2.29466 8.92188 0.5 6.22295 0.5C2.78611 0.5 0 3.41015 0 7C0 8.11927 0.270839 9.17246 0.747795 10.092L0.745361 10.0848L2.71744 8.54748C2.97512 8.34582 3.30763 8.24631 3.6512 8.29657C3.99527 8.34786 4.28638 8.53845 4.47888 8.80524L5.42299 10.1141C5.6518 10.4313 5.99732 10.6579 6.40657 10.7172C7.22365 10.8369 7.98202 10.2458 8.10041 9.39734C8.17065 8.89973 8.00511 8.42524 7.69233 8.09311C7.43056 7.86935 7.10845 7.74531 6.96861 7.69243C6.81733 7.63535 6.56172 7.56939 6.47085 7.54687L6.44347 7.54032C5.60069 7.33862 4.63598 7.10775 4.13733 6.51209C3.63328 5.90997 3.54149 5.32058 3.63918 4.62369C3.83263 3.24098 5.06836 2.27794 6.39985 2.4727C7.06486 2.56969 7.62788 2.93862 8.00129 3.45584L8.78757 4.54579L9.06379 4.92906C9.30536 5.23767 9.63526 5.29151 9.98577 5.16731L10.2899 5.03284C10.3197 5.02003 10.3447 4.99589 10.3573 4.96171C10.3679 4.93408 10.3679 4.90391 10.3601 4.87702L10.3216 4.7476C10.311 4.71091 10.312 4.67045 10.3264 4.63175C10.3505 4.5654 10.4063 4.52191 10.4689 4.51262L11.5448 4.40932C11.7277 4.38395 11.7806 4.49427 11.7806 4.49427L11.9417 4.87749L11.8999 4.89951L11.9644 5.07392C11.95 5.11037 11.9232 5.1523 11.875 5.19544C11.875 5.19544 11.3554 5.71474 11.0993 5.96976C11.0616 6.00726 10.9811 6.01725 10.9232 6.00271C10.8654 5.98817 10.8329 5.93494 10.8021 5.87719C10.7714 5.81945 10.7445 5.77007 10.6897 5.75186C10.6435 5.73651 10.6122 5.75358 10.5867 5.76744C10.582 5.77001 10.5775 5.77247 10.5731 5.77459L10.2369 5.94058C9.54589 6.29944 8.91071 6.07326 8.34577 5.3133L7.35739 3.95696C7.10813 3.60991 6.73009 3.36337 6.2843 3.29752C5.39165 3.16733 4.60999 3.82515 4.41575 4.73936C4.29199 5.32188 4.60891 5.99376 5.01205 6.22161C5.36526 6.42124 5.80748 6.55052 6.53407 6.71768C7.26066 6.88483 8.10767 7.24089 8.53632 7.85329C8.84141 8.32575 8.98384 8.91342 8.89918 9.52202C8.71632 10.8299 7.54796 11.7406 6.28912 11.5567C5.69075 11.4688 5.17969 11.1495 4.82794 10.6988L3.82921 9.29684C3.75798 9.19792 3.64948 9.12795 3.52195 9.10885C3.40214 9.09176 3.28664 9.12193 3.19353 9.18827L1.16035 10.7806L1.16015 10.7804C2.28911 12.427 4.13607 13.5 6.22295 13.5Z" fill="white"/>
</svg>
