<svg width="13" height="14" viewBox="0 0 13 14" fill="none" xmlns="http://www.w3.org/2000/svg">
<mask id="mask0_2044_4472" style="mask-type:luminance" maskUnits="userSpaceOnUse" x="0" y="8" width="13" height="6">
<path d="M12.298 13.5H0V8.04126H12.298V13.5Z" fill="white"/>
</mask>
<g mask="url(#mask0_2044_4472)">
<path fill-rule="evenodd" clip-rule="evenodd" d="M8.1037 9.38759H0.62425C0.279352 9.38759 0 9.08643 0 8.71461C0 8.34279 0.279352 8.04163 0.62425 8.04163H8.1037C8.4486 8.04163 8.72795 8.34279 8.72795 8.71461C8.72795 9.08643 8.4486 9.38759 8.1037 9.38759Z" fill="white"/>
</g>
<mask id="mask1_2044_4472" style="mask-type:luminance" maskUnits="userSpaceOnUse" x="0" y="8" width="13" height="6">
<path d="M12.298 13.5H0V8.04126H12.298V13.5Z" fill="white"/>
</mask>
<g mask="url(#mask1_2044_4472)">
<path fill-rule="evenodd" clip-rule="evenodd" d="M6.49982 13.5101C5.89056 13.5101 5.28878 13.4125 4.71135 13.2195C4.38206 13.1095 4.1979 12.7326 4.29981 12.3776C4.40188 12.0209 4.75239 11.8224 5.0809 11.9335C5.53848 12.0866 6.01572 12.164 6.49982 12.164C8.61806 12.164 10.4573 10.6985 11.0767 8.51639C11.1775 8.16139 11.5261 7.96118 11.8562 8.07054C12.1858 8.17822 12.3712 8.55509 12.2704 8.91008C11.4895 11.6611 9.17036 13.5101 6.49982 13.5101Z" fill="white"/>
</g>
<path fill-rule="evenodd" clip-rule="evenodd" d="M12.3756 5.96846H4.89647C4.55157 5.96846 4.27222 5.6673 4.27222 5.29548C4.27222 4.92366 4.55157 4.6225 4.89647 4.6225H12.3756C12.7205 4.6225 12.9999 4.92366 12.9999 5.29548C12.9999 5.6673 12.7205 5.96846 12.3756 5.96846Z" fill="white"/>
<path fill-rule="evenodd" clip-rule="evenodd" d="M1.32638 5.96865C1.26598 5.96865 1.20465 5.95906 1.14378 5.93904C0.813868 5.83002 0.628466 5.45382 0.729439 5.09849C1.51053 2.34767 3.82962 0.5 6.49985 0.5C7.10958 0.5 7.71136 0.597582 8.28832 0.790728C8.61793 0.900929 8.80177 1.2778 8.69986 1.6328C8.59779 1.9878 8.2479 2.1875 7.91877 2.07629C7.4615 1.92487 6.98395 1.84748 6.49985 1.84748C4.38208 1.84748 2.54257 3.3129 1.92316 5.49504C1.84092 5.78443 1.59387 5.97118 1.32653 5.97118" fill="white"/>
<path fill-rule="evenodd" clip-rule="evenodd" d="M10.8295 2.73097C10.8295 3.10279 10.5502 3.40395 10.2053 3.40395C9.8607 3.40395 9.58103 3.10279 9.58103 2.73097C9.58103 2.35914 9.8607 2.05798 10.2053 2.05798C10.5502 2.05798 10.8295 2.35914 10.8295 2.73097ZM3.41891 11.2802C3.41891 11.652 3.13956 11.9532 2.79466 11.9532C2.45007 11.9532 2.17041 11.652 2.17041 11.2802C2.17041 10.9084 2.45007 10.6072 2.79466 10.6072C3.13956 10.6072 3.41891 10.9084 3.41891 11.2802Z" fill="white"/>
</svg>
