<svg width="36" height="36" viewBox="0 0 36 36" fill="none" xmlns="http://www.w3.org/2000/svg">
<path fill-rule="evenodd" clip-rule="evenodd" d="M18.0001 3C9.7169 3 3 9.83012 3 18.2562C3 24.9969 7.29799 30.7157 13.258 32.733C14.0077 32.8743 14.2829 32.4021 14.2829 31.9991C14.2829 31.6353 14.269 30.4335 14.2625 29.1587C10.0895 30.0816 9.20889 27.3586 9.20889 27.3586C8.52656 25.5952 7.54341 25.1263 7.54341 25.1263C6.18244 24.1794 7.646 24.1988 7.646 24.1988C9.15227 24.3062 9.94538 25.771 9.94538 25.771C11.2832 28.1034 13.4545 27.4291 14.3104 27.0392C14.4451 26.0535 14.8338 25.3799 15.2628 24.9992C11.9311 24.6134 8.42869 23.3052 8.42869 17.4594C8.42869 15.7937 9.01465 14.4327 9.97419 13.3643C9.81846 12.9798 9.30501 11.4283 10.1195 9.32687C10.1195 9.32687 11.3791 8.91685 14.2456 10.8907C15.4422 10.5527 16.7254 10.3831 18.0001 10.3774C19.2749 10.3831 20.5591 10.5527 21.7578 10.8907C24.6209 8.91685 25.8788 9.32687 25.8788 9.32687C26.6952 11.4283 26.1815 12.9798 26.0258 13.3643C26.9876 14.4327 27.5696 15.7937 27.5696 17.4594C27.5696 23.3191 24.0605 24.6094 20.7203 24.9871C21.2584 25.4605 21.7377 26.389 21.7377 27.8124C21.7377 29.8534 21.7203 31.4963 21.7203 31.9991C21.7203 32.4051 21.9903 32.8808 22.7507 32.731C28.7075 30.7114 33 24.9946 33 18.2562C33 9.83012 26.2841 3 18.0001 3Z" fill="#163B36"/>
<path fill-rule="evenodd" clip-rule="evenodd" d="M8.68224 24.9056C8.64921 24.9816 8.53196 25.0041 8.42515 24.952C8.31636 24.9022 8.25525 24.7989 8.29052 24.7229C8.32281 24.6448 8.44031 24.6233 8.54885 24.6751C8.6579 24.7252 8.71999 24.8295 8.68224 24.9056Z" fill="#163B36"/>
<path fill-rule="evenodd" clip-rule="evenodd" d="M9.28161 25.5942C9.21004 25.6616 9.07019 25.6303 8.97531 25.5237C8.87719 25.4173 8.85881 25.2751 8.93134 25.2066C9.00512 25.1391 9.14074 25.1707 9.2391 25.2771C9.33722 25.3847 9.35638 25.5259 9.28161 25.5942Z" fill="#163B36"/>
<path fill-rule="evenodd" clip-rule="evenodd" d="M9.87691 26.4725C9.78499 26.5374 9.63471 26.4765 9.54179 26.3409C9.44993 26.2052 9.44993 26.0425 9.54379 25.9773C9.63697 25.9121 9.78499 25.9707 9.87917 26.1054C9.97077 26.2431 9.97077 26.406 9.87691 26.4725Z" fill="#163B36"/>
<path fill-rule="evenodd" clip-rule="evenodd" d="M10.6909 27.3205C10.6087 27.4127 10.4335 27.3879 10.3054 27.2621C10.1743 27.1391 10.1377 26.9645 10.2202 26.8723C10.3034 26.7798 10.4795 26.8058 10.6087 26.9307C10.7389 27.0534 10.7786 27.2293 10.6909 27.3205Z" fill="#163B36"/>
<path fill-rule="evenodd" clip-rule="evenodd" d="M11.8027 27.8143C11.7665 27.9337 11.5978 27.9881 11.4279 27.9373C11.2583 27.885 11.1472 27.745 11.1815 27.6243C11.2168 27.504 11.3862 27.4474 11.5573 27.5018C11.7267 27.5538 11.838 27.6927 11.8027 27.8143Z" fill="#163B36"/>
<path fill-rule="evenodd" clip-rule="evenodd" d="M13.0406 27.9067C13.0448 28.0325 12.9007 28.1368 12.7224 28.1388C12.543 28.1432 12.3979 28.0413 12.396 27.9175C12.396 27.7905 12.5368 27.6871 12.7162 27.6841C12.8945 27.6805 13.0406 27.7816 13.0406 27.9067Z" fill="#163B36"/>
<path fill-rule="evenodd" clip-rule="evenodd" d="M14.1752 27.7071C14.1965 27.8299 14.0726 27.956 13.8955 27.9893C13.7213 28.0219 13.5602 27.9461 13.5381 27.8243C13.5164 27.6985 13.6426 27.5725 13.8165 27.5398C13.9939 27.5085 14.1526 27.5823 14.1752 27.7071Z" fill="#163B36"/>
</svg>
