<svg width="20" height="20" viewBox="0 0 20 20" fill="none" xmlns="http://www.w3.org/2000/svg">
<path fill-rule="evenodd" clip-rule="evenodd" d="M11.6093 2.42914L10 1L8.39078 2.42914L6.33938 1.77809L5.45056 3.73821L3.31171 3.97782L3.29698 6.13L1.44051 7.21885L2.30241 9.19095L1.04932 10.9408L2.63884 12.3918L2.20578 14.5L4.24807 15.1791L4.70995 17.2812L6.85187 17.0708L8.12881 18.8033L10 17.74L11.8712 18.8033L13.1482 17.0708L15.2901 17.2812L15.752 15.1791L17.7942 14.5L17.3612 12.3918L18.9507 10.9408L17.6976 9.19095L18.5595 7.21885L16.7031 6.13L16.6883 3.97782L14.5495 3.73821L13.6606 1.77809L11.6093 2.42914ZM10 14C12.2092 14 14 12.2091 14 10C14 7.79086 12.2092 6 10 6C7.79087 6 6.00001 7.79086 6.00001 10C6.00001 12.2091 7.79087 14 10 14Z" fill="#D6D6D6"/>
<path fill-rule="evenodd" clip-rule="evenodd" d="M11.6093 2.42914L10 1L8.39078 2.42914L6.33938 1.77809L5.45056 3.73821L3.31171 3.97782L3.29698 6.13L1.44051 7.21885L2.30241 9.19095L1.04932 10.9408L2.63884 12.3918L2.20578 14.5L4.24807 15.1791L4.70995 17.2812L6.85187 17.0708L8.12881 18.8033L10 17.74L11.8712 18.8033L13.1482 17.0708L15.2901 17.2812L15.752 15.1791L17.7942 14.5L17.3612 12.3918L18.9507 10.9408L17.6976 9.19095L18.5595 7.21885L16.7031 6.13L16.6883 3.97782L14.5495 3.73821L13.6606 1.77809L11.6093 2.42914ZM10 14C12.2092 14 14 12.2091 14 10C14 7.79086 12.2092 6 10 6C7.79087 6 6.00001 7.79086 6.00001 10C6.00001 12.2091 7.79087 14 10 14Z" fill="url(#paint0_linear_3841_479)" fill-opacity="0.4"/>
<g opacity="0.9">
<circle cx="10" cy="10" r="5" fill="#D6D6D6"/>
<circle cx="10" cy="10" r="5" fill="url(#paint1_linear_3841_479)" fill-opacity="0.5"/>
</g>
<defs>
<linearGradient id="paint0_linear_3841_479" x1="10" y1="1" x2="10" y2="19" gradientUnits="userSpaceOnUse">
<stop stop-opacity="0"/>
<stop offset="1"/>
</linearGradient>
<linearGradient id="paint1_linear_3841_479" x1="10" y1="15" x2="10" y2="5" gradientUnits="userSpaceOnUse">
<stop stop-color="white" stop-opacity="0"/>
<stop offset="0.495447" stop-color="white" stop-opacity="0.545026"/>
<stop offset="0.495547" stop-color="white" stop-opacity="0.715026"/>
<stop offset="1" stop-color="white"/>
</linearGradient>
</defs>
</svg>
