<svg width="16" height="16" viewBox="0 0 16 16" fill="none" xmlns="http://www.w3.org/2000/svg">
<path d="M6.00025 12H13.3336V10.2167H6.00025V12ZM2.66692 5.78337H4.66692V4.00004H2.66692V5.78337ZM2.66692 8.90004H4.66692V7.1167H2.66692V8.90004ZM2.66692 12H4.66692V10.2167H2.66692V12ZM6.00025 8.90004H13.3336V7.1167H6.00025V8.90004ZM6.00025 5.78337H13.3336V4.00004H6.00025V5.78337ZM2.66692 13.3334C2.30025 13.3334 1.98637 13.2028 1.72525 12.9417C1.46414 12.6806 1.33359 12.3667 1.33359 12V4.00004C1.33359 3.63337 1.46414 3.31948 1.72525 3.05837C1.98637 2.79726 2.30025 2.6667 2.66692 2.6667H13.3336C13.7003 2.6667 14.0141 2.79726 14.2753 3.05837C14.5364 3.31948 14.6669 3.63337 14.6669 4.00004V12C14.6669 12.3667 14.5364 12.6806 14.2753 12.9417C14.0141 13.2028 13.7003 13.3334 13.3336 13.3334H2.66692Z" fill="#030615"/>
</svg>
