<svg width="16" height="16" viewBox="0 0 16 16" fill="none" xmlns="http://www.w3.org/2000/svg">
<g clip-path="url(#clip0_167_6226)">
<path fill-rule="evenodd" clip-rule="evenodd" d="M8 10C9.10457 10 10 9.10456 10 8C10 6.89543 9.10457 6 8 6C6.89543 6 6 6.89543 6 8C6 9.10456 6.89543 10 8 10ZM8 11.2C9.56223 11.2 10.863 10.0805 11.1438 8.6H13.8H14.4V7.4H13.8H11.1438C10.863 5.91948 9.56223 4.8 8 4.8C6.43777 4.8 5.137 5.91948 4.85616 7.4H2.2H1.6V8.6H2.2H4.85616C5.137 10.0805 6.43777 11.2 8 11.2Z" fill="#030615"/>
</g>
<defs>
<clipPath id="clip0_167_6226">
<rect width="12.8" height="12.8" fill="white" transform="translate(1.6 1.6)"/>
</clipPath>
</defs>
</svg>
