<svg width="20" height="20" viewBox="0 0 20 20" fill="none" xmlns="http://www.w3.org/2000/svg">
<path d="M9.61476 10.0016C8.88592 10.2006 8.14668 10.3624 7.42396 10.5856C5.95332 9.26724 4.07436 8.39268 2 8.17036C3.62092 7.0242 7.15904 4.87976 12.232 4.87108L10.9707 6.0242C10.9707 6.0242 16.3156 5.83476 17.6647 4C17.6543 4.17216 17.544 4.39792 17.4892 4.55448C17.1053 5.68076 16.4095 6.58992 15.5434 7.2906C14.6999 7.97484 13.7409 8.46016 12.7698 8.865C11.7777 9.2776 10.7805 9.67724 9.75548 9.96532C9.70768 9.97656 9.66252 9.98952 9.61476 10.0016ZM18 9.82084C18 9.82084 13.0668 9.44544 7.94344 11.089C8.62272 11.7966 9.19604 12.6054 9.63384 13.4921C12.3293 11.999 16.0655 10.0908 18 9.82084ZM9.97176 14.2594C10.2854 15.0595 10.4947 15.9125 10.5816 16.8L15.2767 11.9895L9.97176 14.2594Z" fill="#F99D1C"/>
</svg>
