<?xml version="1.0" encoding="UTF-8"?>
<svg xmlns="http://www.w3.org/2000/svg" xmlns:xlink="http://www.w3.org/1999/xlink" width="24px" height="24px" viewBox="0 0 24 18" version="1.1">
<g id="surface1">
<path style=" stroke:none;fill-rule:evenodd;fill:rgb(20.392157%,1.568628%,1.568628%);fill-opacity:1;" d="M 3.253906 0.222656 C 2.621094 0.34375 2.101562 0.445312 2.097656 0.449219 C 2.097656 0.449219 2.015625 1.515625 1.914062 2.816406 C 1.816406 4.113281 1.730469 5.207031 1.726562 5.246094 L 1.71875 5.3125 L 1.097656 5.957031 C 0.753906 6.3125 0.464844 6.613281 0.457031 6.628906 C 0.449219 6.644531 0.339844 7.265625 0.21875 8.011719 L -0.00390625 9.371094 L 0.703125 10.042969 C 1.09375 10.414062 1.535156 10.832031 1.6875 10.976562 L 1.960938 11.242188 L 1.113281 12.652344 C 0.648438 13.429688 0.265625 14.066406 0.269531 14.066406 C 0.269531 14.070312 0.589844 14 0.980469 13.914062 C 1.371094 13.828125 1.691406 13.757812 1.691406 13.761719 C 1.695312 13.761719 1.527344 14.171875 1.316406 14.671875 C 1.105469 15.175781 0.941406 15.582031 0.949219 15.589844 C 0.957031 15.59375 2.421875 16.058594 4.210938 16.625 L 7.464844 17.652344 L 9.6875 17.808594 C 10.914062 17.898438 11.953125 17.96875 12 17.96875 C 12.046875 17.96875 13.085938 17.898438 14.3125 17.808594 L 16.535156 17.648438 L 19.789062 16.625 C 21.578125 16.058594 23.042969 15.59375 23.050781 15.589844 C 23.054688 15.585938 22.890625 15.171875 22.679688 14.671875 C 22.472656 14.175781 22.304688 13.765625 22.304688 13.761719 C 22.308594 13.757812 22.628906 13.828125 23.011719 13.914062 C 23.398438 14 23.71875 14.066406 23.71875 14.058594 C 23.722656 14.054688 23.34375 13.417969 22.878906 12.644531 L 22.035156 11.242188 L 23.019531 10.304688 L 24 9.367188 L 23.777344 8 L 23.550781 6.632812 L 23.46875 6.546875 C 23.421875 6.5 23.132812 6.203125 22.828125 5.886719 L 22.273438 5.308594 L 22.085938 2.882812 C 21.910156 0.5625 21.898438 0.453125 21.875 0.445312 C 21.828125 0.425781 19.558594 0 19.535156 0.00390625 C 19.523438 0.00390625 19.324219 0.164062 19.089844 0.355469 L 18.671875 0.703125 L 16.671875 1.152344 L 14.667969 1.605469 L 9.332031 1.605469 L 7.371094 1.179688 C 6.292969 0.945312 5.394531 0.742188 5.375 0.734375 C 5.355469 0.722656 5.144531 0.554688 4.910156 0.359375 C 4.554688 0.0664062 4.472656 0 4.441406 0 C 4.421875 0.00390625 3.886719 0.101562 3.253906 0.222656 M 4.675781 0.964844 C 4.882812 1.136719 5.066406 1.28125 5.078125 1.289062 C 5.09375 1.292969 6.046875 1.507812 7.195312 1.765625 L 9.285156 2.230469 L 14.710938 2.230469 L 16.804688 1.765625 C 17.953125 1.507812 18.90625 1.292969 18.921875 1.289062 C 18.933594 1.28125 19.109375 1.144531 19.304688 0.980469 C 19.5 0.816406 19.671875 0.675781 19.683594 0.667969 C 19.699219 0.652344 21.324219 0.949219 21.34375 0.96875 C 21.34375 0.972656 21.425781 2.007812 21.523438 3.273438 C 21.617188 4.539062 21.699219 5.578125 21.699219 5.585938 C 21.699219 5.59375 21.960938 5.867188 22.277344 6.195312 C 22.59375 6.523438 22.851562 6.800781 22.855469 6.808594 C 22.859375 6.816406 22.640625 7.363281 22.367188 8.023438 C 21.816406 9.351562 21.839844 9.296875 21.84375 9.296875 C 21.847656 9.296875 22.121094 9.003906 22.457031 8.648438 C 22.792969 8.292969 23.066406 8 23.070312 8.003906 C 23.070312 8.003906 23.136719 8.28125 23.214844 8.621094 L 23.355469 9.234375 L 22.652344 9.898438 C 22.269531 10.265625 21.878906 10.636719 21.785156 10.722656 L 21.621094 10.878906 L 20.78125 9.894531 C 20.011719 8.988281 19.878906 8.835938 19.898438 8.871094 C 19.902344 8.878906 20.496094 9.867188 21.21875 11.070312 C 21.941406 12.273438 22.53125 13.261719 22.527344 13.265625 C 22.523438 13.265625 22.253906 13.210938 21.925781 13.136719 C 21.601562 13.0625 21.332031 13.007812 21.328125 13.007812 C 21.324219 13.011719 21.539062 13.523438 21.800781 14.144531 C 22.058594 14.765625 22.269531 15.28125 22.265625 15.285156 C 22.257812 15.292969 20.996094 15.691406 17.863281 16.683594 L 16.449219 17.128906 L 14.222656 17.289062 L 12 17.449219 L 7.554688 17.128906 L 5.636719 16.523438 C 2.449219 15.519531 1.726562 15.289062 1.730469 15.273438 C 1.730469 15.269531 1.945312 14.757812 2.203125 14.136719 C 2.464844 13.519531 2.675781 13.011719 2.671875 13.007812 C 2.667969 13.007812 2.398438 13.0625 2.074219 13.136719 C 1.746094 13.210938 1.476562 13.265625 1.472656 13.265625 C 1.472656 13.261719 2.058594 12.28125 2.777344 11.085938 C 3.496094 9.886719 4.085938 8.902344 4.089844 8.894531 C 4.109375 8.855469 3.964844 9.023438 3.230469 9.890625 C 2.785156 10.414062 2.414062 10.851562 2.402344 10.863281 C 2.382812 10.882812 2.457031 10.953125 1.347656 9.898438 L 0.644531 9.234375 L 0.78125 8.644531 C 0.855469 8.320312 0.917969 8.042969 0.925781 8.027344 C 0.933594 8 1.007812 8.074219 1.542969 8.648438 C 1.878906 9.003906 2.152344 9.296875 2.15625 9.296875 C 2.160156 9.296875 2.203125 9.402344 1.636719 8.03125 C 1.363281 7.367188 1.140625 6.816406 1.144531 6.808594 C 1.148438 6.800781 1.40625 6.523438 1.722656 6.195312 L 2.300781 5.597656 L 2.476562 3.285156 C 2.574219 2.015625 2.65625 0.972656 2.65625 0.96875 C 2.660156 0.964844 4.089844 0.6875 4.292969 0.652344 C 4.296875 0.652344 4.46875 0.789062 4.675781 0.964844 M 19.296875 4.230469 C 18.804688 4.871094 18.335938 5.480469 18.253906 5.585938 L 18.101562 5.78125 L 18.125 5.828125 C 18.234375 6.050781 18.441406 6.4375 18.449219 6.4375 C 18.453125 6.4375 18.625 6.269531 18.828125 6.066406 C 19.03125 5.859375 19.195312 5.695312 19.199219 5.695312 C 19.203125 5.699219 19.167969 5.988281 19.121094 6.34375 C 19.074219 6.695312 19.039062 6.988281 19.042969 6.992188 C 19.046875 6.996094 19.308594 7.066406 19.621094 7.144531 C 19.9375 7.222656 20.210938 7.292969 20.238281 7.300781 C 20.296875 7.316406 20.320312 7.304688 19.757812 7.558594 C 19.375 7.730469 19.257812 7.792969 19.261719 7.804688 C 19.265625 7.816406 19.394531 8.039062 19.550781 8.300781 L 19.835938 8.773438 L 20.542969 8.167969 C 20.933594 7.835938 21.261719 7.554688 21.269531 7.546875 C 21.285156 7.53125 21.214844 7.402344 20.820312 6.71875 L 20.355469 5.910156 L 20.277344 4.53125 C 20.234375 3.773438 20.199219 3.132812 20.195312 3.113281 C 20.191406 3.078125 20.097656 3.195312 19.296875 4.230469 M 3.808594 3.199219 C 3.804688 3.257812 3.769531 3.890625 3.726562 4.605469 L 3.65625 5.90625 L 3.191406 6.710938 C 2.9375 7.152344 2.726562 7.519531 2.726562 7.527344 C 2.726562 7.539062 4.144531 8.753906 4.164062 8.753906 C 4.175781 8.753906 4.742188 7.820312 4.742188 7.800781 C 4.742188 7.792969 4.558594 7.703125 4.335938 7.601562 C 4.109375 7.496094 3.878906 7.394531 3.824219 7.367188 C 3.765625 7.339844 3.722656 7.316406 3.726562 7.3125 C 3.730469 7.3125 4.007812 7.238281 4.34375 7.152344 C 4.679688 7.066406 4.957031 6.992188 4.960938 6.988281 C 4.964844 6.988281 4.929688 6.695312 4.882812 6.34375 C 4.835938 5.988281 4.796875 5.699219 4.800781 5.695312 C 4.804688 5.695312 4.96875 5.859375 5.171875 6.066406 C 5.375 6.269531 5.546875 6.4375 5.550781 6.4375 C 5.558594 6.4375 5.636719 6.289062 5.730469 6.109375 L 5.898438 5.785156 L 4.875 4.457031 C 4.3125 3.722656 3.84375 3.117188 3.832031 3.109375 C 3.820312 3.09375 3.816406 3.113281 3.808594 3.199219 M 8.601562 10.179688 L 7.9375 10.523438 L 7.980469 10.640625 C 8.003906 10.703125 8.09375 10.949219 8.179688 11.183594 L 8.335938 11.609375 L 8.792969 11.859375 C 9.042969 11.992188 9.257812 12.109375 9.273438 12.117188 C 9.300781 12.128906 10.59375 11.707031 10.597656 11.683594 C 10.597656 11.679688 10.53125 11.386719 10.449219 11.039062 L 10.300781 10.40625 L 9.820312 10.140625 C 9.558594 9.996094 9.328125 9.867188 9.304688 9.855469 L 9.265625 9.835938 L 8.601562 10.179688 M 14.21875 10.121094 L 13.699219 10.40625 L 13.550781 11.042969 C 13.464844 11.414062 13.40625 11.683594 13.410156 11.691406 C 13.425781 11.703125 14.683594 12.125 14.707031 12.125 C 14.710938 12.125 14.929688 12.007812 15.191406 11.867188 L 15.664062 11.613281 L 15.804688 11.222656 C 15.882812 11.007812 15.976562 10.761719 16.007812 10.675781 L 16.0625 10.523438 L 15.425781 10.195312 C 15.074219 10.011719 14.777344 9.859375 14.761719 9.847656 C 14.738281 9.835938 14.679688 9.863281 14.21875 10.121094 M 9.695312 10.324219 C 9.925781 10.445312 10.117188 10.554688 10.125 10.558594 C 10.136719 10.570312 10.191406 11.414062 10.179688 11.417969 C 10.179688 11.421875 9.992188 11.511719 9.765625 11.625 L 9.351562 11.832031 L 8.933594 11.628906 L 8.519531 11.421875 L 8.511719 11.34375 C 8.496094 11.210938 8.449219 10.554688 8.453125 10.550781 C 8.457031 10.550781 8.507812 10.519531 8.574219 10.488281 C 8.6875 10.425781 8.6875 10.425781 8.6875 10.375 L 8.6875 10.320312 L 8.867188 10.234375 L 9.042969 10.148438 L 9.082031 10.167969 C 9.125 10.1875 9.128906 10.1875 9.203125 10.144531 C 9.242188 10.121094 9.277344 10.101562 9.28125 10.101562 C 9.28125 10.101562 9.46875 10.199219 9.695312 10.324219 M 14.796875 10.144531 C 14.871094 10.1875 14.875 10.1875 14.917969 10.167969 C 14.960938 10.148438 14.960938 10.148438 15.132812 10.234375 L 15.304688 10.320312 L 15.308594 10.375 C 15.3125 10.425781 15.316406 10.425781 15.429688 10.488281 C 15.496094 10.523438 15.550781 10.558594 15.550781 10.5625 C 15.546875 10.714844 15.480469 11.417969 15.46875 11.425781 C 15.457031 11.429688 15.269531 11.527344 15.050781 11.632812 L 14.648438 11.832031 L 13.8125 11.417969 L 13.820312 11.355469 C 13.824219 11.320312 13.832031 11.136719 13.84375 10.945312 C 13.851562 10.757812 13.863281 10.59375 13.867188 10.578125 C 13.871094 10.5625 14.664062 10.113281 14.714844 10.101562 C 14.714844 10.101562 14.753906 10.121094 14.796875 10.144531 M 9.335938 10.480469 L 9.335938 10.660156 L 9.183594 10.734375 L 9.027344 10.808594 L 8.792969 10.699219 L 8.800781 10.746094 C 8.804688 10.773438 8.8125 10.878906 8.820312 10.984375 C 8.828125 11.089844 8.839844 11.175781 8.84375 11.179688 C 8.851562 11.179688 8.972656 11.242188 9.121094 11.316406 L 9.382812 11.445312 L 9.660156 11.3125 L 9.933594 11.175781 L 9.925781 10.996094 C 9.921875 10.898438 9.914062 10.769531 9.910156 10.710938 L 9.902344 10.605469 L 9.6875 10.492188 C 9.570312 10.429688 9.445312 10.363281 9.40625 10.339844 L 9.335938 10.304688 L 9.335938 10.480469 M 14.378906 10.457031 L 14.097656 10.605469 L 14.089844 10.710938 C 14.085938 10.769531 14.078125 10.898438 14.074219 10.996094 L 14.066406 11.175781 L 14.339844 11.3125 L 14.617188 11.449219 L 14.882812 11.316406 C 15.027344 11.242188 15.148438 11.179688 15.15625 11.179688 C 15.160156 11.175781 15.171875 11.09375 15.179688 10.992188 C 15.1875 10.890625 15.195312 10.78125 15.199219 10.753906 L 15.203125 10.699219 L 15.089844 10.753906 L 14.972656 10.808594 L 14.816406 10.734375 L 14.664062 10.660156 L 14.65625 10.308594 L 14.378906 10.457031 M 10.730469 13.253906 C 10.652344 13.394531 10.648438 13.40625 10.671875 13.425781 C 10.683594 13.4375 10.941406 13.648438 11.238281 13.894531 L 11.78125 14.34375 L 11.789062 14.429688 C 11.792969 14.472656 11.796875 14.617188 11.800781 14.742188 L 11.800781 14.972656 L 11.707031 15.054688 L 11.617188 15.132812 L 10.917969 15.125 L 10.21875 15.113281 L 10.035156 14.988281 C 9.808594 14.832031 9.824219 14.835938 9.726562 14.921875 L 9.644531 14.996094 L 9.925781 15.574219 L 10.085938 15.496094 L 10.246094 15.421875 L 12.03125 15.421875 L 13.070312 15.308594 L 14.113281 15.195312 L 14.269531 15.273438 C 14.355469 15.3125 14.429688 15.347656 14.429688 15.34375 C 14.433594 15.34375 14.496094 15.210938 14.574219 15.054688 L 14.710938 14.769531 L 14.644531 14.710938 C 14.523438 14.605469 14.550781 14.601562 14.347656 14.742188 C 14.25 14.8125 14.160156 14.875 14.148438 14.878906 C 14.136719 14.886719 13.734375 14.945312 13.253906 15.007812 L 12.378906 15.125 L 12.289062 15.050781 L 12.199219 14.972656 L 12.199219 14.742188 C 12.203125 14.617188 12.207031 14.472656 12.210938 14.429688 L 12.21875 14.34375 L 12.785156 13.875 L 13.347656 13.40625 L 13.269531 13.257812 C 13.195312 13.113281 13.191406 13.105469 13.15625 13.113281 C 13.136719 13.117188 12.867188 13.160156 12.558594 13.210938 L 11.996094 13.304688 L 11.4375 13.210938 C 11.132812 13.160156 10.863281 13.117188 10.84375 13.113281 C 10.8125 13.105469 10.804688 13.113281 10.730469 13.253906 "/>
<path style=" stroke:none;fill-rule:evenodd;fill:rgb(97.647059%,87.058824%,76.078433%);fill-opacity:1;" d="M 3.457031 0.816406 C 3.023438 0.902344 2.667969 0.972656 2.664062 0.976562 C 2.660156 0.976562 2.578125 2.019531 2.480469 3.289062 C 2.304688 5.589844 2.304688 5.59375 2.273438 5.628906 C 2.257812 5.644531 1.996094 5.917969 1.691406 6.234375 L 1.140625 6.8125 L 1.65625 8.0625 C 1.941406 8.75 2.171875 9.316406 2.167969 9.316406 C 2.167969 9.316406 1.886719 9.023438 1.550781 8.664062 C 1.203125 8.292969 0.933594 8.011719 0.929688 8.023438 C 0.925781 8.035156 0.863281 8.308594 0.789062 8.632812 L 0.652344 9.226562 L 1.515625 10.050781 C 1.988281 10.503906 2.382812 10.871094 2.386719 10.867188 C 2.40625 10.855469 4.15625 8.792969 4.15625 8.78125 C 4.15625 8.773438 3.839844 8.496094 3.453125 8.164062 C 3.066406 7.832031 2.742188 7.554688 2.730469 7.546875 C 2.714844 7.53125 2.792969 7.390625 3.179688 6.722656 L 3.644531 5.914062 L 3.722656 4.554688 C 3.765625 3.804688 3.800781 3.164062 3.804688 3.128906 L 3.808594 3.066406 L 4.867188 4.441406 C 5.449219 5.199219 5.929688 5.820312 5.9375 5.820312 C 5.941406 5.820312 6.246094 5.621094 6.613281 5.382812 L 7.277344 4.945312 L 7.378906 4.113281 C 7.429688 3.660156 7.472656 3.285156 7.46875 3.28125 C 7.464844 3.28125 6.753906 2.6875 5.882812 1.96875 C 4.734375 1.019531 4.296875 0.664062 4.273438 0.664062 C 4.257812 0.664062 3.890625 0.734375 3.457031 0.816406 M 18.140625 1.949219 C 17.285156 2.65625 16.574219 3.25 16.558594 3.261719 L 16.523438 3.285156 L 16.625 4.109375 C 16.699219 4.742188 16.726562 4.9375 16.742188 4.949219 C 16.910156 5.089844 18.0625 5.816406 18.082031 5.796875 C 18.09375 5.785156 18.570312 5.164062 19.148438 4.421875 C 20.125 3.152344 20.191406 3.066406 20.199219 3.101562 C 20.207031 3.121094 20.246094 3.761719 20.285156 4.519531 L 20.359375 5.902344 L 20.828125 6.71875 C 21.28125 7.503906 21.296875 7.53125 21.273438 7.550781 C 21.257812 7.5625 20.929688 7.84375 20.542969 8.175781 L 19.839844 8.777344 L 19.867188 8.8125 C 19.941406 8.910156 21.609375 10.855469 21.621094 10.859375 C 21.628906 10.859375 22.019531 10.496094 22.492188 10.042969 L 23.347656 9.226562 L 23.210938 8.632812 C 23.136719 8.308594 23.070312 8.035156 23.070312 8.023438 C 23.066406 8.011719 22.796875 8.292969 22.449219 8.664062 C 22.113281 9.023438 21.832031 9.316406 21.832031 9.316406 C 21.828125 9.316406 22.058594 8.75 22.34375 8.0625 L 22.863281 6.808594 L 22.804688 6.75 C 22.757812 6.707031 21.886719 5.796875 21.726562 5.628906 C 21.695312 5.59375 21.695312 5.589844 21.515625 3.285156 C 21.421875 2.019531 21.335938 0.976562 21.335938 0.972656 C 21.328125 0.964844 19.734375 0.664062 19.707031 0.664062 C 19.699219 0.664062 18.992188 1.242188 18.140625 1.949219 M 9.558594 6.261719 C 9.527344 6.527344 9.390625 8.433594 9.398438 8.445312 C 9.410156 8.457031 10.929688 9.042969 10.933594 9.039062 C 10.9375 9.035156 10.953125 8.949219 11.171875 7.691406 C 11.269531 7.128906 11.347656 6.667969 11.347656 6.667969 C 11.34375 6.664062 10.949219 6.558594 10.46875 6.429688 C 9.988281 6.304688 9.589844 6.195312 9.582031 6.191406 C 9.570312 6.191406 9.5625 6.214844 9.558594 6.261719 M 13.53125 6.886719 C 13.050781 7.015625 12.65625 7.121094 12.652344 7.125 C 12.652344 7.125 12.960938 8.929688 13.035156 9.335938 L 13.066406 9.496094 L 13.832031 9.203125 C 14.253906 9.039062 14.601562 8.902344 14.605469 8.898438 C 14.613281 8.890625 14.464844 6.890625 14.441406 6.714844 C 14.433594 6.632812 14.554688 6.609375 13.53125 6.886719 M 8.609375 7.117188 C 8.359375 7.308594 8.136719 7.476562 8.121094 7.492188 L 8.085938 7.515625 L 8.144531 7.980469 C 8.171875 8.238281 8.203125 8.449219 8.207031 8.453125 C 8.214844 8.460938 8.929688 8.609375 8.9375 8.601562 C 8.941406 8.597656 9.074219 6.773438 9.070312 6.769531 C 9.066406 6.765625 8.859375 6.921875 8.609375 7.117188 M 14.925781 6.992188 C 14.925781 7.035156 15.058594 8.828125 15.0625 8.832031 C 15.070312 8.835938 15.785156 8.691406 15.792969 8.683594 C 15.796875 8.679688 15.824219 8.472656 15.855469 8.226562 C 15.882812 7.976562 15.910156 7.769531 15.914062 7.761719 C 15.917969 7.753906 15.726562 7.601562 15.492188 7.421875 C 15.257812 7.242188 15.035156 7.074219 14.996094 7.042969 C 14.957031 7.015625 14.925781 6.992188 14.925781 6.992188 M 8.472656 9.636719 L 7.578125 10.015625 L 7.753906 10.261719 C 7.851562 10.402344 7.9375 10.511719 7.941406 10.511719 C 7.949219 10.507812 8.78125 10.082031 9.207031 9.859375 L 9.269531 9.828125 L 9.78125 10.113281 C 10.101562 10.289062 10.296875 10.40625 10.304688 10.421875 C 10.3125 10.4375 10.378906 10.71875 10.457031 11.046875 C 10.535156 11.378906 10.601562 11.65625 10.605469 11.667969 C 10.609375 11.6875 10.640625 11.671875 10.785156 11.585938 C 11.144531 11.375 11.1875 11.335938 10.183594 12.117188 L 9.351562 12.761719 L 8.097656 12.761719 L 7.667969 13.386719 C 7.429688 13.730469 7.238281 14.019531 7.238281 14.03125 C 7.238281 14.039062 7.527344 14.351562 7.882812 14.722656 C 9.796875 16.746094 10.070312 17.035156 10.097656 17.042969 C 10.113281 17.050781 10.546875 17.140625 11.0625 17.25 L 12 17.445312 L 12.941406 17.25 C 13.460938 17.140625 13.902344 17.046875 13.917969 17.039062 C 13.933594 17.027344 14.378906 16.566406 14.902344 16.007812 C 15.429688 15.453125 16.0625 14.78125 16.3125 14.519531 C 16.558594 14.257812 16.761719 14.039062 16.765625 14.035156 C 16.769531 14.027344 16.574219 13.738281 16.335938 13.390625 L 15.90625 12.761719 L 14.648438 12.761719 L 13.792969 12.097656 C 13.324219 11.734375 12.941406 11.433594 12.941406 11.429688 C 12.941406 11.429688 13.039062 11.484375 13.164062 11.558594 C 13.347656 11.667969 13.386719 11.683594 13.394531 11.667969 C 13.398438 11.65625 13.46875 11.371094 13.546875 11.03125 C 13.628906 10.691406 13.699219 10.410156 13.703125 10.402344 C 13.714844 10.394531 14.699219 9.847656 14.722656 9.835938 C 14.730469 9.832031 15.003906 9.96875 15.332031 10.136719 C 15.660156 10.308594 15.957031 10.460938 15.996094 10.480469 L 16.066406 10.515625 L 16.242188 10.265625 C 16.375 10.082031 16.417969 10.015625 16.402344 10.007812 C 16.394531 10 15.988281 9.832031 15.503906 9.628906 L 14.625 9.261719 L 13.933594 9.601562 L 13.238281 9.941406 L 13.074219 10.671875 C 12.984375 11.074219 12.910156 11.40625 12.910156 11.40625 C 12.90625 11.40625 12.703125 11.402344 12.453125 11.394531 C 12.148438 11.386719 11.859375 11.386719 11.554688 11.394531 C 11.308594 11.402344 11.101562 11.402344 11.097656 11.398438 C 11.089844 11.394531 11.011719 11.066406 10.921875 10.664062 L 10.761719 9.941406 L 10.078125 9.605469 C 9.703125 9.421875 9.390625 9.265625 9.382812 9.265625 C 9.375 9.261719 8.96875 9.429688 8.472656 9.636719 M 5.34375 11.101562 L 3.644531 12.855469 L 3.71875 12.859375 C 3.761719 12.863281 3.953125 12.867188 4.148438 12.871094 L 4.503906 12.882812 L 4.046875 13.378906 C 3.796875 13.652344 3.589844 13.882812 3.589844 13.894531 C 3.589844 13.90625 3.773438 14.410156 3.996094 15.019531 L 4.40625 16.128906 L 5.972656 16.621094 C 6.835938 16.894531 7.542969 17.113281 7.546875 17.113281 C 7.550781 17.109375 7.117188 16.441406 6.589844 15.625 C 5.769531 14.367188 5.628906 14.140625 5.636719 14.113281 C 5.644531 14.074219 7.042969 9.390625 7.054688 9.363281 C 7.066406 9.332031 7.007812 9.386719 5.34375 11.101562 M 16.945312 9.359375 C 16.964844 9.414062 18.371094 14.128906 18.371094 14.140625 C 18.371094 14.144531 17.9375 14.816406 17.410156 15.628906 C 16.878906 16.441406 16.449219 17.109375 16.453125 17.109375 C 16.457031 17.113281 17.164062 16.894531 18.027344 16.621094 L 19.59375 16.128906 L 20.003906 15.019531 C 20.226562 14.410156 20.410156 13.90625 20.410156 13.894531 C 20.410156 13.882812 20.203125 13.652344 19.953125 13.378906 L 19.496094 12.882812 L 19.851562 12.871094 C 20.046875 12.867188 20.238281 12.863281 20.28125 12.859375 L 20.359375 12.855469 L 18.714844 11.164062 C 17 9.398438 16.933594 9.328125 16.945312 9.359375 M 8.863281 10.242188 L 8.6875 10.332031 L 8.695312 10.382812 C 8.699219 10.414062 8.703125 10.484375 8.710938 10.546875 L 8.71875 10.65625 L 8.871094 10.730469 L 9.027344 10.800781 L 9.339844 10.652344 L 9.332031 10.488281 C 9.324219 10.398438 9.320312 10.320312 9.316406 10.316406 C 9.3125 10.308594 9.082031 10.171875 9.046875 10.15625 C 9.042969 10.15625 8.960938 10.191406 8.863281 10.242188 M 14.820312 10.226562 C 14.753906 10.269531 14.691406 10.304688 14.6875 10.304688 C 14.683594 10.308594 14.675781 10.386719 14.667969 10.480469 L 14.660156 10.652344 L 14.972656 10.800781 L 15.128906 10.730469 L 15.28125 10.65625 L 15.289062 10.546875 C 15.296875 10.484375 15.300781 10.414062 15.304688 10.386719 L 15.3125 10.332031 L 15.132812 10.242188 C 15.035156 10.191406 14.953125 10.152344 14.949219 10.152344 C 14.949219 10.152344 14.890625 10.1875 14.820312 10.226562 M 11.425781 13.199219 L 12 13.296875 L 12.578125 13.199219 C 12.894531 13.148438 13.164062 13.105469 13.175781 13.105469 C 13.203125 13.105469 13.355469 13.390625 13.34375 13.410156 C 13.339844 13.417969 13.082031 13.632812 12.773438 13.890625 L 12.214844 14.355469 L 12.210938 14.65625 L 12.203125 14.957031 L 12.285156 15.039062 L 12.371094 15.121094 L 14.136719 14.886719 L 14.335938 14.746094 L 14.53125 14.609375 L 14.625 14.6875 C 14.734375 14.777344 14.742188 14.722656 14.574219 15.066406 L 14.433594 15.355469 L 14.269531 15.28125 L 14.109375 15.203125 L 13.023438 15.320312 L 11.941406 15.4375 L 10.230469 15.4375 L 10.082031 15.503906 C 10 15.542969 9.925781 15.574219 9.921875 15.570312 C 9.917969 15.566406 9.851562 15.4375 9.773438 15.28125 L 9.636719 15 L 9.671875 14.96875 C 9.6875 14.949219 9.730469 14.914062 9.765625 14.886719 L 9.824219 14.835938 L 10.230469 15.117188 L 11.636719 15.117188 L 11.796875 14.957031 L 11.789062 14.65625 L 11.785156 14.355469 L 11.226562 13.890625 C 10.917969 13.632812 10.660156 13.417969 10.65625 13.410156 C 10.640625 13.386719 10.796875 13.105469 10.824219 13.105469 C 10.839844 13.105469 11.109375 13.148438 11.425781 13.199219 "/>
<path style=" stroke:none;fill-rule:evenodd;fill:rgb(80.000001%,23.529412%,1.568628%);fill-opacity:1;" d="M 9.164062 2.296875 C 9.105469 2.335938 8.820312 2.5 8.535156 2.667969 C 7.429688 3.316406 7.484375 3.28125 7.476562 3.328125 C 7.472656 3.351562 7.429688 3.722656 7.378906 4.15625 C 7.296875 4.828125 7.28125 4.949219 7.261719 4.964844 C 7.25 4.972656 6.945312 5.171875 6.582031 5.410156 L 5.929688 5.839844 L 4.289062 10.246094 C 3.386719 12.667969 2.644531 14.667969 2.640625 14.683594 C 2.636719 14.710938 2.71875 14.785156 3.503906 15.410156 C 3.976562 15.792969 4.367188 16.109375 4.363281 16.113281 C 4.359375 16.117188 4.367188 16.117188 4.375 16.117188 C 4.390625 16.117188 4.390625 16.113281 4.382812 16.085938 C 4.265625 15.792969 3.578125 13.890625 3.585938 13.878906 C 3.589844 13.871094 3.796875 13.644531 4.042969 13.375 C 4.289062 13.109375 4.488281 12.886719 4.488281 12.886719 C 4.484375 12.886719 4.296875 12.878906 4.070312 12.875 C 3.84375 12.871094 3.652344 12.867188 3.648438 12.859375 C 3.644531 12.855469 4.40625 12.0625 5.347656 11.09375 C 6.285156 10.128906 7.058594 9.339844 7.0625 9.347656 C 7.066406 9.351562 7.222656 9.949219 7.402344 10.679688 L 7.730469 12.003906 L 8.527344 12.371094 L 9.320312 12.742188 L 8.710938 12.746094 C 8.375 12.746094 8.097656 12.753906 8.089844 12.757812 C 8.085938 12.761719 8.367188 12.765625 8.714844 12.761719 L 9.351562 12.753906 L 10.148438 12.136719 C 10.585938 11.792969 10.960938 11.503906 10.980469 11.488281 C 11.007812 11.464844 10.679688 11.648438 10.640625 11.679688 C 10.625 11.691406 9.324219 12.125 9.296875 12.128906 C 9.28125 12.128906 8.371094 11.640625 8.339844 11.617188 C 8.335938 11.613281 8.242188 11.367188 8.132812 11.070312 C 8.023438 10.773438 7.929688 10.527344 7.925781 10.515625 C 7.921875 10.507812 7.839844 10.390625 7.746094 10.261719 C 7.652344 10.128906 7.578125 10.015625 7.585938 10.007812 C 7.589844 10.003906 7.996094 9.832031 8.484375 9.628906 L 9.375 9.253906 L 10.070312 9.597656 L 10.765625 9.9375 L 10.777344 9.996094 C 10.785156 10.027344 10.859375 10.355469 10.941406 10.71875 C 11.023438 11.085938 11.09375 11.382812 11.09375 11.382812 C 11.097656 11.378906 11.171875 11.050781 11.257812 10.644531 C 11.347656 10.242188 11.421875 9.902344 11.425781 9.886719 L 11.433594 9.855469 L 12.570312 9.855469 L 12.574219 9.886719 C 12.578125 9.902344 12.65625 10.242188 12.742188 10.644531 C 12.828125 11.046875 12.902344 11.378906 12.90625 11.382812 C 12.90625 11.382812 13.191406 10.148438 13.230469 9.964844 C 13.234375 9.941406 13.382812 9.863281 13.929688 9.597656 L 14.625 9.257812 L 15.515625 9.628906 C 16.003906 9.832031 16.410156 10.003906 16.414062 10.007812 C 16.417969 10.015625 16.34375 10.132812 16.246094 10.273438 L 16.066406 10.527344 L 15.867188 11.066406 C 15.757812 11.363281 15.664062 11.609375 15.660156 11.617188 C 15.636719 11.632812 14.722656 12.128906 14.707031 12.128906 C 14.699219 12.128906 14.402344 12.03125 14.042969 11.914062 L 13.398438 11.699219 L 13.191406 11.578125 C 13.078125 11.511719 12.996094 11.46875 13.007812 11.480469 C 13.03125 11.5 14.609375 12.726562 14.636719 12.742188 C 14.660156 12.757812 15.925781 12.773438 15.910156 12.757812 C 15.902344 12.753906 15.625 12.746094 15.289062 12.746094 L 14.675781 12.742188 L 15.472656 12.371094 C 15.90625 12.167969 16.265625 11.996094 16.269531 11.992188 C 16.273438 11.984375 16.421875 11.382812 16.601562 10.65625 C 16.785156 9.929688 16.9375 9.335938 16.941406 9.339844 C 16.964844 9.347656 20.359375 12.851562 20.351562 12.859375 C 20.347656 12.867188 20.15625 12.871094 19.929688 12.875 C 19.703125 12.878906 19.515625 12.886719 19.511719 12.886719 C 19.511719 12.886719 19.714844 13.113281 19.964844 13.386719 C 20.21875 13.660156 20.421875 13.886719 20.421875 13.886719 C 20.421875 13.898438 19.625 16.070312 19.609375 16.101562 C 19.59375 16.132812 19.59375 16.136719 19.609375 16.125 C 19.617188 16.117188 19.628906 16.113281 19.636719 16.121094 C 19.640625 16.125 19.644531 16.125 19.640625 16.117188 C 19.636719 16.109375 20.023438 15.792969 20.496094 15.410156 C 21.277344 14.785156 21.363281 14.710938 21.359375 14.683594 C 21.351562 14.65625 18.070312 5.832031 18.0625 5.828125 C 17.984375 5.777344 16.761719 4.972656 16.746094 4.957031 C 16.71875 4.9375 16.710938 4.875 16.625 4.152344 C 16.570312 3.722656 16.527344 3.347656 16.519531 3.324219 C 16.507812 3.28125 16.515625 3.285156 16.113281 3.050781 C 16.0625 3.019531 15.957031 2.957031 15.878906 2.914062 C 15.804688 2.867188 15.511719 2.695312 15.230469 2.53125 L 14.714844 2.230469 L 14.378906 2.230469 L 13.1875 3.371094 L 12 4.515625 L 10.8125 3.371094 L 9.621094 2.230469 L 9.277344 2.230469 L 9.164062 2.296875 M 10.460938 6.425781 C 10.945312 6.554688 11.34375 6.664062 11.347656 6.667969 C 11.355469 6.671875 10.964844 8.960938 10.945312 9.03125 C 10.9375 9.046875 9.453125 8.496094 9.382812 8.449219 C 9.378906 8.449219 9.417969 7.953125 9.464844 7.347656 C 9.511719 6.742188 9.550781 6.234375 9.550781 6.21875 C 9.550781 6.179688 9.492188 6.164062 10.460938 6.425781 M 14.535156 7.773438 C 14.582031 8.390625 14.617188 8.898438 14.613281 8.902344 C 14.59375 8.921875 13.070312 9.503906 13.0625 9.496094 C 13.054688 9.484375 12.648438 7.15625 12.652344 7.132812 C 12.65625 7.113281 14.421875 6.632812 14.4375 6.648438 C 14.445312 6.652344 14.488281 7.160156 14.535156 7.773438 M 9.078125 6.816406 C 9.070312 6.890625 8.953125 8.550781 8.953125 8.582031 C 8.953125 8.597656 8.945312 8.609375 8.933594 8.609375 C 8.894531 8.609375 8.207031 8.46875 8.199219 8.460938 C 8.171875 8.429688 8.082031 7.519531 8.101562 7.5 C 8.148438 7.457031 9.0625 6.761719 9.074219 6.761719 C 9.078125 6.761719 9.082031 6.785156 9.078125 6.816406 M 15.425781 7.367188 C 15.691406 7.566406 15.910156 7.738281 15.914062 7.742188 C 15.921875 7.753906 15.8125 8.675781 15.800781 8.6875 C 15.792969 8.699219 15.0625 8.84375 15.054688 8.835938 C 15.050781 8.835938 15.023438 8.4375 14.988281 7.953125 C 14.953125 7.46875 14.925781 7.054688 14.921875 7.027344 C 14.917969 6.992188 14.921875 6.980469 14.933594 6.988281 C 14.941406 6.996094 15.164062 7.164062 15.425781 7.367188 "/>
<path style=" stroke:none;fill-rule:evenodd;fill:rgb(48.627451%,1.568628%,1.568628%);fill-opacity:1;" d="M 5.09375 1.308594 C 5.109375 1.324219 5.246094 1.4375 5.402344 1.566406 C 5.871094 1.953125 7.421875 3.238281 7.453125 3.265625 L 7.480469 3.289062 L 7.75 3.128906 C 7.898438 3.042969 8.253906 2.832031 8.542969 2.664062 C 9.277344 2.234375 9.28125 2.230469 9.257812 2.222656 C 9.246094 2.21875 8.320312 2.011719 7.199219 1.765625 C 6.078125 1.515625 5.136719 1.304688 5.113281 1.296875 C 5.070312 1.289062 5.066406 1.289062 5.09375 1.308594 M 16.832031 1.753906 C 15.683594 2.011719 14.742188 2.226562 14.738281 2.230469 C 14.730469 2.234375 15.277344 2.5625 15.867188 2.90625 C 15.921875 2.9375 16.03125 3.003906 16.113281 3.050781 C 16.515625 3.289062 16.515625 3.289062 16.539062 3.269531 C 16.554688 3.257812 16.808594 3.046875 17.113281 2.796875 C 17.414062 2.546875 17.757812 2.261719 17.875 2.164062 C 17.992188 2.070312 18.269531 1.839844 18.488281 1.65625 C 18.902344 1.316406 18.9375 1.285156 18.925781 1.289062 C 18.921875 1.289062 17.980469 1.5 16.832031 1.753906 M 4.980469 5.878906 C 5.003906 5.902344 5.027344 5.921875 5.03125 5.921875 C 5.035156 5.921875 5.019531 5.902344 4.992188 5.878906 C 4.96875 5.851562 4.945312 5.832031 4.941406 5.832031 C 4.9375 5.832031 4.957031 5.851562 4.980469 5.878906 M 19.007812 5.878906 L 18.960938 5.929688 L 19.011719 5.882812 C 19.039062 5.859375 19.058594 5.839844 19.058594 5.835938 C 19.058594 5.828125 19.046875 5.835938 19.007812 5.878906 M 5.21875 6.121094 C 5.242188 6.144531 5.265625 6.164062 5.269531 6.164062 C 5.273438 6.164062 5.257812 6.144531 5.230469 6.121094 C 5.207031 6.09375 5.183594 6.074219 5.179688 6.074219 C 5.175781 6.074219 5.195312 6.09375 5.21875 6.121094 M 18.765625 6.121094 L 18.722656 6.171875 L 18.773438 6.125 C 18.800781 6.101562 18.820312 6.082031 18.820312 6.078125 C 18.820312 6.070312 18.808594 6.078125 18.765625 6.121094 M 18.542969 6.351562 L 18.496094 6.398438 L 18.546875 6.355469 C 18.574219 6.332031 18.597656 6.308594 18.597656 6.308594 C 18.597656 6.296875 18.585938 6.308594 18.542969 6.351562 M 5.417969 6.320312 C 5.417969 6.324219 5.4375 6.339844 5.460938 6.363281 L 5.503906 6.398438 L 5.464844 6.359375 C 5.429688 6.320312 5.417969 6.3125 5.417969 6.320312 M 16.601562 10.65625 C 16.421875 11.382812 16.273438 11.984375 16.269531 11.992188 C 16.265625 11.996094 15.90625 12.167969 15.472656 12.371094 L 14.675781 12.742188 L 15.292969 12.75 L 15.90625 12.753906 L 16.3125 13.347656 C 16.535156 13.671875 16.734375 13.960938 16.75 13.984375 L 16.78125 14.03125 L 15.410156 15.480469 C 14.652344 16.28125 14.011719 16.960938 13.976562 16.992188 L 13.921875 17.050781 L 12.988281 17.246094 C 12.476562 17.355469 12.054688 17.441406 12.058594 17.441406 C 12.070312 17.457031 16.417969 17.128906 16.429688 17.113281 C 16.476562 17.066406 18.363281 14.152344 18.363281 14.128906 C 18.359375 14.117188 18.042969 13.046875 17.65625 11.753906 C 17.269531 10.460938 16.949219 9.390625 16.941406 9.367188 C 16.933594 9.339844 16.855469 9.640625 16.601562 10.65625 M 7.054688 9.375 C 7.050781 9.390625 6.726562 10.472656 6.339844 11.773438 L 5.628906 14.144531 L 5.71875 14.277344 C 5.765625 14.351562 6.199219 15.015625 6.679688 15.753906 C 7.160156 16.492188 7.558594 17.105469 7.570312 17.113281 C 7.582031 17.128906 11.929688 17.457031 11.941406 17.445312 C 11.945312 17.441406 11.5625 17.363281 11.09375 17.265625 C 10.628906 17.167969 10.207031 17.078125 10.160156 17.070312 L 10.078125 17.050781 L 9.214844 16.136719 C 8.738281 15.636719 8.09375 14.957031 7.785156 14.628906 L 7.21875 14.03125 L 7.289062 13.929688 C 7.328125 13.871094 7.527344 13.582031 7.726562 13.289062 L 8.09375 12.753906 L 8.707031 12.75 L 9.320312 12.742188 L 8.527344 12.371094 L 7.730469 12.003906 L 7.402344 10.679688 C 7.054688 9.285156 7.066406 9.332031 7.054688 9.375 M 0.945312 9.527344 C 0.984375 9.5625 1.015625 9.589844 1.019531 9.589844 C 1.023438 9.589844 0.996094 9.5625 0.960938 9.527344 C 0.925781 9.492188 0.890625 9.460938 0.886719 9.460938 C 0.882812 9.460938 0.910156 9.492188 0.945312 9.527344 M 23.039062 9.53125 L 22.972656 9.597656 L 23.042969 9.53125 C 23.082031 9.5 23.113281 9.46875 23.113281 9.464844 C 23.113281 9.457031 23.101562 9.46875 23.039062 9.53125 M 9.199219 10.144531 L 9.121094 10.191406 L 9.222656 10.25 C 9.320312 10.300781 9.324219 10.308594 9.328125 10.351562 L 9.328125 10.398438 L 9.34375 10.304688 L 9.621094 10.457031 L 9.902344 10.605469 L 9.910156 10.710938 C 9.914062 10.769531 9.921875 10.898438 9.925781 10.996094 L 9.933594 11.175781 L 9.660156 11.3125 L 9.382812 11.445312 L 9.121094 11.316406 C 8.972656 11.242188 8.851562 11.179688 8.84375 11.179688 C 8.839844 11.175781 8.828125 11.070312 8.816406 10.941406 C 8.800781 10.738281 8.796875 10.703125 8.773438 10.691406 C 8.710938 10.65625 8.703125 10.636719 8.703125 10.546875 C 8.703125 10.414062 8.671875 10.414062 8.453125 10.550781 C 8.449219 10.554688 8.496094 11.210938 8.511719 11.34375 L 8.519531 11.421875 L 8.933594 11.628906 L 9.351562 11.832031 L 9.765625 11.625 C 9.992188 11.511719 10.179688 11.421875 10.179688 11.417969 C 10.191406 11.414062 10.136719 10.570312 10.125 10.558594 C 10.113281 10.546875 9.285156 10.097656 9.28125 10.101562 C 9.277344 10.101562 9.242188 10.121094 9.199219 10.144531 M 14.292969 10.328125 C 14.050781 10.460938 13.871094 10.566406 13.867188 10.578125 C 13.863281 10.59375 13.851562 10.757812 13.84375 10.945312 C 13.832031 11.136719 13.824219 11.320312 13.820312 11.355469 L 13.8125 11.417969 L 14.648438 11.832031 L 15.066406 11.625 L 15.480469 11.421875 L 15.488281 11.34375 C 15.503906 11.1875 15.550781 10.554688 15.546875 10.550781 C 15.519531 10.527344 15.320312 10.429688 15.3125 10.4375 C 15.308594 10.441406 15.300781 10.492188 15.300781 10.546875 C 15.296875 10.648438 15.292969 10.648438 15.25 10.675781 C 15.199219 10.703125 15.199219 10.703125 15.179688 10.976562 C 15.171875 11.085938 15.160156 11.175781 15.15625 11.179688 C 15.148438 11.179688 15.027344 11.242188 14.882812 11.316406 L 14.617188 11.449219 L 14.339844 11.3125 L 14.066406 11.175781 L 14.074219 10.996094 C 14.078125 10.898438 14.085938 10.769531 14.089844 10.710938 L 14.097656 10.605469 L 14.378906 10.457031 L 14.65625 10.304688 L 14.671875 10.398438 L 14.671875 10.351562 C 14.675781 10.308594 14.679688 10.300781 14.777344 10.25 C 14.847656 10.207031 14.871094 10.1875 14.859375 10.179688 C 14.835938 10.164062 14.71875 10.097656 14.714844 10.101562 C 14.710938 10.101562 14.519531 10.203125 14.292969 10.328125 M 1.992188 10.519531 C 2.027344 10.554688 2.0625 10.582031 2.066406 10.582031 C 2.070312 10.582031 2.042969 10.554688 2.007812 10.519531 C 1.972656 10.484375 1.9375 10.457031 1.933594 10.457031 C 1.929688 10.457031 1.957031 10.484375 1.992188 10.519531 M 21.992188 10.523438 L 21.925781 10.589844 L 21.996094 10.527344 C 22.035156 10.492188 22.066406 10.460938 22.066406 10.460938 C 22.066406 10.449219 22.054688 10.460938 21.992188 10.523438 M 11.792969 14.59375 C 11.792969 14.65625 11.796875 14.679688 11.796875 14.648438 C 11.800781 14.621094 11.800781 14.570312 11.796875 14.539062 C 11.796875 14.511719 11.792969 14.535156 11.792969 14.59375 M 12.203125 14.59375 C 12.203125 14.65625 12.207031 14.679688 12.207031 14.648438 C 12.210938 14.621094 12.210938 14.570312 12.207031 14.539062 C 12.207031 14.511719 12.203125 14.535156 12.203125 14.59375 M 11.101562 15.125 C 11.164062 15.128906 11.273438 15.128906 11.339844 15.125 C 11.40625 15.125 11.355469 15.121094 11.226562 15.121094 C 11.09375 15.121094 11.039062 15.125 11.101562 15.125 "/>
<path style=" stroke:none;fill-rule:evenodd;fill:rgb(92.156863%,38.82353%,23.529412%);fill-opacity:1;" d="M 10.8125 3.371094 L 12 4.515625 L 13.1875 3.371094 L 14.378906 2.230469 L 9.621094 2.230469 L 10.8125 3.371094 M 4.808594 5.726562 C 4.808594 5.738281 4.847656 6.03125 4.890625 6.371094 C 4.972656 6.988281 4.972656 6.996094 4.949219 7.003906 C 4.933594 7.007812 4.652344 7.082031 4.328125 7.164062 C 4.003906 7.246094 3.738281 7.316406 3.738281 7.320312 C 3.742188 7.320312 3.96875 7.425781 4.246094 7.550781 C 4.5625 7.695312 4.746094 7.789062 4.746094 7.800781 C 4.746094 7.824219 4.175781 8.773438 4.140625 8.8125 C 4.125 8.828125 4.113281 8.84375 4.117188 8.847656 C 4.117188 8.855469 3.527344 9.84375 2.800781 11.054688 C 2.078125 12.261719 1.484375 13.25 1.488281 13.253906 C 1.488281 13.253906 1.761719 13.199219 2.085938 13.125 C 2.414062 13.050781 2.683594 12.996094 2.6875 12.996094 C 2.6875 13 2.476562 13.511719 2.214844 14.136719 C 1.949219 14.761719 1.738281 15.277344 1.742188 15.28125 C 1.75 15.285156 4.339844 16.109375 4.371094 16.113281 C 4.378906 16.117188 4.390625 16.109375 4.394531 16.097656 C 4.398438 16.082031 4.394531 16.082031 4.386719 16.09375 C 4.371094 16.121094 2.636719 14.726562 2.640625 14.691406 C 2.648438 14.652344 5.921875 5.855469 5.9375 5.835938 C 5.945312 5.824219 5.945312 5.820312 5.929688 5.820312 C 5.914062 5.820312 5.910156 5.8125 5.914062 5.804688 C 5.921875 5.796875 5.917969 5.792969 5.90625 5.800781 C 5.898438 5.808594 5.816406 5.957031 5.726562 6.132812 C 5.636719 6.3125 5.558594 6.457031 5.558594 6.457031 C 5.554688 6.457031 5.199219 6.097656 4.839844 5.730469 C 4.808594 5.703125 4.808594 5.703125 4.808594 5.726562 M 18.859375 6.039062 C 18.679688 6.222656 18.511719 6.394531 18.484375 6.417969 L 18.4375 6.460938 L 18.273438 6.136719 C 18.113281 5.820312 18.085938 5.773438 18.074219 5.808594 C 18.070312 5.820312 18.804688 7.8125 19.710938 10.238281 C 20.613281 12.667969 21.355469 14.667969 21.359375 14.683594 C 21.367188 14.722656 19.632812 16.125 19.613281 16.09375 C 19.605469 16.082031 19.601562 16.082031 19.605469 16.097656 C 19.609375 16.109375 19.617188 16.117188 19.625 16.117188 C 19.644531 16.113281 22.230469 15.292969 22.246094 15.285156 C 22.257812 15.277344 22.113281 14.921875 21.785156 14.136719 C 21.523438 13.511719 21.3125 13 21.3125 12.996094 C 21.316406 12.996094 21.585938 13.050781 21.914062 13.125 C 22.238281 13.199219 22.507812 13.257812 22.511719 13.253906 C 22.515625 13.25 21.917969 12.257812 21.191406 11.042969 C 20.460938 9.828125 19.863281 8.824219 19.859375 8.8125 C 19.859375 8.804688 19.855469 8.792969 19.855469 8.789062 C 19.851562 8.785156 19.851562 8.777344 19.851562 8.773438 C 19.855469 8.765625 19.847656 8.761719 19.839844 8.765625 C 19.824219 8.769531 19.242188 7.808594 19.25 7.789062 C 19.25 7.785156 19.480469 7.675781 19.761719 7.546875 C 20.039062 7.421875 20.261719 7.316406 20.257812 7.3125 C 20.25 7.3125 19.972656 7.242188 19.640625 7.15625 C 19.3125 7.074219 19.035156 7 19.03125 6.996094 C 19.027344 6.988281 19.0625 6.703125 19.109375 6.363281 C 19.152344 6.019531 19.191406 5.730469 19.1875 5.722656 C 19.1875 5.714844 19.039062 5.855469 18.859375 6.039062 M 9.550781 6.226562 C 9.550781 6.253906 9.554688 6.261719 9.558594 6.25 C 9.5625 6.238281 9.5625 6.21875 9.558594 6.207031 C 9.554688 6.191406 9.550781 6.203125 9.550781 6.226562 M 9.539062 6.386719 C 9.539062 6.421875 9.542969 6.433594 9.546875 6.414062 C 9.550781 6.394531 9.550781 6.367188 9.546875 6.351562 C 9.542969 6.335938 9.539062 6.351562 9.539062 6.386719 M 9.527344 6.550781 C 9.527344 6.585938 9.53125 6.601562 9.53125 6.582031 C 9.535156 6.5625 9.535156 6.53125 9.53125 6.515625 C 9.53125 6.5 9.527344 6.515625 9.527344 6.550781 M 14.433594 6.675781 C 14.441406 6.710938 14.445312 6.714844 14.449219 6.6875 C 14.449219 6.671875 14.445312 6.652344 14.441406 6.644531 C 14.433594 6.640625 14.429688 6.652344 14.433594 6.675781 M 9.511719 6.722656 C 9.511719 6.757812 9.515625 6.769531 9.519531 6.753906 C 9.523438 6.738281 9.523438 6.710938 9.519531 6.695312 C 9.515625 6.679688 9.511719 6.691406 9.511719 6.722656 M 14.453125 6.839844 C 14.453125 6.871094 14.457031 6.882812 14.460938 6.867188 C 14.460938 6.851562 14.460938 6.824219 14.460938 6.808594 C 14.457031 6.792969 14.453125 6.808594 14.453125 6.839844 M 9.5 6.894531 C 9.5 6.929688 9.503906 6.945312 9.507812 6.925781 C 9.507812 6.90625 9.507812 6.875 9.507812 6.859375 C 9.503906 6.84375 9.5 6.859375 9.5 6.894531 M 9.0625 6.910156 C 9.0625 6.945312 9.066406 6.957031 9.070312 6.9375 C 9.070312 6.917969 9.070312 6.890625 9.070312 6.875 C 9.066406 6.859375 9.0625 6.875 9.0625 6.910156 M 14.46875 7.003906 C 14.46875 7.035156 14.46875 7.050781 14.472656 7.035156 C 14.476562 7.015625 14.476562 6.992188 14.472656 6.976562 C 14.46875 6.960938 14.46875 6.972656 14.46875 7.003906 M 9.488281 7.0625 C 9.488281 7.097656 9.488281 7.109375 9.492188 7.089844 C 9.496094 7.070312 9.496094 7.042969 9.492188 7.027344 C 9.488281 7.011719 9.488281 7.027344 9.488281 7.0625 M 9.050781 7.101562 C 9.050781 7.136719 9.054688 7.148438 9.054688 7.128906 C 9.058594 7.109375 9.058594 7.082031 9.054688 7.066406 C 9.050781 7.050781 9.050781 7.066406 9.050781 7.101562 M 14.929688 7.136719 C 14.929688 7.171875 14.933594 7.1875 14.9375 7.167969 C 14.941406 7.148438 14.941406 7.117188 14.9375 7.101562 C 14.933594 7.085938 14.929688 7.101562 14.929688 7.136719 M 14.480469 7.183594 C 14.480469 7.214844 14.484375 7.226562 14.484375 7.210938 C 14.488281 7.195312 14.488281 7.171875 14.484375 7.152344 C 14.484375 7.136719 14.480469 7.152344 14.480469 7.183594 M 9.472656 7.238281 C 9.472656 7.273438 9.476562 7.289062 9.480469 7.269531 C 9.484375 7.25 9.484375 7.21875 9.480469 7.203125 C 9.476562 7.1875 9.472656 7.207031 9.472656 7.238281 M 9.035156 7.285156 C 9.035156 7.324219 9.039062 7.339844 9.042969 7.320312 C 9.046875 7.300781 9.046875 7.269531 9.042969 7.25 C 9.039062 7.230469 9.035156 7.246094 9.035156 7.285156 M 14.945312 7.328125 C 14.945312 7.363281 14.945312 7.378906 14.949219 7.359375 C 14.953125 7.339844 14.953125 7.308594 14.949219 7.292969 C 14.945312 7.277344 14.945312 7.292969 14.945312 7.328125 M 14.492188 7.347656 C 14.492188 7.378906 14.496094 7.394531 14.5 7.378906 C 14.503906 7.363281 14.503906 7.335938 14.5 7.320312 C 14.496094 7.304688 14.492188 7.316406 14.492188 7.347656 M 9.460938 7.40625 C 9.460938 7.441406 9.464844 7.453125 9.464844 7.433594 C 9.46875 7.414062 9.46875 7.386719 9.464844 7.371094 C 9.464844 7.355469 9.460938 7.371094 9.460938 7.40625 M 9.023438 7.46875 C 9.023438 7.503906 9.027344 7.515625 9.03125 7.496094 C 9.03125 7.480469 9.03125 7.449219 9.027344 7.433594 C 9.027344 7.417969 9.023438 7.433594 9.023438 7.46875 M 14.507812 7.515625 C 14.507812 7.546875 14.507812 7.558594 14.511719 7.542969 C 14.515625 7.527344 14.515625 7.5 14.511719 7.484375 C 14.507812 7.46875 14.507812 7.484375 14.507812 7.515625 M 14.957031 7.515625 C 14.957031 7.546875 14.960938 7.558594 14.964844 7.542969 C 14.964844 7.527344 14.964844 7.5 14.964844 7.484375 C 14.960938 7.46875 14.957031 7.484375 14.957031 7.515625 M 9.449219 7.578125 C 9.449219 7.609375 9.449219 7.621094 9.453125 7.605469 C 9.457031 7.589844 9.457031 7.566406 9.453125 7.550781 C 9.449219 7.535156 9.449219 7.546875 9.449219 7.578125 M 9.011719 7.652344 C 9.011719 7.691406 9.011719 7.707031 9.015625 7.6875 C 9.019531 7.667969 9.019531 7.636719 9.015625 7.617188 C 9.011719 7.601562 9.011719 7.617188 9.011719 7.652344 M 14.519531 7.691406 C 14.519531 7.722656 14.523438 7.738281 14.527344 7.722656 C 14.527344 7.707031 14.527344 7.679688 14.527344 7.664062 C 14.523438 7.648438 14.519531 7.660156 14.519531 7.691406 M 14.96875 7.699219 C 14.972656 7.734375 14.972656 7.746094 14.976562 7.726562 C 14.980469 7.707031 14.980469 7.679688 14.976562 7.664062 C 14.972656 7.648438 14.96875 7.664062 14.96875 7.699219 M 9.433594 7.75 C 9.433594 7.785156 9.4375 7.796875 9.441406 7.777344 C 9.441406 7.757812 9.441406 7.730469 9.441406 7.714844 C 9.4375 7.699219 9.433594 7.714844 9.433594 7.75 M 8.996094 7.84375 C 8.996094 7.882812 9 7.898438 9.003906 7.878906 C 9.007812 7.859375 9.007812 7.828125 9.003906 7.808594 C 9 7.789062 8.996094 7.804688 8.996094 7.84375 M 14.535156 7.859375 C 14.535156 7.890625 14.535156 7.902344 14.539062 7.886719 C 14.542969 7.871094 14.542969 7.84375 14.539062 7.828125 C 14.535156 7.8125 14.535156 7.828125 14.535156 7.859375 M 14.984375 7.890625 C 14.984375 7.925781 14.988281 7.9375 14.988281 7.917969 C 14.992188 7.898438 14.992188 7.871094 14.988281 7.855469 C 14.984375 7.839844 14.984375 7.855469 14.984375 7.890625 M 15.898438 7.871094 C 15.898438 7.894531 15.898438 7.90625 15.902344 7.894531 C 15.90625 7.878906 15.90625 7.859375 15.902344 7.847656 C 15.898438 7.835938 15.898438 7.847656 15.898438 7.871094 M 9.421875 7.914062 C 9.421875 7.949219 9.421875 7.964844 9.425781 7.945312 C 9.429688 7.925781 9.429688 7.894531 9.425781 7.878906 C 9.421875 7.863281 9.421875 7.878906 9.421875 7.914062 M 15.882812 7.984375 C 15.882812 8.011719 15.886719 8.019531 15.890625 8.007812 C 15.894531 7.996094 15.894531 7.976562 15.890625 7.964844 C 15.886719 7.949219 15.882812 7.960938 15.882812 7.984375 M 8.984375 8.03125 C 8.984375 8.066406 8.988281 8.078125 8.988281 8.058594 C 8.992188 8.039062 8.992188 8.011719 8.988281 7.996094 C 8.984375 7.980469 8.984375 7.996094 8.984375 8.03125 M 14.546875 8.035156 C 14.546875 8.066406 14.550781 8.082031 14.550781 8.066406 C 14.554688 8.050781 14.554688 8.023438 14.550781 8.007812 C 14.550781 7.992188 14.546875 8.003906 14.546875 8.035156 M 14.996094 8.066406 C 14.996094 8.101562 15 8.117188 15.003906 8.097656 C 15.007812 8.078125 15.003906 8.046875 15.003906 8.03125 C 15 8.015625 14.996094 8.03125 14.996094 8.066406 M 9.40625 8.09375 C 9.40625 8.128906 9.410156 8.140625 9.414062 8.121094 C 9.417969 8.101562 9.417969 8.074219 9.414062 8.058594 C 9.410156 8.042969 9.40625 8.058594 9.40625 8.09375 M 15.871094 8.101562 C 15.871094 8.125 15.875 8.132812 15.875 8.121094 C 15.878906 8.109375 15.878906 8.089844 15.875 8.078125 C 15.875 8.066406 15.871094 8.074219 15.871094 8.101562 M 8.972656 8.214844 C 8.972656 8.253906 8.972656 8.269531 8.976562 8.25 C 8.980469 8.230469 8.980469 8.199219 8.976562 8.179688 C 8.972656 8.160156 8.972656 8.175781 8.972656 8.214844 M 14.558594 8.203125 C 14.558594 8.234375 14.5625 8.246094 14.566406 8.230469 C 14.570312 8.214844 14.570312 8.1875 14.566406 8.171875 C 14.5625 8.15625 14.558594 8.171875 14.558594 8.203125 M 15.855469 8.214844 C 15.855469 8.238281 15.859375 8.25 15.863281 8.238281 C 15.867188 8.222656 15.867188 8.203125 15.863281 8.191406 C 15.859375 8.179688 15.855469 8.191406 15.855469 8.214844 M 9.394531 8.257812 C 9.394531 8.292969 9.398438 8.308594 9.398438 8.289062 C 9.402344 8.269531 9.402344 8.238281 9.398438 8.222656 C 9.398438 8.207031 9.394531 8.222656 9.394531 8.257812 M 15.011719 8.257812 C 15.011719 8.292969 15.011719 8.308594 15.015625 8.289062 C 15.019531 8.269531 15.019531 8.238281 15.015625 8.222656 C 15.011719 8.207031 15.011719 8.222656 15.011719 8.257812 M 14.574219 8.375 C 14.574219 8.410156 14.574219 8.421875 14.578125 8.402344 C 14.582031 8.382812 14.582031 8.355469 14.578125 8.339844 C 14.574219 8.324219 14.574219 8.339844 14.574219 8.375 M 8.957031 8.40625 C 8.957031 8.445312 8.960938 8.460938 8.964844 8.441406 C 8.964844 8.421875 8.964844 8.390625 8.964844 8.371094 C 8.960938 8.351562 8.957031 8.367188 8.957031 8.40625 M 9.378906 8.417969 C 9.378906 8.4375 9.382812 8.457031 9.386719 8.457031 C 9.394531 8.457031 9.398438 8.4375 9.394531 8.417969 C 9.390625 8.398438 9.386719 8.378906 9.382812 8.378906 C 9.378906 8.378906 9.378906 8.398438 9.378906 8.417969 M 8.191406 8.421875 C 8.191406 8.445312 8.199219 8.464844 8.210938 8.464844 C 8.226562 8.46875 8.226562 8.46875 8.214844 8.460938 C 8.207031 8.453125 8.199219 8.4375 8.195312 8.417969 C 8.1875 8.390625 8.1875 8.390625 8.191406 8.421875 M 15.023438 8.449219 C 15.023438 8.484375 15.027344 8.496094 15.03125 8.480469 C 15.03125 8.460938 15.03125 8.429688 15.027344 8.414062 C 15.027344 8.398438 15.023438 8.414062 15.023438 8.449219 M 15.832031 8.429688 C 15.832031 8.457031 15.832031 8.464844 15.835938 8.453125 C 15.839844 8.441406 15.839844 8.421875 15.835938 8.410156 C 15.832031 8.394531 15.832031 8.40625 15.832031 8.429688 M 14.585938 8.546875 C 14.585938 8.578125 14.589844 8.589844 14.59375 8.574219 C 14.59375 8.558594 14.59375 8.53125 14.59375 8.515625 C 14.589844 8.5 14.585938 8.515625 14.585938 8.546875 M 15.816406 8.546875 C 15.816406 8.570312 15.820312 8.582031 15.824219 8.566406 C 15.828125 8.554688 15.828125 8.535156 15.824219 8.523438 C 15.820312 8.511719 15.816406 8.519531 15.816406 8.546875 M 8.945312 8.570312 C 8.945312 8.59375 8.945312 8.605469 8.949219 8.59375 C 8.953125 8.582031 8.953125 8.5625 8.949219 8.546875 C 8.945312 8.535156 8.945312 8.546875 8.945312 8.570312 M 15.035156 8.628906 C 15.035156 8.664062 15.039062 8.675781 15.042969 8.65625 C 15.046875 8.636719 15.046875 8.609375 15.042969 8.59375 C 15.039062 8.578125 15.035156 8.59375 15.035156 8.628906 M 15.800781 8.65625 C 15.796875 8.683594 15.796875 8.695312 15.804688 8.6875 C 15.8125 8.679688 15.816406 8.664062 15.8125 8.644531 C 15.808594 8.621094 15.804688 8.621094 15.800781 8.65625 M 14.601562 8.710938 C 14.601562 8.742188 14.601562 8.753906 14.605469 8.738281 C 14.609375 8.722656 14.609375 8.699219 14.605469 8.683594 C 14.601562 8.667969 14.601562 8.679688 14.601562 8.710938 M 15.050781 8.800781 C 15.050781 8.824219 15.050781 8.835938 15.054688 8.824219 C 15.058594 8.808594 15.058594 8.789062 15.054688 8.777344 C 15.050781 8.765625 15.050781 8.777344 15.050781 8.800781 M 14.609375 8.863281 C 14.609375 8.886719 14.597656 8.902344 14.578125 8.914062 C 14.5625 8.917969 14.554688 8.925781 14.5625 8.925781 C 14.59375 8.929688 14.625 8.894531 14.617188 8.863281 L 14.613281 8.832031 L 14.609375 8.863281 M 0.753906 9.339844 C 0.816406 9.402344 0.871094 9.449219 0.875 9.449219 C 0.878906 9.449219 0.828125 9.402344 0.769531 9.339844 C 0.707031 9.28125 0.652344 9.234375 0.648438 9.234375 C 0.644531 9.234375 0.695312 9.28125 0.753906 9.339844 M 23.230469 9.34375 L 23.121094 9.457031 L 23.234375 9.347656 C 23.300781 9.289062 23.351562 9.238281 23.351562 9.238281 C 23.351562 9.226562 23.335938 9.242188 23.230469 9.34375 M 7.007812 9.382812 C 6.964844 9.425781 6.964844 9.425781 7 9.394531 C 7.023438 9.375 7.042969 9.363281 7.046875 9.367188 C 7.050781 9.371094 7.054688 9.363281 7.054688 9.355469 C 7.054688 9.328125 7.058594 9.328125 7.007812 9.382812 M 16.945312 9.355469 C 16.945312 9.363281 16.949219 9.371094 16.953125 9.367188 C 16.957031 9.363281 16.976562 9.375 17 9.394531 C 17.035156 9.425781 17.035156 9.425781 16.992188 9.382812 C 16.941406 9.328125 16.945312 9.328125 16.945312 9.355469 M 6.832031 9.5625 L 6.789062 9.609375 L 6.835938 9.566406 C 6.882812 9.523438 6.894531 9.511719 6.882812 9.511719 C 6.882812 9.511719 6.859375 9.535156 6.832031 9.5625 M 17.160156 9.566406 C 17.1875 9.59375 17.214844 9.617188 17.21875 9.617188 C 17.222656 9.617188 17.199219 9.59375 17.171875 9.566406 C 17.144531 9.535156 17.117188 9.511719 17.113281 9.511719 C 17.109375 9.511719 17.128906 9.535156 17.160156 9.566406 M 6.648438 9.753906 L 6.601562 9.800781 L 6.652344 9.757812 C 6.699219 9.714844 6.707031 9.703125 6.699219 9.703125 C 6.695312 9.703125 6.671875 9.726562 6.648438 9.753906 M 17.34375 9.753906 C 17.371094 9.785156 17.398438 9.804688 17.402344 9.804688 C 17.40625 9.804688 17.386719 9.785156 17.359375 9.753906 C 17.328125 9.726562 17.304688 9.703125 17.300781 9.703125 C 17.296875 9.703125 17.316406 9.726562 17.34375 9.753906 M 11.425781 9.886719 C 11.421875 9.90625 11.132812 11.210938 11.097656 11.386719 C 11.09375 11.402344 11.144531 11.402344 11.335938 11.398438 C 11.679688 11.390625 12.65625 11.394531 12.800781 11.402344 C 12.910156 11.410156 12.917969 11.410156 12.90625 11.390625 C 12.902344 11.378906 12.828125 11.039062 12.742188 10.640625 C 12.652344 10.242188 12.578125 9.902344 12.574219 9.886719 L 12.570312 9.855469 L 11.433594 9.855469 L 11.425781 9.886719 M 6.460938 9.941406 L 6.417969 9.992188 L 6.46875 9.945312 C 6.511719 9.90625 6.523438 9.894531 6.511719 9.894531 C 6.511719 9.894531 6.488281 9.917969 6.460938 9.941406 M 17.53125 9.945312 C 17.558594 9.972656 17.585938 9.996094 17.589844 9.996094 C 17.59375 9.996094 17.570312 9.972656 17.542969 9.945312 C 17.515625 9.917969 17.488281 9.894531 17.484375 9.894531 C 17.480469 9.894531 17.5 9.917969 17.53125 9.945312 M 1.734375 10.269531 C 1.839844 10.371094 1.929688 10.457031 1.933594 10.457031 C 1.9375 10.457031 1.855469 10.371094 1.75 10.269531 C 1.644531 10.167969 1.554688 10.085938 1.550781 10.085938 C 1.546875 10.085938 1.628906 10.167969 1.734375 10.269531 M 6.277344 10.132812 L 6.230469 10.183594 L 6.28125 10.136719 C 6.328125 10.097656 6.335938 10.085938 6.328125 10.085938 C 6.324219 10.085938 6.300781 10.109375 6.277344 10.132812 M 17.714844 10.136719 C 17.742188 10.164062 17.769531 10.1875 17.773438 10.1875 C 17.777344 10.1875 17.757812 10.164062 17.726562 10.136719 C 17.699219 10.109375 17.671875 10.085938 17.671875 10.085938 C 17.667969 10.085938 17.6875 10.109375 17.714844 10.136719 M 22.25 10.273438 L 22.058594 10.460938 L 22.253906 10.277344 C 22.363281 10.175781 22.449219 10.089844 22.449219 10.089844 C 22.449219 10.082031 22.429688 10.101562 22.25 10.273438 M 6.09375 10.324219 L 6.046875 10.375 L 6.097656 10.328125 C 6.140625 10.289062 6.152344 10.277344 6.140625 10.277344 C 6.140625 10.277344 6.117188 10.300781 6.09375 10.324219 M 17.902344 10.328125 C 17.929688 10.355469 17.957031 10.378906 17.960938 10.378906 C 17.960938 10.378906 17.941406 10.355469 17.914062 10.328125 C 17.886719 10.300781 17.859375 10.277344 17.855469 10.277344 C 17.851562 10.277344 17.871094 10.300781 17.902344 10.328125 M 9.328125 10.4375 C 9.328125 10.464844 9.332031 10.476562 9.332031 10.457031 C 9.335938 10.441406 9.335938 10.421875 9.332031 10.40625 C 9.332031 10.394531 9.328125 10.410156 9.328125 10.4375 M 14.664062 10.4375 C 14.664062 10.464844 14.667969 10.476562 14.671875 10.457031 C 14.675781 10.441406 14.675781 10.421875 14.671875 10.40625 C 14.667969 10.394531 14.664062 10.410156 14.664062 10.4375 M 5.90625 10.515625 L 5.859375 10.5625 L 5.910156 10.519531 C 5.957031 10.480469 5.964844 10.46875 5.957031 10.46875 C 5.953125 10.46875 5.933594 10.488281 5.90625 10.515625 M 18.085938 10.519531 C 18.113281 10.546875 18.140625 10.570312 18.144531 10.570312 C 18.148438 10.570312 18.128906 10.546875 18.097656 10.519531 C 18.070312 10.492188 18.042969 10.46875 18.039062 10.46875 C 18.039062 10.46875 18.058594 10.492188 18.085938 10.519531 M 5.722656 10.707031 L 5.675781 10.753906 L 5.726562 10.710938 C 5.769531 10.671875 5.78125 10.660156 5.769531 10.660156 C 5.769531 10.660156 5.746094 10.679688 5.722656 10.707031 M 18.265625 10.703125 C 18.289062 10.730469 18.3125 10.75 18.316406 10.75 C 18.320312 10.75 18.304688 10.730469 18.277344 10.703125 C 18.253906 10.679688 18.230469 10.660156 18.226562 10.660156 C 18.222656 10.660156 18.238281 10.679688 18.265625 10.703125 M 5.535156 10.898438 L 5.488281 10.945312 L 5.539062 10.902344 C 5.585938 10.863281 5.59375 10.851562 5.585938 10.851562 C 5.582031 10.851562 5.5625 10.871094 5.535156 10.898438 M 18.449219 10.894531 C 18.476562 10.917969 18.5 10.941406 18.5 10.941406 C 18.503906 10.941406 18.488281 10.917969 18.464844 10.894531 C 18.4375 10.871094 18.414062 10.851562 18.410156 10.851562 C 18.410156 10.851562 18.425781 10.871094 18.449219 10.894531 M 5.351562 11.089844 L 5.304688 11.136719 L 5.355469 11.09375 C 5.402344 11.050781 5.410156 11.042969 5.398438 11.042969 C 5.398438 11.042969 5.375 11.0625 5.351562 11.089844 M 18.636719 11.085938 C 18.660156 11.109375 18.683594 11.132812 18.6875 11.132812 C 18.691406 11.132812 18.671875 11.109375 18.648438 11.085938 C 18.625 11.0625 18.601562 11.042969 18.597656 11.042969 C 18.59375 11.042969 18.609375 11.0625 18.636719 11.085938 M 5.164062 11.28125 L 5.121094 11.328125 L 5.167969 11.285156 C 5.214844 11.242188 5.226562 11.234375 5.214844 11.234375 C 5.210938 11.234375 5.191406 11.253906 5.164062 11.28125 M 18.820312 11.277344 C 18.847656 11.300781 18.867188 11.320312 18.871094 11.320312 C 18.875 11.320312 18.859375 11.300781 18.835938 11.277344 C 18.808594 11.253906 18.785156 11.234375 18.78125 11.234375 C 18.777344 11.234375 18.796875 11.253906 18.820312 11.277344 M 4.980469 11.472656 L 4.933594 11.519531 L 4.984375 11.476562 C 5.03125 11.433594 5.039062 11.421875 5.027344 11.421875 C 5.027344 11.421875 5.003906 11.445312 4.980469 11.472656 M 12.964844 11.453125 C 13 11.492188 13.007812 11.496094 13 11.472656 C 12.996094 11.460938 12.980469 11.449219 12.964844 11.4375 C 12.933594 11.421875 12.933594 11.421875 12.964844 11.453125 M 19.007812 11.46875 C 19.03125 11.492188 19.054688 11.511719 19.058594 11.511719 C 19.0625 11.511719 19.042969 11.492188 19.019531 11.46875 C 18.996094 11.445312 18.972656 11.421875 18.96875 11.421875 C 18.964844 11.421875 18.980469 11.445312 19.007812 11.46875 M 4.792969 11.664062 L 4.75 11.710938 L 4.796875 11.667969 C 4.84375 11.625 4.855469 11.613281 4.84375 11.613281 C 4.839844 11.613281 4.820312 11.636719 4.792969 11.664062 M 19.191406 11.660156 C 19.214844 11.683594 19.238281 11.703125 19.242188 11.703125 C 19.246094 11.703125 19.230469 11.683594 19.207031 11.660156 C 19.179688 11.636719 19.15625 11.613281 19.152344 11.613281 C 19.148438 11.613281 19.167969 11.636719 19.191406 11.660156 M 4.609375 11.855469 L 4.5625 11.902344 L 4.613281 11.859375 C 4.660156 11.816406 4.667969 11.804688 4.660156 11.804688 C 4.65625 11.804688 4.632812 11.828125 4.609375 11.855469 M 19.378906 11.851562 C 19.402344 11.875 19.425781 11.894531 19.429688 11.894531 C 19.433594 11.894531 19.414062 11.875 19.390625 11.851562 C 19.367188 11.824219 19.34375 11.804688 19.339844 11.804688 C 19.335938 11.804688 19.351562 11.824219 19.378906 11.851562 M 4.429688 12.039062 L 4.378906 12.09375 L 4.433594 12.042969 C 4.484375 11.996094 4.496094 11.984375 4.484375 11.984375 C 4.484375 11.984375 4.457031 12.007812 4.429688 12.039062 M 19.5625 12.042969 C 19.585938 12.066406 19.609375 12.085938 19.613281 12.085938 C 19.617188 12.085938 19.601562 12.066406 19.574219 12.042969 C 19.550781 12.015625 19.527344 11.996094 19.523438 11.996094 C 19.519531 11.996094 19.539062 12.015625 19.5625 12.042969 M 4.246094 12.230469 L 4.191406 12.285156 L 4.25 12.234375 C 4.300781 12.1875 4.3125 12.175781 4.300781 12.175781 C 4.296875 12.175781 4.273438 12.199219 4.246094 12.230469 M 19.75 12.234375 C 19.773438 12.257812 19.796875 12.277344 19.800781 12.277344 C 19.804688 12.277344 19.785156 12.257812 19.761719 12.234375 C 19.738281 12.207031 19.714844 12.1875 19.710938 12.1875 C 19.707031 12.1875 19.722656 12.207031 19.75 12.234375 M 4.058594 12.421875 L 4.007812 12.472656 L 4.0625 12.425781 C 4.117188 12.378906 4.125 12.367188 4.117188 12.367188 C 4.113281 12.367188 4.085938 12.390625 4.058594 12.421875 M 19.933594 12.421875 C 19.957031 12.449219 19.980469 12.46875 19.984375 12.46875 C 19.988281 12.46875 19.972656 12.449219 19.945312 12.421875 C 19.921875 12.398438 19.898438 12.378906 19.894531 12.378906 C 19.890625 12.378906 19.910156 12.398438 19.933594 12.421875 M 3.875 12.613281 L 3.820312 12.664062 L 3.878906 12.613281 C 3.929688 12.570312 3.941406 12.558594 3.929688 12.558594 C 3.925781 12.558594 3.902344 12.582031 3.875 12.613281 M 20.121094 12.613281 C 20.144531 12.640625 20.167969 12.660156 20.171875 12.660156 C 20.175781 12.660156 20.15625 12.640625 20.132812 12.613281 C 20.109375 12.589844 20.085938 12.570312 20.082031 12.570312 C 20.078125 12.570312 20.09375 12.589844 20.121094 12.613281 M 3.6875 12.800781 L 3.636719 12.855469 L 3.691406 12.804688 C 3.746094 12.757812 3.753906 12.75 3.746094 12.75 C 3.742188 12.75 3.71875 12.773438 3.6875 12.800781 M 20.304688 12.804688 C 20.328125 12.832031 20.351562 12.851562 20.355469 12.851562 C 20.359375 12.851562 20.34375 12.832031 20.316406 12.804688 C 20.292969 12.78125 20.269531 12.761719 20.265625 12.761719 C 20.261719 12.761719 20.28125 12.78125 20.304688 12.804688 M 3.792969 12.871094 C 3.835938 12.875 3.898438 12.875 3.9375 12.871094 C 3.976562 12.871094 3.941406 12.867188 3.859375 12.867188 C 3.78125 12.867188 3.75 12.871094 3.792969 12.871094 M 20.070312 12.871094 C 20.113281 12.875 20.179688 12.875 20.214844 12.871094 C 20.253906 12.871094 20.21875 12.867188 20.140625 12.867188 C 20.058594 12.867188 20.027344 12.871094 20.070312 12.871094 M 4.417969 12.96875 L 4.378906 13.007812 L 4.421875 12.972656 C 4.460938 12.9375 4.46875 12.925781 4.460938 12.925781 C 4.457031 12.925781 4.4375 12.945312 4.417969 12.96875 M 19.535156 12.929688 C 19.535156 12.933594 19.554688 12.953125 19.578125 12.972656 L 19.621094 13.007812 L 19.582031 12.96875 C 19.546875 12.929688 19.535156 12.921875 19.535156 12.929688 M 19.734375 13.148438 C 19.734375 13.148438 19.753906 13.167969 19.777344 13.1875 L 19.820312 13.226562 L 19.78125 13.183594 C 19.746094 13.144531 19.734375 13.136719 19.734375 13.148438 M 19.933594 13.363281 C 19.933594 13.367188 19.953125 13.382812 19.976562 13.40625 L 20.019531 13.441406 L 19.980469 13.402344 C 19.945312 13.363281 19.933594 13.355469 19.933594 13.363281 M 20.039062 13.476562 C 20.039062 13.480469 20.058594 13.5 20.082031 13.519531 L 20.125 13.558594 L 20.085938 13.515625 C 20.050781 13.476562 20.039062 13.46875 20.039062 13.476562 M 3.714844 13.730469 L 3.675781 13.773438 L 3.71875 13.734375 C 3.757812 13.703125 3.769531 13.691406 3.757812 13.691406 C 3.753906 13.691406 3.734375 13.710938 3.714844 13.730469 M 20.238281 13.695312 C 20.238281 13.695312 20.257812 13.714844 20.28125 13.734375 L 20.324219 13.773438 L 20.285156 13.730469 C 20.25 13.695312 20.238281 13.683594 20.238281 13.695312 M 11.792969 14.796875 C 11.792969 14.859375 11.796875 14.882812 11.796875 14.851562 C 11.800781 14.824219 11.800781 14.773438 11.796875 14.746094 C 11.796875 14.714844 11.792969 14.738281 11.792969 14.796875 M 12.203125 14.796875 C 12.203125 14.859375 12.207031 14.882812 12.207031 14.851562 C 12.210938 14.824219 12.210938 14.773438 12.207031 14.746094 C 12.207031 14.714844 12.203125 14.738281 12.203125 14.796875 M 11.507812 15.125 C 11.53125 15.128906 11.566406 15.128906 11.585938 15.125 C 11.605469 15.125 11.585938 15.121094 11.542969 15.121094 C 11.5 15.121094 11.484375 15.125 11.507812 15.125 M 10.679688 15.433594 C 10.925781 15.433594 11.328125 15.433594 11.574219 15.433594 C 11.820312 15.429688 11.617188 15.429688 11.125 15.429688 C 10.632812 15.429688 10.433594 15.429688 10.679688 15.433594 M 8.609375 15.503906 C 8.609375 15.503906 8.628906 15.523438 8.652344 15.542969 L 8.695312 15.582031 L 8.65625 15.539062 C 8.621094 15.503906 8.609375 15.492188 8.609375 15.503906 M 9.152344 16.078125 C 9.152344 16.078125 9.171875 16.097656 9.195312 16.117188 L 9.238281 16.15625 L 9.199219 16.113281 C 9.164062 16.074219 9.152344 16.066406 9.152344 16.078125 "/>
</g>
</svg>
