<svg width="20" height="20" viewBox="0 0 20 20" fill="none" xmlns="http://www.w3.org/2000/svg">
<path d="M18.7124 5.54349L10.3469 0.689697V4.04832L18.7124 8.88073V5.5428V5.54349Z" fill="#FF6492"/>
<path d="M18.7124 8.88075L16.2027 10.3449L10.3448 6.95248L6.99789 8.88351L4.48755 7.52696L10.3462 4.04834L18.7124 8.88075Z" fill="#141446"/>
<path d="M6.99789 8.88341L4.48755 7.52686V10.3448L6.99789 8.88341Z" fill="#A14474"/>
<path d="M1.97729 15.1461L10.3449 10.3447L18.7125 15.1461L10.3449 19.9999L1.97729 15.1461Z" fill="#141446"/>
<path d="M18.7123 11.8137L10.3447 6.8999V10.3447L18.7123 15.1461V11.8137Z" fill="#FF6492"/>
<path d="M4.48764 10.3449V7.52694L10.3463 4.04832V0.689697L1.97729 5.54349V15.1462L10.3449 10.3449V6.90004L4.48764 10.3449Z" fill="#7A77FF"/>
</svg>
