<svg width="20" height="20" viewBox="0 0 20 20" fill="none" xmlns="http://www.w3.org/2000/svg">
<path d="M1.51691 11.7615H1.10121C1.04531 11.7615 1 11.807 1 11.8632V13.411C1 13.4672 1.04531 13.5127 1.10121 13.5127H1.51691C1.57281 13.5127 1.61812 13.4672 1.61812 13.411V11.8632C1.61812 11.807 1.57281 11.7615 1.51691 11.7615Z" fill="#67748A"/>
<path d="M2.38756 9.72778H2.0621C1.98129 9.72778 1.91577 9.79363 1.91577 9.87485V11.7618C1.91577 11.8431 1.98129 11.9089 2.0621 11.9089H2.38756C2.46837 11.9089 2.53389 11.8431 2.53389 11.7618V9.87485C2.53389 9.79363 2.46837 9.72778 2.38756 9.72778Z" fill="#67748A"/>
<path d="M2.43268 12.158H2.01698C1.96108 12.158 1.91577 12.2035 1.91577 12.2597V13.8984C1.91577 13.9546 1.96108 14.0001 2.01698 14.0001H2.43268C2.48858 14.0001 2.53389 13.9546 2.53389 13.8984V12.2597C2.53389 12.2035 2.48858 12.158 2.43268 12.158Z" fill="#67748A"/>
<path d="M3.3487 7.67456H2.93299C2.8771 7.67456 2.83179 7.7201 2.83179 7.77628V10.845C2.83179 10.9012 2.8771 10.9467 2.93299 10.9467H3.3487C3.40459 10.9467 3.44991 10.9012 3.44991 10.845V7.77628C3.44991 7.7201 3.40459 7.67456 3.3487 7.67456Z" fill="#67748A"/>
<path d="M3.34894 11.2349H2.93324C2.87734 11.2349 2.83203 11.2804 2.83203 11.3366V12.2883C2.83203 12.3445 2.87734 12.39 2.93324 12.39H3.34894C3.40484 12.39 3.45015 12.3445 3.45015 12.2883V11.3366C3.45015 11.2804 3.40484 11.2349 3.34894 11.2349Z" fill="#67748A"/>
<path d="M3.30382 13.1658H2.97836C2.89755 13.1658 2.83203 13.2316 2.83203 13.3128V13.8528C2.83203 13.9341 2.89755 13.9999 2.97836 13.9999H3.30382C3.38463 13.9999 3.45015 13.9341 3.45015 13.8528V13.3128C3.45015 13.2316 3.38463 13.1658 3.30382 13.1658Z" fill="#67748A"/>
<path d="M4.26472 6.21899H3.84901C3.79311 6.21899 3.7478 6.26453 3.7478 6.32071V8.49114C3.7478 8.54731 3.79311 8.59285 3.84901 8.59285H4.26472C4.32061 8.59285 4.36592 8.54731 4.36592 8.49114V6.32071C4.36592 6.26453 4.32061 6.21899 4.26472 6.21899Z" fill="#67748A"/>
<path d="M4.26469 8.85742H3.84855C3.79277 8.85742 3.74756 8.90286 3.74756 8.95892V11.9008C3.74756 11.9569 3.79277 12.0023 3.84855 12.0023H4.26469C4.32046 12.0023 4.36568 11.9569 4.36568 11.9008V8.95892C4.36568 8.90286 4.32046 8.85742 4.26469 8.85742Z" fill="#67748A"/>
<path d="M5.18049 5.77124H4.76478C4.70889 5.77124 4.66357 5.81678 4.66357 5.87296V7.32028C4.66357 7.37646 4.70889 7.422 4.76478 7.422H5.18049C5.23638 7.422 5.28169 7.37646 5.28169 7.32028V5.87296C5.28169 5.81678 5.23638 5.77124 5.18049 5.77124Z" fill="#67748A"/>
<path d="M5.18049 7.67651H4.76478C4.70889 7.67651 4.66357 7.72205 4.66357 7.77823V9.86074C4.66357 9.91692 4.70889 9.96246 4.76478 9.96246H5.18049C5.23638 9.96246 5.28169 9.91692 5.28169 9.86074V7.77823C5.28169 7.72205 5.23638 7.67651 5.18049 7.67651Z" fill="#67748A"/>
<path d="M5.18049 10.2625H4.76478C4.70889 10.2625 4.66357 10.308 4.66357 10.3642V12.2351C4.66357 12.2913 4.70889 12.3368 4.76478 12.3368H5.18049C5.23638 12.3368 5.28169 12.2913 5.28169 12.2351V10.3642C5.28169 10.308 5.23638 10.2625 5.18049 10.2625Z" fill="#67748A"/>
<path d="M6.05137 5.4082H5.72592C5.64511 5.4082 5.57959 5.47405 5.57959 5.55527V8.27276C5.57959 8.35398 5.64511 8.41983 5.72592 8.41983H6.05137C6.13219 8.41983 6.19771 8.35398 6.19771 8.27276V5.55527C6.19771 5.47405 6.13219 5.4082 6.05137 5.4082Z" fill="#67748A"/>
<path d="M6.05137 8.71973H5.72592C5.64511 8.71973 5.57959 8.78557 5.57959 8.8668V9.49751C5.57959 9.57874 5.64511 9.64458 5.72592 9.64458H6.05137C6.13219 9.64458 6.19771 9.57874 6.19771 9.49751V8.8668C6.19771 8.78557 6.13219 8.71973 6.05137 8.71973Z" fill="#67748A"/>
<path d="M6.05096 9.85425H5.72592C5.64511 9.85425 5.57959 9.92009 5.57959 10.0013V12.8095C5.57959 12.8907 5.64511 12.9566 5.72592 12.9566H6.05096C6.13178 12.9566 6.19729 12.8907 6.19729 12.8095V10.0013C6.19729 9.92009 6.13178 9.85425 6.05096 9.85425Z" fill="#67748A"/>
<path d="M6.96715 5.04541H6.64169C6.56088 5.04541 6.49536 5.11126 6.49536 5.19248V5.73249C6.49536 5.81371 6.56088 5.87956 6.64169 5.87956H6.96715C7.04796 5.87956 7.11348 5.81371 7.11348 5.73249V5.19248C7.11348 5.11126 7.04796 5.04541 6.96715 5.04541Z" fill="#67748A"/>
<path d="M6.96715 6.13403H6.64169C6.56088 6.13403 6.49536 6.19988 6.49536 6.2811V10.4504C6.49536 10.5316 6.56088 10.5975 6.64169 10.5975H6.96715C7.04796 10.5975 7.11348 10.5316 7.11348 10.4504V6.2811C7.11348 6.19988 7.04796 6.13403 6.96715 6.13403Z" fill="#67748A"/>
<path d="M6.96715 10.8975H6.64169C6.56088 10.8975 6.49536 10.9633 6.49536 11.0445V12.1742C6.49536 12.2554 6.56088 12.3212 6.64169 12.3212H6.96715C7.04796 12.3212 7.11348 12.2554 7.11348 12.1742V11.0445C7.11348 10.9633 7.04796 10.8975 6.96715 10.8975Z" fill="#67748A"/>
<path d="M6.96715 12.6216H6.64169C6.56088 12.6216 6.49536 12.6874 6.49536 12.7687V13.4901C6.49536 13.5713 6.56088 13.6372 6.64169 13.6372H6.96715C7.04796 13.6372 7.11348 13.5713 7.11348 13.4901V12.7687C7.11348 12.6874 7.04796 12.6216 6.96715 12.6216Z" fill="#67748A"/>
<path d="M7.88316 12.3943H7.55771C7.47689 12.3943 7.41138 12.4601 7.41138 12.5414V13.8528C7.41138 13.9341 7.47689 13.9999 7.55771 13.9999H7.88316C7.96398 13.9999 8.0295 13.9341 8.0295 13.8528V12.5414C8.0295 12.4601 7.96398 12.3943 7.88316 12.3943Z" fill="#67748A"/>
<path d="M7.88316 7.85815H7.55771C7.47689 7.85815 7.41138 7.924 7.41138 8.00522V11.2216C7.41138 11.3028 7.47689 11.3687 7.55771 11.3687H7.88316C7.96398 11.3687 8.0295 11.3028 8.0295 11.2216V8.00522C8.0295 7.924 7.96398 7.85815 7.88316 7.85815Z" fill="#67748A"/>
<path d="M7.88316 5H7.55771C7.47689 5 7.41138 5.06585 7.41138 5.14707V7.41079C7.41138 7.49201 7.47689 7.55786 7.55771 7.55786H7.88316C7.96398 7.55786 8.0295 7.49201 8.0295 7.41079V5.14707C8.0295 5.06585 7.96398 5 7.88316 5Z" fill="#67748A"/>
<path d="M8.79918 13.0752H8.47373C8.39291 13.0752 8.32739 13.141 8.32739 13.2223V13.853C8.32739 13.9342 8.39291 14.0001 8.47373 14.0001H8.79918C8.87999 14.0001 8.94551 13.9342 8.94551 13.853V13.2223C8.94551 13.141 8.87999 13.0752 8.79918 13.0752Z" fill="#67748A"/>
<path d="M8.79893 5.04541H8.47348C8.39266 5.04541 8.32715 5.11126 8.32715 5.19248V9.04406C8.32715 9.12528 8.39266 9.19113 8.47348 9.19113H8.79893C8.87975 9.19113 8.94527 9.12528 8.94527 9.04406V5.19248C8.94527 5.11126 8.87975 5.04541 8.79893 5.04541Z" fill="#67748A"/>
<path d="M8.79918 9.49121H8.47373C8.39291 9.49121 8.32739 9.55706 8.32739 9.63828V11.2217C8.32739 11.3029 8.39291 11.3687 8.47373 11.3687H8.79918C8.87999 11.3687 8.94551 11.3029 8.94551 11.2217V9.63828C8.94551 9.55706 8.87999 9.49121 8.79918 9.49121Z" fill="#67748A"/>
<path d="M9.71495 5.22681H9.3895C9.30868 5.22681 9.24316 5.29265 9.24316 5.37388V6.45815C9.24316 6.53937 9.30868 6.60522 9.3895 6.60522H9.71495C9.79577 6.60522 9.86128 6.53937 9.86128 6.45815V5.37388C9.86128 5.29265 9.79577 5.22681 9.71495 5.22681Z" fill="#67748A"/>
<path d="M9.7147 6.90527H9.38925C9.30844 6.90527 9.24292 6.97112 9.24292 7.05234V11.2214C9.24292 11.3026 9.30844 11.3685 9.38925 11.3685H9.7147C9.79552 11.3685 9.86104 11.3026 9.86104 11.2214V7.05234C9.86104 6.97112 9.79552 6.90527 9.7147 6.90527Z" fill="#67748A"/>
<path d="M10.6307 5.31763H10.3053C10.2245 5.31763 10.1589 5.38347 10.1589 5.4647V7.86469C10.1589 7.94592 10.2245 8.01176 10.3053 8.01176H10.6307C10.7115 8.01176 10.7771 7.94592 10.7771 7.86469V5.4647C10.7771 5.38347 10.7115 5.31763 10.6307 5.31763Z" fill="#67748A"/>
<path d="M10.6305 8.31177H10.305C10.2242 8.31177 10.1587 8.37761 10.1587 8.45884V10.4506C10.1587 10.5319 10.2242 10.5977 10.305 10.5977H10.6305C10.7113 10.5977 10.7768 10.5319 10.7768 10.4506V8.45884C10.7768 8.37761 10.7113 8.31177 10.6305 8.31177Z" fill="#67748A"/>
<path d="M10.6305 10.8972H10.305C10.2242 10.8972 10.1587 10.9631 10.1587 11.0443V11.9471C10.1587 12.0284 10.2242 12.0942 10.305 12.0942H10.6305C10.7113 12.0942 10.7768 12.0284 10.7768 11.9471V11.0443C10.7768 10.9631 10.7113 10.8972 10.6305 10.8972Z" fill="#67748A"/>
<path d="M11.5409 5.45386H11.2154C11.1346 5.45386 11.0691 5.5197 11.0691 5.60093V9.31644C11.0691 9.39766 11.1346 9.46351 11.2154 9.46351H11.5409C11.6217 9.46351 11.6872 9.39766 11.6872 9.31644V5.60093C11.6872 5.5197 11.6217 5.45386 11.5409 5.45386Z" fill="#67748A"/>
<path d="M11.5411 9.76343H11.2157C11.1349 9.76343 11.0693 9.82927 11.0693 9.9105V12.8548C11.0693 12.936 11.1349 13.0018 11.2157 13.0018H11.5411C11.6219 13.0018 11.6875 12.936 11.6875 12.8548V9.9105C11.6875 9.82927 11.6219 9.76343 11.5411 9.76343Z" fill="#67748A"/>
<path d="M12.4505 5.31763H12.1251C12.0443 5.31763 11.9788 5.38347 11.9788 5.4647V7.04809C11.9788 7.12931 12.0443 7.19516 12.1251 7.19516H12.4505C12.5314 7.19516 12.5969 7.12931 12.5969 7.04809V5.4647C12.5969 5.38347 12.5314 5.31763 12.4505 5.31763Z" fill="#67748A"/>
<path d="M12.4508 7.49512H12.1253C12.0445 7.49512 11.979 7.56096 11.979 7.64219V12.2652C11.979 12.3465 12.0445 12.4123 12.1253 12.4123H12.4508C12.5316 12.4123 12.5971 12.3465 12.5971 12.2652V7.64219C12.5971 7.56096 12.5316 7.49512 12.4508 7.49512Z" fill="#67748A"/>
<path d="M12.4508 12.7122H12.1253C12.0445 12.7122 11.979 12.778 11.979 12.8592V13.7167C11.979 13.7979 12.0445 13.8638 12.1253 13.8638H12.4508C12.5316 13.8638 12.5971 13.7979 12.5971 13.7167V12.8592C12.5971 12.778 12.5316 12.7122 12.4508 12.7122Z" fill="#67748A"/>
<path d="M13.3663 12.4399H13.0409C12.96 12.4399 12.8945 12.5058 12.8945 12.587V13.8529C12.8945 13.9341 12.96 14 13.0409 14H13.3663C13.4471 14 13.5126 13.9341 13.5126 13.8529V12.587C13.5126 12.5058 13.4471 12.4399 13.3663 12.4399Z" fill="#67748A"/>
<path d="M13.3663 8.58398H13.0409C12.96 8.58398 12.8945 8.64983 12.8945 8.73105V9.58876C12.8945 9.66999 12.96 9.73583 13.0409 9.73583H13.3663C13.4471 9.73583 13.5126 9.66999 13.5126 9.58876V8.73105C13.5126 8.64983 13.4471 8.58398 13.3663 8.58398Z" fill="#67748A"/>
<path d="M13.3666 5.27222H13.0411C12.9603 5.27222 12.8948 5.33806 12.8948 5.41929V8.13677C12.8948 8.218 12.9603 8.28384 13.0411 8.28384H13.3666C13.4474 8.28384 13.5129 8.218 13.5129 8.13677V5.41929C13.5129 5.33806 13.4474 5.27222 13.3666 5.27222Z" fill="#67748A"/>
<path d="M14.2945 5.49927H13.9691C13.8883 5.49927 13.8228 5.56511 13.8228 5.64634V9.08972C13.8228 9.17094 13.8883 9.23679 13.9691 9.23679H14.2945C14.3754 9.23679 14.4409 9.17094 14.4409 9.08972V5.64634C14.4409 5.56511 14.3754 5.49927 14.2945 5.49927Z" fill="#67748A"/>
<path d="M14.2945 13.1658H13.9691C13.8883 13.1658 13.8228 13.2316 13.8228 13.3128V13.8528C13.8228 13.9341 13.8883 13.9999 13.9691 13.9999H14.2945C14.3754 13.9999 14.4409 13.9341 14.4409 13.8528V13.3128C14.4409 13.2316 14.3754 13.1658 14.2945 13.1658Z" fill="#67748A"/>
<path d="M15.1976 5.77148H14.8722C14.7913 5.77148 14.7258 5.83733 14.7258 5.91855V6.77626C14.7258 6.85749 14.7913 6.92333 14.8722 6.92333H15.1976C15.2784 6.92333 15.3439 6.85749 15.3439 6.77626V5.91855C15.3439 5.83733 15.2784 5.77148 15.1976 5.77148Z" fill="#67748A"/>
<path d="M15.1976 7.2229H14.8722C14.7913 7.2229 14.7258 7.28875 14.7258 7.36997V8.99872C14.7258 9.07994 14.7913 9.14579 14.8722 9.14579H15.1976C15.2784 9.14579 15.3439 9.07994 15.3439 8.99872V7.36997C15.3439 7.28875 15.2784 7.2229 15.1976 7.2229Z" fill="#67748A"/>
<path d="M16.1249 5.9978H15.7994C15.7186 5.9978 15.6531 6.06365 15.6531 6.14487V6.68488C15.6531 6.7661 15.7186 6.83195 15.7994 6.83195H16.1249C16.2057 6.83195 16.2712 6.7661 16.2712 6.68488V6.14487C16.2712 6.06365 16.2057 5.9978 16.1249 5.9978Z" fill="#67748A"/>
<path d="M16.1249 7.08667H15.7994C15.7186 7.08667 15.6531 7.15252 15.6531 7.23374V7.72839C15.6531 7.80962 15.7186 7.87546 15.7994 7.87546H16.1249C16.2057 7.87546 16.2712 7.80962 16.2712 7.72839V7.23374C16.2712 7.15252 16.2057 7.08667 16.1249 7.08667Z" fill="#67748A"/>
<path d="M16.1249 8.13013H15.7994C15.7186 8.13013 15.6531 8.19597 15.6531 8.2772V9.08933C15.6531 9.17056 15.7186 9.23641 15.7994 9.23641H16.1249C16.2057 9.23641 16.2712 9.17056 16.2712 9.08933V8.2772C16.2712 8.19597 16.2057 8.13013 16.1249 8.13013Z" fill="#67748A"/>
<path d="M17.0406 6.27026H16.7152C16.6344 6.27026 16.5688 6.33611 16.5688 6.41733V9.22553C16.5688 9.30675 16.6344 9.3726 16.7152 9.3726H17.0406C17.1214 9.3726 17.187 9.30675 17.187 9.22553V6.41733C17.187 6.33611 17.1214 6.27026 17.0406 6.27026Z" fill="#67748A"/>
<path d="M17.9508 7.08667H17.6253C17.5445 7.08667 17.479 7.15252 17.479 7.23374V9.13462C17.479 9.21584 17.5445 9.28169 17.6253 9.28169H17.9508C18.0316 9.28169 18.0971 9.21584 18.0971 9.13462V7.23374C18.0971 7.15252 18.0316 7.08667 17.9508 7.08667Z" fill="#67748A"/>
<path d="M18.8536 8.13013H18.5282C18.4474 8.13013 18.3818 8.19597 18.3818 8.2772V8.8172C18.3818 8.89843 18.4474 8.96427 18.5282 8.96427H18.8536C18.9344 8.96427 19 8.89843 19 8.8172V8.2772C19 8.19597 18.9344 8.13013 18.8536 8.13013Z" fill="#67748A"/>
</svg>
