<svg xmlns="http://www.w3.org/2000/svg" width="24" height="24" fill="none" viewBox="0 0 800 581.818">
<path fill="#009954" d="M0 193.636c0-40.65 0-60.977 6.382-77.1a90.91 90.91 0 0 1 51.064-51.059c16.123-6.386 36.445-6.386 77.1-6.386h276.364c40.65 0 60.977 0 77.1 6.382a90.91 90.91 0 0 1 51.064 51.064c6.382 16.123 6.382 36.445 6.382 77.1v194.545c0 40.65 0 60.977-6.382 77.1a90.91 90.91 0 0 1-51.064 51.064c-16.123 6.382-36.45 6.382-77.1 6.382H134.545c-40.65 0-60.977 0-77.104-6.382a90.91 90.91 0 0 1-51.059-51.064C0 449.159 0 428.832 0 388.182z"/><mask id="A" width="160" height="128" x="24" y="32" maskUnits="userSpaceOnUse"><rect width="160" height="128" x="24" y="32" fill="#fff" rx="20"/></mask><g mask="url(#A)" transform="matrix(4.545455 0 0 4.545455 -36.363636 -145.45454)">
<path fill="#0ebc5f" d="M24 32h160v128H24Z"/><g filter="url(#C)"><rect width="144" height="102" fill="url(#B)" rx="25.6" transform="matrix(1 0 0 -1 8 147)"/></g></g>
<path stroke="#fff" stroke-linecap="round" stroke-width="54.546" d="M327.273 404.546h381.818m-90.909 86.364V200"/>
<defs><linearGradient id="B" x1="122.24" x2="20.76" y1="43.31" y2="43.31" gradientUnits="userSpaceOnUse"><stop stop-color="#0ebc5f"/><stop offset=".95" stop-color="#78c9ff"/></linearGradient><filter id="C" width="168" height="126" x="-4" y="33" color-interpolation-filters="sRGB" filterUnits="userSpaceOnUse"><feFlood flood-opacity="0"/><feBlend in="SourceGraphic"/><feGaussianBlur stdDeviation="6"/></filter></defs>
</svg>