<?xml version="1.0" encoding="UTF-8"?>
<svg xmlns="http://www.w3.org/2000/svg" xmlns:xlink="http://www.w3.org/1999/xlink" width="24px" height="24px" viewBox="0 0 24 57" version="1.1">
<g id="surface1">
<path style=" stroke:none;fill-rule:nonzero;fill:rgb(17.254902%,40.392157%,56.862748%);fill-opacity:1;" d="M 18.136719 1.449219 C 18.460938 1.839844 18.746094 2.21875 19.050781 2.621094 C 23.003906 7.878906 24.191406 14.171875 23.039062 20.582031 C 22.96875 20.988281 22.75 21.007812 22.445312 21.300781 C 20.546875 23.117188 18.71875 25 17.582031 27.390625 C 17.105469 28.398438 16.863281 29.527344 16.632812 30.621094 C 16.5625 30.949219 16.796875 31.566406 17.058594 31.679688 C 17.347656 31.804688 17.960938 31.632812 18.199219 31.375 C 19.410156 30.074219 20.574219 28.722656 21.691406 27.34375 C 22.457031 26.398438 23.117188 25.375 23.894531 24.421875 C 24.105469 26.507812 24.070312 28.554688 23.105469 30.425781 C 22.699219 31.617188 22.179688 31.757812 21.527344 32.472656 C 20.785156 33.027344 19.929688 33.863281 19.40625 34.566406 C 18.585938 35.871094 18.628906 36.921875 19.859375 37.835938 C 19.933594 37.882812 20.339844 38.078125 20.472656 38.105469 C 20.191406 38.289062 19.949219 38.351562 19.3125 38.535156 C 19.289062 39.480469 18.492188 40.113281 18.257812 40.558594 C 18.148438 40.980469 18.109375 41.046875 18.074219 41.519531 C 17.773438 45.59375 17.164062 50 15.636719 53.835938 C 15.121094 55.128906 14.5 55.941406 13.207031 56.480469 C 13.050781 56.542969 12.328125 56.917969 12.234375 56.9375 C 12.550781 56.433594 12.613281 55.695312 12.191406 55.125 C 11.886719 54.71875 10.679688 54.742188 10.289062 54.367188 C 10.363281 54.351562 10.882812 54.390625 10.953125 54.390625 C 11.570312 54.414062 12.152344 54.382812 12.335938 53.628906 C 12.480469 53.027344 12.15625 52.421875 11.542969 52 C 11.125 51.710938 10.839844 51.628906 10.484375 51.269531 C 10.398438 51.183594 10.265625 50.703125 10.355469 50.386719 C 10.363281 50.367188 10.378906 50.351562 10.398438 50.347656 C 10.417969 50.339844 10.4375 50.34375 10.453125 50.359375 C 10.855469 50.714844 11.382812 51.09375 11.714844 51.492188 C 11.933594 51.6875 12.203125 51.914062 12.390625 51.910156 C 12.589844 51.90625 12.703125 51.667969 12.933594 51.507812 C 13.46875 51.035156 13.65625 50.804688 13.992188 50.164062 C 14.050781 49.808594 13.925781 49.207031 13.8125 48.773438 C 13.347656 46.945312 13.199219 45.050781 13.679688 43.21875 C 14.023438 41.90625 14.515625 40.566406 15.25 39.4375 C 16.425781 37.632812 16.480469 35.976562 15.25 34.246094 C 13.144531 31.289062 13.386719 28.300781 15.089844 25.269531 C 16.304688 23.109375 17.867188 21.230469 19.597656 19.460938 C 19.957031 19.097656 20.191406 19.058594 20.289062 18.558594 C 21.558594 12.765625 20.777344 6.890625 17.988281 1.742188 C 17.863281 1.519531 16.820312 0.0820312 16.804688 0 C 16.839844 -0.0195312 18.101562 1.472656 18.136719 1.449219 Z M 6.726562 32.773438 C 6.65625 31.925781 6.648438 31.128906 6.523438 30.347656 C 6.015625 27.234375 4.347656 24.726562 2.222656 22.472656 C 2.054688 22.292969 1.898438 22.089844 1.699219 21.957031 C 0.636719 21.234375 0.3125 20.171875 0.175781 18.972656 C -0.589844 12.285156 1.125 6.355469 5.601562 1.253906 C 5.632812 1.222656 6.519531 0.0742188 6.664062 0.015625 C 5.40625 2.1875 3.914062 4.308594 3.203125 7.9375 C 2.515625 11.449219 2.511719 14.933594 3.25 18.421875 C 3.328125 18.777344 3.589844 19.132812 3.851562 19.40625 C 5.710938 21.347656 7.464844 23.382812 8.53125 25.863281 C 9.042969 27.050781 9.386719 28.359375 9.535156 29.644531 C 9.738281 31.386719 8.648438 32.507812 6.726562 32.773438 Z M 4.835938 38.257812 C 6.53125 37.136719 7.789062 37.484375 8.5 39.011719 C 9.257812 40.636719 9.738281 42.976562 9.820312 44.765625 C 9.394531 43.730469 8.800781 42.085938 8.382812 41.042969 C 8.1875 40.554688 7.925781 40.199219 7.320312 40.210938 C 6.753906 40.21875 6.378906 39.890625 6.257812 39.363281 C 6.199219 39.121094 6.132812 38.757812 5.984375 38.59375 C 5.738281 38.320312 5.328125 38.316406 4.835938 38.257812 Z M 4.242188 32.933594 C 2.027344 31.460938 0.425781 29.578125 0.121094 26.769531 C 1.339844 27.289062 3.550781 30.550781 4.242188 32.933594 Z M 4.242188 32.933594 "/>
</g>
</svg>
