<svg width="24" height="24" viewBox="0 0 24 24" fill="none" xmlns="http://www.w3.org/2000/svg">
<path fill-rule="evenodd" clip-rule="evenodd" d="M20 4H4V20H20V4ZM9.59994 9.64715C10.5096 9.64715 11.247 8.90973 11.247 8.00009C11.247 7.09044 10.5096 6.35303 9.59994 6.35303C8.69029 6.35303 7.95288 7.09044 7.95288 8.00009C7.95288 8.90973 8.69029 9.64715 9.59994 9.64715ZM12.047 13.5998C12.9566 13.5998 13.694 12.8624 13.694 11.9527C13.694 11.0431 12.9566 10.3057 12.047 10.3057C11.1373 10.3057 10.3999 11.0431 10.3999 11.9527C10.3999 12.8624 11.1373 13.5998 12.047 13.5998ZM16.1413 16.0943C16.1413 17.004 15.4039 17.7414 14.4942 17.7414C13.5846 17.7414 12.8472 17.004 12.8472 16.0943C12.8472 15.1847 13.5846 14.4473 14.4942 14.4473C15.4039 14.4473 16.1413 15.1847 16.1413 16.0943Z" fill="#00D891"/>
</svg>
