<svg width="20" height="20" viewBox="0 0 20 20" fill="none" xmlns="http://www.w3.org/2000/svg">
<path d="M17.3201 2.66547C17.6962 3.02713 17.9421 3.50453 18 4.0253C18 4.2423 17.9421 4.387 17.8119 4.66183C17.6817 4.9367 16.0759 7.7143 15.5986 8.481C15.3237 8.92947 15.179 9.46473 15.179 9.98553C15.179 10.5208 15.3237 11.0416 15.5986 11.4901C16.0759 12.2568 17.6817 15.0488 17.8119 15.3237C17.9421 15.5986 18 15.7287 18 15.9457C17.9421 16.4665 17.7107 16.9439 17.3345 17.2911C16.9729 17.6673 16.4955 17.9132 15.9891 17.9566C15.7722 17.9566 15.6275 17.8987 15.3671 17.7685C15.1067 17.6383 12.2713 16.0759 11.5045 15.5986C11.4466 15.5696 11.3888 15.5262 11.3165 15.4973L7.52624 13.255C7.61302 13.9783 7.93129 14.6727 8.45206 15.179C8.55336 15.2803 8.6546 15.3671 8.77035 15.4539C8.68354 15.4973 8.58227 15.5407 8.49548 15.5986C7.72875 16.0759 4.9367 17.6817 4.66187 17.8119C4.38699 17.9421 4.25678 18 4.0253 18C3.50453 17.9421 3.02712 17.7107 2.67992 17.3345C2.30381 16.9729 2.05788 16.4955 2 15.9747C2.01445 15.7577 2.07233 15.5407 2.18805 15.3526C2.31826 15.0778 3.92407 12.2857 4.40145 11.519C4.67632 11.0705 4.82098 10.5497 4.82098 10.0145C4.82098 9.4792 4.67632 8.9584 4.40145 8.50993C3.92407 7.7143 2.30381 4.92223 2.18805 4.64737C2.07233 4.4593 2.01445 4.2423 2 4.0253C2.05788 3.50453 2.28932 3.02713 2.66547 2.66547C3.02712 2.28933 3.50453 2.05787 4.0253 2C4.2423 2.01447 4.45929 2.07233 4.66187 2.18807C4.89331 2.28933 6.93307 3.4756 8.01807 4.11213L8.264 4.25677C8.35082 4.31463 8.42315 4.35803 8.48103 4.387L8.59675 4.4593L12.4593 6.74503C12.3725 5.87703 11.9241 5.08137 11.2296 4.5461C11.3165 4.50273 11.4177 4.4593 11.5045 4.40143C12.2713 3.92407 15.0633 2.3038 15.3382 2.18807C15.5262 2.07233 15.7432 2.01447 15.9747 2C16.481 2.05787 16.9584 2.28933 17.3201 2.66547ZM10.2025 11.0271L11.0271 10.2025C11.1429 10.0868 11.1429 9.9132 11.0271 9.79747L10.2025 8.97287C10.0868 8.85713 9.9132 8.85713 9.79748 8.97287L8.97286 9.79747C8.85714 9.9132 8.85714 10.0868 8.97286 10.2025L9.79748 11.0271C9.89875 11.1284 10.0868 11.1284 10.2025 11.0271Z" fill="#FF6B4C"/>
</svg>
