<?xml version="1.0" encoding="UTF-8"?>
<svg xmlns="http://www.w3.org/2000/svg" xmlns:xlink="http://www.w3.org/1999/xlink" width="24px" height="24px" viewBox="0 0 24 24" version="1.1">
<g id="surface1">
<path style=" stroke:none;fill-rule:nonzero;fill:rgb(13.725491%,12.156863%,12.54902%);fill-opacity:1;" d="M 16.265625 13.292969 C 15.332031 13.292969 14.492188 13.707031 13.917969 14.355469 L 12.445312 13.316406 C 12.609375 12.878906 12.691406 12.414062 12.691406 11.945312 C 12.691406 11.46875 12.605469 11.015625 12.453125 10.59375 L 13.921875 9.566406 C 14.496094 10.214844 15.332031 10.625 16.265625 10.625 C 17.992188 10.625 19.398438 9.222656 19.398438 7.5 C 19.398438 5.773438 17.992188 4.371094 16.265625 4.371094 C 14.539062 4.371094 13.132812 5.773438 13.132812 7.5 C 13.132812 7.808594 13.179688 8.105469 13.265625 8.386719 L 11.796875 9.414062 C 11.167969 8.640625 10.277344 8.121094 9.289062 7.964844 L 9.289062 6.195312 C 10.710938 5.898438 11.777344 4.640625 11.777344 3.136719 C 11.777344 1.410156 10.375 0.0117188 8.648438 0.0117188 C 6.921875 0.0117188 5.515625 1.410156 5.515625 3.136719 C 5.515625 4.621094 6.554688 5.863281 7.945312 6.179688 L 7.945312 7.972656 C 6.050781 8.304688 4.601562 9.957031 4.601562 11.945312 C 4.601562 13.941406 6.0625 15.601562 7.972656 15.921875 L 7.972656 17.8125 C 6.570312 18.121094 5.515625 19.371094 5.515625 20.863281 C 5.515625 22.589844 6.917969 23.988281 8.648438 23.988281 C 10.375 23.988281 11.777344 22.589844 11.777344 20.863281 C 11.777344 19.371094 10.722656 18.121094 9.320312 17.8125 L 9.320312 15.921875 C 10.285156 15.757812 11.160156 15.25 11.78125 14.492188 L 13.261719 15.539062 C 13.179688 15.824219 13.136719 16.121094 13.132812 16.417969 C 13.132812 18.140625 14.539062 19.542969 16.265625 19.542969 C 17.992188 19.542969 19.398438 18.140625 19.398438 16.417969 C 19.398438 14.695312 17.992188 13.292969 16.265625 13.292969 Z M 16.265625 5.980469 C 17.105469 5.980469 17.785156 6.664062 17.785156 7.5 C 17.785156 8.332031 17.105469 9.015625 16.265625 9.015625 C 15.429688 9.015625 14.746094 8.332031 14.746094 7.5 C 14.746094 6.664062 15.429688 5.980469 16.265625 5.980469 Z M 7.128906 3.136719 C 7.128906 2.300781 7.808594 1.621094 8.648438 1.621094 C 9.484375 1.621094 10.164062 2.300781 10.164062 3.136719 C 10.164062 3.972656 9.484375 4.652344 8.648438 4.652344 C 7.808594 4.652344 7.128906 3.972656 7.128906 3.136719 Z M 10.164062 20.863281 C 10.164062 21.699219 9.484375 22.378906 8.648438 22.378906 C 7.808594 22.378906 7.128906 21.699219 7.128906 20.863281 C 7.128906 20.027344 7.808594 19.347656 8.648438 19.347656 C 9.484375 19.347656 10.164062 20.027344 10.164062 20.863281 Z M 8.644531 14.058594 C 7.480469 14.058594 6.527344 13.109375 6.527344 11.945312 C 6.527344 10.777344 7.480469 9.828125 8.644531 9.828125 C 9.8125 9.828125 10.765625 10.777344 10.765625 11.945312 C 10.765625 13.109375 9.816406 14.058594 8.644531 14.058594 Z M 16.265625 17.933594 C 15.429688 17.933594 14.746094 17.253906 14.746094 16.417969 C 14.746094 15.582031 15.429688 14.902344 16.265625 14.902344 C 17.105469 14.902344 17.785156 15.582031 17.785156 16.417969 C 17.785156 17.253906 17.105469 17.933594 16.265625 17.933594 Z M 16.265625 17.933594 "/>
</g>
</svg>
