<svg width="20" height="20" viewBox="0 0 20 20" fill="none" xmlns="http://www.w3.org/2000/svg">
<path d="M10 2C9.91029 2.00054 9.82086 2.01014 9.73307 2.02865L9.73177 2.02734L3.08594 3.35677L3.08464 3.35807C2.77984 3.41594 2.50476 3.57828 2.30678 3.81714C2.1088 4.056 2.00031 4.35643 2 4.66667V15.3333C2.00007 15.644 2.1086 15.9449 2.30687 16.184C2.50513 16.4232 2.78068 16.5856 3.08594 16.6432L9.73177 17.9727C9.82003 17.9908 9.9099 18 10 18C10.3536 18 10.6928 17.8595 10.9428 17.6095C11.1929 17.3594 11.3333 17.0203 11.3333 16.6667V3.33333C11.3333 2.97971 11.1929 2.64057 10.9428 2.39052C10.6928 2.14048 10.3536 2 10 2ZM12.6667 3.33333V5.33333H14V6.66667H12.6667V8H14V9.33333H12.6667V10.6667H14V12H12.6667V13.3333H14V14.6667H12.6667V16.6667H16.6667C17.4033 16.6667 18 16.07 18 15.3333V4.66667C18 3.93 17.4033 3.33333 16.6667 3.33333H12.6667ZM15.3333 5.33333H16C16.368 5.33333 16.6667 5.632 16.6667 6C16.6667 6.368 16.368 6.66667 16 6.66667H15.3333V5.33333ZM4.1237 6.66667H5.72526L6.55469 8.66016C6.62202 8.82282 6.67586 9.01126 6.72786 9.22526H6.75C6.78 9.09659 6.83902 8.9012 6.92969 8.64453L7.85677 6.66667H9.3151L7.57292 9.97005L9.36719 13.332H7.8112L6.80859 11.1602C6.77059 11.0835 6.72614 10.9288 6.6888 10.7148H6.67448C6.65181 10.8175 6.60706 10.9724 6.53906 11.1784L5.52995 13.3333H3.96615L5.82161 9.99609L4.1237 6.66667ZM15.3333 8H16C16.368 8 16.6667 8.29867 16.6667 8.66667C16.6667 9.03467 16.368 9.33333 16 9.33333H15.3333V8ZM15.3333 10.6667H16C16.368 10.6667 16.6667 10.9653 16.6667 11.3333C16.6667 11.7013 16.368 12 16 12H15.3333V10.6667ZM15.3333 13.3333H16C16.368 13.3333 16.6667 13.632 16.6667 14C16.6667 14.368 16.368 14.6667 16 14.6667H15.3333V13.3333Z" fill="#25A46C"/>
</svg>
