<svg width="16" height="16" viewBox="0 0 16 16" fill="none" xmlns="http://www.w3.org/2000/svg">
<g clip-path="url(#clip0_3808_1150)">
<path d="M8.18606 9.14286C10.6521 9.14286 12.6512 7.09616 12.6512 4.57143C12.6512 2.0467 10.6521 0 8.18606 0C5.72005 0 3.72095 2.0467 3.72095 4.57143C3.72095 7.09616 5.72005 9.14286 8.18606 9.14286Z" fill="#036C70"/>
<path d="M11.907 12.9522C14.1675 12.9522 16 11.0761 16 8.76177C16 6.44743 14.1675 4.57129 11.907 4.57129C9.64648 4.57129 7.81396 6.44743 7.81396 8.76177C7.81396 11.0761 9.64648 12.9522 11.907 12.9522Z" fill="#1A9BA1"/>
<path d="M8.74409 16.0001C10.4908 16.0001 11.9069 14.5504 11.9069 12.762C11.9069 10.9737 10.4908 9.52393 8.74409 9.52393C6.99733 9.52393 5.5813 10.9737 5.5813 12.762C5.5813 14.5504 6.99733 16.0001 8.74409 16.0001Z" fill="#37C6D0"/>
<path opacity="0.2" d="M7.50523 3.80957H3.7843C3.39395 6.1568 4.83054 8.41721 7.08477 9.00271C6.23121 10.0012 5.70768 11.2502 5.58895 12.5715H7.50523C7.88071 12.57 8.18474 12.2587 8.18617 11.8743V4.50671C8.18596 4.12178 7.88121 3.80978 7.50523 3.80957Z" fill="black"/>
<path d="M0.682047 3.80957H7.504C7.88068 3.80957 8.18605 4.1222 8.18605 4.50786V11.4922C8.18605 11.8779 7.88068 12.1905 7.504 12.1905H0.682047C0.305363 12.1905 0 11.8779 0 11.4922V4.50786C0 4.1222 0.305363 3.80957 0.682047 3.80957Z" fill="url(#paint0_linear_3808_1150)"/>
<path d="M3.04621 7.91448C2.88638 7.80593 2.75286 7.66143 2.65588 7.492C2.56192 7.31488 2.51508 7.11559 2.52007 6.91409C2.5117 6.64128 2.60162 6.37484 2.77272 6.16552C2.95251 5.95594 3.1849 5.80074 3.44472 5.71675C3.74082 5.61697 4.05096 5.5678 4.36267 5.57123C4.77258 5.5559 5.18193 5.61458 5.57197 5.74457V6.62076C5.40249 6.51565 5.21791 6.43851 5.02499 6.39219C4.81567 6.33964 4.60088 6.31328 4.38536 6.31371C4.15809 6.30517 3.93227 6.35411 3.72787 6.45619C3.57007 6.52587 3.46774 6.68482 3.46741 6.86076C3.46677 6.96749 3.50682 7.07027 3.57904 7.14724C3.66434 7.23799 3.76525 7.31185 3.87672 7.36515C4.00074 7.42838 4.18679 7.51245 4.43486 7.61734C4.46217 7.62618 4.48879 7.63713 4.51448 7.65011C4.75862 7.74779 4.99415 7.86671 5.21848 8.00554C5.38837 8.11277 5.53095 8.25979 5.63449 8.43448C5.74064 8.63251 5.79209 8.8564 5.78332 9.08211C5.79544 9.3622 5.71174 9.63784 5.54667 9.86154C5.38213 10.0672 5.16216 10.2187 4.91411 10.2973C4.62236 10.391 4.31786 10.4362 4.01215 10.4314C3.73787 10.4327 3.46399 10.4098 3.19355 10.3629C2.96521 10.3246 2.74237 10.2576 2.53011 10.1632V9.23943C2.733 9.38778 2.95967 9.49867 3.19988 9.56706C3.43928 9.64343 3.68814 9.68423 3.93886 9.6882C4.17091 9.70324 4.40255 9.65292 4.60863 9.54268C4.75299 9.45927 4.84079 9.3013 4.83709 9.13163C4.83806 9.01357 4.79244 8.90011 4.71058 8.81696C4.60879 8.71465 4.49093 8.63056 4.36194 8.5682C4.2131 8.49201 3.99393 8.39157 3.70445 8.26686C3.47415 8.17207 3.25365 8.05403 3.04621 7.91448Z" fill="white"/>
</g>
<defs>
<linearGradient id="paint0_linear_3808_1150" x1="1.42208" y1="3.26395" x2="6.95471" y2="12.6234" gradientUnits="userSpaceOnUse">
<stop stop-color="#058F92"/>
<stop offset="0.5" stop-color="#038489"/>
<stop offset="1" stop-color="#026D71"/>
</linearGradient>
<clipPath id="clip0_3808_1150">
<rect width="16" height="16" fill="white"/>
</clipPath>
</defs>
</svg>
