<svg width="20" height="20" viewBox="0 0 20 20" fill="none" xmlns="http://www.w3.org/2000/svg">
<path d="M5.36883 6.29036L10.1727 3.55706C10.2202 3.52996 10.2494 3.48027 10.2494 3.42607L10.25 1.787C10.25 1.54421 10.1486 1.30425 9.95281 1.15745C9.69856 0.967741 9.37272 0.949673 9.10473 1.10212L2.38424 4.92569C2.14774 5.06006 2.00229 5.30849 2.00229 5.57781L2 14.2125C2 14.4547 2.10078 14.6952 2.29663 14.842C2.55031 15.0317 2.87728 15.0509 3.14528 14.8979L4.56828 14.0882C4.61581 14.0611 4.64502 14.0115 4.64502 13.9573L4.64674 7.52235C4.64731 7.01363 4.92218 6.54443 5.36883 6.29036Z" fill="#FFC11E"/>
<path d="M16.8675 5.1022C16.7479 5.03388 16.6168 5 16.4856 5C16.3545 5 16.2234 5.03388 16.1037 5.1022L9.38419 8.92551C9.14887 9.05933 9.00229 9.30948 9.00229 9.57769L9 18.2458C9 18.5179 9.14257 18.7619 9.3819 18.898C9.62123 19.034 9.90636 19.034 10.1457 18.898L16.8652 15.0741C17.1006 14.9403 17.2471 14.6901 17.2471 14.4219L17.25 5.75382C17.2494 5.48222 17.1069 5.23829 16.8675 5.1022Z" fill="#EF1161"/>
<path d="M8.98787 8.34987L13.4227 5.82707C13.4702 5.79997 13.4994 5.75028 13.4994 5.69607L13.5 3.78703C13.5 3.54424 13.3986 3.3037 13.2028 3.15746C12.9485 2.96774 12.6227 2.94967 12.3546 3.10212L10.5152 4.1484L5.63427 6.92529C5.39775 7.05967 5.25229 7.30812 5.25229 7.57745L5.25057 14.1002L5.25 16.2125C5.25 16.4547 5.35079 16.6952 5.54665 16.842C5.80034 17.0323 6.12734 17.0504 6.39536 16.8979L8.18784 15.8782C8.23537 15.8511 8.26458 15.8014 8.26458 15.7472L8.2663 9.58192C8.2663 9.07318 8.54118 8.60396 8.98787 8.34987Z" fill="#FC6E6B"/>
</svg>
