<svg width="20" height="20" viewBox="0 0 20 20" fill="none" xmlns="http://www.w3.org/2000/svg">
<path fill-rule="evenodd" clip-rule="evenodd" d="M3.77778 18H16.2222C17.2041 18 18 17.2041 18 16.2222V3.77778C18 2.79594 17.2041 2 16.2222 2H3.77778C2.79594 2 2 2.79594 2 3.77778V16.2222C2 17.2041 2.79594 18 3.77778 18Z" fill="#007EBB"/>
<path fill-rule="evenodd" clip-rule="evenodd" d="M15.7777 15.7777H13.4034V11.7337C13.4034 10.625 12.9821 10.0054 12.1045 10.0054C11.1499 10.0054 10.6511 10.6502 10.6511 11.7337V15.7777H8.36291V8.07402H10.6511V9.11171C10.6511 9.11171 11.3391 7.83866 12.9738 7.83866C14.6079 7.83866 15.7777 8.83649 15.7777 10.9002V15.7777ZM5.63313 7.06528C4.85374 7.06528 4.22217 6.42876 4.22217 5.64373C4.22217 4.85869 4.85374 4.22217 5.63313 4.22217C6.41253 4.22217 7.04372 4.85869 7.04372 5.64373C7.04372 6.42876 6.41253 7.06528 5.63313 7.06528ZM4.45162 15.7777H6.83759V8.07402H4.45162V15.7777Z" fill="white"/>
</svg>
