<?xml version="1.0" encoding="UTF-8"?>
<svg xmlns="http://www.w3.org/2000/svg" xmlns:xlink="http://www.w3.org/1999/xlink" width="24px" height="24px" viewBox="0 0 24 24" version="1.1">
<g id="surface1">
<path style=" stroke:none;fill-rule:nonzero;fill:rgb(64.313728%,11.764706%,6.666667%);fill-opacity:1;" d="M 22.835938 17.457031 C 21.582031 18.113281 15.074219 20.773438 13.6875 21.507812 C 12.300781 22.238281 11.53125 22.21875 10.445312 21.695312 C 9.355469 21.167969 2.4375 18.394531 1.179688 17.792969 C 0.5625 17.492188 0.242188 17.25 0.242188 17.007812 L 0.242188 14.625 C 0.242188 14.625 9.242188 12.65625 10.707031 12.148438 C 12.167969 11.625 12.65625 11.605469 13.894531 12.054688 C 15.132812 12.507812 22.539062 13.835938 23.757812 14.289062 L 23.757812 16.632812 C 23.757812 16.875 23.476562 17.136719 22.835938 17.457031 Z M 22.835938 17.457031 "/>
<path style=" stroke:none;fill-rule:nonzero;fill:rgb(84.705883%,17.254902%,12.54902%);fill-opacity:1;" d="M 22.835938 15.09375 C 21.582031 15.75 15.074219 18.414062 13.6875 19.144531 C 12.300781 19.875 11.53125 19.855469 10.445312 19.332031 C 9.355469 18.804688 2.4375 16.011719 1.179688 15.414062 C -0.0546875 14.8125 -0.09375 14.398438 1.125 13.929688 C 2.34375 13.445312 9.226562 10.742188 10.6875 10.238281 C 12.148438 9.710938 12.636719 9.695312 13.875 10.144531 C 15.113281 10.59375 21.582031 13.164062 22.800781 13.613281 C 24.054688 14.0625 24.09375 14.4375 22.835938 15.09375 Z M 22.835938 15.09375 "/>
<path style=" stroke:none;fill-rule:nonzero;fill:rgb(64.313728%,11.764706%,6.666667%);fill-opacity:1;" d="M 22.835938 13.59375 C 21.582031 14.25 15.074219 16.914062 13.6875 17.644531 C 12.300781 18.355469 11.53125 18.355469 10.445312 17.832031 C 9.355469 17.304688 2.4375 14.511719 1.179688 13.914062 C 0.5625 13.613281 0.242188 13.367188 0.242188 13.125 L 0.242188 10.742188 C 0.242188 10.742188 9.242188 8.773438 10.707031 8.269531 C 12.167969 7.742188 12.65625 7.726562 13.894531 8.175781 C 15.132812 8.625 22.539062 9.957031 23.757812 10.40625 L 23.757812 12.75 C 23.757812 12.992188 23.476562 13.257812 22.835938 13.59375 Z M 22.835938 13.59375 "/>
<path style=" stroke:none;fill-rule:nonzero;fill:rgb(84.705883%,17.254902%,12.54902%);fill-opacity:1;" d="M 22.835938 11.210938 C 21.582031 11.867188 15.074219 14.53125 13.6875 15.261719 C 12.300781 15.976562 11.53125 15.976562 10.445312 15.449219 C 9.355469 14.925781 2.4375 12.132812 1.179688 11.53125 C -0.0742188 10.929688 -0.09375 10.519531 1.125 10.050781 C 2.34375 9.5625 9.226562 6.863281 10.6875 6.355469 C 12.148438 5.832031 12.636719 5.8125 13.875 6.261719 C 15.113281 6.710938 21.582031 9.28125 22.800781 9.730469 C 24.054688 10.179688 24.09375 10.554688 22.835938 11.210938 Z M 22.835938 11.210938 "/>
<path style=" stroke:none;fill-rule:nonzero;fill:rgb(64.313728%,11.764706%,6.666667%);fill-opacity:1;" d="M 22.835938 9.5625 C 21.582031 10.21875 15.074219 12.882812 13.6875 13.613281 C 12.300781 14.324219 11.53125 14.324219 10.445312 13.800781 C 9.355469 13.292969 2.4375 10.5 1.179688 9.898438 C 0.5625 9.601562 0.226562 9.355469 0.226562 9.113281 L 0.226562 6.730469 C 0.226562 6.730469 9.226562 4.761719 10.6875 4.257812 C 12.148438 3.730469 12.636719 3.710938 13.875 4.164062 C 15.113281 4.613281 22.519531 5.945312 23.738281 6.394531 L 23.738281 8.738281 C 23.757812 8.980469 23.476562 9.226562 22.835938 9.5625 Z M 22.835938 9.5625 "/>
<path style=" stroke:none;fill-rule:nonzero;fill:rgb(84.705883%,17.254902%,12.54902%);fill-opacity:1;" d="M 22.835938 7.179688 C 21.582031 7.835938 15.074219 10.5 13.6875 11.230469 C 12.300781 11.945312 11.53125 11.945312 10.445312 11.417969 C 9.355469 10.894531 2.4375 8.117188 1.179688 7.519531 C -0.0742188 6.917969 -0.09375 6.507812 1.125 6.039062 C 2.34375 5.550781 9.226562 2.851562 10.6875 2.34375 C 12.148438 1.820312 12.636719 1.800781 13.875 2.25 C 15.113281 2.699219 21.582031 5.269531 22.800781 5.71875 C 24.054688 6.167969 24.09375 6.542969 22.835938 7.179688 Z M 22.835938 7.179688 "/>
<path style=" stroke:none;fill-rule:nonzero;fill:rgb(100%,100%,100%);fill-opacity:1;" d="M 15.074219 4.894531 L 13.050781 5.117188 L 12.582031 6.207031 L 11.851562 4.988281 L 9.507812 4.78125 L 11.25 4.144531 L 10.726562 3.167969 L 12.375 3.804688 L 13.914062 3.300781 L 13.5 4.3125 Z M 12.46875 10.21875 L 8.664062 8.644531 L 14.117188 7.820312 Z M 12.46875 10.21875 "/>
<path style=" stroke:none;fill-rule:nonzero;fill:rgb(100%,100%,100%);fill-opacity:1;" d="M 10.105469 6.636719 C 10.105469 6.015625 8.804688 5.511719 7.199219 5.511719 C 5.59375 5.511719 4.292969 6.015625 4.292969 6.636719 C 4.292969 7.257812 5.59375 7.761719 7.199219 7.761719 C 8.804688 7.761719 10.105469 7.257812 10.105469 6.636719 Z M 10.105469 6.636719 "/>
<path style=" stroke:none;fill-rule:nonzero;fill:rgb(47.843137%,4.705882%,0%);fill-opacity:1;" d="M 17.492188 5.195312 L 20.71875 6.46875 L 17.492188 7.742188 Z M 17.492188 5.195312 "/>
<path style=" stroke:none;fill-rule:nonzero;fill:rgb(67.843139%,12.941177%,8.235294%);fill-opacity:1;" d="M 13.929688 6.617188 L 17.492188 5.195312 L 17.492188 7.742188 L 17.136719 7.894531 Z M 13.929688 6.617188 "/>
</g>
</svg>
