<svg width="20" height="20" viewBox="0 0 20 20" fill="none" xmlns="http://www.w3.org/2000/svg">
<path d="M18 2.4222V17.5778H13.54V16.1529C12.559 17.3046 11.1028 18 9.10739 18C5.21097 18 2 14.5169 2 10C2 5.48312 5.21097 2 9.10739 2C11.0998 2 12.559 2.69538 13.54 3.84711V2.4222H18ZM13.54 10C13.54 7.72759 12.0533 6.3182 10 6.3182C7.94669 6.3182 6.46002 7.72759 6.46002 10C6.46002 12.2724 7.94973 13.6973 10 13.6973C12.0503 13.6973 13.54 12.2724 13.54 10Z" fill="#182DC6"/>
<ellipse cx="10.1325" cy="10.1731" rx="2.13252" ry="2.17307" fill="#74D9F9"/>
</svg>
