<svg width="20" height="20" viewBox="0 0 20 20" fill="none" xmlns="http://www.w3.org/2000/svg">
<path fill-rule="evenodd" clip-rule="evenodd" d="M4.53294 11.4037V9.22046C4.53294 6.38776 6.91152 3.96496 9.99964 3.96496C13.0878 3.96496 15.4664 6.38776 15.4664 9.22046V11.4037H17.333V9.22046C17.333 5.16287 13.9808 2 9.99964 2C6.0185 2 2.66626 5.16287 2.66626 9.22046V11.4037H4.53294Z" fill="url(#paint0_linear_3440_312)"/>
<path fill-rule="evenodd" clip-rule="evenodd" d="M8.80028 11.4033V12.8588C8.80028 14.5432 10.2238 16.035 12.1336 16.035C14.0436 16.035 15.467 14.5432 15.467 12.8588V11.4033H17.3337V12.8588C17.3337 15.768 14.9366 18 12.1336 18C9.3307 18 6.93359 15.768 6.93359 12.8588V11.4033H8.80028Z" fill="url(#paint1_linear_3440_312)"/>
<path fill-rule="evenodd" clip-rule="evenodd" d="M13.0666 11.4033V12.1311C13.0666 12.667 13.535 13.2279 14.2666 13.2279C14.9983 13.2279 15.4667 12.667 15.4667 12.1311V11.4033H17.3333V12.1311C17.3333 13.8919 15.8914 15.1929 14.2666 15.1929C12.6419 15.1929 11.2 13.8919 11.2 12.1311V11.4033H13.0666Z" fill="#4579DF"/>
<path fill-rule="evenodd" clip-rule="evenodd" d="M4.53294 11.4043V9.94874C4.53294 8.26446 5.95641 6.77258 7.86631 6.77258C9.77621 6.77258 11.1996 8.26446 11.1996 9.94874V11.4043H13.0663V9.94874C13.0663 7.03954 10.6693 4.80762 7.86631 4.80762C5.06334 4.80762 2.66626 7.03954 2.66626 9.94874V11.4043H4.53294Z" fill="#4579DF"/>
<path d="M16.4001 13.0885C17.2837 13.0885 18.0001 12.3344 18.0001 11.4042C18.0001 10.474 17.2837 9.71997 16.4001 9.71997C15.5164 9.71997 14.8 10.474 14.8 11.4042C14.8 12.3344 15.5164 13.0885 16.4001 13.0885Z" fill="#73A3FF"/>
<path d="M12.1337 13.0885C13.0174 13.0885 13.7337 12.3344 13.7337 11.4042C13.7337 10.474 13.0174 9.71997 12.1337 9.71997C11.25 9.71997 10.5337 10.474 10.5337 11.4042C10.5337 12.3344 11.25 13.0885 12.1337 13.0885Z" fill="#73A3FF"/>
<path d="M7.86637 13.0885C8.75004 13.0885 9.46638 12.3344 9.46638 11.4042C9.46638 10.474 8.75004 9.71997 7.86637 9.71997C6.98273 9.71997 6.26636 10.474 6.26636 11.4042C6.26636 12.3344 6.98273 13.0885 7.86637 13.0885Z" fill="#73A3FF"/>
<path d="M3.60001 13.0885C4.48368 13.0885 5.20003 12.3344 5.20003 11.4042C5.20003 10.474 4.48368 9.71997 3.60001 9.71997C2.71635 9.71997 2 10.474 2 11.4042C2 12.3344 2.71635 13.0885 3.60001 13.0885Z" fill="#73A3FF"/>
<defs>
<linearGradient id="paint0_linear_3440_312" x1="18.7625" y1="9.01969" x2="5.50346" y2="11.5492" gradientUnits="userSpaceOnUse">
<stop stop-color="#162CC1"/>
<stop offset="1" stop-color="#4D94FF"/>
</linearGradient>
<linearGradient id="paint1_linear_3440_312" x1="18.0181" y1="13.3327" x2="9.99159" y2="17.1366" gradientUnits="userSpaceOnUse">
<stop stop-color="#162CC1"/>
<stop offset="1" stop-color="#4D94FF"/>
</linearGradient>
</defs>
</svg>
