<?xml version="1.0" encoding="UTF-8"?>
<svg xmlns="http://www.w3.org/2000/svg" xmlns:xlink="http://www.w3.org/1999/xlink" width="24px" height="24px" viewBox="0 0 24 24" version="1.1">
<g id="surface1">
<path style=" stroke:none;fill-rule:nonzero;fill:rgb(100%,40.000001%,0%);fill-opacity:1;" d="M 23.011719 9.59375 L 15.03125 9.59375 C 14.632812 9.59375 14.308594 9.285156 14.308594 8.90625 L 14.308594 1.054688 C 14.308594 0.472656 13.808594 0 13.191406 0 L 10.34375 0 C 9.730469 0 9.230469 0.472656 9.230469 1.054688 L 9.230469 8.859375 C 9.230469 9.265625 8.882812 9.59375 8.457031 9.59375 L 5.839844 9.605469 C 5.410156 9.609375 5.058594 9.277344 5.058594 8.871094 L 5.074219 1.054688 C 5.074219 0.472656 4.578125 0 3.960938 0 L 1.113281 0 C 0.5 0 0 0.472656 0 1.054688 L 0 23.042969 C 0 23.5625 0.441406 23.980469 0.988281 23.980469 L 23.011719 23.980469 C 23.558594 23.980469 24 23.5625 24 23.042969 L 24 10.527344 C 24 10.011719 23.558594 9.59375 23.011719 9.59375 Z M 19.269531 17.847656 C 19.269531 18.527344 18.6875 19.074219 17.972656 19.074219 L 15.722656 19.074219 C 15.003906 19.074219 14.421875 18.527344 14.421875 17.847656 L 14.421875 15.722656 C 14.421875 15.046875 15.003906 14.496094 15.722656 14.496094 L 17.972656 14.496094 C 18.6875 14.496094 19.269531 15.046875 19.269531 15.722656 Z M 19.269531 17.847656 "/>
</g>
</svg>
