<svg width="1080" height="1080" viewBox="0 0 1080 1080" fill="none" xmlns="http://www.w3.org/2000/svg">
<path d="M253 327.358C362.309 327.358 448.795 339.258 539.834 290.825C630.872 242.392 719.416 254.292 826.667 254.292L826.667 379.549C719.416 379.549 630.373 367.91 539.834 416.082C449.294 464.254 362.309 452.615 253 452.615L253 327.358Z" fill="black"/>
<path d="M826.669 752.31C717.36 752.31 630.874 740.411 539.835 788.843C448.797 837.276 360.252 825.377 253.001 825.377V700.12C360.252 700.12 449.295 711.758 539.835 663.586C630.375 615.415 717.36 627.053 826.669 627.053V752.31Z" fill="black"/>
<path d="M705.896 439.499C648.028 440.686 594.581 447.947 539.835 477.074C464.396 517.212 389.995 515.826 305.235 514.247C288.27 513.931 270.889 513.608 253.001 513.608V638.865C271.103 638.865 288.672 639.204 305.81 639.534C390.212 641.162 464.162 642.589 539.835 602.331C594.838 573.07 648.18 565.831 705.896 564.685V439.499Z" fill="black"/>
</svg>
