<svg width="20" height="20" viewBox="0 0 20 20" fill="none" xmlns="http://www.w3.org/2000/svg">
<path fill-rule="evenodd" clip-rule="evenodd" d="M16.2155 4.51532L12.3406 1.99976L10.0516 3.58355L7.71093 2.06402L6.10362 3.09816C5.99957 3.12424 5.90929 3.18373 5.84557 3.26419L3.90293 4.51408V6.56459L1.99951 8.01266V10.3823V11.7608L3.90293 13.2668V13.2752V13.2817V15.3931L5.89984 16.5661C5.97678 16.6673 6.08935 16.7298 6.20949 16.7479L8.13055 17.8763L9.95975 16.763L11.8658 18.0004L16.0371 15.4454V13.2029L17.0049 12.4032C17.1322 12.3833 17.2508 12.3132 17.3271 12.2C17.3501 12.1658 17.3679 12.1298 17.3807 12.0927L18 11.581V8.13749L16.2155 6.68942V4.51532ZM9.61305 15.8811V12.9594L6.40307 14.779C6.17594 14.9077 5.88464 14.8328 5.75243 14.6116C5.62022 14.3904 5.69717 14.1067 5.9243 13.978L7.59125 13.0331V11.5665L6.26953 10.7676L4.86156 11.5902C4.63621 11.7219 4.34391 11.6507 4.2087 11.4313C4.07349 11.2118 4.14656 10.9272 4.37192 10.7955L5.86628 9.9224V8.52728L4.34455 7.40467L2.95122 8.46469V9.55101L4.24775 8.7712C4.47135 8.63671 4.76456 8.7042 4.90266 8.92194C5.04077 9.13967 4.97146 9.4252 4.74787 9.55969L2.95122 10.6403V11.3197L4.61121 12.6331L6.05903 11.8841C6.29111 11.7641 6.57921 11.8499 6.70251 12.0759C6.82581 12.3019 6.73761 12.5825 6.50552 12.7026L4.85463 13.5566V14.8698L6.30693 15.7229L7.86799 14.7421C8.08883 14.6034 8.38335 14.6653 8.52582 14.8803C8.6683 15.0953 8.60477 15.3821 8.38394 15.5209L7.21421 16.2558L8.1217 16.7888L9.61305 15.8811ZM4.85463 6.61829L6.35478 7.72498L7.5908 6.89488V5.11091C7.5908 4.85499 7.80385 4.64753 8.06666 4.64753C8.32946 4.64753 8.54251 4.85499 8.54251 5.11091V7.38153L6.81799 8.53968V9.92666C6.83777 9.96158 6.85245 9.99799 6.86223 10.035L8.54295 11.0509V12.4937L9.61305 11.8871V10.7206L8.50071 10.1555C8.26771 10.0371 8.17738 9.75722 8.29894 9.53033C8.42051 9.30344 8.70794 9.21547 8.94094 9.33385L10.5648 10.1589V11.8941C10.6476 12.039 10.6422 12.2093 10.5648 12.345V13.3938H11.8757C12.0131 13.1848 12.2537 13.0463 12.5274 13.0463C12.9545 13.0463 13.3007 13.3835 13.3007 13.7993C13.3007 14.2152 12.9545 14.5523 12.5274 14.5523C12.3081 14.5523 12.1101 14.4634 11.9693 14.3206H10.5648V16.042L11.8809 16.8964L15.0854 14.9335V12.7738L16.0764 11.955L15.2119 11.4025C15.1523 11.4168 15.0899 11.4244 15.0257 11.4244C14.5987 11.4244 14.2525 11.0873 14.2525 10.6715C14.2525 10.2556 14.5987 9.91846 15.0257 9.91846C15.452 9.91846 15.7977 10.2544 15.799 10.6692L16.8329 11.3299L17.0483 11.152V8.57156L15.2638 7.1235V6.32725H13.1791C13.0417 6.53628 12.8012 6.67483 12.5274 6.67483C12.1003 6.67483 11.7541 6.3377 11.7541 5.92183C11.7541 5.91095 11.7544 5.90012 11.7548 5.88934C11.7544 5.88091 11.7541 5.87242 11.7541 5.86387C11.7541 5.79196 11.7709 5.72388 11.801 5.66315C11.9093 5.37471 12.1937 5.16884 12.5274 5.16884C12.7467 5.16884 12.9446 5.25771 13.0853 5.40049H15.2638V5.01131L12.3578 3.12475L10.5054 4.40644V7.69909L11.7281 8.48155C11.8266 8.43725 11.9363 8.41253 12.052 8.41253C12.479 8.41253 12.8252 8.74966 12.8252 9.16553C12.8252 9.5814 12.479 9.91852 12.052 9.91852C11.6765 9.91852 11.3635 9.65792 11.2934 9.31232L9.55368 8.19903V4.37415L7.70857 3.17632L6.69845 3.82623V6.21139C6.69845 6.46731 6.4854 6.67477 6.2226 6.67477C5.95979 6.67477 5.74674 6.46731 5.74674 6.21139V4.43855L4.85463 5.01254V6.61829Z" fill="#A164FD"/>
</svg>
