<svg width="20" height="20" viewBox="0 0 20 20" fill="none" xmlns="http://www.w3.org/2000/svg">
<path fill-rule="evenodd" clip-rule="evenodd" d="M5.57773 2L2 12.2121L9.89064 17.905L9.97186 17.9697L9.97606 17.9667L10.0223 18L10.2747 17.7847L10.4464 17.6292L18 12.2091L14.2834 2.15767L12.0742 8.92418H7.78071L5.57773 2ZM6.7229 8.92418L5.53215 5.18545L4.22232 8.92418H6.7229ZM3.86654 9.93971H7.04634L8.97473 15.9945L3.20394 11.831L3.86654 9.93971ZM8.10381 9.93971H11.7426L9.89971 15.5844L8.10381 9.93971ZM12.8052 9.93971L10.7802 16.1422L16.7842 11.8341L16.0838 9.93971H12.8052ZM15.7083 8.92418L14.3426 5.2309L13.1368 8.92418H15.7083Z" fill="#E24329"/>
</svg>
