<svg width="20" height="20" viewBox="0 0 20 20" fill="none" xmlns="http://www.w3.org/2000/svg">
<path d="M9.20037 17.2437C8.48699 16.4901 8.46576 16.4576 8.59406 16.315C8.79731 16.0891 17.4677 8.23138 17.5899 8.15936C17.6975 8.0978 18.7603 8.60589 18.9928 8.83001C19.0818 8.91592 18.3911 9.64701 14.6229 13.4537C12.1612 15.9413 10.0988 17.9881 10.0435 17.9997C9.98631 18.0122 9.60681 17.671 9.20037 17.2414V17.2437ZM7.25604 15.2412C6.87142 14.8583 6.62819 14.5576 6.65263 14.4951C6.69648 14.3819 11.68 10.3928 11.7731 10.3957C11.888 10.3999 13.0608 11.2824 13.0608 11.3645C13.0608 11.4509 8.05088 15.8816 7.95196 15.8816C7.92281 15.8816 7.60923 15.5929 7.25487 15.2403L7.25604 15.2412ZM5.44087 13.4005C5.13975 13.0674 4.95064 12.7984 4.99138 12.7609C5.2014 12.5668 7.36834 11.0788 7.43991 11.0797C7.5564 11.0811 8.60221 11.969 8.60221 12.0666C8.60221 12.1865 6.2555 13.9752 6.0981 13.9752C6.02231 13.9752 5.72658 13.7165 5.44087 13.4005ZM3.94749 11.8828C3.51632 11.451 3.46482 11.3703 3.56258 11.2805C3.7029 11.1514 10.5916 6.74894 10.7313 6.69708C10.8415 6.65747 11.7955 7.22946 11.7955 7.33518C11.7955 7.41072 4.73448 12.3075 4.56282 12.3507C4.49457 12.368 4.23639 12.1714 3.94749 11.882V11.8828ZM8.5414 11.1874C8.25701 10.9537 8.02586 10.7222 8.0276 10.6729C8.02935 10.6237 8.28063 10.4097 8.58562 10.1973C8.89082 9.98499 10.2585 9.01614 11.6259 8.04415C12.9925 7.07216 14.167 6.27677 14.2356 6.27677C14.4196 6.27677 15.3508 6.80972 15.3208 6.89816C15.2777 7.02642 9.30133 11.6112 9.17623 11.6112C9.11135 11.6118 8.82564 11.4209 8.54111 11.1871L8.5414 11.1874ZM2.55972 10.5009C2.22019 10.1454 2.17103 10.0596 2.25976 9.97949C2.33669 9.91006 6.60346 7.41441 7.11842 7.13727C7.20367 7.09147 8.10819 7.73763 8.07939 7.82348C8.04198 7.93465 3.22946 10.9261 3.0869 10.9261C3.01893 10.9262 2.78054 10.7348 2.5571 10.5009H2.55972ZM12.8764 10.5294C12.5642 10.3075 12.2965 10.09 12.2817 10.0462C12.2607 9.98367 15.0913 7.65429 15.7322 7.20575C15.8571 7.11855 15.9553 7.14758 16.4907 7.43005C16.8291 7.60852 17.1052 7.79073 17.1046 7.83509C17.103 7.94851 13.7326 10.883 13.5755 10.9118C13.5034 10.9241 13.1888 10.7526 12.8764 10.5307V10.5294ZM1.41051 9.29521L1 8.88354L1.18222 8.76661C1.28244 8.70231 3.31683 7.60362 5.70339 6.32482L10.0413 4L10.4561 4.20146C10.6843 4.31225 10.871 4.44045 10.871 4.48631C10.871 4.54909 1.95087 9.70636 1.84323 9.70636C1.83138 9.70636 1.63695 9.52112 1.41118 9.29469L1.41051 9.29521ZM8.08172 7.21986C7.88062 7.07041 7.7163 6.90845 7.71659 6.86005C7.71682 6.81165 8.53005 6.298 9.52361 5.71838L11.33 4.66487L11.7938 4.90965C12.0489 5.0443 12.2575 5.18045 12.2575 5.21214C12.2575 5.30251 8.71393 7.49634 8.57428 7.49374C8.50483 7.49259 8.28345 7.36915 8.0823 7.21966L8.08172 7.21986ZM11.701 6.76412C11.4576 6.61515 11.259 6.45328 11.2599 6.40402C11.2614 6.32093 12.4918 5.50491 12.6937 5.45306C12.7865 5.42926 13.6145 5.86185 13.6814 5.96901C13.7016 6.00134 13.6583 6.0805 13.5852 6.14494C13.3352 6.36533 12.3088 7.03915 12.2262 7.03713C12.1808 7.03601 11.9444 6.91309 11.701 6.76412Z" fill="#50ABF1"/>
</svg>
