<svg width="20" height="20" viewBox="0 0 20 20" fill="none" xmlns="http://www.w3.org/2000/svg">
<path fill-rule="evenodd" clip-rule="evenodd" d="M8.25642 2.47298C8.54825 2.5957 8.73055 2.68397 8.77543 2.96027C8.81351 3.19495 8.65707 3.42173 8.52442 3.58608C8.35572 3.7942 8.0095 4.31881 8.04352 5.14844C8.0775 5.97808 8.56047 6.51773 9.04821 6.75169C9.73182 7.07966 10.3774 7.64017 10.4175 8.42888C10.4665 9.38984 9.57128 9.85776 8.82031 9.73863C8.06934 9.6195 6.75925 8.7418 6.22866 6.99071C5.69807 5.23958 6.21983 3.29255 6.69189 2.64952C6.69189 2.64952 4.05261 3.68655 2.78807 6.50051C1.52353 9.31451 1.86568 12.2125 3.21049 14.4709C3.21049 14.4709 3.40911 12.0208 4.507 11.4919C5.60489 10.963 6.4334 12.3725 6.74358 13.159C7.05379 13.9456 7.40749 13.932 7.65373 13.8889C7.89997 13.8458 8.18158 13.4533 8.36253 12.9215C8.54348 12.3897 8.95161 11.2945 9.91547 11.1446C10.8794 10.9945 11.8256 11.8888 12.0827 13.0665C12.3181 14.1422 11.9317 15.0745 11.5236 15.5927C10.9413 16.3311 9.41619 17.4428 6.81161 17.5706C6.81161 17.5706 9.56448 18.7332 12.4704 17.2325C15.3764 15.7319 15.7852 12.0768 15.458 10.3508C15.1308 8.62484 14.2927 7.5024 13.2343 6.79119C12.4552 6.26745 11.5122 6.043 10.8821 5.89298C10.742 5.85966 10.6173 5.82997 10.5134 5.80151C9.97806 5.6544 9.69374 5.21446 9.77809 4.71856C9.77809 4.71856 10.244 5.11255 10.9161 5.23528C11.5882 5.358 12.4038 5.50584 12.7758 5.56971C13.1479 5.63358 13.4581 5.2525 13.5751 5.06662C13.6921 4.88075 13.6377 4.60804 13.5091 4.50972C13.4976 4.50086 13.483 4.48979 13.4659 4.4768L13.4655 4.47646L13.4654 4.47645C13.2924 4.34494 12.8616 4.01741 12.6303 3.78774C12.4759 3.63477 12.4017 3.4734 12.3238 3.30409C12.2267 3.09295 12.1238 2.86945 11.8528 2.63445C11.3644 2.21103 10.1529 1.53427 8.25439 2.47369L8.25642 2.47298ZM9.8733 4.05184C9.8733 4.05184 10.1257 3.75616 10.6801 3.75616C11.2344 3.75616 11.7861 4.12289 11.9711 4.28723C11.9711 4.28723 11.8051 3.54803 11.278 3.14255C10.7508 2.73707 10.3746 2.91075 10.1536 3.14255C9.95099 3.35496 9.90205 3.79091 9.87854 4.00043C9.87636 4.01957 9.87444 4.03682 9.87262 4.05184H9.8733ZM17.9997 5.19622C17.9998 5.19609 17.9999 5.19595 18 5.19582V5.19439C17.9999 5.195 17.9998 5.19561 17.9997 5.19622ZM15.9165 5.74483C16.064 6.26505 17.3853 6.06928 17.9997 5.19622C17.7576 6.79085 16.5521 7.28993 15.6913 7.15937C15.3748 7.11186 14.9626 6.84926 14.5221 6.56865C14.264 6.40422 13.9962 6.2336 13.7323 6.0965C14.235 6.02982 14.4782 5.72007 14.7251 5.40563C15.1133 4.91122 15.5107 4.40518 16.9402 4.81402C16.5355 4.86426 15.7668 5.22453 15.9165 5.74483Z" fill="#6753C2"/>
</svg>
