<svg width="20" height="20" viewBox="0 0 20 20" fill="none" xmlns="http://www.w3.org/2000/svg">
<mask id="mask0_3398_8476" style="mask-type:luminance" maskUnits="userSpaceOnUse" x="2" y="11" width="16" height="7">
<path d="M17.136 17.9876H2V11.2744H17.136V17.9876Z" fill="#43AF79"/>
</mask>
<g mask="url(#mask0_3398_8476)">
<path fill-rule="evenodd" clip-rule="evenodd" d="M11.9738 12.9299H2.76831C2.34382 12.9299 2 12.5596 2 12.1023C2 11.645 2.34382 11.2747 2.76831 11.2747H11.9738C12.3983 11.2747 12.7421 11.645 12.7421 12.1023C12.7421 12.5596 12.3983 12.9299 11.9738 12.9299Z" fill="#43AF79"/>
</g>
<path fill-rule="evenodd" clip-rule="evenodd" d="M10.0001 18.0001C9.25021 18.0001 8.50957 17.8801 7.79888 17.6427C7.3936 17.5074 7.16695 17.0439 7.29238 16.6074C7.41799 16.1687 7.8494 15.9246 8.25372 16.0611C8.81689 16.2494 9.40426 16.3446 10.0001 16.3446C12.6071 16.3446 14.8708 14.5424 15.6331 11.8588C15.7572 11.4222 16.1863 11.1759 16.5925 11.3104C16.9982 11.4429 17.2264 11.9063 17.1023 12.3429C16.1412 15.7261 13.2869 18.0001 10.0001 18.0001Z" fill="#43AF79"/>
<path fill-rule="evenodd" clip-rule="evenodd" d="M17.2317 8.72511H8.02661C7.60212 8.72511 7.2583 8.35474 7.2583 7.89747C7.2583 7.44019 7.60212 7.06982 8.02661 7.06982H17.2317C17.6562 7.06982 18 7.44019 18 7.89747C18 8.35474 17.6562 8.72511 17.2317 8.72511Z" fill="#43AF79"/>
<path fill-rule="evenodd" clip-rule="evenodd" d="M3.63284 8.72543C3.55851 8.72543 3.48302 8.71364 3.40811 8.68901C3.00206 8.55494 2.77387 8.09228 2.89815 7.65529C3.85949 4.27229 6.71375 2 10.0002 2C10.7506 2 11.4913 2.12001 12.2014 2.35754C12.6071 2.49307 12.8333 2.95655 12.7079 3.39313C12.5823 3.82971 12.1516 4.07532 11.7466 3.93855C11.1838 3.75233 10.596 3.65715 10.0002 3.65715C7.3937 3.65715 5.1297 5.45934 4.36734 8.14298C4.26612 8.49886 3.96206 8.72853 3.63303 8.72853" fill="#43AF79"/>
<path fill-rule="evenodd" clip-rule="evenodd" d="M15.3288 4.74366C15.3288 5.20093 14.985 5.5713 14.5605 5.5713C14.1364 5.5713 13.7922 5.20093 13.7922 4.74366C13.7922 4.28639 14.1364 3.91602 14.5605 3.91602C14.985 3.91602 15.3288 4.28639 15.3288 4.74366ZM6.208 15.2576C6.208 15.7149 5.86418 16.0853 5.43969 16.0853C5.01559 16.0853 4.67139 15.7149 4.67139 15.2576C4.67139 14.8004 5.01559 14.43 5.43969 14.43C5.86418 14.43 6.208 14.8004 6.208 15.2576Z" fill="#43AF79"/>
</svg>
