<svg width="20" height="20" viewBox="0 0 20 20" fill="none" xmlns="http://www.w3.org/2000/svg">
<mask id="mask0_3398_8456" style="mask-type:luminance" maskUnits="userSpaceOnUse" x="1" y="2" width="18" height="17">
<path d="M18.0004 2H1.99976V18.0031H18.0004V2Z" fill="white"/>
</mask>
<g mask="url(#mask0_3398_8456)">
<path d="M7.06824 14.8874C7.06824 15.4067 6.62102 15.8788 6.02472 15.8788C5.42842 15.8788 4.9812 15.4539 4.9812 14.8874V10.6388C4.9812 10.1195 5.42842 9.64746 6.02472 9.64746C6.62102 9.64746 7.06824 10.0723 7.06824 10.6388V14.8874Z" fill="#EDC947"/>
</g>
<mask id="mask1_3398_8456" style="mask-type:luminance" maskUnits="userSpaceOnUse" x="1" y="2" width="18" height="17">
<path d="M18.0004 2H1.99976V18.0031H18.0004V2Z" fill="white"/>
</mask>
<g mask="url(#mask1_3398_8456)">
<path d="M10.05 16.0204C10.05 16.5397 9.60282 17.0118 9.00652 17.0118C8.41023 17.0118 8.0127 16.5869 8.0127 16.0204V9.55311C8.0127 9.03384 8.45992 8.56177 9.05621 8.56177C9.65251 8.56177 10.0997 8.98663 10.0997 9.55311V16.0204H10.05Z" fill="#EDC947"/>
</g>
<mask id="mask2_3398_8456" style="mask-type:luminance" maskUnits="userSpaceOnUse" x="1" y="2" width="18" height="17">
<path d="M18.0004 2H1.99976V18.0031H18.0004V2Z" fill="white"/>
</mask>
<g mask="url(#mask2_3398_8456)">
<path d="M4.03699 13.9434C4.03699 14.4627 3.58977 14.9347 2.99347 14.9347C2.39717 14.9347 1.94995 14.5099 1.94995 13.9434V11.6303C1.94995 11.111 2.39717 10.6389 2.99347 10.6389C3.58977 10.6389 4.03699 11.111 4.03699 11.6303V13.9434Z" fill="#EDC947"/>
</g>
<mask id="mask3_3398_8456" style="mask-type:luminance" maskUnits="userSpaceOnUse" x="1" y="2" width="18" height="17">
<path d="M18.0004 2H1.99976V18.0031H18.0004V2Z" fill="white"/>
</mask>
<g mask="url(#mask3_3398_8456)">
<path d="M13.0312 17.0591C13.0312 17.5783 12.584 18.0504 11.9877 18.0504C11.4411 18.0504 10.9939 17.5783 10.9939 17.0591V8.46742C10.9939 7.94814 11.4411 7.47607 12.0374 7.47607C12.584 7.47607 13.0809 7.90094 13.0809 8.46742V17.0591H13.0312Z" fill="#EDC947"/>
</g>
<mask id="mask4_3398_8456" style="mask-type:luminance" maskUnits="userSpaceOnUse" x="1" y="2" width="18" height="17">
<path d="M18.0004 2H1.99976V18.0031H18.0004V2Z" fill="white"/>
</mask>
<g mask="url(#mask4_3398_8456)">
<path d="M16.311 16.6342C16.1123 16.6342 15.9632 16.587 15.7644 16.5398L14.5221 16.1621C14.3234 16.1149 14.1743 15.8789 14.2737 15.69C14.3234 15.5012 14.5718 15.3596 14.7706 15.454L16.0626 15.8317C16.311 15.9261 16.6092 15.8789 16.8576 15.69C17.1061 15.5484 17.2055 15.2652 17.2055 15.0291V7.1456C17.2055 6.76795 16.957 6.4375 16.6092 6.34309L4.43479 2.84978C4.18633 2.75537 3.88818 2.80258 3.63973 2.9442C3.44096 3.13302 3.29189 3.36906 3.29189 3.6523V9.08108C3.29189 9.31712 3.09312 9.45874 2.89436 9.45874C2.6459 9.45874 2.49683 9.26991 2.49683 9.08108V3.6523C2.49683 3.13302 2.74528 2.66096 3.19251 2.37771C3.63973 2.04727 4.18633 2.00006 4.68325 2.14168L16.8079 5.63498C17.5036 5.82381 18.0005 6.48471 18.0005 7.19281V15.0763C18.0005 15.5956 17.7521 16.0677 17.3049 16.3981C17.0067 16.4925 16.6589 16.6342 16.311 16.6342Z" fill="#EDC947"/>
</g>
</svg>
