<svg width="16" height="16" viewBox="0 0 16 16" fill="none" xmlns="http://www.w3.org/2000/svg">
<g clip-path="url(#clip0_3802_333)">
<path fill-rule="evenodd" clip-rule="evenodd" d="M7.96789 12.6726C3.56736 12.6726 0 10.2835 0 7.33633C0 4.38915 3.56736 2 7.96789 2C12.3684 2 15.9358 4.38915 15.9358 7.33633C15.9358 10.2835 12.3684 12.6726 7.96789 12.6726ZM9.18751 4.08632C5.84272 4.08632 3.13123 5.71965 3.13123 7.73445C3.13123 9.74926 5.84272 11.3826 9.18751 11.3826C12.5323 11.3826 15.0007 10.2659 15.0007 7.73445C15.0007 5.20378 12.5323 4.08632 9.18751 4.08632Z" fill="url(#paint0_linear_3802_333)"/>
<path fill-rule="evenodd" clip-rule="evenodd" d="M12.1548 10.3315C12.1548 10.3315 12.637 10.4771 12.9172 10.6188C13.0144 10.668 13.1826 10.7662 13.3039 10.8951C13.4228 11.0213 13.4807 11.1492 13.4807 11.1492L15.3813 14.3536L12.3095 14.355L10.873 11.6575C10.873 11.6575 10.5788 11.1521 10.3978 11.0056C10.2469 10.8833 10.1825 10.8398 10.0332 10.8398C9.9293 10.8398 9.30335 10.8398 9.30335 10.8398L9.30393 14.3531L6.58569 14.3542V5.37988H12.0443C12.0443 5.37988 14.5304 5.42472 14.5304 7.79009C14.5304 10.1555 12.1548 10.3315 12.1548 10.3315ZM10.9724 7.32653L9.32684 7.32547L9.32602 8.85144L10.9724 8.85091C10.9724 8.85091 11.7349 8.84855 11.7349 8.07467C11.7349 7.28523 10.9724 7.32653 10.9724 7.32653Z" fill="#096EFB"/>
</g>
<defs>
<linearGradient id="paint0_linear_3802_333" x1="0" y1="2" x2="9.86896" y2="16.7358" gradientUnits="userSpaceOnUse">
<stop stop-color="#CBCED0"/>
<stop offset="1" stop-color="#84838B"/>
</linearGradient>
<clipPath id="clip0_3802_333">
<rect width="16" height="12.3978" fill="white" transform="translate(0 2)"/>
</clipPath>
</defs>
</svg>
