<svg xmlns="http://www.w3.org/2000/svg" width="24" height="24">
<path d="M1.68 2.879h5.52v3.48h3.48v3.602h1.801V6.359h3.48v-3.48h5.52v17.883h-5.52V13.68h-1.68v3.602H8.879V13.68h-1.68v7.082H1.68V2.879zm0 0" fill="rgb(99.607843%,43.529412%,0.392157%)"/><path d="M3.48 2.879h3.719v3.48h3.48v3.602h1.801V6.359h3.48v-3.48h5.52v7.199h-18V2.879zm0 0" fill="rgb(99.215686%,62.7451%,0%)"/><path d="M3.48 2.879h3.719v3.48h3.48v3.602h1.801v.117h-9V2.879zm0 0" fill="rgb(100%,63.137257%,0.392157%)"/><path d="M1.68 2.879H3.48v17.883H1.68V2.879zm0 0" fill="rgb(0%,0%,0%)"/><path d="M15.961 13.68h1.918v3.48h3.602v3.602h-5.52V13.68zm0 0" fill="rgb(97.647059%,2.745098%,5.490196%)"/><path d="M8.879 13.68h5.402v3.602H8.879V13.68zm0 0" fill="rgb(100%,28.627452%,3.529412%)"/><path d="M3.48 17.16h3.598v3.602H3.48V17.16zm0 0" fill="rgb(100%,2.352941%,5.490196%)"/><path d="M3.48 2.879h3.719v3.48H3.48v-3.48zm0 0" fill="rgb(100%,80.392158%,1.568628%)"/><path d="M15.961 13.68h1.801v7.082h-1.801V13.68zm0 0" fill="rgb(0%,0%,0%)"/><path d="M17.879 13.68h3.602v3.48h-3.602v-3.48zm-14.399 0h3.598v3.48H3.48v-3.48zm0 0" fill="rgb(100%,29.019609%,3.921569%)"/><path d="M17.879 2.879h3.602v3.48h-3.602v-3.48zm0 0" fill="rgb(100%,80.392158%,0%)"/><path d="M12.48 6.359h1.801v3.719H12.48V6.359zm0 0" fill="rgb(1.960784%,0.784314%,0%)"/><path d="M8.879 13.68h1.801v3.602H8.879V13.68zm7.082-10.801h1.801v3.48h-1.801v-3.48zm0 0" fill="rgb(0%,0%,0%)"/>
</svg>