<svg width="20" height="20" viewBox="0 0 20 20" fill="none" xmlns="http://www.w3.org/2000/svg">
<path d="M2.25802 17.9362L9.9185 10.0836C9.96649 10.0344 9.97569 9.95835 9.93567 9.90248C9.46967 9.25201 8.61027 9.13927 8.2917 8.70226C7.34801 7.40775 7.10857 6.67506 6.70306 6.7205C6.67473 6.72368 6.64948 6.73892 6.62957 6.75932L3.86221 9.59608C2.27019 11.228 2.04189 14.8211 2.00002 17.8297C1.99812 17.9657 2.16307 18.0334 2.25802 17.9362Z" fill="#017CEE"/>
<path d="M17.9362 17.7421L10.0836 10.0816C10.0344 10.0336 9.95835 10.0244 9.90248 10.0645C9.25202 10.5305 9.13928 11.3899 8.70226 11.7084C7.40775 12.6521 6.67506 12.8916 6.7205 13.2971C6.72368 13.3254 6.73892 13.3507 6.75933 13.3705L9.59608 16.1379C11.228 17.7299 14.8211 17.9582 17.8297 18.0001C17.9657 18.002 18.0334 17.8371 17.9362 17.7421Z" fill="#00AD46"/>
<path fill-rule="evenodd" clip-rule="evenodd" d="M9.59644 16.1377C8.705 15.2682 8.29142 13.5478 10.0004 10C7.22295 11.2412 6.24964 12.8728 6.72845 13.34L9.59644 16.1377Z" fill="#04D659"/>
<path d="M17.7421 2.06398L10.0816 9.91654C10.0336 9.96573 10.0244 10.0418 10.0645 10.0976C10.5305 10.7481 11.3899 10.8609 11.7084 11.2979C12.6521 12.5923 12.8916 13.325 13.297 13.2797C13.3254 13.2765 13.3506 13.2612 13.3706 13.2408L16.1379 10.404C17.73 8.7721 17.9583 5.17904 18.0001 2.17036C18.002 2.0344 17.837 1.96665 17.7421 2.06398Z" fill="#00C7D4"/>
<path fill-rule="evenodd" clip-rule="evenodd" d="M16.1378 10.404C15.2682 11.2954 13.5478 11.709 10 10C11.2412 12.7774 12.8728 13.7508 13.34 13.2719L16.1378 10.404Z" fill="#11E1EE"/>
<path d="M2.06422 2.25802L9.91678 9.91849C9.96597 9.96648 10.042 9.97569 10.0979 9.93567C10.7484 9.46967 10.8611 8.61028 11.2981 8.2917C12.5926 7.34801 13.3253 7.10857 13.2799 6.70306C13.2767 6.67473 13.2614 6.64948 13.2411 6.62958L10.4043 3.86221C8.77235 2.27019 5.17929 2.04189 2.1706 2.00002C2.03464 1.99812 1.96689 2.16307 2.06422 2.25802Z" fill="#E43921"/>
<path fill-rule="evenodd" clip-rule="evenodd" d="M10.404 3.86206C11.2954 4.7317 11.709 6.45207 10 9.99984C12.7774 8.75863 13.7508 7.12699 13.2719 6.6599L10.404 3.86206Z" fill="#FF7557"/>
<path fill-rule="evenodd" clip-rule="evenodd" d="M3.86255 9.59596C4.73219 8.70451 6.45256 8.29094 10.0003 9.99992C8.75911 7.22247 7.12748 6.24915 6.66039 6.72796L3.86255 9.59596Z" fill="#0CB6FF"/>
<path d="M10.0055 10.3414C10.1947 10.3391 10.3462 10.1838 10.3438 9.99468C10.3415 9.80551 10.1862 9.65406 9.99706 9.6564C9.80789 9.65875 9.65644 9.81399 9.65878 10.0032C9.66112 10.1923 9.81637 10.3438 10.0055 10.3414Z" fill="black"/>
</svg>
