<svg xmlns="http://www.w3.org/2000/svg" width="20px" height="20px" viewBox="0 0 10240 10240"><path d="M6050 810a13190 13190 0 01 360 2380q-1330-170-2550 360a4270 4270 0 00-600 340 4500 4500 0 00-670 490Q1250 5640 600 7360a200590 200590 0 01 20-4220Q840 1660 1990 700 3410-380 5100 230q530 210 950 580" fill="#A569FF"/><path d="M6050 810a567690 567690 0 00 3470 3530q-1410-910-3090-1140l-20-10a13190 13190 0 00-360-2380" fill="#2038FB"/><path d="m6410 3190 20 10q110 1540-120 3060-200 1260-790 2390a5000 5000 0 01-1040 360q-1970 260-2240-1710-120-1560 670-2910a6790 6790 0 01 350-500 4270 4270 0 01 600-340q1220-530 2550-360" fill="#FEFEFE"/><path d="M6430 3200q1680 230 3090 1140l50 50q100 220 100 470-60 1090-690 1980-670 900-1580 1540-1300 950-2810 1520 550-560 930-1250 590-1130 790-2390 230-1520 120-3060" fill="#37E0BE"/><path d="M3260 3890a6790 6790 0 00-350 500q-790 1350-670 2910 270 1970 2240 1710a5000 5000 0 00 1040-360q-380 690-930 1250-590 270-1230 320-1320 70-2220-900-680-860-540-1960 650-1720 1990-2980a4500 4500 0 01 670-490" fill="#1F37FB"/></svg>
