<svg preserveAspectRatio="none" viewBox="409.6 409.6 1220.608 1228.8" style="max-height: 500px" xmlns="http://www.w3.org/2000/svg" version="1.1" width="1220.608" height="1228.8">
<path d="M 845.315 468.921 C 848.597 470.076 882.924 523.638 887.933 531.242 C 807.892 638.523 746.941 758.798 707.757 886.784 C 697.281 920.466 687.17 954.261 677.426 988.163 C 672.49 1005.31 667.593 1023.65 661.776 1040.51 C 660.508 1044.18 659.312 1043.99 656.15 1045.31 C 652.508 1041.48 647.736 1026.16 645.635 1020.57 C 630.504 980.292 626.029 937.443 621.487 894.943 C 610.249 789.773 611.74 687.369 613.062 582.1 C 652.365 563.412 691.609 541.531 731.316 522.423 L 805.631 487.505 C 818.777 481.414 832.58 475.646 845.315 468.921 z" fill="rgb(105,111,204)" transform="translate(0,0)"/>
<path d="M 1018.74 423.379 C 1074.42 429.564 1134.32 442.218 1189.61 452.035 C 1212.46 456.091 1236.67 462.152 1259.48 465.362 C 1258.72 495.287 1257.22 525.445 1257.01 555.329 C 1137.8 587.234 1022.66 632.793 913.9 691.103 C 882.592 706.85 849.292 728.122 818.612 745.29 C 804.867 752.981 777.798 769.852 763.572 774.816 C 760.367 773.7 761.644 774.634 759.611 771.908 C 759.601 763.45 784.178 714.591 789.588 705.931 C 815.31 664.751 846.731 624.451 877.26 586.683 C 922.6 530.698 969.787 476.233 1018.74 423.379 z" fill="rgb(70,68,173)" transform="translate(0,0)"/>
<path d="M 518.744 763.018 C 539.47 767.359 565.806 771.303 586.869 774.692 C 593.919 829.038 599.461 876.679 611.852 930.814 C 630.906 1014.06 659.039 1088.33 694.641 1165.59 C 707.2 1192.74 720.169 1219.69 733.544 1246.45 C 740.303 1260.15 747.675 1274.12 753.713 1287.96 C 763.536 1310.48 742.364 1297.45 733.565 1293.13 C 719.871 1286.41 706.443 1278.85 694.107 1270.18 C 606.176 1203.88 529.998 1118.88 455.425 1038.25 C 444.206 1026.12 432.041 1013.09 421.82 1000.19 C 452.326 920.411 484.643 841.332 518.744 763.018 z" fill="rgb(105,111,204)" transform="translate(0,0)"/>
<path d="M 531.231 1161.91 C 535.429 1163.65 561.077 1186.23 566.087 1190.35 C 578.941 1200.92 592.017 1211.21 605.307 1221.23 C 701.035 1292.89 786.74 1329.1 898.065 1368.3 C 921.622 1376.38 945.1 1384.7 968.496 1393.24 C 976.298 1396.14 993.105 1402.14 999.917 1406.14 C 1000.13 1409.24 1000.46 1410.37 999.206 1413.23 C 989.837 1418 950.553 1426.58 938.876 1428.71 C 915.915 1433 869.315 1433.86 845.195 1434.25 C 749.342 1435.81 652.411 1428.89 556.997 1419.73 C 528.059 1350.78 498.081 1262.95 474.994 1191.78 C 492.835 1181.49 512.895 1171.36 531.231 1161.91 z" fill="rgb(148,169,240)" transform="translate(0,0)"/>
<path d="M 1410.29 559.449 L 1411.82 559.613 C 1422.89 573.975 1436.86 595.882 1447.06 611.247 C 1469.89 645.189 1491.84 679.715 1512.89 714.79 C 1493.89 734.918 1474.62 754.775 1455.06 774.355 C 1434.72 764.84 1413.17 757.208 1392.29 749.151 C 1315.39 719.475 1246.28 705.175 1165.24 694.176 C 1122.04 688.397 1077.08 685.81 1033.68 680.66 C 1017.66 678.759 999.494 677.661 983.882 674.889 C 982.118 671.632 982.634 673.373 982.674 669.373 C 987.355 664.946 994.994 662.025 1000.87 658.234 C 1043.22 630.904 1097.24 618.052 1145.75 605.47 C 1232.99 582.842 1320.85 570.201 1410.29 559.449 z" fill="rgb(148,169,240)" transform="translate(0,0)"/>
<path d="M 1212.78 711.439 C 1232.1 715.811 1255.24 717.554 1273.34 723.023 C 1297.79 730.41 1324.2 741.824 1347.6 751.977 C 1440.65 792.352 1526.27 844.332 1612.44 897.19 C 1606.02 959.058 1598.08 1020.76 1588.64 1082.24 C 1588.14 1085.87 1587.36 1089.75 1586.72 1093.38 L 1516.81 1105.72 C 1509.26 1088.04 1497.99 1067.99 1488.91 1050.98 C 1439.99 959.003 1375.29 878.009 1300.23 806.071 C 1270.55 777.624 1240.79 748.329 1212.19 718.811 C 1210.48 717.05 1212.18 713.595 1212.78 711.439 z" fill="rgb(105,111,204)" transform="translate(0,0)"/>
<path d="M 1380.43 909.111 C 1385.39 910.411 1389.66 917.151 1393.08 921.023 C 1407.39 937.249 1419.28 954.051 1429.17 973.402 C 1484.74 1082.04 1520.72 1199.54 1553.61 1316.67 C 1526.65 1345.13 1500.56 1374.63 1473.31 1403.3 C 1457.72 1420 1442.02 1436.59 1426.22 1453.08 C 1419.32 1448.09 1407.48 1441.28 1399.91 1436.59 C 1386.67 1428.33 1373.49 1419.96 1360.39 1411.49 C 1376.71 1338.1 1385.59 1245.01 1387.86 1169.88 C 1389.46 1117.01 1385.46 1061.04 1383.18 1007.5 C 1382.12 982.358 1377.69 939.382 1377.68 912.712 C 1378.76 911.305 1379.67 910.104 1380.43 909.111 z" fill="rgb(70,68,173)" transform="translate(0,0)"/>
<path d="M 1367.67 1174.59 C 1372.86 1175.97 1372.55 1175.02 1375.59 1178.33 C 1377.29 1183.5 1376.09 1189.63 1376.48 1195.21 C 1377.92 1216.39 1376.14 1237.45 1371.8 1258.21 C 1348.75 1368.47 1313.87 1477.12 1277.07 1583.53 C 1253.4 1586.91 1229.1 1591.41 1205.4 1595.17 L 1102.16 1610.9 L 1097.11 1598.63 C 1088.58 1578.71 1080.27 1558.69 1072.2 1538.58 C 1076.99 1534.7 1081.87 1529.89 1086.36 1525.62 C 1185.98 1430.98 1269.05 1322.08 1344.83 1207.89 C 1352.31 1196.61 1360.46 1186.26 1367.67 1174.59 z" fill="rgb(105,111,204)" transform="translate(0,0)"/>
<path d="M 1214.15 1358.18 C 1215.27 1358.98 1218.92 1362.69 1220.1 1363.85 C 1208.13 1378.44 1199.5 1394.25 1184.99 1408.45 C 1167.48 1425.58 1149.39 1441.24 1130.53 1456.85 C 1096.6 1484.67 1061.92 1511.56 1026.52 1537.47 C 989.706 1564.51 943.525 1598.54 904.842 1621.91 C 894.307 1617.69 878.976 1609.4 868.648 1604.11 C 846.539 1592.72 824.523 1581.15 802.604 1569.41 L 740.383 1535.83 C 746.785 1514.03 754.085 1482.37 758.741 1460.06 C 780.042 1459.99 815.77 1455.8 837.08 1453.44 C 901.696 1446.35 965.638 1434.07 1028.29 1416.73 C 1091.62 1398.99 1151.6 1377.04 1214.15 1358.18 z" fill="rgb(70,68,173)" transform="translate(0,0)"/>
<path d="M 1185.57 969.626 C 1196.79 978.202 1211.43 1007.81 1217.28 1020.75 C 1253.39 1100.76 1269.01 1190.29 1273.16 1277.54 C 1203.09 1322.97 1148.55 1350.58 1071.74 1381.41 C 1059.09 1386.1 1045.81 1390.53 1033.02 1394.97 C 1019.14 1367.63 1008.05 1343.48 995.576 1315.45 C 997.712 1313.93 999.805 1312.35 1001.85 1310.71 C 1096.37 1234.93 1174.87 1129.72 1183.23 1005.55 C 1184.01 994.084 1184.09 981.876 1185.45 970.57 L 1185.57 969.626 z" fill="rgb(105,111,204)" transform="translate(0,0)"/>
<path d="M 969.661 904.076 C 974.429 905.045 981.871 905.317 986.877 905.603 C 1019.77 907.483 1051.72 911.623 1084.27 916.339 C 1095.33 939.82 1109.01 961.316 1121.55 984.252 C 1128.9 997.708 1144.53 1033.6 1151.97 1043.78 C 1141.58 1071.99 1126.14 1113.67 1110.71 1139.23 C 1098.58 1145.2 1081.8 1150.83 1068.91 1155.49 C 1044.12 1163.75 1020.43 1169.36 995.14 1175.72 C 987.496 1162.66 980.102 1152.18 974.493 1137.97 C 949.036 1117.81 930.513 1101.4 907.346 1077.71 C 909.756 1061.68 909.354 1039.38 909.549 1022.76 C 909.73 1007.4 910.771 988.084 910.145 973.071 C 922.713 955.252 954.065 921.438 969.661 904.076 z" fill="rgb(148,169,240)" transform="translate(0,0)"/>
<path d="M 1045.57 698.694 C 1051.31 699.268 1069.86 704.089 1076.1 705.66 C 1133.12 720.196 1188.3 741.207 1240.54 768.285 C 1231.71 795.575 1222.56 822.763 1213.11 849.844 C 1152.29 840.642 1080.37 840.73 1021.4 858.921 C 961.62 879.233 942.784 897.434 894.903 933.063 C 906.462 855.483 993.998 754.002 1045.57 698.694 z" fill="rgb(148,169,240)" transform="translate(0,0)"/>
<path d="M 1099.64 859.417 C 1106.92 858.496 1126.26 858.782 1134.33 859.208 C 1204.85 862.931 1269.94 883.794 1334.38 910.949 C 1336.11 925.925 1339.47 941.906 1341.8 956.948 C 1350.34 1012.07 1351.12 1065.49 1351.03 1121.04 L 1305.04 1120.75 C 1294.52 1120.4 1283.71 1120.4 1273.17 1120.27 C 1272.81 1118.99 1272.44 1117.7 1272.06 1116.42 C 1247.3 1032.75 1202.57 953.84 1126.84 906.445 C 1098.76 888.867 1076.04 881.696 1050.14 867.334 L 1048.74 866.551 C 1063.37 862.879 1084.61 860.489 1099.64 859.417 z" fill="rgb(105,111,204)" transform="translate(0,0)"/>
<path d="M 915.392 726.11 C 918.294 727.129 952.132 766.208 957.478 772.183 C 907.107 856.051 872.227 916.329 870.213 1017.89 C 869.92 1034.02 870.403 1050.14 871.659 1066.22 C 872.08 1071.75 875.602 1091.5 872.355 1094.6 C 867.476 1092.6 858.026 1078.21 854.41 1073.17 C 807.721 997.493 787.151 901.287 784.545 813.209 C 825.963 781.003 869.697 751.891 915.392 726.11 z" fill="rgb(148,169,240)" transform="translate(0,0)"/>
<path d="M 776.75 1152.89 C 780.251 1155.03 785.382 1157.25 789.18 1159.1 C 847.313 1187.36 912.711 1209.4 978.055 1207.56 C 1012.38 1206.6 1047.12 1198.71 1079.79 1188.96 C 1084.15 1187.66 1090.81 1184.87 1095.07 1186.51 L 1095.51 1188.31 C 1081.64 1210.11 1034.05 1246.13 1012.5 1260.75 C 965.858 1291.31 914.483 1313.94 860.454 1327.73 C 824.471 1300.43 762.525 1232.27 736.939 1195.24 C 749.673 1182.37 763.825 1166.39 776.75 1152.89 z" fill="rgb(105,111,204)" transform="translate(0,0)"/>
<path d="M 769.63 933.461 C 770.869 933.36 775.922 932.951 776.52 934.246 C 780.844 944.104 784.595 955.168 787.978 965.379 C 809.48 1030.27 845.349 1086.13 885.233 1141.03 C 896.499 1156.53 913.764 1178.44 922.993 1194.7 C 906.606 1189.83 890.648 1184.87 874.76 1178.53 C 816.583 1156.16 752.312 1111.27 703.075 1073.54 C 705.023 1054.5 705.716 1035.89 708.16 1016.31 C 711.763 987.457 716.485 962.422 722.742 934.085 C 738.374 934.17 754.006 933.962 769.63 933.461 z" fill="rgb(148,169,240)" transform="translate(0,0)"/>
</svg>
