<?xml version="1.0" encoding="UTF-8"?>
<svg xmlns="http://www.w3.org/2000/svg" xmlns:xlink="http://www.w3.org/1999/xlink" width="24px" height="24px" viewBox="0 0 24 48" version="1.1">
<g id="surface1">
<path style=" stroke:none;fill-rule:nonzero;fill:rgb(97.254902%,90.196079%,91.764706%);fill-opacity:1;" d="M 15.210938 47.894531 C 15.152344 47.863281 14.5 47.238281 13.761719 46.507812 L 12.421875 45.175781 L 12.421875 36.519531 C 12.421875 31.757812 12.410156 27.847656 12.394531 27.835938 C 12.367188 27.808594 10.171875 28.902344 3.707031 32.160156 C 1.761719 33.140625 0.140625 33.933594 0.105469 33.921875 C 0.0664062 33.90625 0.0546875 33.863281 0.0703125 33.804688 C 0.0859375 33.75 0.113281 33.53125 0.136719 33.316406 C 0.253906 32.230469 1.117188 29.679688 2.035156 27.714844 C 4.539062 22.363281 8.589844 17.925781 13.738281 14.894531 C 14.578125 14.398438 15.285156 14.039062 15.359375 14.066406 C 15.414062 14.085938 15.421875 14.648438 15.421875 18.542969 C 15.421875 21.730469 15.433594 22.996094 15.464844 22.996094 C 15.492188 22.996094 15.683594 22.910156 15.894531 22.800781 C 17.371094 22.046875 18.445312 20.632812 18.804688 18.972656 C 18.925781 18.410156 18.9375 17.386719 18.828125 16.84375 C 18.625 15.84375 18.160156 14.90625 17.507812 14.171875 C 17.183594 13.8125 16.113281 12.695312 14.214844 10.746094 C 11.351562 7.800781 10.828125 7.238281 10.492188 6.746094 C 10.246094 6.386719 10.03125 5.949219 9.902344 5.53125 C 9.800781 5.199219 9.789062 5.101562 9.785156 4.472656 C 9.785156 3.710938 9.828125 3.472656 10.082031 2.875 C 10.570312 1.722656 11.847656 0.648438 12.90625 0.496094 C 13.652344 0.386719 14.59375 0.410156 15.203125 0.546875 C 15.703125 0.660156 16.511719 1.140625 17.0625 1.65625 C 17.714844 2.261719 18.042969 2.746094 20.484375 6.710938 C 23.371094 11.390625 23.714844 11.964844 23.761719 12.207031 C 23.8125 12.445312 23.777344 12.546875 23.644531 12.542969 C 23.535156 12.539062 23.570312 12.574219 18.375 7.191406 C 17.921875 6.71875 17.128906 5.894531 16.617188 5.351562 C 15.277344 3.941406 14.71875 3.410156 14.46875 3.300781 C 14.144531 3.15625 13.699219 3.164062 13.386719 3.316406 C 12.777344 3.613281 12.488281 4.296875 12.71875 4.902344 C 12.832031 5.203125 12.671875 5.03125 16.425781 8.90625 C 18.109375 10.640625 19.628906 12.234375 19.804688 12.4375 C 22.628906 15.78125 22.398438 20.742188 19.277344 23.8125 C 18.5625 24.515625 17.84375 25 16.519531 25.671875 C 16.066406 25.902344 15.632812 26.128906 15.558594 26.171875 L 15.421875 26.257812 L 15.421875 37.042969 C 15.421875 42.972656 15.410156 47.855469 15.394531 47.894531 C 15.363281 47.96875 15.351562 47.96875 15.210938 47.894531 Z M 7.710938 26.972656 C 11.40625 25.09375 12.167969 24.695312 12.277344 24.59375 C 12.34375 24.527344 12.375 24.433594 12.394531 24.222656 C 12.4375 23.792969 12.429688 19.285156 12.386719 19.257812 C 12.292969 19.203125 10.742188 20.570312 9.699219 21.625 C 7.898438 23.445312 6.390625 25.503906 5.152344 27.835938 C 4.992188 28.140625 4.871094 28.390625 4.886719 28.390625 C 4.90625 28.390625 6.175781 27.753906 7.710938 26.972656 Z M 7.710938 26.972656 "/>
<path style=" stroke:none;fill-rule:nonzero;fill:rgb(96.078432%,85.882354%,87.843138%);fill-opacity:1;" d="M 13.847656 46.546875 L 12.421875 45.136719 L 12.421875 27.757812 L 9.816406 29.0625 C 8.382812 29.78125 5.628906 31.164062 3.695312 32.136719 C 1.765625 33.113281 0.152344 33.910156 0.113281 33.910156 C 0.0585938 33.910156 0.0507812 33.886719 0.0703125 33.796875 C 0.0859375 33.734375 0.117188 33.542969 0.136719 33.371094 C 0.222656 32.625 0.820312 30.675781 1.410156 29.214844 C 3.957031 22.914062 8.527344 17.773438 14.53125 14.472656 C 14.914062 14.261719 15.257812 14.089844 15.296875 14.089844 C 15.335938 14.089844 15.378906 14.121094 15.394531 14.15625 C 15.410156 14.195312 15.421875 16.207031 15.421875 18.632812 L 15.421875 23.042969 L 15.515625 23.015625 C 15.652344 22.972656 15.894531 22.847656 16.214844 22.652344 C 17.515625 21.867188 18.40625 20.65625 18.785156 19.160156 C 18.894531 18.746094 18.902344 18.644531 18.902344 17.875 C 18.902344 16.980469 18.867188 16.738281 18.640625 16.054688 C 18.496094 15.621094 18.121094 14.917969 17.828125 14.53125 C 17.488281 14.082031 16.769531 13.328125 13.078125 9.535156 C 11.894531 8.320312 10.9375 7.296875 10.714844 7.007812 C 9.691406 5.683594 9.496094 4.167969 10.164062 2.769531 C 10.40625 2.265625 10.640625 1.941406 11.054688 1.542969 C 11.621094 1 12.363281 0.59375 12.964844 0.496094 C 13.460938 0.414062 14.265625 0.40625 14.730469 0.476562 C 15.847656 0.640625 16.886719 1.332031 17.769531 2.496094 C 18.226562 3.097656 19.550781 5.214844 22.761719 10.460938 C 23.730469 12.050781 23.882812 12.363281 23.75 12.492188 C 23.636719 12.609375 23.832031 12.804688 19.300781 8.109375 C 18.335938 7.109375 17.117188 5.839844 16.59375 5.289062 C 15.164062 3.78125 14.734375 3.378906 14.4375 3.269531 C 13.757812 3.015625 13.074219 3.285156 12.734375 3.941406 C 12.570312 4.25 12.570312 4.648438 12.726562 4.984375 C 12.859375 5.269531 12.660156 5.058594 16.449219 8.96875 C 18.121094 10.695312 19.609375 12.246094 19.757812 12.417969 C 20.789062 13.609375 21.480469 15.179688 21.691406 16.808594 C 21.777344 17.488281 21.757812 18.613281 21.644531 19.234375 C 21.328125 20.992188 20.523438 22.539062 19.28125 23.769531 C 18.511719 24.53125 17.875 24.957031 16.328125 25.746094 L 15.441406 26.195312 L 15.417969 37.066406 C 15.40625 43.046875 15.394531 47.941406 15.386719 47.949219 C 15.335938 48 15.09375 47.777344 13.847656 46.546875 Z M 7.851562 26.925781 C 11.796875 24.921875 12.171875 24.722656 12.304688 24.582031 L 12.421875 24.460938 L 12.421875 21.824219 C 12.421875 20.378906 12.410156 19.191406 12.394531 19.191406 C 12.378906 19.191406 12.222656 19.308594 12.046875 19.453125 C 9.921875 21.171875 8.125 23.121094 6.652344 25.296875 C 5.824219 26.523438 4.71875 28.480469 4.890625 28.417969 C 4.933594 28.402344 6.269531 27.730469 7.851562 26.925781 Z M 7.851562 26.925781 "/>
<path style=" stroke:none;fill-rule:nonzero;fill:rgb(95.294118%,83.529413%,85.490197%);fill-opacity:1;" d="M 14.566406 47.257812 C 14.171875 46.875 13.527344 46.226562 13.136719 45.820312 L 12.421875 45.078125 L 12.421875 36.421875 C 12.421875 31.660156 12.414062 27.761719 12.40625 27.761719 C 12.386719 27.761719 7.25 30.339844 3.351562 32.304688 C 1.605469 33.1875 0.144531 33.910156 0.109375 33.910156 C 0.0585938 33.910156 0.0507812 33.882812 0.0703125 33.804688 C 0.0859375 33.746094 0.113281 33.5625 0.136719 33.394531 C 0.15625 33.230469 0.25 32.804688 0.34375 32.445312 C 0.816406 30.613281 1.449219 28.957031 2.417969 27.03125 C 3.027344 25.8125 3.554688 24.902344 4.253906 23.855469 C 6.554688 20.402344 9.679688 17.414062 13.308594 15.191406 C 14.070312 14.722656 15.222656 14.089844 15.3125 14.089844 C 15.371094 14.089844 15.378906 14.515625 15.378906 18.546875 C 15.378906 22.316406 15.386719 23.003906 15.4375 23.023438 C 15.46875 23.035156 15.628906 22.980469 15.789062 22.898438 C 17.105469 22.242188 18.136719 21.082031 18.625 19.722656 C 18.847656 19.089844 18.933594 18.582031 18.9375 17.875 C 18.941406 16.71875 18.636719 15.707031 18.003906 14.761719 C 17.667969 14.261719 17.308594 13.875 14.34375 10.828125 C 11.203125 7.597656 10.832031 7.195312 10.453125 6.621094 C 9.992188 5.925781 9.792969 5.261719 9.792969 4.453125 C 9.796875 4.15625 9.824219 3.828125 9.863281 3.652344 C 10.148438 2.363281 11.003906 1.316406 12.222656 0.753906 C 12.761719 0.503906 13.199219 0.417969 13.917969 0.417969 C 14.933594 0.417969 15.652344 0.640625 16.464844 1.210938 C 17.410156 1.871094 17.757812 2.34375 20.128906 6.1875 C 22.847656 10.601562 23.707031 12.03125 23.757812 12.226562 C 23.789062 12.34375 23.8125 12.441406 23.808594 12.441406 C 23.804688 12.441406 23.769531 12.464844 23.726562 12.496094 C 23.664062 12.542969 23.628906 12.523438 23.4375 12.347656 C 23.136719 12.070312 18.050781 6.8125 16.46875 5.140625 C 15.046875 3.640625 14.832031 3.441406 14.46875 3.277344 C 13.824219 2.984375 13.054688 3.269531 12.730469 3.921875 C 12.632812 4.121094 12.613281 4.214844 12.613281 4.472656 C 12.613281 4.738281 12.632812 4.828125 12.738281 5.03125 C 12.863281 5.28125 12.910156 5.328125 18.347656 10.941406 C 19.039062 11.65625 19.730469 12.398438 19.886719 12.589844 C 21.929688 15.121094 22.328125 18.566406 20.90625 21.484375 C 20.449219 22.425781 19.917969 23.148438 19.121094 23.898438 C 18.367188 24.617188 17.835938 24.96875 16.328125 25.738281 C 15.839844 25.988281 15.425781 26.210938 15.410156 26.234375 C 15.394531 26.257812 15.378906 31.15625 15.378906 37.117188 C 15.378906 45.148438 15.367188 47.957031 15.332031 47.957031 C 15.304688 47.957031 14.960938 47.644531 14.566406 47.257812 Z M 5.464844 28.144531 C 5.773438 27.984375 7.167969 27.277344 8.558594 26.570312 C 11.871094 24.886719 12.261719 24.683594 12.347656 24.574219 C 12.414062 24.488281 12.421875 24.277344 12.421875 21.835938 C 12.421875 20.367188 12.40625 19.191406 12.386719 19.191406 C 12.367188 19.191406 12.058594 19.433594 11.699219 19.730469 C 9.378906 21.660156 7.46875 23.871094 5.933594 26.40625 C 5.574219 27 4.824219 28.351562 4.824219 28.40625 C 4.824219 28.464844 4.925781 28.421875 5.464844 28.144531 Z M 5.464844 28.144531 "/>
<path style=" stroke:none;fill-rule:nonzero;fill:rgb(94.117647%,80.392158%,82.745099%);fill-opacity:1;" d="M 13.886719 46.570312 C 13.125 45.804688 12.484375 45.136719 12.464844 45.082031 C 12.4375 45.019531 12.421875 41.746094 12.421875 36.375 C 12.421875 31.636719 12.410156 27.761719 12.394531 27.761719 C 12.363281 27.761719 9.921875 28.988281 4.164062 31.886719 C 1.957031 33 0.125 33.910156 0.0976562 33.910156 C 0.0625 33.910156 0.0507812 33.875 0.0703125 33.8125 C 0.0820312 33.757812 0.113281 33.574219 0.136719 33.402344 C 0.296875 32.300781 1.066406 29.964844 1.847656 28.222656 C 4.160156 23.0625 7.777344 18.820312 12.527344 15.699219 C 13.703125 14.925781 15.246094 14.054688 15.335938 14.113281 C 15.363281 14.128906 15.378906 15.789062 15.378906 18.589844 C 15.378906 22.617188 15.382812 23.039062 15.445312 23.039062 C 15.546875 23.039062 16.078125 22.765625 16.476562 22.503906 C 16.910156 22.21875 17.640625 21.507812 17.941406 21.070312 C 18.382812 20.429688 18.714844 19.644531 18.867188 18.867188 C 18.964844 18.371094 18.96875 17.339844 18.867188 16.84375 C 18.722656 16.113281 18.433594 15.410156 18.027344 14.792969 C 17.671875 14.25 17.488281 14.054688 14.175781 10.640625 C 11.058594 7.425781 11 7.367188 10.652344 6.898438 C 9.726562 5.664062 9.539062 4.261719 10.121094 2.882812 C 10.628906 1.675781 11.839844 0.703125 13.109375 0.480469 C 13.550781 0.402344 14.28125 0.402344 14.75 0.480469 C 15.421875 0.589844 16.09375 0.910156 16.753906 1.4375 C 17.554688 2.078125 17.855469 2.511719 20.570312 6.921875 C 23.402344 11.523438 23.730469 12.070312 23.757812 12.261719 C 23.789062 12.464844 23.75 12.523438 23.613281 12.480469 C 23.566406 12.46875 22.898438 11.804688 22.121094 11.003906 C 19.367188 8.164062 17.746094 6.484375 16.578125 5.246094 C 14.734375 3.296875 14.566406 3.164062 13.941406 3.160156 C 13.679688 3.15625 13.585938 3.175781 13.386719 3.273438 C 13.121094 3.402344 12.859375 3.660156 12.710938 3.9375 C 12.632812 4.082031 12.613281 4.1875 12.613281 4.453125 C 12.613281 4.9375 12.722656 5.136719 13.363281 5.800781 C 13.644531 6.09375 15.148438 7.648438 16.703125 9.253906 C 18.257812 10.863281 19.652344 12.320312 19.800781 12.496094 C 21.207031 14.164062 21.925781 16.460938 21.710938 18.613281 C 21.46875 21.015625 20.269531 23.136719 18.347656 24.550781 C 17.828125 24.933594 17.476562 25.136719 16.316406 25.734375 L 15.398438 26.203125 L 15.386719 37.082031 C 15.378906 45.742188 15.367188 47.960938 15.324219 47.960938 C 15.296875 47.960938 14.648438 47.335938 13.886719 46.570312 Z M 7.777344 26.980469 C 11.644531 25.015625 12.226562 24.710938 12.328125 24.601562 L 12.421875 24.496094 L 12.421875 21.84375 C 12.421875 20.136719 12.40625 19.191406 12.382812 19.191406 C 12.320312 19.191406 11.328125 20.023438 10.613281 20.667969 C 8.839844 22.273438 7.070312 24.460938 5.78125 26.640625 C 5.359375 27.355469 4.824219 28.355469 4.824219 28.425781 C 4.824219 28.484375 4.65625 28.566406 7.777344 26.980469 Z M 7.777344 26.980469 "/>
<path style=" stroke:none;fill-rule:nonzero;fill:rgb(93.333334%,76.47059%,79.607844%);fill-opacity:1;" d="M 13.882812 46.554688 L 12.46875 45.136719 L 12.464844 36.472656 C 12.464844 30.625 12.449219 27.800781 12.421875 27.785156 C 12.378906 27.757812 9.820312 29.027344 3.613281 32.160156 C 1.703125 33.121094 0.121094 33.910156 0.09375 33.910156 C 0.0703125 33.910156 0.0585938 33.878906 0.0703125 33.835938 C 0.0820312 33.796875 0.113281 33.628906 0.136719 33.460938 C 0.277344 32.46875 0.90625 30.453125 1.554688 28.914062 C 2.871094 25.78125 4.628906 23.007812 6.832031 20.570312 C 7.4375 19.90625 8.882812 18.496094 9.507812 17.964844 C 10.671875 16.976562 11.914062 16.070312 13.140625 15.3125 C 13.984375 14.789062 15.175781 14.125 15.285156 14.117188 C 15.351562 14.113281 15.359375 14.394531 15.378906 18.585938 C 15.398438 23.03125 15.398438 23.058594 15.484375 23.046875 C 15.597656 23.027344 16.128906 22.742188 16.492188 22.503906 C 16.902344 22.238281 17.71875 21.425781 17.992188 21.011719 C 18.410156 20.378906 18.710938 19.65625 18.867188 18.898438 C 18.972656 18.402344 18.972656 17.300781 18.867188 16.808594 C 18.671875 15.890625 18.222656 14.941406 17.679688 14.300781 C 17.421875 13.992188 16.488281 13.015625 14.367188 10.828125 C 11.109375 7.476562 10.878906 7.230469 10.5 6.664062 C 10.226562 6.261719 10.050781 5.894531 9.921875 5.449219 C 9.839844 5.167969 9.828125 5.03125 9.828125 4.433594 C 9.832031 3.804688 9.84375 3.707031 9.945312 3.375 C 10.335938 2.113281 11.195312 1.183594 12.441406 0.671875 C 12.832031 0.511719 13.378906 0.421875 13.941406 0.417969 C 15.152344 0.417969 16.117188 0.828125 17.074219 1.746094 C 17.777344 2.421875 18.082031 2.882812 21.128906 7.84375 C 23.683594 12.003906 23.730469 12.078125 23.757812 12.257812 C 23.796875 12.472656 23.738281 12.539062 23.589844 12.460938 C 23.46875 12.398438 19.292969 8.097656 16.722656 5.394531 C 14.683594 3.246094 14.574219 3.15625 13.921875 3.15625 C 13.5 3.160156 13.253906 3.273438 12.941406 3.613281 C 12.667969 3.910156 12.574219 4.171875 12.601562 4.554688 C 12.628906 4.945312 12.773438 5.195312 13.257812 5.699219 C 13.484375 5.933594 15.003906 7.507812 16.636719 9.195312 C 18.273438 10.882812 19.722656 12.40625 19.863281 12.582031 C 20.265625 13.082031 20.601562 13.605469 20.886719 14.195312 C 22.652344 17.800781 21.589844 22.140625 18.363281 24.53125 C 17.820312 24.933594 17.542969 25.09375 16.375 25.695312 L 15.398438 26.199219 L 15.378906 37.054688 C 15.367188 43.023438 15.34375 47.921875 15.328125 47.941406 C 15.308594 47.957031 14.660156 47.332031 13.882812 46.554688 Z M 7.96875 26.886719 C 12.011719 24.832031 12.253906 24.703125 12.355469 24.570312 C 12.441406 24.457031 12.445312 24.398438 12.457031 21.839844 C 12.464844 20.304688 12.453125 19.207031 12.429688 19.183594 C 12.351562 19.105469 10.972656 20.285156 9.890625 21.363281 C 8.3125 22.925781 7.058594 24.527344 5.875 26.46875 C 5.316406 27.394531 4.746094 28.496094 4.847656 28.457031 C 4.894531 28.441406 6.296875 27.734375 7.96875 26.886719 Z M 7.96875 26.886719 "/>
<path style=" stroke:none;fill-rule:nonzero;fill:rgb(92.54902%,73.333335%,76.862746%);fill-opacity:1;" d="M 15.070312 47.742188 C 14.945312 47.621094 14.304688 46.980469 13.652344 46.324219 L 12.464844 45.128906 L 12.464844 36.445312 C 12.464844 28.734375 12.457031 27.761719 12.402344 27.761719 C 12.339844 27.761719 8.832031 29.511719 3.808594 32.050781 C 0.871094 33.53125 0.0898438 33.921875 0.078125 33.902344 C 0.046875 33.871094 0.160156 33.292969 0.335938 32.570312 C 1.023438 29.746094 2.507812 26.476562 4.332031 23.769531 C 6.664062 20.308594 9.824219 17.316406 13.484375 15.105469 C 14.203125 14.671875 15.207031 14.132812 15.296875 14.132812 C 15.375 14.132812 15.378906 14.246094 15.378906 18.582031 C 15.378906 21.550781 15.390625 23.042969 15.421875 23.058594 C 15.445312 23.074219 15.644531 22.992188 15.871094 22.875 C 17.789062 21.875 18.964844 19.972656 18.964844 17.867188 C 18.96875 16.5625 18.539062 15.363281 17.699219 14.328125 C 17.40625 13.964844 17.0625 13.601562 14.472656 10.933594 C 11.164062 7.523438 11.082031 7.4375 10.726562 6.972656 C 10.394531 6.539062 10.09375 5.972656 9.949219 5.5 C 9.84375 5.160156 9.832031 5.054688 9.832031 4.472656 C 9.828125 3.695312 9.90625 3.347656 10.226562 2.695312 C 10.617188 1.914062 11.25 1.273438 12.03125 0.871094 C 12.664062 0.542969 13.195312 0.417969 13.949219 0.417969 C 15.457031 0.417969 16.746094 1.148438 17.824219 2.613281 C 18.273438 3.226562 19.960938 5.929688 23.15625 11.164062 C 23.75 12.132812 23.875 12.425781 23.722656 12.484375 C 23.597656 12.53125 23.867188 12.800781 19.660156 8.445312 C 18.453125 7.191406 17.054688 5.734375 16.550781 5.207031 C 14.746094 3.300781 14.566406 3.160156 13.941406 3.15625 C 13.519531 3.15625 13.292969 3.246094 12.996094 3.53125 C 12.738281 3.78125 12.625 4.015625 12.601562 4.359375 C 12.578125 4.691406 12.636719 4.9375 12.800781 5.183594 C 12.867188 5.28125 13.886719 6.359375 15.066406 7.578125 C 16.25 8.800781 17.746094 10.34375 18.390625 11.015625 C 19.039062 11.683594 19.679688 12.367188 19.820312 12.53125 C 20.679688 13.574219 21.273438 14.820312 21.566406 16.179688 C 21.65625 16.613281 21.679688 16.851562 21.699219 17.570312 C 21.714844 18.128906 21.703125 18.585938 21.671875 18.847656 C 21.4375 20.714844 20.597656 22.425781 19.261719 23.75 C 18.492188 24.511719 17.902344 24.90625 16.136719 25.8125 L 15.398438 26.195312 L 15.378906 37.054688 C 15.367188 43.023438 15.34375 47.921875 15.328125 47.9375 C 15.316406 47.953125 15.199219 47.863281 15.070312 47.742188 Z M 7.472656 27.148438 C 11.347656 25.179688 12.132812 24.773438 12.296875 24.636719 L 12.445312 24.515625 L 12.457031 21.867188 C 12.460938 20.375 12.449219 19.203125 12.429688 19.183594 C 12.386719 19.140625 11.972656 19.457031 11.226562 20.105469 C 9.105469 21.945312 7.320312 24.066406 5.867188 26.46875 C 5.546875 27 4.78125 28.390625 4.78125 28.445312 C 4.78125 28.460938 4.800781 28.472656 4.824219 28.472656 C 4.847656 28.472656 6.039062 27.878906 7.472656 27.148438 Z M 7.472656 27.148438 "/>
<path style=" stroke:none;fill-rule:nonzero;fill:rgb(90.588236%,65.882355%,70.588237%);fill-opacity:1;" d="M 13.886719 46.535156 L 12.464844 45.105469 L 12.464844 36.441406 C 12.464844 31.675781 12.453125 27.765625 12.4375 27.75 C 12.40625 27.722656 9.800781 29.015625 3.648438 32.121094 C 1.691406 33.109375 0.0820312 33.910156 0.0742188 33.902344 C 0.0429688 33.871094 0.308594 32.660156 0.476562 32.050781 C 1.523438 28.277344 3.578125 24.421875 6.171875 21.34375 C 7.933594 19.257812 10.164062 17.277344 12.445312 15.773438 C 13.621094 15 15.199219 14.105469 15.3125 14.148438 C 15.371094 14.167969 15.378906 14.683594 15.378906 18.625 C 15.378906 22.195312 15.386719 23.082031 15.429688 23.082031 C 15.519531 23.082031 16.09375 22.78125 16.414062 22.570312 C 17.742188 21.695312 18.625 20.355469 18.898438 18.792969 C 18.984375 18.308594 18.984375 17.402344 18.898438 16.914062 C 18.8125 16.402344 18.582031 15.742188 18.328125 15.261719 C 17.898438 14.445312 17.71875 14.246094 13.796875 10.222656 C 11.003906 7.359375 10.558594 6.851562 10.207031 6.132812 C 9.921875 5.550781 9.828125 5.121094 9.832031 4.410156 C 9.835938 3.710938 9.917969 3.363281 10.207031 2.761719 C 10.457031 2.25 10.6875 1.933594 11.097656 1.546875 C 11.882812 0.800781 12.851562 0.417969 13.9375 0.417969 C 15.089844 0.417969 16.125 0.855469 17.058594 1.734375 C 17.679688 2.316406 18.136719 3.007812 20.929688 7.546875 C 23.800781 12.222656 23.851562 12.308594 23.757812 12.457031 C 23.710938 12.53125 23.65625 12.507812 23.453125 12.324219 C 23.1875 12.082031 18.019531 6.738281 16.4375 5.070312 C 15.074219 3.628906 14.769531 3.351562 14.414062 3.21875 C 13.730469 2.964844 13.003906 3.277344 12.683594 3.96875 C 12.460938 4.449219 12.566406 4.960938 12.992188 5.4375 C 13.105469 5.5625 14.636719 7.152344 16.394531 8.96875 C 18.152344 10.785156 19.683594 12.386719 19.800781 12.523438 C 20.582031 13.453125 21.210938 14.71875 21.5 15.945312 C 21.886719 17.574219 21.742188 19.410156 21.101562 20.980469 C 20.65625 22.070312 20.121094 22.863281 19.242188 23.730469 C 18.394531 24.574219 17.898438 24.90625 16.273438 25.730469 L 15.378906 26.1875 L 15.378906 37.019531 C 15.375 42.980469 15.359375 47.878906 15.339844 47.910156 C 15.316406 47.949219 14.898438 47.554688 13.886719 46.535156 Z M 9.59375 26.082031 C 12.117188 24.792969 12.308594 24.6875 12.394531 24.542969 C 12.457031 24.4375 12.464844 24.175781 12.464844 21.789062 C 12.464844 19.691406 12.453125 19.148438 12.410156 19.148438 C 12.382812 19.148438 12.054688 19.402344 11.683594 19.710938 C 9.3125 21.675781 7.378906 23.929688 5.796875 26.566406 C 5.40625 27.21875 4.78125 28.390625 4.78125 28.472656 C 4.78125 28.523438 5.800781 28.015625 9.59375 26.082031 Z M 9.59375 26.082031 "/>
<path style=" stroke:none;fill-rule:nonzero;fill:rgb(88.627452%,59.215689%,64.313728%);fill-opacity:1;" d="M 13.890625 46.527344 L 12.464844 45.082031 L 12.464844 36.402344 C 12.464844 30.546875 12.449219 27.722656 12.421875 27.722656 C 12.378906 27.722656 8.789062 29.515625 3.242188 32.316406 C 1.570312 33.15625 0.175781 33.855469 0.144531 33.863281 C 0.0625 33.882812 0.09375 33.664062 0.285156 32.839844 C 0.878906 30.320312 2.09375 27.429688 3.621094 24.917969 C 6.171875 20.726562 9.804688 17.214844 14.148438 14.742188 C 14.679688 14.4375 15.265625 14.132812 15.3125 14.132812 C 15.324219 14.132812 15.335938 16.117188 15.335938 18.539062 C 15.335938 20.964844 15.347656 22.976562 15.363281 23.015625 C 15.398438 23.113281 15.472656 23.097656 15.8125 22.929688 C 17.394531 22.144531 18.511719 20.695312 18.886719 18.929688 C 19.015625 18.328125 19.015625 17.378906 18.886719 16.78125 C 18.722656 16.011719 18.476562 15.410156 18.058594 14.78125 C 17.699219 14.230469 17.566406 14.085938 14.28125 10.703125 C 10.625 6.941406 10.59375 6.902344 10.207031 6.097656 C 9.933594 5.527344 9.835938 5.078125 9.835938 4.433594 C 9.839844 3.355469 10.242188 2.402344 11.019531 1.632812 C 11.800781 0.863281 12.691406 0.472656 13.773438 0.429688 C 14.855469 0.386719 15.808594 0.722656 16.761719 1.484375 C 17.53125 2.097656 17.832031 2.53125 20.621094 7.066406 C 23.070312 11.050781 23.710938 12.113281 23.75 12.261719 C 23.875 12.746094 23.675781 12.566406 20.753906 9.542969 C 17.175781 5.839844 17.394531 6.070312 16.363281 4.976562 C 15.109375 3.648438 14.855469 3.414062 14.507812 3.253906 C 13.941406 2.988281 13.382812 3.097656 12.953125 3.554688 C 12.667969 3.855469 12.570312 4.089844 12.574219 4.472656 C 12.574219 4.933594 12.695312 5.15625 13.28125 5.765625 C 13.542969 6.03125 15.042969 7.585938 16.625 9.214844 C 18.203125 10.847656 19.613281 12.324219 19.761719 12.5 C 21.070312 14.050781 21.777344 16.097656 21.695312 18.125 C 21.609375 20.371094 20.691406 22.398438 19.078125 23.902344 C 18.371094 24.5625 17.734375 24.976562 16.242188 25.734375 C 15.800781 25.957031 15.421875 26.160156 15.398438 26.179688 C 15.371094 26.207031 15.351562 29.925781 15.335938 37.09375 L 15.316406 47.96875 Z M 7.515625 27.148438 C 11.648438 25.050781 12.179688 24.773438 12.328125 24.636719 L 12.464844 24.515625 L 12.464844 21.832031 C 12.464844 19.515625 12.457031 19.148438 12.402344 19.148438 C 12.320312 19.148438 11.402344 19.90625 10.59375 20.644531 C 8.363281 22.675781 6.308594 25.386719 4.902344 28.148438 C 4.722656 28.503906 4.71875 28.515625 4.78125 28.515625 C 4.804688 28.515625 6.035156 27.902344 7.515625 27.148438 Z M 7.515625 27.148438 "/>
<path style=" stroke:none;fill-rule:nonzero;fill:rgb(87.843138%,55.686277%,61.56863%);fill-opacity:1;" d="M 13.910156 46.535156 L 12.507812 45.125 L 12.507812 36.441406 C 12.507812 28.835938 12.5 27.757812 12.445312 27.738281 C 12.382812 27.714844 10.164062 28.8125 3.648438 32.101562 C 1.714844 33.074219 0.121094 33.863281 0.105469 33.851562 C 0.0507812 33.796875 0.421875 32.25 0.707031 31.339844 C 1.867188 27.644531 3.882812 24.023438 6.410156 21.09375 C 7.082031 20.3125 8.789062 18.621094 9.574219 17.957031 C 10.746094 16.960938 11.941406 16.09375 13.183594 15.328125 C 14.054688 14.789062 15.25 14.128906 15.300781 14.15625 C 15.320312 14.167969 15.335938 16.171875 15.335938 18.605469 C 15.335938 21.582031 15.351562 23.042969 15.378906 23.058594 C 15.457031 23.109375 15.660156 23.035156 16.039062 22.820312 C 17.535156 21.972656 18.53125 20.628906 18.886719 18.984375 C 18.964844 18.628906 18.980469 18.410156 18.980469 17.855469 C 18.980469 16.820312 18.820312 16.171875 18.347656 15.257812 C 17.929688 14.457031 17.871094 14.390625 14.492188 10.914062 C 11.066406 7.386719 10.816406 7.117188 10.433594 6.503906 C 9.992188 5.796875 9.824219 5.144531 9.859375 4.289062 C 9.886719 3.648438 9.957031 3.339844 10.207031 2.816406 C 10.554688 2.074219 11.027344 1.527344 11.679688 1.109375 C 13.394531 0 15.460938 0.246094 17.03125 1.746094 C 17.457031 2.15625 17.855469 2.660156 18.332031 3.40625 C 19.3125 4.9375 23.582031 11.886719 23.699219 12.148438 C 23.886719 12.554688 23.71875 12.566406 23.320312 12.179688 C 23.066406 11.933594 21.242188 10.050781 18.226562 6.921875 C 17.785156 6.460938 17.023438 5.660156 16.53125 5.144531 C 14.757812 3.269531 14.566406 3.121094 13.941406 3.117188 C 13.558594 3.113281 13.246094 3.242188 12.976562 3.507812 C 12.453125 4.027344 12.417969 4.765625 12.886719 5.34375 C 12.972656 5.449219 13.820312 6.339844 14.769531 7.316406 C 15.714844 8.292969 17.183594 9.808594 18.03125 10.683594 C 18.878906 11.558594 19.6875 12.414062 19.824219 12.585938 C 20.773438 13.761719 21.378906 15.132812 21.613281 16.613281 C 21.722656 17.316406 21.710938 18.503906 21.585938 19.214844 C 21.164062 21.628906 19.78125 23.664062 17.683594 24.949219 C 17.472656 25.078125 16.910156 25.382812 16.433594 25.625 C 15.957031 25.867188 15.515625 26.097656 15.453125 26.140625 L 15.335938 26.222656 L 15.324219 37.085938 L 15.316406 47.949219 Z M 7.835938 26.996094 C 11.613281 25.078125 12.210938 24.765625 12.335938 24.644531 C 12.410156 24.574219 12.449219 24.480469 12.46875 24.304688 C 12.507812 24.011719 12.515625 19.335938 12.480469 19.203125 C 12.464844 19.152344 12.4375 19.109375 12.417969 19.109375 C 12.398438 19.109375 12.160156 19.289062 11.886719 19.511719 C 9.363281 21.558594 7.230469 24.054688 5.609375 26.855469 C 5.230469 27.507812 4.738281 28.4375 4.738281 28.5 C 4.738281 28.5625 5.0625 28.40625 7.835938 26.996094 Z M 7.835938 26.996094 "/>
<path style=" stroke:none;fill-rule:nonzero;fill:rgb(86.666667%,52.156866%,58.431375%);fill-opacity:1;" d="M 13.921875 46.546875 L 12.527344 45.15625 L 12.507812 36.449219 C 12.488281 28.621094 12.480469 27.742188 12.421875 27.730469 C 12.355469 27.71875 9.824219 28.980469 3.367188 32.234375 C 1.648438 33.101562 0.210938 33.824219 0.167969 33.839844 C 0.0742188 33.875 0.0742188 33.832031 0.179688 33.355469 C 0.988281 29.726562 2.707031 26.003906 5.046875 22.808594 C 6.96875 20.1875 9.597656 17.691406 12.382812 15.847656 C 13.40625 15.167969 15.125 14.175781 15.273438 14.175781 C 15.328125 14.175781 15.335938 14.746094 15.335938 18.625 C 15.335938 22.417969 15.34375 23.074219 15.394531 23.09375 C 15.472656 23.125 15.96875 22.886719 16.363281 22.636719 C 18.082031 21.535156 19.085938 19.625 18.996094 17.625 C 18.941406 16.492188 18.59375 15.488281 17.941406 14.585938 C 17.632812 14.160156 17.191406 13.6875 15.210938 11.648438 C 14.410156 10.820312 13.476562 9.859375 13.140625 9.511719 C 11.039062 7.347656 10.558594 6.792969 10.261719 6.1875 C 9.929688 5.515625 9.824219 5.003906 9.859375 4.246094 C 9.90625 3.253906 10.273438 2.425781 10.984375 1.699219 C 11.386719 1.289062 11.714844 1.054688 12.21875 0.816406 C 12.859375 0.519531 13.214844 0.441406 13.964844 0.445312 C 14.527344 0.445312 14.640625 0.457031 14.976562 0.558594 C 15.757812 0.792969 16.410156 1.167969 17.007812 1.726562 C 17.640625 2.320312 17.980469 2.816406 20.128906 6.292969 C 21.921875 9.195312 23.664062 12.0625 23.722656 12.195312 C 23.851562 12.5 23.734375 12.550781 23.457031 12.304688 C 23.246094 12.117188 18.71875 7.433594 16.960938 5.585938 C 14.707031 3.214844 14.582031 3.113281 13.921875 3.117188 C 13.511719 3.117188 13.261719 3.222656 12.96875 3.511719 C 12.667969 3.808594 12.570312 4.046875 12.570312 4.472656 C 12.574219 4.78125 12.589844 4.859375 12.691406 5.054688 C 12.835938 5.332031 12.703125 5.1875 16.386719 8.988281 C 18.066406 10.726562 19.570312 12.296875 19.726562 12.480469 C 21.105469 14.097656 21.84375 16.351562 21.671875 18.421875 C 21.460938 20.929688 20.300781 23.035156 18.308594 24.523438 C 17.867188 24.855469 17.367188 25.144531 16.34375 25.667969 C 15.839844 25.925781 15.40625 26.160156 15.382812 26.191406 C 15.347656 26.230469 15.332031 29.347656 15.324219 37.09375 L 15.316406 47.9375 Z M 7.257812 27.296875 C 11.453125 25.167969 12.140625 24.808594 12.316406 24.65625 L 12.484375 24.511719 L 12.5 21.90625 C 12.507812 20.472656 12.5 19.257812 12.488281 19.203125 C 12.472656 19.152344 12.441406 19.109375 12.417969 19.109375 C 12.355469 19.109375 11.601562 19.726562 10.925781 20.328125 C 8.558594 22.429688 6.660156 24.851562 5.101562 27.75 C 4.785156 28.339844 4.691406 28.558594 4.757812 28.558594 C 4.765625 28.558594 5.894531 27.992188 7.257812 27.296875 Z M 7.257812 27.296875 "/>
<path style=" stroke:none;fill-rule:nonzero;fill:rgb(85.09804%,45.882353%,52.941179%);fill-opacity:1;" d="M 13.910156 46.527344 L 12.507812 45.101562 L 12.507812 36.414062 C 12.507812 30.636719 12.492188 27.71875 12.464844 27.699219 C 12.425781 27.675781 8.875 29.445312 2.4375 32.691406 C 1.160156 33.335938 0.109375 33.847656 0.101562 33.824219 C 0.0820312 33.765625 0.375 32.527344 0.585938 31.800781 C 1.648438 28.125 3.683594 24.34375 6.199219 21.367188 C 8.3125 18.867188 10.878906 16.699219 13.710938 15.023438 C 14.425781 14.597656 15.214844 14.175781 15.289062 14.175781 C 15.324219 14.175781 15.335938 15.3125 15.335938 18.628906 C 15.335938 22.457031 15.34375 23.085938 15.394531 23.105469 C 15.429688 23.117188 15.609375 23.050781 15.796875 22.960938 C 17.421875 22.148438 18.511719 20.75 18.902344 18.984375 C 19.007812 18.511719 19.03125 17.503906 18.949219 17.015625 C 18.773438 15.949219 18.320312 14.96875 17.636719 14.175781 C 17.359375 13.855469 16.355469 12.808594 14.492188 10.890625 C 10.824219 7.125 10.605469 6.878906 10.226562 6.09375 C 10.003906 5.632812 9.886719 5.175781 9.859375 4.640625 C 9.832031 4.105469 9.890625 3.707031 10.074219 3.167969 C 10.273438 2.597656 10.554688 2.148438 11.007812 1.691406 C 11.566406 1.125 12.113281 0.800781 12.917969 0.558594 C 13.242188 0.460938 13.363281 0.445312 13.898438 0.445312 C 14.4375 0.441406 14.5625 0.453125 14.914062 0.550781 C 15.691406 0.765625 16.390625 1.15625 17 1.71875 C 17.597656 2.269531 17.996094 2.855469 20.105469 6.273438 C 21.59375 8.683594 23.671875 12.097656 23.726562 12.222656 C 23.851562 12.5 23.738281 12.539062 23.476562 12.304688 C 23.242188 12.09375 18.121094 6.796875 16.53125 5.117188 C 15.128906 3.640625 14.871094 3.398438 14.539062 3.234375 C 14.042969 2.988281 13.441406 3.074219 13.019531 3.453125 C 12.433594 3.976562 12.386719 4.785156 12.910156 5.390625 C 13.011719 5.511719 14.550781 7.109375 16.324219 8.941406 C 18.097656 10.773438 19.660156 12.402344 19.792969 12.566406 C 20.742188 13.710938 21.394531 15.195312 21.605469 16.707031 C 21.691406 17.3125 21.671875 18.722656 21.570312 19.253906 C 21.171875 21.34375 20.15625 23.046875 18.539062 24.335938 C 18 24.765625 17.535156 25.042969 16.371094 25.640625 C 15.835938 25.914062 15.386719 26.152344 15.367188 26.167969 C 15.351562 26.1875 15.335938 31.09375 15.335938 37.078125 C 15.335938 43.0625 15.332031 47.957031 15.324219 47.953125 C 15.320312 47.953125 14.683594 47.308594 13.910156 46.527344 Z M 7.605469 27.128906 C 10.613281 25.601562 12.019531 24.878906 12.25 24.742188 C 12.511719 24.582031 12.507812 24.644531 12.507812 21.761719 C 12.507812 19.46875 12.5 19.144531 12.441406 19.125 C 12.328125 19.078125 10.953125 20.242188 9.945312 21.234375 C 7.964844 23.183594 6.351562 25.363281 5.027344 27.871094 C 4.738281 28.425781 4.6875 28.558594 4.773438 28.558594 C 4.785156 28.558594 6.058594 27.914062 7.605469 27.128906 Z M 7.605469 27.128906 "/>
<path style=" stroke:none;fill-rule:nonzero;fill:rgb(83.529413%,40.000001%,47.843137%);fill-opacity:1;" d="M 13.863281 46.457031 L 12.507812 45.078125 L 12.507812 36.378906 C 12.507812 29.019531 12.5 27.679688 12.449219 27.679688 C 12.394531 27.679688 9.972656 28.886719 4.253906 31.765625 C 2.8125 32.492188 1.285156 33.261719 0.859375 33.480469 C 0.15625 33.839844 0.0859375 33.871094 0.105469 33.78125 C 0.8125 30.488281 2.0625 27.441406 3.921875 24.488281 C 6.046875 21.117188 9.003906 18.109375 12.429688 15.835938 C 13.484375 15.136719 15.214844 14.144531 15.292969 14.195312 C 15.320312 14.210938 15.335938 15.796875 15.335938 18.652344 C 15.335938 22.757812 15.339844 23.085938 15.40625 23.109375 C 15.492188 23.144531 16.023438 22.878906 16.496094 22.570312 C 16.929688 22.285156 17.550781 21.695312 17.894531 21.242188 C 18.390625 20.589844 18.796875 19.648438 18.941406 18.820312 C 19.027344 18.304688 19.027344 17.402344 18.941406 16.890625 C 18.792969 16.046875 18.417969 15.1875 17.898438 14.5 C 17.554688 14.046875 17.152344 13.617188 14.324219 10.703125 C 11.855469 8.164062 11.492188 7.785156 11.085938 7.324219 C 10.476562 6.632812 10.125 6.007812 9.945312 5.277344 C 9.839844 4.847656 9.847656 4.011719 9.964844 3.539062 C 10.253906 2.382812 11.046875 1.414062 12.148438 0.867188 C 12.414062 0.738281 12.5625 0.683594 13.183594 0.496094 C 13.304688 0.460938 13.574219 0.441406 13.941406 0.441406 C 14.636719 0.445312 15.0625 0.550781 15.777344 0.898438 C 16.5625 1.28125 17.164062 1.796875 17.761719 2.613281 C 18.210938 3.222656 19.203125 4.804688 22.25 9.785156 C 23.472656 11.777344 23.777344 12.304688 23.777344 12.414062 C 23.777344 12.535156 23.566406 12.386719 23.164062 11.984375 C 22.453125 11.273438 18.039062 6.699219 16.703125 5.289062 C 15.285156 3.789062 14.867188 3.386719 14.570312 3.234375 C 14.367188 3.128906 14.300781 3.117188 13.941406 3.117188 C 13.457031 3.113281 13.25 3.203125 12.925781 3.542969 C 12.636719 3.84375 12.535156 4.085938 12.53125 4.453125 C 12.53125 4.902344 12.6875 5.191406 13.234375 5.757812 C 13.472656 6.007812 14.953125 7.535156 16.523438 9.15625 C 18.09375 10.777344 19.488281 12.234375 19.625 12.390625 C 20.617188 13.527344 21.285156 14.917969 21.546875 16.390625 C 21.65625 17.007812 21.695312 18.070312 21.628906 18.695312 C 21.417969 20.691406 20.46875 22.589844 19.015625 23.917969 C 18.289062 24.582031 17.792969 24.898438 16.292969 25.671875 L 15.355469 26.152344 L 15.335938 36.980469 C 15.320312 44.734375 15.300781 47.808594 15.269531 47.820312 C 15.242188 47.828125 14.613281 47.214844 13.863281 46.457031 Z M 5.425781 28.25 C 5.757812 28.078125 7.167969 27.359375 8.558594 26.652344 C 11.820312 24.996094 12.253906 24.769531 12.378906 24.644531 L 12.484375 24.542969 L 12.484375 21.835938 C 12.484375 19.347656 12.480469 19.128906 12.414062 19.117188 C 12.375 19.109375 12.082031 19.320312 11.71875 19.621094 C 9.339844 21.589844 7.4375 23.789062 5.847656 26.40625 C 5.429688 27.097656 4.695312 28.433594 4.695312 28.511719 C 4.695312 28.601562 4.828125 28.554688 5.425781 28.25 Z M 5.425781 28.25 "/>
<path style=" stroke:none;fill-rule:nonzero;fill:rgb(82.352942%,35.686275%,43.921569%);fill-opacity:1;" d="M 13.890625 46.464844 L 12.507812 45.09375 L 12.507812 36.386719 C 12.507812 28.339844 12.5 27.679688 12.4375 27.679688 C 12.398438 27.679688 11.386719 28.171875 10.191406 28.773438 C 6.132812 30.808594 0.371094 33.710938 0.226562 33.792969 L 0.0859375 33.871094 L 0.109375 33.777344 C 0.121094 33.722656 0.1875 33.433594 0.257812 33.136719 C 1.132812 29.402344 2.917969 25.664062 5.347656 22.460938 C 7.816406 19.214844 11.25 16.300781 14.839844 14.40625 L 15.292969 14.167969 L 15.292969 18.578125 C 15.292969 21.003906 15.304688 23.019531 15.320312 23.054688 C 15.359375 23.160156 15.5 23.132812 15.859375 22.953125 C 17.492188 22.121094 18.605469 20.644531 18.949219 18.859375 C 19.058594 18.28125 19.050781 17.34375 18.929688 16.78125 C 18.75 15.9375 18.390625 15.128906 17.914062 14.496094 C 17.609375 14.089844 17.132812 13.585938 14.640625 11.019531 C 11.207031 7.480469 10.9375 7.191406 10.574219 6.660156 C 9.492188 5.078125 9.671875 3.070312 11.023438 1.699219 C 11.554688 1.160156 12.273438 0.738281 12.929688 0.582031 C 13.058594 0.554688 13.183594 0.511719 13.210938 0.492188 C 13.289062 0.433594 14.148438 0.40625 14.40625 0.453125 C 15.386719 0.625 16.28125 1.074219 17.007812 1.765625 C 17.722656 2.445312 17.992188 2.855469 22.054688 9.484375 C 22.933594 10.917969 23.652344 12.101562 23.652344 12.113281 C 23.652344 12.125 23.683594 12.199219 23.722656 12.277344 C 23.898438 12.644531 23.589844 12.417969 22.800781 11.601562 C 22.421875 11.210938 21.09375 9.835938 19.851562 8.550781 C 18.605469 7.261719 17.160156 5.757812 16.636719 5.207031 C 15.511719 4.023438 14.867188 3.390625 14.65625 3.269531 C 14.425781 3.132812 14.007812 3.039062 13.777344 3.074219 C 13.304688 3.140625 12.851562 3.480469 12.640625 3.921875 C 12.484375 4.257812 12.480469 4.691406 12.636719 5.019531 C 12.773438 5.304688 12.734375 5.265625 16.222656 8.863281 C 19.488281 12.238281 19.644531 12.40625 19.902344 12.738281 C 21.105469 14.285156 21.734375 16.230469 21.652344 18.148438 C 21.535156 20.9375 20.160156 23.320312 17.785156 24.847656 C 17.585938 24.976562 16.980469 25.308594 16.433594 25.585938 C 15.886719 25.867188 15.410156 26.125 15.367188 26.164062 C 15.296875 26.226562 15.292969 26.78125 15.28125 37.03125 L 15.273438 47.835938 Z M 7.609375 27.148438 C 11.851562 24.996094 12.21875 24.804688 12.371094 24.644531 L 12.507812 24.503906 L 12.496094 21.796875 C 12.488281 19.820312 12.472656 19.089844 12.4375 19.078125 C 12.410156 19.070312 12.15625 19.253906 11.871094 19.484375 C 9.035156 21.785156 6.738281 24.585938 5.027344 27.828125 C 4.6875 28.476562 4.636719 28.632812 4.769531 28.582031 C 4.8125 28.566406 6.089844 27.921875 7.609375 27.148438 Z M 7.609375 27.148438 "/>
<path style=" stroke:none;fill-rule:nonzero;fill:rgb(81.568629%,33.333334%,41.960785%);fill-opacity:1;" d="M 13.910156 46.484375 L 12.550781 45.132812 L 12.550781 36.464844 C 12.550781 30.429688 12.535156 27.773438 12.503906 27.71875 C 12.460938 27.640625 12.289062 27.71875 9.6875 29.023438 C 8.160156 29.785156 5.410156 31.167969 3.570312 32.097656 C 1.730469 33.023438 0.207031 33.785156 0.183594 33.785156 C 0.164062 33.785156 0.136719 33.808594 0.125 33.835938 C 0.109375 33.867188 0.101562 33.859375 0.0976562 33.816406 C 0.0976562 33.773438 0.113281 33.707031 0.136719 33.667969 C 0.15625 33.628906 0.226562 33.359375 0.289062 33.074219 C 0.664062 31.324219 1.441406 29.179688 2.410156 27.21875 C 5.074219 21.832031 9.21875 17.519531 14.582031 14.558594 C 14.921875 14.371094 15.222656 14.214844 15.246094 14.214844 C 15.28125 14.214844 15.292969 15.425781 15.292969 18.648438 C 15.292969 23.765625 15.238281 23.261719 15.753906 23.015625 C 17.414062 22.230469 18.582031 20.714844 18.953125 18.875 C 19.0625 18.320312 19.054688 17.300781 18.929688 16.734375 C 18.722656 15.769531 18.253906 14.835938 17.613281 14.113281 C 17.324219 13.78125 16.351562 12.769531 14.382812 10.746094 C 10.898438 7.164062 10.621094 6.851562 10.269531 6.128906 C 10.023438 5.621094 9.929688 5.242188 9.902344 4.652344 C 9.867188 3.871094 9.980469 3.324219 10.320312 2.65625 C 10.589844 2.125 11.128906 1.519531 11.632812 1.175781 C 11.933594 0.972656 12.550781 0.6875 12.871094 0.609375 C 13.03125 0.570312 13.191406 0.519531 13.230469 0.5 C 13.347656 0.441406 14.074219 0.410156 14.34375 0.453125 C 15.34375 0.617188 16.25 1.058594 16.984375 1.746094 C 17.632812 2.347656 18.082031 3.027344 21.078125 7.902344 C 23.589844 11.992188 23.777344 12.3125 23.777344 12.425781 C 23.777344 12.472656 23.648438 12.417969 23.523438 12.316406 C 23.363281 12.183594 18.5625 7.222656 16.742188 5.308594 C 14.78125 3.246094 14.566406 3.074219 13.941406 3.074219 C 13.667969 3.074219 13.585938 3.09375 13.34375 3.210938 C 13.03125 3.363281 12.78125 3.609375 12.625 3.925781 C 12.546875 4.082031 12.527344 4.1875 12.527344 4.472656 C 12.53125 4.78125 12.546875 4.859375 12.648438 5.050781 C 12.796875 5.335938 12.726562 5.257812 16.09375 8.738281 C 19.578125 12.335938 19.65625 12.421875 19.953125 12.8125 C 22.289062 15.886719 22.210938 20.144531 19.769531 23.101562 C 19.46875 23.464844 18.867188 24.050781 18.503906 24.335938 C 17.945312 24.773438 17.265625 25.171875 15.988281 25.8125 C 15.6875 25.964844 15.414062 26.105469 15.378906 26.128906 C 15.320312 26.167969 15.3125 27.4375 15.292969 37.003906 L 15.273438 47.835938 Z M 7.570312 27.175781 C 11.609375 25.125 12.253906 24.789062 12.382812 24.664062 C 12.539062 24.503906 12.546875 24.363281 12.550781 21.59375 C 12.550781 19.667969 12.539062 19.195312 12.492188 19.132812 C 12.460938 19.089844 12.414062 19.0625 12.390625 19.070312 C 12.242188 19.121094 10.84375 20.339844 10.085938 21.074219 C 8.832031 22.289062 7.957031 23.300781 7 24.628906 C 6.234375 25.695312 5.472656 26.933594 4.933594 28.003906 C 4.707031 28.453125 4.65625 28.601562 4.730469 28.601562 C 4.75 28.601562 6.027344 27.957031 7.570312 27.175781 Z M 7.570312 27.175781 "/>
<path style=" stroke:none;fill-rule:nonzero;fill:rgb(80.784315%,29.411766%,38.431373%);fill-opacity:1;" d="M 13.882812 46.445312 L 12.550781 45.097656 L 12.550781 36.433594 C 12.550781 31.667969 12.539062 27.742188 12.523438 27.703125 C 12.507812 27.667969 12.480469 27.636719 12.457031 27.636719 C 12.421875 27.636719 9.605469 29.046875 3.199219 32.269531 C 1.527344 33.113281 0.144531 33.820312 0.128906 33.84375 C 0.109375 33.871094 0.0976562 33.859375 0.0976562 33.820312 C 0.09375 33.78125 0.113281 33.738281 0.132812 33.726562 C 0.152344 33.710938 0.183594 33.613281 0.199219 33.503906 C 0.3125 32.75 0.933594 30.703125 1.425781 29.457031 C 2.90625 25.707031 5.09375 22.371094 7.90625 19.566406 C 9.699219 17.777344 11.640625 16.277344 13.773438 15.023438 C 14.359375 14.679688 15.214844 14.214844 15.265625 14.214844 C 15.28125 14.214844 15.292969 16.207031 15.292969 18.644531 C 15.292969 22.582031 15.300781 23.078125 15.359375 23.125 C 15.453125 23.203125 16.195312 22.824219 16.726562 22.429688 C 19.339844 20.480469 19.816406 16.820312 17.785156 14.308594 C 17.5 13.953125 16.785156 13.207031 14.574219 10.933594 C 10.945312 7.203125 10.671875 6.902344 10.300781 6.167969 C 10.011719 5.589844 9.890625 5.074219 9.890625 4.433594 C 9.890625 2.953125 10.765625 1.578125 12.148438 0.890625 C 12.417969 0.753906 13.050781 0.542969 13.179688 0.542969 C 13.222656 0.542969 13.265625 0.519531 13.277344 0.492188 C 13.300781 0.425781 14.4375 0.421875 14.578125 0.484375 C 14.636719 0.511719 14.832031 0.574219 15.019531 0.625 C 16.050781 0.90625 16.992188 1.601562 17.75 2.636719 C 18.121094 3.140625 19.085938 4.675781 20.976562 7.757812 C 23.445312 11.773438 23.667969 12.140625 23.6875 12.238281 C 23.695312 12.292969 23.722656 12.335938 23.742188 12.335938 C 23.761719 12.335938 23.777344 12.367188 23.777344 12.40625 C 23.773438 12.453125 23.765625 12.460938 23.75 12.429688 C 23.738281 12.398438 23.710938 12.386719 23.6875 12.402344 C 23.664062 12.414062 23.597656 12.382812 23.539062 12.328125 C 23.335938 12.144531 17.886719 6.503906 16.617188 5.164062 C 15.164062 3.628906 14.886719 3.367188 14.546875 3.199219 C 14.335938 3.09375 14.25 3.078125 13.941406 3.074219 C 13.632812 3.074219 13.550781 3.089844 13.347656 3.1875 C 13.078125 3.320312 12.773438 3.621094 12.628906 3.894531 C 12.566406 4.019531 12.53125 4.175781 12.515625 4.390625 C 12.496094 4.773438 12.589844 5.066406 12.835938 5.359375 C 12.925781 5.46875 14.457031 7.058594 16.234375 8.894531 C 18.011719 10.726562 19.585938 12.371094 19.730469 12.542969 C 21.082031 14.140625 21.796875 16.363281 21.625 18.441406 C 21.457031 20.511719 20.589844 22.371094 19.148438 23.753906 C 18.378906 24.492188 17.886719 24.820312 16.476562 25.546875 C 15.929688 25.828125 15.441406 26.085938 15.386719 26.117188 L 15.292969 26.175781 L 15.292969 36.984375 C 15.292969 43.480469 15.277344 47.792969 15.253906 47.792969 C 15.234375 47.792969 14.617188 47.1875 13.882812 46.445312 Z M 7.515625 27.210938 C 11.234375 25.324219 12.210938 24.816406 12.351562 24.703125 C 12.445312 24.632812 12.484375 24.554688 12.507812 24.398438 C 12.550781 24.15625 12.5625 19.234375 12.523438 19.132812 C 12.480469 19.019531 12.378906 19.058594 12.070312 19.304688 C 9.269531 21.527344 6.929688 24.3125 5.191406 27.492188 C 4.65625 28.476562 4.605469 28.601562 4.742188 28.601562 C 4.765625 28.601562 6.015625 27.976562 7.515625 27.210938 Z M 7.515625 27.210938 "/>
<path style=" stroke:none;fill-rule:nonzero;fill:rgb(79.607844%,25.882354%,35.686275%);fill-opacity:1;" d="M 13.890625 46.433594 L 12.550781 45.082031 L 12.550781 36.378906 C 12.550781 28.761719 12.542969 27.675781 12.488281 27.652344 C 12.425781 27.628906 10.015625 28.824219 3.640625 32.039062 C 1.820312 32.957031 0.292969 33.730469 0.246094 33.753906 C 0.171875 33.792969 0.167969 33.78125 0.195312 33.585938 C 0.210938 33.46875 0.289062 33.105469 0.371094 32.777344 C 1.453125 28.402344 3.796875 24.050781 6.917969 20.613281 C 7.46875 20.007812 8.75 18.746094 9.363281 18.210938 C 10.328125 17.367188 11.589844 16.414062 12.695312 15.699219 C 13.488281 15.1875 15.167969 14.214844 15.265625 14.214844 C 15.28125 14.214844 15.296875 16.226562 15.304688 18.679688 C 15.316406 23.78125 15.265625 23.265625 15.742188 23.042969 C 16.859375 22.523438 18.007812 21.382812 18.507812 20.292969 C 18.90625 19.429688 19.027344 18.851562 19.027344 17.855469 C 19.027344 16.773438 18.882812 16.171875 18.402344 15.242188 C 17.996094 14.449219 17.859375 14.296875 14.492188 10.828125 C 12.199219 8.46875 11.550781 7.792969 11.175781 7.378906 C 10.566406 6.703125 10.195312 6.074219 10.007812 5.394531 C 9.875 4.902344 9.875 3.988281 10.007812 3.492188 C 10.132812 3.027344 10.476562 2.363281 10.78125 1.988281 C 11.339844 1.296875 12.222656 0.75 13.046875 0.582031 C 13.1875 0.550781 13.296875 0.515625 13.285156 0.5 C 13.277344 0.484375 13.421875 0.457031 13.609375 0.441406 C 13.992188 0.410156 14.585938 0.449219 14.550781 0.507812 C 14.539062 0.527344 14.574219 0.542969 14.632812 0.542969 C 14.800781 0.542969 15.410156 0.746094 15.761719 0.917969 C 16.488281 1.273438 17.144531 1.84375 17.71875 2.613281 C 18.089844 3.109375 19.042969 4.621094 21.226562 8.175781 C 23.34375 11.621094 23.695312 12.210938 23.695312 12.320312 C 23.695312 12.507812 23.957031 12.765625 19.539062 8.199219 C 18.683594 7.3125 17.457031 6.03125 16.8125 5.351562 C 14.738281 3.164062 14.621094 3.074219 13.921875 3.074219 C 13.589844 3.074219 13.511719 3.089844 13.328125 3.1875 C 13.058594 3.328125 12.75 3.632812 12.625 3.882812 C 12.542969 4.042969 12.527344 4.144531 12.527344 4.472656 C 12.53125 4.828125 12.542969 4.894531 12.644531 5.09375 C 12.78125 5.347656 12.632812 5.191406 16.414062 9.09375 C 17.992188 10.726562 19.371094 12.15625 19.476562 12.273438 C 20.601562 13.507812 21.308594 15.003906 21.5625 16.703125 C 21.644531 17.257812 21.644531 18.390625 21.558594 18.988281 C 21.234375 21.300781 19.941406 23.367188 18.015625 24.664062 C 17.546875 24.980469 16.957031 25.3125 16.09375 25.734375 C 15.78125 25.890625 15.472656 26.054688 15.410156 26.097656 L 15.292969 26.179688 L 15.292969 36.984375 C 15.292969 42.929688 15.277344 47.789062 15.261719 47.789062 C 15.246094 47.789062 14.628906 47.179688 13.890625 46.433594 Z M 6.871094 27.550781 C 9.476562 26.230469 11.789062 25.046875 12.109375 24.867188 C 12.246094 24.792969 12.402344 24.667969 12.453125 24.589844 L 12.550781 24.449219 L 12.550781 21.824219 C 12.550781 20.378906 12.539062 19.167969 12.523438 19.132812 C 12.472656 18.996094 12.324219 19.078125 11.714844 19.582031 C 9.207031 21.648438 7.152344 24.066406 5.566406 26.816406 C 5.148438 27.535156 4.65625 28.480469 4.65625 28.558594 C 4.65625 28.582031 4.6875 28.601562 4.730469 28.597656 C 4.769531 28.597656 5.734375 28.128906 6.871094 27.550781 Z M 0.0976562 33.800781 C 0.101562 33.753906 0.109375 33.742188 0.125 33.777344 C 0.136719 33.808594 0.132812 33.84375 0.121094 33.855469 C 0.105469 33.871094 0.0976562 33.847656 0.0976562 33.800781 Z M 23.742188 12.394531 C 23.742188 12.34375 23.753906 12.335938 23.765625 12.367188 C 23.777344 12.398438 23.777344 12.433594 23.761719 12.449219 C 23.75 12.464844 23.738281 12.4375 23.742188 12.394531 Z M 23.742188 12.394531 "/>
<path style=" stroke:none;fill-rule:nonzero;fill:rgb(78.823531%,22.352941%,32.549021%);fill-opacity:1;" d="M 13.890625 46.421875 L 12.550781 45.089844 L 12.550781 27.636719 L 12.464844 27.636719 C 12.382812 27.636719 10.078125 28.785156 3.207031 32.246094 C 1.5625 33.074219 0.207031 33.742188 0.195312 33.730469 C 0.132812 33.667969 0.582031 31.925781 0.9375 30.859375 C 1.941406 27.855469 3.457031 24.996094 5.394531 22.453125 C 7.480469 19.714844 10.210938 17.242188 13.203125 15.390625 C 13.960938 14.925781 15.15625 14.257812 15.238281 14.257812 C 15.28125 14.257812 15.296875 15.101562 15.304688 18.699219 L 15.316406 23.144531 L 15.40625 23.15625 C 15.457031 23.164062 15.65625 23.089844 15.847656 22.992188 C 17.492188 22.175781 18.683594 20.589844 18.984375 18.820312 C 19.070312 18.3125 19.070312 17.394531 18.984375 16.910156 C 18.8125 15.914062 18.355469 14.933594 17.707031 14.175781 C 17.425781 13.851562 16.332031 12.703125 14.40625 10.726562 C 10.820312 7.042969 10.675781 6.878906 10.285156 6.085938 C 10 5.5 9.921875 5.148438 9.921875 4.453125 C 9.921875 3.800781 9.988281 3.464844 10.238281 2.890625 C 10.714844 1.796875 11.777344 0.910156 12.964844 0.613281 C 13.175781 0.558594 13.339844 0.507812 13.328125 0.492188 C 13.316406 0.480469 13.441406 0.457031 13.605469 0.441406 C 13.957031 0.40625 14.609375 0.453125 14.527344 0.507812 C 14.488281 0.53125 14.5 0.542969 14.574219 0.542969 C 14.753906 0.542969 15.300781 0.714844 15.65625 0.875 C 16.417969 1.226562 17.082031 1.785156 17.675781 2.570312 C 18.128906 3.171875 19.503906 5.371094 23.199219 11.414062 C 23.753906 12.324219 23.835938 12.566406 23.472656 12.242188 C 23.390625 12.167969 22.425781 11.171875 21.324219 10.035156 C 20.226562 8.898438 18.949219 7.570312 18.480469 7.085938 C 18.015625 6.605469 17.214844 5.765625 16.699219 5.226562 C 14.796875 3.226562 14.625 3.089844 14.003906 3.058594 C 13.550781 3.039062 13.261719 3.144531 12.949219 3.449219 C 12.542969 3.839844 12.390625 4.328125 12.527344 4.792969 C 12.664062 5.257812 12.367188 4.929688 16.136719 8.824219 C 17.707031 10.445312 19.140625 11.929688 19.328125 12.128906 C 20.507812 13.378906 21.210938 14.773438 21.523438 16.496094 C 21.613281 17 21.648438 18.140625 21.589844 18.6875 C 21.304688 21.242188 19.960938 23.40625 17.785156 24.804688 C 17.585938 24.933594 16.949219 25.28125 16.371094 25.582031 L 15.316406 26.125 L 15.304688 36.9375 C 15.296875 42.882812 15.277344 47.75 15.261719 47.75 C 15.242188 47.75 14.625 47.152344 13.890625 46.421875 Z M 7.390625 27.296875 C 10.808594 25.5625 12.117188 24.890625 12.28125 24.78125 C 12.5625 24.597656 12.550781 24.746094 12.550781 21.796875 C 12.550781 19.140625 12.542969 19.023438 12.414062 19.023438 C 12.398438 19.023438 12.160156 19.207031 11.886719 19.429688 C 9.753906 21.160156 7.871094 23.222656 6.417969 25.421875 C 5.613281 26.640625 4.613281 28.433594 4.667969 28.570312 C 4.679688 28.609375 4.707031 28.640625 4.71875 28.640625 C 4.734375 28.640625 5.9375 28.035156 7.390625 27.296875 Z M 0.0976562 33.800781 C 0.101562 33.753906 0.109375 33.742188 0.125 33.777344 C 0.136719 33.808594 0.132812 33.84375 0.121094 33.855469 C 0.105469 33.871094 0.0976562 33.847656 0.0976562 33.800781 Z M 0.0976562 33.800781 "/>
<path style=" stroke:none;fill-rule:nonzero;fill:rgb(78.039217%,19.607843%,30.19608%);fill-opacity:1;" d="M 13.910156 46.421875 L 12.589844 45.082031 L 12.589844 36.445312 C 12.589844 30.785156 12.578125 27.773438 12.550781 27.699219 C 12.515625 27.617188 12.488281 27.597656 12.421875 27.617188 C 12.328125 27.648438 8.179688 29.722656 3.351562 32.160156 C 1.621094 33.03125 0.203125 33.738281 0.195312 33.730469 C 0.191406 33.726562 0.230469 33.511719 0.28125 33.257812 C 0.972656 30.035156 2.640625 26.34375 4.78125 23.308594 C 7.082031 20.046875 10.210938 17.171875 13.730469 15.085938 C 14.246094 14.78125 15.191406 14.257812 15.230469 14.257812 C 15.242188 14.257812 15.25 16.230469 15.25 18.644531 C 15.25 21.058594 15.261719 23.0625 15.277344 23.097656 C 15.382812 23.371094 16.558594 22.703125 17.367188 21.910156 C 19.472656 19.847656 19.660156 16.570312 17.808594 14.285156 C 17.519531 13.925781 16.867188 13.242188 14.320312 10.621094 C 11.738281 7.960938 11.375 7.582031 11.011719 7.148438 C 10.242188 6.238281 9.933594 5.46875 9.933594 4.464844 C 9.933594 3.746094 10.0625 3.222656 10.398438 2.597656 C 10.777344 1.894531 11.382812 1.320312 12.148438 0.941406 C 12.578125 0.726562 13.125 0.550781 13.390625 0.539062 L 13.5 0.535156 L 13.394531 0.503906 C 13.222656 0.457031 13.882812 0.40625 14.242188 0.445312 C 14.476562 0.46875 14.527344 0.484375 14.449219 0.503906 C 14.347656 0.535156 14.347656 0.535156 14.472656 0.539062 C 14.714844 0.546875 15.269531 0.714844 15.664062 0.898438 C 16.441406 1.261719 17.074219 1.792969 17.667969 2.578125 C 18.027344 3.058594 19.15625 4.84375 21.273438 8.300781 C 23.6875 12.230469 23.773438 12.375 23.660156 12.375 C 23.636719 12.375 22.359375 11.074219 20.820312 9.480469 C 17.140625 5.675781 17.417969 5.964844 16.40625 4.890625 C 15.21875 3.636719 14.882812 3.324219 14.5625 3.175781 C 13.9375 2.886719 13.335938 3.011719 12.851562 3.53125 C 12.613281 3.785156 12.5 4.050781 12.476562 4.390625 C 12.453125 4.695312 12.546875 5.003906 12.75 5.300781 C 12.8125 5.394531 14.332031 6.980469 16.121094 8.828125 C 17.910156 10.675781 19.484375 12.3125 19.617188 12.460938 C 20.148438 13.0625 20.710938 13.988281 21.03125 14.785156 C 22.28125 17.917969 21.472656 21.558594 19.011719 23.84375 C 18.304688 24.503906 17.699219 24.890625 16.210938 25.652344 C 15.730469 25.898438 15.320312 26.121094 15.304688 26.148438 C 15.285156 26.171875 15.261719 31.046875 15.25 36.976562 L 15.230469 47.757812 Z M 7.089844 27.464844 C 10.402344 25.785156 12.082031 24.921875 12.261719 24.808594 C 12.589844 24.605469 12.570312 24.789062 12.582031 21.90625 C 12.589844 20.488281 12.582031 19.265625 12.558594 19.1875 C 12.539062 19.105469 12.492188 19.039062 12.449219 19.03125 C 12.300781 19.003906 10.902344 20.195312 9.804688 21.28125 C 7.804688 23.261719 6.117188 25.582031 4.804688 28.152344 C 4.609375 28.53125 4.589844 28.640625 4.71875 28.640625 C 4.75 28.640625 5.816406 28.113281 7.089844 27.464844 Z M 0.0976562 33.800781 C 0.101562 33.753906 0.109375 33.742188 0.125 33.777344 C 0.136719 33.808594 0.132812 33.84375 0.121094 33.855469 C 0.105469 33.871094 0.0976562 33.847656 0.0976562 33.800781 Z M 0.0976562 33.800781 "/>
<path style=" stroke:none;fill-rule:nonzero;fill:rgb(77.64706%,16.862746%,27.843139%);fill-opacity:1;" d="M 13.910156 46.390625 L 12.589844 45.058594 L 12.582031 36.339844 L 12.570312 27.617188 L 12.484375 27.605469 C 12.402344 27.59375 10.027344 28.773438 3.351562 32.140625 C 1.644531 33 0.242188 33.691406 0.230469 33.679688 C 0.21875 33.667969 0.25 33.464844 0.304688 33.230469 C 1.199219 29.175781 3.488281 24.664062 6.335938 21.339844 C 8.742188 18.523438 11.609375 16.21875 14.925781 14.433594 L 15.25 14.257812 L 15.25 23.164062 L 15.355469 23.1875 C 15.628906 23.257812 16.746094 22.566406 17.382812 21.933594 C 18.054688 21.265625 18.496094 20.5625 18.796875 19.65625 C 19.351562 18.003906 19.105469 16.136719 18.136719 14.691406 C 17.796875 14.179688 17.40625 13.761719 14.515625 10.789062 C 11.355469 7.542969 11.019531 7.179688 10.644531 6.640625 C 10.359375 6.226562 10.175781 5.847656 10.046875 5.394531 C 9.910156 4.933594 9.914062 3.96875 10.050781 3.492188 C 10.316406 2.566406 10.9375 1.710938 11.71875 1.199219 C 12.222656 0.867188 13.054688 0.554688 13.476562 0.539062 L 13.625 0.53125 L 13.457031 0.503906 C 13.164062 0.457031 13.960938 0.40625 14.28125 0.453125 C 14.519531 0.488281 14.535156 0.492188 14.386719 0.503906 C 14.230469 0.511719 14.238281 0.515625 14.46875 0.546875 C 15.660156 0.714844 16.824219 1.472656 17.699219 2.652344 C 18.097656 3.1875 21.632812 8.871094 23.414062 11.835938 C 23.683594 12.285156 23.71875 12.410156 23.519531 12.226562 C 23.269531 11.996094 17.878906 6.414062 16.59375 5.058594 C 15.117188 3.5 14.953125 3.34375 14.574219 3.164062 C 14.328125 3.046875 14.261719 3.03125 13.921875 3.03125 C 13.449219 3.035156 13.226562 3.128906 12.878906 3.476562 C 12.554688 3.800781 12.449219 4.078125 12.476562 4.535156 C 12.496094 4.910156 12.597656 5.160156 12.859375 5.46875 C 12.941406 5.566406 14.304688 6.984375 15.890625 8.625 C 17.480469 10.261719 18.976562 11.808594 19.21875 12.0625 C 20.382812 13.28125 21.105469 14.625 21.441406 16.199219 C 21.589844 16.890625 21.628906 18.261719 21.523438 18.984375 C 21.304688 20.472656 20.667969 21.917969 19.726562 23.058594 C 19.363281 23.496094 18.613281 24.195312 18.164062 24.511719 C 17.625 24.886719 17.390625 25.023438 16.25 25.609375 L 15.273438 26.113281 L 15.25 36.917969 L 15.230469 47.722656 Z M 7.144531 27.460938 C 10.003906 26.007812 11.914062 25.03125 12.195312 24.871094 C 12.597656 24.648438 12.570312 24.886719 12.582031 21.867188 C 12.589844 20.40625 12.585938 19.171875 12.570312 19.117188 C 12.53125 18.953125 12.359375 19 12.007812 19.285156 C 9.015625 21.683594 6.757812 24.425781 4.894531 27.9375 C 4.566406 28.550781 4.53125 28.726562 4.753906 28.65625 C 4.800781 28.644531 5.875 28.105469 7.140625 27.460938 Z M 0.0976562 33.800781 C 0.101562 33.753906 0.109375 33.742188 0.125 33.777344 C 0.136719 33.808594 0.132812 33.84375 0.121094 33.855469 C 0.105469 33.871094 0.0976562 33.847656 0.0976562 33.800781 Z M 0.0976562 33.800781 "/>
</g>
</svg>
