<svg width="20" height="20" viewBox="0 0 20 20" fill="none" xmlns="http://www.w3.org/2000/svg">
<path d="M3 11.456L10 15.602L16.2835 11.902V13.3753L10 17.108L3.35855 13.1347L3.00063 13.34V13.8533L10 18L17 13.8547V10.9767L16.6738 10.7707L10 14.7453L3.74941 10.9767V9.50333L10 13.2033L17 9.058V6.21333L16.6738 6.008L10 9.98267L4.07502 6.454L10 2.92533L14.9158 5.83733L15.339 5.56333V5.186L10 2L3 6.18V6.66L10 10.8047L16.2835 7.10467V8.61133L10 12.3467L3.35855 8.37333L3.00063 8.57867L3 11.456Z" fill="#FD3820"/>
</svg>
