<svg width="49" height="35" viewBox="0 0 49 35" fill="none" xmlns="http://www.w3.org/2000/svg">
<path d="M25.6524 33.5052L47.3432 10.628C48.2484 9.67329 48.2484 8.12412 47.3432 7.1694L41.6455 1.16007C40.9418 0.417915 39.9888 0 38.9948 0H9.0273C8.03328 0 7.08025 0.417915 6.37658 1.16007L0.678905 7.1658C-0.226302 8.12052 -0.226302 9.66968 0.678905 10.6244L22.3697 33.5016C23.2749 34.4563 24.7437 34.4563 25.6489 33.5016L25.6524 33.5052Z" fill="url(#paint0_linear_320_29696)"/>
<path opacity="0.4" d="M6.21484 1.3258C7.00049 0.497174 8.12432 0.140506 9.21057 0.374682L46.8774 8.44836C47.6289 8.61048 47.9807 9.44992 47.7041 10.12C48.2164 9.18332 48.0969 7.9692 47.3386 7.1658L41.6443 1.16007C40.9406 0.417915 39.9876 0 38.9936 0H9.02611C8.03209 0 7.07906 0.417915 6.37539 1.16007L6.21826 1.3258H6.21484Z" fill="url(#paint1_linear_320_29696)"/>
<path opacity="0.4" d="M39.7301 1.74011L37.5234 6.43805L46.8795 8.44476C47.631 8.60688 47.9828 9.44631 47.7062 10.1164C48.2185 9.17971 48.099 7.9656 47.3407 7.16219L41.6464 1.16007C40.9427 0.417915 39.9897 0 38.9957 0H38.7053C39.5525 0 40.1058 0.940308 39.7301 1.74011Z" fill="url(#paint2_linear_320_29696)"/>
<path d="M47.709 10.1198C47.9892 9.44607 47.6339 8.60664 46.8824 8.44812L37.5263 6.44141L24.9662 33.2024C24.6143 33.9517 23.8184 34.2616 23.125 34.0382C23.9653 34.4057 24.9696 34.2291 25.6527 33.5086L47.3436 10.6314C47.4904 10.4764 47.61 10.3035 47.709 10.1234V10.1198Z" fill="url(#paint3_linear_320_29696)"/>
<defs>
<linearGradient id="paint0_linear_320_29696" x1="13.4577" y1="28.1732" x2="33.1532" y2="-4.1674" gradientUnits="userSpaceOnUse">
<stop stop-color="#8455FF"/>
<stop offset="1" stop-color="#00B2FF"/>
</linearGradient>
<linearGradient id="paint1_linear_320_29696" x1="26.7852" y1="6.70465" x2="30.452" y2="-7.64561" gradientUnits="userSpaceOnUse">
<stop offset="0.07" stop-color="white"/>
<stop offset="0.89" stop-color="#009BFF"/>
</linearGradient>
<linearGradient id="paint2_linear_320_29696" x1="39.5764" y1="8.33307" x2="51.6508" y2="-1.45409" gradientUnits="userSpaceOnUse">
<stop offset="0.07" stop-color="white"/>
<stop offset="0.89" stop-color="#009BFF"/>
</linearGradient>
<linearGradient id="paint3_linear_320_29696" x1="24.5016" y1="17.4045" x2="42.8104" y2="23.4125" gradientUnits="userSpaceOnUse">
<stop stop-color="#4036BD"/>
<stop offset="0.98" stop-color="#539AFF"/>
</linearGradient>
</defs>
</svg>
