<svg width="20" height="20" viewBox="0 0 20 20" fill="none" xmlns="http://www.w3.org/2000/svg">
<path d="M12.6406 7.07379L14.0314 5.66378L14.1241 5.07008C11.5897 2.73372 7.56087 2.99864 5.27618 5.62285C4.64155 6.35171 4.17074 7.26039 3.91968 8.19872L4.4178 8.12756L7.19937 7.66255L7.41412 7.43989C8.65143 6.06227 10.7435 5.87693 12.1721 7.04907L12.6406 7.07379Z" fill="#EA4335"/>
<path d="M16.0127 8.15721C15.693 6.96371 15.0367 5.8908 14.1241 5.07007L12.1721 7.049C12.9964 7.73179 13.4659 8.76041 13.4458 9.83928V10.1906C14.4053 10.1906 15.1831 10.9791 15.1831 11.9518C15.1831 12.9245 14.4053 13.6933 13.4458 13.6933H9.96638L9.62476 14.0693V16.1818L9.96638 16.5132H13.4458C15.9414 16.5329 17.9803 14.5177 17.9998 11.9876C18.0115 10.4541 17.2657 9.0164 16.0127 8.15721Z" fill="#4285F4"/>
<path d="M6.49185 16.5134H9.96642V13.6934H6.49185C6.24429 13.6934 6.00454 13.6395 5.77942 13.5352L5.28648 13.6885L3.88592 15.0985L3.76392 15.5784C4.54935 16.1796 5.50767 16.5177 6.49185 16.5134Z" fill="#34A853"/>
<path d="M6.49189 7.36575C3.99621 7.38083 1.98521 9.44416 2.00008 11.9742C2.00839 13.3871 2.65927 14.717 3.76396 15.5783L5.77946 13.5351C4.90502 13.1346 4.51646 12.0913 4.91152 11.2049C5.30652 10.3184 6.33564 9.92451 7.20996 10.325C7.59527 10.5014 7.90383 10.8143 8.07789 11.2049L10.0934 9.16163C9.23583 8.0251 7.90333 7.36062 6.49189 7.36575Z" fill="#FBBC05"/>
</svg>
