<svg width="16" height="16" viewBox="0 0 16 16" fill="none" xmlns="http://www.w3.org/2000/svg">
<g clip-path="url(#clip0_3802_287)">
<path d="M0 8V16H16V0H0V8ZM12.893 7.362C13.2995 7.4635 13.609 7.646 13.8955 7.94C14.0415 8.096 14.26 8.3825 14.2785 8.453C14.2835 8.474 13.5885 8.94 13.1665 9.2005C13.151 9.211 13.0885 9.146 13.0205 9.044C12.815 8.7445 12.5985 8.6145 12.268 8.591C11.7835 8.5595 11.471 8.8125 11.4735 9.237C11.471 9.341 11.4945 9.4455 11.541 9.5365C11.648 9.758 11.8485 9.8905 12.468 10.159C13.614 10.651 14.1035 10.9765 14.408 11.4375C14.749 11.953 14.8245 12.776 14.5955 13.3905C14.3405 14.0545 13.71 14.5075 12.8245 14.656C12.551 14.7055 11.9 14.6975 11.6055 14.643C10.9625 14.5285 10.353 14.2105 9.978 13.794C9.8295 13.6325 9.543 13.208 9.5615 13.1795C9.5695 13.169 9.6345 13.1275 9.7075 13.0855C9.7805 13.0435 10.0485 12.8875 10.3015 12.7415L10.7625 12.4735L10.859 12.6165C10.9945 12.822 11.2885 13.1035 11.466 13.197C11.9765 13.468 12.677 13.429 13.0235 13.119C13.164 13.002 13.2425 12.822 13.232 12.64C13.232 12.455 13.2085 12.372 13.112 12.2335C12.987 12.0565 12.7345 11.9055 12.013 11.593C11.1875 11.236 10.8305 11.0175 10.508 10.666C10.305 10.434 10.154 10.161 10.068 9.8665C10.008 9.64 9.9925 9.072 10.0395 8.8455C10.209 8.046 10.813 7.4915 11.68 7.3275C11.9615 7.273 12.6175 7.2935 12.8935 7.3615L12.893 7.362ZM9.138 8.0315L9.143 8.685H7.0595V14.6045H5.5855V8.685H3.505V8.0445C3.505 7.6875 3.513 7.391 3.523 7.383C3.531 7.3725 4.7965 7.3675 6.333 7.37L9.13 7.378L9.138 8.0315Z" fill="#467DC4"/>
</g>
<defs>
<clipPath id="clip0_3802_287">
<rect width="16" height="16" fill="white"/>
</clipPath>
</defs>
</svg>
