<?xml version="1.0" encoding="UTF-8"?>
<svg xmlns="http://www.w3.org/2000/svg" xmlns:xlink="http://www.w3.org/1999/xlink" width="24px" height="24px" viewBox="0 0 24 24" version="1.1">
<g id="surface1">
<path style=" stroke:none;fill-rule:nonzero;fill:rgb(100%,100%,0%);fill-opacity:1;" d="M 8.84375 6.972656 L 7.25 7.234375 L 5.792969 7.871094 L 4.554688 8.648438 L 3.378906 10.085938 L 2.714844 10.789062 L 2.070312 11.027344 L 1.902344 10.609375 L 2.199219 10.179688 L 2.265625 9.574219 L 2.464844 9.585938 L 2.683594 9.78125 L 2.625 9.167969 L 2.382812 9.003906 L 2.390625 8.769531 L 1.820312 9.09375 L 1.300781 9.703125 L 1.191406 10.25 L 1.414062 10.683594 L 1.621094 11.425781 L 2.039062 11.625 L 2.480469 11.605469 L 2.902344 11.363281 L 2.621094 12.777344 L 2.902344 14.351562 L 2.59375 15.082031 L 1.585938 16.164062 L 1.765625 16.8125 L 2.242188 17.5625 L 3.140625 18.195312 L 3.617188 18.261719 L 4.148438 18.28125 L 3.816406 19.640625 L 5.035156 20.136719 L 6.550781 20.335938 L 7.070312 19.996094 L 7.109375 19.082031 L 7.6875 18.121094 L 7.726562 17.363281 L 9.125 17.464844 L 10.421875 17.34375 L 9.125 18.121094 L 9.34375 19.058594 L 10.160156 20.335938 L 10.957031 20.675781 L 11.597656 20.417969 L 11.855469 19.898438 L 13.191406 18.882812 L 13.453125 19.101562 L 15.546875 19.179688 L 15.964844 18.839844 L 16.003906 18.242188 L 15.867188 17.984375 L 15.765625 16.367188 L 15.066406 14.972656 L 15.1875 14.351562 L 15.605469 14.574219 L 16.78125 15.667969 L 17.363281 15.710938 L 18 15.449219 L 18.636719 14.972656 L 18.957031 13.933594 L 20.832031 14.054688 L 21.96875 13.613281 L 22.886719 12.757812 L 23.542969 11.519531 L 23.703125 10.066406 L 23.5625 8.371094 L 23.207031 6.851562 L 22.847656 6.375 L 22.347656 6.214844 L 21.46875 7.171875 L 20.671875 7.453125 L 19.972656 6.296875 L 19.277344 5.65625 L 18.898438 5.417969 L 17.382812 4.160156 L 16.164062 3.503906 L 14.949219 3.402344 L 13.53125 3.640625 L 12.296875 4.101562 L 11.4375 4.800781 L 10.757812 5.617188 L 10.0625 5.816406 Z M 8.84375 6.972656 "/>
<path style=" stroke:none;fill-rule:nonzero;fill:rgb(100%,100%,80.000001%);fill-opacity:1;" d="M 15.34375 3.417969 L 14.546875 3.449219 L 12.820312 3.832031 L 11.480469 4.664062 L 10.714844 5.746094 C 12.5 5.449219 12.726562 5.304688 13.652344 6.257812 C 13.277344 5.601562 13.167969 5.289062 13.230469 4.671875 C 13.320312 3.796875 14.582031 3.703125 15.34375 3.417969 Z M 10.652344 5.714844 L 9.917969 5.90625 L 8.425781 7.375 L 8.734375 7.023438 L 7.011719 7.246094 L 5.542969 7.855469 L 4.203125 8.972656 L 3.339844 10.25 L 2.765625 11.621094 L 2.703125 13.058594 L 2.925781 14.460938 L 3.53125 15.996094 C 3.152344 14.101562 2.851562 12.167969 4.214844 10.574219 C 5.101562 9.539062 5.859375 9.261719 7.140625 8.84375 L 7.429688 8.515625 L 6.53125 10.121094 L 6.214844 11.078125 L 6.882812 11.878906 C 6.953125 11.429688 6.972656 11.105469 7.203125 10.71875 C 7.660156 9.953125 8.144531 9.203125 8.578125 8.425781 C 9.183594 7.34375 9.699219 6.644531 10.652344 5.714844 Z M 10.652344 5.714844 "/>
<path style=" stroke:none;fill-rule:nonzero;fill:rgb(80.000001%,80.000001%,0%);fill-opacity:1;" d="M 16.1875 3.484375 C 16.738281 3.996094 17.414062 4.441406 17.855469 5.066406 C 18.023438 5.308594 18.214844 5.433594 17.851562 5.773438 C 18.234375 5.664062 18.375 5.675781 18.683594 5.714844 C 19.242188 5.78125 19.765625 6.574219 19.796875 7.144531 C 19.792969 7.195312 19.644531 7.316406 19.210938 7.4375 C 19.203125 7.453125 18.96875 7.402344 18.972656 7.417969 C 19.019531 7.542969 19.078125 7.5625 19.171875 7.617188 C 19.191406 7.753906 19.203125 7.964844 19.296875 8.113281 C 19.566406 8.109375 19.832031 8.140625 20.097656 8.191406 C 20.1875 8.339844 20.175781 8.488281 20.167969 8.636719 L 20.476562 8.585938 L 20.390625 7.882812 L 20.664062 7.421875 L 20.269531 6.53125 L 19.515625 5.8125 L 19.445312 5.808594 L 18.597656 5.289062 L 17.214844 4.15625 C 16.871094 3.933594 16.53125 3.707031 16.1875 3.484375 Z M 22.664062 6.257812 C 22.894531 7.308594 23.195312 8.273438 23.167969 9.347656 C 23.132812 10.664062 22.878906 12.328125 21.65625 13.125 C 20.289062 14.011719 18.6875 13.59375 17.1875 13.210938 L 19.019531 13.964844 L 20.734375 14.050781 L 21.898438 13.707031 L 22.804688 12.953125 L 23.492188 11.515625 L 23.746094 9.855469 L 23.542969 8.226562 L 23.164062 6.617188 Z M 15.628906 6.375 L 15.433594 6.429688 L 15.121094 6.582031 C 14.507812 7.074219 14.4375 7.746094 14.636719 8.457031 C 14.585938 7.632812 15.015625 6.792969 15.628906 6.375 Z M 12.851562 6.394531 L 11.703125 6.53125 C 11.34375 6.609375 10.984375 6.691406 10.625 6.769531 L 10.09375 7.542969 L 9.804688 8.277344 C 9.484375 9.148438 9.207031 9.890625 8.726562 10.679688 C 9.34375 10.015625 9.71875 9.449219 10.070312 8.699219 C 10.207031 8.40625 10.234375 8.066406 10.617188 8.191406 C 10.632812 8.484375 10.695312 8.773438 10.710938 9.066406 C 10.917969 7.585938 11.5 6.96875 12.851562 6.394531 Z M 22.660156 6.488281 C 22.515625 6.554688 22.378906 6.585938 22.289062 6.714844 C 22.09375 7 21.929688 7.234375 21.609375 7.433594 C 21.449219 7.535156 21.28125 7.597656 21.113281 7.652344 C 20.96875 7.695312 20.886719 7.65625 20.765625 7.742188 L 20.980469 7.78125 L 21.453125 7.78125 L 22.035156 7.421875 L 22.378906 7.0625 Z M 17.113281 7.707031 C 17.054688 7.730469 16.949219 7.792969 16.886719 7.820312 L 16.402344 7.976562 L 15.664062 8.535156 L 15.246094 8.972656 C 15.160156 9.023438 15.109375 9.046875 15.023438 9.046875 C 15.15625 9.09375 15.3125 9.054688 15.472656 9.011719 C 15.609375 9.296875 15.683594 9.417969 15.953125 9.570312 C 15.847656 9.765625 15.792969 9.988281 15.792969 10.214844 C 16.214844 9.371094 17.003906 8.925781 17.832031 8.480469 C 17.652344 8.515625 17.472656 8.566406 17.292969 8.621094 L 17.410156 8.5625 C 17.328125 8.257812 17.214844 8.113281 16.984375 7.894531 C 17.042969 7.839844 17.085938 7.757812 17.113281 7.707031 Z M 12.425781 8.242188 C 12.402344 8.410156 12.378906 8.574219 12.355469 8.742188 L 12.390625 9.769531 L 12.679688 11.945312 L 12.289062 13.589844 L 11.070312 13.828125 L 9.511719 14.734375 L 8.628906 14.910156 L 7.390625 14.324219 C 8.683594 16.191406 9.785156 15.265625 11.703125 14.636719 C 12.1875 14.476562 12.496094 14.421875 12.992188 14.453125 C 13.449219 13.671875 13.4375 13.234375 13.320312 12.328125 C 13.136719 10.933594 12.714844 9.617188 12.425781 8.242188 Z M 2.359375 9.019531 L 2.265625 9.382812 C 1.644531 9.789062 1.402344 9.964844 1.46875 10.714844 L 1.65625 11.386719 L 1.917969 11.5625 L 2.242188 11.671875 L 2.832031 11.53125 L 3.132812 10.597656 L 2.296875 11.007812 L 2.105469 11.007812 L 1.886719 10.675781 L 2.152344 10.289062 L 2.289062 9.554688 L 2.46875 9.609375 L 2.683594 9.777344 L 2.652344 9.390625 C 2.605469 9.308594 2.554688 9.226562 2.507812 9.144531 Z M 6.308594 11.445312 C 6.285156 11.878906 6.257812 12.058594 6.449219 12.441406 C 6.691406 12.925781 6.988281 13.382812 7.25 13.863281 L 7.335938 12.902344 Z M 17.292969 12.480469 C 16.488281 12.710938 16.492188 12.777344 16.253906 13.578125 C 16.570312 13.070312 16.800781 12.816406 17.292969 12.480469 Z M 13.859375 13.496094 C 13.949219 14.003906 14.105469 14.125 14.34375 14.613281 C 14.1875 15.414062 13.929688 16.367188 13.625 17.070312 C 13.496094 17.367188 13.390625 17.53125 13.164062 17.761719 C 12.777344 18.152344 12.390625 18.492188 11.953125 18.828125 C 11.636719 19.070312 11.417969 18.949219 11.03125 18.894531 C 10.867188 19.191406 10.820312 19.359375 10.519531 19.507812 C 10.050781 19.742188 9.632812 19.238281 9.265625 18.945312 L 10.058594 20.183594 L 10.609375 20.699219 L 11.070312 20.765625 L 11.6875 20.390625 L 12.011719 19.773438 L 12.699219 19.257812 C 12.976562 19.019531 13.257812 18.777344 13.539062 18.539062 L 14.070312 17.785156 L 14.152344 17.632812 L 13.933594 18.109375 L 13.246094 18.914062 L 13.691406 19.105469 L 14.804688 19.105469 C 14.839844 19.015625 15.300781 19.195312 15.640625 19.042969 C 15.734375 19.003906 15.820312 18.851562 15.882812 18.765625 C 16.101562 18.457031 15.570312 17.855469 15.730469 16.738281 L 15.25 15.179688 L 15.121094 15.179688 C 15.132812 15.136719 15.148438 15.089844 15.164062 15.042969 L 15.214844 14.34375 C 14.960938 14.226562 14.703125 14.113281 14.445312 14 C 14.257812 13.824219 14.046875 13.675781 13.859375 13.496094 Z M 18.558594 13.828125 L 16.945312 14.035156 C 16.90625 14.140625 16.867188 14.25 16.828125 14.359375 L 16.859375 14.820312 L 17.015625 15.09375 L 17.253906 15.214844 L 17.445312 15.234375 C 17.695312 15.390625 17.691406 15.503906 17.648438 15.609375 L 18.25 15.371094 L 18.636719 14.847656 L 18.925781 14.105469 Z M 2.792969 14.714844 L 2.570312 15.1875 C 2.773438 15.875 2.957031 16.308594 3.34375 16.910156 C 3.277344 17.152344 3.226562 17.257812 3.070312 17.457031 C 2.726562 17.40625 2.425781 17.390625 2.078125 17.390625 L 3.226562 18.28125 L 3.789062 18.179688 L 4.355469 17.613281 L 3.550781 16.363281 Z M 11.003906 15.746094 C 10.726562 16.042969 10.507812 16.320312 10.28125 16.65625 C 9.492188 17.019531 8.578125 17.066406 7.714844 17.066406 L 7.695312 17.304688 L 7.765625 17.375 L 8.398438 17.441406 L 10.351562 17.390625 L 10.609375 17.015625 C 10.675781 16.484375 10.753906 16.21875 11.003906 15.746094 Z M 7.527344 15.859375 C 7.378906 16.746094 7.414062 17.34375 7.003906 18.140625 C 6.699219 18.492188 6.324219 18.816406 5.890625 18.988281 C 5.929688 19.207031 5.9375 19.34375 5.917969 19.503906 C 5.84375 20.078125 4.691406 19.824219 4.214844 19.800781 C 4.976562 19.996094 5.738281 20.195312 6.496094 20.390625 L 7.011719 20.183594 L 7.183594 19.191406 L 7.660156 18.300781 L 7.746094 17.75 L 7.59375 16.464844 C 7.570312 16.265625 7.550781 16.0625 7.527344 15.859375 Z M 7.527344 15.859375 "/>
<path style=" stroke:none;fill-rule:nonzero;fill:rgb(0%,0%,0%);fill-opacity:1;" d="M 12.097656 3.007812 C 10.964844 3.285156 10.632812 3.484375 10.257812 4.796875 C 10.734375 3.835938 11.097656 3.480469 12.097656 3.007812 Z M 15.011719 3.078125 C 14.269531 3.09375 13.480469 3.316406 12.570312 3.699219 C 12.070312 3.910156 11.695312 4.160156 11.371094 4.460938 C 11.058594 4.75 10.796875 5.082031 10.507812 5.46875 C 10.339844 5.480469 10.1875 5.503906 10.035156 5.5625 C 9.871094 5.628906 9.699219 5.738281 9.496094 5.917969 C 9.355469 6.042969 9.21875 6.171875 9.082031 6.300781 C 8.960938 6.421875 8.835938 6.542969 8.71875 6.667969 C 7.773438 6.820312 7 6.988281 6.308594 7.253906 C 5.601562 7.527344 4.980469 7.90625 4.339844 8.472656 C 4.085938 8.695312 3.855469 8.941406 3.652344 9.210938 C 3.460938 9.460938 3.292969 9.730469 3.148438 10.011719 C 3.019531 10.15625 2.890625 10.300781 2.75 10.425781 C 2.617188 10.546875 2.472656 10.648438 2.308594 10.710938 C 2.214844 10.746094 2.175781 10.769531 2.171875 10.765625 C 2.167969 10.765625 2.160156 10.734375 2.15625 10.722656 C 2.386719 10.5 2.425781 10.175781 2.449219 9.855469 C 2.476562 9.890625 2.503906 9.929688 2.53125 9.972656 C 2.5625 10.019531 2.59375 10.066406 2.628906 10.117188 L 2.789062 10.3125 L 2.84375 10.066406 C 2.890625 9.859375 2.925781 9.582031 2.871094 9.339844 C 2.835938 9.1875 2.761719 9.050781 2.636719 8.953125 C 2.648438 8.921875 2.660156 8.886719 2.671875 8.859375 C 2.710938 8.757812 2.753906 8.65625 2.785156 8.554688 L 2.855469 8.363281 L 2.652344 8.398438 C 2.382812 8.445312 1.800781 8.765625 1.390625 9.1875 C 1.238281 9.347656 1.109375 9.519531 1.023438 9.703125 C 0.933594 9.894531 0.894531 10.09375 0.925781 10.292969 C 0.957031 10.46875 1.046875 10.636719 1.203125 10.796875 C 1.234375 10.914062 1.257812 11.015625 1.289062 11.109375 C 1.320312 11.210938 1.355469 11.304688 1.398438 11.394531 C 1.519531 11.644531 1.707031 11.796875 1.929688 11.867188 C 2.105469 11.921875 2.304688 11.925781 2.496094 11.882812 C 2.457031 12.109375 2.429688 12.339844 2.421875 12.574219 C 2.410156 12.898438 2.421875 13.253906 2.457031 13.667969 C 2.472656 13.859375 2.5 14.054688 2.539062 14.242188 L 2.429688 14.535156 L 2.261719 14.992188 L 1.894531 15.355469 L 1.550781 15.695312 C 1.542969 15.707031 1.503906 15.742188 1.46875 15.777344 C 1.234375 16 1.191406 16.042969 1.257812 16.4375 C 1.296875 16.6875 1.378906 16.929688 1.5 17.15625 C 1.621094 17.386719 1.777344 17.597656 1.960938 17.78125 C 2.207031 18.027344 2.609375 18.332031 3.027344 18.492188 C 3.265625 18.582031 3.511719 18.625 3.746094 18.589844 C 3.734375 18.625 3.722656 18.660156 3.710938 18.695312 C 3.671875 18.796875 3.632812 18.898438 3.589844 18.996094 C 3.304688 19.621094 3.597656 19.949219 4.050781 20.15625 C 4.277344 20.257812 4.546875 20.328125 4.800781 20.394531 C 4.851562 20.410156 4.902344 20.421875 4.96875 20.4375 C 5.265625 20.519531 5.777344 20.667969 6.246094 20.695312 C 6.761719 20.730469 7.222656 20.625 7.347656 20.164062 C 7.394531 19.980469 7.421875 19.84375 7.433594 19.707031 C 7.445312 19.578125 7.441406 19.449219 7.425781 19.292969 C 7.570312 18.976562 7.636719 18.875 7.742188 18.722656 L 7.796875 18.640625 C 7.910156 18.472656 7.964844 18.351562 7.984375 18.214844 C 8 18.085938 7.984375 17.953125 7.960938 17.753906 C 7.960938 17.738281 7.957031 17.703125 7.949219 17.667969 C 8.25 17.707031 8.546875 17.730469 8.839844 17.730469 C 8.988281 17.734375 9.136719 17.726562 9.285156 17.71875 C 9.246094 17.742188 9.21875 17.757812 9.171875 17.78125 L 9.117188 17.808594 C 8.722656 18.011719 8.703125 18.398438 8.828125 18.796875 C 8.941406 19.152344 9.171875 19.515625 9.3125 19.738281 C 9.617188 20.207031 9.90625 20.601562 10.257812 20.816406 C 10.625 21.042969 11.042969 21.070312 11.585938 20.777344 C 11.863281 20.625 11.949219 20.472656 12.066406 20.269531 C 12.105469 20.203125 12.144531 20.132812 12.191406 20.0625 C 12.300781 19.996094 12.578125 19.765625 12.863281 19.53125 C 12.953125 19.453125 13.054688 19.375 13.160156 19.289062 C 13.230469 19.34375 13.320312 19.378906 13.429688 19.40625 C 13.566406 19.4375 13.734375 19.453125 13.933594 19.46875 C 14.082031 19.480469 14.566406 19.476562 14.882812 19.476562 C 14.976562 19.476562 15.058594 19.476562 15.105469 19.480469 C 15.429688 19.480469 15.691406 19.464844 15.890625 19.351562 C 16.101562 19.230469 16.226562 19.019531 16.253906 18.640625 C 16.265625 18.472656 16.265625 18.371094 16.242188 18.261719 C 16.222656 18.164062 16.179688 18.074219 16.105469 17.941406 L 16.09375 17.449219 L 16.078125 16.929688 C 16.074219 16.722656 16.050781 16.558594 16.007812 16.394531 C 15.96875 16.230469 15.910156 16.074219 15.832031 15.886719 C 15.777344 15.757812 15.734375 15.640625 15.691406 15.527344 C 15.625 15.34375 15.554688 15.167969 15.460938 14.976562 C 15.46875 14.9375 15.476562 14.898438 15.480469 14.859375 L 15.929688 15.289062 C 16.132812 15.484375 16.316406 15.660156 16.535156 15.789062 C 16.761719 15.921875 17.015625 16 17.34375 15.984375 C 17.6875 15.96875 18.054688 15.824219 18.355469 15.601562 C 18.652344 15.382812 18.886719 15.09375 18.984375 14.769531 L 19.070312 14.488281 C 19.09375 14.414062 19.113281 14.339844 19.136719 14.265625 C 19.621094 14.347656 20.136719 14.375 20.636719 14.320312 C 21.121094 14.269531 21.585938 14.148438 21.988281 13.933594 C 22.578125 13.617188 23.019531 13.152344 23.339844 12.601562 C 23.695312 11.984375 23.894531 11.261719 23.96875 10.511719 C 24.03125 9.914062 23.996094 9.097656 23.875 8.3125 C 23.761719 7.613281 23.578125 6.933594 23.324219 6.445312 C 23.285156 6.378906 23.238281 6.316406 23.1875 6.265625 C 23.058594 6.140625 22.871094 6.023438 22.675781 5.957031 C 22.472656 5.882812 22.253906 5.871094 22.082031 5.960938 C 22.035156 5.984375 21.996094 6.015625 21.957031 6.050781 C 21.847656 6.164062 21.753906 6.300781 21.660156 6.4375 C 21.554688 6.59375 21.449219 6.746094 21.324219 6.855469 C 21.175781 6.980469 20.992188 7.054688 20.816406 7.125 C 20.746094 6.949219 20.660156 6.777344 20.558594 6.617188 C 20.441406 6.429688 20.308594 6.253906 20.160156 6.074219 C 20.050781 5.945312 19.929688 5.828125 19.792969 5.726562 C 19.667969 5.628906 19.535156 5.546875 19.382812 5.453125 C 18.976562 5.199219 18.628906 4.894531 18.277344 4.585938 C 18.117188 4.441406 17.953125 4.300781 17.796875 4.167969 C 16.953125 3.476562 16.167969 3.136719 15.328125 3.085938 C 15.222656 3.078125 15.117188 3.078125 15.011719 3.078125 Z M 11.199219 3.089844 C 10.625 3.226562 10.519531 3.335938 10.347656 3.894531 C 10.621094 3.484375 10.777344 3.351562 11.199219 3.089844 Z M 15 3.558594 C 15.886719 3.519531 16.6875 3.816406 17.582031 4.570312 C 17.992188 4.914062 18.351562 5.25 18.769531 5.550781 C 18.613281 5.5625 18.460938 5.597656 18.316406 5.660156 C 18.527344 5.617188 18.769531 5.660156 18.988281 5.699219 C 19.046875 5.738281 19.109375 5.777344 19.175781 5.816406 C 19.46875 5.988281 19.636719 6.085938 19.835938 6.363281 C 20.042969 6.648438 20.226562 6.953125 20.378906 7.273438 C 20.277344 7.238281 20.191406 7.207031 20.117188 7.183594 C 19.945312 7.105469 19.746094 7.117188 19.582031 7.214844 L 19.570312 7.222656 C 19.410156 7.300781 19.15625 7.390625 18.988281 7.417969 C 19.074219 7.449219 19.261719 7.460938 19.355469 7.425781 C 19.367188 7.421875 19.378906 7.417969 19.390625 7.414062 C 19.347656 7.484375 19.324219 7.5625 19.316406 7.644531 C 19.304688 7.753906 19.324219 7.863281 19.375 7.960938 C 19.390625 7.996094 19.414062 8.03125 19.4375 8.054688 C 19.359375 8.082031 19.28125 8.113281 19.199219 8.152344 C 19.574219 8.09375 19.914062 8.082031 20.285156 8.132812 C 20.308594 8.246094 20.332031 8.371094 20.355469 8.496094 C 20.308594 8.5 20.265625 8.503906 20.21875 8.507812 L 20.207031 8.507812 C 20.035156 8.367188 19.839844 8.390625 19.574219 8.453125 C 18.769531 8.636719 18.957031 9.089844 18.585938 9.769531 C 18.972656 9.300781 18.941406 8.808594 19.570312 8.65625 C 19.71875 8.625 19.816406 8.578125 19.914062 8.59375 C 19.738281 8.683594 19.582031 8.832031 19.523438 9.003906 C 19.351562 9.492188 19.457031 9.902344 19.265625 10.355469 C 19.5 9.949219 19.515625 9.554688 19.726562 9.125 C 19.800781 8.972656 20.082031 8.726562 20.25 8.722656 L 20.394531 8.71875 C 20.433594 8.992188 20.460938 9.257812 20.441406 9.480469 C 20.414062 9.886719 20.308594 10.492188 20.246094 10.722656 C 20.457031 10.449219 20.554688 9.871094 20.648438 9.464844 C 20.746094 9.039062 20.722656 8.53125 20.636719 8.078125 C 20.519531 7.453125 21.164062 7.554688 21.535156 7.257812 C 21.808594 7.042969 22 6.695312 22.25 6.453125 C 22.5 6.210938 22.894531 6.566406 22.992188 6.804688 C 23.417969 7.832031 23.613281 9.453125 23.5 10.492188 C 23.375 11.660156 22.808594 12.929688 21.78125 13.503906 C 20.472656 14.234375 18.925781 13.789062 17.625 13.351562 C 17.347656 13.257812 17.152344 13.121094 16.910156 12.964844 C 16.976562 13.265625 17.007812 13.582031 16.917969 13.882812 C 16.777344 14.355469 16.550781 15.132812 17.195312 15.277344 C 17.441406 15.332031 17.550781 15.320312 17.898438 15.144531 C 17.617188 15.207031 17.476562 15.191406 17.285156 15.15625 C 17.109375 15.125 17.015625 15.011719 16.96875 14.882812 C 17.027344 14.925781 17.128906 14.949219 17.296875 14.992188 C 17.777344 15.105469 18.230469 14.875 18.320312 14.546875 C 18.371094 14.351562 18.363281 14.25 18.472656 13.988281 C 18.570312 14.015625 18.675781 14.042969 18.777344 14.070312 L 18.601562 14.648438 C 18.449219 15.148438 17.851562 15.554688 17.320312 15.542969 C 16.832031 15.535156 16.523438 15.230469 16.1875 14.929688 C 15.960938 14.730469 15.734375 14.53125 15.511719 14.328125 C 14.902344 14.136719 14.414062 13.914062 13.851562 13.496094 C 14.253906 13.96875 14.527344 14.230469 15.085938 14.464844 C 15.003906 15.292969 14.714844 15.898438 14.46875 16.695312 C 14.359375 17.054688 13.480469 18.492188 13.234375 18.632812 C 13.0625 18.734375 11.972656 19.648438 11.769531 19.769531 C 11.617188 19.972656 11.484375 20.25 11.253906 20.371094 C 10.554688 20.742188 10.105469 20.035156 9.730469 19.4375 C 9.558594 19.167969 9.085938 18.382812 9.5 18.164062 C 9.890625 17.957031 10.109375 17.808594 10.511719 17.546875 C 10.570312 17.652344 10.667969 17.757812 10.734375 17.863281 L 10.691406 17.511719 C 10.664062 17.300781 10.664062 17.128906 10.683594 16.914062 L 10.730469 16.296875 C 10.671875 16.507812 10.550781 16.714844 10.492188 16.925781 C 10.46875 17.007812 10.449219 17.078125 10.4375 17.140625 C 9.550781 17.324219 8.640625 17.335938 7.753906 17.175781 C 7.699219 16.863281 7.636719 16.554688 7.566406 16.25 C 7.550781 16.527344 7.5625 17.292969 7.558594 17.722656 C 7.558594 18.058594 7.546875 18.171875 7.375 18.453125 C 7.210938 18.71875 7.144531 18.78125 6.917969 19.226562 C 6.9375 19.511719 6.9375 19.699219 6.863281 19.964844 C 6.738281 20.414062 5.476562 20.066406 5.144531 19.976562 C 4.734375 19.863281 3.890625 19.695312 4.101562 19.152344 C 4.289062 18.671875 4.410156 18.164062 4.5 17.492188 C 3.75 16.410156 3.050781 14.929688 2.917969 13.617188 C 2.8125 12.597656 2.875 11.972656 3.097656 11.347656 C 3.445312 10.363281 3.933594 9.507812 4.71875 8.816406 C 5.777344 7.890625 6.765625 7.515625 8.316406 7.28125 C 7.941406 7.699219 7.574219 8.140625 7.171875 8.613281 C 6.765625 9.089844 6.523438 9.574219 6.265625 10.097656 C 5.910156 10.820312 5.917969 11.09375 6.390625 11.730469 C 6.796875 12.277344 7.015625 12.523438 7.195312 13.058594 C 7.046875 13.359375 6.996094 13.617188 6.945312 14.027344 C 7.445312 14.574219 7.8125 14.949219 8.296875 15.0625 C 8.773438 15.175781 9.171875 15.152344 9.59375 14.9375 C 10.539062 14.453125 11.410156 13.832031 12.476562 13.804688 C 12.96875 12.59375 12.917969 11.582031 12.683594 10.410156 C 12.519531 9.609375 12.457031 8.855469 12.40625 8.039062 C 12.207031 8.878906 12.167969 9.617188 12.316406 10.453125 C 12.496094 11.460938 12.636719 12.574219 12.136719 13.460938 C 11.175781 13.535156 10.351562 14.121094 9.484375 14.570312 C 9.132812 14.75 8.769531 14.769531 8.386719 14.664062 C 8.027344 14.566406 7.785156 14.328125 7.398438 13.882812 C 7.394531 13.433594 7.492188 13.230469 7.699219 12.824219 C 8.027344 12.175781 8.394531 11.570312 8.792969 10.929688 C 8.304688 11.519531 7.839844 12.011719 7.453125 12.605469 C 7.308594 12.1875 7.097656 11.976562 6.75 11.503906 C 6.40625 11.042969 6.371094 10.839844 6.628906 10.304688 C 6.882812 9.769531 7.101562 9.296875 7.535156 8.828125 C 8.289062 8.015625 8.976562 7.109375 9.800781 6.308594 C 10.25 5.875 10.429688 5.890625 11.023438 5.800781 C 11.558594 5.71875 12.082031 5.617188 12.628906 5.488281 C 12.097656 5.539062 11.589844 5.558594 11.074219 5.570312 L 11.058594 5.570312 C 11.5625 4.925781 11.859375 4.5625 12.679688 4.207031 C 13.566406 3.820312 14.308594 3.585938 15 3.558594 Z M 15.703125 6.347656 C 14.601562 6.621094 14.398438 7.085938 14.539062 7.796875 C 14.660156 7.261719 14.875 6.746094 15.703125 6.347656 Z M 12.441406 6.40625 C 11.996094 6.457031 11.550781 6.503906 11.105469 6.546875 C 10.730469 6.582031 10.671875 6.574219 10.40625 6.835938 C 10 7.238281 9.609375 8.605469 9.484375 9.152344 C 9.679688 8.699219 10.175781 7.425781 10.554688 7.101562 C 10.660156 7.011719 10.730469 6.957031 10.808594 6.917969 C 10.539062 7.371094 10.558594 7.484375 10.652344 8.09375 C 10.734375 7.476562 10.949219 7.234375 11.300781 6.773438 C 11.6875 6.675781 12.070312 6.554688 12.441406 6.40625 Z M 22.667969 6.457031 C 22.414062 6.976562 22.019531 7.410156 21.484375 7.671875 C 21.195312 7.816406 21.011719 7.765625 20.691406 7.734375 C 21.019531 7.828125 21.226562 7.945312 21.542969 7.832031 C 22.195312 7.601562 22.511719 7.074219 22.667969 6.457031 Z M 20.386719 7.292969 C 20.410156 7.339844 20.433594 7.386719 20.453125 7.4375 C 20.4375 7.449219 20.417969 7.464844 20.402344 7.480469 C 20.375 7.410156 20.332031 7.347656 20.277344 7.296875 C 20.316406 7.292969 20.351562 7.292969 20.386719 7.292969 Z M 17.128906 7.691406 C 16.769531 7.859375 16.351562 7.820312 16.042969 8.027344 C 15.769531 8.210938 15.394531 8.789062 15.121094 9.035156 C 15.320312 8.960938 15.511719 8.824219 15.6875 8.683594 C 15.691406 8.957031 15.84375 9.207031 16.085938 9.332031 C 15.984375 9.46875 15.902344 9.617188 15.847656 9.773438 C 16.371094 9.152344 17.132812 8.679688 17.847656 8.480469 C 17.648438 8.476562 17.410156 8.515625 17.167969 8.59375 C 17.140625 8.3125 16.953125 8.074219 16.6875 7.980469 C 16.847656 7.894531 17.003906 7.804688 17.128906 7.691406 Z M 1.320312 8.339844 C 0.367188 9.011719 0.128906 9.316406 0.257812 10.675781 C 0.351562 9.605469 0.558594 9.144531 1.320312 8.339844 Z M 0.511719 8.746094 C 0.03125 9.082031 -0.03125 9.21875 0.0117188 9.804688 C 0.117188 9.320312 0.214844 9.140625 0.511719 8.746094 Z M 2.292969 8.9375 C 2.222656 9.089844 2.171875 9.203125 2.136719 9.320312 C 1.992188 9.828125 2.203125 10.28125 1.742188 10.652344 C 1.960938 11.085938 1.949219 11.261719 2.453125 11.058594 C 2.648438 10.980469 2.808594 10.871094 2.953125 10.742188 C 2.871094 10.953125 2.796875 11.167969 2.734375 11.382812 C 2.371094 11.535156 1.898438 11.632812 1.714844 11.253906 C 1.628906 11.070312 1.578125 10.890625 1.515625 10.65625 C 0.921875 10.042969 1.808594 9.230469 2.292969 8.9375 Z M 2.414062 9.214844 C 2.539062 9.285156 2.570312 9.414062 2.582031 9.589844 C 2.511719 9.515625 2.453125 9.46875 2.355469 9.476562 C 2.367188 9.386719 2.386719 9.300781 2.414062 9.214844 Z M 17.285156 12.484375 C 17.152344 12.503906 16.917969 12.550781 16.789062 12.574219 C 16.441406 12.632812 16.402344 12.714844 16.347656 13.058594 C 16.320312 13.21875 16.285156 13.421875 16.261719 13.582031 C 16.328125 13.398438 16.410156 13.1875 16.492188 13.011719 C 16.574219 12.828125 16.621094 12.8125 16.800781 12.714844 C 16.925781 12.644531 17.15625 12.550781 17.285156 12.484375 Z M 2.8125 14.882812 C 3.085938 15.828125 3.550781 16.757812 4.070312 17.539062 L 4.070312 17.550781 C 4.035156 17.6875 4 17.816406 3.921875 17.921875 C 3.550781 18.414062 2.613281 17.691406 2.339844 17.414062 C 2.042969 17.109375 1.847656 16.75 1.796875 16.414062 C 1.765625 16.167969 1.796875 16.164062 1.96875 15.988281 L 2.660156 15.289062 Z M 15.21875 15.5 C 15.277344 15.683594 15.320312 15.867188 15.402344 16.0625 C 15.539062 16.386719 15.605469 16.585938 15.617188 16.9375 L 15.648438 18.039062 C 15.765625 18.246094 15.785156 18.289062 15.765625 18.527344 C 15.722656 19.007812 15.5625 19.039062 15.136719 19.03125 C 14.945312 19.027344 14.183594 19.023438 13.988281 19.007812 C 13.714844 18.984375 13.5625 18.960938 13.476562 18.898438 C 13.90625 18.582031 14.640625 17.277344 14.78125 16.828125 C 14.933594 16.355469 15.097656 15.941406 15.21875 15.5 Z M 15.21875 15.5 "/>
<path style=" stroke:none;fill-rule:nonzero;fill:rgb(100%,100%,80.000001%);fill-opacity:1;" d="M 19.578125 7.625 C 19.460938 7.625 19.363281 7.71875 19.351562 7.835938 C 19.34375 7.910156 19.386719 8.003906 19.4375 8.054688 C 19.554688 8.011719 19.671875 7.976562 19.789062 7.957031 C 19.824219 7.882812 19.816406 7.800781 19.773438 7.730469 C 19.730469 7.664062 19.65625 7.625 19.578125 7.625 Z M 16.1875 8.726562 C 16.078125 8.726562 15.980469 8.78125 15.921875 8.871094 C 15.867188 8.960938 15.859375 9.074219 15.90625 9.167969 C 15.941406 9.246094 16.007812 9.304688 16.085938 9.335938 C 16.199219 9.1875 16.332031 9.058594 16.480469 8.945312 C 16.476562 8.933594 16.472656 8.917969 16.464844 8.902344 C 16.414062 8.792969 16.304688 8.726562 16.1875 8.726562 Z M 16.1875 8.726562 "/>
</g>
</svg>
