<svg width="16" height="16" viewBox="0 0 16 16" fill="none" xmlns="http://www.w3.org/2000/svg">
<g clip-path="url(#clip0_3802_326)">
<path fill-rule="evenodd" clip-rule="evenodd" d="M15.0247 3.98285L15.0248 3.98295L15.0248 3.98291C15.1409 4.18641 15.1983 4.42352 15.1984 4.69185C15.1991 6.88385 15.1991 11.2666 15.1991 11.2666C15.199 11.5291 15.1439 11.7616 15.0332 11.962L15.0331 11.962C14.919 12.168 14.7459 12.3404 14.5116 12.476C13.7167 12.9342 12.9216 13.3919 12.1264 13.8495C11.0303 14.4804 9.93431 15.1112 8.83911 15.7436C8.3295 16.0378 7.83556 16.0271 7.32967 15.7286C6.87536 15.4606 5.32121 14.5673 3.91415 13.7585L3.91385 13.7583C2.99128 13.228 2.13198 12.7341 1.68744 12.4766C1.45317 12.341 1.28006 12.1687 1.166 11.9625C1.05506 11.7621 1 11.5296 1 11.2671C1.00036 10.1711 1.00036 9.07516 1.00036 7.9792C1.00036 6.88323 1.00036 5.78727 1.00072 4.6913C1.00083 4.15897 1.22578 3.74941 1.68806 3.4818C2.13407 3.22346 2.99757 2.72705 3.92358 2.19471C5.32812 1.38727 6.87645 0.497158 7.32989 0.229743C7.83556 -0.0685902 8.3295 -0.0793124 8.83894 0.214799C9.91878 0.838272 10.9994 1.46029 12.08 2.08231L12.0808 2.08273C12.8909 2.54908 13.7011 3.01544 14.511 3.48241C14.74 3.61502 14.9107 3.78274 15.0247 3.98285ZM8.13645 2.70142C10.0889 2.70142 11.7935 3.76177 12.7066 5.33786L12.6976 5.32269L10.4005 6.64538C9.94791 5.87906 9.1182 5.36193 8.16643 5.35128L8.13645 5.35111C6.68503 5.35111 5.50834 6.52774 5.50834 7.97916C5.50834 8.45381 5.63488 8.89873 5.85495 9.28302C6.30795 10.0739 7.15955 10.6073 8.13645 10.6073C9.11149 10.6073 9.96208 10.0757 10.4156 9.28698L12.7093 10.6158C11.8063 12.1785 10.125 13.2356 8.19524 13.2567L8.13645 13.257C6.17786 13.257 4.46838 12.1901 3.55765 10.6057C3.11303 9.83216 2.85864 8.93542 2.85864 7.97916C2.85864 5.06438 5.22155 2.70142 8.13645 2.70142ZM10.4156 9.28698L10.4156 9.28697L10.4265 9.26779L10.4156 9.28698ZM12.2163 6.46069V7.20923H12.9649V6.46069H13.3391V7.20923H14.0877V7.5835H13.3391V8.33204H14.0877V8.70631H13.3391V9.45485H12.9649V8.70631H12.2163V9.45485H11.842V8.70631H11.0935V8.33204H11.842V7.5835H11.0935V7.20923H11.842V6.46069H12.2163ZM12.9649 7.5835H12.2163V8.33204H12.9649V7.5835Z" fill="#A179DC"/>
</g>
<defs>
<clipPath id="clip0_3802_326">
<rect width="14.2222" height="16" fill="white" transform="translate(1)"/>
</clipPath>
</defs>
</svg>
