<svg width="20" height="20" viewBox="0 0 20 20" fill="none" xmlns="http://www.w3.org/2000/svg">
<path fill-rule="evenodd" clip-rule="evenodd" d="M3.82284 17.8436C4.14922 18.17 4.54159 18.3332 4.99992 18.3332H14.9999C15.4583 18.3332 15.8506 18.17 16.177 17.8436C16.5034 17.5172 16.6666 17.1248 16.6666 16.6665V6.6665L11.6666 1.6665H4.99992C4.54159 1.6665 4.14922 1.8297 3.82284 2.15609C3.49645 2.48248 3.33325 2.87484 3.33325 3.33317V16.6665C3.33325 17.1248 3.49645 17.5172 3.82284 17.8436ZM10.8333 3.33317V7.49984H14.9999V16.6665H4.99992V3.33317H10.8333ZM6.34326 15.4803H13.6285V8.99988H6.34326V15.4803ZM10.4388 11.0691V9.93469L12.7331 9.93649V11.0691H10.4388ZM10.4388 12.8674V11.7835L12.7331 11.7781V12.8674H10.4388ZM10.4388 14.5618V13.5583L12.7331 13.5529V14.5618H10.4388ZM9.53821 13.5529V14.5563H7.24478V13.5529H9.53821ZM9.53821 11.7781V12.8556L7.24478 12.861V11.7781H9.53821ZM9.53821 9.93469V11.0808L7.24478 11.0691V9.93469H9.53821Z" fill="#23A566"/>
</svg>
