<svg xmlns="http://www.w3.org/2000/svg" viewBox="-0.62 -3.1 405.1 405.1" width="24" height="24"><path d="M.98 348.9c7.6 27.3 25.1 44.6 52.2 52.2h0l36.5-.1h221.3c12.6 0 25.3.8 37.8-.8 26.2-4.4 51-30.7 53.7-57.1.2-1.6.7-2.4 1.9-3.1V199h-405v147c1.5.4 1.3 1.8 1.6 2.9zm239.8-86.3c1.3-13.8 8.8-20.9 22.7-21.6 1.3-.1 2.7-.1 4 0 20.2 0 30.1 13.2 24.5 32.8-1.6 5.8-4.8 10.6-9.1 14.7l-14.5 13.7c-3 2.9-5.4 6.2-7 10.8l28.8-.1c2.8 0 3.6.8 3.6 3.6.1 9.7.2 9.7-9.5 9.7-13 0-26-.1-39 .1-3.5 0-4.8-.4-4.4-4.6 1-11.2 6.2-20.2 13.8-28.1 4.5-4.7 9.3-9.1 14.1-13.4 6.6-5.9 7.5-13.4 6.4-21.5-.6-3.9-3.1-6.2-7.1-6.6-3.8-.3-6.9 1-8.6 4.6-1.3 2.6-1.9 5.5-1.7 8.2.2 3.7-1.6 4.1-4.5 3.9-2.3-.2-4.7 0-7 0-6.1 0-6.1 0-5.5-6.2zm-60.5-22.5c12 .4 24-1.2 35.9.9 9.8 1.8 14.5 7.4 15.8 17.9 1.2 10-2.7 17.6-11.3 21.6.2.2.4.6.6.7 12.3 6.7 15.7 14.5 12.4 28.3-2.5 10.4-11.2 16.5-23.7 16.7l-28.5.1c-2.6 0-3.4-.7-3.4-3.3l.1-79.4c0-1.5-.6-3.6 2.1-3.5zm-64.4-.1c7.5.3 15 .1 22.5.1 16.6 0 25.5 7.3 27.9 23.7 2 13.4 1.9 26.9-.6 40.2-2.9 15.1-11.3 22.1-26.6 22.2-8.3.1-16.6-.1-25 .1-3.1.1-4-.8-3.9-3.9l.1-39.4-.1-37.4c-.3-4.8 1.3-5.8 5.7-5.6z" fill="#00992c"/><path d="M7.08 197.4h55 332.3c3.4 0 7.1-.8 10.1 1.6V59c-.6-1.1-1.7-2.1-1.9-3.3-5.3-31-23.7-49.8-53.6-58-.2-.1-.3-.5-.5-.8h-292c-.8 1.7-2.6 1.3-3.9 1.7-26.7 7.7-43.8 24.9-51.5 51.5-.4 1.3 0 3.1-1.7 3.9v145c2.3-1.9 5-1.6 7.7-1.6zm115.6-28.8c-.1 2.2.6 4.6-3.3 4.4-7.1-.3-14.3-.1-21.5-.1-7.3 0-14.7-.2-22 .1-3.6.1-3.6-1.5-3.6-4.2 0-2.6 0-4.2 3.5-4.2h43.4c3.4.1 3.6 1.6 3.5 4zm60.8 4.3l-50.9.1c-3 0-3.8-1-3.5-3.7.3-2-1-4.6 3.1-4.6l69.5.1c-5.7 5.6-11.6 8-18.2 8.1zm25.5-22.1c-.2 2.6 0 6.4-4.2 6.8-.8.1-1.7 0-2.5 0h-68.3c-2.9 0-4.9.2-4.9-4 0-4.1 1.5-4.5 4.9-4.5l35.4.1 35.4.1c1.5.1 4.5-1.2 4.2 1.5zm-43.7-57.5c.2 2 .4 4.1-2.8 3.8-2.6-.2-5.3 0-8 0h-6c-4.8 0-6.2-2.1-5-6.7.4-1.7 1.5-1.5 2.6-1.5 5.5 0 11 .1 16.4-.1 4-.1 2.6 2.6 2.8 4.5zm.3 45.3c.1 2.2.4 4.4-3.1 4.1-2.6-.2-5.3 0-7.9 0-2 0-4-.3-5.9.1-4.9.9-5.5-1.7-5.2-5.6.2-2.1.8-2.9 2.9-2.9 5.5.1 10.9.2 16.4 0 3.7-.1 2.7 2.4 2.8 4.3zm-19-11.3c-3.5 0-3-2-3-4.2s-.4-4.2 3.1-4.1l50.3.1c5 0 5.7 4.8 7.9 8.2-19.4 0-38.9-.1-58.3 0zm46.8-15.1c-15.1-.6-30.3-.3-45.4-.1-3.3 0-4.6-.5-4.6-4.2.1-3.4 1.1-4.1 4.3-4l57.6.1c-2.6 5.4-5.5 8.4-11.9 8.2zm54.9 60.8c-9.8-.2-19.6-.2-29.4 0-3.6.1-3-2.1-3-4.2 0-2.2-.4-4.3 3.1-4.1 4.8.3 9.6.1 14.5.1 5 0 10 .2 15-.1 3.7-.2 2.9 2.2 3 4.2-.1 2.2.4 4.2-3.2 4.1zm3.1-33.1c-.1 2.1-.8 2.9-2.9 2.8-4.6-.1-9.3-.2-13.9 0-3.1.1-4.8-.2-4.7-4.1.1-3.5 1.1-4.7 4.5-4.3 2.1.2 4.3 0 6.4 0 1.8 0 3.7.3 5.4-.1 5.1-.8 5.5 1.9 5.2 5.7zm-2.8-12.6c-2.7-.2-5.3 0-8 0-1.8 0-3.7-.3-5.5.1-4.9.9-5.4-1.6-5.2-5.6.2-2.3 1-2.7 3.1-2.7 5.2.1 10.3.2 15.5 0 3.3-.2 3 1.9 2.8 3.8-.1 1.8 1.2 4.6-2.7 4.4zm24.6 45.5c-1.4-2.5-3-5-2.1-7.7.2-.5 3.7-.7 4-.1 1.7 2.8-.9 5.1-1.9 7.8zm1.3-15.1c-2.9-.5-6.6 1.7-8-3.3-1.1-3.9-1.1-5.9 3.7-5.1 1 .2 2 0 3 0 .7 0 1.4-.2 2 0 1.8.7 5.4-1.9 5.2 1.9-.3 3-.4 7.5-5.9 6.5zm10.7-21.6c-.3 2.6 0 7.1-5.3 6.7-4.6-.3-9.3-.1-14-.1-1.5 0-2.7 0-3.6-1.8-2.8-5.8-2.4-6.5 4-6.5h7c2.3 0 4.7-.3 7 .1 1.8.2 5.2-1.8 4.9 1.6zm-3.4-8.8h-17c-7.3 0-7.3 0-8.9-8h34.3c-1 8-1 8-8.4 8zm15.9-8.2c2.6.1 5.3 0 8 0 1.8 0 3.7.3 5.5-.1 4.8-.9 5.5 1.5 5.2 5.6-.2 2.3-1.1 2.7-3 2.7-5.1-.1-10.3-.2-15.4 0-3.2.1-3-1.8-2.8-3.8 0-1.8-1.4-4.6 2.5-4.4zm-2.8 17c.5-1.8 1.7-1.8 3-1.8 5.1 0 10.3.2 15.4-.1 3.5-.1 3 2.1 3 4.2 0 2 .7 4.5-2.9 4.3-2.6-.2-5.3 0-7.9 0h-5.5c-4.9 0-6.3-1.9-5.1-6.6zm32.6 36.9c-9.8-.2-19.6-.2-29.4 0-3.7.1-3.1-2-3.1-4.1 0-2-.7-4.4 2.9-4.2 5 .3 10 .1 15 .1 4.8 0 9.7.2 14.5-.1 3.6-.2 3.1 2 3 4.1-.1 2 .8 4.3-2.9 4.2zm-.3-15.3c-4.8-.3-9.6-.1-14.4-.1s-9.6-.2-14.4.1c-3.8.2-3.3-2.1-3.4-4.5s0-4.1 3.3-4c9.6.2 19.3.2 28.9 0 3.9-.1 3.2 2.2 3.2 4.5.1 2.3.2 4.2-3.2 4zm-39.1-92.9c.4-2.3 0-6.5 3.8-6.6 12.1-.3 24.3-.2 36.4 0 3.7 0 1.6 3.2 2 5 .5 2.1-.2 3.3-2.8 3.3-6.3-.2-12.6-.1-19-.1-5.5 0-11 .1-16.5-.1-1.3-.1-4.3 1.4-3.9-1.5zm-4.9 15.6c.4-2.5-.4-6.9 4.6-6.9h17.9c7.1 0 14.3.2 21.4-.1 3.2-.1 3.5 1.5 3.3 3.9-.2 2.2.8 4.7-3.2 4.5-7-.3-14-.1-20.9-.1-6.3 0-12.6.1-18.9-.1-1.5.1-4.6 1.4-4.2-1.2zm3.7 8.4h26.5c3.2-.1 3.1 1.7 2.9 3.8-.2 1.9 1.2 4.5-2.7 4.5-11.8-.1-23.6 0-35.5 0 1.4-8.3 1.4-8.3 8.8-8.3zm-13.6 21.7c.3-8.4 6.2-6.6 11.1-6.6 9.3-.1 18.7.2 28-.1 3.7-.1 3.7 1.6 3.9 4.4.2 3.2-.9 4-3.9 3.8-4.8-.2-9.7-.2-14.5 0-2.4.1-3.3-.7-3.2-3.5-.9 3.7-3.3 3.5-5.8 3.4-10.7-.1-21.3-.1-32 0-2.5 0-4.9.1-5-3.9-.1 3.2-1.4 4-4 3.9-4.8-.2-9.7-.3-14.5 0-3.1.2-3.7-1.1-3.4-3.7.2-2.1-.9-4.6 3.2-4.5 11.5.2 23 .3 34.5 0 4.8 0 3.2 4.3 5.6 6.8zm-5.5-13.5c-11.8 0-23.6-.1-35.3 0-3.6 0-2.3-2.5-2.4-4.1 0-1.7-1.1-4.1 2.4-4.1l30.9.1c2.8 0 3.1.7 4.4 8.1zm-51.9-35.2c-.2-2.1-.2-3.8 2.9-3.8l34.4.1c5.3.1 3.2 5.1 5.3 8.2h-40c-3.8.1-2.5-2.6-2.6-4.5zm-.1 16.2c.2-2.2-.7-4.6 3.2-4.6l38.9.1c2.3 0 6 5.9 4.9 7.7-.8 1.2-2.1.6-3.2.6-6.8.1-13.6 0-20.5 0-6.7 0-13.3-.2-20 .1-3 .1-3.5-1.3-3.3-3.9zm3.3 71.2a715.48 715.48 0 0 0 29.3 0c3.7-.1 2.9 2.3 2.9 4.3 0 2.1.6 4.4-3 4.2-5-.2-9.9-.1-14.9-.1-4.8 0-9.6-.2-14.4.1-3.9.2-3.2-2.3-3.3-4.5 0-2.4.2-4 3.4-4zm-12.3-6.4h-7.9c-2.1 0-4.4-.3-6.4.1-5.3 1-5.5-2.1-5.2-6 .1-1.9.8-2.6 2.7-2.6l16.9.1c4.2 0 3 3.6 3.5 5.9.5 2.9-1.8 2.5-3.6 2.5zm2.9-51.4c-.3 2.9.3 6.1-4.6 5.7s-9.9-.3-14.9 0c-3.6.2-3.4-1.8-3.5-4.2-.1-2.8.3-4.4 3.7-4.1 2.6.3 5.3.1 7.9.1 2.3 0 4.7-.2 6.9.1 1.8.1 4.9-1.7 4.5 2.4zm-.6-11.2c-.3 2.5-2.2 1.6-3.5 1.6h-36.5c-12 0-24-.1-36 .1-3.5.1-4-1.2-4.1-4.3-.1-3.2.8-4.2 4.2-4.2l69.9.1a5.96 5.96 0 0 1 6 6.7zM133.28 58l48.9.1c6.9 0 12.9 2.6 18.3 7.4-1.4 1.3-2.6.8-3.6.8-21.1 0-42.2-.1-63.3.1-3.4 0-4.5-.7-4.5-4.3 0-3.4 1-4.1 4.2-4.1zm-58 0h44.3c4.1-.1 2.9 2.5 3.1 4.6.3 2.6-.3 3.9-3.4 3.8-7.3-.2-14.6-.1-21.9-.1s-14.6-.2-21.9.1c-3.5.1-3.1-1.9-3-4.1.1-1.9-1-4.3 2.8-4.3zm.6 15.4h43.5c3.8-.1 3.2 2.2 3.3 4.5.1 2.4 0 4.1-3.3 4-7.5-.2-15-.1-22.5-.1-7 0-14-.2-21 .1-3.6.2-3.5-1.7-3.5-4.2 0-2.6-.1-4.4 3.5-4.3zm29.4 69.4c-2.6-.2-5.3 0-7.9 0h-6.4c-4 0-6-3.3-4.4-7.2.6-1.5 1.8-1.2 2.9-1.2 5.3 0 10.6.1 15.9-.1 3.6-.1 3 2.2 3 4.3-.2 2 .5 4.4-3.1 4.2zm2.9-49.8c.1 2.3.3 4.4-3.1 4-2.6-.3-5.3-.1-8-.1-1.8 0-3.7-.3-5.5.1-4.6.8-5.7-1.3-5.3-5.4.2-2.2.9-2.8 2.9-2.8 5.3.1 10.6.2 15.9 0 3.7-.1 3 2.2 3.1 4.2zm0 15.3c.2 2 .4 4.1-2.8 3.8-2.6-.2-5.3 0-8 0-2 0-4-.3-6 .1-5.1 1-5.2-2-5-5.7.1-2 .7-2.6 2.6-2.6 5.5.1 11 .1 16.4 0 3.9-.2 2.6 2.5 2.8 4.4zm.1 16.4c-.1 1.9-.8 2.6-2.6 2.6-5.5-.1-10.9-.1-16.4 0-3.8.1-2.6-2.5-2.7-4.4-.1-2-.5-4.1 2.8-3.8 2.6.2 5.3 0 8 0 2 0 4 .3 6-.1 4.9-.9 5.1 1.9 4.9 5.7zm-35.9 28.8c0-2.5-.2-4.3 3.5-4.3h43.5c3.8-.1 3.3 2.1 3.3 4.5.1 2.4.1 4.1-3.3 4-7.3-.2-14.6-.1-22-.1-7.2 0-14.3-.2-21.5.1-3.5.2-3.5-1.6-3.5-4.2z"/><path d="M394.28 197.4H61.98h-55c-2.6 0-5.4-.3-7.6 1.6h405c-3-2.4-6.7-1.6-10.1-1.6z"/><g fill="#1ba442"><path d="M346.38 401.1c-2.4.5-4.8.4-7.2.4H55.28c-.6 0-1.1-.1-1.7-.1 0 .1.1.1 0 .2-.1.3-.2.4-.3.4h293c.1-.4.1-.7.1-.9z"/><path d="M348.78 400.2c-12.6 1.6-25.2.8-37.8.8H89.68l-36.5.1h0c.3.1.4.2.5.3.6 0 1.1.1 1.7.1h283.9c2.4 0 4.8.1 7.2-.4.2-.9 1.7-.4 2.3-.9z"/><path d="M346.78 401c-.1 0-.2 0-.3.1-.1.2-.1.5 0 .9.4-.3.9-.6 1.3-1h-1z"/><path d="M346.38 401.1c.1 0 .2 0 .3-.1h.9c.4-.3.7-.6 1.1-.8-.5.5-2 0-2.3.9zm-292.7.5v-.2h-.5c0 .2.1.4.2.6.1 0 .2-.1.3-.4z"/><path d="M53.18 401.4h.5c-.1-.1-.2-.2-.5-.3v.3z"/></g><path d="M181.48 326.3l28.5-.1c12.5-.1 21.2-6.3 23.7-16.7 3.3-13.8-.1-21.6-12.4-28.3-.3-.1-.4-.5-.6-.7 8.6-4.1 12.6-11.7 11.3-21.6-1.3-10.5-6-16.1-15.8-17.9-11.9-2.1-23.9-.5-35.9-.9-2.8-.1-2.2 2-2.2 3.5l-.1 79.4c.1 2.6 1 3.3 3.5 3.3zm34.9-26.5c.4 10-9.6 17.3-19.2 14-1.5-.5-1.5-1.6-1.5-2.7v-20.5c.1-5.3 4.5-1.4 5.7-2.9 10.4.1 14.6 3.7 15 12.1zm-15.8-46.9c10.8.2 14.4 3.7 13.8 12.8-.5 7.2-10.9 13.1-17.5 10-1.5-.7-1.1-1.9-1.2-3 0-4.7.2-9.3-.1-14-.2-4.4.5-7.4 5-5.8zm-90.4 30.1l-.1 39.4c0 3.1.8 4 3.9 3.9 8.3-.2 16.6 0 25-.1 15.3-.1 23.8-7.1 26.6-22.2 2.5-13.4 2.6-26.8.6-40.2-2.4-16.4-11.2-23.7-27.9-23.7-7.5 0-15 .2-22.5-.1-4.4-.2-6 .8-5.8 5.6.4 12.4.2 24.9.2 37.4zm21.7-30.2c11.5 0 15.6 2.7 17 13.7 1.5 11.7 1.7 23.6-.4 35.3-1.7 9.7-9.4 14.3-18.9 12-2.6-.6-1.8-2.4-1.8-3.9v-27c0-8.7.2-17.3-.1-26-.2-3.4 1-4.1 4.2-4.1zm114.3 16h7c2.9.2 4.7-.2 4.5-3.9-.2-2.8.5-5.6 1.7-8.2 1.8-3.6 4.9-4.9 8.6-4.6 4 .3 6.5 2.7 7.1 6.6 1.2 8.1.2 15.6-6.4 21.5-4.8 4.3-9.6 8.8-14.1 13.4-7.6 7.8-12.8 16.8-13.8 28.1-.4 4.2.9 4.6 4.4 4.6l39-.1c9.7 0 9.6 0 9.5-9.7 0-2.8-.8-3.7-3.6-3.6-9.3.2-18.6.1-28.8.1 1.6-4.6 4-7.9 7-10.8l14.5-13.7c4.3-4.1 7.4-8.9 9.1-14.7 5.5-19.6-4.3-32.8-24.5-32.8h-4c-13.9.7-21.4 7.8-22.7 21.6-.5 6.2-.5 6.2 5.5 6.2z" fill="#fefefe"/><path d="M204.78 149.4l-35.4-.1c-11.8 0-23.6.1-35.4-.1-3.4-.1-4.9.4-4.9 4.5 0 4.2 2 4 4.9 4h68.3c.8 0 1.7.1 2.5 0 4.3-.4 4-4.3 4.2-6.8.3-2.8-2.7-1.5-4.2-1.5zm-71.5-76c-3.3 0-4.2 1-4.2 4.2 0 3.1.6 4.3 4.1 4.3l36-.1h36.5c1.3 0 3.2.9 3.5-1.6.4-3.5-2.3-6.7-5.9-6.7-23.4 0-46.7 0-70-.1z" fill="#f9f9f9"/><path d="M233.18 103.8c-4-.1-2.9 2.4-3.2 4.5-.3 2.6.3 3.9 3.4 3.7 4.8-.3 9.7-.2 14.5 0 2.6.1 3.9-.7 4-3.9.1 4 2.4 3.9 5 3.9h32c2.5 0 5 .3 5.8-3.4-.1 2.8.9 3.6 3.2 3.5 4.8-.2 9.7-.2 14.5 0 3 .2 4.1-.7 3.9-3.8-.1-2.8-.1-4.6-3.9-4.4-9.3.3-18.7.1-28 .1-4.9 0-10.9-1.8-11.1 6.6-2.5-2.4-.8-6.8-5.7-6.7-11.4.1-22.9.1-34.4-.1z" fill="#fcfcfc"/><path d="M132.18 164.7c-4.1 0-2.8 2.5-3.1 4.6-.4 2.7.5 3.7 3.5 3.7l50.9-.1c6.6-.1 12.5-2.5 18.3-8.1-24 0-46.8.1-69.6-.1zm1.3-98.3l63.3-.1c1.1 0 2.3.4 3.6-.8-5.4-4.8-11.4-7.3-18.3-7.4-16.3-.1-32.6.1-48.9-.1-3.2 0-4.2.7-4.3 4.1.1 3.6 1.2 4.4 4.6 4.3z" fill="#fdfdfd"/><path d="M147.68 103.8c-3.2 0-4.2.7-4.3 4-.1 3.7 1.3 4.3 4.6 4.2 15.1-.2 30.3-.4 45.4.1 6.4.2 9.3-2.7 11.9-8.3h-57.6zm57.2 23.5c-2.3-3.4-2.9-8.2-7.9-8.2-16.8 0-33.6.1-50.3-.1-3.5 0-3.1 2-3.1 4.1s-.5 4.2 3 4.2h58.3z" fill="#fcfcfc"/><path d="M75.98 157.7c7.1-.3 14.3-.1 21.5-.1 7.3 0 14.7-.2 22 .1 3.3.1 3.4-1.6 3.3-4-.1-2.3.5-4.5-3.3-4.5h-43.5c-3.7-.1-3.5 1.8-3.5 4.3-.1 2.6-.1 4.4 3.5 4.2zm-.1-75.8c7-.3 14-.1 21-.1 7.5 0 15-.2 22.5.1 3.3.1 3.4-1.5 3.3-4-.1-2.3.5-4.5-3.3-4.5h-43.5c-3.6-.1-3.5 1.7-3.5 4.2 0 2.6-.1 4.4 3.5 4.3z" fill="#f8f8f8"/><path d="M287.38 81.7c6.3.2 12.6.1 18.9.1 7 0 14-.2 20.9.1 4 .2 3-2.3 3.2-4.5.2-2.4 0-4-3.3-3.9-7.1.2-14.3.1-21.4.1h-17.9c-4.9 0-4.2 4.4-4.6 6.9s2.7 1.2 4.2 1.2z" fill="#f7f7f7"/><path d="M219.28 81.9c6.6-.2 13.3-.1 20-.1h20.5c1.1 0 2.4.6 3.2-.6 1.1-1.7-2.6-7.7-4.9-7.7-13 0-26 .1-38.9-.1-3.9-.1-3.1 2.4-3.2 4.6-.4 2.6.1 4 3.3 3.9z" fill="#f6f6f6"/><path d="M119.38 164.7h-43.4c-3.6-.1-3.5 1.6-3.5 4.2s0 4.3 3.6 4.2c7.3-.3 14.6-.1 22-.1 7.2 0 14.3-.2 21.5.1 3.9.2 3.1-2.2 3.3-4.4-.1-2.5-.3-4-3.5-4z" fill="#fdfdfd"/><path d="M75.48 66.4c7.3-.3 14.6-.1 21.9-.1l21.9.1c3.1.1 3.7-1.2 3.4-3.8-.2-2.1 1-4.7-3.1-4.6h-44.3c-3.8 0-2.7 2.3-2.8 4.3-.1 2.2-.5 4.2 3 4.1zm216.6-.1c5.5.2 11 .1 16.5.1l19 .1c2.6.1 3.3-1.2 2.8-3.3-.4-1.7 1.7-4.9-2-5a1104.21 1104.21 0 0 0-36.4 0c-3.8.1-3.4 4.3-3.8 6.6-.5 2.9 2.5 1.4 3.9 1.5zm-73.6.1h40c-2.1-3.1 0-8.1-5.3-8.2-11.5-.2-23 0-34.4-.1-3.1 0-3.2 1.7-2.9 3.8.1 1.8-1.2 4.5 2.6 4.5z" fill="#fcfcfc"/><path d="M218.98 157.7c4.8-.2 9.6-.1 14.4-.1 5 0 10-.2 14.9.1 3.6.2 3-2.1 3-4.2 0-2 .8-4.4-2.9-4.3a715.48 715.48 0 0 1-29.3 0c-3.2-.1-3.5 1.5-3.4 4 .2 2.3-.5 4.7 3.3 4.5z" fill="#f1f1f1"/><path d="M327.18 149.2c-9.6.2-19.3.2-28.9 0-3.3-.1-3.4 1.6-3.3 4s-.4 4.7 3.4 4.5c4.8-.3 9.6-.1 14.4-.1s9.6-.2 14.4.1c3.4.2 3.3-1.7 3.2-4-.1-2.2.7-4.6-3.2-4.5z" fill="#f7f7f7"/><path d="M313.58 97.1c3.9 0 2.5-2.6 2.7-4.5.2-2.1.3-3.8-2.9-3.8-8.8.2-17.7 0-26.5 0-7.4 0-7.4 0-8.8 8.2l35.5.1z" fill="#fcfcfc"/><path d="M232.58 88.8c-3.5 0-2.5 2.4-2.4 4.1 0 1.7-1.2 4.2 2.4 4.1h35.3c-1.3-7.4-1.6-8.1-4.4-8.1-10.3-.1-20.6 0-30.9-.1z" fill="#fdfdfd"/><path d="M248.38 164.7c-5 .3-10 .1-15 .1-4.8 0-9.7.2-14.5-.1-3.5-.2-3.2 1.9-3.1 4.1 0 2.1-.6 4.3 3 4.2 9.8-.2 19.6-.2 29.4 0 3.6.1 3.1-2 3-4.1.1-2.1.8-4.4-2.8-4.2zm79 0c-4.8.3-9.6.1-14.5.1-5 0-10 .2-15-.1-3.7-.2-2.9 2.2-2.9 4.2 0 2.1-.6 4.2 3.1 4.1 9.8-.3 19.6-.2 29.4 0 3.7.1 2.8-2.2 2.9-4.2 0-2.1.6-4.3-3-4.1zm-62.6-37.4h17c7.5 0 7.5 0 8.4-8h-34.3c1.6 8 1.6 8 8.9 8z" fill="#fcfcfc"/><path d="M280.28 134.4c-2.3-.4-4.6-.1-7-.1h-7c-6.4 0-6.8.7-4 6.5.9 1.8 2.1 1.8 3.6 1.8 4.7 0 9.3-.2 14 .1 5.3.4 5-4.1 5.3-6.7.3-3.3-3.1-1.3-4.9-1.6z" fill="#f4f4f4"/><path d="M206.68 134.4c-5.6-.1-11.2 0-16.9-.1-1.9 0-2.5.6-2.7 2.6-.3 3.9-.1 6.9 5.2 6 2.1-.4 4.3-.1 6.4-.1h7.9c1.8 0 4.1.4 3.4-2.6-.2-2.3.9-5.8-3.3-5.8z" fill="#f5f5f5"/><path d="M162.78 134.3c-5.4.2-10.9.1-16.4 0-2.1 0-2.8.7-2.9 2.9-.3 3.9.3 6.5 5.2 5.6 1.9-.3 4-.1 5.9-.1 2.6 0 5.3-.2 7.9 0 3.5.3 3.2-1.9 3.1-4.1-.1-1.9.9-4.4-2.8-4.3z" fill="#f4f4f4"/><path d="M105.18 134.3c-5.3.2-10.6 0-15.9.1-1.1 0-2.3-.3-2.9 1.2-1.6 3.8.4 7.1 4.4 7.2h6.4c2.6 0 5.3-.2 7.9 0 3.6.3 2.9-2.2 3-4.3s.7-4.4-2.9-4.2z" fill="#eee"/><path d="M246.28 134.3c-1.8.3-3.6.1-5.4.1h-6.4c-3.4-.4-4.5.8-4.5 4.3-.1 3.9 1.6 4.3 4.7 4.1 4.6-.2 9.3-.1 13.9 0 2.1 0 2.8-.7 2.9-2.8.2-3.9-.2-6.6-5.2-5.7z" fill="#f5f5f5"/><path d="M299.98 142.7h5.5 7.9c3.6.2 2.9-2.3 2.9-4.3 0-2.1.5-4.4-3-4.2-5.1.2-10.2.1-15.4.1-1.3 0-2.5-.1-3 1.8-1.2 4.7.2 6.6 5.1 6.6z" fill="#efefef"/><path d="M205.28 88.9c-2.3-.2-4.6-.1-6.9-.1-2.6 0-5.3.2-7.9-.1-3.4-.4-3.8 1.3-3.7 4.1.1 2.5-.1 4.5 3.5 4.2 4.9-.3 10-.4 14.9 0 4.8.4 4.3-2.8 4.6-5.7.3-4-2.8-2.2-4.5-2.4z" fill="#fbfbfb"/><path d="M103.18 119c-1.9.4-4 .1-6 .1h-8c-3.3-.3-2.9 1.8-2.8 3.8.1 1.9-1.1 4.5 2.7 4.4 5.5-.2 10.9-.1 16.4 0 1.9 0 2.5-.7 2.6-2.6.4-3.8.2-6.6-4.9-5.7z" fill="#fafafa"/><g fill="#fbfbfb"><path d="M105.48 103.8c-5.5.2-11 .1-16.4 0-1.9 0-2.5.6-2.6 2.6-.2 3.7-.1 6.7 5 5.7 1.9-.4 4-.1 6-.1 2.7 0 5.3-.2 8 0 3.2.3 3-1.8 2.8-3.8-.3-1.8 1-4.5-2.8-4.4zm57.1-15c-5.5.2-11 0-16.4.1-1.1 0-2.2-.2-2.6 1.5-1.2 4.6.2 6.6 5 6.7h6c2.7 0 5.3-.2 8 0 3.2.3 3-1.8 2.8-3.8-.3-1.9 1.1-4.6-2.8-4.5z"/><path d="M105.18 88.8c-5.3.2-10.6.1-15.9 0-2.1 0-2.7.6-2.9 2.8-.4 4.2.7 6.3 5.3 5.4 1.8-.3 3.6-.1 5.5-.1 2.7 0 5.3-.2 8 .1 3.4.3 3.2-1.8 3.1-4-.2-2 .5-4.3-3.1-4.2z"/></g><path d="M297.88 127.3c5.1-.2 10.3-.1 15.4 0 2 0 2.9-.4 3-2.7.3-4-.4-6.5-5.2-5.6-1.8.3-3.6.1-5.5.1-2.7 0-5.3.1-8 0-3.8-.2-2.5 2.6-2.7 4.5-.1 1.9-.3 3.9 3 3.7z" fill="#fafafa"/><path d="M248.48 119c-5.2.2-10.3.1-15.5 0-2 0-2.9.4-3.1 2.7-.3 3.9.3 6.5 5.2 5.6 1.8-.3 3.7-.1 5.5-.1 2.7 0 5.3-.1 8 0 3.9.2 2.5-2.6 2.7-4.4.2-1.9.5-3.9-2.8-3.8z" fill="#fbfbfb"/><path d="M275.08 149.3c-.6-.2-1.3 0-2 0h-3c-4.8-.8-4.8 1.2-3.7 5.1 1.4 5 5.1 2.8 8 3.3 5.5 1 5.6-3.5 5.8-6.5.3-3.7-3.3-1.2-5.1-1.9z" fill="#f0f0f0"/><path d="M270.98 165c-.9 2.8.8 5.2 2.1 7.7 1-2.6 3.6-4.9 1.9-7.9-.3-.5-3.8-.3-4 .2z" fill="#e3e3e3"/><path d="M201.38 287.7c-1.3 1.5-5.7-2.5-5.7 2.9-.1 6.8 0 13.7 0 20.5 0 1.2 0 2.2 1.5 2.7 9.5 3.4 19.6-3.9 19.2-14-.4-8.4-4.6-12-15-12.1z" fill="#019a2d"/><path d="M195.68 272.7c0 1.1-.3 2.3 1.2 3 6.5 3.1 17-2.8 17.5-10 .6-9.2-2.9-12.7-13.8-12.8-4.5-1.5-5.2 1.5-4.9 5.9.2 4.6 0 9.3 0 13.9z" fill="#029a2d"/><path d="M127.68 282.9v27c0 1.5-.7 3.3 1.8 3.9 9.5 2.3 17.2-2.2 18.9-12 2.1-11.7 1.9-23.6.4-35.3-1.4-11-5.5-13.7-17-13.7-3.2 0-4.3.7-4.3 4.1.4 8.7.2 17.4.2 26z" fill="#019a2c"/></svg>