<svg width="20" height="20" viewBox="0 0 20 20" fill="none" xmlns="http://www.w3.org/2000/svg">
<path d="M15.2293 16.0819C15.3894 15.954 15.5176 15.8262 15.6457 15.6663C18.7849 12.5335 18.7849 7.48251 15.6457 4.34965C12.5065 1.21678 7.44543 1.21678 4.30626 4.34965C4.17813 4.50949 4.05 4.63736 3.92188 4.7972L15.2293 16.0819Z" fill="#5E6AD2"/>
<path d="M14.2683 16.7853L3.21721 5.75635C2.99298 6.108 2.80079 6.45964 2.64062 6.84326L13.1793 17.3607C13.5636 17.2009 13.916 17.0091 14.2683 16.7853Z" fill="#5E6AD2"/>
<path d="M11.962 17.7764L2.22423 8.05811C2.0961 8.53763 2.03203 9.01715 2 9.49667L10.5206 18.0002C11.0011 17.9682 11.4816 17.9043 11.962 17.7764Z" fill="#5E6AD2"/>
<path d="M8.75872 17.936L2.06396 11.2546C2.32022 12.885 3.05697 14.4195 4.30623 15.6982C5.58752 16.913 7.1571 17.6802 8.75872 17.936Z" fill="#5E6AD2"/>
</svg>
