<svg width="20" height="20" viewBox="0 0 20 20" fill="none" xmlns="http://www.w3.org/2000/svg">
<path fill-rule="evenodd" clip-rule="evenodd" d="M2 2H18V18H2V2ZM6.71455 5.90198L9.46084 11.0466V14.4267H10.5171V11.1088L13.2883 5.90198H12.1202L10.4798 9.15776C10.397 9.33174 10.3162 9.4995 10.2375 9.66104C10.1588 9.82259 10.0863 9.97378 10.02 10.1146C9.99519 10.0483 9.9662 9.97585 9.93306 9.89715C9.89992 9.81845 9.86264 9.73768 9.82122 9.65483C9.81293 9.63826 9.80465 9.61962 9.79636 9.59891C9.78808 9.5782 9.77565 9.55542 9.75908 9.53056C9.73423 9.46429 9.70524 9.40008 9.6721 9.33795C9.63896 9.27582 9.60996 9.21576 9.58511 9.15776L7.96964 5.90198H6.71455Z" fill="#FB651E"/>
</svg>
