<svg width="20" height="20" viewBox="0 0 20 20" fill="none" xmlns="http://www.w3.org/2000/svg">
<path d="M3.19834 6.33099C3.86017 6.33099 4.39669 5.7859 4.39669 5.11349C4.39669 4.44109 3.86017 3.896 3.19834 3.896C2.53652 3.896 2 4.44109 2 5.11349C2 5.7859 2.53652 6.33099 3.19834 6.33099Z" fill="#2991EC"/>
<path d="M3.19834 9.73993C3.86017 9.73993 4.39669 9.19483 4.39669 8.52243C4.39669 7.85002 3.86017 7.30493 3.19834 7.30493C2.53652 7.30493 2 7.85002 2 8.52243C2 9.19483 2.53652 9.73993 3.19834 9.73993Z" fill="#2991EC"/>
<path opacity="0.2" d="M6.55381 6.33099C7.21564 6.33099 7.75216 5.7859 7.75216 5.11349C7.75216 4.44109 7.21564 3.896 6.55381 3.896C5.89199 3.896 5.35547 4.44109 5.35547 5.11349C5.35547 5.7859 5.89199 6.33099 6.55381 6.33099Z" fill="#2991EC"/>
<path d="M6.55381 9.77313C7.21564 9.77313 7.75216 9.22804 7.75216 8.55563C7.75216 7.88323 7.21564 7.33813 6.55381 7.33813C5.89199 7.33813 5.35547 7.88323 5.35547 8.55563C5.35547 9.22804 5.89199 9.77313 6.55381 9.77313Z" fill="#2991EC"/>
<path opacity="0.2" d="M9.90904 6.33099C10.5709 6.33099 11.1074 5.7859 11.1074 5.11349C11.1074 4.44109 10.5709 3.896 9.90904 3.896C9.24721 3.896 8.71069 4.44109 8.71069 5.11349C8.71069 5.7859 9.24721 6.33099 9.90904 6.33099Z" fill="#2991EC"/>
<path opacity="0.2" d="M9.90904 2.435C10.5709 2.435 11.1074 1.8899 11.1074 1.2175C11.1074 0.545092 10.5709 0 9.90904 0C9.24721 0 8.71069 0.545092 8.71069 1.2175C8.71069 1.8899 9.24721 2.435 9.90904 2.435Z" fill="#2991EC"/>
<path opacity="0.2" d="M9.90904 9.77313C10.5709 9.77313 11.1074 9.22804 11.1074 8.55563C11.1074 7.88323 10.5709 7.33813 9.90904 7.33813C9.24721 7.33813 8.71069 7.88323 8.71069 8.55563C8.71069 9.22804 9.24721 9.77313 9.90904 9.77313Z" fill="#2991EC"/>
<path opacity="0.2" d="M13.2645 6.33099C13.9263 6.33099 14.4628 5.7859 14.4628 5.11349C14.4628 4.44109 13.9263 3.896 13.2645 3.896C12.6027 3.896 12.0662 4.44109 12.0662 5.11349C12.0662 5.7859 12.6027 6.33099 13.2645 6.33099Z" fill="#2991EC"/>
<path d="M16.6197 6.33099C17.2816 6.33099 17.8181 5.7859 17.8181 5.11349C17.8181 4.44109 17.2816 3.896 16.6197 3.896C15.9579 3.896 15.4214 4.44109 15.4214 5.11349C15.4214 5.7859 15.9579 6.33099 16.6197 6.33099Z" fill="#2991EC"/>
<path d="M13.2645 9.77313C13.9263 9.77313 14.4628 9.22804 14.4628 8.55563C14.4628 7.88323 13.9263 7.33813 13.2645 7.33813C12.6027 7.33813 12.0662 7.88323 12.0662 8.55563C12.0662 9.22804 12.6027 9.77313 13.2645 9.77313Z" fill="#2991EC"/>
<path d="M16.6197 9.77313C17.2816 9.77313 17.8181 9.22804 17.8181 8.55563C17.8181 7.88323 17.2816 7.33813 16.6197 7.33813C15.9579 7.33813 15.4214 7.88323 15.4214 8.55563C15.4214 9.22804 15.9579 9.77313 16.6197 9.77313Z" fill="#2991EC"/>
<path d="M3.19834 13.1489C3.86017 13.1489 4.39669 12.6038 4.39669 11.9314C4.39669 11.259 3.86017 10.7139 3.19834 10.7139C2.53652 10.7139 2 11.259 2 11.9314C2 12.6038 2.53652 13.1489 3.19834 13.1489Z" fill="#2991EC"/>
<path opacity="0.2" d="M6.55381 13.1821C7.21564 13.1821 7.75216 12.637 7.75216 11.9646C7.75216 11.2922 7.21564 10.7471 6.55381 10.7471C5.89199 10.7471 5.35547 11.2922 5.35547 11.9646C5.35547 12.637 5.89199 13.1821 6.55381 13.1821Z" fill="#2991EC"/>
<path d="M9.90904 13.1821C10.5709 13.1821 11.1074 12.637 11.1074 11.9646C11.1074 11.2922 10.5709 10.7471 9.90904 10.7471C9.24721 10.7471 8.71069 11.2922 8.71069 11.9646C8.71069 12.637 9.24721 13.1821 9.90904 13.1821Z" fill="#2991EC"/>
<path opacity="0.2" d="M13.2645 13.1821C13.9263 13.1821 14.4628 12.637 14.4628 11.9646C14.4628 11.2922 13.9263 10.7471 13.2645 10.7471C12.6027 10.7471 12.0662 11.2922 12.0662 11.9646C12.0662 12.637 12.6027 13.1821 13.2645 13.1821Z" fill="#2991EC"/>
<path d="M16.6197 13.1821C17.2816 13.1821 17.8181 12.637 17.8181 11.9646C17.8181 11.2922 17.2816 10.7471 16.6197 10.7471C15.9579 10.7471 15.4214 11.2922 15.4214 11.9646C15.4214 12.637 15.9579 13.1821 16.6197 13.1821Z" fill="#2991EC"/>
<path d="M3.19834 16.558C3.86017 16.558 4.39669 16.013 4.39669 15.3405C4.39669 14.6681 3.86017 14.123 3.19834 14.123C2.53652 14.123 2 14.6681 2 15.3405C2 16.013 2.53652 16.558 3.19834 16.558Z" fill="#2991EC"/>
<path opacity="0.2" d="M6.55381 16.591C7.21564 16.591 7.75216 16.0459 7.75216 15.3735C7.75216 14.7011 7.21564 14.156 6.55381 14.156C5.89199 14.156 5.35547 14.7011 5.35547 15.3735C5.35547 16.0459 5.89199 16.591 6.55381 16.591Z" fill="#2991EC"/>
<path opacity="0.2" d="M9.90904 16.591C10.5709 16.591 11.1074 16.0459 11.1074 15.3735C11.1074 14.7011 10.5709 14.156 9.90904 14.156C9.24721 14.156 8.71069 14.7011 8.71069 15.3735C8.71069 16.0459 9.24721 16.591 9.90904 16.591Z" fill="#2991EC"/>
<path opacity="0.2" d="M9.90904 19.9999C10.5709 19.9999 11.1074 19.4548 11.1074 18.7824C11.1074 18.11 10.5709 17.5649 9.90904 17.5649C9.24721 17.5649 8.71069 18.11 8.71069 18.7824C8.71069 19.4548 9.24721 19.9999 9.90904 19.9999Z" fill="#2991EC"/>
<path opacity="0.2" d="M13.2645 16.591C13.9263 16.591 14.4628 16.0459 14.4628 15.3735C14.4628 14.7011 13.9263 14.156 13.2645 14.156C12.6027 14.156 12.0662 14.7011 12.0662 15.3735C12.0662 16.0459 12.6027 16.591 13.2645 16.591Z" fill="#2991EC"/>
<path d="M16.6197 16.591C17.2816 16.591 17.8181 16.0459 17.8181 15.3735C17.8181 14.7011 17.2816 14.156 16.6197 14.156C15.9579 14.156 15.4214 14.7011 15.4214 15.3735C15.4214 16.0459 15.9579 16.591 16.6197 16.591Z" fill="#2991EC"/>
</svg>
