<?xml version="1.0" encoding="UTF-8"?>
<svg xmlns="http://www.w3.org/2000/svg" xmlns:xlink="http://www.w3.org/1999/xlink" width="20px" height="20px" viewBox="0 0 20 20" version="1.1">
<g id="surface1">
<path style=" stroke:none;fill-rule:evenodd;fill:rgb(22.352941%,23.529412%,25.882354%);fill-opacity:1;" d="M 19.9375 0.40625 C 19.78125 0.21875 19.375 0.21875 18.84375 0.46875 L 12.34375 3.78125 C 12.34375 3.78125 12.3125 3.75 12.3125 3.75 C 12.1875 3.625 12.09375 3.53125 11.96875 3.40625 C 11.78125 3.25 11.4375 3.03125 11.21875 2.9375 C 9.8125 2.21875 8.15625 2.28125 6.6875 2.71875 C 5.03125 3.21875 3.46875 4.21875 2.28125 5.46875 C 1.75 6.03125 1.28125 6.6875 0.90625 7.375 C 0.4375 8.25 0.15625 9.1875 0.0625 10.15625 C -0.09375 12.0625 0.4375 14.53125 1.75 15.96875 C 2.0625 16.34375 2.40625 16.65625 2.75 17 C 3 17.25 3.28125 17.5 3.53125 17.78125 C 4 18.34375 4.25 18.90625 4.46875 19.625 L 4.5 19.71875 L 4.59375 19.65625 C 5.9375 18.6875 6.4375 17.40625 5.46875 15.96875 C 6.03125 15.5 6.3125 14.84375 6.3125 14.125 C 6.3125 13.4375 6.03125 12.6875 5.4375 12.28125 C 5.6875 12.1875 6.0625 12 6.3125 11.90625 C 6.3125 12.125 6.125 12.46875 6.28125 12.5625 C 6.59375 12.75 7.78125 12.25 8.1875 11.1875 C 8.5625 11.0625 8.78125 10.96875 9.1875 10.8125 C 10.71875 10.1875 12.40625 9.3125 13.34375 8.21875 C 13.65625 7.84375 14.3125 6.75 13.59375 6.46875 C 13.84375 6.1875 14 5.71875 13.90625 5.40625 L 19.46875 1.34375 C 19.875 1.09375 20.125 0.625 19.9375 0.40625 Z M 2.84375 14.25 C 2.71875 13.5625 3.90625 12.96875 4.53125 12.6875 C 4.375 13.1875 4.0625 13.6875 3.6875 14.0625 C 3.5 14.21875 3.03125 14.65625 2.84375 14.25 Z M 2.84375 14.25 "/>
<path style=" stroke:none;fill-rule:evenodd;fill:rgb(33.333334%,74.901962%,80.784315%);fill-opacity:1;" d="M 13.28125 7.40625 C 13.6875 6.875 13.40625 6.5625 13.125 6.875 C 12.5625 7.46875 11.6875 7.65625 10.90625 7.53125 C 9.75 7.34375 9.71875 7.15625 9.90625 7 C 11.25 7.5 12.8125 6.84375 13.46875 5.78125 C 13.75 5.375 12.8125 5.0625 12.25 4.3125 C 9.59375 0.71875 1.21875 3.84375 0.4375 10.15625 C 0.1875 12.0625 0.71875 14.15625 2.03125 15.625 C 3 16.71875 4.0625 17.1875 4.65625 18.9375 C 5.8125 17.9375 5.65625 16.8125 4.78125 15.8125 C 6.25 15.0625 6.03125 13.09375 5 12.46875 C 4.53125 14.21875 2.8125 15.53125 2.40625 14.28125 C 2.15625 13 4.25 12.15625 7.59375 10.90625 C 10.40625 9.8125 12.21875 8.9375 13.28125 7.40625 Z M 13.28125 7.40625 "/>
<path style=" stroke:none;fill-rule:evenodd;fill:rgb(100%,100%,100%);fill-opacity:1;" d="M 13.28125 7.40625 C 13.6875 6.875 13.40625 6.5625 13.125 6.875 C 12.625 7.375 11.90625 7.59375 11.21875 7.5625 C 10.0625 7.46875 9.15625 7.25 8.3125 7.34375 C 6.65625 7.5 5.03125 8.5625 4.15625 9.4375 C 2.6875 10.9375 1.09375 14.0625 2.71875 14.65625 C 2.59375 14.59375 2.5 14.4375 2.4375 14.25 C 2.1875 12.96875 4.28125 12.125 7.625 10.875 C 10.40625 9.8125 12.21875 8.9375 13.28125 7.40625 Z M 13.28125 7.40625 "/>
<path style=" stroke:none;fill-rule:evenodd;fill:rgb(33.333334%,74.901962%,80.784315%);fill-opacity:1;" d="M 6.09375 9.84375 C 6.96875 10.25 6.78125 11.75 6.65625 12.125 C 8.28125 11.65625 7.8125 9.25 8.5625 8.5 C 7.625 8.46875 5.84375 9.40625 6.09375 9.84375 Z M 6.09375 9.84375 "/>
<path style=" stroke:none;fill-rule:evenodd;fill:rgb(22.352941%,23.529412%,25.882354%);fill-opacity:1;" d="M 8.875 5.46875 C 9.09375 5.34375 9.40625 5.4375 9.53125 5.65625 C 9.65625 5.875 9.5625 6.15625 9.34375 6.3125 C 9.125 6.4375 8.8125 6.34375 8.6875 6.125 C 8.5625 5.875 8.65625 5.59375 8.875 5.46875 Z M 8.875 5.46875 "/>
<path style=" stroke:none;fill-rule:evenodd;fill:rgb(33.333334%,74.901962%,80.784315%);fill-opacity:1;" d="M 12.84375 5.65625 L 19.40625 1.09375 C 19.59375 0.96875 19.84375 0.6875 19.71875 0.53125 C 19.625 0.40625 19.34375 0.46875 19.09375 0.59375 L 12 4.4375 C 11.78125 4.90625 12.25 5.90625 12.84375 5.65625 Z M 12.84375 5.65625 "/>
<path style=" stroke:none;fill-rule:evenodd;fill:rgb(100%,100%,100%);fill-opacity:1;" d="M 12.28125 4.75 L 19.125 0.71875 C 19.4375 0.53125 19.53125 0.53125 19.71875 0.53125 C 19.625 0.40625 19.34375 0.5 19.09375 0.59375 L 12 4.4375 C 11.8125 4.8125 12.0625 5.46875 12.4375 5.65625 C 12.3125 5.34375 12.21875 5.03125 12.28125 4.75 Z M 12.28125 4.75 "/>
<path style=" stroke:none;fill-rule:evenodd;fill:rgb(14.509805%,67.058825%,67.843139%);fill-opacity:1;" d="M 2.15625 6.5625 C 2.375 6.53125 2.5625 6.6875 2.5625 6.90625 C 2.5625 7.125 2.375 7.34375 2.15625 7.375 C 1.9375 7.40625 1.75 7.25 1.78125 7.03125 C 1.75 6.8125 1.9375 6.59375 2.15625 6.5625 Z M 2.15625 6.5625 "/>
<path style=" stroke:none;fill-rule:evenodd;fill:rgb(14.509805%,67.058825%,67.843139%);fill-opacity:1;" d="M 3.5 5.09375 C 3.6875 5.0625 3.84375 5.1875 3.84375 5.40625 C 3.84375 5.625 3.6875 5.8125 3.46875 5.84375 C 3.28125 5.875 3.125 5.75 3.125 5.53125 C 3.125 5.3125 3.3125 5.125 3.5 5.09375 Z M 3.5 5.09375 "/>
<path style=" stroke:none;fill-rule:evenodd;fill:rgb(14.509805%,67.058825%,67.843139%);fill-opacity:1;" d="M 7.53125 3.15625 C 7.71875 3.15625 7.84375 3.34375 7.8125 3.53125 C 7.75 3.71875 7.5625 3.875 7.375 3.875 C 7.1875 3.875 7.0625 3.6875 7.09375 3.5 C 7.125 3.28125 7.3125 3.125 7.53125 3.15625 Z M 7.53125 3.15625 "/>
<path style=" stroke:none;fill-rule:evenodd;fill:rgb(14.509805%,67.058825%,67.843139%);fill-opacity:1;" d="M 8.75 2.9375 C 8.90625 2.96875 9 3.125 8.9375 3.28125 C 8.875 3.4375 8.6875 3.53125 8.53125 3.5 C 8.375 3.46875 8.28125 3.3125 8.34375 3.15625 C 8.40625 3 8.59375 2.90625 8.75 2.9375 Z M 8.75 2.9375 "/>
<path style=" stroke:none;fill-rule:evenodd;fill:rgb(14.509805%,67.058825%,67.843139%);fill-opacity:1;" d="M 3.5 6 C 3.65625 5.96875 3.75 6.09375 3.75 6.21875 C 3.75 6.375 3.625 6.5 3.46875 6.53125 C 3.3125 6.5625 3.21875 6.46875 3.21875 6.3125 C 3.25 6.1875 3.375 6.03125 3.5 6 Z M 3.5 6 "/>
<path style=" stroke:none;fill-rule:evenodd;fill:rgb(14.509805%,67.058825%,67.843139%);fill-opacity:1;" d="M 1.4375 7.71875 C 1.59375 7.6875 1.71875 7.8125 1.71875 7.96875 C 1.71875 8.125 1.59375 8.28125 1.4375 8.3125 C 1.28125 8.34375 1.15625 8.21875 1.15625 8.09375 C 1.15625 7.90625 1.28125 7.75 1.4375 7.71875 Z M 1.4375 7.71875 "/>
<path style=" stroke:none;fill-rule:evenodd;fill:rgb(14.509805%,67.058825%,67.843139%);fill-opacity:1;" d="M 13.71875 3.90625 C 13.6875 3.75 13.6875 3.625 13.6875 3.5 L 13.375 3.65625 C 13.375 3.78125 13.40625 3.90625 13.46875 4.03125 C 13.59375 4.375 13.84375 4.6875 14.03125 4.75 C 13.90625 4.53125 13.78125 4.21875 13.71875 3.90625 Z M 15.34375 2.9375 C 15.34375 2.8125 15.3125 2.71875 15.34375 2.625 L 15.09375 2.78125 C 15.09375 2.875 15.125 2.96875 15.15625 3.0625 C 15.28125 3.375 15.5 3.65625 15.625 3.65625 C 15.5 3.53125 15.40625 3.21875 15.34375 2.9375 Z M 16.96875 2 C 16.96875 1.90625 16.9375 1.84375 16.96875 1.75 L 16.75 1.875 C 16.75 1.9375 16.75 2.03125 16.78125 2.09375 C 16.84375 2.3125 16.96875 2.53125 17.15625 2.5625 C 17.09375 2.4375 17 2.25 16.96875 2 Z M 18.53125 1.09375 C 18.53125 1.03125 18.5 0.96875 18.53125 0.9375 L 18.34375 1.03125 C 18.34375 1.0625 18.375 1.125 18.40625 1.1875 C 18.46875 1.34375 18.59375 1.53125 18.6875 1.59375 C 18.625 1.46875 18.5625 1.28125 18.53125 1.09375 Z M 18.53125 1.09375 "/>
</g>
</svg>
