<svg width="20" height="20" viewBox="0 0 20 20" fill="none" xmlns="http://www.w3.org/2000/svg">
<path fill-rule="evenodd" clip-rule="evenodd" d="M10.9954 4.17512C10.9954 4.8063 10.4837 5.31797 9.85252 5.31797C9.22134 5.31797 8.70966 4.8063 8.70966 4.17512C8.70966 3.54393 9.22134 3.03226 9.85252 3.03226C10.4837 3.03226 10.9954 3.54393 10.9954 4.17512ZM10.9309 6.06453C10.613 6.24633 10.2449 6.35023 9.85252 6.35023C8.65124 6.35023 7.6774 5.3764 7.6774 4.17512C7.6774 2.97383 8.65124 2 9.85252 2C11.0538 2 12.0276 2.97383 12.0276 4.17512C12.0276 4.60976 11.9002 5.01462 11.6805 5.35436L14.4981 8.17196C14.8379 7.95234 15.2427 7.82486 15.6774 7.82486C16.8787 7.82486 17.8525 8.79869 17.8525 9.99998C17.8525 11.2013 16.8787 12.1751 15.6774 12.1751C15.2657 12.1751 14.8808 12.0607 14.5526 11.8621L11.7146 14.7C11.9133 15.0282 12.0276 15.4132 12.0276 15.8248C12.0276 17.0261 11.0538 18 9.85252 18C8.65124 18 7.6774 17.0261 7.6774 15.8248C7.6774 14.6236 8.65124 13.6497 9.85252 13.6497C10.268 13.6497 10.6563 13.7662 10.9865 13.9683L13.8209 11.1339C13.7117 10.9556 13.6275 10.7603 13.5732 10.553L11.9567 10.553C11.7121 11.4864 10.8627 12.1751 9.85252 12.1751C8.84233 12.1751 7.99298 11.4864 7.74832 10.553L6.27931 10.553C6.03466 11.4864 5.18531 12.1751 4.17512 12.1751C2.97383 12.1751 2 11.2013 2 9.99998C2 8.79869 2.97383 7.82486 4.17512 7.82486C5.21173 7.82486 6.07898 8.55001 6.29726 9.52072L7.73038 9.52072C7.94865 8.55001 8.8159 7.82486 9.85252 7.82486C10.8891 7.82486 11.7564 8.55001 11.9747 9.52072L13.5552 9.52072C13.6032 9.30748 13.6825 9.10608 13.788 8.92162L10.9309 6.06453ZM9.85252 11.1428C10.4837 11.1428 10.9954 10.6312 10.9954 9.99998C10.9954 9.36879 10.4837 8.85712 9.85252 8.85712C9.22134 8.85712 8.70966 9.36879 8.70966 9.99998C8.70966 10.6312 9.22134 11.1428 9.85252 11.1428ZM15.6774 11.1428C16.3086 11.1428 16.8202 10.6312 16.8202 9.99998C16.8202 9.36879 16.3086 8.85712 15.6774 8.85712C15.0462 8.85712 14.5345 9.36879 14.5345 9.99998C14.5345 10.6312 15.0462 11.1428 15.6774 11.1428ZM9.85252 16.9677C10.4837 16.9677 10.9954 16.456 10.9954 15.8248C10.9954 15.1937 10.4837 14.682 9.85252 14.682C9.22134 14.682 8.70966 15.1937 8.70966 15.8248C8.70966 16.456 9.22134 16.9677 9.85252 16.9677ZM5.31797 9.99998C5.31797 10.6312 4.8063 11.1428 4.17512 11.1428C3.54393 11.1428 3.03226 10.6312 3.03226 9.99998C3.03226 9.36879 3.54393 8.85712 4.17512 8.85712C4.8063 8.85712 5.31797 9.36879 5.31797 9.99998Z" fill="#67748A"/>
</svg>
