<svg width="20" height="20" viewBox="0 0 20 20" fill="none" xmlns="http://www.w3.org/2000/svg">
<path d="M18 5.08789C17.9739 3.05224 13.9706 2 10 2C6.02939 2 2.02612 3.05224 2 5.08789C2 5.09117 2 14.9023 2 14.9023C2 16.9445 6 18 9.96735 18C13.9347 18 17.9347 16.9445 18 14.8695C18 14.8662 18 5.09117 18 5.08789ZM10 3.29482C14.1176 3.29482 16.671 4.45524 16.671 5.0715C16.671 5.68777 14.1176 6.84819 10 6.84819C5.84653 6.84819 3.32898 5.68777 3.32898 5.0715C3.32898 4.45851 5.88245 3.29482 10 3.29482ZM16.6449 14.8662C16.6449 15.4792 14.1012 16.6363 10 16.6363C5.86286 16.6363 3.3551 15.4792 3.3551 14.8662V11.8111C4.86367 12.6634 7.42041 13.0961 9.96735 13.0961C12.5404 13.0961 15.1265 12.6536 16.6449 11.7816V14.8662ZM10 11.7685C5.86286 11.7685 3.3551 10.6114 3.3551 9.99836V6.92358C4.86694 7.77914 7.44 8.2184 10 8.2184C12.56 8.2184 15.1298 7.76603 16.6449 6.91047V10.0016C16.6449 10.6114 14.1012 11.7685 10 11.7685Z" fill="#B821FF"/>
</svg>
