<svg width="20" height="20" viewBox="0 0 20 20" fill="none" xmlns="http://www.w3.org/2000/svg">
<path fill-rule="evenodd" clip-rule="evenodd" d="M4 2C2.89543 2 2 2.89543 2 4V16C2 17.1046 2.89543 18 4 18H16C17.1046 18 18 17.1046 18 16V4C18 2.89543 17.1046 2 16 2H4ZM10.2781 6.45931C9.55902 6.45931 9.12486 6.68247 9.12486 7.26269C9.12486 7.89619 9.87206 8.17487 10.799 8.52059C12.3102 9.08421 14.2992 9.82603 14.3077 12.5739C14.3077 15.237 12.3675 16.7694 9.54545 16.7694C8.37865 16.7694 7.1033 16.5164 5.84152 15.9213V12.3805C6.98119 13.0649 8.41935 13.5707 9.54545 13.5707C10.3052 13.5707 10.8479 13.3476 10.8479 12.6632C10.8479 11.9615 10.038 11.6407 9.0601 11.2535C7.57088 10.6638 5.69227 9.91985 5.69227 7.44122C5.69227 4.80791 7.52389 3.2309 10.2781 3.2309C11.4042 3.2309 12.5167 3.42431 13.6428 3.91526V7.41146C12.6117 6.80149 11.3092 6.45931 10.2781 6.45931Z" fill="#635BFF"/>
</svg>
