<svg width="20" height="20" viewBox="0 0 20 20" fill="none" xmlns="http://www.w3.org/2000/svg">
<path d="M8.73621 4.65732L5.7292 3.13965L2.42822 4.7869L5.51702 6.33778L8.73621 4.65732Z" fill="#4D77CF"/>
<path d="M10.1152 5.35278L13.268 6.94496L9.99698 8.58736L6.90332 7.03405L10.1152 5.35278Z" fill="#4D77CF"/>
<path d="M14.3263 3.16235L17.5657 4.78693L14.668 6.24143L11.5088 4.64763L14.3263 3.16235Z" fill="#4D77CF"/>
<path d="M12.9319 2.4626L10.0156 1L7.13086 2.43993L10.1362 3.95517L12.9319 2.4626Z" fill="#4D77CF"/>
<path d="M10.6521 15.0203V18.9999L14.1847 17.2369L14.1815 13.2556L10.6521 15.0203Z" fill="#4D77CF"/>
<path d="M14.1798 11.8659L14.1758 7.92676L10.6521 9.67848V13.6192L14.1798 11.8659Z" fill="#4D77CF"/>
<path d="M18.4207 11.1282V15.1232L15.4072 16.6263L15.4048 12.6499L18.4207 11.1282Z" fill="#4D77CF"/>
<path d="M18.4213 9.73102V5.81616L15.4021 7.31683L15.4045 11.2641L18.4213 9.73102Z" fill="#4D77CF"/>
<path d="M9.40484 9.67847L7.02547 8.4815V13.6516C7.02547 13.6516 4.11484 7.45946 3.84597 6.90309C3.81115 6.83101 3.66861 6.75245 3.63217 6.73302C3.10738 6.45928 1.57837 5.68506 1.57837 5.68506V14.8227L3.69372 15.9565V11.1783C3.69372 11.1783 6.57276 16.7113 6.60273 16.772C6.63269 16.8328 6.92019 17.415 7.22956 17.6199C7.64016 17.8929 9.40322 18.953 9.40322 18.953L9.40484 9.67847Z" fill="#4D77CF"/>
</svg>
