<svg width="20" height="20" viewBox="0 0 20 20" fill="none" xmlns="http://www.w3.org/2000/svg">
<path d="M14.2629 2.70996H4.22339C3.55053 2.70996 3 3.26059 3 3.93343V15.0052C3 15.678 3.55053 16.2285 4.22339 16.2285H10.8357C10.7606 12.9384 11.8842 6.55343 14.2629 2.70996Z" fill="#0F80CC"/>
<path d="M13.8983 3.06689H4.2235C3.74573 3.06689 3.35693 3.45559 3.35693 3.93345V14.1974C5.54807 13.3564 8.8367 12.6308 11.1106 12.6638C11.5675 10.2745 12.9105 5.59209 13.8983 3.06689Z" fill="url(#paint0_linear_3790_484)"/>
<path d="M16.6046 2.34758C15.917 1.73439 15.0845 1.9807 14.2629 2.70991C14.1409 2.81825 14.0192 2.93844 13.8981 3.06682C12.4926 4.55791 11.1879 7.31988 10.7825 9.42919C10.9404 9.7494 11.0638 10.158 11.145 10.4702C11.1658 10.5502 11.1846 10.6254 11.1996 10.6894C11.2353 10.8407 11.2545 10.9388 11.2545 10.9388C11.2545 10.9388 11.2419 10.8911 11.1901 10.7412C11.1803 10.7124 11.1693 10.681 11.1563 10.6441C11.1508 10.6288 11.1431 10.6103 11.1347 10.5905C11.043 10.3773 10.7893 9.92748 10.6777 9.73162C10.5823 10.0132 10.4979 10.2767 10.4273 10.5151C10.7495 11.1046 10.9459 12.115 10.9459 12.115C10.9459 12.115 10.9288 12.0495 10.8479 11.821C10.776 11.6189 10.4179 10.9915 10.3331 10.8449C10.188 11.3805 10.1304 11.7421 10.1824 11.8301C10.2833 12.0007 10.3794 12.2951 10.4638 12.6206C10.6545 13.354 10.7871 14.2467 10.7871 14.2467C10.7871 14.2467 10.7914 14.3059 10.7986 14.3969C10.7721 15.0128 10.788 15.6513 10.8356 16.2285C10.8988 16.9924 11.0177 17.6488 11.1693 18L11.2722 17.9439C11.0497 17.2519 10.9592 16.345 10.9988 15.2991C11.0587 13.7004 11.4266 11.7725 12.1064 9.76302C13.2548 6.72965 14.8482 4.29584 16.3065 3.13354C14.9773 4.33393 13.1784 8.21947 12.6399 9.65835C12.0369 11.2696 11.6096 12.7817 11.3521 14.2303C11.7964 12.8722 13.233 12.2884 13.233 12.2884C13.233 12.2884 13.9376 11.4194 14.761 10.178C14.2678 10.2904 13.4579 10.483 13.1866 10.597C12.7864 10.7649 12.6786 10.8222 12.6786 10.8222C12.6786 10.8222 13.9748 10.0328 15.0869 9.67537C16.6163 7.26653 18.2826 3.84446 16.6046 2.34758Z" fill="#3F5981"/>
<defs>
<linearGradient id="paint0_linear_3790_484" x1="9.43526" y1="3.29467" x2="9.43526" y2="13.5784" gradientUnits="userSpaceOnUse">
<stop stop-color="#97D9F6"/>
<stop offset="0.920245" stop-color="#0F80CC"/>
<stop offset="1" stop-color="#0F80CC"/>
</linearGradient>
</defs>
</svg>
