<svg width="20" height="20" viewBox="0 0 20 20" fill="none" xmlns="http://www.w3.org/2000/svg">
  <path d="M 3.555 1.186 L 7.213 1.186 L 7.213 4.562 L 11.29 4.562 L 11.29 7.796 L 7.213 7.796 L 7.213 13.448 C 7.213 14.912 7.971 15.389 9.04 15.389 L 11.29 15.389 L 11.29 18.622 L 9.04 18.622 C 5.301 18.622 3.555 16.996 3.555 13.448 L 3.555 1.186 Z" fill="#ff5f02"/>
  <path d="M 12.727 17.106 C 12.727 16.039 13.572 15.194 14.669 15.194 C 15.766 15.194 16.609 16.039 16.609 17.106 C 16.609 18.18 15.737 19.048 14.669 19.048 C 13.6 19.048 12.727 18.18 12.727 17.106 Z" fill="#ff5f02"/>
</svg>