<svg width="20" height="20" viewBox="0 0 20 20" fill="none" xmlns="http://www.w3.org/2000/svg">
<path d="M10.257 2H10.9008C11.9562 2.0513 12.9466 2.28902 13.8718 2.71314C19.1003 5.11086 19.1301 12.0937 15.2683 15.7912C13.8519 17.1469 12.151 17.8832 10.1654 18H9.52168C7.56424 17.8883 5.87661 17.2003 4.45879 15.936C2.94941 14.5895 2.12982 12.8366 2 10.6773V10.0381C2.05183 9.04356 2.25988 8.11835 2.62414 7.26248C3.21849 5.86463 4.12068 4.70298 5.3307 3.77752C6.76887 2.67733 8.41096 2.08483 10.257 2ZM15.9033 5.77676C12.8197 1.66705 5.9127 2.49752 3.61231 7.05143C2.05377 10.1364 3.38052 13.7539 5.98608 15.667C7.79602 16.9966 10.1182 17.2785 12.2093 16.5196C13.787 15.9467 15.0503 14.9476 15.9992 13.5223C17.5941 11.1261 17.6421 8.09371 15.9033 5.77676Z" fill="#1488C9"/>
<path d="M9.40396 15.955C5.99407 15.5954 2.58635 12.1348 3.94726 8.3207C4.64987 6.35041 6.4569 4.91879 8.35258 4.38089C9.88327 3.94609 11.3561 4.02609 12.771 4.62089C15.9477 5.95575 17.3013 9.71498 15.479 12.8548C15.2073 13.3236 14.9135 13.7229 14.5976 14.0525C13.1759 15.5362 11.4447 16.1703 9.40396 15.955ZM5.26384 8.71155C4.12745 11.8689 6.52084 14.8799 9.52821 15.0575C11.219 15.158 13.1089 14.4464 14.1123 12.9668C15.2334 11.3135 15.4761 9.20222 14.5119 7.42013C13.9146 6.31689 12.8204 5.46584 11.6666 5.11613C8.976 4.30165 6.20187 6.10355 5.26384 8.71155Z" fill="#1488C9"/>
<path d="M12.1141 6.72065C14.2765 7.89399 14.6608 10.6734 13.0318 12.5309C11.3665 14.4319 8.6403 14.2208 6.95097 12.5142C6.60414 12.1642 6.33821 11.7612 6.15317 11.305C5.55809 9.83456 6.06743 8.32827 7.21036 7.34008C8.57272 6.16294 10.5193 5.85513 12.1141 6.72065ZM7.52134 7.95646C7.51117 7.95748 7.50342 7.96281 7.49809 7.97246C7.43028 8.09589 7.35326 8.21729 7.26704 8.33665C7.26461 8.34021 7.26268 8.34402 7.26122 8.34808C7.25832 8.35824 7.25783 8.36865 7.25977 8.37932C7.26164 8.38869 7.26036 8.39839 7.25614 8.40675C7.13068 8.65665 7.02654 8.91672 6.9437 9.18694C6.88751 9.3698 6.86644 9.56764 6.88049 9.78046C6.88146 9.79469 6.87686 9.80713 6.86668 9.8178L6.84125 9.84446C6.82188 9.86529 6.82188 9.88611 6.84125 9.90694C6.89308 9.96332 6.89599 10.0255 6.84997 10.0936C6.84319 10.1043 6.84271 10.1154 6.84852 10.1271L6.86378 10.1568C6.87444 10.1777 6.87904 10.2 6.87758 10.2239C6.85724 10.5246 6.90083 10.8337 7.00837 11.1511C7.05633 11.2939 7.10476 11.4252 7.15369 11.545C7.16435 11.5709 7.1796 11.5925 7.19946 11.6098C7.21932 11.6266 7.22974 11.6489 7.23071 11.6768C7.23216 11.7053 7.24257 11.7292 7.26195 11.7485L7.40146 11.8833C7.42075 11.9016 7.43378 11.9262 7.43851 11.9534C7.44965 12.0179 7.49228 12.0776 7.56639 12.1325C7.57553 12.1391 7.58246 12.1486 7.58624 12.1597C7.59001 12.1707 7.59044 12.1828 7.58746 12.1942C7.58117 12.2186 7.5865 12.2396 7.60345 12.2574C7.61094 12.2657 7.62044 12.2717 7.63093 12.2748C7.64142 12.2779 7.65252 12.2779 7.66303 12.2749C7.69936 12.2643 7.7214 12.2785 7.72915 12.3176C7.73254 12.3364 7.74344 12.3473 7.76185 12.3504C7.81319 12.359 7.83257 12.3905 7.81997 12.4448C7.81736 12.4559 7.81855 12.4675 7.82334 12.4777C7.82813 12.4879 7.8362 12.4959 7.84613 12.5005C7.85969 12.5066 7.8735 12.5076 7.88755 12.5035C7.8985 12.5003 7.91013 12.5011 7.92045 12.5056C7.93078 12.5102 7.93918 12.5183 7.94422 12.5287C7.98491 12.6089 8.04352 12.6521 8.12006 12.6582C8.13071 12.6589 8.14112 12.6621 8.15055 12.6677C8.15997 12.6732 8.16817 12.6809 8.17455 12.6902C8.18811 12.71 8.1915 12.7321 8.18472 12.7565C8.17939 12.7763 8.18521 12.7913 8.20216 12.8014C8.22008 12.8121 8.23897 12.8141 8.25883 12.8075C8.28015 12.8009 8.29516 12.808 8.30388 12.8288C8.32278 12.8725 8.35547 12.8913 8.40197 12.8852C8.41352 12.8837 8.42522 12.8858 8.43549 12.8914C8.44576 12.897 8.4541 12.9057 8.45937 12.9165C8.47972 12.9596 8.51242 12.9741 8.55746 12.9599C8.57248 12.9548 8.58314 12.9599 8.58943 12.9751C8.60978 13.0254 8.64562 13.0457 8.69697 13.0361C8.71344 13.0335 8.72603 13.0394 8.73475 13.0536C8.77302 13.1135 8.82969 13.1323 8.90478 13.11C8.92609 13.1034 8.94038 13.111 8.94764 13.1328C8.97332 13.206 9.0283 13.2372 9.11258 13.2266C9.14213 13.2225 9.17071 13.2268 9.19832 13.2395C9.2642 13.2695 9.3354 13.2771 9.41194 13.2624C9.44052 13.2568 9.46038 13.268 9.47152 13.2959C9.47636 13.3091 9.4846 13.3193 9.49622 13.3264C9.51172 13.3365 9.52892 13.3416 9.54781 13.3416C9.84668 13.3441 10.14 13.3431 10.4277 13.3386C10.4839 13.3375 10.5398 13.3236 10.5956 13.2967C10.6222 13.284 10.65 13.2807 10.6791 13.2867C10.7387 13.2994 10.7794 13.2784 10.8012 13.2235C10.8099 13.2012 10.8256 13.19 10.8484 13.19H11.0155C11.0281 13.19 11.0405 13.1872 11.0519 13.1816C11.0633 13.1761 11.0735 13.168 11.0816 13.158C11.1199 13.1118 11.1708 13.0965 11.2342 13.1123C11.2691 13.1214 11.2943 13.109 11.3098 13.0749C11.3456 12.9957 11.4084 12.9553 11.498 12.9538C11.5227 12.9533 11.5445 12.9447 11.5634 12.9279L11.6651 12.8365C11.6883 12.8156 11.7152 12.8057 11.7458 12.8067C11.7675 12.8073 11.7826 12.7963 11.7908 12.774C11.8005 12.7466 11.8194 12.7328 11.8475 12.7328H11.8765C11.9027 12.7323 11.9216 12.7201 11.9332 12.6963C11.9516 12.6572 11.98 12.6247 12.0182 12.5988C12.0391 12.5845 12.0582 12.5683 12.0756 12.55L12.5603 12.0441C12.5753 12.0283 12.5833 12.009 12.5842 11.9862C12.5857 11.9501 12.598 11.9201 12.6213 11.8963C12.6993 11.816 12.7562 11.7218 12.792 11.6136C12.8138 11.5471 12.8453 11.4841 12.8865 11.4247C12.932 11.3586 12.9587 11.2855 12.9664 11.2052C12.9688 11.1753 12.9802 11.1499 13.0006 11.129C13.0345 11.094 13.0459 11.0513 13.0347 11.001C13.0279 10.969 13.0357 10.9414 13.058 10.918L13.082 10.8928C13.0989 10.8751 13.1074 10.854 13.1074 10.8296V10.5896C13.1074 10.5713 13.1137 10.5556 13.1263 10.5424L13.1546 10.5119C13.1716 10.4941 13.18 10.473 13.18 10.4487V9.54123C13.18 9.51532 13.1728 9.4917 13.1582 9.47037C13.1432 9.44802 13.1374 9.42338 13.1408 9.39646C13.1524 9.30656 13.1299 9.20827 13.119 9.11456C13.118 9.10846 13.1156 9.10313 13.1117 9.09856C13.1074 9.09297 13.1013 9.08992 13.0936 9.08942C13.08 9.0884 13.0723 9.08104 13.0703 9.06732L13.0449 8.89742C13.0405 8.86948 13.0253 8.85221 12.9991 8.84561C12.9701 8.8385 12.9582 8.81945 12.9635 8.78846C12.9651 8.77888 12.9644 8.76905 12.9615 8.75988C12.9586 8.7507 12.9535 8.74246 12.9468 8.73589C12.9105 8.69983 12.8913 8.65716 12.8894 8.60789C12.8884 8.58453 12.8812 8.5637 12.8676 8.54542C12.8012 8.45653 12.748 8.3618 12.7078 8.26123C12.7044 8.25274 12.6989 8.24514 12.6918 8.23913C12.6768 8.22643 12.6695 8.21069 12.67 8.19189C12.67 8.16751 12.6615 8.14669 12.6445 8.12942C12.5414 8.02224 12.4467 7.90846 12.3604 7.78808C12.2989 7.70123 12.2219 7.6291 12.1294 7.5717C12.1052 7.55646 12.0899 7.53386 12.0836 7.50389C12.0783 7.47596 12.0635 7.45462 12.0393 7.43989C11.9686 7.39672 11.9039 7.34415 11.8453 7.28218C11.8327 7.26897 11.8174 7.2644 11.7995 7.26846C11.7897 7.27078 11.7794 7.27015 11.7699 7.26664C11.7604 7.26314 11.752 7.25691 11.7458 7.24865L11.6622 7.14199C11.6481 7.1237 11.63 7.11456 11.6077 7.11456H11.5721C11.5532 7.11456 11.5399 7.10542 11.5321 7.08713C11.5152 7.04802 11.4864 7.03253 11.4457 7.04065C11.4181 7.04573 11.3955 7.03684 11.3781 7.01399C11.3563 6.98453 11.3292 6.96827 11.2967 6.96523C11.2754 6.96319 11.2565 6.95507 11.24 6.94084C11.1955 6.90173 11.1412 6.88345 11.0773 6.88599C11.0594 6.8865 11.0429 6.88091 11.0279 6.86923C10.962 6.81742 10.8826 6.79862 10.7896 6.81284C10.7571 6.81792 10.7331 6.80573 10.7176 6.77627C10.7065 6.75443 10.689 6.743 10.6653 6.74199L10.3805 6.73056C10.3766 6.73005 10.3735 6.72827 10.371 6.72523C10.3672 6.71913 10.3647 6.71253 10.3638 6.70542C10.3614 6.6917 10.3536 6.68408 10.3405 6.68256C10.1506 6.65615 9.96003 6.64929 9.76869 6.66199C9.75077 6.663 9.73527 6.67011 9.72219 6.68332L9.69821 6.70923C9.68271 6.72548 9.66382 6.73361 9.64154 6.73361H9.42937C9.40515 6.73361 9.38336 6.74123 9.36398 6.75646C9.30101 6.80624 9.22641 6.82351 9.14019 6.80827C9.11355 6.80319 9.09127 6.81107 9.07334 6.83189C9.02733 6.88319 8.96872 6.90097 8.89751 6.88523C8.88882 6.88333 8.87978 6.88373 8.87117 6.88638C8.86256 6.88904 8.85464 6.89387 8.8481 6.90046C8.80402 6.94465 8.74832 6.98072 8.68098 7.00865C8.61898 7.03456 8.56425 7.06224 8.51678 7.0917C8.4509 7.13234 8.38308 7.16053 8.31333 7.17627C8.29434 7.18054 8.27654 7.18936 8.26129 7.20204C8.24605 7.21472 8.23377 7.23093 8.22541 7.24942C8.19925 7.30681 8.15881 7.33856 8.10407 7.34465C8.06968 7.34821 8.04037 7.36294 8.01615 7.38884C7.86454 7.54884 7.71026 7.70961 7.55331 7.87113C7.53394 7.89145 7.52691 7.91481 7.53224 7.94123C7.5337 7.95037 7.53006 7.95545 7.52134 7.95646Z" fill="#1488C9"/>
<path d="M7.53218 7.94118C7.52685 7.91477 7.53388 7.89141 7.55325 7.87109C7.7102 7.70957 7.86448 7.5488 8.01609 7.3888C8.04031 7.3629 8.06962 7.34817 8.10401 7.34461C8.15875 7.33852 8.19919 7.30677 8.22535 7.24937C8.23371 7.23089 8.24598 7.21468 8.26123 7.202C8.27648 7.18931 8.29428 7.1805 8.31327 7.17623C8.38302 7.16049 8.45084 7.1323 8.51671 7.09166C8.56418 7.0622 8.61892 7.03452 8.68092 7.00861C8.74825 6.98068 8.80396 6.94461 8.84804 6.90042C8.85458 6.89383 8.8625 6.889 8.87111 6.88634C8.87972 6.88369 8.88876 6.88329 8.89745 6.88518C8.96865 6.90093 9.02727 6.88315 9.07328 6.83185C9.09121 6.81103 9.11349 6.80315 9.14013 6.80823C9.22635 6.82347 9.30095 6.8062 9.36392 6.75642C9.3833 6.74118 9.40509 6.73357 9.42931 6.73357H9.64148C9.66376 6.73357 9.68265 6.72544 9.69815 6.70918L9.72213 6.68328C9.73521 6.67007 9.75071 6.66296 9.76863 6.66195C9.95997 6.64925 10.1506 6.6561 10.3405 6.68252C10.3535 6.68404 10.3613 6.69166 10.3637 6.70537C10.3647 6.71249 10.3671 6.71909 10.371 6.72518C10.3734 6.72823 10.3765 6.73001 10.3804 6.73052L10.6652 6.74195C10.689 6.74296 10.7064 6.75439 10.7176 6.77623C10.7331 6.80569 10.757 6.81788 10.7895 6.8128C10.8825 6.79858 10.9619 6.81737 11.0278 6.86918C11.0428 6.88087 11.0593 6.88645 11.0772 6.88595C11.1412 6.88341 11.1954 6.90169 11.24 6.9408C11.2564 6.95503 11.2753 6.96315 11.2967 6.96518C11.3291 6.96823 11.3562 6.98449 11.378 7.01395C11.3955 7.0368 11.418 7.04569 11.4456 7.04061C11.4863 7.03249 11.5151 7.04798 11.5321 7.08709C11.5398 7.10537 11.5531 7.11452 11.572 7.11452H11.6076C11.6299 7.11452 11.6481 7.12366 11.6621 7.14195L11.7457 7.24861C11.752 7.25687 11.7604 7.2631 11.7699 7.2666C11.7794 7.2701 11.7896 7.27074 11.7995 7.26842C11.8174 7.26436 11.8326 7.26893 11.8452 7.28214C11.9038 7.34411 11.9685 7.39668 12.0392 7.43985C12.0635 7.45458 12.0782 7.47591 12.0836 7.50385C12.0899 7.53382 12.1051 7.55642 12.1293 7.57166C12.2218 7.62906 12.2989 7.70118 12.3604 7.78804C12.4466 7.90842 12.5413 8.0222 12.6445 8.12937C12.6614 8.14664 12.6699 8.16747 12.6699 8.19185C12.6694 8.21064 12.6767 8.22639 12.6917 8.23909C12.6989 8.2451 12.7044 8.2527 12.7077 8.26118C12.7479 8.36176 12.8012 8.45649 12.8675 8.54538C12.8811 8.56366 12.8884 8.58449 12.8893 8.60785C12.8913 8.65712 12.9104 8.69979 12.9467 8.73585C12.9535 8.74241 12.9585 8.75066 12.9614 8.75983C12.9643 8.76901 12.965 8.77884 12.9635 8.78842C12.9581 8.81941 12.97 8.83845 12.9991 8.84557C13.0252 8.85217 13.0405 8.86944 13.0448 8.89737L13.0703 9.06728C13.0722 9.08099 13.08 9.08836 13.0935 9.08938C13.1013 9.08988 13.1073 9.09293 13.1117 9.09852C13.1156 9.10309 13.118 9.10842 13.1189 9.11452C13.1298 9.20823 13.1524 9.30652 13.1407 9.39642C13.1374 9.42334 13.1432 9.44798 13.1582 9.47033C13.1727 9.49166 13.18 9.51528 13.18 9.54118V10.4486C13.18 10.473 13.1715 10.4941 13.1546 10.5119L13.1262 10.5423C13.1136 10.5555 13.1073 10.5713 13.1073 10.5896V10.8296C13.1073 10.8539 13.0988 10.875 13.0819 10.8928L13.0579 10.9179C13.0356 10.9413 13.0279 10.969 13.0347 11.001C13.0458 11.0513 13.0344 11.0939 13.0005 11.129C12.9802 11.1498 12.9688 11.1752 12.9664 11.2052C12.9586 11.2854 12.932 11.3586 12.8864 11.4246C12.8453 11.484 12.8138 11.547 12.792 11.6136C12.7561 11.7218 12.6992 11.816 12.6212 11.8962C12.598 11.9201 12.5856 11.9501 12.5842 11.9861C12.5832 12.009 12.5752 12.0283 12.5602 12.044L12.0756 12.5499C12.0581 12.5682 12.039 12.5845 12.0182 12.5987C11.9799 12.6246 11.9516 12.6571 11.9331 12.6962C11.9215 12.7201 11.9026 12.7323 11.8765 12.7328H11.8474C11.8193 12.7328 11.8004 12.7465 11.7907 12.7739C11.7825 12.7963 11.7675 12.8072 11.7457 12.8067C11.7152 12.8057 11.6883 12.8156 11.665 12.8364L11.5633 12.9279C11.5444 12.9446 11.5226 12.9532 11.4979 12.9538C11.4083 12.9553 11.3456 12.9957 11.3097 13.0749C11.2942 13.1089 11.269 13.1214 11.2342 13.1122C11.1707 13.0965 11.1199 13.1117 11.0816 13.1579C11.0734 13.168 11.0632 13.1761 11.0518 13.1816C11.0404 13.1871 11.028 13.19 11.0155 13.1899H10.8483C10.8256 13.1899 10.8098 13.2011 10.8011 13.2235C10.7793 13.2783 10.7386 13.2994 10.6791 13.2867C10.65 13.2806 10.6221 13.2839 10.5955 13.2966C10.5398 13.3235 10.4838 13.3375 10.4277 13.3385C10.1399 13.3431 9.84662 13.3441 9.54775 13.3416C9.52886 13.3416 9.51166 13.3365 9.49616 13.3263C9.48453 13.3192 9.4763 13.3091 9.47146 13.2959C9.46031 13.2679 9.44045 13.2567 9.41188 13.2623C9.33534 13.2771 9.26413 13.2694 9.19826 13.2395C9.17065 13.2268 9.14207 13.2225 9.11252 13.2265C9.02823 13.2372 8.97326 13.2059 8.94758 13.1328C8.94032 13.111 8.92603 13.1033 8.90471 13.1099C8.82963 13.1323 8.77296 13.1135 8.73469 13.0536C8.72597 13.0393 8.71338 13.0335 8.69691 13.036C8.64556 13.0457 8.60972 13.0254 8.58937 12.9751C8.58308 12.9599 8.57242 12.9548 8.5574 12.9599C8.51235 12.9741 8.47966 12.9596 8.45931 12.9164C8.45404 12.9057 8.4457 12.897 8.43543 12.8914C8.42516 12.8858 8.41346 12.8836 8.40191 12.8852C8.35541 12.8913 8.32271 12.8725 8.30382 12.8288C8.2951 12.808 8.28009 12.8009 8.25877 12.8075C8.23891 12.8141 8.22002 12.812 8.2021 12.8014C8.18515 12.7912 8.17933 12.7762 8.18466 12.7564C8.19144 12.732 8.18805 12.7099 8.17449 12.6901C8.16811 12.6808 8.15991 12.6731 8.15048 12.6676C8.14106 12.6621 8.13065 12.6588 8.11999 12.6581C8.04346 12.652 7.98485 12.6089 7.94416 12.5286C7.93911 12.5183 7.93072 12.5102 7.92039 12.5056C7.91007 12.501 7.89844 12.5003 7.88748 12.5035C7.87344 12.5075 7.85963 12.5065 7.84607 12.5004C7.83614 12.4959 7.82806 12.4878 7.82327 12.4776C7.81849 12.4675 7.81729 12.4558 7.81991 12.4448C7.83251 12.3905 7.81313 12.359 7.76178 12.3503C7.74338 12.3473 7.73248 12.3364 7.72909 12.3176C7.72134 12.2785 7.6993 12.2642 7.66297 12.2749C7.65245 12.2779 7.64136 12.2778 7.63087 12.2748C7.62038 12.2717 7.61088 12.2657 7.60339 12.2574C7.58643 12.2396 7.58111 12.2185 7.5874 12.1941C7.59038 12.1827 7.58995 12.1707 7.58618 12.1596C7.5824 12.1486 7.57547 12.1391 7.56633 12.1324C7.49222 12.0776 7.44959 12.0179 7.43845 11.9534C7.43372 11.9262 7.42069 11.9015 7.40139 11.8833L7.26189 11.7484C7.24251 11.7291 7.2321 11.7052 7.23065 11.6768C7.22968 11.6489 7.21926 11.6265 7.1994 11.6098C7.17954 11.5925 7.16428 11.5709 7.15363 11.545C7.1047 11.4251 7.05626 11.2938 7.00831 11.1511C6.90077 10.8336 6.85718 10.5245 6.87752 10.2239C6.87897 10.2 6.87437 10.1776 6.86372 10.1568L6.84846 10.1271C6.84265 10.1154 6.84313 10.1042 6.84991 10.0936C6.89593 10.0255 6.89302 9.96328 6.84119 9.9069C6.82182 9.88607 6.82182 9.86525 6.84119 9.84442L6.86662 9.81776C6.8768 9.80709 6.8814 9.79464 6.88043 9.78042C6.86638 9.5676 6.88745 9.36976 6.94364 9.1869C7.02647 8.91668 7.13062 8.65661 7.25608 8.40671C7.26029 8.39835 7.26158 8.38865 7.25971 8.37928C7.25777 8.36861 7.25826 8.3582 7.26116 8.34804C7.26262 8.34398 7.26455 8.34017 7.26697 8.33661C7.3532 8.21725 7.43022 8.09585 7.49803 7.97242C7.50336 7.96277 7.51111 7.95744 7.52128 7.95642C7.53 7.95541 7.53363 7.95033 7.53218 7.94118ZM8.52471 8.01204C7.61501 8.6269 7.01049 9.73776 7.36071 10.8768C7.74217 12.1157 9.0602 12.8334 10.2445 12.6825C11.5248 12.5195 12.6692 11.5016 12.8348 10.124C12.9274 9.3535 12.7082 8.69852 12.1773 8.15909C11.1978 7.16404 9.59861 7.28747 8.52471 8.01204Z" fill="#1488C9"/>
<path d="M11.714 9.4088C11.7709 9.5783 11.7871 9.76098 11.7616 9.9464C11.7361 10.1318 11.6695 10.3164 11.5655 10.4895C11.4614 10.6626 11.3221 10.8209 11.1554 10.9554C10.9887 11.0899 10.7978 11.1979 10.5938 11.2732C10.3898 11.3486 10.1765 11.3898 9.96626 11.3945C9.75598 11.3993 9.55277 11.3674 9.36825 11.3009C9.18373 11.2343 9.02151 11.1343 8.89084 11.0065C8.76017 10.8787 8.66362 10.7257 8.6067 10.5562C8.54977 10.3868 8.53359 10.2041 8.55908 10.0186C8.58457 9.83322 8.65123 9.64868 8.75525 9.47555C8.85927 9.30243 8.99862 9.14411 9.16534 9.00964C9.33205 8.87517 9.52287 8.76718 9.7269 8.69184C9.93093 8.61649 10.1442 8.57527 10.3545 8.57053C10.5647 8.56579 10.7679 8.59761 10.9525 8.66419C11.137 8.73076 11.2992 8.83079 11.4299 8.95855C11.5606 9.08631 11.6571 9.23931 11.714 9.4088ZM9.80095 10.4913C9.91329 10.5711 10.0565 10.5926 10.1991 10.5512C10.3417 10.5097 10.4721 10.4087 10.5614 10.2703C10.6056 10.2018 10.6385 10.1261 10.6581 10.0477C10.6777 9.96932 10.6836 9.88965 10.6756 9.81327C10.6675 9.7369 10.6456 9.66532 10.6112 9.60261C10.5767 9.5399 10.5303 9.4873 10.4747 9.44781C10.3624 9.36806 10.2192 9.34654 10.0765 9.388C9.93393 9.42945 9.80362 9.53048 9.71427 9.66886C9.67003 9.73738 9.63718 9.813 9.61759 9.89142C9.598 9.96983 9.59207 10.0495 9.60011 10.1259C9.60816 10.2022 9.63004 10.2738 9.6645 10.3365C9.69896 10.3992 9.74533 10.4518 9.80095 10.4913Z" fill="#1488C9"/>
</svg>
