<svg width="16" height="16" viewBox="0 0 16 16" fill="none" xmlns="http://www.w3.org/2000/svg">
<path fill-rule="evenodd" clip-rule="evenodd" d="M2 0C0.895431 0 0 0.895431 0 2V14C0 15.1046 0.895431 16 2 16H14C15.1046 16 16 15.1046 16 14V2C16 0.895431 15.1046 0 14 0H2ZM8.16655 3.23188C8.58997 3.23188 8.93322 2.88366 8.93322 2.45411C8.93322 2.02455 8.58997 1.67633 8.16655 1.67633C7.74313 1.67633 7.39988 2.02455 7.39988 2.45411C7.39988 2.88366 7.74313 3.23188 8.16655 3.23188ZM8.46671 3.87628C9.11422 3.7363 9.59988 3.15274 9.59988 2.45411C9.59988 1.65103 8.95816 1 8.16655 1C7.37494 1 6.73322 1.65103 6.73322 2.45411C6.73322 3.12867 7.18599 3.69596 7.80005 3.86024V4.17892H4.46684C4.09865 4.17892 3.80017 4.48173 3.80017 4.85525V5.39615H1.66667C1.29848 5.39615 1 5.69895 1 6.07248V7.28987C1 7.66339 1.29848 7.9662 1.66667 7.9662H3.80017V8.16898H1.66667C1.29848 8.16898 1 8.47178 1 8.8453V10.0627C1 10.4362 1.29848 10.739 1.66667 10.739H3.80017V11.1451C3.80017 11.5186 4.09865 11.8214 4.46684 11.8214H7.80005V12.1397C7.18599 12.304 6.73322 12.8713 6.73322 13.5458C6.73322 14.3489 7.37494 14.9999 8.16655 14.9999C8.95816 14.9999 9.59988 14.3489 9.59988 13.5458C9.59988 12.8472 9.11422 12.2636 8.46671 12.1237V11.8214H11.8002C12.1684 11.8214 12.4668 11.5186 12.4668 11.1451V9.25114H14.3335C14.7017 9.25114 15.0002 8.94834 15.0002 8.57481V7.35742C15.0002 6.98389 14.7017 6.68109 14.3335 6.68109H12.4668V4.85525C12.4668 4.48173 12.1684 4.17892 11.8002 4.17892H8.46671V3.87628ZM8.16655 14.3236C8.58997 14.3236 8.93322 13.9754 8.93322 13.5458C8.93322 13.1163 8.58997 12.7681 8.16655 12.7681C7.74313 12.7681 7.39988 13.1163 7.39988 13.5458C7.39988 13.9754 7.74313 14.3236 8.16655 14.3236ZM9.66685 7.35742H14.3335V8.57481H9.66685V7.35742ZM9.00018 7.35742C9.00018 6.98389 9.29866 6.68109 9.66685 6.68109H11.8002V4.85525H4.46684V5.39615H6.33333C6.70152 5.39615 7 5.69895 7 6.07248V7.28987C7 7.66339 6.70152 7.9662 6.33333 7.9662H4.46684V8.16898H6.33333C6.70152 8.16898 7 8.47178 7 8.8453V10.0627C7 10.4362 6.70152 10.739 6.33333 10.739H4.46684V11.1451H11.8002V9.25114H9.66685C9.29866 9.25114 9.00018 8.94834 9.00018 8.57481V7.35742ZM6.33333 6.07248H1.66667L1.66667 7.28987H6.33333V6.07248ZM1.66667 8.8453H6.33333V10.0627H1.66667L1.66667 8.8453Z" fill="#F14081"/>
<path fill-rule="evenodd" clip-rule="evenodd" d="M2 0C0.895431 0 0 0.895431 0 2V14C0 15.1046 0.895431 16 2 16H14C15.1046 16 16 15.1046 16 14V2C16 0.895431 15.1046 0 14 0H2ZM8.16655 3.23188C8.58997 3.23188 8.93322 2.88366 8.93322 2.45411C8.93322 2.02455 8.58997 1.67633 8.16655 1.67633C7.74313 1.67633 7.39988 2.02455 7.39988 2.45411C7.39988 2.88366 7.74313 3.23188 8.16655 3.23188ZM8.46671 3.87628C9.11422 3.7363 9.59988 3.15274 9.59988 2.45411C9.59988 1.65103 8.95816 1 8.16655 1C7.37494 1 6.73322 1.65103 6.73322 2.45411C6.73322 3.12867 7.18599 3.69596 7.80005 3.86024V4.17892H4.46684C4.09865 4.17892 3.80017 4.48173 3.80017 4.85525V5.39615H1.66667C1.29848 5.39615 1 5.69895 1 6.07248V7.28987C1 7.66339 1.29848 7.9662 1.66667 7.9662H3.80017V8.16898H1.66667C1.29848 8.16898 1 8.47178 1 8.8453V10.0627C1 10.4362 1.29848 10.739 1.66667 10.739H3.80017V11.1451C3.80017 11.5186 4.09865 11.8214 4.46684 11.8214H7.80005V12.1397C7.18599 12.304 6.73322 12.8713 6.73322 13.5458C6.73322 14.3489 7.37494 14.9999 8.16655 14.9999C8.95816 14.9999 9.59988 14.3489 9.59988 13.5458C9.59988 12.8472 9.11422 12.2636 8.46671 12.1237V11.8214H11.8002C12.1684 11.8214 12.4668 11.5186 12.4668 11.1451V9.25114H14.3335C14.7017 9.25114 15.0002 8.94834 15.0002 8.57481V7.35742C15.0002 6.98389 14.7017 6.68109 14.3335 6.68109H12.4668V4.85525C12.4668 4.48173 12.1684 4.17892 11.8002 4.17892H8.46671V3.87628ZM8.16655 14.3236C8.58997 14.3236 8.93322 13.9754 8.93322 13.5458C8.93322 13.1163 8.58997 12.7681 8.16655 12.7681C7.74313 12.7681 7.39988 13.1163 7.39988 13.5458C7.39988 13.9754 7.74313 14.3236 8.16655 14.3236ZM9.66685 7.35742H14.3335V8.57481H9.66685V7.35742ZM9.00018 7.35742C9.00018 6.98389 9.29866 6.68109 9.66685 6.68109H11.8002V4.85525H4.46684V5.39615H6.33333C6.70152 5.39615 7 5.69895 7 6.07248V7.28987C7 7.66339 6.70152 7.9662 6.33333 7.9662H4.46684V8.16898H6.33333C6.70152 8.16898 7 8.47178 7 8.8453V10.0627C7 10.4362 6.70152 10.739 6.33333 10.739H4.46684V11.1451H11.8002V9.25114H9.66685C9.29866 9.25114 9.00018 8.94834 9.00018 8.57481V7.35742ZM6.33333 6.07248H1.66667L1.66667 7.28987H6.33333V6.07248ZM1.66667 8.8453H6.33333V10.0627H1.66667L1.66667 8.8453Z" fill="url(#paint0_linear_3793_185)"/>
<defs>
<linearGradient id="paint0_linear_3793_185" x1="17.5" y1="2.98955e-07" x2="5.74626e-07" y2="18.5" gradientUnits="userSpaceOnUse">
<stop stop-color="#FF89B4"/>
<stop offset="1" stop-color="#F14081" stop-opacity="0"/>
</linearGradient>
</defs>
</svg>
