<svg width="20" height="20" viewBox="0 0 20 20" fill="none" xmlns="http://www.w3.org/2000/svg">
<path d="M6.59772 5C6.59257 5 6.58745 5.00002 6.58231 5.00004L6.56128 6.73794C6.56609 6.73789 6.5709 6.73785 6.57573 6.73785C7.71962 6.73785 8.60691 7.63977 10.5354 10.8882L10.653 11.0859L10.6607 11.0989L11.7402 9.47908L11.7327 9.46657C11.4787 9.05336 11.2346 8.67318 11.0005 8.32604C10.729 7.92381 10.4694 7.56448 10.2175 7.24367C8.94171 5.6193 7.87452 5 6.59772 5Z" fill="url(#paint0_linear_3428_8520)"/>
<path d="M6.58209 5.00004C5.2991 5.00665 4.16485 5.83628 3.34581 7.10579C3.34341 7.1095 3.34101 7.11323 3.33862 7.11696L4.84205 7.93525C4.84449 7.93155 4.84693 7.92785 4.84938 7.92416C5.32765 7.20407 5.92284 6.74478 6.56105 6.73794C6.56587 6.73789 6.57068 6.73785 6.5755 6.73785L6.5975 5C6.59235 5 6.58723 5.00002 6.58209 5.00004Z" fill="url(#paint1_linear_3428_8520)"/>
<path d="M3.34591 7.10669C3.34352 7.1104 3.34112 7.11412 3.33872 7.11786C2.80053 7.95564 2.39932 8.98371 2.1825 10.0928C2.18156 10.0976 2.18062 10.1024 2.17969 10.1072L3.86872 10.5057C3.86961 10.5009 3.8705 10.4961 3.87138 10.4913C4.05193 9.51659 4.39564 8.61259 4.84214 7.93615C4.84457 7.93245 4.84703 7.92875 4.84948 7.92506L3.34591 7.10669Z" fill="url(#paint2_linear_3428_8520)"/>
<path d="M3.87136 10.492L2.18246 10.0935C2.18152 10.0983 2.18059 10.1031 2.17966 10.1079C2.06142 10.7179 2.00127 11.3377 2.00001 11.959C2 11.964 2 11.969 2 11.974L3.73218 12.129C3.73204 12.124 3.73189 12.119 3.73178 12.1139C3.73092 12.0779 3.73049 12.0414 3.73048 12.0044C3.73134 11.5019 3.7776 11.0006 3.86869 10.5064C3.86957 10.5016 3.87046 10.4968 3.87136 10.492Z" fill="url(#paint3_linear_3428_8520)"/>
<path d="M3.78485 12.667C3.75378 12.4884 3.73618 12.3078 3.73218 12.1266C3.73204 12.1215 3.73189 12.1166 3.73178 12.1115L2.00001 11.9565C2 11.9616 2 11.9666 2 11.9716C2 12.3583 2.03225 12.7213 2.09492 13.0558C2.09582 13.0606 2.09671 13.0654 2.09763 13.0702L3.78748 12.6815C3.78659 12.6767 3.78572 12.6718 3.78485 12.667Z" fill="url(#paint4_linear_3428_8520)"/>
<path d="M4.17955 13.5657C3.99106 13.36 3.85767 13.0632 3.78753 12.6837C3.78664 12.6789 3.78579 12.674 3.78492 12.6692L2.09497 13.058C2.09588 13.0628 2.09677 13.0675 2.09769 13.0724C2.22542 13.743 2.47593 14.3019 2.83467 14.7248C2.83786 14.7285 2.84106 14.7323 2.84427 14.736L4.18963 13.5765C4.18626 13.573 4.18288 13.5693 4.17955 13.5657Z" fill="url(#paint5_linear_3428_8520)"/>
<path d="M9.1862 8.75708C8.16784 10.3191 7.55092 11.2988 7.55092 11.2988C6.19437 13.4253 5.72507 13.9019 4.96981 13.9019C4.65465 13.9019 4.39137 13.7897 4.18967 13.5752C4.18631 13.5716 4.18293 13.568 4.1796 13.5644L2.83472 14.7234C2.83791 14.7272 2.84111 14.7309 2.84432 14.7347C3.33966 15.3121 4.03885 15.6325 4.90382 15.6325C6.21246 15.6325 7.15364 15.0155 8.82681 12.0907C8.82681 12.0907 9.52429 10.859 10.0041 10.0106C9.70689 9.53072 9.43641 9.11529 9.1862 8.75708Z" fill="#0082FB"/>
<path d="M11.0014 6.29297C10.998 6.29662 10.9945 6.30034 10.991 6.304C10.7236 6.58892 10.467 6.90711 10.2173 7.2447C10.4692 7.56552 10.7293 7.92555 11.0008 8.32777C11.3208 7.83392 11.6194 7.43396 11.9122 7.12739C11.9157 7.12376 11.919 7.12023 11.9225 7.11661L11.0014 6.29297Z" fill="url(#paint6_linear_3428_8520)"/>
<path d="M15.9454 6.13849C15.2351 5.421 14.3884 5 13.4831 5C12.5285 5 11.7256 5.5231 11.0013 6.29161C10.9979 6.29525 10.9944 6.29897 10.991 6.30263L11.9121 7.12602C11.9156 7.1224 11.919 7.11886 11.9224 7.11526C12.3995 6.61899 12.8613 6.37121 13.3731 6.37121C13.9241 6.37121 14.4398 6.63055 14.8864 7.08519C14.8898 7.08876 14.8933 7.09229 14.8968 7.09587L15.9559 6.14917C15.9524 6.14559 15.9489 6.14206 15.9454 6.13849Z" fill="#0082FB"/>
<path d="M17.9983 11.7283C17.9586 9.42461 17.1524 7.36509 15.9558 6.14886C15.9522 6.14528 15.9487 6.14175 15.9451 6.13818L14.8862 7.08488C14.8897 7.08845 14.8932 7.09198 14.8967 7.09556C15.7969 8.02025 16.4144 9.7402 16.4705 11.7278C16.4706 11.7328 16.4707 11.7379 16.4709 11.7429L17.9985 11.7433C17.9985 11.7383 17.9984 11.7333 17.9983 11.7283Z" fill="url(#paint7_linear_3428_8520)"/>
<path d="M17.9988 11.7448C17.9988 11.7397 17.9987 11.7347 17.9986 11.7297L16.4708 11.7292C16.4709 11.7343 16.471 11.7393 16.4712 11.7443C16.4736 11.8375 16.4749 11.9314 16.4749 12.0258C16.4749 12.5678 16.394 13.0058 16.2293 13.3221C16.2269 13.3268 16.2244 13.3315 16.2219 13.3361L17.361 14.5208C17.3638 14.5165 17.3666 14.5123 17.3694 14.5079C17.7829 13.8699 18 12.9834 18 11.9085C18 11.8538 17.9996 11.7992 17.9988 11.7448Z" fill="url(#paint8_linear_3428_8520)"/>
<path d="M16.2293 13.3198C16.2269 13.3245 16.2244 13.3292 16.2219 13.3339C16.0795 13.6004 15.8761 13.7783 15.6104 13.856L16.1296 15.4926C16.1983 15.4692 16.2653 15.443 16.3304 15.4139C16.3499 15.4053 16.3692 15.3964 16.3884 15.3872C16.3994 15.3819 16.4104 15.3765 16.4213 15.3711C16.7646 15.2 17.0548 14.9475 17.2895 14.6223C17.3039 14.6025 17.318 14.5824 17.3319 14.5621C17.3417 14.5477 17.3515 14.5332 17.361 14.5186C17.3638 14.5143 17.3666 14.51 17.3694 14.5057L16.2293 13.3198Z" fill="url(#paint9_linear_3428_8520)"/>
<path d="M15.2794 13.9002C15.1053 13.9002 14.9516 13.8743 14.8013 13.8071L14.2695 15.4826C14.5684 15.5847 14.8872 15.6307 15.2428 15.6307C15.5703 15.6307 15.8709 15.5818 16.1436 15.4872L15.6244 13.8512C15.5125 13.8848 15.3962 13.9013 15.2794 13.9002Z" fill="url(#paint10_linear_3428_8520)"/>
<path d="M14.2156 13.329C14.2123 13.3253 14.209 13.3215 14.2056 13.3176L12.9822 14.5901C12.9857 14.5937 12.9891 14.5974 12.9924 14.601C13.4176 15.054 13.8235 15.3351 14.2839 15.4893L14.8152 13.815C14.6212 13.7317 14.4335 13.5807 14.2156 13.329Z" fill="url(#paint11_linear_3428_8520)"/>
<path d="M14.2057 13.3164C13.8387 12.8897 13.3847 12.1791 12.6707 11.0301L11.7401 9.47809L11.7326 9.46558L10.6528 11.0849L10.6605 11.0979L11.3199 12.2071C11.9591 13.2767 12.4798 14.0504 12.9822 14.5889C12.9857 14.5925 12.9891 14.5962 12.9925 14.5998L14.2155 13.3279C14.2122 13.3241 14.209 13.3203 14.2057 13.3164Z" fill="url(#paint12_linear_3428_8520)"/>
<defs>
<linearGradient id="paint0_linear_3428_8520" x1="11.0226" y1="10.4401" x2="7.4385" y2="5.74367" gradientUnits="userSpaceOnUse">
<stop offset="0.0006" stop-color="#0867DF"/>
<stop offset="0.4539" stop-color="#0668E1"/>
<stop offset="0.8591" stop-color="#0064E0"/>
</linearGradient>
<linearGradient id="paint1_linear_3428_8520" x1="4.04481" y1="7.39781" x2="6.50196" y2="5.53236" gradientUnits="userSpaceOnUse">
<stop offset="0.1323" stop-color="#0064DF"/>
<stop offset="0.9988" stop-color="#0064E0"/>
</linearGradient>
<linearGradient id="paint2_linear_3428_8520" x1="3.00342" y1="10.1362" x2="3.98908" y2="7.65499" gradientUnits="userSpaceOnUse">
<stop offset="0.0147" stop-color="#0072EC"/>
<stop offset="0.6881" stop-color="#0064DF"/>
</linearGradient>
<linearGradient id="paint3_linear_3428_8520" x1="2.86954" y1="11.9293" x2="2.98359" y2="10.414" gradientUnits="userSpaceOnUse">
<stop offset="0.0731" stop-color="#007CF6"/>
<stop offset="0.9943" stop-color="#0072EC"/>
</linearGradient>
<linearGradient id="paint4_linear_3428_8520" x1="2.93226" y1="12.75" x2="2.85068" y2="12.1429" gradientUnits="userSpaceOnUse">
<stop offset="0.0731" stop-color="#007FF9"/>
<stop offset="1" stop-color="#007CF6"/>
</linearGradient>
<linearGradient id="paint5_linear_3428_8520" x1="2.88443" y1="12.9117" x2="3.39283" y2="13.99" gradientUnits="userSpaceOnUse">
<stop offset="0.0731" stop-color="#007FF9"/>
<stop offset="1" stop-color="#0082FB"/>
</linearGradient>
<linearGradient id="paint6_linear_3428_8520" x1="10.6987" y1="7.69411" x2="11.3708" y2="6.76452" gradientUnits="userSpaceOnUse">
<stop offset="0.2799" stop-color="#007FF8"/>
<stop offset="0.9141" stop-color="#0082FB"/>
</linearGradient>
<linearGradient id="paint7_linear_3428_8520" x1="15.8086" y1="6.48765" x2="17.2147" y2="11.6601" gradientUnits="userSpaceOnUse">
<stop stop-color="#0082FB"/>
<stop offset="0.9995" stop-color="#0081FA"/>
</linearGradient>
<linearGradient id="paint8_linear_3428_8520" x1="17.5545" y1="11.8594" x2="16.6646" y2="13.6576" gradientUnits="userSpaceOnUse">
<stop offset="0.0619" stop-color="#0081FA"/>
<stop offset="1" stop-color="#0080F9"/>
</linearGradient>
<linearGradient id="paint9_linear_3428_8520" x1="15.9573" y1="14.6087" x2="16.7892" y2="14.0421" gradientUnits="userSpaceOnUse">
<stop stop-color="#027AF3"/>
<stop offset="1" stop-color="#0080F9"/>
</linearGradient>
<linearGradient id="paint10_linear_3428_8520" x1="14.6525" y1="14.7189" x2="15.8083" y2="14.7189" gradientUnits="userSpaceOnUse">
<stop stop-color="#0377EF"/>
<stop offset="0.9994" stop-color="#0279F1"/>
</linearGradient>
<linearGradient id="paint11_linear_3428_8520" x1="13.6476" y1="14.0842" x2="14.4786" y2="14.5731" gradientUnits="userSpaceOnUse">
<stop offset="0.0019" stop-color="#0471E9"/>
<stop offset="1" stop-color="#0377EF"/>
</linearGradient>
<linearGradient id="paint12_linear_3428_8520" x1="11.1127" y1="10.478" x2="13.7747" y2="13.825" gradientUnits="userSpaceOnUse">
<stop offset="0.2765" stop-color="#0867DF"/>
<stop offset="1" stop-color="#0471E9"/>
</linearGradient>
</defs>
</svg>
