<svg width="20" height="20" viewBox="0 0 20 20" fill="none" xmlns="http://www.w3.org/2000/svg">
<path d="M14.9372 6.34594L13.6767 7.64955C15.7394 9.78273 15.7394 13.2195 13.6767 15.3132C11.6139 17.4464 8.29059 17.4464 6.26603 15.3132C4.20327 13.18 4.20327 9.74323 6.26603 7.64955L9.53206 4.27201L9.99045 3.79797V1.25L5.06276 6.34594C2.31241 9.19018 2.31241 13.7726 5.06276 16.6168C7.8131 19.4611 12.2442 19.4611 14.9372 16.6168C17.6876 13.7528 17.6876 9.19018 14.9372 6.34594Z" fill="#EE4C2C"/>
<path d="M13.39 5.08187C13.39 5.60549 12.9795 6.02995 12.4732 6.02995C11.9668 6.02995 11.5564 5.60549 11.5564 5.08187C11.5564 4.55825 11.9668 4.13379 12.4732 4.13379C12.9795 4.13379 13.39 4.55825 13.39 5.08187Z" fill="#EE4C2C"/>
</svg>
