<?xml version="1.0" encoding="UTF-8"?>
<svg xmlns="http://www.w3.org/2000/svg" xmlns:xlink="http://www.w3.org/1999/xlink" width="24px" height="24px" viewBox="0 0 24 24" version="1.1">
<g id="surface1">
<path style=" stroke:none;fill-rule:evenodd;fill:rgb(98.823529%,73.725492%,1.568628%);fill-opacity:1;" d="M 11.3125 2.855469 C 10.441406 3.316406 9.871094 3.644531 9.695312 3.78125 C 9.582031 3.871094 9.449219 3.941406 9.394531 3.941406 C 9.34375 3.941406 9.035156 4.117188 8.714844 4.328125 C 8.390625 4.539062 8.085938 4.714844 8.035156 4.714844 C 7.988281 4.714844 7.75 4.84375 7.507812 5.003906 C 7.269531 5.160156 6.898438 5.378906 6.6875 5.484375 C 6.472656 5.589844 6.242188 5.726562 6.171875 5.785156 C 6.101562 5.84375 5.773438 6.035156 5.441406 6.210938 C 4.792969 6.554688 4.546875 6.792969 4.542969 7.089844 C 4.542969 7.296875 4.710938 7.714844 4.796875 7.714844 C 4.824219 7.714844 5.019531 7.867188 5.230469 8.058594 C 5.4375 8.246094 5.628906 8.398438 5.652344 8.402344 C 5.679688 8.402344 5.882812 8.566406 6.105469 8.765625 C 6.328125 8.964844 6.703125 9.28125 6.941406 9.472656 C 7.175781 9.660156 7.652344 10.054688 7.992188 10.347656 C 8.605469 10.878906 8.949219 11.070312 8.585938 10.6875 C 8.476562 10.570312 8.398438 10.378906 8.398438 10.222656 C 8.398438 9.910156 8.773438 9.558594 9.472656 9.207031 C 9.707031 9.089844 10.074219 8.882812 10.285156 8.746094 C 10.496094 8.613281 10.84375 8.40625 11.058594 8.292969 C 12.355469 7.585938 12.667969 7.40625 12.898438 7.238281 C 13.042969 7.132812 13.386719 6.925781 13.671875 6.773438 C 14.761719 6.199219 15.066406 6.027344 15.445312 5.769531 C 15.664062 5.621094 15.925781 5.476562 16.027344 5.445312 C 16.171875 5.398438 16.203125 5.328125 16.183594 5.117188 C 16.167969 4.953125 16.089844 4.8125 15.984375 4.757812 C 15.890625 4.710938 15.585938 4.523438 15.308594 4.34375 C 15.03125 4.164062 14.703125 3.976562 14.582031 3.929688 C 14.457031 3.882812 14.300781 3.792969 14.230469 3.730469 C 14.117188 3.632812 13.59375 3.335938 12.6875 2.855469 C 12.566406 2.792969 12.257812 2.742188 12 2.742188 C 11.742188 2.742188 11.433594 2.792969 11.3125 2.855469 "/>
<path style=" stroke:none;fill-rule:evenodd;fill:rgb(20.392157%,48.627451%,54.901963%);fill-opacity:1;" d="M 16.734375 5.527344 C 16.582031 5.59375 16.410156 5.757812 16.351562 5.886719 C 16.292969 6.019531 16.222656 6.148438 16.191406 6.171875 C 16.164062 6.195312 15.722656 6.851562 15.214844 7.628906 C 14.707031 8.40625 14.085938 9.355469 13.832031 9.734375 C 13.328125 10.492188 13.230469 10.941406 13.519531 11.183594 C 13.605469 11.253906 13.863281 11.480469 14.101562 11.683594 C 14.335938 11.890625 14.597656 12.082031 14.679688 12.113281 C 14.761719 12.140625 14.828125 12.199219 14.828125 12.238281 C 14.828125 12.277344 15.144531 12.558594 15.53125 12.863281 C 15.917969 13.167969 16.410156 13.5625 16.625 13.742188 C 16.839844 13.917969 17.257812 14.265625 17.554688 14.511719 C 17.851562 14.757812 18.28125 15.121094 18.507812 15.320312 C 18.734375 15.523438 18.941406 15.6875 18.972656 15.6875 C 19 15.6875 19.203125 15.855469 19.421875 16.066406 C 19.863281 16.488281 19.929688 16.769531 19.660156 17.074219 C 19.5 17.253906 19.5 17.253906 19.695312 17.152344 C 19.804688 17.09375 19.988281 16.832031 20.105469 16.566406 L 20.320312 16.082031 L 20.296875 11.917969 C 20.273438 7.953125 20.261719 7.742188 20.101562 7.417969 C 19.917969 7.058594 19.386719 6.648438 18.429688 6.125 C 18.121094 5.957031 17.753906 5.75 17.613281 5.660156 C 17.226562 5.425781 17.042969 5.394531 16.734375 5.527344 M 4.128906 7.054688 C 4.027344 7.164062 3.941406 7.296875 3.941406 7.347656 C 3.941406 7.394531 3.886719 7.546875 3.816406 7.683594 C 3.707031 7.890625 3.6875 8.554688 3.6875 11.988281 C 3.6875 16.730469 3.679688 16.679688 4.417969 17.230469 C 4.65625 17.40625 5.042969 17.648438 5.273438 17.769531 C 5.507812 17.890625 5.910156 18.125 6.167969 18.292969 C 6.75 18.675781 7.1875 18.707031 7.503906 18.390625 C 7.621094 18.273438 7.714844 18.140625 7.714844 18.089844 C 7.714844 18.042969 7.847656 17.824219 8.011719 17.613281 C 8.175781 17.398438 8.367188 17.097656 8.441406 16.945312 C 8.511719 16.796875 8.6875 16.535156 8.828125 16.371094 C 8.96875 16.207031 9.109375 16 9.136719 15.910156 C 9.167969 15.824219 9.339844 15.554688 9.523438 15.3125 C 9.707031 15.070312 9.855469 14.839844 9.855469 14.796875 C 9.855469 14.757812 10.03125 14.492188 10.242188 14.210938 C 10.539062 13.820312 10.628906 13.621094 10.628906 13.382812 C 10.628906 13.050781 10.433594 12.6875 10.257812 12.6875 C 10.199219 12.6875 9.980469 12.511719 9.769531 12.300781 C 9.5625 12.085938 9.359375 11.914062 9.316406 11.914062 C 9.277344 11.914062 9.175781 11.84375 9.097656 11.753906 C 9.019531 11.664062 8.511719 11.234375 7.972656 10.800781 C 7.429688 10.363281 6.953125 9.953125 6.917969 9.890625 C 6.878906 9.824219 6.800781 9.769531 6.742188 9.769531 C 6.683594 9.769531 6.484375 9.617188 6.300781 9.429688 C 6.117188 9.238281 5.929688 9.085938 5.882812 9.085938 C 5.839844 9.085938 5.621094 8.921875 5.398438 8.722656 C 5.175781 8.519531 4.863281 8.246094 4.703125 8.105469 C 4.132812 7.613281 4.054688 7.359375 4.355469 7.007812 C 4.546875 6.78125 4.34375 6.828125 4.128906 7.054688 M 15.34375 13.265625 C 15.34375 13.3125 15.402344 13.398438 15.472656 13.457031 C 15.667969 13.621094 15.632812 14.085938 15.40625 14.28125 C 15.121094 14.527344 14.675781 14.828125 14.59375 14.828125 C 14.554688 14.828125 14.246094 15.003906 13.90625 15.214844 C 13.5625 15.425781 13.253906 15.601562 13.21875 15.601562 C 13.183594 15.601562 12.960938 15.726562 12.726562 15.882812 C 12.492188 16.039062 12.089844 16.273438 11.835938 16.40625 C 11.578125 16.539062 11.269531 16.714844 11.148438 16.796875 C 11.027344 16.882812 10.667969 17.089844 10.355469 17.261719 C 10.039062 17.433594 9.753906 17.613281 9.726562 17.660156 C 9.699219 17.707031 9.613281 17.742188 9.539062 17.742188 C 9.464844 17.742188 9.148438 17.90625 8.839844 18.109375 C 8.527344 18.3125 8.164062 18.523438 8.035156 18.578125 C 7.859375 18.65625 7.800781 18.742188 7.800781 18.925781 C 7.800781 19.191406 7.996094 19.347656 9.171875 20.011719 C 9.476562 20.1875 10.054688 20.519531 10.457031 20.75 C 11.460938 21.335938 11.546875 21.363281 12.128906 21.320312 C 12.632812 21.285156 13.070312 21.082031 14.230469 20.355469 C 14.5 20.183594 15.226562 19.765625 15.898438 19.390625 C 16.042969 19.308594 16.335938 19.136719 16.558594 19.003906 C 16.777344 18.871094 17.144531 18.667969 17.371094 18.546875 C 18.214844 18.109375 19.078125 17.585938 19.265625 17.394531 C 19.613281 17.046875 19.472656 16.523438 18.929688 16.148438 C 18.75 16.023438 18.601562 15.886719 18.601562 15.847656 C 18.601562 15.808594 18.503906 15.726562 18.386719 15.664062 C 18.265625 15.601562 18.007812 15.40625 17.804688 15.230469 C 17.472656 14.933594 17.222656 14.726562 16.195312 13.886719 C 15.996094 13.722656 15.789062 13.546875 15.738281 13.5 C 15.488281 13.273438 15.34375 13.1875 15.34375 13.265625 "/>
</g>
</svg>
