<svg xmlns="http://www.w3.org/2000/svg" width="24" height="24" xmlnsV="https://vecta.io/nano">
<path d="M15.676 14.953l.859 2.977 2.262 2.434a2.06 2.06 0 0 0 .75-.75l2.098-3.637a2.03 2.03 0 0 0 .273-1.023l-3.223-.625zm0 0" fill="rgb(91.764706%,26.274511%,20.784314%)"/><path d="M15.121 3.184c-.305-.176-.656-.273-1.02-.273H9.902c-.363 0-.719.098-1.023.273l.902 3.047 2.211 2.344.008.016 2.227-2.371zm0 0" fill="rgb(9.411765%,50.196081%,21.960784%)"/><path d="M8.324 14.953l-3.219-.738-3.023.738a2.03 2.03 0 0 0 .273 1.023l2.098 3.637a2.09 2.09 0 0 0 .75.75L7.43 18.07zm0 0" fill="rgb(9.803922%,40.392157%,82.352942%)"/><path d="M18.758 8.934l-2.887-5c-.184-.32-.441-.574-.75-.75L12 8.59l3.676 6.363h6.242c0-.352-.09-.703-.273-1.02zm0 0" fill="rgb(98.431373%,73.725492%,1.568628%)"/><path d="M15.676 14.953H8.324l-3.121 5.41c.305.176.656.273 1.023.273h11.547a2.07 2.07 0 0 0 1.023-.273zm0 0" fill="rgb(25.882354%,52.156866%,95.686275%)"/><path d="M12 8.59L8.879 3.184a2.05 2.05 0 0 0-.75.746L2.355 13.934c-.184.316-.273.668-.273 1.02h6.242zm0 0" fill="rgb(20.392157%,65.882355%,32.549021%)"/>
</svg>
