<svg width="20" height="20" viewBox="0 0 20 20" fill="none" xmlns="http://www.w3.org/2000/svg">
<path d="M10.0001 9.01932C11.6623 9.01932 13.0098 7.67186 13.0098 6.00966C13.0098 4.34749 11.6623 3 10.0001 3C8.33793 3 6.99048 4.34749 6.99048 6.00966C6.99048 7.67186 8.33793 9.01932 10.0001 9.01932Z" fill="url(#paint0_linear_3790_544)"/>
<path d="M10.0737 10.4909L14.1046 14.521L17.8525 10.763L17.9334 10.6819C17.9334 10.6819 17.9339 10.6811 17.9341 10.6806C17.9758 10.6237 18.0002 10.5571 18.0002 10.4866C18.0002 10.41 17.972 10.3385 17.9241 10.2792C17.8985 10.2541 17.8724 10.23 17.8465 10.2067C15.6665 8.2004 12.2861 8.26041 10.1779 10.3862L10.0737 10.4909Z" fill="#597093" fill-opacity="0.8"/>
<path d="M10.0741 10.4906L5.97514 14.59L2.15037 10.7652L2.06803 10.6834L2.06728 10.6821C2.02485 10.6247 2 10.5574 2 10.4861C2 10.4085 2.02862 10.3364 2.07757 10.2765C2.10368 10.2511 2.13004 10.2268 2.15665 10.2031C4.37705 8.17679 7.8205 8.23756 9.9681 10.3847L10.0741 10.4906Z" fill="#597093"/>
<path d="M14.1045 14.5206L14.0244 14.6007C11.798 16.8271 8.18809 16.8271 5.96167 14.6007L10.0741 10.4902L14.1045 14.5206Z" fill="#597093"/>
<defs>
<linearGradient id="paint0_linear_3790_544" x1="7.30777" y1="7.73908" x2="12.6155" y2="4.70607" gradientUnits="userSpaceOnUse">
<stop stop-color="#597093"/>
<stop offset="1" stop-color="#597093" stop-opacity="0.53"/>
</linearGradient>
</defs>
</svg>
