<svg width="20" height="20" viewBox="0 0 20 20" fill="none" xmlns="http://www.w3.org/2000/svg">
<path fill-rule="evenodd" clip-rule="evenodd" d="M10.2272 16.5051C10.2064 16.0389 10.4992 16.2624 10.6486 16.1789C11.1254 15.9072 11.4438 15.1211 12.0416 15.0771C12.2672 14.626 12.6395 14.6114 13.0411 14.2977C13.2155 14.165 13.288 13.8627 13.4443 13.7289L15.4144 12.0334C15.4861 11.9707 15.5648 11.916 15.6491 11.8706C15.8507 11.757 15.999 11.4988 16.2336 11.4506C16.487 11.3956 17.0875 11.8524 17.6379 12.4938C18.0779 13.3167 17.6512 13.4914 17.3616 13.8031C16.8731 14.333 16.039 14.8733 15.4496 15.2306C15 15.509 14.5552 15.8165 14.0683 15.999C13.5696 16.1841 13.1195 16.4356 12.608 16.5388C12.2347 16.6119 11.7963 16.5061 11.4315 16.5388C11.0301 16.5737 10.6259 16.5624 10.2272 16.5051ZM2.00004 16.7488C2.03204 16.2064 2.55364 16.2536 2.84964 16.042C3.78991 15.3674 4.60057 14.151 5.75791 13.6703C6.32857 12.9382 7.04377 12.6582 7.92111 11.9831C8.30031 11.6927 8.56644 11.2483 8.92217 10.9642C10.4619 9.72959 11.9451 8.61841 13.5302 7.42634C13.6918 7.30396 13.8747 7.18367 14.0678 7.06493C14.5126 6.79115 14.9611 6.34211 15.424 6.14715C15.9307 5.933 16.6912 6.29182 17.224 6.94774C17.4534 7.90648 16.631 8.32545 15.9547 8.88545C14.8187 9.82915 13.112 10.9657 11.9238 11.756C11.0134 12.3626 10.1131 13.0139 9.18351 13.5345C8.22937 14.0686 7.34937 14.6643 6.39737 15.1227C5.70244 15.4561 4.92644 15.6205 4.24377 15.916C3.51222 16.2336 2.76316 16.5116 2.00004 16.7488ZM2.15471 11.2006C2.03257 10.7246 2.45657 10.7858 2.63257 10.6116C3.19151 10.063 3.55044 9.027 4.36804 8.69308C4.66831 8.08641 5.17977 7.89871 5.75631 7.39315C6.00377 7.17226 6.14617 6.80826 6.38404 6.59359C7.41871 5.67582 8.46937 4.90167 9.62777 4.11922C9.75541 4.03621 9.88869 3.96172 10.0267 3.89626C10.3563 3.73396 10.688 3.42234 11.0406 3.34404C11.4304 3.26056 12.0304 3.76248 12.4603 4.48426C12.6742 5.4093 12.079 5.58819 11.607 5.94545C10.8123 6.54174 9.63737 7.23656 8.83791 7.753C8.22244 8.14448 7.63951 8.59974 7.01551 8.94145C6.37551 9.29404 5.81871 9.72959 5.18084 10.0449C4.71791 10.2771 4.15311 10.3611 3.69284 10.5784C3.20217 10.8102 2.69391 11.0191 2.15471 11.2006Z" fill="#2174EA"/>
</svg>
