<svg xmlns="http://www.w3.org/2000/svg" viewBox="0 0 412.38 204" width="412.38" height="204">
<defs><style>.cls-1{fill:url(#linear-gradient);}.cls-1,.cls-2{fill-rule:evenodd;}.cls-2{fill:#fff;}</style>
<linearGradient id="linear-gradient" x1="206.19" y1="0" x2="206.19" y2="204" gradientUnits="userSpaceOnUse">
<stop offset="0" stop-color="#00b1eb"></stop>
<stop offset=".212" stop-color="#009ad9"></stop>
<stop offset=".519" stop-color="#007fc4"></stop>
<stop offset=".792" stop-color="#006eb8"></stop>
<stop offset="1" stop-color="#0069b4"></stop></linearGradient></defs>
<polyline class="cls-1" points="0 204 208.413 204 412.38 0 0 0 0 204"/>
<path class="cls-2" d="m244.727,38.359l-40.593-.025v96.518l-35.46-96.518h-35.16l-30.277,80.716c-3.224-20.352-24.277-27.38-40.84-32.649-10.937-3.512-22.541-8.678-22.434-14.387.091-4.687,6.225-9.04,18.377-8.385,8.17.433,15.373,1.092,29.71,8.006l14.102-24.557c-13.088-6.658-31.169-10.867-45.985-10.883h-.086c-17.277,0-31.677,5.598-40.602,14.824-6.221,6.443-9.572,14.626-9.712,23.679-.227,12.454,4.341,21.292,13.938,28.338,8.104,5.944,18.468,9.794,27.603,12.626,11.27,3.492,20.467,6.526,20.36,13.002-.083,2.355-.977,4.552-2.671,6.337-2.807,2.897-7.124,3.986-13.084,4.098-11.497.243-20.026-1.559-33.61-9.585l-12.536,24.903c13.546,7.705,29.586,12.223,45.952,12.223l2.106-.024c14.247-.256,25.745-4.316,34.929-11.712.527-.416,1.001-.845,1.488-1.277l-4.073,10.874h36.875l6.189-18.822c6.477,2.214,13.847,3.437,21.676,3.437,7.618,0,14.795-1.17,21.156-3.252l5.965,18.637h60.137v-38.969h13.113c31.706,0,50.456-16.147,50.456-43.202,0-30.139-18.219-43.969-57.011-43.969Zm-93.816,82.587c-4.737,0-9.177-.828-13.006-2.275l12.866-40.593h.244l12.643,40.708c-3.801,1.349-8.138,2.16-12.746,2.16Zm96.199-23.324h-8.941v-32.711h8.941c11.927,0,21.437,3.961,21.437,16.139,0,12.602-9.51,16.572-21.437,16.572"/>
</svg>