<svg xmlns="http://www.w3.org/2000/svg" width="24" height="24">
<path d="M17.957 17.461c.156-1.27.109-1.457 1.086-1.25l.246.02c.754.035 1.734-.117 2.313-.375 1.242-.559 1.977-1.492.754-1.246-2.793.559-2.988-.359-2.988-.359 2.953-4.246 4.184-9.633 3.121-10.949-2.902-3.598-7.93-1.898-8.016-1.855l-.027.008c-.551-.113-1.168-.18-1.863-.191-1.266-.02-2.223.324-2.953.859 0 0-8.965-3.582-8.547 4.504.086 1.719 2.543 13.016 5.469 9.602 1.07-1.246 2.105-2.301 2.105-2.301a2.76 2.76 0 0 0 1.773.438l.047-.039c-.016.152-.008.305.02.484-.754.816-.531.961-2.039 1.262-1.523.305-.629.848-.043.988.707.172 2.352.418 3.457-1.09l-.043.172c.297.23.277 1.652.316 2.664s.113 1.961.328 2.52.465 1.996 2.445 1.586c1.656-.348 2.922-.84 3.039-5.449" fill="rgb(0%,0%,0%)" stroke="rgb(0%,0%,0%)" stroke-width="2.046"/><path d="M22.355 14.609c-2.793.559-2.988-.359-2.988-.359 2.953-4.246 4.184-9.633 3.121-10.949-2.902-3.598-7.93-1.898-8.016-1.855l-.027.008c-.551-.113-1.168-.18-1.863-.191-1.266-.02-2.223.324-2.953.859 0 0-8.965-3.582-8.547 4.504.086 1.719 2.543 13.016 5.469 9.602 1.07-1.246 2.105-2.301 2.105-2.301.512.332 1.125.5 1.77.438l.051-.039c-.016.152-.008.305.02.484-.754.816-.531.961-2.039 1.262-1.523.305-.629.848-.043.988.707.172 2.352.418 3.457-1.09l-.043.172c.297.23.504 1.492.469 2.641s-.059 1.93.176 2.543.465 1.996 2.445 1.586c1.656-.348 2.516-1.238 2.633-2.727.086-1.055.277-.898.289-1.844l.152-.449c.18-1.434.031-1.895 1.051-1.68l.246.02c.754.035 1.734-.117 2.313-.375 1.242-.559 1.977-1.492.754-1.246zm0 0" fill="rgb(20%,40.392157%,56.862748%)"/><g fill="none" stroke="rgb(100%,100%,100%)" stroke-width=".682" stroke-linecap="round"><path d="M11.992 15.43c-.078 2.668.02 5.352.289 6.004s.844 1.922 2.828 1.512c1.656-.344 2.258-1.012 2.52-2.48l.609-4.699M9.617 2.059S.645-1.496 1.063 6.59c.086 1.723 2.543 13.016 5.469 9.605 1.07-1.25 2.039-2.227 2.039-2.227M14.465 1.41c-.313.098 4.992-1.879 8.004 1.855 1.063 1.316-.168 6.707-3.121 10.949" stroke-linejoin="round" /><path d="M19.348 14.215s.195.918 2.988.359c1.223-.246.488.688-.754 1.246-1.02.461-3.305.578-3.344-.055-.094-1.637 1.203-1.141 1.109-1.551-.082-.367-.664-.73-1.047-1.633-.336-.789-4.602-6.832 1.18-5.934.215-.043-1.508-5.332-6.918-5.418S7.328 7.68 7.328 7.68" stroke-linejoin="bevel"/><path d="M10.477 14.777c-.754.816-.531.957-2.039 1.258-1.523.305-.629.848-.043.992.707.172 2.348.414 3.457-1.09.34-.461 0-1.191-.465-1.379-.223-.09-.523-.199-.91.219zm-.047-.015c-.078-.48.16-1.051.418-1.723.383-1 1.27-2.004.563-5.188-.531-2.371-4.078-.492-4.082-.172s.16 1.629-.059 3.152c-.285 1.988 1.305 3.672 3.137 3.5" stroke-linejoin="round" /></g><g fill="rgb(100%,100%,100%)" stroke="rgb(100%,100%,100%)"><path d="M9.586 7.633c-.02.109.207.402.496.441s.539-.191.555-.301-.207-.23-.496-.27-.539.02-.555.129zm0 0" stroke-width=".227"/><path d="M18.442 7.406c.016.113-.207.406-.5.445s-.539-.191-.555-.301.207-.23.5-.27.539.016.555.125zm0 0" stroke-width=".114"/></g><path d="M19.481 6.648c.051.859-.191 1.449-.219 2.363-.047 1.336.652 2.859-.402 4.387" fill="none" stroke="rgb(100%,100%,100%)" stroke-width=".682" stroke-linejoin="round" stroke-linecap="round"/>
</svg>