<svg width="16" height="16" viewBox="0 0 16 16" fill="none" xmlns="http://www.w3.org/2000/svg">
<g clip-path="url(#clip0_3802_289)">
<path fill-rule="evenodd" clip-rule="evenodd" d="M12.2624 14.7457C10.8664 14.7457 9.964 14.0802 9.524 13.2098L10.748 12.5008C11.0704 13.0272 11.4888 13.4137 12.2304 13.4137C12.8528 13.4137 13.2504 13.1023 13.2504 12.6727C13.2504 12.0263 12.388 11.7737 11.7792 11.5129C10.6944 11.0513 9.97439 10.4713 9.97439 9.24648C9.97439 8.11928 10.8336 7.26016 12.1768 7.26016C13.132 7.26016 13.82 7.5929 14.3136 8.4625L13.1432 9.21445C12.8856 8.75285 12.6064 8.57031 12.1768 8.57031C11.736 8.57031 11.4568 8.84965 11.4568 9.21445C11.4568 9.66565 11.736 9.84814 12.3808 10.1273C13.732 10.7065 14.7544 11.1616 14.7544 12.6512C14.7544 14.0048 13.6912 14.7457 12.2624 14.7457ZM8.8 12.4793C8.8 14.0369 7.84079 14.8602 6.50879 14.8602C5.30559 14.8602 4.5848 14.4 4.2304 13.6H4.21841H4.21279H4.20959L5.43279 12.7449C5.66879 13.1633 5.8816 13.4602 6.3968 13.4602C6.8912 13.4602 7.2 13.2098 7.2 12.4586V7.2H8.8V12.4793ZM0 16H16V0H0V16Z" fill="#FE9413"/>
</g>
<defs>
<clipPath id="clip0_3802_289">
<rect width="16" height="16" fill="white"/>
</clipPath>
</defs>
</svg>
