<svg width="20" height="20" viewBox="0 0 20 20" fill="none" xmlns="http://www.w3.org/2000/svg">
<path fill-rule="evenodd" clip-rule="evenodd" d="M8.49925 5.41781C9.07643 4.79422 9.8786 4.40625 10.7669 4.40625C11.9486 4.40625 12.9777 5.09078 13.5275 6.10437C14.0049 5.88297 14.5332 5.75906 15.0869 5.75906C17.2175 5.75906 18.9432 7.56687 18.9432 9.79922C18.9432 12.0316 17.2156 13.8394 15.0869 13.8394C14.8266 13.8394 14.5723 13.813 14.3277 13.7602C13.8445 14.6539 12.9229 15.2592 11.8664 15.2592C11.4243 15.2592 11.0056 15.1536 10.6338 14.9647C10.1447 16.1611 9.00208 17 7.6736 17C6.34512 17 5.1086 16.09 4.65469 14.8144C4.45708 14.857 4.25164 14.8814 4.04034 14.8814C2.39099 14.8814 1.05469 13.4798 1.05469 11.7492C1.05469 10.5894 1.65534 9.57781 2.54751 9.03547C2.3636 8.59672 2.26186 8.11125 2.26186 7.60344C2.26186 5.61281 3.8173 4 5.73664 4C6.8636 4 7.86534 4.55656 8.49925 5.41781ZM3.64711 10.7417C3.63754 10.7665 3.64617 10.7751 3.65181 10.7808C3.65309 10.7821 3.65421 10.7832 3.65494 10.7843C3.67427 10.7985 3.69425 10.8106 3.71414 10.8226C3.72847 10.8313 3.74274 10.84 3.75668 10.8493C3.93863 10.9489 4.11081 10.9793 4.29081 10.9793C4.65863 10.9793 4.88559 10.7762 4.88559 10.4512V10.4451C4.88559 10.1445 4.62733 10.0348 4.38668 9.95558L4.35537 9.94542C4.17342 9.88448 4.0169 9.83167 4.0169 9.70573V9.69964C4.0169 9.59401 4.10885 9.51479 4.25168 9.51479C4.41016 9.51479 4.59798 9.56964 4.71733 9.6387C4.71733 9.6387 4.75255 9.66308 4.76624 9.62651C4.77407 9.6062 4.83472 9.43558 4.84059 9.41729C4.84842 9.39698 4.83472 9.38276 4.82298 9.37464C4.68407 9.28729 4.49429 9.22839 4.29668 9.22839H4.2595C3.92298 9.22839 3.6882 9.43964 3.6882 9.74026V9.74636C3.6882 10.0653 3.94646 10.1668 4.18907 10.24L4.2282 10.2521L4.23042 10.2529C4.40557 10.3094 4.5569 10.3583 4.5569 10.4857V10.4918C4.5569 10.6096 4.45711 10.697 4.29863 10.697C4.23603 10.697 4.03842 10.697 3.82516 10.5548L3.80659 10.5429C3.79107 10.533 3.77884 10.5251 3.7645 10.5162C3.75472 10.5101 3.72733 10.4979 3.71559 10.5325L3.6432 10.7417H3.64711ZM9.02246 10.7808C9.01683 10.7751 9.0082 10.7665 9.01777 10.7417H9.01385L9.08624 10.5325C9.09798 10.5 9.12929 10.5121 9.13516 10.5162C9.14949 10.5251 9.16173 10.533 9.17725 10.5429L9.19581 10.5548C9.40907 10.697 9.60668 10.697 9.66929 10.697C9.82777 10.697 9.92755 10.6096 9.92755 10.4918V10.4857C9.92755 10.3583 9.77622 10.3094 9.60107 10.2529L9.59885 10.2521L9.55972 10.24C9.31711 10.1668 9.05885 10.0653 9.05885 9.74636V9.74026C9.05885 9.43964 9.29363 9.22839 9.63016 9.22839H9.66733C9.86494 9.22839 10.0547 9.28729 10.1936 9.37464C10.2054 9.38276 10.2191 9.39698 10.2112 9.41729C10.2054 9.43558 10.1447 9.6062 10.1369 9.62651C10.1232 9.66308 10.088 9.6387 10.088 9.6387C9.96863 9.56964 9.78081 9.51479 9.62233 9.51479C9.4795 9.51479 9.38755 9.59401 9.38755 9.69964V9.70573C9.38755 9.83167 9.54407 9.88448 9.72603 9.94542L9.75733 9.95558C9.99994 10.0348 10.2562 10.1445 10.2562 10.4451V10.4512C10.2562 10.7762 10.0293 10.9793 9.66146 10.9793C9.48146 10.9793 9.30929 10.9489 9.12733 10.8493C9.1134 10.84 9.09913 10.8313 9.08481 10.8226L9.08479 10.8226L9.08478 10.8226C9.0649 10.8106 9.04492 10.7985 9.02559 10.7843C9.02487 10.7832 9.02374 10.7821 9.02246 10.7808ZM12.9915 9.76058C12.9621 9.65495 12.9152 9.56151 12.8525 9.48433C12.7899 9.40714 12.7117 9.34417 12.6178 9.29948C12.5239 9.25479 12.4143 9.23042 12.2891 9.23042C12.1639 9.23042 12.0543 9.25276 11.9604 9.29948C11.8665 9.34417 11.7882 9.40714 11.7256 9.48433C11.663 9.56151 11.616 9.65495 11.5867 9.76058C11.5573 9.8662 11.5417 9.97995 11.5417 10.1018C11.5417 10.2237 11.5573 10.3395 11.5867 10.4431C11.616 10.5487 11.663 10.6421 11.7256 10.7193C11.7882 10.7965 11.8684 10.8595 11.9604 10.9042C12.0543 10.9489 12.1639 10.9712 12.2891 10.9712C12.4143 10.9712 12.5239 10.9489 12.6178 10.9042C12.7117 10.8595 12.7899 10.7985 12.8525 10.7193C12.9152 10.6421 12.9621 10.5487 12.9915 10.4431C13.0208 10.3375 13.0365 10.2237 13.0365 10.1018C13.0365 9.97995 13.0208 9.86417 12.9915 9.76058ZM12.6843 10.1018C12.6843 10.2867 12.651 10.4309 12.5865 10.5345C12.5219 10.636 12.4241 10.6848 12.2891 10.6848C12.1541 10.6848 12.0562 10.636 11.9917 10.5345C11.9271 10.4309 11.8939 10.2867 11.8939 10.1018C11.8939 9.91698 11.9271 9.77276 11.9897 9.6712C12.0543 9.56964 12.1502 9.52089 12.2871 9.52089C12.4241 9.52089 12.5199 9.56964 12.5845 9.6712C12.6491 9.77276 12.6823 9.91698 12.6823 10.1018H12.6843ZM15.4684 10.6178C15.4684 10.6178 15.4978 10.6056 15.5075 10.636L15.5095 10.6401L15.5839 10.8554C15.5936 10.8839 15.5721 10.894 15.5721 10.894C15.4547 10.9428 15.2943 10.9753 15.1378 10.9753C14.8717 10.9753 14.6682 10.896 14.5332 10.7396C14.3982 10.5832 14.3297 10.37 14.3297 10.1059C14.3297 9.98198 14.3473 9.86823 14.3806 9.76261C14.4139 9.65698 14.4628 9.56354 14.5293 9.48636C14.5958 9.40917 14.678 9.3462 14.7758 9.30151C14.8756 9.25479 14.9891 9.23245 15.1182 9.23245C15.2043 9.23245 15.2806 9.23854 15.3471 9.2487C15.4175 9.25886 15.5115 9.28526 15.5506 9.30151C15.5584 9.30354 15.578 9.3137 15.5702 9.33808C15.5435 9.41545 15.525 9.46777 15.5013 9.53442L15.4939 9.55542C15.4821 9.58792 15.4586 9.57776 15.4586 9.57776C15.3569 9.54323 15.261 9.52901 15.1339 9.52901C14.9812 9.52901 14.8678 9.57979 14.7934 9.68339C14.7191 9.78698 14.676 9.92104 14.676 10.1018C14.6741 10.2989 14.723 10.4451 14.8071 10.5365C14.8912 10.6259 15.0086 10.6726 15.1573 10.6726C15.218 10.6726 15.2747 10.6685 15.3256 10.6604C15.3765 10.6523 15.4234 10.636 15.4684 10.6178ZM17.0747 9.70167C17.0493 9.60011 16.9847 9.49651 16.9417 9.44979C16.8752 9.37464 16.8106 9.32386 16.7441 9.29339C16.6599 9.25479 16.5582 9.23042 16.4467 9.23042C16.3175 9.23042 16.2002 9.25276 16.1043 9.29948C16.0084 9.3462 15.9282 9.40917 15.8656 9.48839C15.803 9.56761 15.756 9.66104 15.7247 9.7687C15.6954 9.87433 15.6797 9.99011 15.6797 10.112C15.6797 10.2339 15.6954 10.3517 15.7267 10.4553C15.758 10.5609 15.8089 10.6523 15.8773 10.7295C15.9458 10.8067 16.0339 10.8676 16.1375 10.9082C16.2412 10.9509 16.3684 10.9712 16.5132 10.9712C16.8125 10.9712 16.971 10.9001 17.0356 10.8635C17.0473 10.8575 17.0571 10.8453 17.0454 10.8128L16.9769 10.6157C16.9671 10.5873 16.9378 10.5975 16.9378 10.5975L16.9178 10.6052C16.8442 10.6343 16.7366 10.6767 16.5112 10.6767C16.3508 10.6767 16.2315 10.6279 16.1571 10.5507C16.0808 10.4715 16.0436 10.3557 16.0358 10.1932H17.0728C17.0728 10.1932 17.1002 10.1932 17.1021 10.1668C17.1021 10.1655 17.1025 10.1619 17.1032 10.1561C17.1085 10.1089 17.1301 9.91925 17.0708 9.7037L17.0747 9.70167ZM16.0436 9.92714C16.0573 9.82558 16.0847 9.74026 16.1278 9.67323C16.1904 9.57167 16.2882 9.51683 16.4252 9.51683C16.5621 9.51683 16.6502 9.57167 16.7147 9.67323C16.7578 9.74026 16.7754 9.82761 16.7832 9.92714H16.0436ZM8.6382 9.44979C8.68124 9.49651 8.74581 9.60011 8.77124 9.70167L8.76537 9.7037C8.82469 9.91925 8.80311 10.1089 8.79774 10.1561L8.79774 10.1562C8.79709 10.1619 8.79668 10.1655 8.79668 10.1668C8.79472 10.1932 8.76733 10.1932 8.76733 10.1932H7.73037C7.7382 10.3557 7.77537 10.4715 7.85168 10.5507C7.92603 10.6279 8.04537 10.6767 8.20581 10.6767C8.43112 10.6767 8.53876 10.6343 8.61237 10.6052L8.63233 10.5975C8.63233 10.5975 8.66168 10.5873 8.67146 10.6157L8.73994 10.8128C8.75363 10.8453 8.74385 10.8575 8.73211 10.8635C8.66755 10.9001 8.50907 10.9712 8.20972 10.9712C8.06494 10.9712 7.93776 10.9509 7.83407 10.9082C7.73037 10.8676 7.64233 10.8067 7.57385 10.7295C7.50537 10.6523 7.4545 10.5609 7.4232 10.4553C7.3919 10.3517 7.37624 10.2339 7.37624 10.112C7.37624 9.99011 7.3919 9.87433 7.42124 9.7687C7.45255 9.66104 7.4995 9.56761 7.56211 9.48839C7.62472 9.40917 7.70494 9.3462 7.80081 9.29948C7.89668 9.25276 8.01407 9.23042 8.1432 9.23042C8.25472 9.23042 8.35646 9.25479 8.44059 9.29339C8.50711 9.32386 8.57168 9.37464 8.6382 9.44979ZM7.82429 9.67323C7.78124 9.74026 7.75385 9.82558 7.74016 9.92714H7.74211H8.48168C8.47385 9.82761 8.45624 9.74026 8.4132 9.67323C8.34668 9.57167 8.25863 9.51683 8.12168 9.51683C7.98472 9.51683 7.88885 9.57167 7.82429 9.67323ZM5.91081 9.87433C5.86776 9.87026 5.81494 9.87026 5.74842 9.87026C5.66037 9.87026 5.57429 9.88245 5.49211 9.90479C5.4119 9.92714 5.33755 9.96167 5.27494 10.0084C5.21233 10.0551 5.16146 10.114 5.12429 10.1851C5.08711 10.2562 5.0695 10.3395 5.0695 10.4329C5.0695 10.5264 5.08516 10.6117 5.11646 10.6787C5.14777 10.7457 5.19276 10.8026 5.25146 10.8473C5.3082 10.89 5.38059 10.9225 5.46276 10.9428C5.54494 10.961 5.6369 10.9712 5.73668 10.9712C5.84233 10.9712 5.94994 10.961 6.05168 10.9448C6.15342 10.9265 6.27863 10.9001 6.3119 10.892C6.34711 10.8839 6.38429 10.8737 6.38429 10.8737C6.40972 10.8676 6.40776 10.8392 6.40776 10.8392V9.85401C6.40776 9.6387 6.35103 9.47823 6.24146 9.3787C6.1319 9.27917 5.97342 9.23042 5.76603 9.23042C5.68777 9.23042 5.56255 9.24058 5.4882 9.25683C5.4882 9.25683 5.26124 9.30151 5.16929 9.3787C5.16929 9.3787 5.14972 9.39089 5.1595 9.42136L5.23385 9.62651C5.24363 9.65292 5.26711 9.64479 5.26711 9.64479C5.26711 9.64479 5.27494 9.64073 5.28472 9.63667C5.48429 9.52495 5.73668 9.52698 5.73668 9.52698C5.8482 9.52698 5.93429 9.55136 5.99298 9.59604C6.04972 9.64073 6.07907 9.70979 6.07907 9.85198V9.89667C5.99103 9.88245 5.90885 9.87636 5.90885 9.87636L5.91081 9.87433ZM5.49798 10.63C5.4569 10.5954 5.45103 10.5873 5.43733 10.567C5.41777 10.5345 5.40603 10.4878 5.40603 10.4268C5.40603 10.3314 5.43537 10.2643 5.49798 10.2176C5.49798 10.2176 5.58798 10.1364 5.79929 10.1404C5.94798 10.1404 6.08103 10.1648 6.08103 10.1648V10.6543C6.08103 10.6543 5.94994 10.6828 5.80124 10.6929C5.58994 10.7051 5.49603 10.63 5.49798 10.63ZM14.2573 9.2812C14.2652 9.28323 14.2808 9.29542 14.273 9.31979L14.2691 9.32183L14.2653 9.33273L14.2653 9.33282C14.25 9.37723 14.2068 9.50312 14.1908 9.54729C14.1849 9.56558 14.1732 9.57776 14.1536 9.57573C14.1536 9.57573 14.0949 9.56151 14.0402 9.56151C14.003 9.56151 13.9502 9.56558 13.9012 9.58183C13.8543 9.59604 13.8112 9.62245 13.7741 9.66105C13.7369 9.69964 13.7056 9.75245 13.6841 9.81948C13.6606 9.88651 13.6489 9.99417 13.6489 10.1018V10.9042C13.6489 10.9225 13.6352 10.9367 13.6175 10.9367H13.3456C13.328 10.9367 13.3143 10.9225 13.3143 10.9042V9.29745C13.3143 9.27917 13.326 9.26495 13.3436 9.26495H13.6097C13.6273 9.26495 13.6391 9.27917 13.6391 9.29745V9.42948C13.6802 9.37464 13.7506 9.32589 13.8152 9.29542C13.8797 9.26495 13.9521 9.24261 14.0832 9.25073C14.1517 9.25479 14.2397 9.27511 14.2573 9.2812ZM11.7158 8.57636C11.6825 8.5662 11.6532 8.55808 11.6141 8.55198C11.5749 8.54386 11.526 8.53979 11.4732 8.53979C11.2854 8.53979 11.1386 8.59464 11.0349 8.70433C10.9312 8.81198 10.8608 8.97651 10.8275 9.19183L10.8158 9.26495H10.581C10.581 9.26495 10.5517 9.26495 10.5458 9.29542L10.5067 9.51886C10.5047 9.5412 10.5125 9.55339 10.5399 9.55339H10.7689L10.536 10.9001C10.5184 11.0078 10.4969 11.0971 10.4734 11.1662C10.4499 11.2332 10.4284 11.282 10.401 11.3185C10.3736 11.3531 10.3502 11.3795 10.3071 11.3937C10.2719 11.4059 10.2308 11.412 10.1858 11.412C10.1604 11.412 10.1271 11.4079 10.1017 11.4018C10.0798 11.3983 10.0681 11.3934 10.0528 11.3869L10.0449 11.3835C10.0449 11.3835 10.0175 11.3734 10.0078 11.4018L9.9979 11.4296L9.99783 11.4298C9.97777 11.4862 9.93619 11.6032 9.93146 11.6212C9.92363 11.6415 9.93537 11.6598 9.94711 11.6639C9.97842 11.676 9.99994 11.6821 10.041 11.6923C10.0978 11.7065 10.1467 11.7065 10.1936 11.7065C10.2895 11.7065 10.3756 11.6923 10.448 11.6659C10.5204 11.6395 10.583 11.5907 10.6397 11.5278C10.7004 11.4587 10.7375 11.3856 10.7747 11.286C10.8099 11.1885 10.8412 11.0667 10.8667 10.9245L11.0995 9.55136H11.4419C11.4419 9.55136 11.4712 9.55136 11.4771 9.52089L11.5162 9.29745C11.5182 9.27511 11.5104 9.26292 11.483 9.26292H11.1523C11.1523 9.26292 11.1699 9.13495 11.2071 9.01917C11.2228 8.97042 11.2541 8.93183 11.2795 8.90339C11.3049 8.87698 11.3343 8.8587 11.3656 8.84651C11.3989 8.83636 11.436 8.83026 11.4771 8.83026C11.5084 8.83026 11.5397 8.83433 11.5632 8.83839C11.5945 8.84448 11.6082 8.84854 11.616 8.85261C11.6493 8.86276 11.6552 8.85261 11.661 8.83636L11.7412 8.61089C11.7491 8.58651 11.7295 8.57636 11.7217 8.57433L11.7158 8.57636ZM7.05537 10.9367C7.07298 10.9367 7.08472 10.9225 7.08472 10.9042V8.60683C7.08472 8.58854 7.07298 8.57433 7.05537 8.57433H6.7795C6.7619 8.57433 6.75016 8.58854 6.75016 8.60683V10.9042C6.75016 10.9225 6.7619 10.9367 6.7795 10.9367H7.05537Z" fill="#0D9DDA"/>
</svg>
