<?xml version="1.0" encoding="UTF-8"?>
<svg xmlns="http://www.w3.org/2000/svg" xmlns:xlink="http://www.w3.org/1999/xlink" width="24px" height="24px" viewBox="0 0 24 24" version="1.1">
<defs>
<filter id="alpha" filterUnits="objectBoundingBox" x="0%" y="0%" width="100%" height="100%">
  <feColorMatrix type="matrix" in="SourceGraphic" values="0 0 0 0 1 0 0 0 0 1 0 0 0 0 1 0 0 0 1 0"/>
</filter>
<mask id="mask0">
  <g filter="url(#alpha)">
<rect x="0" y="0" width="24" height="24" style="fill:rgb(0%,0%,0%);fill-opacity:0.34902;stroke:none;"/>
  </g>
</mask>
<clipPath id="clip1">
  <rect x="0" y="0" width="24" height="24"/>
</clipPath>
<g id="surface5" clip-path="url(#clip1)">
<path style=" stroke:none;fill-rule:nonzero;fill:rgb(100%,100%,100%);fill-opacity:1;" d="M 12.257812 7.253906 C 10.40625 7.25 8.535156 7.671875 6.503906 8.578125 C 6.417969 8.902344 6.371094 9.242188 6.371094 9.59375 C 6.371094 12.03125 8.574219 14.011719 11.292969 14.011719 C 14.007812 14.011719 16.210938 12.03125 16.210938 9.59375 C 16.210938 8.933594 16.050781 8.3125 15.761719 7.75 C 14.578125 7.429688 13.421875 7.253906 12.257812 7.253906 Z M 12.257812 7.253906 "/>
</g>
<mask id="mask1">
  <g filter="url(#alpha)">
<rect x="0" y="0" width="24" height="24" style="fill:rgb(0%,0%,0%);fill-opacity:0.34902;stroke:none;"/>
  </g>
</mask>
<clipPath id="clip2">
  <rect x="0" y="0" width="24" height="24"/>
</clipPath>
<g id="surface8" clip-path="url(#clip2)">
<path style=" stroke:none;fill-rule:nonzero;fill:rgb(20.784314%,20%,20%);fill-opacity:1;" d="M 0.175781 12.828125 C 3.933594 9.066406 6.9375 7.90625 9.664062 7.375 C 10.023438 7.304688 10.09375 6.515625 10.09375 6.515625 C 10.09375 6.515625 10.140625 7.097656 10.394531 7.171875 C 10.648438 7.25 10.976562 6.265625 10.976562 6.265625 C 10.976562 6.265625 10.671875 7.148438 10.976562 7.199219 C 11.277344 7.25 11.832031 6.339844 11.832031 6.339844 C 11.832031 6.339844 11.605469 7.125 11.757812 7.171875 C 11.910156 7.222656 12.664062 6.039062 12.664062 6.039062 C 12.664062 6.039062 12.210938 6.820312 12.640625 6.894531 C 13.070312 6.972656 13.695312 6.363281 13.695312 6.363281 C 13.695312 6.363281 13.203125 6.917969 13.421875 6.996094 C 14.355469 7.324219 15.113281 6.113281 15.113281 6.113281 C 15.113281 6.113281 14.9375 6.644531 14.484375 7.222656 C 15.46875 7.476562 16.199219 5.996094 16.199219 5.996094 L 15.46875 7.476562 C 15.847656 7.679688 17.359375 5.9375 17.359375 5.9375 C 17.359375 5.9375 16.578125 7.300781 16.125 7.578125 C 16.375 7.78125 17.285156 6.972656 17.285156 6.972656 C 17.285156 6.972656 16.550781 7.878906 16.832031 7.929688 C 17.234375 8.257812 18.722656 6.238281 18.722656 6.238281 C 18.722656 6.238281 18.140625 7.425781 17.285156 8.359375 C 18 8.71875 19.78125 6.417969 19.78125 6.417969 C 19.78125 6.417969 19.730469 7.148438 18.445312 8.308594 C 19.402344 8.183594 20.640625 6.367188 20.640625 6.367188 C 20.640625 6.367188 20.1875 7.730469 19.101562 8.6875 C 20.042969 8.589844 21.550781 6.265625 21.550781 6.265625 C 21.550781 6.265625 20.96875 7.878906 19.78125 8.8125 C 21.09375 9.105469 22.988281 7.148438 22.988281 7.148438 C 22.988281 7.148438 22.242188 8.535156 21.273438 9.105469 C 22.355469 9.519531 23.84375 7.804688 23.84375 7.804688 C 23.84375 7.804688 22.355469 10.101562 19.984375 10 C 19.207031 9.96875 16.851562 7.640625 11.808594 7.828125 C 5.144531 8.082031 3.730469 10.910156 0.175781 12.828125 "/>
</g>
<mask id="mask2">
  <g filter="url(#alpha)">
<rect x="0" y="0" width="24" height="24" style="fill:rgb(0%,0%,0%);fill-opacity:0.34902;stroke:none;"/>
  </g>
</mask>
<clipPath id="clip3">
  <rect x="0" y="0" width="24" height="24"/>
</clipPath>
<g id="surface11" clip-path="url(#clip3)">
<path style=" stroke:none;fill-rule:nonzero;fill:rgb(20.784314%,20%,20%);fill-opacity:1;" d="M 0.0742188 13.238281 C 2.0625 14.234375 3.878906 13.085938 6.171875 13.730469 C 7.910156 14.222656 10.03125 14.828125 12.90625 14.410156 C 15.785156 13.996094 18.246094 12.746094 19.417969 10.511719 C 19.785156 9.515625 21.273438 10.738281 21.273438 10.738281 C 21.273438 10.738281 20.1875 10.285156 20.214844 10.5 C 20.238281 10.714844 21.839844 11.457031 21.839844 11.457031 C 21.839844 11.457031 20.390625 11.003906 20.480469 11.34375 C 20.566406 11.6875 22.296875 13.046875 22.296875 13.046875 C 22.296875 13.046875 20.339844 11.558594 20.175781 11.761719 C 20.011719 11.964844 21.007812 12.785156 21.007812 12.785156 C 21.007812 12.785156 19.355469 11.761719 18.777344 12.0625 C 18.359375 12.28125 20.492188 13.679688 20.492188 13.679688 C 20.492188 13.679688 19.105469 12.621094 18.777344 12.898438 C 18.449219 13.175781 20.339844 15.445312 20.339844 15.445312 C 20.339844 15.445312 18.195312 13.125 17.980469 13.238281 C 17.765625 13.351562 18.574219 14.460938 18.574219 14.460938 C 18.574219 14.460938 17.515625 13.300781 17.222656 13.503906 C 16.933594 13.707031 18.738281 16.71875 18.738281 16.71875 C 18.738281 16.71875 16.78125 13.628906 15.972656 14.148438 C 17.242188 16.929688 16.769531 17.328125 16.769531 17.328125 C 16.769531 17.328125 16.609375 14.488281 15.027344 14.5625 C 14.234375 14.601562 15.40625 16.683594 15.40625 16.683594 C 15.40625 16.683594 14.328125 14.78125 13.609375 14.820312 C 14.933594 17.328125 14.460938 18.347656 14.460938 18.347656 C 14.460938 18.347656 14.679688 16.207031 12.882812 15.011719 C 13.5625 15.617188 12.453125 18.347656 12.453125 18.347656 C 12.453125 18.347656 13.429688 14.324219 11.734375 15.09375 C 11.464844 15.214844 11.714844 17.097656 11.714844 17.097656 C 11.714844 17.097656 11.375 14.941406 10.863281 15.054688 C 10.566406 15.121094 8.972656 18.046875 8.972656 18.046875 C 8.972656 18.046875 10.277344 14.882812 9.878906 15.015625 C 9.589844 15.113281 9.046875 16.417969 9.046875 16.417969 C 9.046875 16.417969 9.3125 15.132812 9.046875 15.054688 C 8.78125 14.980469 7.304688 16.417969 7.304688 16.417969 C 7.304688 16.417969 8.402344 15.132812 8.214844 14.867188 C 7.925781 14.464844 7.589844 14.445312 7.191406 14.601562 C 6.613281 14.828125 5.828125 15.886719 5.828125 15.886719 C 5.828125 15.886719 6.609375 14.8125 6.472656 14.410156 C 6.253906 13.765625 4.011719 15.660156 4.011719 15.660156 C 4.011719 15.660156 5.335938 14.410156 5.035156 14.148438 C 4.730469 13.882812 3.085938 13.964844 2.574219 13.960938 C 1.058594 13.957031 0.535156 13.601562 0.0742188 13.238281 "/>
</g>
</defs>
<g id="surface1">
<path style=" stroke:none;fill-rule:nonzero;fill:rgb(72.941178%,90.196079%,98.039216%);fill-opacity:1;" d="M 11.960938 7.257812 C 9.683594 7.308594 7.367188 8.007812 4.746094 9.460938 C 4.269531 10.011719 4.027344 10.605469 4.078125 11.210938 C 4.253906 13.269531 7.777344 14.644531 11.945312 14.289062 C 16.113281 13.929688 19.351562 11.972656 19.171875 9.917969 C 19.140625 9.53125 18.988281 9.167969 18.738281 8.835938 C 16.351562 7.769531 14.175781 7.207031 11.960938 7.257812 Z M 11.960938 7.257812 "/>
<use xlink:href="#surface5" mask="url(#mask0)"/>
<path style=" stroke:none;fill-rule:nonzero;fill:rgb(100%,100%,100%);fill-opacity:1;" d="M 11.292969 7.082031 C 10.410156 7.027344 8.894531 7.484375 7.628906 7.945312 C 7.429688 8.410156 7.328125 8.910156 7.328125 9.414062 C 7.328125 11.554688 9.265625 13.285156 11.316406 13.285156 C 13.351562 13.285156 15.15625 11.550781 15.304688 9.414062 C 15.351562 8.71875 15.113281 8.066406 14.78125 7.5 C 13.46875 7.269531 12.078125 7.128906 11.292969 7.082031 "/>
<path style=" stroke:none;fill-rule:nonzero;fill:rgb(20.784314%,20%,20%);fill-opacity:1;" d="M 9.03125 9.136719 C 9.140625 8.894531 9.304688 8.777344 9.460938 8.578125 C 9.445312 8.53125 9.40625 8.375 9.40625 8.320312 C 9.40625 8.175781 9.476562 8.042969 9.597656 7.960938 C 9.714844 7.878906 9.867188 7.863281 10 7.917969 C 10.746094 7.347656 11.707031 7.136719 12.625 7.339844 C 12.710938 7.363281 12.796875 7.386719 12.878906 7.410156 C 11.9375 7.28125 10.875 7.613281 10.152344 8.199219 C 10.175781 8.25 10.238281 8.398438 10.238281 8.457031 C 10.238281 8.699219 10.082031 8.757812 9.839844 8.757812 C 9.785156 8.757812 9.734375 8.746094 9.6875 8.726562 C 9.523438 8.945312 9.324219 9.363281 9.226562 9.625 C 9.625 9.984375 9.984375 10.113281 10.457031 10.289062 C 10.453125 10.265625 10.472656 10.246094 10.472656 10.222656 C 10.472656 9.496094 11.109375 8.910156 11.835938 8.910156 C 12.472656 8.910156 13.019531 9.371094 13.128906 10 C 13.453125 9.792969 13.765625 9.636719 14.003906 9.332031 C 13.949219 9.261719 13.886719 9.070312 13.886719 8.976562 C 13.886719 8.757812 14.066406 8.582031 14.28125 8.582031 C 14.3125 8.582031 14.34375 8.585938 14.371094 8.589844 C 14.492188 8.339844 14.585938 8.078125 14.644531 7.804688 C 13.511719 6.964844 11.316406 7.082031 11.316406 7.082031 C 11.316406 7.082031 9.570312 6.988281 8.390625 7.566406 C 8.46875 8.136719 8.695312 8.675781 9.03125 9.136719 "/>
<path style=" stroke:none;fill-rule:nonzero;fill:rgb(20.784314%,20%,20%);fill-opacity:1;" d="M 14.449219 8.808594 C 14.53125 8.878906 14.574219 8.945312 14.605469 9.003906 C 14.714844 9.195312 14.5 9.371094 14.28125 9.371094 C 14.261719 9.371094 14.238281 9.367188 14.21875 9.363281 C 13.972656 9.746094 13.542969 10.242188 13.160156 10.488281 C 13.746094 10.585938 14.296875 10.820312 14.738281 11.183594 C 15.058594 10.609375 15.304688 9.777344 15.304688 9.074219 C 15.304688 8.539062 15.066406 8.144531 14.710938 7.859375 C 14.691406 8.144531 14.539062 8.546875 14.449219 8.808594 M 9.691406 12.445312 C 9.886719 11.90625 10.367188 11.488281 10.820312 11.117188 C 10.753906 11.027344 10.652344 10.800781 10.613281 10.695312 C 10.066406 10.527344 9.570312 10.214844 9.1875 9.792969 C 9.183594 9.804688 9.179688 9.816406 9.175781 9.828125 C 9.109375 10.144531 9.089844 10.464844 9.128906 10.785156 C 9.398438 10.835938 9.59375 11.074219 9.59375 11.347656 C 9.59375 11.515625 9.449219 11.753906 9.335938 11.859375 C 9.460938 12.125 9.542969 12.253906 9.691406 12.445312 "/>
<path style=" stroke:none;fill-rule:nonzero;fill:rgb(20.784314%,20%,20%);fill-opacity:1;" d="M 9.65625 12.898438 C 9.421875 12.664062 9.261719 12.203125 9.109375 11.914062 C 9.082031 11.917969 9.050781 11.921875 9.023438 11.921875 C 8.707031 11.921875 8.375 11.65625 8.449219 11.347656 C 8.492188 11.179688 8.609375 11.066406 8.800781 10.972656 C 8.757812 10.621094 8.746094 10.117188 8.828125 9.75 C 8.851562 9.648438 8.898438 9.597656 8.933594 9.496094 C 8.582031 8.988281 8.359375 8.316406 8.359375 7.652344 C 8.359375 7.628906 8.359375 7.605469 8.359375 7.582031 C 7.769531 7.875 7.328125 8.34375 7.328125 9.074219 C 7.328125 10.695312 8.261719 12.285156 9.652344 12.910156 C 9.652344 12.90625 9.652344 12.902344 9.65625 12.898438 M 13.070312 10.65625 C 12.886719 11.179688 12.390625 11.53125 11.835938 11.53125 C 11.539062 11.535156 11.253906 11.433594 11.023438 11.25 C 10.566406 11.609375 10.148438 12.238281 9.9375 12.785156 C 10.03125 12.886719 10.097656 12.972656 10.203125 13.0625 C 10.527344 13.148438 10.96875 13.0625 11.316406 13.0625 C 12.71875 13.0625 13.957031 12.441406 14.671875 11.347656 C 14.195312 11.019531 13.640625 10.707031 13.070312 10.65625 "/>
<path style=" stroke:none;fill-rule:nonzero;fill:rgb(6.666667%,52.156866%,69.01961%);fill-opacity:1;" d="M 8.996094 9.324219 C 9.101562 9.089844 9.238281 8.867188 9.398438 8.664062 C 9.347656 8.53125 9.367188 8.378906 9.449219 8.261719 C 9.527344 8.144531 9.664062 8.074219 9.804688 8.074219 C 9.863281 8.074219 9.914062 8.085938 9.964844 8.105469 C 10.785156 7.480469 11.859375 7.292969 12.84375 7.601562 C 11.902344 7.46875 10.929688 7.757812 10.207031 8.34375 C 10.273438 8.503906 10.238281 8.6875 10.117188 8.8125 C 9.996094 8.9375 9.8125 8.980469 9.648438 8.917969 C 9.484375 9.136719 9.351562 9.382812 9.253906 9.640625 C 9.597656 10.007812 10.019531 10.300781 10.488281 10.476562 C 10.488281 10.453125 10.488281 10.433594 10.488281 10.410156 C 10.488281 9.683594 11.074219 9.097656 11.796875 9.097656 C 12.449219 9.097656 12.988281 9.570312 13.089844 10.191406 C 13.417969 9.980469 13.703125 9.71875 13.941406 9.414062 C 13.882812 9.34375 13.851562 9.253906 13.851562 9.164062 C 13.851562 8.945312 14.027344 8.769531 14.246094 8.769531 C 14.277344 8.769531 14.308594 8.773438 14.335938 8.78125 C 14.457031 8.53125 14.550781 8.265625 14.605469 7.996094 C 13.472656 7.15625 11.28125 7.269531 11.28125 7.269531 C 11.28125 7.269531 9.535156 7.179688 8.355469 7.753906 C 8.433594 8.324219 8.660156 8.867188 8.996094 9.324219 "/>
<path style=" stroke:none;fill-rule:nonzero;fill:rgb(6.666667%,52.156866%,69.01961%);fill-opacity:1;" d="M 14.511719 8.871094 C 14.589844 8.945312 14.640625 9.046875 14.640625 9.164062 C 14.640625 9.382812 14.464844 9.558594 14.246094 9.558594 C 14.226562 9.558594 14.203125 9.558594 14.183594 9.554688 C 13.9375 9.9375 13.609375 10.265625 13.226562 10.511719 C 13.792969 10.601562 14.324219 10.839844 14.765625 11.203125 C 15.097656 10.609375 15.269531 9.941406 15.269531 9.265625 C 15.269531 8.726562 15.03125 8.335938 14.675781 8.046875 C 14.65625 8.335938 14.601562 8.609375 14.511719 8.871094 M 9.75 12.574219 C 9.945312 12.027344 10.289062 11.546875 10.738281 11.183594 C 10.671875 11.089844 10.617188 10.992188 10.578125 10.886719 C 10.027344 10.71875 9.535156 10.40625 9.152344 9.984375 C 9.148438 9.996094 9.144531 10.007812 9.140625 10.019531 C 9.070312 10.332031 9.054688 10.65625 9.09375 10.976562 C 9.304688 11.015625 9.476562 11.171875 9.535156 11.378906 C 9.597656 11.585938 9.535156 11.8125 9.375 11.957031 C 9.476562 12.175781 9.605469 12.382812 9.75 12.574219 "/>
<path style=" stroke:none;fill-rule:nonzero;fill:rgb(6.666667%,52.156866%,69.01961%);fill-opacity:1;" d="M 9.652344 12.890625 C 9.421875 12.660156 9.226562 12.394531 9.074219 12.101562 C 9.046875 12.105469 9.015625 12.109375 8.988281 12.109375 C 8.671875 12.109375 8.414062 11.851562 8.414062 11.539062 C 8.414062 11.3125 8.546875 11.117188 8.738281 11.023438 C 8.691406 10.660156 8.710938 10.296875 8.789062 9.941406 C 8.8125 9.835938 8.84375 9.734375 8.875 9.632812 C 8.515625 9.105469 8.320312 8.480469 8.324219 7.84375 C 8.324219 7.816406 8.324219 7.792969 8.324219 7.769531 C 7.734375 8.066406 7.292969 8.53125 7.292969 9.265625 C 7.292969 10.886719 8.261719 12.28125 9.652344 12.902344 L 9.652344 12.890625 M 13.035156 10.84375 C 12.851562 11.371094 12.355469 11.722656 11.796875 11.722656 C 11.503906 11.722656 11.21875 11.625 10.988281 11.441406 C 10.527344 11.800781 10.183594 12.289062 9.96875 12.832031 C 10.066406 12.9375 10.167969 13.035156 10.273438 13.125 C 10.601562 13.210938 10.941406 13.253906 11.28125 13.253906 C 12.683594 13.253906 13.914062 12.527344 14.625 11.4375 C 14.152344 11.109375 13.601562 10.898438 13.035156 10.84375 "/>
<path style=" stroke:none;fill-rule:nonzero;fill:rgb(100%,100%,100%);fill-opacity:1;" d="M 11.429688 9.292969 L 10.742188 8.0625 L 11.113281 9.367188 L 10 8.558594 L 10.871094 9.65625 L 9.488281 9.144531 L 10.578125 9.953125 L 9.179688 9.996094 L 10.613281 10.367188 L 9.179688 10.675781 L 10.59375 10.777344 L 9.398438 11.542969 L 10.628906 11.097656 L 9.777344 12.175781 L 10.851562 11.308594 L 10.464844 12.753906 L 11.296875 11.578125 L 11.179688 12.96875 L 11.652344 11.707031 L 12.054688 13.03125 L 12.152344 11.703125 L 12.746094 12.835938 L 12.394531 11.539062 L 13.484375 12.386719 L 12.78125 11.308594 L 13.980469 11.773438 L 13.0625 10.875 L 14.292969 10.96875 L 13.082031 10.507812 L 14.292969 10.21875 L 13.078125 10.15625 L 14.066406 9.398438 L 12.945312 9.800781 L 13.707031 8.742188 L 12.652344 9.445312 L 13.023438 8.203125 L 12.296875 9.226562 L 12.28125 7.9375 L 11.804688 9.085938 L 11.40625 7.921875 Z M 11.429688 9.292969 "/>
<use xlink:href="#surface8" mask="url(#mask1)"/>
<path style=" stroke:none;fill-rule:nonzero;fill:rgb(20.784314%,20%,20%);fill-opacity:1;" d="M 17.515625 5.652344 C 17.515625 5.652344 16 7.394531 15.621094 7.191406 L 16.351562 5.707031 C 16.351562 5.707031 15.621094 7.191406 14.636719 6.9375 C 15.089844 6.359375 15.265625 5.824219 15.265625 5.824219 C 15.265625 5.824219 14.511719 7.039062 13.578125 6.710938 C 13.359375 6.632812 13.851562 6.078125 13.851562 6.078125 C 13.851562 6.078125 13.222656 6.6875 12.796875 6.609375 C 12.367188 6.535156 12.820312 5.753906 12.820312 5.753906 C 12.820312 5.753906 12.0625 6.9375 11.910156 6.886719 C 11.761719 6.839844 11.988281 6.054688 11.988281 6.054688 C 11.988281 6.054688 11.433594 6.964844 11.128906 6.914062 C 10.828125 6.863281 11.128906 5.980469 11.128906 5.980469 C 11.128906 5.980469 10.800781 6.964844 10.550781 6.886719 C 10.296875 6.8125 10.246094 6.230469 10.246094 6.230469 C 10.246094 6.230469 10.179688 7.019531 9.816406 7.089844 C 7.089844 7.621094 4.089844 8.78125 0.328125 12.542969 C 3.886719 10.621094 5.300781 7.796875 11.960938 7.542969 C 17.007812 7.351562 19.359375 9.679688 20.136719 9.714844 C 22.511719 9.816406 24 7.519531 24 7.519531 C 24 7.519531 22.511719 9.234375 21.425781 8.820312 C 22.398438 8.25 23.140625 6.863281 23.140625 6.863281 C 23.140625 6.863281 21.25 8.820312 19.9375 8.527344 C 21.121094 7.59375 21.703125 5.980469 21.703125 5.980469 C 21.703125 5.980469 20.195312 8.304688 19.253906 8.402344 C 20.339844 7.445312 20.792969 6.082031 20.792969 6.082031 C 20.792969 6.082031 19.558594 7.898438 18.597656 8.023438 C 19.886719 6.863281 19.9375 6.132812 19.9375 6.132812 C 19.9375 6.132812 18.15625 8.433594 17.4375 8.074219 C 18.296875 7.140625 18.875 5.953125 18.875 5.953125 C 18.875 5.953125 17.386719 7.972656 16.984375 7.644531 C 16.707031 7.59375 17.4375 6.6875 17.4375 6.6875 C 17.4375 6.6875 16.53125 7.492188 16.277344 7.292969 C 16.730469 7.015625 17.515625 5.652344 17.515625 5.652344 Z M 19.9375 9.894531 C 19.683594 9.878906 19.457031 9.972656 19.34375 10.285156 C 18.171875 12.519531 15.710938 13.769531 12.832031 14.183594 C 9.957031 14.601562 7.835938 13.996094 6.09375 13.503906 C 3.804688 12.859375 1.988281 14.007812 0 13.011719 C 0.460938 13.375 0.984375 13.730469 2.5 13.734375 C 3.011719 13.738281 4.65625 13.652344 4.957031 13.917969 C 5.261719 14.183594 3.9375 15.433594 3.9375 15.433594 C 3.9375 15.433594 6.179688 13.539062 6.398438 14.183594 C 6.535156 14.585938 5.753906 15.660156 5.753906 15.660156 C 5.753906 15.660156 6.535156 14.601562 7.117188 14.375 C 7.515625 14.21875 7.851562 14.238281 8.140625 14.640625 C 8.328125 14.902344 7.230469 16.191406 7.230469 16.191406 C 7.230469 16.191406 8.707031 14.753906 8.972656 14.828125 C 9.238281 14.902344 8.972656 16.191406 8.972656 16.191406 C 8.972656 16.191406 9.515625 14.886719 9.804688 14.789062 C 10.203125 14.65625 8.894531 17.816406 8.894531 17.816406 C 8.894531 17.816406 10.492188 14.894531 10.789062 14.828125 C 11.300781 14.714844 11.640625 16.871094 11.640625 16.871094 C 11.640625 16.871094 11.390625 14.988281 11.660156 14.867188 C 13.355469 14.097656 12.378906 18.121094 12.378906 18.121094 C 12.378906 18.121094 13.488281 15.390625 12.804688 14.785156 C 14.605469 15.976562 14.386719 18.121094 14.386719 18.121094 C 14.386719 18.121094 14.859375 17.101562 13.53125 14.59375 C 14.25 14.554688 15.332031 16.457031 15.332031 16.457031 C 15.332031 16.457031 14.15625 14.375 14.953125 14.335938 C 16.53125 14.261719 16.695312 17.097656 16.695312 17.097656 C 16.695312 17.097656 17.167969 16.703125 15.898438 13.917969 C 16.707031 13.402344 18.664062 16.492188 18.664062 16.492188 C 18.664062 16.492188 16.859375 13.476562 17.148438 13.277344 C 17.4375 13.074219 18.5 14.234375 18.5 14.234375 C 18.5 14.234375 17.691406 13.125 17.90625 13.011719 C 18.121094 12.898438 20.265625 15.21875 20.265625 15.21875 C 20.265625 15.21875 18.371094 12.949219 18.699219 12.671875 C 18.894531 12.503906 19.457031 12.808594 19.886719 13.085938 C 19.285156 12.65625 18.417969 11.980469 18.699219 11.835938 C 19.28125 11.535156 20.933594 12.554688 20.933594 12.554688 C 20.933594 12.554688 19.9375 11.738281 20.101562 11.535156 C 20.265625 11.332031 22.21875 12.820312 22.21875 12.820312 C 22.21875 12.820312 20.492188 11.457031 20.402344 11.117188 C 20.316406 10.777344 21.765625 11.230469 21.765625 11.230469 C 21.765625 11.230469 20.164062 10.488281 20.140625 10.273438 C 20.113281 10.058594 21.199219 10.511719 21.199219 10.511719 C 21.199219 10.511719 20.496094 9.933594 19.9375 9.894531 Z M 19.886719 13.085938 C 20.0625 13.210938 20.238281 13.332031 20.417969 13.453125 C 20.417969 13.453125 20.183594 13.277344 19.886719 13.085938 Z M 19.886719 13.085938 "/>
<use xlink:href="#surface11" mask="url(#mask2)"/>
</g>
</svg>
