<svg width="16" height="16" viewBox="0 0 16 16" fill="none" xmlns="http://www.w3.org/2000/svg">
<path d="M8.02486 4.22031C11.3189 1.66304 9.62831 0 9.62831 0C9.87991 2.64369 6.90651 3.26792 6.10946 5.0846C5.56561 6.32425 6.48191 7.40965 8.02376 8.7777C7.88746 8.4747 7.67721 8.1803 7.46441 7.88225C6.73846 6.86565 5.98226 5.8066 8.02486 4.22031Z" fill="#CB3929"/>
<path d="M8.55076 9.33841C8.55076 9.33841 9.54176 8.53886 8.75696 7.65031C6.09656 4.63584 11.6667 3.26782 11.6667 3.26782C8.26586 4.90616 8.77356 5.87861 9.62836 7.06001C10.5436 8.32681 8.55076 9.33841 8.55076 9.33841Z" fill="#CB3929"/>
<path d="M11.4686 11.7228C14.5212 10.1629 13.1098 8.66391 12.1247 8.86586C11.8832 8.91526 11.7755 8.95811 11.7755 8.95811C11.7755 8.95811 11.8652 8.82001 12.0364 8.76021C13.9853 8.08646 15.4842 10.7475 11.4072 11.8014C11.4072 11.8014 11.4545 11.7599 11.4686 11.7228Z" fill="#2A68AA"/>
<path d="M5.11647 9.74855C3.20653 9.49775 6.16372 8.80705 6.16372 8.80705C6.16372 8.80705 5.01532 8.7309 3.60293 9.40225C1.93285 10.1967 7.73402 10.558 10.737 9.78135C11.0492 9.5717 11.4807 9.39 11.4807 9.39C11.4807 9.39 10.2518 9.6058 9.02802 9.70735C7.53057 9.8307 5.92292 9.85475 5.11647 9.74855Z" fill="#2A68AA"/>
<path d="M5.84326 11.238C4.77818 11.1297 5.47556 10.6221 5.47556 10.6221C2.71955 11.5216 7.00896 12.5416 10.86 11.4342C10.4507 11.2923 10.1904 11.0328 10.1904 11.0328C8.30821 11.3892 7.22056 11.3778 5.84326 11.238Z" fill="#2A68AA"/>
<path d="M6.30716 12.8496C5.24291 12.7293 5.86466 12.3738 5.86466 12.3738C3.36288 13.0612 7.38636 14.4813 10.5716 13.1389C10.0499 12.9394 9.67631 12.7091 9.67631 12.7091C8.25546 12.9735 7.59646 12.9943 6.30716 12.8496Z" fill="#2A68AA"/>
<path d="M12.9693 13.6695C12.9693 13.6695 13.4294 14.0423 12.4626 14.3307C10.624 14.8784 4.81047 15.0438 3.19547 14.3526C2.61492 14.1042 3.70361 13.7596 4.04607 13.6872C4.40323 13.6111 4.60733 13.6253 4.60733 13.6253C3.9617 13.178 0.434245 14.5035 2.81556 14.8831C9.30975 15.9187 14.6538 14.4167 12.9693 13.6695Z" fill="#2A68AA"/>
<path d="M14.0001 14.4839C13.8936 15.8473 9.39397 16.1341 6.46382 15.9496C4.55228 15.8291 4.16918 15.5278 4.16357 15.5234C5.99307 15.82 9.07757 15.874 11.5785 15.4112C13.7953 15.0007 14.0001 14.4839 14.0001 14.4839Z" fill="#2A68AA"/>
</svg>
