<?xml version="1.0" encoding="UTF-8"?>
<svg xmlns="http://www.w3.org/2000/svg" xmlns:xlink="http://www.w3.org/1999/xlink" width="24px" height="24px" viewBox="0 0 24 24" version="1.1">
<defs>
<clipPath id="clip1">
  <path d="M 5 0.960938 L 15 0.960938 L 15 11 L 5 11 Z M 5 0.960938 "/>
</clipPath>
<clipPath id="clip2">
  <path d="M 5 6 L 20.257812 6 L 20.257812 22.945312 L 5 22.945312 Z M 5 6 "/>
</clipPath>
<clipPath id="clip3">
  <path d="M 3.742188 6 L 11 6 L 11 18 L 3.742188 18 Z M 3.742188 6 "/>
</clipPath>
</defs>
<g id="surface1">
<g clip-path="url(#clip1)" clip-rule="nonzero">
<path style=" stroke:none;fill-rule:nonzero;fill:rgb(8.235294%,66.274512%,79.215688%);fill-opacity:1;" d="M 13.824219 4.328125 L 11.417969 1.929688 C 11.113281 1.621094 10.75 1.378906 10.347656 1.210938 C 9.949219 1.046875 9.519531 0.960938 9.085938 0.960938 C 8.285156 0.957031 7.515625 1.265625 6.941406 1.820312 C 6.640625 2.109375 6.402344 2.457031 6.238281 2.839844 C 6.074219 3.222656 5.984375 3.632812 5.980469 4.050781 C 5.976562 4.46875 6.058594 4.878906 6.214844 5.265625 C 6.371094 5.652344 6.605469 6.003906 6.898438 6.296875 L 11.257812 10.648438 C 11.351562 10.738281 11.472656 10.785156 11.601562 10.785156 C 11.726562 10.785156 11.851562 10.738281 11.945312 10.648438 L 13.820312 8.777344 C 13.9375 8.636719 15.898438 6.398438 13.824219 4.328125 Z M 13.824219 4.328125 "/>
</g>
<g clip-path="url(#clip2)" clip-rule="nonzero">
<path style=" stroke:none;fill-rule:nonzero;fill:rgb(32.156864%,79.215688%,63.921571%);fill-opacity:1;" d="M 17.757812 8.160156 C 17.300781 7.714844 16.828125 7.257812 16.398438 6.765625 L 16.398438 6.75 C 16.382812 6.792969 16.371094 6.839844 16.363281 6.886719 C 16.183594 7.9375 15.667969 8.898438 14.894531 9.632812 C 12.363281 12.140625 9.804688 14.703125 7.332031 17.179688 L 6.996094 17.511719 C 6.488281 17.980469 6.144531 18.601562 6.015625 19.28125 C 5.960938 19.765625 6.011719 20.257812 6.164062 20.722656 C 6.316406 21.183594 6.566406 21.609375 6.894531 21.96875 C 7.179688 22.289062 7.527344 22.542969 7.917969 22.710938 C 8.3125 22.878906 8.734375 22.957031 9.160156 22.941406 C 10.148438 22.957031 10.628906 22.828125 11.347656 22.128906 C 14.226562 19.316406 17.101562 16.480469 19.28125 14.328125 C 20.308594 13.304688 20.542969 11.617188 19.816406 10.480469 C 19.222656 9.628906 18.535156 8.847656 17.757812 8.160156 Z M 17.757812 8.160156 "/>
</g>
<g clip-path="url(#clip3)" clip-rule="nonzero">
<path style=" stroke:none;fill-rule:nonzero;fill:rgb(32.156864%,40.784314%,67.843139%);fill-opacity:1;" d="M 3.832031 6.65625 L 3.832031 17.25 C 3.832031 17.367188 3.867188 17.480469 3.929688 17.578125 C 3.996094 17.675781 4.089844 17.75 4.195312 17.792969 C 4.304688 17.839844 4.421875 17.851562 4.535156 17.828125 C 4.652344 17.804688 4.757812 17.75 4.839844 17.667969 L 10.179688 12.335938 C 10.28125 12.234375 10.335938 12.097656 10.335938 11.953125 C 10.335938 11.808594 10.28125 11.671875 10.179688 11.570312 L 4.839844 6.238281 C 4.785156 6.183594 4.722656 6.140625 4.652344 6.113281 C 4.578125 6.082031 4.503906 6.066406 4.425781 6.066406 C 4.269531 6.066406 4.121094 6.128906 4.007812 6.238281 C 3.898438 6.351562 3.832031 6.5 3.832031 6.65625 Z M 3.832031 6.65625 "/>
</g>
</g>
</svg>
