<svg width="20" height="20" viewBox="0 0 20 20" fill="none" xmlns="http://www.w3.org/2000/svg">
<path fill-rule="evenodd" clip-rule="evenodd" d="M10.7443 7.19999C12.0801 7.19999 13.1629 6.03594 13.1629 4.6C13.1629 3.16406 12.0801 2 10.7443 2C9.40858 2 8.32574 3.16406 8.32574 4.6C8.32574 6.03594 9.40858 7.19999 10.7443 7.19999ZM13.9692 7.99999H11.0928C11.1251 8.07958 11.1428 8.16598 11.1428 8.25628V15.436C11.1428 15.8325 10.8018 16.1538 10.381 16.1538H7.27362C8.01649 17.2437 9.20473 17.9644 10.5582 18C12.8734 17.9391 14.7051 15.8737 14.6512 13.3848V8.76919C14.6602 8.35444 14.355 8.01025 13.9692 7.99999ZM17.9202 5.40001C17.9202 6.39412 17.1706 7.20001 16.2458 7.20001C15.3211 7.20001 14.5714 6.39412 14.5714 5.40001C14.5714 4.4059 15.3211 3.60001 16.2458 3.60001C17.1706 3.60001 17.9202 4.4059 17.9202 5.40001ZM2.66654 7.53846H9.33344C9.70156 7.53846 9.99998 7.81393 9.99998 8.15373V14.3078C9.99998 14.6476 9.70156 14.9231 9.33344 14.9231H2.66654C2.29842 14.9231 2 14.6476 2 14.3078V8.15373C2 7.81393 2.29842 7.53846 2.66654 7.53846ZM7.71432 9.56908H6.4119V13.6923H5.58213V9.56908H4.28576V8.76923H7.71432V9.56908Z" fill="#6256ED"/>
<path fill-rule="evenodd" clip-rule="evenodd" d="M14.989 16.1501C15.4701 15.3752 15.7365 14.4678 15.7128 13.5029V8.76904H17.2246C17.6529 8.76904 18.0001 9.09966 18.0001 9.5075V13.4396C18.0001 14.9385 16.724 16.1536 15.1499 16.1536H15.1364C15.087 16.1536 15.0378 16.1525 14.989 16.1501Z" fill="#6256ED"/>
</svg>
