<svg width="20" height="20" viewBox="0 0 20 20" fill="none" xmlns="http://www.w3.org/2000/svg">
<path d="M15.0782 4.57153C15.7789 4.57153 16.3742 5.04125 16.6618 5.30443C16.6917 5.33722 16.7022 5.38363 16.6894 5.42632C16.6767 5.46905 16.6426 5.5017 16.5999 5.5122C16.0939 5.6016 15.6822 5.86355 15.6214 6.17838C15.5507 6.54103 15.6809 6.71105 15.9128 7.01576C16.0774 7.23142 16.2126 7.46863 16.3146 7.72098C16.4052 7.19083 16.2018 6.51206 16.0778 6.18339C16.0629 6.14049 16.072 6.09275 16.1016 6.05855C16.1311 6.02439 16.1765 6.00905 16.2204 6.01843C16.6178 6.12425 16.985 6.324 17.2919 6.60146C17.7854 7.01958 18.0843 7.692 18.2244 8.40472C18.5125 8.75705 18.7239 9.16736 18.8445 9.60862C19.0801 10.6299 19.1545 11.7267 18.279 12.7757C17.7147 13.4481 16.8132 13.797 15.697 13.797C15.4661 13.8364 15.2408 13.9045 15.0261 13.9997C14.1692 14.3208 12.7319 14.8572 10.0011 14.8572C7.27038 14.8572 5.83432 14.3208 4.97739 13.9997C4.76272 13.9045 4.53738 13.8364 4.30646 13.797C3.19033 13.797 2.28751 13.4481 1.72449 12.7757C0.845236 11.7267 0.919678 10.6299 1.15531 9.61363C1.27591 9.17242 1.48724 8.7621 1.77536 8.40978C1.91546 7.69706 2.21186 7.02965 2.70794 6.60652C3.01466 6.32953 3.38126 6.12982 3.77816 6.02349C3.82218 6.0135 3.86808 6.02863 3.89795 6.06292C3.92786 6.0972 3.93708 6.14525 3.92204 6.18845C3.80174 6.51712 3.59461 7.19332 3.68516 7.72599C3.78674 7.47343 3.92195 7.23613 4.08695 7.02082C4.31885 6.71606 4.44909 6.54609 4.37838 6.18339C4.31761 5.86856 3.90588 5.60666 3.39991 5.51726C3.35718 5.50676 3.32315 5.47406 3.31038 5.43138C3.29765 5.38865 3.30811 5.34228 3.33794 5.30945C3.62066 5.04125 4.22088 4.57153 4.91786 4.57153C5.89754 4.57153 6.42211 5.08278 6.57215 5.94035C6.69866 6.66948 6.50396 7.19208 6.36258 7.56986C6.33901 7.63033 6.31916 7.6857 6.30185 7.73482C6.41594 7.65549 6.54489 7.57239 6.68748 7.48925C7.69779 6.91342 8.83891 6.61603 9.99742 6.62666C11.1563 6.61595 12.2979 6.91333 13.3086 7.48925C13.4462 7.57239 13.5801 7.65549 13.6942 7.73482C13.6769 7.6857 13.657 7.63033 13.6335 7.56986C13.4921 7.18955 13.2999 6.66948 13.4239 5.94035C13.5727 5.08278 14.0985 4.57153 15.0782 4.57153ZM15.0732 5.1873C14.638 5.1873 14.1419 5.34978 14.0179 6.04612C13.7934 7.33436 14.8897 7.78522 14.0997 8.82408C14.0902 8.83732 14.075 8.84508 14.0588 8.84508C14.0427 8.84508 14.0275 8.83732 14.0179 8.82408C13.9689 8.76823 12.61 7.2462 9.99742 7.2462C7.33732 7.2462 5.97318 8.8266 5.97318 8.8266L5.96191 8.83792C5.95338 8.84413 5.94305 8.8476 5.93225 8.8476C5.91614 8.8476 5.90092 8.8398 5.89136 8.8266C5.10506 7.7877 6.19766 7.33689 5.97318 6.04865C5.85288 5.35226 5.35685 5.18983 4.91786 5.18983C4.66981 5.19305 4.42376 5.23556 4.18865 5.31575C4.18865 5.31575 5.70905 5.89376 4.56815 7.39732C3.65786 8.60122 4.59292 9.7887 4.99844 10.2181C5.01789 10.2391 5.02115 10.2708 5.00641 10.2954C4.99166 10.32 4.96256 10.3317 4.93518 10.3239C4.30025 10.1211 2.64344 9.37312 3.19903 6.97295C1.88448 8.23599 1.90432 10.8603 4.11669 11.5315C4.14686 11.5399 4.16778 11.5678 4.16778 11.5995C4.16778 11.6313 4.14686 11.6591 4.11669 11.6675C3.94711 11.7039 3.77422 11.7225 3.60082 11.7229C2.16969 11.7229 1.60668 10.2697 1.60668 10.2697C1.60668 10.2697 1.26566 13.1799 4.30274 13.1799C5.06169 13.1799 6.20015 14.2402 9.99742 14.2402C13.7947 14.2402 14.9331 13.1799 15.6933 13.1799C18.7304 13.1799 18.377 10.2672 18.377 10.2672C18.377 10.2672 17.8152 11.7204 16.3866 11.7204C16.2132 11.72 16.0403 11.7015 15.8707 11.665C15.8405 11.6566 15.8196 11.6288 15.8196 11.597C15.8196 11.5653 15.8405 11.5374 15.8707 11.529C18.0818 10.8578 18.1054 8.22973 16.7883 6.97046C17.3452 9.37059 15.6883 10.1249 15.0522 10.3214C15.0249 10.3292 14.9957 10.3175 14.981 10.2929C14.9662 10.2682 14.9695 10.2366 14.9889 10.2156C15.3994 9.78742 16.332 8.59616 15.4217 7.39483C14.2833 5.89123 15.8025 5.31326 15.8025 5.31326C15.5673 5.23303 15.3213 5.19056 15.0732 5.1873Z" fill="#458B83"/>
<path d="M7.42791 10.6529C7.43558 10.4737 7.35565 10.3042 7.22009 10.212C7.08449 10.1198 6.91521 10.1198 6.77965 10.212C6.64401 10.3042 6.56416 10.4737 6.57179 10.6529C6.57179 10.9206 6.76358 11 6.99933 11C7.23509 11 7.42791 10.924 7.42791 10.6529Z" fill="#458B83"/>
<path d="M13.4281 10.6529C13.4358 10.4737 13.3559 10.3042 13.2203 10.212C13.0847 10.1198 12.9154 10.1198 12.7798 10.212C12.6442 10.3042 12.5644 10.4737 12.572 10.6529C12.572 10.9206 12.7638 11 13.0006 11C13.2373 11 13.4281 10.924 13.4281 10.6529Z" fill="#458B83"/>
<path d="M9.99926 12.7144C9.14477 12.7082 8.30507 12.4569 7.5558 11.983C7.48423 11.9339 7.4373 11.8483 7.42959 11.7526C7.42187 11.657 7.45427 11.5629 7.51672 11.4993C7.59776 11.4206 7.71202 11.4064 7.80575 11.4633C8.30045 11.7802 9.11795 11.9739 9.99926 11.9739C10.8805 11.9739 11.6916 11.7802 12.1941 11.4633C12.2878 11.4064 12.402 11.4206 12.483 11.4993C12.5455 11.5629 12.5779 11.657 12.5702 11.7526C12.5625 11.8483 12.5156 11.9339 12.444 11.983C11.6943 12.457 10.8541 12.7084 9.99926 12.7144Z" fill="#458B83"/>
<path d="M5.28585 13.1429C5.00583 13.0624 4.77337 12.9145 4.62821 12.7243C4.62238 12.7167 4.61021 12.7129 4.59843 12.7149C4.58673 12.717 4.57837 12.7244 4.57807 12.7331V12.7804C4.57798 12.8523 4.53037 12.9199 4.44988 12.9624L4.42871 12.9737L4.57807 12.985L5.28585 13.1429Z" fill="#458B83"/>
<path d="M14.7144 13.1429C14.9943 13.0624 15.2268 12.9145 15.3722 12.7243C15.3781 12.7167 15.3903 12.7129 15.402 12.7149C15.4137 12.717 15.422 12.7244 15.4223 12.7331V12.7804C15.4224 12.8523 15.4699 12.9199 15.5503 12.9624L15.5715 12.9737L15.4223 12.985L14.7144 13.1429Z" fill="#458B83"/>
<path d="M6.14293 8.48757C6.0144 8.59912 5.8953 8.71964 5.78661 8.84808C5.7783 8.85691 5.76471 8.85952 5.75331 8.85451C5.74191 8.8495 5.73548 8.83801 5.73763 8.82648C5.75353 8.75255 5.76947 8.68432 5.78168 8.63542C5.79278 8.58687 5.78408 8.53621 5.75721 8.49327L5.71436 8.42847L6.14293 8.48757Z" fill="#458B83"/>
<path d="M13.8572 8.48731C13.9857 8.59835 14.1048 8.71831 14.2135 8.84615C14.2214 8.85635 14.2359 8.85987 14.2482 8.8546C14.2605 8.84937 14.267 8.83681 14.2637 8.82468C14.2466 8.7511 14.2306 8.68317 14.2184 8.63448C14.2073 8.58614 14.216 8.53574 14.2429 8.49301L14.2857 8.42847L13.8572 8.48731Z" fill="#458B83"/>
</svg>
