<?xml version="1.0" encoding="UTF-8"?>
<svg xmlns="http://www.w3.org/2000/svg" xmlns:xlink="http://www.w3.org/1999/xlink" width="24px" height="24px" viewBox="0 0 24 24" version="1.1">
<g id="surface1">
<path style=" stroke:none;fill-rule:nonzero;fill:rgb(36.470589%,53.333336%,83.92157%);fill-opacity:1;" d="M 14.078125 3.597656 C 14.515625 3.160156 14.515625 2.453125 14.078125 2.015625 C 13.640625 1.578125 12.933594 1.578125 12.496094 2.015625 C 12.058594 2.453125 12.058594 3.160156 12.496094 3.597656 C 12.933594 4.035156 13.640625 4.035156 14.078125 3.597656 Z M 17.242188 6.761719 C 17.726562 6.273438 17.726562 5.488281 17.242188 5.003906 C 16.753906 4.515625 15.96875 4.515625 15.484375 5.003906 C 14.996094 5.488281 14.996094 6.273438 15.484375 6.761719 C 15.96875 7.246094 16.753906 7.246094 17.242188 6.761719 Z M 20.402344 9.921875 C 20.9375 9.390625 20.9375 8.523438 20.402344 7.992188 C 19.871094 7.457031 19.003906 7.457031 18.46875 7.992188 C 17.9375 8.523438 17.9375 9.390625 18.46875 9.921875 C 19.003906 10.457031 19.871094 10.457031 20.402344 9.921875 Z M 23.5625 13.082031 C 24.144531 12.5 24.144531 11.554688 23.5625 10.972656 C 22.980469 10.390625 22.035156 10.390625 21.453125 10.972656 C 20.871094 11.554688 20.871094 12.5 21.453125 13.082031 C 22.035156 13.664062 22.980469 13.664062 23.5625 13.082031 Z M 23.5625 13.082031 "/>
<path style=" stroke:none;fill-rule:nonzero;fill:rgb(19.607843%,85.882354%,98.823529%);fill-opacity:1;" d="M 7.84375 3.507812 C 8.230469 3.121094 8.230469 2.492188 7.84375 2.101562 C 7.453125 1.714844 6.824219 1.714844 6.4375 2.101562 C 6.046875 2.492188 6.046875 3.121094 6.4375 3.507812 C 6.824219 3.898438 7.453125 3.898438 7.84375 3.507812 Z M 11.003906 6.671875 C 11.441406 6.234375 11.441406 5.527344 11.003906 5.089844 C 10.570312 4.652344 9.859375 4.652344 9.421875 5.089844 C 8.988281 5.527344 8.988281 6.234375 9.421875 6.671875 C 9.859375 7.109375 10.570312 7.109375 11.003906 6.671875 Z M 14.164062 9.832031 C 14.652344 9.347656 14.652344 8.558594 14.164062 8.074219 C 13.679688 7.589844 12.894531 7.589844 12.410156 8.074219 C 11.921875 8.558594 11.921875 9.347656 12.410156 9.832031 C 12.894531 10.316406 13.679688 10.316406 14.164062 9.832031 Z M 17.328125 12.992188 C 17.859375 12.460938 17.859375 11.59375 17.328125 11.058594 C 16.792969 10.527344 15.929688 10.527344 15.394531 11.058594 C 14.859375 11.59375 14.859375 12.460938 15.394531 12.992188 C 15.929688 13.527344 16.792969 13.527344 17.328125 12.992188 Z M 20.492188 16.160156 C 21.074219 15.574219 21.074219 14.632812 20.492188 14.050781 C 19.910156 13.46875 18.964844 13.46875 18.382812 14.050781 C 17.800781 14.632812 17.800781 15.574219 18.382812 16.160156 C 18.964844 16.742188 19.910156 16.742188 20.492188 16.160156 Z M 20.492188 16.160156 "/>
<path style=" stroke:none;fill-rule:nonzero;fill:rgb(0%,0%,0%);fill-opacity:1;" d="M 1.613281 3.425781 C 1.832031 3.207031 1.917969 2.882812 1.839844 2.582031 C 1.757812 2.28125 1.523438 2.046875 1.222656 1.964844 C 0.921875 1.886719 0.601562 1.972656 0.378906 2.195312 C 0.0390625 2.535156 0.0390625 3.085938 0.378906 3.425781 C 0.71875 3.765625 1.273438 3.765625 1.613281 3.425781 Z M 4.769531 6.582031 C 5.160156 6.195312 5.160156 5.566406 4.769531 5.175781 C 4.382812 4.789062 3.75 4.789062 3.363281 5.175781 C 2.976562 5.566406 2.976562 6.195312 3.363281 6.582031 C 3.75 6.972656 4.382812 6.972656 4.769531 6.582031 Z M 7.933594 9.746094 C 8.371094 9.3125 8.371094 8.601562 7.933594 8.164062 C 7.496094 7.730469 6.789062 7.730469 6.351562 8.164062 C 5.914062 8.601562 5.914062 9.3125 6.351562 9.746094 C 6.789062 10.183594 7.496094 10.183594 7.933594 9.746094 Z M 11.09375 12.910156 C 11.582031 12.421875 11.582031 11.636719 11.09375 11.152344 C 10.609375 10.664062 9.824219 10.664062 9.335938 11.152344 C 8.851562 11.636719 8.851562 12.421875 9.335938 12.910156 C 9.824219 13.394531 10.609375 13.394531 11.09375 12.910156 Z M 14.257812 16.070312 C 14.789062 15.535156 14.789062 14.671875 14.257812 14.136719 C 13.722656 13.605469 12.855469 13.605469 12.324219 14.136719 C 11.789062 14.671875 11.789062 15.535156 12.324219 16.070312 C 12.855469 16.605469 13.722656 16.605469 14.257812 16.070312 Z M 17.414062 19.226562 C 17.996094 18.644531 17.996094 17.703125 17.414062 17.121094 C 16.832031 16.539062 15.890625 16.539062 15.308594 17.121094 C 14.726562 17.703125 14.726562 18.644531 15.308594 19.226562 C 15.890625 19.808594 16.832031 19.808594 17.414062 19.226562 Z M 17.414062 19.226562 "/>
<path style=" stroke:none;fill-rule:nonzero;fill:rgb(36.470589%,53.333336%,83.92157%);fill-opacity:1;" d="M 7.84375 15.800781 C 8.230469 15.414062 8.230469 14.785156 7.84375 14.394531 C 7.457031 14.007812 6.824219 14.007812 6.4375 14.394531 C 6.046875 14.785156 6.046875 15.414062 6.4375 15.800781 C 6.824219 16.191406 7.457031 16.191406 7.84375 15.800781 Z M 7.84375 15.800781 "/>
<path style=" stroke:none;fill-rule:nonzero;fill:rgb(36.470589%,53.333336%,83.92157%);fill-opacity:1;" d="M 5.0625 18.171875 C 5.0625 17.625 4.617188 17.179688 4.066406 17.179688 C 3.519531 17.179688 3.074219 17.625 3.074219 18.171875 C 3.074219 18.722656 3.519531 19.167969 4.066406 19.167969 C 4.617188 19.167969 5.0625 18.722656 5.0625 18.171875 Z M 5.0625 18.171875 "/>
<path style=" stroke:none;fill-rule:nonzero;fill:rgb(36.470589%,53.333336%,83.92157%);fill-opacity:1;" d="M 1.988281 21.25 C 1.988281 20.699219 1.542969 20.253906 0.996094 20.253906 C 0.445312 20.253906 0 20.699219 0 21.25 C 0 21.796875 0.445312 22.242188 0.996094 22.242188 C 1.542969 22.242188 1.988281 21.796875 1.988281 21.25 Z M 1.988281 21.25 "/>
<path style=" stroke:none;fill-rule:nonzero;fill:rgb(36.470589%,53.333336%,83.92157%);fill-opacity:1;" d="M 8.136719 21.246094 C 8.136719 20.699219 7.691406 20.253906 7.140625 20.253906 C 6.589844 20.253906 6.144531 20.699219 6.144531 21.246094 C 6.144531 21.796875 6.589844 22.242188 7.140625 22.242188 C 7.691406 22.242188 8.136719 21.796875 8.136719 21.246094 Z M 8.136719 21.246094 "/>
<path style=" stroke:none;fill-rule:nonzero;fill:rgb(36.470589%,53.333336%,83.92157%);fill-opacity:1;" d="M 13.992188 21.953125 C 14.378906 21.5625 14.378906 20.933594 13.992188 20.546875 C 13.601562 20.15625 12.972656 20.15625 12.585938 20.546875 C 12.195312 20.933594 12.195312 21.5625 12.585938 21.953125 C 12.972656 22.339844 13.601562 22.339844 13.992188 21.953125 Z M 10.917969 18.875 C 11.304688 18.488281 11.304688 17.859375 10.917969 17.46875 C 10.527344 17.082031 9.898438 17.082031 9.511719 17.46875 C 9.121094 17.859375 9.121094 18.488281 9.511719 18.875 C 9.898438 19.265625 10.527344 19.265625 10.917969 18.875 Z M 10.917969 18.875 "/>
</g>
</svg>
