<svg width="20" height="20" viewBox="0 0 20 20" fill="none" xmlns="http://www.w3.org/2000/svg">
<path d="M12.9853 4.46754V2H3.07569C3.07569 2 2 2 2 3.02069V17.9995H4.51567V4.97977C4.51567 4.69703 4.74275 4.46754 5.02246 4.46754H12.9853Z" fill="#67748A"/>
<path d="M7.01416 17.9995V15.5319H14.9776C15.2572 15.5319 15.4843 15.3025 15.4843 15.0198V2H18V16.9794C18 18 16.9243 18 16.9243 18L7.01416 17.9995Z" fill="#67748A"/>
<path d="M9.95571 13.0082C11.6173 13.0082 12.9643 11.6612 12.9643 9.99946C12.9643 8.33775 11.6173 6.99072 9.95571 6.99072C8.29402 6.99072 6.94702 8.33775 6.94702 9.99946C6.94702 11.6612 8.29402 13.0082 9.95571 13.0082Z" fill="#67748A"/>
</svg>
