<?xml version="1.0" encoding="UTF-8"?>
<svg xmlns="http://www.w3.org/2000/svg" xmlns:xlink="http://www.w3.org/1999/xlink" width="24px" height="24px" viewBox="0 0 24 37" version="1.1">
<g id="surface1">
<path style=" stroke:none;fill-rule:nonzero;fill:rgb(34.117648%,81.960785%,89.803922%);fill-opacity:1;" d="M 11.902344 4.273438 C 5.054688 4.273438 0.1875 8.484375 0.1875 14.449219 C 0.1875 17.308594 3.242188 31.246094 3.242188 31.246094 C 3.441406 32.078125 4.269531 32.640625 5.144531 32.503906 C 5.339844 32.46875 5.515625 32.40625 5.679688 32.320312 L 5.808594 32.3125 C 6.113281 32.480469 6.464844 32.566406 6.847656 32.523438 C 7.152344 32.492188 7.425781 32.375 7.652344 32.203125 L 8.027344 32.183594 C 8.332031 32.417969 8.722656 32.542969 9.140625 32.523438 C 9.566406 32.503906 9.9375 32.320312 10.21875 32.054688 L 10.875 32.011719 C 11.171875 32.3125 11.574219 32.511719 12.03125 32.523438 C 12.523438 32.535156 12.960938 32.34375 13.277344 32.023438 L 13.953125 32.066406 C 14.207031 32.3125 14.542969 32.46875 14.925781 32.511719 C 15.375 32.566406 15.800781 32.4375 16.128906 32.183594 L 16.542969 32.203125 C 16.738281 32.34375 16.96875 32.449219 17.21875 32.492188 C 17.578125 32.554688 17.929688 32.503906 18.234375 32.355469 C 18.367188 32.417969 18.519531 32.460938 18.671875 32.480469 C 19.546875 32.621094 20.375 32.066406 20.570312 31.226562 C 20.570312 31.226562 23.628906 17.277344 23.628906 14.429688 C 23.605469 8.496094 18.746094 4.273438 11.902344 4.273438 Z M 11.902344 4.273438 "/>
<path style=" stroke:none;fill-rule:nonzero;fill:rgb(100%,100%,100%);fill-opacity:1;" d="M 13.34375 13.417969 C 13.34375 10.605469 11 8.324219 8.113281 8.324219 C 5.222656 8.324219 2.882812 10.605469 2.882812 13.417969 C 2.882812 16.230469 5.222656 18.511719 8.113281 18.511719 C 11 18.511719 13.34375 16.230469 13.34375 13.417969 Z M 13.34375 13.417969 "/>
<path style=" stroke:none;fill-rule:nonzero;fill:rgb(22.745098%,17.647059%,33.333334%);fill-opacity:1;" d="M 8.113281 18.777344 C 5.078125 18.777344 2.597656 16.375 2.597656 13.40625 C 2.597656 10.441406 5.066406 8.039062 8.113281 8.039062 C 11.160156 8.039062 13.625 10.441406 13.625 13.40625 C 13.625 16.375 11.148438 18.777344 8.113281 18.777344 Z M 8.113281 8.601562 C 5.382812 8.601562 3.167969 10.761719 3.167969 13.417969 C 3.167969 16.074219 5.382812 18.234375 8.113281 18.234375 C 10.84375 18.234375 13.058594 16.074219 13.058594 13.417969 C 13.058594 10.761719 10.832031 8.601562 8.113281 8.601562 Z M 8.113281 8.601562 "/>
<path style=" stroke:none;fill-rule:nonzero;fill:rgb(22.745098%,17.647059%,33.333334%);fill-opacity:1;" d="M 9.195312 10.078125 C 8.289062 10.261719 8.113281 12.183594 8.648438 12.714844 C 9.007812 13.066406 9.730469 13.171875 9.730469 13.417969 C 9.730469 13.664062 9.007812 13.769531 8.648438 14.121094 C 8.101562 14.652344 8.289062 16.574219 9.195312 16.757812 C 10.265625 16.96875 11.902344 15.703125 11.902344 13.417969 C 11.902344 11.132812 10.265625 9.867188 9.195312 10.078125 Z M 9.195312 10.078125 "/>
<path style=" stroke:none;fill-rule:nonzero;fill:rgb(100%,100%,100%);fill-opacity:1;" d="M 5.546875 20.351562 C 5.734375 20.882812 6.3125 21.882812 7.03125 21.699219 C 7.382812 21.613281 7.578125 21.167969 7.578125 20.46875 M 10.273438 19.902344 C 10.460938 20.605469 10.636719 21.136719 11.179688 21.136719 C 11.726562 21.136719 12.449219 20.433594 12.261719 19.203125 "/>
<path style=" stroke:none;fill-rule:nonzero;fill:rgb(22.745098%,17.647059%,33.333334%);fill-opacity:1;" d="M 14.816406 17.480469 C 14.585938 17.234375 14.269531 17.054688 13.921875 16.992188 L 13.878906 16.992188 C 13.726562 16.980469 13.582031 17.097656 13.574219 17.246094 C 13.5625 17.394531 13.679688 17.53125 13.835938 17.542969 C 13.988281 17.554688 14.140625 17.597656 14.269531 17.671875 C 12.882812 18.585938 11.335938 19.242188 9.707031 19.617188 C 8.015625 20.007812 6.257812 20.085938 4.53125 19.839844 C 4.398438 19.820312 4.28125 19.902344 4.257812 20.03125 C 4.238281 20.160156 4.324219 20.277344 4.453125 20.296875 C 4.71875 20.339844 4.988281 20.371094 5.253906 20.390625 C 5.253906 20.402344 5.253906 20.414062 5.261719 20.425781 C 5.492188 21.09375 6.082031 21.988281 6.847656 21.988281 C 6.921875 21.988281 7 21.976562 7.085938 21.957031 C 7.371094 21.890625 7.839844 21.605469 7.839844 20.457031 C 7.839844 20.433594 7.828125 20.425781 7.828125 20.402344 C 8.496094 20.351562 9.160156 20.242188 9.816406 20.105469 C 9.882812 20.09375 9.945312 20.074219 10 20.0625 C 10.15625 20.660156 10.382812 21.402344 11.148438 21.402344 C 11.464844 21.402344 11.804688 21.234375 12.066406 20.945312 C 12.285156 20.699219 12.632812 20.148438 12.523438 19.222656 C 13.277344 18.894531 14 18.5 14.675781 18.054688 C 14.742188 18.160156 14.796875 18.277344 14.816406 18.40625 C 14.839844 18.5 14.925781 18.5625 15.023438 18.554688 C 15.132812 18.542969 15.210938 18.457031 15.199219 18.351562 C 15.1875 18.042969 15.046875 17.734375 14.816406 17.480469 Z M 7.28125 20.46875 C 7.28125 21 7.152344 21.382812 6.957031 21.421875 C 6.53125 21.53125 6.09375 20.914062 5.886719 20.445312 C 6.355469 20.46875 6.8125 20.46875 7.28125 20.445312 C 7.292969 20.457031 7.28125 20.46875 7.28125 20.46875 Z M 11.660156 20.59375 C 11.519531 20.753906 11.332031 20.859375 11.179688 20.859375 C 10.917969 20.859375 10.765625 20.636719 10.582031 19.933594 C 11.0625 19.796875 11.542969 19.636719 12 19.457031 C 12.023438 19.914062 11.902344 20.316406 11.660156 20.59375 Z M 11.660156 20.59375 "/>
<path style=" stroke:none;fill-rule:nonzero;fill:rgb(22.745098%,17.647059%,33.333334%);fill-opacity:1;" d="M 20.613281 6.953125 C 18.441406 5.070312 15.386719 4.03125 12 4.03125 C 8.613281 4.03125 5.558594 5.070312 3.386719 6.953125 C 1.199219 8.847656 0 11.523438 0 14.480469 C 0 17.4375 2.9375 30.769531 3.058594 31.34375 C 3.265625 32.226562 4.0625 32.832031 4.957031 32.832031 C 5.066406 32.832031 5.164062 32.820312 5.273438 32.8125 C 5.460938 32.777344 5.632812 32.726562 5.808594 32.640625 C 6.179688 32.800781 6.59375 32.863281 7 32.789062 C 7.304688 32.734375 7.589844 32.609375 7.828125 32.417969 C 8.035156 32.578125 8.289062 32.703125 8.550781 32.769531 C 8.976562 32.875 9.433594 32.84375 9.839844 32.660156 C 10.121094 32.535156 10.363281 32.34375 10.546875 32.121094 C 10.691406 32.289062 10.851562 32.4375 11.050781 32.554688 C 11.203125 32.652344 11.367188 32.714844 11.542969 32.769531 C 11.714844 32.820312 11.890625 32.84375 12.066406 32.84375 C 12.238281 32.84375 12.425781 32.8125 12.589844 32.769531 C 12.765625 32.714844 12.929688 32.652344 13.082031 32.554688 C 13.234375 32.460938 13.375 32.355469 13.496094 32.226562 C 13.527344 32.195312 13.5625 32.164062 13.582031 32.128906 C 13.890625 32.492188 14.335938 32.746094 14.816406 32.8125 C 15.296875 32.886719 15.800781 32.769531 16.191406 32.503906 C 16.238281 32.480469 16.269531 32.449219 16.300781 32.417969 C 16.53125 32.597656 16.804688 32.726562 17.089844 32.777344 C 17.296875 32.820312 17.503906 32.832031 17.710938 32.8125 C 17.894531 32.789062 18.070312 32.746094 18.246094 32.671875 C 18.398438 32.734375 18.550781 32.777344 18.714844 32.8125 C 19.730469 32.96875 20.714844 32.332031 20.933594 31.34375 C 21.050781 30.769531 23.988281 17.339844 23.988281 14.480469 C 24 11.523438 22.800781 8.855469 20.613281 6.953125 Z M 20.386719 31.226562 C 20.234375 31.894531 19.578125 32.34375 18.878906 32.269531 C 19.011719 32.140625 19.128906 31.992188 19.21875 31.832031 C 19.316406 31.652344 19.390625 31.460938 19.425781 31.269531 L 19.511719 30.757812 L 19.851562 28.726562 C 19.960938 28.046875 20.070312 27.367188 20.15625 26.6875 C 20.167969 26.589844 20.101562 26.507812 20.015625 26.484375 C 19.917969 26.464844 19.808594 26.527344 19.785156 26.621094 C 19.632812 27.292969 19.492188 27.972656 19.347656 28.644531 L 18.945312 30.664062 L 18.847656 31.164062 C 18.8125 31.300781 18.757812 31.4375 18.691406 31.554688 C 18.628906 31.683594 18.53125 31.789062 18.421875 31.886719 C 18.3125 31.980469 18.191406 32.066406 18.058594 32.121094 C 17.929688 32.171875 17.785156 32.214844 17.644531 32.238281 C 17.503906 32.257812 17.351562 32.238281 17.207031 32.214844 C 17.023438 32.183594 16.847656 32.097656 16.695312 32.003906 C 16.828125 31.8125 16.933594 31.597656 16.988281 31.363281 C 17.011719 31.3125 17.011719 31.246094 17.023438 31.195312 C 17.023438 31.164062 17.035156 31.128906 17.035156 31.109375 L 17.042969 31.035156 L 17.078125 30.738281 L 17.144531 30.140625 L 17.261719 28.953125 C 17.339844 28.152344 17.414062 27.355469 17.46875 26.558594 C 17.480469 26.464844 17.40625 26.378906 17.308594 26.367188 C 17.207031 26.355469 17.109375 26.421875 17.089844 26.527344 C 16.96875 27.3125 16.859375 28.113281 16.75 28.898438 L 16.597656 30.089844 L 16.519531 30.683594 C 16.5 30.875 16.476562 31.097656 16.433594 31.238281 C 16.355469 31.554688 16.136719 31.84375 15.855469 32.023438 C 15.570312 32.203125 15.222656 32.277344 14.894531 32.226562 C 14.554688 32.183594 14.25 32.003906 14.03125 31.746094 C 13.976562 31.683594 13.933594 31.621094 13.890625 31.546875 C 13.921875 31.460938 13.945312 31.375 13.964844 31.300781 C 14.007812 31.128906 14.007812 30.949219 14.007812 30.8125 L 14.019531 29.929688 C 14.03125 29.34375 14.042969 28.75 14.042969 28.164062 C 14.054688 27.578125 14.054688 26.984375 14.042969 26.398438 C 14.042969 26.304688 13.964844 26.21875 13.867188 26.21875 C 13.757812 26.207031 13.671875 26.292969 13.671875 26.390625 C 13.636719 26.972656 13.59375 27.570312 13.574219 28.152344 C 13.539062 28.738281 13.519531 29.335938 13.484375 29.917969 L 13.441406 30.800781 C 13.441406 30.875 13.441406 30.949219 13.429688 31.015625 C 13.429688 31.078125 13.417969 31.128906 13.410156 31.195312 C 13.375 31.3125 13.34375 31.429688 13.277344 31.535156 C 13.046875 31.972656 12.558594 32.257812 12.054688 32.246094 C 11.933594 32.246094 11.804688 32.238281 11.683594 32.195312 C 11.5625 32.164062 11.453125 32.109375 11.34375 32.054688 C 11.125 31.929688 10.953125 31.746094 10.832031 31.535156 C 10.765625 31.429688 10.734375 31.3125 10.699219 31.195312 C 10.667969 31.078125 10.667969 30.960938 10.65625 30.800781 L 10.613281 29.917969 C 10.589844 29.335938 10.558594 28.738281 10.527344 28.152344 C 10.492188 27.570312 10.460938 26.972656 10.425781 26.390625 C 10.417969 26.292969 10.339844 26.21875 10.242188 26.21875 C 10.132812 26.21875 10.054688 26.304688 10.054688 26.398438 L 10.054688 28.164062 C 10.054688 28.75 10.066406 29.34375 10.078125 29.929688 L 10.089844 30.8125 C 10.089844 30.949219 10.101562 31.128906 10.132812 31.300781 C 10.15625 31.386719 10.175781 31.472656 10.210938 31.554688 C 10.054688 31.800781 9.839844 32.003906 9.566406 32.121094 C 9.28125 32.246094 8.964844 32.269531 8.667969 32.195312 C 8.375 32.121094 8.101562 31.949219 7.917969 31.703125 C 7.816406 31.589844 7.742188 31.449219 7.699219 31.3125 C 7.675781 31.238281 7.652344 31.164062 7.644531 31.089844 C 7.632812 31.054688 7.632812 31.003906 7.621094 30.960938 L 7.601562 30.824219 L 7.316406 28.664062 C 7.21875 27.941406 7.121094 27.21875 7 26.507812 C 6.988281 26.410156 6.902344 26.347656 6.800781 26.347656 C 6.691406 26.355469 6.617188 26.441406 6.628906 26.546875 C 6.683594 27.269531 6.746094 27.996094 6.8125 28.71875 L 7.03125 30.886719 L 7.042969 31.023438 C 7.042969 31.066406 7.054688 31.109375 7.066406 31.171875 C 7.074219 31.28125 7.109375 31.386719 7.140625 31.480469 C 7.195312 31.664062 7.292969 31.832031 7.402344 31.992188 C 7.238281 32.097656 7.054688 32.183594 6.855469 32.214844 C 6.574219 32.269531 6.277344 32.226562 6.015625 32.109375 C 5.753906 31.980469 5.535156 31.789062 5.394531 31.535156 C 5.328125 31.40625 5.273438 31.28125 5.242188 31.140625 L 5.144531 30.640625 L 4.738281 28.632812 C 4.597656 27.960938 4.453125 27.292969 4.300781 26.621094 C 4.28125 26.527344 4.191406 26.464844 4.09375 26.484375 C 3.996094 26.496094 3.921875 26.589844 3.929688 26.699219 C 4.027344 27.378906 4.128906 28.046875 4.238281 28.726562 L 4.574219 30.75 L 4.664062 31.257812 C 4.695312 31.460938 4.773438 31.652344 4.859375 31.820312 C 4.945312 31.980469 5.054688 32.128906 5.199219 32.257812 C 5.175781 32.257812 5.164062 32.269531 5.144531 32.269531 C 4.421875 32.386719 3.734375 31.929688 3.570312 31.238281 C 3.539062 31.097656 0.523438 17.289062 0.523438 14.492188 C 0.523438 11.695312 1.660156 9.164062 3.710938 7.367188 C 5.777344 5.570312 8.703125 4.582031 11.945312 4.582031 C 15.1875 4.582031 18.113281 5.570312 20.179688 7.367188 C 22.242188 9.15625 23.367188 11.683594 23.367188 14.492188 C 23.433594 17.289062 20.417969 31.097656 20.386719 31.226562 Z M 20.386719 31.226562 "/>
</g>
</svg>
