<svg width="16" height="16" viewBox="0 0 16 16" fill="none" xmlns="http://www.w3.org/2000/svg">
<g clip-path="url(#clip0_3802_327)">
<path fill-rule="evenodd" clip-rule="evenodd" d="M15.0413 3.99998C14.9297 3.80668 14.7757 3.63788 14.6064 3.54012L8.72694 0.146642C8.38826 -0.0488805 7.83396 -0.0488805 7.49528 0.146642L1.61583 3.54012C1.2771 3.73559 1 4.21548 1 4.60648V11.3935C1 11.589 1.0693 11.8067 1.18094 12L4.00627 10.3692C3.60197 9.67186 3.37036 8.86251 3.37036 8.00011C3.37036 5.38681 5.49705 3.26074 8.1111 3.26074C9.79788 3.26074 11.371 4.16819 12.2165 5.62894L10.1649 6.81582C9.74168 6.08466 8.95468 5.63042 8.1111 5.63042C6.80405 5.63042 5.74073 6.69344 5.74073 8.00011C5.74073 9.30673 6.80405 10.3698 8.1111 10.3698C8.95442 10.3698 9.74112 9.91593 10.1645 9.18516C10.1647 9.18486 10.1648 9.18456 10.165 9.18425L11.1086 9.73007L15.0413 12C15.1529 11.8067 15.2222 11.589 15.2222 11.3935V4.60645C15.2222 4.41093 15.1529 4.19325 15.0413 4L15.0413 3.99998ZM11.1166 9.73473L12.2167 10.3711C11.3712 11.832 9.79797 12.7395 8.1111 12.7395C6.35971 12.7395 4.82709 11.7851 4.00627 10.3693L1.18091 12C1.2925 12.1933 1.44648 12.3621 1.6158 12.4598L7.49525 15.8533C7.83393 16.0488 8.38823 16.0488 8.72691 15.8533L14.6064 12.4598C14.7757 12.3621 14.9297 12.1933 15.0413 12L11.1166 9.73473ZM12.3251 7.73679H12.8519V8.26337H12.3251V8.78999H11.7984V8.26337H11.2716V7.73679H11.7984V7.21021H12.3251V7.73679ZM14.8272 7.73679H14.3004V7.21021H13.7737V7.73679H13.2469V8.26337H13.7737V8.78999H14.3004V8.26337H14.8272V7.73679Z" fill="#659AD2"/>
</g>
<defs>
<clipPath id="clip0_3802_327">
<rect width="14.2222" height="16" fill="white" transform="translate(1)"/>
</clipPath>
</defs>
</svg>
