<svg width="20" height="20" viewBox="0 0 20 20" fill="none" xmlns="http://www.w3.org/2000/svg">
<circle cx="10" cy="10" r="8" fill="#003662"/>
<path fill-rule="evenodd" clip-rule="evenodd" d="M17.0607 6.23529H2.93945C4.28612 3.71493 6.94282 2 10.0001 2C13.0573 2 15.714 3.71493 17.0607 6.23529Z" fill="#8FD3F2"/>
<path d="M8.52097 6.23535L4.82349 8.1177L9.99996 10.0001V6.23535H8.52097Z" fill="#B9E1F3"/>
<path d="M13.7647 12.5098L12.3529 13.7647L10 10H13.7647V12.5098Z" fill="#2D7EC0"/>
<path d="M9.99991 14.2354L7.64697 14.2354L9.99991 17.0589V14.2354Z" fill="#33A0DB"/>
<path d="M10 14.706V12.353L12.3529 13.7648L10 14.706Z" fill="#4BB4ED"/>
<path d="M7.64697 14.2354V12.353H9.99991V14.706L7.64697 14.2354Z" fill="#BFE9FB"/>
<path d="M12.3529 13.7646L10 17.0588V14.7058L12.3529 13.7646Z" fill="#00579D"/>
<path d="M10 10V12.3529L12.3529 13.7647L10 10Z" fill="#33A0DB"/>
<path d="M9.99991 10L7.64697 12.3529H9.99991V10Z" fill="#ABDCF1"/>
<path d="M13.7647 9.99991L15.6471 7.64697L13.2941 9.05874L10 9.99991H13.7647Z" fill="#00579D"/>
<path d="M10 6.23535V10.0001L13.2941 9.05888L13.2941 6.23535H10Z" fill="#4BB4ED"/>
<path d="M15.6471 7.64712L13.2942 9.05888V6.23535H14.706L15.6471 7.64712Z" fill="#2D7EC0"/>
<path d="M8.58819 6.23535L4.82349 8.1177L5.76466 6.23535H8.58819Z" fill="#90D4F0"/>
<path d="M6.19043 10.4706L7.64702 12.353L9.99996 10L4.82349 8.11768L6.19043 10.4706Z" fill="#90D4F0"/>
<path d="M14.2225 5.67042L14.7058 6.23512H5.76465L6.0063 5.67042L6.97292 5.29395H13.4976L14.2225 5.67042Z" fill="#F5FAFD"/>
</svg>
