<?xml version="1.0" encoding="UTF-8"?>
<svg xmlns="http://www.w3.org/2000/svg" xmlns:xlink="http://www.w3.org/1999/xlink" width="24px" height="24px" viewBox="0 0 24 24" version="1.1">
<g id="surface1">
<path style=" stroke:none;fill-rule:nonzero;fill:rgb(8.235294%,12.156863%,20.392157%);fill-opacity:1;" d="M 14.648438 6.878906 C 13.78125 7.078125 12.890625 7.179688 12 7.175781 C 11.109375 7.179688 10.21875 7.078125 9.351562 6.878906 C 10.0625 5.757812 10.957031 4.765625 12 3.945312 C 13.042969 4.769531 13.9375 5.757812 14.648438 6.878906 Z M 22.628906 0.425781 C 21.542969 0.144531 20.421875 0 19.300781 0 C 16.703125 -0.00390625 14.160156 0.761719 12 2.199219 C 9.839844 0.761719 7.296875 -0.00390625 4.699219 0 C 3.570312 -0.00390625 2.441406 0.140625 1.351562 0.425781 C 0.890625 0.542969 0.441406 0.683594 0 0.847656 C 0.1875 1.316406 0.398438 1.710938 0.625 2.09375 C 1.132812 1.929688 1.589844 1.796875 2.050781 1.6875 C 5.039062 1.011719 8.175781 1.515625 10.792969 3.097656 C 9.660156 4.050781 8.695312 5.1875 7.941406 6.457031 C 7.792969 6.699219 7.664062 6.945312 7.527344 7.207031 C 7.390625 7.46875 7.363281 7.546875 7.277344 7.726562 C 7.195312 7.90625 7.042969 8.265625 6.945312 8.535156 C 5.113281 13.433594 6.386719 18.945312 10.183594 22.558594 C 10.378906 22.746094 10.582031 22.925781 10.792969 23.109375 C 11.003906 23.289062 11.125 23.386719 11.296875 23.511719 C 11.472656 23.640625 11.742188 23.84375 11.96875 23.992188 C 12.257812 23.835938 12.484375 23.675781 12.703125 23.511719 C 12.921875 23.347656 13.039062 23.25 13.207031 23.109375 C 13.371094 22.964844 13.621094 22.746094 13.816406 22.558594 C 16.410156 20.089844 17.878906 16.671875 17.875 13.101562 C 17.878906 11.542969 17.601562 9.996094 17.054688 8.535156 C 16.949219 8.257812 16.835938 7.988281 16.714844 7.71875 C 16.59375 7.449219 16.546875 7.363281 16.464844 7.199219 C 16.382812 7.035156 16.199219 6.703125 16.050781 6.449219 C 15.296875 5.179688 14.332031 4.042969 13.199219 3.089844 C 15.824219 1.519531 18.960938 1.023438 21.949219 1.710938 C 22.410156 1.820312 22.867188 1.953125 23.3125 2.113281 C 23.59375 1.734375 23.800781 1.34375 23.992188 0.945312 C 23.546875 0.703125 23.089844 0.550781 22.628906 0.425781 Z M 22.628906 0.425781 "/>
<path style=" stroke:none;fill-rule:nonzero;fill:rgb(20.392157%,52.156866%,25.098041%);fill-opacity:1;" d="M 16.457031 13.101562 C 16.460938 16.085938 15.316406 18.953125 13.253906 21.121094 C 12.894531 19.984375 12.710938 18.800781 12.707031 17.609375 C 12.703125 14.628906 13.851562 11.757812 15.914062 9.59375 C 16.273438 10.726562 16.457031 11.910156 16.457031 13.101562 "/>
<path style=" stroke:none;fill-rule:nonzero;fill:rgb(49.019608%,73.725492%,25.882354%);fill-opacity:1;" d="M 11.3125 17.609375 C 11.3125 18.800781 11.128906 19.984375 10.769531 21.121094 C 7.84375 18.042969 6.824219 13.628906 8.109375 9.59375 C 10.171875 11.757812 11.320312 14.628906 11.3125 17.609375 "/>
</g>
</svg>
