<svg width="20" height="20" viewBox="0 0 20 20" fill="none" xmlns="http://www.w3.org/2000/svg">
<path d="M8.68 17.92C4.88 17.24 2 13.96 2 10C2 5.6 5.6 2 10 2C14.4 2 18 5.6 18 10C18 13.96 15.12 17.24 11.32 17.92L10.88 17.56H9.12L8.68 17.92Z" fill="url(#paint0_linear_3440_304)"/>
<path d="M13.12 12.2401L13.48 10.0001H11.36V8.44012C11.36 7.80012 11.6 7.32012 12.56 7.32012H13.6V5.28012C13.04 5.20012 12.4 5.12012 11.84 5.12012C9.99997 5.12012 8.71997 6.24012 8.71997 8.24012V10.0001H6.71997V12.2401H8.71997V17.8801C9.15997 17.9601 9.59997 18.0001 10.04 18.0001C10.48 18.0001 10.92 17.9601 11.36 17.8801V12.2401H13.12Z" fill="white"/>
<defs>
<linearGradient id="paint0_linear_3440_304" x1="10.0004" y1="17.4436" x2="10.0004" y2="1.99705" gradientUnits="userSpaceOnUse">
<stop stop-color="#0062E0"/>
<stop offset="1" stop-color="#19AFFF"/>
</linearGradient>
</defs>
</svg>
