<svg width="20" height="20" viewBox="0 0 20 20" fill="none" xmlns="http://www.w3.org/2000/svg">
<path d="M10 2C5.57233 2 2 5.58974 2 10C2 14.4103 5.57233 18 10 18C14.4277 18 18 14.4103 18 10C18 5.58974 14.4277 2 10 2ZM8.33962 13.3333C6.5283 13.3333 5.01887 11.8462 5.01887 10C5.01887 8.15385 6.5283 6.66667 8.33962 6.66667C10.1509 6.66667 11.6604 8.15385 11.6604 10C11.6604 11.8462 10.1509 13.3333 8.33962 13.3333ZM14.2767 11.1795H12.717V8.82051H14.2767C14.9308 8.82051 15.4843 9.33333 15.4843 10C15.4843 10.6667 14.9308 11.1795 14.2767 11.1795Z" fill="#FCBC41"/>
</svg>
