<svg xmlns="http://www.w3.org/2000/svg" width="48" height="48" fill="currentColor"><path fill="url(#i7fa1c1-a)" fill-rule="evenodd" d="m5.64 31.6-.586 2.144c-.218.685-.524 1.693-.689 2.59a5.63 5.63 0 0 0 4.638 7.588c.792.114 1.688.108 2.692-.04l4.613-.636a2.92 2.92 0 0 0 2.421-2.127l3.175-11.662L5.64 31.599Z" clip-rule="evenodd"/><path fill="url(#i7fa1c1-b)" d="M10.14 32.152c-4.863.753-5.861 4.423-5.861 4.423l4.656-17.11 24.333-3.292-3.318 12.052a1.71 1.71 0 0 1-1.388 1.244l-.136.022-18.423 2.684z"/><path fill="url(#i7fa1c1-c)" fill-opacity=".8" d="M10.14 32.152c-4.863.753-5.861 4.423-5.861 4.423l4.656-17.11 24.333-3.292-3.318 12.052a1.71 1.71 0 0 1-1.388 1.244l-.136.022-18.423 2.684z"/><path fill="url(#i7fa1c1-d)" d="m12.899 21.235 26.938-3.98a1.6 1.6 0 0 0 1.323-1.17l2.78-10.06a1.595 1.595 0 0 0-1.74-2.012L16.498 7.81a7.19 7.19 0 0 0-5.777 5.193L7.013 26.438c.744-2.717 1.202-4.355 5.886-5.203"/><path fill="url(#i7fa1c1-e)" d="m12.899 21.235 26.938-3.98a1.6 1.6 0 0 0 1.323-1.17l2.78-10.06a1.595 1.595 0 0 0-1.74-2.012L16.498 7.81a7.19 7.19 0 0 0-5.777 5.193L7.013 26.438c.744-2.717 1.202-4.355 5.886-5.203"/><path fill="url(#i7fa1c1-f)" fill-opacity=".4" d="m12.899 21.235 26.938-3.98a1.6 1.6 0 0 0 1.323-1.17l2.78-10.06a1.595 1.595 0 0 0-1.74-2.012L16.498 7.81a7.19 7.19 0 0 0-5.777 5.193L7.013 26.438c.744-2.717 1.202-4.355 5.886-5.203"/><path fill="url(#i7fa1c1-g)" d="M12.899 21.236c-3.901.706-4.87 1.962-5.514 3.932L4.279 36.577s.992-3.633 5.796-4.41l18.352-2.673.136-.022a1.71 1.71 0 0 0 1.388-1.244l2.73-9.915z"/><path fill="url(#i7fa1c1-h)" fill-opacity=".2" d="M12.899 21.236c-3.901.706-4.87 1.962-5.514 3.932L4.279 36.577s.992-3.633 5.796-4.41l18.352-2.673.136-.022a1.71 1.71 0 0 0 1.388-1.244l2.73-9.915z"/><path fill="url(#i7fa1c1-i)" fill-rule="evenodd" d="M10.075 32.167c-4.06.657-5.392 3.345-5.71 4.164a5.63 5.63 0 0 0 4.638 7.59c.792.114 1.688.108 2.692-.039l4.613-.637a2.92 2.92 0 0 0 2.421-2.127l2.894-10.633-11.547 1.683z" clip-rule="evenodd"/><defs><linearGradient id="i7fa1c1-a" x1="12.953" x2="12.953" y1="44.001" y2="29.457" gradientUnits="userSpaceOnUse"><stop offset=".056" stop-color="#2AAC94"/><stop offset=".155" stop-color="#239C87"/><stop offset=".372" stop-color="#177E71"/><stop offset=".588" stop-color="#0E6961"/><stop offset=".799" stop-color="#095D57"/><stop offset="1" stop-color="#085954"/></linearGradient><linearGradient id="i7fa1c1-b" x1="31.331" x2="17.286" y1="33.448" y2="18.173" gradientUnits="userSpaceOnUse"><stop offset=".042" stop-color="#ABE88E"/><stop offset=".549" stop-color="#2AAA92"/><stop offset=".906" stop-color="#117865"/></linearGradient><linearGradient id="i7fa1c1-c" x1="-3.182" x2="10.183" y1="32.706" y2="28.148" gradientUnits="userSpaceOnUse"><stop stop-color="#6AD6F9"/><stop offset="1" stop-color="#6AD6F9" stop-opacity="0"/></linearGradient><linearGradient id="i7fa1c1-d" x1="7.013" x2="42.589" y1="15.219" y2="15.219" gradientUnits="userSpaceOnUse"><stop offset=".043" stop-color="#25FFD4"/><stop offset=".874" stop-color="#55DDB9"/></linearGradient><linearGradient id="i7fa1c1-e" x1="7.013" x2="39.06" y1="10.247" y2="25.128" gradientUnits="userSpaceOnUse"><stop stop-color="#6AD6F9"/><stop offset=".23" stop-color="#60E9D0"/><stop offset=".651" stop-color="#6DE9BB"/><stop offset=".994" stop-color="#ABE88E"/></linearGradient><linearGradient id="i7fa1c1-f" x1="9.978" x2="27.404" y1="13.031" y2="16.885" gradientUnits="userSpaceOnUse"><stop stop-color="#fff" stop-opacity="0"/><stop offset=".459" stop-color="#fff"/><stop offset="1" stop-color="#fff" stop-opacity="0"/></linearGradient><linearGradient id="i7fa1c1-g" x1="15.756" x2="16.168" y1="27.96" y2="15.74" gradientUnits="userSpaceOnUse"><stop offset=".205" stop-color="#063D3B" stop-opacity="0"/><stop offset=".586" stop-color="#063D3B" stop-opacity=".237"/><stop offset=".872" stop-color="#063D3B" stop-opacity=".75"/></linearGradient><linearGradient id="i7fa1c1-h" x1="2.81" x2="17.701" y1="26.744" y2="29.545" gradientUnits="userSpaceOnUse"><stop stop-color="#fff" stop-opacity="0"/><stop offset=".459" stop-color="#fff"/><stop offset="1" stop-color="#fff" stop-opacity="0"/></linearGradient><linearGradient id="i7fa1c1-i" x1="13.567" x2="10.662" y1="39.97" y2="25.764" gradientUnits="userSpaceOnUse"><stop offset=".064" stop-color="#063D3B" stop-opacity="0"/><stop offset=".17" stop-color="#063D3B" stop-opacity=".135"/><stop offset=".562" stop-color="#063D3B" stop-opacity=".599"/><stop offset=".85" stop-color="#063D3B" stop-opacity=".9"/><stop offset="1" stop-color="#063D3B"/></linearGradient></defs></svg>