<svg width="20" height="20" viewBox="0 0 20 20" fill="none" xmlns="http://www.w3.org/2000/svg">
<path fill-rule="evenodd" clip-rule="evenodd" d="M6.12097 18.8252C5.29789 18.4709 4.81192 17.6488 4.92098 16.7952L5.4753 12.4567L2.27719 11.1984C1.47592 10.8831 0.966571 10.1252 1.00171 9.30061C1.03685 8.47597 1.609 7.75989 2.43446 7.50744L6.39165 6.2972L7.06531 2.62857C7.21159 1.83196 7.85511 1.20173 8.68747 1.03989C9.51982 0.878056 10.3714 1.21759 10.8342 1.89579L12.6323 4.53118L16.4266 3.61752C17.2916 3.40922 18.1994 3.75293 18.6778 4.46988C19.1562 5.18683 19.0972 6.1151 18.5315 6.77191L15.8166 9.92385L17.3864 12.8278C17.7574 13.5142 17.6724 14.3438 17.169 14.949C16.6655 15.5542 15.8367 15.8232 15.0497 15.6368L11.7761 14.8613L8.51473 18.3421C7.91348 18.9838 6.94405 19.1795 6.12097 18.8252ZM11.0643 12.6655L15.5488 13.7278L13.3582 9.67542L16.9334 5.52464L11.7049 6.78364L9.10104 2.96729L8.2124 7.80658L3.0666 9.38034L7.71642 11.2098L6.97245 17.0327L11.0643 12.6655Z" fill="#C74D15"/>
</svg>
