<svg xmlns="http://www.w3.org/2000/svg" width="20" height="20" fill="none"><mask id="a" width="12" height="10" x="1" y="8.5" fill="#000" maskUnits="userSpaceOnUse"><path fill="#fff" d="M1 8.5h12v10H1z"/><path d="m12.1 9.5-3.5 1-3 1.2-1 .3-.6.5-.7.6-.7.6-.5.8c-.2.4-.1.8.2 1.2.3.5 1 1 1.9 1.3l1.7.5a24.3 24.3 0 0 0 3.6.5h.4l.4-.6c.6-1.1 1-2.1 1.2-3A13.1 13.1 0 0 0 12 11a8.2 8.2 0 0 0-.2-1.2l.5-.1-.1-.2zm-.8.4.1 1.2a.6.6 0 0 1 0 .2l-.7-.4-.9-.5.2-.1 1.3-.4zm-1.8.5.2.1 1.7.9-.2.1-1.8 1h-.2v-.1l.3-1.7v-.3zm-.4.2a4.8 4.8 0 0 1-.2 1.7v.2l-.6-.4a3.3 3.3 0 0 1-.5-.7 2 2 0 0 1-.1-.3 33.3 33.3 0 0 1 1.4-.5zm-1.7.6.5.8.6.6.1.1-.4.2-1.6.5-.5.1a13.2 13.2 0 0 0 1.1-2l.1-.2v-.1h.1zm-.5.2-.3.5-.9 1.4-.1.2a2 2 0 0 1-.3-.6 2 2 0 0 1 0-.7l.1-.2 1.5-.6zm4.6.2-.2 1.9v.2H11a7.2 7.2 0 0 1-1.2-.6l-.6-.3.2-.1 1.5-.8.4-.3zm-6.6.7v.3c0 .4 0 .7.2 1v.2l-2.3.6-.3.1c0-.4.4-.9.8-1.3l.9-.6.7-.3zM9 13a1.1 1.1 0 0 1 .2 0 6 6 0 0 0 2 .7v.1l-2.7 1-.4.1v-.1L9 13zm-.4 0v.2a14.8 14.8 0 0 1-1 1.7l-.2.3a5 5 0 0 1-.1-.1c-.6-.3-1-.7-1.4-1.1l.2-.1 2.3-.8h.2zm2.6 1-.2.8-.3 1-.2.3-2.2-.5-.4-.2.3-.2 3-1.2zm-6 .1-.8 1-.5.6-.2.3-.1.2-.1-.1a4.2 4.2 0 0 1-.5-.5 2 2 0 0 1-.5-.7v-.2l1.4-.3 1-.2.3-.1zm.3.1v.1a5 5 0 0 0 1.5 1l-2.4.8-.8.2v-.1L5 14.7l.5-.5zm2.1 1.4H8a9.1 9.1 0 0 0 1 .4 11.8 11.8 0 0 0 1.5.2l-.7.2-3 .8-.3.1h-.2a1.8 1.8 0 0 1 .2-.2 14.6 14.6 0 0 0 1-1.3l.2-.2zm-.4 0a29.4 29.4 0 0 1-.6.8l-.3.5-.2.2v.2H6L5 17l-.6-.3-.4-.3.8-.2 2.2-.5h.2zm3.3.7a21 21 0 0 1-.7 1.6 58.8 58.8 0 0 1-1-.2l-2-.3h-.1.4l1.6-.5 1.6-.5h.2z"/></mask><path fill="#909ca9" d="m12.1 9.5-3.5 1-3 1.2-1 .3-.6.5-.7.6-.7.6-.5.8c-.2.4-.1.8.2 1.2.3.5 1 1 1.9 1.3l1.7.5a24.3 24.3 0 0 0 3.6.5h.4l.4-.6c.6-1.1 1-2.1 1.2-3A13.1 13.1 0 0 0 12 11a8.2 8.2 0 0 0-.2-1.2l.5-.1-.1-.2zm-.8.4.1 1.2a.6.6 0 0 1 0 .2l-.7-.4-.9-.5.2-.1 1.3-.4zm-1.8.5.2.1 1.7.9-.2.1-1.8 1h-.2v-.1l.3-1.7v-.3zm-.4.2a4.8 4.8 0 0 1-.2 1.7v.2l-.6-.4a3.3 3.3 0 0 1-.5-.7 2 2 0 0 1-.1-.3 33.3 33.3 0 0 1 1.4-.5zm-1.7.6.5.8.6.6.1.1-.4.2-1.6.5-.5.1a13.2 13.2 0 0 0 1.1-2l.1-.2v-.1h.1zm-.5.2-.3.5-.9 1.4-.1.2a2 2 0 0 1-.3-.6 2 2 0 0 1 0-.7l.1-.2 1.5-.6zm4.6.2-.2 1.9v.2H11a7.2 7.2 0 0 1-1.2-.6l-.6-.3.2-.1 1.5-.8.4-.3zm-6.6.7v.3c0 .4 0 .7.2 1v.2l-2.3.6-.3.1c0-.4.4-.9.8-1.3l.9-.6.7-.3zM9 13a1.1 1.1 0 0 1 .2 0 6 6 0 0 0 2 .7v.1l-2.7 1-.4.1v-.1L9 13zm-.4 0v.2a14.8 14.8 0 0 1-1 1.7l-.2.3a5 5 0 0 1-.1-.1c-.6-.3-1-.7-1.4-1.1l.2-.1 2.3-.8h.2zm2.6 1-.2.8-.3 1-.2.3-2.2-.5-.4-.2.3-.2 3-1.2zm-6 .1-.8 1-.5.6-.2.3-.1.2-.1-.1a4.2 4.2 0 0 1-.5-.5 2 2 0 0 1-.5-.7v-.2l1.4-.3 1-.2.3-.1zm.3.1v.1a5 5 0 0 0 1.5 1l-2.4.8-.8.2v-.1L5 14.7l.5-.5zm2.1 1.4H8a9.1 9.1 0 0 0 1 .4 11.8 11.8 0 0 0 1.5.2l-.7.2-3 .8-.3.1h-.2a1.8 1.8 0 0 1 .2-.2 14.6 14.6 0 0 0 1-1.3l.2-.2zm-.4 0a29.4 29.4 0 0 1-.6.8l-.3.5-.2.2v.2H6L5 17l-.6-.3-.4-.3.8-.2 2.2-.5h.2zm3.3.7a21 21 0 0 1-.7 1.6 58.8 58.8 0 0 1-1-.2l-2-.3h-.1.4l1.6-.5 1.6-.5h.2z"/><path stroke="#909ca9" stroke-width=".2" d="m12.1 9.5-3.5 1-3 1.2-1 .3-.6.5-.7.6-.7.6-.5.8c-.2.4-.1.8.2 1.2.3.5 1 1 1.9 1.3l1.7.5a24.3 24.3 0 0 0 3.6.5h.4l.4-.6c.6-1.1 1-2.1 1.2-3A13.1 13.1 0 0 0 12 11a8.2 8.2 0 0 0-.2-1.2l.5-.1-.1-.2zm-.8.4.1 1.2a.6.6 0 0 1 0 .2l-.7-.4-.9-.5.2-.1 1.3-.4zm-1.8.5.2.1 1.7.9-.2.1-1.8 1h-.2v-.1l.3-1.7v-.3zm-.4.2a4.8 4.8 0 0 1-.2 1.7v.2l-.6-.4a3.3 3.3 0 0 1-.5-.7 2 2 0 0 1-.1-.3 33.3 33.3 0 0 1 1.4-.5zm-1.7.6.5.8.6.6.1.1-.4.2-1.6.5-.5.1a13.2 13.2 0 0 0 1.1-2l.1-.2v-.1h.1zm-.5.2-.3.5-.9 1.4-.1.2a2 2 0 0 1-.3-.6 2 2 0 0 1 0-.7l.1-.2 1.5-.6zm4.6.2-.2 1.9v.2H11a7.2 7.2 0 0 1-1.2-.6l-.6-.3.2-.1 1.5-.8.4-.3zm-6.6.7v.3c0 .4 0 .7.2 1v.2l-2.3.6-.3.1c0-.4.4-.9.8-1.3l.9-.6.7-.3zM9 13a1.1 1.1 0 0 1 .2 0 6 6 0 0 0 2 .7v.1l-2.7 1-.4.1v-.1L9 13zm-.4 0v.2a14.8 14.8 0 0 1-1 1.7l-.2.3a5 5 0 0 1-.1-.1c-.6-.3-1-.7-1.4-1.1l.2-.1 2.3-.8h.2zm2.6 1-.2.8-.3 1-.2.3-2.2-.5-.4-.2.3-.2 3-1.2zm-6 .1-.8 1-.5.6-.2.3-.1.2-.1-.1a4.2 4.2 0 0 1-.5-.5 2 2 0 0 1-.5-.7v-.2l1.4-.3 1-.2.3-.1zm.3.1v.1a5 5 0 0 0 1.5 1l-2.4.8-.8.2v-.1L5 14.7l.5-.5zm2.1 1.4H8a9.1 9.1 0 0 0 1 .4 11.8 11.8 0 0 0 1.5.2l-.7.2-3 .8-.3.1h-.2a1.8 1.8 0 0 1 .2-.2 14.6 14.6 0 0 0 1-1.3l.2-.2zm-.4 0a29.4 29.4 0 0 1-.6.8l-.3.5-.2.2v.2H6L5 17l-.6-.3-.4-.3.8-.2 2.2-.5h.2zm3.3.7a21 21 0 0 1-.7 1.6 58.8 58.8 0 0 1-1-.2l-2-.3h-.1.4l1.6-.5 1.6-.5h.2z" mask="url(#a)"/><path fill="#909ca9" stroke="#909ca9" stroke-width=".2" d="M8.7 2.7a5 5 0 0 0 .1.6v.1l.1.1v.1a.1.1 0 0 1 .1.2l.1.1m-.4-1.2.7 2m-.7-2 .2.5m-.2-.5L9.8 5m-.7-1zm0 0 .2.4.2.4m0 0zm0 0a.1.1 0 0 1 0 .1m0 0h-.4v-.1m.4.1h.3m-.3 0h.3m-.7-.1h.2m-.2 0-1-.2m1 .2-1-.1m1.3.2zm-.4-1A.8.8 0 0 1 9 4v-.1zm0 0-.2.1h-.1m.2 0a5.3 5.3 0 0 1-.8.5H8m0 0a5 5 0 0 0 .7-.4m-.7.4h-.1v.1m.8-.5V4l-1 .5m1-.4-1 .4M9 3.8zm-1.2.6-.1.1m.1 0v-.1m0 0L7 4.3m2-.6h-.2c-.7 0-2-.3-2.6-.4v-.1H6m3 .5-.1-.2-2.4-.4m2.4.6H9m-3.1-.5h-.2a2.5 2.5 0 0 0-.5.4L5 4l-.2-.3a1.7 1.7 0 0 1 .3-.2c.3-.3.9-.5 1.5-.8m-.7.5v.2l.3.2M6 3.1v.1h.5m0 0a19 19 0 0 0 2.2.4l-2.2-.3zm0 0h-.2m0 0zm-.3 0V3h.1l.3-.2h.2M6 3l.6-.4m0 0L5.1 4h.2l.6.2.7.2-.7-.2-.6-.2H5c0-.2.3-.4.6-.7l.5.4.4.5v.1h.1m-.5-.7.4.5h.1v.2m-.5-.7.7.7.1-.1m-.8-.6L6 3.4l1 .8m-.2.2h-.4l-.5-.1 2 .3m-1.1-.2h.4m0 0v.1h.3m-.3 0-.3-.2m.3.2h.4m0 0h.3m0 0H8m0 0 .2.2H8l-.1-.1H8m0 0h.1m-1.2-.3v-.1m0 0 .5.2h-.1L7 4.2m2.8.7v-.1l-1-1.6m0 0H9zm.6 1.6zm0-.2zm-.7-.8h.1zM6 3.3zm3 .4a1 1 0 0 1-.2 0 .1.1 0 0 0 0 .1H9zm0 0z"/><mask id="b" width="16" height="11" x="2.3" y="2.7" fill="#000" maskUnits="userSpaceOnUse"><path fill="#fff" d="M2.3 2.7h16v11h-16z"/><path d="M4.7 3.7v.2l.2.2 1.4 1.3c.6.6.9 1.3 1 2.3 0 .6-.2 1-.5 1.7-.5 1-1.7 2.3-3.5 3.7l.3-.1.9-.5c1.2-.7 2.7-1.2 4.4-1.8 2.5-.9 6.5-1.9 8.9-2.2h.2l-.6-.8c-.5-.6-1.1-1-1.9-1.4-1-.5-2.3-1-4-1.3l-1.6-.2L7 4.4l-1-.2-.8-.2a.5.5 0 0 1-.5-.3zm.7.6.5.1h.3l.3.2.4 1V6a.5.5 0 0 1 0-.1c-.3-.5-.8-1-1.4-1.4a1.1 1.1 0 0 1-.1-.1zm1.3.3h.1l1.8.3a.7.7 0 0 1 .2 0l-.1.1a9.8 9.8 0 0 0-1.3.9h-.2c0-.3-.3-.8-.5-1.2v-.1zM9 5v.3a3.6 3.6 0 0 1 .2 1v.3H9l-1-.3-.4-.1.5-.5L9 5zm.2 0 1.6.3.9.2h-.2l-1.8 1h-.2A3.1 3.1 0 0 0 9.2 5zm2.8.5V6l-.7 1.4-.2.1H11L10 7l-.3-.1L11 6l1-.5zm.2 0a17.8 17.8 0 0 1 2.5.9h.2-.1l-3 1h-.2v-.1a4.6 4.6 0 0 0 .6-1.7zm-4.8 1 .5.2L9 7l-.2.1-1 1-.3.1V6.6zm7.7 0a4.6 4.6 0 0 1-.3.5L14 8l-.7.9-.2.2V9A5.2 5.2 0 0 0 12 8l-.2-.2.7-.4 2-.6.7-.2zm.2.1.2.1a9 9 0 0 1 1.7 1.2l.5.5h-.2c-1.2 0-2.6.3-4 .6h-.1l.2-.2a5 5 0 0 0 1.6-2l.1-.2zm-5.9.6.7.3.6.3h-.3L9 8.7l-.2.1v-.1a4.8 4.8 0 0 0 .6-1.4zm-.3 0-.2.5a5.7 5.7 0 0 1-.4 1l-.2.2V9H8a2 2 0 0 0-.5-.4h-.1l.8-.7.8-.6zm2 .8.2.1 1 .6.4.4-.2.1-3.2 1h-.2l.2-.2a11 11 0 0 0 1.8-1.8V8zm-.5.2-.5.7L9 10l-.3.2a2 2 0 0 0-.3-1l1.3-.8.8-.3zm-3.3.7a1.2 1.2 0 0 1 .1 0 3 3 0 0 1 .5.4h-.2L7 10l-.3.1a4.4 4.4 0 0 0 .4-.6 4.3 4.3 0 0 0 .2-.5zm.9.6v.2a1.7 1.7 0 0 1 .4.7l-.4.1-1.6.7-.5.2H6a4.3 4.3 0 0 1 .2 0l2-1.7v-.2zm-.4.1-.5.6a8.7 8.7 0 0 1-1.7 1.2h-.1l.2-.2.5-.5.3-.3 1.3-.8z"/></mask><path fill="#ee352c" d="M4.7 3.7v.2l.2.2 1.4 1.3c.6.6.9 1.3 1 2.3 0 .6-.2 1-.5 1.7-.5 1-1.7 2.3-3.5 3.7l.3-.1.9-.5c1.2-.7 2.7-1.2 4.4-1.8 2.5-.9 6.5-1.9 8.9-2.2h.2l-.6-.8c-.5-.6-1.1-1-1.9-1.4-1-.5-2.3-1-4-1.3l-1.6-.2L7 4.4l-1-.2-.8-.2a.5.5 0 0 1-.5-.3zm.7.6.5.1h.3l.3.2.4 1V6a.5.5 0 0 1 0-.1c-.3-.5-.8-1-1.4-1.4a1.1 1.1 0 0 1-.1-.1zm1.3.3h.1l1.8.3a.7.7 0 0 1 .2 0l-.1.1a9.8 9.8 0 0 0-1.3.9h-.2c0-.3-.3-.8-.5-1.2v-.1zM9 5v.3a3.6 3.6 0 0 1 .2 1v.3H9l-1-.3-.4-.1.5-.5L9 5zm.2 0 1.6.3.9.2h-.2l-1.8 1h-.2A3.1 3.1 0 0 0 9.2 5zm2.8.5V6l-.7 1.4-.2.1H11L10 7l-.3-.1L11 6l1-.5zm.2 0a17.8 17.8 0 0 1 2.5.9h.2-.1l-3 1h-.2v-.1a4.6 4.6 0 0 0 .6-1.7zm-4.8 1 .5.2L9 7l-.2.1-1 1-.3.1V6.6zm7.7 0a4.6 4.6 0 0 1-.3.5L14 8l-.7.9-.2.2V9A5.2 5.2 0 0 0 12 8l-.2-.2.7-.4 2-.6.7-.2zm.2.1.2.1a9 9 0 0 1 1.7 1.2l.5.5h-.2c-1.2 0-2.6.3-4 .6h-.1l.2-.2a5 5 0 0 0 1.6-2l.1-.2zm-5.9.6.7.3.6.3h-.3L9 8.7l-.2.1v-.1a4.8 4.8 0 0 0 .6-1.4zm-.3 0-.2.5a5.7 5.7 0 0 1-.4 1l-.2.2V9H8a2 2 0 0 0-.5-.4h-.1l.8-.7.8-.6zm2 .8.2.1 1 .6.4.4-.2.1-3.2 1h-.2l.2-.2a11 11 0 0 0 1.8-1.8V8zm-.5.2-.5.7L9 10l-.3.2a2 2 0 0 0-.3-1l1.3-.8.8-.3zm-3.3.7a1.2 1.2 0 0 1 .1 0 3 3 0 0 1 .5.4h-.2L7 10l-.3.1a4.4 4.4 0 0 0 .4-.6 4.3 4.3 0 0 0 .2-.5zm.9.6v.2a1.7 1.7 0 0 1 .4.7l-.4.1-1.6.7-.5.2H6a4.3 4.3 0 0 1 .2 0l2-1.7v-.2zm-.4.1-.5.6a8.7 8.7 0 0 1-1.7 1.2h-.1l.2-.2.5-.5.3-.3 1.3-.8z"/><path fill="#ee352c" d="M4.7 3.7v-.3.2zm0 .2h-.1zm.2.2H5zm1.4 1.3v-.1zm1 2.3zm-.5 1.7zM3.3 13v.1zm.3-.1zm.9-.5v-.1zm4.4-1.8zm8.9-2.2zm.2 0h.2l-.1-.1H18zm0 0v-.1zm-.6-.8h.1zm-1.9-1.4v-.1zm-4-1.3V5zm-1.6-.2zM7 4.4v-.1zm-1-.2h-.1zM5.1 4v.1zm.2.3v-.1h-.1zm0 0h.1zm.5.1v.1zm.3.1zm.3 0zM7 5.8h-.1zM7 6v-.1zm0-.1zM5.5 4.4v-.1zm1.3.2zm1.8.3V5zm0 .1.1.1zm-.5.3v.1zm-.7.6v-.1zm-.2 0v.4l.1-.1V6zm0 0h.1zm-.5-1.2h.1zM9 5v.1V5zm0 .3h.2H9zm.2 1h.1-.1zm0 .3H9zm0 0v.1zm-.2 0v-.1zm-1-.3v-.1zm0-.6zM9.3 5H9zm1.6.3v-.1zm.9.2zm-.2 0zm-1.8 1zM9.2 5zm2.8.4v.1zm0 .4h-.2.1zm-.7 1.4-.1-.1zm-.2.1zm-.1 0zm-1-.5zm-.3-.1h.1zM11 6v.1zm2-.2v-.1zm1.7.6zm.2 0v.1h.4l-.3-.2v.1zm-.1 0v.2-.1zm-3 1v-.2.1zm-.1-.1h-.1zm.5-1.7zm-4.8 1zm.6.1v-.1.1zm.7.4h.1zm-1 1zm-.3 0zm0-1.4h-.1zm7.7-.1zm-.3.4zM14 8zm-.7.9h.1zM13 9zm-1.1-1zm-.2-.2v-.1zm.7-.4v.1zm2-.6zm1-.1zm1.8 1.2h.1zm.5.5zm-.2 0v-.1zm-4 .6zm.1-.2zm1.6-2V7zm-5.8.4V7zm.7.3zm.6.3v-.1zm-.3 0zM9 8.7zm-.1 0zm.5-1.4h-.1zm-.3 0v.1zm-.2.5H9zm-.4 1zm-.2.2h.1zm0 .1h-.1v.2l.1-.1zM8 9zm-.5-.4v.1zm.7-.7zm2.9.2V8H11zm.1.1v.1zm1 .6-.1.1zm.4.4v.1zm0 0v.2h.3l-.2-.2zm-.2.1v.1zm-3.2 1V10zm0-.2zM11 8.3zm-.5 0 .1-.1zM10 9zm-1 1zm-.3.2v.1zm-.3-1h.1zm0 0-.1-.1zm1.3-.8zM7.4 9v-.1zm.5.3v-.1zm-.2 0v.2-.1zM7 10zm-.3.1h.1zm.4-.6zm.2-.5h.1zm1 .5v.1zm0 .2.2-.1h-.1zm.4.7zm0 0v.1-.1zm-.4.1zm-1.6.7V11zm-.5.2v-.1zm0 0v-.1H6zm2-1.7L8 9.6zm0-.2zm-.3.1-.1.1zm-.5.6-.1-.1zm-1.7 1.2v-.1zm-.1 0v.1zm.2-.2V11zm.5-.5zm.3-.3v.1zM4.7 3.7h-.1V4h.2v-.2h-.1zm-.1.2a.6.6 0 0 0 .1.2 2.3 2.3 0 0 0 .2.1l.1-.1-.1-.2h-.3zm.3.2v.1l.2.2.4.4.7.6.1-.1-.7-.7-.4-.4H5V4h-.2zm1.3 1.3c.6.7.9 1.3 1 2.3h.1c0-1-.3-1.7-1-2.4l-.1.1zm1 2.3c0 .5-.2 1-.5 1.6l.2.1c.3-.6.4-1.1.4-1.8h-.2zm-.5 1.6C6.2 10.4 5 11.6 3.2 13l.2.1c1.8-1.3 3-2.5 3.5-3.7h-.2zm-3.4 3.8h.3v-.2h-.3v.2zm.3 0 1-.5-.1-.2-1 .5.1.2zm1-.5c1.2-.7 2.6-1.2 4.3-1.8v-.2c-1.8.6-3.2 1.1-4.4 1.8v.2zm4.3-1.8c2.5-.9 6.6-1.9 8.9-2.2v-.2c-2.4.3-6.5 1.3-9 2.2l.1.2zm8.9-2.2h.2v-.2h-.3v.2zm.3-.2h-.2v.1h.2zm0 0-.6-.7h-.1l.5.8.1-.1zm-.6-.7a5.3 5.3 0 0 0-2-1.5v.2c.7.4 1.4.8 1.9 1.4l.1-.1zm-2-1.5c-1-.5-2.3-1-4-1.3v.2c1.6.3 3 .8 4 1.3v-.2zm-4-1.3-1.6-.2v.2l1.5.2V5zm-1.6-.2L7 4.3v.2l2.8.4v-.2zM7 4.3 6 4l-.1.2 1 .2.1-.2zM6 4l-.8-.2V4a7.5 7.5 0 0 0 .7.2V4zm-.8-.2H5l-.1-.2-.2.1.3.3.3.1V4zm.2.4v.1l.1-.2a.1.1 0 0 0-.1 0v.1zm0 .1.4.1v-.2h-.3v.1zm.4.1h.4v-.1H6v.1zm.4 0 .2.1h.1v-.1l-.3-.1v.2zm.2.1v.1l.2.3.2.7H7L6.8 5l-.1-.3v-.1h-.1v-.1l-.2.1zm.4 1.1v.1a.1.1 0 0 1 .1 0V6a.1.1 0 0 0 .1-.1v-.4l-.2.1zm0 .1a.1.1 0 0 1 .1 0 .1.1 0 0 1 .1 0h-.2V6H7v-.1zm.2 0c-.4-.6-.9-1.1-1.4-1.5l-.2.2c.6.4 1 .9 1.4 1.3H7zM5.6 4.2h-.3l.2.2v-.2zm1 .4h.2v-.2h-.1v.2zm.2 0 1.8.3v-.2l-1.8-.3v.2zm1.8.3H9v-.1h-.5V5zm0 0v-.1l.1.2h.1-.1zm0 0-.5.2v.2l.6-.3v-.2zm-.5.2-.8.6.1.1a5 5 0 0 1 .8-.5L8 5.2zm-.8.6-.1.1.1.2.1-.2v-.1zm0 .2v-.1h-.2V6h.1zm0-.1a7.5 7.5 0 0 0-.5-1.2h-.2L7.1 6h.2zm-.5-1.2v-.1h-.2v.2l.2-.1zm-.2-.1a.1.1 0 0 0 0 .1h.1v-.2l-.1.1zm2.3.5v.2h.3L9 5l-.2.1zm0 .2a3.5 3.5 0 0 1 .2 1h.2a3.7 3.7 0 0 0-.1-1H9zm.2 1v.2l.2.1v-.2h-.2zm0 .3h.2H9zm.1 0-.1-.1v.2l.1-.2zm-.1-.1-1.2-.3v.2l1.1.3v-.2zm-1.2-.3L7.6 6h-.2a.1.1 0 0 0 0 .1h.2l.3.2v-.2zm-.3 0 .1-.1.3-.3-.1-.2-.3.3-.1.1-.1.1h.2zm.4-.4.6-.4.3-.2L9 5v-.2h-.1l-.1.1-.3.2-.6.4.1.2zM9.2 5h.1l.5.1 1 .2v-.2l-1-.2h-.6A.1.1 0 0 0 9 5l.1.1zm1.5.3h.6l.3.1.1-.1h-.1l-.2-.1-.6-.1v.2zm1 .2-.1-.2h-.2l.1.3.2-.1v-.2.2zm-.3-.1-1.7.8v.2c.6-.3 1.1-.6 1.8-.8v-.2zm-1.7.8-.2.1v.3h.1l.2-.2-.1-.2zm-.2.2h-.1v.1-.1zm0 0A3.2 3.2 0 0 0 9.4 5H9c.2.4.3.9.3 1.3h.2zM9.4 5H9v.1h.2zm2.6.5v.2h.1v-.1.1zm0 .2-.7 1.4.1.1c.4-.5.6-1 .7-1.4h-.2zm-.7 1.4-.1.1v.2h.1l.1-.2-.1-.1zm-.1.1-.2.1h.1v.1h.1v-.2zm0 0a9 9 0 0 0-1.1-.5V7a8.9 8.9 0 0 1 1 .4v-.1zM10 6.8h-.3V7h.2v-.1zm-.2 0h.1l.4-.2.8-.5L11 6l-.8.5-.4.2-.1.1v.1h.1zm1.3-.7.6-.3.2-.1.1-.2h-.2l-.2.1-.6.3v.2zm1-.4h.4l.4.2v-.2l-.4-.2h-.3v.2zm.8.2a16.5 16.5 0 0 1 1.8.5v-.1c-.4-.2-1.1-.5-1.7-.6v.2zm1.8.5.2.1v-.2h-.1v.1zm.2 0h-.1v.2h.2v-.3zm-.1 0c-1.2.2-2.1.5-3 .8v.2l3-.8v-.2zm-3 .8h-.2v.3h.2v-.3zm-.2 0a.1.1 0 0 1 0 .1c.1 0 0 .1 0 .1h.1l-.1-.2v.1h-.1v.1h.1v-.1zm.1.1.6-1.6H12c0 .4-.3 1-.5 1.5l.1.1zm.6-1.6h-.1v-.2H12v.1h.2zm-4.9 1H8v-.1h-.3l-.1-.1h-.1v.1zm.5 0 .6.3H9a.1.1 0 0 0 0-.1h-.2l-.2-.1-.6-.2v.2zm.9.3h-.1l.1.2.1-.1L9 7h-.2zm-.1 0L7.6 8h.1l1.1-.8-.1-.2zM7.6 8h-.2v.4h.1l.2-.2-.1-.2zm-.2 0 .1.1h-.2v.1l.1.1v-.2zm.1.2V6.7h-.2v1.4h.2zm0-1.5v-.1l-.2-.1v.2h.2zm7.6 0v-.1h-.2l-.1.3.1.1.2-.2v-.1h.1v-.1H15zm-.3.2-1 1.1.2.1 1-1-.2-.2zm-1 1.1-.7.8.2.1.7-.8-.2-.1zm-.7.8V9H13v.2h.1V9l.2-.2-.2-.1zm0 .2h-.2v.1h.1V9zm0 0-1.2-1.2V8l1 1h.1zm-1.2-1.2-.2-.1v.2a6.2 6.2 0 0 1 .1 0h.1zm-.2-.1h-.2v.1h.1l.1-.1zm0 0v.1h.2l.6-.3-.1-.2-.5.2-.2.1h-.1a.1.1 0 0 0 0 .1h.1zm.8-.2 2-.6v-.2l-2.1.6v.2zm2-.6.4-.2h.2v-.2h-.2l-.5.2v.2zm.8-.2h.2v-.1h-.2v.1zm.1 0A8.9 8.9 0 0 1 17.2 8l.1-.2a9 9 0 0 0-1.8-1.2v.2zM17.2 8l.3.3h.1v.1a.1.1 0 0 1 0-.1l.2.2a.1.1 0 0 0 0-.2l-.2-.2-.3-.3-.1.2zm.5.4v-.1h-.2v.2h.2v-.1zm-.2-.1c-1.2 0-2.6.3-4 .6V9l4-.6v-.2zm-4 .6h-.1v.2h.2v-.2zm-.1 0V9h.1l.2-.1-.2-.2-.1.2h-.1a.1.1 0 0 0 0 .1.1.1 0 0 0 0 .1V9zm.3 0c.8-.7 1.2-1.2 1.6-2H15c-.4.7-.8 1.1-1.6 1.8l.2.2zm1.6-2v-.2h.1l-.2-.1V7zm0-.4v.2-.2.2-.2zm-5.9.8h.2l.4.2.1-.1-.4-.2h-.2V7l-.1.2zm.6.2.4.2.2.1.1-.1-.2-.2-.4-.1v.1zm.6.3v-.1l-.2.1V8l.2-.1h.1v-.1a.1.1 0 0 0 0-.1v.1zm-.2 0L9 8.5v.2l1.4-.7v-.2zM9 8.5h-.2v.4H9l.2-.1-.1-.2zm-.2.1a.1.1 0 0 1 0 .1H9l-.1-.2-.1.1v.2-.2zm.1 0a4.9 4.9 0 0 0 .6-1.3h-.2a4.7 4.7 0 0 1-.5 1.2l.1.1zm.6-1.3V7h-.2a.2.2 0 0 0 0 .1h.2zm-.5 0-.2.4H9l.1-.3v-.2l-.1.1zm-.2.4a5.6 5.6 0 0 1-.4 1h.2a5.8 5.8 0 0 0 .4-1h-.2zm-.4 1-.2.2h.2l.2-.2h-.2zm-.2.2.1.2.1-.1-.2-.1zm.1 0-.1-.1L8 9h.3zm-.1-.1a2 2 0 0 0-.5-.3l-.1.1A1.9 1.9 0 0 1 8 9l.2-.2zm-.5-.3h-.1v-.1h-.2v.1l.2.1v-.1zm-.1 0 .2-.2.6-.4-.2-.2-.5.5-.2.1v.1h-.1.2zm.8-.6.4-.4.2-.1h.1a.1.1 0 0 1-.1 0l.1-.2H9l-.3.2-.5.3.2.2zM11 8h.2v-.2L11 8zm.2 0 .9.7v-.2a10.2 10.2 0 0 0-.8-.6l-.1.2zm.9.7.5.4.1-.1a8.7 8.7 0 0 0-.5-.5l-.1.2zm.5.4.1-.1-.1.1zm0-.1h-.2v.2h.3V9zm-.2 0-3.2 1v.2l3.3-1V9zm-3.2 1H9v.3l.2-.1V10zM9 10v.2l.3-.2-.2-.1-.2.2v.1-.2zm.3 0c.7-.6 1.3-1.2 1.8-1.9l-.2-.1c-.4.6-1 1.3-1.8 1.9l.2.1zm1.8-1.9V8l-.1-.1v.2zm-.6 0h-.1l-.2.2-.3.4.1.2.4-.5.1-.2h.1V8l-.1.1zm-.6.6L9 10v.1L10.2 9l-.1-.2zM9 10l-.2.2h-.1l.1.2H9l.2-.3H9zm-.3.2h.1v.1h-.1a.1.1 0 0 0 0 .1v-.2zm.2 0-.3-.9-.2.1.3.9h.2zm-.3-.9-.2-.1v.2h.2zm0 0L9 9l.8-.5v-.1l-.9.4-.3.2h-.2l.1.2zm1.2-.7.6-.2.2-.1V8h-.1l-.2.1-.6.3.1.1zM7.3 9l.2-.1h-.2V9zm0 0a2.8 2.8 0 0 1 .5.3l.1-.1a3 3 0 0 0-.4-.3l-.1.2zm.5.3a.1.1 0 0 1 0-.1h-.1v.3l.2-.1v-.2l-.1.1zm-.1 0-.9.6.1.1.9-.5-.1-.2zm-.9.6-.2.1h.1v.1h-.1v.1a.2.2 0 0 0 .1 0L7 10l-.1-.1zm0 .3a4.5 4.5 0 0 0 .3-.6l-.2-.1a4.3 4.3 0 0 1-.3.5l.1.2zm.3-.6a4.4 4.4 0 0 0 .2-.5L7.1 9a4.2 4.2 0 0 1-.2.5h.2zm.2-.5a.7.7 0 0 1 0-.1v-.2h-.1V9a.8.8 0 0 0 0 .1h.1zm.9.5v.1l.2-.1-.1-.1h-.1v.1zm0 .1.3.7h.2a1.8 1.8 0 0 0-.3-.8l-.2.1zm.3.7h.2-.2zm0 0h-.3v.2h.4v-.3zm-.3 0-1.7.7v.2l1.7-.7v-.1zm-1.7.7-.4.2v.2l.5-.2V11zm-.4.2h-.2a.1.1 0 0 1 0 .2h-.1.4l-.1-.2zm-.1.2-.1-.2h-.1l-.1.1H6zm.1 0a12 12 0 0 0 2-1.8L8 9.6c-.5.6-1.2 1.1-2 1.7l.1.1zm2-1.8h.1v-.2H8l-.1.1.1.1zm0 0v-.3.2zm-.4 0v-.1l-.2.2-.3.3.1.1.4-.3v-.1h.1v-.2l-.1.1zm-.5.4c-.5.5-1 .8-1.6 1.2v.2a8.8 8.8 0 0 0 1.7-1.3l-.1-.1zm-1.6 1.2h-.2l.1.2h.2l-.1-.2zm-.2 0 .1.1c0 .1 0 0 0 0v.1l.3-.3-.1-.1-.3.3v.1-.1zm.4 0 .5-.6H6l-.4.4.1.1zm.5-.6a1.2 1.2 0 0 1 .2-.2v-.1h-.3v.4zm.2-.2.8-.5.4-.2.1-.2h-.2l-.4.3-.8.5.1.1z" mask="url(#b)"/></svg>