<svg width="20" height="20" viewBox="0 0 20 20" fill="none" xmlns="http://www.w3.org/2000/svg">
<path d="M10 3.442C12.136 3.442 12.3893 3.45 13.2333 3.48867C15.4013 3.58733 16.414 4.616 16.5127 6.768C16.5513 7.61133 16.5587 7.86467 16.5587 10.0007C16.5587 12.1373 16.5507 12.39 16.5127 13.2333C16.4133 15.3833 15.4033 16.414 13.2333 16.5127C12.3893 16.5513 12.1373 16.5593 10 16.5593C7.864 16.5593 7.61067 16.5513 6.76733 16.5127C4.594 16.4133 3.58667 15.38 3.488 13.2327C3.44933 12.3893 3.44133 12.1367 3.44133 10C3.44133 7.864 3.45 7.61133 3.488 6.76733C3.58733 4.616 4.59733 3.58667 6.76733 3.488C7.61133 3.45 7.864 3.442 10 3.442ZM10 2C7.82733 2 7.55533 2.00933 6.702 2.048C3.79667 2.18133 2.182 3.79333 2.04867 6.70133C2.00933 7.55533 2 7.82733 2 10C2 12.1727 2.00933 12.4453 2.048 13.2987C2.18133 16.204 3.79333 17.8187 6.70133 17.952C7.55533 17.9907 7.82733 18 10 18C12.1727 18 12.4453 17.9907 13.2987 17.952C16.2013 17.8187 17.82 16.2067 17.9513 13.2987C17.9907 12.4453 18 12.1727 18 10C18 7.82733 17.9907 7.55533 17.952 6.702C17.8213 3.79933 16.2073 2.182 13.2993 2.04867C12.4453 2.00933 12.1727 2 10 2ZM10 5.892C7.73133 5.892 5.892 7.73133 5.892 10C5.892 12.2687 7.73133 14.1087 10 14.1087C12.2687 14.1087 14.108 12.2693 14.108 10C14.108 7.73133 12.2687 5.892 10 5.892ZM10 12.6667C8.52733 12.6667 7.33333 11.4733 7.33333 10C7.33333 8.52733 8.52733 7.33333 10 7.33333C11.4727 7.33333 12.6667 8.52733 12.6667 10C12.6667 11.4733 11.4727 12.6667 10 12.6667ZM14.2707 4.77C13.74 4.77 13.31 5.2 13.31 5.73C13.31 6.26 13.74 6.69 14.2707 6.69C14.8007 6.69 15.23 6.26 15.23 5.73C15.23 5.2 14.8007 4.77 14.2707 4.77Z" fill="url(#paint0_linear_3440_302)"/>
<defs>
<linearGradient id="paint0_linear_3440_302" x1="2.5" y1="17.5" x2="17" y2="3" gradientUnits="userSpaceOnUse">
<stop stop-color="#FFBC57"/>
<stop offset="0.475" stop-color="#E63271"/>
<stop offset="1" stop-color="#4D33EE"/>
</linearGradient>
</defs>
</svg>
