<svg width="20" height="20" viewBox="0 0 20 20" fill="none" xmlns="http://www.w3.org/2000/svg">
<path d="M17.6042 11.6805C17.5655 11.6713 17.5102 11.6557 17.4722 11.6485C17.3279 11.6281 17.1825 11.6161 17.0369 11.6126C16.7617 11.5942 16.4889 11.5484 16.2224 11.4758C16.1402 11.4284 16.0724 11.3585 16.0266 11.2741L15.8433 11.2194C16.0393 9.75344 15.7027 8.26481 14.8976 7.036C14.9445 6.99238 15.0333 6.91188 15.0584 6.88817C15.0522 6.79242 15.0828 6.69794 15.1436 6.62493C15.3528 6.44101 15.579 6.27832 15.819 6.13925C15.9489 6.07162 16.0748 5.99638 16.1963 5.9139C16.2255 5.89167 16.2656 5.85638 16.2962 5.83129C16.3502 5.79609 16.3963 5.74969 16.4316 5.69503C16.4668 5.64042 16.4906 5.57882 16.5011 5.51423C16.5116 5.44964 16.5087 5.3835 16.4927 5.32013C16.4766 5.25672 16.4478 5.19752 16.4079 5.14628C16.368 5.09503 16.3181 5.05297 16.2614 5.02278C16.2046 4.99255 16.1423 4.97491 16.0784 4.97095C16.0146 4.96703 15.9507 4.97684 15.8907 4.99983C15.8308 5.02282 15.7763 5.05844 15.7307 5.10438C15.6997 5.12939 15.6576 5.16219 15.63 5.18666C15.5239 5.28893 15.4238 5.39739 15.33 5.51154C15.1443 5.72042 14.9393 5.91032 14.7178 6.07857C14.6306 6.11487 14.5351 6.12548 14.4423 6.10918L14.2695 6.2355C13.2752 5.16729 11.9359 4.5048 10.5005 4.37116C10.4963 4.30939 10.4911 4.19748 10.4895 4.16367C10.4124 4.10893 10.3592 4.02556 10.3413 3.93129C10.3317 3.64914 10.349 3.36674 10.3928 3.08804C10.4217 2.94211 10.4423 2.79457 10.4546 2.64615C10.456 2.60872 10.4539 2.55432 10.4539 2.5139C10.4603 2.44893 10.4533 2.38328 10.4333 2.32126C10.4134 2.2592 10.381 2.20215 10.3381 2.15368C10.2953 2.10526 10.2431 2.06657 10.1848 2.04013C10.1264 2.01364 10.0633 1.99996 9.99955 2C9.93576 2.00004 9.87266 2.01377 9.81436 2.04029C9.75607 2.06682 9.70388 2.10556 9.66109 2.15402C9.61834 2.20248 9.58597 2.25962 9.56608 2.32168C9.54622 2.38371 9.53929 2.44935 9.54573 2.51436C9.54573 2.51874 9.54667 2.52295 9.54679 2.52733C9.54634 2.5659 9.54454 2.61259 9.54573 2.64627C9.55812 2.79478 9.57879 2.94244 9.60768 3.08851C9.65121 3.36716 9.66815 3.64947 9.65826 3.9315C9.63246 4.02434 9.58134 4.10771 9.51086 4.17183L9.50011 4.36855C9.22384 4.39188 8.94954 4.43508 8.67918 4.49773C7.54347 4.76047 6.51036 5.36472 5.7125 6.23285C5.65728 6.19386 5.60255 6.15415 5.54831 6.11369C5.45847 6.14118 5.36169 6.13158 5.27869 6.08691C5.05715 5.91899 4.85211 5.72935 4.66651 5.52068C4.57309 5.40661 4.47332 5.29811 4.36772 5.19579C4.34006 5.17154 4.29781 5.13849 4.26679 5.11318C4.17678 5.03882 4.06585 4.996 3.95028 4.99091C3.8816 4.98724 3.81305 5.00017 3.7502 5.02868C3.68735 5.05722 3.63192 5.10051 3.58843 5.15503C3.51483 5.26118 3.48525 5.39285 3.50618 5.52127C3.5271 5.64965 3.59684 5.76438 3.70011 5.8403L3.70712 5.84539C3.73682 5.87028 3.77338 5.90211 3.80095 5.9227C3.9221 6.00522 4.0478 6.08055 4.1774 6.14826C4.4174 6.28737 4.64353 6.45011 4.85264 6.63419C4.90696 6.71306 4.93859 6.80594 4.94396 6.90228L5.08932 7.03533C4.28644 8.26855 3.95652 9.76177 4.16287 11.2287L3.97276 11.2853C3.92316 11.3664 3.8565 11.4352 3.7776 11.4865C3.51131 11.5593 3.23869 11.6053 2.9637 11.6238C2.81793 11.6273 2.67245 11.6392 2.52804 11.6598C2.49317 11.6664 2.44476 11.6789 2.40677 11.6886L2.40279 11.6895L2.39635 11.6915C2.33346 11.6999 2.27299 11.7218 2.21879 11.7555C2.1646 11.7893 2.11791 11.8342 2.08168 11.8875C2.04542 11.9408 2.02047 12.0013 2.00837 12.0651C1.99627 12.1288 1.99729 12.1945 2.01141 12.2578C2.02552 12.3211 2.05235 12.3807 2.09026 12.4328C2.12817 12.4849 2.17625 12.5283 2.23147 12.5602C2.28669 12.5922 2.34782 12.612 2.41096 12.6184C2.4741 12.6247 2.53781 12.6176 2.59807 12.5973L2.60484 12.5962C2.60788 12.5955 2.61046 12.594 2.61346 12.5934C2.65092 12.5846 2.69801 12.5755 2.73096 12.5663C2.86958 12.521 3.00558 12.4677 3.13826 12.4065C3.39397 12.3009 3.65912 12.2211 3.92993 12.1681C4.02384 12.1739 4.11426 12.2067 4.19094 12.2624L4.38893 12.2278C4.83332 13.6333 5.7648 14.8238 7.00768 15.5746L6.92493 15.7772C6.96341 15.8589 6.97748 15.9503 6.9655 16.0401C6.85231 16.305 6.71467 16.5581 6.55451 16.7961C6.46643 16.915 6.38511 17.039 6.31102 17.1675C6.29293 17.2025 6.27003 17.2562 6.25272 17.2929C6.21994 17.3487 6.19894 17.411 6.1911 17.4756C6.18322 17.5403 6.18868 17.6059 6.2071 17.6682C6.22548 17.7306 6.25646 17.7883 6.29793 17.8377C6.33945 17.8871 6.39061 17.927 6.44809 17.955C6.5056 17.9829 6.56817 17.9982 6.6318 17.9998C6.69539 18.0015 6.75865 17.9896 6.81748 17.9647C6.87631 17.9399 6.9294 17.9027 6.97334 17.8556C7.01732 17.8085 7.05112 17.7524 7.07266 17.6911L7.0734 17.6902V17.6891C7.09063 17.6528 7.11504 17.6051 7.12956 17.5711C7.18126 17.4318 7.22503 17.2895 7.2606 17.1451C7.339 16.8512 7.45736 16.5701 7.61219 16.31C7.66634 16.258 7.73453 16.2239 7.80792 16.2122L7.91086 16.0217C9.25884 16.5523 10.7505 16.5561 12.1011 16.0326C12.1299 16.0852 12.1837 16.1859 12.1979 16.2113C12.2906 16.2265 12.3739 16.2783 12.4298 16.3556C12.5583 16.6051 12.6627 16.8668 12.7415 17.1371C12.7774 17.2816 12.8215 17.4238 12.8734 17.5632C12.8881 17.5975 12.9121 17.6457 12.9295 17.6823C12.951 17.7437 12.9847 17.7997 13.0286 17.8469C13.0725 17.8941 13.1256 17.9313 13.1844 17.9563C13.2432 17.9812 13.3065 17.9933 13.3701 17.9917C13.4338 17.9901 13.4964 17.9749 13.5539 17.947C13.6115 17.9192 13.6627 17.8793 13.7043 17.8299C13.7459 17.7806 13.7769 17.723 13.7955 17.6606C13.814 17.5982 13.8195 17.5326 13.8117 17.4679C13.804 17.4033 13.7831 17.341 13.7504 17.2851C13.7331 17.2484 13.7092 17.1947 13.6912 17.1599C13.6172 17.0317 13.5358 16.908 13.4478 16.7894C13.2904 16.5574 13.1556 16.3103 13.0452 16.0515C13.0212 15.9589 13.0337 15.8604 13.08 15.7772C13.051 15.7164 13.0257 15.6537 13.0044 15.5897C14.2512 14.8328 15.1828 13.6331 15.6219 12.2188C15.6806 12.2284 15.7829 12.2467 15.8162 12.2537C15.8852 12.1887 15.9764 12.1541 16.0701 12.1571C16.341 12.21 16.6062 12.2899 16.8619 12.3955C16.9946 12.4572 17.1307 12.511 17.2695 12.5565C17.3023 12.5653 17.3491 12.5737 17.3868 12.5822C17.3899 12.5831 17.3927 12.5844 17.3957 12.5853L17.4021 12.5863C17.4624 12.6065 17.5261 12.6137 17.5892 12.6073C17.6523 12.6009 17.7134 12.5811 17.7686 12.5491C17.8238 12.5171 17.8718 12.4738 17.9097 12.4217C17.9476 12.3697 17.9745 12.3101 17.9886 12.2468C18.0027 12.1835 18.0037 12.1179 17.9917 12.0542C17.9796 11.9905 17.9547 11.9301 17.9185 11.8768C17.8824 11.8235 17.8357 11.7785 17.7816 11.7447C17.7275 11.7109 17.667 11.689 17.6042 11.6805ZM13.2899 6.9459L11.3492 8.35424L11.3424 8.35095C11.284 8.39462 11.215 8.42123 11.1429 8.42801C11.0709 8.43474 10.9984 8.42139 10.9331 8.38935C10.8679 8.35727 10.8123 8.30771 10.7724 8.2459C10.7324 8.18413 10.7096 8.11238 10.7063 8.03836L10.7041 8.03727L10.5693 5.60287C11.5954 5.73327 12.5513 6.20514 13.2899 6.9459ZM9.63414 9.61436H10.3645L10.8185 10.1955L10.6557 10.9202L9.99984 11.2433L9.34204 10.9195L9.17892 10.1944L9.63414 9.61436ZM8.94708 5.68809C9.10704 5.65124 9.26876 5.62278 9.43155 5.60287L9.29654 8.04102L9.28665 8.04586C9.28357 8.11992 9.26097 8.19171 9.22122 8.25365C9.18146 8.31554 9.12604 8.36527 9.06085 8.39752C8.99566 8.42973 8.92316 8.44329 8.85108 8.43668C8.77896 8.43007 8.70999 8.40354 8.65141 8.35996L8.64768 8.3622L6.69449 6.94447C7.31627 6.31891 8.0965 5.88375 8.94708 5.68809ZM5.98622 7.85567L7.7694 9.48834L7.76747 9.49828C7.82212 9.54695 7.86286 9.6099 7.8853 9.68043C7.90774 9.75095 7.91106 9.82636 7.8949 9.89866C7.87877 9.971 7.84374 10.0374 7.79361 10.091C7.74347 10.1445 7.68005 10.1831 7.61018 10.2026L7.60833 10.2105L5.32259 10.8857C5.2087 9.8283 5.44222 8.76207 5.98622 7.85567ZM8.37375 12.1929L7.46556 14.4395C6.59389 13.8683 5.93071 13.0185 5.57888 12.0221L7.92251 11.6146L7.92649 11.62C7.95237 11.6149 7.97867 11.6126 8.00501 11.6129C8.07073 11.6139 8.13523 11.6314 8.19274 11.664C8.25026 11.6965 8.29908 11.7431 8.33486 11.7995C8.37063 11.856 8.39229 11.9206 8.39787 11.9876C8.40349 12.0547 8.39287 12.1221 8.36698 12.1839L8.37375 12.1929ZM11.0544 15.0819C10.2047 15.2814 9.3175 15.2348 8.49219 14.9472L9.6448 12.8136H9.64673C9.68103 12.7484 9.7319 12.6939 9.79393 12.6559C9.85601 12.6179 9.92698 12.5978 9.99931 12.5977C10.0716 12.5977 10.1426 12.6177 10.2047 12.6555C10.2669 12.6934 10.3178 12.7478 10.3522 12.8129H10.3608L11.5163 14.9501C11.3664 15.0013 11.2124 15.0451 11.0544 15.0819ZM12.5436 14.4485L11.6261 12.1791L11.6288 12.175C11.5882 12.0779 11.5856 11.9685 11.6217 11.8696C11.6579 11.7706 11.7299 11.6897 11.8229 11.6438C11.8708 11.6198 11.9229 11.6059 11.9762 11.603C12.007 11.6016 12.0379 11.6039 12.0681 11.61L12.0721 11.6049L14.4366 12.0139C14.0876 13.0184 13.4215 13.875 12.5436 14.4485ZM14.685 10.8778L12.3877 10.2004L12.3856 10.1905C12.3158 10.1708 12.2526 10.1321 12.2025 10.0785C12.1525 10.025 12.1176 9.95857 12.1015 9.88636C12.0854 9.81411 12.0887 9.73878 12.1111 9.66834C12.1334 9.59786 12.174 9.53491 12.2285 9.48615L12.2276 9.48144L14.0009 7.85676C14.5439 8.76081 14.7842 9.82135 14.685 10.8778Z" fill="#4285F4"/>
</svg>
