<svg height="2500" viewBox="62.67 62.68 1874.66 1874.65" width="2500" xmlns="http://www.w3.org/2000/svg"><path d="m1937.32 1000c0 517.67-419.66 937.33-937.33 937.33s-937.32-419.66-937.32-937.33 419.66-937.32 937.33-937.32 937.33 419.66 937.33 937.33" fill="#003d58"/><path d="m1076.9 788.09c-118.34 0-222.15 42.81-298.08 113.53v-557.54c0-14.05-15.21-22.83-27.38-15.81l-134.42 77.61a9.621 9.621 0 0 0 -4.82 8.36v1180.47c0 10.08 8.17 18.26 18.25 18.26h130.12c10.07 0 18.25-8.18 18.25-18.26v-78.41c75.93 70.71 179.74 113.53 298.08 113.53 245.79 0 429.29-184.34 429.29-420.87s-183.49-420.87-429.29-420.87m0 685.18c-152.35 0-262.62-115.32-262.62-264.31s110.27-264.32 262.62-264.32 262.62 115.33 262.62 264.32-110.27 264.31-262.62 264.31" fill="#fff"/><path d="m1600.2 689.21c0 57.12-46.31 103.43-103.43 103.43s-103.43-46.31-103.43-103.43 46.31-103.43 103.43-103.43 103.43 46.31 103.43 103.43" fill="#ff7c66"/></svg>