<svg width="20" height="20" viewBox="0 0 20 20" fill="none" xmlns="http://www.w3.org/2000/svg">
<path d="M11.3071 14.3867C10.6516 14.6262 9.95046 14.7005 9.26176 14.6033C8.57306 14.5061 7.9166 14.2403 7.34674 13.8277C6.77687 13.4152 6.30998 12.8679 5.98473 12.2311C5.65948 11.5943 5.48523 10.8863 5.4764 10.1659C5.46757 9.44535 5.62442 8.73304 5.93396 8.08788C6.24349 7.44273 6.69682 6.88329 7.25639 6.45589C7.81597 6.02848 8.4657 5.74541 9.15179 5.63011C9.83789 5.51481 10.5406 5.57059 11.2018 5.79284C11.2986 5.82499 11.4035 5.81826 11.4958 5.77397C11.5881 5.72968 11.6609 5.65107 11.6999 5.55373C11.7221 5.49914 11.733 5.44036 11.7321 5.38114C11.7312 5.32192 11.7184 5.26355 11.6945 5.20974C11.6706 5.15593 11.6362 5.10786 11.5935 5.06859C11.5507 5.02931 11.5005 4.99969 11.4461 4.9816C10.9472 4.81416 10.4265 4.72654 9.90214 4.72175C9.0008 4.71167 8.11246 4.94503 7.32451 5.39887C6.53656 5.8527 5.87615 6.51138 5.40825 7.31009C4.94036 8.1088 4.68109 9.02003 4.65597 9.95414C4.63084 10.8882 4.84072 11.813 5.26496 12.6375L3.65885 13.6901C3.44951 13.5378 3.19364 13.4702 2.93953 13.5001C2.73789 13.5239 2.54717 13.6075 2.39032 13.741C2.23346 13.8745 2.11715 14.0521 2.05537 14.2525C1.99358 14.4529 1.98896 14.6676 2.04206 14.8706C2.09516 15.0737 2.20372 15.2565 2.35467 15.3971C2.50563 15.5377 2.69256 15.6301 2.89297 15.6632C3.09338 15.6963 3.29874 15.6686 3.48436 15.5835C3.66997 15.4985 3.82792 15.3597 3.93922 15.1837C4.05052 15.0078 4.11042 14.8023 4.11172 14.5919C4.11131 14.5319 4.10603 14.472 4.09592 14.4129L5.70624 13.3571C6.37004 14.2689 7.29634 14.9383 8.35125 15.2684C9.40616 15.5985 10.535 15.5723 11.5746 15.1935C11.6282 15.1739 11.6773 15.143 11.7189 15.1027C11.7604 15.0624 11.7933 15.0137 11.8157 14.9595C11.8381 14.9053 11.8494 14.8469 11.8488 14.7879C11.8483 14.729 11.836 14.6708 11.8126 14.617C11.7716 14.5199 11.6969 14.4422 11.6032 14.3996C11.5096 14.3569 11.4039 14.3523 11.3071 14.3867Z" fill="url(#paint0_linear_3440_336)"/>
<path d="M9.84937 13.2762C9.8496 13.1727 9.88619 13.0729 9.95228 12.9953C10.0184 12.9178 10.1095 12.8678 10.2085 12.8548C10.8488 12.7648 11.436 12.4371 11.8611 11.9326C12.2862 11.4281 12.5205 10.7809 12.5205 10.111C12.5205 9.44111 12.2862 8.79392 11.8611 8.28941C11.436 7.78489 10.8488 7.45726 10.2085 7.36724C10.1096 7.35401 10.0186 7.304 9.95254 7.22648C9.88649 7.14896 9.84983 7.04922 9.84937 6.94579C9.84911 6.88576 9.86116 6.82636 9.88472 6.77152C9.90828 6.71668 9.94282 6.66766 9.98604 6.62771C10.0293 6.58776 10.0802 6.55778 10.1354 6.53978C10.1907 6.52177 10.249 6.51613 10.3065 6.52325C11.1465 6.63719 11.918 7.06403 12.4769 7.72417C13.0358 8.38431 13.344 9.23267 13.344 10.111C13.344 10.9894 13.0358 11.8377 12.4769 12.4979C11.918 13.158 11.1465 13.5848 10.3065 13.6988C10.249 13.7059 10.1907 13.7003 10.1354 13.6823C10.0802 13.6642 10.0293 13.6343 9.98604 13.5943C9.94282 13.5544 9.90828 13.5053 9.88472 13.4505C9.86116 13.3957 9.84911 13.3363 9.84937 13.2762Z" fill="url(#paint1_linear_3440_336)"/>
<path d="M16.8668 3.9227C16.7171 3.93379 16.5714 3.97791 16.4395 4.05211C16.3076 4.12632 16.1925 4.22888 16.102 4.35295C16.0114 4.47701 15.9475 4.6197 15.9145 4.77146C15.8815 4.92322 15.8801 5.08055 15.9105 5.2329L15.2175 5.6871C14.6208 4.90814 13.873 4.26774 13.0225 3.80732C12.172 3.3469 11.2377 3.07673 10.2802 3.01429C10.2248 3.01118 10.1693 3.0198 10.1172 3.03962C10.0651 3.05944 10.0175 3.09005 9.97719 3.12959C9.93688 3.16912 9.90477 3.21676 9.8828 3.26958C9.86083 3.3224 9.84947 3.37931 9.84941 3.43683C9.85006 3.54563 9.89076 3.65006 9.96318 3.72879C10.0356 3.80752 10.1343 3.85462 10.2391 3.86046C11.7535 3.96382 13.1751 4.65375 14.2216 5.79329C15.2682 6.93283 15.8631 8.43866 15.8884 10.0119C15.94 13.4511 13.1764 16.3663 9.85783 16.3707C8.40222 16.3769 6.9942 15.8335 5.8968 14.8421C5.8297 14.7809 5.74516 14.744 5.65601 14.7371C5.56687 14.7302 5.47799 14.7537 5.40286 14.8039C5.34936 14.8398 5.30464 14.888 5.27223 14.9449C5.23982 15.0017 5.22061 15.0656 5.21611 15.1315C5.21162 15.1973 5.22196 15.2634 5.24633 15.3244C5.2707 15.3854 5.30842 15.4397 5.35652 15.483C6.63592 16.6396 8.28608 17.2588 9.98316 17.219C11.1922 17.1957 12.3737 16.8413 13.4079 16.1917C14.4421 15.5421 15.2922 14.6204 15.8718 13.5202C16.4515 12.42 16.7401 11.1805 16.7084 9.92732C16.6768 8.67415 16.3259 7.45197 15.6914 6.38478L16.3792 5.93386C16.5199 6.02568 16.6796 6.08164 16.8452 6.09717C17.0109 6.1127 17.1777 6.08735 17.332 6.02319C17.4864 5.95904 17.6239 5.85791 17.7333 5.72807C17.8427 5.59824 17.9209 5.44339 17.9615 5.2762C18.002 5.10902 18.0038 4.93425 17.9667 4.7662C17.9296 4.59814 17.8547 4.44159 17.748 4.30934C17.6413 4.17709 17.506 4.07292 17.353 4.00533C17.2 3.93775 17.0337 3.90869 16.8678 3.92051L16.8668 3.9227Z" fill="url(#paint2_linear_3440_336)"/>
<defs>
<linearGradient id="paint0_linear_3440_336" x1="11.5925" y1="16.8269" x2="5.49208" y2="8.74039" gradientUnits="userSpaceOnUse">
<stop stop-color="#EFAB00"/>
<stop offset="1" stop-color="#EFB700"/>
</linearGradient>
<linearGradient id="paint1_linear_3440_336" x1="10.7477" y1="10.5205" x2="12.4918" y2="7.49378" gradientUnits="userSpaceOnUse">
<stop stop-color="#DD3163"/>
<stop offset="1" stop-color="#FF5663"/>
</linearGradient>
<linearGradient id="paint2_linear_3440_336" x1="7.28911" y1="13.5712" x2="17.5063" y2="5.23795" gradientUnits="userSpaceOnUse">
<stop offset="0.03" stop-color="#1890FF"/>
<stop offset="1" stop-color="#18B5FF"/>
</linearGradient>
</defs>
</svg>
