<svg width="20" height="20" viewBox="0 0 20 20" fill="none" xmlns="http://www.w3.org/2000/svg">
<path fill-rule="evenodd" clip-rule="evenodd" d="M3.65372 4.06719C3.08288 4.06719 2.62012 3.60444 2.62012 3.0336C2.62012 2.46276 3.08288 2 3.65372 2C4.22457 2 4.68732 2.46276 4.68732 3.0336C4.68732 3.60444 4.22457 4.06719 3.65372 4.06719ZM3.65373 8.82173C2.7404 8.82173 2 8.08133 2 7.168C2 6.25467 2.7404 5.51426 3.65373 5.51426C4.56706 5.51426 5.30746 6.25467 5.30746 7.168C5.30746 8.08133 4.56706 8.82173 3.65373 8.82173ZM3.65373 17.0904C2.7404 17.0904 2 16.35 2 15.4367C2 14.5234 2.7404 13.7829 3.65373 13.7829C4.56706 13.7829 5.30746 14.5234 5.30746 15.4367C5.30746 16.35 4.56706 17.0904 3.65373 17.0904ZM2.62012 11.3024C2.62012 11.8732 3.08288 12.336 3.65372 12.336C4.22457 12.336 4.68732 11.8732 4.68732 11.3024C4.68732 10.7316 4.22457 10.2688 3.65372 10.2688C3.08288 10.2688 2.62012 10.7316 2.62012 11.3024ZM8.34622 12.832C8.34622 13.7453 9.08662 14.4857 9.99995 14.4857C10.9133 14.4857 11.6537 13.7453 11.6537 12.832C11.6537 11.9187 10.9133 11.1783 9.99995 11.1783C9.08662 11.1783 8.34622 11.9187 8.34622 12.832ZM9.99996 18C9.42911 18 8.96635 17.5373 8.96635 16.9664C8.96635 16.3956 9.42911 15.9328 9.99996 15.9328C10.5708 15.9328 11.0336 16.3956 11.0336 16.9664C11.0336 17.5373 10.5708 18 9.99996 18ZM8.96635 8.69772C8.96635 9.26856 9.42911 9.73132 9.99996 9.73132C10.5708 9.73132 11.0336 9.26856 11.0336 8.69772C11.0336 8.12688 10.5708 7.66412 9.99996 7.66412C9.42911 7.66412 8.96635 8.12688 8.96635 8.69772ZM9.99996 5.59691C9.42911 5.59691 8.96635 5.13416 8.96635 4.56332C8.96635 3.99248 9.42911 3.52973 9.99996 3.52973C10.5708 3.52973 11.0336 3.99248 11.0336 4.56332C11.0336 5.13416 10.5708 5.59691 9.99996 5.59691ZM14.6924 7.168C14.6924 8.08133 15.4328 8.82173 16.3463 8.82173C17.2596 8.82173 18 8.08133 18 7.168C18 6.25467 17.2596 5.51426 16.3463 5.51426C15.4328 5.51426 14.6924 6.25467 14.6924 7.168ZM16.3463 4.06719C15.7754 4.06719 15.3126 3.60444 15.3126 3.0336C15.3126 2.46276 15.7754 2 16.3463 2C16.9171 2 17.3798 2.46276 17.3798 3.0336C17.3798 3.60444 16.9171 4.06719 16.3463 4.06719ZM15.3126 11.3024C15.3126 11.8732 15.7754 12.336 16.3463 12.336C16.9171 12.336 17.3798 11.8732 17.3798 11.3024C17.3798 10.7316 16.9171 10.2688 16.3463 10.2688C15.7754 10.2688 15.3126 10.7316 15.3126 11.3024ZM16.3463 16.4702C15.7754 16.4702 15.3126 16.0075 15.3126 15.4367C15.3126 14.8658 15.7754 14.403 16.3463 14.403C16.9171 14.403 17.3798 14.8658 17.3798 15.4367C17.3798 16.0075 16.9171 16.4702 16.3463 16.4702Z" fill="#F3B60C"/>
</svg>
