<svg width="20" height="20" viewBox="0 0 20 20" fill="none" xmlns="http://www.w3.org/2000/svg">
<path d="M17.0023 8.55C17.206 8 17.2569 7.45 17.206 6.9C17.155 6.35 16.9513 5.8 16.6967 5.3C16.2384 4.55 15.5763 3.95 14.8125 3.6C13.9977 3.25 13.1319 3.15 12.2662 3.35C11.8588 2.95 11.4005 2.6 10.8912 2.35C10.3819 2.1 9.77084 2 9.21065 2C8.34492 2 7.47919 2.25 6.76623 2.75C6.05327 3.25 5.54402 3.95 5.28939 4.75C4.67829 4.9 4.16903 5.15 3.65978 5.45C3.20145 5.8 2.84497 6.25 2.53941 6.7C2.08109 7.45 1.92831 8.3 2.03016 9.15C2.13201 10 2.48849 10.8 3.04867 11.45C2.84497 12 2.79404 12.55 2.84497 13.1C2.89589 13.65 3.0996 14.2 3.35422 14.7C3.81255 15.45 4.47458 16.05 5.23847 16.4C6.05327 16.75 6.91901 16.85 7.78474 16.65C8.19215 17.05 8.65047 17.4 9.15973 17.65C9.66898 17.9 10.2801 18 10.8403 18C11.706 18 12.5717 17.75 13.2847 17.25C13.9977 16.75 14.5069 16.05 14.7615 15.25C15.3217 15.15 15.8819 14.9 16.3402 14.55C16.7986 14.2 17.206 13.8 17.4606 13.3C17.9189 12.55 18.0717 11.7 17.9698 10.85C17.868 10 17.5624 9.2 17.0023 8.55ZM10.8912 16.95C10.0764 16.95 9.46528 16.7 8.9051 16.25C8.9051 16.25 8.95603 16.2 9.00695 16.2L12.2662 14.35C12.368 14.3 12.419 14.25 12.4699 14.15C12.5208 14.05 12.5208 14 12.5208 13.9V9.4L13.8958 10.2V13.9C13.9467 15.65 12.5208 16.95 10.8912 16.95ZM4.32181 14.2C3.96533 13.6 3.81255 12.9 3.96533 12.2C3.96533 12.2 4.01625 12.25 4.06718 12.25L7.32641 14.1C7.42826 14.15 7.47919 14.15 7.58104 14.15C7.68289 14.15 7.78474 14.15 7.83567 14.1L11.8079 11.85V13.4L8.4977 15.3C7.78474 15.7 6.96993 15.8 6.20605 15.6C5.39124 15.4 4.72921 14.9 4.32181 14.2ZM3.45607 7.25C3.81255 6.65 4.37273 6.2 5.03476 5.95V6.05V9.75C5.03476 9.85 5.03476 9.95 5.08569 10C5.13662 10.1 5.18754 10.15 5.28939 10.2L9.26158 12.45L7.88659 13.25L4.62736 11.4C3.9144 11 3.40515 10.35 3.20145 9.6C2.99774 8.85 3.04867 7.95 3.45607 7.25ZM14.7106 9.8L10.7384 7.55L12.1134 6.75L15.3726 8.6C15.8819 8.9 16.2893 9.3 16.5439 9.8C16.7986 10.3 16.9513 10.85 16.9004 11.45C16.8495 12 16.6458 12.55 16.2893 13C15.9328 13.45 15.4745 13.8 14.9143 14V10.2C14.9143 10.1 14.9143 10 14.8634 9.95C14.8634 9.95 14.8125 9.85 14.7106 9.8ZM16.0856 7.8C16.0856 7.8 16.0347 7.75 15.9837 7.75L12.7245 5.9C12.6227 5.85 12.5717 5.85 12.4699 5.85C12.368 5.85 12.2662 5.85 12.2153 5.9L8.24307 8.15V6.6L11.5532 4.7C12.0625 4.4 12.6227 4.3 13.2338 4.3C13.794 4.3 14.3541 4.5 14.8634 4.85C15.3217 5.2 15.7291 5.65 15.9328 6.15C16.1365 6.65 16.1874 7.25 16.0856 7.8ZM7.53011 10.6L6.15512 9.8V6.05C6.15512 5.5 6.3079 4.9 6.61345 4.45C6.91901 3.95 7.37734 3.6 7.88659 3.35C8.39585 3.1 9.00695 3 9.56713 3.1C10.1273 3.15 10.6875 3.4 11.1458 3.75C11.1458 3.75 11.0949 3.8 11.044 3.8L7.78474 5.65C7.68289 5.7 7.63196 5.75 7.58104 5.85C7.53011 5.95 7.53011 6 7.53011 6.1V10.6ZM8.24307 9L10.0255 8L11.8079 9V11L10.0255 12L8.24307 11V9Z" fill="#4AA081"/>
</svg>
