<svg xmlns="http://www.w3.org/2000/svg" width="20px" height="20px" viewBox="0 0 10240 10240"><path d="M10190 6210 8920 3980l540-1050a290 290 0 00 70-360l-700-1270a300 300 0 00-250-140H5980L5390 150a270 270 0 00-210-150H3810a290 290 0 00-250 150v50L2260 2430H1010a290 290 0 00-260 140L30 3840a330 330 0 00 0 290l1300 2250-580 1020a330 330 0 00 0 290l660 1170a300 300 0 00 260 140h2600l630 1090a300 300 0 00 230 150h1470a290 290 0 00 250-150l1280-2240h1150a320 320 0 00 250-160l660-1170a280 280 0 00 0-310zm-1610 140-660-1230-2740 4820-740-1230H1700l660-1190h1390L1020 2720h1430L3810 300l680 1190-700 1230h5470l-700 1220 1380 2410H8580" fill="#605BEC"/><path d="m5000 6990 1740-2740H3250" fill="#605BEC"/></svg>
