<svg xmlns="http://www.w3.org/2000/svg" width="20px" height="20px" viewBox="0 0 10240 10240"><path d="m6830 3650 330 20c-290-1370-1770-2390-3450-2390-1880 10-3430 1280-3430 2890 0 930 520 1700 1370 2290l-340 1020 1200-590c420 80 770 170 1190 170l320-20a2590 2590 0 01-100-710c0-1480 1280-2680 2910-2680zm-1840-920c260 0 430 160 430 420 0 250-170 430-430 430s-510-170-510-430 250-420 510-420zm-2400 850c-250 0-510-170-510-430s260-420 510-420c260 0 430 160 430 420 0 250-170 430-430 430zm7370 2720c0-1360-1370-2470-2910-2470-1630 0-2910 1110-2910 2470s1280 2460 2910 2460c340 0 680-80 1020-170l940 510-260-840c690-520 1210-1200 1210-1960zm-3860-430c-170 0-340-170-340-340s170-340 340-340c260 0 430 160 430 340 0 170-170 340-430 340zm1880 0c-170 0-340-170-340-340s170-340 340-340c260 0 430 160 430 340 0 170-170 340-430 340" fill="#09bb07"/></svg>
