<svg width="16" height="16" viewBox="0 0 16 16" fill="none" xmlns="http://www.w3.org/2000/svg">
<g clip-path="url(#clip0_167_6253)">
<path fill-rule="evenodd" clip-rule="evenodd" d="M14.1818 3.81818H1.81818C1.3161 3.81818 0.909091 4.22519 0.909091 4.72727V11.2727C0.909091 11.7748 1.3161 12.1818 1.81818 12.1818H14.1818C14.6839 12.1818 15.0909 11.7748 15.0909 11.2727V4.72727C15.0909 4.22519 14.6839 3.81818 14.1818 3.81818ZM1.81818 2.90909C0.814029 2.90909 0 3.72312 0 4.72727V11.2727C0 12.2769 0.814029 13.0909 1.81818 13.0909H14.1818C15.186 13.0909 16 12.2769 16 11.2727V4.72727C16 3.72312 15.186 2.90909 14.1818 2.90909H1.81818Z" fill="#030615"/>
<path d="M2.47556 5.6L3.08679 7.76264L3.69252 5.6H4.57082L3.49153 8.65604V10.4H2.6793V8.65604L1.60001 5.6H2.47556Z" fill="#030615"/>
<path d="M5.97956 6.45714L5.11777 10.4H4.267L5.51976 5.6H6.05114L5.97956 6.45714ZM6.65963 10.4L5.79233 6.45714L5.71249 5.6H6.25214L7.5159 10.4H6.65963ZM6.68991 8.60989V9.41099H4.88099V8.60989H6.68991Z" fill="#030615"/>
<path d="M8.184 5.6H8.8916L9.70933 8.88351L10.5243 5.6H11.1493L10.0094 10.4H9.40647L8.184 5.6ZM7.89765 5.6H8.57221L8.67684 8.76483V10.4H7.89765V5.6ZM10.8409 5.6H11.5183V10.4H10.7418V8.76483L10.8409 5.6Z" fill="#030615"/>
<path d="M14.4 9.6022V10.4H12.7343V9.6022H14.4ZM12.9821 5.6V10.4H12.1753V5.6H12.9821Z" fill="#030615"/>
</g>
<defs>
<clipPath id="clip0_167_6253">
<rect width="16" height="16" fill="white"/>
</clipPath>
</defs>
</svg>
