<svg width="16" height="16" viewBox="0 0 16 16" fill="none" xmlns="http://www.w3.org/2000/svg">
<g id="tag">
<path id="Vector" d="M11.5557 10.1339C11.3542 10.1339 11.1853 10.0657 11.049 9.92941C10.9127 9.79311 10.8445 9.62422 10.8445 9.42274V6.5783C10.8445 6.37682 10.9127 6.20793 11.049 6.07163C11.1853 5.93534 11.3542 5.86719 11.5557 5.86719H13.689C13.8905 5.86719 14.0594 5.93534 14.1957 6.07163C14.332 6.20793 14.4001 6.37682 14.4001 6.5783V7.28941H13.3334V6.93385H11.9112V9.06719H13.3334V8.71163H14.4001V9.42274C14.4001 9.62422 14.332 9.79311 14.1957 9.92941C14.0594 10.0657 13.8905 10.1339 13.689 10.1339H11.5557ZM6.22232 10.1339V5.86719H9.06676C9.26825 5.86719 9.43713 5.93534 9.57343 6.07163C9.70973 6.20793 9.77788 6.37682 9.77788 6.5783V7.28941C9.77788 7.49089 9.70973 7.65978 9.57343 7.79608C9.43713 7.93237 9.26825 8.00052 9.06676 8.00052C9.26825 8.00052 9.43713 8.06867 9.57343 8.20497C9.70973 8.34126 9.77788 8.51015 9.77788 8.71163V9.42274C9.77788 9.62422 9.70973 9.79311 9.57343 9.92941C9.43713 10.0657 9.26825 10.1339 9.06676 10.1339H6.22232ZM7.28899 7.46719H8.71121V6.93385H7.28899V7.46719ZM7.28899 9.06719H8.71121V8.53385H7.28899V9.06719ZM1.6001 10.1339V6.5783C1.6001 6.37682 1.66825 6.20793 1.80454 6.07163C1.94084 5.93534 2.10973 5.86719 2.31121 5.86719H4.44454C4.64602 5.86719 4.81491 5.93534 4.95121 6.07163C5.08751 6.20793 5.15565 6.37682 5.15565 6.5783V10.1339H4.08899V9.06719H2.66676V10.1339H1.6001ZM2.66676 8.00052H4.08899V6.93385H2.66676V8.00052Z" fill="#3F485B"/>
</g>
</svg>
