<svg width="20" height="20" viewBox="0 0 20 20" fill="none" xmlns="http://www.w3.org/2000/svg">
<g clip-path="url(#clip0_3686_9890)">
<path d="M10.0003 1.66669C5.40033 1.66669 1.66699 5.40002 1.66699 10C1.66699 14.6 5.40033 18.3334 10.0003 18.3334C14.6003 18.3334 18.3337 14.6 18.3337 10C18.3337 5.40002 14.6003 1.66669 10.0003 1.66669ZM5.89199 15.2334C6.25033 14.4834 8.43366 13.75 10.0003 13.75C11.567 13.75 13.7587 14.4834 14.1087 15.2334C12.9753 16.1334 11.5503 16.6667 10.0003 16.6667C8.45033 16.6667 7.02533 16.1334 5.89199 15.2334ZM15.3003 14.025C14.1087 12.575 11.217 12.0834 10.0003 12.0834C8.78366 12.0834 5.89199 12.575 4.70033 14.025C3.85033 12.9084 3.33366 11.5167 3.33366 10C3.33366 6.32502 6.32533 3.33335 10.0003 3.33335C13.6753 3.33335 16.667 6.32502 16.667 10C16.667 11.5167 16.1503 12.9084 15.3003 14.025ZM10.0003 5.00002C8.38366 5.00002 7.08366 6.30002 7.08366 7.91669C7.08366 9.53335 8.38366 10.8334 10.0003 10.8334C11.617 10.8334 12.917 9.53335 12.917 7.91669C12.917 6.30002 11.617 5.00002 10.0003 5.00002ZM10.0003 9.16669C9.30866 9.16669 8.75033 8.60835 8.75033 7.91669C8.75033 7.22502 9.30866 6.66669 10.0003 6.66669C10.692 6.66669 11.2503 7.22502 11.2503 7.91669C11.2503 8.60835 10.692 9.16669 10.0003 9.16669Z" fill="#030615"/>
</g>
<defs>
<clipPath id="clip0_3686_9890">
<rect width="20" height="20" fill="white"/>
</clipPath>
</defs>
</svg>
