<svg width="20" height="20" viewBox="0 0 20 20" fill="none" xmlns="http://www.w3.org/2000/svg">
<path d="M3.33301 15.8333V14.1666H4.99967V8.33329C4.99967 7.18051 5.3469 6.15621 6.04134 5.26038C6.73579 4.36454 7.63856 3.77774 8.74967 3.49996V2.91663C8.74967 2.5694 8.8712 2.27426 9.11426 2.03121C9.35731 1.78815 9.65245 1.66663 9.99967 1.66663C10.3469 1.66663 10.642 1.78815 10.8851 2.03121C11.1281 2.27426 11.2497 2.5694 11.2497 2.91663V3.49996C12.3608 3.77774 13.2636 4.36454 13.958 5.26038C14.6525 6.15621 14.9997 7.18051 14.9997 8.33329V14.1666H16.6663V15.8333H3.33301ZM9.99967 18.3333C9.54134 18.3333 9.14898 18.1701 8.82259 17.8437C8.4962 17.5173 8.33301 17.125 8.33301 16.6666H11.6663C11.6663 17.125 11.5031 17.5173 11.1768 17.8437C10.8504 18.1701 10.458 18.3333 9.99967 18.3333ZM6.66634 14.1666H13.333V8.33329C13.333 7.41663 13.0066 6.6319 12.3538 5.97913C11.7011 5.32635 10.9163 4.99996 9.99967 4.99996C9.08301 4.99996 8.29829 5.32635 7.64551 5.97913C6.99273 6.6319 6.66634 7.41663 6.66634 8.33329V14.1666Z" fill="#030615"/>
</svg>
