<svg width="20" height="20" viewBox="-2 -2 20 20" fill="none" xmlns="http://www.w3.org/2000/svg">
    <g stroke="none" stroke-width="1" fill="none" fill-rule="evenodd">
        <g transform="translate(0.208250, 0.187500)" fill="#000000" fill-rule="nonzero">
            <path
                d="M14.60415,0 C15.15645,0 15.60415,0.44772 15.60415,1 L15.6051876,9.26761003 C15.1472612,8.76955646 14.5784885,8.37502681 13.9379874,8.12313886 L13.93755,6 L10.66665,6 L10.6665727,8.11491806 C10.2086589,8.29233072 9.78701095,8.54251388 9.41581893,8.85127745 L9.41665,6 L6.16667,6 L6.16667,9.3542 L8.90044605,9.35452178 C8.57871704,9.72307563 8.31608974,10.1445544 8.12734196,10.6041802 L6.16667,10.6042 L6.16667,13.9583 L8.10238886,13.9587374 C8.35055889,14.5897846 8.73719086,15.1512052 9.22487371,15.605588 L1,15.6042 C0.44772,15.6042 0,15.1565 0,14.6042 L0,1 C0,0.44772 0.44772,0 1,0 L14.60415,0 Z M4.91667,10.6042 L1.64584,10.6042 L1.64584,13.9583 L4.91667,13.9583 L4.91667,10.6042 Z M4.91667,6 L1.64584,6 L1.64584,9.3542 L4.91667,9.3542 L4.91667,6 Z M13.93755,1.66667 L1.64584,1.66667 L1.64584,4.75 L13.93755,4.75 L13.93755,1.66667 Z">
            </path>
            <polygon
                points="11.50145 14.1028 12.79175 16.8125 14.08205 14.1028 16.79175 12.8125 14.08205 11.5222 12.79175 8.8125 11.50145 11.5222 8.79175 12.8125">
            </polygon>
        </g>
    </g>
</svg>