<svg width="20" height="20" viewBox="0 0 20 20" fill="none" xmlns="http://www.w3.org/2000/svg">
<path fill-rule="evenodd" clip-rule="evenodd" d="M3.5 3.5V12.9013H4.65739V14.4013H3C2.44771 14.4013 2 13.9536 2 13.4013V3C2 2.44771 2.44772 2 3 2H13.4013C13.9536 2 14.4013 2.44772 14.4013 3V4.65739H12.9013V3.5H3.5ZM5.45104 17C5.45104 17.5523 5.89876 18 6.45104 18H17C17.5523 18 18 17.5523 18 17V6.45104C18 5.89876 17.5523 5.45104 17 5.45104H6.45104C5.89876 5.45104 5.45104 5.89876 5.45104 6.45104V17ZM16.6597 9.27102H6.77463V6.79138H16.6597V9.27102ZM13.024 12.9737H10.4103V10.2763H13.024V12.9737ZM13.024 16.6764H10.4103V13.979H13.024V16.6764ZM9.40505 12.9737H6.77463V10.2763H9.40505V12.9737ZM16.6597 12.9737H14.0292V10.2763H16.6597V12.9737ZM9.40505 16.6764H6.77463V13.979H9.40505V16.6764ZM16.6597 16.6764H14.0292V13.979H16.6597V16.6764Z" fill="black"/>
</svg>
