<svg width="20" height="20" viewBox="0 0 20 20" fill="none" xmlns="http://www.w3.org/2000/svg">
<path d="M3.20801 17.7917C2.65573 17.7917 2.20801 17.344 2.20801 16.7917V3.1875C2.20801 2.63522 2.65573 2.1875 3.20801 2.1875H16.8122C17.3645 2.1875 17.8122 2.63522 17.8122 3.1875V16.7917C17.8122 17.344 17.3645 17.7917 16.8122 17.7917H3.20801ZM3.85385 6.9375H16.1456V3.85417H3.85385V6.9375ZM8.37468 11.5417H11.6247V8.1875H8.37468V11.5417ZM8.37468 16.1458H11.6247V12.7917H8.37468V16.1458ZM3.85385 11.5417H7.12468V8.1875H3.85385V11.5417ZM12.8747 11.5417H16.1456V8.1875H12.8747V11.5417ZM3.85385 16.1458H7.12468V12.7917H3.85385V16.1458ZM12.8747 16.1458H16.1456V12.7917H12.8747V16.1458Z" fill="#030615"/>
</svg>
