<svg width="20" height="20" viewBox="0 0 20 20" fill="none" xmlns="http://www.w3.org/2000/svg">
<path d="M5.83333 12.5H11.6667V14.1666H5.83333V12.5ZM5.83333 9.16665H14.1667V10.8333H5.83333V9.16665ZM5.83333 5.83331H14.1667V7.49998H5.83333V5.83331ZM15.8333 2.49998H12.35C12 1.53331 11.0833 0.833313 10 0.833313C8.91667 0.833313 8 1.53331 7.65 2.49998H4.16667C4.05 2.49998 3.94167 2.50831 3.83333 2.53331C3.56793 2.589 3.32003 2.70835 3.11099 2.8811C2.90195 3.05385 2.73803 3.27482 2.63333 3.52498C2.55 3.71665 2.5 3.93331 2.5 4.16665V15.8333C2.5 16.0583 2.55 16.2833 2.63333 16.4833C2.71667 16.6833 2.84167 16.8583 2.99167 17.0166C3.21667 17.2416 3.50833 17.4083 3.83333 17.475C3.94167 17.4916 4.05 17.5 4.16667 17.5H15.8333C16.75 17.5 17.5 16.75 17.5 15.8333V4.16665C17.5 3.24998 16.75 2.49998 15.8333 2.49998ZM10 2.29165C10.3417 2.29165 10.625 2.57498 10.625 2.91665C10.625 3.25831 10.3417 3.54165 10 3.54165C9.65833 3.54165 9.375 3.25831 9.375 2.91665C9.375 2.57498 9.65833 2.29165 10 2.29165ZM15.8333 15.8333H4.16667V4.16665H15.8333V15.8333Z" fill="#030615"/>
</svg>
