<svg width="20" height="20" viewBox="0 0 20 20" fill="none" xmlns="http://www.w3.org/2000/svg">
<path d="M13.7497 4.99998V14.5833C13.7497 16.425 12.258 17.9166 10.4163 17.9166C8.57467 17.9166 7.08301 16.425 7.08301 14.5833V4.16665C7.08301 3.61411 7.3025 3.08421 7.6932 2.69351C8.0839 2.30281 8.61381 2.08331 9.16634 2.08331C9.71888 2.08331 10.2488 2.30281 10.6395 2.69351C11.0302 3.08421 11.2497 3.61411 11.2497 4.16665V12.9166C11.2497 13.375 10.8747 13.75 10.4163 13.75C9.95801 13.75 9.58301 13.375 9.58301 12.9166V4.99998H8.33301V12.9166C8.33301 13.4692 8.5525 13.9991 8.9432 14.3898C9.3339 14.7805 9.86381 15 10.4163 15C10.9689 15 11.4988 14.7805 11.8895 14.3898C12.2802 13.9991 12.4997 13.4692 12.4997 12.9166V4.16665C12.4997 2.32498 11.008 0.833313 9.16634 0.833313C7.32467 0.833313 5.83301 2.32498 5.83301 4.16665V14.5833C5.83301 17.1166 7.88301 19.1666 10.4163 19.1666C12.9497 19.1666 14.9997 17.1166 14.9997 14.5833V4.99998H13.7497Z" fill="#030615"/>
</svg>
