<svg width="24" height="24" viewBox="0 0 24 24" fill="none" xmlns="http://www.w3.org/2000/svg">
<g clip-path="url(#clip0_34_14853)">
<path d="M19.03 3.5598C17.36 2.1698 15.29 1.2598 13 1.0498V3.0598C14.73 3.2498 16.31 3.9398 17.61 4.9798L19.03 3.5598Z" fill="#171615"/>
<path d="M11.0002 3.0598V1.0498C8.71022 1.2498 6.64021 2.1698 4.97021 3.5598L6.39021 4.9798C7.69021 3.9398 9.27022 3.2498 11.0002 3.0598Z" fill="#171615"/>
<path d="M4.9798 6.38973L3.5598 4.96973C2.1698 6.63973 1.2598 8.70973 1.0498 10.9997H3.0598C3.2498 9.26973 3.9398 7.68973 4.9798 6.38973Z" fill="#171615"/>
<path d="M20.94 10.9997H22.95C22.74 8.70973 21.83 6.63973 20.44 4.96973L19.02 6.38973C20.06 7.68973 20.75 9.26973 20.94 10.9997Z" fill="#171615"/>
<path d="M12 20.9997C8.89 20.9997 6.15 19.4097 4.54 16.9997H7V14.9997H1V20.9997H3V18.2997C4.99 21.1397 8.27 22.9997 12 22.9997C16.87 22.9997 21 19.8297 22.44 15.4397L20.48 14.9897C19.25 18.4797 15.92 20.9997 12 20.9997Z" fill="#171615"/>
</g>
<defs>
<clipPath id="clip0_34_14853">
<rect width="24" height="24" fill="white"/>
</clipPath>
</defs>
</svg>
