<svg width="20" height="20" viewBox="0 0 20 20" fill="none" xmlns="http://www.w3.org/2000/svg">
<path d="M10.0182 18C8.70615 18 7.47608 17.6993 6.32802 17.098C5.17995 16.4966 4.22323 15.6553 3.45786 14.574V16.5421H2V12.1686H6.37358V13.6264H4.5877C5.20729 14.5376 5.99393 15.2513 6.94761 15.7677C7.90129 16.284 8.92483 16.5421 10.0182 16.5421C11.4153 16.5421 12.6819 16.1412 13.8178 15.3394C14.9537 14.5376 15.7525 13.4746 16.2141 12.1503L17.6355 12.4784C17.0888 14.1306 16.1169 15.4639 14.7198 16.4784C13.3227 17.4928 11.7555 18 10.0182 18ZM2.03645 9.25285C2.12149 8.43888 2.31587 7.65831 2.61959 6.91116C2.92331 6.16401 3.34245 5.47456 3.87699 4.84282L4.91572 5.88155C4.52696 6.37965 4.21109 6.91116 3.96811 7.47608C3.72513 8.041 3.57327 8.63326 3.51253 9.25285H2.03645ZM5.93622 4.86105L4.89749 3.82232C5.54138 3.28778 6.23386 2.8656 6.97494 2.55581C7.71602 2.24601 8.48747 2.06074 9.28929 2V3.45786C8.6697 3.5186 8.08049 3.67046 7.52164 3.91344C6.96279 4.15642 6.43432 4.47229 5.93622 4.86105ZM14.1185 4.86105C13.6203 4.47229 13.0888 4.15642 12.5239 3.91344C11.959 3.67046 11.3667 3.5186 10.7472 3.45786V2C11.5611 2.07289 12.3417 2.2612 13.0888 2.56492C13.836 2.86864 14.5254 3.28778 15.1572 3.82232L14.1185 4.86105ZM16.5421 9.25285C16.4814 8.63326 16.3295 8.041 16.0866 7.47608C15.8436 6.91116 15.5277 6.37965 15.139 5.88155L16.1777 4.84282C16.7122 5.47456 17.1314 6.16401 17.4351 6.91116C17.7388 7.65831 17.9271 8.43888 18 9.25285H16.5421Z" fill="#030615"/>
<path d="M8.7097 11.2903L10 14L11.2903 11.2903L14 10L11.2903 8.7097L10 6L8.7097 8.7097L6 10L8.7097 11.2903Z" fill="#030615"/>
</svg>
