<svg width="20" height="20" viewBox="0 0 20 20" fill="none" xmlns="http://www.w3.org/2000/svg">
<path d="M9.99967 15.8333C10.9163 15.8333 11.7011 15.5069 12.3538 14.8542C13.0066 14.2014 13.333 13.4167 13.333 12.5V9.16667C13.333 8.25 13.0066 7.46528 12.3538 6.8125C11.7011 6.15972 10.9163 5.83333 9.99967 5.83333C9.08301 5.83333 8.29829 6.15972 7.64551 6.8125C6.99273 7.46528 6.66634 8.25 6.66634 9.16667V12.5C6.66634 13.4167 6.99273 14.2014 7.64551 14.8542C8.29829 15.5069 9.08301 15.8333 9.99967 15.8333ZM8.33301 13.3333H11.6663V11.6667H8.33301V13.3333ZM8.33301 10H11.6663V8.33333H8.33301V10ZM9.99967 17.5C9.0969 17.5 8.26009 17.2778 7.48926 16.8333C6.71842 16.3889 6.11079 15.7778 5.66634 15H3.33301V13.3333H5.08301C5.04134 13.0556 5.01704 12.7778 5.01009 12.5C5.00315 12.2222 4.99967 11.9444 4.99967 11.6667H3.33301V10H4.99967C4.99967 9.72222 5.00315 9.44444 5.01009 9.16667C5.01704 8.88889 5.04134 8.61111 5.08301 8.33333H3.33301V6.66667H5.66634C5.86079 6.34722 6.07954 6.04861 6.32259 5.77083C6.56565 5.49306 6.8469 5.25 7.16634 5.04167L5.83301 3.66667L6.99967 2.5L8.79134 4.29167C9.18023 4.16667 9.57606 4.10417 9.97884 4.10417C10.3816 4.10417 10.7775 4.16667 11.1663 4.29167L12.9997 2.5L14.1663 3.66667L12.7913 5.04167C13.1108 5.25 13.399 5.48958 13.6559 5.76042C13.9129 6.03125 14.1386 6.33333 14.333 6.66667H16.6663V8.33333H14.9163C14.958 8.61111 14.9823 8.88889 14.9893 9.16667C14.9962 9.44444 14.9997 9.72222 14.9997 10H16.6663V11.6667H14.9997C14.9997 11.9444 14.9962 12.2222 14.9893 12.5C14.9823 12.7778 14.958 13.0556 14.9163 13.3333H16.6663V15H14.333C13.8886 15.7778 13.2809 16.3889 12.5101 16.8333C11.7393 17.2778 10.9025 17.5 9.99967 17.5Z" fill="#030615"/>
</svg>
