<svg width="20" height="20" viewBox="0 0 20 20" fill="none" xmlns="http://www.w3.org/2000/svg">
<path d="M3.33301 16.6667V15H5.62467L5.29134 14.7084C4.56912 14.0695 4.06217 13.3403 3.77051 12.5209C3.47884 11.7014 3.33301 10.875 3.33301 10.0417C3.33301 8.50004 3.79481 7.12851 4.71842 5.92712C5.64204 4.72574 6.8469 3.9306 8.33301 3.54171V5.29171C7.33301 5.65282 6.52745 6.2674 5.91634 7.13546C5.30523 8.00351 4.99967 8.97226 4.99967 10.0417C4.99967 10.6667 5.11773 11.2743 5.35384 11.8646C5.58995 12.4549 5.95801 13 6.45801 13.5L6.66634 13.7084V11.6667H8.33301V16.6667H3.33301ZM11.6663 16.4584V14.7084C12.6663 14.3473 13.4719 13.7327 14.083 12.8646C14.6941 11.9966 14.9997 11.0278 14.9997 9.95837C14.9997 9.33337 14.8816 8.72573 14.6455 8.13546C14.4094 7.54518 14.0413 7.00004 13.5413 6.50004L13.333 6.29171V8.33337H11.6663V3.33337H16.6663V5.00004H14.3747L14.708 5.29171C15.3886 5.97226 15.8851 6.71185 16.1976 7.51046C16.5101 8.30907 16.6663 9.12504 16.6663 9.95837C16.6663 11.5 16.2045 12.8716 15.2809 14.073C14.3573 15.2743 13.1525 16.0695 11.6663 16.4584Z" fill="#030615"/>
</svg>
