<svg width="20" height="20" viewBox="0 0 20 20" fill="none" xmlns="http://www.w3.org/2000/svg">
<path d="M14.9998 10.8334V9.16671H18.3332V10.8334H14.9998ZM15.9998 16.6667L13.3332 14.6667L14.3332 13.3334L16.9998 15.3334L15.9998 16.6667ZM14.3332 6.66671L13.3332 5.33337L15.9998 3.33337L16.9998 4.66671L14.3332 6.66671ZM4.1665 15.8334V12.5H3.33317C2.87484 12.5 2.48248 12.3368 2.15609 12.0105C1.8297 11.6841 1.6665 11.2917 1.6665 10.8334V9.16671C1.6665 8.70837 1.8297 8.31601 2.15609 7.98962C2.48248 7.66323 2.87484 7.50004 3.33317 7.50004H6.6665L10.8332 5.00004V15L6.6665 12.5H5.83317V15.8334H4.1665ZM9.1665 12.0417V7.95837L7.12484 9.16671H3.33317V10.8334H7.12484L9.1665 12.0417ZM11.6665 12.7917V7.20837C12.0415 7.54171 12.3436 7.94796 12.5728 8.42712C12.8019 8.90629 12.9165 9.4306 12.9165 10C12.9165 10.5695 12.8019 11.0938 12.5728 11.573C12.3436 12.0521 12.0415 12.4584 11.6665 12.7917Z" fill="#030615"/>
</svg>
