<svg width="20" height="20" viewBox="0 0 20 20" fill="none" xmlns="http://www.w3.org/2000/svg">
<path d="M2.5625 10.8333C2.54861 10.6944 2.53819 10.5556 2.53125 10.4167C2.5243 10.2778 2.52083 10.1389 2.52083 10C2.52083 8.95833 2.71528 7.98264 3.10417 7.07292C3.49305 6.16319 4.02778 5.37153 4.70833 4.69792C5.38889 4.02431 6.18055 3.48958 7.08333 3.09375C7.98611 2.69792 8.95833 2.5 10 2.5C11.0417 2.5 12.0174 2.69792 12.9271 3.09375C13.8368 3.48958 14.6285 4.02431 15.3021 4.69792C15.9757 5.37153 16.5104 6.16319 16.9062 7.07292C17.3021 7.98264 17.5 8.95833 17.5 10C17.5 10.1389 17.4965 10.2778 17.4896 10.4167C17.4826 10.5556 17.4722 10.6944 17.4583 10.8333H15.7708C15.7986 10.6944 15.816 10.5556 15.8229 10.4167C15.8299 10.2778 15.8333 10.1389 15.8333 10C15.8333 9.86111 15.8299 9.72222 15.8229 9.58333C15.816 9.44444 15.7986 9.30556 15.7708 9.16667H13.3125C13.3264 9.30556 13.3333 9.44444 13.3333 9.58333V10.4167C13.3333 10.5556 13.3264 10.6944 13.3125 10.8333H11.6667V10.1458C11.6667 9.97917 11.6632 9.8125 11.6562 9.64583C11.6493 9.47917 11.6389 9.31944 11.625 9.16667H8.39583C8.38194 9.31944 8.37153 9.47917 8.36458 9.64583C8.35764 9.8125 8.35417 9.97917 8.35417 10.1458V10.8333H6.70833C6.69444 10.6944 6.6875 10.5556 6.6875 10.4167V9.58333C6.6875 9.44444 6.69444 9.30556 6.70833 9.16667H4.25C4.22222 9.30556 4.20486 9.44444 4.19792 9.58333C4.19097 9.72222 4.1875 9.86111 4.1875 10C4.1875 10.1389 4.19097 10.2778 4.19792 10.4167C4.20486 10.5556 4.22222 10.6944 4.25 10.8333H2.5625ZM4.75 7.5H6.89583C7.00694 6.90278 7.14583 6.36458 7.3125 5.88542C7.47917 5.40625 7.65972 4.97222 7.85417 4.58333C7.1875 4.83333 6.58333 5.21181 6.04167 5.71875C5.5 6.22569 5.06944 6.81944 4.75 7.5ZM8.625 7.5H11.375C11.2361 6.90278 11.0625 6.31944 10.8542 5.75C10.6458 5.18056 10.3611 4.65278 10 4.16667C9.63889 4.65278 9.35069 5.18056 9.13542 5.75C8.92014 6.31944 8.75 6.90278 8.625 7.5ZM13.125 7.5H15.2708C14.9514 6.81944 14.5174 6.22569 13.9687 5.71875C13.4201 5.21181 12.8125 4.83333 12.1458 4.58333C12.3403 5 12.5243 5.44097 12.6979 5.90625C12.8715 6.37153 13.0139 6.90278 13.125 7.5ZM9.16667 17.5V16.6667C9.16667 15.9722 8.92361 15.3819 8.4375 14.8958C7.95139 14.4097 7.36111 14.1667 6.66667 14.1667H1.66667V12.5H6.66667C7.33333 12.5 7.95486 12.6458 8.53125 12.9375C9.10764 13.2292 9.59722 13.6389 10 14.1667C10.4028 13.6389 10.8924 13.2292 11.4687 12.9375C12.0451 12.6458 12.6667 12.5 13.3333 12.5H18.3333V14.1667H13.3333C12.6389 14.1667 12.0486 14.4097 11.5625 14.8958C11.0764 15.3819 10.8333 15.9722 10.8333 16.6667V17.5H9.16667Z" fill="#030615"/>
</svg>
