<svg width="16" height="16" viewBox="0 0 16 16" fill="none" xmlns="http://www.w3.org/2000/svg">
<g id="catalog">
<path id="Vector" d="M8.00016 14.6668C7.08905 14.6668 6.22794 14.4918 5.41683 14.1418C4.60572 13.7918 3.89738 13.3141 3.29183 12.7085C2.68627 12.1029 2.2085 11.3946 1.8585 10.5835C1.5085 9.77238 1.3335 8.91127 1.3335 8.00016C1.3335 7.07794 1.5085 6.21405 1.8585 5.4085C2.2085 4.60294 2.68627 3.89738 3.29183 3.29183C3.89738 2.68627 4.60572 2.2085 5.41683 1.8585C6.22794 1.5085 7.08905 1.3335 8.00016 1.3335C8.92238 1.3335 9.78627 1.5085 10.5918 1.8585C11.3974 2.2085 12.1029 2.68627 12.7085 3.29183C13.3141 3.89738 13.7918 4.60294 14.1418 5.4085C14.4918 6.21405 14.6668 7.07794 14.6668 8.00016C14.6668 8.91127 14.4918 9.77238 14.1418 10.5835C13.7918 11.3946 13.3141 12.1029 12.7085 12.7085C12.1029 13.3141 11.3974 13.7918 10.5918 14.1418C9.78627 14.4918 8.92238 14.6668 8.00016 14.6668ZM8.00016 13.3002C8.28905 12.9002 8.53905 12.4835 8.75016 12.0502C8.96127 11.6168 9.1335 11.1557 9.26683 10.6668H6.7335C6.86683 11.1557 7.03905 11.6168 7.25016 12.0502C7.46127 12.4835 7.71127 12.9002 8.00016 13.3002ZM6.26683 13.0335C6.06683 12.6668 5.89183 12.2863 5.74183 11.8918C5.59183 11.4974 5.46683 11.0891 5.36683 10.6668H3.40016C3.72238 11.2224 4.12516 11.7057 4.6085 12.1168C5.09183 12.5279 5.64461 12.8335 6.26683 13.0335ZM9.7335 13.0335C10.3557 12.8335 10.9085 12.5279 11.3918 12.1168C11.8752 11.7057 12.2779 11.2224 12.6002 10.6668H10.6335C10.5335 11.0891 10.4085 11.4974 10.2585 11.8918C10.1085 12.2863 9.9335 12.6668 9.7335 13.0335ZM2.8335 9.3335H5.10016C5.06683 9.11127 5.04183 8.89183 5.02516 8.67516C5.0085 8.4585 5.00016 8.2335 5.00016 8.00016C5.00016 7.76683 5.0085 7.54183 5.02516 7.32516C5.04183 7.1085 5.06683 6.88905 5.10016 6.66683H2.8335C2.77794 6.88905 2.73627 7.1085 2.7085 7.32516C2.68072 7.54183 2.66683 7.76683 2.66683 8.00016C2.66683 8.2335 2.68072 8.4585 2.7085 8.67516C2.73627 8.89183 2.77794 9.11127 2.8335 9.3335ZM6.4335 9.3335H9.56683C9.60016 9.11127 9.62516 8.89183 9.64183 8.67516C9.6585 8.4585 9.66683 8.2335 9.66683 8.00016C9.66683 7.76683 9.6585 7.54183 9.64183 7.32516C9.62516 7.1085 9.60016 6.88905 9.56683 6.66683H6.4335C6.40016 6.88905 6.37516 7.1085 6.3585 7.32516C6.34183 7.54183 6.3335 7.76683 6.3335 8.00016C6.3335 8.2335 6.34183 8.4585 6.3585 8.67516C6.37516 8.89183 6.40016 9.11127 6.4335 9.3335ZM10.9002 9.3335H13.1668C13.2224 9.11127 13.2641 8.89183 13.2918 8.67516C13.3196 8.4585 13.3335 8.2335 13.3335 8.00016C13.3335 7.76683 13.3196 7.54183 13.2918 7.32516C13.2641 7.1085 13.2224 6.88905 13.1668 6.66683H10.9002C10.9335 6.88905 10.9585 7.1085 10.9752 7.32516C10.9918 7.54183 11.0002 7.76683 11.0002 8.00016C11.0002 8.2335 10.9918 8.4585 10.9752 8.67516C10.9585 8.89183 10.9335 9.11127 10.9002 9.3335ZM10.6335 5.3335H12.6002C12.2779 4.77794 11.8752 4.29461 11.3918 3.8835C10.9085 3.47238 10.3557 3.16683 9.7335 2.96683C9.9335 3.3335 10.1085 3.71405 10.2585 4.1085C10.4085 4.50294 10.5335 4.91127 10.6335 5.3335ZM6.7335 5.3335H9.26683C9.1335 4.84461 8.96127 4.3835 8.75016 3.95016C8.53905 3.51683 8.28905 3.10016 8.00016 2.70016C7.71127 3.10016 7.46127 3.51683 7.25016 3.95016C7.03905 4.3835 6.86683 4.84461 6.7335 5.3335ZM3.40016 5.3335H5.36683C5.46683 4.91127 5.59183 4.50294 5.74183 4.1085C5.89183 3.71405 6.06683 3.3335 6.26683 2.96683C5.64461 3.16683 5.09183 3.47238 4.6085 3.8835C4.12516 4.29461 3.72238 4.77794 3.40016 5.3335Z" fill="#030615"/>
</g>
</svg>