<svg width="20" height="20" viewBox="0 0 20 20" fill="none" xmlns="http://www.w3.org/2000/svg">
<g clip-path="url(#clip0_3686_9929)">
<path fill-rule="evenodd" clip-rule="evenodd" d="M11.9996 2C11.4691 2 10.9604 2.21071 10.5854 2.58579C10.2103 2.96086 9.99957 3.46957 9.99957 4V8C9.99957 8.53043 10.2103 9.03914 10.5854 9.41421C10.9604 9.78929 11.4691 10 11.9996 10H12.8536C12.5149 10.822 11.9731 11.5445 11.2789 12.0998C10.5847 12.6552 9.76084 13.0251 8.88457 13.175C8.74026 12.6726 8.46744 12.2165 8.09303 11.8517C7.71862 11.487 7.25557 11.2261 6.74957 11.095V3H5.24957V11.095C4.73448 11.2278 4.26396 11.4952 3.8862 11.8697C3.50844 12.2442 3.23702 12.7124 3.09972 13.2264C2.96243 13.7403 2.96421 14.2814 3.10487 14.7945C3.24553 15.3075 3.52002 15.7739 3.90023 16.1459C4.28043 16.5179 4.75269 16.7822 5.26864 16.9117C5.78458 17.0411 6.32567 17.0311 6.83648 16.8827C7.34729 16.7343 7.80947 16.4527 8.17567 16.0669C8.54188 15.6811 8.79895 15.2049 8.92057 14.687C10.1919 14.5119 11.3871 13.978 12.3658 13.1478C13.3445 12.3177 14.0663 11.2258 14.4466 10H15.9996C16.53 10 17.0387 9.78929 17.4138 9.41421C17.7889 9.03914 17.9996 8.53043 17.9996 8V4C17.9996 3.46957 17.7889 2.96086 17.4138 2.58579C17.0387 2.21071 16.53 2 15.9996 2H11.9996ZM12.2496 5.375H11.6246V6.625H13.3746V8.375H14.6246V6.625H16.3746V5.375H14.6246V3.625H13.3746V5.375H12.2496ZM7.49957 14C7.49957 14.3978 7.34153 14.7794 7.06023 15.0607C6.77892 15.342 6.39739 15.5 5.99957 15.5C5.60174 15.5 5.22021 15.342 4.93891 15.0607C4.6576 14.7794 4.49957 14.3978 4.49957 14C4.49957 13.6022 4.6576 13.2206 4.93891 12.9393C5.22021 12.658 5.60174 12.5 5.99957 12.5C6.39739 12.5 6.77892 12.658 7.06023 12.9393C7.34153 13.2206 7.49957 13.6022 7.49957 14Z" fill="#030615"/>
</g>
<defs>
<clipPath id="clip0_3686_9929">
<rect width="16" height="16" fill="white" transform="translate(2 2)"/>
</clipPath>
</defs>
</svg>
