<svg width="20" height="20" viewBox="0 0 20 20" fill="none" xmlns="http://www.w3.org/2000/svg">
<path fill-rule="evenodd" clip-rule="evenodd" d="M15.6501 10.6562C15.3246 13.4883 12.9192 15.6875 10 15.6875C6.85888 15.6875 4.3125 13.1412 4.3125 10C4.3125 7.08083 6.51174 4.67532 9.34375 4.34995V9.78125C9.34375 10.2645 9.73551 10.6562 10.2188 10.6562H15.6501ZM15.6501 9.34375H10.6562V4.34995C13.2729 4.65058 15.3494 6.72706 15.6501 9.34375ZM17 10C17 13.866 13.866 17 10 17C6.134 17 3 13.866 3 10C3 6.134 6.134 3 10 3C13.866 3 17 6.134 17 10Z" fill="#030615"/>
</svg>
