<svg width="20" height="20" viewBox="0 0 20 20" fill="none" xmlns="http://www.w3.org/2000/svg">
<path d="M5.83366 15C5.59755 15 5.39963 14.9201 5.23991 14.7604C5.08019 14.6007 5.00033 14.4027 5.00033 14.1666V12.5H15.8337V4.99996H17.5003C17.7364 4.99996 17.9344 5.07982 18.0941 5.23954C18.2538 5.39926 18.3337 5.59718 18.3337 5.83329V18.3333L15.0003 15H5.83366ZM1.66699 14.1666V2.49996C1.66699 2.26385 1.74685 2.06593 1.90658 1.90621C2.0663 1.74649 2.26421 1.66663 2.50033 1.66663H13.3337C13.5698 1.66663 13.7677 1.74649 13.9274 1.90621C14.0871 2.06593 14.167 2.26385 14.167 2.49996V9.99996C14.167 10.2361 14.0871 10.434 13.9274 10.5937C13.7677 10.7534 13.5698 10.8333 13.3337 10.8333H5.00033L1.66699 14.1666ZM12.5003 9.16663V3.33329H3.33366V9.16663H12.5003Z" fill="#030615"/>
</svg>
