<svg width="20" height="20" viewBox="-2 0 18 20" fill="none" xmlns="http://www.w3.org/2000/svg">
<path d="M7.5 19.6583V16.6583C3.325 16.4417 0 12.975 0 8.75C0 4.38333 3.55 0.833333 7.91667 0.833333C12.2833 0.833333 15.8333 4.38333 15.8333 8.75C15.8333 12.875 12.9667 17.025 8.69167 19.0833L7.5 19.6583ZM7.91667 2.5C4.46667 2.5 1.66667 5.3 1.66667 8.75C1.66667 12.2 4.46667 15 7.91667 15H9.16667V16.9167C12.2 15 14.1667 11.85 14.1667 8.75C14.1667 5.3 11.3667 2.5 7.91667 2.5ZM7.08333 12.0833H8.75V13.75H7.08333V12.0833ZM8.75 10.8333H7.08333C7.08333 8.125 9.58333 8.33333 9.58333 6.66667C9.58333 5.75 8.83333 5 7.91667 5C7 5 6.25 5.75 6.25 6.66667H4.58333C4.58333 4.825 6.075 3.33333 7.91667 3.33333C9.75833 3.33333 11.25 4.825 11.25 6.66667C11.25 8.75 8.75 8.95833 8.75 10.8333Z" fill="#09086E"/>
</svg>
