<svg width="20" height="20" viewBox="0 0 20 20" fill="none" xmlns="http://www.w3.org/2000/svg">
<path d="M5.41634 16.6666C4.15245 16.6666 3.07259 16.2291 2.17676 15.3541C1.28092 14.4791 0.833008 13.4097 0.833008 12.1458C0.833008 11.0625 1.1594 10.0972 1.81217 9.24998C2.46495 8.40276 3.31912 7.86109 4.37467 7.62498C4.7219 6.3472 5.41634 5.31248 6.45801 4.52081C7.49967 3.72915 8.68023 3.33331 9.99967 3.33331C11.6247 3.33331 13.0031 3.89929 14.1351 5.03123C15.267 6.16317 15.833 7.54165 15.833 9.16665C16.7913 9.27776 17.5865 9.69095 18.2184 10.4062C18.8504 11.1215 19.1663 11.9583 19.1663 12.9166C19.1663 13.9583 18.8018 14.8437 18.0726 15.5729C17.3434 16.3021 16.458 16.6666 15.4163 16.6666H5.41634ZM5.41634 15H15.4163C15.9997 15 16.4927 14.7986 16.8955 14.3958C17.2983 13.993 17.4997 13.5 17.4997 12.9166C17.4997 12.3333 17.2983 11.8403 16.8955 11.4375C16.4927 11.0347 15.9997 10.8333 15.4163 10.8333H14.1663V9.16665C14.1663 8.01387 13.7601 7.03123 12.9476 6.21873C12.1351 5.40623 11.1525 4.99998 9.99967 4.99998C8.8469 4.99998 7.86426 5.40623 7.05176 6.21873C6.23926 7.03123 5.83301 8.01387 5.83301 9.16665H5.41634C4.61079 9.16665 3.92329 9.45137 3.35384 10.0208C2.7844 10.5903 2.49967 11.2778 2.49967 12.0833C2.49967 12.8889 2.7844 13.5764 3.35384 14.1458C3.92329 14.7153 4.61079 15 5.41634 15Z" fill="#030615"/>
</svg>
