<svg width="20" height="20" viewBox="0 0 20 20" fill="none" xmlns="http://www.w3.org/2000/svg">
<path fill-rule="evenodd" clip-rule="evenodd" d="M2.15658 16.1771C2.48296 16.5035 2.87533 16.6667 3.33366 16.6667H9V15H3.33366V5.00004H7.64616L9.31283 6.66671H16.667V10H18.3337V6.66671C18.3337 6.20837 18.1705 5.81601 17.8441 5.48962C17.5177 5.16324 17.1253 5.00004 16.667 5.00004H10.0003L8.33366 3.33337H3.33366C2.87533 3.33337 2.48296 3.49657 2.15658 3.82296C1.83019 4.14935 1.66699 4.54171 1.66699 5.00004V15C1.66699 15.4584 1.83019 15.8507 2.15658 16.1771Z" fill="#030615"/>
<path d="M12.6312 18.9763C13.4488 19.6588 14.405 20 15.5 20C16.745 20 17.8063 19.5612 18.6838 18.6838C19.5612 17.8063 20 16.745 20 15.5C20 14.255 19.5612 13.1938 18.6838 12.3163C17.8063 11.4388 16.745 11 15.5 11C14.885 11 14.3075 11.1162 13.7675 11.3487C13.2275 11.5812 12.755 11.8925 12.35 12.2825V11H11V14.6H14.6V13.25H13.295C13.58 12.965 13.91 12.7437 14.285 12.5862C14.66 12.4287 15.065 12.35 15.5 12.35C16.37 12.35 17.1125 12.6575 17.7275 13.2725C18.3425 13.8875 18.65 14.63 18.65 15.5C18.65 16.37 18.3425 17.1125 17.7275 17.7275C17.1125 18.3425 16.37 18.65 15.5 18.65C14.78 18.65 14.1462 18.44 13.5987 18.02C13.0512 17.6 12.68 17.06 12.485 16.4H11.09C11.3 17.435 11.8138 18.2938 12.6312 18.9763Z" fill="#030615"/>
</svg>
