<svg width="20" height="20" viewBox="0 0 20 20" fill="none" xmlns="http://www.w3.org/2000/svg">
<path d="M3.33366 10V15V5.00004V10ZM11.667 17.5C11.9031 17.5 12.101 17.4202 12.2607 17.2605C12.4205 17.1007 12.5003 16.9028 12.5003 16.6667C12.5003 16.4306 12.4205 16.2327 12.2607 16.073C12.101 15.9132 11.9031 15.8334 11.667 15.8334C11.4309 15.8334 11.233 15.9132 11.0732 16.073C10.9135 16.2327 10.8337 16.4306 10.8337 16.6667C10.8337 16.9028 10.9135 17.1007 11.0732 17.2605C11.233 17.4202 11.4309 17.5 11.667 17.5ZM16.667 9.16671C16.9031 9.16671 17.101 9.08685 17.2607 8.92712C17.4205 8.7674 17.5003 8.56948 17.5003 8.33337C17.5003 8.09726 17.4205 7.89935 17.2607 7.73962C17.101 7.5799 16.9031 7.50004 16.667 7.50004C16.4309 7.50004 16.233 7.5799 16.0732 7.73962C15.9135 7.89935 15.8337 8.09726 15.8337 8.33337C15.8337 8.56948 15.9135 8.7674 16.0732 8.92712C16.233 9.08685 16.4309 9.16671 16.667 9.16671ZM5.00033 9.16671H9.16699V7.50004H5.00033V9.16671ZM5.00033 12.5H9.16699V10.8334H5.00033V12.5ZM3.33366 16.6667C2.87533 16.6667 2.48296 16.5035 2.15658 16.1771C1.83019 15.8507 1.66699 15.4584 1.66699 15V5.00004C1.66699 4.54171 1.83019 4.14935 2.15658 3.82296C2.48296 3.49657 2.87533 3.33337 3.33366 3.33337H16.667C17.1253 3.33337 17.5177 3.49657 17.8441 3.82296C18.1705 4.14935 18.3337 4.54171 18.3337 5.00004H3.33366V15H7.50033V16.6667H3.33366ZM11.667 19.1667C10.9725 19.1667 10.3823 18.9237 9.89616 18.4375C9.41005 17.9514 9.16699 17.3612 9.16699 16.6667C9.16699 16.125 9.32324 15.6389 9.63574 15.2084C9.94824 14.7778 10.3475 14.4792 10.8337 14.3125V11.6667H15.8337V10.6875C15.3475 10.5209 14.9482 10.2223 14.6357 9.79171C14.3232 9.36115 14.167 8.87504 14.167 8.33337C14.167 7.63893 14.41 7.04865 14.8962 6.56254C15.3823 6.07643 15.9725 5.83337 16.667 5.83337C17.3614 5.83337 17.9517 6.07643 18.4378 6.56254C18.9239 7.04865 19.167 7.63893 19.167 8.33337C19.167 8.87504 19.0107 9.36115 18.6982 9.79171C18.3857 10.2223 17.9864 10.5209 17.5003 10.6875V13.3334H12.5003V14.3125C12.9864 14.4792 13.3857 14.7778 13.6982 15.2084C14.0107 15.6389 14.167 16.125 14.167 16.6667C14.167 17.3612 13.9239 17.9514 13.4378 18.4375C12.9517 18.9237 12.3614 19.1667 11.667 19.1667Z" fill="#030615"/>
</svg>
