<svg width="16" height="16" viewBox="0 0 16 16" fill="none" xmlns="http://www.w3.org/2000/svg">
    <path
        d="M1.33332 7.33333L4.66666 7.33333C5.28888 7.33333 5.74999 7.23889 6.04999 7.05C6.34999 6.86111 6.64443 6.61111 6.93332 6.3L7.88332 7.25C7.7611 7.38333 7.63055 7.51111 7.49166 7.63333C7.35277 7.75556 7.20555 7.87778 7.04999 8C7.2611 8.15556 7.44721 8.31389 7.60832 8.475C7.76943 8.63611 7.92777 8.8 8.08332 8.96667C8.47221 9.38889 8.92221 9.77222 9.43332 10.1167C9.94443 10.4611 10.8389 10.6444 12.1167 10.6667L11.0667 9.61667L12 8.66667L14.6667 11.3333L12 14L11.0667 13.0667L12.1167 12C10.5278 11.9778 9.39721 11.7333 8.72499 11.2667C8.05277 10.8 7.50555 10.3333 7.08332 9.86667C6.7611 9.51111 6.44721 9.22222 6.14166 9C5.8361 8.77778 5.34443 8.66667 4.66666 8.66667L1.33332 8.66667L1.33332 7.33333ZM10.55 4.13333C10.7722 4.08889 11.0167 4.05833 11.2833 4.04167C11.55 4.025 11.8278 4.01111 12.1167 4L11.0667 2.93333L12 2L14.6667 4.66667L12 7.33333L11.0667 6.38333L12.1 5.33333C11.8667 5.33333 11.6472 5.34444 11.4417 5.36667C11.2361 5.38889 11.0444 5.41111 10.8667 5.43333L10.55 4.13333ZM7.61666 5.56667C7.84999 5.34444 8.12221 5.13056 8.43332 4.925C8.74443 4.71944 9.12777 4.53889 9.58332 4.38333L9.89999 5.66667C9.59999 5.77778 9.34443 5.90556 9.13332 6.05C8.92221 6.19444 8.73332 6.35 8.56666 6.51667L7.61666 5.56667Z"
        fill="black" />
</svg>
    