<svg width="20" height="20" viewBox="0 0 20 20" fill="none" xmlns="http://www.w3.org/2000/svg">
<path d="M9.99967 18.75C9.12467 18.75 8.38509 18.4479 7.78092 17.8438C7.17676 17.2396 6.87467 16.5 6.87467 15.625C6.87467 14.9028 7.08995 14.2674 7.52051 13.7188C7.95106 13.1701 8.49967 12.7986 9.16634 12.6042V10.8333H4.16634V7.5H2.08301V1.66667H7.91634V7.5H5.83301V9.16667H14.1663V7.39583C13.4997 7.20139 12.9511 6.82986 12.5205 6.28125C12.09 5.73264 11.8747 5.09722 11.8747 4.375C11.8747 3.5 12.1768 2.76042 12.7809 2.15625C13.3851 1.55208 14.1247 1.25 14.9997 1.25C15.8747 1.25 16.6143 1.55208 17.2184 2.15625C17.8226 2.76042 18.1247 3.5 18.1247 4.375C18.1247 5.09722 17.9094 5.73264 17.4788 6.28125C17.0483 6.82986 16.4997 7.20139 15.833 7.39583V10.8333H10.833V12.6042C11.4997 12.7986 12.0483 13.1701 12.4788 13.7188C12.9094 14.2674 13.1247 14.9028 13.1247 15.625C13.1247 16.5 12.8226 17.2396 12.2184 17.8438C11.6143 18.4479 10.8747 18.75 9.99967 18.75ZM14.9997 5.83333C15.4025 5.83333 15.7462 5.69097 16.0309 5.40625C16.3156 5.12153 16.458 4.77778 16.458 4.375C16.458 3.97222 16.3156 3.62847 16.0309 3.34375C15.7462 3.05903 15.4025 2.91667 14.9997 2.91667C14.5969 2.91667 14.2531 3.05903 13.9684 3.34375C13.6837 3.62847 13.5413 3.97222 13.5413 4.375C13.5413 4.77778 13.6837 5.12153 13.9684 5.40625C14.2531 5.69097 14.5969 5.83333 14.9997 5.83333ZM3.74967 5.83333H6.24967V3.33333H3.74967V5.83333ZM9.99967 17.0833C10.4025 17.0833 10.7462 16.941 11.0309 16.6562C11.3156 16.3715 11.458 16.0278 11.458 15.625C11.458 15.2222 11.3156 14.8785 11.0309 14.5938C10.7462 14.309 10.4025 14.1667 9.99967 14.1667C9.5969 14.1667 9.25315 14.309 8.96842 14.5938C8.6837 14.8785 8.54134 15.2222 8.54134 15.625C8.54134 16.0278 8.6837 16.3715 8.96842 16.6562C9.25315 16.941 9.5969 17.0833 9.99967 17.0833Z" fill="#030615"/>
</svg>
