<svg width="20" height="20" viewBox="0 0 20 20" fill="none" xmlns="http://www.w3.org/2000/svg">
<path d="M5.41667 9.16669L10 1.66669L14.5833 9.16669H5.41667ZM14.5833 18.3334C13.5417 18.3334 12.6562 17.9688 11.9271 17.2396C11.1979 16.5104 10.8333 15.625 10.8333 14.5834C10.8333 13.5417 11.1979 12.6563 11.9271 11.9271C12.6562 11.1979 13.5417 10.8334 14.5833 10.8334C15.625 10.8334 16.5104 11.1979 17.2396 11.9271C17.9687 12.6563 18.3333 13.5417 18.3333 14.5834C18.3333 15.625 17.9687 16.5104 17.2396 17.2396C16.5104 17.9688 15.625 18.3334 14.5833 18.3334ZM2.5 17.9167V11.25H9.16667V17.9167H2.5ZM14.5833 16.6667C15.1667 16.6667 15.6597 16.4653 16.0625 16.0625C16.4653 15.6597 16.6667 15.1667 16.6667 14.5834C16.6667 14 16.4653 13.507 16.0625 13.1042C15.6597 12.7014 15.1667 12.5 14.5833 12.5C14 12.5 13.5069 12.7014 13.1042 13.1042C12.7014 13.507 12.5 14 12.5 14.5834C12.5 15.1667 12.7014 15.6597 13.1042 16.0625C13.5069 16.4653 14 16.6667 14.5833 16.6667ZM4.16667 16.25H7.5V12.9167H4.16667V16.25ZM8.375 7.50002H11.625L10 4.87502L8.375 7.50002Z" fill="#030615"/>
</svg>
