<svg width="20" height="20" viewBox="0 0 20 20" fill="none" xmlns="http://www.w3.org/2000/svg">
<path d="M5.41667 9.16663L10 1.66663L14.5833 9.16663H5.41667ZM14.5833 18.3333C13.5417 18.3333 12.6562 17.9687 11.9271 17.2395C11.1979 16.5104 10.8333 15.625 10.8333 14.5833C10.8333 13.5416 11.1979 12.6562 11.9271 11.927C12.6562 11.1979 13.5417 10.8333 14.5833 10.8333C15.625 10.8333 16.5104 11.1979 17.2396 11.927C17.9687 12.6562 18.3333 13.5416 18.3333 14.5833C18.3333 15.625 17.9687 16.5104 17.2396 17.2395C16.5104 17.9687 15.625 18.3333 14.5833 18.3333ZM2.5 17.9166V11.25H9.16667V17.9166H2.5ZM14.5833 16.6666C15.1667 16.6666 15.6597 16.4652 16.0625 16.0625C16.4653 15.6597 16.6667 15.1666 16.6667 14.5833C16.6667 14 16.4653 13.5069 16.0625 13.1041C15.6597 12.7013 15.1667 12.5 14.5833 12.5C14 12.5 13.5069 12.7013 13.1042 13.1041C12.7014 13.5069 12.5 14 12.5 14.5833C12.5 15.1666 12.7014 15.6597 13.1042 16.0625C13.5069 16.4652 14 16.6666 14.5833 16.6666ZM4.16667 16.25H7.5V12.9166H4.16667V16.25ZM8.375 7.49996H11.625L10 4.87496L8.375 7.49996Z" fill="#030615"/>
</svg>
