<svg width="1099" height="1099" viewBox="0 0 1099 1099" fill="none" xmlns="http://www.w3.org/2000/svg">
<g clip-path="url(#clip0_913_22777)">
<path d="M1029.5 552.959C1029.5 816.995 868.063 1031.04 581.759 1031.04C295.455 1031.04 63.3599 816.995 63.3599 552.959C63.3599 288.923 295.455 74.8799 581.759 74.8799C868.063 74.8799 1029.5 288.923 1029.5 552.959Z" fill="white"/>
<path d="M549.508 0C246.015 0 0 246.015 0 549.508C0 853.001 246.015 1099.02 549.508 1099.02C853.001 1099.02 1099.02 853.001 1099.02 549.508C1099.02 246.015 852.985 0 549.508 0ZM906.143 568.273L652.575 592.195L814.95 788.411L788.411 814.95L592.195 652.575L568.273 906.143H530.743L508.382 669.196L223.906 904.614L194.402 875.11L429.82 590.634L192.873 568.273V530.743L446.441 506.821L284.066 310.605L310.605 284.066L506.821 446.441L530.743 192.873H568.273L590.634 429.82L875.11 194.402L904.614 223.906L669.196 508.382L906.143 530.743V568.273Z" fill="black"/>
</g>
<defs>
<clipPath id="clip0_913_22777">
<rect width="1099" height="1099" fill="white"/>
</clipPath>
</defs>
</svg>
