<svg width="14" height="12" viewBox="0 0 14 12" fill="none" xmlns="http://www.w3.org/2000/svg">
<path d="M1.66668 11.3333C1.30001 11.3333 0.986121 11.2028 0.72501 10.9417C0.463899 10.6806 0.333344 10.3667 0.333344 10V2.00001C0.333344 1.63334 0.463899 1.31945 0.72501 1.05834C0.986121 0.797227 1.30001 0.666672 1.66668 0.666672H12.3333C12.7 0.666672 13.0139 0.797227 13.275 1.05834C13.5361 1.31945 13.6667 1.63334 13.6667 2.00001V10C13.6667 10.3667 13.5361 10.6806 13.275 10.9417C13.0139 11.2028 12.7 11.3333 12.3333 11.3333H1.66668ZM1.66668 10H12.3333V3.33334H1.66668V10ZM4.00001 9.33334L3.06668 8.4L4.78334 6.66667L3.05001 4.93334L4.00001 4L6.66668 6.66667L4.00001 9.33334ZM7.00001 9.33334V8H11V9.33334H7.00001Z" fill="black"/>
</svg>
