<svg width="20" height="20" viewBox="0 0 20 20" fill="none" xmlns="http://www.w3.org/2000/svg">
<path d="M1.66634 9.16667L5.83301 9.16667C6.61079 9.16667 7.18717 9.04861 7.56217 8.8125C7.93717 8.57639 8.30523 8.26389 8.66634 7.875L9.85384 9.0625C9.70106 9.22917 9.53787 9.38889 9.36426 9.54167C9.19065 9.69444 9.00662 9.84722 8.81217 10C9.07606 10.1944 9.3087 10.3924 9.51009 10.5937C9.71148 10.7951 9.9094 11 10.1038 11.2083C10.59 11.7361 11.1525 12.2153 11.7913 12.6458C12.4302 13.0764 13.5483 13.3056 15.1455 13.3333L13.833 12.0208L14.9997 10.8333L18.333 14.1667L14.9997 17.5L13.833 16.3333L15.1455 15C13.1594 14.9722 11.7462 14.6667 10.9059 14.0833C10.0656 13.5 9.38162 12.9167 8.85384 12.3333C8.45106 11.8889 8.0587 11.5278 7.67676 11.25C7.29481 10.9722 6.68023 10.8333 5.83301 10.8333L1.66634 10.8333L1.66634 9.16667ZM13.1872 5.16667C13.465 5.11111 13.7705 5.07292 14.1038 5.05208C14.4372 5.03125 14.7844 5.01389 15.1455 5L13.833 3.66667L14.9997 2.5L18.333 5.83333L14.9997 9.16667L13.833 7.97917L15.1247 6.66667C14.833 6.66667 14.5587 6.68056 14.3018 6.70833C14.0448 6.73611 13.8052 6.76389 13.583 6.79167L13.1872 5.16667ZM9.52051 6.95833C9.81217 6.68056 10.1525 6.41319 10.5413 6.15625C10.9302 5.89931 11.4094 5.67361 11.9788 5.47917L12.3747 7.08333C11.9997 7.22222 11.6802 7.38194 11.4163 7.5625C11.1525 7.74306 10.9163 7.9375 10.708 8.14583L9.52051 6.95833Z" fill="#030615"/>
</svg>
