<svg width="20" height="20" viewBox="0 0 20 20" fill="none" xmlns="http://www.w3.org/2000/svg">
<path d="M5 17.5V15.8334L5.34375 15.625C5.57292 15.4862 5.82292 15.2813 6.09375 15.0105C6.36458 14.7396 6.61111 14.3924 6.83333 13.9688C7.05556 13.5452 7.16667 13.0556 7.16667 12.5C7.16667 12.3473 7.15625 12.2014 7.13542 12.0625C7.11458 11.9237 7.09028 11.7917 7.0625 11.6667H5V10H6.25C5.95833 9.54171 5.67708 9.05907 5.40625 8.55212C5.13542 8.04518 5 7.41671 5 6.66671C5 5.38893 5.44444 4.3056 6.33333 3.41671C7.22222 2.52782 8.30556 2.08337 9.58333 2.08337C10.5694 2.08337 11.4444 2.35421 12.2083 2.89587C12.9722 3.43754 13.5208 4.13893 13.8542 5.00004L12.3125 5.64587C12.1042 5.09032 11.7535 4.63546 11.2604 4.28129C10.7674 3.92712 10.2083 3.75004 9.58333 3.75004C8.77778 3.75004 8.09028 4.03476 7.52083 4.60421C6.95139 5.17365 6.66667 5.86115 6.66667 6.66671C6.66667 7.33337 6.83333 7.88893 7.16667 8.33337C7.5 8.77782 7.84028 9.33337 8.1875 10H11.6667V11.6667H8.77083C8.79861 11.7917 8.81597 11.9237 8.82292 12.0625C8.82986 12.2014 8.83333 12.3473 8.83333 12.5C8.83333 13.1945 8.71181 13.8195 8.46875 14.375C8.22569 14.9306 7.93056 15.4167 7.58333 15.8334H11.6667C12.2222 15.8334 12.6458 15.6875 12.9375 15.3959C13.2292 15.1042 13.4306 14.7292 13.5417 14.2709L15 15C14.8472 15.7639 14.4549 16.3716 13.8229 16.823C13.191 17.2743 12.4722 17.5 11.6667 17.5H5Z" fill="#030615"/>
</svg>
