<svg width="20" height="20" viewBox="0 0 20 20" fill="none" xmlns="http://www.w3.org/2000/svg">
<path d="M12.5 17.5C10.8611 17.5 9.40278 17.0347 8.125 16.1042C6.84722 15.1736 5.94444 13.9722 5.41667 12.5H2.5V10.8333H5.04167C5.01389 10.6806 5 10.5417 5 10.4167V9.58333C5 9.45833 5.01389 9.31944 5.04167 9.16667H2.5V7.5H5.41667C5.94444 6.02778 6.84722 4.82639 8.125 3.89583C9.40278 2.96528 10.8611 2.5 12.5 2.5C13.4583 2.5 14.3646 2.66667 15.2188 3C16.0729 3.33333 16.8333 3.80556 17.5 4.41667L16.0417 5.875C15.5556 5.47222 15.0104 5.15625 14.4062 4.92708C13.8021 4.69792 13.1667 4.58333 12.5 4.58333C11.4583 4.58333 10.5104 4.85069 9.65625 5.38542C8.80208 5.92014 8.15278 6.625 7.70833 7.5H12.5V9.16667H7.16667C7.13889 9.31944 7.11806 9.45833 7.10417 9.58333C7.09028 9.70833 7.08333 9.84722 7.08333 10C7.08333 10.1528 7.09028 10.2917 7.10417 10.4167C7.11806 10.5417 7.13889 10.6806 7.16667 10.8333H12.5V12.5H7.70833C8.15278 13.375 8.80208 14.0799 9.65625 14.6146C10.5104 15.1493 11.4583 15.4167 12.5 15.4167C13.1667 15.4167 13.809 15.3021 14.4271 15.0729C15.0451 14.8438 15.5833 14.5278 16.0417 14.125L17.5 15.5833C16.8333 16.1944 16.0729 16.6667 15.2188 17C14.3646 17.3333 13.4583 17.5 12.5 17.5Z" fill="#030615"/>
</svg>
