<svg width="20" height="20" viewBox="0 0 20 20" fill="none" xmlns="http://www.w3.org/2000/svg">
<path d="M12.4997 16.6667C10.6386 16.6667 9.06217 16.0209 7.77051 14.7292C6.47884 13.4375 5.83301 11.8612 5.83301 10C5.83301 8.13893 6.47884 6.56254 7.77051 5.27087C9.06217 3.97921 10.6386 3.33337 12.4997 3.33337C14.3608 3.33337 15.9372 3.97921 17.2288 5.27087C18.5205 6.56254 19.1663 8.13893 19.1663 10C19.1663 11.8612 18.5205 13.4375 17.2288 14.7292C15.9372 16.0209 14.3608 16.6667 12.4997 16.6667ZM5.83301 16.4584C4.36079 16.0695 3.1594 15.2778 2.22884 14.0834C1.29829 12.8889 0.833008 11.5278 0.833008 10C0.833008 8.47226 1.29829 7.11115 2.22884 5.91671C3.1594 4.72226 4.36079 3.9306 5.83301 3.54171V5.29171C4.83301 5.63893 4.02745 6.2431 3.41634 7.10421C2.80523 7.96532 2.49967 8.9306 2.49967 10C2.49967 11.0695 2.80523 12.0348 3.41634 12.8959C4.02745 13.757 4.83301 14.3612 5.83301 14.7084V16.4584ZM12.4997 15C13.8886 15 15.0691 14.5139 16.0413 13.5417C17.0136 12.5695 17.4997 11.3889 17.4997 10C17.4997 8.61115 17.0136 7.4306 16.0413 6.45837C15.0691 5.48615 13.8886 5.00004 12.4997 5.00004C11.1108 5.00004 9.93023 5.48615 8.95801 6.45837C7.98579 7.4306 7.49967 8.61115 7.49967 10C7.49967 11.3889 7.98579 12.5695 8.95801 13.5417C9.93023 14.5139 11.1108 15 12.4997 15Z" fill="#030615"/>
</svg>
