<svg width="14" height="12" viewBox="0 0 14 12" fill="none" xmlns="http://www.w3.org/2000/svg">
<path id="Vector" d="M8.3335 11.3337V10.0003H10.3335C10.5224 10.0003 10.6807 9.93644 10.8085 9.80866C10.9363 9.68088 11.0002 9.52255 11.0002 9.33366V8.00033C11.0002 7.5781 11.1224 7.19477 11.3668 6.85033C11.6113 6.50588 11.9335 6.26144 12.3335 6.11699V5.88366C11.9335 5.73921 11.6113 5.49477 11.3668 5.15033C11.1224 4.80588 11.0002 4.42255 11.0002 4.00033V2.66699C11.0002 2.4781 10.9363 2.31977 10.8085 2.19199C10.6807 2.06421 10.5224 2.00033 10.3335 2.00033H8.3335V0.666992H10.3335C10.8891 0.666992 11.3613 0.861437 11.7502 1.25033C12.1391 1.63921 12.3335 2.11144 12.3335 2.66699V4.00033C12.3335 4.18921 12.3974 4.34755 12.5252 4.47533C12.6529 4.6031 12.8113 4.66699 13.0002 4.66699H13.6668V7.33366H13.0002C12.8113 7.33366 12.6529 7.39755 12.5252 7.52533C12.3974 7.6531 12.3335 7.81144 12.3335 8.00033V9.33366C12.3335 9.88921 12.1391 10.3614 11.7502 10.7503C11.3613 11.1392 10.8891 11.3337 10.3335 11.3337H8.3335ZM3.66683 11.3337C3.11127 11.3337 2.63905 11.1392 2.25016 10.7503C1.86127 10.3614 1.66683 9.88921 1.66683 9.33366V8.00033C1.66683 7.81144 1.60294 7.6531 1.47516 7.52533C1.34738 7.39755 1.18905 7.33366 1.00016 7.33366H0.333496V4.66699H1.00016C1.18905 4.66699 1.34738 4.6031 1.47516 4.47533C1.60294 4.34755 1.66683 4.18921 1.66683 4.00033V2.66699C1.66683 2.11144 1.86127 1.63921 2.25016 1.25033C2.63905 0.861437 3.11127 0.666992 3.66683 0.666992H5.66683V2.00033H3.66683C3.47794 2.00033 3.31961 2.06421 3.19183 2.19199C3.06405 2.31977 3.00016 2.4781 3.00016 2.66699V4.00033C3.00016 4.42255 2.87794 4.80588 2.6335 5.15033C2.38905 5.49477 2.06683 5.73921 1.66683 5.88366V6.11699C2.06683 6.26144 2.38905 6.50588 2.6335 6.85033C2.87794 7.19477 3.00016 7.5781 3.00016 8.00033V9.33366C3.00016 9.52255 3.06405 9.68088 3.19183 9.80866C3.31961 9.93644 3.47794 10.0003 3.66683 10.0003H5.66683V11.3337H3.66683Z" fill="#3F485B"/>
</svg>
