<svg width="20" height="20" viewBox="0 0 20 20" fill="none" xmlns="http://www.w3.org/2000/svg">
<path d="M7.32406 17.3516C7.32434 17.441 7.343 17.5293 7.37899 17.6112C7.41494 17.693 7.46734 17.7666 7.53302 17.8273C7.59864 17.8879 7.67611 17.9344 7.76053 17.9638C7.84496 17.9932 7.93455 18.0049 8.02368 17.9981C11.4118 17.7557 14.6118 15.3588 15.6334 11.6152C15.6871 11.3999 15.8488 11.2919 16.0641 11.2919C16.1745 11.2963 16.2786 11.3441 16.354 11.4248C16.4295 11.5055 16.47 11.6127 16.4669 11.7232C16.4669 12.5579 15.3935 14.7394 13.8586 16.0054C13.7803 16.0712 13.7179 16.1538 13.6761 16.247C13.6342 16.3403 13.6139 16.4418 13.6167 16.544C13.6183 16.6271 13.6362 16.709 13.6695 16.7852C13.7028 16.8613 13.7508 16.9301 13.8108 16.9877C13.8707 17.0452 13.9414 17.0903 14.0189 17.1205C14.0963 17.1507 14.179 17.1652 14.262 17.1634C14.3965 17.1634 14.6118 17.0826 14.8808 16.8401C15.9542 15.8703 18 13.1501 18 10.1604C18 5.7771 14.61 2 9.87876 2C5.65712 2 2 5.4475 2 9.43365C2 12.0729 4.09756 14.0657 6.86692 14.0657C8.9916 14.0657 10.9547 12.5579 11.4927 10.4837C11.5463 10.2683 11.7073 10.1604 11.9226 10.1604C12.0331 10.1649 12.1373 10.2126 12.2128 10.2933C12.2883 10.374 12.329 10.4811 12.3261 10.5916C12.3261 11.5344 10.5512 14.8221 6.94773 14.8221C6.08714 14.8221 5.01184 14.5797 4.25854 14.1484C4.1577 14.0995 4.04785 14.072 3.93589 14.0676C3.85015 14.0643 3.76467 14.0788 3.68482 14.1101C3.60493 14.1414 3.53244 14.189 3.4718 14.2497C3.41121 14.3105 3.36383 14.383 3.33264 14.463C3.30145 14.5429 3.28714 14.6284 3.29061 14.7142C3.29409 14.824 3.32555 14.9311 3.38198 15.0253C3.43846 15.1196 3.51804 15.1979 3.61325 15.2528C4.60834 15.821 5.79162 16.1146 7.00142 16.1146C10.0133 16.1146 12.7561 14.0676 13.5631 11.0513C13.6167 10.836 13.7784 10.7281 13.9931 10.7281C14.1035 10.7325 14.2077 10.7802 14.2832 10.8609C14.3587 10.9416 14.3994 11.0488 14.3965 11.1593C14.3965 12.3981 12.1916 16.3842 7.94287 16.7075C7.77846 16.7197 7.62439 16.7922 7.51015 16.9111C7.39596 17.03 7.32969 17.1868 7.32406 17.3516Z" fill="#4F43DD"/>
<path d="M11.5257 7.07125C12.0978 7.06677 12.6593 7.23225 13.1452 7.54844C13.1943 7.26722 13.2214 6.98223 13.2262 6.69639C13.2262 5.3762 12.2645 4.1936 11.0934 4.1936C10.1827 4.1936 9.61336 4.98307 9.61336 5.95837C9.60903 6.48526 9.78588 6.9962 10.1117 7.39787C10.5531 7.17759 11.0367 7.06587 11.5257 7.07125Z" fill="white"/>
<path d="M14.2927 11.6768C14.4475 11.0923 14.5157 10.6867 14.5157 10.4233C14.5109 10.3095 14.4668 10.2021 14.3924 10.1233C14.318 10.0445 14.2191 10.0004 14.1161 10C14.02 10.002 13.9274 10.0394 13.8529 10.1062C13.7783 10.1731 13.7261 10.2655 13.7046 10.3689C13.6624 10.5609 13.5723 11.0811 13.4834 11.4114C13.5202 11.2878 13.5537 11.1622 13.5842 11.0347C13.6346 10.8106 13.7864 10.6992 13.988 10.6992C14.0916 10.7036 14.1895 10.753 14.2604 10.8366C14.3313 10.9203 14.3696 11.0314 14.3669 11.146C14.3621 11.3262 14.336 11.5048 14.2892 11.6774L14.2927 11.6768Z" fill="#352D8E"/>
<path d="M16.5811 11.0457C16.5762 10.9382 16.5322 10.8367 16.4582 10.7622C16.3841 10.6877 16.2856 10.6458 16.183 10.6451C16.0873 10.6472 15.995 10.6826 15.9208 10.7458C15.8465 10.809 15.7945 10.8965 15.773 10.9942C15.7304 11.1803 15.6388 11.68 15.5488 11.9919H15.553C15.5968 11.853 15.6376 11.7123 15.6713 11.5691C15.7216 11.357 15.873 11.2516 16.0747 11.2516C16.1781 11.2558 16.2757 11.3026 16.3463 11.3817C16.417 11.4609 16.455 11.5661 16.4521 11.6745C16.4493 11.8061 16.432 11.937 16.4007 12.0645C16.5261 11.6032 16.5811 11.2696 16.5811 11.0457Z" fill="#352D8E"/>
<path d="M11.5039 7.04619C11.7963 7.04565 12.0875 7.08334 12.3694 7.15821C12.5175 6.9632 12.5914 6.72491 12.5789 6.48339C12.5664 6.24186 12.4681 6.01186 12.3006 5.83213C12.1332 5.6524 11.9067 5.53388 11.6594 5.4965C11.4121 5.45918 11.1589 5.50524 10.9427 5.62703L11.3911 6.34004L10.5513 5.98909C10.4375 6.16645 10.3804 6.3723 10.3873 6.58085C10.3941 6.78934 10.4645 6.9913 10.5897 7.16131C10.8877 7.08374 11.1952 7.04503 11.5039 7.04619Z" fill="#030615"/>
<path d="M5.1617 11.6774C5.48236 11.6774 5.74234 11.4174 5.74234 11.0968C5.74234 10.7761 5.48236 10.5161 5.1617 10.5161C4.84103 10.5161 4.58105 10.7761 4.58105 11.0968C4.58105 11.4174 4.84103 11.6774 5.1617 11.6774Z" fill="#352D8E"/>
<path d="M5.1617 9.22575C5.48236 9.22575 5.74234 8.93689 5.74234 8.58059C5.74234 8.22428 5.48236 7.93542 5.1617 7.93542C4.84103 7.93542 4.58105 8.22428 4.58105 8.58059C4.58105 8.93689 4.84103 9.22575 5.1617 9.22575Z" fill="#352D8E"/>
<path d="M3.93522 10.5162C4.29153 10.5162 4.58036 10.2273 4.58036 9.87099C4.58036 9.51469 4.29153 9.22583 3.93522 9.22583C3.57887 9.22583 3.29004 9.51469 3.29004 9.87099C3.29004 10.2273 3.57887 10.5162 3.93522 10.5162Z" fill="#352D8E"/>
<path d="M6.73696 14.0001H6.86314C8.9856 14.0001 10.9467 12.5161 11.4841 10.4748C11.5376 10.2629 11.6985 10.1566 11.9136 10.1566C12.0239 10.161 12.128 10.208 12.2035 10.2874C12.2789 10.3669 12.3195 10.4723 12.3167 10.5811C12.307 10.798 12.2572 11.0113 12.1697 11.2106C12.1849 11.1874 12.1982 11.1631 12.2094 11.1379C12.369 10.7785 12.4515 10.3904 12.4516 9.99817C12.4516 9.38855 12.0214 8.99088 11.4039 8.99088C10.3272 8.99088 10.1115 9.91678 9.6574 10.9067C9.18621 11.9345 8.3208 13.0462 6.1384 13.0462C3.87083 13.0462 1.54081 11.4821 2.10914 8.30172C2.11604 8.26194 2.12175 8.22654 2.12614 8.1936C2.0429 8.60446 2.00064 9.02242 2 9.44137C2.0063 12.0016 4.03672 13.9404 6.73696 14.0001Z" fill="#352D8E"/>
</svg>
