<svg width="20" height="20" viewBox="0 0 20 20" fill="none" xmlns="http://www.w3.org/2000/svg">
<path d="M4.66699 1H6.29199L9.10449 9.20833H7.54199L6.91699 7.41666H4.04199L3.41699 9.20833H1.85449L4.66699 1ZM4.77116 10.0833C5.35449 10.0833 5.84755 10.2847 6.25033 10.6875C6.6531 11.0903 6.85449 11.5833 6.85449 12.1667C6.85449 12.4444 6.80241 12.7118 6.69824 12.9687C6.59408 13.2257 6.44477 13.4514 6.25033 13.6458L5.93783 13.9375L6.52116 14.5208L7.70866 13.3542L8.89616 14.5417L7.72949 15.7083L8.89616 16.8958L7.70866 18.0625L6.54199 16.8958L5.66699 17.7708C5.45866 17.9792 5.22255 18.1354 4.95866 18.2396C4.69477 18.3437 4.41699 18.3958 4.12533 18.3958C3.54199 18.3958 3.05588 18.191 2.66699 17.7812C2.2781 17.3715 2.08366 16.875 2.08366 16.2917C2.08366 16.0139 2.13921 15.7465 2.25033 15.4896C2.36144 15.2326 2.51421 15.0069 2.70866 14.8125L3.58366 13.9375L3.29199 13.6458C3.09755 13.4514 2.94477 13.2292 2.83366 12.9792C2.72255 12.7292 2.66699 12.4653 2.66699 12.1875C2.66699 11.6042 2.87185 11.1076 3.28158 10.6979C3.6913 10.2882 4.18783 10.0833 4.77116 10.0833ZM4.77116 15.125L3.87533 16C3.83366 16.0417 3.80588 16.0868 3.79199 16.1354C3.7781 16.184 3.77116 16.2361 3.77116 16.2917C3.77116 16.4028 3.80935 16.5 3.88574 16.5833C3.96213 16.6667 4.05588 16.7083 4.16699 16.7083C4.22255 16.7083 4.27463 16.6979 4.32324 16.6771C4.37185 16.6562 4.41699 16.625 4.45866 16.5833L5.35449 15.7083L4.77116 15.125ZM4.75033 11.75C4.63921 11.75 4.54546 11.7917 4.46908 11.875C4.39269 11.9583 4.35449 12.0556 4.35449 12.1667C4.35449 12.2222 4.36144 12.2743 4.37533 12.3229C4.38921 12.3715 4.41699 12.4167 4.45866 12.4583L4.77116 12.75L5.04199 12.4792C5.08366 12.4375 5.11491 12.3924 5.13574 12.3437C5.15658 12.2951 5.16699 12.2431 5.16699 12.1875C5.16699 12.0764 5.12533 11.9757 5.04199 11.8854C4.95866 11.7951 4.86144 11.75 4.75033 11.75ZM5.43783 3L4.47949 6.125H6.47949L5.52116 3H5.43783ZM16.7295 10.3958L17.917 11.5625L11.4378 18.0417L10.2503 16.875L16.7295 10.3958ZM12.0837 10.875C12.4309 10.875 12.726 10.9965 12.9691 11.2396C13.2121 11.4826 13.3337 11.7778 13.3337 12.125C13.3337 12.4722 13.2121 12.7674 12.9691 13.0104C12.726 13.2535 12.4309 13.375 12.0837 13.375C11.7364 13.375 11.4413 13.2535 11.1982 13.0104C10.9552 12.7674 10.8337 12.4722 10.8337 12.125C10.8337 11.7778 10.9552 11.4826 11.1982 11.2396C11.4413 10.9965 11.7364 10.875 12.0837 10.875ZM16.2503 15.0417C16.5975 15.0417 16.8927 15.1632 17.1357 15.4062C17.3788 15.6493 17.5003 15.9444 17.5003 16.2917C17.5003 16.6389 17.3788 16.934 17.1357 17.1771C16.8927 17.4201 16.5975 17.5417 16.2503 17.5417C15.9031 17.5417 15.608 17.4201 15.3649 17.1771C15.1219 16.934 15.0003 16.6389 15.0003 16.2917C15.0003 15.9444 15.1219 15.6493 15.3649 15.4062C15.608 15.1632 15.9031 15.0417 16.2503 15.0417Z" fill="#030615"/>
<path fill-rule="evenodd" clip-rule="evenodd" d="M11.561 7.27547L11.1324 9.20001H12.3429L12.7715 7.27547H14.1324L13.7038 9.20001H14.9144L15.3429 7.27547H17.0572L17.3572 5.92829H15.6429L15.9858 4.38866H17.7001L18.0001 3.04148H16.2858L16.7144 1.11694H15.5038L15.0753 3.04148H13.7144L14.1429 1.11694H12.9324L12.5038 3.04148H10.7895L10.4895 4.38866H12.2038L11.861 5.92829H10.1467L9.84668 7.27547H11.561ZM10.7091 4.19621V4.19621H12.4234V4.19621H10.7091ZM14.7753 4.38866L14.4324 5.92829H13.0715L13.4144 4.38866H14.7753ZM13.2805 4.19621H14.9948L13.2805 4.19621V4.19621Z" fill="#030615"/>
</svg>
