<svg width="16" height="16" viewBox="1 1 14 14" fill="none" xmlns="http://www.w3.org/2000/svg">
    <path
        d="M2.65002 11.3333L5.15002 4.66666H6.35002L8.85002 11.3333H7.70002L7.10002 9.63333H4.40002L3.80002 11.3333H2.65002ZM4.75002 8.66666H6.75002L5.78336 5.9H5.71669L4.75002 8.66666ZM10.9 11.5167C10.3556 11.5167 9.9278 11.375 9.61669 11.0917C9.30558 10.8083 9.15002 10.4222 9.15002 9.93333C9.15002 9.46666 9.33058 9.08611 9.69169 8.79166C10.0528 8.49722 10.5167 8.35 11.0834 8.35C11.3389 8.35 11.575 8.36944 11.7917 8.40833C12.0084 8.44722 12.1945 8.51111 12.35 8.6V8.36666C12.35 8.06666 12.2472 7.82778 12.0417 7.65C11.8361 7.47222 11.5556 7.38333 11.2 7.38333C10.9667 7.38333 10.7472 7.43333 10.5417 7.53333C10.3361 7.63333 10.1611 7.77778 10.0167 7.96666L9.30002 7.43333C9.51114 7.13333 9.7778 6.90555 10.1 6.75C10.4222 6.59444 10.7945 6.51666 11.2167 6.51666C11.9056 6.51666 12.4334 6.68055 12.8 7.00833C13.1667 7.33611 13.35 7.81111 13.35 8.43333V11.3667H12.3667V10.8H12.3167C12.1722 11.0222 11.9778 11.1972 11.7334 11.325C11.4889 11.4528 11.2111 11.5167 10.9 11.5167ZM11.0667 10.6833C11.4222 10.6833 11.725 10.5583 11.975 10.3083C12.225 10.0583 12.35 9.75555 12.35 9.4C12.1945 9.31111 12.0167 9.24444 11.8167 9.2C11.6167 9.15555 11.4334 9.13333 11.2667 9.13333C10.9111 9.13333 10.6389 9.20278 10.45 9.34166C10.2611 9.48055 10.1667 9.67778 10.1667 9.93333C10.1667 10.1556 10.25 10.3361 10.4167 10.475C10.5834 10.6139 10.8 10.6833 11.0667 10.6833Z"
        fill="black" />
</svg>