<svg width="20" height="20" viewBox="0 0 20 20" fill="none" xmlns="http://www.w3.org/2000/svg">
<path d="M5.75033 14.1666H7.33366L8.16699 11.8333H11.8337L12.667 14.1666H14.2503L10.8337 4.99996H9.16699L5.75033 14.1666ZM8.62533 10.5L9.95866 6.70829H10.042L11.3753 10.5H8.62533ZM10.0003 18.3333C8.84755 18.3333 7.76421 18.1145 6.75033 17.677C5.73644 17.2395 4.85449 16.6458 4.10449 15.8958C3.35449 15.1458 2.76074 14.2638 2.32324 13.25C1.88574 12.2361 1.66699 11.1527 1.66699 9.99996C1.66699 8.84718 1.88574 7.76385 2.32324 6.74996C2.76074 5.73607 3.35449 4.85413 4.10449 4.10413C4.85449 3.35413 5.73644 2.76038 6.75033 2.32288C7.76421 1.88538 8.84755 1.66663 10.0003 1.66663C11.1531 1.66663 12.2364 1.88538 13.2503 2.32288C14.2642 2.76038 15.1462 3.35413 15.8962 4.10413C16.6462 4.85413 17.2399 5.73607 17.6774 6.74996C18.1149 7.76385 18.3337 8.84718 18.3337 9.99996C18.3337 11.1527 18.1149 12.2361 17.6774 13.25C17.2399 14.2638 16.6462 15.1458 15.8962 15.8958C15.1462 16.6458 14.2642 17.2395 13.2503 17.677C12.2364 18.1145 11.1531 18.3333 10.0003 18.3333ZM10.0003 16.6666C11.8475 16.6666 13.4205 16.0173 14.7191 14.7187C16.0177 13.4201 16.667 11.8472 16.667 9.99996C16.667 8.15274 16.0177 6.57982 14.7191 5.28121C13.4205 3.9826 11.8475 3.33329 10.0003 3.33329C8.1531 3.33329 6.58019 3.9826 5.28158 5.28121C3.98296 6.57982 3.33366 8.15274 3.33366 9.99996C3.33366 11.8472 3.98296 13.4201 5.28158 14.7187C6.58019 16.0173 8.1531 16.6666 10.0003 16.6666Z" fill="#030615"/>
</svg>
