<svg width="20" height="20" viewBox="0 0 20 20" fill="none" xmlns="http://www.w3.org/2000/svg">
<path d="M10.0003 18.3334C8.84755 18.3334 7.76421 18.1146 6.75033 17.6771C5.73644 17.2396 4.85449 16.6459 4.10449 15.8959C3.35449 15.1459 2.76074 14.2639 2.32324 13.25C1.88574 12.2361 1.66699 11.1528 1.66699 10C1.66699 8.84724 1.88574 7.76391 2.32324 6.75002C2.76074 5.73613 3.35449 4.85419 4.10449 4.10419C4.85449 3.35419 5.73644 2.76044 6.75033 2.32294C7.76421 1.88544 8.84755 1.66669 10.0003 1.66669C11.1531 1.66669 12.2364 1.88544 13.2503 2.32294C14.2642 2.76044 15.1462 3.35419 15.8962 4.10419C16.6462 4.85419 17.2399 5.73613 17.6774 6.75002C18.1149 7.76391 18.3337 8.84724 18.3337 10C18.3337 11.1528 18.1149 12.2361 17.6774 13.25C17.2399 14.2639 16.6462 15.1459 15.8962 15.8959C15.1462 16.6459 14.2642 17.2396 13.2503 17.6771C12.2364 18.1146 11.1531 18.3334 10.0003 18.3334ZM6.12533 9.35419L7.29199 8.16669L8.45866 9.35419L9.35449 8.45835L8.16699 7.29169L9.35449 6.12502L8.45866 5.22919L7.29199 6.41669L6.12533 5.22919L5.22949 6.12502L6.41699 7.29169L5.22949 8.45835L6.12533 9.35419ZM10.0003 16.6667C11.8475 16.6667 13.4205 16.0174 14.7191 14.7188C16.0177 13.4202 16.667 11.8472 16.667 10C16.667 9.08335 16.4934 8.22224 16.1462 7.41669C15.7989 6.61113 15.3198 5.9028 14.7087 5.29169L5.29199 14.7084C5.9031 15.3195 6.61144 15.7986 7.41699 16.1459C8.22255 16.4931 9.08366 16.6667 10.0003 16.6667ZM11.7087 14.6667L9.70866 12.6667L10.5837 11.7709L11.7087 12.8959L13.792 10.8334L14.667 11.7084L11.7087 14.6667Z" fill="#030615"/>
</svg>
