<svg width="16" height="16" viewBox="0 0 16 16" fill="none" xmlns="http://www.w3.org/2000/svg">
<path d="M8.00004 1.33333C4.32004 1.33333 1.33337 4.31999 1.33337 7.99999C1.33337 11.68 4.32004 14.6667 8.00004 14.6667C11.68 14.6667 14.6667 11.68 14.6667 7.99999C14.6667 4.31999 11.68 1.33333 8.00004 1.33333ZM8.00004 13.3333C5.06004 13.3333 2.66671 10.94 2.66671 7.99999C2.66671 5.05999 5.06004 2.66666 8.00004 2.66666C10.94 2.66666 13.3334 5.05999 13.3334 7.99999C13.3334 10.94 10.94 13.3333 8.00004 13.3333ZM11.06 5.05333L6.66671 9.44666L4.94004 7.72666L4.00004 8.66666L6.66671 11.3333L12 5.99999L11.06 5.05333Z" fill="#030615"/>
</svg>
