<svg width="20" height="20" viewBox="0 0 20 20" fill="none" xmlns="http://www.w3.org/2000/svg">
<path d="M12.5003 15V13.3333H15.8337V15H12.5003ZM12.5003 8.33333V6.66667H18.3337V8.33333H12.5003ZM12.5003 11.6667V10H17.5003V11.6667H12.5003ZM2.50033 6.66667H1.66699V5H5.00033V3.75H8.33366V5H11.667V6.66667H10.8337V14.1667C10.8337 14.625 10.6705 15.0174 10.3441 15.3437C10.0177 15.6701 9.62533 15.8333 9.16699 15.8333H4.16699C3.70866 15.8333 3.3163 15.6701 2.98991 15.3437C2.66352 15.0174 2.50033 14.625 2.50033 14.1667V6.66667ZM4.16699 6.66667V14.1667H9.16699V6.66667H4.16699Z" fill="#030615"/>
</svg>
