<svg width="20" height="20" viewBox="0 0 20 20" fill="none" xmlns="http://www.w3.org/2000/svg">
<path d="M8.95722 20V17.6111C8.01248 17.3889 7.19697 16.963 6.5107 16.3333C5.82442 15.7037 5.32086 14.8148 5 13.6667L6.97861 12.8333C7.24599 13.7222 7.6426 14.3981 8.16845 14.8611C8.6943 15.3241 9.38503 15.5556 10.2406 15.5556C10.9715 15.5556 11.5909 15.3843 12.0989 15.0417C12.607 14.6991 12.861 14.1667 12.861 13.4444C12.861 12.7963 12.6649 12.2824 12.2727 11.9028C11.8806 11.5231 10.9715 11.0926 9.54545 10.6111C8.01248 10.1111 6.96078 9.51389 6.39037 8.81944C5.81996 8.125 5.53476 7.27778 5.53476 6.27778C5.53476 5.07407 5.90909 4.13889 6.65775 3.47222C7.40642 2.80556 8.17291 2.42593 8.95722 2.33333V0H11.0963V2.33333C11.9875 2.48148 12.7228 2.81944 13.3021 3.34722C13.8815 3.875 14.3048 4.51852 14.5722 5.27778L12.5936 6.16667C12.3797 5.57407 12.0766 5.12963 11.6845 4.83333C11.2923 4.53704 10.7576 4.38889 10.0802 4.38889C9.2959 4.38889 8.69875 4.56944 8.28877 4.93056C7.87879 5.29167 7.6738 5.74074 7.6738 6.27778C7.6738 6.88889 7.94118 7.37037 8.47594 7.72222C9.01069 8.07407 9.93761 8.44444 11.2567 8.83333C12.4866 9.2037 13.418 9.79167 14.0508 10.5972C14.6836 11.4028 15 12.3333 15 13.3889C15 14.7037 14.6257 15.7037 13.877 16.3889C13.1283 17.0741 12.2014 17.5 11.0963 17.6667V20H8.95722Z" fill="#030615"/>
</svg>
