<svg width="16" height="16" viewBox="0 0 16 16" fill="none" xmlns="http://www.w3.org/2000/svg">
    <path
        d="M8.00004 1.33337C4.32671 1.33337 1.33337 4.32671 1.33337 8.00004C1.33337 11.6734 4.32671 14.6667 8.00004 14.6667C11.6734 14.6667 14.6667 11.6734 14.6667 8.00004C14.6667 4.32671 11.6734 1.33337 8.00004 1.33337ZM8.00004 13.3334C5.06004 13.3334 2.66671 10.94 2.66671 8.00004C2.66671 5.06004 5.06004 2.66671 8.00004 2.66671C10.94 2.66671 13.3334 5.06004 13.3334 8.00004C13.3334 10.94 10.94 13.3334 8.00004 13.3334ZM9.72671 5.72671L10.6667 6.66671L8.00004 9.33337L5.33337 6.66671L6.27337 5.72671L7.33337 6.78004L7.33337 4.00004H8.66671V6.78004L9.72671 5.72671ZM11.3334 11.3334L4.66671 11.3334L4.66671 10L11.3334 10V11.3334Z"
        fill="#030615" />
</svg>
    