<svg width="20" height="20" viewBox="0 0 20 20" fill="none" xmlns="http://www.w3.org/2000/svg">
<path d="M10.0003 1.66663C5.40866 1.66663 1.66699 5.40829 1.66699 9.99996C1.66699 14.5916 5.40866 18.3333 10.0003 18.3333C14.592 18.3333 18.3337 14.5916 18.3337 9.99996C18.3337 5.40829 14.592 1.66663 10.0003 1.66663ZM10.0003 16.6666C6.32533 16.6666 3.33366 13.675 3.33366 9.99996C3.33366 6.32496 6.32533 3.33329 10.0003 3.33329C13.6753 3.33329 16.667 6.32496 16.667 9.99996C16.667 13.675 13.6753 16.6666 10.0003 16.6666ZM12.1587 7.15829L13.3337 8.33329L10.0003 11.6666L6.66699 8.33329L7.84199 7.15829L9.16699 8.47496V4.99996H10.8337V8.47496L12.1587 7.15829ZM14.167 14.1666H5.83366V12.5H14.167V14.1666Z" fill="#030615"/>
</svg>
