<svg width="20" height="20" viewBox="0 0 20 20" fill="none" xmlns="http://www.w3.org/2000/svg">
<path d="M6.66667 6.66669H5V12.5C5 13.4167 5.75 14.1667 6.66667 14.1667H14.1667V12.5H6.66667V6.66669Z" fill="#030615"/>
<path d="M16.667 2.5H10.0003C9.08366 2.5 8.33366 3.25 8.33366 4.16667V9.16667C8.33366 10.0833 9.08366 10.8333 10.0003 10.8333H16.667C17.5837 10.8333 18.3337 10.0833 18.3337 9.16667V4.16667C18.3337 3.25 17.5837 2.5 16.667 2.5ZM16.667 9.16667H10.0003V5.83333H16.667V9.16667ZM3.33366 10H1.66699V15.8333C1.66699 16.75 2.41699 17.5 3.33366 17.5H10.8337V15.8333H3.33366V10Z" fill="#030615"/>
</svg>
