<svg width="20" height="20" viewBox="0 0 20 20" fill="none" xmlns="http://www.w3.org/2000/svg">
<path d="M4.5 16.3334C3.875 15.7084 3.38542 14.9861 3.03125 14.1667C2.67708 13.3472 2.5 12.5 2.5 11.625C2.5 10.75 2.66667 9.88544 3 9.03127C3.33333 8.1771 3.875 7.37502 4.625 6.62502C5.11111 6.13891 5.71181 5.72224 6.42708 5.37502C7.14236 5.0278 7.98958 4.75349 8.96875 4.5521C9.94792 4.35071 11.066 4.22919 12.3229 4.18752C13.5799 4.14585 14.9861 4.19446 16.5417 4.33335C16.6528 5.80557 16.6875 7.15974 16.6458 8.39585C16.6042 9.63196 16.4896 10.7465 16.3021 11.7396C16.1146 12.7327 15.8507 13.6007 15.5104 14.3438C15.1701 15.0868 14.75 15.7084 14.25 16.2084C13.5139 16.9445 12.7326 17.4827 11.9062 17.8229C11.0799 18.1632 10.2361 18.3334 9.375 18.3334C8.47222 18.3334 7.59028 18.1563 6.72917 17.8021C5.86806 17.4479 5.125 16.9584 4.5 16.3334ZM6.83333 16C7.23611 16.2361 7.64931 16.4063 8.07292 16.5104C8.49653 16.6146 8.93056 16.6667 9.375 16.6667C10.0139 16.6667 10.6458 16.5382 11.2708 16.2813C11.8958 16.0243 12.4931 15.6111 13.0625 15.0417C13.3125 14.7917 13.566 14.441 13.8229 13.9896C14.0799 13.5382 14.3021 12.9479 14.4896 12.2188C14.6771 11.4896 14.8194 10.6077 14.9167 9.57294C15.0139 8.53821 15.0278 7.30557 14.9583 5.87502C14.2778 5.84724 13.5104 5.83682 12.6562 5.84377C11.8021 5.85071 10.9514 5.91669 10.1042 6.04169C9.25694 6.16669 8.45139 6.36807 7.6875 6.64585C6.92361 6.92363 6.29861 7.30557 5.8125 7.79169C5.1875 8.41669 4.75694 9.03474 4.52083 9.64585C4.28472 10.257 4.16667 10.8472 4.16667 11.4167C4.16667 12.2361 4.32292 12.9549 4.63542 13.5729C4.94792 14.191 5.22222 14.625 5.45833 14.875C6.04167 13.7639 6.8125 12.6979 7.77083 11.6771C8.72917 10.6563 9.84722 9.81946 11.125 9.16669C10.125 10.0417 9.25347 11.0313 8.51042 12.1354C7.76736 13.2396 7.20833 14.5278 6.83333 16Z" fill="#030615"/>
</svg>
