<svg width="20" height="20" viewBox="0 0 20 20" fill="none" xmlns="http://www.w3.org/2000/svg">
<g clip-path="url(#clip0_262_24077)">
<path d="M18.058 15.1415L13.6414 10.7249H12.8164L10.6997 12.8415V13.6665L15.1164 18.0832C15.4414 18.4082 15.9664 18.4082 16.2914 18.0832L18.058 16.3165C18.383 15.9999 18.383 15.4665 18.058 15.1415ZM15.6997 16.3249L12.1664 12.7915L12.758 12.1999L16.2914 15.7332L15.6997 16.3249Z" fill="#171615"/>
<path d="M14.4498 8.49159L15.6248 7.31659L17.3915 9.08325C18.3665 8.10825 18.3665 6.52492 17.3915 5.54992L14.4415 2.59992L13.2665 3.77492V1.42492L12.6832 0.833252L9.73317 3.78325L10.3248 4.37492H12.6832L11.5082 5.54992L12.3915 6.43325L9.98317 8.84159L6.5415 5.39992V4.21659L4.02484 1.69992L1.6665 4.05825L4.1915 6.58325H5.3665L8.80817 10.0249L8.09984 10.7333H6.33317L1.9165 15.1499C1.5915 15.4749 1.5915 15.9999 1.9165 16.3249L3.68317 18.0916C4.00817 18.4166 4.53317 18.4166 4.85817 18.0916L9.27484 13.6749V11.9083L13.5665 7.61659L14.4498 8.49159ZM7.79984 12.7833L4.2665 16.3166L3.67484 15.7249L7.20817 12.1916L7.79984 12.7833Z" fill="#171615"/>
</g>
<defs>
<clipPath id="clip0_262_24077">
<rect width="20" height="20" fill="white"/>
</clipPath>
</defs>
</svg>
