<svg width="20" height="20" viewBox="0 0 20 20" fill="none" xmlns="http://www.w3.org/2000/svg">
<path d="M16.2503 7.91663C15.392 7.91663 14.667 8.43329 14.342 9.16663H11.9087C11.5837 8.43329 10.8587 7.91663 10.0003 7.91663C9.14199 7.91663 8.41699 8.43329 8.09199 9.16663H5.65866C5.33366 8.43329 4.60866 7.91663 3.75033 7.91663C3.19779 7.91663 2.66789 8.13612 2.27719 8.52682C1.88649 8.91752 1.66699 9.44742 1.66699 9.99996C1.66699 10.5525 1.88649 11.0824 2.27719 11.4731C2.66789 11.8638 3.19779 12.0833 3.75033 12.0833C4.60866 12.0833 5.33366 11.5666 5.65866 10.8333H8.09199C8.41699 11.5666 9.14199 12.0833 10.0003 12.0833C10.8587 12.0833 11.5837 11.5666 11.9087 10.8333H14.342C14.667 11.5666 15.392 12.0833 16.2503 12.0833C16.8029 12.0833 17.3328 11.8638 17.7235 11.4731C18.1142 11.0824 18.3337 10.5525 18.3337 9.99996C18.3337 9.44742 18.1142 8.91752 17.7235 8.52682C17.3328 8.13612 16.8029 7.91663 16.2503 7.91663Z" fill="#030615"/>
</svg>
