<svg width="20" height="20" viewBox="0 0 20 20" fill="none" xmlns="http://www.w3.org/2000/svg">
<path d="M15.833 6.66671L12.4997 10H14.9997C14.9997 12.7584 12.758 15 9.99967 15C9.18547 15.0028 8.38345 14.8023 7.66634 14.4167L6.44967 15.6334C7.51058 16.3086 8.74213 16.6671 9.99967 16.6667C13.683 16.6667 16.6663 13.6834 16.6663 10H19.1663L15.833 6.66671ZM4.99967 10C4.99967 7.24171 7.24134 5.00004 9.99967 5.00004C10.8413 5.00004 11.6413 5.20837 12.333 5.58337L13.5497 4.36671C12.4888 3.6915 11.2572 3.33302 9.99967 3.33337C6.31634 3.33337 3.33301 6.31671 3.33301 10H0.833008L4.16634 13.3334L7.49967 10H4.99967Z" fill="#030615"/>
</svg>
