<svg width="24" height="24" viewBox="0 0 24 24" fill="none" xmlns="http://www.w3.org/2000/svg">
    <path
        d="M12 22C9.61667 22 7.50833 21.25 5.675 19.75C3.84167 18.25 2.68333 16.3333 2.2 14H4.25C4.71667 15.7667 5.66667 17.2083 7.1 18.325C8.53333 19.4417 10.1667 20 12 20C13.4333 20 14.7667 19.6458 16 18.9375C17.2333 18.2292 18.2 17.25 18.9 16H16V14H22V20H20V18C19.05 19.2667 17.875 20.25 16.475 20.95C15.075 21.65 13.5833 22 12 22ZM12 15C11.1667 15 10.4583 14.7083 9.875 14.125C9.29167 13.5417 9 12.8333 9 12C9 11.1667 9.29167 10.4583 9.875 9.875C10.4583 9.29167 11.1667 9 12 9C12.8333 9 13.5417 9.29167 14.125 9.875C14.7083 10.4583 15 11.1667 15 12C15 12.8333 14.7083 13.5417 14.125 14.125C13.5417 14.7083 12.8333 15 12 15ZM2 10V4H4V6C4.95 4.73333 6.125 3.75 7.525 3.05C8.925 2.35 10.4167 2 12 2C14.3833 2 16.4917 2.75 18.325 4.25C20.1583 5.75 21.3167 7.66667 21.8 10H19.75C19.2833 8.23333 18.3333 6.79167 16.9 5.675C15.4667 4.55833 13.8333 4 12 4C10.5667 4 9.23333 4.35417 8 5.0625C6.76667 5.77083 5.8 6.75 5.1 8H8V10H2Z"
        fill="#67748A" />
</svg>
    