<svg width="20" height="20" viewBox="0 0 20 20" fill="none" xmlns="http://www.w3.org/2000/svg">
<g clip-path="url(#clip0_3686_10026)">
<path fill-rule="evenodd" clip-rule="evenodd" d="M17.7273 4.77272H2.27273C1.64513 4.77272 1.13636 5.28148 1.13636 5.90908V14.0909C1.13636 14.7185 1.64513 15.2273 2.27273 15.2273H17.7273C18.3549 15.2273 18.8636 14.7185 18.8636 14.0909V5.90908C18.8636 5.28148 18.3549 4.77272 17.7273 4.77272ZM2.27273 3.63635C1.01754 3.63635 0 4.65389 0 5.90908V14.0909C0 15.3461 1.01754 16.3636 2.27273 16.3636H17.7273C18.9825 16.3636 20 15.3461 20 14.0909V5.90908C20 4.65389 18.9825 3.63635 17.7273 3.63635H2.27273Z" fill="#030615"/>
<path d="M3.98784 11.119V7.08021H5.04129V11.123C5.04129 11.5107 4.97395 11.8463 4.83926 12.1297C4.70698 12.4104 4.52659 12.6257 4.29811 12.7754C4.06962 12.9251 3.81227 13 3.52606 13C3.23263 13 2.97047 12.9358 2.73958 12.8075C2.51109 12.6765 2.33071 12.4786 2.19842 12.2139C2.06614 11.9465 2 11.607 2 11.1952H3.06066C3.06066 11.4037 3.07991 11.5682 3.11839 11.6885C3.15687 11.8088 3.21099 11.8957 3.28073 11.9492C3.35289 12.0027 3.43466 12.0294 3.52606 12.0294C3.62467 12.0294 3.70765 11.9933 3.77499 11.9211C3.84474 11.8489 3.89765 11.746 3.93373 11.6123C3.96981 11.4759 3.98784 11.3115 3.98784 11.119Z" fill="#030615"/>
<path d="M8.10297 11.3837C8.10297 11.2794 8.09456 11.1845 8.07772 11.0989C8.06088 11.0134 8.02481 10.9345 7.96949 10.8623C7.91658 10.7901 7.83841 10.7179 7.73499 10.6457C7.63397 10.5735 7.50169 10.4987 7.33814 10.4211C7.14333 10.3302 6.95452 10.234 6.77173 10.1324C6.58894 10.0281 6.42419 9.90775 6.27748 9.77139C6.13076 9.63503 6.01411 9.4746 5.92753 9.29011C5.84335 9.10294 5.80126 8.88369 5.80126 8.63235C5.80126 8.38636 5.84095 8.1631 5.92031 7.96257C6.00209 7.76203 6.11754 7.59091 6.26665 7.4492C6.41577 7.30481 6.59014 7.19385 6.78977 7.11631C6.9918 7.03877 7.21668 7 7.46441 7C7.80113 7 8.09215 7.07754 8.33747 7.23262C8.5852 7.3877 8.77641 7.60027 8.9111 7.87032C9.04819 8.14037 9.11674 8.45053 9.11674 8.8008H8.06329C8.06329 8.63503 8.04164 8.4893 7.99835 8.36364C7.95746 8.23529 7.89132 8.13503 7.79993 8.06283C7.70853 7.99064 7.59068 7.95455 7.44637 7.95455C7.31169 7.95455 7.19985 7.98529 7.11086 8.04679C7.02427 8.10562 6.95933 8.18717 6.91604 8.29144C6.87515 8.39305 6.85471 8.50802 6.85471 8.63636C6.85471 8.73262 6.87515 8.81952 6.91604 8.89706C6.95933 8.97193 7.01826 9.04011 7.09282 9.1016C7.16738 9.16043 7.25516 9.21791 7.35618 9.27406C7.4596 9.33021 7.57264 9.38503 7.6953 9.4385C7.93341 9.54278 8.14386 9.65775 8.32665 9.78342C8.50944 9.90642 8.66217 10.0455 8.78483 10.2005C8.90749 10.3529 9.00009 10.5254 9.06262 10.7179C9.12516 10.9104 9.15642 11.1297 9.15642 11.3757C9.15642 11.619 9.11794 11.8409 9.04098 12.0414C8.96642 12.2393 8.85698 12.4104 8.71268 12.5548C8.56837 12.6965 8.394 12.8061 8.18956 12.8837C7.98753 12.9612 7.76145 13 7.51131 13C7.26839 13 7.0387 12.9626 6.82224 12.8877C6.60578 12.8102 6.41457 12.6939 6.24862 12.5388C6.08507 12.381 5.95639 12.1818 5.86259 11.9412C5.76879 11.6979 5.72189 11.4104 5.72189 11.0789H6.77895C6.77895 11.2553 6.79458 11.4064 6.82585 11.5321C6.85711 11.6551 6.90522 11.754 6.97016 11.8289C7.03509 11.9011 7.11446 11.9559 7.20826 11.9933C7.30447 12.0281 7.4139 12.0455 7.53657 12.0455C7.67606 12.0455 7.7867 12.016 7.86847 11.9572C7.95265 11.8984 8.01278 11.8195 8.04886 11.7206C8.08494 11.6217 8.10297 11.5094 8.10297 11.3837Z" fill="#030615"/>
<path d="M13.5602 9.54679V10.5214C13.5602 10.9332 13.5145 11.2941 13.4231 11.6043C13.3341 11.9118 13.2066 12.1698 13.0407 12.3783C12.8771 12.5842 12.6787 12.7393 12.4454 12.8436C12.2145 12.9479 11.9584 13 11.6769 13C11.3955 13 11.1382 12.9479 10.9049 12.8436C10.674 12.7393 10.4744 12.5842 10.306 12.3783C10.1401 12.1698 10.0114 11.9118 9.92 11.6043C9.8286 11.2941 9.78291 10.9332 9.78291 10.5214V9.54679C9.78291 9.12433 9.8274 8.75535 9.91639 8.43984C10.0054 8.12166 10.1341 7.85695 10.3024 7.64572C10.4708 7.43182 10.6704 7.27139 10.9013 7.16444C11.1322 7.05481 11.3883 7 11.6697 7C11.9511 7 12.2073 7.05481 12.4382 7.16444C12.6691 7.27139 12.8687 7.43182 13.0371 7.64572C13.2054 7.85695 13.3341 8.12166 13.4231 8.43984C13.5145 8.75535 13.5602 9.12433 13.5602 9.54679ZM12.5103 10.5214V9.53877C12.5103 9.2607 12.4923 9.02406 12.4562 8.82888C12.4201 8.63102 12.366 8.46925 12.2939 8.34358C12.2217 8.21791 12.1339 8.12567 12.0305 8.06684C11.9271 8.00802 11.8068 7.97861 11.6697 7.97861C11.5326 7.97861 11.4112 8.00802 11.3054 8.06684C11.2019 8.12567 11.1141 8.21791 11.042 8.34358C10.9722 8.46925 10.9193 8.63102 10.8833 8.82888C10.8496 9.02406 10.8327 9.2607 10.8327 9.53877V10.5214C10.8327 10.7888 10.8508 11.0174 10.8869 11.2072C10.9229 11.3971 10.9771 11.5521 11.0492 11.6725C11.1214 11.7928 11.2092 11.8824 11.3126 11.9412C11.4184 11.9973 11.5399 12.0254 11.6769 12.0254C11.8116 12.0254 11.9307 11.9973 12.0341 11.9412C12.1399 11.8824 12.2277 11.7928 12.2975 11.6725C12.3672 11.5521 12.4201 11.3971 12.4562 11.2072C12.4923 11.0174 12.5103 10.7888 12.5103 10.5214Z" fill="#030615"/>
<path d="M18 7.08021V12.9198H16.979L15.3303 9.26604V12.9198H14.3274V7.08021H15.3339L16.9971 10.7741V7.08021H18Z" fill="#030615"/>
</g>
<defs>
<clipPath id="clip0_3686_10026">
<rect width="20" height="20" fill="white"/>
</clipPath>
</defs>
</svg>
