<svg width="20" height="20" viewBox="0 0 20 20" fill="none" xmlns="http://www.w3.org/2000/svg">
<g clip-path="url(#clip0_3686_9486)">
<path fill-rule="evenodd" clip-rule="evenodd" d="M17.7273 4.77272H2.27273C1.64513 4.77272 1.13636 5.28148 1.13636 5.90908V14.0909C1.13636 14.7185 1.64513 15.2273 2.27273 15.2273H17.7273C18.3549 15.2273 18.8636 14.7185 18.8636 14.0909V5.90908C18.8636 5.28148 18.3549 4.77272 17.7273 4.77272ZM2.27273 3.63635C1.01754 3.63635 0 4.65389 0 5.90908V14.0909C0 15.3461 1.01754 16.3636 2.27273 16.3636H17.7273C18.9825 16.3636 20 15.3461 20 14.0909V5.90908C20 4.65389 18.9825 3.63635 17.7273 3.63635H2.27273Z" fill="#030615"/>
<path d="M5.3062 11.4047C5.3062 11.2999 5.29451 11.2046 5.27113 11.1186C5.24776 11.0326 5.19766 10.9534 5.12085 10.8808C5.04738 10.8083 4.93884 10.7358 4.79524 10.6632C4.65498 10.5907 4.4713 10.5154 4.24421 10.4375C3.9737 10.3462 3.71154 10.2495 3.45773 10.1474C3.20392 10.0426 2.97516 9.9217 2.77145 9.78469C2.56773 9.64767 2.40576 9.48647 2.28554 9.30109C2.16865 9.11303 2.11021 8.89273 2.11021 8.64018C2.11021 8.39301 2.16531 8.16868 2.27552 7.96718C2.38906 7.76569 2.54936 7.59374 2.75642 7.45135C2.96347 7.30628 3.20559 7.19478 3.48278 7.11687C3.76331 7.03896 4.07556 7 4.41954 7C4.88708 7 5.29117 7.07791 5.63181 7.23374C5.97579 7.38956 6.24129 7.60315 6.4283 7.8745C6.61866 8.14585 6.71384 8.45749 6.71384 8.80944H5.2511C5.2511 8.64287 5.22104 8.49645 5.16093 8.37018C5.10415 8.24122 5.01231 8.14047 4.88541 8.06793C4.75851 7.99539 4.59487 7.95912 4.39449 7.95912C4.20747 7.95912 4.05218 7.99002 3.92862 8.05181C3.80839 8.11092 3.71822 8.19286 3.65811 8.29764C3.60134 8.39973 3.57295 8.51526 3.57295 8.64421C3.57295 8.74093 3.60134 8.82825 3.65811 8.90616C3.71822 8.98139 3.80004 9.04989 3.90357 9.11169C4.0071 9.17079 4.12899 9.22855 4.26925 9.28497C4.41286 9.34139 4.56982 9.39647 4.74014 9.4502C5.07076 9.55498 5.36297 9.6705 5.61678 9.79678C5.87059 9.92036 6.08265 10.0601 6.25297 10.2159C6.42329 10.369 6.55187 10.5423 6.6387 10.7358C6.72553 10.9292 6.76894 11.1495 6.76894 11.3967C6.76894 11.6411 6.71551 11.8641 6.60864 12.0656C6.50511 12.2644 6.35316 12.4364 6.15279 12.5815C5.95241 12.7239 5.71029 12.834 5.42642 12.9119C5.1459 12.9898 4.83198 13.0288 4.48466 13.0288C4.14736 13.0288 3.82843 12.9912 3.52786 12.9159C3.2273 12.838 2.9618 12.7212 2.73137 12.5653C2.50428 12.4068 2.32561 12.2067 2.19537 11.9649C2.06512 11.7204 2 11.4316 2 11.0984H3.46775C3.46775 11.2758 3.48946 11.4276 3.53287 11.5538C3.57629 11.6774 3.64308 11.7768 3.73325 11.852C3.82342 11.9246 3.93363 11.9797 4.06387 12.0173C4.19745 12.0522 4.34941 12.0697 4.51972 12.0697C4.71342 12.0697 4.86704 12.0401 4.98059 11.981C5.09747 11.9219 5.18096 11.8426 5.23106 11.7432C5.28115 11.6438 5.3062 11.531 5.3062 11.4047Z" fill="#030615"/>
<path d="M11.1672 12.0535L12.9105 13.3189L11.9887 14L10.2855 12.7346L11.1672 12.0535ZM12.8804 9.55901V10.4698C12.8804 10.8916 12.8186 11.2637 12.6951 11.5861C12.5715 11.9058 12.3928 12.1731 12.159 12.388C11.9253 12.6003 11.6481 12.7601 11.3275 12.8676C11.0069 12.9751 10.6512 13.0288 10.2605 13.0288C9.86976 13.0288 9.51242 12.9751 9.18848 12.8676C8.86788 12.7601 8.59069 12.6003 8.35692 12.388C8.12649 12.1731 7.94615 11.9058 7.8159 11.5861C7.689 11.2637 7.62555 10.8916 7.62555 10.4698V9.55901C7.62555 9.13721 7.689 8.76646 7.8159 8.44675C7.94281 8.12704 8.12148 7.86106 8.35191 7.64882C8.58568 7.43389 8.86287 7.27269 9.18347 7.16523C9.50407 7.05508 9.85974 7 10.2505 7C10.6445 7 11.0019 7.05508 11.3225 7.16523C11.6431 7.27269 11.9203 7.43389 12.154 7.64882C12.3912 7.86106 12.5715 8.12704 12.6951 8.44675C12.8186 8.76646 12.8804 9.13721 12.8804 9.55901ZM11.4177 10.4698V9.55095C11.4177 9.27423 11.3926 9.03646 11.3425 8.83765C11.2924 8.63884 11.2173 8.4763 11.1171 8.35003C11.0202 8.22376 10.8984 8.13107 10.7514 8.07196C10.6078 8.01286 10.4408 7.9833 10.2505 7.9833C10.0635 7.9833 9.89647 8.01286 9.74953 8.07196C9.60593 8.13107 9.4857 8.22376 9.38885 8.35003C9.29201 8.4763 9.21687 8.63884 9.16343 8.83765C9.11334 9.03646 9.08829 9.27423 9.08829 9.55095V10.4698C9.08829 10.7492 9.11334 10.9883 9.16343 11.1871C9.21353 11.3859 9.287 11.5498 9.38384 11.6788C9.48403 11.805 9.60593 11.8991 9.74953 11.9609C9.89647 12.02 10.0668 12.0495 10.2605 12.0495C10.4475 12.0495 10.6128 12.02 10.7564 11.9609C10.9034 11.8991 11.0253 11.805 11.1221 11.6788C11.2223 11.5525 11.2958 11.3899 11.3425 11.1911C11.3926 10.9896 11.4177 10.7492 11.4177 10.4698Z" fill="#030615"/>
<path d="M18 11.9729V12.9482H14.9693V11.9729H18ZM15.4202 7.0806V12.9482H13.9524V7.0806H15.4202Z" fill="#030615"/>
</g>
<defs>
<clipPath id="clip0_3686_9486">
<rect width="20" height="20" fill="white"/>
</clipPath>
</defs>
</svg>
