<svg width="20" height="20" viewBox="0 0 20 20" fill="none" xmlns="http://www.w3.org/2000/svg">
<g clip-path="url(#clip0_3686_9485)">
<path fill-rule="evenodd" clip-rule="evenodd" d="M17.7273 4.77272H2.27273C1.64513 4.77272 1.13636 5.28148 1.13636 5.90908V14.0909C1.13636 14.7185 1.64513 15.2273 2.27273 15.2273H17.7273C18.3549 15.2273 18.8636 14.7185 18.8636 14.0909V5.90908C18.8636 5.28148 18.3549 4.77272 17.7273 4.77272ZM2.27273 3.63635C1.01754 3.63635 0 4.65389 0 5.90908V14.0909C0 15.3461 1.01754 16.3636 2.27273 16.3636H17.7273C18.9825 16.3636 20 15.3461 20 14.0909V5.90908C20 4.65389 18.9825 3.63635 17.7273 3.63635H2.27273Z" fill="#030615"/>
<path d="M5.22066 11.1813H3.88647V9.84615H5.22066C5.40571 9.84615 5.55644 9.79487 5.67285 9.69231C5.79224 9.58974 5.8788 9.44872 5.93252 9.26923C5.98625 9.08608 6.01311 8.88095 6.01311 8.65385C6.01311 8.42308 5.98476 8.20879 5.92805 8.01099C5.87432 7.80952 5.78925 7.64652 5.67285 7.52198C5.55943 7.39744 5.4087 7.33516 5.22066 7.33516H4.30732V14H3V6H5.22066C5.65942 6 6.03699 6.11355 6.35337 6.34066C6.66976 6.56777 6.91152 6.88095 7.07867 7.28022C7.2488 7.67582 7.33387 8.13004 7.33387 8.64286C7.33387 9.15934 7.2488 9.60806 7.07867 9.98901C6.91152 10.3663 6.66976 10.6593 6.35337 10.8681C6.03699 11.0769 5.65942 11.1813 5.22066 11.1813Z" fill="#030615"/>
<path d="M9.9127 14H8.76207L8.77103 12.6703H9.9127C10.2291 12.6703 10.4753 12.6007 10.6514 12.4615C10.8275 12.3223 10.9514 12.1026 11.023 11.8022C11.0976 11.5018 11.135 11.1081 11.135 10.6209V9.37363C11.135 9.00366 11.1156 8.69048 11.0768 8.43407C11.0379 8.17399 10.9723 7.9652 10.8798 7.80769C10.7872 7.64652 10.6634 7.52747 10.5082 7.45055C10.3529 7.37363 10.1604 7.33516 9.9306 7.33516H8.73969V6H9.9306C10.3067 6 10.6484 6.07509 10.9559 6.22527C11.2633 6.37546 11.5274 6.59524 11.7483 6.88462C11.9692 7.17033 12.1393 7.52381 12.2587 7.94506C12.3781 8.3663 12.4378 8.84615 12.4378 9.38462V10.6209C12.4378 11.163 12.3781 11.6429 12.2587 12.0604C12.1393 12.478 11.9692 12.8315 11.7483 13.1209C11.5304 13.4066 11.2663 13.6245 10.9559 13.7747C10.6455 13.9249 10.2977 14 9.9127 14ZM9.52318 6V14H8.21138V6H9.52318Z" fill="#030615"/>
<path d="M14.7077 6V14H13.3959V6H14.7077ZM16.7493 9.4011V10.7308H14.3764V9.4011H16.7493ZM17 6V7.33516H14.3764V6H17Z" fill="#030615"/>
</g>
<defs>
<clipPath id="clip0_3686_9485">
<rect width="20" height="20" fill="white"/>
</clipPath>
</defs>
</svg>
