<svg width="20" height="20" viewBox="0 0 20 20" fill="none" xmlns="http://www.w3.org/2000/svg">
<g clip-path="url(#clip0_3686_9487)">
<path fill-rule="evenodd" clip-rule="evenodd" d="M17.7273 4.77272H2.27273C1.64513 4.77272 1.13636 5.28148 1.13636 5.90908V14.0909C1.13636 14.7185 1.64513 15.2273 2.27273 15.2273H17.7273C18.3549 15.2273 18.8636 14.7185 18.8636 14.0909V5.90908C18.8636 5.28148 18.3549 4.77272 17.7273 4.77272ZM2.27273 3.63635C1.01754 3.63635 0 4.65389 0 5.90908V14.0909C0 15.3461 1.01754 16.3636 2.27273 16.3636H17.7273C18.9825 16.3636 20 15.3461 20 14.0909V5.90908C20 4.65389 18.9825 3.63635 17.7273 3.63635H2.27273Z" fill="#030615"/>
<path d="M3.09444 7L3.85848 9.7033L4.61564 7H5.71352L4.3644 10.8201V13H3.34912V10.8201L2 7H3.09444Z" fill="#030615"/>
<path d="M7.47444 8.07143L6.39721 13H5.33374L6.89969 7H7.56392L7.47444 8.07143ZM8.32452 13L7.24041 8.07143L7.1406 7H7.81516L9.39487 13H8.32452ZM8.36238 10.7624V11.7637H6.10123V10.7624H8.36238Z" fill="#030615"/>
<path d="M10.23 7H11.1145L12.1367 11.1044L13.1554 7H13.9366L12.5118 13H11.7581L10.23 7ZM9.87206 7H10.7153L10.846 10.956V13H9.87206V7ZM13.5512 7H14.3978V13H13.4273V10.956L13.5512 7Z" fill="#030615"/>
<path d="M18 12.0027V13H15.9178V12.0027H18ZM16.2276 7V13H15.2192V7H16.2276Z" fill="#030615"/>
</g>
<defs>
<clipPath id="clip0_3686_9487">
<rect width="20" height="20" fill="white"/>
</clipPath>
</defs>
</svg>
