<svg width="20" height="20" viewBox="0 0 20 20" fill="none" xmlns="http://www.w3.org/2000/svg">
<g clip-path="url(#clip0_3686_10027)">
<path fill-rule="evenodd" clip-rule="evenodd" d="M17.7273 4.77272H2.27273C1.64513 4.77272 1.13636 5.28148 1.13636 5.90908V14.0909C1.13636 14.7185 1.64513 15.2273 2.27273 15.2273H17.7273C18.3549 15.2273 18.8636 14.7185 18.8636 14.0909V5.90908C18.8636 5.28148 18.3549 4.77272 17.7273 4.77272ZM2.27273 3.63635C1.01754 3.63635 0 4.65389 0 5.90908V14.0909C0 15.3461 1.01754 16.3636 2.27273 16.3636H17.7273C18.9825 16.3636 20 15.3461 20 14.0909V5.90908C20 4.65389 18.9825 3.63635 17.7273 3.63635H2.27273ZM2.72727 6.81817H3.63636H3.86364H4.26355L4.53377 7.11297L6.36364 9.10918L8.1935 7.11297L8.46373 6.81817H8.86364H9.09091H10V7.72726V13.1818H8.18182V9.81642L7.03377 11.0688L6.36364 11.7999L5.6935 11.0688L4.54545 9.81642V13.1818H2.72727V7.72726V6.81817ZM13.6364 9.99999V6.81817H15.4545V9.99999H17.7273L15.4545 12.2727L14.5455 13.1818L13.6364 12.2727L11.3636 9.99999H13.6364Z" fill="#030615"/>
</g>
<defs>
<clipPath id="clip0_3686_10027">
<rect width="20" height="20" fill="white"/>
</clipPath>
</defs>
</svg>
