<?xml version="1.0" encoding="UTF-8"?>
<svg width="16px" height="16px" viewBox="0 0 16 16" version="1.1" xmlns="http://www.w3.org/2000/svg" xmlns:xlink="http://www.w3.org/1999/xlink">
    <title>folder</title>
    <g id="Page-1" stroke="none" stroke-width="1" fill="none" fill-rule="evenodd">
        <g id="Group-2" stroke="#000000" stroke-width="1.5">
            <path d="M1.7938651,2.76548454 C1.92025939,2.61304855 2.25634664,2.75212336 2.65803388,2.75044522 L2.65803388,2.75044522 L6.61741697,2.75003923 L8.06739575,4.74992111 L12.8406039,4.75090531 C13.3984178,4.75705712 13.8150242,4.72322517 14.0435277,4.95151851 C14.2583765,5.16616976 14.25,5.56918126 14.25,6.15003343 L14.25,6.15003343 L14.2495613,11.3389213 C14.2478766,11.7436534 14.3869514,12.0797406 14.2345155,12.2061349 C14.0463534,12.362152 13.6400227,12.25 13,12.25 L13,12.25 L3,12.25 C2.375,12.25 1.95456865,12.3939085 1.78033009,12.2196699 C1.60609153,12.0454314 1.75,11.625 1.75,11 L1.75,11 L1.75,4 C1.75,3.3599773 1.63784805,2.95364663 1.7938651,2.76548454 Z" id="Path"></path>
        </g>
    </g>
</svg>