<svg width="20" height="20" viewBox="0 0 20 20" fill="none" xmlns="http://www.w3.org/2000/svg">
<path d="M12.5586 0.841675H7.55859V2.50834H12.5586V0.841675ZM9.22526 11.675H10.8919V6.67501H9.22526V11.675ZM15.9169 6.15834L17.1003 4.97501C16.7419 4.55001 16.3503 4.15001 15.9253 3.80001L14.7419 4.98334C13.4147 3.91528 11.7622 3.33308 10.0586 3.33334C5.91693 3.33334 2.55859 6.69168 2.55859 10.8333C2.55859 14.975 5.90859 18.3333 10.0586 18.3333C14.2086 18.3333 17.5586 14.975 17.5586 10.8333C17.5586 9.07501 16.9419 7.45001 15.9169 6.15834ZM10.0586 16.675C6.83359 16.675 4.22526 14.0667 4.22526 10.8417C4.22526 7.61668 6.83359 5.00834 10.0586 5.00834C13.2836 5.00834 15.8919 7.61668 15.8919 10.8417C15.8919 14.0667 13.2836 16.675 10.0586 16.675Z" fill="#030615"/>
</svg>
