<svg width="20" height="20" viewBox="0 0 20 20" fill="none" xmlns="http://www.w3.org/2000/svg">
<path fill-rule="evenodd" clip-rule="evenodd" d="M10.9911 3.57556C9.01494 3.27234 6.92586 3.88176 5.40381 5.40381C2.8654 7.94221 2.8654 12.0578 5.40381 14.5962L5.93414 15.1265L4.87348 16.1872L4.34315 15.6569C1.21895 12.5327 1.21895 7.46734 4.34315 4.34315C6.40973 2.27657 9.32564 1.57698 11.9673 2.24439L10.9911 3.57556ZM15.8304 7.12254C17.0295 9.55167 16.6181 12.5743 14.5962 14.5962L14.0659 15.1265L15.1265 16.1872L15.6569 15.6569C18.334 12.9797 18.7171 8.87715 16.8061 5.79209L15.8304 7.12254ZM10 11C10.5523 11 11 10.5523 11 10C11 9.44772 10.5523 9 10 9C9.44772 9 9 9.44772 9 10C9 10.5523 9.44772 11 10 11ZM10 12.5C11.3807 12.5 12.5 11.3807 12.5 10C12.5 9.42572 12.3064 8.89666 11.9808 8.47456L15.4475 4.14119C15.0815 3.80067 14.6834 3.49405 14.2585 3.22632L10.7484 7.61394C10.5121 7.53991 10.2607 7.5 10 7.5C8.61929 7.5 7.5 8.61929 7.5 10C7.5 11.3807 8.61929 12.5 10 12.5Z" fill="#030615"/>
</svg>
