<svg width="20" height="20" viewBox="0 0 20 20" fill="none" xmlns="http://www.w3.org/2000/svg">
<path fill-rule="evenodd" clip-rule="evenodd" d="M10 12.5C11.3807 12.5 12.5 11.3807 12.5 10C12.5 8.61929 11.3807 7.5 10 7.5C8.61929 7.5 7.5 8.61929 7.5 10C7.5 11.3807 8.61929 12.5 10 12.5ZM10 14C11.9528 14 13.5787 12.6006 13.9298 10.75H17.25H18V9.25H17.25H13.9298C13.5787 7.39935 11.9528 6 10 6C8.04721 6 6.42125 7.39935 6.0702 9.25H2.75H2V10.75H2.75H6.0702C6.42125 12.6006 8.04721 14 10 14Z" fill="#030615"/>
</svg>
