<svg width="20" height="20" viewBox="0 0 20 20" fill="none" xmlns="http://www.w3.org/2000/svg">
<path d="M6 8.25V16.25V8.25Z" fill="#030615"/>
<path d="M6 8.25V16.25" stroke="#030615" stroke-width="1.5" stroke-linecap="square" stroke-linejoin="round"/>
<path fill-rule="evenodd" clip-rule="evenodd" d="M12.5 14C12.5 14.8284 13.1716 15.5 14 15.5C14.8284 15.5 15.5 14.8284 15.5 14C15.5 13.1716 14.8284 12.5 14 12.5C13.1716 12.5 12.5 13.1716 12.5 14ZM11.079 14.6869C11.3896 16.0127 12.5795 17 14 17C15.6569 17 17 15.6569 17 14C17 12.3431 15.6569 11 14 11C12.6293 11 11.4733 11.9192 11.1149 13.1749C10.051 12.9929 9.0611 12.4857 8.28769 11.7123C7.51428 10.9389 7.0071 9.94904 6.82513 8.8851C8.08076 8.52667 9 7.37069 9 6C9 4.34315 7.65685 3 6 3C4.34315 3 3 4.34315 3 6C3 7.42051 3.98728 8.61042 5.3131 8.921C5.51279 10.371 6.18025 11.7262 7.22703 12.773C8.2738 13.8197 9.62898 14.4872 11.079 14.6869ZM4.5 6C4.5 6.82843 5.17157 7.5 6 7.5C6.82843 7.5 7.5 6.82843 7.5 6C7.5 5.17157 6.82843 4.5 6 4.5C5.17157 4.5 4.5 5.17157 4.5 6Z" fill="#030615"/>
</svg>
