<svg width="20" height="20" viewBox="0 0 20 20" fill="none" xmlns="http://www.w3.org/2000/svg">
<path fill-rule="evenodd" clip-rule="evenodd" d="M6.25 2C5.00736 2 4 3.00736 4 4.25V13V13.25V13.5C4 14.5252 4.61705 15.4062 5.5 15.792V13.5V13.25V13C5.5 12.4477 5.94772 12 6.5 12H14.5V13.2305V14.5H12.5V16H14.5H16V14.5V13.2305V12V10.5V2.75V2H15.25H6.25ZM14.5 10.5V3.5H6.25C5.83579 3.5 5.5 3.83579 5.5 4.25V10.708C5.80623 10.5742 6.14445 10.5 6.5 10.5H14.5ZM7.5 13.5C7.22386 13.5 7 13.7239 7 14V18L9 16.75L11 18V14C11 13.7239 10.7761 13.5 10.5 13.5H7.5Z" fill="#030615"/>
</svg>
