<svg width="20" height="20" viewBox="0 0 20 20" fill="none" xmlns="http://www.w3.org/2000/svg">
<path fill-rule="evenodd" clip-rule="evenodd" d="M6 7.5C5.17157 7.5 4.5 6.82843 4.5 6C4.5 5.17157 5.17157 4.5 6 4.5C6.82843 4.5 7.5 5.17157 7.5 6C7.5 6.82843 6.82843 7.5 6 7.5ZM6.75 8.90549C8.04392 8.57245 9 7.39788 9 6C9 4.34315 7.65685 3 6 3C4.34315 3 3 4.34315 3 6C3 7.39788 3.95608 8.57245 5.25 8.90549V16.25V17H6.75V16.25V8.90549ZM13.25 8.35095V11.0945C11.9561 11.4275 11 12.6021 11 14C11 15.6569 12.3431 17 14 17C15.6569 17 17 15.6569 17 14C17 12.6021 16.0439 11.4275 14.75 11.0945V8.24341L16.1616 9.65503L17.2223 8.59437L15.1144 6.48652L17.2427 4.35827L16.182 3.29761L14.0538 5.42586L11.8712 3.24329L10.8105 4.30396L12.9931 6.48652L10.8309 8.64869L11.8916 9.70935L13.25 8.35095ZM12.5 14C12.5 14.8284 13.1716 15.5 14 15.5C14.8284 15.5 15.5 14.8284 15.5 14C15.5 13.1716 14.8284 12.5 14 12.5C13.1716 12.5 12.5 13.1716 12.5 14Z" fill="#030615"/>
</svg>
