<svg width="20" height="20" viewBox="0 0 20 20" fill="none" xmlns="http://www.w3.org/2000/svg">
<path fill-rule="evenodd" clip-rule="evenodd" d="M9.99989 1.66667C5.39811 1.66667 1.6665 5.46118 1.6665 10.1423C1.6665 13.8872 4.05428 17.0643 7.36539 18.185C7.78189 18.2635 7.93478 18.0012 7.93478 17.7773C7.93478 17.5752 7.92706 16.9075 7.92345 16.1993C5.60511 16.712 5.11589 15.1992 5.11589 15.1992C4.73681 14.2196 4.19062 13.9591 4.19062 13.9591C3.43453 13.433 4.24761 13.4438 4.24761 13.4438C5.08443 13.5034 5.52505 14.3172 5.52505 14.3172C6.26828 15.613 7.47456 15.2384 7.95006 15.0218C8.02489 14.4742 8.24084 14.0999 8.47917 13.8884C6.62823 13.6741 4.68244 12.9473 4.68244 9.69967C4.68244 8.77428 5.00798 8.01817 5.54105 7.42462C5.45454 7.211 5.16929 6.34906 5.62178 5.1816C5.62178 5.1816 6.32156 4.95381 7.91406 6.05039C8.57884 5.86262 9.29173 5.76839 9.99989 5.76523C10.7081 5.76839 11.4216 5.86262 12.0875 6.05039C13.6781 4.95381 14.3769 5.1816 14.3769 5.1816C14.8305 6.34906 14.5451 7.211 14.4586 7.42462C14.9929 8.01817 15.3163 8.77428 15.3163 9.69967C15.3163 12.9551 13.3668 13.6719 11.5111 13.8817C11.8101 14.1447 12.0763 14.6606 12.0763 15.4513C12.0763 16.5852 12.0667 17.4979 12.0667 17.7773C12.0667 18.0028 12.2167 18.2671 12.6391 18.1839C15.9484 17.0619 18.3332 13.8859 18.3332 10.1423C18.3332 5.46118 14.6021 1.66667 9.99989 1.66667Z" fill="#171615"/>
<path fill-rule="evenodd" clip-rule="evenodd" d="M4.82328 13.8364C4.80493 13.8787 4.73979 13.8912 4.68045 13.8622C4.62001 13.8346 4.58606 13.7772 4.60565 13.7349C4.62359 13.6916 4.68887 13.6796 4.74917 13.7084C4.80975 13.7362 4.84425 13.7942 4.82328 13.8364Z" fill="#171615"/>
<path fill-rule="evenodd" clip-rule="evenodd" d="M5.15661 14.219C5.11685 14.2565 5.03916 14.2391 4.98645 14.1798C4.93194 14.1207 4.92173 14.0417 4.96202 14.0037C5.00301 13.9662 5.07835 13.9837 5.133 14.0428C5.18751 14.1026 5.19815 14.1811 5.15661 14.219Z" fill="#171615"/>
<path fill-rule="evenodd" clip-rule="evenodd" d="M5.48701 14.707C5.43594 14.743 5.35245 14.7092 5.30083 14.6338C5.2498 14.5585 5.2498 14.4681 5.30194 14.4318C5.35371 14.3956 5.43594 14.4282 5.48827 14.503C5.53916 14.5795 5.53915 14.67 5.48701 14.707Z" fill="#171615"/>
<path fill-rule="evenodd" clip-rule="evenodd" d="M5.93923 15.1781C5.89357 15.2293 5.79623 15.2155 5.72507 15.1456C5.65223 15.0773 5.6319 14.9803 5.67773 14.9291C5.72395 14.8777 5.82179 14.8921 5.89357 14.9615C5.9659 15.0297 5.98795 15.1274 5.93923 15.1781Z" fill="#171615"/>
<path fill-rule="evenodd" clip-rule="evenodd" d="M6.55706 15.4524C6.53695 15.5187 6.44323 15.5489 6.34884 15.5207C6.25462 15.4917 6.1929 15.4139 6.21195 15.3468C6.23156 15.28 6.32567 15.2485 6.42073 15.2788C6.51484 15.3077 6.57667 15.3848 6.55706 15.4524Z" fill="#171615"/>
<path fill-rule="evenodd" clip-rule="evenodd" d="M7.24483 15.5037C7.24716 15.5736 7.16711 15.6316 7.06805 15.6327C6.96839 15.6351 6.88777 15.5785 6.88672 15.5097C6.88672 15.4392 6.96494 15.3817 7.06461 15.3801C7.16366 15.3781 7.24483 15.4342 7.24483 15.5037Z" fill="#171615"/>
<path fill-rule="evenodd" clip-rule="evenodd" d="M7.87531 15.3928C7.88715 15.4611 7.81831 15.5311 7.71992 15.5496C7.62315 15.5677 7.53365 15.5256 7.52137 15.4579C7.50931 15.3881 7.57942 15.3181 7.67604 15.2999C7.77459 15.2825 7.86276 15.3235 7.87531 15.3928Z" fill="#171615"/>
</svg>
