<svg width="20" height="20" viewBox="0 0 20 20" fill="none" xmlns="http://www.w3.org/2000/svg">
<path fill-rule="evenodd" clip-rule="evenodd" d="M3.95833 2.5C3.76682 2.5 3.57719 2.53772 3.40025 2.61101C3.22332 2.6843 3.06255 2.79172 2.92714 2.92714C2.79172 3.06255 2.6843 3.22332 2.61101 3.40025C2.53772 3.57719 2.5 3.76682 2.5 3.95833C2.5 4.14984 2.53772 4.33948 2.61101 4.51641C2.6843 4.69335 2.79172 4.85411 2.92714 4.98953C3.06255 5.12495 3.22332 5.23237 3.40025 5.30566C3.57719 5.37895 3.76682 5.41667 3.95833 5.41667C4.34511 5.41667 4.71604 5.26302 4.98953 4.98953C5.26302 4.71604 5.41667 4.34511 5.41667 3.95833C5.41667 3.57156 5.26302 3.20063 4.98953 2.92714C4.71604 2.65365 4.34511 2.5 3.95833 2.5ZM1.25 3.95833C1.25 3.24004 1.53534 2.55116 2.04325 2.04325C2.55116 1.53534 3.24004 1.25 3.95833 1.25C4.67663 1.25 5.3655 1.53534 5.87341 2.04325C6.38133 2.55116 6.66667 3.24004 6.66667 3.95833C6.66667 4.67663 6.38133 5.3655 5.87341 5.87341C5.3655 6.38133 4.67663 6.66667 3.95833 6.66667C3.24004 6.66667 2.55116 6.38133 2.04325 5.87341C1.53534 5.3655 1.25 4.67663 1.25 3.95833V3.95833ZM3.95833 14.5833C3.57156 14.5833 3.20063 14.737 2.92714 15.0105C2.65365 15.284 2.5 15.6549 2.5 16.0417C2.5 16.4284 2.65365 16.7994 2.92714 17.0729C3.20063 17.3464 3.57156 17.5 3.95833 17.5C4.34511 17.5 4.71604 17.3464 4.98953 17.0729C5.26302 16.7994 5.41667 16.4284 5.41667 16.0417C5.41667 15.6549 5.26302 15.284 4.98953 15.0105C4.71604 14.737 4.34511 14.5833 3.95833 14.5833V14.5833ZM1.25 16.0417C1.25 15.3234 1.53534 14.6345 2.04325 14.1266C2.55116 13.6187 3.24004 13.3333 3.95833 13.3333C4.67663 13.3333 5.3655 13.6187 5.87341 14.1266C6.38133 14.6345 6.66667 15.3234 6.66667 16.0417C6.66667 16.76 6.38133 17.4488 5.87341 17.9567C5.3655 18.4647 4.67663 18.75 3.95833 18.75C3.24004 18.75 2.55116 18.4647 2.04325 17.9567C1.53534 17.4488 1.25 16.76 1.25 16.0417V16.0417ZM16.0417 14.5833C15.6549 14.5833 15.284 14.737 15.0105 15.0105C14.737 15.284 14.5833 15.6549 14.5833 16.0417C14.5833 16.4284 14.737 16.7994 15.0105 17.0729C15.284 17.3464 15.6549 17.5 16.0417 17.5C16.4284 17.5 16.7994 17.3464 17.0729 17.0729C17.3464 16.7994 17.5 16.4284 17.5 16.0417C17.5 15.6549 17.3464 15.284 17.0729 15.0105C16.7994 14.737 16.4284 14.5833 16.0417 14.5833V14.5833ZM13.3333 16.0417C13.3333 15.3234 13.6187 14.6345 14.1266 14.1266C14.6345 13.6187 15.3234 13.3333 16.0417 13.3333C16.76 13.3333 17.4488 13.6187 17.9567 14.1266C18.4647 14.6345 18.75 15.3234 18.75 16.0417C18.75 16.76 18.4647 17.4488 17.9567 17.9567C17.4488 18.4647 16.76 18.75 16.0417 18.75C15.3234 18.75 14.6345 18.4647 14.1266 17.9567C13.6187 17.4488 13.3333 16.76 13.3333 16.0417Z" fill="#231F1B"/>
<path fill-rule="evenodd" clip-rule="evenodd" d="M3.95837 6.04173C4.12413 6.04173 4.28311 6.10757 4.40032 6.22479C4.51753 6.342 4.58337 6.50097 4.58337 6.66673V13.3334C4.58337 13.4992 4.51753 13.6581 4.40032 13.7753C4.28311 13.8925 4.12413 13.9584 3.95837 13.9584C3.79261 13.9584 3.63364 13.8925 3.51643 13.7753C3.39922 13.6581 3.33337 13.4992 3.33337 13.3334V6.66673C3.33337 6.50097 3.39922 6.342 3.51643 6.22479C3.63364 6.10757 3.79261 6.04173 3.95837 6.04173ZM11.1709 1.43339C11.2879 1.55058 11.3537 1.70943 11.3537 1.87506C11.3537 2.04069 11.2879 2.19954 11.1709 2.31673L10.1542 3.33339H13.5417C14.3705 3.33339 15.1654 3.66263 15.7514 4.24868C16.3375 4.83474 16.6667 5.62959 16.6667 6.45839V13.7501C16.6667 13.9158 16.6009 14.0748 16.4836 14.192C16.3664 14.3092 16.2075 14.3751 16.0417 14.3751C15.8759 14.3751 15.717 14.3092 15.5998 14.192C15.4826 14.0748 15.4167 13.9158 15.4167 13.7501V6.45839C15.4167 5.96111 15.2192 5.4842 14.8675 5.13257C14.5159 4.78094 14.039 4.58339 13.5417 4.58339H10.155L11.1717 5.60006C11.2855 5.71799 11.3484 5.8759 11.3469 6.03977C11.3454 6.20364 11.2796 6.36037 11.1637 6.4762C11.0477 6.59202 10.891 6.65768 10.7271 6.65902C10.5632 6.66037 10.4054 6.5973 10.2875 6.48339L8.20421 4.40006C8.08717 4.28287 8.02142 4.12402 8.02142 3.95839C8.02142 3.79277 8.08717 3.63391 8.20421 3.51673L10.2875 1.43339C10.4047 1.31635 10.5636 1.25061 10.7292 1.25061C10.8948 1.25061 11.0537 1.31635 11.1709 1.43339V1.43339Z" fill="#231F1B"/>
</svg>
