<svg width="20" height="20" viewBox="0 0 20 20" fill="none" xmlns="http://www.w3.org/2000/svg">
<path fill-rule="evenodd" clip-rule="evenodd" d="M4.79171 17.5C4.40493 17.5 4.034 17.3464 3.76051 17.0729C3.48702 16.7994 3.33337 16.4284 3.33337 16.0417C3.33337 15.6549 3.48702 15.284 3.76051 15.0105C4.034 14.737 4.40493 14.5833 4.79171 14.5833C5.17848 14.5833 5.54941 14.737 5.8229 15.0105C6.0964 15.284 6.25004 15.6549 6.25004 16.0417C6.25004 16.4284 6.0964 16.7994 5.8229 17.0729C5.54941 17.3464 5.17848 17.5 4.79171 17.5V17.5ZM2.08337 16.0417C2.08337 16.76 2.36872 17.4488 2.87663 17.9567C3.38454 18.4647 4.07341 18.75 4.79171 18.75C5.51 18.75 6.19888 18.4647 6.70679 17.9567C7.2147 17.4488 7.50004 16.76 7.50004 16.0417C7.50004 15.3234 7.2147 14.6345 6.70679 14.1266C6.19888 13.6187 5.51 13.3333 4.79171 13.3333C4.07341 13.3333 3.38454 13.6187 2.87663 14.1266C2.36872 14.6345 2.08337 15.3234 2.08337 16.0417V16.0417ZM4.79171 5.41667C4.6002 5.41667 4.41056 5.37895 4.23363 5.30566C4.05669 5.23237 3.89593 5.12495 3.76051 4.98953C3.62509 4.85411 3.51767 4.69335 3.44438 4.51641C3.37109 4.33948 3.33337 4.14984 3.33337 3.95833C3.33337 3.76682 3.37109 3.57719 3.44438 3.40025C3.51767 3.22332 3.62509 3.06255 3.76051 2.92714C3.89593 2.79172 4.05669 2.6843 4.23363 2.61101C4.41056 2.53772 4.6002 2.5 4.79171 2.5C5.17848 2.5 5.54941 2.65365 5.8229 2.92714C6.0964 3.20063 6.25004 3.57156 6.25004 3.95833C6.25004 4.34511 6.0964 4.71604 5.8229 4.98953C5.54941 5.26302 5.17848 5.41667 4.79171 5.41667V5.41667ZM2.08337 3.95833C2.08337 4.67663 2.36872 5.3655 2.87663 5.87341C3.38454 6.38133 4.07341 6.66667 4.79171 6.66667C5.51 6.66667 6.19888 6.38133 6.70679 5.87341C7.2147 5.3655 7.50004 4.67663 7.50004 3.95833C7.50004 3.24004 7.2147 2.55116 6.70679 2.04325C6.19888 1.53534 5.51 1.25 4.79171 1.25C4.07341 1.25 3.38454 1.53534 2.87663 2.04325C2.36872 2.55116 2.08337 3.24004 2.08337 3.95833V3.95833ZM15.2084 12.5C14.8216 12.5 14.4507 12.3464 14.1772 12.0729C13.9037 11.7994 13.75 11.4284 13.75 11.0417C13.75 10.6549 13.9037 10.284 14.1772 10.0105C14.4507 9.73698 14.8216 9.58333 15.2084 9.58333C15.5951 9.58333 15.9661 9.73698 16.2396 10.0105C16.5131 10.284 16.6667 10.6549 16.6667 11.0417C16.6667 11.4284 16.5131 11.7994 16.2396 12.0729C15.9661 12.3464 15.5951 12.5 15.2084 12.5V12.5ZM12.5 11.0417C12.5 11.76 12.7854 12.4488 13.2933 12.9567C13.8012 13.4647 14.4901 13.75 15.2084 13.75C15.9267 13.75 16.6155 13.4647 17.1235 12.9567C17.6314 12.4488 17.9167 11.76 17.9167 11.0417C17.9167 10.3234 17.6314 9.6345 17.1235 9.12659C16.6155 8.61867 15.9267 8.33333 15.2084 8.33333C14.4901 8.33333 13.8012 8.61867 13.2933 9.12659C12.7854 9.6345 12.5 10.3234 12.5 11.0417Z" fill="#231F1B"/>
<path fill-rule="evenodd" clip-rule="evenodd" d="M5.41663 6.04163C5.41663 8.45829 7.37496 10.4166 9.79163 10.4166H13.5416V11.6666H9.79163C8.29978 11.6666 6.86904 11.074 5.81415 10.0191C4.75926 8.96421 4.16663 7.53347 4.16663 6.04163H5.41663Z" fill="#231F1B"/>
<path fill-rule="evenodd" clip-rule="evenodd" d="M4.79163 13.9583C4.95739 13.9583 5.11636 13.8924 5.23357 13.7752C5.35078 13.658 5.41663 13.4991 5.41663 13.3333V6.66663C5.41663 6.50087 5.35078 6.34189 5.23357 6.22468C5.11636 6.10747 4.95739 6.04163 4.79163 6.04163C4.62587 6.04163 4.46689 6.10747 4.34968 6.22468C4.23247 6.34189 4.16663 6.50087 4.16663 6.66663V13.3333C4.16663 13.6783 4.44663 13.9583 4.79163 13.9583Z" fill="#231F1B"/>
</svg>
