<svg width="20" height="20" viewBox="0 0 20 20" fill="none" xmlns="http://www.w3.org/2000/svg">
<path d="M18.555 2.25914C18.6146 2.20145 18.6622 2.13247 18.6949 2.0562C18.7277 1.97993 18.7449 1.89791 18.7455 1.81492C18.7462 1.73194 18.7304 1.64964 18.6989 1.57285C18.6674 1.49605 18.621 1.42629 18.5623 1.36764C18.5036 1.30898 18.4338 1.26261 18.357 1.23122C18.2801 1.19983 18.1978 1.18406 18.1148 1.18482C18.0319 1.18558 17.9498 1.20286 17.8736 1.23565C17.7974 1.26844 17.7284 1.31608 17.6708 1.3758L16.0183 3.0283L14.365 1.3758C14.3078 1.3144 14.2388 1.26515 14.1621 1.23099C14.0854 1.19683 14.0027 1.17846 13.9187 1.17698C13.8348 1.1755 13.7515 1.19093 13.6736 1.22237C13.5958 1.2538 13.5251 1.30059 13.4658 1.35994C13.4064 1.41929 13.3596 1.48998 13.3282 1.56781C13.2968 1.64563 13.2813 1.72899 13.2828 1.81291C13.2843 1.89682 13.3027 1.97959 13.3368 2.05625C13.371 2.13292 13.4202 2.20192 13.4816 2.25914L15.1341 3.91164L13.4816 5.56497C13.3712 5.68345 13.3111 5.84015 13.314 6.00207C13.3168 6.16399 13.3824 6.31848 13.497 6.43299C13.6115 6.5475 13.766 6.61309 13.9279 6.61595C14.0898 6.61881 14.2465 6.5587 14.365 6.4483L16.0183 4.7958L17.6708 6.4483C17.7893 6.5587 17.946 6.61881 18.1079 6.61595C18.2698 6.61309 18.4243 6.5475 18.5388 6.43299C18.6533 6.31848 18.7189 6.16399 18.7218 6.00207C18.7246 5.84015 18.6645 5.68345 18.5541 5.56497L16.9016 3.91164L18.555 2.25914V2.25914Z" fill="#171615"/>
<path fill-rule="evenodd" clip-rule="evenodd" d="M3.95831 1.25C3.29379 1.24953 2.65229 1.49338 2.15588 1.93515C1.65948 2.37692 1.34281 2.98578 1.26614 3.64586C1.18947 4.30593 1.35815 4.97116 1.74008 5.51495C2.12202 6.05875 2.69054 6.44314 3.33747 6.595C3.33473 6.61879 3.33333 6.64272 3.33331 6.66667V13.3333C3.33342 13.3573 3.33481 13.3812 3.33747 13.405C2.69194 13.5583 2.12512 13.9432 1.74449 14.4867C1.36386 15.0301 1.1959 15.6944 1.27245 16.3534C1.349 17.0125 1.66474 17.6205 2.1598 18.0623C2.65486 18.504 3.29482 18.7487 3.95831 18.75C4.62282 18.7505 5.26432 18.5066 5.76073 18.0648C6.25713 17.6231 6.5738 17.0142 6.65047 16.3541C6.72714 15.6941 6.55846 15.0288 6.17653 14.485C5.7946 13.9413 5.22607 13.5569 4.57914 13.405C4.58189 13.3812 4.58328 13.3573 4.58331 13.3333V6.66667C4.58328 6.64272 4.58189 6.61879 4.57914 6.595C5.22467 6.44168 5.7915 6.0568 6.17212 5.51334C6.55275 4.96989 6.72071 4.30565 6.64416 3.64659C6.56761 2.98753 6.25187 2.37947 5.75681 1.93773C5.26175 1.49599 4.6218 1.25128 3.95831 1.25V1.25ZM2.49997 3.95833C2.49997 3.76682 2.53769 3.57719 2.61098 3.40025C2.68427 3.22332 2.79169 3.06256 2.92711 2.92714C3.06253 2.79172 3.22329 2.6843 3.40023 2.61101C3.57716 2.53772 3.76679 2.5 3.95831 2.5C4.14982 2.5 4.33945 2.53772 4.51639 2.61101C4.69332 2.6843 4.85408 2.79172 4.9895 2.92714C5.12492 3.06256 5.23234 3.22332 5.30563 3.40025C5.37892 3.57719 5.41664 3.76682 5.41664 3.95833C5.41664 4.34511 5.26299 4.71604 4.9895 4.98953C4.71601 5.26302 4.34508 5.41667 3.95831 5.41667C3.57153 5.41667 3.2006 5.26302 2.92711 4.98953C2.65362 4.71604 2.49997 4.34511 2.49997 3.95833ZM2.49997 16.0417C2.49997 15.8502 2.53769 15.6605 2.61098 15.4836C2.68427 15.3067 2.79169 15.1459 2.92711 15.0105C3.06253 14.8751 3.22329 14.7676 3.40023 14.6943C3.57716 14.6211 3.76679 14.5833 3.95831 14.5833C4.14982 14.5833 4.33945 14.6211 4.51639 14.6943C4.69332 14.7676 4.85408 14.8751 4.9895 15.0105C5.12492 15.1459 5.23234 15.3067 5.30563 15.4836C5.37892 15.6605 5.41664 15.8502 5.41664 16.0417C5.41664 16.4284 5.26299 16.7994 4.9895 17.0729C4.71601 17.3464 4.34508 17.5 3.95831 17.5C3.57153 17.5 3.2006 17.3464 2.92711 17.0729C2.65362 16.7994 2.49997 16.4284 2.49997 16.0417V16.0417ZM13.3333 16.0417C13.3333 15.432 13.539 14.8401 13.917 14.3618C14.2951 13.8835 14.8234 13.5467 15.4166 13.4058V8.02083C15.4166 7.85507 15.4825 7.6961 15.5997 7.57889C15.7169 7.46168 15.8759 7.39583 16.0416 7.39583C16.2074 7.39583 16.3664 7.46168 16.4836 7.57889C16.6008 7.6961 16.6666 7.85507 16.6666 8.02083V13.4058C17.3117 13.56 17.8779 13.9454 18.2578 14.489C18.6377 15.0327 18.805 15.6968 18.7279 16.3555C18.6509 17.0143 18.3349 17.6219 17.8398 18.0632C17.3447 18.5045 16.7049 18.7489 16.0416 18.75C15.3233 18.75 14.6345 18.4647 14.1266 17.9567C13.6186 17.4488 13.3333 16.76 13.3333 16.0417ZM16.0416 14.5833C15.6549 14.5833 15.2839 14.737 15.0104 15.0105C14.737 15.284 14.5833 15.6549 14.5833 16.0417C14.5833 16.4284 14.737 16.7994 15.0104 17.0729C15.2839 17.3464 15.6549 17.5 16.0416 17.5C16.4284 17.5 16.7993 17.3464 17.0728 17.0729C17.3463 16.7994 17.5 16.4284 17.5 16.0417C17.5 15.6549 17.3463 15.284 17.0728 15.0105C16.7993 14.737 16.4284 14.5833 16.0416 14.5833V14.5833Z" fill="#171615"/>
</svg>
