<svg width="14" height="14" viewBox="0 0 14 14" fill="none" xmlns="http://www.w3.org/2000/svg">
<path fill-rule="evenodd" clip-rule="evenodd" d="M3.13051 0L0 8.93561L6.90399 13.9167L6.97532 13.9735L6.97901 13.9708L7.01948 14L7.24032 13.8116L7.39096 13.6752L14 8.93293L10.7479 0.137939L8.81483 6.05872H5.05814L3.13051 0ZM4.13256 6.05872L3.09064 2.78727L1.94451 6.05872H4.13256ZM1.63321 6.9473H4.41556L6.10289 12.2452L1.05345 8.60214L1.63321 6.9473ZM5.34085 6.9473H8.52472L6.91222 11.8863L5.34085 6.9473ZM9.45451 6.9473L7.68262 12.3744L12.9362 8.60479L12.3233 6.9473H9.45451ZM11.9947 6.05872L10.7997 2.82702L9.74462 6.05872H11.9947Z" fill="white"/>
</svg>
