<svg width="20" height="20" viewBox="0 0 20 20" fill="none" xmlns="http://www.w3.org/2000/svg">
<g id="language_FILL0_wght400_GRAD0_opsz24 (3) 1">
<path id="Vector" d="M10.0003 18.3337C8.86144 18.3337 7.78505 18.1149 6.77116 17.6774C5.75727 17.2399 4.87185 16.6427 4.11491 15.8857C3.35796 15.1288 2.76074 14.2434 2.32324 13.2295C1.88574 12.2156 1.66699 11.1392 1.66699 10.0003C1.66699 8.84755 1.88574 7.76769 2.32324 6.76074C2.76074 5.7538 3.35796 4.87185 4.11491 4.11491C4.87185 3.35796 5.75727 2.76074 6.77116 2.32324C7.78505 1.88574 8.86144 1.66699 10.0003 1.66699C11.1531 1.66699 12.233 1.88574 13.2399 2.32324C14.2469 2.76074 15.1288 3.35796 15.8857 4.11491C16.6427 4.87185 17.2399 5.7538 17.6774 6.76074C18.1149 7.76769 18.3337 8.84755 18.3337 10.0003C18.3337 11.1392 18.1149 12.2156 17.6774 13.2295C17.2399 14.2434 16.6427 15.1288 15.8857 15.8857C15.1288 16.6427 14.2469 17.2399 13.2399 17.6774C12.233 18.1149 11.1531 18.3337 10.0003 18.3337ZM10.0003 16.6253C10.3614 16.1253 10.6739 15.6045 10.9378 15.0628C11.2017 14.5212 11.417 13.9448 11.5837 13.3337H8.41699C8.58366 13.9448 8.79894 14.5212 9.06283 15.0628C9.32671 15.6045 9.63921 16.1253 10.0003 16.6253ZM7.83366 16.292C7.58366 15.8337 7.36491 15.358 7.17741 14.8649C6.98991 14.3719 6.83366 13.8614 6.70866 13.3337H4.25033C4.6531 14.0281 5.15658 14.6323 5.76074 15.1462C6.36491 15.66 7.05588 16.042 7.83366 16.292ZM12.167 16.292C12.9448 16.042 13.6357 15.66 14.2399 15.1462C14.8441 14.6323 15.3475 14.0281 15.7503 13.3337H13.292C13.167 13.8614 13.0107 14.3719 12.8232 14.8649C12.6357 15.358 12.417 15.8337 12.167 16.292ZM3.54199 11.667H6.37533C6.33366 11.3892 6.30241 11.1149 6.28158 10.8441C6.26074 10.5732 6.25033 10.292 6.25033 10.0003C6.25033 9.70866 6.26074 9.42741 6.28158 9.15658C6.30241 8.88574 6.33366 8.61144 6.37533 8.33366H3.54199C3.47255 8.61144 3.42046 8.88574 3.38574 9.15658C3.35102 9.42741 3.33366 9.70866 3.33366 10.0003C3.33366 10.292 3.35102 10.5732 3.38574 10.8441C3.42046 11.1149 3.47255 11.3892 3.54199 11.667ZM8.04199 11.667H11.9587C12.0003 11.3892 12.0316 11.1149 12.0524 10.8441C12.0732 10.5732 12.0837 10.292 12.0837 10.0003C12.0837 9.70866 12.0732 9.42741 12.0524 9.15658C12.0316 8.88574 12.0003 8.61144 11.9587 8.33366H8.04199C8.00033 8.61144 7.96908 8.88574 7.94824 9.15658C7.92741 9.42741 7.91699 9.70866 7.91699 10.0003C7.91699 10.292 7.92741 10.5732 7.94824 10.8441C7.96908 11.1149 8.00033 11.3892 8.04199 11.667ZM13.6253 11.667H16.4587C16.5281 11.3892 16.5802 11.1149 16.6149 10.8441C16.6496 10.5732 16.667 10.292 16.667 10.0003C16.667 9.70866 16.6496 9.42741 16.6149 9.15658C16.5802 8.88574 16.5281 8.61144 16.4587 8.33366H13.6253C13.667 8.61144 13.6982 8.88574 13.7191 9.15658C13.7399 9.42741 13.7503 9.70866 13.7503 10.0003C13.7503 10.292 13.7399 10.5732 13.7191 10.8441C13.6982 11.1149 13.667 11.3892 13.6253 11.667ZM13.292 6.66699H15.7503C15.3475 5.97255 14.8441 5.36838 14.2399 4.85449C13.6357 4.3406 12.9448 3.95866 12.167 3.70866C12.417 4.16699 12.6357 4.64269 12.8232 5.13574C13.0107 5.6288 13.167 6.13921 13.292 6.66699ZM8.41699 6.66699H11.5837C11.417 6.05588 11.2017 5.47949 10.9378 4.93783C10.6739 4.39616 10.3614 3.87533 10.0003 3.37533C9.63921 3.87533 9.32671 4.39616 9.06283 4.93783C8.79894 5.47949 8.58366 6.05588 8.41699 6.66699ZM4.25033 6.66699H6.70866C6.83366 6.13921 6.98991 5.6288 7.17741 5.13574C7.36491 4.64269 7.58366 4.16699 7.83366 3.70866C7.05588 3.95866 6.36491 4.3406 5.76074 4.85449C5.15658 5.36838 4.6531 5.97255 4.25033 6.66699Z" fill="#4BB4D2"/>
</g>
</svg>
