<svg width="20" height="20" viewBox="0 0 20 20" fill="none" xmlns="http://www.w3.org/2000/svg">
<path d="M10.0003 18.3333C8.86144 18.3333 7.78505 18.1145 6.77116 17.677C5.75727 17.2395 4.87185 16.6423 4.11491 15.8854C3.35796 15.1284 2.76074 14.243 2.32324 13.2291C1.88574 12.2152 1.66699 11.1388 1.66699 9.99996C1.66699 8.84718 1.88574 7.76732 2.32324 6.76038C2.76074 5.75343 3.35796 4.87149 4.11491 4.11454C4.87185 3.3576 5.75727 2.76038 6.77116 2.32288C7.78505 1.88538 8.86144 1.66663 10.0003 1.66663C11.1531 1.66663 12.233 1.88538 13.2399 2.32288C14.2469 2.76038 15.1288 3.3576 15.8857 4.11454C16.6427 4.87149 17.2399 5.75343 17.6774 6.76038C18.1149 7.76732 18.3337 8.84718 18.3337 9.99996C18.3337 11.1388 18.1149 12.2152 17.6774 13.2291C17.2399 14.243 16.6427 15.1284 15.8857 15.8854C15.1288 16.6423 14.2469 17.2395 13.2399 17.677C12.233 18.1145 11.1531 18.3333 10.0003 18.3333ZM10.0003 16.625C10.3614 16.125 10.6739 15.6041 10.9378 15.0625C11.2017 14.5208 11.417 13.9444 11.5837 13.3333H8.41699C8.58366 13.9444 8.79894 14.5208 9.06283 15.0625C9.32671 15.6041 9.63921 16.125 10.0003 16.625ZM7.83366 16.2916C7.58366 15.8333 7.36491 15.3576 7.17741 14.8645C6.98991 14.3715 6.83366 13.8611 6.70866 13.3333H4.25033C4.6531 14.0277 5.15658 14.6319 5.76074 15.1458C6.36491 15.6597 7.05588 16.0416 7.83366 16.2916ZM12.167 16.2916C12.9448 16.0416 13.6357 15.6597 14.2399 15.1458C14.8441 14.6319 15.3475 14.0277 15.7503 13.3333H13.292C13.167 13.8611 13.0107 14.3715 12.8232 14.8645C12.6357 15.3576 12.417 15.8333 12.167 16.2916ZM3.54199 11.6666H6.37533C6.33366 11.3888 6.30241 11.1145 6.28158 10.8437C6.26074 10.5729 6.25033 10.2916 6.25033 9.99996C6.25033 9.70829 6.26074 9.42704 6.28158 9.15621C6.30241 8.88538 6.33366 8.61107 6.37533 8.33329H3.54199C3.47255 8.61107 3.42046 8.88538 3.38574 9.15621C3.35102 9.42704 3.33366 9.70829 3.33366 9.99996C3.33366 10.2916 3.35102 10.5729 3.38574 10.8437C3.42046 11.1145 3.47255 11.3888 3.54199 11.6666ZM8.04199 11.6666H11.9587C12.0003 11.3888 12.0316 11.1145 12.0524 10.8437C12.0732 10.5729 12.0837 10.2916 12.0837 9.99996C12.0837 9.70829 12.0732 9.42704 12.0524 9.15621C12.0316 8.88538 12.0003 8.61107 11.9587 8.33329H8.04199C8.00033 8.61107 7.96908 8.88538 7.94824 9.15621C7.92741 9.42704 7.91699 9.70829 7.91699 9.99996C7.91699 10.2916 7.92741 10.5729 7.94824 10.8437C7.96908 11.1145 8.00033 11.3888 8.04199 11.6666ZM13.6253 11.6666H16.4587C16.5281 11.3888 16.5802 11.1145 16.6149 10.8437C16.6496 10.5729 16.667 10.2916 16.667 9.99996C16.667 9.70829 16.6496 9.42704 16.6149 9.15621C16.5802 8.88538 16.5281 8.61107 16.4587 8.33329H13.6253C13.667 8.61107 13.6982 8.88538 13.7191 9.15621C13.7399 9.42704 13.7503 9.70829 13.7503 9.99996C13.7503 10.2916 13.7399 10.5729 13.7191 10.8437C13.6982 11.1145 13.667 11.3888 13.6253 11.6666ZM13.292 6.66663H15.7503C15.3475 5.97218 14.8441 5.36801 14.2399 4.85413C13.6357 4.34024 12.9448 3.95829 12.167 3.70829C12.417 4.16663 12.6357 4.64232 12.8232 5.13538C13.0107 5.62843 13.167 6.13885 13.292 6.66663ZM8.41699 6.66663H11.5837C11.417 6.05551 11.2017 5.47913 10.9378 4.93746C10.6739 4.39579 10.3614 3.87496 10.0003 3.37496C9.63921 3.87496 9.32671 4.39579 9.06283 4.93746C8.79894 5.47913 8.58366 6.05551 8.41699 6.66663ZM4.25033 6.66663H6.70866C6.83366 6.13885 6.98991 5.62843 7.17741 5.13538C7.36491 4.64232 7.58366 4.16663 7.83366 3.70829C7.05588 3.95829 6.36491 4.34024 5.76074 4.85413C5.15658 5.36801 4.6531 5.97218 4.25033 6.66663Z" fill="#030615"/>
</svg>
