<svg width="20" height="20" viewBox="0 0 20 20" fill="none" xmlns="http://www.w3.org/2000/svg">
<path d="M17.5 1.66671L17.5 7.50004L15 7.50004L15 10.8334L10.8333 10.8334L10.8333 12.5L13.3333 12.5L13.3333 18.3334L6.66667 18.3334L6.66667 12.5L9.16667 12.5L9.16667 10.8334L5 10.8334L5 7.50004L2.5 7.50004L2.5 1.66671L9.16666 1.66671L9.16667 7.50004L6.66667 7.50004L6.66667 9.16671L13.3333 9.16671L13.3333 7.50004L10.8333 7.50004L10.8333 1.66671L17.5 1.66671ZM11.6667 14.1667L8.33333 14.1667L8.33333 16.6667L11.6667 16.6667L11.6667 14.1667ZM15.8333 3.33338L12.5 3.33338L12.5 5.83338L15.8333 5.83338L15.8333 3.33338ZM7.5 3.33338L4.16666 3.33338L4.16666 5.83338L7.5 5.83338L7.5 3.33338Z" fill="#030615"/>
</svg>
