<svg width="20" height="20" viewBox="0 0 20 20" fill="none" xmlns="http://www.w3.org/2000/svg">
<path d="M11.6663 7.50004V9.16671H9.16634V7.50004H7.08301V5.83337H9.16634V0.833374H3.33301V5.83337H5.41634V7.50004H3.33301V12.5H5.41634L8.74967 14.1667H7.49967V19.1667H13.333V14.1667H11.2497L7.91634 12.5H9.16634V10.8334H11.6663V12.5H17.4997V7.50004H11.6663ZM4.99967 2.50004H7.49967V4.16671H4.99967V2.50004ZM11.6663 17.5H9.16634V15.8334H11.6663V17.5ZM7.49967 10.8334H4.99967V9.16671H7.49967V10.8334ZM15.833 10.8334H13.333V9.16671H15.833V10.8334Z" fill="#030615"/>
<path d="M11.6667 14.1667L15 12.5H12.5L9.16667 14.1667H11.6667Z" fill="#030615"/>
</svg>
