<svg width="20" height="20" viewBox="0 0 20 20" fill="none" xmlns="http://www.w3.org/2000/svg">
<path d="M10 9.16667C9.08333 9.16667 8.29861 8.84028 7.64583 8.1875C6.99306 7.53472 6.66667 6.75 6.66667 5.83333C6.66667 4.91667 6.99306 4.13194 7.64583 3.47917C8.29861 2.82639 9.08333 2.5 10 2.5C10.9167 2.5 11.7014 2.82639 12.3542 3.47917C13.0069 4.13194 13.3333 4.91667 13.3333 5.83333C13.3333 6.75 13.0069 7.53472 12.3542 8.1875C11.7014 8.84028 10.9167 9.16667 10 9.16667ZM10 7.5C10.4583 7.5 10.8507 7.33681 11.1771 7.01042C11.5035 6.68403 11.6667 6.29167 11.6667 5.83333C11.6667 5.375 11.5035 4.98264 11.1771 4.65625C10.8507 4.32986 10.4583 4.16667 10 4.16667C9.54167 4.16667 9.14931 4.32986 8.82292 4.65625C8.49653 4.98264 8.33333 5.375 8.33333 5.83333C8.33333 6.29167 8.49653 6.68403 8.82292 7.01042C9.14931 7.33681 9.54167 7.5 10 7.5ZM5.83333 17.5C4.91667 17.5 4.13194 17.1736 3.47917 16.5208C2.82639 15.8681 2.5 15.0833 2.5 14.1667C2.5 13.25 2.82639 12.4653 3.47917 11.8125C4.13194 11.1597 4.91667 10.8333 5.83333 10.8333C6.75 10.8333 7.53472 11.1597 8.1875 11.8125C8.84028 12.4653 9.16667 13.25 9.16667 14.1667C9.16667 15.0833 8.84028 15.8681 8.1875 16.5208C7.53472 17.1736 6.75 17.5 5.83333 17.5ZM5.83333 15.8333C6.29167 15.8333 6.68403 15.6701 7.01042 15.3438C7.33681 15.0174 7.5 14.625 7.5 14.1667C7.5 13.7083 7.33681 13.316 7.01042 12.9896C6.68403 12.6632 6.29167 12.5 5.83333 12.5C5.375 12.5 4.98264 12.6632 4.65625 12.9896C4.32986 13.316 4.16667 13.7083 4.16667 14.1667C4.16667 14.625 4.32986 15.0174 4.65625 15.3438C4.98264 15.6701 5.375 15.8333 5.83333 15.8333ZM14.1667 17.5C13.25 17.5 12.4653 17.1736 11.8125 16.5208C11.1597 15.8681 10.8333 15.0833 10.8333 14.1667C10.8333 13.25 11.1597 12.4653 11.8125 11.8125C12.4653 11.1597 13.25 10.8333 14.1667 10.8333C15.0833 10.8333 15.8681 11.1597 16.5208 11.8125C17.1736 12.4653 17.5 13.25 17.5 14.1667C17.5 15.0833 17.1736 15.8681 16.5208 16.5208C15.8681 17.1736 15.0833 17.5 14.1667 17.5ZM14.1667 15.8333C14.625 15.8333 15.0174 15.6701 15.3438 15.3438C15.6701 15.0174 15.8333 14.625 15.8333 14.1667C15.8333 13.7083 15.6701 13.316 15.3438 12.9896C15.0174 12.6632 14.625 12.5 14.1667 12.5C13.7083 12.5 13.316 12.6632 12.9896 12.9896C12.6632 13.316 12.5 13.7083 12.5 14.1667C12.5 14.625 12.6632 15.0174 12.9896 15.3438C13.316 15.6701 13.7083 15.8333 14.1667 15.8333Z" fill="#030615"/>
</svg>
