<svg width="20" height="20" viewBox="0 0 20 20" fill="none" xmlns="http://www.w3.org/2000/svg">
<path d="M9.95866 15C10.2503 15 10.4969 14.8993 10.6982 14.6979C10.8996 14.4965 11.0003 14.25 11.0003 13.9583C11.0003 13.6666 10.8996 13.4201 10.6982 13.2187C10.4969 13.0173 10.2503 12.9166 9.95866 12.9166C9.66699 12.9166 9.42046 13.0173 9.21908 13.2187C9.01769 13.4201 8.91699 13.6666 8.91699 13.9583C8.91699 14.25 9.01769 14.4965 9.21908 14.6979C9.42046 14.8993 9.66699 15 9.95866 15ZM9.20866 11.7916H10.7503C10.7503 11.3333 10.8024 10.9722 10.9066 10.7083C11.0107 10.4444 11.3059 10.0833 11.792 9.62496C12.1531 9.26385 12.4378 8.9201 12.6462 8.59371C12.8545 8.26732 12.9587 7.87496 12.9587 7.41663C12.9587 6.63885 12.6739 6.04163 12.1045 5.62496C11.535 5.20829 10.8614 4.99996 10.0837 4.99996C9.29199 4.99996 8.64963 5.20829 8.15658 5.62496C7.66352 6.04163 7.31977 6.54163 7.12533 7.12496L8.50033 7.66663C8.56977 7.41663 8.72602 7.14579 8.96908 6.85413C9.21213 6.56246 9.58366 6.41663 10.0837 6.41663C10.5281 6.41663 10.8614 6.53815 11.0837 6.78121C11.3059 7.02426 11.417 7.29163 11.417 7.58329C11.417 7.86107 11.3337 8.12149 11.167 8.36454C11.0003 8.6076 10.792 8.83329 10.542 9.04163C9.93088 9.58329 9.55588 9.99301 9.41699 10.2708C9.2781 10.5486 9.20866 11.0555 9.20866 11.7916ZM10.0003 18.3333C8.84755 18.3333 7.76421 18.1145 6.75033 17.677C5.73644 17.2395 4.85449 16.6458 4.10449 15.8958C3.35449 15.1458 2.76074 14.2638 2.32324 13.25C1.88574 12.2361 1.66699 11.1527 1.66699 9.99996C1.66699 8.84718 1.88574 7.76385 2.32324 6.74996C2.76074 5.73607 3.35449 4.85413 4.10449 4.10413C4.85449 3.35413 5.73644 2.76038 6.75033 2.32288C7.76421 1.88538 8.84755 1.66663 10.0003 1.66663C11.1531 1.66663 12.2364 1.88538 13.2503 2.32288C14.2642 2.76038 15.1462 3.35413 15.8962 4.10413C16.6462 4.85413 17.2399 5.73607 17.6774 6.74996C18.1149 7.76385 18.3337 8.84718 18.3337 9.99996C18.3337 11.1527 18.1149 12.2361 17.6774 13.25C17.2399 14.2638 16.6462 15.1458 15.8962 15.8958C15.1462 16.6458 14.2642 17.2395 13.2503 17.677C12.2364 18.1145 11.1531 18.3333 10.0003 18.3333ZM10.0003 16.6666C11.8614 16.6666 13.4378 16.0208 14.7295 14.7291C16.0212 13.4375 16.667 11.8611 16.667 9.99996C16.667 8.13885 16.0212 6.56246 14.7295 5.27079C13.4378 3.97913 11.8614 3.33329 10.0003 3.33329C8.13921 3.33329 6.56283 3.97913 5.27116 5.27079C3.97949 6.56246 3.33366 8.13885 3.33366 9.99996C3.33366 11.8611 3.97949 13.4375 5.27116 14.7291C6.56283 16.0208 8.13921 16.6666 10.0003 16.6666Z" fill="#030615"/>
</svg>
