<svg width="18" height="18" viewBox="0 0 18 18" fill="none" xmlns="http://www.w3.org/2000/svg">
<path d="M8.95829 13.9998C9.24996 13.9998 9.49649 13.8991 9.69788 13.6978C9.89926 13.4964 9.99996 13.2498 9.99996 12.9582C9.99996 12.6665 9.89926 12.42 9.69788 12.2186C9.49649 12.0172 9.24996 11.9165 8.95829 11.9165C8.66663 11.9165 8.4201 12.0172 8.21871 12.2186C8.01732 12.42 7.91663 12.6665 7.91663 12.9582C7.91663 13.2498 8.01732 13.4964 8.21871 13.6978C8.4201 13.8991 8.66663 13.9998 8.95829 13.9998ZM8.20829 10.7915H9.74996C9.74996 10.3332 9.80204 9.97206 9.90621 9.70817C10.0104 9.44428 10.3055 9.08317 10.7916 8.62484C11.1527 8.26373 11.4375 7.91998 11.6458 7.59359C11.8541 7.2672 11.9583 6.87484 11.9583 6.4165C11.9583 5.63873 11.6736 5.0415 11.1041 4.62484C10.5347 4.20817 9.86107 3.99984 9.08329 3.99984C8.29163 3.99984 7.64926 4.20817 7.15621 4.62484C6.66315 5.0415 6.3194 5.5415 6.12496 6.12484L7.49996 6.6665C7.5694 6.4165 7.72565 6.14567 7.96871 5.854C8.21176 5.56234 8.58329 5.4165 9.08329 5.4165C9.52774 5.4165 9.86107 5.53803 10.0833 5.78109C10.3055 6.02414 10.4166 6.2915 10.4166 6.58317C10.4166 6.86095 10.3333 7.12136 10.1666 7.36442C9.99996 7.60748 9.79163 7.83317 9.54163 8.0415C8.93051 8.58317 8.55551 8.99289 8.41663 9.27067C8.27774 9.54845 8.20829 10.0554 8.20829 10.7915ZM8.99996 17.3332C7.84718 17.3332 6.76385 17.1144 5.74996 16.6769C4.73607 16.2394 3.85413 15.6457 3.10413 14.8957C2.35413 14.1457 1.76038 13.2637 1.32288 12.2498C0.885376 11.2359 0.666626 10.1526 0.666626 8.99984C0.666626 7.84706 0.885376 6.76373 1.32288 5.74984C1.76038 4.73595 2.35413 3.854 3.10413 3.104C3.85413 2.354 4.73607 1.76025 5.74996 1.32275C6.76385 0.885254 7.84718 0.666504 8.99996 0.666504C10.1527 0.666504 11.2361 0.885254 12.25 1.32275C13.2638 1.76025 14.1458 2.354 14.8958 3.104C15.6458 3.854 16.2395 4.73595 16.677 5.74984C17.1145 6.76373 17.3333 7.84706 17.3333 8.99984C17.3333 10.1526 17.1145 11.2359 16.677 12.2498C16.2395 13.2637 15.6458 14.1457 14.8958 14.8957C14.1458 15.6457 13.2638 16.2394 12.25 16.6769C11.2361 17.1144 10.1527 17.3332 8.99996 17.3332ZM8.99996 15.6665C10.8611 15.6665 12.4375 15.0207 13.7291 13.729C15.0208 12.4373 15.6666 10.8609 15.6666 8.99984C15.6666 7.13873 15.0208 5.56234 13.7291 4.27067C12.4375 2.979 10.8611 2.33317 8.99996 2.33317C7.13885 2.33317 5.56246 2.979 4.27079 4.27067C2.97913 5.56234 2.33329 7.13873 2.33329 8.99984C2.33329 10.8609 2.97913 12.4373 4.27079 13.729C5.56246 15.0207 7.13885 15.6665 8.99996 15.6665Z" fill="#E1E3E8"/>
</svg>
