<svg width="20" height="20" viewBox="0 0 20 20" fill="none" xmlns="http://www.w3.org/2000/svg">
<g clip-path="url(#clip0_3686_9522)">
<path d="M12.583 16.1417L13.4163 17.5917C12.6163 17.9584 11.7413 18.2 10.833 18.2917V16.6084C11.4497 16.5334 12.033 16.375 12.583 16.1417ZM3.39134 10.8334H1.70801C1.79967 11.75 2.04134 12.6167 2.40801 13.4167L3.85801 12.5834C3.62467 12.0334 3.46634 11.45 3.39134 10.8334ZM12.583 3.85837L13.4163 2.40837C12.6163 2.04171 11.7497 1.80004 10.833 1.70837V3.39171C11.4497 3.46671 12.033 3.62504 12.583 3.85837ZM16.608 9.16671H18.2913C18.1997 8.25004 17.958 7.38337 17.5913 6.58337L16.1413 7.41671C16.3747 7.96671 16.533 8.55004 16.608 9.16671ZM7.41634 16.1417L6.58301 17.5917C7.38301 17.9584 8.25801 18.2 9.16634 18.2917V16.6084C8.54967 16.5334 7.96634 16.375 7.41634 16.1417ZM9.16634 3.39171V1.70837C8.24967 1.80004 7.38301 2.04171 6.58301 2.40837L7.41634 3.85837C7.96634 3.62504 8.54967 3.46671 9.16634 3.39171ZM15.2997 5.97504L16.7497 5.13337C16.2247 4.40837 15.583 3.76671 14.858 3.24171L14.0163 4.69171C14.508 5.06671 14.933 5.49171 15.2997 5.97504ZM3.85801 7.41671L2.40801 6.58337C2.04134 7.38337 1.79967 8.25004 1.70801 9.16671H3.39134C3.46634 8.55004 3.62467 7.96671 3.85801 7.41671ZM16.608 10.8334C16.533 11.45 16.3747 12.0334 16.1413 12.5834L17.5913 13.4167C17.958 12.6167 18.1997 11.7417 18.2913 10.8334H16.608ZM14.0247 15.3L14.8663 16.75C15.5913 16.225 16.233 15.5834 16.758 14.8584L15.308 14.0167C14.933 14.5084 14.508 14.9334 14.0247 15.3ZM5.97467 4.70004L5.14134 3.24171C4.40801 3.77504 3.77467 4.40837 3.24967 5.14171L4.69967 5.98337C5.06634 5.49171 5.49134 5.06671 5.97467 4.70004ZM4.69967 14.025L3.24967 14.8584C3.77467 15.5834 4.41634 16.225 5.14134 16.75L5.98301 15.3C5.49134 14.9334 5.06634 14.5084 4.69967 14.025ZM10.833 5.83337H9.16634V10.3417L12.7413 13.9167L13.9163 12.7417L10.833 9.65837V5.83337Z" fill="#030615"/>
</g>
<defs>
<clipPath id="clip0_3686_9522">
<rect width="20" height="20" fill="white"/>
</clipPath>
</defs>
</svg>
