<svg width="13" height="16" viewBox="0 0 13 16" fill="none" xmlns="http://www.w3.org/2000/svg">
<path d="M3.2 14.4H9.6V12C9.6 11.12 9.28667 10.3667 8.66 9.74C8.03333 9.11333 7.28 8.8 6.4 8.8C5.52 8.8 4.76667 9.11333 4.14 9.74C3.51333 10.3667 3.2 11.12 3.2 12V14.4ZM6.4 7.2C7.28 7.2 8.03333 6.88667 8.66 6.26C9.28667 5.63333 9.6 4.88 9.6 4V1.6H3.2V4C3.2 4.88 3.51333 5.63333 4.14 6.26C4.76667 6.88667 5.52 7.2 6.4 7.2ZM0 16V14.4H1.6V12C1.6 11.1867 1.79 10.4233 2.17 9.71C2.55 8.99667 3.08 8.42667 3.76 8C3.08 7.57333 2.55 7.00333 2.17 6.29C1.79 5.57667 1.6 4.81333 1.6 4V1.6H0V0H12.8V1.6H11.2V4C11.2 4.81333 11.01 5.57667 10.63 6.29C10.25 7.00333 9.72 7.57333 9.04 8C9.72 8.42667 10.25 8.99667 10.63 9.71C11.01 10.4233 11.2 11.1867 11.2 12V14.4H12.8V16H0Z" fill="#67748A"/>
</svg>
