<svg width="18" height="18" viewBox="0 -4 18 14" fill="none" xmlns="http://www.w3.org/2000/svg">
<path d="M3.975 9.125C2.85 9.125 1.90625 8.71563 1.14375 7.89688C0.38125 7.07812 0 6.1 0 4.9625C0 3.8375 0.384375 2.875 1.15313 2.075C1.92188 1.275 2.8625 0.875 3.975 0.875C4.425 0.875 4.85938 0.95 5.27813 1.1C5.69688 1.25 6.06875 1.48125 6.39375 1.79375L8.1375 3.48125L7.35 4.26875L5.68125 2.6375C5.45625 2.4125 5.19688 2.25 4.90313 2.15C4.60938 2.05 4.3 2 3.975 2C3.175 2 2.5 2.29063 1.95 2.87188C1.4 3.45312 1.125 4.15 1.125 4.9625C1.125 5.7875 1.39688 6.5 1.94063 7.1C2.48438 7.7 3.1625 8 3.975 8C4.2875 8 4.59063 7.95 4.88438 7.85C5.17813 7.75 5.44375 7.59375 5.68125 7.38125L11.6063 1.79375C11.9313 1.48125 12.3031 1.25 12.7219 1.1C13.1406 0.95 13.5688 0.875 14.0063 0.875C15.1313 0.875 16.0781 1.275 16.8469 2.075C17.6156 2.875 18 3.8375 18 4.9625C18 6.1 17.6156 7.07812 16.8469 7.89688C16.0781 8.71563 15.1313 9.125 14.0063 9.125C13.5688 9.125 13.1375 9.05313 12.7125 8.90938C12.2875 8.76563 11.9188 8.5375 11.6063 8.225L9.9 6.5375L10.6875 5.75L12.3188 7.38125C12.5313 7.59375 12.7875 7.75 13.0875 7.85C13.3875 7.95 13.6938 8 14.0063 8C14.8188 8 15.5 7.7 16.05 7.1C16.6 6.5 16.875 5.7875 16.875 4.9625C16.875 4.15 16.5969 3.45312 16.0406 2.87188C15.4844 2.29063 14.8063 2 14.0063 2C13.6938 2 13.3906 2.05625 13.0969 2.16875C12.8031 2.28125 12.5438 2.44375 12.3188 2.65625L6.39375 8.24375C6.06875 8.54375 5.69375 8.76563 5.26875 8.90938C4.84375 9.05313 4.4125 9.125 3.975 9.125Z" fill="#231F1B"/>
</svg>
