<svg width="20" height="20" viewBox="0 0 20 20" fill="none" xmlns="http://www.w3.org/2000/svg">
<g clip-path="url(#clip0_3686_9527)">
<path d="M4.58333 14.5834C3.30556 14.5834 2.22222 14.1389 1.33333 13.25C0.444444 12.3611 0 11.2778 0 10C0 8.72224 0.444444 7.63891 1.33333 6.75002C2.22222 5.86113 3.30556 5.41669 4.58333 5.41669C5.09722 5.41669 5.59028 5.50696 6.0625 5.68752C6.53472 5.86808 6.95833 6.12502 7.33333 6.45835L8.75 7.75002L7.5 8.87502L6.20833 7.70835C5.98611 7.51391 5.73611 7.36113 5.45833 7.25002C5.18056 7.13891 4.88889 7.08335 4.58333 7.08335C3.77778 7.08335 3.09028 7.36808 2.52083 7.93752C1.95139 8.50696 1.66667 9.19446 1.66667 10C1.66667 10.8056 1.95139 11.4931 2.52083 12.0625C3.09028 12.632 3.77778 12.9167 4.58333 12.9167C4.88889 12.9167 5.18056 12.8611 5.45833 12.75C5.73611 12.6389 5.98611 12.4861 6.20833 12.2917L12.6667 6.45835C13.0417 6.12502 13.4653 5.86808 13.9375 5.68752C14.4097 5.50696 14.9028 5.41669 15.4167 5.41669C16.6944 5.41669 17.7778 5.86113 18.6667 6.75002C19.5556 7.63891 20 8.72224 20 10C20 11.2778 19.5556 12.3611 18.6667 13.25C17.7778 14.1389 16.6944 14.5834 15.4167 14.5834C14.9028 14.5834 14.4097 14.4931 13.9375 14.3125C13.4653 14.132 13.0417 13.875 12.6667 13.5417L11.25 12.25L12.5 11.125L13.7917 12.2917C14.0139 12.4861 14.2639 12.6389 14.5417 12.75C14.8194 12.8611 15.1111 12.9167 15.4167 12.9167C16.2222 12.9167 16.9097 12.632 17.4792 12.0625C18.0486 11.4931 18.3333 10.8056 18.3333 10C18.3333 9.19446 18.0486 8.50696 17.4792 7.93752C16.9097 7.36808 16.2222 7.08335 15.4167 7.08335C15.1111 7.08335 14.8194 7.13891 14.5417 7.25002C14.2639 7.36113 14.0139 7.51391 13.7917 7.70835L7.33333 13.5417C6.95833 13.875 6.53472 14.132 6.0625 14.3125C5.59028 14.4931 5.09722 14.5834 4.58333 14.5834Z" fill="#030615"/>
</g>
<defs>
<clipPath id="clip0_3686_9527">
<rect width="20" height="20" fill="white"/>
</clipPath>
</defs>
</svg>
