<svg width="20" height="20" viewBox="0 0 20 20" fill="none" xmlns="http://www.w3.org/2000/svg">
<path d="M9.16699 5.83329H10.8337V7.49996H9.16699V5.83329ZM9.16699 9.16663H10.8337V14.1666H9.16699V9.16663ZM10.0003 1.66663C5.40033 1.66663 1.66699 5.39996 1.66699 9.99996C1.66699 14.6 5.40033 18.3333 10.0003 18.3333C14.6003 18.3333 18.3337 14.6 18.3337 9.99996C18.3337 5.39996 14.6003 1.66663 10.0003 1.66663ZM10.0003 16.6666C6.32533 16.6666 3.33366 13.675 3.33366 9.99996C3.33366 6.32496 6.32533 3.33329 10.0003 3.33329C13.6753 3.33329 16.667 6.32496 16.667 9.99996C16.667 13.675 13.6753 16.6666 10.0003 16.6666Z" fill="#030615"/>
</svg>
