<svg width="20" height="20" viewBox="0 0 20 20" fill="none" xmlns="http://www.w3.org/2000/svg">
<path fill-rule="evenodd" clip-rule="evenodd" d="M3 5.75C3 4.23122 4.23122 3 5.75 3C7.26878 3 8.5 4.23122 8.5 5.75V7H11.5V5.75C11.5 4.23122 12.7312 3 14.25 3C15.7688 3 17 4.23122 17 5.75C17 7.26878 15.7688 8.5 14.25 8.5H13V11.5H14.25C15.7688 11.5 17 12.7312 17 14.25C17 15.7688 15.7688 17 14.25 17C12.7312 17 11.5 15.7688 11.5 14.25V13H8.5V14.25C8.5 15.7688 7.26878 17 5.75 17C4.23122 17 3 15.7688 3 14.25C3 12.7312 4.23122 11.5 5.75 11.5H7V8.5H5.75C4.23122 8.5 3 7.26878 3 5.75ZM13 7H14.25C14.9404 7 15.5 6.44036 15.5 5.75C15.5 5.05964 14.9404 4.5 14.25 4.5C13.5596 4.5 13 5.05964 13 5.75V7ZM11.5 8.5H8.5V11.5H11.5V8.5ZM13 14.25V13H14.25C14.9404 13 15.5 13.5596 15.5 14.25C15.5 14.9404 14.9404 15.5 14.25 15.5C13.5596 15.5 13 14.9404 13 14.25ZM7 13H5.75C5.05964 13 4.5 13.5596 4.5 14.25C4.5 14.9404 5.05964 15.5 5.75 15.5C6.44036 15.5 7 14.9404 7 14.25V13ZM7 5.75V7H5.75C5.05964 7 4.5 6.44036 4.5 5.75C4.5 5.05964 5.05964 4.5 5.75 4.5C6.44036 4.5 7 5.05964 7 5.75Z" fill="#030615"/>
</svg>
