<svg width="20" height="20" viewBox="0 0 20 20" fill="none" xmlns="http://www.w3.org/2000/svg">
<path d="M4.16667 17.5C3.70833 17.5 3.31597 17.3368 2.98958 17.0104C2.66319 16.684 2.5 16.2917 2.5 15.8333V4.16667C2.5 3.70833 2.66319 3.31597 2.98958 2.98958C3.31597 2.66319 3.70833 2.5 4.16667 2.5H11.6042L9.9375 4.16667H4.16667V15.8333H15.8333V10.0417L17.5 8.375V15.8333C17.5 16.2917 17.3368 16.684 17.0104 17.0104C16.684 17.3368 16.2917 17.5 15.8333 17.5H4.16667ZM7.5 12.5V8.95833L15.1458 1.3125C15.3125 1.14583 15.5 1.02083 15.7083 0.9375C15.9167 0.854167 16.125 0.8125 16.3333 0.8125C16.5556 0.8125 16.7674 0.854167 16.9687 0.9375C17.1701 1.02083 17.3542 1.14583 17.5208 1.3125L18.6875 2.5C18.8403 2.66667 18.9583 2.85069 19.0417 3.05208C19.125 3.25347 19.1667 3.45833 19.1667 3.66667C19.1667 3.875 19.1285 4.07986 19.0521 4.28125C18.9757 4.48264 18.8542 4.66667 18.6875 4.83333L11.0417 12.5H7.5ZM9.16667 10.8333H10.3333L15.1667 6L14.5833 5.41667L13.9792 4.83333L9.16667 9.64583V10.8333Z" fill="#030615"/>
</svg>
