<svg width="20" height="20" viewBox="0 0 20 20" fill="none" xmlns="http://www.w3.org/2000/svg">
<path d="M17.5 1.66665L17.5 7.49998L15 7.49998L15 10.8333L10.8333 10.8333L10.8333 12.5L13.3333 12.5L13.3333 18.3333L6.66667 18.3333L6.66667 12.5L9.16667 12.5L9.16667 10.8333L5 10.8333L5 7.49998L2.5 7.49998L2.5 1.66665L9.16666 1.66665L9.16667 7.49998L6.66667 7.49998L6.66667 9.16665L13.3333 9.16665L13.3333 7.49998L10.8333 7.49998L10.8333 1.66665L17.5 1.66665ZM11.6667 14.1666L8.33333 14.1666L8.33333 16.6666L11.6667 16.6666L11.6667 14.1666ZM15.8333 3.33331L12.5 3.33331L12.5 5.83331L15.8333 5.83331L15.8333 3.33331ZM7.5 3.33331L4.16666 3.33332L4.16666 5.83332L7.5 5.83331L7.5 3.33331Z" fill="#030615"/>
</svg>
