<svg width="20" height="20" viewBox="0 0 20 20" fill="none" xmlns="http://www.w3.org/2000/svg">
<path d="M16.2503 7.91669C15.392 7.91669 14.667 8.43335 14.342 9.16669H11.9087C11.5837 8.43335 10.8587 7.91669 10.0003 7.91669C9.14199 7.91669 8.41699 8.43335 8.09199 9.16669H5.65866C5.33366 8.43335 4.60866 7.91669 3.75033 7.91669C3.19779 7.91669 2.66789 8.13618 2.27719 8.52688C1.88649 8.91758 1.66699 9.44749 1.66699 10C1.66699 10.5526 1.88649 11.0825 2.27719 11.4732C2.66789 11.8639 3.19779 12.0834 3.75033 12.0834C4.60866 12.0834 5.33366 11.5667 5.65866 10.8334H8.09199C8.41699 11.5667 9.14199 12.0834 10.0003 12.0834C10.8587 12.0834 11.5837 11.5667 11.9087 10.8334H14.342C14.667 11.5667 15.392 12.0834 16.2503 12.0834C16.8029 12.0834 17.3328 11.8639 17.7235 11.4732C18.1142 11.0825 18.3337 10.5526 18.3337 10C18.3337 9.44749 18.1142 8.91758 17.7235 8.52688C17.3328 8.13618 16.8029 7.91669 16.2503 7.91669Z" fill="#030615"/>
</svg>
