<svg width="20" height="20" viewBox="0 0 20 20" fill="none" xmlns="http://www.w3.org/2000/svg">
<path d="M2.5 13.3334H6.66667V11.6667H2.5V13.3334ZM7.91667 13.3334H12.0833V11.6667H7.91667V13.3334ZM13.3333 13.3334H17.5V11.6667H13.3333V13.3334ZM2.5 16.6667H4.16667V15H2.5V16.6667ZM5.83333 16.6667H7.5V15H5.83333V16.6667ZM9.16667 16.6667H10.8333V15H9.16667V16.6667ZM12.5 16.6667H14.1667V15H12.5V16.6667ZM15.8333 16.6667H17.5V15H15.8333V16.6667ZM2.5 10H9.16667V8.33337H2.5V10ZM10.8333 10H17.5V8.33337H10.8333V10ZM2.5 3.33337V6.66671H17.5V3.33337H2.5Z" fill="#030615"/>
</svg>
