<svg width="20" height="20" viewBox="0 0 20 20" fill="none" xmlns="http://www.w3.org/2000/svg">
<path fill-rule="evenodd" clip-rule="evenodd" d="M10.47 3.46968C12.1437 1.79608 14.8571 1.79608 16.5307 3.46968C18.2043 5.14329 18.2043 7.85674 16.5307 9.53034L14.0307 12.0303L12.9701 10.9697L15.4701 8.46968C16.5579 7.38186 16.5579 5.61816 15.4701 4.53034C14.3823 3.44252 12.6186 3.44252 11.5307 4.53034L9.03071 7.03034L7.97005 5.96968L10.47 3.46968ZM13.5307 7.53034L7.53071 13.5303L6.47005 12.4697L12.4701 6.46968L13.5307 7.53034ZM3.47005 16.5303C5.14366 18.2039 7.8571 18.204 9.53071 16.5303L12.0307 14.0303L10.97 12.9697L8.47005 15.4697C7.38223 16.5575 5.61853 16.5575 4.53071 15.4697C3.44289 14.3819 3.44289 12.6182 4.53071 11.5303L7.03071 9.03034L5.97005 7.96968L3.47005 10.4697C1.79644 12.1433 1.79644 14.8567 3.47005 16.5303Z" fill="#030615"/>
</svg>
