<svg width="20" height="20" viewBox="0 0 20 20" fill="none" xmlns="http://www.w3.org/2000/svg">
<path d="M5.00016 16.6667C4.30572 16.6667 3.71544 16.4237 3.22933 15.9375C2.74322 15.4514 2.50016 14.8612 2.50016 14.1667H0.833496V5.00004C0.833496 4.54171 0.996691 4.14935 1.32308 3.82296C1.64947 3.49657 2.04183 3.33337 2.50016 3.33337H14.1668V6.66671H16.6668L19.1668 10V14.1667H17.5002C17.5002 14.8612 17.2571 15.4514 16.771 15.9375C16.2849 16.4237 15.6946 16.6667 15.0002 16.6667C14.3057 16.6667 13.7154 16.4237 13.2293 15.9375C12.7432 15.4514 12.5002 14.8612 12.5002 14.1667H7.50016C7.50016 14.8612 7.25711 15.4514 6.771 15.9375C6.28488 16.4237 5.69461 16.6667 5.00016 16.6667ZM5.00016 15C5.23627 15 5.43419 14.9202 5.59391 14.7605C5.75363 14.6007 5.8335 14.4028 5.8335 14.1667C5.8335 13.9306 5.75363 13.7327 5.59391 13.573C5.43419 13.4132 5.23627 13.3334 5.00016 13.3334C4.76405 13.3334 4.56614 13.4132 4.40641 13.573C4.24669 13.7327 4.16683 13.9306 4.16683 14.1667C4.16683 14.4028 4.24669 14.6007 4.40641 14.7605C4.56614 14.9202 4.76405 15 5.00016 15ZM2.50016 12.5H3.16683C3.40294 12.25 3.67377 12.0487 3.97933 11.8959C4.28489 11.7431 4.62516 11.6667 5.00016 11.6667C5.37516 11.6667 5.71544 11.7431 6.021 11.8959C6.32655 12.0487 6.59738 12.25 6.8335 12.5H12.5002V5.00004H2.50016V12.5ZM15.0002 15C15.2363 15 15.4342 14.9202 15.5939 14.7605C15.7536 14.6007 15.8335 14.4028 15.8335 14.1667C15.8335 13.9306 15.7536 13.7327 15.5939 13.573C15.4342 13.4132 15.2363 13.3334 15.0002 13.3334C14.7641 13.3334 14.5661 13.4132 14.4064 13.573C14.2467 13.7327 14.1668 13.9306 14.1668 14.1667C14.1668 14.4028 14.2467 14.6007 14.4064 14.7605C14.5661 14.9202 14.7641 15 15.0002 15ZM14.1668 10.8334H17.7085L15.8335 8.33337H14.1668V10.8334Z" fill="#030615"/>
</svg>
