<svg width="20" height="20" viewBox="0 0 20 20" fill="none" xmlns="http://www.w3.org/2000/svg">
<path d="M3.33366 16.6667C2.87533 16.6667 2.48296 16.5035 2.15658 16.1771C1.83019 15.8507 1.66699 15.4584 1.66699 15V5.00004C1.66699 4.54171 1.83019 4.14935 2.15658 3.82296C2.48296 3.49657 2.87533 3.33337 3.33366 3.33337H16.667C17.1253 3.33337 17.5177 3.49657 17.8441 3.82296C18.1705 4.14935 18.3337 4.54171 18.3337 5.00004V15C18.3337 15.4584 18.1705 15.8507 17.8441 16.1771C17.5177 16.5035 17.1253 16.6667 16.667 16.6667H3.33366ZM3.33366 15H16.667V6.66671H3.33366V15ZM6.25033 14.1667L5.08366 13L7.22949 10.8334L5.06283 8.66671L6.25033 7.50004L9.58366 10.8334L6.25033 14.1667ZM10.0003 14.1667V12.5H15.0003V14.1667H10.0003Z" fill="#030615"/>
</svg>
