<svg width="20" height="20" viewBox="0 0 20 20" fill="none" xmlns="http://www.w3.org/2000/svg">
<path d="M0.833008 17.5L9.99967 1.66663L19.1663 17.5H0.833008ZM3.70801 15.8333H16.2913L9.99967 4.99996L3.70801 15.8333ZM9.99967 15C10.2358 15 10.4337 14.9201 10.5934 14.7604C10.7531 14.6007 10.833 14.4027 10.833 14.1666C10.833 13.9305 10.7531 13.7326 10.5934 13.5729C10.4337 13.4132 10.2358 13.3333 9.99967 13.3333C9.76356 13.3333 9.56565 13.4132 9.40592 13.5729C9.2462 13.7326 9.16634 13.9305 9.16634 14.1666C9.16634 14.4027 9.2462 14.6007 9.40592 14.7604C9.56565 14.9201 9.76356 15 9.99967 15ZM9.16634 12.5H10.833V8.33329H9.16634V12.5Z" fill="#030615"/>
</svg>
