<svg width="20" height="20" viewBox="0 0 20 20" fill="none" xmlns="http://www.w3.org/2000/svg">
<path fill-rule="evenodd" clip-rule="evenodd" d="M11 4H11.75H16.25H17V5.5H16.25H11.75H11V4ZM11 14.5H11.75H16.25H17V16H16.25H11.75H11V14.5ZM11.75 9.25H11V10.75H11.75H16.25H17V9.25H16.25H11.75ZM3 14.5H3.75H4.25H5V16H4.25H3.75H3V14.5ZM3.75 4H3V5.5H3.75H4.25H5V4H4.25H3.75ZM3 9.25H3.75H4.25H5V10.75H4.25H3.75H3V9.25ZM7.75 14.5H7V16H7.75H8.25H9V14.5H8.25H7.75ZM7 4H7.75H8.25H9V5.5H8.25H7.75H7V4ZM7.75 9.25H7V10.75H7.75H8.25H9V9.25H8.25H7.75Z" fill="#030615"/>
</svg>
