<svg width="14" height="10" viewBox="0 0 14 10" fill="none" xmlns="http://www.w3.org/2000/svg">
<path id="Vector" d="M0.5 9.22539V7.92539H7V9.22539H0.5ZM0.5 5.97539V4.67539H3.75V5.97539H0.5ZM0.5 2.72539V1.42539H3.75V2.72539H0.5ZM12.59 9.22539L10.0875 6.72289C9.8275 6.90706 9.54312 7.04518 9.23438 7.13727C8.92562 7.22935 8.61417 7.27539 8.3 7.27539C7.40083 7.27539 6.63437 6.95852 6.00062 6.32477C5.36687 5.69102 5.05 4.92456 5.05 4.02539C5.05 3.12622 5.36687 2.35977 6.00062 1.72602C6.63437 1.09227 7.40083 0.775391 8.3 0.775391C9.19917 0.775391 9.96562 1.09227 10.5994 1.72602C11.2331 2.35977 11.55 3.12622 11.55 4.02539C11.55 4.33956 11.504 4.65102 11.4119 4.95977C11.3198 5.26852 11.1817 5.55289 10.9975 5.81289L13.5 8.31539L12.59 9.22539ZM8.3 5.97539C8.84167 5.97539 9.30208 5.78581 9.68125 5.40664C10.0604 5.02747 10.25 4.56706 10.25 4.02539C10.25 3.48372 10.0604 3.02331 9.68125 2.64414C9.30208 2.26497 8.84167 2.07539 8.3 2.07539C7.75833 2.07539 7.29792 2.26497 6.91875 2.64414C6.53958 3.02331 6.35 3.48372 6.35 4.02539C6.35 4.56706 6.53958 5.02747 6.91875 5.40664C7.29792 5.78581 7.75833 5.97539 8.3 5.97539Z" fill="#3F485B"/>
</svg>
