<svg width="20" height="20" viewBox="0 0 20 20" fill="none" xmlns="http://www.w3.org/2000/svg">
<path d="M7.5 12.5V7.5H12.5V12.5H7.5ZM9.16667 10.8333H10.8333V9.16667H9.16667V10.8333ZM7.5 17.5V15.8333H5.83333C5.375 15.8333 4.98264 15.6701 4.65625 15.3438C4.32986 15.0174 4.16667 14.625 4.16667 14.1667V12.5H2.5V10.8333H4.16667V9.16667H2.5V7.5H4.16667V5.83333C4.16667 5.375 4.32986 4.98264 4.65625 4.65625C4.98264 4.32986 5.375 4.16667 5.83333 4.16667H7.5V2.5H9.16667V4.16667H10.8333V2.5H12.5V4.16667H14.1667C14.625 4.16667 15.0174 4.32986 15.3438 4.65625C15.6701 4.98264 15.8333 5.375 15.8333 5.83333V7.5H17.5V9.16667H15.8333V10.8333H17.5V12.5H15.8333V14.1667C15.8333 14.625 15.6701 15.0174 15.3438 15.3438C15.0174 15.6701 14.625 15.8333 14.1667 15.8333H12.5V17.5H10.8333V15.8333H9.16667V17.5H7.5ZM14.1667 14.1667V5.83333H5.83333V14.1667H14.1667Z" fill="#030615"/>
</svg>
