<svg width="20" height="20" viewBox="0 0 20 20" fill="none" xmlns="http://www.w3.org/2000/svg">
<path d="M16.4788 18.8542L14.583 16.9584C13.9025 17.4028 13.1768 17.7431 12.4059 17.9792C11.6351 18.2153 10.833 18.3334 9.99967 18.3334C8.8469 18.3334 7.76356 18.1146 6.74967 17.6771C5.73579 17.2396 4.85384 16.6459 4.10384 15.8959C3.35384 15.1459 2.76009 14.2639 2.32259 13.25C1.88509 12.2361 1.66634 11.1528 1.66634 10C1.66634 9.16669 1.7844 8.3646 2.02051 7.59377C2.25662 6.82294 2.5969 6.09724 3.04134 5.41669L1.14551 3.52085L2.33301 2.33335L17.6663 17.6667L16.4788 18.8542ZM9.99967 16.6667C10.5969 16.6667 11.1768 16.5903 11.7393 16.4375C12.3018 16.2847 12.8469 16.0556 13.3747 15.75L4.24967 6.62502C3.94412 7.1528 3.71495 7.69794 3.56217 8.26044C3.4094 8.82294 3.33301 9.4028 3.33301 10C3.33301 11.8472 3.98231 13.4202 5.28092 14.7188C6.57954 16.0174 8.15245 16.6667 9.99967 16.6667ZM16.958 14.5834L15.7497 13.375C16.0552 12.8472 16.2844 12.3021 16.4372 11.7396C16.59 11.1771 16.6663 10.5972 16.6663 10C16.6663 8.1528 16.017 6.57988 14.7184 5.28127C13.4198 3.98266 11.8469 3.33335 9.99967 3.33335C9.40245 3.33335 8.82259 3.40974 8.26009 3.56252C7.69759 3.7153 7.15245 3.94446 6.62467 4.25002L5.41634 3.04169C6.0969 2.59724 6.82259 2.25696 7.59342 2.02085C8.36426 1.78474 9.16634 1.66669 9.99967 1.66669C11.1525 1.66669 12.2358 1.88544 13.2497 2.32294C14.2636 2.76044 15.1455 3.35419 15.8955 4.10419C16.6455 4.85419 17.2393 5.73613 17.6768 6.75002C18.1143 7.76391 18.333 8.84724 18.333 10C18.333 10.8334 18.215 11.6354 17.9788 12.4063C17.7427 13.1771 17.4025 13.9028 16.958 14.5834Z" fill="#030615"/>
</svg>
