<svg width="20" height="20" viewBox="0 0 20 20" fill="none" xmlns="http://www.w3.org/2000/svg">
<path d="M4.99967 8.33331C4.08301 8.33331 3.33301 9.08331 3.33301 9.99998C3.33301 10.9166 4.08301 11.6666 4.99967 11.6666C5.91634 11.6666 6.66634 10.9166 6.66634 9.99998C6.66634 9.08331 5.91634 8.33331 4.99967 8.33331ZM14.9997 8.33331C14.083 8.33331 13.333 9.08331 13.333 9.99998C13.333 10.9166 14.083 11.6666 14.9997 11.6666C15.9163 11.6666 16.6663 10.9166 16.6663 9.99998C16.6663 9.08331 15.9163 8.33331 14.9997 8.33331ZM9.99967 8.33331C9.08301 8.33331 8.33301 9.08331 8.33301 9.99998C8.33301 10.9166 9.08301 11.6666 9.99967 11.6666C10.9163 11.6666 11.6663 10.9166 11.6663 9.99998C11.6663 9.08331 10.9163 8.33331 9.99967 8.33331Z" fill="#030615"/>
</svg>
