<svg width="20" height="20" viewBox="0 0 20 20" fill="none" xmlns="http://www.w3.org/2000/svg">
<path d="M11.667 4.99998C11.667 4.08331 10.917 3.33331 10.0003 3.33331C9.08366 3.33331 8.33366 4.08331 8.33366 4.99998C8.33366 5.91665 9.08366 6.66665 10.0003 6.66665C10.917 6.66665 11.667 5.91665 11.667 4.99998ZM11.667 15C11.667 14.0833 10.917 13.3333 10.0003 13.3333C9.08366 13.3333 8.33366 14.0833 8.33366 15C8.33366 15.9166 9.08366 16.6666 10.0003 16.6666C10.917 16.6666 11.667 15.9166 11.667 15ZM11.667 9.99998C11.667 9.08331 10.917 8.33331 10.0003 8.33331C9.08366 8.33331 8.33366 9.08331 8.33366 9.99998C8.33366 10.9166 9.08366 11.6666 10.0003 11.6666C10.917 11.6666 11.667 10.9166 11.667 9.99998Z" fill="#030615"/>
</svg>
