<?xml version="1.0" encoding="utf-8"?>
<svg viewBox="0 0 500 500" xmlns="http://www.w3.org/2000/svg">
  <linearGradient id="a" gradientUnits="userSpaceOnUse" x1="198.099" y1="1683.0726" x2="942.2344" y2="394.2607" gradientTransform="matrix(0.22397, 0, 0, -0.22397, 0.472301, 482.619358)">
    <stop offset="0" stop-color="#5a62c3"/>
    <stop offset="0.5" stop-color="#4d55bd"/>
    <stop offset="1" stop-color="#3940ab"/>
  </linearGradient>
  <path fill="#5059C9" d="M 349.969 194.66 L 477.706 194.66 C 489.773 194.66 499.556 204.443 499.556 216.511 C 499.556 216.511 499.556 216.511 499.556 216.511 L 499.556 332.861 C 499.556 377.214 463.601 413.169 419.248 413.169 L 418.869 413.169 C 374.516 413.175 338.556 377.225 338.549 332.872 C 338.549 332.868 338.549 332.865 338.549 332.861 L 338.549 206.08 C 338.55 199.773 343.662 194.66 349.969 194.66 Z" style=""/>
  <circle fill="#5059C9" cx="435.815" cy="116.484" r="52.241" style=""/>
  <circle fill="#7B83EB" cx="273.286" cy="93.267" r="75.459" style=""/>
  <path fill="#7B83EB" d="M 395.262 216.9 L 395.262 350.858 C 396.943 423.093 339.794 483.036 267.561 484.804 C 195.329 483.036 138.18 423.093 139.861 350.858 L 139.861 321.819 L 141.748 321.819 L 141.748 207.492 C 141.981 206.97 142.234 206.459 142.507 205.96 L 184.295 205.96 L 184.295 194.576 L 373.982 194.576 C 386.018 194.874 395.541 204.862 395.262 216.9 Z" style=""/>
  <path opacity=".1" d="M 279.025 195.068 L 279.025 382.787 C 278.967 391.395 273.75 399.13 265.79 402.406 C 263.255 403.479 260.532 404.032 257.78 404.032 L 149.931 404.032 C 148.421 400.201 147.028 396.37 145.868 392.423 C 141.805 379.102 139.73 365.254 139.715 351.326 L 139.715 322.262 L 141.522 322.262 L 141.522 208.135 C 141.781 207.544 142.065 206.965 142.373 206.403 L 184.07 206.403 L 184.07 195.068 L 279.025 195.068 Z" style=""/>
  <path opacity=".2" d="M 267.359 194.706 L 267.359 394.034 C 267.359 396.786 266.806 399.51 265.734 402.044 C 262.456 410.005 254.723 415.222 246.115 415.279 L 155.332 415.279 C 153.358 411.448 151.5 407.616 149.875 403.67 C 148.249 399.723 146.972 396.008 145.812 392.061 C 141.749 378.74 139.674 364.892 139.659 350.964 L 139.659 321.841 L 141.368 321.841 L 141.368 208.002 C 141.662 207.309 141.989 206.635 142.349 205.982 L 183.916 205.982 L 183.916 194.706 L 267.359 194.706 Z" style=""/>
  <path opacity=".2" d="M 267.482 194.611 L 267.482 370.721 C 267.394 382.418 257.934 391.877 246.238 391.966 L 145.935 391.966 C 141.872 378.645 139.797 364.797 139.782 350.869 L 139.782 321.691 L 141.757 321.691 L 141.757 207.304 C 141.988 206.803 142.237 206.312 142.503 205.832 L 184.306 205.832 L 184.306 194.611 L 267.482 194.611 Z" style=""/>
  <path opacity=".2" d="M 255.873 191.944 L 255.873 368.054 C 255.784 379.751 246.325 389.21 234.629 389.299 L 145.935 389.299 C 141.872 375.978 139.797 362.13 139.782 348.202 L 139.782 319.164 L 141.632 319.164 L 141.632 204.914 C 141.876 204.365 142.14 203.828 142.427 203.303 L 184.18 203.303 L 184.18 191.944 L 255.873 191.944 Z" style=""/>
  <path opacity=".1" d="M 279.092 131.925 L 279.092 168.493 C 277.118 168.61 275.261 168.726 273.286 168.726 C 271.313 168.726 269.455 168.61 267.482 168.493 C 263.564 168.233 259.677 167.611 255.873 166.636 C 232.364 161.068 212.943 144.582 203.632 122.288 C 202.029 118.545 200.786 114.658 199.917 110.681 L 257.847 110.681 C 269.561 110.724 279.047 120.21 279.092 131.925 Z" style=""/>
  <path opacity=".2" d="M 267.482 143.533 L 267.482 168.493 C 263.564 168.233 259.677 167.611 255.873 166.636 C 232.364 161.068 212.943 144.582 203.632 122.288 L 246.238 122.288 C 257.953 122.334 267.438 131.819 267.482 143.533 Z" style=""/>
  <path opacity=".2" d="M 267.482 143.533 L 267.482 168.493 C 263.564 168.233 259.677 167.611 255.873 166.636 C 232.364 161.068 212.943 144.582 203.632 122.288 L 246.238 122.288 C 257.953 122.334 267.438 131.819 267.482 143.533 Z" style=""/>
  <path opacity=".2" d="M 255.873 143.533 L 255.873 166.636 C 232.364 161.068 212.943 144.582 203.632 122.288 L 234.629 122.288 C 246.343 122.334 255.829 131.819 255.873 143.533 Z" style=""/>
  <path fill="url(#a)" d="M 21.753 122.288 L 234.593 122.288 C 246.345 122.288 255.872 131.815 255.872 143.568 L 255.872 356.41 C 255.872 368.162 246.345 377.689 234.593 377.689 L 21.753 377.689 C 10 377.689 0.472 368.162 0.472 356.41 L 0.472 143.568 C 0.472 131.815 10 122.288 21.753 122.288 Z M 184.175 180.822 L 72.17 180.822 L 72.17 203.297 L 114.521 203.297 L 114.521 319.157 L 141.628 319.157 L 141.628 203.297 L 184.175 203.297 L 184.175 180.822 Z" style=""/>
</svg>