<svg width="16" height="15" viewBox="0 0 16 15" fill="none" xmlns="http://www.w3.org/2000/svg">
<path fill-rule="evenodd" clip-rule="evenodd" d="M2.26498e-06 10.376C2.26498e-06 10.7684 0.318097 11.0865 0.710479 11.0865H2.87152V9.91708H1.16933V7.53407H2.87152V6.64598H1.16933V4.26289H2.87152V3.99823C2.87152 3.78054 2.9063 3.57098 2.9706 3.3748H1.16933V1.18416H9.90231V1.99823H11.0864V0.710507C11.0864 0.318125 10.7683 3.03984e-05 10.3759 3.03984e-05H0.710479C0.318097 3.03984e-05 2.26498e-06 0.318125 2.26498e-06 0.710507V10.376Z" fill="#67748A"/>
<path d="M13.7687 2.53125C14.1553 2.53125 14.4687 2.84465 14.4687 3.23125L14.4694 9.01858C14.1489 8.66994 13.7507 8.39377 13.3024 8.21745L13.3021 6.73125H11.0124L11.0124 8.21169C10.6918 8.33588 10.3967 8.51101 10.1368 8.72714L10.1374 6.73125H7.86245V9.07919L9.77609 9.07942C9.55088 9.3374 9.36704 9.63244 9.23492 9.95418L7.86245 9.95419V12.3021L9.21745 12.3024C9.39117 12.7441 9.66181 13.1371 10.0032 13.4552L4.24578 13.4542C3.85918 13.4542 3.54578 13.1408 3.54578 12.7542V3.23125C3.54578 2.84465 3.85918 2.53125 4.24578 2.53125H13.7687ZM6.98745 9.95419H4.69786V12.3021H6.98745V9.95419ZM6.98745 6.73125H4.69786V9.07919H6.98745V6.73125ZM13.3021 3.69792H4.69786V5.85625H13.3021V3.69792Z" fill="#67748A"/>
<path d="M11.5968 12.4032L12.5 14.3L13.4032 12.4032L15.3 11.5L13.4032 10.5967L12.5 8.69995L11.5968 10.5967L9.70001 11.5L11.5968 12.4032Z" fill="#67748A"/>
</svg>
