<svg width="18" height="16" viewBox="0 0 18 16" fill="none" xmlns="http://www.w3.org/2000/svg">
<path d="M2.27939 12.6406C1.887 12.6406 1.56891 12.3225 1.56891 11.9301V2.26468C1.56891 1.87229 1.887 1.5542 2.27939 1.5542H11.9448C12.3372 1.5542 12.6553 1.87229 12.6553 2.26468V11.9301C12.6553 12.3225 12.3372 12.6406 11.9448 12.6406H2.27939ZM2.73824 4.92897H11.4712V2.73833H2.73824V4.92897ZM5.95019 8.20014H8.25922V5.81706H5.95019V8.20014ZM5.95019 11.4713H8.25922V9.08824H5.95019V11.4713ZM2.73824 8.20014H5.06209V5.81706H2.73824V8.20014ZM9.14732 8.20014H11.4712V5.81706H9.14732V8.20014ZM2.73824 11.4713H5.06209V9.08824H2.73824V11.4713ZM9.14732 11.4713H11.4712V9.08824H9.14732V11.4713Z" fill="#67748A"/>
<rect x="4.44049" y="3.55237" width="13.3214" height="12.4333" rx="2" fill="#ECEEF1"/>
<path d="M15.5573 5.12798V5.12805L15.5578 9.78197C15.5098 9.75457 15.461 9.72824 15.4116 9.70302L15.4114 8.56566L15.4113 8.20632H15.4114V7.70632V5.58636V5.08636H14.9114H6.46016H5.96016V5.58636V7.70632V8.06576V8.20632V8.56576V10.872V11.2314V11.372V11.7314V14.0375V14.5375H6.46016H8.70903H9.20903V14.5374L9.56836 14.5375L10.5769 14.5378C10.5996 14.5824 10.6233 14.6264 10.6479 14.67L6.01619 14.6692H6.01611C5.91252 14.6692 5.82855 14.5852 5.82855 14.4816V5.12798C5.82855 5.0244 5.91253 4.94043 6.01611 4.94043H15.3697C15.4733 4.94043 15.5573 5.0244 15.5573 5.12798Z" fill="#030615" stroke="#67748A"/>
<path d="M13.6879 13.9219L13.6116 13.7617L13.4514 13.6855L12.5363 13.2497L13.4514 12.814L13.6116 12.7377L13.6879 12.5775L14.1236 11.6625L14.5593 12.5775L14.6356 12.7377L14.7958 12.814L15.7108 13.2497L14.7958 13.6855L14.6356 13.7617L14.5593 13.9219L14.1236 14.837L13.6879 13.9219Z" fill="#67748A" stroke="#67748A"/>
</svg>
