<svg width="20" height="20" viewBox="0 0 20 20" fill="none" xmlns="http://www.w3.org/2000/svg">
<path d="M15.8333 5.83333H7.5C6.58333 5.83333 5.83333 6.58333 5.83333 7.5V15.8333C5.83333 16.75 6.58333 17.5 7.5 17.5H15.8333C16.75 17.5 17.5 16.75 17.5 15.8333V7.5C17.5 6.58333 16.75 5.83333 15.8333 5.83333ZM15.8333 7.5V9.16667H7.5V7.5H15.8333ZM10.8333 12.5V10.8333H12.5V12.5H10.8333ZM12.5 14.1667V15.8333H10.8333V14.1667H12.5ZM9.16667 12.5H7.5V10.8333H9.16667V12.5ZM14.1667 10.8333H15.8333V12.5H14.1667V10.8333ZM7.5 14.1667H9.16667V15.8333H7.5V14.1667ZM14.1667 15.8333V14.1667H15.8333V15.8333H14.1667ZM5 14.1667H4.16667C3.25 14.1667 2.5 13.4167 2.5 12.5V4.16667C2.5 3.25 3.25 2.5 4.16667 2.5H12.5C13.4167 2.5 14.1667 3.25 14.1667 4.16667V5H12.5V4.16667H4.16667V12.5H5V14.1667Z" fill="#030615"/>
</svg>
