<svg width="20" height="20" viewBox="0 0 20 20" fill="none" xmlns="http://www.w3.org/2000/svg">
<g clip-path="url(#clip0_3686_9570)">
<path d="M9.99967 14.1667C10.2358 14.1667 10.4337 14.0868 10.5934 13.9271C10.7531 13.7674 10.833 13.5695 10.833 13.3334C10.833 13.0973 10.7531 12.8993 10.5934 12.7396C10.4337 12.5799 10.2358 12.5 9.99967 12.5C9.76356 12.5 9.56565 12.5799 9.40592 12.7396C9.2462 12.8993 9.16634 13.0973 9.16634 13.3334C9.16634 13.5695 9.2462 13.7674 9.40592 13.9271C9.56565 14.0868 9.76356 14.1667 9.99967 14.1667ZM9.16634 10.8334H10.833V5.83337H9.16634V10.8334ZM9.99967 19.4167L7.20801 16.6667H3.33301V12.7917L0.583008 10L3.33301 7.20837V3.33337H7.20801L9.99967 0.583374L12.7913 3.33337H16.6663V7.20837L19.4163 10L16.6663 12.7917V16.6667H12.7913L9.99967 19.4167ZM9.99967 17.0834L12.083 15H14.9997V12.0834L17.083 10L14.9997 7.91671V5.00004H12.083L9.99967 2.91671L7.91634 5.00004H4.99967V7.91671L2.91634 10L4.99967 12.0834V15H7.91634L9.99967 17.0834Z" fill="#030615"/>
</g>
<defs>
<clipPath id="clip0_3686_9570">
<rect width="20" height="20" fill="white"/>
</clipPath>
</defs>
</svg>
