<svg width="16" height="16" viewBox="0 0 16 16" fill="none" xmlns="http://www.w3.org/2000/svg">
<g id="Frame">
<path id="Vector (Stroke)" fill-rule="evenodd" clip-rule="evenodd" d="M4.00004 1.33337C4.36823 1.33337 4.66671 1.63185 4.66671 2.00004V10C4.66671 10.3682 4.36823 10.6667 4.00004 10.6667C3.63185 10.6667 3.33337 10.3682 3.33337 10V2.00004C3.33337 1.63185 3.63185 1.33337 4.00004 1.33337Z" fill="#4BB4D2"/>
<path id="Vector (Stroke)_2" fill-rule="evenodd" clip-rule="evenodd" d="M10.1144 2.11442C10.6145 1.61433 11.2928 1.33337 12 1.33337C12.7073 1.33337 13.3856 1.61433 13.8857 2.11442C14.3858 2.61452 14.6667 3.2928 14.6667 4.00004C14.6667 4.70728 14.3858 5.38556 13.8857 5.88566C13.3856 6.38576 12.7073 6.66671 12 6.66671C11.2928 6.66671 10.6145 6.38576 10.1144 5.88566C9.61433 5.38556 9.33337 4.70728 9.33337 4.00004C9.33337 3.2928 9.61433 2.61452 10.1144 2.11442ZM12 2.66671C11.6464 2.66671 11.3073 2.80718 11.0572 3.05723C10.8072 3.30728 10.6667 3.64642 10.6667 4.00004C10.6667 4.35366 10.8072 4.6928 11.0572 4.94285C11.3073 5.1929 11.6464 5.33337 12 5.33337C12.3537 5.33337 12.6928 5.1929 12.9428 4.94285C13.1929 4.6928 13.3334 4.35366 13.3334 4.00004C13.3334 3.64642 13.1929 3.30728 12.9428 3.05723C12.6928 2.80718 12.3537 2.66671 12 2.66671Z" fill="#4BB4D2"/>
<path id="Vector (Stroke)_3" fill-rule="evenodd" clip-rule="evenodd" d="M2.11442 10.1144C2.61452 9.61433 3.2928 9.33337 4.00004 9.33337C4.70728 9.33337 5.38556 9.61433 5.88566 10.1144C6.38576 10.6145 6.66671 11.2928 6.66671 12C6.66671 12.7073 6.38576 13.3856 5.88566 13.8857C5.38556 14.3858 4.70728 14.6667 4.00004 14.6667C3.2928 14.6667 2.61452 14.3858 2.11442 13.8857C1.61433 13.3856 1.33337 12.7073 1.33337 12C1.33337 11.2928 1.61433 10.6145 2.11442 10.1144ZM4.00004 10.6667C3.64642 10.6667 3.30728 10.8072 3.05723 11.0572C2.80718 11.3073 2.66671 11.6464 2.66671 12C2.66671 12.3537 2.80718 12.6928 3.05723 12.9428C3.30728 13.1929 3.64642 13.3334 4.00004 13.3334C4.35366 13.3334 4.6928 13.1929 4.94285 12.9428C5.1929 12.6928 5.33337 12.3537 5.33337 12C5.33337 11.6464 5.1929 11.3073 4.94285 11.0572C4.6928 10.8072 4.35366 10.6667 4.00004 10.6667Z" fill="#4BB4D2"/>
<path id="Vector (Stroke)_4" fill-rule="evenodd" clip-rule="evenodd" d="M5.286 5.286C6.53624 4.03575 8.23193 3.33337 10 3.33337C10.3682 3.33337 10.6667 3.63185 10.6667 4.00004C10.6667 4.36823 10.3682 4.66671 10 4.66671C8.58555 4.66671 7.229 5.22861 6.2288 6.2288C5.22861 7.229 4.66671 8.58555 4.66671 10C4.66671 10.3682 4.36823 10.6667 4.00004 10.6667C3.63185 10.6667 3.33337 10.3682 3.33337 10C3.33337 8.23193 4.03575 6.53624 5.286 5.286Z" fill="#4BB4D2"/>
<path id="Vector (Stroke)_5" fill-rule="evenodd" clip-rule="evenodd" d="M12 9.33337C12.3682 9.33337 12.6667 9.63185 12.6667 10V14C12.6667 14.3682 12.3682 14.6667 12 14.6667C11.6319 14.6667 11.3334 14.3682 11.3334 14V10C11.3334 9.63185 11.6319 9.33337 12 9.33337Z" fill="#4BB4D2"/>
<path id="Vector (Stroke)_6" fill-rule="evenodd" clip-rule="evenodd" d="M9.33337 12C9.33337 11.6319 9.63185 11.3334 10 11.3334H14C14.3682 11.3334 14.6667 11.6319 14.6667 12C14.6667 12.3682 14.3682 12.6667 14 12.6667H10C9.63185 12.6667 9.33337 12.3682 9.33337 12Z" fill="#4BB4D2"/>
</g>
</svg>
