<svg width="20" height="20" viewBox="0 0 20 20" fill="none" xmlns="http://www.w3.org/2000/svg">
<g clip-path="url(#clip0_3686_9572)">
<path d="M11.6663 3.33329C11.9497 3.33329 12.233 3.34996 12.508 3.39163C10.9163 5.19163 9.99967 7.54163 9.99967 9.99996C9.99967 12.4583 10.9163 14.8083 12.508 16.6083C12.233 16.65 11.9497 16.6666 11.6663 16.6666C7.99134 16.6666 4.99967 13.675 4.99967 9.99996C4.99967 6.32496 7.99134 3.33329 11.6663 3.33329ZM11.6663 1.66663C7.06634 1.66663 3.33301 5.39996 3.33301 9.99996C3.33301 14.6 7.06634 18.3333 11.6663 18.3333C13.183 18.3333 14.608 17.9166 15.833 17.2083C13.3413 15.7666 11.6663 13.0833 11.6663 9.99996C11.6663 6.91663 13.3413 4.23329 15.833 2.79163C14.608 2.08329 13.183 1.66663 11.6663 1.66663Z" fill="#030615"/>
</g>
<defs>
<clipPath id="clip0_3686_9572">
<rect width="20" height="20" fill="white"/>
</clipPath>
</defs>
</svg>
