<svg width="20" height="20" viewBox="0 0 20 20" fill="none" xmlns="http://www.w3.org/2000/svg">
<path d="M16.4997 18.8334L14.2913 16.6667H5.41634C4.13856 16.6667 3.05523 16.2223 2.16634 15.3334C1.27745 14.4445 0.833008 13.3612 0.833008 12.0834C0.833008 11.0139 1.16287 10.0625 1.82259 9.22921C2.48231 8.39587 3.33301 7.86115 4.37467 7.62504C4.41634 7.51393 4.45801 7.40629 4.49967 7.30212C4.54134 7.19796 4.58301 7.08337 4.62467 6.95837L1.16634 3.50004L2.33301 2.33337L17.6663 17.6667L16.4997 18.8334ZM5.41634 15H12.6247L5.91634 8.29171C5.88856 8.44449 5.86773 8.59032 5.85384 8.72921C5.83995 8.8681 5.83301 9.01393 5.83301 9.16671H5.41634C4.61079 9.16671 3.92329 9.45143 3.35384 10.0209C2.7844 10.5903 2.49967 11.2778 2.49967 12.0834C2.49967 12.8889 2.7844 13.5764 3.35384 14.1459C3.92329 14.7153 4.61079 15 5.41634 15ZM17.9997 15.625L16.7913 14.4584C17.0275 14.2639 17.2045 14.0382 17.3226 13.7813C17.4406 13.5243 17.4997 13.2362 17.4997 12.9167C17.4997 12.3334 17.2983 11.8403 16.8955 11.4375C16.4927 11.0348 15.9997 10.8334 15.4163 10.8334H14.1663V9.16671C14.1663 8.01393 13.7601 7.03129 12.9476 6.21879C12.1351 5.40629 11.1525 5.00004 9.99967 5.00004C9.62467 5.00004 9.26356 5.04518 8.91634 5.13546C8.56912 5.22574 8.23579 5.3681 7.91634 5.56254L6.70801 4.35421C7.19412 4.02087 7.71148 3.7674 8.26009 3.59379C8.8087 3.42018 9.38856 3.33337 9.99967 3.33337C11.6247 3.33337 13.0031 3.89935 14.1351 5.03129C15.267 6.16324 15.833 7.54171 15.833 9.16671C16.7913 9.27782 17.5865 9.69101 18.2184 10.4063C18.8504 11.1216 19.1663 11.9584 19.1663 12.9167C19.1663 13.4584 19.0622 13.9618 18.8538 14.4271C18.6455 14.8924 18.3608 15.2917 17.9997 15.625Z" fill="#030615"/>
</svg>
