<svg width="20" height="20" viewBox="0 0 20 20" fill="none" xmlns="http://www.w3.org/2000/svg">
<g clip-path="url(#clip0_3686_9581)">
<path fill-rule="evenodd" clip-rule="evenodd" d="M8.18191 10.9091H3.63645C3.13645 10.9091 2.72736 11.3181 2.72736 11.8181C2.72736 12.3181 3.13645 12.7272 3.63645 12.7272H5.991L1.18191 17.5363C1.00918 17.7 0.90918 17.9272 0.90918 18.1818C0.90918 18.6818 1.31827 19.0909 1.81827 19.0909C2.07282 19.0909 2.30009 18.9909 2.46373 18.8272L7.27282 14.0091V16.3636C7.27282 16.8636 7.68191 17.2727 8.18191 17.2727C8.68191 17.2727 9.091 16.8636 9.091 16.3636V11.8181C9.091 11.3181 8.68191 10.9091 8.18191 10.9091ZM17.2728 12.7272C16.791 12.7272 16.3546 12.9181 16.0274 13.2272L11.7274 10.5454C11.7819 10.3727 11.8183 10.1909 11.8183 9.99997C11.8183 9.80906 11.7819 9.62724 11.7274 9.45451L16.0183 6.77269C16.3546 7.08178 16.791 7.27269 17.2728 7.27269C18.2728 7.27269 19.091 6.45451 19.091 5.45451C19.091 4.45451 18.2728 3.63633 17.2728 3.63633C16.2728 3.63633 15.4546 4.45451 15.4546 5.45451C15.4546 5.64542 15.491 5.82724 15.5455 5.99997L11.2455 8.69088C11.0274 8.48178 10.7546 8.32724 10.4546 8.25451V4.48178C11.2365 4.28178 11.8183 3.57269 11.8183 2.72724C11.8183 1.72724 11.0001 0.909058 10.0001 0.909058C9.00009 0.909058 8.18191 1.72724 8.18191 2.72724C8.18191 3.57269 8.76372 4.28178 9.54554 4.48178V8.24542C9.24554 8.32724 8.97282 8.48178 8.75463 8.68178L7.81827 8.09997L5.83645 6.8636L4.45463 5.99997C4.50918 5.82724 4.54554 5.64542 4.54554 5.45451C4.54554 4.45451 3.72736 3.63633 2.72736 3.63633C1.72736 3.63633 0.90918 4.45451 0.90918 5.45451C0.90918 6.45451 1.72736 7.27269 2.72736 7.27269C3.20918 7.27269 3.64554 7.08178 3.97282 6.77269L9.091 9.9636V9.99997H9.14554L11.8183 11.6727L12.1819 11.9L13.5546 12.7545L15.5455 14C15.491 14.1727 15.4546 14.3545 15.4546 14.5454C15.4546 15.5454 16.2728 16.3636 17.2728 16.3636C18.2728 16.3636 19.091 15.5454 19.091 14.5454C19.091 13.5454 18.2728 12.7272 17.2728 12.7272ZM10.9092 10.0363L10.8546 9.99997H10.9092V10.0363Z" fill="#030615"/>
</g>
<defs>
<clipPath id="clip0_3686_9581">
<rect width="20" height="20" fill="white"/>
</clipPath>
</defs>
</svg>
