<svg width="20" height="20" viewBox="0 0 20 20" fill="none" xmlns="http://www.w3.org/2000/svg">
<path fill-rule="evenodd" clip-rule="evenodd" d="M15.5 12.25V15.25C15.5 15.3881 15.3881 15.5 15.25 15.5H4.75C4.61193 15.5 4.5 15.3881 4.5 15.25V4.75C4.5 4.61193 4.61193 4.5 4.75 4.5H7.75H8.5V3H7.75H4.75C3.7835 3 3 3.7835 3 4.75V15.25C3 16.2165 3.7835 17 4.75 17H15.25C16.2165 17 17 16.2165 17 15.25V12.25V11.5H15.5V12.25ZM11 3H11.75H16.2495C16.6637 3 16.9995 3.33579 16.9995 3.75V8.25V9H15.4995V8.25V5.56066L10.5303 10.5298L10 11.0601L8.93934 9.99945L9.46967 9.46912L14.4388 4.5H11.75H11V3Z" fill="#030615"/>
</svg>
