<svg width="600" height="600" fill="none" xmlns="http://www.w3.org/2000/svg"><path d="M49.3 1.1C28 4.7 9.4 21.2 2.7 42.5l-2.2 7v501l2.2 7c5.9 18.8 20.9 33.8 39.8 39.8l7 2.2h501l7-2.2c18.9-6 33.9-21 39.8-39.8l2.2-7v-501l-2.2-7C591.4 23.9 576.8 9.1 558 2.7L551.5.5 303 .4C166.3.3 52.2.6 49.3 1.1zm299.6 95.7c21.7 4.2 45.9 14.2 60.2 25.1 14.9 11.2 28.7 29.2 35 45.6 11.8 30.4 12.6 63.6 2.3 94.5-14 41.9-48.8 70.4-96.2 78.4-18.5 3.2-30.3 3.6-105.8 3.6H168V93.9l84.8.4c81.8.4 85.1.4 96.1 2.5zM229 451v55h-61V396h61v55z" fill="#16A02B"/><path d="M229 219v72h33.8c51.8-.1 68.9-1.7 84.9-8 21-8.4 34.4-23.1 40-44 2.5-9.1 2.5-34.8 0-43.9-7.5-27.5-29-42.9-66-47-5.3-.6-28.2-1.1-51.2-1.1H229v72z" fill="#16A02B"/></svg>