<svg width="18" height="19" viewBox="0 0 18 19" fill="none" xmlns="http://www.w3.org/2000/svg">
<path fill-rule="evenodd" clip-rule="evenodd" d="M2.7001 3.2002C3.19715 3.2002 3.6001 3.60314 3.6001 4.1002L3.6001 14.0002C3.6001 14.4973 3.19715 14.9002 2.7001 14.9002C2.20304 14.9002 1.8001 14.4973 1.8001 14.0002L1.8001 4.1002C1.8001 3.60314 2.20304 3.2002 2.7001 3.2002Z" fill="black"/>
<path fill-rule="evenodd" clip-rule="evenodd" d="M6.29995 3.2002C6.79701 3.2002 7.19995 3.60314 7.19995 4.1002L7.19995 14.0002C7.19995 14.4973 6.79701 14.9002 6.29995 14.9002C5.8029 14.9002 5.39995 14.4973 5.39995 14.0002L5.39995 4.1002C5.39995 3.60314 5.8029 3.2002 6.29995 3.2002Z" fill="black"/>
<path fill-rule="evenodd" clip-rule="evenodd" d="M11.0571 13.023H14.1429V6.82617L11.0571 5.5811V13.023ZM14.7555 7.07335C14.7552 7.07327 14.755 7.07318 14.7548 7.07309L14.7555 7.07335ZM9 4.13983V13.9616C9 14.48 9.46051 14.9002 10.0286 14.9002H15.1714C15.7395 14.9002 16.2 14.48 16.2 13.9616V6.21494C16.2 5.84338 15.9598 5.50679 15.5874 5.35653L10.4445 3.28142C9.76455 3.00705 9 3.46138 9 4.13983Z" fill="black"/>
</svg>
