<svg width="20" height="20" viewBox="0 0 20 20" fill="none" xmlns="http://www.w3.org/2000/svg">
<path d="M6.25 15C6.59722 15 6.89236 14.8785 7.13542 14.6354C7.37847 14.3924 7.5 14.0972 7.5 13.75C7.5 13.4028 7.37847 13.1076 7.13542 12.8646C6.89236 12.6215 6.59722 12.5 6.25 12.5C5.90278 12.5 5.60764 12.6215 5.36458 12.8646C5.12153 13.1076 5 13.4028 5 13.75C5 14.0972 5.12153 14.3924 5.36458 14.6354C5.60764 14.8785 5.90278 15 6.25 15ZM6.25 7.5C6.59722 7.5 6.89236 7.37847 7.13542 7.13542C7.37847 6.89236 7.5 6.59722 7.5 6.25C7.5 5.90278 7.37847 5.60764 7.13542 5.36458C6.89236 5.12153 6.59722 5 6.25 5C5.90278 5 5.60764 5.12153 5.36458 5.36458C5.12153 5.60764 5 5.90278 5 6.25C5 6.59722 5.12153 6.89236 5.36458 7.13542C5.60764 7.37847 5.90278 7.5 6.25 7.5ZM6.25 11.25C6.59722 11.25 6.89236 11.1285 7.13542 10.8854C7.37847 10.6424 7.5 10.3472 7.5 10C7.5 9.65278 7.37847 9.35764 7.13542 9.11458C6.89236 8.87153 6.59722 8.75 6.25 8.75C5.90278 8.75 5.60764 8.87153 5.36458 9.11458C5.12153 9.35764 5 9.65278 5 10C5 10.3472 5.12153 10.6424 5.36458 10.8854C5.60764 11.1285 5.90278 11.25 6.25 11.25ZM13.75 15C14.0972 15 14.3924 14.8785 14.6354 14.6354C14.8785 14.3924 15 14.0972 15 13.75C15 13.4028 14.8785 13.1076 14.6354 12.8646C14.3924 12.6215 14.0972 12.5 13.75 12.5C13.4028 12.5 13.1076 12.6215 12.8646 12.8646C12.6215 13.1076 12.5 13.4028 12.5 13.75C12.5 14.0972 12.6215 14.3924 12.8646 14.6354C13.1076 14.8785 13.4028 15 13.75 15ZM13.75 7.5C14.0972 7.5 14.3924 7.37847 14.6354 7.13542C14.8785 6.89236 15 6.59722 15 6.25C15 5.90278 14.8785 5.60764 14.6354 5.36458C14.3924 5.12153 14.0972 5 13.75 5C13.4028 5 13.1076 5.12153 12.8646 5.36458C12.6215 5.60764 12.5 5.90278 12.5 6.25C12.5 6.59722 12.6215 6.89236 12.8646 7.13542C13.1076 7.37847 13.4028 7.5 13.75 7.5ZM4.16667 17.5C3.70833 17.5 3.31597 17.3368 2.98958 17.0104C2.66319 16.684 2.5 16.2917 2.5 15.8333V4.16667C2.5 3.70833 2.66319 3.31597 2.98958 2.98958C3.31597 2.66319 3.70833 2.5 4.16667 2.5H15.8333C16.2917 2.5 16.684 2.66319 17.0104 2.98958C17.3368 3.31597 17.5 3.70833 17.5 4.16667V15.8333C17.5 16.2917 17.3368 16.684 17.0104 17.0104C16.684 17.3368 16.2917 17.5 15.8333 17.5H4.16667ZM4.16667 15.8333H15.8333V4.16667H4.16667V15.8333ZM13.75 11.25C14.0972 11.25 14.3924 11.1285 14.6354 10.8854C14.8785 10.6424 15 10.3472 15 10C15 9.65278 14.8785 9.35764 14.6354 9.11458C14.3924 8.87153 14.0972 8.75 13.75 8.75C13.4028 8.75 13.1076 8.87153 12.8646 9.11458C12.6215 9.35764 12.5 9.65278 12.5 10C12.5 10.3472 12.6215 10.6424 12.8646 10.8854C13.1076 11.1285 13.4028 11.25 13.75 11.25ZM10 7.5C10.3472 7.5 10.6424 7.37847 10.8854 7.13542C11.1285 6.89236 11.25 6.59722 11.25 6.25C11.25 5.90278 11.1285 5.60764 10.8854 5.36458C10.6424 5.12153 10.3472 5 10 5C9.65278 5 9.35764 5.12153 9.11458 5.36458C8.87153 5.60764 8.75 5.90278 8.75 6.25C8.75 6.59722 8.87153 6.89236 9.11458 7.13542C9.35764 7.37847 9.65278 7.5 10 7.5ZM10 15C10.3472 15 10.6424 14.8785 10.8854 14.6354C11.1285 14.3924 11.25 14.0972 11.25 13.75C11.25 13.4028 11.1285 13.1076 10.8854 12.8646C10.6424 12.6215 10.3472 12.5 10 12.5C9.65278 12.5 9.35764 12.6215 9.11458 12.8646C8.87153 13.1076 8.75 13.4028 8.75 13.75C8.75 14.0972 8.87153 14.3924 9.11458 14.6354C9.35764 14.8785 9.65278 15 10 15ZM10 11.25C10.3472 11.25 10.6424 11.1285 10.8854 10.8854C11.1285 10.6424 11.25 10.3472 11.25 10C11.25 9.65278 11.1285 9.35764 10.8854 9.11458C10.6424 8.87153 10.3472 8.75 10 8.75C9.65278 8.75 9.35764 8.87153 9.11458 9.11458C8.87153 9.35764 8.75 9.65278 8.75 10C8.75 10.3472 8.87153 10.6424 9.11458 10.8854C9.35764 11.1285 9.65278 11.25 10 11.25Z" fill="#030615"/>
</svg>
