<svg width="20" height="20" viewBox="0 0 20 20" fill="none" xmlns="http://www.w3.org/2000/svg">
<path d="M16.4788 18.8541L14.583 16.9583C13.9025 17.4027 13.1768 17.743 12.4059 17.9791C11.6351 18.2152 10.833 18.3333 9.99967 18.3333C8.8469 18.3333 7.76356 18.1145 6.74967 17.677C5.73579 17.2395 4.85384 16.6458 4.10384 15.8958C3.35384 15.1458 2.76009 14.2638 2.32259 13.25C1.88509 12.2361 1.66634 11.1527 1.66634 9.99996C1.66634 9.16663 1.7844 8.36454 2.02051 7.59371C2.25662 6.82288 2.5969 6.09718 3.04134 5.41663L1.14551 3.52079L2.33301 2.33329L17.6663 17.6666L16.4788 18.8541ZM9.99967 16.6666C10.5969 16.6666 11.1768 16.5902 11.7393 16.4375C12.3018 16.2847 12.8469 16.0555 13.3747 15.75L4.24967 6.62496C3.94412 7.15274 3.71495 7.69788 3.56217 8.26038C3.4094 8.82288 3.33301 9.40274 3.33301 9.99996C3.33301 11.8472 3.98231 13.4201 5.28092 14.7187C6.57954 16.0173 8.15245 16.6666 9.99967 16.6666ZM16.958 14.5833L15.7497 13.375C16.0552 12.8472 16.2844 12.302 16.4372 11.7395C16.59 11.177 16.6663 10.5972 16.6663 9.99996C16.6663 8.15274 16.017 6.57982 14.7184 5.28121C13.4198 3.9826 11.8469 3.33329 9.99967 3.33329C9.40245 3.33329 8.82259 3.40968 8.26009 3.56246C7.69759 3.71524 7.15245 3.9444 6.62467 4.24996L5.41634 3.04163C6.0969 2.59718 6.82259 2.2569 7.59342 2.02079C8.36426 1.78468 9.16634 1.66663 9.99967 1.66663C11.1525 1.66663 12.2358 1.88538 13.2497 2.32288C14.2636 2.76038 15.1455 3.35413 15.8955 4.10413C16.6455 4.85413 17.2393 5.73607 17.6768 6.74996C18.1143 7.76385 18.333 8.84718 18.333 9.99996C18.333 10.8333 18.215 11.6354 17.9788 12.4062C17.7427 13.177 17.4025 13.9027 16.958 14.5833Z" fill="#030615"/>
</svg>
