<svg width="20" height="20" viewBox="0 0 20 20" fill="none" xmlns="http://www.w3.org/2000/svg">
<g clip-path="url(#clip0_3686_9073)">
<path d="M7.50033 11.4583C5.55033 11.4583 1.66699 12.4333 1.66699 14.375V15.8333H13.3337V14.375C13.3337 12.4333 9.45033 11.4583 7.50033 11.4583ZM3.61699 14.1666C4.31699 13.6833 6.00866 13.125 7.50033 13.125C8.99199 13.125 10.6837 13.6833 11.3837 14.1666H3.61699ZM7.50033 9.99996C9.10866 9.99996 10.417 8.69163 10.417 7.08329C10.417 5.47496 9.10866 4.16663 7.50033 4.16663C5.89199 4.16663 4.58366 5.47496 4.58366 7.08329C4.58366 8.69163 5.89199 9.99996 7.50033 9.99996ZM7.50033 5.83329C8.19199 5.83329 8.75033 6.39163 8.75033 7.08329C8.75033 7.77496 8.19199 8.33329 7.50033 8.33329C6.80866 8.33329 6.25033 7.77496 6.25033 7.08329C6.25033 6.39163 6.80866 5.83329 7.50033 5.83329ZM13.367 11.5083C14.3337 12.2083 15.0003 13.1416 15.0003 14.375V15.8333H18.3337V14.375C18.3337 12.6916 15.417 11.7333 13.367 11.5083ZM12.5003 9.99996C14.1087 9.99996 15.417 8.69163 15.417 7.08329C15.417 5.47496 14.1087 4.16663 12.5003 4.16663C12.0503 4.16663 11.6337 4.27496 11.2503 4.45829C11.7753 5.19996 12.0837 6.10829 12.0837 7.08329C12.0837 8.05829 11.7753 8.96663 11.2503 9.70829C11.6337 9.89163 12.0503 9.99996 12.5003 9.99996Z" fill="#030615"/>
</g>
<defs>
<clipPath id="clip0_3686_9073">
<rect width="20" height="20" fill="white"/>
</clipPath>
</defs>
</svg>
