<svg width="20" height="20" viewBox="0 0 20 20" fill="none" xmlns="http://www.w3.org/2000/svg">
<path d="M10.0003 18.3334C8.84755 18.3334 7.76421 18.1146 6.75033 17.6771C5.73644 17.2396 4.85449 16.6459 4.10449 15.8959C3.35449 15.1459 2.76074 14.2639 2.32324 13.25C1.88574 12.2361 1.66699 11.1528 1.66699 10C1.66699 8.84724 1.88574 7.76391 2.32324 6.75002C2.76074 5.73613 3.35449 4.85419 4.10449 4.10419C4.85449 3.35419 5.73644 2.76044 6.75033 2.32294C7.76421 1.88544 8.84755 1.66669 10.0003 1.66669C11.1531 1.66669 12.2364 1.88544 13.2503 2.32294C14.2642 2.76044 15.1462 3.35419 15.8962 4.10419C16.6462 4.85419 17.2399 5.73613 17.6774 6.75002C18.1149 7.76391 18.3337 8.84724 18.3337 10C18.3337 11.1528 18.1149 12.2361 17.6774 13.25C17.2399 14.2639 16.6462 15.1459 15.8962 15.8959C15.1462 16.6459 14.2642 17.2396 13.2503 17.6771C12.2364 18.1146 11.1531 18.3334 10.0003 18.3334ZM9.16699 14.1667H10.8337C11.292 14.1667 11.6844 14.0035 12.0107 13.6771C12.3371 13.3507 12.5003 12.9584 12.5003 12.5V10.8334C12.5003 10.375 12.3371 9.98266 12.0107 9.65627C11.6844 9.32988 11.292 9.16669 10.8337 9.16669H9.16699V7.50002H11.667V5.83335H9.16699C8.70866 5.83335 8.3163 5.99655 7.98991 6.32294C7.66352 6.64933 7.50033 7.04169 7.50033 7.50002V12.5C7.50033 12.9584 7.66352 13.3507 7.98991 13.6771C8.3163 14.0035 8.70866 14.1667 9.16699 14.1667ZM9.16699 10.8334H10.8337V12.5H9.16699V10.8334Z" fill="#030615"/>
</svg>
