<svg width="20" height="20" viewBox="0 0 20 20" fill="none" xmlns="http://www.w3.org/2000/svg">
<path d="M10.0003 18.3333C8.84755 18.3333 7.76421 18.1145 6.75033 17.677C5.73644 17.2395 4.85449 16.6458 4.10449 15.8958C3.35449 15.1458 2.76074 14.2638 2.32324 13.25C1.88574 12.2361 1.66699 11.1527 1.66699 9.99996C1.66699 8.84718 1.88574 7.76385 2.32324 6.74996C2.76074 5.73607 3.35449 4.85413 4.10449 4.10413C4.85449 3.35413 5.73644 2.76038 6.75033 2.32288C7.76421 1.88538 8.84755 1.66663 10.0003 1.66663C11.1531 1.66663 12.2364 1.88538 13.2503 2.32288C14.2642 2.76038 15.1462 3.35413 15.8962 4.10413C16.6462 4.85413 17.2399 5.73607 17.6774 6.74996C18.1149 7.76385 18.3337 8.84718 18.3337 9.99996C18.3337 11.1527 18.1149 12.2361 17.6774 13.25C17.2399 14.2638 16.6462 15.1458 15.8962 15.8958C15.1462 16.6458 14.2642 17.2395 13.2503 17.677C12.2364 18.1145 11.1531 18.3333 10.0003 18.3333ZM9.16699 14.1666H10.8337C11.292 14.1666 11.6844 14.0034 12.0107 13.677C12.3371 13.3507 12.5003 12.9583 12.5003 12.5V11.25C12.5003 10.9027 12.3788 10.6076 12.1357 10.3645C11.8927 10.1215 11.5975 9.99996 11.2503 9.99996C11.5975 9.99996 11.8927 9.87843 12.1357 9.63538C12.3788 9.39232 12.5003 9.09718 12.5003 8.74996V7.49996C12.5003 7.04163 12.3371 6.64926 12.0107 6.32288C11.6844 5.99649 11.292 5.83329 10.8337 5.83329H9.16699C8.70866 5.83329 8.3163 5.99649 7.98991 6.32288C7.66352 6.64926 7.50033 7.04163 7.50033 7.49996V8.74996C7.50033 9.09718 7.62185 9.39232 7.86491 9.63538C8.10796 9.87843 8.4031 9.99996 8.75033 9.99996C8.4031 9.99996 8.10796 10.1215 7.86491 10.3645C7.62185 10.6076 7.50033 10.9027 7.50033 11.25V12.5C7.50033 12.9583 7.66352 13.3507 7.98991 13.677C8.3163 14.0034 8.70866 14.1666 9.16699 14.1666ZM9.16699 7.49996H10.8337V9.16663H9.16699V7.49996ZM9.16699 12.5V10.8333H10.8337V12.5H9.16699Z" fill="#030615"/>
</svg>
