<svg width="20" height="20" viewBox="0 0 20 20" fill="none" xmlns="http://www.w3.org/2000/svg">
<path d="M0.833496 14.1667C0.833496 12.9028 1.07308 11.7153 1.55225 10.6042C2.03141 9.49306 2.68766 8.52083 3.521 7.6875C4.35433 6.85417 5.32655 6.19792 6.43766 5.71875C7.54877 5.23958 8.73627 5 10.0002 5C11.2641 5 12.4516 5.23958 13.5627 5.71875C14.6738 6.19792 15.646 6.85417 16.4793 7.6875C17.3127 8.52083 17.9689 9.49306 18.4481 10.6042C18.9272 11.7153 19.1668 12.9028 19.1668 14.1667H17.5002C17.5002 12.0972 16.7675 10.3299 15.3022 8.86458C13.837 7.39931 12.0696 6.66667 10.0002 6.66667C7.93072 6.66667 6.16336 7.39931 4.69808 8.86458C3.2328 10.3299 2.50016 12.0972 2.50016 14.1667H0.833496ZM4.16683 14.1667C4.16683 12.5556 4.73627 11.1806 5.87516 10.0417C7.01405 8.90278 8.38905 8.33333 10.0002 8.33333C11.6113 8.33333 12.9863 8.90278 14.1252 10.0417C15.2641 11.1806 15.8335 12.5556 15.8335 14.1667H14.1668C14.1668 13.0139 13.7606 12.0312 12.9481 11.2188C12.1356 10.4062 11.1529 10 10.0002 10C8.84739 10 7.86475 10.4062 7.05225 11.2188C6.23975 12.0312 5.8335 13.0139 5.8335 14.1667H4.16683Z" fill="#030615"/>
</svg>
