<svg width="16" height="16" viewBox="0 0 16 16" fill="none" xmlns="http://www.w3.org/2000/svg">
<g id="reload-definitions">
<path id="Vector" d="M7.33333 1.51732C7.54444 1.3951 7.76667 1.33398 8 1.33398C8.23333 1.33398 8.45556 1.3951 8.66667 1.51732L13.3333 4.20065C13.5444 4.32287 13.7083 4.48398 13.825 4.68398C13.9417 4.88398 14 5.10621 14 5.35065V8.18398C13.8 8.03954 13.5889 7.91454 13.3667 7.80898C13.1444 7.70343 12.9111 7.61176 12.6667 7.53398V6.06732L10.2667 7.45065C9.64445 7.60621 9.08056 7.8701 8.575 8.24232C8.06944 8.61454 7.65556 9.06732 7.33333 9.60065V8.38398L3.33333 6.06732V10.634L6.7 12.584C6.74444 12.9395 6.82778 13.2812 6.95 13.609C7.07222 13.9368 7.22778 14.2451 7.41667 14.534C7.39444 14.5229 7.38056 14.5145 7.375 14.509C7.36944 14.5034 7.35556 14.4951 7.33333 14.484L2.66667 11.8007C2.45556 11.6784 2.29167 11.5173 2.175 11.3173C2.05833 11.1173 2 10.8951 2 10.6507V5.35065C2 5.10621 2.05833 4.88398 2.175 4.68398C2.29167 4.48398 2.45556 4.32287 2.66667 4.20065L7.33333 1.51732ZM8 2.66732L4.05 4.95065L8 7.23398L11.95 4.95065L8 2.66732Z" fill="#030615"/>
<path id="Vector_2" d="M9.87508 15.2423C10.4806 15.7479 11.189 16.0007 12.0001 16.0007C12.9223 16.0007 13.7084 15.6757 14.3584 15.0257C15.0084 14.3757 15.3334 13.5895 15.3334 12.6673C15.3334 11.7451 15.0084 10.959 14.3584 10.309C13.7084 9.65898 12.9223 9.33398 12.0001 9.33398C11.5445 9.33398 11.1167 9.4201 10.7167 9.59232C10.3167 9.76454 9.96675 9.9951 9.66675 10.284V9.33398H8.66675V12.0007H11.3334V11.0007H10.3667C10.5779 10.7895 10.8223 10.6257 11.1001 10.509C11.3779 10.3923 11.6779 10.334 12.0001 10.334C12.6445 10.334 13.1945 10.5618 13.6501 11.0173C14.1056 11.4729 14.3334 12.0229 14.3334 12.6673C14.3334 13.3118 14.1056 13.8618 13.6501 14.3173C13.1945 14.7729 12.6445 15.0007 12.0001 15.0007C11.4667 15.0007 10.9973 14.8451 10.5917 14.534C10.1862 14.2229 9.91119 13.8229 9.76675 13.334H8.73341C8.88897 14.1007 9.26953 14.7368 9.87508 15.2423Z" fill="#030615"/>
</g>
</svg>
