<svg width="20" height="20" viewBox="0 0 20 20" fill="none" xmlns="http://www.w3.org/2000/svg">
<path d="M9.16667 1.89585C9.43056 1.74308 9.70833 1.66669 10 1.66669C10.2917 1.66669 10.5694 1.74308 10.8333 1.89585L16.6667 5.25002C16.9306 5.4028 17.1354 5.60419 17.2813 5.85419C17.4271 6.10419 17.5 6.38197 17.5 6.68752V10.2292C17.25 10.0486 16.9861 9.89238 16.7083 9.76044C16.4306 9.62849 16.1389 9.51391 15.8333 9.41669V7.58335L12.8333 9.31252C12.0556 9.50697 11.3507 9.83683 10.7187 10.3021C10.0868 10.7674 9.56944 11.3334 9.16667 12V10.4792L4.16667 7.58335V13.2917L8.375 15.7292C8.43056 16.1736 8.53472 16.6007 8.6875 17.0104C8.84028 17.4202 9.03472 17.8056 9.27083 18.1667C9.24306 18.1528 9.22569 18.1424 9.21875 18.1354C9.21181 18.1285 9.19444 18.1181 9.16667 18.1042L3.33333 14.75C3.06944 14.5972 2.86458 14.3959 2.71875 14.1459C2.57292 13.8959 2.5 13.6181 2.5 13.3125V6.68752C2.5 6.38197 2.57292 6.10419 2.71875 5.85419C2.86458 5.60419 3.06944 5.4028 3.33333 5.25002L9.16667 1.89585ZM10 3.33335L5.0625 6.18752L10 9.04169L14.9375 6.18752L10 3.33335Z" fill="black"/>
<path d="M12.3444 19.0521C13.1013 19.684 13.9868 20 15.0007 20C16.1534 20 17.1361 19.5938 17.9486 18.7813C18.7611 17.9688 19.1673 16.9861 19.1673 15.8334C19.1673 14.6806 18.7611 13.6979 17.9486 12.8854C17.1361 12.0729 16.1534 11.6667 15.0007 11.6667C14.4312 11.6667 13.8965 11.7743 13.3965 11.9896C12.8965 12.2049 12.459 12.4931 12.084 12.8542V11.6667H10.834V15H14.1673V13.75H12.959C13.2229 13.4861 13.5284 13.2813 13.8757 13.1354C14.2229 12.9896 14.5979 12.9167 15.0007 12.9167C15.8062 12.9167 16.4937 13.2014 17.0632 13.7709C17.6326 14.3403 17.9173 15.0278 17.9173 15.8334C17.9173 16.6389 17.6326 17.3264 17.0632 17.8959C16.4937 18.4653 15.8062 18.75 15.0007 18.75C14.334 18.75 13.7472 18.5556 13.2402 18.1667C12.7333 17.7778 12.3895 17.2778 12.209 16.6667H10.9173C11.1118 17.625 11.5875 18.4202 12.3444 19.0521Z" fill="black"/>
</svg>
