<svg width="20" height="20" viewBox="0 0 20 20" fill="none" xmlns="http://www.w3.org/2000/svg">
<path d="M9.97884 12.5208C9.2844 12.5208 8.69412 12.2777 8.20801 11.7916C7.7219 11.3055 7.47884 10.7152 7.47884 10.0208C7.47884 9.32635 7.7219 8.73607 8.20801 8.24996C8.69412 7.76385 9.2844 7.52079 9.97884 7.52079C10.6733 7.52079 11.2636 7.76385 11.7497 8.24996C12.2358 8.73607 12.4788 9.32635 12.4788 10.0208C12.4788 10.7152 12.2358 11.3055 11.7497 11.7916C11.2636 12.2777 10.6733 12.5208 9.97884 12.5208ZM9.97884 18.3333L6.43717 14.7916L7.62467 13.6041L9.99967 15.9791L12.3538 13.625L13.5205 14.7916L9.97884 18.3333ZM5.18717 13.5625L1.64551 10.0208L5.18717 6.47913L6.37467 7.66663L3.99967 10.0416L6.35384 12.3958L5.18717 13.5625ZM7.60384 6.37496L6.43717 5.20829L9.97884 1.66663L13.5205 5.20829L12.333 6.39579L9.95801 4.02079L7.60384 6.37496ZM14.7705 13.5625L13.583 12.375L15.958 9.99996L13.6038 7.64579L14.7705 6.47913L18.3122 10.0208L14.7705 13.5625Z" fill="#030615"/>
</svg>
