<svg width="20" height="20" viewBox="0 0 20 20" fill="none" xmlns="http://www.w3.org/2000/svg">
<path d="M4.16667 17.5C3.70833 17.5 3.31597 17.3368 2.98958 17.0104C2.66319 16.684 2.5 16.2916 2.5 15.8333C2.5 15.375 2.66319 14.9826 2.98958 14.6562C3.31597 14.3298 3.70833 14.1666 4.16667 14.1666C4.625 14.1666 5.01736 14.3298 5.34375 14.6562C5.67014 14.9826 5.83333 15.375 5.83333 15.8333C5.83333 16.2916 5.67014 16.684 5.34375 17.0104C5.01736 17.3368 4.625 17.5 4.16667 17.5ZM14.1667 17.5C14.1667 15.875 13.8611 14.3576 13.25 12.9479C12.6389 11.5382 11.8056 10.3055 10.75 9.24998C9.69444 8.19442 8.46181 7.36109 7.05208 6.74998C5.64236 6.13887 4.125 5.83331 2.5 5.83331V3.33331C4.47222 3.33331 6.3125 3.70137 8.02083 4.43748C9.72917 5.17359 11.2292 6.18748 12.5208 7.47915C13.8125 8.77081 14.8264 10.2708 15.5625 11.9791C16.2986 13.6875 16.6667 15.5278 16.6667 17.5H14.1667ZM9.16667 17.5C9.16667 16.5694 8.99306 15.7048 8.64583 14.9062C8.29861 14.1076 7.81944 13.4028 7.20833 12.7916C6.59722 12.1805 5.89236 11.7014 5.09375 11.3541C4.29514 11.0069 3.43056 10.8333 2.5 10.8333V8.33331C3.77778 8.33331 4.96875 8.5729 6.07292 9.05206C7.17708 9.53123 8.14583 10.1875 8.97917 11.0208C9.8125 11.8541 10.4688 12.8229 10.9479 13.9271C11.4271 15.0312 11.6667 16.2222 11.6667 17.5H9.16667Z" fill="#030615"/>
</svg>
