<svg width="20" height="20" viewBox="0 0 20 20" fill="none" xmlns="http://www.w3.org/2000/svg">
    <clipPath id="cut-off-circle-0">
        <rect x="-9" width="14" height="20" fill="white" />
    </clipPath>
    <path
        d="M8 12.1C8.58333 12.1 9.07917 11.8958 9.4875 11.4875C9.89583 11.0792 10.1 10.5833 10.1 10C10.1 9.41667 9.89583 8.92083 9.4875 8.5125C9.07917 8.10417 8.58333 7.9 8 7.9C7.41667 7.9 6.92083 8.10417 6.5125 8.5125C6.10417 8.92083 5.9 9.41667 5.9 10C5.9 10.5833 6.10417 11.0792 6.5125 11.4875C6.92083 11.8958 7.41667 12.1 8 12.1ZM8 17C7.03167 17 6.12167 16.8162 5.27 16.4487C4.41833 16.0812 3.6775 15.5825 3.0475 14.9525C2.4175 14.3225 1.91875 13.5817 1.55125 12.73C1.18375 11.8783 1 10.9683 1 10C1 9.03167 1.18375 8.12167 1.55125 7.27C1.91875 6.41833 2.4175 5.6775 3.0475 5.0475C3.6775 4.4175 4.41833 3.91875 5.27 3.55125C6.12167 3.18375 7.03167 3 8 3C8.96833 3 9.87833 3.18375 10.73 3.55125C11.5817 3.91875 12.3225 4.4175 12.9525 5.0475C13.5825 5.6775 14.0812 6.41833 14.4487 7.27C14.8162 8.12167 15 9.03167 15 10C15 10.9683 14.8162 11.8783 14.4487 12.73C14.0812 13.5817 13.5825 14.3225 12.9525 14.9525C12.3225 15.5825 11.5817 16.0812 10.73 16.4487C9.87833 16.8162 8.96833 17 8 17ZM8 15.6C9.56333 15.6 10.8875 15.0575 11.9725 13.9725C13.0575 12.8875 13.6 11.5633 13.6 10C13.6 8.43667 13.0575 7.1125 11.9725 6.0275C10.8875 4.9425 9.56333 4.4 8 4.4C6.43667 4.4 5.1125 4.9425 4.0275 6.0275C2.9425 7.1125 2.4 8.43667 2.4 10C2.4 11.5633 2.9425 12.8875 4.0275 13.9725C5.1125 15.0575 6.43667 15.6 8 15.6Z"
        fill="#302B8D" clip-path="url(#cut-off-circle-0)" />
    <clipPath id="cut-off-circle">
        <rect x="5" width="14" height="20" fill="white" />
    </clipPath>
    <path
        d="M12 12.1C12.5833 12.1 13.0792 11.8958 13.4875 11.4875C13.8958 11.0792 14.1 10.5833 14.1 10C14.1 9.41667 13.8958 8.92083 13.4875 8.5125C13.0792 8.10417 12.5833 7.9 12 7.9C11.4167 7.9 10.9208 8.10417 10.5125 8.5125C10.1042 8.92083 9.9 9.41667 9.9 10C9.9 10.5833 10.1042 11.0792 10.5125 11.4875C10.9208 11.8958 11.4167 12.1 12 12.1ZM12 17C11.0317 17 10.1217 16.8162 9.27 16.4487C8.41833 16.0812 7.6775 15.5825 7.0475 14.9525C6.4175 14.3225 5.91875 13.5817 5.55125 12.73C5.18375 11.8783 5 10.9683 5 10C5 9.03167 5.18375 8.12167 5.55125 7.27C5.91875 6.41833 6.4175 5.6775 7.0475 5.0475C7.6775 4.4175 8.41833 3.91875 9.27 3.55125C10.1217 3.18375 11.0317 3 12 3C12.9683 3 13.8783 3.18375 14.73 3.55125C15.5817 3.91875 16.3225 4.4175 16.9525 5.0475C17.5825 5.6775 18.0812 6.41833 18.4487 7.27C18.8162 8.12167 19 9.03167 19 10C19 10.9683 18.8162 11.8783 18.4487 12.73C18.0812 13.5817 17.5825 14.3225 16.9525 14.9525C16.3225 15.5825 15.5817 16.0812 14.73 16.4487C13.8783 16.8162 12.9683 17 12 17ZM12 15.6C13.5633 15.6 14.8875 15.0575 15.9725 13.9725C17.0575 12.8875 17.6 11.5633 17.6 10C17.6 8.43667 17.0575 7.1125 15.9725 6.0275C14.8875 4.9425 13.5633 4.4 12 4.4C10.4367 4.4 9.1125 4.9425 8.0275 6.0275C6.9425 7.1125 6.4 8.43667 6.4 10C6.4 11.5633 6.9425 12.8875 8.0275 13.9725C9.1125 15.0575 10.4367 15.6 12 15.6Z"
        fill="#302B8D" clip-path="url(#cut-off-circle)" />
</svg>
    