<svg width="20" height="20" viewBox="0 0 20 20" fill="none" xmlns="http://www.w3.org/2000/svg">
<path d="M9.99199 1.66663C5.39199 1.66663 1.66699 5.39996 1.66699 9.99996C1.66699 14.6 5.39199 18.3333 9.99199 18.3333C14.6003 18.3333 18.3337 14.6 18.3337 9.99996C18.3337 5.39996 14.6003 1.66663 9.99199 1.66663ZM10.0003 16.6666C6.31699 16.6666 3.33366 13.6833 3.33366 9.99996C3.33366 6.31663 6.31699 3.33329 10.0003 3.33329C13.6837 3.33329 16.667 6.31663 16.667 9.99996C16.667 13.6833 13.6837 16.6666 10.0003 16.6666ZM10.417 5.83329H9.16699V10.8333L13.542 13.4583L14.167 12.4333L10.417 10.2083V5.83329Z" fill="#030615"/>
</svg>
