<svg width="20" height="20" viewBox="0 0 20 20" fill="none" xmlns="http://www.w3.org/2000/svg">
<path d="M12.0833 19.1666C11.7361 19.1666 11.441 19.0451 11.1979 18.802C10.9549 18.559 10.8333 18.2638 10.8333 17.9166V12.0833C10.8333 11.7361 10.9549 11.4409 11.1979 11.1979C11.441 10.9548 11.7361 10.8333 12.0833 10.8333H17.9167C18.2639 10.8333 18.559 10.9548 18.8021 11.1979C19.0451 11.4409 19.1667 11.7361 19.1667 12.0833V17.9166C19.1667 18.2638 19.0451 18.559 18.8021 18.802C18.559 19.0451 18.2639 19.1666 17.9167 19.1666H12.0833ZM12.0833 17.9166H17.9167V17.25C17.5694 16.8194 17.1458 16.4757 16.6458 16.2187C16.1458 15.9618 15.5972 15.8333 15 15.8333C14.4028 15.8333 13.8542 15.9618 13.3542 16.2187C12.8542 16.4757 12.4306 16.8194 12.0833 17.25V17.9166ZM15 15C15.3472 15 15.6424 14.8784 15.8854 14.6354C16.1285 14.3923 16.25 14.0972 16.25 13.75C16.25 13.4027 16.1285 13.1076 15.8854 12.8645C15.6424 12.6215 15.3472 12.5 15 12.5C14.6528 12.5 14.3576 12.6215 14.1146 12.8645C13.8715 13.1076 13.75 13.4027 13.75 13.75C13.75 14.0972 13.8715 14.3923 14.1146 14.6354C14.3576 14.8784 14.6528 15 15 15ZM10.0417 7.08329C9.23611 7.08329 8.54861 7.36801 7.97917 7.93746C7.40972 8.5069 7.125 9.1944 7.125 9.99996C7.125 10.6666 7.3125 11.25 7.6875 11.75C8.0625 12.25 8.55556 12.5972 9.16667 12.7916V10.9166C9.05556 10.8055 8.96528 10.6632 8.89583 10.4895C8.82639 10.3159 8.79167 10.1527 8.79167 9.99996C8.79167 9.65274 8.91319 9.3576 9.15625 9.11454C9.39931 8.87149 9.69444 8.74996 10.0417 8.74996C10.2361 8.74996 10.4097 8.78815 10.5625 8.86454C10.7153 8.94093 10.8472 9.04163 10.9583 9.16663H12.8333C12.6528 8.55552 12.309 8.05551 11.8021 7.66663C11.2951 7.27774 10.7083 7.08329 10.0417 7.08329ZM7.70833 18.3333L7.375 15.6666C7.19444 15.5972 7.02431 15.5138 6.86458 15.4166C6.70486 15.3194 6.54861 15.2152 6.39583 15.1041L3.91667 16.1458L1.625 12.1875L3.77083 10.5625C3.75694 10.4652 3.75 10.3715 3.75 10.2812V9.71871C3.75 9.62843 3.75694 9.53468 3.77083 9.43746L1.625 7.81246L3.91667 3.85413L6.39583 4.89579C6.54861 4.78468 6.70833 4.68052 6.875 4.58329C7.04167 4.48607 7.20833 4.40274 7.375 4.33329L7.70833 1.66663H12.2917L12.625 4.33329C12.8056 4.40274 12.9757 4.48607 13.1354 4.58329C13.2951 4.68052 13.4514 4.78468 13.6042 4.89579L16.0833 3.85413L18.375 7.81246L16.6042 9.16663H14.5C14.4861 9.09718 14.4722 9.02427 14.4583 8.94788C14.4444 8.87149 14.4236 8.79857 14.3958 8.72913L16.1875 7.37496L15.375 5.95829L13.3125 6.83329C13.0069 6.51385 12.6701 6.24649 12.3021 6.03121C11.934 5.81593 11.5347 5.65274 11.1042 5.54163L10.8333 3.33329H9.1875L8.89583 5.54163C8.46528 5.65274 8.06597 5.81593 7.69792 6.03121C7.32986 6.24649 6.99306 6.5069 6.6875 6.81246L4.625 5.95829L3.8125 7.37496L5.60417 8.70829C5.53472 8.91663 5.48611 9.12496 5.45833 9.33329C5.43056 9.54163 5.41667 9.76385 5.41667 9.99996C5.41667 10.2222 5.43056 10.4375 5.45833 10.6458C5.48611 10.8541 5.53472 11.0625 5.60417 11.2708L3.8125 12.625L4.625 14.0416L6.6875 13.1666C7.02083 13.5138 7.39583 13.8055 7.8125 14.0416C8.22917 14.2777 8.68056 14.4305 9.16667 14.5V18.3333H7.70833Z" fill="#030615"/>
</svg>
