<svg width="20" height="20" viewBox="0 0 20 20" fill="none" xmlns="http://www.w3.org/2000/svg">
<path d="M14.167 18.3333C13.4725 18.3333 12.8823 18.0902 12.3962 17.6041C11.91 17.118 11.667 16.5277 11.667 15.8333C11.667 15.75 11.6878 15.5555 11.7295 15.25L5.87533 11.8333C5.6531 12.0416 5.39616 12.2048 5.10449 12.3229C4.81283 12.4409 4.50033 12.5 4.16699 12.5C3.47255 12.5 2.88227 12.2569 2.39616 11.7708C1.91005 11.2847 1.66699 10.6944 1.66699 9.99996C1.66699 9.30551 1.91005 8.71524 2.39616 8.22913C2.88227 7.74301 3.47255 7.49996 4.16699 7.49996C4.50033 7.49996 4.81283 7.55899 5.10449 7.67704C5.39616 7.7951 5.6531 7.95829 5.87533 8.16663L11.7295 4.74996C11.7017 4.65274 11.6844 4.55899 11.6774 4.46871C11.6705 4.37843 11.667 4.27774 11.667 4.16663C11.667 3.47218 11.91 2.8819 12.3962 2.39579C12.8823 1.90968 13.4725 1.66663 14.167 1.66663C14.8614 1.66663 15.4517 1.90968 15.9378 2.39579C16.4239 2.8819 16.667 3.47218 16.667 4.16663C16.667 4.86107 16.4239 5.45135 15.9378 5.93746C15.4517 6.42357 14.8614 6.66663 14.167 6.66663C13.8337 6.66663 13.5212 6.6076 13.2295 6.48954C12.9378 6.37149 12.6809 6.20829 12.4587 5.99996L6.60449 9.41663C6.63227 9.51385 6.64963 9.6076 6.65658 9.69788C6.66352 9.78815 6.66699 9.88885 6.66699 9.99996C6.66699 10.1111 6.66352 10.2118 6.65658 10.302C6.64963 10.3923 6.63227 10.4861 6.60449 10.5833L12.4587 14C12.6809 13.7916 12.9378 13.6284 13.2295 13.5104C13.5212 13.3923 13.8337 13.3333 14.167 13.3333C14.8614 13.3333 15.4517 13.5763 15.9378 14.0625C16.4239 14.5486 16.667 15.1388 16.667 15.8333C16.667 16.5277 16.4239 17.118 15.9378 17.6041C15.4517 18.0902 14.8614 18.3333 14.167 18.3333ZM14.167 16.6666C14.4031 16.6666 14.601 16.5868 14.7607 16.427C14.9205 16.2673 15.0003 16.0694 15.0003 15.8333C15.0003 15.5972 14.9205 15.3993 14.7607 15.2395C14.601 15.0798 14.4031 15 14.167 15C13.9309 15 13.733 15.0798 13.5732 15.2395C13.4135 15.3993 13.3337 15.5972 13.3337 15.8333C13.3337 16.0694 13.4135 16.2673 13.5732 16.427C13.733 16.5868 13.9309 16.6666 14.167 16.6666ZM4.16699 10.8333C4.4031 10.8333 4.60102 10.7534 4.76074 10.5937C4.92046 10.434 5.00033 10.2361 5.00033 9.99996C5.00033 9.76385 4.92046 9.56593 4.76074 9.40621C4.60102 9.24649 4.4031 9.16663 4.16699 9.16663C3.93088 9.16663 3.73296 9.24649 3.57324 9.40621C3.41352 9.56593 3.33366 9.76385 3.33366 9.99996C3.33366 10.2361 3.41352 10.434 3.57324 10.5937C3.73296 10.7534 3.93088 10.8333 4.16699 10.8333ZM14.167 4.99996C14.4031 4.99996 14.601 4.9201 14.7607 4.76038C14.9205 4.60065 15.0003 4.40274 15.0003 4.16663C15.0003 3.93051 14.9205 3.7326 14.7607 3.57288C14.601 3.41315 14.4031 3.33329 14.167 3.33329C13.9309 3.33329 13.733 3.41315 13.5732 3.57288C13.4135 3.7326 13.3337 3.93051 13.3337 4.16663C13.3337 4.40274 13.4135 4.60065 13.5732 4.76038C13.733 4.9201 13.9309 4.99996 14.167 4.99996Z" fill="#030615"/>
</svg>
