<svg width="20" height="20" viewBox="0 0 20 20" fill="none" xmlns="http://www.w3.org/2000/svg">
<path d="M16.192 10.8167C16.2254 10.55 16.2504 10.2833 16.2504 10C16.2504 9.71666 16.2254 9.45 16.192 9.18333L17.9504 7.80833C18.1087 7.68333 18.1504 7.45833 18.0504 7.275L16.3837 4.39166C16.3346 4.30569 16.2564 4.24001 16.1633 4.20642C16.0701 4.17282 15.9681 4.1735 15.8754 4.20833L13.8004 5.04167C13.367 4.70833 12.9004 4.43333 12.392 4.225L12.0754 2.01667C12.0616 1.91862 12.0125 1.82897 11.9373 1.76453C11.8621 1.70009 11.766 1.66529 11.667 1.66666H8.33369C8.12535 1.66666 7.95035 1.81667 7.92535 2.01667L7.60869 4.225C7.10035 4.43333 6.63369 4.71667 6.20035 5.04167L4.12535 4.20833C4.07704 4.19194 4.02638 4.1835 3.97535 4.18333C3.83369 4.18333 3.69202 4.25833 3.61702 4.39166L1.95035 7.275C1.84202 7.45833 1.89202 7.68333 2.05035 7.80833L3.80869 9.18333C3.77535 9.45 3.75035 9.725 3.75035 10C3.75035 10.275 3.77535 10.55 3.80869 10.8167L2.05035 12.1917C1.89202 12.3167 1.85035 12.5417 1.95035 12.725L3.61702 15.6083C3.66615 15.6943 3.74429 15.76 3.83744 15.7936C3.93059 15.8272 4.03266 15.8265 4.12535 15.7917L6.20035 14.9583C6.63369 15.2917 7.10035 15.5667 7.60869 15.775L7.92535 17.9833C7.95035 18.1833 8.12535 18.3333 8.33369 18.3333H11.667C11.8754 18.3333 12.0504 18.1833 12.0754 17.9833L12.392 15.775C12.9004 15.5667 13.367 15.2833 13.8004 14.9583L15.8754 15.7917C15.9254 15.8083 15.9754 15.8167 16.0254 15.8167C16.167 15.8167 16.3087 15.7417 16.3837 15.6083L18.0504 12.725C18.1504 12.5417 18.1087 12.3167 17.9504 12.1917L16.192 10.8167ZM14.542 9.39166C14.5754 9.65 14.5837 9.825 14.5837 10C14.5837 10.175 14.567 10.3583 14.542 10.6083L14.4254 11.55L15.167 12.1333L16.067 12.8333L15.4837 13.8417L14.4254 13.4167L13.5587 13.0667L12.8087 13.6333C12.4504 13.9 12.1087 14.1 11.767 14.2417L10.8837 14.6L10.7504 15.5417L10.5837 16.6667H9.41702L9.25869 15.5417L9.12535 14.6L8.24202 14.2417C7.88369 14.0917 7.55035 13.9 7.21702 13.65L6.45869 13.0667L5.57535 13.425L4.51702 13.85L3.93369 12.8417L4.83369 12.1417L5.57535 11.5583L5.45869 10.6167C5.43369 10.3583 5.41702 10.1667 5.41702 10C5.41702 9.83333 5.43369 9.64166 5.45869 9.39166L5.57535 8.45L4.83369 7.86666L3.93369 7.16667L4.51702 6.15833L5.57535 6.58333L6.44202 6.93333L7.19202 6.36666C7.55035 6.1 7.89202 5.9 8.23369 5.75833L9.11702 5.4L9.25035 4.45833L9.41702 3.33333H10.5754L10.7337 4.45833L10.867 5.4L11.7504 5.75833C12.1087 5.90833 12.442 6.1 12.7754 6.35L13.5337 6.93333L14.417 6.575L15.4754 6.15L16.0587 7.15833L15.167 7.86666L14.4254 8.45L14.542 9.39166ZM10.0004 6.66666C8.15869 6.66666 6.66702 8.15833 6.66702 10C6.66702 11.8417 8.15869 13.3333 10.0004 13.3333C11.842 13.3333 13.3337 11.8417 13.3337 10C13.3337 8.15833 11.842 6.66666 10.0004 6.66666ZM10.0004 11.6667C9.08369 11.6667 8.33369 10.9167 8.33369 10C8.33369 9.08333 9.08369 8.33333 10.0004 8.33333C10.917 8.33333 11.667 9.08333 11.667 10C11.667 10.9167 10.917 11.6667 10.0004 11.6667Z" fill="#030615"/>
</svg>
