<svg width="20" height="20" viewBox="0 0 20 20" fill="none" xmlns="http://www.w3.org/2000/svg">
<path d="M9.99967 18.3334C8.06912 17.8472 6.47537 16.7396 5.21842 15.0104C3.96148 13.2813 3.33301 11.3611 3.33301 9.25002V4.16669L9.99967 1.66669L16.6663 4.16669V9.25002C16.6663 11.3611 16.0379 13.2813 14.7809 15.0104C13.524 16.7396 11.9302 17.8472 9.99967 18.3334ZM9.99967 16.5834C11.4441 16.125 12.6386 15.2084 13.583 13.8334C14.5275 12.4584 14.9997 10.9306 14.9997 9.25002V5.31252L9.99967 3.43752L4.99967 5.31252V9.25002C4.99967 10.9306 5.4719 12.4584 6.41634 13.8334C7.36079 15.2084 8.55523 16.125 9.99967 16.5834Z" fill="#030615"/>
</svg>
