<svg width="20" height="20" viewBox="0 0 20 20" fill="none" xmlns="http://www.w3.org/2000/svg">
<path d="M7.16667 13L4.16667 10L7.16667 7L8.33333 8.1875L6.52083 10L8.33333 11.8125L7.16667 13ZM12.8333 13L11.6667 11.8125L13.4792 10L11.6667 8.1875L12.8333 7L15.8333 10L12.8333 13ZM4.16667 17.5C3.70833 17.5 3.31597 17.3368 2.98958 17.0104C2.66319 16.684 2.5 16.2917 2.5 15.8333V12.5H4.16667V15.8333H7.5V17.5H4.16667ZM12.5 17.5V15.8333H15.8333V12.5H17.5V15.8333C17.5 16.2917 17.3368 16.684 17.0104 17.0104C16.684 17.3368 16.2917 17.5 15.8333 17.5H12.5ZM2.5 7.5V4.16667C2.5 3.70833 2.66319 3.31597 2.98958 2.98958C3.31597 2.66319 3.70833 2.5 4.16667 2.5H7.5V4.16667H4.16667V7.5H2.5ZM15.8333 7.5V4.16667H12.5V2.5H15.8333C16.2917 2.5 16.684 2.66319 17.0104 2.98958C17.3368 3.31597 17.5 3.70833 17.5 4.16667V7.5H15.8333Z" fill="#030615"/>
</svg>
