<svg width="16" height="16" viewBox="0 0 16 16" fill="none" xmlns="http://www.w3.org/2000/svg">
<path fill-rule="evenodd" clip-rule="evenodd" d="M11.6512 10.8738L10.5583 9.78088L10.2447 9.4673L9.62126 10.0908L9.93483 10.4044L11.6802 12.1498C11.9111 12.3807 12.2844 12.3818 12.514 12.1522L14.2492 10.417L14.5609 10.1052L13.9338 9.4781L13.622 9.78984L12.5355 10.8763L12.514 3.51656C12.514 3.51656 11.6549 3.48882 11.6297 3.51399L11.6512 10.8738Z" fill="#030615"/>
<path d="M6.09726 8.52539L0.998358 8.52539L0.998358 7.29462L6.09726 7.29462L6.09726 8.52539Z" fill="#030615"/>
<path d="M8.73462 5.18473L0.822534 5.18473L0.822534 3.95396L8.73462 3.95396L8.73462 5.18473Z" fill="#030615"/>
<path d="M4.51484 12.0419L0.998357 12.0419L0.998357 10.8111L4.51484 10.8111L4.51484 12.0419Z" fill="#030615"/>
</svg>
