<svg width="20" height="20" viewBox="0 0 20 20" fill="none" xmlns="http://www.w3.org/2000/svg">
<g clip-path="url(#clip0_3686_8940)">
<path d="M16.8122 2.1875C17.3645 2.1875 17.8122 2.63522 17.8122 3.1875L17.8132 11.4551C17.3553 10.9571 16.7865 10.5625 16.146 10.3106L16.1456 8.1875H12.8747L12.8746 10.3024C12.4167 10.4798 11.995 10.73 11.6238 11.0388L11.6247 8.1875H8.37468V11.5417L11.1085 11.542C10.7867 11.9106 10.5241 12.3321 10.3354 12.7917L8.37468 12.7917V16.1458L10.3104 16.1462C10.5586 16.7773 10.9452 17.3387 11.4329 17.7931L3.20801 17.7917C2.65573 17.7917 2.20801 17.344 2.20801 16.7917V3.1875C2.20801 2.63522 2.65573 2.1875 3.20801 2.1875H16.8122ZM7.12468 12.7917H3.85385V16.1458H7.12468V12.7917ZM7.12468 8.1875H3.85385V11.5417H7.12468V8.1875ZM16.1456 3.85417H3.85385V6.9375H16.1456V3.85417Z" fill="#030615"/>
<path fill-rule="evenodd" clip-rule="evenodd" d="M14.7197 13.5H12.5303V12H17.2803V16.75H15.7803V14.5608L13.0607 17.2804L12 16.2197L14.7197 13.5Z" fill="#030615"/>
</g>
<defs>
<clipPath id="clip0_3686_8940">
<rect width="20" height="20" fill="white"/>
</clipPath>
</defs>
</svg>
