<svg width="20" height="20" viewBox="0 0 20 20" fill="none" xmlns="http://www.w3.org/2000/svg">
<path d="M10.0003 1.66669C5.40033 1.66669 1.66699 5.40002 1.66699 10C1.66699 14.6 5.40033 18.3334 10.0003 18.3334C14.6003 18.3334 18.3337 14.6 18.3337 10C18.3337 5.40002 14.6003 1.66669 10.0003 1.66669ZM10.0003 16.6667C6.32533 16.6667 3.33366 13.675 3.33366 10C3.33366 6.32502 6.32533 3.33335 10.0003 3.33335C13.6753 3.33335 16.667 6.32502 16.667 10C16.667 13.675 13.6753 16.6667 10.0003 16.6667ZM13.8253 6.31669L8.33366 11.8084L6.17533 9.65835L5.00033 10.8334L8.33366 14.1667L15.0003 7.50002L13.8253 6.31669Z" fill="#030615"/>
</svg>
