<svg width="16" height="16" viewBox="0 0 16 16" fill="none" xmlns="http://www.w3.org/2000/svg">
<path d="M10.6936 12.3064L11.5 14L12.3064 12.3064L14 11.5L12.3064 10.6936L11.5 9L10.6936 10.6936L9 11.5L10.6936 12.3064Z" fill="#030615"/>
<path d="M12.667 2C13.0205 2.00009 13.3594 2.14065 13.6094 2.39062C13.8593 2.6406 13.9999 2.9795 14 3.33301V8H12.667V4.66699H3.33301V12.667H8V14H3.33301C2.9795 13.9999 2.6406 13.8593 2.39062 13.6094C2.14065 13.3594 2.00009 13.0205 2 12.667V3.33301C2.00009 2.9795 2.14065 2.6406 2.39062 2.39062C2.6406 2.14065 2.9795 2.00009 3.33301 2H12.667ZM8 10.667H4.66699V9.33301H8V10.667ZM11.333 8H4.66699V6.66699H11.333V8Z" fill="#030615"/>
</svg>
