<svg width="20" height="20" viewBox="0 0 20 20" fill="none" xmlns="http://www.w3.org/2000/svg">
<path d="M9.95866 15C10.2503 15 10.4969 14.8993 10.6982 14.6979C10.8996 14.4965 11.0003 14.25 11.0003 13.9584C11.0003 13.6667 10.8996 13.4202 10.6982 13.2188C10.4969 13.0174 10.2503 12.9167 9.95866 12.9167C9.66699 12.9167 9.42046 13.0174 9.21908 13.2188C9.01769 13.4202 8.91699 13.6667 8.91699 13.9584C8.91699 14.25 9.01769 14.4965 9.21908 14.6979C9.42046 14.8993 9.66699 15 9.95866 15ZM9.20866 11.7917H10.7503C10.7503 11.3334 10.8024 10.9722 10.9066 10.7084C11.0107 10.4445 11.3059 10.0834 11.792 9.62502C12.1531 9.26391 12.4378 8.92016 12.6462 8.59377C12.8545 8.26738 12.9587 7.87502 12.9587 7.41669C12.9587 6.63891 12.6739 6.04169 12.1045 5.62502C11.535 5.20835 10.8614 5.00002 10.0837 5.00002C9.29199 5.00002 8.64963 5.20835 8.15658 5.62502C7.66352 6.04169 7.31977 6.54169 7.12533 7.12502L8.50033 7.66669C8.56977 7.41669 8.72602 7.14585 8.96908 6.85419C9.21213 6.56252 9.58366 6.41669 10.0837 6.41669C10.5281 6.41669 10.8614 6.53821 11.0837 6.78127C11.3059 7.02433 11.417 7.29169 11.417 7.58335C11.417 7.86113 11.3337 8.12155 11.167 8.3646C11.0003 8.60766 10.792 8.83335 10.542 9.04169C9.93088 9.58335 9.55588 9.99308 9.41699 10.2709C9.2781 10.5486 9.20866 11.0556 9.20866 11.7917ZM10.0003 18.3334C8.84755 18.3334 7.76421 18.1146 6.75033 17.6771C5.73644 17.2396 4.85449 16.6459 4.10449 15.8959C3.35449 15.1459 2.76074 14.2639 2.32324 13.25C1.88574 12.2361 1.66699 11.1528 1.66699 10C1.66699 8.84724 1.88574 7.76391 2.32324 6.75002C2.76074 5.73613 3.35449 4.85419 4.10449 4.10419C4.85449 3.35419 5.73644 2.76044 6.75033 2.32294C7.76421 1.88544 8.84755 1.66669 10.0003 1.66669C11.1531 1.66669 12.2364 1.88544 13.2503 2.32294C14.2642 2.76044 15.1462 3.35419 15.8962 4.10419C16.6462 4.85419 17.2399 5.73613 17.6774 6.75002C18.1149 7.76391 18.3337 8.84724 18.3337 10C18.3337 11.1528 18.1149 12.2361 17.6774 13.25C17.2399 14.2639 16.6462 15.1459 15.8962 15.8959C15.1462 16.6459 14.2642 17.2396 13.2503 17.6771C12.2364 18.1146 11.1531 18.3334 10.0003 18.3334ZM10.0003 16.6667C11.8614 16.6667 13.4378 16.0209 14.7295 14.7292C16.0212 13.4375 16.667 11.8611 16.667 10C16.667 8.13891 16.0212 6.56252 14.7295 5.27085C13.4378 3.97919 11.8614 3.33335 10.0003 3.33335C8.13921 3.33335 6.56283 3.97919 5.27116 5.27085C3.97949 6.56252 3.33366 8.13891 3.33366 10C3.33366 11.8611 3.97949 13.4375 5.27116 14.7292C6.56283 16.0209 8.13921 16.6667 10.0003 16.6667Z" fill="#030615"/>
</svg>
