<?xml version="1.0" encoding="UTF-8"?>
<svg width="16px" height="16px" viewBox="0 0 16 16" version="1.1" xmlns="http://www.w3.org/2000/svg" xmlns:xlink="http://www.w3.org/1999/xlink">
    <title>tag</title>
    <g id="Page-1" stroke="none" stroke-width="1" fill="none" fill-rule="evenodd">
        <g id="local_offer" transform="translate(1.000000, 1.000000)" fill="#000000" fill-rule="nonzero">
            <path d="M13.587,6.706 L7.287,0.406 C7.035,0.154 6.685,0 6.3,0 L1.4,0 C0.63,0 0,0.63 0,1.4 L0,6.3 C0,6.685 0.154,7.035 0.413,7.294 L6.713,13.594 C6.965,13.846 7.315,14 7.7,14 C8.085,14 8.435,13.846 8.687,13.587 L13.587,8.687 C13.846,8.435 14,8.085 14,7.7 C14,7.315 13.839,6.958 13.587,6.706 Z M7.7,12.607 L1.4,6.3 L1.4,1.4 L6.3,1.4 L6.3,1.393 L12.6,7.693 L7.7,12.607 L7.7,12.607 Z" id="Shape"></path>
            <circle id="Oval" cx="3.8" cy="3.8" r="1"></circle>
        </g>
    </g>
</svg>