<svg width="20" height="20" viewBox="0 0 20 20" fill="none" xmlns="http://www.w3.org/2000/svg">
<path fill-rule="evenodd" clip-rule="evenodd" d="M3.5 3.5H8.34315C9.00619 3.5 9.64207 3.76339 10.1109 4.23223L15.8787 10L10 15.8787L4.23223 10.1109C3.76339 9.64207 3.5 9.00619 3.5 8.34315V3.5ZM18 10L16.9393 8.93934L11.1716 3.17157C10.4214 2.42143 9.40401 2 8.34315 2H3.5H2V3.5V8.34315C2 9.40401 2.42143 10.4214 3.17157 11.1716L8.93934 16.9393L10 18L11.0607 16.9393L16.9393 11.0607L18 10ZM6.5 7.25C6.91421 7.25 7.25 6.91421 7.25 6.5C7.25 6.08579 6.91421 5.75 6.5 5.75C6.08579 5.75 5.75 6.08579 5.75 6.5C5.75 6.91421 6.08579 7.25 6.5 7.25Z" fill="#030615"/>
</svg>
