<svg width="20" height="20" viewBox="0 0 20 20" fill="none" xmlns="http://www.w3.org/2000/svg">
<path d="M14.1663 5H5.83301C3.07467 5 0.833008 7.24167 0.833008 10C0.833008 12.7583 3.07467 15 5.83301 15H14.1663C16.9247 15 19.1663 12.7583 19.1663 10C19.1663 7.24167 16.9247 5 14.1663 5ZM14.1663 13.3333H5.83301C3.99134 13.3333 2.49967 11.8417 2.49967 10C2.49967 8.15833 3.99134 6.66667 5.83301 6.66667H14.1663C16.008 6.66667 17.4997 8.15833 17.4997 10C17.4997 11.8417 16.008 13.3333 14.1663 13.3333ZM5.83301 7.5C4.44967 7.5 3.33301 8.61667 3.33301 10C3.33301 11.3833 4.44967 12.5 5.83301 12.5C7.21634 12.5 8.33301 11.3833 8.33301 10C8.33301 8.61667 7.21634 7.5 5.83301 7.5Z" fill="#030615"/>
</svg>
