<svg width="20" height="20" viewBox="0 0 20 20" fill="none" xmlns="http://www.w3.org/2000/svg">
<g clip-path="url(#clip0_3686_7014)">
<path d="M13.3907 12H11.4134L14.4262 3.27273H16.8041L19.8126 12H17.8353L15.6492 5.26705H15.5811L13.3907 12ZM13.2671 8.5696H17.9376V10.0099H13.2671V8.5696Z" fill="#030615"/>
<path d="M1.875 10.625C2.56536 10.625 3.125 10.0654 3.125 9.375C3.125 8.68464 2.56536 8.125 1.875 8.125C1.18464 8.125 0.625 8.68464 0.625 9.375C0.625 10.0654 1.18464 10.625 1.875 10.625Z" fill="#030615" stroke="#030615"/>
<path d="M7.5 10.625C8.19036 10.625 8.75 10.0654 8.75 9.375C8.75 8.68464 8.19036 8.125 7.5 8.125C6.80964 8.125 6.25 8.68464 6.25 9.375C6.25 10.0654 6.80964 10.625 7.5 10.625Z" fill="#030615" stroke="#030615"/>
</g>
<defs>
<clipPath id="clip0_3686_7014">
<rect width="20" height="20" fill="white"/>
</clipPath>
</defs>
</svg>
