<svg width="20" height="20" viewBox="0 0 20 20" fill="none" xmlns="http://www.w3.org/2000/svg">
<path d="M10 18.3334L2.5 14.1667V5.83335L10 1.66669L17.5 5.83335V14.1667L10 18.3334ZM7.58333 7.70835C7.90278 7.37502 8.27083 7.11808 8.6875 6.93752C9.10417 6.75696 9.54167 6.66669 10 6.66669C10.4583 6.66669 10.8958 6.75696 11.3125 6.93752C11.7292 7.11808 12.0972 7.37502 12.4167 7.70835L14.9167 6.31252L10 3.58335L5.08333 6.31252L7.58333 7.70835ZM9.16667 15.9584V13.2292C8.41667 13.0347 7.8125 12.6389 7.35417 12.0417C6.89583 11.4445 6.66667 10.7639 6.66667 10C6.66667 9.84724 6.67361 9.70488 6.6875 9.57294C6.70139 9.44099 6.72917 9.30558 6.77083 9.16669L4.16667 7.70835V13.1875L9.16667 15.9584ZM10 11.6667C10.4583 11.6667 10.8507 11.5035 11.1771 11.1771C11.5035 10.8507 11.6667 10.4584 11.6667 10C11.6667 9.54169 11.5035 9.14933 11.1771 8.82294C10.8507 8.49655 10.4583 8.33335 10 8.33335C9.54167 8.33335 9.14931 8.49655 8.82292 8.82294C8.49653 9.14933 8.33333 9.54169 8.33333 10C8.33333 10.4584 8.49653 10.8507 8.82292 11.1771C9.14931 11.5035 9.54167 11.6667 10 11.6667ZM10.8333 15.9584L15.8333 13.1875V7.70835L13.2292 9.16669C13.2708 9.30558 13.2986 9.44099 13.3125 9.57294C13.3264 9.70488 13.3333 9.84724 13.3333 10C13.3333 10.7639 13.1042 11.4445 12.6458 12.0417C12.1875 12.6389 11.5833 13.0347 10.8333 13.2292V15.9584Z" fill="#030615"/>
</svg>
