<svg width="20" height="20" viewBox="0 0 20 20" fill="none" xmlns="http://www.w3.org/2000/svg">
<path d="M15.833 6.66665L12.4997 9.99998H14.9997C14.9997 12.7583 12.758 15 9.99967 15C9.18547 15.0028 8.38345 14.8022 7.66634 14.4166L6.44967 15.6333C7.51058 16.3085 8.74213 16.667 9.99967 16.6666C13.683 16.6666 16.6663 13.6833 16.6663 9.99998H19.1663L15.833 6.66665ZM4.99967 9.99998C4.99967 7.24165 7.24134 4.99998 9.99967 4.99998C10.8413 4.99998 11.6413 5.20831 12.333 5.58331L13.5497 4.36665C12.4888 3.69144 11.2572 3.33296 9.99967 3.33331C6.31634 3.33331 3.33301 6.31665 3.33301 9.99998H0.833008L4.16634 13.3333L7.49967 9.99998H4.99967Z" fill="#030615"/>
</svg>
