<svg width="20" height="20" viewBox="0 0 20 20" fill="none" xmlns="http://www.w3.org/2000/svg">
<path d="M4.99967 6.66671H12.4997V5.00004C12.4997 4.3056 12.2566 3.71532 11.7705 3.22921C11.2844 2.7431 10.6941 2.50004 9.99967 2.50004C9.30523 2.50004 8.71495 2.7431 8.22884 3.22921C7.74273 3.71532 7.49967 4.3056 7.49967 5.00004H5.83301C5.83301 3.84726 6.23926 2.86462 7.05176 2.05212C7.86426 1.23962 8.8469 0.833374 9.99967 0.833374C11.1525 0.833374 12.1351 1.23962 12.9476 2.05212C13.7601 2.86462 14.1663 3.84726 14.1663 5.00004V6.66671H14.9997C15.458 6.66671 15.8504 6.8299 16.1768 7.15629C16.5031 7.48268 16.6663 7.87504 16.6663 8.33337V16.6667C16.6663 17.125 16.5031 17.5174 16.1768 17.8438C15.8504 18.1702 15.458 18.3334 14.9997 18.3334H4.99967C4.54134 18.3334 4.14898 18.1702 3.82259 17.8438C3.4962 17.5174 3.33301 17.125 3.33301 16.6667V8.33337C3.33301 7.87504 3.4962 7.48268 3.82259 7.15629C4.14898 6.8299 4.54134 6.66671 4.99967 6.66671ZM4.99967 16.6667H14.9997V8.33337H4.99967V16.6667ZM9.99967 14.1667C10.458 14.1667 10.8504 14.0035 11.1768 13.6771C11.5031 13.3507 11.6663 12.9584 11.6663 12.5C11.6663 12.0417 11.5031 11.6493 11.1768 11.323C10.8504 10.9966 10.458 10.8334 9.99967 10.8334C9.54134 10.8334 9.14898 10.9966 8.82259 11.323C8.4962 11.6493 8.33301 12.0417 8.33301 12.5C8.33301 12.9584 8.4962 13.3507 8.82259 13.6771C9.14898 14.0035 9.54134 14.1667 9.99967 14.1667Z" fill="#030615"/>
</svg>
