<svg width="20" height="20" viewBox="0 0 20 20" fill="none" xmlns="http://www.w3.org/2000/svg">
<path d="M2.5 16.6667V15H4.79167L4.45833 14.7084C3.73611 14.0695 3.22917 13.3403 2.9375 12.5209C2.64583 11.7014 2.5 10.875 2.5 10.0417C2.5 8.50004 2.96181 7.12851 3.88542 5.92712C4.80903 4.72574 6.01389 3.9306 7.5 3.54171V5.29171C6.5 5.65282 5.69444 6.2674 5.08333 7.13546C4.47222 8.00351 4.16667 8.97226 4.16667 10.0417C4.16667 10.6667 4.28472 11.2743 4.52083 11.8646C4.75694 12.4549 5.125 13 5.625 13.5L5.83333 13.7084V11.6667H7.5V16.6667H2.5ZM10 14.1667C9.76389 14.1667 9.56597 14.0868 9.40625 13.9271C9.24653 13.7674 9.16667 13.5695 9.16667 13.3334C9.16667 13.0973 9.24653 12.8993 9.40625 12.7396C9.56597 12.5799 9.76389 12.5 10 12.5C10.2361 12.5 10.434 12.5799 10.5938 12.7396C10.7535 12.8993 10.8333 13.0973 10.8333 13.3334C10.8333 13.5695 10.7535 13.7674 10.5938 13.9271C10.434 14.0868 10.2361 14.1667 10 14.1667ZM9.16667 10.8334V5.83337H10.8333V10.8334H9.16667ZM12.5 16.4584V14.7084C13.5 14.3473 14.3056 13.7327 14.9167 12.8646C15.5278 11.9966 15.8333 11.0278 15.8333 9.95837C15.8333 9.33337 15.7153 8.72573 15.4792 8.13546C15.2431 7.54518 14.875 7.00004 14.375 6.50004L14.1667 6.29171V8.33337H12.5V3.33337H17.5V5.00004H15.2083L15.5417 5.29171C16.2222 5.97226 16.7188 6.71185 17.0312 7.51046C17.3438 8.30907 17.5 9.12504 17.5 9.95837C17.5 11.5 17.0382 12.8716 16.1146 14.073C15.191 15.2743 13.9861 16.0695 12.5 16.4584Z" fill="#030615"/>
</svg>
