<svg width="20" height="20" viewBox="0 0 20 20" fill="none" xmlns="http://www.w3.org/2000/svg">
<path d="M4.87533 14.25C5.58366 13.7083 6.37533 13.2812 7.25033 12.9687C8.12533 12.6562 9.04199 12.5 10.0003 12.5C10.9587 12.5 11.8753 12.6562 12.7503 12.9687C13.6253 13.2812 14.417 13.7083 15.1253 14.25C15.6114 13.6805 15.9899 13.0347 16.2607 12.3125C16.5316 11.5902 16.667 10.8194 16.667 9.99996C16.667 8.15274 16.0177 6.57982 14.7191 5.28121C13.4205 3.9826 11.8475 3.33329 10.0003 3.33329C8.1531 3.33329 6.58019 3.9826 5.28158 5.28121C3.98296 6.57982 3.33366 8.15274 3.33366 9.99996C3.33366 10.8194 3.46908 11.5902 3.73991 12.3125C4.01074 13.0347 4.38921 13.6805 4.87533 14.25ZM10.0003 10.8333C9.18088 10.8333 8.48991 10.552 7.92741 9.98954C7.36491 9.42704 7.08366 8.73607 7.08366 7.91663C7.08366 7.09718 7.36491 6.40621 7.92741 5.84371C8.48991 5.28121 9.18088 4.99996 10.0003 4.99996C10.8198 4.99996 11.5107 5.28121 12.0732 5.84371C12.6357 6.40621 12.917 7.09718 12.917 7.91663C12.917 8.73607 12.6357 9.42704 12.0732 9.98954C11.5107 10.552 10.8198 10.8333 10.0003 10.8333ZM10.0003 18.3333C8.84755 18.3333 7.76421 18.1145 6.75033 17.677C5.73644 17.2395 4.85449 16.6458 4.10449 15.8958C3.35449 15.1458 2.76074 14.2638 2.32324 13.25C1.88574 12.2361 1.66699 11.1527 1.66699 9.99996C1.66699 8.84718 1.88574 7.76385 2.32324 6.74996C2.76074 5.73607 3.35449 4.85413 4.10449 4.10413C4.85449 3.35413 5.73644 2.76038 6.75033 2.32288C7.76421 1.88538 8.84755 1.66663 10.0003 1.66663C11.1531 1.66663 12.2364 1.88538 13.2503 2.32288C14.2642 2.76038 15.1462 3.35413 15.8962 4.10413C16.6462 4.85413 17.2399 5.73607 17.6774 6.74996C18.1149 7.76385 18.3337 8.84718 18.3337 9.99996C18.3337 11.1527 18.1149 12.2361 17.6774 13.25C17.2399 14.2638 16.6462 15.1458 15.8962 15.8958C15.1462 16.6458 14.2642 17.2395 13.2503 17.677C12.2364 18.1145 11.1531 18.3333 10.0003 18.3333ZM10.0003 16.6666C10.7364 16.6666 11.4309 16.559 12.0837 16.3437C12.7364 16.1284 13.3337 15.8194 13.8753 15.4166C13.3337 15.0138 12.7364 14.7048 12.0837 14.4895C11.4309 14.2743 10.7364 14.1666 10.0003 14.1666C9.26421 14.1666 8.56977 14.2743 7.91699 14.4895C7.26421 14.7048 6.66699 15.0138 6.12533 15.4166C6.66699 15.8194 7.26421 16.1284 7.91699 16.3437C8.56977 16.559 9.26421 16.6666 10.0003 16.6666ZM10.0003 9.16663C10.3614 9.16663 10.66 9.04857 10.8962 8.81246C11.1323 8.57635 11.2503 8.27774 11.2503 7.91663C11.2503 7.55551 11.1323 7.2569 10.8962 7.02079C10.66 6.78468 10.3614 6.66663 10.0003 6.66663C9.63921 6.66663 9.3406 6.78468 9.10449 7.02079C8.86838 7.2569 8.75033 7.55551 8.75033 7.91663C8.75033 8.27774 8.86838 8.57635 9.10449 8.81246C9.3406 9.04857 9.63921 9.16663 10.0003 9.16663Z" fill="#030615"/>
</svg>
