<svg width="20" height="20" viewBox="0 0 20 20" fill="none" xmlns="http://www.w3.org/2000/svg">
<path d="M1.66634 15.8334V14.1667H18.333V15.8334H1.66634ZM2.62467 10.7917L1.54134 10.1667L2.24967 8.91671H0.833008V7.66671H2.24967L1.54134 6.45837L2.62467 5.83337L3.33301 7.04171L4.04134 5.83337L5.12467 6.45837L4.41634 7.66671H5.83301V8.91671H4.41634L5.12467 10.1667L4.04134 10.7917L3.33301 9.54171L2.62467 10.7917ZM9.29134 10.7917L8.20801 10.1667L8.91634 8.91671H7.49967V7.66671H8.91634L8.20801 6.45837L9.29134 5.83337L9.99967 7.04171L10.708 5.83337L11.7913 6.45837L11.083 7.66671H12.4997V8.91671H11.083L11.7913 10.1667L10.708 10.7917L9.99967 9.54171L9.29134 10.7917ZM15.958 10.7917L14.8747 10.1667L15.583 8.91671H14.1663V7.66671H15.583L14.8747 6.45837L15.958 5.83337L16.6663 7.04171L17.3747 5.83337L18.458 6.45837L17.7497 7.66671H19.1663V8.91671H17.7497L18.458 10.1667L17.3747 10.7917L16.6663 9.54171L15.958 10.7917Z" fill="#030615"/>
</svg>
