<svg width="20" height="20" viewBox="0 0 20 20" fill="none" xmlns="http://www.w3.org/2000/svg">
<path d="M7.16634 18.75L5.58301 16.0833L2.58301 15.4167L2.87467 12.3333L0.833008 10L2.87467 7.66667L2.58301 4.58333L5.58301 3.91667L7.16634 1.25L9.99967 2.45833L12.833 1.25L14.4163 3.91667L17.4163 4.58333L17.1247 7.66667L19.1663 10L17.1247 12.3333L17.4163 15.4167L14.4163 16.0833L12.833 18.75L9.99967 17.5417L7.16634 18.75ZM7.87467 16.625L9.99967 15.7083L12.1663 16.625L13.333 14.625L15.6247 14.0833L15.4163 11.75L16.958 10L15.4163 8.20833L15.6247 5.875L13.333 5.375L12.1247 3.375L9.99967 4.29167L7.83301 3.375L6.66634 5.375L4.37467 5.875L4.58301 8.20833L3.04134 10L4.58301 11.75L4.37467 14.125L6.66634 14.625L7.87467 16.625ZM9.12467 12.9583L13.833 8.25L12.6663 7.04167L9.12467 10.5833L7.33301 8.83333L6.16634 10L9.12467 12.9583Z" fill="#030615"/>
</svg>
