<svg width="20" height="20" viewBox="0 0 20 20" fill="none" xmlns="http://www.w3.org/2000/svg">
    <path
        d="M2.52087 14.1667V5.83332C2.52087 5.37499 2.68407 4.98263 3.01046 4.65624C3.33685 4.32985 3.72921 4.16666 4.18754 4.16666H15.8334C16.2917 4.16666 16.6841 4.32985 17.0105 4.65624C17.3368 4.98263 17.5 5.37499 17.5 5.83332V14.1667C17.5 14.625 17.3368 15.0174 17.0105 15.3437C16.6841 15.6701 16.2917 15.8333 15.8334 15.8333H4.18754C3.72921 15.8333 3.33685 15.6701 3.01046 15.3437C2.68407 15.0174 2.52087 14.625 2.52087 14.1667ZM4.16671 14.1667H6.93754V5.83332H4.16671V14.1667ZM8.60421 14.1667H11.375V5.83332H8.60421V14.1667ZM13.0417 14.1667H15.8125V5.83332H13.0417V14.1667Z"
        fill="#030615" />
</svg>