<svg width="20" height="20" viewBox="0 0 20 20" fill="none" xmlns="http://www.w3.org/2000/svg">
<path fill-rule="evenodd" clip-rule="evenodd" d="M2.19114 4.06228L2.75169 4.56055L16.2517 16.5605L16.8122 17.0588L17.8088 15.9377L17.2482 15.4394L15.4399 13.832L18.3183 10.4894V9.51059L15.1149 5.79053C12.6442 2.9213 8.36413 2.68473 5.59378 5.07992L3.74824 3.43943L3.18768 2.94116L2.19114 4.06228ZM16.7602 9.99998L14.3187 12.8354L12.6699 11.3698C13.249 10.2417 13.0661 8.82347 12.1213 7.87865C11.0895 6.8469 9.49326 6.72376 8.32676 7.50923L6.72751 6.08767C8.88288 4.36327 12.1023 4.59076 13.9783 6.76931L16.7602 9.99998ZM9.52702 8.57613L11.4693 10.3026C11.5671 9.82531 11.4309 9.30959 11.0606 8.93931C10.6458 8.52446 10.0484 8.4034 9.52702 8.57613ZM1.68164 9.51059L3.40386 7.5106L4.54051 8.48938L3.23971 9.99998L6.02168 13.2307C7.52853 14.9805 9.90301 15.4734 11.8997 14.7017L12.4405 16.1008C9.88008 17.0904 6.82516 16.4625 4.88503 14.2094L1.68164 10.4894V9.51059Z" fill="#030615"/>
</svg>
