<svg width="20" height="20" viewBox="0 0 20 20" fill="none" xmlns="http://www.w3.org/2000/svg">
<path d="M5 5.83333L10 5.83333L10 7.5L5 7.5L5 5.83333ZM7.5 9.16667L12.5 9.16667L12.5 10.8333L7.5 10.8333L7.5 9.16667ZM10 12.5L15 12.5L15 14.1667L10 14.1667L10 12.5ZM4.16667 2.5C3.70833 2.5 3.31597 2.66319 2.98958 2.98958C2.66319 3.31597 2.5 3.70833 2.5 4.16667L2.5 15.8333C2.5 16.2917 2.66319 16.684 2.98958 17.0104C3.31597 17.3368 3.70833 17.5 4.16667 17.5L15.8333 17.5C16.2917 17.5 16.684 17.3368 17.0104 17.0104C17.3368 16.684 17.5 16.2917 17.5 15.8333L17.5 4.16666C17.5 3.70833 17.3368 3.31597 17.0104 2.98958C16.684 2.66319 16.2917 2.5 15.8333 2.5L4.16667 2.5ZM4.16667 4.16667L15.8333 4.16666L15.8333 15.8333L4.16667 15.8333L4.16667 4.16667Z" fill="#030615"/>
</svg>
