<svg width="20" height="20" viewBox="0 0 20 20" fill="none" xmlns="http://www.w3.org/2000/svg">
<g clip-path="url(#clip0_3685_6955)">
<path fill-rule="evenodd" clip-rule="evenodd" d="M7.29362 4.06237C6.43068 5.55703 6.94279 7.46824 8.43745 8.33119L9.24331 8.79645L8.78407 9.60577L6.43249 13.7499C6.51611 13.9413 6.5625 14.1527 6.5625 14.3749C6.5625 15.2379 5.86295 15.9374 5 15.9374C4.13705 15.9374 3.4375 15.2379 3.4375 14.3749C3.4375 13.5792 4.0323 12.9224 4.80154 12.8249L6.7368 9.41444C4.94886 7.87837 4.44821 5.24074 5.66983 3.12487C7.05054 0.733396 10.1085 -0.0859793 12.5 1.29473C14.795 2.61974 15.6421 5.48939 14.4865 7.83233L13.1186 5.42187C13.0522 4.41587 12.5011 3.46048 11.5625 2.91853C10.0678 2.05559 8.15656 2.56769 7.29362 4.06237ZM11.4325 6.24989C11.5161 6.05852 11.5625 5.84714 11.5625 5.62494C11.5625 4.76199 10.863 4.06244 10 4.06244C9.13705 4.06244 8.4375 4.76199 8.4375 5.62494C8.4375 6.42068 9.03232 7.07748 9.80159 7.17496L12.1533 11.3194L12.6195 12.1409L13.4375 11.6686C14.9321 10.8057 16.8434 11.3178 17.7062 12.8124C18.5693 14.3071 18.0571 16.2183 16.5625 17.0813C15.6309 17.6191 14.5375 17.6228 13.637 17.1874H10.8657C12.3237 19.3356 15.2159 20.0238 17.5 18.7051C19.8914 17.3243 20.7108 14.2664 19.3301 11.8749C18.1108 9.76291 15.5831 8.87705 13.3619 9.64991L11.4325 6.24989ZM16.5625 14.3749C16.5625 15.2379 15.863 15.9374 15 15.9374C14.4888 15.9374 14.035 15.6919 13.7499 15.3124H9.91225C9.47344 17.6257 7.44099 19.3749 5 19.3749C2.23857 19.3749 0 17.1363 0 14.3749C0 11.7502 2.02251 9.59776 4.59411 9.39118L3.22623 11.8018C2.4099 12.3656 1.875 13.3078 1.875 14.3749C1.875 16.1008 3.27411 17.4999 5 17.4999C6.72589 17.4999 8.125 16.1008 8.125 14.3749V13.4374H9.0625H13.7499C14.035 13.0579 14.4888 12.8124 15 12.8124C15.863 12.8124 16.5625 13.5119 16.5625 14.3749Z" fill="#030615"/>
</g>
<defs>
<clipPath id="clip0_3685_6955">
<rect width="20" height="20" fill="white"/>
</clipPath>
</defs>
</svg>
