<svg width="20" height="20" viewBox="0 0 20 20" fill="none" xmlns="http://www.w3.org/2000/svg">
<path d="M6.99984 14.1666L9.99984 11.1666L12.9998 14.1666L14.1665 13L11.1665 9.99996L14.1665 6.99996L12.9998 5.83329L9.99984 8.83329L6.99984 5.83329L5.83317 6.99996L8.83317 9.99996L5.83317 13L6.99984 14.1666ZM9.99984 18.3333C8.84706 18.3333 7.76373 18.1145 6.74984 17.677C5.73595 17.2395 4.854 16.6458 4.104 15.8958C3.354 15.1458 2.76025 14.2638 2.32275 13.25C1.88525 12.2361 1.6665 11.1527 1.6665 9.99996C1.6665 8.84718 1.88525 7.76385 2.32275 6.74996C2.76025 5.73607 3.354 4.85413 4.104 4.10413C4.854 3.35413 5.73595 2.76038 6.74984 2.32288C7.76373 1.88538 8.84706 1.66663 9.99984 1.66663C11.1526 1.66663 12.2359 1.88538 13.2498 2.32288C14.2637 2.76038 15.1457 3.35413 15.8957 4.10413C16.6457 4.85413 17.2394 5.73607 17.6769 6.74996C18.1144 7.76385 18.3332 8.84718 18.3332 9.99996C18.3332 11.1527 18.1144 12.2361 17.6769 13.25C17.2394 14.2638 16.6457 15.1458 15.8957 15.8958C15.1457 16.6458 14.2637 17.2395 13.2498 17.677C12.2359 18.1145 11.1526 18.3333 9.99984 18.3333Z" fill="#030615"/>
</svg>
