<svg width="107" height="106" viewBox="0 0 107 106" fill="none" xmlns="http://www.w3.org/2000/svg">
<path d="M47.6483 101.387C47.6507 101.866 47.7518 102.34 47.9454 102.779C48.1389 103.218 48.4206 103.613 48.7731 103.938C49.1256 104.263 49.5413 104.513 49.9943 104.671C50.4473 104.828 50.9279 104.891 51.4063 104.855C69.6181 103.555 86.8181 90.6908 92.3105 70.6C92.5996 69.4437 93.4668 68.8655 94.6231 68.8655C95.7794 68.8655 96.7912 69.8773 96.7912 71.1782C96.7912 75.6588 91.0097 87.3664 82.771 94.1597C81.9038 94.8824 81.4702 95.8941 81.4702 97.0504C81.4702 98.9294 83.0601 100.375 84.9391 100.375C85.6618 100.375 86.8181 99.9412 88.2634 98.6403C94.0449 93.437 105.03 78.8387 105.03 62.795C105.03 39.2714 86.8079 19 61.3794 19C38.687 19 19.0298 37.5008 19.0298 58.8924C19.0298 73.0571 30.3038 83.7529 45.1912 83.7529C56.6096 83.7529 67.1609 75.6588 70.0517 64.5294C70.3407 63.3731 71.208 62.795 72.3643 62.795C73.5206 62.795 74.5323 63.8067 74.5323 65.1076C74.5323 70.1664 64.9928 87.8 45.6248 87.8C40.9996 87.8 35.2181 86.4992 31.171 84.1866C30.6291 83.9236 30.0385 83.776 29.4365 83.7529C27.413 83.7529 25.9676 85.1983 25.9676 87.2219C25.9676 88.3782 26.6903 89.5345 27.7021 90.1126C33.05 93.1479 39.4096 94.7378 45.9139 94.7378C62.1021 94.7378 76.8449 83.7529 81.1811 67.5647C81.4702 66.4084 82.3374 65.8303 83.4937 65.8303C84.65 65.8303 85.6618 66.842 85.6618 68.1429C85.6618 74.7916 73.8096 96.1832 50.9727 97.9177C49.0937 98.0622 47.6483 99.6521 47.6483 101.387Z" fill="#49C188"/>
<path d="M70.2654 46.0287C73.3824 46.0055 76.4421 46.8665 79.0895 48.5118C79.3572 47.0501 79.5056 45.569 79.5332 44.0832C79.5332 37.2205 74.2923 31.0748 67.911 31.0748C62.9475 31.0748 59.8457 35.1768 59.8457 40.2472C59.8253 42.9866 60.7919 45.6419 62.5688 47.727C64.8843 46.6054 67.473 46.0287 70.2654 46.0287Z" fill="white"/>
<path d="M85.2271 70.8895C86.1102 67.8672 86.5019 65.7686 86.5019 64.4056C86.5019 63.3475 85.5421 62.2173 84.2153 62.2173C83.6656 62.2261 83.1348 62.419 82.7077 62.7651C82.2805 63.1113 81.9818 63.5906 81.8594 64.1266C81.618 65.1167 81.1005 67.808 80.5918 69.5164C80.8028 68.8747 80.9955 68.2247 81.1699 67.5666C81.459 66.4103 82.3262 65.8321 83.4825 65.8321C84.6388 65.8321 85.6506 66.8439 85.6506 68.1448C85.6232 69.0757 85.4735 69.999 85.2054 70.891L85.2271 70.8895Z" fill="#12754B"/>
<path d="M97.5117 67.73C97.5117 66.672 96.552 65.5417 95.2266 65.5417C94.6782 65.5526 94.1491 65.7462 93.7231 66.0918C93.2971 66.4374 92.9987 66.9152 92.8749 67.4496C92.6307 68.4527 92.1045 71.1974 91.59 72.9015H91.6146C91.8632 72.1427 92.0973 71.3738 92.3098 70.5889C92.5988 69.4326 93.4661 68.8545 94.6224 68.8545C95.7787 68.8545 96.7904 69.8662 96.7904 71.1671C96.7729 71.8867 96.6736 72.6019 96.4942 73.299C97.1952 70.7754 97.5117 68.9528 97.5117 67.73Z" fill="#12754B"/>
<path d="M36.8804 69.2986C36.1943 69.2986 35.5237 69.0951 34.9532 68.714C34.3827 68.3328 33.9381 67.791 33.6756 67.1572C33.413 66.5233 33.3443 65.8258 33.4782 65.1529C33.612 64.48 33.9424 63.8619 34.4276 63.3768C34.9127 62.8916 35.5308 62.5612 36.2037 62.4274C36.8766 62.2936 37.5741 62.3623 38.2079 62.6248C38.8418 62.8874 39.3836 63.332 39.7647 63.9024C40.1459 64.4729 40.3493 65.1436 40.3493 65.8297C40.3493 66.7497 39.9839 67.632 39.3333 68.2826C38.6828 68.9331 37.8004 69.2986 36.8804 69.2986V69.2986Z" fill="#12754B"/>
<path d="M36.8804 55.7121C36.1943 55.7121 35.5237 55.5087 34.9532 55.1275C34.3827 54.7464 33.9381 54.2046 33.6756 53.5707C33.413 52.9369 33.3443 52.2394 33.4782 51.5665C33.612 50.8936 33.9424 50.2755 34.4276 49.7904C34.9127 49.3052 35.5308 48.9748 36.2037 48.841C36.8766 48.7071 37.5741 48.7758 38.2079 49.0384C38.8418 49.3009 39.3836 49.7456 39.7647 50.316C40.1459 50.8865 40.3493 51.5572 40.3493 52.2432C40.3493 53.1633 39.9839 54.0456 39.3333 54.6961C38.6828 55.3467 37.8004 55.7121 36.8804 55.7121V55.7121Z" fill="#12754B"/>
<path d="M30.0874 62.5054C29.4013 62.5054 28.7306 62.3019 28.1602 61.9207C27.5897 61.5396 27.1451 60.9978 26.8826 60.3639C26.62 59.7301 26.5513 59.0326 26.6852 58.3597C26.819 57.6868 27.1494 57.0687 27.6345 56.5836C28.1197 56.0984 28.7377 55.768 29.4106 55.6342C30.0835 55.5003 30.781 55.569 31.4149 55.8316C32.0487 56.0942 32.5905 56.5388 32.9717 57.1092C33.3529 57.6797 33.5563 58.3504 33.5563 59.0365C33.5563 59.9565 33.1908 60.8388 32.5403 61.4893C31.8897 62.1399 31.0074 62.5054 30.0874 62.5054Z" fill="#12754B"/>
<path d="M44.4965 83.7443C44.7277 83.7443 44.9589 83.753 45.1916 83.753C56.6101 83.753 67.1614 75.6589 70.0521 64.5295C70.3412 63.3732 71.2084 62.795 72.3647 62.795C73.521 62.795 74.5328 63.8068 74.5328 65.1076C74.5328 65.203 74.5328 65.3042 74.5227 65.4068C74.5227 65.4357 74.5227 65.4661 74.5227 65.4964C74.5155 65.5788 74.5068 65.6626 74.4967 65.7508C74.4967 65.7783 74.4895 65.8057 74.4852 65.8346C74.4534 66.0717 74.4052 66.3256 74.3406 66.5964C74.3406 66.6123 74.3334 66.6296 74.3291 66.6469C74.2987 66.7741 74.2669 66.9057 74.2308 67.0401L74.2221 67.0733C74.0978 67.5286 73.933 68.0201 73.7407 68.5404C73.8237 68.414 73.8962 68.2811 73.9576 68.1429C74.8164 66.1835 75.2593 64.0672 75.2584 61.9278C75.2584 58.6034 72.9458 56.4354 69.6214 56.4354C63.8283 56.4354 62.6692 61.4855 60.2265 66.8825C57.6898 72.4877 53.0343 78.5496 41.292 78.5496C29.0887 78.5496 16.5529 70.0219 19.6113 52.6774C19.6489 52.462 19.6793 52.2669 19.701 52.0876C19.2578 54.3288 19.0341 56.6079 19.0332 58.8925C19.0303 72.8361 29.9545 83.4177 44.4965 83.7443Z" fill="#12754B"/>
<path d="M70.2649 46.0284C71.8145 46.0259 73.3572 46.233 74.8511 46.6442C75.6134 45.5724 75.9876 44.2727 75.9117 42.9597C75.8359 41.6467 75.3146 40.3987 74.4339 39.4219C73.5532 38.445 72.3658 37.7976 71.0676 37.5866C69.7694 37.3755 68.4381 37.6134 67.2933 38.261L69.6738 42.1635L65.2264 40.2411C64.6233 41.2118 64.3208 42.3392 64.3571 43.4814C64.3934 44.6236 64.7667 45.7296 65.4302 46.6601C67.0065 46.2353 68.6324 46.0228 70.2649 46.0284Z" fill="#3A3631"/>
<circle cx="28" cy="28" r="28" fill="#ECF4F1"/>
<path d="M11.375 27.7439L22.8629 38.5L43.75 17.5" stroke="#12754B" stroke-width="8"/>
</svg>
