<svg width="48" height="48" viewBox="0 0 48 48" fill="none" xmlns="http://www.w3.org/2000/svg">
    <style>
        .mark {
            fill: #4F43DD;
        }
        @media (prefers-color-scheme: dark) {
            .mark {
                fill: #B9B4F1;
            }
        }
    </style>
    <path class="mark" d="M16.0932 46.0547C16.0939 46.3228 16.1491 46.588 16.2554 46.8336C16.3616 47.079 16.5165 47.2997 16.7105 47.4819C16.9045 47.6638 17.1334 47.8032 17.3828 47.8914C17.6323 47.9797 17.897 48.0147 18.1604 47.9944C28.1716 47.2671 37.627 40.0765 40.6457 28.8456C40.8044 28.1995 41.2821 27.8757 41.9182 27.8757C42.2444 27.889 42.5522 28.0323 42.7751 28.2743C42.9977 28.5166 43.1176 28.8382 43.1086 29.1693C43.1086 31.6736 39.9369 38.2183 35.4012 42.0162C35.1701 42.2135 34.9858 42.4614 34.8622 42.7411C34.7383 43.0208 34.6784 43.3254 34.6867 43.6319C34.6915 43.8813 34.7445 44.1271 34.8428 44.3554C34.9411 44.5839 35.0829 44.7902 35.2601 44.9629C35.4372 45.1355 35.6464 45.271 35.8752 45.3615C36.1039 45.4519 36.3481 45.4958 36.5935 45.4901C36.9909 45.4901 37.627 45.2478 38.4218 44.5202C41.5935 41.6107 47.6385 33.4503 47.6385 24.4812C47.6385 11.3313 37.6216 0 23.6417 0C11.1677 0 0.361511 10.3426 0.361511 22.3009C0.361511 30.2187 6.55939 36.1972 14.7424 36.1972C21.0204 36.1972 26.821 31.6736 28.4106 25.451C28.569 24.8051 29.0448 24.4812 29.681 24.4812C30.0073 24.4944 30.3155 24.6377 30.5385 24.8798C30.7616 25.122 30.882 25.4434 30.8732 25.775C30.8732 28.603 25.6287 38.4663 14.9812 38.4663C12.4382 38.4663 9.26092 37.7389 7.03514 36.4451C6.73718 36.2985 6.41262 36.2161 6.08176 36.2028C5.82844 36.1929 5.57584 36.2362 5.33985 36.3303C5.10387 36.4243 4.88958 36.5668 4.71051 36.7492C4.53142 36.9313 4.3914 37.1492 4.29925 37.3889C4.2071 37.6288 4.1648 37.8853 4.175 38.1425C4.18531 38.4719 4.27826 38.7933 4.44511 39.0759C4.61194 39.3587 4.84714 39.5936 5.12838 39.7582C8.06874 41.4629 11.5651 42.344 15.1398 42.344C24.0391 42.344 32.1438 36.2028 34.5283 27.1538C34.6867 26.508 35.1644 26.184 35.7987 26.184C36.125 26.1975 36.4331 26.3406 36.6562 26.5828C36.8793 26.8249 36.9994 27.1465 36.9909 27.4778C36.9909 31.1942 30.4758 43.1528 17.9215 44.1226C17.4358 44.1591 16.9805 44.3767 16.643 44.7332C16.3056 45.0898 16.1098 45.5604 16.0932 46.0547Z"/>
    <path fill="white" d="M28.5387 15.1067C30.2524 15.0937 31.9344 15.5745 33.3896 16.4933C33.5366 15.6761 33.6179 14.8481 33.6321 14.0175C33.6321 10.1817 30.7515 6.74548 27.2439 6.74548C24.5163 6.74548 22.8111 9.03942 22.8111 11.8732C22.7981 13.4041 23.3279 14.8886 24.3036 16.0557C25.6256 15.4157 27.0744 15.0911 28.5387 15.1067Z"/>
    <path fill="black" d="M28.5695 10.3442C30.3583 10.395 31.7677 11.9077 31.7178 13.7231C31.6998 14.3751 31.4956 14.9773 31.1591 15.4792C30.3124 15.2268 29.4299 15.0999 28.539 15.1066C27.6103 15.0967 26.6881 15.2237 25.8005 15.4811C25.4298 14.9292 25.2204 14.2581 25.2401 13.5394C25.2901 11.7241 26.7807 10.2936 28.5695 10.3442Z"/>
</svg>
