<svg width="1253" height="320" viewBox="0 0 1253 320" fill="none" xmlns="http://www.w3.org/2000/svg">
<path d="M126.603 251.895C126.607 253.012 126.84 254.117 127.289 255.14C127.739 256.163 128.394 257.082 129.214 257.841C130.035 258.599 131.002 259.18 132.057 259.548C133.112 259.915 134.231 260.061 135.345 259.977C177.68 256.946 217.665 226.985 230.43 180.19C231.101 177.498 233.12 176.149 235.811 176.149C237.19 176.204 238.491 176.801 239.434 177.81C240.376 178.819 240.883 180.159 240.844 181.539C240.844 191.973 227.432 219.243 208.252 235.067C207.275 235.89 206.496 236.922 205.972 238.088C205.449 239.254 205.196 240.523 205.231 241.8C205.25 242.838 205.474 243.863 205.891 244.815C206.307 245.766 206.906 246.626 207.655 247.346C208.405 248.065 209.288 248.629 210.256 249.006C211.223 249.383 212.256 249.566 213.294 249.543C214.974 249.543 217.665 248.532 221.026 245.501C234.438 233.378 260 199.377 260 162.005C260 107.214 217.641 60 158.525 60C105.775 60 60.0788 103.094 60.0788 152.92C60.0788 185.912 86.2878 210.821 120.891 210.821C147.44 210.821 171.968 191.973 178.69 166.046C179.361 163.355 181.373 162.005 184.063 162.005C185.443 162.06 186.745 162.657 187.689 163.666C188.632 164.675 189.141 166.015 189.104 167.396C189.104 179.179 166.927 220.276 121.901 220.276C111.148 220.276 97.7119 217.246 88.2997 211.855C87.0397 211.244 85.6672 210.9 84.2681 210.845C83.1969 210.804 82.1287 210.985 81.1308 211.376C80.1329 211.768 79.2268 212.362 78.4695 213.121C77.7122 213.881 77.12 214.788 76.7303 215.787C76.3406 216.786 76.1618 217.855 76.205 218.927C76.2485 220.3 76.6416 221.638 77.3472 222.817C78.0527 223.995 79.0472 224.973 80.2366 225.659C92.6705 232.763 107.456 236.433 122.572 236.433C160.205 236.433 194.477 210.845 204.56 173.141C205.231 170.45 207.25 169.1 209.933 169.1C211.313 169.156 212.615 169.753 213.559 170.761C214.502 171.77 215.011 173.11 214.974 174.491C214.974 189.977 187.424 239.803 134.335 243.844C132.281 243.997 130.356 244.903 128.929 246.389C127.502 247.874 126.674 249.835 126.603 251.895Z" fill="#DEDEFC"/>
<path d="M179.211 122.96C186.457 122.906 193.57 124.909 199.724 128.737C200.346 125.333 200.689 121.882 200.75 118.422C200.75 102.439 188.568 88.1218 173.736 88.1218C162.201 88.1218 154.99 97.6798 154.99 109.487C154.935 115.866 157.175 122.051 161.302 126.914C166.892 124.248 173.018 122.895 179.211 122.96Z" fill="white"/>
<path d="M213.964 180.86C216.024 173.82 216.931 168.934 216.931 165.761C216.868 164.391 216.281 163.098 215.291 162.148C214.301 161.199 212.984 160.667 211.613 160.663C210.336 160.687 209.103 161.137 208.111 161.942C207.119 162.747 206.425 163.861 206.138 165.106C205.578 167.419 204.379 173.686 203.195 177.664C203.684 176.175 204.131 174.662 204.536 173.125C205.207 170.426 207.227 169.084 209.909 169.084C211.288 169.138 212.591 169.733 213.534 170.74C214.478 171.748 214.987 173.087 214.951 174.467C214.887 176.637 214.54 178.789 213.917 180.868L213.964 180.86Z" fill="#C9C6FA"/>
<path d="M242.525 173.504C242.461 172.135 241.874 170.844 240.886 169.896C239.899 168.947 238.585 168.414 237.216 168.405C235.94 168.431 234.709 168.882 233.718 169.687C232.728 170.492 232.034 171.604 231.748 172.849C231.18 175.216 229.957 181.578 228.758 185.548H228.813C229.397 183.78 229.941 181.988 230.391 180.165C231.062 177.466 233.082 176.124 235.772 176.124C237.15 176.178 238.452 176.773 239.394 177.781C240.337 178.788 240.844 180.127 240.805 181.507C240.767 183.182 240.537 184.848 240.119 186.471C241.792 180.599 242.525 176.353 242.525 173.504Z" fill="#C9C6FA"/>
<path d="M179.211 122.96C182.812 122.953 186.397 123.434 189.87 124.389C191.693 121.902 192.604 118.863 192.449 115.783C192.295 112.703 191.085 109.77 189.022 107.478C186.96 105.186 184.171 103.674 181.125 103.198C178.08 102.722 174.963 103.31 172.3 104.863L177.822 113.955L167.479 109.48C166.078 111.741 165.376 114.366 165.46 117.026C165.544 119.685 166.411 122.26 167.952 124.428C171.623 123.439 175.41 122.945 179.211 122.96Z" fill="#040716"/>
<path d="M99.5267 181.477C103.884 181.477 107.416 177.943 107.416 173.584C107.416 169.225 103.884 165.691 99.5267 165.691C95.1694 165.691 91.6371 169.225 91.6371 173.584C91.6371 177.943 95.1694 181.477 99.5267 181.477Z" fill="#C9C6FA"/>
<path d="M99.5266 149.905C103.884 149.905 107.416 146.371 107.416 142.012C107.416 137.653 103.884 134.12 99.5266 134.12C95.1693 134.12 91.637 137.653 91.637 142.012C91.637 146.371 95.1693 149.905 99.5266 149.905Z" fill="#C9C6FA"/>
<path d="M83.747 165.69C88.1043 165.69 91.6366 162.157 91.6366 157.798C91.6366 153.439 88.1043 149.905 83.747 149.905C79.3897 149.905 75.8575 153.439 75.8575 157.798C75.8575 162.157 79.3897 165.69 83.747 165.69Z" fill="#C9C6FA"/>
<path d="M119.251 210.805H120.828C147.377 210.805 171.905 191.958 178.627 166.03C179.298 163.339 181.31 161.989 184 161.989C185.38 162.045 186.682 162.641 187.626 163.65C188.569 164.659 189.078 165.999 189.041 167.38C188.921 170.135 188.298 172.845 187.203 175.375C187.394 175.081 187.56 174.772 187.7 174.452C189.697 169.887 190.728 164.959 190.73 159.977C190.73 152.234 185.349 147.183 177.625 147.183C164.158 147.183 161.46 158.943 155.779 171.516C149.886 184.57 139.061 198.69 111.763 198.69C83.4004 198.69 54.2564 178.824 61.3649 138.43C61.4517 137.924 61.5227 137.475 61.5779 137.056C60.5363 142.275 60.0078 147.583 60 152.905C60.0789 185.423 85.4754 210.048 119.251 210.805Z" fill="#C9C6FA"/>
<path d="M415.152 60H433.198V220.327H415.152V206.187H414.7C407.929 214.932 397.098 223.454 378.585 223.454C349.692 223.454 326.667 200.808 326.667 163.139C326.667 125.47 349.692 102.823 378.585 102.823C397.098 102.823 407.929 110.896 414.7 120.764H415.152V60ZM415.152 163.139C415.152 136.236 401.836 118.52 380.392 118.52C356.689 118.52 344.72 140.717 344.72 163.139C344.72 185.56 356.689 207.758 380.392 207.758C401.836 207.758 415.152 190.042 415.152 163.139Z" fill="white"/>
<path d="M500.595 118.519C478.7 118.519 471.469 124.796 470.347 141.39H452.285C453.415 119.417 467.183 102.823 500.595 102.823C522.491 102.823 542.126 111.344 542.126 138.897V194.506C542.126 203.477 543.74 208.407 555.217 207.06V219.622C551.825 220.869 548.228 221.475 544.612 221.409C533.773 221.409 527.228 218.499 524.072 205.938H523.588C516.365 216.704 503.5 223.429 484.543 223.429C461.291 223.429 446.611 210.202 446.611 190.915C446.611 164.91 466.021 158.184 495.842 152.581C515.259 148.989 524.089 146.52 524.089 135.089C524.072 126.143 519.101 118.519 500.595 118.519ZM524.072 176.141V157.086C520.683 160.445 509.618 163.587 497.439 166.056C475.084 170.762 464.673 176.365 464.673 190.041C464.673 201.264 471.444 207.757 486.351 207.757C507.818 207.757 524.072 198.114 524.072 176.141Z" fill="white"/>
<path d="M646.261 105.965H664.323V214.034C664.323 244.496 644.913 260 613.309 260C581.705 260 562.965 243.406 561.165 223.926H579.275C581.535 235.582 591.018 244.328 612.462 244.328C633.905 244.328 646.318 235.133 646.318 213.866V196.55H645.866C639.094 206.411 628.264 214.483 609.298 214.483C580.857 214.483 557.832 196.326 557.832 158.657C557.832 120.988 580.857 102.823 609.298 102.823C628.264 102.823 639.094 111.344 645.866 120.09H646.318L646.261 105.965ZM646.261 158.657C646.261 131.746 632.945 118.519 611.501 118.519C587.798 118.519 575.837 136.235 575.837 158.657C575.837 181.079 587.798 198.787 611.501 198.787C632.977 198.787 646.261 185.56 646.261 158.657Z" fill="white"/>
<path d="M775.302 188.927C775.302 209.769 756.118 223.453 729.929 223.453C694.717 223.453 678.463 206.859 677.333 182.201H695.395C696.517 194.979 701.044 207.757 729.929 207.757C749.564 207.757 757.24 197.665 757.24 190.041C757.24 173.455 742.115 172.557 725.643 168.517C708.033 164.26 681.844 162.24 681.844 135.337C681.844 117.397 697.873 102.823 724.965 102.823C753.632 102.823 768.982 118.968 770.782 138.696H752.728C750.92 129.958 746.635 118.519 724.965 118.519C708.711 118.519 699.947 125.02 699.947 133.991C699.947 147.442 715.523 148.564 731.551 152.38C752.05 157.31 775.302 160.669 775.302 188.927Z" fill="white"/>
<path d="M836.339 121.661H813.742V190.489C813.742 203.5 821.005 205.721 836.339 204.622V220.326C831.886 221.252 827.346 221.703 822.797 221.673C807.463 221.673 795.704 215.621 795.704 192.301V121.677H778.756V105.965H795.704V67.8469H813.766V105.965H836.363L836.339 121.661Z" fill="white"/>
<path d="M932.315 185.111H950.376C944.501 206.411 928.029 223.453 899.363 223.453C864.369 223.453 843.151 199.011 843.151 163.138C843.151 125.02 864.821 102.823 898.459 102.823C934.574 102.823 952.184 127.265 952.184 167.844H861.213C861.213 188.478 873.626 207.757 898.685 207.757C921.71 207.757 930.281 192.959 932.315 185.111ZM861.213 152.188H934.122C934.122 133.798 920.128 118.519 898.459 118.519C876.789 118.519 861.213 133.75 861.213 152.188Z" fill="white"/>
<path d="M1026.67 103.497V121.437H1026.21C1001.2 117.429 983.78 134.889 983.78 159.331V220.327H965.718V105.966H983.78V128.612H984.232C990.325 113.589 999.566 102.823 1016.06 102.823C1019.61 102.787 1023.15 103.012 1026.67 103.497Z" fill="white"/>
<path d="M1141.39 98.8889H1123.06V150.833H1071.11V169.167H1123.06V221.111H1141.39V169.167H1193.33V150.833H1141.39V98.8889Z" fill="#C9C6FA"/>
</svg>
