<svg width="1253" height="320" viewBox="0 0 1253 320" fill="none" xmlns="http://www.w3.org/2000/svg">
<path d="M125.619 251.895C125.622 253.012 125.856 254.117 126.305 255.14C126.755 256.163 127.41 257.082 128.23 257.841C129.051 258.599 130.019 259.18 131.074 259.548C132.129 259.915 133.249 260.061 134.363 259.977C176.707 256.946 216.7 226.985 229.468 180.19C230.139 177.498 232.159 176.149 234.85 176.149C236.23 176.204 237.532 176.801 238.474 177.81C239.416 178.819 239.923 180.159 239.885 181.539C239.885 191.973 226.47 219.243 207.286 235.067C206.308 235.89 205.529 236.922 205.005 238.088C204.482 239.254 204.229 240.522 204.264 241.8C204.283 242.838 204.507 243.863 204.924 244.815C205.34 245.766 205.94 246.626 206.689 247.346C207.438 248.065 208.322 248.629 209.29 249.006C210.258 249.383 211.29 249.566 212.329 249.543C214.009 249.543 216.7 248.532 220.062 245.501C233.477 233.378 259.045 199.377 259.045 162.005C259.045 107.214 216.677 60 157.547 60C104.786 60 59.0799 103.094 59.0799 152.92C59.0799 185.912 85.2947 210.821 119.906 210.821C146.46 210.821 170.994 191.973 177.717 166.046C178.388 163.355 180.4 162.005 183.091 162.005C184.471 162.06 185.774 162.657 186.718 163.666C187.662 164.675 188.17 166.015 188.134 167.396C188.134 179.179 165.951 220.276 120.916 220.276C110.16 220.276 96.7213 217.246 87.307 211.855C86.0467 211.244 84.6739 210.9 83.2745 210.845C82.203 210.804 81.1346 210.985 80.1365 211.376C79.1383 211.768 78.232 212.362 77.4746 213.121C76.7171 213.881 76.1249 214.788 75.7351 215.787C75.3453 216.786 75.1664 217.855 75.2096 218.927C75.2531 220.3 75.6463 221.638 76.352 222.817C77.0577 223.995 78.0525 224.973 79.2421 225.659C91.6787 232.763 106.467 236.433 121.587 236.433C159.228 236.433 193.508 210.845 203.593 173.141C204.264 170.45 206.284 169.1 208.967 169.1C210.347 169.156 211.65 169.753 212.593 170.761C213.537 171.77 214.046 173.11 214.009 174.491C214.009 189.977 186.453 239.803 133.353 243.844C131.298 243.997 129.372 244.903 127.945 246.389C126.518 247.874 125.689 249.835 125.619 251.895Z" fill="#4F43DD"/>
<path d="M178.237 122.96C185.485 122.906 192.6 124.909 198.755 128.737C199.376 125.332 199.72 121.882 199.78 118.421C199.78 102.439 187.596 88.1215 172.761 88.1215C161.224 88.1215 154.011 97.6795 154.011 109.487C153.956 115.865 156.197 122.051 160.324 126.914C165.916 124.247 172.043 122.895 178.237 122.96Z" fill="white"/>
<path d="M212.998 180.861C215.058 173.82 215.965 168.935 215.965 165.762C215.902 164.392 215.315 163.098 214.325 162.149C213.335 161.2 212.018 160.668 210.646 160.663C209.369 160.687 208.136 161.137 207.143 161.942C206.151 162.747 205.456 163.861 205.17 165.107C204.61 167.419 203.41 173.686 202.226 177.664C202.716 176.175 203.163 174.662 203.568 173.126C204.239 170.426 206.259 169.085 208.942 169.085C210.321 169.138 211.624 169.733 212.568 170.741C213.512 171.748 214.021 173.087 213.984 174.467C213.921 176.637 213.573 178.789 212.951 180.868L212.998 180.861Z" fill="#352D8E"/>
<path d="M241.565 173.505C241.501 172.136 240.914 170.845 239.926 169.897C238.938 168.948 237.624 168.415 236.254 168.406C234.978 168.431 233.747 168.883 232.756 169.688C231.766 170.493 231.072 171.605 230.786 172.85C230.218 175.217 228.994 181.579 227.795 185.549H227.85C228.434 183.781 228.979 181.989 229.428 180.166C230.099 177.467 232.119 176.125 234.81 176.125C236.189 176.179 237.491 176.774 238.434 177.782C239.376 178.789 239.883 180.128 239.845 181.508C239.806 183.183 239.576 184.849 239.158 186.472C240.831 180.6 241.565 176.354 241.565 173.505Z" fill="#352D8E"/>
<path d="M178.237 122.96C181.839 122.952 185.426 123.433 188.899 124.388C190.722 121.901 191.633 118.862 191.479 115.782C191.324 112.702 190.114 109.769 188.051 107.477C185.988 105.185 183.199 103.674 180.152 103.197C177.106 102.721 173.989 103.309 171.325 104.862L176.849 113.954L166.503 109.479C165.102 111.741 164.399 114.366 164.483 117.025C164.568 119.684 165.435 122.26 166.977 124.428C170.648 123.438 174.435 122.944 178.237 122.96Z" fill="#030615"/>
<path d="M98.5351 181.476C102.893 181.476 106.426 177.942 106.426 173.583C106.426 169.224 102.893 165.691 98.5351 165.691C94.1769 165.691 90.6439 169.224 90.6439 173.583C90.6439 177.942 94.1769 181.476 98.5351 181.476Z" fill="#352D8E"/>
<path d="M98.5351 149.905C102.893 149.905 106.426 146.372 106.426 142.013C106.426 137.654 102.893 134.12 98.5351 134.12C94.1769 134.12 90.6439 137.654 90.6439 142.013C90.6439 146.372 94.1769 149.905 98.5351 149.905Z" fill="#352D8E"/>
<path d="M82.7524 165.691C87.1106 165.691 90.6437 162.157 90.6437 157.798C90.6437 153.439 87.1106 149.905 82.7524 149.905C78.3942 149.905 74.8611 153.439 74.8611 157.798C74.8611 162.157 78.3942 165.691 82.7524 165.691Z" fill="#352D8E"/>
<path d="M118.264 210.805H119.842C146.396 210.805 170.93 191.958 177.653 166.03C178.324 163.339 180.336 161.989 183.027 161.989C184.407 162.045 185.71 162.641 186.654 163.65C187.598 164.659 188.106 165.999 188.07 167.38C187.949 170.135 187.326 172.844 186.231 175.375C186.422 175.081 186.588 174.772 186.728 174.452C188.725 169.887 189.757 164.959 189.759 159.976C189.759 152.234 184.377 147.182 176.651 147.182C163.181 147.182 160.482 158.942 154.8 171.516C148.905 184.57 138.079 198.69 110.775 198.69C82.4055 198.69 53.2552 178.824 60.3652 138.429C60.452 137.924 60.523 137.474 60.5783 137.056C59.5364 142.275 59.0078 147.583 59 152.905C59.0789 185.422 84.481 210.048 118.264 210.805Z" fill="#352D8E"/>
<path d="M414.231 60H432.281V220.328H414.231V206.187H413.779C407.006 214.932 396.173 223.454 377.655 223.454C348.757 223.454 325.726 200.808 325.726 163.139C325.726 125.47 348.757 102.823 377.655 102.823C396.173 102.823 407.006 110.896 413.779 120.764H414.231V60ZM414.231 163.139C414.231 136.236 400.912 118.52 379.464 118.52C355.755 118.52 343.784 140.717 343.784 163.139C343.784 185.56 355.755 207.758 379.464 207.758C400.912 207.758 414.231 190.042 414.231 163.139Z" fill="#030615"/>
<path d="M499.693 118.519C477.792 118.519 470.56 124.796 469.438 141.39H451.372C452.502 119.417 466.273 102.823 499.693 102.823C521.593 102.823 541.233 111.344 541.233 138.897V194.506C541.233 203.477 542.847 208.407 554.326 207.06V219.622C550.934 220.869 547.336 221.475 543.719 221.409C532.878 221.409 526.331 218.499 523.175 205.938H522.691C515.466 216.704 502.599 223.429 483.637 223.429C460.38 223.429 445.697 210.202 445.697 190.915C445.697 164.91 465.111 158.184 494.938 152.581C514.36 148.989 523.191 146.52 523.191 135.089C523.175 126.143 518.202 118.519 499.693 118.519ZM523.175 176.141V157.086C519.785 160.445 508.717 163.587 496.536 166.056C474.176 170.762 463.763 176.365 463.763 190.041C463.763 201.264 470.535 207.757 485.445 207.757C506.917 207.757 523.175 198.114 523.175 176.141Z" fill="#030615"/>
<path d="M645.39 105.965H663.456V214.034C663.456 244.496 644.042 260 612.431 260C580.82 260 562.076 243.406 560.276 223.926H578.39C580.65 235.582 590.135 244.328 611.583 244.328C633.032 244.328 645.447 235.133 645.447 213.866V196.55H644.995C638.222 206.411 627.389 214.483 608.419 214.483C579.972 214.483 556.942 196.326 556.942 158.657C556.942 120.988 579.972 102.823 608.419 102.823C627.389 102.823 638.222 111.344 644.995 120.09H645.447L645.39 105.965ZM645.39 158.657C645.39 131.746 632.071 118.519 610.623 118.519C586.914 118.519 574.951 136.235 574.951 158.657C574.951 181.079 586.914 198.787 610.623 198.787C632.103 198.787 645.39 185.56 645.39 158.657Z" fill="#030615"/>
<path d="M774.459 188.927C774.459 209.769 755.271 223.453 729.076 223.453C693.857 223.453 677.599 206.859 676.469 182.201H694.535C695.657 194.979 700.186 207.757 729.076 207.757C748.716 207.757 756.393 197.665 756.393 190.041C756.393 173.455 741.266 172.557 724.79 168.517C707.176 164.26 680.981 162.24 680.981 135.337C680.981 117.397 697.013 102.823 724.112 102.823C752.785 102.823 768.138 118.968 769.938 138.696H751.881C750.073 129.958 745.786 118.519 724.112 118.519C707.854 118.519 699.088 125.02 699.088 133.991C699.088 147.442 714.667 148.564 730.699 152.38C751.203 157.31 774.459 160.669 774.459 188.927Z" fill="#030615"/>
<path d="M835.51 121.661H812.907V190.489C812.907 203.5 820.172 205.721 835.51 204.622V220.326C831.056 221.252 826.515 221.703 821.965 221.673C806.627 221.673 794.866 215.621 794.866 192.301V121.677H777.914V105.965H794.866V67.8469H812.932V105.965H835.534L835.51 121.661Z" fill="#030615"/>
<path d="M931.506 185.111H949.572C943.695 206.411 927.22 223.453 898.547 223.453C863.545 223.453 842.323 199.011 842.323 163.138C842.323 125.02 863.998 102.823 897.643 102.823C933.767 102.823 951.38 127.265 951.38 167.844H860.389C860.389 188.478 872.804 207.757 897.869 207.757C920.899 207.757 929.472 192.959 931.506 185.111ZM860.389 152.188H933.314C933.314 133.798 919.317 118.519 897.643 118.519C875.969 118.519 860.389 133.75 860.389 152.188Z" fill="#030615"/>
<path d="M1025.88 103.497V121.437H1025.43C1000.4 117.429 982.983 134.889 982.983 159.331V220.327H964.917V105.966H982.983V128.612H983.435C989.529 113.589 998.772 102.823 1015.27 102.823C1018.82 102.787 1022.36 103.012 1025.88 103.497Z" fill="#030615"/>
<path d="M1140.63 98.8889H1122.29V150.833H1070.33V169.167H1122.29V221.111H1140.63V169.167H1192.58V150.833H1140.63V98.8889Z" fill="#4F43DD"/>
</svg>
