<svg xmlns="http://www.w3.org/2000/svg" fill="none" viewBox="0 0 228 101">
<rect width="228" height="101" rx="6" fill="#21463D"/>
<path d="M57.2652 41.3403H59.0279V57.1075H57.2652V55.7168H57.221C56.5596 56.5769 55.5016 57.415 53.6931 57.415C50.8708 57.415 48.6216 55.1879 48.6216 51.4834C48.6216 47.7789 50.8708 45.5517 53.6931 45.5517C55.5016 45.5517 56.5596 46.3456 57.221 47.3161H57.2652V41.3403ZM57.2652 51.4834C57.2652 48.8376 55.9644 47.0954 53.8697 47.0954C51.5543 47.0954 50.3851 49.2783 50.3851 51.4834C50.3851 53.6884 51.5543 55.8714 53.8697 55.8714C55.9644 55.8714 57.2652 54.1291 57.2652 51.4834Z" fill="white"/>
<path d="M65.6115 47.0952C63.4727 47.0952 62.7664 47.7125 62.6568 49.3444H60.8924C61.0028 47.1835 62.3477 45.5516 65.6115 45.5516C67.7504 45.5516 69.6684 46.3897 69.6684 49.0992V54.5681C69.6684 55.4503 69.8261 55.9351 70.9472 55.8027V57.038C70.6158 57.1607 70.2645 57.2203 69.9113 57.2138C68.8525 57.2138 68.2131 56.9277 67.9049 55.6923H67.8576C67.152 56.7511 65.8954 57.4125 64.0435 57.4125C61.7722 57.4125 60.3382 56.1117 60.3382 54.2149C60.3382 51.6575 62.2342 50.996 65.1472 50.445C67.044 50.0918 67.9065 49.849 67.9065 48.7248C67.9049 47.845 67.4193 47.0952 65.6115 47.0952ZM67.9049 52.762V50.888C67.5738 51.2184 66.4929 51.5274 65.3033 51.7702C63.1195 52.233 62.1026 52.784 62.1026 54.129C62.1026 55.2327 62.764 55.8713 64.2201 55.8713C66.3171 55.8713 67.9049 54.9229 67.9049 52.762Z" fill="white"/>
<path d="M79.8407 45.8607H81.605V56.4885C81.605 59.4843 79.709 61.009 76.6218 61.009C73.5346 61.009 71.704 59.3771 71.5282 57.4614H73.2973C73.518 58.6076 74.4443 59.4677 76.539 59.4677C78.6337 59.4677 79.8462 58.5635 79.8462 56.472V54.7691H79.802C79.1406 55.7388 78.0826 56.5327 76.23 56.5327C73.4518 56.5327 71.2026 54.7471 71.2026 51.0426C71.2026 47.3381 73.4518 45.5516 76.23 45.5516C78.0826 45.5516 79.1406 46.3897 79.802 47.2498H79.8462L79.8407 45.8607ZM79.8407 51.0426C79.8407 48.396 78.5399 47.0952 76.4452 47.0952C74.1298 47.0952 72.9614 48.8375 72.9614 51.0426C72.9614 53.2476 74.1298 54.9891 76.4452 54.9891C78.543 54.9891 79.8407 53.6883 79.8407 51.0426V51.0426Z" fill="white"/>
<path d="M92.4457 54.0194C92.4457 56.0691 90.5718 57.4149 88.0136 57.4149C84.574 57.4149 82.9862 55.783 82.8759 53.358H84.6402C84.7498 54.6146 85.1921 55.8713 88.0136 55.8713C89.9317 55.8713 90.6814 54.8787 90.6814 54.129C90.6814 52.4979 89.204 52.4096 87.595 52.0122C85.8748 51.5936 83.3165 51.395 83.3165 48.7492C83.3165 46.9849 84.8822 45.5516 87.5288 45.5516C90.329 45.5516 91.8285 47.1394 92.0043 49.0795H90.2407C90.0641 48.2202 89.6455 47.0952 87.5288 47.0952C85.941 47.0952 85.0848 47.7346 85.0848 48.6168C85.0848 49.9396 86.6064 50.05 88.1721 50.4253C90.1745 50.9101 92.4457 51.2404 92.4457 54.0194Z" fill="white"/>
<path d="M98.4081 47.4043H96.2007V54.1732C96.2007 55.4527 96.9102 55.671 98.4081 55.563V57.1074C97.9731 57.1985 97.5297 57.2429 97.0853 57.2399C95.5874 57.2399 94.4387 56.6447 94.4387 54.3513V47.4059H92.7832V45.8607H94.4387V42.1121H96.2031V45.8607H98.4105L98.4081 47.4043Z" fill="white"/>
<path d="M107.783 53.6441H109.548C108.974 55.7388 107.365 57.4149 104.564 57.4149C101.146 57.4149 99.0735 55.0112 99.0735 51.4832C99.0735 47.7346 101.19 45.5516 104.476 45.5516C108.004 45.5516 109.724 47.9553 109.724 51.946H100.838C100.838 53.9753 102.05 55.8713 104.498 55.8713C106.747 55.8713 107.585 54.4159 107.783 53.6441ZM100.838 50.4063H107.96C107.96 48.5979 106.593 47.0952 104.476 47.0952C102.359 47.0952 100.838 48.5931 100.838 50.4063Z" fill="white"/>
<path d="M117 45.6179V47.3822H116.956C114.512 46.988 112.811 48.7051 112.811 51.1088V57.1074H111.046V45.8607H112.811V48.0878H112.855C113.45 46.6104 114.353 45.5516 115.964 45.5516C116.311 45.548 116.657 45.5702 117 45.6179V45.6179Z" fill="white"/>
<path opacity="0.6" d="M123.73 53.346C123.73 54.732 124.381 55.824 126.061 55.824C127.951 55.824 129.211 54.627 129.211 52.968V46.29H130.891V57H129.211V55.719H129.169C128.602 56.475 127.468 57.294 125.641 57.294C123.688 57.294 122.05 56.223 122.05 53.766V46.29H123.73V53.346ZM133.101 57V46.29H134.781V47.571H134.823C135.39 46.815 136.524 45.996 138.351 45.996C140.304 45.996 141.942 47.067 141.942 49.524V57H140.262V49.944C140.262 48.558 139.611 47.466 137.931 47.466C136.041 47.466 134.781 48.663 134.781 50.322V57H133.101ZM143.795 43.245C143.795 42.678 144.174 42.195 144.845 42.195C145.517 42.195 145.896 42.678 145.896 43.245C145.896 43.791 145.517 44.274 144.845 44.274C144.174 44.274 143.795 43.791 143.795 43.245ZM144.005 57V46.29H145.685V57H144.005ZM146.705 46.29H148.553L151.535 55.32H151.556L154.496 46.29H156.302L152.459 57H150.548L146.705 46.29ZM161.683 57.315C158.302 57.315 156.475 54.879 156.475 51.624C156.475 48.201 158.512 45.975 161.683 45.975C164.812 45.975 166.639 48.117 166.639 51.246C166.639 51.561 166.639 51.918 166.618 52.086H158.239C158.281 53.976 159.352 55.866 161.704 55.866C163.804 55.866 164.602 54.459 164.791 53.703H166.492C165.946 55.698 164.434 57.315 161.683 57.315ZM161.599 47.424C159.751 47.424 158.344 48.747 158.239 50.616H164.854C164.854 48.852 163.594 47.424 161.599 47.424ZM168.252 46.29H169.932V48.411H169.974C170.541 47.004 171.402 45.996 172.935 45.996C173.334 45.996 173.628 46.017 173.922 46.059V47.739C173.67 47.697 173.481 47.676 173.229 47.676C171.255 47.676 169.932 49.23 169.932 51.288V57H168.252V46.29ZM179.487 50.637C181.398 51.078 183.561 51.624 183.561 53.997C183.561 56.013 181.986 57.294 179.256 57.294C176.169 57.294 174.51 55.635 174.447 53.43H176.211C176.295 54.732 177.051 55.824 179.256 55.824C181.314 55.824 181.797 54.879 181.797 54.06C181.797 52.59 180.264 52.443 178.941 52.149C177.072 51.75 174.867 51.225 174.867 48.999C174.867 47.193 176.316 45.996 178.773 45.996C181.545 45.996 182.973 47.508 183.141 49.356H181.377C181.209 48.537 180.789 47.466 178.794 47.466C177.282 47.466 176.631 48.075 176.631 48.936C176.631 50.175 177.996 50.28 179.487 50.637ZM184.787 43.245C184.787 42.678 185.165 42.195 185.837 42.195C186.509 42.195 186.887 42.678 186.887 43.245C186.887 43.791 186.509 44.274 185.837 44.274C185.165 44.274 184.787 43.791 184.787 43.245ZM184.997 57V46.29H186.677V57H184.997ZM187.99 46.29H189.565V42.72H191.245V46.29H193.345V47.76H191.245V54.207C191.245 55.341 191.518 55.635 192.463 55.635C192.82 55.635 192.988 55.614 193.345 55.572V57C192.862 57.084 192.61 57.105 192.232 57.105C190.657 57.105 189.565 56.559 189.565 54.123V47.76H187.99V46.29ZM198.272 56.895L193.925 46.29H195.815L199.112 54.816H199.154L202.304 46.29H204.11L199.784 57.315C198.713 60.024 197.684 60.759 196.235 60.759C195.857 60.759 195.605 60.738 195.122 60.654V59.226C195.479 59.268 195.647 59.289 195.962 59.289C196.844 59.289 197.81 58.743 198.272 56.895Z" fill="white"/>
<path d="M29.6529 59.1674C29.6532 59.279 29.6765 59.3893 29.7214 59.4915C29.7663 59.5937 29.8317 59.6856 29.9136 59.7613C29.9956 59.8371 30.0922 59.8951 30.1976 59.9318C30.303 59.9685 30.4148 59.9831 30.526 59.9747C34.7547 59.6719 38.7485 56.6793 40.0236 52.0051C40.0906 51.7363 40.2923 51.6015 40.561 51.6015C40.6988 51.607 40.8288 51.6667 40.9229 51.7675C41.017 51.8682 41.0676 52.0021 41.0638 52.1399C41.0638 53.1822 39.7241 55.9059 37.8084 57.4866C37.7107 57.5687 37.6329 57.6719 37.5806 57.7883C37.5284 57.9048 37.503 58.0315 37.5066 58.1591C37.5085 58.2628 37.5309 58.3651 37.5725 58.4602C37.614 58.5553 37.6739 58.6412 37.7487 58.713C37.8236 58.7849 37.9118 58.8412 38.0085 58.8789C38.1051 58.9165 38.2082 58.9347 38.3119 58.9324C38.4798 58.9324 38.7485 58.8315 39.0842 58.5288C40.4239 57.3179 42.9772 53.9216 42.9772 50.1888C42.9772 44.716 38.7462 40 32.8413 40C27.5724 40 23.008 44.3044 23.008 49.2814C23.008 52.5767 25.6259 55.0648 29.0823 55.0648C31.7341 55.0648 34.1841 53.1822 34.8556 50.5924C34.9225 50.3236 35.1235 50.1888 35.3922 50.1888C35.53 50.1943 35.6601 50.2539 35.7544 50.3547C35.8486 50.4554 35.8994 50.5893 35.8958 50.7272C35.8958 51.9042 33.6806 56.0092 29.1832 56.0092C28.1091 56.0092 26.767 55.7065 25.8269 55.168C25.701 55.107 25.5639 55.0727 25.4242 55.0671C25.3172 55.063 25.2105 55.0811 25.1108 55.1202C25.0111 55.1594 24.9206 55.2187 24.845 55.2945C24.7694 55.3703 24.7102 55.461 24.6713 55.5608C24.6324 55.6606 24.6145 55.7674 24.6188 55.8744C24.6232 56.0115 24.6624 56.1452 24.7329 56.2629C24.8034 56.3806 24.9027 56.4783 25.0215 56.5469C26.2635 57.2564 27.7403 57.623 29.2502 57.623C33.0092 57.623 36.4324 55.0671 37.4396 51.3011C37.5066 51.0323 37.7083 50.8975 37.9762 50.8975C38.1141 50.903 38.2442 50.9626 38.3384 51.0634C38.4326 51.1642 38.4834 51.298 38.4798 51.4359C38.4798 52.9827 35.7279 57.9596 30.4252 58.3633C30.22 58.3785 30.0277 58.469 29.8851 58.6174C29.7426 58.7658 29.6599 58.9617 29.6529 59.1674V59.1674Z" fill="#DEDEFC"/>
<path d="M34.9074 46.2887C35.6312 46.2833 36.3417 46.4834 36.9563 46.8657C37.0184 46.5256 37.0527 46.181 37.0588 45.8353C37.0588 44.2389 35.842 42.8088 34.3605 42.8088C33.2084 42.8088 32.4881 43.7635 32.4881 44.9429C32.4826 45.58 32.7064 46.1979 33.1185 46.6836C33.6769 46.4173 34.2888 46.2822 34.9074 46.2887V46.2887Z" fill="white"/>
<path d="M38.3789 52.0721C38.5846 51.3689 38.6752 50.8809 38.6752 50.564C38.6689 50.4271 38.6103 50.2979 38.5114 50.2031C38.4125 50.1083 38.281 50.0552 38.144 50.0547C38.0165 50.0571 37.8933 50.102 37.7942 50.1825C37.6951 50.2629 37.6258 50.3741 37.5971 50.4985C37.5412 50.7295 37.4214 51.3555 37.3032 51.7528C37.3521 51.6041 37.3967 51.453 37.4372 51.2995C37.5041 51.0299 37.7059 50.8959 37.9738 50.8959C38.1116 50.9012 38.2417 50.9606 38.3359 51.0613C38.4302 51.1619 38.481 51.2957 38.4774 51.4335C38.4711 51.6502 38.4364 51.8652 38.3741 52.0729L38.3789 52.0721Z" fill="#C9C6FA"/>
<path d="M41.2316 51.3374C41.2251 51.2007 41.1665 51.0718 41.0679 50.977C40.9692 50.8823 40.838 50.829 40.7012 50.8281C40.5738 50.8307 40.4508 50.8757 40.3519 50.9561C40.253 51.0365 40.1837 51.1477 40.1551 51.272C40.0984 51.5085 39.9762 52.1439 39.8564 52.5404H39.8619C39.9203 52.3638 39.9746 52.1849 40.0196 52.0028C40.0865 51.7332 40.2883 51.5991 40.557 51.5991C40.6947 51.6045 40.8247 51.6639 40.9188 51.7646C41.013 51.8653 41.0636 51.999 41.0598 52.1368C41.0559 52.3042 41.0329 52.4705 40.9912 52.6327C41.1583 52.0461 41.2316 51.622 41.2316 51.3374Z" fill="#C9C6FA"/>
<path d="M34.9074 46.2888C35.2671 46.288 35.6252 46.336 35.9721 46.4314C36.1541 46.183 36.2451 45.8795 36.2297 45.5718C36.2143 45.2642 36.0934 44.9712 35.8874 44.7423C35.6814 44.5133 35.4029 44.3624 35.0986 44.3148C34.7944 44.2672 34.4831 44.3259 34.2171 44.481L34.7687 45.3892L33.7356 44.9422C33.5956 45.1681 33.5255 45.4303 33.5339 45.696C33.5423 45.9616 33.6289 46.2188 33.7829 46.4354C34.1495 46.3365 34.5277 46.2872 34.9074 46.2888V46.2888Z" fill="#163B36"/>
<path d="M26.9481 52.1336C27.3833 52.1336 27.7362 51.7806 27.7362 51.3452C27.7362 50.9098 27.3833 50.5569 26.9481 50.5569C26.5129 50.5569 26.1601 50.9098 26.1601 51.3452C26.1601 51.7806 26.5129 52.1336 26.9481 52.1336Z" fill="#C9C6FA"/>
<path d="M26.9481 48.9802C27.3833 48.9802 27.7362 48.6272 27.7362 48.1918C27.7362 47.7564 27.3833 47.4034 26.9481 47.4034C26.5129 47.4034 26.1601 47.7564 26.1601 48.1918C26.1601 48.6272 26.5129 48.9802 26.9481 48.9802Z" fill="#C9C6FA"/>
<path d="M25.372 50.5569C25.8072 50.5569 26.16 50.204 26.16 49.7686C26.16 49.3332 25.8072 48.9802 25.372 48.9802C24.9368 48.9802 24.5839 49.3332 24.5839 49.7686C24.5839 50.204 24.9368 50.5569 25.372 50.5569Z" fill="#C9C6FA"/>
<path d="M28.9182 55.0632H29.0759C31.7276 55.0632 34.1777 53.1806 34.8491 50.5908C34.9161 50.322 35.117 50.1872 35.3858 50.1872C35.5236 50.1928 35.6537 50.2524 35.7479 50.3531C35.8422 50.4539 35.8929 50.5877 35.8893 50.7257C35.8773 51.0008 35.8151 51.2715 35.7057 51.5243C35.7247 51.4949 35.7413 51.4641 35.7553 51.432C35.9547 50.9761 36.0578 50.4838 36.058 49.9862C36.058 49.2128 35.5205 48.7082 34.749 48.7082C33.4038 48.7082 33.1343 49.8829 32.5669 51.1388C31.9782 52.4427 30.897 53.8531 28.1704 53.8531C25.3374 53.8531 22.4263 51.8688 23.1363 47.834C23.145 47.7835 23.1521 47.7386 23.1576 47.6968C23.0536 48.218 23.0008 48.7482 23 49.2798C23.0079 52.5278 25.5446 54.9875 28.9182 55.0632Z" fill="#C9C6FA"/>
</svg>