<svg xmlns="http://www.w3.org/2000/svg" width="1200" height="600" viewBox="0 0 1200 600"><rect width="100%" height="100%" fill="#DDDDDD"/><path fill="#999999" d="M289.6 249.17v101.66h-20.39v-83.65h-20.67V252.8l41.06-3.63Zm105.36 86.02v15.64h-69.4v-13.34l32.89-35.26q7.12-8.17 10.12-13.79 3-5.62 3-10.44 0-6.42-3.45-10.51-3.46-4.08-9.81-4.08-7.06 0-10.72 4.78-3.67 4.79-3.67 12.75h-19.83l-.14-.42q-.35-13.76 9.05-23.29 9.39-9.53 25.31-9.53 15.71 0 24.68 8.17 8.97 8.17 8.97 21.78 0 9.22-5.06 17.01-5.06 7.78-16.72 20.42l-18.09 19.76.14.35h42.73Zm81.14-46.36v22.41q0 20.18-9.25 30.62-9.25 10.44-25.03 10.44-15.92 0-25.21-10.44-9.29-10.44-9.29-30.62v-22.41q0-20.11 9.26-30.62 9.25-10.51 25.1-10.51 15.78 0 25.1 10.51 9.32 10.51 9.32 30.62Zm-20.32 24.36v-26.46q0-12.08-3.63-17.7-3.63-5.62-10.47-5.62-6.92 0-10.48 5.59-3.56 5.58-3.56 17.73v26.46q0 12.29 3.6 17.88 3.59 5.59 10.58 5.59 6.84 0 10.4-5.59 3.56-5.59 3.56-17.88Zm102.36-24.36v22.41q0 20.18-9.25 30.62-9.25 10.44-25.03 10.44-15.92 0-25.21-10.44-9.28-10.44-9.28-30.62v-22.41q0-20.11 9.25-30.62 9.25-10.51 25.1-10.51 15.78 0 25.1 10.51 9.32 10.51 9.32 30.62Zm-20.32 24.36v-26.46q0-12.08-3.63-17.7-3.63-5.62-10.47-5.62-6.91 0-10.47 5.59-3.56 5.58-3.56 17.73v26.46q0 12.29 3.59 17.88 3.6 5.59 10.58 5.59 6.84 0 10.4-5.59 3.56-5.59 3.56-17.88Zm79.05 23.19-12.01-11.45 21.57-22-21.57-21.99 12.01-11.46 21.15 21.65 21.23-21.65 12.01 11.46-21.58 21.99 21.58 22-12.01 11.45-21.23-21.58-21.15 21.58Zm142.86-88.68q5.72 0 10.57 1.08 4.86 1.08 9.75 3.18l-3.64 14.94q-4.6-1.6-8.2-2.41-3.6-.8-8.34-.8-9.29 0-14.91 6.95-5.62 6.94-5.2 19.23l.21.35q3.42-3.56 8.65-5.58 5.24-2.03 11.8-2.03 13.62 0 21.34 9.67 7.71 9.67 7.71 24.69 0 15.36-9.53 25.34-9.53 9.99-24.68 9.99-16.13 0-26.26-10.93-10.12-10.93-10.12-30.27v-19.83q0-19.97 11.52-31.77t29.33-11.8Zm-4.68 50.34q-5.66 0-9.64 1.82-3.98 1.81-6.14 4.96v6.77q0 12.08 4.36 18.57 4.37 6.5 11.63 6.5 6.28 0 10.09-5.76 3.8-5.77 3.8-13.93 0-8.45-3.84-13.69t-10.26-5.24Zm114.37-9.21v22.41q0 20.18-9.25 30.62-9.25 10.44-25.03 10.44-15.92 0-25.21-10.44-9.29-10.44-9.29-30.62v-22.41q0-20.11 9.25-30.62 9.26-10.51 25.11-10.51 15.78 0 25.1 10.51 9.32 10.51 9.32 30.62Zm-20.32 24.36v-26.46q0-12.08-3.63-17.7-3.63-5.62-10.47-5.62-6.92 0-10.48 5.59-3.56 5.58-3.56 17.73v26.46q0 12.29 3.6 17.88 3.59 5.59 10.58 5.59 6.84 0 10.4-5.59 3.56-5.59 3.56-17.88Zm102.36-24.36v22.41q0 20.18-9.25 30.62-9.25 10.44-25.03 10.44-15.92 0-25.21-10.44-9.28-10.44-9.28-30.62v-22.41q0-20.11 9.25-30.62 9.25-10.51 25.1-10.51 15.78 0 25.1 10.51 9.32 10.51 9.32 30.62Zm-20.32 24.36v-26.46q0-12.08-3.63-17.7-3.63-5.62-10.47-5.62-6.91 0-10.47 5.59-3.56 5.58-3.56 17.73v26.46q0 12.29 3.59 17.88 3.6 5.59 10.58 5.59 6.84 0 10.4-5.59 3.56-5.59 3.56-17.88Z"/></svg>