<svg width="20" height="20" viewBox="0 0 20 20" fill="none" xmlns="http://www.w3.org/2000/svg">
<path d="M0.322528 19.9202L9.89815 10.1044C9.95814 10.043 9.96964 9.94789 9.91961 9.87806C9.33712 9.06497 8.26287 8.92404 7.86464 8.37778C6.68503 6.75964 6.38572 5.84377 5.87884 5.90057C5.84343 5.90455 5.81186 5.9236 5.78698 5.9491L2.32776 9.49506C0.337738 11.535 0.052357 16.0263 2.01604e-05 19.7872C-0.00234433 19.9571 0.203841 20.0418 0.322528 19.9202Z" fill="#017CEE"/>
<path d="M19.9203 19.6776L10.1046 10.1019C10.0431 10.0419 9.948 10.0304 9.87818 10.0804C9.06509 10.6629 8.92417 11.7372 8.3779 12.1354C6.75976 13.315 5.84388 13.6143 5.90069 14.1212C5.90466 14.1566 5.92372 14.1882 5.94922 14.213L9.49517 17.6723C11.5351 19.6623 16.0265 19.9477 19.7873 20C19.9572 20.0024 20.0419 19.7963 19.9203 19.6776Z" fill="#00AD46"/>
<path fill-rule="evenodd" clip-rule="evenodd" d="M9.4955 17.6723C8.3812 16.5853 7.86422 14.4348 10.0005 10.0001C6.52863 11.5516 5.31199 13.5911 5.9105 14.175L9.4955 17.6723Z" fill="#04D659"/>
<path d="M19.6776 0.0799357L10.102 9.89566C10.042 9.95715 10.0305 10.0522 10.0805 10.122C10.663 10.9351 11.7373 11.0761 12.1354 11.6223C13.3151 13.2404 13.6145 14.1563 14.1213 14.0996C14.1567 14.0956 14.1882 14.0765 14.2132 14.051L17.6723 10.505C19.6624 8.46511 19.9478 3.97378 20.0001 0.212912C20.0024 0.0429623 19.7963 -0.0417274 19.6776 0.0799357Z" fill="#00C7D4"/>
<path fill-rule="evenodd" clip-rule="evenodd" d="M17.6723 10.505C16.5852 11.6193 14.4347 12.1363 10 10.0001C11.5515 13.4719 13.5911 14.6886 14.175 14.09L17.6723 10.505Z" fill="#11E1EE"/>
<path d="M0.0803401 0.322527L9.89606 9.89815C9.95755 9.95813 10.0526 9.96964 10.1224 9.91961C10.9355 9.33712 11.0765 8.26287 11.6227 7.86464C13.2409 6.68503 14.1568 6.38573 14.0999 5.87884C14.096 5.84343 14.0769 5.81187 14.0515 5.78699L10.5055 2.32777C8.46552 0.337738 3.97418 0.0523571 0.213317 2.01802e-05C0.0433666 -0.00234548 -0.0413231 0.20384 0.0803401 0.322527Z" fill="#E43921"/>
<path fill-rule="evenodd" clip-rule="evenodd" d="M10.505 2.32771C11.6192 3.41476 12.1363 5.56522 10 9.99995C13.4718 8.44844 14.6885 6.40888 14.0899 5.82501L10.505 2.32771Z" fill="#FF7557"/>
<path fill-rule="evenodd" clip-rule="evenodd" d="M2.32812 9.49508C3.41518 8.38077 5.56564 7.8638 10.0004 10C8.44885 6.52821 6.4093 5.31156 5.82543 5.91007L2.32812 9.49508Z" fill="#0CB6FF"/>
<path d="M10.0069 10.4268C10.2433 10.4239 10.4326 10.2299 10.4297 9.9934C10.4268 9.75694 10.2327 9.56763 9.99626 9.57056C9.7598 9.57349 9.57049 9.76755 9.57342 10.004C9.57634 10.2405 9.7704 10.4298 10.0069 10.4268Z" fill="black"/>
</svg>
