<svg width="20" height="20" viewBox="0 0 20 20" fill="none" xmlns="http://www.w3.org/2000/svg">
<path d="M16.7066 3.6825L12.9563 8.73104L11.0408 6.29311L14.4872 1.97356C14.9826 1.35275 15.8944 1.2675 16.4962 1.78573C17.0528 2.26503 17.1447 3.09286 16.7066 3.6825Z" fill="black"/>
<path d="M5.5046 1.80529L11.7373 10.0661L5.40779 18.2543C4.88828 18.9263 3.894 18.9825 3.30212 18.3732C2.81437 17.8711 2.77392 17.0854 3.20753 16.5359L8.31259 10.0661L3.19844 3.5848C2.76441 3.03473 2.78354 2.25357 3.24399 1.72541C3.8519 1.02809 4.94742 1.0668 5.5046 1.80529Z" fill="black"/>
<path d="M16.8811 16.6721L13.0724 11.6914L11.2729 13.8971L14.7435 18.3267C15.2438 18.9651 16.1897 19.0223 16.7632 18.4488C17.2422 17.9698 17.2926 17.2102 16.8811 16.6721Z" fill="black"/>
</svg>
