<svg width="13" height="14" viewBox="0 0 13 14" fill="none" xmlns="http://www.w3.org/2000/svg">
<path fill-rule="evenodd" clip-rule="evenodd" d="M4.3796 0.5H4.33381C4.20545 0.5 4.08031 0.542737 3.97604 0.622159C3.87177 0.701622 3.79362 0.813747 3.7526 0.942853L0.0321482 12.6422C0.00106292 12.7399 -0.00765457 12.8442 0.00676014 12.9462C0.0211366 13.0483 0.0582248 13.1453 0.114928 13.2291C0.171631 13.3129 0.246342 13.3812 0.332869 13.4283C0.419395 13.4754 0.515251 13.5 0.612484 13.5H3.60619C3.73455 13.5 3.85965 13.4573 3.96392 13.3778C4.06819 13.2984 4.14634 13.1863 4.18741 13.0572L4.63926 11.6363L3.23352 10.2921C2.74474 9.82465 3.07557 9 3.75186 9H5.47761L6.49999 5.78503L4.95993 0.942122C4.91894 0.81326 4.8409 0.701297 4.73679 0.621997C4.63267 0.542656 4.50776 0.5 4.3796 0.5ZM7.68142 9.5L4.95999 0.942122C4.919 0.81326 4.84096 0.701297 4.73685 0.621997C4.63273 0.542656 4.50782 0.5 4.37965 0.5H8.66686C8.79503 0.5 8.91994 0.542656 9.02402 0.621997C9.12813 0.701297 9.20613 0.81326 9.24712 0.942122L12.9678 12.6421C12.9989 12.7399 13.0076 12.8441 12.9932 12.9462C12.9788 13.0482 12.9417 13.1452 12.885 13.229C12.8283 13.3129 12.7536 13.3812 12.6671 13.4283C12.5806 13.4754 12.4848 13.5 12.3875 13.5H9.41176H8.10033H8.0261C7.87596 13.5 7.73142 13.445 7.62167 13.3463L3.85106 9.95344C3.81119 9.91758 3.78342 9.87097 3.77139 9.81968C3.75937 9.76841 3.76363 9.71481 3.7836 9.66589C3.80361 9.61697 3.83841 9.57498 3.8835 9.5454C3.92859 9.51583 3.98188 9.5 4.03639 9.5H7.68142ZM6.13084 1.5L9.5722 12.3218C9.59082 12.3803 9.60635 12.44 9.61862 12.5H11.9292L8.43108 1.5H6.13084Z" fill="white"/>
</svg>
