<svg width="20" height="20" viewBox="0 0 20 20" fill="none" xmlns="http://www.w3.org/2000/svg">
<g clip-path="url(#clip0_3032_2197)">
<path d="M20.1068 10.4274L15.312 19H1V2H15.312L20.1068 10.4274Z" fill="#FFCC00"/>
<path fill-rule="evenodd" clip-rule="evenodd" d="M7.53865 8.46581C7.59179 8.46581 7.64439 8.46353 7.69637 8.45906L8.65516 12.0373L9.21656 11.8869L8.25998 8.31693C8.9042 8.03785 9.35489 7.39635 9.35489 6.64958C9.35489 5.64649 8.54173 4.83334 7.53865 4.83334C6.53557 4.83334 5.72241 5.64649 5.72241 6.64958C5.72241 7.65266 6.53557 8.46581 7.53865 8.46581ZM14.3676 10.5C15.0497 10.5 15.6027 9.94705 15.6027 9.26496C15.6027 8.58286 15.0497 8.02991 14.3676 8.02991C13.6855 8.02991 13.1326 8.58286 13.1326 9.26496C13.1326 9.46988 13.1825 9.66314 13.2708 9.83326L10.8081 12.296L11.219 12.707L13.6534 10.2726C13.855 10.4158 14.1015 10.5 14.3676 10.5ZM5.63298 10.3856C5.41482 10.5487 5.14402 10.6453 4.85066 10.6453C4.12844 10.6453 3.54297 10.0598 3.54297 9.33761C3.54297 8.61539 4.12844 8.02991 4.85066 8.02991C5.57288 8.02991 6.15835 8.61539 6.15835 9.33761C6.15835 9.55546 6.10508 9.76087 6.01086 9.94152L8.80123 12.7319L8.39027 13.1429L5.63298 10.3856Z" fill="white"/>
<path fill-rule="evenodd" clip-rule="evenodd" d="M13.5683 6.50427C13.5683 7.5876 12.6901 8.46581 11.6068 8.46581C11.577 8.46581 11.5473 8.46515 11.5178 8.46383L10.6263 11.1382C11.6695 11.5563 12.4062 12.5767 12.4062 13.7692C12.4062 15.334 11.1376 16.6026 9.57284 16.6026C8.00803 16.6026 6.7395 15.334 6.7395 13.7692C6.7395 12.2044 8.00803 10.9359 9.57284 10.9359C9.74135 10.9359 9.90642 10.9506 10.0669 10.9788L10.9429 8.35062C10.1863 8.07853 9.64526 7.35458 9.64526 6.50427C9.64526 5.42095 10.5235 4.54274 11.6068 4.54274C12.6901 4.54274 13.5683 5.42095 13.5683 6.50427Z" fill="#FF0000"/>
</g>
<defs>
<clipPath id="clip0_3032_2197">
<rect width="20" height="20" fill="white"/>
</clipPath>
</defs>
</svg>
