<svg width="13" height="14" viewBox="0 0 13 14" fill="none" xmlns="http://www.w3.org/2000/svg">
<path d="M13 7.00927L10.1005 1.65015C9.88281 1.25077 9.48228 1 9.0469 1H3.95313C3.51776 1 3.11722 1.25077 2.89953 1.65015L2.53383 2.32817H9.03818L8.31548 3.65635H1.81112L1.08841 4.9938H7.59277L6.87007 6.32199H0.365708L0 7.00927L0.357 7.65943H6.86135L7.57537 8.98762H1.071L1.7937 10.3158H8.29808L9.02078 11.644H2.51641L2.89953 12.3498C3.11722 12.7492 3.51776 13 3.95313 13H9.0469C9.48228 13 9.88281 12.7492 10.1005 12.3498L13 7.00927Z" fill="white"/>
</svg>
