<svg width="20" height="20" viewBox="0 0 20 20" fill="none" xmlns="http://www.w3.org/2000/svg">
<path d="M4.70019 5.92548L9.97656 2.92333C10.0288 2.89357 10.0608 2.83899 10.0608 2.77946L10.0615 0.979166C10.0615 0.712502 9.95015 0.448938 9.73504 0.287699C9.45578 0.079329 9.0979 0.0594842 8.80355 0.226925L1.42203 4.42658C1.16227 4.57417 1.00252 4.84704 1.00252 5.14285L1 14.6268C1 14.8928 1.1107 15.157 1.3258 15.3183C1.60443 15.5266 1.96357 15.5477 2.25793 15.3797L3.8209 14.4904C3.8731 14.4606 3.90518 14.406 3.90518 14.3465L3.90707 7.27864C3.9077 6.71989 4.2096 6.20454 4.70019 5.92548Z" fill="#FFC11E"/>
<path d="M17.3299 4.62047C17.1984 4.54542 17.0544 4.50821 16.9104 4.50821C16.7664 4.50821 16.6224 4.54542 16.4909 4.62047L9.11045 8.81983C8.85198 8.96682 8.69099 9.24157 8.69099 9.53616L8.68848 19.0568C8.68848 19.3558 8.84507 19.6237 9.10794 19.7732C9.37081 19.9226 9.68399 19.9226 9.94686 19.7732L17.3273 15.5732C17.5858 15.4262 17.7468 15.1514 17.7468 14.8568L17.75 5.33617C17.7493 5.03786 17.5927 4.76993 17.3299 4.62047Z" fill="#EF1161"/>
<path d="M8.67523 8.18756L13.5463 5.41662C13.5985 5.38685 13.6305 5.33227 13.6305 5.27274L13.6312 3.17592C13.6312 2.90924 13.5198 2.64505 13.3047 2.48442C13.0254 2.27604 12.6675 2.2562 12.3732 2.42365L10.3528 3.57283L4.99177 6.62286C4.73199 6.77046 4.57222 7.04334 4.57222 7.33916L4.57033 14.5034L4.5697 16.8235C4.5697 17.0896 4.68041 17.3538 4.89553 17.515C5.17418 17.724 5.53334 17.7439 5.82772 17.5764L7.79651 16.4564C7.84872 16.4266 7.88079 16.372 7.88079 16.3125L7.88268 9.54079C7.88268 8.98201 8.18461 8.46664 8.67523 8.18756Z" fill="#FC6E6B"/>
</svg>
