<svg width="14" height="14" viewBox="0 0 14 14" fill="none" xmlns="http://www.w3.org/2000/svg">
    <g clip-path="url(#clip0_1925_4226)">
        <path d="M0.554169 8.274L7 11.9017L12.7861 8.66425V9.95342L7 13.2195L0.884335 9.74283L0.554752 9.9225V10.3717L7 14L13.4458 10.3728V7.85458L13.1454 7.67433L7 11.1522L1.24425 7.85458V6.56542L7 9.80292L13.4458 6.17575V3.68667L13.1454 3.507L7 6.98483L1.54409 3.89725L7 0.809667L11.5267 3.35767L11.9163 3.11792V2.78775L7 0L0.554169 3.6575V4.0775L7 7.70408L12.7861 4.46658V5.78492L7 9.05333L0.884335 5.57667L0.554752 5.75633L0.554169 8.274Z" fill="white"/>
    </g>
    <defs>
        <clipPath id="clip0_1925_4226">
        <rect width="14" height="14" fill="white"/>
        </clipPath>
    </defs>
</svg>
