<svg width="20" height="20" viewBox="0 0 20 20" fill="none" xmlns="http://www.w3.org/2000/svg">
<path fill-rule="evenodd" clip-rule="evenodd" d="M19.8062 15.6499L10.6242 0.258103C10.4189 -0.0860344 9.91157 -0.0860344 9.70623 0.258103L1.90309 13.3383C1.76597 13.5684 2.01348 13.834 2.25948 13.721C2.36049 13.6743 2.47709 13.6275 2.60511 13.5807L2.6025 13.5858C2.6025 13.5858 2.81569 13.5048 3.17594 13.3929C3.57298 13.2733 4.00806 13.1601 4.40193 13.0644C5.50402 12.815 6.94817 12.6119 8.25037 12.8239C9.4488 13.0189 10.2834 13.3338 10.8913 13.6434C11.1699 13.7855 11.4332 13.4288 11.2078 13.2141C10.3363 12.3837 8.99525 11.3813 6.95547 10.9612C6.86617 10.9429 6.82138 10.8441 6.86755 10.7668L9.93955 5.61717C10.0406 5.448 10.2899 5.448 10.3909 5.61717L16.2579 15.452C16.3815 15.6592 16.2779 15.9237 16.0458 15.9999C15.586 16.1506 15.0369 16.2633 14.4221 16.2633C14.031 16.2633 13.6375 16.218 13.2431 16.1282C13.2431 16.1282 12.1061 15.9522 10.5864 15.0633C9.06678 14.1745 6.13672 13.0406 2.84891 14.8763C1.44803 15.7589 0.514621 16.966 0.0227642 17.7239C-0.0542736 17.8425 0.0787165 17.984 0.205229 17.9178C1.33489 17.3261 4.3807 15.9287 7.12526 16.4311C8.75656 16.7296 10.6208 17.9369 12.5587 18.6293C15.7645 19.794 18.9075 17.8426 18.9142 17.8384C19.2465 17.6232 19.4417 17.4596 19.4749 17.4312L19.515 17.3969C20.0272 16.9586 20.1495 16.2252 19.8062 15.6499Z" fill="#030615"/>
</svg>
