<svg width="13" height="14" viewBox="0 0 13 14" fill="none" xmlns="http://www.w3.org/2000/svg">
<path d="M8.70374 10.0092C7.98535 10.5345 7.10279 10.7857 6.2154 10.7172C5.32805 10.6488 4.49444 10.2653 3.8651 9.63598C3.23577 9.00665 2.85227 8.17304 2.78381 7.28569C2.71539 6.39833 2.96653 5.51577 3.4919 4.79742L4.65612 5.96212C4.42937 6.36478 4.34066 6.83055 4.40344 7.28836C4.46625 7.74616 4.67716 8.17085 5.00394 8.4976C5.33072 8.82431 5.75544 9.03514 6.21328 9.09785C6.67112 9.16059 7.13689 9.07179 7.53952 8.84497L8.70374 10.0092ZM2.67892 10.0166C1.93895 9.08061 1.56848 7.90548 1.63789 6.71434C1.70731 5.52323 2.21174 4.39907 3.05544 3.55541C3.89914 2.71171 5.0233 2.20727 6.21444 2.13786C7.40558 2.06845 8.58075 2.43891 9.51671 3.17889L10.676 2.01963C9.43061 0.975113 7.83903 0.435134 6.21516 0.506224C4.59129 0.577313 3.05298 1.25427 1.90364 2.40361C0.754271 3.55294 0.0773133 5.09122 0.00622385 6.71506C-0.0648656 8.33893 0.475113 9.93047 1.51963 11.1758L2.67892 10.0166ZM6.50061 3.27211C5.70809 3.26989 4.93582 3.52219 4.29749 3.99183L5.46219 5.15605C5.95164 4.8811 6.53014 4.81138 7.07087 4.96218L7.69097 3.4655C7.3073 3.33687 6.90525 3.27156 6.50061 3.27211ZM11.3351 6.41695C11.4369 7.26386 11.3145 8.12268 10.9802 8.90747C10.6458 9.69226 10.1112 10.3754 9.42979 10.8887C8.74841 11.4019 7.94419 11.7272 7.09759 11.832C6.25098 11.9367 5.39175 11.8173 4.60579 11.4856C4.20396 11.3161 3.82692 11.0929 3.48499 10.8221L2.32522 11.9814C3.27326 12.7761 4.42838 13.2838 5.65496 13.4447C6.88151 13.6057 8.12852 13.4133 9.2495 12.8901C10.3705 12.3668 11.3189 11.5346 11.9832 10.4911C12.6476 9.44755 13.0003 8.23609 13 6.99904C13 6.80171 12.9914 6.60719 12.9743 6.41544L11.3351 6.41695ZM10.1871 6.43073H7.30966C7.09509 6.43073 6.88928 6.51599 6.73755 6.66771C6.58583 6.81943 6.50061 7.02521 6.50061 7.23978C6.50061 7.45431 6.58583 7.66009 6.73755 7.81181C6.88928 7.96354 7.09509 8.04879 7.30966 8.04879H8.35448L9.50933 9.2036C9.86402 8.72208 10.0963 8.16155 10.1861 7.57029C10.2434 7.1926 10.2434 6.80842 10.1861 6.43073H10.1871Z" fill="white"/>
</svg>
