<svg width="13" height="13" viewBox="0 0 13 13" fill="none" xmlns="http://www.w3.org/2000/svg">
<path fill-rule="evenodd" clip-rule="evenodd" d="M1 0C0.447715 0 0 0.447715 0 1V12C0 12.5523 0.447715 13 1 13H12C12.5523 13 13 12.5523 13 12V1C13 0.447715 12.5523 0 12 0H1ZM2.90385 6.39467V5H4.38462V9H2.90385V7H2.48077V9H1V7.46534V6.13467V6.13067V5H2.48077V6.39467H2.90385ZM8.19231 9H4.80769V5H8.19231V7H6.28846V8.4H6.71154V7.4H8.19231V9ZM6.28846 5.6V6.4H6.71154V5.6H6.28846ZM10.5192 5V6.4H10.0962V5H8.61539V6L9.25 6.7L8.61539 7.4V9H10.0962V6.99467H10.5192V9H12V7.4L11.3654 6.7L12 6V5H10.5192Z" fill="black"/>
</svg>
