<svg width="12px" height="14px" viewBox="0 0 11 13" version="1.1" xmlns="http://www.w3.org/2000/svg" xmlns:xlink="http://www.w3.org/1999/xlink">
        <g stroke="none" stroke-width="1" fill="none" fill-rule="evenodd">
        <g id="jupyter" transform="translate(0.624511, 0.000000)" fill="#FFFFFF" fill-rule="nonzero">
            <path d="M9.57798872,0.739427999 C9.58448872,0.892326999 9.54598872,1.04366 9.46748872,1.1742 C9.38888872,1.30474 9.27346872,1.40927 9.13590872,1.47376 C8.99834872,1.53824 8.84467872,1.56035 8.69515872,1.53694 C8.54505872,1.51342 8.40537872,1.4457 8.29392872,1.34244 C8.18204872,1.23874 8.10325872,1.10432 8.06743872,0.956033999 C8.03155872,0.807816999 8.04013872,0.651797999 8.09214872,0.507740999 C8.14392872,0.364463999 8.23693872,0.239703999 8.35945872,0.149157999 C8.48152872,0.0589379991 8.62775872,0.00723546909 8.77940872,0.000680833092 C8.98222872,-0.00790018091 9.18037872,0.0649084991 9.33014872,0.203504999 C9.47988872,0.342100999 9.56888872,0.534783999 9.57768872,0.739167999 L9.57798872,0.739427999 Z" id="Path"></path>
            <path d="M5.10810872,9.83004 C3.06686872,9.83004 1.28434872,9.08219 0.358642719,7.97498 C0.703188719,8.96829 1.34571872,9.829 2.19705872,10.4382 C3.04839872,11.0475 4.06589872,11.3744 5.10940872,11.3744 C6.15290872,11.3744 7.17066872,11.0472 8.02174872,10.4382 C8.87282872,9.82926 9.51508872,8.96829 9.85968872,7.97498 C8.93185872,9.08219 7.14934872,9.83004 5.10810872,9.83004 Z" id="Path"></path>
            <path d="M5.10774872,2.62881 C7.14898872,2.62881 8.93175872,3.37692 9.85718872,4.48387 C9.51268872,3.49055 8.87012872,2.62985 8.01878872,2.0206 C7.16744872,1.41135 6.15020872,1.08423 5.10696872,1.08423 C4.06371872,1.08423 3.04569872,1.41135 2.19461872,2.02034 C1.34353872,2.62933 0.700738719,3.49029 0.356201719,4.48361 C1.28372872,3.379 3.06649872,2.62881 5.10774872,2.62881 Z" id="Path"></path>
            <path d="M2.30594872,11.983 C2.31439872,12.1755 2.26592872,12.3663 2.16656872,12.5314 C2.06723872,12.6962 1.92213872,12.8278 1.74843872,12.9089 C1.57473872,12.9901 1.38439872,13.0182 1.19275872,12.9885 C1.00111872,12.9589 0.827668719,12.8736 0.686998719,12.743 C0.546318719,12.6125 0.447248719,12.4432 0.401738719,12.2557 C0.356692719,12.0684 0.367724719,11.8719 0.433468719,11.6907 C0.499258719,11.5097 0.616788719,11.3527 0.771508719,11.2382 C0.926228719,11.1238 1.11032872,11.0599 1.30118872,11.0521 C1.55679872,11.0417 1.80564872,11.1337 1.99442872,11.3082 C2.18310872,11.4834 2.29504872,11.726 2.30594872,11.9832 L2.30594872,11.983 Z" id="Path"></path>
            <path d="M0.591528719,2.3782 C0.479708719,2.3834 0.368419719,2.35427 0.272468719,2.29551 C0.176517719,2.23674 0.100068719,2.15041 0.0527427188,2.04822 C0.00541671877,1.94602 -0.0104452812,1.83109 0.00671671877,1.71928 C0.0238797188,1.60746 0.0735447188,1.50293 0.149473719,1.41972 C0.225402719,1.33651 0.324214719,1.27775 0.432908719,1.2507 C0.541598719,1.22366 0.656538719,1.23042 0.761848719,1.26942 C0.867158719,1.30843 0.958688719,1.37786 1.02447872,1.46965 C1.10191872,1.57661 1.14015872,1.70697 1.13277872,1.83882 C1.12538872,1.97066 1.07281872,2.09594 0.983908719,2.19357 C0.882498719,2.30539 0.741048719,2.37143 0.591268719,2.3782 L0.591528719,2.3782 Z" id="Path"></path>
        </g>
    </g>
</svg>