<svg width="13" height="14" viewBox="0 0 13 14" fill="none" xmlns="http://www.w3.org/2000/svg">
<path fill-rule="evenodd" clip-rule="evenodd" d="M1 0.5C0.447715 0.5 0 0.947715 0 1.5V12.5C0 13.0523 0.447715 13.5 1 13.5H12C12.5523 13.5 13 13.0523 13 12.5V1.5C13 0.947715 12.5523 0.5 12 0.5H1ZM2.01883 12.1635C2.00868 12.1537 2.00018 12.1341 2.00018 12.12H2V1.90813C2 1.89406 2.00794 1.87429 2.01791 1.86397L2.34925 1.51888C2.35922 1.50855 2.37915 1.50018 2.39374 1.50018H3.53027C3.54486 1.50018 3.56479 1.50855 3.57476 1.51888L3.89835 1.85364C3.90832 1.86397 3.91644 1.88373 3.91644 1.8978V6.19897C3.91644 6.21304 3.92475 6.21642 3.93509 6.20645L8.77714 1.51798C8.78729 1.50819 8.8076 1.5 8.82218 1.5H10.4028C10.4172 1.5 10.434 1.51051 10.4398 1.52333L10.6646 2.02209C10.6703 2.03509 10.6751 2.05699 10.6751 2.07106V2.14015C10.6751 2.15421 10.6668 2.17362 10.6565 2.18359L6.75825 5.92635C6.74791 5.93633 6.74625 5.95378 6.75455 5.96535L10.9928 11.8914C11.0011 11.9029 11.0024 11.9225 10.9958 11.935L10.7056 12.4774C10.6989 12.4899 10.6816 12.5 10.667 12.5H9.06787C9.05347 12.5 9.03483 12.4904 9.02671 12.4788L5.40334 7.30422C5.39521 7.29247 5.37989 7.29105 5.36937 7.30066L3.93527 8.62191C3.92475 8.63153 3.91607 8.65094 3.91607 8.665V12.12C3.91607 12.1339 3.90777 12.1535 3.89743 12.1635L3.56756 12.4817C3.55741 12.4915 3.5371 12.4996 3.52252 12.4996H2.39374C2.37934 12.4996 2.35903 12.4916 2.3487 12.4817L2.01883 12.1635Z" fill="white"/>
</svg>
