<svg width="20" height="20" viewBox="0 0 20 20" fill="none" xmlns="http://www.w3.org/2000/svg">
<g clip-path="url(#clip0_3033_1711)">
<path d="M16.52 17.6C16.72 17.44 16.88 17.28 17.04 17.08C20.96 13.16 20.96 6.84 17.04 2.92C13.12 -1 6.80002 -1 2.88002 2.92C2.72002 3.12 2.56002 3.28 2.40002 3.48L16.52 17.6Z" fill="black"/>
<path d="M15.32 18.48L1.52005 4.67999C1.24005 5.11999 1.00005 5.55999 0.800049 6.03999L13.96 19.2C14.44 19 14.88 18.76 15.32 18.48Z" fill="black"/>
<path d="M12.44 19.72L0.28 7.56C0.12 8.16 0.04 8.76 0 9.36L10.64 20C11.24 19.96 11.84 19.88 12.44 19.72Z" fill="black"/>
<path d="M8.43996 19.92L0.0799561 11.56C0.399956 13.6 1.31996 15.52 2.87996 17.12C4.47996 18.64 6.43996 19.6 8.43996 19.92Z" fill="black"/>
</g>
<defs>
<clipPath id="clip0_3033_1711">
<rect width="20" height="20" fill="white"/>
</clipPath>
</defs>
</svg>
