<svg width="13" height="14" viewBox="0 0 13 14" fill="none" xmlns="http://www.w3.org/2000/svg">
<path fill-rule="evenodd" clip-rule="evenodd" d="M6.5 12.5C9.53757 12.5 12 10.0376 12 7C12 6.70788 11.9772 6.42108 11.9334 6.14128L10.4547 6.50997C10.4743 6.67057 10.4844 6.8341 10.4844 7C10.4844 9.20914 8.69351 11 6.48438 11C4.27524 11 2.48438 9.20914 2.48438 7C2.48438 6.48131 2.5831 5.98568 2.76278 5.53088L1.44242 4.83519C1.15767 5.49958 1 6.23138 1 7C1 10.0376 3.46243 12.5 6.5 12.5ZM3.09448 2.68087C4.03109 1.94136 5.214 1.5 6.5 1.5C8.14567 1.5 9.62253 2.22277 10.6305 3.36819L9.5566 4.43832C8.82286 3.55929 7.71893 3 6.48438 3C5.52537 3 4.64519 3.33749 3.95612 3.90017L3.09448 2.68087ZM3.65478 6.00086C3.54442 6.3134 3.48438 6.64969 3.48438 7C3.48438 8.12516 4.10379 9.10565 5.02023 9.61907L6.48438 7.5L7.29337 9.88966C8.55725 9.53656 9.48438 8.37655 9.48438 7C9.48438 6.9173 9.48103 6.83537 9.47446 6.75436L6.49759 7.49659L6.5 7.5L6.49483 7.49727L6.48436 7.49988L6.48969 7.49457L3.65478 6.00086ZM6.49349 7.49079L4.53511 4.7195C5.05942 4.27092 5.74026 4 6.48438 4C7.44227 4 8.2953 4.44894 8.84456 5.14789L6.49349 7.49079ZM6.5 13.5C10.0899 13.5 13 10.5899 13 7C13 3.41015 10.0899 0.5 6.5 0.5C2.91015 0.5 0 3.41015 0 7C0 10.5899 2.91015 13.5 6.5 13.5Z" fill="white"/>
</svg>
