<svg width="13" height="14" viewBox="0 0 13 14" fill="none" xmlns="http://www.w3.org/2000/svg">
<g clip-path="url(#clip0_2120_5584)">
<path fill-rule="evenodd" clip-rule="evenodd" d="M4.69231 1.35473C4.91119 1.44677 5.04791 1.51298 5.08157 1.7202C5.11013 1.89621 4.9928 2.0663 4.89331 2.18956C4.76679 2.34565 4.50713 2.73911 4.53264 3.36133C4.55812 3.98356 4.92035 4.3883 5.28615 4.56377C5.79886 4.80975 6.28302 5.23013 6.31312 5.82166C6.34986 6.54238 5.67846 6.89332 5.11523 6.80397C4.55201 6.71462 3.56944 6.05635 3.1715 4.74303C2.77355 3.42969 3.16487 1.96941 3.51892 1.48714C3.51892 1.48714 1.53946 2.26491 0.59105 4.37538C-0.357356 6.48589 -0.100741 8.65934 0.907866 10.3532C0.907866 10.3532 1.05684 8.5156 1.88025 8.11892C2.70367 7.72224 3.32505 8.77935 3.55768 9.36928C3.79034 9.95921 4.05562 9.94899 4.2403 9.91667C4.42498 9.88438 4.63618 9.58996 4.7719 9.19112C4.90761 8.79227 5.2137 7.97091 5.93661 7.85842C6.65953 7.74591 7.36918 8.41656 7.56201 9.29984C7.73854 10.1067 7.44877 10.8059 7.14267 11.1945C6.70596 11.7483 5.56214 12.5821 3.60871 12.6779C3.60871 12.6779 5.67336 13.5499 7.85283 12.4244C10.0323 11.2989 10.3389 8.55761 10.0935 7.2631C9.8481 5.96863 9.21956 5.1268 8.42573 4.59339C7.84142 4.20059 7.13417 4.03225 6.66156 3.91973C6.55647 3.89474 6.46299 3.87247 6.38507 3.85113C5.98354 3.7408 5.77031 3.41085 5.83357 3.03892C5.83357 3.03892 6.18302 3.33442 6.68708 3.42646C7.19113 3.5185 7.80282 3.62938 8.08188 3.67728C8.36094 3.72519 8.59357 3.43938 8.68133 3.29997C8.76909 3.16056 8.72827 2.95603 8.63186 2.88229C8.62318 2.87565 8.61225 2.86735 8.59943 2.8576L8.5991 2.85735L8.59908 2.85734C8.46933 2.75871 8.14618 2.51306 7.9727 2.34081C7.85692 2.22607 7.80124 2.10505 7.74284 1.97807C7.66999 1.81971 7.59287 1.65208 7.38959 1.47584C7.02328 1.15827 6.11466 0.650699 4.69079 1.35527L4.69231 1.35473ZM5.90498 2.53888C5.90498 2.53888 6.09425 2.31712 6.51004 2.31712C6.92583 2.31712 7.33956 2.59216 7.47834 2.71542C7.47834 2.71542 7.35385 2.16102 6.95847 1.85692C6.56309 1.5528 6.28096 1.68306 6.11517 1.85692C5.96324 2.01622 5.92653 2.34318 5.9089 2.50032C5.90727 2.51468 5.90583 2.52762 5.90447 2.53888H5.90498ZM11.9998 3.39716C11.9999 3.39706 11.9999 3.39696 12 3.39687V3.39579C11.9999 3.39625 11.9999 3.39671 11.9998 3.39716ZM10.4373 3.80862C10.548 4.19879 11.539 4.05196 11.9998 3.39716C11.8182 4.59314 10.9141 4.96744 10.2685 4.86953C10.0311 4.8339 9.72193 4.63695 9.3916 4.42649C9.198 4.30316 8.99713 4.1752 8.7992 4.07237C9.17622 4.02236 9.35863 3.79005 9.54382 3.55422C9.83501 3.18342 10.133 2.80389 11.2052 3.11052C10.9016 3.14819 10.3251 3.4184 10.4373 3.80862Z" fill="white"/>
</g>
<defs>
<clipPath id="clip0_2120_5584">
<rect width="12" height="12" fill="white" transform="translate(0 1)"/>
</clipPath>
</defs>
</svg>
