<svg width="20" height="20" viewBox="0 0 20 20" fill="none" xmlns="http://www.w3.org/2000/svg">
<g clip-path="url(#clip0_3033_1723)">
<path d="M3.28929 6.33101C3.95111 6.33101 4.48763 5.78591 4.48763 5.11351C4.48763 4.4411 3.95111 3.89601 3.28929 3.89601C2.62746 3.89601 2.09094 4.4411 2.09094 5.11351C2.09094 5.78591 2.62746 6.33101 3.28929 6.33101Z" fill="black"/>
<path d="M3.28929 9.73999C3.95111 9.73999 4.48763 9.1949 4.48763 8.52249C4.48763 7.85008 3.95111 7.30499 3.28929 7.30499C2.62746 7.30499 2.09094 7.85008 2.09094 8.52249C2.09094 9.1949 2.62746 9.73999 3.28929 9.73999Z" fill="black"/>
<path opacity="0.2" d="M6.64463 6.33101C7.30646 6.33101 7.84298 5.78591 7.84298 5.11351C7.84298 4.4411 7.30646 3.89601 6.64463 3.89601C5.98281 3.89601 5.44629 4.4411 5.44629 5.11351C5.44629 5.78591 5.98281 6.33101 6.64463 6.33101Z" fill="black"/>
<path d="M6.64463 9.7731C7.30646 9.7731 7.84298 9.22801 7.84298 8.5556C7.84298 7.8832 7.30646 7.3381 6.64463 7.3381C5.98281 7.3381 5.44629 7.8832 5.44629 8.5556C5.44629 9.22801 5.98281 9.7731 6.64463 9.7731Z" fill="black"/>
<path opacity="0.2" d="M9.99998 6.33101C10.6618 6.33101 11.1983 5.78591 11.1983 5.11351C11.1983 4.4411 10.6618 3.89601 9.99998 3.89601C9.33815 3.89601 8.80164 4.4411 8.80164 5.11351C8.80164 5.78591 9.33815 6.33101 9.99998 6.33101Z" fill="black"/>
<path opacity="0.2" d="M9.99998 2.435C10.6618 2.435 11.1983 1.8899 11.1983 1.2175C11.1983 0.545092 10.6618 0 9.99998 0C9.33815 0 8.80164 0.545092 8.80164 1.2175C8.80164 1.8899 9.33815 2.435 9.99998 2.435Z" fill="black"/>
<path opacity="0.2" d="M9.99998 9.7731C10.6618 9.7731 11.1983 9.22801 11.1983 8.5556C11.1983 7.8832 10.6618 7.3381 9.99998 7.3381C9.33815 7.3381 8.80164 7.8832 8.80164 8.5556C8.80164 9.22801 9.33815 9.7731 9.99998 9.7731Z" fill="black"/>
<path opacity="0.2" d="M13.3553 6.33101C14.0172 6.33101 14.5537 5.78591 14.5537 5.11351C14.5537 4.4411 14.0172 3.89601 13.3553 3.89601C12.6935 3.89601 12.157 4.4411 12.157 5.11351C12.157 5.78591 12.6935 6.33101 13.3553 6.33101Z" fill="black"/>
<path d="M16.7107 6.33101C17.3725 6.33101 17.909 5.78591 17.909 5.11351C17.909 4.4411 17.3725 3.89601 16.7107 3.89601C16.0488 3.89601 15.5123 4.4411 15.5123 5.11351C15.5123 5.78591 16.0488 6.33101 16.7107 6.33101Z" fill="black"/>
<path d="M13.3553 9.7731C14.0172 9.7731 14.5537 9.22801 14.5537 8.5556C14.5537 7.8832 14.0172 7.3381 13.3553 7.3381C12.6935 7.3381 12.157 7.8832 12.157 8.5556C12.157 9.22801 12.6935 9.7731 13.3553 9.7731Z" fill="black"/>
<path d="M16.7107 9.7731C17.3725 9.7731 17.909 9.22801 17.909 8.5556C17.909 7.8832 17.3725 7.3381 16.7107 7.3381C16.0488 7.3381 15.5123 7.8832 15.5123 8.5556C15.5123 9.22801 16.0488 9.7731 16.7107 9.7731Z" fill="black"/>
<path d="M3.28929 13.149C3.95111 13.149 4.48763 12.6039 4.48763 11.9315C4.48763 11.2591 3.95111 10.714 3.28929 10.714C2.62746 10.714 2.09094 11.2591 2.09094 11.9315C2.09094 12.6039 2.62746 13.149 3.28929 13.149Z" fill="black"/>
<path opacity="0.2" d="M6.64463 13.1821C7.30646 13.1821 7.84298 12.637 7.84298 11.9646C7.84298 11.2922 7.30646 10.7471 6.64463 10.7471C5.98281 10.7471 5.44629 11.2922 5.44629 11.9646C5.44629 12.637 5.98281 13.1821 6.64463 13.1821Z" fill="black"/>
<path d="M9.99998 13.1821C10.6618 13.1821 11.1983 12.637 11.1983 11.9646C11.1983 11.2922 10.6618 10.7471 9.99998 10.7471C9.33815 10.7471 8.80164 11.2922 8.80164 11.9646C8.80164 12.637 9.33815 13.1821 9.99998 13.1821Z" fill="black"/>
<path opacity="0.2" d="M13.3553 13.1821C14.0172 13.1821 14.5537 12.637 14.5537 11.9646C14.5537 11.2922 14.0172 10.7471 13.3553 10.7471C12.6935 10.7471 12.157 11.2922 12.157 11.9646C12.157 12.637 12.6935 13.1821 13.3553 13.1821Z" fill="black"/>
<path d="M16.7107 13.1821C17.3725 13.1821 17.909 12.637 17.909 11.9646C17.909 11.2922 17.3725 10.7471 16.7107 10.7471C16.0488 10.7471 15.5123 11.2922 15.5123 11.9646C15.5123 12.637 16.0488 13.1821 16.7107 13.1821Z" fill="black"/>
<path d="M3.28929 16.558C3.95111 16.558 4.48763 16.0129 4.48763 15.3405C4.48763 14.668 3.95111 14.123 3.28929 14.123C2.62746 14.123 2.09094 14.668 2.09094 15.3405C2.09094 16.0129 2.62746 16.558 3.28929 16.558Z" fill="black"/>
<path opacity="0.2" d="M6.64463 16.5911C7.30646 16.5911 7.84298 16.046 7.84298 15.3736C7.84298 14.7012 7.30646 14.1561 6.64463 14.1561C5.98281 14.1561 5.44629 14.7012 5.44629 15.3736C5.44629 16.046 5.98281 16.5911 6.64463 16.5911Z" fill="black"/>
<path opacity="0.2" d="M9.99998 16.5911C10.6618 16.5911 11.1983 16.046 11.1983 15.3736C11.1983 14.7012 10.6618 14.1561 9.99998 14.1561C9.33815 14.1561 8.80164 14.7012 8.80164 15.3736C8.80164 16.046 9.33815 16.5911 9.99998 16.5911Z" fill="black"/>
<path opacity="0.2" d="M9.99998 20C10.6618 20 11.1983 19.455 11.1983 18.7825C11.1983 18.1101 10.6618 17.565 9.99998 17.565C9.33815 17.565 8.80164 18.1101 8.80164 18.7825C8.80164 19.455 9.33815 20 9.99998 20Z" fill="black"/>
<path opacity="0.2" d="M13.3553 16.5911C14.0172 16.5911 14.5537 16.046 14.5537 15.3736C14.5537 14.7012 14.0172 14.1561 13.3553 14.1561C12.6935 14.1561 12.157 14.7012 12.157 15.3736C12.157 16.046 12.6935 16.5911 13.3553 16.5911Z" fill="black"/>
<path d="M16.7107 16.5911C17.3725 16.5911 17.909 16.046 17.909 15.3736C17.909 14.7012 17.3725 14.1561 16.7107 14.1561C16.0488 14.1561 15.5123 14.7012 15.5123 15.3736C15.5123 16.046 16.0488 16.5911 16.7107 16.5911Z" fill="black"/>
</g>
<defs>
<clipPath id="clip0_3033_1723">
<rect width="20" height="20" fill="white"/>
</clipPath>
</defs>
</svg>
