<svg width="13" height="14" viewBox="0 0 13 14" fill="none" xmlns="http://www.w3.org/2000/svg">
<path d="M10.2651 1.67823C7.61773 -0.173166 4.01337 0.190835 1.79014 2.53412C-0.433089 4.87741 -0.605453 8.49409 1.38485 11.038L3.37201 9.58016C2.38562 8.35721 2.1853 6.67837 2.85622 5.25785C3.52713 3.8373 4.95128 2.92489 6.52287 2.90875L6.47584 4.46061L10.2651 1.67823Z" fill="white"/>
<path d="M11.7347 3.12663C11.6688 3.03571 11.5998 2.94635 11.5292 2.86017L9.61578 4.27094C10.696 5.46567 10.9762 7.18186 10.3321 8.65786C9.68808 10.1339 8.23904 11.0962 6.628 11.1179L6.67506 9.56767L2.84351 12.3892C5.46931 14.1564 8.98608 13.7819 11.1804 11.5015C13.3747 9.22095 13.6119 5.69417 11.7425 3.14074L11.7347 3.12663Z" fill="white"/>
</svg>
