<svg width="13" height="14" viewBox="0 0 13 14" fill="none" xmlns="http://www.w3.org/2000/svg">
<g clip-path="url(#clip0_1941_5375)">
<path fill-rule="evenodd" clip-rule="evenodd" d="M7.10466 4.725C8.18996 4.725 9.06977 3.77921 9.06977 2.6125C9.06977 1.4458 8.18996 0.5 7.10466 0.5C6.01935 0.5 5.13954 1.4458 5.13954 2.6125C5.13954 3.77921 6.01935 4.725 7.10466 4.725ZM9.72491 5.375H7.38796C7.4142 5.43967 7.42857 5.50987 7.42857 5.58322V11.4168C7.42857 11.7389 7.15146 12 6.80964 12H4.28476C4.88834 12.8855 5.85379 13.4711 6.95349 13.5C8.83458 13.4505 10.3228 11.7724 10.2791 9.75016V5.99998C10.2863 5.66299 10.0384 5.38334 9.72491 5.375ZM12.9352 3.2625C12.9352 4.07022 12.3261 4.725 11.5748 4.725C10.8234 4.725 10.2143 4.07022 10.2143 3.2625C10.2143 2.45478 10.8234 1.8 11.5748 1.8C12.3261 1.8 12.9352 2.45478 12.9352 3.2625ZM0.541566 5H5.95843C6.25753 5 6.5 5.22382 6.5 5.49991V10.5001C6.5 10.7762 6.25753 11 5.95843 11H0.541566C0.242465 11 0 10.7762 0 10.5001V5.49991C0 5.22382 0.242471 5 0.541566 5ZM4.64286 6.64988H3.58464V10H2.91045V6.64988H1.85714V6H4.64286V6.64988Z" fill="white"/>
<path fill-rule="evenodd" clip-rule="evenodd" d="M10.5537 11.9971C10.9446 11.3675 11.161 10.6303 11.1418 9.84632V6H12.37C12.718 6 13.0001 6.26863 13.0001 6.6V9.79484C13.0001 11.0127 11.9633 12 10.6843 12H10.6734C10.6332 12 10.5933 11.999 10.5537 11.9971Z" fill="white"/>
</g>
<defs>
<clipPath id="clip0_1941_5375">
<rect width="13" height="13" fill="white" transform="translate(0 0.5)"/>
</clipPath>
</defs>
</svg>
