<svg width="13px" height="14px" viewBox="0 0 13 14" version="1.1" xmlns="http://www.w3.org/2000/svg" xmlns:xlink="http://www.w3.org/1999/xlink">
        <g stroke="none" stroke-width="1" fill="none" fill-rule="evenodd">
        <g id="noteable" transform="translate(0.000000, 0.703995)" fill="#171615" fill-rule="nonzero">
            <path d="M12.8125375,0.0470170313 C12.7056125,-0.0156723438 12.5808375,-0.0156723438 12.4739125,0.0470170313 L8.731765,2.16054541 L7.35963375,0.154482781 C7.3507,0.145528031 7.34180125,0.136572406 7.34180125,0.127616781 L7.3329025,0.118661156 C7.3239775,0.100749906 7.30615375,0.0917942812 7.297255,0.0828386563 L7.28833,0.0738830313 C7.27943125,0.0649282813 7.26159875,0.0559726563 7.243775,0.0470170313 C7.23487625,0.0470170313 7.23487625,0.0380614063 7.2259775,0.0380614063 C7.2170525,0.0291057813 7.19922875,0.0291057813 7.19033,0.0201501563 C7.18143125,0.0201501563 7.17250625,0.0111945312 7.1636075,0.0111945312 C7.1546825,0.0111945312 7.14578375,0.0111945312 7.12795125,0.00223890625 C7.11906125,0.00223890625 7.10122875,0.00223890625 7.09233,0.00223890625 C7.083405,0.00223890625 7.07450625,0.00223890625 7.06558125,0.00223890625 C7.04778375,0.00223890625 7.03885875,0.00223890625 7.02102625,0.0111945312 C7.01213625,0.0111945312 7.01213625,0.0111945312 7.0032375,0.0111945312 C6.98541375,0.0111945312 6.97648,0.0201501563 6.9586825,0.0291057813 C6.9497575,0.0291057813 6.9497575,0.0291057813 6.94085875,0.0380614063 C6.93193375,0.0380614063 6.923035,0.0470170313 6.91413625,0.0470170313 L0.169288875,3.85315416 C0.16037875,3.85315416 0.16037875,3.86209666 0.1514695,3.86209666 L0.142559375,3.86209666 C0.124739125,3.87107416 0.10691975,3.88895916 0.098009625,3.89793666 L0.0890995,3.90687916 C0.080189725,3.91584791 0.0712795125,3.93374166 0.06236965,3.94271041 L0.0534597875,3.95165291 C0.0445496625,3.96957291 0.0356398,3.98749291 0.02672985,4.00540416 L0.02672985,4.01434666 C0.0178199,4.03226666 0.0178199,4.04120916 0.0178199,4.05912916 C0.0178199,4.06807166 0.0178199,4.06807166 0.0178199,4.07704916 C0,4.11284541 0,4.13076541 0,4.14868541 L0,12.2803929 C0,12.3967679 0.06236965,12.5132304 0.169288875,12.5758804 C0.22274875,12.6027429 0.28511875,12.6206804 0.33857775,12.6206804 C0.392037625,12.6206804 0.454405875,12.6027429 0.507868375,12.5758804 L4.25004125,10.4624054 L5.61327375,12.4774429 C5.61327375,12.4774429 5.61327375,12.4774429 5.6221725,12.4863679 C5.6221725,12.4952929 5.63110625,12.4952929 5.63110625,12.5043054 C5.640005,12.5132304 5.640005,12.5132304 5.648895,12.5221554 L5.65782875,12.5311679 C5.6667275,12.5400929 5.6667275,12.5400929 5.6756525,12.5490179 L5.68455125,12.5580304 C5.69345,12.5669554 5.702375,12.5669554 5.71127375,12.5758804 C5.71127375,12.5758804 5.72019875,12.5758804 5.72019875,12.5848929 C5.72019875,12.5848929 5.72019875,12.5848929 5.7290975,12.5848929 C5.73799625,12.5938179 5.74692125,12.5938179 5.75582,12.5938179 C5.76475375,12.5938179 5.76475375,12.5938179 5.7736525,12.6027429 C5.78255125,12.6027429 5.79147625,12.6117554 5.800375,12.6117554 C5.8093,12.6117554 5.8093,12.6117554 5.81819875,12.6206804 C5.8270975,12.6206804 5.8360225,12.6206804 5.84492125,12.6296929 L5.85384625,12.6296929 C5.87164375,12.6296929 5.8805775,12.6296929 5.89840125,12.6296929 C5.89840125,12.6296929 5.89840125,12.6296929 5.9073,12.6296929 C5.91619875,12.6296929 5.9340225,12.6296929 5.9429475,12.6296929 C5.95184625,12.6296929 5.95184625,12.6296929 5.960745,12.6296929 C5.96967,12.6296929 5.97856875,12.6296929 5.98749375,12.6206804 C5.9963925,12.6206804 5.9963925,12.6206804 6.00529125,12.6117554 C6.014225,12.6117554 6.023115,12.6027429 6.03204875,12.6027429 C6.0409475,12.6027429 6.0409475,12.5938179 6.0498725,12.5938179 C6.0498725,12.5938179 6.05877125,12.5938179 6.05877125,12.5848929 L12.8036125,8.77873041 C12.9105375,8.71608041 12.9728375,8.60863041 12.9728375,8.48324291 L12.9728375,0.342549156 C12.9728375,0.217179156 12.9105375,0.109705531 12.8125375,0.0470170313 Z M0.677156375,11.7071804 L0.677156375,5.24126291 L3.8579975,9.90713041 L0.677156375,11.7071804 Z M5.7290975,3.85315416 C5.6221725,3.91584791 5.5598025,4.02329791 5.5598025,4.14868541 L5.5598025,11.1877804 L0.82862675,4.26509541 L6.97648,0.790330406 L8.13479625,2.49189916 L5.7290975,3.85315416 Z M12.3046,8.27726791 L6.236965,11.7071804 L6.236965,4.34570916 L12.3046,0.924669156 L12.3046,8.27726791 Z" id="Shape"></path>
        </g>
    </g>
</svg>