<svg width="20" height="20" viewBox="0 0 20 20" fill="none" xmlns="http://www.w3.org/2000/svg">
<g clip-path="url(#clip0_3033_1703)">
<path fill-rule="evenodd" clip-rule="evenodd" d="M13.27 0.0453334L2.2034 0.862733C1.3106 0.939933 1 1.52333 1 2.22253V14.3545C1 14.8991 1.1934 15.3651 1.66 15.9879L4.2614 19.3705C4.6888 19.9151 5.0774 20.0319 5.8934 19.9931L18.7448 19.2151C19.8314 19.1377 20.1428 18.6317 20.1428 17.7765V4.12793C20.1428 3.68593 19.9682 3.55853 19.4542 3.18133L15.8334 0.628533C14.9788 0.00713334 14.6294 -0.0714666 13.27 0.0451334V0.0453334ZM6.184 3.90453C5.1346 3.97513 4.8966 3.99113 4.3006 3.50653L2.7854 2.30133C2.6314 2.14533 2.7088 1.95073 3.0968 1.91193L13.7354 1.13453C14.6288 1.05653 15.094 1.36793 15.4434 1.63993L17.268 2.96193C17.346 3.00133 17.54 3.23393 17.3066 3.23393L6.32 3.89533L6.184 3.90453ZM4.9606 17.6599V6.07333C4.9606 5.56733 5.116 5.33393 5.5812 5.29473L18.2 4.55593C18.628 4.51733 18.8214 4.78933 18.8214 5.29453V16.8039C18.8214 17.3099 18.7434 17.7379 18.0448 17.7765L5.9694 18.4765C5.2708 18.5151 4.9608 18.2825 4.9608 17.6599H4.9606ZM16.8806 6.69453C16.958 7.04453 16.8806 7.39453 16.5306 7.43453L15.9486 7.54993V16.1045C15.4432 16.3765 14.978 16.5319 14.5892 16.5319C13.9678 16.5319 13.8126 16.3373 13.3472 15.7545L9.5412 9.76653V15.5599L10.7452 15.8325C10.7452 15.8325 10.7452 16.5325 9.7738 16.5325L7.0958 16.6879C7.0178 16.5319 7.0958 16.1433 7.3672 16.0659L8.0666 15.8719V8.21193L7.096 8.13333C7.018 7.78333 7.212 7.27793 7.756 7.23873L10.6294 7.04533L14.5894 13.1107V7.74473L13.58 7.62873C13.502 7.20013 13.8126 6.88873 14.2006 6.85073L16.8806 6.69453Z" fill="black"/>
</g>
<defs>
<clipPath id="clip0_3033_1703">
<rect width="20" height="20" fill="white"/>
</clipPath>
</defs>
</svg>
