<svg width="13" height="14" viewBox="0 0 13 14" fill="none" xmlns="http://www.w3.org/2000/svg">
<path d="M12.1893 5.82188C12.3548 5.375 12.3962 4.92813 12.3548 4.48125C12.3135 4.03438 12.148 3.5875 11.9411 3.18125C11.5687 2.57187 11.0308 2.08438 10.4101 1.8C9.74809 1.51563 9.04468 1.43438 8.34128 1.59688C8.01026 1.27188 7.63787 0.9875 7.2241 0.784375C6.81033 0.58125 6.3138 0.5 5.85866 0.5C5.15525 0.5 4.45184 0.703125 3.87256 1.10938C3.29329 1.51562 2.87952 2.08437 2.67263 2.73438C2.17611 2.85625 1.76234 3.05938 1.34857 3.30313C0.976175 3.5875 0.686536 3.95312 0.438274 4.31875C0.0658817 4.92812 -0.0582492 5.61875 0.0245047 6.30938C0.107259 7 0.396897 7.65 0.852044 8.17812C0.686536 8.625 0.645159 9.07188 0.686536 9.51875C0.727913 9.96563 0.893421 10.4125 1.10031 10.8187C1.4727 11.4281 2.0106 11.9156 2.63125 12.2C3.29328 12.4844 3.99669 12.5656 4.7001 12.4031C5.03112 12.7281 5.40351 13.0125 5.81728 13.2156C6.23105 13.4187 6.72757 13.5 7.18272 13.5C7.88613 13.5 8.58954 13.2969 9.16881 12.8906C9.74809 12.4844 10.1619 11.9156 10.3687 11.2656C10.8239 11.1844 11.279 10.9813 11.6514 10.6969C12.0238 10.4125 12.3548 10.0875 12.5617 9.68125C12.9341 9.07188 13.0582 8.38125 12.9755 7.69063C12.8927 7 12.6445 6.35 12.1893 5.82188ZM7.2241 12.6469C6.56207 12.6469 6.06554 12.4437 5.6104 12.0781C5.6104 12.0781 5.65177 12.0375 5.69315 12.0375L8.34128 10.5344C8.42403 10.4938 8.46541 10.4531 8.50678 10.3719C8.54816 10.2906 8.54816 10.25 8.54816 10.1687V6.5125L9.66534 7.1625V10.1687C9.70672 11.5906 8.54816 12.6469 7.2241 12.6469ZM1.88647 10.4125C1.59683 9.925 1.4727 9.35625 1.59683 8.7875C1.59683 8.7875 1.63821 8.82812 1.67958 8.82812L4.32771 10.3313C4.41046 10.3719 4.45184 10.3719 4.53459 10.3719C4.61735 10.3719 4.7001 10.3719 4.74148 10.3313L7.96888 8.50313V9.7625L5.27938 11.3063C4.7001 11.6313 4.03807 11.7125 3.41742 11.55C2.75538 11.3875 2.21748 10.9812 1.88647 10.4125ZM1.18306 4.76562C1.4727 4.27812 1.92785 3.9125 2.46575 3.70938V3.79063V6.79688C2.46575 6.87813 2.46575 6.95937 2.50712 7C2.5485 7.08125 2.58988 7.12187 2.67263 7.1625L5.90003 8.99062L4.78286 9.64062L2.13473 8.1375C1.55545 7.8125 1.14168 7.28437 0.976175 6.675C0.810667 6.06562 0.852044 5.33437 1.18306 4.76562ZM10.3274 6.8375L7.09997 5.00938L8.21714 4.35938L10.8653 5.8625C11.279 6.10625 11.6101 6.43125 11.8169 6.8375C12.0238 7.24375 12.148 7.69062 12.1066 8.17812C12.0652 8.625 11.8997 9.07188 11.6101 9.4375C11.3204 9.80312 10.948 10.0875 10.4929 10.25V7.1625C10.4929 7.08125 10.4929 7 10.4515 6.95937C10.4515 6.95937 10.4101 6.87813 10.3274 6.8375ZM11.4445 5.2125C11.4445 5.2125 11.4032 5.17188 11.3618 5.17188L8.71367 3.66875C8.63091 3.62813 8.58954 3.62812 8.50678 3.62812C8.42403 3.62812 8.34127 3.62813 8.2999 3.66875L5.07249 5.49688V4.2375L7.762 2.69375C8.17577 2.45 8.63091 2.36875 9.12744 2.36875C9.58258 2.36875 10.0377 2.53125 10.4515 2.81562C10.8239 3.1 11.1549 3.46563 11.3204 3.87188C11.4859 4.27813 11.5273 4.76563 11.4445 5.2125ZM4.49322 7.4875L3.37604 6.8375V3.79063C3.37604 3.34375 3.50017 2.85625 3.74843 2.49063C3.99669 2.08438 4.36909 1.8 4.78286 1.59688C5.19663 1.39375 5.69315 1.3125 6.1483 1.39375C6.60344 1.43438 7.05859 1.6375 7.43098 1.92188C7.43098 1.92188 7.38961 1.9625 7.34823 1.9625L4.7001 3.46563C4.61735 3.50625 4.57597 3.54687 4.53459 3.62812C4.49322 3.70937 4.49322 3.75 4.49322 3.83125V7.4875ZM5.07249 6.1875L6.52069 5.375L7.96888 6.1875V7.8125L6.52069 8.625L5.07249 7.8125V6.1875Z" fill="white"/>
</svg>
