<svg width="20" height="20" viewBox="0 0 20 20" fill="none" xmlns="http://www.w3.org/2000/svg">
<path d="M10.3212 0H11.1259C12.4453 0.064127 13.6832 0.36127 14.8397 0.891429C21.3754 3.88857 21.4127 12.6171 16.5854 17.239C14.8149 18.9337 12.6887 19.854 10.2068 20H9.4021C6.9553 19.8603 4.84576 19.0003 3.07348 17.42C1.18677 15.7368 0.162272 13.5457 0 10.8467V10.0476C0.0647878 8.80444 0.324847 7.64794 0.780178 6.5781C1.52312 4.83079 2.65085 3.37873 4.16337 2.2219C5.96108 0.846667 8.0137 0.106032 10.3212 0ZM17.3792 4.72095C13.5246 -0.41619 4.89087 0.621905 2.01538 6.31429C0.0672097 10.1705 1.72566 14.6924 4.98261 17.0838C7.24503 18.7457 10.1478 19.0981 12.7617 18.1495C14.7338 17.4333 16.3129 16.1844 17.4991 14.4029C19.4926 11.4076 19.5526 7.61714 17.3792 4.72095Z" fill="#1488C9"/>
<path d="M9.25501 17.4438C4.99264 16.9943 0.732996 12.6686 2.43413 7.90093C3.3124 5.43808 5.57119 3.64855 7.94079 2.97617C9.85415 2.43268 11.6952 2.53268 13.4638 3.27617C17.4346 4.94474 19.1267 9.64379 16.8488 13.5686C16.5091 14.1546 16.1419 14.6536 15.7471 15.0657C13.97 16.9203 11.806 17.713 9.25501 17.4438ZM4.07986 8.3895C2.65937 12.3362 5.65112 16.1 9.41032 16.3219C11.5238 16.4476 13.8861 15.5581 15.1404 13.7086C16.5418 11.6419 16.8452 9.00284 15.6399 6.77522C14.8934 5.39617 13.5256 4.33236 12.0833 3.89522C8.72006 2.87712 5.2524 5.1295 4.07986 8.3895Z" fill="#1488C9"/>
<path d="M12.6426 5.90094C15.3455 7.36761 15.826 10.8419 13.7897 13.1638C11.708 15.54 8.30031 15.2762 6.18865 13.1428C5.75512 12.7054 5.4227 12.2016 5.1914 11.6314C4.44755 9.79332 5.08423 7.91046 6.51289 6.67523C8.21584 5.2038 10.649 4.81903 12.6426 5.90094ZM6.90162 7.4457C6.8889 7.44697 6.87922 7.45364 6.87256 7.4657C6.78779 7.61999 6.69151 7.77173 6.58373 7.92094C6.58071 7.92538 6.57829 7.93015 6.57647 7.93523C6.57284 7.94792 6.57223 7.96094 6.57465 7.97427C6.57699 7.98598 6.57538 7.99811 6.57011 8.00856C6.41329 8.32094 6.28311 8.64602 6.17957 8.9838C6.10933 9.21237 6.08299 9.45967 6.10055 9.7257C6.10176 9.74348 6.09601 9.75904 6.0833 9.77237L6.05151 9.8057C6.02729 9.83173 6.02729 9.85777 6.05151 9.8838C6.11629 9.95427 6.11993 10.0321 6.06241 10.1171C6.05393 10.1305 6.05332 10.1444 6.06059 10.159L6.07966 10.1962C6.09298 10.2222 6.09873 10.2501 6.09692 10.28C6.07149 10.6559 6.12598 11.0422 6.2604 11.439C6.32035 11.6174 6.38089 11.7816 6.44205 11.9314C6.45537 11.9638 6.47444 11.9908 6.49927 12.0124C6.52409 12.0333 6.53711 12.0613 6.53832 12.0962C6.54014 12.1317 6.55316 12.1616 6.57738 12.1857L6.75176 12.3543C6.77588 12.3771 6.79217 12.4079 6.79808 12.4419C6.81201 12.5225 6.86529 12.5971 6.95793 12.6657C6.96935 12.674 6.97802 12.6859 6.98274 12.6997C6.98745 12.7135 6.98799 12.7286 6.98427 12.7428C6.9764 12.7733 6.98306 12.7997 7.00425 12.8219C7.01362 12.8323 7.02549 12.8398 7.0386 12.8436C7.05172 12.8475 7.06558 12.8475 7.07873 12.8438C7.12414 12.8305 7.15169 12.8482 7.16138 12.8971C7.16561 12.9206 7.17924 12.9343 7.20225 12.9381C7.26643 12.9489 7.29065 12.9882 7.27491 13.0562C7.27163 13.0699 7.27312 13.0845 7.27911 13.0972C7.2851 13.1099 7.29519 13.12 7.3076 13.1257C7.32456 13.1333 7.34181 13.1346 7.35937 13.1295C7.37307 13.1255 7.3876 13.1264 7.40051 13.1322C7.41341 13.1379 7.42391 13.1481 7.43021 13.1609C7.48108 13.2613 7.55434 13.3152 7.65001 13.3228C7.66333 13.3237 7.67634 13.3278 7.68812 13.3347C7.6999 13.3416 7.71015 13.3512 7.71813 13.3628C7.73508 13.3876 7.73932 13.4152 7.73084 13.4457C7.72418 13.4705 7.73145 13.4892 7.75264 13.5019C7.77504 13.5152 7.79866 13.5178 7.82348 13.5095C7.85012 13.5013 7.86889 13.5101 7.87979 13.5362C7.90341 13.5908 7.94428 13.6143 8.00241 13.6067C8.01684 13.6047 8.03147 13.6074 8.04431 13.6144C8.05714 13.6214 8.06757 13.6323 8.07416 13.6457C8.09959 13.6997 8.14046 13.7178 8.19677 13.7C8.21554 13.6936 8.22886 13.7 8.23673 13.719C8.26216 13.7819 8.30697 13.8073 8.37115 13.7952C8.39174 13.7921 8.40748 13.7994 8.41838 13.8171C8.46621 13.8921 8.53706 13.9155 8.63091 13.8876C8.65755 13.8794 8.67541 13.8889 8.68449 13.9162C8.71659 14.0076 8.78531 14.0467 8.89066 14.0333C8.9276 14.0282 8.96332 14.0336 8.99784 14.0495C9.08018 14.087 9.16919 14.0965 9.26486 14.0781C9.30058 14.0711 9.32541 14.0851 9.33934 14.12C9.34539 14.1365 9.35568 14.1492 9.37022 14.1581C9.38959 14.1708 9.41109 14.1771 9.4347 14.1771C9.80829 14.1803 10.1749 14.179 10.5346 14.1733C10.6048 14.1721 10.6748 14.1546 10.7444 14.1209C10.7777 14.1051 10.8125 14.1009 10.8488 14.1086C10.9233 14.1244 10.9742 14.0981 11.0014 14.0295C11.0123 14.0016 11.032 13.9876 11.0604 13.9876H11.2693C11.285 13.9876 11.3005 13.9841 11.3148 13.9772C11.3291 13.9703 11.3418 13.9602 11.352 13.9476C11.3998 13.8898 11.4634 13.8708 11.5427 13.8905C11.5863 13.9019 11.6178 13.8863 11.6372 13.8438C11.682 13.7447 11.7604 13.6943 11.8724 13.6924C11.9033 13.6917 11.9305 13.6809 11.9542 13.66L12.0813 13.5457C12.1104 13.5197 12.144 13.5073 12.1821 13.5086C12.2094 13.5092 12.2281 13.4955 12.2384 13.4676C12.2505 13.4333 12.2742 13.4162 12.3093 13.4162H12.3456C12.3783 13.4155 12.4019 13.4003 12.4165 13.3705C12.4395 13.3216 12.4749 13.2809 12.5227 13.2486C12.5488 13.2308 12.5727 13.2105 12.5945 13.1876L13.2003 12.5552C13.219 12.5355 13.229 12.5114 13.2302 12.4828C13.2321 12.4378 13.2475 12.4003 13.2766 12.3705C13.374 12.2701 13.4452 12.1524 13.49 12.0171C13.5172 11.934 13.5566 11.8552 13.6081 11.7809C13.665 11.6984 13.6983 11.607 13.708 11.5067C13.711 11.4692 13.7252 11.4374 13.7507 11.4114C13.793 11.3676 13.8073 11.3143 13.7933 11.2514C13.7849 11.2114 13.7946 11.1768 13.8224 11.1476L13.8524 11.1162C13.8736 11.094 13.8842 11.0676 13.8842 11.0371V10.7371C13.8842 10.7143 13.892 10.6946 13.9078 10.6781L13.9432 10.64C13.9644 10.6178 13.975 10.5914 13.975 10.5609V9.42665C13.975 9.39427 13.9659 9.36475 13.9477 9.33808C13.929 9.31015 13.9217 9.27935 13.9259 9.2457C13.9405 9.13332 13.9123 9.01046 13.8987 8.89332C13.8975 8.8857 13.8945 8.87903 13.8896 8.87332C13.8842 8.86634 13.8766 8.86253 13.8669 8.86189C13.85 8.86062 13.8403 8.85142 13.8378 8.83427L13.8061 8.62189C13.8006 8.58697 13.7815 8.56538 13.7488 8.55713C13.7125 8.54824 13.6977 8.52443 13.7043 8.4857C13.7063 8.47372 13.7054 8.46144 13.7018 8.44997C13.6981 8.43849 13.6918 8.42819 13.6834 8.41999C13.638 8.37491 13.6141 8.32158 13.6117 8.25999C13.6105 8.23078 13.6014 8.20475 13.5844 8.18189C13.5015 8.07078 13.4349 7.95237 13.3846 7.82665C13.3805 7.81605 13.3736 7.80655 13.3647 7.79904C13.3459 7.78316 13.3368 7.76348 13.3374 7.73999C13.3374 7.70951 13.3268 7.68348 13.3056 7.66189C13.1766 7.52792 13.0583 7.3857 12.9505 7.23523C12.8736 7.12665 12.7773 7.0365 12.6617 6.96475C12.6314 6.9457 12.6123 6.91745 12.6045 6.87999C12.5978 6.84507 12.5793 6.8184 12.5491 6.79999C12.4607 6.74602 12.3798 6.68031 12.3066 6.60284C12.2908 6.58634 12.2717 6.58062 12.2493 6.5857C12.237 6.58859 12.2242 6.5878 12.2123 6.58343C12.2005 6.57905 12.19 6.57126 12.1821 6.56094L12.0777 6.42761C12.0601 6.40475 12.0374 6.39332 12.0096 6.39332H11.9651C11.9414 6.39332 11.9248 6.38189 11.9151 6.35903C11.8939 6.31015 11.8579 6.29078 11.807 6.30094C11.7725 6.30729 11.7444 6.29618 11.7226 6.26761C11.6953 6.23078 11.6614 6.21046 11.6208 6.20665C11.5942 6.20411 11.5706 6.19396 11.55 6.17618C11.4943 6.12729 11.4265 6.10443 11.3465 6.10761C11.3241 6.10824 11.3036 6.10126 11.2848 6.08665C11.2024 6.02189 11.1031 5.9984 10.9869 6.01618C10.9463 6.02253 10.9163 6.00729 10.897 5.97046C10.883 5.94316 10.8612 5.92888 10.8316 5.92761L10.4755 5.91332C10.4707 5.91269 10.4668 5.91046 10.4637 5.90665C10.4589 5.89904 10.4559 5.89078 10.4547 5.88189C10.4516 5.86475 10.4419 5.85523 10.4256 5.85332C10.1882 5.8203 9.94998 5.81173 9.71081 5.82761C9.6884 5.82888 9.66903 5.83777 9.65268 5.85427L9.62271 5.88665C9.60333 5.90697 9.57972 5.91713 9.55186 5.91713H9.28666C9.25638 5.91713 9.22914 5.92665 9.20492 5.9457C9.1262 6.00792 9.03296 6.02951 8.92518 6.01046C8.89188 6.00411 8.86402 6.01396 8.84162 6.03999C8.7841 6.10411 8.71083 6.12634 8.62183 6.10665C8.61096 6.10429 8.59966 6.10478 8.5889 6.1081C8.57814 6.11142 8.56824 6.11746 8.56007 6.1257C8.50497 6.18094 8.43533 6.22602 8.35117 6.26094C8.27367 6.29332 8.20525 6.32792 8.14591 6.36475C8.06356 6.41554 7.97879 6.45078 7.8916 6.47046C7.86787 6.4758 7.84561 6.48682 7.82655 6.50267C7.8075 6.51853 7.79215 6.53879 7.7817 6.56189C7.74901 6.63364 7.69845 6.67332 7.63003 6.68094C7.58704 6.68538 7.55041 6.7038 7.52013 6.73618C7.33061 6.93618 7.13776 7.13713 6.94158 7.33903C6.91736 7.36443 6.90858 7.39364 6.91524 7.42665C6.91706 7.43808 6.91252 7.44443 6.90162 7.4457Z" fill="#1488C9"/>
<path d="M6.91535 7.42666C6.90869 7.39365 6.91747 7.36444 6.94169 7.33904C7.13787 7.13714 7.33072 6.93619 7.52024 6.73619C7.55051 6.70381 7.58714 6.68539 7.63013 6.68095C7.69855 6.67333 7.74911 6.63365 7.78181 6.5619C7.79226 6.5388 7.8076 6.51854 7.82666 6.50268C7.84572 6.48683 7.86797 6.47581 7.89171 6.47047C7.9789 6.45079 8.06367 6.41555 8.14601 6.36476C8.20535 6.32793 8.27377 6.29333 8.35128 6.26095C8.43544 6.22603 8.50507 6.18095 8.56017 6.12571C8.56835 6.11747 8.57824 6.11143 8.589 6.10811C8.59977 6.10479 8.61107 6.1043 8.62193 6.10666C8.71094 6.12635 8.7842 6.10412 8.84173 6.04C8.86413 6.01396 8.89198 6.00412 8.92528 6.01047C9.03306 6.02952 9.12631 6.00793 9.20502 5.94571C9.22924 5.92666 9.25649 5.91714 9.28676 5.91714H9.55197C9.57982 5.91714 9.60344 5.90698 9.62281 5.88666L9.65278 5.85428C9.66913 5.83777 9.68851 5.82889 9.71091 5.82762C9.95008 5.81174 10.1883 5.82031 10.4257 5.85333C10.442 5.85523 10.4517 5.86476 10.4548 5.8819C10.456 5.89079 10.459 5.89904 10.4638 5.90666C10.4669 5.91047 10.4708 5.9127 10.4756 5.91333L10.8317 5.92762C10.8613 5.92889 10.8831 5.94317 10.8971 5.97047C10.9164 6.0073 10.9464 6.02254 10.987 6.01619C11.1032 5.99841 11.2025 6.0219 11.2849 6.08666C11.3037 6.10127 11.3242 6.10825 11.3467 6.10762C11.4266 6.10444 11.4944 6.1273 11.5501 6.17619C11.5707 6.19396 11.5943 6.20412 11.6209 6.20666C11.6615 6.21047 11.6954 6.23079 11.7227 6.26762C11.7445 6.29619 11.7726 6.3073 11.8071 6.30095C11.858 6.29079 11.894 6.31016 11.9152 6.35904C11.9249 6.3819 11.9415 6.39333 11.9652 6.39333H12.0097C12.0375 6.39333 12.0602 6.40476 12.0778 6.42762L12.1822 6.56095C12.1901 6.57127 12.2006 6.57906 12.2125 6.58344C12.2243 6.58781 12.2372 6.5886 12.2494 6.58571C12.2718 6.58063 12.2909 6.58635 12.3067 6.60285C12.3799 6.68031 12.4608 6.74603 12.5492 6.8C12.5794 6.81841 12.5979 6.84508 12.6046 6.88C12.6124 6.91746 12.6315 6.94571 12.6618 6.96476C12.7774 7.0365 12.8737 7.12666 12.9506 7.23523C13.0584 7.38571 13.1768 7.52793 13.3057 7.6619C13.3269 7.68349 13.3375 7.70952 13.3375 7.74C13.3369 7.76349 13.346 7.78317 13.3648 7.79904C13.3737 7.80655 13.3806 7.81606 13.3847 7.82666C13.435 7.95238 13.5016 8.07079 13.5846 8.1819C13.6015 8.20476 13.6106 8.23079 13.6118 8.26C13.6142 8.32158 13.6381 8.37492 13.6836 8.42C13.6919 8.4282 13.6982 8.4385 13.7019 8.44998C13.7055 8.46145 13.7064 8.47373 13.7044 8.48571C13.6978 8.52444 13.7126 8.54825 13.7489 8.55714C13.7816 8.56539 13.8007 8.58698 13.8062 8.6219L13.838 8.83428C13.8404 8.85143 13.8501 8.86063 13.867 8.8619C13.8767 8.86254 13.8843 8.86635 13.8897 8.87333C13.8946 8.87904 13.8976 8.88571 13.8988 8.89333C13.9124 9.01047 13.9406 9.13333 13.9261 9.24571C13.9218 9.27936 13.9291 9.31016 13.9479 9.33809C13.966 9.36476 13.9751 9.39428 13.9751 9.42666V10.5609C13.9751 10.5914 13.9645 10.6178 13.9433 10.64L13.9079 10.6781C13.8921 10.6946 13.8843 10.7143 13.8843 10.7371V11.0371C13.8843 11.0676 13.8737 11.094 13.8525 11.1162L13.8225 11.1476C13.7947 11.1768 13.785 11.2114 13.7934 11.2514C13.8074 11.3143 13.7931 11.3676 13.7508 11.4114C13.7253 11.4375 13.7111 11.4692 13.7081 11.5067C13.6984 11.607 13.6651 11.6984 13.6082 11.7809C13.5567 11.8552 13.5173 11.934 13.4901 12.0171C13.4453 12.1524 13.3741 12.2702 13.2767 12.3705C13.2476 12.4003 13.2322 12.4378 13.2303 12.4829C13.2291 12.5114 13.2191 12.5356 13.2004 12.5552L12.5946 13.1876C12.5728 13.2105 12.5489 13.2308 12.5228 13.2486C12.475 13.2809 12.4396 13.3216 12.4166 13.3705C12.402 13.4003 12.3784 13.4156 12.3457 13.4162H12.3094C12.2743 13.4162 12.2507 13.4333 12.2385 13.4676C12.2282 13.4956 12.2095 13.5092 12.1822 13.5086C12.1441 13.5073 12.1105 13.5197 12.0814 13.5457L11.9543 13.66C11.9306 13.6809 11.9034 13.6917 11.8725 13.6924C11.7605 13.6943 11.6821 13.7448 11.6373 13.8438C11.6179 13.8863 11.5864 13.9019 11.5428 13.8905C11.4635 13.8708 11.3999 13.8898 11.3521 13.9476C11.3419 13.9602 11.3292 13.9703 11.3149 13.9772C11.3006 13.9841 11.2851 13.9876 11.2695 13.9876H11.0606C11.0321 13.9876 11.0124 14.0016 11.0015 14.0295C10.9743 14.0981 10.9234 14.1244 10.8489 14.1086C10.8126 14.1009 10.7778 14.1051 10.7445 14.1209C10.6749 14.1546 10.6049 14.1721 10.5347 14.1733C10.175 14.179 9.8084 14.1803 9.43481 14.1771C9.41119 14.1771 9.3897 14.1708 9.37032 14.1581C9.35579 14.1492 9.3455 14.1365 9.33944 14.12C9.32552 14.0851 9.30069 14.0711 9.26497 14.0781C9.1693 14.0965 9.08029 14.087 8.99794 14.0495C8.96343 14.0336 8.92771 14.0283 8.89077 14.0333C8.78541 14.0467 8.71669 14.0076 8.6846 13.9162C8.67552 13.8889 8.65766 13.8794 8.63101 13.8876C8.53716 13.9156 8.46632 13.8921 8.41849 13.8171C8.40759 13.7994 8.39184 13.7921 8.37126 13.7952C8.30707 13.8073 8.26227 13.7819 8.23684 13.719C8.22897 13.7 8.21565 13.6936 8.19688 13.7C8.14056 13.7178 8.09969 13.6997 8.07426 13.6457C8.06767 13.6323 8.05725 13.6214 8.04441 13.6144C8.03157 13.6074 8.01694 13.6047 8.00251 13.6067C7.94438 13.6143 7.90351 13.5908 7.8799 13.5362C7.869 13.5102 7.85023 13.5013 7.82359 13.5095C7.79876 13.5178 7.77515 13.5152 7.75275 13.5019C7.73155 13.4892 7.72429 13.4705 7.73095 13.4457C7.73943 13.4152 7.73519 13.3876 7.71823 13.3629C7.71025 13.3512 7.70001 13.3416 7.68823 13.3347C7.67645 13.3278 7.66343 13.3237 7.65012 13.3229C7.55445 13.3152 7.48118 13.2613 7.43032 13.1609C7.42401 13.1481 7.41352 13.1379 7.40061 13.1322C7.3877 13.1264 7.37317 13.1255 7.35948 13.1295C7.34192 13.1346 7.32466 13.1333 7.30771 13.1257C7.2953 13.12 7.2852 13.11 7.27922 13.0972C7.27323 13.0845 7.27174 13.07 7.27501 13.0562C7.29075 12.9883 7.26653 12.9489 7.20235 12.9381C7.17934 12.9343 7.16572 12.9206 7.16148 12.8971C7.15179 12.8483 7.12424 12.8305 7.07883 12.8438C7.06569 12.8476 7.05182 12.8475 7.03871 12.8436C7.0256 12.8398 7.01373 12.8323 7.00436 12.8219C6.98316 12.7997 6.9765 12.7733 6.98437 12.7429C6.98809 12.7286 6.98756 12.7135 6.98284 12.6997C6.97812 12.6859 6.96946 12.674 6.95804 12.6657C6.8654 12.5971 6.81211 12.5225 6.79819 12.4419C6.79228 12.4079 6.77599 12.3771 6.75187 12.3543L6.57748 12.1857C6.55326 12.1616 6.54025 12.1317 6.53843 12.0962C6.53722 12.0613 6.5242 12.0333 6.49937 12.0124C6.47455 11.9908 6.45548 11.9638 6.44216 11.9314C6.381 11.7816 6.32045 11.6175 6.26051 11.439C6.12609 11.0422 6.07159 10.6559 6.09702 10.28C6.09884 10.2502 6.09309 10.2222 6.07977 10.1962L6.0607 10.159C6.05343 10.1444 6.05403 10.1305 6.06251 10.1171C6.12003 10.0321 6.1164 9.95428 6.05161 9.88381C6.02739 9.85777 6.02739 9.83174 6.05161 9.80571L6.0834 9.77238C6.09612 9.75904 6.10187 9.74349 6.10066 9.72571C6.0831 9.45968 6.10944 9.21238 6.17967 8.98381C6.28321 8.64603 6.41339 8.32095 6.57022 8.00857C6.57549 7.99812 6.5771 7.98599 6.57476 7.97428C6.57234 7.96095 6.57294 7.94793 6.57658 7.93523C6.57839 7.93016 6.58081 7.92539 6.58384 7.92095C6.69162 7.77174 6.78789 7.62 6.87266 7.46571C6.87932 7.45365 6.88901 7.44698 6.90172 7.44571C6.91262 7.44444 6.91716 7.43809 6.91535 7.42666ZM8.156 7.51524C7.01889 8.28381 6.26323 9.67238 6.701 11.0962C7.17783 12.6448 8.82538 13.5419 10.3058 13.3533C11.9061 13.1495 13.3366 11.8771 13.5437 10.1552C13.6593 9.19206 13.3853 8.37333 12.7217 7.69904C11.4974 6.45523 9.49838 6.60952 8.156 7.51524Z" fill="#1488C9"/>
<path d="M12.1427 9.26094C12.2138 9.47281 12.234 9.70116 12.2022 9.93294C12.1703 10.1647 12.087 10.3954 11.957 10.6118C11.8269 10.8282 11.6527 11.0261 11.4444 11.1942C11.236 11.3623 10.9974 11.4973 10.7424 11.5915C10.4874 11.6856 10.2208 11.7372 9.95795 11.7431C9.69509 11.749 9.44109 11.7092 9.21044 11.626C8.97979 11.5428 8.77701 11.4178 8.61367 11.2581C8.45033 11.0984 8.32964 10.9071 8.25849 10.6952C8.18734 10.4834 8.16712 10.255 8.19898 10.0233C8.23084 9.79147 8.31416 9.56079 8.44419 9.34438C8.57422 9.12797 8.7484 8.93007 8.95679 8.76199C9.16519 8.5939 9.40371 8.45891 9.65875 8.36473C9.91379 8.27056 10.1803 8.21903 10.4432 8.2131C10.7061 8.20717 10.9601 8.24695 11.1907 8.33017C11.4214 8.41339 11.6241 8.53842 11.7875 8.69813C11.9508 8.85783 12.0715 9.04907 12.1427 9.26094ZM9.75131 10.6141C9.89173 10.7138 10.0708 10.7407 10.249 10.6889C10.4273 10.6371 10.5902 10.5108 10.7019 10.3378C10.7572 10.2522 10.7982 10.1576 10.8227 10.0596C10.8472 9.96158 10.8546 9.862 10.8446 9.76653C10.8345 9.67106 10.8072 9.58158 10.7641 9.5032C10.721 9.42482 10.6631 9.35907 10.5935 9.30971C10.4531 9.21001 10.2741 9.18312 10.0958 9.23494C9.91753 9.28675 9.75464 9.41304 9.64296 9.58601C9.58766 9.67166 9.54659 9.76619 9.52211 9.86421C9.49763 9.96223 9.4902 10.0618 9.50027 10.1573C9.51033 10.2527 9.53768 10.3422 9.58075 10.4206C9.62382 10.499 9.68178 10.5647 9.75131 10.6141Z" fill="#1488C9"/>
</svg>
