<svg width="24" height="12" viewBox="0 0 24 12" fill="none" xmlns="http://www.w3.org/2000/svg">
<g clip-path="url(#clip0_2224_4240)">
<path d="M0.689217 9.0155H0.13494C0.0604148 9.0155 0 9.07622 0 9.15112V11.2149C0 11.2898 0.0604148 11.3505 0.13494 11.3505H0.689217C0.763743 11.3505 0.824158 11.2898 0.824158 11.2149V9.15112C0.824158 9.07622 0.763743 9.0155 0.689217 9.0155Z" fill="white"/>
<path d="M1.85024 6.30359H1.4163C1.30855 6.30359 1.22119 6.39138 1.22119 6.49968V9.01566C1.22119 9.12396 1.30855 9.21176 1.4163 9.21176H1.85024C1.95799 9.21176 2.04535 9.12396 2.04535 9.01566V6.49968C2.04535 6.39138 1.95799 6.30359 1.85024 6.30359Z" fill="white"/>
<path d="M1.91041 9.54382H1.35613C1.28161 9.54382 1.22119 9.60454 1.22119 9.67944V11.8644C1.22119 11.9393 1.28161 12 1.35613 12H1.91041C1.98493 12 2.04535 11.9393 2.04535 11.8644V9.67944C2.04535 9.60454 1.98493 9.54382 1.91041 9.54382Z" fill="white"/>
<path d="M3.1316 3.56598H2.57732C2.5028 3.56598 2.44238 3.6267 2.44238 3.7016V7.79322C2.44238 7.86812 2.5028 7.92884 2.57732 7.92884H3.1316C3.20613 7.92884 3.26654 7.86812 3.26654 7.79322V3.7016C3.26654 3.6267 3.20613 3.56598 3.1316 3.56598Z" fill="white"/>
<path d="M3.1316 8.31329H2.57732C2.5028 8.31329 2.44238 8.37401 2.44238 8.44891V9.71789C2.44238 9.79279 2.5028 9.85351 2.57732 9.85351H3.1316C3.20613 9.85351 3.26654 9.79279 3.26654 9.71789V8.44891C3.26654 8.37401 3.20613 8.31329 3.1316 8.31329Z" fill="white"/>
<path d="M3.07143 10.8878H2.63749C2.52974 10.8878 2.44238 10.9756 2.44238 11.0839V11.8039C2.44238 11.9122 2.52974 12 2.63749 12H3.07143C3.17919 12 3.26654 11.9122 3.26654 11.8039V11.0839C3.26654 10.9756 3.17919 10.8878 3.07143 10.8878Z" fill="white"/>
<path d="M4.35279 1.62549H3.79851C3.72399 1.62549 3.66357 1.68621 3.66357 1.76111V4.65501C3.66357 4.72991 3.72399 4.79063 3.79851 4.79063H4.35279C4.42732 4.79063 4.48773 4.72991 4.48773 4.65501V1.76111C4.48773 1.68621 4.42732 1.62549 4.35279 1.62549Z" fill="white"/>
<path d="M4.35308 5.14325H3.79823C3.72386 5.14325 3.66357 5.20384 3.66357 5.27858V9.20111C3.66357 9.27585 3.72386 9.33644 3.79823 9.33644H4.35308C4.42745 9.33644 4.48773 9.27585 4.48773 9.20111V5.27858C4.48773 5.20384 4.42745 5.14325 4.35308 5.14325Z" fill="white"/>
<path d="M5.57398 1.02832H5.01971C4.94518 1.02832 4.88477 1.08904 4.88477 1.16394V3.09371C4.88477 3.16861 4.94518 3.22933 5.01971 3.22933H5.57398C5.64851 3.22933 5.70892 3.16861 5.70892 3.09371V1.16394C5.70892 1.08904 5.64851 1.02832 5.57398 1.02832Z" fill="white"/>
<path d="M5.57423 3.56879H5.01995C4.94542 3.56879 4.88501 3.62951 4.88501 3.70441V6.48109C4.88501 6.55599 4.94542 6.61671 5.01995 6.61671H5.57423C5.64875 6.61671 5.70917 6.55599 5.70917 6.48109V3.70441C5.70917 3.62951 5.64875 3.56879 5.57423 3.56879Z" fill="white"/>
<path d="M5.57423 7.01648H5.01995C4.94542 7.01648 4.88501 7.0772 4.88501 7.1521V9.64672C4.88501 9.72162 4.94542 9.78234 5.01995 9.78234H5.57423C5.64875 9.78234 5.70917 9.72162 5.70917 9.64672V7.1521C5.70917 7.0772 5.64875 7.01648 5.57423 7.01648Z" fill="white"/>
<path d="M6.735 0.544312H6.30107C6.19331 0.544312 6.10596 0.632106 6.10596 0.740405V4.36372C6.10596 4.47202 6.19331 4.55981 6.30107 4.55981H6.735C6.84276 4.55981 6.93011 4.47202 6.93011 4.36372V0.740405C6.93011 0.632106 6.84276 0.544312 6.735 0.544312Z" fill="white"/>
<path d="M6.735 4.95972H6.30107C6.19331 4.95972 6.10596 5.04751 6.10596 5.15581V5.99677C6.10596 6.10507 6.19331 6.19286 6.30107 6.19286H6.735C6.84276 6.19286 6.93011 6.10507 6.93011 5.99677V5.15581C6.93011 5.04751 6.84276 4.95972 6.735 4.95972Z" fill="white"/>
<path d="M6.73445 6.47229H6.30107C6.19331 6.47229 6.10596 6.56008 6.10596 6.66838V10.4126C6.10596 10.5209 6.19331 10.6087 6.30107 10.6087H6.73445C6.84221 10.6087 6.92956 10.5209 6.92956 10.4126V6.66838C6.92956 6.56008 6.84221 6.47229 6.73445 6.47229Z" fill="white"/>
<path d="M7.95619 0.0606079H7.52226C7.4145 0.0606079 7.32715 0.148402 7.32715 0.256702V0.976711C7.32715 1.08501 7.4145 1.17281 7.52226 1.17281H7.95619C8.06395 1.17281 8.15131 1.08501 8.15131 0.976711V0.256702C8.15131 0.148402 8.06395 0.0606079 7.95619 0.0606079Z" fill="white"/>
<path d="M7.95619 1.51202H7.52226C7.4145 1.51202 7.32715 1.59982 7.32715 1.70812V7.26716C7.32715 7.37546 7.4145 7.46325 7.52226 7.46325H7.95619C8.06395 7.46325 8.15131 7.37546 8.15131 7.26716V1.70812C8.15131 1.59982 8.06395 1.51202 7.95619 1.51202Z" fill="white"/>
<path d="M7.95619 7.86334H7.52226C7.4145 7.86334 7.32715 7.95114 7.32715 8.05944V9.5656C7.32715 9.6739 7.4145 9.76169 7.52226 9.76169H7.95619C8.06395 9.76169 8.15131 9.6739 8.15131 9.5656V8.05944C8.15131 7.95114 8.06395 7.86334 7.95619 7.86334Z" fill="white"/>
<path d="M7.95619 10.162H7.52226C7.4145 10.162 7.32715 10.2498 7.32715 10.3581V11.32C7.32715 11.4283 7.4145 11.5161 7.52226 11.5161H7.95619C8.06395 11.5161 8.15131 11.4283 8.15131 11.32V10.3581C8.15131 10.2498 8.06395 10.162 7.95619 10.162Z" fill="white"/>
<path d="M9.17739 9.85919H8.74345C8.63569 9.85919 8.54834 9.94699 8.54834 10.0553V11.8039C8.54834 11.9122 8.63569 12 8.74345 12H9.17739C9.28514 12 9.3725 11.9122 9.3725 11.8039V10.0553C9.3725 9.94699 9.28514 9.85919 9.17739 9.85919Z" fill="white"/>
<path d="M9.17739 3.81091H8.74345C8.63569 3.81091 8.54834 3.89871 8.54834 4.00701V8.29553C8.54834 8.40383 8.63569 8.49162 8.74345 8.49162H9.17739C9.28514 8.49162 9.3725 8.40383 9.3725 8.29553V4.00701C9.3725 3.89871 9.28514 3.81091 9.17739 3.81091Z" fill="white"/>
<path d="M9.17739 0H8.74345C8.63569 0 8.54834 0.0877942 8.54834 0.196094V3.21438C8.54834 3.32268 8.63569 3.41048 8.74345 3.41048H9.17739C9.28514 3.41048 9.3725 3.32268 9.3725 3.21438V0.196094C9.3725 0.0877942 9.28514 0 9.17739 0Z" fill="white"/>
<path d="M10.3986 10.7668H9.96464C9.85689 10.7668 9.76953 10.8546 9.76953 10.9629V11.8039C9.76953 11.9122 9.85689 12 9.96464 12H10.3986C10.5063 12 10.5937 11.9122 10.5937 11.8039V10.9629C10.5937 10.8546 10.5063 10.7668 10.3986 10.7668Z" fill="white"/>
<path d="M10.3986 0.0604858H9.96464C9.85689 0.0604858 9.76953 0.14828 9.76953 0.25658V5.39202C9.76953 5.50032 9.85689 5.58811 9.96464 5.58811H10.3986C10.5063 5.58811 10.5937 5.50032 10.5937 5.39202V0.25658C10.5937 0.14828 10.5063 0.0604858 10.3986 0.0604858Z" fill="white"/>
<path d="M10.3986 5.98834H9.96464C9.85689 5.98834 9.76953 6.07614 9.76953 6.18444V8.29562C9.76953 8.40392 9.85689 8.49172 9.96464 8.49172H10.3986C10.5063 8.49172 10.5937 8.40392 10.5937 8.29562V6.18444C10.5937 6.07614 10.5063 5.98834 10.3986 5.98834Z" fill="white"/>
<path d="M11.6198 0.302429H11.1858C11.0781 0.302429 10.9907 0.390223 10.9907 0.498523V1.94421C10.9907 2.05251 11.0781 2.14031 11.1858 2.14031H11.6198C11.7275 2.14031 11.8149 2.05251 11.8149 1.94421V0.498523C11.8149 0.390223 11.7275 0.302429 11.6198 0.302429Z" fill="white"/>
<path d="M11.6198 2.54022H11.1858C11.0781 2.54022 10.9907 2.62802 10.9907 2.73632V8.29507C10.9907 8.40337 11.0781 8.49116 11.1858 8.49116H11.6198C11.7275 8.49116 11.8149 8.40337 11.8149 8.29507V2.73632C11.8149 2.62802 11.7275 2.54022 11.6198 2.54022Z" fill="white"/>
<path d="M12.841 0.423462H12.407C12.2993 0.423462 12.2119 0.511256 12.2119 0.619556V3.81955C12.2119 3.92785 12.2993 4.01565 12.407 4.01565H12.841C12.9487 4.01565 13.0361 3.92785 13.0361 3.81955V0.619556C13.0361 0.511256 12.9487 0.423462 12.841 0.423462Z" fill="white"/>
<path d="M12.841 4.41577H12.407C12.2993 4.41577 12.2119 4.50357 12.2119 4.61187V7.2676C12.2119 7.3759 12.2993 7.4637 12.407 7.4637H12.841C12.9487 7.4637 13.0361 7.3759 13.0361 7.2676V4.61187C13.0361 4.50357 12.9487 4.41577 12.841 4.41577Z" fill="white"/>
<path d="M12.841 7.86316H12.407C12.2993 7.86316 12.2119 7.95095 12.2119 8.05925V9.26305C12.2119 9.37135 12.2993 9.45914 12.407 9.45914H12.841C12.9487 9.45914 13.0361 9.37135 13.0361 9.26305V8.05925C13.0361 7.95095 12.9487 7.86316 12.841 7.86316Z" fill="white"/>
<path d="M14.0546 0.605103H13.6206C13.5129 0.605103 13.4255 0.692897 13.4255 0.801196V5.75521C13.4255 5.86351 13.5129 5.95131 13.6206 5.95131H14.0546C14.1623 5.95131 14.2497 5.86351 14.2497 5.75521V0.801196C14.2497 0.692897 14.1623 0.605103 14.0546 0.605103Z" fill="white"/>
<path d="M14.0546 6.35132H13.6206C13.5129 6.35132 13.4255 6.43911 13.4255 6.54741V10.4731C13.4255 10.5814 13.5129 10.6692 13.6206 10.6692H14.0546C14.1623 10.6692 14.2497 10.5814 14.2497 10.4731V6.54741C14.2497 6.43911 14.1623 6.35132 14.0546 6.35132Z" fill="white"/>
<path d="M15.2675 0.423523H14.8335C14.7258 0.423523 14.6384 0.511317 14.6384 0.619617V2.7308C14.6384 2.8391 14.7258 2.9269 14.8335 2.9269H15.2675C15.3752 2.9269 15.4626 2.8391 15.4626 2.7308V0.619617C15.4626 0.511317 15.3752 0.423523 15.2675 0.423523Z" fill="white"/>
<path d="M15.2675 3.32684H14.8335C14.7258 3.32684 14.6384 3.41464 14.6384 3.52294V9.687C14.6384 9.7953 14.7258 9.88309 14.8335 9.88309H15.2675C15.3752 9.88309 15.4626 9.7953 15.4626 9.687V3.52294C15.4626 3.41464 15.3752 3.32684 15.2675 3.32684Z" fill="white"/>
<path d="M15.2675 10.2829H14.8335C14.7258 10.2829 14.6384 10.3707 14.6384 10.479V11.6223C14.6384 11.7306 14.7258 11.8184 14.8335 11.8184H15.2675C15.3752 11.8184 15.4626 11.7306 15.4626 11.6223V10.479C15.4626 10.3707 15.3752 10.2829 15.2675 10.2829Z" fill="white"/>
<path d="M16.4884 9.91992H16.0545C15.9467 9.91992 15.8594 10.0077 15.8594 10.116V11.8039C15.8594 11.9122 15.9467 12 16.0545 12H16.4884C16.5962 12 16.6835 11.9122 16.6835 11.8039V10.116C16.6835 10.0077 16.5962 9.91992 16.4884 9.91992Z" fill="white"/>
<path d="M16.4884 4.77856H16.0545C15.9467 4.77856 15.8594 4.86636 15.8594 4.97466V6.11827C15.8594 6.22657 15.9467 6.31436 16.0545 6.31436H16.4884C16.5962 6.31436 16.6835 6.22657 16.6835 6.11827V4.97466C16.6835 4.86636 16.5962 4.77856 16.4884 4.77856Z" fill="white"/>
<path d="M16.4884 0.362976H16.0545C15.9467 0.362976 15.8594 0.45077 15.8594 0.55907V4.18238C15.8594 4.29068 15.9467 4.37848 16.0545 4.37848H16.4884C16.5962 4.37848 16.6835 4.29068 16.6835 4.18238V0.55907C16.6835 0.45077 16.5962 0.362976 16.4884 0.362976Z" fill="white"/>
<path d="M17.7262 0.665588H17.2923C17.1845 0.665588 17.0972 0.753383 17.0972 0.861682V5.45286C17.0972 5.56116 17.1845 5.64895 17.2923 5.64895H17.7262C17.834 5.64895 17.9213 5.56116 17.9213 5.45286V0.861682C17.9213 0.753383 17.834 0.665588 17.7262 0.665588Z" fill="white"/>
<path d="M17.7262 10.8878H17.2923C17.1845 10.8878 17.0972 10.9756 17.0972 11.0839V11.8039C17.0972 11.9122 17.1845 12 17.2923 12H17.7262C17.834 12 17.9213 11.9122 17.9213 11.8039V11.0839C17.9213 10.9756 17.834 10.8878 17.7262 10.8878Z" fill="white"/>
<path d="M18.9301 1.02856H18.4961C18.3884 1.02856 18.301 1.11636 18.301 1.22466V2.36827C18.301 2.47657 18.3884 2.56436 18.4961 2.56436H18.9301C19.0378 2.56436 19.1252 2.47657 19.1252 2.36827V1.22466C19.1252 1.11636 19.0378 1.02856 18.9301 1.02856Z" fill="white"/>
<path d="M18.9301 2.96387H18.4961C18.3884 2.96387 18.301 3.05166 18.301 3.15996V5.33162C18.301 5.43992 18.3884 5.52771 18.4961 5.52771H18.9301C19.0378 5.52771 19.1252 5.43992 19.1252 5.33162V3.15996C19.1252 3.05166 19.0378 2.96387 18.9301 2.96387Z" fill="white"/>
<path d="M20.1666 1.33057H19.7327C19.625 1.33057 19.5376 1.41836 19.5376 1.52666V2.24667C19.5376 2.35497 19.625 2.44276 19.7327 2.44276H20.1666C20.2744 2.44276 20.3618 2.35497 20.3618 2.24667V1.52666C20.3618 1.41836 20.2744 1.33057 20.1666 1.33057Z" fill="white"/>
<path d="M20.1666 2.78235H19.7327C19.625 2.78235 19.5376 2.87014 19.5376 2.97844V3.63798C19.5376 3.74628 19.625 3.83407 19.7327 3.83407H20.1666C20.2744 3.83407 20.3618 3.74628 20.3618 3.63798V2.97844C20.3618 2.87014 20.2744 2.78235 20.1666 2.78235Z" fill="white"/>
<path d="M20.1666 4.17346H19.7327C19.625 4.17346 19.5376 4.26126 19.5376 4.36956V5.45241C19.5376 5.56071 19.625 5.6485 19.7327 5.6485H20.1666C20.2744 5.6485 20.3618 5.56071 20.3618 5.45241V4.36956C20.3618 4.26126 20.2744 4.17346 20.1666 4.17346Z" fill="white"/>
<path d="M21.3876 1.69373H20.9537C20.8459 1.69373 20.7585 1.78152 20.7585 1.88982V5.63408C20.7585 5.74238 20.8459 5.83017 20.9537 5.83017H21.3876C21.4953 5.83017 21.5827 5.74238 21.5827 5.63408V1.88982C21.5827 1.78152 21.4953 1.69373 21.3876 1.69373Z" fill="white"/>
<path d="M22.601 2.78223H22.167C22.0593 2.78223 21.9719 2.87002 21.9719 2.97832V5.51282C21.9719 5.62112 22.0593 5.70892 22.167 5.70892H22.601C22.7087 5.70892 22.7961 5.62112 22.7961 5.51282V2.97832C22.7961 2.87002 22.7087 2.78223 22.601 2.78223Z" fill="white"/>
<path d="M23.8048 4.17352H23.3709C23.2631 4.17352 23.1758 4.26132 23.1758 4.36962V5.08963C23.1758 5.19793 23.2631 5.28572 23.3709 5.28572H23.8048C23.9126 5.28572 23.9999 5.19793 23.9999 5.08963V4.36962C23.9999 4.26132 23.9126 4.17352 23.8048 4.17352Z" fill="white"/>
</g>
<defs>
<clipPath id="clip0_2224_4240">
<rect width="24" height="12" fill="white"/>
</clipPath>
</defs>
</svg>
