<svg width="13" height="14" viewBox="0 0 13 14" fill="none" xmlns="http://www.w3.org/2000/svg">
<path d="M9.33944 0.5C8.8188 0.503757 8.30118 0.577215 7.80124 0.718294L7.76607 0.729127C7.45073 0.675062 7.1315 0.645177 6.81133 0.639751C6.15361 0.628918 5.58858 0.783836 5.13299 1.04167C4.68409 0.890545 3.7528 0.630001 2.77125 0.682002C2.08786 0.718294 1.34193 0.919796 0.789183 1.48584C0.238111 2.05189 -0.0533366 2.92777 0.00807969 4.11945C0.0248296 4.44824 0.121421 4.9845 0.281661 5.67892C0.441902 6.37334 0.666909 7.18639 0.947749 7.92794C1.22859 8.67003 1.53623 9.33629 2.01695 9.78912C2.25703 10.0161 2.58756 10.2068 2.97728 10.191C3.25086 10.1802 3.4982 10.0638 3.71148 9.89204C3.81533 10.0248 3.92644 10.0827 4.02749 10.1363C4.15479 10.204 4.27874 10.2501 4.40716 10.2804C4.63775 10.3362 5.03249 10.411 5.49478 10.3346C5.65223 10.3091 5.81806 10.2593 5.98332 10.1883C5.98946 10.3671 5.99672 10.542 6.00398 10.7192C6.02687 11.2803 6.04139 11.7987 6.21503 12.2532C6.24295 12.3274 6.31944 12.7098 6.62094 13.0473C6.92243 13.3853 7.51315 13.596 8.18593 13.4562C8.66051 13.3577 9.26407 13.18 9.66495 12.6264C10.0614 12.0793 10.24 11.2944 10.2752 10.0215C10.2841 9.95271 10.2947 9.89421 10.3059 9.8395L10.4003 9.84763H10.4114C10.9178 9.86983 11.4672 9.79996 11.9262 9.59304C12.3326 9.4105 12.6403 9.22579 12.8642 8.89807C12.92 8.81682 12.9814 8.71878 12.9982 8.54978C13.0149 8.38078 12.915 8.11644 12.7492 7.99457C12.417 7.74973 12.2081 7.8429 11.9843 7.88786C11.7637 7.93516 11.5389 7.96165 11.3131 7.96694C11.9586 6.91231 12.4214 5.79213 12.6855 4.80087C12.8418 4.21587 12.9295 3.67636 12.9368 3.20457C12.944 2.73277 12.9044 2.31514 12.6129 1.95385C11.7023 0.825003 10.422 0.513 9.43157 0.502167C9.40086 0.501625 9.37015 0.501083 9.33944 0.501625V0.5ZM9.3132 0.84667C10.2501 0.838003 11.4471 1.09313 12.3064 2.1586C12.4996 2.39802 12.5571 2.74794 12.5504 3.17911C12.5431 3.60974 12.4611 4.12541 12.3109 4.69037C12.0194 5.78455 11.4689 7.06018 10.6934 8.20474C10.7208 8.22361 10.7504 8.23925 10.7816 8.25132C10.9435 8.31632 11.3126 8.37211 12.049 8.22532C12.2344 8.1874 12.3701 8.16194 12.5108 8.26594C12.5449 8.29406 12.572 8.32948 12.5897 8.36942C12.6074 8.40936 12.6154 8.45273 12.6129 8.49615C12.6054 8.5619 12.5804 8.62462 12.5403 8.67816C12.398 8.88562 12.1171 9.08224 11.757 9.2442C11.4382 9.38829 10.9809 9.46358 10.5756 9.46791C10.3724 9.47008 10.1848 9.45491 10.0256 9.4067L10.0156 9.40291C9.95416 9.97709 9.81291 11.1108 9.72078 11.6281C9.64708 12.0452 9.51811 12.3767 9.27189 12.6248C9.02622 12.8729 8.67838 13.0224 8.2105 13.1199C7.63095 13.2407 7.2083 13.1107 6.93583 12.888C6.66393 12.6659 6.53942 12.3713 6.4646 12.1909C6.41324 12.0663 6.38644 11.9049 6.36075 11.6893C6.33507 11.4737 6.31609 11.2099 6.30325 10.9126C6.28614 10.4572 6.28056 10.0015 6.2865 9.54591C6.0444 9.76103 5.74357 9.90395 5.41997 9.95758C5.03528 10.021 4.69191 9.95867 4.487 9.90883C4.38599 9.88422 4.28848 9.84765 4.19667 9.79996C4.10175 9.75067 4.0113 9.69487 3.951 9.58491C3.91557 9.52194 3.9043 9.44882 3.91918 9.37854C3.93805 9.3073 3.98088 9.2442 4.04089 9.19924C4.15144 9.11203 4.29773 9.06329 4.51827 9.01887C4.91971 8.9387 5.05985 8.88399 5.14527 8.81845C5.21785 8.76212 5.29993 8.64836 5.44509 8.48153C5.4444 8.47414 5.44384 8.46673 5.44342 8.45932C5.18362 8.45223 4.92921 8.38579 4.70084 8.2654C4.61709 8.35099 4.18941 8.78974 3.66793 9.39858C3.44851 9.65316 3.20619 9.79942 2.95048 9.80971C2.69476 9.82054 2.46361 9.69542 2.26708 9.51071C1.87458 9.14074 1.56135 8.50428 1.28833 7.78494C1.01586 7.0656 0.794208 6.26447 0.636759 5.58196C0.478752 4.89946 0.385511 4.34912 0.372111 4.0837C0.313486 2.95594 0.585392 2.19597 1.0516 1.71659C1.51836 1.23721 2.15821 1.05575 2.78186 1.02109C3.90131 0.958796 4.96437 1.33742 5.17933 1.41867C5.59361 1.14567 6.12737 0.975588 6.79402 0.986421C7.1105 0.990727 7.42542 1.03035 7.73257 1.10451L7.74374 1.09963C7.87893 1.05353 8.01668 1.01483 8.15634 0.983713C8.53556 0.897887 8.92327 0.8523 9.31264 0.847753L9.3132 0.84667ZM9.39807 1.20959H9.31655C8.99667 1.21392 8.67801 1.24875 8.36516 1.31359C9.06084 1.61259 9.58622 2.07301 9.9564 2.53235C10.2135 2.85039 10.4261 3.20011 10.5884 3.57236C10.6498 3.71536 10.6912 3.83615 10.7146 3.92986C10.7263 3.97699 10.7342 4.01653 10.7369 4.0577C10.7381 4.07828 10.7392 4.09941 10.7302 4.1357L10.7269 4.14274C10.7436 4.61724 10.6225 4.939 10.608 5.39184C10.5968 5.72009 10.6833 6.10576 10.7046 6.52664C10.7247 6.92206 10.6755 7.35648 10.4109 7.78277C10.4332 7.80877 10.4533 7.83477 10.4745 7.86077C11.1747 6.79097 11.6794 5.60742 11.9485 4.59829C12.0926 4.05499 12.1691 3.56261 12.1758 3.17261C12.1813 2.7826 12.1065 2.49985 12.0111 2.38177C11.2618 1.45226 10.2478 1.21609 9.39807 1.20959ZM6.72367 1.34826C6.06372 1.34988 5.59026 1.54326 5.23125 1.83305C4.86108 2.1326 4.61262 2.54264 4.44959 2.96244C4.25585 3.46078 4.18941 3.94286 4.16317 4.27003L4.17043 4.2657C4.36975 4.15737 4.63161 4.04903 4.91189 3.9862C5.19217 3.92391 5.49423 3.90441 5.76781 4.00732C6.04139 4.11024 6.26751 4.35237 6.34959 4.71962C6.74265 6.48384 6.22731 7.13981 6.03748 7.6349C5.96546 7.81434 5.90377 7.99753 5.85267 8.18361C5.87668 8.17819 5.90069 8.17169 5.9247 8.16953C6.0587 8.15869 6.16366 8.20203 6.2262 8.22803C6.41715 8.30494 6.54835 8.46636 6.61926 8.65053C6.63769 8.69874 6.65109 8.75074 6.6589 8.80437C6.66715 8.82639 6.67095 8.84974 6.67007 8.87316C6.6489 9.54797 6.65132 10.2233 6.67733 10.8979C6.69017 11.1893 6.70915 11.4461 6.73316 11.6487C6.75717 11.8507 6.79123 12.0046 6.813 12.0566C6.88447 12.2299 6.98888 12.4569 7.17759 12.6112C7.36631 12.7651 7.6371 12.868 8.13178 12.7651C8.56057 12.6757 8.82522 12.5516 9.00221 12.3734C9.17864 12.1952 9.28417 11.9471 9.35173 11.5674C9.45278 10.9987 9.65602 9.34929 9.68058 9.03891C9.66942 8.80491 9.70515 8.62507 9.7822 8.48803C9.86148 8.34719 9.98431 8.26107 10.0904 8.21449C10.1434 8.19119 10.1931 8.17549 10.2339 8.16411C10.1907 8.10395 10.1455 8.04524 10.0982 7.98807C9.94527 7.80811 9.82002 7.60759 9.72637 7.39277C9.68151 7.30405 9.63366 7.2168 9.58287 7.13114C9.50862 7.00114 9.41482 6.83864 9.31655 6.6561C9.12002 6.29047 8.90618 5.84738 8.79507 5.41567C8.68452 4.9845 8.66833 4.53816 8.95196 4.22345C9.20321 3.94395 9.64429 3.82803 10.3065 3.89303C10.2869 3.83615 10.2752 3.78903 10.2423 3.7132C10.0926 3.37134 9.89714 3.05008 9.66104 2.75769C9.09992 2.06164 8.19152 1.37155 6.78788 1.34934H6.72367V1.34826ZM3.01524 1.37642C2.94434 1.37642 2.87343 1.37859 2.80308 1.38238C2.23917 1.4138 1.70596 1.57251 1.32462 1.96468C0.942723 2.35685 0.691475 2.99981 0.746191 4.0642C0.7568 4.2657 0.847249 4.83012 1.00246 5.50071C1.15712 6.1713 1.37655 6.96052 1.64008 7.65765C1.90417 8.35478 2.22409 8.96145 2.52782 9.24854C2.6808 9.39208 2.81369 9.45004 2.93429 9.44516C3.05544 9.43975 3.20117 9.37204 3.37927 9.16458C3.704 8.78456 4.04103 8.41459 4.38985 8.05523C4.14235 7.84675 3.95293 7.58117 3.83906 7.28297C3.72519 6.98478 3.69053 6.66358 3.73828 6.34897C3.79579 5.94867 3.8036 5.57438 3.7969 5.27863C3.7902 4.99046 3.76899 4.79871 3.76899 4.679C3.76889 4.67557 3.76889 4.67213 3.76899 4.6687V4.666L3.76843 4.66275C3.7681 4.03917 3.87995 3.41978 4.09896 2.83352C4.25529 2.43052 4.48812 2.02101 4.83707 1.68951C4.49426 1.58009 3.88568 1.41326 3.22685 1.38184C3.15619 1.37832 3.086 1.37651 3.01524 1.37642ZM9.93741 4.23753C9.55831 4.24241 9.34559 4.3372 9.23392 4.46124C9.07591 4.63729 9.06084 4.94604 9.1591 5.32629C9.25681 5.70709 9.45893 6.13284 9.64876 6.48655C9.74367 6.66368 9.8358 6.82293 9.91006 6.95239C9.98487 7.08239 10.0396 7.17448 10.0731 7.25302C10.1038 7.3256 10.1379 7.38952 10.1725 7.4491C10.3193 7.14848 10.3456 6.85327 10.3305 6.5456C10.3109 6.1648 10.2199 5.77534 10.2333 5.381C10.2484 4.92004 10.3422 4.61995 10.3506 4.26353C10.2136 4.24632 10.0756 4.23763 9.93741 4.23753ZM5.34013 4.29983C5.22431 4.30087 5.10897 4.31432 4.9962 4.33991C4.77143 4.39289 4.55494 4.47468 4.35244 4.58312C4.28395 4.61877 4.21875 4.66009 4.15759 4.70662L4.1453 4.71745C4.14865 4.79654 4.16484 4.98829 4.17154 5.2705C4.17824 5.57925 4.17043 5.97305 4.10901 6.39934C3.97557 7.3256 4.66846 8.09261 5.4825 8.09369C5.52996 7.90357 5.60813 7.71073 5.68629 7.5076C5.91297 6.91502 6.35908 6.48276 5.98332 4.796C5.92191 4.51974 5.80019 4.40816 5.63269 4.34533C5.53881 4.31311 5.43968 4.2977 5.34013 4.29983ZM9.76042 4.41033H9.78834C9.82519 4.41141 9.85925 4.4152 9.88884 4.42224C9.91899 4.42874 9.94467 4.43849 9.96589 4.45204C9.97678 4.45857 9.98613 4.46726 9.99334 4.47752C10.0006 4.48778 10.0055 4.4994 10.0078 4.51162L10.0072 4.51595C10.0083 4.54167 10.0015 4.56712 9.98766 4.58908C9.9712 4.61881 9.95053 4.64616 9.92625 4.67033C9.86961 4.73084 9.79375 4.77126 9.71073 4.78516C9.62994 4.79464 9.5484 4.77476 9.48182 4.72937C9.45456 4.71158 9.43011 4.69005 9.40923 4.66545C9.39117 4.64613 9.37899 4.62231 9.37406 4.59666C9.37289 4.58416 9.37437 4.57157 9.3784 4.55964C9.38244 4.54772 9.38894 4.53672 9.39751 4.52733C9.41583 4.50713 9.43802 4.49058 9.46284 4.47858C9.51643 4.44933 9.58902 4.42766 9.67109 4.41574C9.7018 4.41141 9.73195 4.40924 9.76042 4.4087V4.41033ZM5.39429 4.50133C5.42388 4.50133 5.45514 4.50404 5.48697 4.50837C5.57239 4.51974 5.64833 4.54195 5.70639 4.57445C5.73471 4.58879 5.75992 4.60829 5.78065 4.63187C5.79194 4.64438 5.80044 4.65902 5.80563 4.67486C5.81082 4.69071 5.81258 4.70742 5.8108 4.72395C5.80543 4.7551 5.79089 4.78407 5.76892 4.80737C5.74608 4.83458 5.71917 4.85831 5.68908 4.87779C5.61647 4.9277 5.52728 4.94952 5.43895 4.939C5.34869 4.9246 5.26607 4.88109 5.20445 4.8155C5.17824 4.78908 5.15605 4.75917 5.13857 4.72666C5.12017 4.69806 5.11211 4.66433 5.11568 4.63079C5.12405 4.57229 5.17375 4.54195 5.22232 4.52516C5.27765 4.50801 5.33571 4.50067 5.39373 4.50349L5.39429 4.50133ZM10.4528 8.47882L10.4511 8.47936C10.369 8.50807 10.3014 8.51999 10.2445 8.54436C10.1869 8.56587 10.1394 8.60711 10.1111 8.66028C10.0759 8.72257 10.0457 8.83307 10.0547 9.02103C10.0799 9.03791 10.1078 9.05071 10.1373 9.05895C10.2328 9.08712 10.393 9.10553 10.5717 9.10283C10.9279 9.09903 11.3662 9.01833 11.599 8.91324C11.79 8.82716 11.9673 8.71498 12.1255 8.58011C11.3478 8.73612 10.9078 8.69441 10.6381 8.58661C10.5712 8.55958 10.5087 8.52362 10.4528 8.47882ZM5.96881 8.52974H5.95708C5.92749 8.53245 5.8845 8.5422 5.80131 8.63157C5.60701 8.84283 5.53889 8.97553 5.37865 9.09958C5.21841 9.22308 5.01015 9.28916 4.5942 9.37204C4.46243 9.39804 4.38706 9.42675 4.33681 9.45004C4.353 9.46304 4.35133 9.46629 4.37589 9.47875C4.43675 9.51125 4.51492 9.53996 4.57801 9.55566C4.75667 9.599 5.05035 9.64937 5.35688 9.599C5.6634 9.54808 5.98221 9.40562 6.25411 9.03566C6.30101 8.97174 6.30604 8.87749 6.26751 8.7762C6.22843 8.67491 6.14301 8.5877 6.08271 8.56332C6.04683 8.54652 6.00835 8.53554 5.96881 8.53082V8.52974Z" fill="white"/>
</svg>
