<svg viewBox="0 0 13 16" version="1.1" xmlns="http://www.w3.org/2000/svg" xmlns:xlink="http://www.w3.org/1999/xlink">
        <g stroke="none" stroke-width="1" fill="none" fill-rule="evenodd">
        <g id="pytorch" transform="translate(0.333330, 0.416667)" fill="#FFFFFF" fill-rule="nonzero">
            <path d="M10.6988029,4.416475 L9.56900292,5.54633333 C11.4178196,7.39503333 11.4178196,10.3735333 9.56900292,12.1881667 C7.72030292,14.0368667 4.74168625,14.0368667 2.92716958,12.1881667 C1.07844625,10.33935 1.07844625,7.36085 2.92716958,5.54633333 L5.85445292,2.61907333 L6.26523625,2.20824333 L6.26523625,0 L1.84876125,4.416475 C-0.61625375,6.88146667 -0.61625375,10.8529167 1.84876125,13.31785 C4.31375292,15.7829 8.28520292,15.7829 10.6988029,13.31785 C13.1638529,10.8357667 13.1638529,6.88146667 10.6988029,4.416475 Z" id="Path"></path>
            <path d="M9.31221958,3.32091667 C9.31221958,3.774715 8.94436958,4.14258833 8.49065292,4.14258833 C8.03681958,4.14258833 7.66896958,3.774715 7.66896958,3.32091667 C7.66896958,2.86710667 8.03681958,2.499245 8.49065292,2.499245 C8.94436958,2.499245 9.31221958,2.86710667 9.31221958,3.32091667 Z" id="Path"></path>
        </g>
    </g>
</svg>