<svg width="21" height="20" viewBox="0 0 21 20" fill="none" xmlns="http://www.w3.org/2000/svg">
<path fill-rule="evenodd" clip-rule="evenodd" d="M10.3442 0.135984C10.2918 0.0514707 10.1995 4.57764e-05 10.1001 4.57764e-05C10.0007 4.57764e-05 9.90836 0.0514706 9.85603 0.135984L9.32985 0.98567C9.25204 0.992267 9.17451 0.999854 9.09726 1.00842L8.41508 0.278644C8.34724 0.206073 8.24671 0.173731 8.14928 0.193136C8.05185 0.212542 7.97138 0.280937 7.93653 0.373963L7.58631 1.3087C7.5115 1.33039 7.43709 1.35302 7.3631 1.37657L6.55091 0.792774C6.47021 0.734766 6.36525 0.722625 6.27343 0.760678C6.18162 0.798731 6.11602 0.881564 6.10002 0.979653L5.93858 1.96908C5.87021 2.00467 5.80235 2.0411 5.73502 2.07837L4.82203 1.66226C4.73152 1.62101 4.62611 1.62955 4.54342 1.68483C4.46073 1.74011 4.41255 1.83425 4.41607 1.93365L4.45167 2.93906C4.39287 2.9862 4.33468 3.03405 4.2771 3.08261L3.29703 2.85171C3.20023 2.82891 3.09852 2.85783 3.0282 2.92815C2.95788 2.99847 2.92896 3.10018 2.95177 3.19698L3.18267 4.17707C3.13412 4.23465 3.08628 4.29283 3.03915 4.35162L2.0337 4.31602C1.9343 4.3125 1.84016 4.36068 1.78488 4.44337C1.7296 4.52606 1.72106 4.63147 1.76231 4.72198L2.17845 5.63503C2.14119 5.70234 2.10477 5.77017 2.0692 5.83851L1.0797 5.99996C0.981616 6.01597 0.898783 6.08157 0.86073 6.17338C0.822677 6.26519 0.834818 6.37016 0.892826 6.45086L1.47665 7.26308C1.4531 7.33706 1.43048 7.41146 1.40879 7.48624L0.474015 7.83648C0.380989 7.87133 0.312594 7.9518 0.293188 8.04923C0.273783 8.14666 0.306125 8.24719 0.378696 8.31503L1.10846 8.9972C1.09989 9.07445 1.0923 9.152 1.0857 9.22981L0.236036 9.75597C0.151523 9.80831 0.100098 9.90064 0.100098 10C0.100098 10.0995 0.151522 10.1918 0.236036 10.2441L1.08572 10.7703C1.09232 10.8481 1.09991 10.9256 1.10848 11.0029L0.378696 11.6851C0.306125 11.7529 0.273783 11.8534 0.293188 11.9509C0.312594 12.0483 0.380989 12.1288 0.474015 12.1636L1.40896 12.5139C1.43063 12.5886 1.45323 12.6629 1.47677 12.7368L0.892826 13.5492C0.834818 13.6299 0.822677 13.7349 0.86073 13.8267C0.898783 13.9185 0.981616 13.9841 1.0797 14.0001L2.0696 14.1616C2.1051 14.2298 2.14145 14.2975 2.17863 14.3647L1.76231 15.2781C1.72106 15.3686 1.7296 15.474 1.78488 15.5567C1.84016 15.6394 1.9343 15.6876 2.0337 15.6841L3.03974 15.6485C3.08672 15.707 3.13441 15.765 3.1828 15.8224L2.95177 16.8031C2.92896 16.8999 2.95788 17.0016 3.0282 17.0719C3.09852 17.1423 3.20023 17.1712 3.29703 17.1484L4.27771 16.9173C4.3351 16.9657 4.3931 17.0134 4.45169 17.0604L4.41607 18.0664C4.41255 18.1658 4.46073 18.26 4.54342 18.3153C4.62611 18.3705 4.73152 18.3791 4.82203 18.3378L5.73548 17.9215C5.80264 17.9587 5.87032 17.995 5.9385 18.0305L6.10002 19.0204C6.11602 19.1185 6.18162 19.2014 6.27343 19.2394C6.36525 19.2775 6.47021 19.2653 6.55091 19.2073L7.36332 18.6234C7.43722 18.6469 7.51152 18.6695 7.58622 18.6912L7.93653 19.6261C7.97138 19.7192 8.05185 19.7875 8.14928 19.807C8.24671 19.8264 8.34724 19.794 8.41508 19.7214L9.09729 18.9916C9.17452 19.0002 9.25204 19.0078 9.32984 19.0144L9.85603 19.8641C9.90836 19.9486 10.0007 20 10.1001 20C10.1995 20 10.2918 19.9486 10.3442 19.8641L10.8704 19.0144C10.9482 19.0078 11.0257 19.0002 11.1029 18.9916L11.7851 19.7214C11.853 19.794 11.9535 19.8264 12.0509 19.807C12.1483 19.7875 12.2288 19.7192 12.2637 19.6261L12.614 18.6911C12.6887 18.6695 12.763 18.6469 12.8369 18.6234L13.6493 19.2073C13.73 19.2653 13.835 19.2775 13.9268 19.2394C14.0186 19.2014 14.0842 19.1185 14.1002 19.0204L14.2617 18.0305C14.3299 17.995 14.3975 17.9587 14.4647 17.9215L15.3782 18.3378C15.4687 18.3791 15.5741 18.3705 15.6568 18.3153C15.7395 18.26 15.7876 18.1658 15.7841 18.0664L15.7485 17.0604C15.8071 17.0134 15.8651 16.9657 15.9224 16.9173L16.9032 17.1484C17 17.1712 17.1017 17.1423 17.172 17.0719C17.2423 17.0016 17.2712 16.8999 17.2484 16.8031L17.0174 15.8224C17.0658 15.765 17.1134 15.707 17.1604 15.6485L18.1665 15.6841C18.2659 15.6876 18.36 15.6394 18.4153 15.5567C18.4706 15.474 18.4791 15.3686 18.4379 15.2781L18.0215 14.3646C18.0587 14.2975 18.095 14.2298 18.1305 14.1617L19.1205 14.0001C19.2186 13.9841 19.3014 13.9185 19.3395 13.8267C19.3775 13.7349 19.3654 13.6299 19.3074 13.5492L18.7234 12.7368C18.7469 12.6629 18.7695 12.5886 18.7912 12.5139L19.7262 12.1636C19.8192 12.1288 19.8876 12.0483 19.907 11.9509C19.9264 11.8534 19.8941 11.7529 19.8215 11.6851L19.0917 11.0028C19.1002 10.9256 19.1078 10.8481 19.1144 10.7703L19.9642 10.2441C20.0487 10.1918 20.1001 10.0995 20.1001 10C20.1001 9.90064 20.0487 9.80831 19.9642 9.75597L19.1144 9.22977C19.1078 9.15199 19.1002 9.07448 19.0917 8.99727L19.8215 8.31503C19.8941 8.24719 19.9264 8.14666 19.907 8.04923C19.8876 7.9518 19.8192 7.87133 19.7262 7.83648L18.7912 7.48616C18.7695 7.41147 18.7469 7.33718 18.7234 7.2633L19.3074 6.45086C19.3654 6.37016 19.3775 6.26519 19.3395 6.17338C19.3014 6.08157 19.2186 6.01597 19.1205 5.99996L18.1305 5.83844C18.095 5.77027 18.0587 5.70261 18.0215 5.63547L18.4379 4.72198C18.4791 4.63147 18.4706 4.52606 18.4153 4.44337C18.36 4.36068 18.2659 4.3125 18.1665 4.31602L17.1604 4.35164C17.1134 4.29306 17.0658 4.23508 17.0174 4.17771L17.2484 3.19698C17.2712 3.10018 17.2423 2.99847 17.172 2.92815C17.1017 2.85783 17 2.82891 16.9032 2.85171L15.9224 3.08276C15.8651 3.03438 15.8071 2.9867 15.7485 2.93973L15.7841 1.93365C15.7876 1.83425 15.7395 1.74011 15.6568 1.68483C15.5741 1.62955 15.4687 1.62101 15.3782 1.66226L14.4647 2.07859C14.3975 2.04143 14.3299 2.00509 14.2617 1.96959L14.1002 0.979653C14.0842 0.881564 14.0186 0.798731 13.9268 0.760678C13.835 0.722625 13.73 0.734766 13.6493 0.792774L12.8369 1.37674C12.763 1.35321 12.6887 1.33061 12.614 1.30894L12.2637 0.373963C12.2288 0.280937 12.1483 0.212542 12.0509 0.193136C11.9535 0.173731 11.853 0.206073 11.7851 0.278644L11.1029 1.00846C11.0257 0.99989 10.9482 0.992299 10.8704 0.985699L10.3442 0.135984ZM10.0867 1.75698C10.2414 1.76099 10.3884 1.82546 10.4963 1.93666C10.6043 2.04785 10.6647 2.19696 10.6647 2.3522C10.6647 2.51006 10.602 2.66145 10.4903 2.77308C10.3787 2.8847 10.2273 2.94741 10.0694 2.94741C9.91159 2.94741 9.76019 2.8847 9.64857 2.77308C9.53694 2.66145 9.47423 2.51006 9.47423 2.3522C9.4742 2.27256 9.49015 2.19373 9.52113 2.12037C9.55211 2.04701 9.5975 1.98061 9.65461 1.92511C9.71172 1.86961 9.77939 1.82613 9.8536 1.79725C9.92782 1.76837 10.0071 1.75468 10.0867 1.75698ZM11.4494 2.73689C12.4943 2.9326 13.484 3.35343 14.35 3.97014C15.2159 4.58686 15.9371 5.38467 16.4637 6.30818L15.7613 7.89287C15.6407 8.16655 15.7651 8.48808 16.0369 8.61057L17.3881 9.20961C17.43 9.63198 17.4351 10.0572 17.4034 10.4804H16.6513C16.5766 10.4804 16.546 10.5302 16.546 10.6029V10.9474C16.546 11.7589 16.0886 11.9369 15.6867 11.9809C15.3039 12.0249 14.8809 11.8201 14.8273 11.5866C14.6068 10.3475 14.2439 10.0611 13.6745 9.61169L13.6331 9.57899C14.3699 9.11201 15.1355 8.4211 15.1355 7.49861C15.1355 6.50148 14.4522 5.87373 13.9872 5.5656C13.3326 5.13497 12.6092 5.04885 12.4139 5.04885H4.64361C5.71806 3.84854 7.15827 3.03595 8.74122 2.73689L9.65796 3.69765C9.86466 3.91392 10.2072 3.92349 10.4235 3.71488L11.4494 2.73689ZM2.99002 7.14263C3.14488 7.14711 3.29189 7.2118 3.39981 7.32294C3.50774 7.43408 3.56808 7.58292 3.56801 7.73784C3.56801 7.89571 3.5053 8.0471 3.39368 8.15873C3.28205 8.27035 3.13066 8.33306 2.9728 8.33306C2.81494 8.33306 2.66354 8.27035 2.55192 8.15873C2.44029 8.0471 2.37758 7.89571 2.37758 7.73784C2.37755 7.65821 2.3935 7.57938 2.42448 7.50602C2.45546 7.43265 2.50085 7.36626 2.55796 7.31075C2.61507 7.25525 2.68274 7.21177 2.75695 7.1829C2.83116 7.15402 2.91042 7.14032 2.99002 7.14263ZM17.1814 7.16942C17.3363 7.17391 17.4833 7.23859 17.5912 7.34973C17.6991 7.46088 17.7595 7.60972 17.7594 7.76464C17.7594 7.9225 17.6967 8.07389 17.5851 8.18552C17.4734 8.29714 17.322 8.35985 17.1642 8.35985C17.0063 8.35985 16.8549 8.29714 16.7433 8.18552C16.6317 8.07389 16.569 7.9225 16.569 7.76464C16.5689 7.685 16.5849 7.60617 16.6159 7.53281C16.6469 7.45945 16.6922 7.39305 16.7493 7.33755C16.8065 7.28205 16.8741 7.23857 16.9483 7.20969C17.0226 7.18081 17.1018 7.16712 17.1814 7.16942ZM4.11155 7.26512H5.14887V11.9426H3.05509C2.79651 11.0346 2.71592 10.0851 2.81777 9.14646L4.10007 8.57612C4.37375 8.45363 4.49816 8.13402 4.37567 7.86033L4.11155 7.26512ZM8.44074 7.31488H10.9116C11.0398 7.31488 11.813 7.46225 11.813 8.04215C11.813 8.52253 11.2197 8.69478 10.7316 8.69478H8.43883L8.44074 7.31488ZM8.44074 10.6756H10.3336C10.5058 10.6756 11.258 10.7254 11.4972 11.6862C11.5235 11.7902 11.5613 11.9773 11.6042 12.1893L11.6042 12.1893L11.6042 12.1893C11.6827 12.5779 11.7782 13.0505 11.8513 13.2498C11.9642 13.5943 12.4216 14.2833 12.9096 14.2833H15.9986C15.7916 14.5605 15.5652 14.8228 15.3211 15.068L14.0637 14.7981C13.7709 14.735 13.4819 14.9225 13.4187 15.2154L13.1202 16.6087C12.1601 17.0436 11.1174 17.2662 10.0634 17.2612C9.00945 17.2562 7.96895 17.0239 7.01299 16.58L6.71442 15.1866C6.65127 14.8938 6.36418 14.7063 6.07136 14.7694L4.84074 15.0335C4.61237 14.798 4.40009 14.5473 4.20533 14.2833H10.19C10.257 14.2833 10.3029 14.2718 10.3029 14.2087V12.0919C10.3029 12.0307 10.257 12.0173 10.19 12.0173H8.43883L8.44074 10.6756ZM5.67902 15.5235C5.83387 15.528 5.98088 15.5927 6.08881 15.7038C6.19673 15.8149 6.25707 15.9638 6.25701 16.1187C6.25701 16.2766 6.1943 16.428 6.08267 16.5396C5.97105 16.6512 5.81965 16.7139 5.66179 16.7139C5.50393 16.7139 5.35254 16.6512 5.24091 16.5396C5.12929 16.428 5.06658 16.2766 5.06658 16.1187C5.06654 16.0391 5.08249 15.9602 5.11347 15.8869C5.14446 15.8135 5.18985 15.7471 5.24696 15.6916C5.30407 15.6361 5.37173 15.5926 5.44595 15.5638C5.52016 15.5349 5.59942 15.5212 5.67902 15.5235ZM14.4924 15.5503C14.6473 15.5548 14.7943 15.6195 14.9022 15.7306C15.0101 15.8417 15.0705 15.9906 15.0704 16.1455C15.0704 16.3034 15.0077 16.4548 14.8961 16.5664C14.7844 16.678 14.6331 16.7407 14.4752 16.7407C14.3173 16.7407 14.1659 16.678 14.0543 16.5664C13.9427 16.4548 13.88 16.3034 13.88 16.1455C13.8799 16.0659 13.8959 15.987 13.9269 15.9137C13.9579 15.8403 14.0032 15.7739 14.0604 15.7184C14.1175 15.6629 14.1851 15.6194 14.2593 15.5906C14.3336 15.5617 14.4128 15.548 14.4924 15.5503Z" fill="black"/>
</svg>
