<svg width="13" height="14" viewBox="0 0 13 14" fill="none" xmlns="http://www.w3.org/2000/svg">
<path fill-rule="evenodd" clip-rule="evenodd" d="M11.5502 2.54381L8.40193 0.5L6.54214 1.7868L4.64042 0.552207L3.3345 1.39244C3.25003 1.41363 3.17674 1.46193 3.12499 1.52723L1.54655 2.5428V4.20877L9.09175e-05 5.38528V7.30237C-3.01461e-05 7.30781 -3.04654e-05 7.31326 9.09175e-05 7.31871V8.43053L1.54651 9.65407C1.54633 9.66083 1.54635 9.6676 1.54655 9.67438V11.3817L3.16883 12.3345C3.23137 12.4169 3.32294 12.4678 3.42066 12.4824L4.98134 13.3991L6.46753 12.4946L8.01619 13.5L11.4052 11.4241V9.60215L12.1914 8.9525C12.2949 8.93627 12.3913 8.87938 12.4533 8.78735C12.472 8.75958 12.4864 8.73028 12.4968 8.7002L13 8.28447V5.4867L11.5502 4.31019V2.54381ZM6.18588 11.7781V9.4043L3.57767 10.8827C3.39314 10.9873 3.15646 10.9264 3.04905 10.7467C2.94163 10.567 3.00415 10.3366 3.18868 10.232L4.54289 9.46437V8.27255L3.46926 7.62362L2.32552 8.29188C2.14243 8.39885 1.90495 8.34104 1.79509 8.16274C1.68523 7.98445 1.7446 7.75319 1.9277 7.64621L3.14141 6.93707V5.80325L1.9053 4.89134L0.773319 5.75253V6.63512L1.82662 6.00161C2.00828 5.89234 2.24651 5.94718 2.35871 6.12408C2.47091 6.30098 2.4146 6.53297 2.23294 6.64223L0.773319 7.52013V8.07214L2.12196 9.13919L3.29815 8.53071C3.48672 8.43316 3.72079 8.50294 3.82096 8.68656C3.92114 8.87018 3.84948 9.09812 3.66092 9.19567L2.31978 9.88948V10.9565L3.49972 11.6496L4.76797 10.8528C4.94739 10.7401 5.18668 10.7903 5.30244 10.965C5.41819 11.1397 5.36658 11.3728 5.18716 11.4855L4.23685 12.0825L4.97415 12.5156L6.18588 11.7781ZM2.31978 4.25247L3.53844 5.1515L4.54267 4.47708V3.02767C4.54267 2.81974 4.71576 2.65118 4.92928 2.65118C5.14281 2.65118 5.3159 2.81974 5.3159 3.02767V4.87246L3.91464 5.81352V6.93958C3.93097 6.96826 3.94305 6.99817 3.95106 7.02862L5.31612 7.85369V9.02608L6.18588 8.53307V7.58542L5.28214 7.12626C5.09284 7.03008 5.01944 6.80267 5.11821 6.61833C5.21698 6.43399 5.45051 6.36251 5.63981 6.45869L6.95911 7.12898V8.53929C7.02613 8.65677 7.02176 8.79474 6.95911 8.90483V9.75726H8.02426C8.1359 9.58746 8.33132 9.47491 8.55373 9.47491C8.9007 9.47491 9.18198 9.74882 9.18198 10.0867C9.18198 10.4246 8.9007 10.6985 8.55373 10.6985C8.37556 10.6985 8.21471 10.6263 8.10037 10.5102H6.95911V11.9088L8.0284 12.603L10.6319 11.0082V9.25355L11.4371 8.58828L10.7347 8.13939C10.6862 8.15104 10.6356 8.15722 10.5835 8.15722C10.2365 8.15722 9.95524 7.88332 9.95524 7.54544C9.95524 7.20756 10.2365 6.93365 10.5835 6.93365C10.9298 6.93365 11.2107 7.20659 11.2117 7.54364L12.0517 8.08044L12.2267 7.93586V5.83937L10.7769 4.66286V4.0159H9.08322C8.97158 4.18572 8.77616 4.29827 8.55373 4.29827C8.20676 4.29827 7.92548 4.02437 7.92548 3.68649C7.92548 3.67765 7.92568 3.66885 7.92606 3.66011C7.92568 3.65326 7.92548 3.64636 7.92548 3.63942C7.92548 3.58103 7.93914 3.52574 7.9635 3.47642C8.0515 3.24202 8.28255 3.07471 8.55373 3.07471C8.7319 3.07471 8.89274 3.14692 9.00707 3.26294H10.7769V2.94678L8.41589 1.41402L6.91082 2.45538V5.13051L7.9041 5.76613C7.98411 5.73015 8.07322 5.71008 8.16714 5.71008C8.51411 5.71008 8.79538 5.98399 8.79538 6.32187C8.79538 6.65974 8.51411 6.93365 8.16714 6.93365C7.86204 6.93365 7.60774 6.72187 7.5508 6.44104L6.13759 5.5367V2.42911L4.6385 1.45591L3.81787 1.98391V3.9218C3.81787 4.12973 3.64477 4.29828 3.43125 4.29828C3.21773 4.29828 3.04464 4.12973 3.04464 3.9218V2.4814L2.31978 2.94778V4.25247Z" fill="white"/>
</svg>
