<svg width="200px" height="200px" viewBox="0 0 200 200" version="1.1" xmlns="http://www.w3.org/2000/svg" xmlns:xlink="http://www.w3.org/1999/xlink">
<path fill="#FFFFFF " d="
  M 17.32 84.81
  Q 21.92 77.60 29.27 73.13
  Q 29.71 72.86 29.97 72.43
  C 33.51 66.41 39.04 62.82 44.36 58.58
  C 48.83 55.03 50.60 50.29 54.87 46.38
  Q 79.30 23.96 109.07 6.08
  C 116.77 1.46 123.65 8.85 127.81 14.56
  C 133.01 21.70 132.54 29.22 125.12 34.40
  Q 84.75 62.62 43.02 88.79
  C 36.21 93.06 26.18 94.94 20.80 97.54
  Q 12.13 101.72 2.65 105.21
  Q 2.05 105.43 1.88 104.82
  Q 0.95 101.34 4.37 99.92
  C 9.86 97.65 14.20 89.68 17.32 84.81
  Z"
/>
<path fill="#FFFFFF " d="
  M 170.60 39.78
  C 176.62 39.21 189.80 46.10 190.64 52.92
  C 191.43 59.41 188.10 64.03 183.37 68.11
  Q 165.67 83.36 146.61 96.88
  Q 106.57 125.28 95.94 131.69
  C 77.96 142.54 60.23 154.94 40.20 161.66
  C 26.86 166.14 14.11 172.02 0.76 176.56
  Q 0.30 176.72 0.28 176.24
  C 0.06 170.56 9.18 169.14 12.97 165.74
  C 22.65 157.08 32.56 144.92 45.05 138.07
  Q 47.13 136.93 48.74 135.08
  C 57.41 125.12 70.11 120.20 78.71 110.72
  C 81.74 107.37 84.44 104.20 87.96 101.30
  Q 131.42 65.52 165.49 41.47
  Q 167.45 40.08 170.60 39.78
  Z"
/>
<path fill="#FFFFFF " d="
  M 181.05 109.44
  C 189.59 113.89 203.82 126.54 194.44 136.43
  C 184.74 146.66 173.12 154.44 161.09 161.65
  C 152.50 166.81 137.69 174.50 127.58 174.21
  C 119.49 173.97 111.21 174.84 103.24 173.57
  Q 102.59 173.47 102.75 172.84
  L 103.34 170.48
  Q 103.50 169.85 104.15 169.88
  C 113.03 170.32 116.22 157.02 125.03 155.38
  A 1.06 1.04 8.9 0 0 125.77 154.85
  C 128.90 149.27 134.39 148.98 138.35 144.67
  C 140.74 142.07 141.70 139.20 144.32 136.84
  Q 154.88 127.33 174.75 110.51
  C 176.82 108.75 178.42 108.07 181.05 109.44
  Z"
/>
</svg>
