<?xml version="1.0" encoding="UTF-8"?>
<svg xmlns="http://www.w3.org/2000/svg" xmlns:xlink="http://www.w3.org/1999/xlink" width="20px" height="20px" viewBox="0 0 20 20" version="1.1">
<defs>
<linearGradient id="linear0" gradientUnits="userSpaceOnUse" x1="-2901.952" y1="923.573" x2="-2061.249" y2="1420.331" gradientTransform="matrix(0.000950001,0,0,-0.000950001,11.616022,12.730479)">
<stop offset="0" style="stop-color:rgb(56.470588%,61.176471%,66.27451%);stop-opacity:1;"/>
<stop offset="1" style="stop-color:rgb(92.941176%,92.941176%,93.333333%);stop-opacity:1;"/>
</linearGradient>
<linearGradient id="linear1" gradientUnits="userSpaceOnUse" x1="-2882.7" y1="10288.81" x2="-2206.249" y2="10288.81" gradientTransform="matrix(0.000950001,0,0,-0.000950001,11.616022,12.730479)">
<stop offset="0" style="stop-color:rgb(57.647059%,62.352941%,67.058824%);stop-opacity:1;"/>
<stop offset="1" style="stop-color:rgb(86.27451%,87.058824%,88.235294%);stop-opacity:1;"/>
</linearGradient>
<radialGradient id="radial0" gradientUnits="userSpaceOnUse" cx="-14217.448" cy="7277.705" fx="-14217.448" fy="7277.705" r="898.12" gradientTransform="matrix(-0.000912278,-0.000137034,-0.000277148,0.00182456,1.1669,-9.323456)">
<stop offset="0" style="stop-color:rgb(93.333333%,20.784314%,17.254902%);stop-opacity:1;"/>
<stop offset="1" style="stop-color:rgb(66.27451%,11.372549%,13.333333%);stop-opacity:1;"/>
</radialGradient>
</defs>
<g id="surface1">
<path style=" stroke:none;fill-rule:nonzero;fill:url(#linear0);" d="M 13.558594 7.0625 L 11.351562 7.785156 L 9.429688 8.632812 L 8.890625 8.773438 C 8.753906 8.90625 8.609375 9.035156 8.457031 9.171875 C 8.285156 9.316406 8.128906 9.449219 8.003906 9.546875 C 7.871094 9.65625 7.667969 9.855469 7.566406 9.980469 C 7.414062 10.171875 7.296875 10.375 7.242188 10.53125 C 7.152344 10.808594 7.195312 11.09375 7.375 11.355469 C 7.601562 11.691406 8.054688 12.03125 8.582031 12.261719 C 8.851562 12.382812 9.300781 12.53125 9.644531 12.617188 C 10.207031 12.761719 11.304688 12.917969 11.90625 12.941406 C 12.027344 12.945312 12.191406 12.945312 12.199219 12.941406 C 12.210938 12.933594 12.304688 12.753906 12.414062 12.53125 C 12.785156 11.773438 13.050781 11.066406 13.195312 10.460938 C 13.285156 10.09375 13.351562 9.601562 13.398438 9.023438 C 13.410156 8.863281 13.414062 8.320312 13.402344 8.136719 C 13.390625 7.835938 13.363281 7.589844 13.320312 7.351562 C 13.3125 7.316406 13.3125 7.285156 13.316406 7.285156 C 13.324219 7.277344 13.34375 7.273438 13.613281 7.195312 Z M 13.054688 7.359375 C 13.074219 7.359375 13.128906 7.871094 13.140625 8.195312 C 13.144531 8.265625 13.144531 8.308594 13.140625 8.308594 C 13.128906 8.308594 12.859375 8.152344 12.667969 8.03125 C 12.5 7.925781 12.183594 7.714844 12.132812 7.675781 C 12.117188 7.664062 12.117188 7.660156 12.253906 7.613281 C 12.484375 7.535156 13.035156 7.359375 13.054688 7.359375 Z M 11.929688 7.730469 C 11.945312 7.730469 11.984375 7.75 12.074219 7.808594 C 12.417969 8.023438 12.886719 8.285156 13.085938 8.371094 C 13.148438 8.398438 13.15625 8.386719 13.011719 8.484375 C 12.710938 8.691406 12.332031 8.894531 11.867188 9.101562 C 11.785156 9.136719 11.714844 9.164062 11.714844 9.164062 C 11.710938 9.164062 11.722656 9.125 11.734375 9.074219 C 11.847656 8.65625 11.910156 8.238281 11.914062 7.898438 C 11.914062 7.734375 11.914062 7.734375 11.929688 7.726562 C 11.925781 7.730469 11.929688 7.730469 11.929688 7.730469 Z M 11.699219 7.820312 C 11.707031 7.828125 11.703125 8.203125 11.6875 8.304688 C 11.65625 8.546875 11.609375 8.773438 11.535156 9.03125 C 11.515625 9.09375 11.5 9.144531 11.496094 9.148438 C 11.488281 9.15625 11.261719 8.933594 11.183594 8.84375 C 11.054688 8.695312 10.953125 8.542969 10.878906 8.398438 C 10.839844 8.324219 10.78125 8.175781 10.785156 8.171875 C 10.8125 8.152344 11.691406 7.8125 11.699219 7.820312 Z M 10.605469 8.246094 C 10.609375 8.246094 10.609375 8.246094 10.609375 8.25 C 10.613281 8.253906 10.625 8.277344 10.636719 8.308594 C 10.691406 8.453125 10.808594 8.667969 10.914062 8.804688 C 11.027344 8.957031 11.175781 9.117188 11.300781 9.222656 C 11.339844 9.253906 11.375 9.285156 11.378906 9.289062 C 11.390625 9.300781 11.394531 9.300781 11.121094 9.402344 C 10.804688 9.523438 10.460938 9.644531 10.070312 9.769531 C 9.972656 9.800781 9.878906 9.832031 9.785156 9.863281 C 9.769531 9.867188 9.777344 9.859375 9.820312 9.789062 C 10.015625 9.484375 10.3125 8.886719 10.480469 8.460938 C 10.507812 8.386719 10.535156 8.3125 10.542969 8.296875 C 10.546875 8.273438 10.554688 8.265625 10.578125 8.253906 C 10.589844 8.25 10.601562 8.246094 10.605469 8.246094 Z M 10.273438 8.386719 C 10.277344 8.390625 10.191406 8.566406 10.109375 8.730469 C 9.945312 9.046875 9.769531 9.359375 9.53125 9.734375 C 9.492188 9.800781 9.453125 9.859375 9.449219 9.867188 C 9.441406 9.878906 9.4375 9.875 9.410156 9.824219 C 9.355469 9.710938 9.308594 9.566406 9.28125 9.4375 C 9.257812 9.304688 9.261719 9.078125 9.289062 8.9375 C 9.3125 8.835938 9.3125 8.835938 9.359375 8.8125 C 9.574219 8.703125 10.265625 8.378906 10.273438 8.386719 Z M 13.152344 8.503906 L 13.152344 8.574219 C 13.152344 8.945312 13.113281 9.457031 13.054688 9.828125 C 13.042969 9.894531 13.035156 9.945312 13.035156 9.949219 C 13.035156 9.949219 12.984375 9.933594 12.929688 9.917969 C 12.679688 9.839844 12.40625 9.726562 12.160156 9.589844 C 12 9.5 11.761719 9.355469 11.769531 9.347656 C 11.769531 9.347656 11.839844 9.3125 11.921875 9.265625 C 12.25 9.097656 12.5625 8.914062 12.835938 8.730469 C 12.9375 8.664062 13.09375 8.554688 13.125 8.523438 Z M 9.011719 8.996094 C 9.019531 8.996094 9.015625 9.011719 9.007812 9.070312 C 9 9.113281 8.992188 9.195312 8.988281 9.25 C 8.976562 9.492188 9.015625 9.671875 9.136719 9.921875 C 9.167969 9.988281 9.195312 10.046875 9.195312 10.046875 C 9.183594 10.058594 8.078125 10.382812 7.730469 10.476562 C 7.625 10.503906 7.535156 10.53125 7.53125 10.53125 C 7.519531 10.535156 7.515625 10.53125 7.519531 10.503906 C 7.558594 10.257812 7.746094 9.9375 8.007812 9.667969 C 8.179688 9.488281 8.320312 9.382812 8.554688 9.246094 C 8.726562 9.152344 8.988281 9.003906 9.007812 9 C 9.007812 8.996094 9.011719 8.996094 9.011719 8.996094 Z M 11.617188 9.460938 C 11.617188 9.460938 11.65625 9.484375 11.707031 9.511719 C 12.0625 9.71875 12.5625 9.910156 12.984375 10.007812 L 13.023438 10.015625 L 12.96875 10.046875 C 12.75 10.171875 12.019531 10.472656 11.273438 10.753906 C 11.164062 10.792969 11.058594 10.832031 11.035156 10.839844 C 11.015625 10.851562 11 10.855469 11 10.851562 C 11 10.851562 11.027344 10.792969 11.066406 10.722656 C 11.277344 10.332031 11.484375 9.855469 11.59375 9.523438 C 11.605469 9.492188 11.613281 9.464844 11.617188 9.460938 Z M 11.351562 9.550781 C 11.351562 9.550781 11.339844 9.585938 11.324219 9.625 C 11.175781 9.980469 10.988281 10.363281 10.742188 10.792969 C 10.679688 10.902344 10.628906 10.992188 10.628906 10.992188 C 10.625 10.992188 10.574219 10.960938 10.515625 10.925781 C 10.160156 10.707031 9.847656 10.441406 9.644531 10.183594 L 9.613281 10.144531 L 9.765625 10.105469 C 10.308594 9.957031 10.769531 9.796875 11.230469 9.597656 C 11.296875 9.570312 11.347656 9.550781 11.351562 9.550781 Z M 13 10.125 C 13 10.125 13 10.128906 13 10.125 C 13 10.164062 12.917969 10.507812 12.847656 10.757812 C 12.789062 10.964844 12.738281 11.128906 12.644531 11.417969 C 12.605469 11.542969 12.570312 11.648438 12.570312 11.648438 C 12.566406 11.648438 12.558594 11.648438 12.546875 11.644531 C 12.050781 11.554688 11.609375 11.429688 11.191406 11.261719 C 11.074219 11.214844 10.90625 11.140625 10.898438 11.132812 C 10.894531 11.128906 10.992188 11.082031 11.121094 11.027344 C 11.878906 10.695312 12.667969 10.316406 12.9375 10.15625 C 12.96875 10.136719 12.996094 10.125 13 10.125 Z M 9.191406 10.253906 C 9.195312 10.257812 8.984375 10.566406 8.6875 10.980469 C 8.582031 11.125 8.460938 11.296875 8.417969 11.359375 C 8.371094 11.421875 8.304688 11.523438 8.265625 11.582031 L 8.195312 11.691406 L 8.121094 11.628906 C 8.03125 11.554688 7.878906 11.398438 7.808594 11.3125 C 7.667969 11.132812 7.570312 10.945312 7.53125 10.773438 C 7.511719 10.691406 7.511719 10.652344 7.53125 10.644531 C 7.554688 10.640625 8 10.535156 8.417969 10.4375 C 8.648438 10.382812 8.917969 10.320312 9.015625 10.296875 C 9.113281 10.273438 9.191406 10.253906 9.191406 10.253906 Z M 9.40625 10.335938 L 9.460938 10.398438 C 9.699219 10.667969 9.945312 10.863281 10.242188 11.039062 C 10.296875 11.070312 10.335938 11.09375 10.332031 11.097656 C 10.320312 11.105469 9.300781 11.46875 8.828125 11.632812 C 8.5625 11.726562 8.34375 11.800781 8.34375 11.800781 C 8.339844 11.800781 8.324219 11.789062 8.308594 11.777344 L 8.277344 11.757812 L 8.328125 11.6875 C 8.484375 11.460938 8.679688 11.210938 9.109375 10.691406 Z M 10.738281 11.289062 C 10.738281 11.289062 10.8125 11.316406 10.902344 11.347656 C 11.121094 11.429688 11.292969 11.484375 11.523438 11.542969 C 11.804688 11.613281 12.21875 11.683594 12.460938 11.703125 C 12.496094 11.707031 12.515625 11.710938 12.507812 11.714844 C 12.496094 11.722656 12.253906 11.804688 12.070312 11.859375 C 11.785156 11.949219 10.910156 12.210938 10.195312 12.414062 C 10.0625 12.453125 9.949219 12.484375 9.941406 12.484375 C 9.925781 12.488281 9.871094 12.472656 9.871094 12.46875 C 9.871094 12.464844 9.910156 12.414062 9.957031 12.355469 C 10.199219 12.070312 10.4375 11.75 10.636719 11.445312 C 10.691406 11.359375 10.738281 11.292969 10.738281 11.289062 Z M 10.445312 11.300781 C 10.445312 11.300781 10.328125 11.492188 10.121094 11.820312 C 10.03125 11.957031 9.933594 12.113281 9.898438 12.167969 C 9.863281 12.222656 9.816406 12.304688 9.785156 12.351562 L 9.738281 12.4375 L 9.714844 12.429688 C 9.652344 12.414062 9.230469 12.265625 9.117188 12.222656 C 8.980469 12.164062 8.835938 12.097656 8.730469 12.042969 C 8.597656 11.96875 8.429688 11.863281 8.441406 11.859375 C 8.445312 11.859375 8.675781 11.796875 8.949219 11.722656 C 9.679688 11.523438 10.085938 11.40625 10.351562 11.324219 C 10.402344 11.308594 10.441406 11.296875 10.445312 11.300781 Z M 12.523438 11.785156 C 12.53125 11.804688 12.261719 12.554688 12.160156 12.792969 C 12.140625 12.84375 12.132812 12.859375 12.121094 12.855469 C 12.09375 12.855469 11.699219 12.800781 11.460938 12.765625 C 11.046875 12.703125 10.347656 12.578125 10.171875 12.539062 L 10.132812 12.53125 L 10.378906 12.472656 C 10.914062 12.355469 11.171875 12.289062 11.433594 12.210938 C 11.761719 12.109375 12.085938 11.984375 12.414062 11.832031 C 12.46875 11.808594 12.511719 11.789062 12.523438 11.785156 Z M 12.523438 11.785156 "/>
<path style=" stroke:none;fill-rule:nonzero;fill:url(#linear1);" d="M 11.28125 1.914062 C 11.246094 1.910156 10.652344 2.125 10.269531 2.277344 C 9.753906 2.488281 9.355469 2.691406 9.105469 2.863281 C 9.015625 2.929688 8.898438 3.042969 8.882812 3.089844 C 8.875 3.105469 8.871094 3.125 8.871094 3.144531 L 9.09375 3.359375 L 9.628906 3.527344 L 10.894531 3.753906 L 12.34375 4.003906 L 12.359375 3.878906 C 12.355469 3.878906 12.351562 3.875 12.347656 3.875 L 12.15625 3.847656 L 12.117188 3.777344 C 11.921875 3.429688 11.703125 3 11.574219 2.710938 C 11.476562 2.484375 11.382812 2.222656 11.332031 2.035156 C 11.304688 1.921875 11.300781 1.917969 11.28125 1.914062 Z M 11.253906 2 L 11.257812 2 C 11.257812 2 11.265625 2.046875 11.273438 2.105469 C 11.300781 2.335938 11.351562 2.5625 11.433594 2.804688 C 11.496094 2.992188 11.496094 2.980469 11.425781 2.957031 C 11.253906 2.910156 10.492188 2.78125 9.9375 2.703125 C 9.851562 2.691406 9.773438 2.679688 9.773438 2.679688 C 9.769531 2.671875 10.171875 2.460938 10.351562 2.375 C 10.582031 2.269531 11.207031 2.007812 11.253906 2 Z M 9.644531 2.75 L 9.710938 2.769531 C 10.066406 2.890625 10.953125 3.058594 11.445312 3.101562 C 11.5 3.105469 11.546875 3.109375 11.550781 3.109375 C 11.550781 3.113281 11.503906 3.136719 11.445312 3.164062 C 11.207031 3.285156 10.945312 3.429688 10.765625 3.542969 C 10.714844 3.574219 10.664062 3.601562 10.65625 3.601562 C 10.652344 3.601562 10.617188 3.59375 10.578125 3.589844 L 10.511719 3.578125 L 10.347656 3.414062 C 10.050781 3.128906 9.820312 2.910156 9.734375 2.828125 Z M 9.578125 2.800781 L 9.816406 3.09375 C 9.945312 3.253906 10.074219 3.414062 10.101562 3.449219 C 10.128906 3.484375 10.152344 3.511719 10.152344 3.515625 C 10.144531 3.519531 9.8125 3.453125 9.632812 3.414062 C 9.453125 3.371094 9.378906 3.351562 9.265625 3.316406 L 9.171875 3.289062 L 9.171875 3.265625 C 9.175781 3.152344 9.316406 2.984375 9.558594 2.816406 Z M 11.578125 3.199219 C 11.585938 3.199219 11.59375 3.214844 11.613281 3.261719 C 11.671875 3.386719 11.847656 3.722656 11.890625 3.789062 C 11.90625 3.808594 11.929688 3.8125 11.691406 3.773438 C 11.128906 3.679688 10.945312 3.652344 10.945312 3.648438 C 10.945312 3.644531 10.960938 3.632812 10.984375 3.621094 C 11.160156 3.527344 11.335938 3.402344 11.492188 3.269531 C 11.53125 3.238281 11.566406 3.207031 11.574219 3.203125 C 11.574219 3.199219 11.578125 3.199219 11.578125 3.199219 Z M 11.578125 3.199219 "/>
<path style=" stroke:none;fill-rule:nonzero;fill:url(#radial0);" d="M 8.894531 3.066406 C 8.894531 3.066406 8.855469 3.125 8.890625 3.210938 C 8.914062 3.265625 8.976562 3.328125 9.046875 3.394531 C 9.046875 3.394531 9.792969 4.121094 9.882812 4.222656 C 10.292969 4.699219 10.472656 5.164062 10.488281 5.808594 C 10.496094 6.222656 10.417969 6.589844 10.222656 7.011719 C 9.875 7.769531 9.144531 8.605469 8.011719 9.53125 L 8.179688 9.476562 C 8.285156 9.398438 8.429688 9.3125 8.769531 9.125 C 9.558594 8.695312 10.441406 8.300781 11.527344 7.890625 C 13.089844 7.304688 15.660156 6.617188 17.121094 6.394531 L 17.273438 6.371094 L 17.25 6.332031 C 17.117188 6.125 17.023438 5.996094 16.914062 5.859375 C 16.59375 5.460938 16.207031 5.140625 15.730469 4.875 C 15.074219 4.507812 14.230469 4.222656 13.15625 4.011719 C 12.957031 3.96875 12.511719 3.894531 12.152344 3.839844 C 11.386719 3.71875 10.890625 3.636719 10.347656 3.542969 C 10.152344 3.511719 9.859375 3.460938 9.667969 3.417969 C 9.566406 3.398438 9.375 3.351562 9.222656 3.300781 C 9.105469 3.253906 8.929688 3.207031 8.894531 3.066406 Z M 9.324219 3.484375 C 9.324219 3.480469 9.351562 3.492188 9.386719 3.503906 C 9.449219 3.523438 9.53125 3.550781 9.628906 3.578125 C 9.703125 3.597656 9.777344 3.617188 9.851562 3.632812 C 9.949219 3.660156 10.035156 3.683594 10.035156 3.683594 C 10.046875 3.695312 10.214844 4.234375 10.273438 4.441406 C 10.292969 4.519531 10.3125 4.585938 10.308594 4.585938 C 10.308594 4.589844 10.289062 4.558594 10.265625 4.519531 C 10.070312 4.175781 9.761719 3.828125 9.40625 3.546875 C 9.359375 3.515625 9.324219 3.484375 9.324219 3.484375 Z M 10.144531 3.710938 C 10.152344 3.710938 10.191406 3.714844 10.234375 3.726562 C 10.519531 3.789062 11.027344 3.886719 11.355469 3.941406 C 11.410156 3.949219 11.453125 3.957031 11.453125 3.960938 C 11.453125 3.964844 11.433594 3.976562 11.40625 3.992188 C 11.351562 4.019531 11.128906 4.152344 11.058594 4.199219 C 10.871094 4.324219 10.703125 4.457031 10.585938 4.578125 C 10.535156 4.625 10.496094 4.667969 10.496094 4.667969 C 10.496094 4.667969 10.484375 4.636719 10.476562 4.601562 C 10.414062 4.371094 10.289062 4.027344 10.175781 3.785156 C 10.160156 3.746094 10.144531 3.710938 10.144531 3.707031 C 10.144531 3.710938 10.144531 3.710938 10.144531 3.710938 Z M 11.589844 3.984375 C 11.601562 3.988281 11.617188 4.046875 11.652344 4.171875 C 11.714844 4.414062 11.742188 4.683594 11.730469 4.933594 C 11.726562 5.003906 11.726562 5.070312 11.722656 5.078125 L 11.714844 5.09375 L 11.628906 5.066406 C 11.449219 5.011719 11.160156 4.925781 10.910156 4.855469 C 10.769531 4.816406 10.65625 4.78125 10.65625 4.777344 C 10.65625 4.769531 10.863281 4.5625 10.949219 4.484375 C 11.117188 4.335938 11.574219 3.980469 11.589844 3.984375 Z M 11.707031 4 C 11.710938 3.996094 12.398438 4.117188 12.710938 4.175781 C 12.941406 4.21875 13.277344 4.289062 13.300781 4.300781 C 13.308594 4.300781 13.273438 4.324219 13.160156 4.371094 C 12.722656 4.570312 12.394531 4.75 12.070312 4.96875 C 11.984375 5.023438 11.910156 5.070312 11.910156 5.070312 C 11.910156 5.070312 11.90625 5.023438 11.90625 4.964844 C 11.90625 4.644531 11.84375 4.324219 11.726562 4.054688 C 11.714844 4.027344 11.703125 4.003906 11.707031 4 Z M 13.480469 4.351562 C 13.484375 4.359375 13.464844 4.492188 13.445312 4.574219 C 13.382812 4.820312 13.222656 5.191406 13.023438 5.539062 C 12.988281 5.601562 12.957031 5.648438 12.953125 5.652344 C 12.949219 5.652344 12.90625 5.628906 12.851562 5.597656 C 12.660156 5.484375 12.4375 5.378906 12.199219 5.277344 C 12.132812 5.25 12.074219 5.226562 12.070312 5.222656 C 12.058594 5.210938 12.597656 4.855469 12.882812 4.6875 C 13.105469 4.550781 13.472656 4.347656 13.480469 4.351562 Z M 13.609375 4.371094 C 13.621094 4.371094 13.925781 4.457031 14.085938 4.503906 C 14.476562 4.621094 14.929688 4.785156 15.222656 4.917969 L 15.34375 4.972656 L 15.257812 4.992188 C 14.542969 5.160156 13.925781 5.347656 13.335938 5.589844 C 13.285156 5.609375 13.242188 5.625 13.238281 5.625 C 13.234375 5.625 13.253906 5.589844 13.273438 5.542969 C 13.453125 5.164062 13.566406 4.765625 13.597656 4.429688 C 13.597656 4.398438 13.601562 4.371094 13.609375 4.371094 Z M 10.582031 5.066406 C 10.585938 5.0625 10.820312 5.117188 10.945312 5.152344 C 11.136719 5.207031 11.539062 5.339844 11.539062 5.351562 C 11.539062 5.351562 11.496094 5.390625 11.441406 5.4375 C 11.222656 5.621094 11.011719 5.8125 10.757812 6.054688 C 10.683594 6.128906 10.621094 6.1875 10.617188 6.1875 C 10.613281 6.1875 10.613281 6.175781 10.613281 6.164062 C 10.652344 5.882812 10.644531 5.519531 10.589844 5.15625 C 10.585938 5.109375 10.582031 5.070312 10.582031 5.066406 Z M 15.460938 5.070312 C 15.460938 5.074219 15.351562 5.25 15.28125 5.347656 C 15.183594 5.492188 15.035156 5.679688 14.703125 6.097656 C 14.527344 6.320312 14.332031 6.566406 14.265625 6.652344 C 14.199219 6.734375 14.144531 6.804688 14.140625 6.804688 C 14.140625 6.804688 14.117188 6.773438 14.09375 6.738281 C 13.910156 6.457031 13.683594 6.210938 13.417969 5.992188 C 13.367188 5.949219 13.3125 5.90625 13.296875 5.890625 C 13.277344 5.878906 13.261719 5.863281 13.261719 5.863281 C 13.261719 5.859375 13.546875 5.738281 13.761719 5.648438 C 14.140625 5.496094 14.652344 5.3125 15.039062 5.195312 C 15.242188 5.128906 15.457031 5.070312 15.460938 5.070312 Z M 15.585938 5.105469 C 15.59375 5.105469 15.632812 5.125 15.683594 5.152344 C 16.089844 5.382812 16.484375 5.683594 16.800781 5.992188 C 16.886719 6.078125 17.105469 6.304688 17.105469 6.304688 C 17.105469 6.304688 17.027344 6.3125 16.9375 6.320312 C 16.234375 6.371094 15.335938 6.519531 14.46875 6.730469 C 14.410156 6.742188 14.359375 6.753906 14.355469 6.753906 C 14.351562 6.753906 14.417969 6.691406 14.5 6.609375 C 15.007812 6.121094 15.238281 5.8125 15.511719 5.261719 C 15.550781 5.179688 15.585938 5.109375 15.585938 5.105469 Z M 11.871094 5.484375 C 11.894531 5.492188 12.109375 5.59375 12.273438 5.675781 C 12.425781 5.75 12.648438 5.871094 12.660156 5.878906 C 12.664062 5.882812 12.582031 5.921875 12.484375 5.972656 C 12.171875 6.128906 11.902344 6.277344 11.621094 6.449219 C 11.542969 6.496094 11.472656 6.535156 11.472656 6.535156 C 11.464844 6.535156 11.46875 6.53125 11.511719 6.449219 C 11.664062 6.175781 11.78125 5.847656 11.851562 5.527344 C 11.859375 5.503906 11.863281 5.484375 11.871094 5.484375 Z M 11.652344 5.527344 C 11.65625 5.53125 11.601562 5.738281 11.566406 5.847656 C 11.496094 6.058594 11.382812 6.324219 11.269531 6.527344 C 11.242188 6.574219 11.203125 6.640625 11.183594 6.679688 L 11.140625 6.746094 L 11.046875 6.65625 C 10.9375 6.550781 10.851562 6.484375 10.738281 6.425781 C 10.691406 6.40625 10.65625 6.382812 10.65625 6.382812 C 10.65625 6.367188 10.941406 6.109375 11.160156 5.921875 C 11.316406 5.785156 11.648438 5.519531 11.652344 5.527344 Z M 12.980469 6.070312 L 13.0625 6.125 C 13.25 6.246094 13.46875 6.410156 13.636719 6.550781 C 13.734375 6.628906 13.917969 6.796875 13.953125 6.835938 L 13.972656 6.855469 L 13.839844 6.894531 C 13.074219 7.105469 12.484375 7.296875 11.792969 7.550781 C 11.714844 7.578125 11.652344 7.601562 11.644531 7.601562 C 11.636719 7.601562 11.628906 7.609375 11.800781 7.449219 C 12.242188 7.046875 12.632812 6.597656 12.921875 6.164062 Z M 12.632812 6.160156 C 12.632812 6.164062 12.40625 6.484375 12.269531 6.667969 C 12.105469 6.882812 11.816406 7.246094 11.613281 7.484375 C 11.53125 7.582031 11.460938 7.664062 11.457031 7.667969 C 11.449219 7.667969 11.449219 7.644531 11.449219 7.605469 C 11.449219 7.402344 11.398438 7.1875 11.308594 7.003906 C 11.269531 6.925781 11.261719 6.910156 11.269531 6.898438 C 11.300781 6.871094 11.789062 6.59375 12.09375 6.429688 C 12.300781 6.320312 12.625 6.15625 12.632812 6.160156 Z M 10.519531 6.675781 C 10.527344 6.675781 10.5625 6.695312 10.609375 6.71875 C 10.714844 6.777344 10.808594 6.84375 10.894531 6.914062 C 10.898438 6.917969 10.855469 6.953125 10.796875 6.992188 C 10.640625 7.105469 10.398438 7.289062 10.257812 7.402344 C 10.113281 7.519531 10.105469 7.519531 10.125 7.496094 C 10.234375 7.328125 10.289062 7.230469 10.347656 7.109375 C 10.398438 7.003906 10.449219 6.875 10.488281 6.761719 C 10.5 6.714844 10.519531 6.675781 10.519531 6.675781 Z M 11.082031 7.117188 C 11.09375 7.117188 11.101562 7.128906 11.148438 7.199219 C 11.242188 7.339844 11.316406 7.53125 11.335938 7.683594 L 11.335938 7.714844 L 11.109375 7.804688 C 10.699219 7.964844 10.324219 8.121094 10.066406 8.238281 C 9.996094 8.269531 9.871094 8.332031 9.789062 8.371094 C 9.707031 8.414062 9.640625 8.445312 9.640625 8.441406 C 9.640625 8.441406 9.691406 8.402344 9.753906 8.355469 C 10.253906 7.992188 10.6875 7.597656 11.011719 7.199219 C 11.046875 7.15625 11.078125 7.117188 11.082031 7.117188 Z M 10.824219 7.179688 C 10.832031 7.1875 10.640625 7.402344 10.511719 7.535156 C 10.1875 7.863281 9.871094 8.121094 9.472656 8.371094 C 9.425781 8.402344 9.378906 8.429688 9.375 8.433594 C 9.363281 8.441406 9.378906 8.425781 9.550781 8.234375 C 9.660156 8.117188 9.746094 8.015625 9.839844 7.894531 C 9.902344 7.8125 9.914062 7.800781 10.007812 7.734375 C 10.253906 7.558594 10.816406 7.175781 10.824219 7.179688 Z M 10.824219 7.179688 "/>
<path style=" stroke:none;fill-rule:nonzero;fill:rgb(13.72549%,12.156863%,12.156863%);fill-opacity:1;" d="M 3.59375 14.09375 C 3.566406 14.09375 3.535156 14.097656 3.503906 14.097656 C 2.882812 14.128906 2.460938 14.402344 2.214844 14.9375 C 2.007812 15.421875 2.03125 16.054688 2.21875 16.539062 C 2.4375 17.015625 2.792969 17.265625 3.386719 17.359375 C 3.515625 17.382812 3.597656 17.449219 3.839844 17.734375 L 4.140625 18.085938 L 4.683594 18.085938 L 4.324219 17.722656 C 4.121094 17.519531 3.960938 17.347656 3.960938 17.332031 C 3.960938 17.316406 4.039062 17.285156 4.128906 17.253906 C 4.433594 17.164062 4.6875 16.929688 4.863281 16.566406 C 5.007812 16.277344 5.027344 16.1875 5.046875 15.828125 C 5.101562 14.753906 4.535156 14.085938 3.59375 14.09375 Z M 4.070312 16.898438 C 3.808594 17.027344 3.425781 17.050781 3.171875 16.960938 C 2.914062 16.863281 2.664062 16.59375 2.550781 16.292969 C 2.425781 15.957031 2.445312 15.34375 2.585938 15.066406 C 2.816406 14.628906 3.121094 14.425781 3.566406 14.425781 C 4.226562 14.425781 4.601562 14.832031 4.652344 15.589844 C 4.691406 16.222656 4.476562 16.699219 4.070312 16.898438 Z M 13.449219 15.007812 C 13.21875 15.007812 13.046875 15.101562 12.929688 15.28125 L 12.835938 15.425781 L 12.835938 15.054688 L 12.441406 15.054688 L 12.441406 17.292969 L 12.835938 17.292969 L 12.835938 16.578125 C 12.835938 15.921875 12.84375 15.847656 12.9375 15.667969 C 13.0625 15.421875 13.28125 15.296875 13.488281 15.355469 L 13.628906 15.398438 L 13.628906 15.011719 L 13.449219 15.011719 Z M 11.132812 14.988281 C 11.054688 14.988281 10.972656 15 10.890625 15.015625 C 10.367188 15.15625 10.066406 15.660156 10.085938 16.179688 C 10.085938 16.613281 10.171875 16.832031 10.378906 17.058594 C 10.808594 17.410156 11.199219 17.441406 11.722656 17.25 C 11.8125 17.210938 11.910156 17.167969 11.910156 17.167969 L 11.910156 16.816406 L 11.722656 16.914062 C 11.300781 17.097656 10.980469 17.097656 10.722656 16.878906 C 10.558594 16.714844 10.488281 16.515625 10.453125 16.285156 L 12.042969 16.285156 L 12.042969 15.984375 C 12.042969 15.367188 11.671875 14.980469 11.132812 14.988281 Z M 10.492188 15.972656 C 10.492188 15.972656 10.550781 15.585938 10.765625 15.4375 C 10.871094 15.363281 10.992188 15.328125 11.109375 15.328125 C 11.226562 15.328125 11.34375 15.363281 11.441406 15.4375 C 11.640625 15.59375 11.675781 15.96875 11.675781 15.96875 L 10.492188 15.96875 Z M 0.992188 15.566406 C 0.5625 15.308594 0.375 15.121094 0.398438 14.902344 C 0.464844 14.292969 1.214844 14.378906 1.632812 14.609375 L 1.636719 14.199219 C 1.636719 14.199219 1.40625 14.097656 1.074219 14.09375 C 0.570312 14.085938 0.242188 14.25 0.0898438 14.589844 C -0.136719 15.089844 0.0625 15.464844 0.785156 15.882812 C 1.1875 16.121094 1.367188 16.324219 1.367188 16.546875 C 1.367188 17.007812 0.8125 17.167969 0.238281 16.878906 C 0.121094 16.820312 0.0195312 16.773438 0.015625 16.773438 C -0.00390625 16.902344 0.00390625 17.214844 0.00390625 17.214844 C 0.00390625 17.214844 0.183594 17.289062 0.445312 17.339844 C 1.101562 17.46875 1.695312 17.164062 1.753906 16.664062 C 1.800781 16.195312 1.632812 15.949219 0.992188 15.566406 Z M 16.933594 14.984375 C 16.859375 14.984375 16.777344 14.992188 16.691406 15.011719 C 16.164062 15.148438 15.867188 15.65625 15.890625 16.175781 C 15.890625 16.609375 15.972656 16.824219 16.183594 17.050781 C 16.613281 17.402344 17 17.433594 17.527344 17.242188 C 17.617188 17.203125 17.714844 17.160156 17.714844 17.160156 L 17.714844 16.808594 L 17.527344 16.90625 C 17.101562 17.089844 16.78125 17.089844 16.527344 16.871094 C 16.363281 16.707031 16.292969 16.507812 16.257812 16.277344 L 17.84375 16.277344 L 17.84375 15.976562 C 17.84375 15.363281 17.472656 14.972656 16.933594 14.984375 Z M 16.292969 15.964844 C 16.292969 15.964844 16.351562 15.582031 16.570312 15.429688 C 16.675781 15.355469 16.792969 15.320312 16.910156 15.320312 C 17.027344 15.320312 17.148438 15.355469 17.246094 15.429688 C 17.445312 15.585938 17.476562 15.964844 17.476562 15.964844 Z M 9.070312 15.574219 C 8.644531 15.3125 8.453125 15.128906 8.476562 14.90625 C 8.542969 14.296875 9.296875 14.382812 9.710938 14.613281 L 9.714844 14.203125 C 9.714844 14.203125 9.484375 14.101562 9.15625 14.097656 C 8.648438 14.089844 8.320312 14.257812 8.167969 14.59375 C 7.941406 15.09375 8.144531 15.46875 8.863281 15.890625 C 9.269531 16.125 9.445312 16.328125 9.445312 16.550781 C 9.445312 17.011719 8.890625 17.171875 8.320312 16.882812 C 8.199219 16.824219 8.101562 16.773438 8.09375 16.773438 C 8.074219 16.90625 8.085938 17.21875 8.085938 17.21875 C 8.085938 17.21875 8.257812 17.289062 8.523438 17.34375 C 9.179688 17.472656 9.773438 17.167969 9.832031 16.667969 C 9.878906 16.203125 9.710938 15.957031 9.070312 15.574219 Z M 19.25 15.003906 C 19.023438 15.003906 18.847656 15.097656 18.730469 15.277344 L 18.640625 15.421875 L 18.640625 15.046875 L 18.246094 15.046875 L 18.246094 17.289062 L 18.640625 17.289062 L 18.640625 16.574219 C 18.640625 15.917969 18.648438 15.839844 18.738281 15.660156 C 18.863281 15.417969 19.082031 15.292969 19.292969 15.351562 L 19.433594 15.394531 L 19.433594 15.003906 Z M 5.9375 15.558594 L 5.9375 14.132812 L 5.539062 14.132812 L 5.539062 17.292969 L 7.210938 17.292969 L 7.210938 16.921875 L 5.9375 16.921875 Z M 15.125 16.003906 L 14.796875 16.855469 L 14.480469 16 L 14.160156 15.050781 L 13.753906 15.050781 C 14.019531 15.796875 14.304688 16.558594 14.59375 17.292969 C 14.71875 17.296875 14.84375 17.292969 14.96875 17.292969 L 15.414062 16.183594 L 15.863281 15.050781 L 15.472656 15.050781 C 15.472656 15.050781 15.300781 15.5 15.125 16.003906 Z M 6.851562 13.269531 C 6.917969 13.269531 6.96875 13.25 7.015625 13.207031 C 7.058594 13.160156 7.078125 13.109375 7.078125 13.046875 C 7.078125 12.984375 7.058594 12.929688 7.015625 12.886719 C 6.96875 12.847656 6.917969 12.828125 6.855469 12.828125 C 6.789062 12.828125 6.738281 12.847656 6.695312 12.890625 C 6.648438 12.933594 6.628906 12.988281 6.628906 13.050781 C 6.628906 13.113281 6.652344 13.167969 6.695312 13.207031 C 6.734375 13.25 6.789062 13.269531 6.851562 13.269531 Z M 6.710938 12.90625 C 6.75 12.867188 6.796875 12.851562 6.855469 12.851562 C 6.910156 12.851562 6.957031 12.867188 6.996094 12.90625 C 7.035156 12.945312 7.054688 12.992188 7.054688 13.046875 C 7.054688 13.101562 7.035156 13.152344 6.996094 13.191406 C 6.957031 13.226562 6.910156 13.246094 6.855469 13.246094 C 6.796875 13.246094 6.753906 13.230469 6.714844 13.191406 C 6.675781 13.152344 6.65625 13.101562 6.65625 13.046875 C 6.65625 12.992188 6.671875 12.945312 6.710938 12.90625 Z M 6.804688 13.066406 L 6.832031 13.066406 C 6.851562 13.066406 6.867188 13.085938 6.882812 13.117188 L 6.914062 13.1875 L 6.960938 13.1875 L 6.925781 13.109375 C 6.910156 13.082031 6.894531 13.0625 6.875 13.058594 C 6.898438 13.050781 6.917969 13.042969 6.929688 13.027344 C 6.941406 13.015625 6.945312 13 6.945312 12.976562 C 6.945312 12.953125 6.941406 12.9375 6.925781 12.925781 C 6.90625 12.910156 6.878906 12.902344 6.839844 12.902344 L 6.761719 12.902344 L 6.761719 13.1875 L 6.800781 13.1875 L 6.800781 13.066406 Z M 6.804688 12.933594 L 6.84375 12.933594 C 6.867188 12.933594 6.886719 12.941406 6.894531 12.949219 C 6.90625 12.953125 6.910156 12.964844 6.910156 12.984375 C 6.910156 13.015625 6.886719 13.03125 6.851562 13.03125 L 6.804688 13.03125 Z M 0.242188 13.042969 C 0.242188 12.941406 0.242188 12.867188 0.238281 12.824219 L 0.242188 12.824219 C 0.25 12.875 0.265625 12.914062 0.273438 12.941406 L 0.65625 13.792969 L 0.71875 13.792969 L 1.101562 12.933594 C 1.109375 12.910156 1.121094 12.875 1.132812 12.824219 L 1.136719 12.824219 C 1.128906 12.910156 1.125 12.984375 1.125 13.042969 L 1.125 13.792969 L 1.257812 13.792969 L 1.257812 12.675781 L 1.09375 12.675781 L 0.742188 13.453125 C 0.730469 13.484375 0.710938 13.53125 0.6875 13.59375 L 0.683594 13.59375 C 0.675781 13.5625 0.660156 13.515625 0.632812 13.460938 L 0.289062 12.675781 L 0.117188 12.675781 L 0.117188 13.792969 L 0.242188 13.792969 Z M 1.542969 13.042969 L 1.65625 13.042969 L 1.65625 13.742188 L 1.542969 13.742188 Z M 1.601562 12.789062 C 1.625 12.789062 1.644531 12.78125 1.660156 12.765625 C 1.675781 12.75 1.683594 12.730469 1.683594 12.707031 C 1.683594 12.683594 1.675781 12.664062 1.660156 12.648438 C 1.644531 12.632812 1.621094 12.625 1.597656 12.625 C 1.578125 12.625 1.554688 12.632812 1.539062 12.648438 C 1.523438 12.664062 1.515625 12.683594 1.515625 12.707031 C 1.515625 12.730469 1.523438 12.75 1.539062 12.765625 C 1.558594 12.78125 1.578125 12.789062 1.597656 12.789062 Z M 2.460938 13.753906 L 2.460938 13.632812 C 2.398438 13.679688 2.332031 13.703125 2.261719 13.703125 C 2.179688 13.703125 2.113281 13.675781 2.066406 13.621094 C 2.015625 13.566406 1.992188 13.492188 1.992188 13.398438 C 1.992188 13.304688 2.015625 13.226562 2.070312 13.167969 C 2.121094 13.109375 2.1875 13.082031 2.269531 13.082031 C 2.335938 13.082031 2.402344 13.101562 2.460938 13.144531 L 2.460938 13.015625 C 2.40625 12.984375 2.34375 12.972656 2.273438 12.972656 C 2.148438 12.972656 2.046875 13.015625 1.972656 13.09375 C 1.898438 13.171875 1.859375 13.28125 1.859375 13.410156 C 1.859375 13.527344 1.894531 13.621094 1.964844 13.695312 C 2.035156 13.773438 2.125 13.8125 2.238281 13.8125 C 2.328125 13.808594 2.398438 13.792969 2.460938 13.753906 Z M 2.78125 13.382812 C 2.78125 13.292969 2.800781 13.21875 2.839844 13.167969 C 2.875 13.121094 2.917969 13.097656 2.972656 13.097656 C 3.015625 13.097656 3.046875 13.105469 3.066406 13.125 L 3.066406 12.992188 C 3.050781 12.984375 3.023438 12.980469 2.992188 12.980469 C 2.945312 12.980469 2.90625 12.996094 2.867188 13.023438 C 2.832031 13.054688 2.800781 13.101562 2.78125 13.160156 L 2.777344 13.160156 L 2.777344 12.996094 L 2.652344 12.996094 L 2.652344 13.792969 L 2.78125 13.792969 Z M 3.515625 13.808594 C 3.636719 13.808594 3.734375 13.769531 3.804688 13.695312 C 3.875 13.617188 3.914062 13.515625 3.914062 13.386719 C 3.914062 13.257812 3.878906 13.15625 3.8125 13.082031 C 3.746094 13.007812 3.65625 12.972656 3.535156 12.972656 C 3.414062 12.972656 3.316406 13.007812 3.246094 13.078125 C 3.167969 13.152344 3.128906 13.261719 3.128906 13.398438 C 3.128906 13.519531 3.160156 13.621094 3.230469 13.695312 C 3.300781 13.769531 3.394531 13.808594 3.515625 13.808594 Z M 3.335938 13.160156 C 3.382812 13.109375 3.445312 13.082031 3.527344 13.082031 C 3.609375 13.082031 3.671875 13.109375 3.714844 13.160156 C 3.761719 13.214844 3.785156 13.289062 3.785156 13.390625 C 3.785156 13.488281 3.765625 13.566406 3.722656 13.617188 C 3.675781 13.671875 3.613281 13.699219 3.527344 13.699219 C 3.445312 13.699219 3.382812 13.671875 3.335938 13.617188 C 3.285156 13.5625 3.261719 13.488281 3.261719 13.390625 C 3.257812 13.296875 3.285156 13.214844 3.335938 13.160156 Z M 4.472656 13.742188 C 4.523438 13.695312 4.546875 13.644531 4.546875 13.578125 C 4.546875 13.519531 4.527344 13.46875 4.488281 13.429688 C 4.457031 13.398438 4.410156 13.371094 4.339844 13.34375 C 4.277344 13.316406 4.238281 13.296875 4.21875 13.277344 C 4.199219 13.257812 4.1875 13.230469 4.1875 13.195312 C 4.1875 13.160156 4.199219 13.136719 4.226562 13.117188 C 4.25 13.09375 4.285156 13.085938 4.328125 13.085938 C 4.394531 13.085938 4.457031 13.105469 4.507812 13.140625 L 4.507812 13.015625 C 4.457031 12.988281 4.402344 12.976562 4.335938 12.976562 C 4.253906 12.976562 4.1875 13 4.136719 13.042969 C 4.082031 13.085938 4.054688 13.140625 4.054688 13.207031 C 4.054688 13.265625 4.074219 13.316406 4.105469 13.351562 C 4.136719 13.382812 4.183594 13.414062 4.25 13.441406 C 4.3125 13.46875 4.359375 13.496094 4.378906 13.515625 C 4.402344 13.535156 4.414062 13.5625 4.414062 13.589844 C 4.414062 13.667969 4.363281 13.703125 4.261719 13.703125 C 4.1875 13.703125 4.117188 13.679688 4.054688 13.628906 L 4.054688 13.765625 C 4.109375 13.800781 4.179688 13.816406 4.253906 13.816406 C 4.347656 13.808594 4.421875 13.785156 4.472656 13.742188 Z M 5.082031 12.972656 C 4.960938 12.972656 4.863281 13.007812 4.792969 13.078125 C 4.714844 13.152344 4.675781 13.261719 4.675781 13.398438 C 4.675781 13.519531 4.707031 13.621094 4.777344 13.695312 C 4.847656 13.769531 4.945312 13.808594 5.0625 13.808594 C 5.1875 13.808594 5.28125 13.769531 5.351562 13.695312 C 5.425781 13.617188 5.460938 13.515625 5.460938 13.386719 C 5.460938 13.257812 5.425781 13.15625 5.359375 13.082031 C 5.292969 13.007812 5.199219 12.972656 5.082031 12.972656 Z M 5.332031 13.390625 C 5.332031 13.488281 5.308594 13.566406 5.265625 13.617188 C 5.222656 13.671875 5.160156 13.699219 5.074219 13.699219 C 4.992188 13.699219 4.929688 13.671875 4.878906 13.617188 C 4.832031 13.5625 4.808594 13.488281 4.808594 13.390625 C 4.808594 13.289062 4.832031 13.210938 4.886719 13.15625 C 4.933594 13.105469 4.996094 13.082031 5.078125 13.082031 C 5.15625 13.082031 5.21875 13.105469 5.265625 13.15625 C 5.308594 13.214844 5.328125 13.289062 5.328125 13.390625 Z M 5.675781 13.792969 L 5.804688 13.792969 L 5.804688 13.101562 L 5.992188 13.101562 L 5.992188 12.992188 L 5.804688 12.992188 L 5.804688 12.871094 C 5.804688 12.757812 5.847656 12.703125 5.9375 12.703125 C 5.96875 12.703125 5.996094 12.710938 6.019531 12.722656 L 6.019531 12.605469 C 5.996094 12.597656 5.96875 12.59375 5.929688 12.59375 C 5.859375 12.59375 5.804688 12.613281 5.757812 12.660156 C 5.703125 12.710938 5.675781 12.777344 5.675781 12.867188 L 5.675781 12.996094 L 5.539062 12.996094 L 5.539062 13.105469 L 5.675781 13.105469 Z M 6.199219 13.574219 C 6.199219 13.730469 6.269531 13.808594 6.410156 13.808594 C 6.460938 13.808594 6.5 13.800781 6.53125 13.785156 L 6.53125 13.671875 C 6.507812 13.691406 6.480469 13.699219 6.449219 13.699219 C 6.40625 13.699219 6.375 13.6875 6.355469 13.664062 C 6.339844 13.644531 6.328125 13.605469 6.328125 13.550781 L 6.328125 13.101562 L 6.53125 13.101562 L 6.53125 12.992188 L 6.328125 12.992188 L 6.328125 12.757812 C 6.285156 12.773438 6.242188 12.785156 6.199219 12.800781 L 6.199219 12.992188 L 6.0625 12.992188 L 6.0625 13.101562 L 6.199219 13.101562 Z M 19.929688 15.046875 C 19.886719 15.003906 19.835938 14.984375 19.773438 14.984375 C 19.707031 14.984375 19.65625 15.003906 19.613281 15.046875 C 19.566406 15.089844 19.546875 15.144531 19.546875 15.207031 C 19.546875 15.269531 19.566406 15.324219 19.609375 15.363281 C 19.65625 15.40625 19.707031 15.425781 19.773438 15.425781 C 19.835938 15.425781 19.890625 15.40625 19.933594 15.363281 C 19.976562 15.320312 20 15.269531 20 15.203125 C 19.996094 15.140625 19.972656 15.085938 19.929688 15.046875 Z M 19.910156 15.347656 C 19.871094 15.386719 19.828125 15.402344 19.769531 15.402344 C 19.714844 15.402344 19.667969 15.386719 19.628906 15.347656 C 19.589844 15.308594 19.570312 15.261719 19.570312 15.203125 C 19.570312 15.148438 19.589844 15.101562 19.625 15.0625 C 19.664062 15.023438 19.710938 15.007812 19.769531 15.007812 C 19.824219 15.007812 19.871094 15.023438 19.910156 15.0625 C 19.949219 15.101562 19.96875 15.148438 19.96875 15.203125 C 19.96875 15.261719 19.953125 15.308594 19.910156 15.347656 Z M 19.796875 15.21875 C 19.820312 15.210938 19.835938 15.203125 19.847656 15.1875 C 19.863281 15.175781 19.867188 15.15625 19.867188 15.136719 C 19.867188 15.113281 19.859375 15.097656 19.84375 15.082031 C 19.828125 15.070312 19.796875 15.0625 19.761719 15.0625 L 19.679688 15.0625 L 19.679688 15.347656 L 19.722656 15.347656 L 19.722656 15.226562 L 19.746094 15.226562 C 19.765625 15.226562 19.78125 15.246094 19.796875 15.277344 L 19.828125 15.347656 L 19.878906 15.347656 L 19.839844 15.269531 C 19.824219 15.238281 19.8125 15.222656 19.796875 15.214844 Z M 19.769531 15.191406 L 19.722656 15.191406 L 19.722656 15.09375 L 19.757812 15.09375 C 19.785156 15.09375 19.804688 15.097656 19.8125 15.105469 C 19.824219 15.113281 19.824219 15.125 19.824219 15.144531 C 19.824219 15.175781 19.804688 15.191406 19.765625 15.191406 Z M 12.628906 12.960938 L 12.664062 12.960938 L 12.664062 12.671875 L 12.761719 12.671875 L 12.761719 12.636719 L 12.535156 12.636719 L 12.535156 12.671875 L 12.628906 12.671875 Z M 12.847656 12.746094 C 12.847656 12.71875 12.847656 12.695312 12.84375 12.679688 C 12.847656 12.695312 12.851562 12.707031 12.855469 12.714844 L 12.964844 12.960938 L 12.980469 12.960938 L 13.09375 12.710938 C 13.09375 12.703125 13.097656 12.695312 13.101562 12.679688 C 13.101562 12.707031 13.101562 12.726562 13.101562 12.742188 L 13.101562 12.960938 L 13.136719 12.960938 L 13.136719 12.636719 L 13.09375 12.636719 L 12.992188 12.859375 C 12.992188 12.867188 12.980469 12.882812 12.976562 12.902344 L 12.972656 12.902344 C 12.972656 12.890625 12.96875 12.878906 12.960938 12.863281 L 12.859375 12.636719 L 12.808594 12.636719 L 12.808594 12.960938 L 12.84375 12.960938 L 12.84375 12.746094 Z M 12.847656 12.746094 "/>
</g>
</svg>
