<svg width="13" height="14" viewBox="0 0 13 14" fill="none" xmlns="http://www.w3.org/2000/svg">
<path d="M13 5.63323V0.5H0V7.45559H8.93794V8.36677H0V13.5H13V6.54441H4.06207V5.63323H13ZM6.49652 12.1645C6.14179 12.1645 5.85661 11.8793 5.85661 11.5246C5.85661 11.1699 6.14179 10.8847 6.49652 10.8847C6.85126 10.8847 7.13644 11.1699 7.13644 11.5246C7.13644 11.8793 6.85126 12.1645 6.49652 12.1645ZM9.37614 10.1822H3.61691L3.89513 9.271H9.12574L9.37614 10.1822ZM6.49652 1.83547C6.85126 1.83547 7.13644 2.12065 7.13644 2.47539C7.13644 2.83012 6.85126 3.1153 6.49652 3.1153C6.14179 3.1153 5.85661 2.83012 5.85661 2.47539C5.85661 2.12065 6.14179 1.83547 6.49652 1.83547ZM3.88818 4.72204L3.60995 3.81086H9.37614L9.11878 4.72204H3.88818Z" fill="#171615"/>
</svg>
