<svg width="13" height="14" viewBox="0 0 13 14" fill="none" xmlns="http://www.w3.org/2000/svg">
<path fill-rule="evenodd" clip-rule="evenodd" d="M2 0.5C0.895432 0.5 0 1.39543 0 2.5V11.5C0 12.6046 0.895432 13.5 2 13.5H11C12.1046 13.5 13 12.6046 13 11.5V2.5C13 1.39543 12.1046 0.5 11 0.5H2ZM6.72598 4.12308C6.14174 4.12308 5.78897 4.3044 5.78897 4.77582C5.78897 5.29054 6.39607 5.51697 7.14925 5.79787C8.37711 6.25581 9.99318 6.85855 10 9.0912C10 11.2549 8.42361 12.5 6.13071 12.5C5.18268 12.5 4.14645 12.2945 3.12126 11.811V8.93407C4.04724 9.49011 5.21574 9.90109 6.13071 9.90109C6.74803 9.90109 7.18898 9.71977 7.18898 9.16374C7.18898 8.59358 6.53087 8.33298 5.73636 8.01836C4.52637 7.5392 3 6.93477 3 4.92088C3 2.78133 4.48819 1.5 6.72598 1.5C7.64095 1.5 8.54488 1.65715 9.45984 2.05605V4.8967C8.62204 4.40109 7.56378 4.12308 6.72598 4.12308Z" fill="white"/>
</svg>
