<svg width="20" height="20" viewBox="0 0 20 20" fill="none" xmlns="http://www.w3.org/2000/svg">
<path fill-rule="evenodd" clip-rule="evenodd" d="M6.02152 3.9194C7.22174 2.21697 8.72119 1.94426 10.7679 3.10343L10.8301 3.13899L16.7411 6.55166L17.9496 4.45846L19.781 5.51582L15.887 12.2604L14.0556 11.203L15.679 8.39122L9.76807 4.97855C8.12749 4.03137 7.69138 4.99513 6.71352 6.88916L6.68372 6.94684L6.67724 6.94314L6.62542 7.0329L4.82431 5.99303L6.02152 3.9194ZM4.18791 6.84781L6.01932 7.90517L4.39594 10.7169L10.3068 14.1296C11.9474 15.0768 12.3835 14.113 13.3614 12.219L13.3912 12.1613L13.3977 12.165L13.4495 12.0753L15.2506 13.1151L14.0534 15.1888C12.8532 16.8912 11.3537 17.1639 9.30697 16.0047L9.24478 15.9692L3.33386 12.5565L2.12535 14.6497L0.293945 13.5923L4.18791 6.84781Z" fill="black"/>
</svg>
