<svg width="20" height="20" viewBox="0 0 20 20" fill="none" xmlns="http://www.w3.org/2000/svg">
<path d="M4.71429 4.35567H2L4.71429 10.2128L0 16.4985H2.85714L5.85714 12.07L7.57143 16.4985H10.4286L7.57143 10.2128L11.7143 4.35567H9.14286L6.28571 8.35567L4.71429 4.35567Z" fill="black"/>
<path d="M20 4.45961V6.88818C17.8571 5.74533 14.2857 5.06996 13.8572 9.78425C13.4286 14.4985 14.8572 14.3557 16.2857 14.3557C17.7143 14.3557 17.8572 12.4985 17.7143 11.4985H16.2857V9.64139H20L19.4286 15.6414C16.1429 17.07 10.5714 17.7843 11.4286 9.78425C12.1143 3.38425 17.3334 3.55485 20 4.45961Z" fill="black"/>
</svg>
