<svg width="1786" height="265" viewBox="0 0 1786 265" fill="none" xmlns="http://www.w3.org/2000/svg">
<g clip-path="url(#clip0_39_260)">
<path d="M488.074 18.092H510.208V215.991H488.074V198.558H487.521C479.214 209.353 465.929 219.873 443.231 219.873C407.802 219.873 379.573 191.91 379.573 145.418C379.573 98.927 407.802 70.964 443.231 70.964C465.949 70.964 479.214 80.921 487.521 93.099H488.074V18.092ZM488.074 145.418C488.074 112.202 471.737 90.333 445.444 90.333C416.385 90.333 401.718 117.733 401.718 145.418C401.718 173.104 416.385 200.464 445.444 200.464C471.737 200.464 488.074 178.626 488.074 145.418Z" fill="#030615"/>
<path d="M593.45 90.332C566.604 90.332 557.744 98.086 556.362 118.561H534.217C535.61 91.438 552.49 70.963 593.48 70.963C620.336 70.963 644.417 81.472 644.417 115.519V184.165C644.417 195.238 646.392 201.322 660.467 199.663V215.16C656.3 216.715 651.876 217.469 647.429 217.382C634.144 217.382 626.114 213.777 622.242 198.28H621.689C612.8 211.564 597.056 219.871 573.805 219.871C545.289 219.871 527.303 203.534 527.303 179.73C527.303 147.63 551.107 139.323 587.643 132.409C611.447 127.974 622.213 124.932 622.213 110.817C622.242 99.715 616.148 90.332 593.45 90.332ZM622.242 161.448V137.94C618.084 142.088 604.523 145.97 589.579 149.012C562.179 154.82 549.448 161.744 549.448 178.644C549.448 192.472 557.744 200.512 576.017 200.512C602.31 200.463 622.242 188.61 622.242 161.467V161.448Z" fill="#030615"/>
<path d="M772.901 74.842H795.045V208.253C795.045 245.895 771.241 264.998 732.483 264.998C693.725 264.998 670.761 244.512 668.548 220.432H690.693C693.459 234.823 705.084 245.619 731.377 245.619C757.67 245.619 772.861 234.27 772.861 207.977V186.642H772.308C764.001 198.821 750.717 208.787 727.466 208.787C692.589 208.787 664.36 186.365 664.36 139.864C664.36 93.362 692.589 70.951 727.466 70.951C750.717 70.951 764.011 81.46 772.308 92.256H772.861L772.901 74.842ZM772.901 139.883C772.901 106.666 756.564 90.34 730.271 90.34C701.212 90.34 686.545 112.208 686.545 139.883C686.545 167.559 701.212 189.427 730.271 189.427C756.564 189.427 772.901 173.1 772.901 139.883Z" fill="#030615"/>
<path d="M931.47 177.241C931.47 202.981 907.95 219.871 875.845 219.871C832.662 219.871 812.74 199.386 811.357 168.945H833.492C834.875 184.748 840.406 200.492 875.845 200.492C899.93 200.492 909.34 188.037 909.34 178.624C909.34 158.149 890.789 157.042 870.581 152.055C848.999 146.8 816.888 144.311 816.888 111.094C816.888 88.949 836.544 70.963 869.751 70.963C904.9 70.963 923.73 90.885 925.94 115.242H903.8C901.59 104.446 896.33 90.332 869.751 90.332C849.829 90.332 839.033 98.362 839.033 109.435C839.033 126.038 858.125 127.421 877.781 132.152C902.97 138.236 931.47 142.365 931.47 177.241Z" fill="#030615"/>
<path d="M1009.67 94.215H982.02V179.159C982.02 195.219 990.91 197.985 1009.67 196.602V215.971C1004.21 217.12 998.65 217.68 993.07 217.64C974.24 217.64 959.85 210.163 959.85 181.381V94.215H939.11V74.846H959.85V27.791H982V74.846H1009.65L1009.67 94.215Z" fill="#030615"/>
<path d="M1130.62 172.538H1152.77C1145.57 198.831 1125.36 219.869 1090.2 219.869C1047.31 219.869 1021.29 189.694 1021.29 145.415C1021.29 98.3599 1047.86 70.9609 1089.1 70.9609C1133.39 70.9609 1154.98 101.126 1154.98 151.223H1043.44C1043.44 176.686 1058.66 200.49 1089.37 200.49C1117.61 200.461 1128.13 182.227 1130.62 172.538ZM1043.44 131.854H1132.83C1132.83 109.136 1115.68 90.3699 1089.1 90.3699C1062.52 90.3699 1043.44 109.156 1043.44 131.854Z" fill="#030615"/>
<path d="M1248.78 71.796V93.93H1248.23C1217.51 88.992 1196.19 110.544 1196.19 140.709V215.992H1174.04V74.838H1196.18V102.79H1196.74C1204.21 84.251 1215.5 70.966 1235.76 70.966C1240.11 70.92 1244.47 71.197 1248.78 71.796Z" fill="#030615"/>
<path d="M1336.15 24.127H1357.79V216.714H1336.15V24.127Z" fill="#030615"/>
<path d="M1426.85 220.486C1399 220.486 1381.42 204.594 1381.42 181.43C1381.42 149.916 1404.68 141.566 1440.37 134.832C1463.89 130.522 1474.71 127.829 1474.71 114.361C1474.71 103.587 1468.76 94.1599 1446.05 94.1599C1419.82 94.1599 1412.25 101.971 1410.9 121.903H1388.18C1389.54 95.5059 1406.3 75.3049 1446.86 75.3049C1472.54 75.3049 1495.8 86.0789 1495.8 119.748V185.739C1495.8 196.513 1497.42 201.9 1502.82 201.9C1503.64 201.9 1504.45 201.901 1506.07 201.631V216.715C1502.55 217.523 1499.31 218.062 1495.52 218.062C1483.63 218.062 1476.33 213.483 1474.98 196.513H1474.44C1465.51 211.328 1449.83 220.486 1426.85 220.486ZM1429.01 201.631C1454.97 201.631 1474.71 190.049 1474.71 163.652V141.835C1470.65 146.145 1457.13 149.646 1442.26 152.609C1415.49 158.265 1404.14 164.461 1404.14 180.352C1404.14 193.82 1411.17 201.631 1429.01 201.631Z" fill="#030615"/>
<path d="M1550.81 198.937H1550.27V216.714H1528.64V24.127H1550.27V96.313H1550.81C1558.92 85.809 1571.9 75.573 1594.07 75.573C1628.68 75.573 1656.26 102.778 1656.26 148.029C1656.26 193.28 1628.68 220.485 1594.07 220.485C1571.9 220.485 1558.92 210.788 1550.81 198.937ZM1591.91 94.4279C1566.22 94.4279 1550.27 115.707 1550.27 148.029C1550.27 180.351 1566.22 201.63 1591.91 201.63C1620.3 201.63 1633.55 174.964 1633.55 148.029C1633.55 121.094 1620.3 94.4279 1591.91 94.4279Z" fill="#030615"/>
<path d="M1733.81 135.099C1758.42 140.756 1786.27 147.759 1786.27 178.195C1786.27 204.053 1765.99 220.484 1730.84 220.484C1691.09 220.484 1669.73 199.205 1668.92 170.923H1691.63C1692.72 187.623 1702.45 201.629 1730.84 201.629C1757.34 201.629 1763.56 189.508 1763.56 179.004C1763.56 160.149 1743.82 158.263 1726.78 154.493C1702.72 149.375 1674.33 142.641 1674.33 114.09C1674.33 90.925 1692.99 75.572 1724.62 75.572C1760.31 75.572 1778.7 94.966 1780.86 118.669H1758.15C1755.98 108.164 1750.58 94.427 1724.89 94.427C1705.42 94.427 1697.04 102.238 1697.04 113.282C1697.04 129.173 1714.62 130.52 1733.81 135.099Z" fill="#030615"/>
<path d="M233.446 258.425C247.77 258.425 259.383 246.855 259.383 232.582C259.383 218.31 247.77 206.74 233.446 206.74C219.121 206.74 207.508 218.31 207.508 232.582C207.508 246.855 219.121 258.425 233.446 258.425Z" fill="#030615"/>
<path d="M233.446 155.053C247.77 155.053 259.383 143.483 259.383 129.211C259.383 114.939 247.77 103.369 233.446 103.369C219.121 103.369 207.508 114.939 207.508 129.211C207.508 143.483 219.121 155.053 233.446 155.053Z" fill="#030615"/>
<path d="M233.446 51.684C247.77 51.684 259.383 40.114 259.383 25.842C259.383 11.57 247.77 0 233.446 0C219.121 0 207.508 11.57 207.508 25.842C207.508 40.114 219.121 51.684 233.446 51.684Z" fill="#030615"/>
<path d="M181.554 206.743C195.878 206.743 207.491 195.173 207.491 180.901C207.491 166.629 195.878 155.059 181.554 155.059C167.229 155.059 155.616 166.629 155.616 180.901C155.616 195.173 167.229 206.743 181.554 206.743Z" fill="#030615"/>
<path d="M181.554 103.366C195.878 103.366 207.491 91.796 207.491 77.524C207.491 63.252 195.878 51.682 181.554 51.682C167.229 51.682 155.616 63.252 155.616 77.524C155.616 91.796 167.229 103.366 181.554 103.366Z" fill="#030615"/>
<path d="M129.681 258.425C144.006 258.425 155.618 246.855 155.618 232.582C155.618 218.31 144.006 206.74 129.681 206.74C115.356 206.74 103.744 218.31 103.744 232.582C103.744 246.855 115.356 258.425 129.681 258.425Z" fill="#030615"/>
<path d="M129.681 155.053C144.006 155.053 155.618 143.483 155.618 129.211C155.618 114.939 144.006 103.369 129.681 103.369C115.356 103.369 103.744 114.939 103.744 129.211C103.744 143.483 115.356 155.053 129.681 155.053Z" fill="#030615"/>
<path d="M129.681 51.684C144.006 51.684 155.618 40.114 155.618 25.842C155.618 11.57 144.006 0 129.681 0C115.356 0 103.744 11.57 103.744 25.842C103.744 40.114 115.356 51.684 129.681 51.684Z" fill="#030615"/>
<path d="M77.81 206.743C92.135 206.743 103.747 195.173 103.747 180.901C103.747 166.629 92.135 155.059 77.81 155.059C63.485 155.059 51.873 166.629 51.873 180.901C51.873 195.173 63.485 206.743 77.81 206.743Z" fill="#030615"/>
<path d="M77.81 103.366C92.135 103.366 103.747 91.796 103.747 77.524C103.747 63.252 92.135 51.682 77.81 51.682C63.485 51.682 51.873 63.252 51.873 77.524C51.873 91.796 63.485 103.366 77.81 103.366Z" fill="#030615"/>
<path d="M25.937 155.053C40.262 155.053 51.874 143.483 51.874 129.211C51.874 114.939 40.262 103.369 25.937 103.369C11.613 103.369 0 114.939 0 129.211C0 143.483 11.612 155.053 25.937 155.053Z" fill="#030615"/>
</g>
<defs>
<clipPath id="clip0_39_260">
<rect width="1786" height="265" fill="white"/>
</clipPath>
</defs>
</svg>
