<svg width="1786" height="265" viewBox="0 0 1786 265" fill="none" xmlns="http://www.w3.org/2000/svg">
<g clip-path="url(#clip0_39_283)">
<path d="M488.074 18.092H510.208V215.991H488.074V198.558H487.521C479.214 209.353 465.929 219.873 443.231 219.873C407.802 219.873 379.573 191.91 379.573 145.418C379.573 98.927 407.802 70.964 443.231 70.964C465.949 70.964 479.214 80.921 487.521 93.099H488.074V18.092ZM488.074 145.418C488.074 112.202 471.737 90.333 445.444 90.333C416.385 90.333 401.718 117.733 401.718 145.418C401.718 173.104 416.385 200.464 445.444 200.464C471.737 200.464 488.074 178.626 488.074 145.418Z" fill="white"/>
<path d="M593.45 90.331C566.604 90.331 557.744 98.085 556.362 118.56H534.217C535.61 91.437 552.49 70.962 593.48 70.962C620.336 70.962 644.417 81.471 644.417 115.518V184.164C644.417 195.237 646.392 201.321 660.467 199.661V215.159C656.3 216.714 651.876 217.468 647.429 217.381C634.144 217.381 626.114 213.776 622.242 198.279H621.689C612.8 211.563 597.056 219.87 573.805 219.87C545.289 219.87 527.303 203.533 527.303 179.729C527.303 147.629 551.107 139.322 587.643 132.408C611.447 127.973 622.213 124.931 622.213 110.816C622.242 99.714 616.148 90.331 593.45 90.331ZM622.242 161.447V137.939C618.084 142.087 604.523 145.969 589.579 149.011C562.179 154.819 549.448 161.743 549.448 178.643C549.448 192.471 557.744 200.511 576.017 200.511C602.31 200.462 622.242 188.609 622.242 161.466V161.447Z" fill="white"/>
<path d="M772.901 74.843H795.045V208.254C795.045 245.896 771.241 264.999 732.483 264.999C693.725 264.999 670.761 244.513 668.548 220.433H690.693C693.459 234.824 705.084 245.62 731.377 245.62C757.67 245.62 772.861 234.271 772.861 207.978V186.643H772.308C764.001 198.822 750.717 208.788 727.466 208.788C692.589 208.788 664.36 186.366 664.36 139.865C664.36 93.363 692.589 70.952 727.466 70.952C750.717 70.952 764.011 81.461 772.308 92.257H772.861L772.901 74.843ZM772.901 139.884C772.901 106.667 756.564 90.341 730.271 90.341C701.212 90.341 686.545 112.209 686.545 139.884C686.545 167.56 701.212 189.428 730.271 189.428C756.564 189.428 772.901 173.101 772.901 139.884Z" fill="white"/>
<path d="M931.47 177.24C931.47 202.98 907.95 219.87 875.845 219.87C832.662 219.87 812.74 199.385 811.357 168.944H833.492C834.875 184.747 840.406 200.491 875.845 200.491C899.93 200.491 909.34 188.036 909.34 178.623C909.34 158.148 890.789 157.041 870.581 152.054C848.999 146.799 816.888 144.31 816.888 111.093C816.888 88.948 836.544 70.962 869.751 70.962C904.9 70.962 923.73 90.884 925.94 115.241H903.8C901.59 104.445 896.33 90.331 869.751 90.331C849.829 90.331 839.033 98.361 839.033 109.434C839.033 126.037 858.125 127.42 877.781 132.151C902.97 138.235 931.47 142.364 931.47 177.24Z" fill="white"/>
<path d="M1009.67 94.215H982.02V179.159C982.02 195.219 990.91 197.985 1009.67 196.602V215.971C1004.21 217.12 998.65 217.68 993.07 217.64C974.24 217.64 959.85 210.163 959.85 181.381V94.215H939.11V74.846H959.85V27.791H982V74.846H1009.65L1009.67 94.215Z" fill="white"/>
<path d="M1130.62 172.538H1152.77C1145.57 198.831 1125.36 219.869 1090.2 219.869C1047.31 219.869 1021.29 189.694 1021.29 145.415C1021.29 98.3599 1047.86 70.9609 1089.1 70.9609C1133.39 70.9609 1154.98 101.126 1154.98 151.223H1043.44C1043.44 176.686 1058.66 200.49 1089.37 200.49C1117.61 200.461 1128.13 182.227 1130.62 172.538ZM1043.44 131.854H1132.83C1132.83 109.136 1115.68 90.3699 1089.1 90.3699C1062.52 90.3699 1043.44 109.156 1043.44 131.854Z" fill="white"/>
<path d="M1248.78 71.796V93.93H1248.23C1217.51 88.992 1196.19 110.544 1196.19 140.709V215.992H1174.04V74.838H1196.18V102.79H1196.74C1204.21 84.251 1215.5 70.966 1235.76 70.966C1240.11 70.92 1244.47 71.197 1248.78 71.796Z" fill="white"/>
<path d="M1336.15 24.127H1357.79V216.714H1336.15V24.127Z" fill="white"/>
<path d="M1426.85 220.485C1399 220.485 1381.42 204.593 1381.42 181.429C1381.42 149.915 1404.68 141.565 1440.37 134.831C1463.89 130.521 1474.71 127.828 1474.71 114.36C1474.71 103.586 1468.76 94.159 1446.05 94.159C1419.82 94.159 1412.25 101.97 1410.9 121.902H1388.18C1389.54 95.5049 1406.3 75.304 1446.86 75.304C1472.54 75.304 1495.8 86.0779 1495.8 119.747V185.738C1495.8 196.512 1497.42 201.899 1502.82 201.899C1503.64 201.899 1504.45 201.9 1506.07 201.63V216.714C1502.55 217.522 1499.31 218.061 1495.52 218.061C1483.63 218.061 1476.33 213.482 1474.98 196.512H1474.44C1465.51 211.327 1449.83 220.485 1426.85 220.485ZM1429.01 201.63C1454.97 201.63 1474.71 190.048 1474.71 163.651V141.834C1470.65 146.144 1457.13 149.645 1442.26 152.608C1415.49 158.264 1404.14 164.46 1404.14 180.351C1404.14 193.819 1411.17 201.63 1429.01 201.63Z" fill="white"/>
<path d="M1550.81 198.937H1550.27V216.714H1528.64V24.127H1550.27V96.313H1550.81C1558.92 85.809 1571.9 75.573 1594.07 75.573C1628.68 75.573 1656.26 102.778 1656.26 148.029C1656.26 193.28 1628.68 220.485 1594.07 220.485C1571.9 220.485 1558.92 210.788 1550.81 198.937ZM1591.91 94.4279C1566.22 94.4279 1550.27 115.707 1550.27 148.029C1550.27 180.351 1566.22 201.63 1591.91 201.63C1620.3 201.63 1633.55 174.964 1633.55 148.029C1633.55 121.094 1620.3 94.4279 1591.91 94.4279Z" fill="white"/>
<path d="M1733.81 135.1C1758.42 140.757 1786.27 147.76 1786.27 178.196C1786.27 204.054 1765.99 220.485 1730.84 220.485C1691.09 220.485 1669.73 199.206 1668.92 170.924H1691.63C1692.72 187.624 1702.45 201.63 1730.84 201.63C1757.34 201.63 1763.56 189.509 1763.56 179.005C1763.56 160.15 1743.82 158.264 1726.78 154.493C1702.72 149.376 1674.33 142.642 1674.33 114.091C1674.33 90.926 1692.99 75.573 1724.62 75.573C1760.31 75.573 1778.7 94.967 1780.86 118.67H1758.15C1755.98 108.165 1750.58 94.428 1724.89 94.428C1705.42 94.428 1697.04 102.239 1697.04 113.283C1697.04 129.174 1714.62 130.521 1733.81 135.1Z" fill="white"/>
<path d="M233.446 258.426C247.77 258.426 259.383 246.856 259.383 232.583C259.383 218.311 247.77 206.741 233.446 206.741C219.121 206.741 207.508 218.311 207.508 232.583C207.508 246.856 219.121 258.426 233.446 258.426Z" fill="white"/>
<path d="M233.446 155.054C247.77 155.054 259.383 143.484 259.383 129.212C259.383 114.94 247.77 103.37 233.446 103.37C219.121 103.37 207.508 114.94 207.508 129.212C207.508 143.484 219.121 155.054 233.446 155.054Z" fill="white"/>
<path d="M233.446 51.684C247.77 51.684 259.383 40.114 259.383 25.842C259.383 11.57 247.77 0 233.446 0C219.121 0 207.508 11.57 207.508 25.842C207.508 40.114 219.121 51.684 233.446 51.684Z" fill="white"/>
<path d="M181.554 206.742C195.878 206.742 207.491 195.173 207.491 180.9C207.491 166.628 195.878 155.058 181.554 155.058C167.229 155.058 155.616 166.628 155.616 180.9C155.616 195.173 167.229 206.742 181.554 206.742Z" fill="white"/>
<path d="M181.554 103.365C195.878 103.365 207.491 91.795 207.491 77.523C207.491 63.251 195.878 51.681 181.554 51.681C167.229 51.681 155.616 63.251 155.616 77.523C155.616 91.795 167.229 103.365 181.554 103.365Z" fill="white"/>
<path d="M129.681 258.426C144.006 258.426 155.618 246.856 155.618 232.583C155.618 218.311 144.006 206.741 129.681 206.741C115.356 206.741 103.744 218.311 103.744 232.583C103.744 246.856 115.356 258.426 129.681 258.426Z" fill="white"/>
<path d="M129.681 155.054C144.006 155.054 155.618 143.484 155.618 129.212C155.618 114.94 144.006 103.37 129.681 103.37C115.356 103.37 103.744 114.94 103.744 129.212C103.744 143.484 115.356 155.054 129.681 155.054Z" fill="white"/>
<path d="M129.681 51.684C144.006 51.684 155.618 40.114 155.618 25.842C155.618 11.57 144.006 0 129.681 0C115.356 0 103.744 11.57 103.744 25.842C103.744 40.114 115.356 51.684 129.681 51.684Z" fill="white"/>
<path d="M77.81 206.743C92.135 206.743 103.747 195.173 103.747 180.901C103.747 166.629 92.135 155.059 77.81 155.059C63.485 155.059 51.873 166.629 51.873 180.901C51.873 195.173 63.485 206.743 77.81 206.743Z" fill="white"/>
<path d="M77.81 103.365C92.135 103.365 103.747 91.795 103.747 77.523C103.747 63.251 92.135 51.681 77.81 51.681C63.485 51.681 51.873 63.251 51.873 77.523C51.873 91.795 63.485 103.365 77.81 103.365Z" fill="white"/>
<path d="M25.937 155.054C40.262 155.054 51.874 143.484 51.874 129.212C51.874 114.94 40.262 103.37 25.937 103.37C11.613 103.37 0 114.94 0 129.212C0 143.484 11.612 155.054 25.937 155.054Z" fill="white"/>
</g>
<defs>
<clipPath id="clip0_39_283">
<rect width="1786" height="265" fill="white"/>
</clipPath>
</defs>
</svg>
