<svg width="334" height="60" viewBox="0 0 334 60" fill="none" xmlns="http://www.w3.org/2000/svg">
<g clip-path="url(#clip0_31_114)">
<path d="M79.9667 7.70996H84.0796V44.0163H79.9667V40.8141H79.8636C78.3203 42.7945 75.8519 44.7243 71.6324 44.7243C65.0471 44.7243 59.7994 39.596 59.7994 31.0659C59.7994 22.5355 65.0471 17.4074 71.6324 17.4074C75.8519 17.4074 78.3203 19.2355 79.8636 21.4701H79.9667V7.70996ZM79.9667 31.0659C79.9667 24.9736 76.9317 20.9618 72.0443 20.9618C66.6419 20.9618 63.9142 25.9884 63.9142 31.0659C63.9142 36.1434 66.6419 41.1699 72.0443 41.1699C76.9317 41.1699 79.9667 37.1579 79.9667 31.0659Z" fill="white"/>
<path d="M99.4406 20.9614C94.4503 20.9614 92.8022 22.3827 92.5465 26.1406H88.4299C88.6874 21.1646 91.8255 17.407 99.4406 17.407C104.431 17.407 108.906 19.3368 108.906 25.576V38.1688C108.906 40.2002 109.274 41.3165 111.89 41.0117V43.8563C111.117 44.1386 110.297 44.276 109.473 44.2611C107.002 44.2611 105.511 43.602 104.791 40.7574H104.681C103.035 43.1954 100.103 44.7185 95.782 44.7185C90.4827 44.7185 87.1368 41.7232 87.1368 37.3556C87.1368 31.4666 91.5605 29.9437 98.3572 28.6748C102.783 27.8615 104.795 27.3024 104.795 24.7136C104.791 22.6877 103.659 20.9614 99.4406 20.9614ZM104.791 34.0098V29.695C104.019 30.4554 101.497 31.1672 98.7214 31.7263C93.6263 32.7918 91.2534 34.0607 91.2534 37.1577C91.2534 39.699 92.7967 41.1695 96.1941 41.1695C101.087 41.1695 104.791 38.9858 104.791 34.0098Z" fill="white"/>
<path d="M132.64 18.1187H136.757V42.5908C136.757 49.4892 132.333 52.9999 125.13 52.9999C117.927 52.9999 113.656 49.2422 113.245 44.8311H117.373C117.888 47.4704 120.049 49.4509 124.937 49.4509C129.824 49.4509 132.653 47.3689 132.653 42.5527V38.6316H132.55C131.007 40.8645 128.538 42.6926 124.216 42.6926C117.734 42.6926 112.486 38.581 112.486 30.0506C112.486 21.5205 117.734 17.407 124.216 17.407C128.538 17.407 131.007 19.3368 132.55 21.3173H132.653L132.64 18.1187ZM132.64 30.0506C132.64 23.9566 129.605 20.9614 124.718 20.9614C119.316 20.9614 116.589 24.9732 116.589 30.0506C116.589 35.1281 119.316 39.1382 124.718 39.1382C129.613 39.1382 132.64 36.1429 132.64 30.0506Z" fill="white"/>
<path d="M162.051 36.9053C162.051 41.6252 157.678 44.7239 151.709 44.7239C143.684 44.7239 139.979 40.9662 139.722 35.3822H143.839C144.094 38.276 145.126 41.1695 151.709 41.1695C156.185 41.1695 157.934 38.884 157.934 37.1577C157.934 33.4018 154.487 33.1985 150.733 32.2835C146.719 31.3196 140.75 30.8622 140.75 24.7699C140.75 20.7072 144.403 17.407 150.578 17.407C157.112 17.407 160.61 21.0631 161.02 25.5306H156.906C156.494 23.5519 155.517 20.9614 150.578 20.9614C146.874 20.9614 144.876 22.4336 144.876 24.4649C144.876 27.511 148.426 27.7652 152.079 28.6293C156.751 29.7456 162.051 30.5063 162.051 36.9053Z" fill="white"/>
<path d="M175.962 21.6728H170.812V37.2591C170.812 40.2054 172.467 40.7083 175.962 40.4596V44.0157C174.947 44.2252 173.912 44.3276 172.875 44.3207C169.381 44.3207 166.7 42.9502 166.7 37.6693V21.6765H162.838V18.1184H166.7V9.48657H170.817V18.1184H175.967L175.962 21.6728Z" fill="white"/>
<path d="M197.837 36.0412H201.953C200.614 40.8645 196.86 44.7239 190.326 44.7239C182.351 44.7239 177.515 39.189 177.515 31.0654C177.515 22.4336 182.453 17.407 190.12 17.407C198.352 17.407 202.365 22.9418 202.365 32.1311H181.631C181.631 36.8038 184.46 41.1695 190.172 41.1695C195.42 41.1695 197.373 37.8184 197.837 36.0412ZM181.631 28.5858H198.249C198.249 24.4214 195.059 20.9614 190.12 20.9614C185.181 20.9614 181.631 24.4106 181.631 28.5858Z" fill="white"/>
<path d="M219.341 17.5595V21.6221H219.238C213.535 20.7145 209.568 24.6683 209.568 30.2031V44.0159H205.45V18.1186H209.568V23.2467H209.668C211.059 19.8449 213.165 17.4069 216.924 17.4069C217.731 17.3986 218.541 17.4495 219.341 17.5595Z" fill="white"/>
<path d="M15.5224 51.1358C15.5231 51.3928 15.5775 51.6469 15.6823 51.8822C15.7869 52.1175 15.9396 52.329 16.1309 52.5035C16.3219 52.6779 16.5476 52.8115 16.7933 52.8961C17.0392 52.9806 17.3 53.0141 17.5597 52.9946C27.4261 52.2976 36.7446 45.4068 39.7195 34.6436C39.8759 34.0247 40.3466 33.7143 40.9735 33.7143C41.2948 33.727 41.5984 33.8643 41.8179 34.0963C42.0375 34.3284 42.1555 34.6366 42.1465 34.954C42.1465 37.354 39.0209 43.6259 34.5509 47.2656C34.323 47.4548 34.1414 47.6922 34.0195 47.9604C33.8977 48.2284 33.8385 48.5202 33.8466 48.814C33.8512 49.053 33.9034 49.2885 34.0004 49.5075C34.0976 49.7264 34.2373 49.9242 34.4119 50.0896C34.5865 50.255 34.7924 50.3849 35.0179 50.4715C35.2434 50.5583 35.484 50.6003 35.726 50.5949C36.1175 50.5949 36.7446 50.3626 37.5278 49.6653C40.6537 46.877 46.611 39.0567 46.611 30.4612C46.611 17.8593 36.7391 7 22.9616 7C10.6682 7 0.0184937 16.9116 0.0184937 28.3716C0.0184937 35.9597 6.12662 41.6889 14.191 41.6889C20.3784 41.6889 26.0949 37.354 27.6614 31.3907C27.8176 30.7716 28.2866 30.4612 28.9134 30.4612C29.2352 30.474 29.5386 30.6112 29.7586 30.8433C29.9783 31.0753 30.097 31.3834 30.0884 31.7011C30.0884 34.4113 24.9199 43.8636 14.4264 43.8636C11.9204 43.8636 8.78908 43.1666 6.59549 41.9266C6.30183 41.7861 5.98197 41.7071 5.65592 41.6944C5.40626 41.6848 5.15731 41.7266 4.92474 41.8167C4.69218 41.9067 4.48102 42.0433 4.30451 42.218C4.12803 42.3927 3.99002 42.6014 3.89921 42.831C3.80838 43.0609 3.76671 43.3068 3.77678 43.5532C3.78691 43.869 3.87853 44.177 4.04295 44.4478C4.20739 44.7188 4.43917 44.944 4.71635 45.1018C7.61413 46.7355 11.0599 47.5797 14.5828 47.5797C23.3533 47.5797 31.3407 41.6944 33.6905 33.0227C33.8466 32.4036 34.3173 32.0932 34.9427 32.0932C35.2642 32.1059 35.5678 32.2432 35.7876 32.4752C36.0076 32.7073 36.126 33.0153 36.1175 33.3331C36.1175 36.8946 29.6969 48.3549 17.3243 49.2841C16.8455 49.3192 16.3969 49.5277 16.0642 49.8695C15.7317 50.2113 15.5387 50.6622 15.5224 51.1358Z" fill="#DEDEFC"/>
<path d="M27.7827 21.4813C29.4714 21.469 31.1292 21.9296 32.5632 22.8102C32.7082 22.027 32.788 21.2334 32.8023 20.4375C32.8023 16.7615 29.9634 13.4685 26.5065 13.4685C23.8185 13.4685 22.1379 15.6668 22.1379 18.3826C22.125 19.8496 22.6472 21.2724 23.6088 22.3909C24.9117 21.7774 26.3394 21.4664 27.7827 21.4813Z" fill="white"/>
<path d="M35.8821 34.7973C36.362 33.1781 36.5734 32.0544 36.5734 31.3245C36.5587 31.0095 36.4219 30.7119 36.1913 30.4937C35.9606 30.2752 35.6537 30.1529 35.3341 30.1519C35.0365 30.1573 34.7492 30.261 34.518 30.446C34.2868 30.6313 34.1249 30.8874 34.058 31.1738C33.9275 31.7059 33.6481 33.1471 33.3721 34.0621C33.4862 33.7195 33.5904 33.3716 33.6849 33.0183C33.8411 32.3975 34.3118 32.0888 34.9369 32.0888C35.2585 32.1011 35.562 32.238 35.7818 32.4698C36.0018 32.7014 36.1203 33.0094 36.1119 33.3268C36.0972 33.826 36.0161 34.3208 35.8711 34.799L35.8821 34.7973Z" fill="#C9C6FA"/>
<path d="M42.5382 33.1055C42.5231 32.7907 42.3865 32.4937 42.1561 32.2755C41.9261 32.0575 41.6199 31.9348 41.3007 31.9329C41.0033 31.9387 40.7164 32.0424 40.4856 32.2275C40.2549 32.4128 40.0932 32.6686 40.0266 32.9548C39.8941 33.4994 39.6092 34.9625 39.3297 35.8756H39.3424C39.4786 35.4691 39.6054 35.0569 39.7103 34.6376C39.8664 34.0168 40.3371 33.7081 40.9642 33.7081C41.2856 33.7204 41.5889 33.8575 41.8085 34.0891C42.028 34.3209 42.1463 34.629 42.1373 34.9463C42.1283 35.3316 42.0748 35.7148 41.9774 36.088C42.3672 34.7374 42.5382 33.7607 42.5382 33.1055Z" fill="#C9C6FA"/>
<path d="M27.7828 21.4809C28.622 21.4792 29.4577 21.5896 30.2668 21.8093C30.6917 21.2374 30.904 20.5384 30.868 19.8299C30.8321 19.1217 30.55 18.4469 30.0694 17.9198C29.5886 17.3927 28.9387 17.0451 28.2289 16.9355C27.5191 16.8259 26.7927 16.9611 26.1719 17.3183L27.459 19.4096L25.0487 18.3803C24.7221 18.9004 24.5585 19.5042 24.578 20.1159C24.5977 20.7274 24.7997 21.3197 25.159 21.8184C26.0144 21.5909 26.8969 21.4773 27.7828 21.4809Z" fill="#030615"/>
<path d="M9.21178 34.9389C10.2273 34.9389 11.0505 34.1261 11.0505 33.1236C11.0505 32.121 10.2273 31.3083 9.21178 31.3083C8.19632 31.3083 7.37311 32.121 7.37311 33.1236C7.37311 34.1261 8.19632 34.9389 9.21178 34.9389Z" fill="#C9C6FA"/>
<path d="M9.21178 27.6784C10.2273 27.6784 11.0505 26.8658 11.0505 25.8631C11.0505 24.8605 10.2273 24.0479 9.21178 24.0479C8.19632 24.0479 7.37311 24.8605 7.37311 25.8631C7.37311 26.8658 8.19632 27.6784 9.21178 27.6784Z" fill="#C9C6FA"/>
<path d="M5.53462 31.3088C6.5501 31.3088 7.37331 30.496 7.37331 29.4933C7.37331 28.4908 6.5501 27.678 5.53462 27.678C4.51913 27.678 3.69592 28.4908 3.69592 29.4933C3.69592 30.496 4.51913 31.3088 5.53462 31.3088Z" fill="#C9C6FA"/>
<path d="M13.8086 41.6851H14.1763C20.3634 41.6851 26.0799 37.3501 27.6467 31.3866C27.8028 30.7677 28.2718 30.4573 28.8987 30.4573C29.2202 30.4701 29.5238 30.6073 29.7438 30.8394C29.9636 31.0714 30.082 31.3795 30.0737 31.697C30.0456 32.3308 29.9004 32.9541 29.6453 33.5361C29.6896 33.4684 29.7284 33.3974 29.7611 33.3236C30.2263 32.2737 30.4667 31.1403 30.4672 29.9943C30.4672 28.2136 29.2132 27.0516 27.4131 27.0516C24.2745 27.0516 23.6457 29.7566 22.3217 32.6484C20.9482 35.6508 18.4256 38.8985 12.0636 38.8985C5.45357 38.8985 -1.33857 34.3293 0.318089 25.0385C0.338312 24.9225 0.354873 24.819 0.367748 24.7227C0.125003 25.923 0.00182053 27.1438 0 28.3678C0.0183808 35.8469 5.93713 41.5108 13.8086 41.6851Z" fill="#C9C6FA"/>
<path d="M251.044 22.3374H251.143V8.77979H255.092V44.5499H251.143V41.3981H251.044C249.563 43.3492 247.193 45.2503 243.145 45.2503C236.826 45.2503 231.79 40.1974 231.79 31.7927C231.79 23.388 236.826 18.3351 243.145 18.3351C247.193 18.3351 249.563 20.1362 251.044 22.3374ZM243.54 41.7483C248.23 41.7483 251.143 37.7961 251.143 31.7927C251.143 25.7893 248.23 21.8371 243.54 21.8371C238.356 21.8371 235.937 26.7899 235.937 31.7927C235.937 36.7955 238.356 41.7483 243.54 41.7483Z" fill="#8590A1"/>
<path d="M271.71 45.3003C264.008 45.3003 259.368 39.7472 259.368 31.7927C259.368 23.8382 264.008 18.2851 271.71 18.2851C279.362 18.2851 284.003 23.8382 284.003 31.7927C284.003 39.7472 279.362 45.3003 271.71 45.3003ZM271.71 41.7983C277.338 41.7983 279.856 37.2458 279.856 31.7927C279.856 26.3396 277.338 21.7871 271.71 21.7871C266.032 21.7871 263.515 26.3396 263.515 31.7927C263.515 37.2458 266.032 41.7983 271.71 41.7983Z" fill="#8590A1"/>
<path d="M306.292 28.2407C306.095 25.4391 304.416 21.8371 299.381 21.8371C293.407 21.8371 291.333 26.99 291.333 31.7927C291.333 36.5954 293.407 41.7483 299.381 41.7483C304.466 41.7483 306.095 38.1963 306.292 35.1446H310.439C310.094 40.9478 305.601 45.2503 299.381 45.2503C292.025 45.2503 287.186 39.7972 287.186 31.7927C287.186 23.7882 292.025 18.3351 299.381 18.3351C305.601 18.3351 309.847 22.5375 310.439 28.2407H306.292Z" fill="#8590A1"/>
<path d="M324.483 29.3914C328.976 30.4419 334.061 31.7427 334.061 37.3958C334.061 42.1985 330.358 45.2503 323.94 45.2503C316.683 45.2503 312.783 41.298 312.634 36.0451H316.782C316.979 39.1468 318.756 41.7483 323.94 41.7483C328.778 41.7483 329.914 39.497 329.914 37.5459C329.914 34.044 326.31 33.6938 323.2 32.9934C318.806 32.0428 313.622 30.7921 313.622 25.4892C313.622 21.1868 317.028 18.3351 322.805 18.3351C329.321 18.3351 332.679 21.9372 333.074 26.3396H328.927C328.532 24.3885 327.544 21.8371 322.854 21.8371C319.299 21.8371 317.769 23.2879 317.769 25.3391C317.769 28.2907 320.978 28.5409 324.483 29.3914Z" fill="#8590A1"/>
</g>
<defs>
<clipPath id="clip0_31_114">
<rect width="334" height="60" fill="white"/>
</clipPath>
</defs>
</svg>
