<svg width="64" height="64" viewBox="0 0 64 64" fill="none" xmlns="http://www.w3.org/2000/svg">
<path fill-rule="evenodd" clip-rule="evenodd" d="M26.5933 18.7464C30.3542 14.5397 36.582 13.3057 41.7022 15.7339C48.5049 18.9604 50.9867 27.1796 47.283 33.5197L38.9511 47.7666C38.4854 48.5627 37.7193 49.1436 36.8208 49.3817C35.9223 49.6197 34.965 49.4956 34.159 49.0364L44.2462 31.7847C46.9334 27.1832 45.1361 21.2187 40.2041 18.8703C36.5035 17.1083 31.9797 17.9885 29.2459 21.0187C27.7379 22.6822 26.8912 24.8299 26.863 27.0635C26.8348 29.2972 27.6269 31.4651 29.0923 33.1654C29.3556 33.4705 29.6391 33.7581 29.9407 34.0264L24.0518 44.1158C23.8215 44.5102 23.5149 44.856 23.1495 45.1332C22.7841 45.4105 22.367 45.6139 21.922 45.7318C21.4771 45.8497 21.013 45.8798 20.5563 45.8204C20.0996 45.761 19.6592 45.6133 19.2602 45.3856L25.6533 34.432C24.7349 33.1232 24.0755 31.6543 23.7096 30.103L19.7921 36.8286C19.3264 37.6247 18.5602 38.2056 17.6618 38.4437C16.7633 38.6817 15.806 38.5576 15 38.0984L25.1307 20.7498C25.5524 20.0374 26.0422 19.3665 26.5933 18.7464ZM38.2862 24.2686C40.726 25.6616 41.5686 28.7597 40.1568 31.1708L30.4421 47.7646C29.9765 48.5607 29.2103 49.1415 28.3118 49.3796C27.4133 49.6177 26.456 49.4935 25.65 49.0344L34.6705 33.5855C33.9467 33.4349 33.2646 33.1308 32.6713 32.6942C32.078 32.2575 31.5876 31.6988 31.2341 31.0566C30.8804 30.4143 30.672 29.7039 30.6231 28.9742C30.5743 28.2446 30.6862 27.5132 30.9512 26.8305C31.2162 26.1478 31.6278 25.53 32.1577 25.0199C32.6877 24.5098 33.3233 24.1195 34.0207 23.876C34.7181 23.6324 35.4606 23.5413 36.197 23.6091C36.9335 23.6769 37.6462 23.9019 38.2862 24.2686ZM34.7525 27.3871C34.5856 27.5138 34.4455 27.6718 34.3403 27.852H34.3398C34.1813 28.1235 34.1079 28.4353 34.1286 28.7481C34.1494 29.0608 34.2635 29.3605 34.4565 29.6091C34.6496 29.8577 34.9127 30.0442 35.213 30.1449C35.5132 30.2457 35.8368 30.2561 36.1431 30.175C36.4493 30.0938 36.7244 29.9248 36.9333 29.6891C37.1423 29.4534 37.276 29.1618 37.3174 28.8511C37.3588 28.5403 37.306 28.2244 37.1658 27.9433C37.0256 27.6622 36.8042 27.4285 36.5297 27.2718C36.3474 27.1677 36.1462 27.1002 35.9375 27.073C35.7287 27.0459 35.5167 27.0596 35.3134 27.1135C35.1101 27.1674 34.9196 27.2603 34.7525 27.3871Z" fill="#615EFF"/>
</svg>
