<?xml version="1.0" encoding="UTF-8"?>
<!-- Uploaded to: SVG Repo, www.svgrepo.com, Generator: SVG Repo Mixer Tools -->
<svg width="800px" height="800px" viewBox="0 0 256 256" version="1.1" xmlns="http://www.w3.org/2000/svg" xmlns:xlink="http://www.w3.org/1999/xlink" preserveAspectRatio="xMidYMid">
    <g>
        <path d="M115.665455,146.618182 C117.76,126.603636 130.327273,110.312727 144.989091,110.312727 C159.650909,110.312727 167.563636,126.603636 165.469091,146.618182 C163.374545,166.632727 151.272727,183.156364 137.541818,183.156364 C123.810909,183.156364 112.64,170.589091 115.665455,146.618182 M128,237.381818 C95.4203166,237.428273 64.5231317,222.918545 43.7527273,197.818182 C61.9054545,203.636364 82.1527273,198.516364 97.9781818,182.923636 C99.6494284,181.247143 101.204543,179.458761 102.632727,177.570909 C109.847273,193.163636 123.810909,201.076364 137.774545,201.076364 C161.512727,201.076364 181.527273,176.64 183.854545,146.385455 C186.181818,116.130909 169.192727,92.16 146.618182,92.16 C138.426818,92.046441 130.366511,94.2227238 123.345455,98.4436364 L130.327273,57.7163636 C131.023255,54.4563454 130.257956,51.0550185 128.232727,48.4072727 C126.138182,45.1490909 124.276364,43.7527273 121.483636,43.7527273 L88.9018182,43.7527273 C86.9755948,43.8531012 85.4024904,45.3278866 85.1781818,47.2436364 C84.3124445,51.0792109 83.6905928,54.9657841 83.3163636,58.88 C83.0836364,61.44 84.9454545,62.3709091 87.04,62.3709091 L110.778182,62.3709091 C107.054545,85.6436364 99.6072727,130.792727 97.5127273,142.196364 C95.3170885,152.990461 90.066367,162.926442 82.3854545,170.821818 C69.3527273,183.854545 45.3818182,186.88 31.1854545,172.683636 C26.2981818,167.563636 18.6181818,154.996364 18.6181818,128 C18.6181818,67.5900899 67.5900899,18.6181818 128,18.6181818 C188.40991,18.6181818 237.381818,67.5900899 237.381818,128 C237.381818,188.40991 188.40991,237.381818 128,237.381818 M128,0 C57.307552,-4.32866401e-15 8.65732801e-15,57.307552 0,128 C-8.65732801e-15,198.692448 57.307552,256 128,256 C198.692448,256 256,198.692448 256,128 C256,94.0522893 242.514324,61.4949884 218.509668,37.490332 C194.505012,13.4856756 161.947711,2.07869776e-15 128,0" fill="#212124" fill-rule="nonzero">
</path>
    </g>
</svg>