<svg width="64" height="64" viewBox="0 0 64 64" fill="none" xmlns="http://www.w3.org/2000/svg">
<path d="M36.595 32.0178H39.95C40.0826 32.0178 40.2098 31.9642 40.3036 31.8688C40.3973 31.7733 40.45 31.6439 40.45 31.509C40.4498 31.4392 40.4362 31.3701 40.41 31.3055L34.64 15.3256C34.6044 15.2316 34.5421 15.1504 34.4611 15.0925C34.3801 15.0345 34.284 15.0023 34.185 15H30.82C30.6874 15 30.5602 15.0536 30.4665 15.149C30.3727 15.2444 30.32 15.3738 30.32 15.5088C30.3201 15.5677 30.3302 15.6263 30.35 15.6817L36.125 31.7023C36.1631 31.7969 36.2284 31.8775 36.3122 31.9338C36.3961 31.99 36.4946 32.0193 36.595 32.0178Z" fill="#0073FF"/>
<path d="M36 48.9999H39.355C39.4876 48.9999 39.6148 48.9463 39.7086 48.8509C39.8023 48.7555 39.855 48.6261 39.855 48.4912C39.8549 48.4322 39.8448 48.3736 39.825 48.3182L27.93 15.3358C27.894 15.241 27.831 15.1593 27.7491 15.1012C27.6671 15.0432 27.5699 15.0115 27.47 15.0102H24.12C23.9874 15.0102 23.8602 15.0638 23.7664 15.1592C23.6727 15.2546 23.62 15.384 23.62 15.5189C23.6201 15.5779 23.6302 15.6364 23.65 15.6919L35.545 48.6794C35.5814 48.7725 35.644 48.8526 35.7249 48.9096C35.8059 48.9666 35.9016 48.998 36 48.9999Z" fill="#0073FF"/>
<path d="M29.39 48.9999H32.74C32.866 49.0004 32.9874 48.9524 33.0801 48.8656C33.1728 48.7788 33.2299 48.6597 33.24 48.5319C33.2398 48.4646 33.2297 48.3977 33.21 48.3335L27.42 32.3383C27.3844 32.2443 27.3221 32.1631 27.2411 32.1052C27.1601 32.0472 27.064 32.015 26.965 32.0127H23.595C23.4677 32.0205 23.3481 32.0775 23.2607 32.1721C23.1733 32.2666 23.1248 32.3916 23.125 32.5214C23.1248 32.5771 23.135 32.6324 23.155 32.6842L28.92 48.6845C28.9582 48.779 29.0234 48.8597 29.1072 48.9159C29.191 48.9722 29.2896 49.0015 29.39 48.9999Z" fill="#0073FF"/>
<path d="M37 15.697L39.705 23.1807C39.7406 23.2748 39.8029 23.3559 39.8839 23.4139C39.9649 23.4718 40.061 23.504 40.16 23.5063H43.5C43.6326 23.5063 43.7598 23.4527 43.8535 23.3573C43.9473 23.2619 44 23.1325 44 22.9976C43.9999 22.9386 43.9898 22.8801 43.97 22.8246L41.265 15.3358C41.2294 15.2417 41.1671 15.1606 41.0861 15.1026C41.0051 15.0447 40.909 15.0125 40.81 15.0102H37.455C37.3224 15.0102 37.1952 15.0638 37.1014 15.1592C37.0077 15.2546 36.955 15.384 36.955 15.5189C36.9592 15.5806 36.9745 15.6409 37 15.697Z" fill="#0073FF"/>
<path d="M23.205 48.9999H26.555C26.6876 48.9999 26.8148 48.9463 26.9085 48.8509C27.0023 48.7555 27.055 48.6261 27.055 48.4912C27.0549 48.4322 27.0448 48.3736 27.025 48.3182L24.305 40.8141C24.269 40.7193 24.206 40.6376 24.1241 40.5796C24.0421 40.5216 23.9449 40.4898 23.845 40.4885H20.5C20.3674 40.4885 20.2402 40.5421 20.1465 40.6375C20.0527 40.7329 20 40.8623 20 40.9973C20.0002 41.0579 20.0103 41.1181 20.03 41.1753L22.735 48.6794C22.7723 48.7749 22.8373 48.8566 22.9212 48.9138C23.0051 48.971 23.104 49.0011 23.205 48.9999Z" fill="#0073FF"/>
</svg>
