<svg width="64" height="64" viewBox="0 0 64 64" fill="none" xmlns="http://www.w3.org/2000/svg">
<path d="M43.5004 40.3882L36.7287 36.486C35.7774 35.9396 34.5609 36.2646 34.0102 37.2135C33.7969 37.5873 33.7133 37.9986 33.7537 38.3983V46.0244C33.7537 47.1143 34.6416 48 35.737 48C36.8296 48 37.7175 47.1143 37.7175 46.0244V41.6391L41.5112 43.8246C42.4626 44.3738 43.682 44.046 44.2297 43.0971C44.7803 42.1481 44.4546 40.9346 43.5004 40.3882Z" fill="#29B5E8"/>
<path d="M26.6591 32.0259C26.6707 31.3214 26.2988 30.6657 25.6876 30.312L18.916 26.4127C18.6219 26.243 18.2847 26.1538 17.9474 26.1538C17.2526 26.1538 16.6069 26.5248 16.2609 27.1229C15.7247 28.0489 16.0447 29.2365 16.973 29.7714L20.8763 32.0173L16.973 34.266C16.5233 34.5248 16.2004 34.9418 16.0678 35.4421C15.9323 35.9425 16.0015 36.4659 16.2609 36.9144C16.6069 37.5126 17.2526 37.8835 17.9445 37.8835C18.2847 37.8835 18.6219 37.7944 18.916 37.6247L25.6876 33.7254C26.293 33.3745 26.6649 32.7247 26.6591 32.0259Z" fill="#29B5E8"/>
<path d="M20.4525 23.6492L27.2242 27.5485C28.0141 28.0058 28.9884 27.8562 29.6111 27.2495C30.0061 26.8871 30.2511 26.3695 30.2511 25.7944V17.9784C30.2511 16.8857 29.3632 16 28.2706 16C27.1752 16 26.2873 16.8857 26.2873 17.9784V22.427L22.4416 20.2128C21.4903 19.6636 20.2738 19.9885 19.7232 20.9375C19.1726 21.8864 19.5012 23.0999 20.4525 23.6492Z" fill="#29B5E8"/>
<path d="M35.6794 32.3422C35.6794 32.4917 35.5929 32.6988 35.4862 32.8081L32.8024 35.4853C32.6957 35.5917 32.4853 35.6779 32.3353 35.6779H31.6521C31.5022 35.6779 31.2918 35.5917 31.1851 35.4853L28.4984 32.8081C28.3917 32.6988 28.3052 32.4917 28.3052 32.3422V31.6607C28.3052 31.5083 28.3917 31.3012 28.4984 31.1948L31.1851 28.5147C31.2918 28.4083 31.5022 28.3221 31.6521 28.3221H32.3353C32.4853 28.3221 32.6957 28.4083 32.8024 28.5147L35.4862 31.1948C35.5929 31.3012 35.6794 31.5083 35.6794 31.6607V32.3422ZM33.2838 32.0144V31.9856C33.2838 31.8763 33.2204 31.7239 33.1425 31.6434L32.3498 30.8555C32.2719 30.775 32.1191 30.7117 32.0067 30.7117H31.9779C31.8683 30.7117 31.7155 30.775 31.6348 30.8555L30.8449 31.6434C30.7671 31.7211 30.7037 31.8735 30.7037 31.9856V32.0144C30.7037 32.1265 30.7671 32.2789 30.8449 32.3566L31.6348 33.1474C31.7155 33.225 31.8683 33.2883 31.9779 33.2883H32.0067C32.1191 33.2883 32.2719 33.225 32.3498 33.1474L33.1425 32.3566C33.2204 32.2789 33.2838 32.1265 33.2838 32.0144Z" fill="#29B5E8"/>
<path d="M36.7287 27.5485L43.5004 23.6492C44.4517 23.1028 44.7803 21.8864 44.2297 20.9375C43.6791 19.9885 42.4626 19.6636 41.5112 20.2128L37.7175 22.3983V17.9784C37.7175 16.8857 36.8296 16 35.737 16C34.6416 16 33.7537 16.8857 33.7537 17.9784V25.6391C33.7162 26.0359 33.794 26.45 34.0102 26.8239C34.5609 27.7728 35.7774 28.0978 36.7287 27.5485Z" fill="#29B5E8"/>
<path d="M28.582 36.2559C28.1322 36.1697 27.6508 36.2416 27.2242 36.486L20.4525 40.3882C19.5012 40.9346 19.1726 42.1481 19.7232 43.0971C20.2738 44.0489 21.4903 44.3738 22.4416 43.8246L26.2873 41.6104V46.0244C26.2873 47.1143 27.1752 48 28.2706 48C29.3632 48 30.2511 47.1143 30.2511 46.0244V38.2085C30.2511 37.2221 29.5275 36.4055 28.582 36.2559Z" fill="#29B5E8"/>
<path d="M47.7323 27.0999C47.1846 26.1481 45.9651 25.8231 45.0138 26.3724L38.2422 30.2717C37.5935 30.6456 37.2361 31.33 37.2476 32.0259C37.2418 32.7189 37.5993 33.3947 38.2422 33.7628L45.0138 37.665C45.9651 38.2114 47.1817 37.8864 47.7323 36.9375C48.2829 35.9885 47.9543 34.775 47.0029 34.2257L43.1688 32.0173L47.0029 29.8088C47.9571 29.2624 48.2829 28.0489 47.7323 27.0999Z" fill="#29B5E8"/>
</svg>
