<svg width="24" height="24" viewBox="0 0 24 24" fill="none" xmlns="http://www.w3.org/2000/svg">
<path fill-rule="evenodd" clip-rule="evenodd" d="M12.0001 2.39999C6.69884 2.39999 2.40002 6.80664 2.40002 12.243C2.40002 16.5919 5.15074 20.2816 8.96515 21.5831C9.44495 21.6742 9.62108 21.3696 9.62108 21.1096C9.62108 20.8749 9.61219 20.0995 9.60802 19.277C6.9373 19.8724 6.37371 18.1156 6.37371 18.1156C5.93702 16.9779 5.30781 16.6754 5.30781 16.6754C4.43679 16.0645 5.37346 16.077 5.37346 16.077C6.33748 16.1463 6.84507 17.0913 6.84507 17.0913C7.70127 18.5962 9.0909 18.1611 9.63868 17.9096C9.72489 17.2736 9.97366 16.839 10.2482 16.5934C8.11593 16.3445 5.87439 15.5005 5.87439 11.7289C5.87439 10.6542 6.2494 9.77612 6.86351 9.08681C6.76384 8.83874 6.43523 7.83775 6.9565 6.48195C6.9565 6.48195 7.76265 6.21741 9.59721 7.4909C10.363 7.27283 11.1843 7.16341 12.0001 7.15973C12.816 7.16341 13.6378 7.27283 14.405 7.4909C16.2374 6.21741 17.0425 6.48195 17.0425 6.48195C17.565 7.83775 17.2362 8.83874 17.1365 9.08681C17.7521 9.77612 18.1246 10.6542 18.1246 11.7289C18.1246 15.5094 15.8787 16.3419 13.741 16.5856C14.0854 16.891 14.3922 17.4901 14.3922 18.4084C14.3922 19.7252 14.381 20.7852 14.381 21.1096C14.381 21.3715 14.5538 21.6784 15.0405 21.5818C18.8528 20.2788 21.6 16.5904 21.6 12.243C21.6 6.80664 17.3018 2.39999 12.0001 2.39999Z" fill="#030615"/>
<path fill-rule="evenodd" clip-rule="evenodd" d="M3.76227 12.5924C3.74796 12.6254 3.69715 12.6351 3.65087 12.6125C3.60373 12.591 3.57725 12.5462 3.59253 12.5133C3.60652 12.4794 3.65744 12.4701 3.70447 12.4926C3.75173 12.5143 3.77863 12.5595 3.76227 12.5924Z" fill="#030615"/>
<path fill-rule="evenodd" clip-rule="evenodd" d="M4.02168 12.8908C3.99066 12.92 3.93006 12.9064 3.88895 12.8603C3.84643 12.8141 3.83846 12.7525 3.86989 12.7228C3.90187 12.6936 3.96063 12.7073 4.00326 12.7534C4.04578 12.8 4.05408 12.8612 4.02168 12.8908Z" fill="#030615"/>
<path fill-rule="evenodd" clip-rule="evenodd" d="M4.28001 13.2714C4.24018 13.2995 4.17505 13.2731 4.13479 13.2144C4.09498 13.1556 4.09498 13.0851 4.13566 13.0568C4.17603 13.0286 4.24018 13.054 4.28099 13.1123C4.32068 13.172 4.32068 13.2426 4.28001 13.2714Z" fill="#030615"/>
</svg>
