<svg width="24" height="24" viewBox="0 0 24 24" fill="none" xmlns="http://www.w3.org/2000/svg">
<path fill-rule="evenodd" clip-rule="evenodd" d="M9.43961 2.39999C8.37826 2.40078 7.51929 3.26037 7.52008 4.3196C7.51929 5.37883 8.37904 6.23843 9.44039 6.23921H11.3607V4.32039C11.3615 3.26116 10.5017 2.40156 9.43961 2.39999C9.44039 2.39999 9.44039 2.39999 9.43961 2.39999V2.39999ZM9.43961 7.51999H4.32034C3.25899 7.52078 2.39924 8.38037 2.40003 9.4396C2.39846 10.4988 3.25821 11.3584 4.31956 11.36H9.43961C10.501 11.3592 11.3607 10.4996 11.3599 9.44038C11.3607 8.38037 10.501 7.52078 9.43961 7.51999Z" fill="#030615"/>
<path fill-rule="evenodd" clip-rule="evenodd" d="M21.6 9.4396C21.6008 8.38037 20.741 7.52078 19.6797 7.51999C18.6183 7.52078 17.7586 8.38037 17.7593 9.4396V11.36H19.6797C20.741 11.3592 21.6008 10.4996 21.6 9.4396ZM16.4799 9.4396V4.3196C16.4807 3.26116 15.6217 2.40156 14.5604 2.39999C13.499 2.40078 12.6393 3.26037 12.6401 4.3196V9.4396C12.6385 10.4988 13.4983 11.3584 14.5596 11.36C15.621 11.3592 16.4807 10.4996 16.4799 9.4396Z" fill="#030615"/>
<path fill-rule="evenodd" clip-rule="evenodd" d="M14.5601 21.6C15.6215 21.5993 16.4812 20.7397 16.4805 19.6804C16.4812 18.6212 15.6215 17.7616 14.5601 17.7608H12.6398V19.6804C12.639 20.7389 13.4988 21.5985 14.5601 21.6ZM14.5601 16.4793H19.6802C20.7415 16.4785 21.6013 15.6189 21.6005 14.5596C21.6021 13.5004 20.7423 12.6408 19.681 12.6393H14.5609C13.4996 12.64 12.6398 13.4996 12.6406 14.5589C12.6398 15.6189 13.4988 16.4785 14.5601 16.4793Z" fill="#030615"/>
<path fill-rule="evenodd" clip-rule="evenodd" d="M2.40002 14.5596C2.39924 15.6188 3.25899 16.4784 4.32034 16.4792C5.38169 16.4784 6.24144 15.6188 6.24065 14.5596V12.64H4.32034C3.25899 12.6407 2.39924 13.5003 2.40002 14.5596ZM7.52008 14.5596V19.6796C7.51851 20.7388 8.37826 21.5984 9.43961 21.6C10.501 21.5992 11.3607 20.7396 11.3599 19.6803V14.5611C11.3615 13.5019 10.5017 12.6423 9.44039 12.6407C8.37826 12.6407 7.51929 13.5003 7.52008 14.5596C7.52008 14.5603 7.52008 14.5596 7.52008 14.5596Z" fill="#030615"/>
</svg>
