<svg width="24" height="24" viewBox="0 0 24 24" fill="none" xmlns="http://www.w3.org/2000/svg">
<path fill-rule="evenodd" clip-rule="evenodd" d="M19.4804 5.20666C20.3061 5.42849 20.9592 6.08163 21.181 6.9073C21.5877 8.41077 21.6 11.5286 21.6 11.5286C21.6 11.5286 21.6 14.6588 21.1933 16.1499C20.9715 16.9756 20.3184 17.6287 19.4927 17.8506C18.0016 18.2572 12 18.2572 12 18.2572C12 18.2572 5.99848 18.2572 4.50734 17.8506C3.68167 17.6287 3.02852 16.9756 2.8067 16.1499C2.40002 14.6465 2.40002 11.5286 2.40002 11.5286C2.40002 11.5286 2.40002 8.41077 2.79438 6.91963C3.0162 6.09395 3.66934 5.44081 4.49502 5.21899C5.98616 4.81231 11.9877 4.79999 11.9877 4.79999C11.9877 4.79999 17.9892 4.79999 19.4804 5.20666ZM15.0563 11.5286L10.0776 14.4123V8.64491L15.0563 11.5286Z" fill="#030615"/>
</svg>
