<svg width="256" height="256" viewBox="0 0 256 256" fill="none" xmlns="http://www.w3.org/2000/svg">
  <rect width="256" height="256" rx="36" fill="#0B4B8F"/>
  <path d="M56 176L94 80H122L160 176H132L125 155H91L84 176H56ZM99 132H117L108 104L99 132Z" fill="white"/>
  <path d="M168 80H206C224 80 236 91 236 108C236 119 231 127 222 131C233 135 240 144 240 157C240 175 227 188 207 188H168V80ZM196 123C203 123 208 119 208 112C208 105 203 101 196 101H194V123H196ZM200 167C208 167 213 162 213 154C213 146 208 142 200 142H194V167H200Z" fill="white"/>
</svg>
