<svg id="Layer_1" data-name="Layer 1" xmlns="http://www.w3.org/2000/svg" viewBox="0 0 123.29 38.4"><defs><style>.cls-1{fill:#2026d2;}.cls-2{fill:#62e1fc;}</style></defs><title>Logos</title><path class="cls-1" d="M33.72,13.13V34.51H27.44v-2a7.77,7.77,0,0,1-6.24,2.61c-5.48,0-10-4.92-10-11.29s4.52-11.29,10-11.29a7.78,7.78,0,0,1,6.24,2.61v-2ZM27.44,23.82a4.82,4.82,0,0,0-5-5.2,4.82,4.82,0,0,0-5,5.2,4.84,4.84,0,0,0,5,5.22C25.34,29,27.44,27,27.44,23.82Z"/><path class="cls-1" d="M46.27,19.29v7.57c0,1.84,1.55,2,4.31,1.84v5.81C42.38,35.39,40,32.85,40,26.86V19.29H36.64V13.13H40V9.07l6.28-1.93v6h4.31v6.16Z"/><path class="cls-1" d="M54.14,3.29h6.28V34.52H54.14Z"/><path class="cls-1" d="M86.5,13.13V34.51H80.23v-2A7.76,7.76,0,0,1,74,35.11c-5.49,0-10-4.92-10-11.29s4.52-11.29,10-11.29a7.76,7.76,0,0,1,6.23,2.61v-2ZM80.23,23.82a5,5,0,1,0-10,0c0,3.21,2.09,5.22,5,5.22S80.23,27,80.23,23.82Z"/><path class="cls-1" d="M111.2,21.39V34.53h-6.28V22.32c0-2.62-1.64-3.89-3.65-3.89-2.3,0-3.89,1.37-3.89,4.41V34.52H91.1V13.13h6.28v2c1.14-1.58,3.23-2.6,6-2.6C107.59,12.53,111.2,15.61,111.2,21.39Z"/><path class="cls-2" d="M22.46,26.45a2.63,2.63,0,1,0-2.58-2.63A2.6,2.6,0,0,0,22.46,26.45Z"/><path class="cls-2" d="M75.24,26.45a2.63,2.63,0,1,0-2.57-2.63A2.6,2.6,0,0,0,75.24,26.45Z"/></svg>