<svg width="64" height="64" viewBox="0 0 64 64" fill="none" xmlns="http://www.w3.org/2000/svg">
<path d="M26.3346 16H36.3956L25.9517 46.91C25.8443 47.2277 25.6399 47.5037 25.3672 47.6993C25.0945 47.8948 24.7673 48 24.4316 48H16.6019C16.3476 48 16.0969 47.9395 15.8706 47.8236C15.6443 47.7076 15.4489 47.5395 15.3006 47.3332C15.1523 47.1268 15.0553 46.8881 15.0177 46.6369C14.98 46.3857 15.0028 46.1291 15.0841 45.8884L24.8145 17.0901C24.9218 16.7723 25.1262 16.4963 25.3989 16.3007C25.6716 16.1052 25.9989 16 26.3346 16Z" fill="url(#paint0_linear_838_19176)"/>
<path d="M40.9545 36.7323H25.0003C24.8521 36.7323 24.7072 36.7769 24.5846 36.8602C24.462 36.9435 24.3674 37.0618 24.313 37.1996C24.2587 37.3374 24.2471 37.4884 24.2798 37.6328C24.3125 37.7773 24.388 37.9086 24.4964 38.0096L34.7483 47.567C35.0467 47.8452 35.4397 48 35.8479 48H44.8814L40.9545 36.7323Z" fill="#0078D4"/>
<path d="M26.3346 16C25.9953 15.9987 25.6644 16.1059 25.3904 16.3057C25.1163 16.5056 24.9134 16.7877 24.8113 17.111L15.0962 45.8623C15.0094 46.1039 14.9822 46.3628 15.0167 46.6171C15.0513 46.8714 15.1467 47.1136 15.2949 47.3233C15.443 47.533 15.6395 47.704 15.8678 47.8218C16.0961 47.9396 16.3494 48.0007 16.6064 48H24.6382C24.9375 47.9466 25.2171 47.8148 25.4487 47.6181C25.6802 47.4214 25.8553 47.1668 25.9561 46.8803L27.893 41.1776L34.8134 47.6246C35.1034 47.8643 35.4672 47.9969 35.8435 48H44.8436L40.8961 36.7323L29.389 36.7349L36.4322 16L26.3346 16Z" fill="url(#paint1_linear_838_19176)"/>
<path d="M39.1849 17.0883C39.0777 16.7711 38.8737 16.4955 38.6014 16.3003C38.3292 16.105 38.0025 16 37.6673 16H26.4546C26.7898 16 27.1165 16.105 27.3888 16.3003C27.6611 16.4955 27.8652 16.7711 27.9724 17.0883L37.7033 45.8883C37.7847 46.129 37.8074 46.3856 37.7698 46.6368C37.7321 46.888 37.6351 47.1267 37.4868 47.3331C37.3385 47.5394 37.1431 47.7076 36.9169 47.8235C36.6906 47.9395 36.4399 48 36.1856 48H47.3983C47.6526 48 47.9032 47.9395 48.1295 47.8235C48.3558 47.7075 48.5511 47.5394 48.6994 47.333C48.8477 47.1266 48.9447 46.888 48.9824 46.6368C49.02 46.3855 48.9972 46.129 48.9159 45.8883L39.1849 17.0883Z" fill="url(#paint2_linear_838_19176)"/>
<defs>
<linearGradient id="paint0_linear_838_19176" x1="38.8393" y1="18.3712" x2="31.8441" y2="51.2483" gradientUnits="userSpaceOnUse">
<stop stop-color="#114A8B"/>
<stop offset="1" stop-color="#0669BC"/>
</linearGradient>
<linearGradient id="paint1_linear_838_19176" x1="35.8085" y1="32.74" x2="33.1371" y2="33.7702" gradientUnits="userSpaceOnUse">
<stop stop-opacity="0.3"/>
<stop offset="0.071" stop-opacity="0.2"/>
<stop offset="0.321" stop-opacity="0.1"/>
<stop offset="0.623" stop-opacity="0.05"/>
<stop offset="1" stop-opacity="0"/>
</linearGradient>
<linearGradient id="paint2_linear_838_19176" x1="31.9363" y1="17.4718" x2="43.3827" y2="48.0024" gradientUnits="userSpaceOnUse">
<stop stop-color="#3CCBF4"/>
<stop offset="1" stop-color="#2892DF"/>
</linearGradient>
</defs>
</svg>
