<svg width="64" height="64" viewBox="0 0 64 64" fill="none" xmlns="http://www.w3.org/2000/svg">
<path d="M42.6599 38H9.60539C11.6802 41.5868 15.5583 44 20 44H53H53.0546L53.0357 44L53.0182 43.9999C53.0121 44 53.0061 44 53 44C52.9818 44 52.9637 43.9998 52.9455 43.9995C48.5494 43.9604 44.7178 41.5574 42.6599 38Z" fill="#A8CB54"/>
<path d="M53.0182 20.0001C53.0303 20 53.0424 20 53.0546 20C54.6862 20.0291 56 21.3614 56 23C56 24.6386 54.6862 25.9704 53.0546 25.9995C49.7408 25.9995 47.0546 28.6863 47.0546 32C47.0546 35.3137 49.7408 38 53.0546 38C54.6862 38.0291 56 39.3614 56 41C56 42.6386 54.6862 43.9709 53.0546 44C53.0424 44 53.0303 44 53.0182 43.9999C53.0121 44 53.0061 44 53 44C52.9818 44 52.9637 43.9998 52.9455 43.9995C46.3683 43.941 41.0546 38.591 41.0546 32C41.0546 25.409 46.3683 20.059 52.9455 20.0005C52.9637 20.0002 52.9818 20 53 20C53.0061 20 53.0121 20 53.0182 20.0001Z" fill="#DCF3A3"/>
<path d="M53 20H53.0546C53.0424 20 53.0303 20 53.0182 20.0001C53.0121 20 53.0061 20 53 20Z" fill="#B5DD64"/>
<path d="M42.6599 26H9.60539C11.6802 22.4132 15.5583 20 20 20H53C52.9818 20 52.9637 20.0002 52.9455 20.0005C48.5494 20.0396 44.7178 22.4426 42.6599 26Z" fill="#B5DD64"/>
<path d="M41.0546 32H8C8 34.1857 8.58437 36.235 9.60539 38H42.6599C41.6389 36.235 41.0546 34.1857 41.0546 32Z" fill="#B5DD64"/>
<path d="M42.6599 26H9.60539C8.58437 27.765 8 29.8143 8 32H41.0546C41.0546 29.8143 41.6389 27.765 42.6599 26Z" fill="#A8CB54"/>
</svg>
