<svg width="381" height="112" viewBox="0 0 381 112" fill="none" xmlns="http://www.w3.org/2000/svg">
<path fill-rule="evenodd" clip-rule="evenodd" d="M55.4974 21.1957C60.7592 20.1491 66.1913 20.3269 71.3734 21.7154C73.2755 22.2251 75.2306 21.0963 75.7402 19.1942C76.2499 17.2921 75.1211 15.337 73.219 14.8273C66.9804 13.1557 60.4408 12.9416 54.1062 14.2017C47.7715 15.4617 41.8117 18.1621 36.6876 22.0939C31.5636 26.0257 27.4127 31.0836 24.5561 36.8763C21.6994 42.6689 20.2137 49.0411 20.2137 55.4998C20.2137 61.9585 21.6994 68.3307 24.5561 74.1234C24.7464 74.5093 24.9424 74.892 25.1441 75.2712L12.8633 82.9468C11.6422 82.2286 10.2193 81.8167 8.70014 81.8167C4.15812 81.8167 0.476074 85.4987 0.476074 90.0408C0.476074 94.5828 4.15812 98.2648 8.70014 98.2648C13.2422 98.2648 16.9242 94.5828 16.9242 90.0408C16.9242 89.6432 16.896 89.2522 16.8415 88.8697L29.0141 81.2618C31.2251 84.1203 33.8021 86.6916 36.6876 88.9057C41.8117 92.8376 47.7715 95.5379 54.1062 96.798C60.4408 98.058 66.9804 97.8439 73.219 96.1723C75.1211 95.6626 76.2499 93.7075 75.7402 91.8054C75.2306 89.9033 73.2755 88.7745 71.3734 89.2842C66.1913 90.6728 60.7592 90.8506 55.4974 89.8039C50.2355 88.7573 45.285 86.5142 41.0287 83.2483C36.7725 79.9823 33.3246 75.781 30.9517 70.9694C28.5789 66.1577 27.3447 60.8647 27.3447 55.4998C27.3447 50.1349 28.5789 44.8419 30.9517 40.0302C33.3246 35.2186 36.7725 31.0173 41.0287 27.7514C45.285 24.4854 50.2355 22.2423 55.4974 21.1957Z" fill="url(#paint0_linear_5_4491)"/>
<path d="M65.4104 33.1563C71.1141 33.8465 76.3563 36.5514 80.1655 40.7513C83.9735 44.9497 86.0916 50.3562 86.14 55.9616C86.1884 61.567 84.164 67.0075 80.4297 71.2683C76.6941 75.5307 71.5 78.3227 65.8093 79.108" stroke="url(#paint1_linear_5_4491)" stroke-width="7.13106" stroke-linecap="round" stroke-linejoin="round"/>
<path fill-rule="evenodd" clip-rule="evenodd" d="M62.3208 0.891602C60.3517 0.891602 58.7553 2.48794 58.7553 4.45713C58.7553 6.42632 60.3517 8.02267 62.3208 8.02266C70.2366 8.02266 78.0303 9.97486 85.0114 13.7063C91.9925 17.4378 97.9456 22.8334 102.343 29.4151C106.741 35.9969 109.448 43.5616 110.224 51.4393C111 59.317 109.821 67.2644 106.792 74.5777C103.762 81.8909 98.9762 88.3442 92.8572 93.366C86.7382 98.3877 79.4752 101.823 71.7115 103.367C63.9478 104.911 55.923 104.517 48.3481 102.219C40.7732 99.9215 33.8818 95.791 28.2845 90.1937C26.8921 88.8013 24.6345 88.8013 23.2421 90.1937C21.8496 91.5861 21.8496 93.8437 23.2421 95.2361C29.6686 101.663 37.5809 106.405 46.2781 109.043C54.9752 111.682 64.1888 112.134 73.1027 110.361C82.0165 108.588 90.3556 104.644 97.3811 98.8783C104.407 93.1127 109.902 85.7033 113.38 77.3066C116.858 68.9099 118.211 59.7851 117.32 50.7403C116.43 41.6956 113.322 33.0102 108.273 25.4533C108.142 25.2571 108.009 25.0618 107.876 24.8674L113.243 21.5131C114.448 22.2067 115.847 22.6034 117.337 22.6034C121.88 22.6034 125.562 18.9213 125.562 14.3793C125.562 9.83728 121.88 6.15524 117.337 6.15524C112.795 6.15524 109.113 9.83728 109.113 14.3793C109.113 14.8031 109.145 15.2194 109.207 15.6259L103.439 19.2308C99.1561 14.4613 94.0618 10.4581 88.3729 7.41731C80.3576 3.13302 71.4094 0.891602 62.3208 0.891602Z" fill="url(#paint2_linear_5_4491)"/>
<path d="M366.692 76.9546C363.687 76.9546 361.167 76.2467 359.132 74.831C357.097 73.4153 355.566 71.4899 354.539 69.0549C353.512 66.601 352.999 63.8545 352.999 60.8154C352.999 57.7386 353.512 54.9827 354.539 52.5476C355.566 50.1126 357.069 48.1967 359.046 46.7998C361.043 45.3841 363.506 44.6762 366.435 44.6762C369.345 44.6762 371.865 45.3841 373.995 46.7998C376.144 48.1967 377.808 50.1126 378.987 52.5476C380.166 54.9638 380.756 57.7197 380.756 60.8154C380.756 63.8734 380.175 66.6199 379.015 69.0549C377.855 71.4899 376.22 73.4153 374.109 74.831C371.998 76.2467 369.525 76.9546 366.692 76.9546ZM351.829 76.1051V35.3325H358.761V54.6429H357.905V76.1051H351.829ZM365.636 70.8387C367.424 70.8387 368.898 70.3951 370.058 69.5079C371.218 68.6207 372.074 67.4221 372.625 65.912C373.196 64.383 373.481 62.6842 373.481 60.8154C373.481 58.9655 373.196 57.2856 372.625 55.7755C372.055 54.2465 371.17 53.0384 369.972 52.1512C368.774 51.2452 367.253 50.7921 365.408 50.7921C363.658 50.7921 362.232 51.2169 361.129 52.0663C360.026 52.8968 359.208 54.0672 358.676 55.5773C358.162 57.0685 357.905 58.8145 357.905 60.8154C357.905 62.7974 358.162 64.5435 358.676 66.0536C359.208 67.5637 360.035 68.7434 361.157 69.5929C362.299 70.4234 363.791 70.8387 365.636 70.8387Z" fill="#484C5C"/>
<path d="M329.302 76.9821C327.02 76.9821 325.137 76.6046 323.654 75.8495C322.17 75.0945 320.991 74.1318 320.116 72.9615C319.241 71.7911 318.595 70.5453 318.176 69.224C317.758 67.9026 317.482 66.6568 317.349 65.4865C317.235 64.2973 317.178 63.3346 317.178 62.5984V45.5249H324.139V60.2483C324.139 61.1922 324.205 62.2587 324.338 63.4479C324.471 64.6182 324.776 65.7508 325.251 66.8456C325.746 67.9215 326.468 68.8087 327.419 69.5071C328.389 70.2055 329.692 70.5548 331.327 70.5548C332.202 70.5548 333.068 70.4132 333.923 70.13C334.779 69.8469 335.549 69.3656 336.234 68.686C336.938 67.9876 337.499 67.0343 337.917 65.8263C338.336 64.6182 338.545 63.0892 338.545 61.2393L342.624 62.9665C342.624 65.5714 342.111 67.931 341.084 70.0451C340.076 72.1592 338.583 73.8487 336.605 75.1134C334.627 76.3592 332.193 76.9821 329.302 76.9821ZM339.372 76.1044V66.6191H338.545V45.5249H345.448V76.1044H339.372Z" fill="#484C5C"/>
<path d="M278.163 76.1051V35.3325H285.038V52.491H304.494V35.3325H311.34V76.1051H304.494V58.89H285.038V76.1051H278.163Z" fill="#484C5C"/>
<path d="M255.488 76.9534C253.263 76.9534 251.38 76.5381 249.84 75.7075C248.299 74.8581 247.13 73.735 246.331 72.3381C245.551 70.9413 245.161 69.4029 245.161 67.7229C245.161 66.2506 245.408 64.9292 245.903 63.7589C246.397 62.5697 247.158 61.5504 248.185 60.701C249.212 59.8326 250.543 59.1248 252.179 58.5774C253.415 58.181 254.86 57.8223 256.515 57.5014C258.188 57.1805 259.995 56.888 261.935 56.6237C263.894 56.3405 265.938 56.0385 268.068 55.7176L265.615 57.105C265.634 54.9909 265.159 53.4336 264.189 52.4332C263.219 51.4327 261.583 50.9325 259.282 50.9325C257.894 50.9325 256.553 51.2534 255.26 51.8952C253.966 52.537 253.063 53.6412 252.55 55.208L246.274 53.2543C247.034 50.6682 248.48 48.5919 250.61 47.0251C252.759 45.4584 255.65 44.675 259.282 44.675C262.021 44.675 264.426 45.1186 266.499 46.0058C268.591 46.893 270.141 48.3465 271.149 50.3662C271.701 51.4422 272.034 52.5464 272.148 53.679C272.262 54.7927 272.319 56.0102 272.319 57.3316V76.1039H266.3V69.4784L267.298 70.5543C265.91 72.7629 264.284 74.3862 262.42 75.4244C260.575 76.4437 258.265 76.9534 255.488 76.9534ZM256.857 71.517C258.417 71.517 259.748 71.2433 260.851 70.6959C261.954 70.1485 262.829 69.4784 263.476 68.6856C264.141 67.8928 264.588 67.1472 264.816 66.4488C265.178 65.5805 265.377 64.5895 265.415 63.4758C265.472 62.3432 265.501 61.4277 265.501 60.7293L267.612 61.3522C265.539 61.6731 263.761 61.9562 262.277 62.2016C260.794 62.447 259.52 62.683 258.455 62.9095C257.39 63.1171 256.448 63.3531 255.631 63.6173C254.832 63.9005 254.157 64.2308 253.605 64.6083C253.054 64.9859 252.626 65.42 252.321 65.9108C252.036 66.4016 251.894 66.9773 251.894 67.638C251.894 68.393 252.084 69.0631 252.464 69.6483C252.844 70.2146 253.396 70.6676 254.119 71.0074C254.86 71.3471 255.773 71.517 256.857 71.517Z" fill="#484C5C"/>
<path d="M241.833 76.1065C239.798 76.484 237.801 76.6445 235.842 76.5878C233.902 76.5501 232.162 76.2009 230.622 75.5402C229.081 74.8606 227.911 73.7941 227.113 72.3407C226.409 71.0193 226.038 69.6697 226 68.2917C225.962 66.9138 225.943 65.3565 225.943 63.6199V37.0327H232.79V63.2235C232.79 64.4504 232.799 65.5264 232.818 66.4513C232.856 67.3762 233.056 68.1313 233.417 68.7164C234.102 69.849 235.195 70.4814 236.698 70.6135C238.2 70.7456 239.912 70.6701 241.833 70.387V76.1065ZM220.352 50.8784V45.527H241.833V50.8784H220.352Z" fill="#484C5C"/>
<path d="M201.101 76.9534C198.876 76.9534 196.994 76.5381 195.453 75.7075C193.913 74.8581 192.743 73.735 191.944 72.3381C191.165 70.9413 190.775 69.4029 190.775 67.7229C190.775 66.2506 191.022 64.9292 191.516 63.7589C192.011 62.5697 192.772 61.5504 193.799 60.701C194.825 59.8326 196.157 59.1248 197.792 58.5774C199.028 58.181 200.474 57.8223 202.128 57.5014C203.802 57.1805 205.609 56.888 207.549 56.6237C209.507 56.3405 211.552 56.0385 213.682 55.7176L211.229 57.105C211.248 54.9909 210.772 53.4336 209.802 52.4332C208.832 51.4327 207.197 50.9325 204.896 50.9325C203.507 50.9325 202.166 51.2534 200.873 51.8952C199.58 52.537 198.677 53.6412 198.163 55.208L191.887 53.2543C192.648 50.6682 194.093 48.5919 196.223 47.0251C198.372 45.4584 201.263 44.675 204.896 44.675C207.634 44.675 210.04 45.1186 212.113 46.0058C214.205 46.893 215.755 48.3465 216.763 50.3662C217.314 51.4422 217.647 52.5464 217.761 53.679C217.875 54.7927 217.932 56.0102 217.932 57.3316V76.1039H211.913V69.4784L212.912 70.5543C211.523 72.7629 209.897 74.3862 208.034 75.4244C206.189 76.4437 203.878 76.9534 201.101 76.9534ZM202.471 71.517C204.03 71.517 205.361 71.2433 206.465 70.6959C207.568 70.1485 208.442 69.4784 209.089 68.6856C209.755 67.8928 210.202 67.1472 210.43 66.4488C210.791 65.5805 210.991 64.5895 211.029 63.4758C211.086 62.3432 211.114 61.4277 211.114 60.7293L213.225 61.3522C211.152 61.6731 209.374 61.9562 207.891 62.2016C206.407 62.447 205.133 62.683 204.068 62.9095C203.003 63.1171 202.062 63.3531 201.244 63.6173C200.445 63.9005 199.77 64.2308 199.219 64.6083C198.667 64.9859 198.239 65.42 197.935 65.9108C197.65 66.4016 197.507 66.9773 197.507 67.638C197.507 68.393 197.697 69.0631 198.078 69.6483C198.458 70.2146 199.009 70.6676 199.732 71.0074C200.474 71.3471 201.387 71.517 202.471 71.517Z" fill="#484C5C"/>
<path d="M154.121 76.1051V35.3325H167.215C167.557 35.3325 168.232 35.342 169.24 35.3608C170.267 35.3797 171.256 35.4458 172.207 35.559C175.459 35.9743 178.207 37.1258 180.451 39.0134C182.714 40.8821 184.426 43.27 185.586 46.1769C186.746 49.0838 187.326 52.2645 187.326 55.7188C187.326 59.1732 186.746 62.3538 185.586 65.2607C184.426 68.1677 182.714 70.565 180.451 72.4526C178.207 74.3213 175.459 75.4633 172.207 75.8786C171.275 75.9919 170.295 76.0579 169.268 76.0768C168.241 76.0957 167.557 76.1051 167.215 76.1051H154.121ZM161.11 69.6778H167.215C167.785 69.6778 168.508 69.6589 169.383 69.6212C170.276 69.5834 171.066 69.4985 171.75 69.3663C173.69 69.0077 175.269 68.1488 176.486 66.7897C177.703 65.4306 178.597 63.779 179.167 61.8347C179.757 59.8905 180.052 57.8518 180.052 55.7188C180.052 53.5103 179.757 51.4339 179.167 49.4897C178.578 47.5454 177.665 45.9126 176.429 44.5913C175.212 43.27 173.652 42.43 171.75 42.0713C171.066 41.9203 170.276 41.8354 169.383 41.8165C168.508 41.7787 167.785 41.7599 167.215 41.7599H161.11V69.6778Z" fill="#484C5C"/>
<defs>
<linearGradient id="paint0_linear_5_4491" x1="73.8994" y1="107.175" x2="26.492" y2="45.0524" gradientUnits="userSpaceOnUse">
<stop stop-color="#EFAB00"/>
<stop offset="1" stop-color="#EFB700"/>
</linearGradient>
<linearGradient id="paint1_linear_5_4491" x1="49.3103" y1="59.2072" x2="57.0058" y2="31.3047" gradientUnits="userSpaceOnUse">
<stop stop-color="#DD3163"/>
<stop offset="1" stop-color="#FF5663"/>
</linearGradient>
<linearGradient id="paint2_linear_5_4491" x1="26.4607" y1="92.9895" x2="57.9612" y2="82.5344" gradientUnits="userSpaceOnUse">
<stop offset="0.03" stop-color="#1890FF"/>
<stop offset="1" stop-color="#18B5FF"/>
</linearGradient>
</defs>
</svg>
