<svg width="64" height="64" viewBox="0 0 64 64" fill="none" xmlns="http://www.w3.org/2000/svg">
<path fill-rule="evenodd" clip-rule="evenodd" d="M42.8067 39.1396L39.9556 37.2743L37.5778 41.2162L34.813 40.4144L32.3777 44.103L32.5028 45.2638L45.7405 42.8433L44.9715 34.6341L42.8067 39.1396ZM30.4613 35.6019L32.5856 35.3117C32.9286 35.4644 33.1686 35.5231 33.581 35.6271C34.2232 35.7931 34.9651 35.9525 36.0653 35.4023C36.3205 35.2765 36.8545 34.7917 37.0691 34.5166L45.7709 32.9499L46.6581 43.6132L31.7507 46.2803L30.4613 35.6019ZM46.6243 31.759L45.7658 31.9217L44.1164 15L16 18.2357L19.4645 46.136L22.7549 45.6613C22.4929 45.2889 22.0823 44.8377 21.3843 44.2607C20.4143 43.4622 20.7573 42.1035 21.3302 41.2464C22.0857 39.7988 25.9845 37.957 25.7631 35.6422C25.6837 34.8001 25.5485 33.7048 24.7609 32.9533C24.7322 33.2653 24.7846 33.5655 24.7846 33.5655C24.7846 33.5655 24.4618 33.1563 24.2996 32.5977C24.139 32.383 24.0139 32.3159 23.8433 32.029C23.7216 32.3595 23.7385 32.7436 23.7385 32.7436C23.7385 32.7436 23.4748 32.123 23.4309 31.5996C23.2737 31.8345 23.2349 32.279 23.2349 32.279C23.2349 32.279 22.8918 31.301 22.9695 30.7743C22.8124 30.3164 22.3476 29.4073 22.4794 27.3407C23.3379 27.9378 25.2274 27.7953 25.9625 26.7184C26.2076 26.3611 26.3749 25.3882 25.8408 23.4709C25.4978 22.2414 24.6494 20.4096 24.3181 19.7135L24.2793 19.742C24.4533 20.3023 24.8133 21.4748 24.9519 22.0451C25.3693 23.7712 25.4809 24.3717 25.2848 25.1668C25.1175 25.8579 24.7187 26.3108 23.7047 26.8173C22.6907 27.3256 21.3454 26.0893 21.2593 26.0222C20.274 25.2439 19.5118 23.9725 19.4273 23.3552C19.3394 22.6792 19.8194 22.2732 20.0627 21.7214C19.7163 21.8203 19.3293 21.9948 19.3293 21.9948C19.3293 21.9948 19.7907 21.5201 20.3602 21.1108C20.5968 20.9565 20.7337 20.8575 20.9821 20.6529C20.6221 20.6478 20.3298 20.6562 20.3298 20.6562C20.3298 20.6562 20.9297 20.3342 21.5516 20.101C21.097 20.0809 20.661 20.0976 20.661 20.0976C20.661 20.0976 21.9995 19.5038 23.0557 19.0677C23.7824 18.7725 24.4922 18.8597 24.891 19.4317C25.4149 20.1815 25.9642 20.5891 27.1303 20.8424C27.8468 20.5271 28.0632 20.366 28.9622 20.1228C29.7532 19.2589 30.3751 19.1466 30.3751 19.1466C30.3751 19.1466 30.0675 19.4267 29.9847 19.8678C30.4342 19.5173 30.926 19.2237 30.926 19.2237C30.926 19.2237 30.735 19.4569 30.5576 19.8276L30.5982 19.888C31.122 19.576 31.7372 19.3311 31.7372 19.3311C31.7372 19.3311 31.5614 19.5525 31.3553 19.8376C31.7507 19.8343 32.5518 19.8544 32.861 19.8896C34.6964 19.9299 35.0766 17.9439 35.7814 17.6956C36.6635 17.3836 37.0573 17.194 38.5597 18.6584C39.8492 19.9165 40.8564 22.1659 40.3562 22.6708C39.937 23.0885 39.109 22.5081 38.193 21.3725C37.7079 20.772 37.3429 20.0624 37.1705 19.16C37.0252 18.3984 36.4624 17.9573 36.4624 17.9573C36.4624 17.9573 36.7886 18.6802 36.7886 19.3176C36.7886 19.6665 36.8325 20.9682 37.3953 21.6979C37.3395 21.8052 37.3142 22.2263 37.2516 22.3068C36.5976 21.5218 35.1915 20.9598 34.9634 20.7938C35.7391 21.4245 37.522 22.8738 38.2065 24.2626C38.8538 25.5761 38.4718 26.7804 38.7997 27.0924C38.8926 27.1813 40.1922 28.7883 40.4424 29.5968C40.8784 31.0041 40.4677 32.4836 39.8982 33.4012L38.3045 33.6477C38.0713 33.584 37.9141 33.5504 37.7046 33.4314C37.8195 33.2284 38.0493 32.7235 38.051 32.6195L37.9614 32.4635C37.4646 33.1613 36.6348 33.839 35.9436 34.2281C35.0394 34.7364 33.9984 34.6575 33.3207 34.4495C31.3958 33.8608 29.5757 32.5692 29.138 32.2303C29.138 32.2303 29.1245 32.5004 29.2073 32.5625C29.6923 33.1059 30.8043 34.0889 31.8792 34.7733L29.5892 35.0232L30.6725 43.3918C30.1926 43.4606 30.1182 43.4941 29.5926 43.5679C29.1295 41.9442 28.244 40.8824 27.2756 40.2651C26.4222 39.72 25.2443 39.5975 24.1153 39.8189L24.0427 39.9028C24.8268 39.8223 25.7529 39.9347 26.7027 40.5318C27.6356 41.1172 28.3876 42.6303 28.6648 43.5411C29.0197 44.7052 29.2647 45.9498 28.3099 47.27C27.6305 48.2076 25.6499 48.726 24.0477 47.6054C24.4753 48.2882 25.0533 48.8467 25.8307 48.9507C26.9866 49.1067 28.0834 48.9071 28.8372 48.1389C29.4811 47.4813 29.8241 46.1058 29.7329 44.6582L30.7519 44.5123L31.1204 47.1106L48 45.0927L46.6243 31.759ZM36.3543 24.7004C36.3069 24.8078 36.2326 24.8766 36.3441 25.2238L36.3509 25.2439L36.3678 25.2892L36.4134 25.3932C36.6145 25.7991 36.8342 26.1833 37.2009 26.3795C37.2956 26.3644 37.3953 26.3527 37.4967 26.3477C37.8415 26.3326 38.0595 26.3862 38.198 26.4617C38.2099 26.393 38.2133 26.294 38.2048 26.1464C38.1778 25.6314 38.3079 24.7558 37.3108 24.2945C36.9339 24.1217 36.4067 24.1737 36.2309 24.3918C36.263 24.3952 36.2917 24.4019 36.3137 24.4103C36.5824 24.5008 36.4033 24.5914 36.3543 24.7004ZM39.1495 29.5062C39.0194 29.4341 38.4076 29.4626 37.9783 29.5129C37.1604 29.6085 36.2765 29.8903 36.0822 30.0396C35.7307 30.3097 35.8895 30.781 36.1498 30.974C36.8799 31.5141 37.5187 31.8781 38.193 31.7892C38.607 31.7355 38.9721 31.0847 39.2306 30.4925C39.4098 30.0866 39.4098 29.6488 39.1495 29.5062ZM31.9045 25.3379C32.136 25.1198 30.7553 24.8346 29.6839 25.5593C28.8946 26.0944 28.8693 27.2417 29.6247 27.8909C29.7008 27.9546 29.7633 28.0016 29.8208 28.0385C30.0421 27.9345 30.294 27.8305 30.5829 27.7382C31.073 27.5806 31.4786 27.4984 31.8133 27.4564C31.9738 27.2786 32.1597 26.9666 32.1124 26.4013C32.0499 25.6314 31.4634 25.7539 31.9045 25.3379Z" fill="#632CA6"/>
</svg>
