<svg width="100" height="100" viewBox="0 0 100 100" fill="none" xmlns="http://www.w3.org/2000/svg">
<path d="M56.0254 24.6582C41.2598 19.2773 19.6582 9.44336 19.6582 9.44336C18.125 9.04297 17.9102 10.5273 17.9102 10.5273C17.4219 16.4941 21.1914 26.2012 23.1445 28.3789C25.0879 30.5566 54.3066 39.4824 54.3066 39.4824C54.3066 39.4824 31.8359 34.9512 26.416 33.3887C20.9863 31.8262 22.7148 35.127 22.7148 35.127C23.8281 41.1524 29.0527 47.9981 33.1836 48.6426C37.3047 49.2871 54.6777 49.0332 54.6777 49.0332C54.6777 49.0332 51.2109 49.4336 45.5762 50.1953C41.4063 50.7617 36.1035 51.416 34.7266 51.9336C31.4941 53.1543 37.0703 58.0469 37.0703 58.0469C45.3418 65.5469 49.7363 62.9785 49.7363 62.9785C52.9883 61.9336 55.7324 61.1719 58.0566 60.6152L55.1758 72.5684H63.4375L58.8867 90.625L78.9355 64.0723H68.4375L70.6152 60.293C70.6445 60.3418 70.6543 60.3711 70.6543 60.3711C70.6543 60.3711 78.1055 48.4473 80.957 42.3633L81.0156 42.2656H81.0059C81.4941 41.2109 81.8457 40.3418 81.9824 39.7461C83.6426 32.7832 70.8008 30.0391 56.0254 24.6582Z" fill="#4B94EE"/>
</svg>
