<svg width="64" height="64" viewBox="0 0 64 64" fill="none" xmlns="http://www.w3.org/2000/svg">
<path d="M47.3724 28.4097C47.1791 26.9983 46.3833 25.7885 44.9394 24.6794L44.1094 24.1305L43.5523 24.9483C42.8474 26.0013 42.4836 27.4688 42.5973 28.869C42.6541 29.3619 42.8133 30.2469 43.3249 31.0198C42.8133 31.2887 41.8014 31.6695 40.4485 31.6471H14.6401L14.5946 31.9384C14.3558 33.3498 14.3558 37.7411 17.255 41.1241C19.4607 43.6894 22.7578 45 27.0781 45C36.4237 45 43.3363 40.7656 46.5766 33.0586C47.8499 33.081 50.5899 33.0698 51.9997 30.4149C52.0339 30.3589 52.1248 30.1909 52.3636 29.698L52.5 29.4179L51.7041 28.8914C50.8514 28.3313 48.8845 28.1297 47.3724 28.4097ZM35.2868 19H31.3644V22.5174H35.2868V19ZM35.2868 23.2232H31.3644V26.7294H35.2868V23.2232ZM30.6481 23.2232H26.7257V26.7294H30.6481V23.2232ZM26.0094 23.2232H22.087V26.7294H26.0094V23.2232ZM21.3707 27.4352H17.4483V30.9526H21.3707V27.4352ZM26.0094 27.4352H22.087V30.9526H26.0094V27.4352ZM30.6481 27.4352H26.7257V30.9526H30.6481V27.4352ZM35.2868 27.4352H31.3644V30.9526H35.2868V27.4352ZM39.9255 27.4352H36.0031V30.9526H39.9255V27.4352Z" fill="#2496ED"/>
</svg>
