<svg width="111" height="111" viewBox="0 0 111 111" fill="none" xmlns="http://www.w3.org/2000/svg">
<g clip-path="url(#clip0_947_18905)">
<path d="M78.5213 55.8534H73.0451V67.7667H78.5213V55.8534Z" fill="#130754"/>
<path d="M78.5213 80.3254H73.0451V92.2387H78.5213V80.3254Z" fill="#130754"/>
<path d="M78.5213 71.244H73.0451V76.8648H78.5213V71.244Z" fill="#FFCA00"/>
<path d="M69.7262 65.6493H64.25V105.25H69.7262V65.6493Z" fill="#130754"/>
<path d="M87.1368 90.1547H81.6606V102.068H87.1368V90.1547Z" fill="#130754"/>
<path d="M87.1368 65.6636H81.6606V77.5769H87.1368V65.6636Z" fill="#130754"/>
<path d="M87.1368 81.0542H81.6606V86.6751H87.1368V81.0542Z" fill="#E70488"/>
<path d="M95.75 52.75H90.2738V92.3507H95.75V52.75Z" fill="#130754"/>
<rect x="3" y="4" width="54" height="54" fill="black"/>
<path d="M48.962 28.6606H42.6777V38.1586H48.962C51.5926 38.1586 53.7361 36.0264 53.7361 33.4096C53.7361 30.7928 51.5926 28.6606 48.962 28.6606Z" fill="#EDDE00"/>
<path d="M11.6953 33.41C11.6953 40.7434 17.671 46.6716 25.0271 46.6716C32.3831 46.6716 38.3588 40.7273 38.3588 33.41C38.3588 26.0927 32.3993 20.1484 25.0271 20.1484C17.6548 20.1484 11.6953 26.0766 11.6953 33.41Z" fill="#EDDE00"/>
</g>
<defs>
<clipPath id="clip0_947_18905">
<rect width="111" height="111" fill="white"/>
</clipPath>
</defs>
</svg>
