<svg width="111" height="111" viewBox="0 0 111 111" fill="none" xmlns="http://www.w3.org/2000/svg">
<g clip-path="url(#clip0_947_18906)">
<path fill-rule="evenodd" clip-rule="evenodd" d="M66.3715 90.4128L66.2818 92.044C66.324 92.8329 66.3429 93.6049 66.3614 94.3647C66.4131 96.4811 66.4625 98.5006 67.0066 100.477C67.5534 102.47 68.4727 102.875 70.3865 102.001C72.071 101.234 73.4472 100.043 74.7812 98.8122C76.9451 96.8153 78.949 94.6688 80.9525 92.5227C81.7708 91.6463 82.589 90.7699 83.4181 89.904C83.8236 89.4826 84.1355 89.2904 84.7245 89.5579C85.7429 90.0223 86.8035 90.3902 87.8916 90.6825C88.9308 90.9607 89.9594 91.2766 90.9879 91.5922C92.6652 92.1071 94.3422 92.622 96.0643 92.9734C98.2258 93.4145 100.127 92.5894 101.105 90.9069C102.057 89.2707 101.697 87.6869 100.861 86.1353C100.442 85.3593 100.025 84.5826 99.6076 83.8059C98.3089 81.388 97.0105 78.9705 95.6606 76.5794C95.1762 75.7221 95.2698 75.177 95.9083 74.4595C98.1897 71.8946 100.438 69.3024 102.687 66.7102C103.343 65.9543 103.999 65.1981 104.655 64.4425C105.432 63.5493 106.109 62.5969 106.364 61.42C106.654 60.0818 106.081 58.9896 104.8 58.437C103.751 57.983 102.661 57.9777 101.575 58.2559L100.006 58.6565C96.1334 59.6447 92.2604 60.6333 88.4017 61.6728C87.5191 61.9117 87.0934 61.7091 86.6512 60.9607C85.3832 58.8182 84.0734 56.7011 82.7633 54.5837L81.8144 53.0482C81.2767 52.1765 80.6914 51.3335 79.9208 50.6411C78.2565 49.1487 76.284 49.2096 74.7243 50.7953C73.6105 51.9273 72.9738 53.305 72.6875 54.8297C72.0086 58.437 71.3315 62.0443 70.7223 65.6642C70.5865 66.4732 70.2232 66.8357 69.4599 67.0634C66.461 67.9602 63.4703 68.8832 60.4803 69.8062L58.2871 70.4825C57.2357 70.807 56.2192 71.2036 55.3127 71.8351C53.4687 73.1195 53.043 75.1354 54.221 77.028C55.0503 78.3609 56.3036 79.1824 57.7238 79.7995C59.8138 80.7089 61.9056 81.6132 63.9992 82.5136C64.7827 82.8507 65.5405 83.215 66.2341 83.721C66.6341 84.0132 66.7351 84.2965 66.7039 84.7684C66.5746 86.6853 66.4702 88.602 66.3715 90.4128ZM72.9389 87.764C72.6472 90.0098 72.3683 92.2591 72.0839 94.5035L72.26 94.5663L72.3431 94.4791C72.4351 94.3827 72.5276 94.2855 72.6178 94.1876C73.4232 93.318 74.2291 92.4492 75.035 91.5803C77.4517 88.9745 79.8683 86.3687 82.2694 83.7511C82.6676 83.3172 82.9997 83.1989 83.5961 83.3674C85.9978 84.0448 88.4088 84.6906 90.8198 85.3367C91.6139 85.5494 92.4081 85.762 93.2019 85.9757C93.3625 86.0187 93.5231 86.0603 93.7118 86.1095L94.2624 86.2536C93.9945 85.7333 93.8367 85.4142 93.6679 85.1019C93.2553 84.3356 92.8441 83.5689 92.4328 82.8019C91.2437 80.5848 90.0545 78.3677 88.8329 76.1671C88.4604 75.498 88.5522 75.0583 89.0403 74.5076C91.3731 71.8759 93.6798 69.2246 95.9862 66.5736L96.8442 65.5871C96.8871 65.5376 96.935 65.4903 96.9837 65.4423C97.1613 65.2673 97.3486 65.0826 97.3414 64.7531C97.2785 64.7674 97.2195 64.78 97.163 64.7922C97.0628 64.8133 96.9705 64.833 96.879 64.8571C95.853 65.1217 94.8264 65.3849 93.7999 65.6481C90.9326 66.3835 88.0653 67.1186 85.209 67.8885C84.4346 68.0983 84.0677 67.91 83.6787 67.2624C82.1785 64.7627 80.643 62.2839 79.1073 59.805L78.3556 58.5912C78.3218 58.5363 78.2914 58.4779 78.2605 58.4184C78.1418 58.1899 78.0166 57.949 77.673 57.8593C77.4843 58.8906 77.294 59.9205 77.1038 60.9496C76.5618 63.8835 76.021 66.8099 75.5225 69.7434C75.394 70.495 75.0417 70.7962 74.361 71.0028C71.236 71.9502 68.1162 72.9183 64.9972 73.8865L63.2836 74.4179C63.2221 74.4369 63.1584 74.4527 63.0942 74.4685C62.8382 74.5309 62.5749 74.5954 62.4194 74.888C62.6561 74.9866 62.8744 75.0816 63.0983 75.1695C66.5167 76.5221 69.9352 77.88 73.361 79.2165C73.8215 79.3957 74.0307 79.6005 73.9555 80.1294C73.6423 82.3314 73.3567 84.5378 73.0712 86.7431L72.9389 87.764Z" fill="#E15A1C"/>
<rect x="3" y="4" width="54" height="54" fill="black"/>
<path d="M48.962 28.6606H42.6777V38.1586H48.962C51.5926 38.1586 53.7361 36.0264 53.7361 33.4096C53.7361 30.7928 51.5926 28.6606 48.962 28.6606Z" fill="#EDDE00"/>
<path d="M11.6953 33.41C11.6953 40.7434 17.671 46.6716 25.0271 46.6716C32.3831 46.6716 38.3588 40.7273 38.3588 33.41C38.3588 26.0927 32.3993 20.1484 25.0271 20.1484C17.6548 20.1484 11.6953 26.0766 11.6953 33.41Z" fill="#EDDE00"/>
</g>
<defs>
<clipPath id="clip0_947_18906">
<rect width="111" height="111" fill="white"/>
</clipPath>
</defs>
</svg>
