<svg width="64" height="64" viewBox="0 0 64 64" fill="none" xmlns="http://www.w3.org/2000/svg">
<path d="M20.1774 52.9313H19.2305C19.1032 52.9313 19 53.0318 19 53.1559V56.5738C19 56.6978 19.1032 56.7984 19.2305 56.7984H20.1774C20.3047 56.7984 20.4079 56.6978 20.4079 56.5738V53.1559C20.4079 53.0318 20.3047 52.9313 20.1774 52.9313Z" fill="#366F9E"/>
<path d="M22.1615 48.4398H21.4202C21.2361 48.4398 21.0869 48.5852 21.0869 48.7646V52.9315C21.0869 53.1109 21.2361 53.2563 21.4202 53.2563H22.1615C22.3456 53.2563 22.4948 53.1109 22.4948 52.9315V48.7646C22.4948 48.5852 22.3456 48.4398 22.1615 48.4398Z" fill="#366F9E"/>
<path d="M22.2643 53.8062H21.3174C21.1901 53.8062 21.0869 53.9068 21.0869 54.0308V57.6495C21.0869 57.7736 21.1901 57.8741 21.3174 57.8741H22.2643C22.3916 57.8741 22.4948 57.7736 22.4948 57.6495V54.0308C22.4948 53.9068 22.3916 53.8062 22.2643 53.8062Z" fill="#366F9E"/>
<path d="M24.3493 43.906H23.4024C23.2751 43.906 23.1719 44.0066 23.1719 44.1306V50.9071C23.1719 51.0312 23.2751 51.1317 23.4024 51.1317H24.3493C24.4766 51.1317 24.5798 51.0312 24.5798 50.9071V44.1306C24.5798 44.0066 24.4766 43.906 24.3493 43.906Z" fill="#366F9E"/>
<path d="M24.3493 51.7684H23.4024C23.2751 51.7684 23.1719 51.869 23.1719 51.993V54.0947C23.1719 54.2188 23.2751 54.3193 23.4024 54.3193H24.3493C24.4766 54.3193 24.5798 54.2188 24.5798 54.0947V51.993C24.5798 51.869 24.4766 51.7684 24.3493 51.7684Z" fill="#366F9E"/>
<path d="M24.2465 56.0323H23.5052C23.3211 56.0323 23.1719 56.1777 23.1719 56.3571V57.5495C23.1719 57.7289 23.3211 57.8743 23.5052 57.8743H24.2465C24.4306 57.8743 24.5798 57.7289 24.5798 57.5495V56.3571C24.5798 56.1777 24.4306 56.0323 24.2465 56.0323Z" fill="#366F9E"/>
<path d="M26.4362 40.6921H25.4893C25.362 40.6921 25.2588 40.7926 25.2588 40.9167V45.7095C25.2588 45.8336 25.362 45.9341 25.4893 45.9341H26.4362C26.5635 45.9341 26.6667 45.8336 26.6667 45.7095V40.9167C26.6667 40.7926 26.5635 40.6921 26.4362 40.6921Z" fill="#366F9E"/>
<path d="M26.4367 46.5182H25.4888C25.3618 46.5182 25.2588 46.6185 25.2588 46.7423V53.2388C25.2588 53.3625 25.3618 53.4629 25.4888 53.4629H26.4367C26.5637 53.4629 26.6667 53.3625 26.6667 53.2388V46.7423C26.6667 46.6185 26.5637 46.5182 26.4367 46.5182Z" fill="#366F9E"/>
<path d="M28.5221 39.7031H27.5752C27.4479 39.7031 27.3447 39.8036 27.3447 39.9277V43.1237C27.3447 43.2478 27.4479 43.3483 27.5752 43.3483H28.5221C28.6495 43.3483 28.7527 43.2478 28.7527 43.1237V39.9277C28.7527 39.8036 28.6495 39.7031 28.5221 39.7031Z" fill="#366F9E"/>
<path d="M28.5231 43.9105H27.5762C27.4489 43.9105 27.3457 44.0111 27.3457 44.1351V48.7338C27.3457 48.8579 27.4489 48.9584 27.5762 48.9584H28.5231C28.6504 48.9584 28.7536 48.8579 28.7536 48.7338V44.1351C28.7536 44.0111 28.6504 43.9105 28.5231 43.9105Z" fill="#366F9E"/>
<path d="M28.5231 49.6206H27.5762C27.4489 49.6206 27.3457 49.7212 27.3457 49.8452V53.9768C27.3457 54.1008 27.4489 54.2014 27.5762 54.2014H28.5231C28.6504 54.2014 28.7536 54.1008 28.7536 53.9768V49.8452C28.7536 49.7212 28.6504 49.6206 28.5231 49.6206Z" fill="#366F9E"/>
<path d="M30.5053 38.9016H29.764C29.5799 38.9016 29.4307 39.047 29.4307 39.2263V45.2272C29.4307 45.4066 29.5799 45.552 29.764 45.552H30.5053C30.6894 45.552 30.8386 45.4066 30.8386 45.2272V39.2263C30.8386 39.047 30.6894 38.9016 30.5053 38.9016Z" fill="#366F9E"/>
<path d="M30.5053 46.2143H29.764C29.5799 46.2143 29.4307 46.3597 29.4307 46.5391V47.9318C29.4307 48.1112 29.5799 48.2566 29.764 48.2566H30.5053C30.6894 48.2566 30.8386 48.1112 30.8386 47.9318V46.5391C30.8386 46.3597 30.6894 46.2143 30.5053 46.2143Z" fill="#366F9E"/>
<path d="M30.5043 48.7193H29.764C29.5799 48.7193 29.4307 48.8647 29.4307 49.0441V55.2452C29.4307 55.4246 29.5799 55.57 29.764 55.57H30.5043C30.6884 55.57 30.8377 55.4246 30.8377 55.2452V49.0441C30.8377 48.8647 30.6884 48.7193 30.5043 48.7193Z" fill="#FFCB3B"/>
<path d="M32.5922 38.1004H31.8509C31.6668 38.1004 31.5176 38.2458 31.5176 38.4252V39.6176C31.5176 39.797 31.6668 39.9424 31.8509 39.9424H32.5922C32.7763 39.9424 32.9255 39.797 32.9255 39.6176V38.4252C32.9255 38.2458 32.7763 38.1004 32.5922 38.1004Z" fill="#366F9E"/>
<path d="M32.5922 40.5043H31.8509C31.6668 40.5043 31.5176 40.6497 31.5176 40.829V50.0358C31.5176 50.2152 31.6668 50.3606 31.8509 50.3606H32.5922C32.7763 50.3606 32.9255 50.2152 32.9255 50.0358V40.829C32.9255 40.6497 32.7763 40.5043 32.5922 40.5043Z" fill="#366F9E"/>
<path d="M32.5922 51.0232H31.8509C31.6668 51.0232 31.5176 51.1686 31.5176 51.348V53.8424C31.5176 54.0218 31.6668 54.1672 31.8509 54.1672H32.5922C32.7763 54.1672 32.9255 54.0218 32.9255 53.8424V51.348C32.9255 51.1686 32.7763 51.0232 32.5922 51.0232Z" fill="#FFCB3B"/>
<path d="M32.5922 54.8303H31.8509C31.6668 54.8303 31.5176 54.9757 31.5176 55.155V56.7481C31.5176 56.9275 31.6668 57.0729 31.8509 57.0729H32.5922C32.7763 57.0729 32.9255 56.9275 32.9255 56.7481V55.155C32.9255 54.9757 32.7763 54.8303 32.5922 54.8303Z" fill="#FFCB3B"/>
<path d="M34.6781 54.3286H33.9368C33.7527 54.3286 33.6035 54.474 33.6035 54.6534V57.5494C33.6035 57.7288 33.7527 57.8742 33.9368 57.8742H34.6781C34.8622 57.8742 35.0115 57.7288 35.0115 57.5494V54.6534C35.0115 54.474 34.8622 54.3286 34.6781 54.3286Z" fill="#FFCB3B"/>
<path d="M34.6781 44.3115H33.9368C33.7527 44.3115 33.6035 44.4569 33.6035 44.6363V51.7389C33.6035 51.9182 33.7527 52.0636 33.9368 52.0636H34.6781C34.8622 52.0636 35.0115 51.9182 35.0115 51.7389V44.6363C35.0115 44.4569 34.8622 44.3115 34.6781 44.3115Z" fill="#FFCB3B"/>
<path d="M34.6781 38H33.9368C33.7527 38 33.6035 38.1454 33.6035 38.3248V43.3236C33.6035 43.503 33.7527 43.6484 33.9368 43.6484H34.6781C34.8622 43.6484 35.0115 43.503 35.0115 43.3236V38.3248C35.0115 38.1454 34.8622 38 34.6781 38Z" fill="#366F9E"/>
<path d="M36.7641 55.8319H36.0228C35.8387 55.8319 35.6895 55.9773 35.6895 56.1567V57.5495C35.6895 57.7288 35.8387 57.8742 36.0228 57.8742H36.7641C36.9482 57.8742 37.0974 57.7288 37.0974 57.5495V56.1567C37.0974 55.9773 36.9482 55.8319 36.7641 55.8319Z" fill="#FFCB3B"/>
<path d="M36.7641 38.1002H36.0228C35.8387 38.1002 35.6895 38.2456 35.6895 38.425V46.9302C35.6895 47.1096 35.8387 47.255 36.0228 47.255H36.7641C36.9482 47.255 37.0974 47.1096 37.0974 46.9302V38.425C37.0974 38.2456 36.9482 38.1002 36.7641 38.1002Z" fill="#366F9E"/>
<path d="M36.7641 47.9178H36.0228C35.8387 47.9178 35.6895 48.0632 35.6895 48.2426V51.7391C35.6895 51.9184 35.8387 52.0638 36.0228 52.0638H36.7641C36.9482 52.0638 37.0974 51.9184 37.0974 51.7391V48.2426C37.0974 48.0632 36.9482 47.9178 36.7641 47.9178Z" fill="#FFCB3B"/>
<path d="M38.85 38.5009H38.1087C37.9246 38.5009 37.7754 38.6463 37.7754 38.8257V41.22C37.7754 41.3994 37.9246 41.5448 38.1087 41.5448H38.85C39.0341 41.5448 39.1833 41.3994 39.1833 41.22V38.8257C39.1833 38.6463 39.0341 38.5009 38.85 38.5009Z" fill="#366F9E"/>
<path d="M38.85 42.2072H38.1087C37.9246 42.2072 37.7754 42.3526 37.7754 42.5319V51.7382C37.7754 51.9176 37.9246 52.063 38.1087 52.063H38.85C39.0341 52.063 39.1833 51.9176 39.1833 51.7382V42.5319C39.1833 42.3526 39.0341 42.2072 38.85 42.2072Z" fill="#FFCB3B"/>
<path d="M40.9359 38.7014H40.1946C40.0106 38.7014 39.8613 38.8468 39.8613 39.0261V44.3259C39.8613 44.5053 40.0106 44.6507 40.1946 44.6507H40.9359C41.12 44.6507 41.2693 44.5053 41.2693 44.3259V39.0261C41.2693 38.8468 41.12 38.7014 40.9359 38.7014Z" fill="#366F9E"/>
<path d="M40.9359 45.3134H40.1946C40.0106 45.3134 39.8613 45.4588 39.8613 45.6381V50.0365C39.8613 50.2159 40.0106 50.3613 40.1946 50.3613H40.9359C41.12 50.3613 41.2693 50.2159 41.2693 50.0365V45.6381C41.2693 45.4588 41.12 45.3134 40.9359 45.3134Z" fill="#FFCB3B"/>
<path d="M40.9359 51.0228H40.1946C40.0106 51.0228 39.8613 51.1682 39.8613 51.3476V53.3413C39.8613 53.5207 40.0106 53.6661 40.1946 53.6661H40.9359C41.12 53.6661 41.2693 53.5207 41.2693 53.3413V51.3476C41.2693 51.1682 41.12 51.0228 40.9359 51.0228Z" fill="#FFCB3B"/>
<path d="M43.0092 39.0022H42.2679C42.0838 39.0022 41.9346 39.1476 41.9346 39.327V47.5317C41.9346 47.7111 42.0838 47.8565 42.2679 47.8565H43.0092C43.1933 47.8565 43.3425 47.7111 43.3425 47.5317V39.327C43.3425 39.1476 43.1933 39.0022 43.0092 39.0022Z" fill="#366F9E"/>
<path d="M43.0092 48.519H42.2679C42.0838 48.519 41.9346 48.6644 41.9346 48.8438V55.3455C41.9346 55.5248 42.0838 55.6702 42.2679 55.6702H43.0092C43.1933 55.6702 43.3425 55.5248 43.3425 55.3455V48.8438C43.3425 48.6644 43.1933 48.519 43.0092 48.519Z" fill="#FFCB3B"/>
<path d="M45.0815 38.7015H44.3402C44.1561 38.7015 44.0068 38.8469 44.0068 39.0262V42.5228C44.0068 42.7021 44.1561 42.8475 44.3402 42.8475H45.0815C45.2655 42.8475 45.4148 42.7021 45.4148 42.5228V39.0262C45.4148 38.8469 45.2655 38.7015 45.0815 38.7015Z" fill="#366F9E"/>
<path d="M45.0815 43.5099H44.3402C44.1561 43.5099 44.0068 43.6553 44.0068 43.8347V54.0435C44.0068 54.2228 44.1561 54.3682 44.3402 54.3682H45.0815C45.2655 54.3682 45.4148 54.2228 45.4148 54.0435V43.8347C45.4148 43.6553 45.2655 43.5099 45.0815 43.5099Z" fill="#FFCB3B"/>
<path d="M45.0815 55.0304H44.3402C44.1561 55.0304 44.0068 55.1758 44.0068 55.3552V57.2487C44.0068 57.4281 44.1561 57.5735 44.3402 57.5735H45.0815C45.2655 57.5735 45.4148 57.4281 45.4148 57.2487V55.3552C45.4148 55.1758 45.2655 55.0304 45.0815 55.0304Z" fill="#FFD54F"/>
<path d="M47.1684 54.4293H46.4271C46.243 54.4293 46.0938 54.5747 46.0938 54.754V57.5495C46.0938 57.7288 46.243 57.8742 46.4271 57.8742H47.1684C47.3525 57.8742 47.5017 57.7288 47.5017 57.5495V54.754C47.5017 54.5747 47.3525 54.4293 47.1684 54.4293Z" fill="#FFD54F"/>
<path d="M47.1684 45.9142H46.4271C46.243 45.9142 46.0938 46.0596 46.0938 46.239V48.133C46.0938 48.3123 46.243 48.4578 46.4271 48.4578H47.1684C47.3525 48.4578 47.5017 48.3123 47.5017 48.133V46.239C47.5017 46.0596 47.3525 45.9142 47.1684 45.9142Z" fill="#FFCB3B"/>
<path d="M47.1684 38.6012H46.4271C46.243 38.6012 46.0938 38.7466 46.0938 38.926V44.9268C46.0938 45.1062 46.243 45.2516 46.4271 45.2516H47.1684C47.3525 45.2516 47.5017 45.1062 47.5017 44.9268V38.926C47.5017 38.7466 47.3525 38.6012 47.1684 38.6012Z" fill="#366F9E"/>
<path d="M49.2826 39.1024H48.5413C48.3572 39.1024 48.208 39.2478 48.208 39.4271V47.031C48.208 47.2103 48.3572 47.3557 48.5413 47.3557H49.2826C49.4667 47.3557 49.6159 47.2103 49.6159 47.031V39.4271C49.6159 39.2478 49.4667 39.1024 49.2826 39.1024Z" fill="#366F9E"/>
<path d="M49.2826 56.0322H48.5413C48.3572 56.0322 48.208 56.1776 48.208 56.357V57.5495C48.208 57.7288 48.3572 57.8742 48.5413 57.8742H49.2826C49.4667 57.8742 49.6159 57.7288 49.6159 57.5495V56.357C49.6159 56.1776 49.4667 56.0322 49.2826 56.0322Z" fill="#FFCB3B"/>
<path d="M51.3393 39.7035H50.598C50.4139 39.7035 50.2646 39.8489 50.2646 40.0283V41.9223C50.2646 42.1017 50.4139 42.2471 50.598 42.2471H51.3393C51.5234 42.2471 51.6726 42.1017 51.6726 41.9223V40.0283C51.6726 39.8489 51.5234 39.7035 51.3393 39.7035Z" fill="#FFCB3B"/>
<path d="M51.3393 42.9087H50.598C50.4139 42.9087 50.2646 43.0541 50.2646 43.2335V46.8301C50.2646 47.0095 50.4139 47.1549 50.598 47.1549H51.3393C51.5234 47.1549 51.6726 47.0095 51.6726 46.8301V43.2335C51.6726 43.0541 51.5234 42.9087 51.3393 42.9087Z" fill="#FFCB3B"/>
<path d="M53.4516 40.2036H52.7103C52.5262 40.2036 52.377 40.349 52.377 40.5284V41.7208C52.377 41.9002 52.5262 42.0456 52.7103 42.0456H53.4516C53.6357 42.0456 53.7849 41.9002 53.7849 41.7208V40.5284C53.7849 40.349 53.6357 40.2036 53.4516 40.2036Z" fill="#FFCB3B"/>
<path d="M53.4516 42.608H52.7103C52.5262 42.608 52.377 42.7534 52.377 42.9328V44.0251C52.377 44.2045 52.5262 44.3499 52.7103 44.3499H53.4516C53.6357 44.3499 53.7849 44.2045 53.7849 44.0251V42.9328C53.7849 42.7534 53.6357 42.608 53.4516 42.608Z" fill="#FFCB3B"/>
<path d="M53.4516 44.9119H52.7103C52.5262 44.9119 52.377 45.0573 52.377 45.2367V47.0301C52.377 47.2095 52.5262 47.3549 52.7103 47.3549H53.4516C53.6357 47.3549 53.7849 47.2095 53.7849 47.0301V45.2367C53.7849 45.0573 53.6357 44.9119 53.4516 44.9119Z" fill="#FFCB3B"/>
<path d="M55.5375 40.8051H54.7962C54.6121 40.8051 54.4629 40.9505 54.4629 41.1298V47.331C54.4629 47.5104 54.6121 47.6558 54.7962 47.6558H55.5375C55.7216 47.6558 55.8708 47.5104 55.8708 47.331V41.1298C55.8708 40.9505 55.7216 40.8051 55.5375 40.8051Z" fill="#FFCB3B"/>
<path d="M57.6098 42.6079H56.8685C56.6844 42.6079 56.5352 42.7533 56.5352 42.9327V47.1303C56.5352 47.3096 56.6844 47.455 56.8685 47.455H57.6098C57.7939 47.455 57.9431 47.3096 57.9431 47.1303V42.9327C57.9431 42.7533 57.7939 42.6079 57.6098 42.6079Z" fill="#FFCB3B"/>
<path d="M59.6664 44.9121H58.9251C58.741 44.9121 58.5918 45.0575 58.5918 45.2369V46.4293C58.5918 46.6087 58.741 46.7541 58.9251 46.7541H59.6664C59.8505 46.7541 59.9997 46.6087 59.9997 46.4293V45.2369C59.9997 45.0575 59.8505 44.9121 59.6664 44.9121Z" fill="#FFCB3B"/>
<rect x="6" y="6" width="28" height="28" fill="black"/>
<path d="M29.8318 18.787H26.5732V23.7118H29.8318C31.1958 23.7118 32.3072 22.6062 32.3072 21.2494C32.3072 19.8925 31.1958 18.787 29.8318 18.787Z" fill="#EDDE00"/>
<path d="M10.5098 21.2496C10.5098 25.0522 13.6083 28.126 17.4225 28.126C21.2367 28.126 24.3353 25.0438 24.3353 21.2496C24.3353 17.4555 21.2452 14.3733 17.4225 14.3733C13.5999 14.3733 10.5098 17.4471 10.5098 21.2496Z" fill="#EDDE00"/>
</svg>
