<svg width="64" height="64" viewBox="0 0 64 64" fill="none" xmlns="http://www.w3.org/2000/svg">
<path d="M38.4417 40.7961C36.3418 42.3317 33.762 43.0659 31.1681 42.8658C28.5743 42.6657 26.1376 41.5447 24.298 39.7052C22.4584 37.8656 21.3374 35.4289 21.1373 32.8351C20.9373 30.2413 21.6714 27.6615 23.2071 25.5617L26.6102 28.9662C25.9474 30.1432 25.6881 31.5047 25.8716 32.8429C26.0552 34.1811 26.6717 35.4225 27.6269 36.3776C28.5821 37.3326 29.8236 37.9489 31.1619 38.1322C32.5002 38.3156 33.8617 38.056 35.0386 37.393L38.4417 40.7961ZM20.8307 40.8177C18.6677 38.0818 17.5848 34.6468 17.7877 31.165C17.9906 27.6833 19.4651 24.3973 21.9313 21.9312C24.3975 19.465 27.6835 17.9905 31.1653 17.7876C34.6471 17.5847 38.0822 18.6676 40.8181 20.8306L44.2068 17.442C40.5664 14.3888 35.9141 12.8104 31.1674 13.0182C26.4207 13.226 21.9241 15.2048 18.5645 18.5644C15.2048 21.924 13.226 26.4205 13.0182 31.1671C12.8104 35.9138 14.3888 40.566 17.442 44.2063L20.8307 40.8177ZM32.0018 21.1031C29.6852 21.0966 27.4278 21.8341 25.5619 23.2069L28.9664 26.61C30.3971 25.8063 32.0881 25.6025 33.6687 26.0433L35.4813 21.6684C34.3598 21.2924 33.1846 21.1015 32.0018 21.1031V21.1031ZM46.1333 30.2957C46.431 32.7713 46.0733 35.2817 45.0959 37.5757C44.1185 39.8697 42.5557 41.8667 40.564 43.3669C38.5723 44.8672 36.2215 45.818 33.7468 46.1242C31.2721 46.4304 28.7605 46.0813 26.4631 45.1119C25.2885 44.6163 24.1864 43.9639 23.1869 43.1724L19.7968 46.561C22.568 48.8841 25.9445 50.368 29.5299 50.8385C33.1152 51.309 36.7603 50.7465 40.037 49.2171C43.3137 47.6877 46.0859 45.255 48.0279 42.2047C49.9699 39.1544 51.0009 35.6132 51 31.9972C51 31.4204 50.975 30.8518 50.925 30.2913L46.1333 30.2957ZM42.7778 30.336H34.3667C33.7395 30.336 33.1379 30.5852 32.6944 31.0287C32.2509 31.4722 32.0018 32.0737 32.0018 32.7009C32.0018 33.328 32.2509 33.9295 32.6944 34.373C33.1379 34.8165 33.7395 35.0657 34.3667 35.0657H37.4208L40.7965 38.4413C41.8333 37.0338 42.5122 35.3953 42.7749 33.667C42.9422 32.563 42.9422 31.44 42.7749 30.336H42.7778Z" fill="#FF6310"/>
</svg>
