<svg width="100" height="100" viewBox="0 0 100 100" fill="none" xmlns="http://www.w3.org/2000/svg">
<path fill-rule="evenodd" clip-rule="evenodd" d="M11 10C10.4477 10 10 10.4477 10 11V89C10 89.5523 10.4477 90 11 90H89C89.5523 90 90 89.5523 90 89V11C90 10.4477 89.5523 10 89 10H11ZM27.8705 49.3519V40.7693H36.9829V65.3847H27.8705V53.077H25.2669V65.3847H16.1545V55.9406V47.7519V47.7273V40.7693H25.2669V49.3519H27.8705ZM60.4149 65.3847H39.5865V40.7693H60.4149V53.077H48.6989V61.6924H51.3024V55.5385H60.4149V65.3847ZM48.6989 44.4616V49.3847H51.3024V44.4616H48.6989ZM74.7344 40.7693V49.3847H72.1308V40.7693H63.0184V46.9232L66.9237 51.2309L63.0184 55.5385V65.3847H72.1308V53.0442H74.7344V65.3847H83.8468V55.5385L79.9415 51.2309L83.8468 46.9232V40.7693H74.7344Z" fill="#7660D9"/>
</svg>
