<svg width="174" height="173" xmlns="http://www.w3.org/2000/svg" clip-rule="evenodd" version="1.1">
 <g id="Layer_1">
  <title>Layer 1</title>
  <g id="svg_1">
   <path id="svg_1" opacity="0.973" d="m160.5329,41c-13.667,0 -27.333,0 -41,0c0,-2 0,-4 0,-6c5.107,0.3345 9.44,0.0012 13,-1c-2.427,-2.0576 -5.093,-3.8909 -8,-5.5c-22.333,-0.6667 -44.667,-0.6667 -67,0c-3.736,1.4098 -7.402,2.9098 -11,4.5c-3.447,1.5541 -5.447,4.2208 -6,8c15.333,0 30.667,0 46,0c-0.327,10.1806 0.006,20.1806 1,30c0,4.3333 0,8.667 0,13c-0.333,0 -0.667,0 -1,0c-18.468,-7.7349 -36.801,-15.7349 -55,-24c12.516,-6.0905 25.183,-11.9238 38,-17.5c-9.994,-0.4998 -19.994,-0.6665 -30,-0.5c-8.484,-0.993 -17.151,-1.3264 -26,-1c16.769,-26.9798 41.269,-40.6465 73.5,-41c32.231,0.3535 56.731,14.0202 73.5,41z" fill="#b8e1f3"/>
  </g>
  <g id="svg_3">
   <path id="svg_3" d="m132.5329,34c-28.838,0.3313 -57.505,-0.002 -86,-1c3.598,-1.5902 7.264,-3.0902 11,-4.5c22.333,-0.6667 44.667,-0.6667 67,0c2.907,1.6091 5.573,3.4424 8,5.5z" fill="#f5fafd"/>
  </g>
  <g id="svg_5">
   <path id="svg_5" d="m46.5329,33c28.495,0.998 57.162,1.3313 86,1c-3.56,1.0012 -7.893,1.3345 -13,1c0,2 0,4 0,6c-11,0 -22,0 -33,0c-15.333,0 -30.667,0 -46,0c0.553,-3.7792 2.553,-6.4459 6,-8z" fill="#eaf7fd"/>
  </g>
  <g id="svg_7">
   <path id="svg_7" d="m13.5329,41c8.849,-0.3264 17.516,0.007 26,1c0,0.6667 -0.333,1 -1,1c-8.333,-0.6667 -16.667,-1.3333 -25,-2z" fill="#4b94cb"/>
  </g>
  <g id="svg_13">
   <path id="svg_9" opacity="0.985" d="m13.5329,41c8.333,0.6667 16.667,1.3333 25,2c-2.487,4.9734 -4.987,9.9734 -7.5,15c1.926,8.755 5.26,17.0884 10,25c5.7,8.757 11.867,17.091 18.5,25c0.069,5.354 0.402,10.687 1,16c-0.149,1.052 0.017,2.052 0.5,3c8.707,9.204 17.207,18.537 25.5,28c0.577,1.273 1.243,1.273 2,0c6.678,-11.361 13.345,-22.694 20,-34c4.96,-3.788 9.793,-7.788 14.5,-12c0.5,-8.994 0.666,-17.994 0.5,-27c6.333,-7.3333 12.667,-14.6667 19,-22c0.304,-0.6499 0.637,-1.3165 1,-2c-2,-5 -4,-10 -6,-15c7.972,-0.9977 15.972,-1.331 24,-1c11.793,19.8207 15.293,41.154 10.5,64c-8.461,32.462 -28.628,53.962 -60.5,64.5c-42.897,9.376 -76.397,-4.124 -100.5,-40.5c-12.794,-24.608 -14.461,-49.941 -5,-76c2.022,-4.7232 4.522,-9.0566 7.5,-13z" fill="#277abe"/>
  </g>
  <g id="svg_15">
   <path id="svg_11" d="m119.5329,42c0,9.3333 0,18.6667 0,28c-9.837,4.8434 -19.837,9.51 -30,14c-0.667,0 -1,0.333 -1,1c-0.333,0 -0.667,0 -1,0c0,-0.333 0,-0.667 0,-1c0,-4.333 0,-8.6667 0,-13c0,-9.6667 0,-19.3333 0,-29c10.667,0 21.333,0 32,0z" fill="#68c1ea"/>
  </g>
  <g id="svg_17">
   <path id="svg_14" d="m119.5329,41c13.667,0 27.333,0 41,0c0.667,0 1,0.3333 1,1c-8.028,-0.331 -16.028,0.0023 -24,1c2,5 4,10 6,15c-0.363,0.6835 -0.696,1.3501 -1,2c-7.788,3.0608 -15.455,6.3941 -23,10c0,-9.3333 0,-18.6667 0,-28c0,-0.3333 0,-0.6667 0,-1z" fill="#4e8bc9"/>
  </g>
  <g id="svg_29">
   <path id="svg_18" d="m86.5329,41c11,0 22,0 33,0c0,0.3333 0,0.6667 0,1c-10.667,0 -21.333,0 -32,0c0,9.6667 0,19.3333 0,29c-0.994,-9.8194 -1.327,-19.8194 -1,-30z" fill="#a2d8f1"/>
  </g>
  <g id="svg_31">
   <path id="svg_20" d="m39.5329,42c10.006,-0.1665 20.006,0.0002 30,0.5c-12.817,5.5762 -25.484,11.4095 -38,17.5c18.199,8.2651 36.532,16.2651 55,24c-0.359,1.871 -1.359,3.371 -3,4.5c-8.479,5.985 -16.479,12.485 -24,19.5c-6.633,-7.909 -12.8,-16.243 -18.5,-25c-4.74,-7.9116 -8.074,-16.245 -10,-25c2.513,-5.0266 5.013,-10.0266 7.5,-15c0.667,0 1,-0.3333 1,-1z" fill="#90d4f0"/>
  </g>
  <g id="svg_33">
   <path id="svg_22" d="m142.5329,60c-6.333,7.3333 -12.667,14.6667 -19,22c-10.688,0.78 -21.355,1.78 -32,3c-0.916,-0.043 -1.583,-0.376 -2,-1c10.163,-4.49 20.163,-9.1566 30,-14c7.545,-3.6059 15.212,-6.9392 23,-10z" fill="#266fa8"/>
  </g>
  <g id="svg_35">
   <path id="svg_24" d="m123.5329,82c0.166,9.006 0,18.006 -0.5,27c-4.707,4.212 -9.54,8.212 -14.5,12c-0.333,-0.667 -0.667,-1.333 -1,-2c-6.872,-11.081 -13.205,-22.414 -19,-34c0,-0.667 0.333,-1 1,-1c0.417,0.624 1.084,0.957 2,1c10.645,-1.22 21.312,-2.22 32,-3z" fill="#4d8ac8"/>
  </g>
  <g id="svg_37">
   <path id="svg_26" d="m86.5329,84c0.333,0 0.667,0 1,0c0,0.333 0,0.667 0,1c0,8 0,16 0,24c-0.333,0 -0.667,0 -1,0c-8.998,-0.381 -17.998,-0.714 -27,-1c7.521,-7.015 15.521,-13.515 24,-19.5c1.641,-1.129 2.641,-2.629 3,-4.5z" fill="#abdcf1"/>
  </g>
  <g id="svg_39">
   <path id="svg_28" d="m87.5329,85c0.333,0 0.667,0 1,0c5.795,11.586 12.128,22.919 19,34c-7.044,-2.779 -13.711,-6.112 -20,-10c0,-8 0,-16 0,-24z" fill="#54a5d7"/>
  </g>
  <g id="svg_41">
   <path id="svg_32" d="m59.5329,108c9.002,0.286 18.002,0.619 27,1c0,7.333 0,14.667 0,22c-7.375,-0.84 -14.709,-2.007 -22,-3.5c-1.527,-1.032 -2.86,-2.199 -4,-3.5c-0.598,-5.313 -0.931,-10.646 -1,-16z" fill="#b6e0f2"/>
  </g>
  <g id="svg_43">
   <path id="svg_36" d="m86.5329,109c0.333,0 0.667,0 1,0c6.289,3.888 12.956,7.221 20,10c0.333,0.667 0.667,1.333 1,2c-6.766,2.882 -13.433,6.049 -20,9.5c-0.956,3.394 -1.289,6.894 -1,10.5c-0.979,-3.125 -1.313,-6.458 -1,-10c0,-7.333 0,-14.667 0,-22z" fill="#58afde"/>
  </g>
  <g id="svg_45">
   <path id="svg_40" d="m108.5329,121c-6.655,11.306 -13.322,22.639 -20,34c-0.757,1.273 -1.423,1.273 -2,0c0.986,-4.47 1.319,-9.137 1,-14c-0.289,-3.606 0.044,-7.106 1,-10.5c6.567,-3.451 13.234,-6.618 20,-9.5z" fill="#266fa8"/>
  </g>
  <g id="svg_47">
   <path id="svg_44" d="m60.5329,124c1.14,1.301 2.473,2.468 4,3.5c7.291,1.493 14.625,2.66 22,3.5c-0.313,3.542 0.021,6.875 1,10c0.319,4.863 -0.014,9.53 -1,14c-8.293,-9.463 -16.793,-18.796 -25.5,-28c-0.483,-0.948 -0.649,-1.948 -0.5,-3z" fill="#8fd3f0"/>
  </g>
 </g>
</svg>