<svg width="64" height="64" viewBox="0 0 64 64" fill="none" xmlns="http://www.w3.org/2000/svg">
<path d="M50.5352 35.9911C50.4408 35.9694 50.306 35.9323 50.2134 35.9152C49.8617 35.8667 49.5074 35.8383 49.1524 35.83C48.4816 35.7862 47.8167 35.6774 47.1671 35.5051C46.9667 35.3924 46.8015 35.2265 46.6898 35.0259L46.243 34.8961C46.7207 31.4144 45.9004 27.8789 43.9378 24.9605C44.0521 24.8569 44.2687 24.6657 44.3298 24.6094C44.3146 24.382 44.3892 24.1576 44.5375 23.9842C45.0474 23.5474 45.5988 23.161 46.1837 22.8307C46.5004 22.6701 46.8074 22.4914 47.1034 22.2955C47.1747 22.2427 47.2723 22.1589 47.347 22.0993C47.4785 22.0157 47.5909 21.9055 47.6769 21.7757C47.7629 21.646 47.8207 21.4997 47.8463 21.3463C47.872 21.1929 47.865 21.0358 47.8259 20.8853C47.7868 20.7347 47.7164 20.5941 47.6193 20.4724C47.5221 20.3507 47.4004 20.2508 47.2621 20.1791C47.1237 20.1073 46.9718 20.0654 46.8162 20.056C46.6605 20.0467 46.5047 20.07 46.3586 20.1246C46.2126 20.1792 46.0798 20.2638 45.9686 20.3729C45.8931 20.4323 45.7903 20.5102 45.7232 20.5683C45.4646 20.8112 45.2204 21.0688 44.9918 21.3399C44.5393 21.836 44.0396 22.287 43.4996 22.6866C43.287 22.7728 43.0544 22.798 42.8282 22.7593L42.407 23.0593C39.9833 20.5223 36.7188 18.9489 33.2199 18.6315C33.2096 18.4848 33.1971 18.219 33.1931 18.1387C33.0052 18.0087 32.8756 17.8107 32.832 17.5868C32.8086 16.9167 32.8506 16.246 32.9574 15.5841C33.0278 15.2375 33.0782 14.8871 33.1081 14.5346C33.1116 14.4457 33.1063 14.3165 33.1063 14.2205C33.1219 14.0662 33.1048 13.9103 33.0562 13.763C33.0076 13.6156 32.9286 13.4801 32.8242 13.365C32.7199 13.25 32.5925 13.1581 32.4504 13.0953C32.3082 13.0324 32.1544 12.9999 31.9989 13C31.8434 13.0001 31.6896 13.0327 31.5475 13.0957C31.4054 13.1587 31.2782 13.2507 31.1739 13.3658C31.0697 13.4809 30.9908 13.6166 30.9423 13.764C30.8939 13.9113 30.877 14.0672 30.8927 14.2216C30.8927 14.232 30.895 14.242 30.8953 14.2524C30.8942 14.344 30.8898 14.4549 30.8927 14.5349C30.9229 14.8876 30.9733 15.2383 31.0437 15.5852C31.1498 16.247 31.1911 16.9175 31.167 17.5873C31.1041 17.8078 30.9795 18.0058 30.8077 18.1581L30.7815 18.6253C30.1081 18.6807 29.4395 18.7833 28.7805 18.9321C26.0122 19.5561 23.494 20.9912 21.5492 23.053C21.4146 22.9604 21.2812 22.8661 21.149 22.77C20.93 22.8353 20.6941 22.8125 20.4918 22.7064C19.9518 22.3076 19.452 21.8572 18.9996 21.3616C18.7719 21.0907 18.5287 20.833 18.2713 20.59C18.2039 20.5324 18.1009 20.4539 18.0253 20.3938C17.8059 20.2172 17.5355 20.1155 17.2538 20.1034C17.0864 20.0947 16.9193 20.1254 16.7661 20.1931C16.6129 20.2609 16.4778 20.3637 16.3718 20.4932C16.1924 20.7453 16.1203 21.058 16.1713 21.363C16.2223 21.6679 16.3923 21.9404 16.644 22.1207L16.6611 22.1328C16.7335 22.1919 16.8226 22.2675 16.8898 22.3164C17.1851 22.5124 17.4915 22.6913 17.8074 22.8521C18.3924 23.1825 18.9436 23.569 19.4533 24.0062C19.5857 24.1935 19.6628 24.4141 19.6759 24.6429L20.0302 24.9589C18.0732 27.8878 17.269 31.4342 17.772 34.9181L17.3086 35.0526C17.1877 35.2452 17.0252 35.4085 16.8329 35.5305C16.1838 35.7033 15.5193 35.8125 14.849 35.8566C14.4937 35.8647 14.1391 35.8932 13.7871 35.9419C13.7021 35.9576 13.5841 35.9874 13.4915 36.0104L13.4818 36.0125L13.4661 36.0172C13.3128 36.0373 13.1654 36.0892 13.0333 36.1693C12.9012 36.2495 12.7874 36.3563 12.6991 36.4829C12.6107 36.6095 12.5499 36.7531 12.5204 36.9045C12.4909 37.0559 12.4934 37.2118 12.5278 37.3622C12.5622 37.5125 12.6276 37.6541 12.72 37.7778C12.8124 37.9015 12.9296 38.0046 13.0642 38.0805C13.1988 38.1564 13.3478 38.2034 13.5017 38.2186C13.6556 38.2337 13.8109 38.2167 13.9578 38.1685L13.9743 38.1659C13.9817 38.1643 13.988 38.1607 13.9953 38.1593C14.0866 38.1384 14.2014 38.1167 14.2817 38.095C14.6196 37.9874 14.9511 37.8607 15.2745 37.7154C15.8978 37.4647 16.5441 37.2751 17.2042 37.1491C17.4331 37.1631 17.6535 37.2408 17.8404 37.3733L18.323 37.2909C19.4062 40.6291 21.6767 43.4564 24.7062 45.2396L24.5045 45.7209C24.5983 45.9148 24.6326 46.132 24.6034 46.3453C24.3275 46.9743 23.992 47.5755 23.6016 48.1408C23.3869 48.4232 23.1887 48.7177 23.0081 49.0229C22.964 49.106 22.9082 49.2334 22.866 49.3205C22.7861 49.4532 22.7349 49.601 22.7158 49.7545C22.6966 49.9081 22.7099 50.0639 22.7548 50.212C22.7996 50.3601 22.8751 50.4972 22.9762 50.6145C23.0774 50.7318 23.2021 50.8267 23.3422 50.893C23.4824 50.9593 23.6349 50.9956 23.79 50.9996C23.945 51.0036 24.0992 50.9752 24.2426 50.9162C24.386 50.8572 24.5154 50.7689 24.6225 50.657C24.7297 50.5451 24.8121 50.412 24.8646 50.2664L24.8664 50.2643V50.2617C24.9084 50.1754 24.9679 50.0621 25.0033 49.9813C25.1293 49.6505 25.236 49.3126 25.3227 48.9695C25.5138 48.2716 25.8023 47.604 26.1797 46.9862C26.3117 46.8627 26.4779 46.7817 26.6568 46.7539L26.9077 46.3014C30.1934 47.5616 33.8293 47.5708 37.1213 46.3273C37.1916 46.4523 37.3227 46.6914 37.3574 46.7518C37.5834 46.7878 37.7864 46.9109 37.9225 47.0945C38.2359 47.687 38.4904 48.3087 38.6825 48.9507C38.77 49.2938 38.8773 49.6316 39.0038 49.9625C39.0397 50.0441 39.0982 50.1586 39.1407 50.2455C39.193 50.3912 39.2753 50.5243 39.3823 50.6364C39.4893 50.7484 39.6187 50.8369 39.762 50.8961C39.9054 50.9553 40.0596 50.984 40.2147 50.9802C40.3698 50.9764 40.5224 50.9403 40.6627 50.8741C40.8029 50.808 40.9278 50.7133 41.0292 50.5961C41.1306 50.479 41.2062 50.342 41.2514 50.1939C41.2965 50.0458 41.31 49.8899 41.2911 49.7363C41.2722 49.5827 41.2213 49.4348 41.1416 49.302C41.0994 49.2149 41.0412 49.0875 40.9974 49.0048C40.8168 48.7003 40.6186 48.4065 40.404 48.1248C40.0204 47.5739 39.6917 46.9869 39.4226 46.3722C39.3642 46.1524 39.3947 45.9185 39.5076 45.7209C39.4367 45.5764 39.3752 45.4276 39.3232 45.2754C42.3624 43.4778 44.6331 40.6285 45.7033 37.2697C45.8464 37.2925 46.0958 37.3359 46.1769 37.3524C46.3452 37.1982 46.5674 37.1159 46.7958 37.123C47.4561 37.2488 48.1025 37.4385 48.7259 37.6893C49.0494 37.8358 49.3811 37.9635 49.7194 38.0717C49.7994 38.0926 49.9134 38.1125 50.0052 38.1327C50.0128 38.1348 50.0196 38.1379 50.027 38.14L50.0427 38.1424C50.1895 38.1904 50.3448 38.2074 50.4986 38.1922C50.6524 38.177 50.8013 38.13 50.9359 38.0541C51.0704 37.9782 51.1876 37.8752 51.2799 37.7516C51.3722 37.628 51.4377 37.4865 51.4721 37.3362C51.5065 37.1859 51.5091 37.0301 51.4797 36.8788C51.4503 36.7275 51.3896 36.5839 51.3014 36.4573C51.2133 36.3307 51.0996 36.2239 50.9676 36.1436C50.8357 36.0633 50.6884 36.0114 50.5352 35.9911H50.5352ZM40.019 24.7465L35.2887 28.0913L35.2722 28.0835C35.1297 28.1872 34.9616 28.2504 34.7859 28.2665C34.6102 28.2825 34.4335 28.2508 34.2744 28.1747C34.1154 28.0985 33.98 27.9808 33.8826 27.834C33.7853 27.6873 33.7296 27.5169 33.7215 27.3411L33.7163 27.3385L33.3877 21.5568C35.8887 21.8665 38.2185 22.9872 40.0187 24.7465L40.019 24.7465ZM31.1082 31.0841H32.8884L33.9951 32.4642L33.5983 34.1854L31.9996 34.9529L30.3962 34.1838L29.9986 32.4618L31.1082 31.0841ZM29.4335 21.7592C29.8234 21.6717 30.2176 21.6041 30.6144 21.5568L30.2853 27.3474L30.2612 27.3589C30.2537 27.5348 30.1986 27.7053 30.1017 27.8524C30.0048 27.9994 29.8697 28.1175 29.7108 28.1941C29.5519 28.2706 29.3752 28.3028 29.1995 28.2871C29.0237 28.2714 28.8556 28.2084 28.7128 28.1049L28.7037 28.1102L23.9428 24.7431C25.4584 23.2574 27.3602 22.2239 29.4335 21.7592ZM22.2164 26.9072L26.5629 30.7848L26.5582 30.8084C26.6914 30.924 26.7907 31.0735 26.8454 31.241C26.9001 31.4085 26.9082 31.5876 26.8688 31.7593C26.8295 31.9311 26.7441 32.0889 26.6219 32.216C26.4997 32.3432 26.3451 32.4348 26.1748 32.4812L26.1703 32.5L20.5988 34.1035C20.3212 31.5922 20.8904 29.0601 22.2164 26.9074L22.2164 26.9072ZM28.036 37.2082L25.8223 42.5437C23.6976 41.1871 22.0811 39.169 21.2235 36.8025L26.9361 35.8347L26.9458 35.8475C27.0089 35.8354 27.073 35.8298 27.1372 35.8305C27.2974 35.8329 27.4546 35.8745 27.5948 35.9519C27.735 36.0292 27.854 36.1398 27.9412 36.2738C28.0284 36.4079 28.0812 36.5613 28.0948 36.7206C28.1085 36.8798 28.0826 37.0399 28.0195 37.1868L28.036 37.2082ZM34.5702 44.0695C32.499 44.5433 30.3364 44.4326 28.3247 43.7496L31.1342 38.6822H31.1389C31.2225 38.5274 31.3465 38.398 31.4977 38.3078C31.649 38.2175 31.822 38.1698 31.9983 38.1696C32.1745 38.1695 32.3476 38.2169 32.499 38.3069C32.6505 38.3968 32.7747 38.526 32.8585 38.6807H32.8795L35.696 43.7564C35.3305 43.8781 34.9552 43.9827 34.5702 44.07L34.5702 44.0695ZM38.2 42.5652L35.9635 37.1753L35.9703 37.1656C35.8712 36.935 35.865 36.6752 35.953 36.4402C36.0411 36.2052 36.2167 36.0131 36.4432 35.904C36.56 35.847 36.6871 35.8141 36.8169 35.8072C36.892 35.8037 36.9673 35.8093 37.0411 35.8237L37.0508 35.8116L42.8143 36.7831C41.9635 39.1687 40.3399 41.2033 38.2 42.5654L38.2 42.5652ZM43.4196 34.0847L37.82 32.476L37.8148 32.4524C37.6447 32.4056 37.4906 32.3137 37.3687 32.1865C37.2468 32.0593 37.1617 31.9016 37.1225 31.7301C37.0832 31.5585 37.0912 31.3796 37.1457 31.2123C37.2002 31.0449 37.2991 30.8954 37.4319 30.7796L37.4298 30.7684L41.7522 26.9098C43.0758 29.0569 43.6611 31.576 43.4193 34.085L43.4196 34.0847Z" fill="#316CE6"/>
</svg>
