<svg width="64" height="64" viewBox="0 0 64 64" fill="none" xmlns="http://www.w3.org/2000/svg">
<path d="M19.6102 24.6494L17.1946 28.3896L16.4414 24.8831L13.8595 26.6914L12.8603 29.6203L11.5166 32.3162L11.5166 35.1169L12.1816 37.4545L14.2385 39.7716L16.2023 40.5703H18.9931L23.0931 42.2345L28.7531 43H34.6006L40.0443 42.2345L45.0057 40.5703L49.7603 39.7716L51.1729 37.5416L52.1557 33.5844L50.2082 29.6203L49.7603 27.4569L47.1763 25.0605L46.5216 28.2557L44.2821 25.0605V23.4297L46.5216 22.0318L44.4544 21H42.5595L40.7679 22.0318L40.0443 24.4281L40.7679 28.2557L35.0485 25.7595H28.5712L24.0233 27.4569L22.5972 28.3896L23.0931 25.5325V22.8312L21.6116 21.2995L19.9922 21L18.0628 21.2995L16.9948 22.0318L18.831 22.5974L19.6102 24.6494Z" fill="white"/>
<path d="M43.8492 20C45.4841 20 46.8731 21.096 47.5443 21.7101C47.6139 21.7866 47.6384 21.8949 47.6086 21.9945C47.5789 22.0942 47.4994 22.1704 47.3997 22.1949C46.2191 22.4035 45.2584 23.0147 45.1166 23.7493C44.9517 24.5955 45.2555 24.9922 45.7966 25.7032C46.1806 26.2064 46.496 26.7599 46.7342 27.3487C46.9454 26.1117 46.4708 24.5279 46.1815 23.761C46.1468 23.6609 46.168 23.5495 46.237 23.4697C46.306 23.39 46.4119 23.3542 46.5143 23.3761C47.4416 23.623 48.2983 24.0891 49.0144 24.7365C50.166 25.7121 50.8634 27.2811 51.1904 28.9441C51.8626 29.7662 52.3557 30.7236 52.6372 31.7532C53.187 34.1361 53.3606 36.6954 51.3177 39.143C50.0011 40.712 47.8974 41.526 45.2931 41.526C44.7542 41.6181 44.2285 41.777 43.7276 41.999C41.7282 42.7483 38.3744 44 32.0026 44C25.6309 44 22.2801 42.7483 20.2806 41.999C19.7797 41.777 19.2539 41.6181 18.7151 41.526C16.1108 41.526 14.0042 40.712 12.6905 39.143C10.6389 36.6954 10.8126 34.1361 11.3624 31.7649C11.6438 30.7354 12.1369 29.778 12.8092 28.9559C13.1361 27.2929 13.8277 25.7356 14.9852 24.7483C15.7009 24.102 16.5563 23.636 17.4824 23.3879C17.5851 23.3646 17.6922 23.3999 17.7619 23.4799C17.8317 23.5599 17.8532 23.672 17.8181 23.7728C17.5374 24.5397 17.0541 26.1175 17.2654 27.3604C17.5024 26.7711 17.8179 26.2174 18.2029 25.715C18.744 25.0039 19.0479 24.6073 18.8829 23.761C18.7411 23.0264 17.7804 22.4153 16.5998 22.2067C16.5001 22.1822 16.4207 22.1059 16.3909 22.0063C16.3612 21.9066 16.3856 21.7984 16.4552 21.7218C17.1149 21.096 18.5154 20 20.1417 20C22.4276 20 23.6516 21.1929 24.0017 23.1939C24.2969 24.8952 23.8426 26.1146 23.5127 26.9961C23.4577 27.1372 23.4114 27.2664 23.371 27.381C23.6372 27.1959 23.9381 27.002 24.2708 26.808C26.6282 25.4644 29.2908 24.7705 31.994 24.7953C34.6981 24.7703 37.3617 25.4642 39.72 26.808C40.0412 27.002 40.3537 27.1959 40.6199 27.381C40.5794 27.2664 40.5331 27.1372 40.4781 26.9961C40.1482 26.1087 39.6997 24.8952 39.9891 23.1939C40.3363 21.1929 41.5632 20 43.8492 20ZM43.8376 21.4368C42.822 21.4368 41.6645 21.8159 41.3752 23.4407C40.8514 26.4466 43.4094 27.4986 41.5661 29.9226C41.5438 29.9535 41.5083 29.9716 41.4706 29.9716C41.4329 29.9716 41.3975 29.9535 41.3752 29.9226C41.2608 29.7923 38.09 26.2409 31.994 26.2409C25.7871 26.2409 22.6041 29.9285 22.6041 29.9285L22.5778 29.9549C22.5579 29.9694 22.5338 29.9775 22.5086 29.9775C22.471 29.9775 22.4355 29.9593 22.4132 29.9285C20.5785 27.5044 23.1279 26.4525 22.6041 23.4466C22.3234 21.8217 21.166 21.4427 20.1417 21.4427C19.5629 21.4502 18.9888 21.5494 18.4402 21.7365C18.4402 21.7365 21.9878 23.0852 19.3257 26.5935C17.2017 29.4026 19.3835 32.1734 20.3297 33.1753C20.3751 33.2244 20.3827 33.2982 20.3483 33.3556C20.3139 33.4132 20.246 33.4404 20.1821 33.4222C18.7006 32.9491 14.8347 31.2037 16.1311 25.6033C13.0638 28.5504 13.1101 34.6738 18.2723 36.24C18.3427 36.2596 18.3915 36.3246 18.3915 36.3987C18.3915 36.4727 18.3427 36.5377 18.2723 36.5573C17.8766 36.6423 17.4732 36.6856 17.0686 36.6866C13.7293 36.6866 12.4156 33.2958 12.4156 33.2958C12.4156 33.2958 11.6199 40.0862 18.7064 40.0862C20.4773 40.0862 23.1337 42.5602 31.994 42.5602C40.8543 42.5602 43.5106 40.0862 45.2844 40.0862C52.371 40.0862 51.5463 33.29 51.5463 33.29C51.5463 33.29 50.2355 36.6807 46.902 36.6807C46.4974 36.6798 46.094 36.6365 45.6983 36.5514C45.6278 36.5318 45.5791 36.4669 45.5791 36.3928C45.5791 36.3187 45.6278 36.2537 45.6983 36.2341C50.8576 34.668 50.9126 28.5358 47.8395 25.5975C49.1388 31.1978 45.2728 32.9579 43.7885 33.4163C43.7247 33.4345 43.6567 33.4073 43.6223 33.3498C43.5879 33.2923 43.5955 33.2185 43.6409 33.1694C44.5987 32.1704 46.7747 29.3908 44.6507 26.5877C41.9944 23.0793 45.5391 21.7307 45.5391 21.7307C44.9904 21.5435 44.4164 21.4444 43.8376 21.4368Z" fill="#458B83"/>
<path d="M25.9988 34.1902C26.0167 33.772 25.8302 33.3765 25.5139 33.1614C25.1975 32.9462 24.8025 32.9462 24.4862 33.1614C24.1697 33.3765 23.9834 33.772 24.0012 34.1902C24.0012 34.8147 24.4487 35 24.9988 35C25.5489 35 25.9988 34.8227 25.9988 34.1902Z" fill="#458B83"/>
<path d="M39.9988 34.1902C40.0166 33.772 39.8303 33.3765 39.5139 33.1614C39.1975 32.9462 38.8025 32.9462 38.4861 33.1614C38.1697 33.3765 37.9834 33.772 38.0012 34.1902C38.0012 34.8147 38.4487 35 39.0012 35C39.5536 35 39.9988 34.8227 39.9988 34.1902Z" fill="#458B83"/>
<path d="M31.9985 39C30.0047 38.9855 28.0454 38.399 26.2971 37.2933C26.1301 37.1787 26.0206 36.979 26.0026 36.7558C25.9846 36.5326 26.0602 36.313 26.2059 36.1648C26.395 35.9811 26.6616 35.9479 26.8803 36.0807C28.0346 36.8202 29.9421 37.2722 31.9985 37.2722C34.0548 37.2722 35.9473 36.8202 37.1197 36.0807C37.3384 35.9479 37.605 35.9811 37.794 36.1648C37.9398 36.313 38.0154 36.5326 37.9974 36.7558C37.9793 36.979 37.8699 37.1787 37.7029 37.2933C35.9536 38.3994 33.9932 38.9859 31.9985 39Z" fill="#458B83"/>
<path d="M21 40C20.3466 39.8122 19.8042 39.4669 19.4655 39.0232C19.4519 39.0054 19.4235 38.9965 19.396 39.0013C19.3687 39.0061 19.3492 39.0235 19.3485 39.0438V39.1542C19.3483 39.3219 19.2372 39.4796 19.0494 39.5789L19 39.6051L19.3485 39.6314L21 40Z" fill="#458B83"/>
<path d="M43 40C43.6532 39.8122 44.1957 39.467 44.535 39.0232C44.5487 39.0054 44.5771 38.9965 44.6044 39.0013C44.6318 39.0061 44.6512 39.0235 44.6519 39.0438V39.1542C44.6522 39.3219 44.763 39.4796 44.9506 39.5789L45 39.6051L44.6519 39.6314L43 40Z" fill="#458B83"/>
<path d="M23 29.1379C22.7001 29.3982 22.4222 29.6794 22.1686 29.9791C22.1492 29.9997 22.1175 30.0058 22.0909 29.9941C22.0643 29.9824 22.0493 29.9556 22.0543 29.9287C22.0914 29.7562 22.1286 29.597 22.1571 29.4829C22.183 29.3696 22.1627 29.2514 22.1 29.1512L22 29L23 29.1379Z" fill="#458B83"/>
<path d="M41 29.1373C41.2999 29.3964 41.5778 29.6763 41.8314 29.9746C41.8498 29.9984 41.8838 30.0066 41.9125 29.9943C41.9411 29.9821 41.9562 29.9528 41.9486 29.9245C41.9086 29.7528 41.8714 29.5943 41.8429 29.4807C41.817 29.3679 41.8373 29.2503 41.9 29.1506L42 29L41 29.1373Z" fill="#458B83"/>
</svg>
