<svg width="61" height="62" viewBox="0 0 61 62" fill="none" xmlns="http://www.w3.org/2000/svg">
<path fill-rule="evenodd" clip-rule="evenodd" d="M25.7392 10.2734C26.5667 10.6038 27.0836 10.8415 27.2108 11.5853C27.3188 12.2172 26.8752 12.8277 26.4991 13.2702C26.0208 13.8305 25.0391 15.243 25.1356 17.4766C25.2319 19.7102 26.6013 21.1631 27.9842 21.793C29.9225 22.676 31.7529 24.1851 31.8667 26.3085C32.0056 28.8957 29.4674 30.1555 27.3381 29.8348C25.2088 29.514 21.4942 27.151 19.9898 22.4365C18.4854 17.722 19.9648 12.4799 21.3032 10.7487C21.3032 10.7487 13.8199 13.5407 10.2345 21.1168C6.64902 28.6929 7.61915 36.4951 11.4322 42.5756C11.4322 42.5756 11.9954 35.9791 15.1083 34.5551C18.2212 33.1311 20.5703 36.9259 21.4498 39.0436C22.3293 41.1613 23.3322 41.1246 24.0304 41.0086C24.7286 40.8926 25.527 39.8358 26.0401 38.404C26.5531 36.9723 27.7103 34.0238 30.4433 33.62C33.1763 33.2161 35.8591 35.6236 36.5881 38.7943C37.2555 41.6907 36.16 44.2006 35.0028 45.5956C33.3518 47.5838 29.0276 50.5768 21.6427 50.9207C21.6427 50.9207 29.4481 54.0508 37.6875 50.0106C45.9269 45.9705 47.086 36.1299 46.1583 31.4829C45.2306 26.8361 42.8544 23.8141 39.8534 21.8994C37.6444 20.4893 34.9707 19.885 33.184 19.4811C32.7866 19.3914 32.4333 19.3114 32.1387 19.2348C30.6207 18.8388 29.8146 17.6543 30.0537 16.3192C30.0537 16.3192 31.3748 17.38 33.2804 17.7104C35.186 18.0408 37.4985 18.4388 38.5535 18.6108C39.6084 18.7827 40.4879 17.7567 40.8197 17.2563C41.1514 16.7559 40.9971 16.0216 40.6326 15.7569C40.5998 15.7331 40.5585 15.7033 40.51 15.6683L40.5088 15.6674L40.5087 15.6674C40.0182 15.3133 38.7965 14.4315 38.1407 13.8131C37.703 13.4013 37.4925 12.9668 37.2717 12.511C36.9963 11.9425 36.7047 11.3408 35.9363 10.7081C34.5514 9.56815 31.1164 7.7461 25.7335 10.2753L25.7392 10.2734ZM30.3237 14.5242C30.3237 14.5242 31.0392 13.7281 32.6111 13.7281C34.183 13.7281 35.7471 14.7155 36.2718 15.1579C36.2718 15.1579 35.8011 13.1678 34.3064 12.0761C32.8117 10.9844 31.7451 11.452 31.1183 12.0761C30.544 12.648 30.4052 13.8217 30.3385 14.3858C30.3324 14.4373 30.3269 14.4838 30.3218 14.5242H30.3237ZM53.365 17.6052C53.3654 17.6048 53.3656 17.6045 53.3659 17.6041V17.6003C53.3656 17.6019 53.3654 17.6036 53.365 17.6052ZM47.4583 19.0822C47.8767 20.4828 51.6231 19.9558 53.365 17.6052C52.6786 21.8985 49.2606 23.2421 46.8199 22.8906C45.9224 22.7627 44.7536 22.0557 43.5048 21.3002C42.7729 20.8575 42.0135 20.3982 41.2653 20.029C42.6906 19.8495 43.3802 19.0156 44.0803 18.169C45.1811 16.8379 46.3078 15.4755 50.361 16.5762C49.2134 16.7115 47.034 17.6814 47.4583 19.0822Z" fill="#311772"/>
</svg>
