<svg width="64" height="64" viewBox="0 0 64 64" fill="none" xmlns="http://www.w3.org/2000/svg">
<g clip-path="url(#clip0_1042_20044)">
<path d="M50.9995 20.03H51V45.1134H50.9995C50.9243 50.0279 43.128 54 33.5217 54C23.9153 54 16.1191 50.0279 16.0439 45.1134H16.0433V20.03H16.0439C16.1191 24.9445 23.9153 28.9167 33.5217 28.9167C43.128 28.9167 50.9243 24.9445 50.9995 20.03Z" fill="url(#paint0_linear_1042_20044)"/>
<path fill-rule="evenodd" clip-rule="evenodd" d="M33.5217 28.9166C23.8687 28.9166 16.0433 24.9059 16.0433 19.9584C16.0433 15.0108 23.8687 11 33.5217 11C43.1747 11 51 15.0108 51 19.9584C51 24.9059 43.1747 28.9166 33.5217 28.9166ZM33.4518 24.545C28.6253 24.545 24.7126 22.5396 24.7126 20.0658C24.7126 17.592 28.6253 15.5867 33.4518 15.5867C38.2783 15.5867 42.1909 17.592 42.1909 20.0658C42.1909 22.5396 38.2783 24.545 33.4518 24.545Z" fill="#8D6AF1"/>
<path d="M39.1146 41.3668V47.8733C39.1146 48.2402 39.5012 48.4702 39.8119 48.2882L44.7524 45.3942C44.8977 45.3091 44.9873 45.1508 44.9873 44.9793V30.9125C44.9873 30.54 44.5899 30.3108 44.2793 30.5041L33.8305 37.0095C33.6834 37.1011 33.499 37.1021 33.3508 37.0121L22.6197 30.491C22.309 30.3022 21.9159 30.5317 21.9159 30.902V45.2542C21.9159 45.432 22.0121 45.595 22.1657 45.6774L27.1063 48.3302C27.4166 48.4969 27.7886 48.2661 27.7886 47.907V41.3462C27.7886 40.9802 28.1737 40.7501 28.4844 40.9305L33.356 43.7583C33.5016 43.8428 33.6802 43.8408 33.824 43.7532L38.4102 40.9562C38.7209 40.7667 39.1146 40.9962 39.1146 41.3668Z" fill="white"/>
</g>
<defs>
<linearGradient id="paint0_linear_1042_20044" x1="33.5217" y1="23.9" x2="33.5217" y2="54" gradientUnits="userSpaceOnUse">
<stop stop-color="#35198E"/>
<stop offset="1" stop-color="#8D6AF1"/>
</linearGradient>
<clipPath id="clip0_1042_20044">
<rect width="35" height="43" fill="white" transform="matrix(-1 0 0 1 51 11)"/>
</clipPath>
</defs>
</svg>
