<svg width="64" height="64" viewBox="0 0 64 64" fill="none" xmlns="http://www.w3.org/2000/svg">
<path d="M51.0338 27.6596C52.0687 24.5549 51.7135 21.1566 50.0607 18.3299C47.5738 14.0048 42.569 11.7804 37.6879 12.8154C36.6108 11.6083 35.2895 10.644 33.8115 9.98624C32.3336 9.32849 30.7327 8.99236 29.115 9.00013C24.1258 9.00013 19.6926 12.213 18.1479 16.9551C14.9351 17.6193 12.1701 19.6273 10.5482 22.4695C8.04587 26.7945 8.61739 32.2317 11.9692 35.9389C10.9344 39.0438 11.2896 42.442 12.9424 45.2533C15.4293 49.5939 20.434 51.8181 25.3306 50.7832C27.4932 53.2237 30.6134 54.6294 33.8881 54.614C38.8773 54.614 43.3105 51.401 44.8552 46.6589C48.0681 45.9947 50.833 43.9867 52.4394 41.1445C54.9572 36.8194 54.3857 31.3822 51.0338 27.675V27.6596ZM47.481 19.8281C48.4696 21.5582 48.8404 23.5817 48.5005 25.5434C48.4387 25.4971 48.3152 25.4353 48.238 25.3889L39.1553 20.137C38.9268 20.0079 38.6687 19.9401 38.4062 19.9401C38.1436 19.9401 37.8856 20.0079 37.657 20.137L27.0143 26.2849V21.7745L35.8034 16.6925C39.8968 14.3292 45.1177 15.7348 47.481 19.8281ZM27.0143 29.2042L31.4939 26.6092L35.9733 29.2042V34.3789L31.4939 36.9739L27.0143 34.3789V29.2042ZM29.0995 11.9812C31.1077 11.9812 33.0385 12.6764 34.5831 13.9584C34.5214 13.9893 34.3978 14.0665 34.3051 14.1129L25.2225 19.3494C24.7591 19.612 24.481 20.1063 24.481 20.6469V32.9424L20.573 30.6872V20.5232C20.573 15.7966 24.3884 11.9813 29.115 11.9659L29.0995 11.9812ZM13.1432 23.968C14.1472 22.2379 15.7074 20.9095 17.5918 20.2144V31.0115C17.5918 31.5521 17.8699 32.031 18.3333 32.309L28.9606 38.4414L25.0371 40.712L16.2634 35.6455C12.1855 33.2822 10.7799 28.0612 13.1432 23.9679V23.968ZM15.5375 43.786C14.5334 42.0714 14.1781 40.0325 14.518 38.0707C14.5798 38.117 14.7033 38.1788 14.7805 38.2251L23.8632 43.4771C24.0917 43.6062 24.3498 43.674 24.6123 43.674C24.8749 43.674 25.1329 43.6062 25.3615 43.4771L35.9887 37.3293V41.8397L27.1996 46.9062C23.1063 49.2541 17.8854 47.8638 15.522 43.786H15.5375ZM33.9035 51.6329C31.9108 51.6329 29.9646 50.9378 28.4354 49.6556C28.5295 49.6068 28.6222 49.5553 28.7134 49.5012L37.7961 44.2648C38.2594 44.0023 38.5529 43.5079 38.5375 42.9673V30.6871L42.4455 32.9423V43.0908C42.4455 47.8174 38.6147 51.6482 33.9035 51.6482V51.6328V51.6329ZM49.8752 39.6462C48.8712 41.3762 47.2956 42.7046 45.4266 43.3842V32.5871C45.4266 32.0465 45.1485 31.5522 44.6852 31.2896L34.0425 25.1418L37.9505 22.8866L46.7396 27.953C50.833 30.3164 52.2232 35.5374 49.8599 39.6307L49.8753 39.6462H49.8752Z" fill="black"/>
</svg>
