<svg xmlns="http://www.w3.org/2000/svg" width="786.257" height="391.16" viewBox="0 0 208.031 103.494">
  <g style="fill:#003;fill-opacity:1;stroke:none;stroke-opacity:1" transform="matrix(.26458 0 0 .26458 0 0)">
    <rect width="27" height="76.112" y="293.875" ry="4.421" style="fill:#366f9e;fill-opacity:1;fill-rule:evenodd;stroke:none;stroke-width:.984528;stroke-opacity:1"/>
    <g style="fill:#003;fill-opacity:1;stroke:none;stroke-opacity:1" transform="translate(-15.492 -13.427)">
      <rect width="27" height="94.797" x="55.5" y="218.902" ry="6.392" style="fill:#366f9e;fill-opacity:1;fill-rule:evenodd;stroke:none;stroke-width:.984849;stroke-opacity:1"/>
      <rect width="27" height="80.064" x="55.5" y="324.522" ry="4.421" style="fill:#366f9e;fill-opacity:1;fill-rule:evenodd;stroke:none;stroke-width:.970672;stroke-opacity:1"/>
    </g>
    <g style="fill:#003;fill-opacity:1;stroke:none;stroke-opacity:1" transform="translate(-15.5 -13.427)">
      <rect width="27" height="142.215" x="95.515" y="129.666" ry="4.421" style="fill:#366f9e;fill-opacity:1;fill-rule:evenodd;stroke:none;stroke-width:.984849;stroke-opacity:1"/>
      <rect width="27" height="50.206" x="95.515" y="284.412" ry="4.421" style="fill:#366f9e;fill-opacity:1;fill-rule:evenodd;stroke:none;stroke-width:1.00649;stroke-opacity:1"/>
      <rect width="27" height="36.254" x="95.515" y="368.332" ry="6.392" style="fill:#366f9e;fill-opacity:1;fill-rule:evenodd;stroke:none;stroke-width:.985304;stroke-opacity:1"/>
    </g>
    <g style="fill:#003;fill-opacity:1;stroke:none;stroke-opacity:1" transform="translate(-15.477 -13.427)">
      <rect width="27" height="103.173" x="135.5" y="66.411" ry="4.421" style="fill:#366f9e;fill-opacity:1;fill-rule:evenodd;stroke:none;stroke-width:.984849;stroke-opacity:1"/>
      <rect width="27" height="136.684" x="135.5" y="181.079" ry="4.411" style="fill:#366f9e;fill-opacity:1;fill-rule:evenodd;stroke:none;stroke-width:.984849;stroke-opacity:1"/>
    </g>
    <g style="fill:#003;fill-opacity:1;stroke:none;stroke-opacity:1" transform="translate(-15.975 -13.427)">
      <rect width="27" height="71.745" x="176" y="46.946" ry="4.421" style="fill:#366f9e;fill-opacity:1;fill-rule:evenodd;stroke:none;stroke-width:1.02196;stroke-opacity:1"/>
      <rect width="27" height="99.352" x="176.009" y="129.756" ry="4.421" style="fill:#366f9e;fill-opacity:1;fill-rule:evenodd;stroke:none;stroke-width:1.02232;stroke-opacity:1"/>
      <rect width="27" height="90.158" x="176.009" y="242.14" ry="4.421" style="fill:#366f9e;fill-opacity:1;fill-rule:evenodd;stroke:none;stroke-width:1.02232;stroke-opacity:1"/>
    </g>
    <g style="fill:#003;fill-opacity:1;stroke:none;stroke-opacity:1" transform="translate(-15.191 -13.427)">
      <rect width="27" height="130.892" x="215.229" y="31.17" ry="6.392" style="fill:#366f9e;fill-opacity:1;fill-rule:evenodd;stroke:none;stroke-width:.985304;stroke-opacity:1"/>
      <rect width="27" height="40.196" x="215.229" y="175.098" ry="6.392" style="fill:#366f9e;fill-opacity:1;fill-rule:evenodd;stroke:none;stroke-width:.985304;stroke-opacity:1"/>
      <rect width="26.982" height="134.834" x="215.229" y="224.402" ry="6.392" style="fill:#ffcb3b;fill-opacity:1;fill-rule:evenodd;stroke:none;stroke-width:.985304;stroke-opacity:1"/>
    </g>
    <g style="fill:#003;fill-opacity:1;stroke:none;stroke-opacity:1" transform="translate(-14.608 -13.427)">
      <rect width="27" height="36.254" x="254.653" y="15.402" ry="6.392" style="fill:#366f9e;fill-opacity:1;fill-rule:evenodd;stroke:none;stroke-width:.985304;stroke-opacity:1"/>
      <rect width="27" height="193.99" x="254.653" y="62.714" ry="6.392" style="fill:#366f9e;fill-opacity:1;fill-rule:evenodd;stroke:none;stroke-width:.985304;stroke-opacity:1"/>
      <rect width="27" height="61.88" x="254.653" y="269.744" ry="6.392" style="fill:#ffcb3b;fill-opacity:1;fill-rule:evenodd;stroke:none;stroke-width:.985304;stroke-opacity:1"/>
      <rect width="27" height="44.139" x="254.653" y="344.674" ry="6.392" style="fill:#ffcb3b;fill-opacity:1;fill-rule:evenodd;stroke:none;stroke-width:.985304;stroke-opacity:1"/>
    </g>
    <g style="fill:#003;fill-opacity:1;stroke:none;stroke-opacity:1" transform="translate(-16.007 -13.427)">
      <rect width="27" height="69.784" x="296.059" y="334.802" ry="6.392" style="fill:#ffcb3b;fill-opacity:1;fill-rule:evenodd;stroke:none;stroke-width:.985304;stroke-opacity:1"/>
      <rect width="27" height="152.575" x="296.059" y="137.649" ry="6.392" style="fill:#ffcb3b;fill-opacity:1;fill-rule:evenodd;stroke:none;stroke-width:.985304;stroke-opacity:1"/>
      <rect width="27" height="111.17" x="296.059" y="13.427" ry="6.392" style="fill:#366f9e;fill-opacity:1;fill-rule:evenodd;stroke:none;stroke-width:.985304;stroke-opacity:1"/>
    </g>
    <g style="fill:#003;fill-opacity:1;stroke:none;stroke-opacity:1" transform="translate(-15.425 -13.427)">
      <rect width="27" height="40.196" x="335.484" y="364.39" ry="6.392" style="fill:#ffcb3b;fill-opacity:1;fill-rule:evenodd;stroke:none;stroke-width:.985304;stroke-opacity:1"/>
      <rect width="27" height="180.182" x="335.484" y="15.399" ry="6.392" style="fill:#366f9e;fill-opacity:1;fill-rule:evenodd;stroke:none;stroke-width:.985304;stroke-opacity:1"/>
      <rect width="27" height="81.602" x="335.484" y="208.626" ry="6.392" style="fill:#ffcb3b;fill-opacity:1;fill-rule:evenodd;stroke:none;stroke-width:.985304;stroke-opacity:1"/>
    </g>
    <g style="fill:#003;fill-opacity:1;stroke:none;stroke-opacity:1" transform="translate(-14.86 -13.427)">
      <rect width="27" height="59.909" x="374.928" y="23.285" ry="6.392" style="fill:#366f9e;fill-opacity:1;fill-rule:evenodd;stroke:none;stroke-width:.985304;stroke-opacity:1"/>
      <rect width="27" height="193.981" x="374.928" y="96.23" ry="6.392" style="fill:#ffcb3b;fill-opacity:1;fill-rule:evenodd;stroke:none;stroke-width:.985304;stroke-opacity:1"/>
    </g>
    <g style="fill:#003;fill-opacity:1;stroke:none;stroke-opacity:1" transform="translate(-15.933 -13.427)">
      <rect width="27" height="117.093" x="416" y="27.23" ry="6.392" style="fill:#366f9e;fill-opacity:1;fill-rule:evenodd;stroke:none;stroke-width:.985304;stroke-opacity:1"/>
      <rect width="27" height="99.352" x="416" y="157.365" ry="6.392" style="fill:#ffcb3b;fill-opacity:1;fill-rule:evenodd;stroke:none;stroke-width:.985304;stroke-opacity:1"/>
      <rect width="27" height="52.024" x="416" y="269.738" ry="6.392" style="fill:#ffcb3b;fill-opacity:1;fill-rule:evenodd;stroke:none;stroke-width:.985304;stroke-opacity:1"/>
    </g>
    <g style="fill:#003;fill-opacity:1;stroke:none;stroke-opacity:1" transform="translate(-15.933 -13.427)">
      <rect width="27" height="174.268" x="455.764" y="33.151" ry="6.392" style="fill:#366f9e;fill-opacity:1;fill-rule:evenodd;stroke:none;stroke-width:.985304;stroke-opacity:1"/>
      <rect width="27" height="140.748" x="455.764" y="220.459" ry="6.392" style="fill:#ffcb3b;fill-opacity:1;fill-rule:evenodd;stroke:none;stroke-width:.985304;stroke-opacity:1"/>
    </g>
    <g style="fill:#003;fill-opacity:1;stroke:none;stroke-opacity:1" transform="translate(-15.933 -13.427)">
      <rect width="27" height="81.602" x="495.5" y="27.232" ry="6.392" style="fill:#366f9e;fill-opacity:1;fill-rule:evenodd;stroke:none;stroke-width:.985304;stroke-opacity:1"/>
      <rect width="27" height="213.712" x="495.5" y="121.871" ry="6.392" style="fill:#ffcb3b;fill-opacity:1;fill-rule:evenodd;stroke:none;stroke-width:.985304;stroke-opacity:1"/>
      <rect width="27" height="50.053" x="495.5" y="348.614" ry="6.392" style="fill:#ffd54f;fill-opacity:1;fill-rule:evenodd;stroke:none;stroke-width:.985304;stroke-opacity:1"/>
    </g>
    <g style="fill:#003;fill-opacity:1;stroke:none;stroke-opacity:1" transform="translate(-15.933 -13.427)">
      <rect width="27" height="67.803" x="535.5" y="336.783" ry="6.392" style="fill:#ffd54f;fill-opacity:1;fill-rule:evenodd;stroke:none;stroke-width:.985304;stroke-opacity:1"/>
      <rect width="27" height="50.062" x="535.5" y="169.192" ry="6.392" style="fill:#ffcb3b;fill-opacity:1;fill-rule:evenodd;stroke:none;stroke-width:.985304;stroke-opacity:1"/>
      <rect width="27" height="130.892" x="535.5" y="25.259" ry="6.392" style="fill:#366f9e;fill-opacity:1;fill-rule:evenodd;stroke:none;stroke-width:.985304;stroke-opacity:1"/>
    </g>
    <g style="fill:#003;fill-opacity:1;stroke:none;stroke-opacity:1" transform="translate(-15.933 -13.427)">
      <rect width="27" height="162.441" x="576.046" y="35.123" ry="6.392" style="fill:#366f9e;fill-opacity:1;fill-rule:evenodd;stroke:none;stroke-width:.985304;stroke-opacity:1"/>
      <rect width="27" height="36.254" x="576.046" y="368.332" ry="6.392" style="fill:#ffcb3b;fill-opacity:1;fill-rule:evenodd;stroke:none;stroke-width:.985304;stroke-opacity:1"/>
    </g>
    <g style="fill:#003;fill-opacity:1;stroke:none;stroke-opacity:1" transform="translate(-15.933 -13.427)">
      <rect width="27" height="50.062" x="615.488" y="46.954" ry="6.392" style="fill:#ffcb3b;fill-opacity:1;fill-rule:evenodd;stroke:none;stroke-width:.985304;stroke-opacity:1"/>
      <rect width="27" height="83.573" x="615.488" y="110.038" ry="6.392" style="fill:#ffcb3b;fill-opacity:1;fill-rule:evenodd;stroke:none;stroke-width:.985304;stroke-opacity:1"/>
    </g>
    <g style="fill:#003;fill-opacity:1;stroke:none;stroke-opacity:1" transform="translate(-15.933 -13.427)">
      <rect width="27" height="36.254" x="656" y="56.798" ry="6.392" style="fill:#ffcb3b;fill-opacity:1;fill-rule:evenodd;stroke:none;stroke-width:.985304;stroke-opacity:1"/>
      <rect width="27" height="34.283" x="656" y="104.121" ry="6.392" style="fill:#ffcb3b;fill-opacity:1;fill-rule:evenodd;stroke:none;stroke-width:.985304;stroke-opacity:1"/>
      <rect width="27" height="48.081" x="656" y="149.466" ry="6.392" style="fill:#ffcb3b;fill-opacity:1;fill-rule:evenodd;stroke:none;stroke-width:.985304;stroke-opacity:1"/>
    </g>
    <rect width="27" height="134.834" x="680.067" y="55.209" ry="6.392" style="fill:#ffcb3b;fill-opacity:1;fill-rule:evenodd;stroke:none;stroke-width:.985304;stroke-opacity:1"/>
    <rect width="27" height="95.4" x="719.819" y="90.692" ry="6.392" style="fill:#ffcb3b;fill-opacity:1;fill-rule:evenodd;stroke:none;stroke-width:.985304;stroke-opacity:1"/>
    <rect width="27" height="36.254" x="759.257" y="136.043" ry="6.392" style="fill:#ffcb3b;fill-opacity:1;fill-rule:evenodd;stroke:none;stroke-width:.985304;stroke-opacity:1"/>
  </g>
</svg>
