<svg xmlns="http://www.w3.org/2000/svg" width="786.257" height="391.16" viewBox="0 0 208.031 103.494">
  <rect width="7.144" height="20.138" y="77.754" ry="1.17" style="fill:#cd792c;fill-opacity:1;fill-rule:evenodd;stroke:none;stroke-width:.26049;stroke-opacity:1"/>
  <rect width="7.144" height="25.082" x="10.585" y="54.365" ry="1.691" style="fill:#cd792c;fill-opacity:1;fill-rule:evenodd;stroke:none;stroke-width:.260575;stroke-opacity:1"/>
  <rect width="7.144" height="21.184" x="10.585" y="82.311" ry="1.17" style="fill:#cd792c;fill-opacity:1;fill-rule:evenodd;stroke:none;stroke-width:.256824;stroke-opacity:1"/>
  <rect width="7.144" height="37.628" x="21.171" y="30.755" ry="1.17" style="fill:#cd792c;fill-opacity:1;fill-rule:evenodd;stroke:none;stroke-width:.260575;stroke-opacity:1"/>
  <rect width="7.144" height="13.284" x="21.171" y="71.698" ry="1.17" style="fill:#cd792c;fill-opacity:1;fill-rule:evenodd;stroke:none;stroke-width:.2663;stroke-opacity:1"/>
  <rect width="7.144" height="9.592" x="21.171" y="93.902" ry="1.691" style="fill:#cd792c;fill-opacity:1;fill-rule:evenodd;stroke:none;stroke-width:.260695;stroke-opacity:1"/>
  <path d="M32.926 14.019h4.804c.648 0 1.17.522 1.17 1.17v24.958c0 .648-.522 1.17-1.17 1.17h-4.804c-.648 0-1.17-.522-1.17-1.17V15.19c0-.648.522-1.17 1.17-1.17z" style="fill:#cd792c;fill-opacity:1;fill-rule:evenodd;stroke:none;stroke-width:.260575;stroke-opacity:1"/>
  <rect width="7.144" height="36.164" x="31.756" y="44.358" ry="1.167" style="fill:#cd792c;fill-opacity:1;fill-rule:evenodd;stroke:none;stroke-width:.260575;stroke-opacity:1"/>
  <path d="M164.445 33.52a4.41 4.41 0 0 0-4.42 4.42v62.904c0 2.449 1.971 4.422 4.42 4.422h15.875l6.145-2.303c.346-.631.56-1.346.56-2.12v-.68l-8.394-11.684a4.07 4.07 0 0 1 2.65-6.385l5.744-.938V37.94c0-2.449-1.972-4.42-4.421-4.42h-18.159z" style="fill:#cd792c;fill-opacity:1;fill-rule:evenodd;stroke:none;stroke-width:1.02196;stroke-opacity:1" transform="scale(.26458)"/>
  <path d="M164.455 116.33a4.41 4.41 0 0 0-4.42 4.42v90.51c0 2.449 1.971 4.422 4.42 4.422h18.158a4.413 4.413 0 0 0 4.422-4.422v-14.84l-5.754-.94a4.07 4.07 0 0 1-2.65-6.392l8.404-11.69v-2.574l-14.34-5.373a4.07 4.07 0 0 1-1.351-6.783l12.344-11.531-14.366-8.889a4.07 4.07 0 0 1 0-6.924l14.358-8.887-10.813-10.107h-8.412zm19.86 19.29-5.116 3.167 5.115 3.166c-.027-1.078-.316-2.081-.316-3.166 0-1.084.289-2.09.316-3.168zm1.824 24.36-4.438 4.149 5.334 2v-.885c-.345-1.74-.594-3.502-.896-5.264z" style="fill:#cd792c;fill-opacity:1;fill-rule:evenodd;stroke:none;stroke-width:1.02232;stroke-opacity:1" transform="scale(.26458)"/>
  <rect width="7.144" height="23.854" x="42.343" y="60.514" ry="1.17" style="fill:#cd792c;fill-opacity:1;fill-rule:evenodd;stroke:none;stroke-width:.270489;stroke-opacity:1"/>
  <path d="M206.43 17.744a6.377 6.377 0 0 0-6.393 6.39v34.272l11.65.412-3.876-16.453a4.07 4.07 0 0 1 4.894-4.894l14.332 3.373v-16.71a6.377 6.377 0 0 0-6.392-6.39H206.43zm10.816 29.152 1.387 5.891a124.84 124.84 0 0 1 4.496-4.502l-5.883-1.389zm-16.16 19.696 2.518 5.521c1.137-1.795 2.237-3.582 3.462-5.314l-5.98-.207zM200.037 195.242v.235a6.369 6.369 0 0 0 3.18 5.523 122.835 122.835 0 0 1-3.18-5.758zM211.688 218.748l-11.65.412v120.258a6.379 6.379 0 0 0 6.392 6.393h14.197a6.379 6.379 0 0 0 6.393-6.393V236.734l-14.315 3.37a4.07 4.07 0 0 1-4.894-4.895l3.876-16.46zm6.945 6.037-1.387 5.885 5.883-1.389a124.873 124.873 0 0 1-4.496-4.496zM246.438 1.975a6.379 6.379 0 0 0-6.393 6.392v14.854l9.666 4.41 2.725-16.692a4.07 4.07 0 0 1 6.392-2.65l8.217 5.904V8.367a6.379 6.379 0 0 0-6.393-6.392h-14.214zm12.972 16.76-.951 5.84c1.925-.858 3.916-1.529 5.89-2.29l-4.939-3.55zm-19.35 13.44c.043.805.232 1.566.544 2.263.615-.392 1.23-.781 1.851-1.174l-2.394-1.088zM246.438 256.318a6.377 6.377 0 0 0-6.393 6.391v49.098a6.377 6.377 0 0 0 6.393 6.39h14.214a6.377 6.377 0 0 0 6.393-6.39v-48.432l-8.217 5.908a4.07 4.07 0 0 1-6.392-2.648l-1.684-10.317h-4.315zm12.562 0 .41 2.52 3.12-2.242a6.435 6.435 0 0 0-1.878-.278H259z" style="fill:#cd792c;fill-opacity:1;fill-rule:evenodd;stroke:none;stroke-width:.985304;stroke-opacity:1" transform="scale(.26458)"/>
  <rect width="7.144" height="11.678" x="63.512" y="87.643" ry="1.691" style="fill:#cd792c;fill-opacity:1;fill-rule:evenodd;stroke:none;stroke-width:.260695;stroke-opacity:1"/>
  <rect width="7.144" height="18.464" x="74.097" y="85.031" ry="1.691" style="fill:#cd792c;fill-opacity:1;fill-rule:evenodd;stroke:none;stroke-width:.260695;stroke-opacity:1"/>
  <path d="m281.71 260.684 2.075 5.529 4.149-4.436c-2.086-.358-4.174-.633-6.223-1.093zm24.25 2.916 1.093 1.763v-1.66c-.36-.049-.721-.094-1.092-.103zm-9.183.627-11.529 12.343a4.07 4.07 0 0 1-.096.098c.417.085.849.129 1.291.129h14.217a6.37 6.37 0 0 0 3.322-.934l-7.205-11.636zM286.443 0c-.707 0-1.384.118-2.02.328a4.07 4.07 0 0 1 .825.676l11.53 12.336 7.546-12.186A6.367 6.367 0 0 0 300.66 0h-14.217zm-2.658 11.354-2.074 5.529c2.049-.46 4.137-.736 6.223-1.094l-4.149-4.435zm23.268.845-1.1 1.776c.374-.01.737-.054 1.1-.104V12.2z" style="fill:#cd792c;fill-opacity:1;fill-rule:evenodd;stroke:none;stroke-width:.985304;stroke-opacity:1" transform="scale(.26458)"/>
  <rect width="7.144" height="10.635" x="84.682" y="92.859" ry="1.691" style="fill:#cd792c;fill-opacity:1;fill-rule:evenodd;stroke:none;stroke-width:.260695;stroke-opacity:1"/>
  <path d="M326.451 1.973a6.379 6.379 0 0 0-6.392 6.392v2.678l1.418 2.289 10.625-11.36h-5.65zm13.174 0a4.07 4.07 0 0 1 .166.382l5.922 15.797 1.346-.966v-8.82a6.377 6.377 0 0 0-6.391-6.393h-1.043zm-5.148 9.38-4.149 4.436c2.083.358 4.169.634 6.215 1.094l-2.066-5.53zM345.713 259.422l-5.922 15.797a4.07 4.07 0 0 1-1.072 1.582h1.949c3.541 0 6.39-2.85 6.39-6.39v-10.022l-1.345-.967zm-9.17 1.262c-2.046.46-4.132.736-6.215 1.093l4.149 4.436 2.066-5.53zm-15.066 3.55-1.418 2.291v3.885a6.377 6.377 0 0 0 6.392 6.39h6.791a4.07 4.07 0 0 1-.234-.23l-11.531-12.336zM366.459 9.857c-.318 0-.628.03-.934.075a4.07 4.07 0 0 1 .303 1.007l2.725 16.684 15.383-7.014a4.07 4.07 0 0 1 3.13-.101V16.25a6.377 6.377 0 0 0-6.39-6.393h-14.217zm14.863 20.89-5.513 2.517c1.792 1.136 3.577 2.23 5.306 3.453l.207-5.97zM381.115 240.85c-1.732 1.225-3.519 2.323-5.314 3.46l5.521 2.518-.207-5.978zm-12.562 9.093-2.725 16.692a4.07 4.07 0 0 1-5.762 3.021v.737a6.377 6.377 0 0 0 6.393 6.39h14.217c3.541 0 6.39-2.85 6.39-6.39v-13.334a4.07 4.07 0 0 1-3.13-.102l-15.383-7.014zM406.459 13.803a6.379 6.379 0 0 0-6.393 6.392v18.567l5.485-1.291a4.07 4.07 0 0 1 4.892 4.894l-3.875 16.453 16.891-.597a4.07 4.07 0 0 1 3.607 1.933V20.195a6.377 6.377 0 0 0-6.39-6.392h-14.217zm-5.441 33.093-.952.225v3.81l.952-4.035zm26.048 17.606-6.775 14.867 6.775 1.108V64.502zm-9.898 2.09-5.97.207c1.223 1.731 2.317 3.52 3.454 5.314l2.516-5.521zm6.172 21.525c.857 1.926 1.536 3.915 2.297 5.89l1.43-1.991v-3.291l-3.727-.608zM425.629 183.564c-.761 1.975-1.432 3.966-2.29 5.891l3.727-.607v-3.284l-1.437-2zm1.437 13.534-6.775 1.105 6.775 14.87v-15.975zm-12.414 8.361c-1.135 1.793-2.232 3.579-3.455 5.309l5.971.214-2.516-5.523zm12.414 11.947a4.07 4.07 0 0 1-3.607 1.94l-16.89-.598 3.874 16.461a4.07 4.07 0 0 1-4.892 4.895l-5.166-1.217a6.376 6.376 0 0 0 6.074 4.404h14.217a6.377 6.377 0 0 0 6.39-6.393v-19.492zm-27 9.233v3.806l.952.225-.952-4.031z" style="fill:#cd792c;fill-opacity:1;fill-rule:evenodd;stroke:none;stroke-width:.985304;stroke-opacity:1" transform="scale(.26458)"/>
  <rect width="7.144" height="13.765" x="105.851" y="67.816" ry="1.691" style="fill:#cd792c;fill-opacity:1;fill-rule:evenodd;stroke:none;stroke-width:.260695;stroke-opacity:1"/>
  <path d="M446.223 19.725a6.379 6.379 0 0 0-6.393 6.392v57.944a4.07 4.07 0 0 1 0 4.101v17.815l5.73 2.146a4.07 4.07 0 0 1 1.35 6.783l-7.08 6.623v8.159l9.104 5.636a4.07 4.07 0 0 1 0 6.924l-9.104 5.637v8.164l7.08 6.619a4.07 4.07 0 0 1-1.35 6.783l-5.73 2.149v16.002a6.377 6.377 0 0 0 6.393 6.39h14.216c3.542 0 6.391-2.85 6.391-6.39V26.117a6.377 6.377 0 0 0-6.39-6.392h-14.217z" style="fill:#cd792c;fill-opacity:1;fill-rule:evenodd;stroke:none;stroke-width:7.59685;stroke-miterlimit:4;stroke-dasharray:none;stroke-opacity:1" transform="scale(.26458)"/>
  <rect width="7.144" height="37.24" x="116.372" y="54.777" ry="1.691" style="fill:#cd792c;fill-opacity:1;fill-rule:evenodd;stroke:none;stroke-width:.260695;stroke-opacity:1"/>
  <rect width="7.144" height="21.59" x="126.886" y="3.653" ry="1.691" style="fill:#cd792c;fill-opacity:1;fill-rule:evenodd;stroke:none;stroke-width:.260695;stroke-opacity:1"/>
  <rect width="7.144" height="56.545" x="126.886" y="28.693" ry="1.691" style="fill:#cd792c;fill-opacity:1;fill-rule:evenodd;stroke:none;stroke-width:.260695;stroke-opacity:1"/>
  <rect width="7.144" height="13.243" x="126.886" y="88.685" ry="1.691" style="fill:#cd792c;fill-opacity:1;fill-rule:evenodd;stroke:none;stroke-width:.260695;stroke-opacity:1"/>
  <rect width="7.144" height="17.94" x="137.469" y="85.555" ry="1.691" style="fill:#cd792c;fill-opacity:1;fill-rule:evenodd;stroke:none;stroke-width:.260695;stroke-opacity:1"/>
  <rect width="7.144" height="13.246" x="137.469" y="41.213" ry="1.691" style="fill:#cd792c;fill-opacity:1;fill-rule:evenodd;stroke:none;stroke-width:.260695;stroke-opacity:1"/>
  <rect width="7.144" height="34.632" x="137.469" y="3.131" ry="1.691" style="fill:#cd792c;fill-opacity:1;fill-rule:evenodd;stroke:none;stroke-width:.260695;stroke-opacity:1"/>
  <rect width="7.144" height="42.979" x="148.197" y="5.74" ry="1.691" style="fill:#cd792c;fill-opacity:1;fill-rule:evenodd;stroke:none;stroke-width:.260695;stroke-opacity:1"/>
  <rect width="7.144" height="9.592" x="148.197" y="93.902" ry="1.691" style="fill:#cd792c;fill-opacity:1;fill-rule:evenodd;stroke:none;stroke-width:.260695;stroke-opacity:1"/>
  <rect width="7.144" height="13.246" x="158.632" y="8.871" ry="1.691" style="fill:#cd792c;fill-opacity:1;fill-rule:evenodd;stroke:none;stroke-width:.260695;stroke-opacity:1"/>
  <rect width="7.144" height="22.112" x="158.632" y="25.562" ry="1.691" style="fill:#cd792c;fill-opacity:1;fill-rule:evenodd;stroke:none;stroke-width:.260695;stroke-opacity:1"/>
  <rect width="7.144" height="9.592" x="169.351" y="11.475" ry="1.691" style="fill:#cd792c;fill-opacity:1;fill-rule:evenodd;stroke:none;stroke-width:.260695;stroke-opacity:1"/>
  <rect width="7.144" height="9.071" x="169.351" y="23.996" ry="1.691" style="fill:#cd792c;fill-opacity:1;fill-rule:evenodd;stroke:none;stroke-width:.260695;stroke-opacity:1"/>
  <rect width="7.144" height="12.722" x="169.351" y="35.994" ry="1.691" style="fill:#cd792c;fill-opacity:1;fill-rule:evenodd;stroke:none;stroke-width:.260695;stroke-opacity:1"/>
  <rect width="7.144" height="35.675" x="179.934" y="14.607" ry="1.691" style="fill:#cd792c;fill-opacity:1;fill-rule:evenodd;stroke:none;stroke-width:.260695;stroke-opacity:1"/>
  <rect width="7.144" height="25.241" x="190.452" y="23.996" ry="1.691" style="fill:#cd792c;fill-opacity:1;fill-rule:evenodd;stroke:none;stroke-width:.260695;stroke-opacity:1"/>
  <rect width="7.144" height="9.592" x="200.887" y="35.995" ry="1.691" style="fill:#cd792c;fill-opacity:1;fill-rule:evenodd;stroke:none;stroke-width:.260695;stroke-opacity:1"/>
  <g style="fill:#cd792c;fill-opacity:1">
    <path d="M71.05 23.68c-26.06 0-47.27 21.22-47.27 47.27 0 26.05 21.22 47.27 47.27 47.27 26.05 0 47.27-21.22 47.27-47.27 0-26.05-21.22-47.27-47.27-47.27Zm-.07 4.2A3.1 3.11 0 0 1 74 30.99a3.11 3.11 0 0 1-6.22 0 3.11 3.11 0 0 1 3.2-3.11zM78.1 33a38.27 38.27 0 0 1 26.2 18.66l-3.67 8.28a2.86 2.86 0 0 0 1.44 3.75l7.06 3.13a38.27 38.27 0 0 1 .08 6.64h-3.93c-.39 0-.55.26-.55.64v1.8c0 4.24-2.39 5.17-4.49 5.4-2 .23-4.21-.84-4.49-2.06-1.18-6.63-3.14-8.04-6.24-10.49 3.85-2.44 7.85-6.05 7.85-10.87 0-5.21-3.57-8.49-6-10.1-3.42-2.25-7.2-2.7-8.22-2.7h-40.6A38.27 38.27 0 0 1 63.95 33l4.79 5.02a2.82 2.82 0 0 0 4 .09zM33.9 56.02a3.11 3.11 0 0 1 3.02 3.11 3.11 3.11 0 0 1-6.22 0 3.11 3.11 0 0 1 3.2-3.11zm74.15.14a3.11 3.11 0 0 1 3.02 3.11 3.11 3.11 0 0 1-6.22 0 3.11 3.11 0 0 1 3.2-3.11zm-68.29.5h5.42V81.1H34.24A38.27 38.27 0 0 1 33 66.49l6.7-2.98a2.832 2.832 0 0 0 1.44-3.74zm22.62.26h12.91c.67 0 4.71.77 4.71 3.8 0 2.51-3.1 3.41-5.65 3.41H62.37Zm0 17.56h9.89c.9 0 4.83.26 6.08 5.28.39 1.54 1.26 6.56 1.85 8.17.59 1.8 2.98 5.4 5.53 5.4h16.14a38.27 38.27 0 0 1-3.54 4.1l-6.57-1.41a2.84 2.84 0 0 0-3.37 2.18l-1.56 7.28a38.27 38.27 0 0 1-31.91-.15l-1.56-7.28A2.83 2.83 0 0 0 50 95.87l-6.43 1.38a38.27 38.27 0 0 1-3.32-3.92h31.27c.35 0 .59-.06.59-.39V81.88c0-.32-.24-.39-.59-.39h-9.15ZM47.95 99.81a3.11 3.11 0 0 1 3.02 3.11 3.11 3.11 0 0 1-6.22 0 3.11 3.11 0 0 1 3.2-3.11zm46.05.14a3.11 3.11 0 0 1 3.02 3.11 3.11 3.11 0 0 1-6.22 0 3.11 3.11 0 0 1 3.2-3.11z" style="fill:#cd792c;fill-opacity:1" transform="matrix(.66986 0 0 .66986 34.197 -10.806)"/>
    <path fill-rule="evenodd" stroke="#000" stroke-linecap="round" stroke-linejoin="round" stroke-width="3" d="M115.68 70.95a44.63 44.63 0 0 1-44.63 44.63 44.63 44.63 0 0 1-44.63-44.63 44.63 44.63 0 0 1 44.63-44.63 44.63 44.63 0 0 1 44.63 44.63Zm-.84-4.31 6.96 4.31-6.96 4.31 5.98 5.59-7.66 2.87 4.78 6.65-8.09 1.32 3.4 7.46-8.19-.29 1.88 7.98-7.98-1.88.29 8.19-7.46-3.4-1.32 8.09-6.65-4.78-2.87 7.66-5.59-5.98-4.31 6.96-4.31-6.96-5.59 5.98-2.87-7.66-6.65 4.78-1.32-8.09-7.46 3.4.29-8.19-7.98 1.88 1.88-7.98-8.19.29 3.4-7.46-8.09-1.32 4.78-6.65-7.66-2.87 5.98-5.59-6.96-4.31 6.96-4.31-5.98-5.59 7.66-2.87-4.78-6.65 8.09-1.32-3.4-7.46 8.19.29-1.88-7.98 7.98 1.88-.29-8.19 7.46 3.4 1.32-8.09 6.65 4.78 2.87-7.66 5.59 5.98 4.31-6.96 4.31 6.96 5.59-5.98 2.87 7.66 6.65-4.78 1.32 8.09 7.46-3.4-.29 8.19 7.98-1.88-1.88 7.98 8.19-.29-3.4 7.46 8.09 1.32-4.78 6.65 7.66 2.87z" style="fill:#cd792c;fill-opacity:1;stroke:#cd792c;stroke-width:3.00064;stroke-miterlimit:4;stroke-dasharray:none;stroke-opacity:1" transform="matrix(.66986 0 0 .66986 34.197 -10.806)"/>
  </g>
</svg>
