<svg width="100" height="100" viewBox="0 0 100 100" fill="none" xmlns="http://www.w3.org/2000/svg">
<path fill-rule="evenodd" clip-rule="evenodd" d="M54.9769 20.8756C54.9769 24.0315 52.4185 26.5899 49.2626 26.5899C46.1067 26.5899 43.5483 24.0315 43.5483 20.8756C43.5483 17.7197 46.1067 15.1613 49.2626 15.1613C52.4185 15.1613 54.9769 17.7197 54.9769 20.8756ZM54.6544 30.3227C53.0651 31.2316 51.2245 31.7512 49.2626 31.7512C43.2562 31.7512 38.387 26.882 38.387 20.8756C38.387 14.8692 43.2562 10 49.2626 10C55.269 10 60.1382 14.8692 60.1382 20.8756C60.1382 23.0488 59.5008 25.0731 58.4027 26.7718L72.4907 40.8598C74.1893 39.7617 76.2137 39.1243 78.3869 39.1243C84.3933 39.1243 89.2625 43.9935 89.2625 49.9999C89.2625 56.0063 84.3933 60.8755 78.3869 60.8755C76.3286 60.8755 74.4039 60.3037 72.7629 59.3103L58.573 73.5002C59.5664 75.1412 60.1382 77.0659 60.1382 79.1242C60.1382 85.1306 55.269 89.9998 49.2626 89.9998C43.2562 89.9998 38.387 85.1306 38.387 79.1242C38.387 73.1178 43.2562 68.2486 49.2626 68.2486C51.3401 68.2486 53.2815 68.8311 54.9324 69.8417L69.1044 55.6697C68.5586 54.778 68.1377 53.8017 67.8659 52.7649L59.7836 52.7649C58.5603 57.4322 54.3136 60.8755 49.2626 60.8755C44.2116 60.8755 39.9649 57.4322 38.7416 52.7649L31.3965 52.7649C30.1733 57.4322 25.9265 60.8755 20.8756 60.8755C14.8692 60.8755 10 56.0063 10 49.9999C10 43.9935 14.8692 39.1243 20.8756 39.1243C26.0587 39.1243 30.3949 42.7501 31.4863 47.6036H38.6519C39.7433 42.7501 44.0795 39.1243 49.2626 39.1243C54.4457 39.1243 58.7819 42.7501 59.8733 47.6036H67.7762C68.0159 46.5374 68.4123 45.5304 68.9398 44.6081L54.6544 30.3227ZM49.2626 55.7142C52.4185 55.7142 54.9769 53.1558 54.9769 49.9999C54.9769 46.844 52.4185 44.2856 49.2626 44.2856C46.1067 44.2856 43.5483 46.844 43.5483 49.9999C43.5483 53.1558 46.1067 55.7142 49.2626 55.7142ZM78.3869 55.7142C81.5428 55.7142 84.1012 53.1558 84.1012 49.9999C84.1012 46.844 81.5428 44.2856 78.3869 44.2856C75.231 44.2856 72.6726 46.844 72.6726 49.9999C72.6726 53.1558 75.231 55.7142 78.3869 55.7142ZM49.2626 84.8385C52.4185 84.8385 54.9769 82.2801 54.9769 79.1242C54.9769 75.9683 52.4185 73.4099 49.2626 73.4099C46.1067 73.4099 43.5483 75.9683 43.5483 79.1242C43.5483 82.2801 46.1067 84.8385 49.2626 84.8385ZM26.5899 49.9999C26.5899 53.1558 24.0315 55.7142 20.8756 55.7142C17.7197 55.7142 15.1613 53.1558 15.1613 49.9999C15.1613 46.844 17.7197 44.2856 20.8756 44.2856C24.0315 44.2856 26.5899 46.844 26.5899 49.9999Z" fill="#67748A"/>
</svg>
