<svg width="64" height="64" viewBox="0 0 64 64" fill="none" xmlns="http://www.w3.org/2000/svg">
<path d="M22.7462 36.2293C22.7462 38.0892 21.2442 39.5924 19.3858 39.5924C17.5274 39.5924 16.0255 38.0892 16.0255 36.2293C16.0255 34.3694 17.5274 32.8662 19.3858 32.8662H22.7462V36.2293ZM24.4264 36.2293C24.4264 34.3694 25.9284 32.8662 27.7868 32.8662C29.6452 32.8662 31.1472 34.3694 31.1472 36.2293V44.6369C31.1472 46.4968 29.6452 48 27.7868 48C25.9284 48 24.4264 46.4968 24.4264 44.6369V36.2293Z" fill="#E01E5A"/>
<path d="M27.7868 22.7261C25.9284 22.7261 24.4264 21.2229 24.4264 19.3631C24.4264 17.5032 25.9284 16 27.7868 16C29.6452 16 31.1472 17.5032 31.1472 19.3631V22.7261H27.7868ZM27.7868 24.4331C29.6452 24.4331 31.1472 25.9363 31.1472 27.7962C31.1472 29.6561 29.6452 31.1592 27.7868 31.1592H19.3604C17.502 31.1592 16 29.6561 16 27.7962C16 25.9363 17.502 24.4331 19.3604 24.4331H27.7868Z" fill="#36C5F0"/>
<path d="M41.2538 27.7962C41.2538 25.9363 42.7558 24.4331 44.6142 24.4331C46.4726 24.4331 47.9745 25.9363 47.9745 27.7962C47.9745 29.6561 46.4726 31.1592 44.6142 31.1592H41.2538V27.7962ZM39.5736 27.7962C39.5736 29.6561 38.0716 31.1592 36.2132 31.1592C34.3548 31.1592 32.8528 29.6561 32.8528 27.7962V19.3631C32.8528 17.5032 34.3548 16 36.2132 16C38.0716 16 39.5736 17.5032 39.5736 19.3631V27.7962Z" fill="#2EB67D"/>
<path d="M36.2132 41.2739C38.0716 41.2739 39.5736 42.7771 39.5736 44.6369C39.5736 46.4968 38.0716 48 36.2132 48C34.3548 48 32.8528 46.4968 32.8528 44.6369V41.2739H36.2132ZM36.2132 39.5924C34.3548 39.5924 32.8528 38.0892 32.8528 36.2293C32.8528 34.3694 34.3548 32.8662 36.2132 32.8662H44.6396C46.498 32.8662 48 34.3694 48 36.2293C48 38.0892 46.498 39.5924 44.6396 39.5924H36.2132Z" fill="#ECB22E"/>
</svg>
