<svg width="64" height="64" viewBox="0 0 64 64" fill="none" xmlns="http://www.w3.org/2000/svg">
<path d="M27.1877 25.2426L22.9554 22.8037C22.3609 22.4623 21.6005 22.6653 21.2564 23.2584C21.1231 23.4921 21.0708 23.7491 21.096 23.9989V28.7653C21.096 29.4464 21.651 30 22.3356 30C23.0185 30 23.5734 29.4464 23.5734 28.7653V26.0244L25.9445 27.3904C26.5391 27.7336 27.3012 27.5288 27.6436 26.9357C27.9877 26.3426 27.7841 25.5841 27.1877 25.2426Z" fill="#29B5E8"/>
<path d="M16.662 20.0162C16.6692 19.5758 16.4367 19.1661 16.0548 18.945L11.8225 16.5079C11.6387 16.4019 11.4279 16.3462 11.2171 16.3462C10.7829 16.3462 10.3793 16.578 10.1631 16.9518C9.82797 17.5306 10.028 18.2728 10.6081 18.6071L13.0477 20.0108L10.6081 21.4162C10.327 21.578 10.1253 21.8386 10.0424 22.1513C9.95769 22.4641 10.0009 22.7912 10.1631 23.0715C10.3793 23.4454 10.7829 23.6772 11.2153 23.6772C11.4279 23.6772 11.6387 23.6215 11.8225 23.5155L16.0548 21.0784C16.4331 20.8591 16.6656 20.4529 16.662 20.0162Z" fill="#29B5E8"/>
<path d="M12.7828 14.7807L17.0151 17.2178C17.5088 17.5036 18.1178 17.4101 18.5069 17.0309C18.7538 16.8045 18.9069 16.4809 18.9069 16.1215V11.2365C18.9069 10.5536 18.352 10 17.6691 10C16.9845 10 16.4295 10.5536 16.4295 11.2365V14.0169L14.026 12.633C13.4314 12.2897 12.6711 12.4928 12.327 13.0859C11.9828 13.679 12.1882 14.4375 12.7828 14.7807Z" fill="#29B5E8"/>
<path d="M22.2996 20.2139C22.2996 20.3073 22.2456 20.4367 22.1789 20.505L20.5015 22.1783C20.4348 22.2448 20.3033 22.2987 20.2096 22.2987H19.7826C19.6889 22.2987 19.5574 22.2448 19.4907 22.1783L17.8115 20.505C17.7448 20.4367 17.6908 20.3073 17.6908 20.2139V19.7879C17.6908 19.6927 17.7448 19.5633 17.8115 19.4968L19.4907 17.8217C19.5574 17.7552 19.6889 17.7013 19.7826 17.7013H20.2096C20.3033 17.7013 20.4348 17.7552 20.5015 17.8217L22.1789 19.4968C22.2456 19.5633 22.2996 19.6927 22.2996 19.7879V20.2139ZM20.8024 20.009V19.991C20.8024 19.9227 20.7627 19.8275 20.7141 19.7771L20.2186 19.2847C20.17 19.2344 20.0745 19.1948 20.0042 19.1948H19.9862C19.9177 19.1948 19.8222 19.2344 19.7718 19.2847L19.2781 19.7771C19.2294 19.8257 19.1898 19.9209 19.1898 19.991V20.009C19.1898 20.0791 19.2294 20.1743 19.2781 20.2229L19.7718 20.7171C19.8222 20.7656 19.9177 20.8052 19.9862 20.8052H20.0042C20.0745 20.8052 20.17 20.7656 20.2186 20.7171L20.7141 20.2229C20.7627 20.1743 20.8024 20.0791 20.8024 20.009Z" fill="#29B5E8"/>
<path d="M22.9554 17.2178L27.1877 14.7807C27.7823 14.4393 27.9877 13.679 27.6436 13.0859C27.2994 12.4928 26.5391 12.2897 25.9445 12.633L23.5734 13.9989V11.2365C23.5734 10.5536 23.0185 10 22.3356 10C21.651 10 21.096 10.5536 21.096 11.2365V16.0244C21.0726 16.2725 21.1213 16.5313 21.2564 16.7649C21.6005 17.358 22.3609 17.5611 22.9554 17.2178Z" fill="#29B5E8"/>
<path d="M17.8637 22.66C17.5827 22.606 17.2818 22.651 17.0151 22.8037L12.7828 25.2426C12.1882 25.5841 11.9828 26.3426 12.327 26.9357C12.6711 27.5306 13.4314 27.7336 14.026 27.3904L16.4295 26.0065V28.7653C16.4295 29.4464 16.9845 30 17.6691 30C18.352 30 18.9069 29.4464 18.9069 28.7653V23.8803C18.9069 23.2638 18.4547 22.7534 17.8637 22.66Z" fill="#29B5E8"/>
<path d="M29.8327 16.9375C29.4904 16.3426 28.7282 16.1395 28.1336 16.4827L23.9014 18.9198C23.496 19.1535 23.2725 19.5812 23.2798 20.0162C23.2762 20.4493 23.4996 20.8717 23.9014 21.1017L28.1336 23.5406C28.7282 23.8821 29.4886 23.679 29.8327 23.0859C30.1768 22.4928 29.9714 21.7344 29.3768 21.3911L26.9805 20.0108L29.3768 18.6305C29.9732 18.289 30.1768 17.5306 29.8327 16.9375Z" fill="#29B5E8"/>
<path d="M43.2958 32.9778H40.6881V38.6508H43.2958V32.9778Z" fill="#130754"/>
<path d="M43.2958 44.6312H40.6881V50.3042H43.2958V44.6312Z" fill="#130754"/>
<path d="M43.2958 40.3066H40.6881V42.9832H43.2958V40.3066Z" fill="#FFCA00"/>
<path d="M39.1077 37.6425H36.5V56.5H39.1077V37.6425Z" fill="#130754"/>
<path d="M47.3985 49.3118H44.7908V54.9848H47.3985V49.3118Z" fill="#130754"/>
<path d="M47.3985 37.6493H44.7908V43.3223H47.3985V37.6493Z" fill="#130754"/>
<path d="M47.3985 44.9782H44.7908V47.6548H47.3985V44.9782Z" fill="#E70488"/>
<path d="M51.5 31.5H48.8923V50.3575H51.5V31.5Z" fill="#130754"/>
</svg>
