<svg width="64" height="64" viewBox="0 0 64 64" fill="none" xmlns="http://www.w3.org/2000/svg">
<path fill-rule="evenodd" clip-rule="evenodd" d="M22.721 41.813L22.66 42.9236C22.6887 43.4607 22.7015 43.9863 22.7142 44.5036C22.7494 45.9446 22.783 47.3196 23.1535 48.665C23.5257 50.022 24.1516 50.2981 25.4547 49.7031C26.6015 49.1804 27.5385 48.3696 28.4467 47.5317C29.9201 46.1721 31.2844 44.7107 32.6485 43.2495C33.2057 42.6528 33.7628 42.0561 34.3272 41.4665C34.6033 41.1797 34.8157 41.0488 35.2167 41.2309C35.9101 41.5471 36.6322 41.7976 37.373 41.9966C38.0805 42.186 38.7809 42.4011 39.4811 42.6159C40.6231 42.9665 41.7649 43.3171 42.9374 43.5564C44.4091 43.8567 45.7033 43.2949 46.3692 42.1494C47.0176 41.0354 46.7728 39.957 46.2031 38.9006C45.9179 38.3723 45.6338 37.8435 45.3498 37.3147C44.4657 35.6684 43.5816 34.0224 42.6626 32.3945C42.3327 31.8108 42.3964 31.4397 42.8312 30.9512C44.3845 29.2048 45.9154 27.4399 47.4463 25.675C47.8929 25.1604 48.3395 24.6455 48.7866 24.1311C49.3151 23.5229 49.7761 22.8745 49.9497 22.0732C50.1471 21.1621 49.7573 20.4184 48.8853 20.0422C48.1707 19.7331 47.4286 19.7295 46.689 19.9189L45.6208 20.1916C42.9845 20.8645 40.3475 21.5376 37.7203 22.2453C37.1194 22.4079 36.8296 22.27 36.5285 21.7605C35.6651 20.3017 34.7734 18.8603 33.8814 17.4187L33.2353 16.3733C32.8693 15.7798 32.4707 15.2058 31.946 14.7344C30.8129 13.7182 29.4699 13.7597 28.408 14.8393C27.6497 15.6101 27.2162 16.5481 27.0213 17.5862C26.5591 20.0422 26.0981 22.4983 25.6833 24.9629C25.5908 25.5137 25.3435 25.7605 24.8238 25.9155C22.7819 26.5261 20.7458 27.1545 18.71 27.7829L17.2168 28.2434C16.5009 28.4643 15.8088 28.7344 15.1917 29.1643C13.9361 30.0388 13.6463 31.4114 14.4483 32.6999C15.013 33.6074 15.8663 34.1667 16.8332 34.5869C18.2562 35.206 19.6804 35.8218 21.1059 36.4348C21.6393 36.6643 22.1553 36.9123 22.6275 37.2568C22.8998 37.4558 22.9686 37.6487 22.9473 37.97C22.8593 39.2751 22.7882 40.5801 22.721 41.813ZM27.1925 40.0095C26.9938 41.5386 26.8039 43.0701 26.6103 44.5981L26.7302 44.6409L26.7868 44.5815C26.8495 44.5159 26.9124 44.4497 26.9738 44.383C27.5222 43.791 28.0709 43.1994 28.6196 42.6079C30.265 40.8337 31.9103 39.0596 33.5452 37.2773C33.8163 36.9819 34.0424 36.9014 34.4484 37.0161C36.0836 37.4773 37.7251 37.917 39.3667 38.3569C39.9073 38.5017 40.448 38.6465 40.9885 38.792C41.0979 38.8213 41.2072 38.8496 41.3357 38.883L41.7106 38.9812C41.5282 38.6269 41.4208 38.4097 41.3058 38.197C41.0249 37.6753 40.7449 37.1533 40.4649 36.6311C39.6553 35.1216 38.8456 33.612 38.0139 32.1138C37.7603 31.6582 37.8228 31.3589 38.1551 30.9839C39.7434 29.1921 41.3139 27.3869 42.8842 25.582L43.4684 24.9104C43.4976 24.8767 43.5302 24.8445 43.5634 24.8118C43.6843 24.6926 43.8118 24.5669 43.8069 24.3425C43.7641 24.3523 43.7239 24.3608 43.6854 24.3691C43.6172 24.3835 43.5544 24.397 43.4921 24.4133C42.7935 24.5935 42.0946 24.7727 41.3957 24.9519C39.4435 25.4526 37.4913 25.9531 35.5465 26.4773C35.0193 26.6201 34.7695 26.4919 34.5046 26.051C33.4832 24.3491 32.4378 22.6614 31.3922 20.9736L30.8804 20.1472C30.8574 20.1098 30.8367 20.0701 30.8156 20.0295C30.7349 19.874 30.6496 19.7099 30.4157 19.6489C30.2872 20.3511 30.1576 21.0522 30.0282 21.7529C29.6591 23.7505 29.2909 25.7429 28.9515 27.7402C28.864 28.2519 28.6242 28.457 28.1607 28.5976C26.033 29.2427 23.9089 29.9018 21.7854 30.561L20.6186 30.9228C20.5768 30.9358 20.5334 30.9465 20.4896 30.9573C20.3154 30.9997 20.1361 31.0437 20.0302 31.2429C20.1914 31.31 20.34 31.3747 20.4924 31.4346C22.8199 32.3555 25.1474 33.28 27.4798 34.1899C27.7934 34.312 27.9358 34.4514 27.8846 34.8115C27.6714 36.3108 27.4769 37.813 27.2825 39.3144L27.1925 40.0095Z" fill="#E15A1C"/>
</svg>
