<svg width="64" height="64" viewBox="0 0 64 64" fill="none" xmlns="http://www.w3.org/2000/svg">
<path d="M11 24.5661C11 26.9636 12.9436 28.9071 15.3411 28.9071C17.7385 28.9071 19.6821 26.9636 19.6821 24.5661C19.6821 22.1686 17.7385 20.2251 15.3411 20.2251C12.9436 20.2251 11 22.1686 11 24.5661Z" fill="#FFCC33"/>
<path d="M11 46.2712C11 48.6687 12.9436 50.6122 15.3411 50.6122C17.7385 50.6122 19.6821 48.6687 19.6821 46.2712C19.6821 43.8737 17.7385 41.9301 15.3411 41.9301C12.9436 41.9301 11 43.8737 11 46.2712Z" fill="#FFCC33"/>
<path d="M12.6279 35.4187C12.6279 36.9172 13.8427 38.1319 15.3411 38.1319C16.8396 38.1319 18.0543 36.9172 18.0543 35.4187C18.0543 33.9202 16.8396 32.7055 15.3411 32.7055C13.8427 32.7055 12.6279 33.9202 12.6279 35.4187Z" fill="#FFCC33"/>
<path d="M12.6279 13.7132C12.6279 15.2117 13.8427 16.4264 15.3411 16.4264C16.8396 16.4264 18.0543 15.2117 18.0543 13.7132C18.0543 12.2147 16.8396 11 15.3411 11C13.8427 11 12.6279 12.2147 12.6279 13.7132Z" fill="#FFCC33"/>
<path d="M27.6587 39.4338C27.6587 41.8312 29.6023 43.7748 31.9997 43.7748C34.3972 43.7748 36.3408 41.8312 36.3408 39.4338C36.3408 37.0363 34.3972 35.0927 31.9997 35.0927C29.6023 35.0927 27.6587 37.0363 27.6587 39.4338Z" fill="#FFCC33"/>
<path d="M29.2866 50.2863C29.2866 51.7847 30.5014 52.9997 31.9998 52.9997C33.4983 52.9997 34.713 51.7847 34.713 50.2863C34.713 48.7879 33.4983 47.5732 31.9998 47.5732C30.5014 47.5732 29.2866 48.7879 29.2866 50.2863Z" fill="#FFCC33"/>
<path d="M29.2866 28.5813C29.2866 30.0798 30.5014 31.2945 31.9998 31.2945C33.4983 31.2945 34.713 30.0798 34.713 28.5813C34.713 27.0829 33.4983 25.8681 31.9998 25.8681C30.5014 25.8681 29.2866 27.0829 29.2866 28.5813Z" fill="#FFCC33"/>
<path d="M29.2866 17.7288C29.2866 19.2273 30.5014 20.442 31.9998 20.442C33.4983 20.442 34.713 19.2273 34.713 17.7288C34.713 16.2304 33.4983 15.0156 31.9998 15.0156C30.5014 15.0156 29.2866 16.2304 29.2866 17.7288Z" fill="#FFCC33"/>
<path d="M44.3174 24.5661C44.3174 26.9636 46.2609 28.9071 48.6584 28.9071C51.056 28.9071 52.9995 26.9636 52.9995 24.5661C52.9995 22.1686 51.056 20.2251 48.6584 20.2251C46.2609 20.2251 44.3174 22.1686 44.3174 24.5661Z" fill="#FFCC33"/>
<path d="M45.9463 13.7132C45.9463 15.2117 47.161 16.4264 48.6595 16.4264C50.1578 16.4264 51.3727 15.2117 51.3727 13.7132C51.3727 12.2147 50.1578 11 48.6595 11C47.161 11 45.9463 12.2147 45.9463 13.7132Z" fill="#FFCC33"/>
<path d="M45.9463 35.4187C45.9463 36.9172 47.161 38.1319 48.6595 38.1319C50.1578 38.1319 51.3727 36.9172 51.3727 35.4187C51.3727 33.9202 50.1578 32.7055 48.6595 32.7055C47.161 32.7055 45.9463 33.9202 45.9463 35.4187Z" fill="#FFCC33"/>
<path d="M45.9463 46.2713C45.9463 47.7697 47.161 48.9845 48.6595 48.9845C50.1578 48.9845 51.3727 47.7697 51.3727 46.2713C51.3727 44.7728 50.1578 43.5581 48.6595 43.5581C47.161 43.5581 45.9463 44.7728 45.9463 46.2713Z" fill="#FFCC33"/>
</svg>
