<svg width="16" height="16" viewBox="0 0 16 16" fill="none" xmlns="http://www.w3.org/2000/svg">
<g clip-path="url(#clip0_167_6245)">
<path fill-rule="evenodd" clip-rule="evenodd" d="M14.1818 3.81818H1.81818C1.3161 3.81818 0.909091 4.22519 0.909091 4.72727V11.2727C0.909091 11.7748 1.3161 12.1818 1.81818 12.1818H14.1818C14.6839 12.1818 15.0909 11.7748 15.0909 11.2727V4.72727C15.0909 4.22519 14.6839 3.81818 14.1818 3.81818ZM1.81818 2.90909C0.814029 2.90909 0 3.72312 0 4.72727V11.2727C0 12.2769 0.814029 13.0909 1.81818 13.0909H14.1818C15.186 13.0909 16 12.2769 16 11.2727V4.72727C16 3.72312 15.186 2.90909 14.1818 2.90909H1.81818Z" fill="#030615"/>
<path d="M4.17652 8.94506H3.10917V7.87693H4.17652C4.32457 7.87693 4.44515 7.8359 4.53827 7.75385C4.63379 7.6718 4.70303 7.55898 4.74601 7.41539C4.78899 7.26887 4.81048 7.10476 4.81048 6.92308C4.81048 6.73846 4.7878 6.56704 4.74243 6.40879C4.69945 6.24762 4.6314 6.11722 4.53827 6.01759C4.44754 5.91795 4.32695 5.86813 4.17652 5.86813H3.44585V11.2H2.39999V4.8H4.17652C4.52753 4.8 4.82959 4.89085 5.08269 5.07253C5.3358 5.25422 5.52921 5.50476 5.66293 5.82418C5.79903 6.14066 5.86709 6.50403 5.86709 6.91429C5.86709 7.32748 5.79903 7.68645 5.66293 7.99121C5.52921 8.29304 5.3358 8.52748 5.08269 8.69451C4.82959 8.86154 4.52753 8.94506 4.17652 8.94506Z" fill="#030615"/>
<path d="M7.93015 11.2H7.00965L7.01682 10.1363H7.93015C8.18326 10.1363 8.38025 10.0806 8.52113 9.96923C8.66201 9.85788 8.76111 9.68205 8.81841 9.44176C8.87811 9.20147 8.90796 8.88645 8.90796 8.49671V7.4989C8.90796 7.20293 8.89244 6.95238 8.8614 6.74726C8.83035 6.5392 8.77782 6.37216 8.7038 6.24616C8.62978 6.11722 8.53068 6.02198 8.40652 5.96044C8.28235 5.8989 8.12834 5.86813 7.94448 5.86813H6.99174V4.8H7.94448C8.24534 4.8 8.51875 4.86008 8.76469 4.98022C9.01063 5.10037 9.22195 5.27619 9.39865 5.5077C9.57535 5.73627 9.71145 6.01905 9.80697 6.35605C9.90248 6.69304 9.95023 7.07693 9.95023 7.5077V8.49671C9.95023 8.93041 9.90248 9.31429 9.80697 9.64835C9.71145 9.98242 9.57535 10.2652 9.39865 10.4967C9.22434 10.7253 9.01302 10.8996 8.76469 11.0198C8.51636 11.1399 8.23818 11.2 7.93015 11.2ZM7.61854 4.8V11.2H6.5691V4.8H7.61854Z" fill="#030615"/>
<path d="M11.7662 4.8V11.2H10.7167V4.8H11.7662ZM13.3994 7.52088V8.58462H11.5011V7.52088H13.3994ZM13.6 4.8V5.86813H11.5011V4.8H13.6Z" fill="#030615"/>
</g>
<defs>
<clipPath id="clip0_167_6245">
<rect width="16" height="16" fill="white"/>
</clipPath>
</defs>
</svg>
