<svg width="20" height="20" viewBox="0 0 20 20" fill="none" xmlns="http://www.w3.org/2000/svg">
<path d="M19 10.0124L14.9853 2.86687C14.6839 2.33437 14.1293 2 13.5265 2H6.47357C5.87074 2 5.31615 2.33437 5.01474 2.86687L4.50838 3.7709H13.5144L12.5137 5.54179H3.50771L2.50703 7.32506H11.5131L10.5124 9.09598H1.50637L1 10.0124L1.49431 10.8792H10.5003L11.489 12.6502H2.48292L3.48359 14.421H12.4896L13.4903 16.192H4.48426L5.01474 17.1331C5.31615 17.6656 5.87074 18 6.47357 18H13.5265C14.1293 18 14.6839 17.6656 14.9853 17.1331L19 10.0124Z" fill="#EF54AC"/>
</svg>
