<?xml version="1.0" encoding="UTF-8"?>
<svg xmlns="http://www.w3.org/2000/svg" xmlns:xlink="http://www.w3.org/1999/xlink" width="24px" height="24px" viewBox="0 0 24 24" version="1.1">
<g id="surface1">
<path style=" stroke:none;fill-rule:nonzero;fill:rgb(23.921569%,55.686277%,95.686275%);fill-opacity:1;" d="M 15.34375 4.28125 C 16.050781 4.96875 16.589844 5.738281 17.121094 6.566406 C 17.167969 6.640625 17.214844 6.714844 17.261719 6.792969 C 17.59375 7.320312 17.859375 7.847656 18.140625 8.410156 C 21.042969 8.457031 21.042969 8.457031 24 8.503906 C 24 9.003906 24 9.5 24 10.015625 C 23.871094 10.019531 23.742188 10.027344 23.609375 10.03125 C 23.128906 10.050781 22.648438 10.070312 22.167969 10.089844 C 21.960938 10.101562 21.753906 10.109375 21.546875 10.117188 C 21.246094 10.128906 20.949219 10.140625 20.652344 10.152344 C 20.511719 10.160156 20.511719 10.160156 20.371094 10.164062 C 20.238281 10.171875 20.238281 10.171875 20.105469 10.175781 C 20.03125 10.179688 19.953125 10.183594 19.875 10.1875 C 19.636719 10.207031 19.414062 10.25 19.179688 10.300781 C 19.375 10.765625 19.589844 11.222656 19.820312 11.675781 C 20.019531 12.066406 20.214844 12.460938 20.402344 12.859375 C 20.433594 12.917969 20.460938 12.980469 20.492188 13.042969 C 20.570312 13.207031 20.648438 13.375 20.726562 13.539062 C 20.898438 13.820312 20.960938 13.871094 21.261719 13.984375 C 21.542969 14.019531 21.542969 14.019531 21.855469 14.023438 C 21.96875 14.027344 22.082031 14.03125 22.199219 14.035156 C 22.320312 14.039062 22.4375 14.039062 22.558594 14.042969 C 22.679688 14.046875 22.800781 14.050781 22.921875 14.054688 C 23.21875 14.0625 23.515625 14.070312 23.8125 14.078125 C 23.945312 14.492188 24.027344 14.816406 23.96875 15.246094 C 23.960938 15.328125 23.953125 15.410156 23.941406 15.492188 C 23.90625 15.683594 23.90625 15.683594 23.8125 15.78125 C 23.628906 15.789062 23.445312 15.792969 23.261719 15.792969 C 23.144531 15.796875 23.023438 15.796875 22.902344 15.796875 C 22.839844 15.796875 22.773438 15.796875 22.710938 15.796875 C 22.507812 15.800781 22.304688 15.800781 22.105469 15.804688 C 21.527344 15.808594 20.953125 15.8125 20.378906 15.816406 C 16.3125 15.839844 12.40625 16.285156 8.691406 18.046875 C 8.277344 18.246094 7.859375 18.441406 7.445312 18.636719 C 7.265625 18.722656 7.085938 18.808594 6.902344 18.898438 C 4.742188 19.925781 2.484375 20.34375 0.09375 20.21875 C 0 20.125 0 20.125 -0.0078125 19.765625 C -0.0078125 19.617188 -0.0078125 19.464844 -0.0078125 19.316406 C -0.00390625 19.242188 -0.00390625 19.164062 -0.00390625 19.085938 C -0.00390625 18.898438 0 18.707031 0 18.519531 C 0.113281 18.515625 0.113281 18.515625 0.230469 18.507812 C 2.722656 18.378906 4.546875 17.804688 6.75 16.628906 C 10.390625 14.695312 14.222656 13.855469 18.332031 13.699219 C 16.417969 9.101562 16.417969 9.101562 13.226562 5.386719 C 12.632812 5.1875 12.078125 5.222656 11.511719 5.484375 C 10.808594 5.839844 10.324219 6.464844 9.914062 7.117188 C 9.871094 7.183594 9.828125 7.25 9.785156 7.320312 C 9.394531 7.941406 9.050781 8.585938 8.710938 9.234375 C 7.871094 10.820312 6.960938 12.347656 5.667969 13.605469 C 5.570312 13.710938 5.570312 13.710938 5.46875 13.816406 C 4.101562 15.160156 2.304688 15.433594 0.472656 15.503906 C 0.285156 15.496094 0.285156 15.496094 0 15.402344 C 0 14.871094 0 14.339844 0 13.796875 C 0.128906 13.789062 0.261719 13.777344 0.394531 13.769531 C 1.960938 13.65625 3.210938 13.375 4.289062 12.128906 C 4.574219 11.78125 4.839844 11.421875 5.101562 11.054688 C 5.15625 10.988281 5.214844 10.917969 5.269531 10.847656 C 5.414062 10.671875 5.414062 10.671875 5.386719 10.394531 C 5.085938 10.21875 4.851562 10.175781 4.503906 10.164062 C 4.40625 10.164062 4.304688 10.160156 4.203125 10.15625 C 4.09375 10.152344 3.988281 10.148438 3.875 10.144531 C 3.765625 10.140625 3.652344 10.136719 3.539062 10.132812 C 3.1875 10.121094 2.832031 10.109375 2.480469 10.097656 C 2.242188 10.089844 2 10.082031 1.761719 10.074219 C 1.175781 10.054688 0.585938 10.035156 0 10.015625 C -0.00390625 9.765625 -0.00390625 9.515625 -0.0078125 9.265625 C -0.0078125 9.195312 -0.0078125 9.125 -0.0078125 9.050781 C -0.0078125 8.867188 -0.00390625 8.6875 0 8.503906 C 0.09375 8.410156 0.09375 8.410156 0.359375 8.398438 C 0.480469 8.398438 0.597656 8.398438 0.722656 8.398438 C 0.785156 8.398438 0.851562 8.398438 0.917969 8.398438 C 1.136719 8.398438 1.355469 8.398438 1.570312 8.398438 C 1.722656 8.402344 1.871094 8.402344 2.023438 8.402344 C 2.417969 8.402344 2.816406 8.402344 3.210938 8.402344 C 3.613281 8.402344 4.019531 8.40625 4.421875 8.40625 C 5.214844 8.40625 6.011719 8.40625 6.804688 8.410156 C 6.832031 8.320312 6.859375 8.230469 6.890625 8.140625 C 6.980469 7.882812 7.074219 7.667969 7.207031 7.433594 C 7.25 7.359375 7.292969 7.289062 7.335938 7.210938 C 7.378906 7.136719 7.425781 7.058594 7.46875 6.980469 C 7.515625 6.902344 7.5625 6.820312 7.609375 6.738281 C 8.527344 5.191406 9.628906 3.738281 11.433594 3.210938 C 12.917969 2.929688 14.199219 3.296875 15.34375 4.28125 Z M 15.34375 4.28125 "/>
<path style=" stroke:none;fill-rule:nonzero;fill:rgb(26.274511%,45.490196%,72.549021%);fill-opacity:1;" d="M 19.558594 11.433594 C 19.992188 11.910156 20.210938 12.476562 20.460938 13.0625 C 20.496094 13.140625 20.53125 13.214844 20.570312 13.296875 C 20.613281 13.402344 20.613281 13.402344 20.660156 13.511719 C 20.828125 13.765625 20.984375 13.859375 21.261719 13.984375 C 21.550781 14.03125 21.550781 14.03125 21.863281 14.03125 C 21.976562 14.035156 22.089844 14.039062 22.207031 14.042969 C 22.324219 14.042969 22.445312 14.046875 22.566406 14.050781 C 22.683594 14.050781 22.804688 14.054688 22.925781 14.058594 C 23.222656 14.066406 23.515625 14.074219 23.8125 14.078125 C 23.945312 14.492188 24.027344 14.816406 23.96875 15.246094 C 23.960938 15.328125 23.953125 15.410156 23.941406 15.492188 C 23.90625 15.683594 23.90625 15.683594 23.8125 15.78125 C 23.628906 15.789062 23.445312 15.792969 23.261719 15.792969 C 23.144531 15.796875 23.023438 15.796875 22.902344 15.796875 C 22.808594 15.796875 22.808594 15.796875 22.710938 15.796875 C 22.507812 15.800781 22.304688 15.800781 22.105469 15.804688 C 21.527344 15.808594 20.953125 15.8125 20.378906 15.816406 C 16.917969 15.839844 13.21875 15.984375 10.023438 17.457031 C 9.730469 17.574219 9.730469 17.574219 9.449219 17.480469 C 9.683594 17.363281 9.914062 17.246094 10.148438 17.132812 C 10.328125 17.039062 10.507812 16.945312 10.683594 16.847656 C 10.964844 16.722656 11.238281 16.652344 11.542969 16.59375 C 11.957031 16.503906 12.363281 16.398438 12.769531 16.289062 C 13.078125 16.210938 13.378906 16.148438 13.695312 16.105469 C 13.972656 16.09375 13.972656 16.09375 14.078125 15.96875 C 14.582031 15.898438 15.089844 15.855469 15.597656 15.804688 C 15.773438 15.789062 15.949219 15.773438 16.121094 15.753906 C 17.773438 15.585938 19.414062 15.566406 21.070312 15.578125 C 21.328125 15.578125 21.585938 15.582031 21.84375 15.582031 C 22.46875 15.582031 23.09375 15.585938 23.714844 15.589844 C 23.746094 15.152344 23.777344 14.71875 23.8125 14.269531 C 23.628906 14.273438 23.445312 14.277344 23.253906 14.285156 C 23.011719 14.289062 22.773438 14.292969 22.53125 14.296875 C 22.347656 14.304688 22.347656 14.304688 22.164062 14.308594 C 21.050781 14.324219 21.050781 14.324219 20.621094 13.941406 C 20.421875 13.695312 20.3125 13.441406 20.203125 13.144531 C 20.058594 12.777344 19.921875 12.421875 19.710938 12.082031 C 19.558594 11.8125 19.558594 11.8125 19.558594 11.433594 Z M 19.558594 11.433594 "/>
<path style=" stroke:none;fill-rule:nonzero;fill:rgb(25.098041%,44.705883%,71.764708%);fill-opacity:1;" d="M 12.402344 5.066406 C 12.507812 5.0625 12.507812 5.0625 12.613281 5.058594 C 13.226562 5.058594 13.617188 5.226562 14.074219 5.652344 C 14.148438 5.738281 14.148438 5.738281 14.21875 5.828125 C 14.273438 5.894531 14.328125 5.960938 14.382812 6.027344 C 14.4375 6.09375 14.496094 6.164062 14.550781 6.234375 C 14.609375 6.308594 14.671875 6.382812 14.734375 6.460938 C 15.28125 7.148438 15.28125 7.148438 15.402344 7.464844 C 15.355469 7.605469 15.355469 7.605469 15.308594 7.746094 C 15.242188 7.65625 15.179688 7.566406 15.113281 7.476562 C 15.027344 7.355469 14.945312 7.234375 14.859375 7.117188 C 14.816406 7.058594 14.773438 6.996094 14.730469 6.9375 C 14.234375 6.226562 14.234375 6.226562 13.601562 5.644531 C 13.535156 5.597656 13.472656 5.550781 13.40625 5.503906 C 12.972656 5.222656 12.5 5.230469 12 5.292969 C 11.050781 5.605469 10.4375 6.289062 9.914062 7.117188 C 9.871094 7.183594 9.828125 7.25 9.785156 7.320312 C 9.394531 7.941406 9.050781 8.585938 8.710938 9.234375 C 7.871094 10.824219 6.953125 12.335938 5.667969 13.605469 C 5.597656 13.679688 5.527344 13.75 5.453125 13.824219 C 5.371094 13.902344 5.371094 13.902344 5.292969 13.984375 C 5.230469 13.953125 5.167969 13.921875 5.101562 13.890625 C 5.164062 13.828125 5.164062 13.828125 5.226562 13.769531 C 5.902344 13.132812 5.902344 13.132812 6.425781 12.378906 C 6.488281 12.378906 6.550781 12.378906 6.613281 12.378906 C 6.644531 12.285156 6.644531 12.285156 6.671875 12.1875 C 6.789062 11.933594 6.910156 11.753906 7.082031 11.535156 C 7.316406 11.230469 7.492188 10.933594 7.652344 10.582031 C 7.722656 10.445312 7.789062 10.308594 7.859375 10.167969 C 7.894531 10.105469 7.925781 10.039062 7.957031 9.972656 C 7.984375 9.925781 8.007812 9.875 8.03125 9.828125 C 8.09375 9.828125 8.15625 9.828125 8.21875 9.828125 C 8.234375 9.769531 8.246094 9.714844 8.257812 9.660156 C 8.347656 9.332031 8.503906 9.035156 8.65625 8.734375 C 8.691406 8.667969 8.726562 8.601562 8.757812 8.53125 C 9.09375 7.875 9.457031 7.238281 9.921875 6.664062 C 10.113281 6.433594 10.113281 6.433594 10.246094 6.179688 C 10.421875 5.910156 10.597656 5.78125 10.867188 5.605469 C 10.949219 5.550781 11.03125 5.496094 11.113281 5.4375 C 11.1875 5.390625 11.261719 5.339844 11.339844 5.292969 C 11.695312 5.054688 11.988281 5.066406 12.402344 5.066406 Z M 12.402344 5.066406 "/>
<path style=" stroke:none;fill-rule:nonzero;fill:rgb(25.098041%,46.666667%,74.117649%);fill-opacity:1;" d="M 15.496094 4.535156 C 16.128906 5.152344 16.640625 5.800781 17.109375 6.550781 C 17.179688 6.660156 17.179688 6.660156 17.253906 6.777344 C 17.589844 7.308594 17.855469 7.835938 18.140625 8.410156 C 20.074219 8.441406 22.007812 8.472656 24 8.503906 C 24 8.566406 24 8.628906 24 8.691406 C 23.242188 8.699219 22.480469 8.703125 21.722656 8.707031 C 21.371094 8.710938 21.019531 8.710938 20.667969 8.714844 C 20.324219 8.71875 19.984375 8.71875 19.644531 8.71875 C 19.515625 8.71875 19.386719 8.722656 19.257812 8.722656 C 19.074219 8.726562 18.894531 8.726562 18.710938 8.726562 C 18.609375 8.726562 18.503906 8.726562 18.398438 8.726562 C 18.140625 8.691406 18.140625 8.691406 17.972656 8.566406 C 17.753906 8.269531 17.613281 7.921875 17.460938 7.585938 C 17.269531 7.183594 17.042969 6.921875 16.722656 6.613281 C 16.605469 6.414062 16.605469 6.414062 16.523438 6.222656 C 16.402344 5.949219 16.277344 5.78125 16.0625 5.574219 C 15.96875 5.417969 15.875 5.261719 15.78125 5.101562 C 15.726562 5.050781 15.675781 5 15.621094 4.949219 C 15.496094 4.820312 15.496094 4.820312 15.496094 4.535156 Z M 15.496094 4.535156 "/>
<path style=" stroke:none;fill-rule:nonzero;fill:rgb(25.882354%,44.313726%,73.725492%);fill-opacity:1;" d="M 0 9.921875 C 0.730469 9.914062 1.464844 9.910156 2.195312 9.90625 C 2.441406 9.902344 2.691406 9.902344 2.941406 9.898438 C 3.296875 9.894531 3.65625 9.894531 4.015625 9.894531 C 4.125 9.890625 4.238281 9.890625 4.351562 9.890625 C 4.507812 9.890625 4.507812 9.890625 4.667969 9.890625 C 4.757812 9.886719 4.847656 9.886719 4.941406 9.886719 C 5.242188 9.925781 5.421875 10.035156 5.667969 10.203125 C 5.585938 10.917969 5.324219 11.316406 4.820312 11.8125 C 4.765625 11.902344 4.710938 11.992188 4.652344 12.082031 C 4.402344 12.429688 4.117188 12.644531 3.773438 12.894531 C 3.582031 13.027344 3.582031 13.027344 3.496094 13.226562 C 3.324219 13.34375 3.324219 13.34375 3.105469 13.464844 C 3.035156 13.503906 2.964844 13.542969 2.894531 13.585938 C 2.242188 13.890625 1.65625 13.914062 0.949219 13.902344 C 0.859375 13.902344 0.765625 13.898438 0.671875 13.898438 C 0.449219 13.898438 0.222656 13.894531 0 13.890625 C 0 13.859375 0 13.828125 0 13.796875 C 0.0546875 13.792969 0.109375 13.789062 0.164062 13.785156 C 1.765625 13.683594 2.976562 13.460938 4.15625 12.285156 C 4.496094 11.890625 4.800781 11.476562 5.101562 11.054688 C 5.15625 10.988281 5.214844 10.917969 5.269531 10.847656 C 5.414062 10.671875 5.414062 10.671875 5.386719 10.394531 C 5.085938 10.21875 4.851562 10.175781 4.503906 10.164062 C 4.355469 10.160156 4.355469 10.160156 4.203125 10.15625 C 4.09375 10.152344 3.988281 10.148438 3.875 10.144531 C 3.765625 10.140625 3.652344 10.136719 3.539062 10.132812 C 3.1875 10.121094 2.832031 10.109375 2.480469 10.097656 C 2.242188 10.089844 2 10.082031 1.761719 10.074219 C 1.175781 10.054688 0.585938 10.035156 0 10.015625 C 0 9.984375 0 9.953125 0 9.921875 Z M 0 9.921875 "/>
<path style=" stroke:none;fill-rule:nonzero;fill:rgb(24.313726%,47.450981%,73.725492%);fill-opacity:1;" d="M 17.953125 12.566406 C 18.234375 12.660156 18.234375 12.660156 18.324219 12.820312 C 18.34375 12.882812 18.367188 12.949219 18.390625 13.015625 C 18.414062 13.078125 18.433594 13.144531 18.457031 13.210938 C 18.523438 13.433594 18.570312 13.660156 18.613281 13.890625 C 18.527344 13.898438 18.441406 13.902344 18.351562 13.910156 C 15.726562 14.128906 13.226562 14.390625 10.714844 15.210938 C 10.355469 15.328125 10.007812 15.433594 9.636719 15.496094 C 9.636719 15.433594 9.636719 15.371094 9.636719 15.308594 C 12.472656 14.289062 15.320312 13.8125 18.332031 13.699219 C 18.304688 13.644531 18.277344 13.585938 18.246094 13.523438 C 18.214844 13.449219 18.179688 13.371094 18.140625 13.292969 C 18.105469 13.21875 18.070312 13.140625 18.035156 13.0625 C 17.953125 12.851562 17.953125 12.851562 17.953125 12.566406 Z M 17.953125 12.566406 "/>
<path style=" stroke:none;fill-rule:nonzero;fill:rgb(24.313726%,45.490196%,80.784315%);fill-opacity:1;" d="M 20.175781 9.8125 C 20.296875 9.8125 20.421875 9.8125 20.550781 9.8125 C 20.683594 9.8125 20.8125 9.816406 20.945312 9.816406 C 21.011719 9.816406 21.078125 9.816406 21.148438 9.816406 C 22.101562 9.816406 23.050781 9.835938 24 9.921875 C 24 9.953125 24 9.984375 24 10.015625 C 23.945312 10.019531 23.894531 10.019531 23.839844 10.023438 C 23.28125 10.042969 22.726562 10.066406 22.167969 10.089844 C 21.960938 10.101562 21.753906 10.109375 21.546875 10.117188 C 21.246094 10.128906 20.949219 10.140625 20.652344 10.152344 C 20.558594 10.15625 20.464844 10.160156 20.371094 10.164062 C 20.28125 10.167969 20.195312 10.171875 20.105469 10.175781 C 19.992188 10.179688 19.992188 10.179688 19.875 10.1875 C 19.636719 10.207031 19.414062 10.25 19.179688 10.300781 C 19.226562 10.402344 19.269531 10.5 19.316406 10.605469 C 19.535156 11.121094 19.535156 11.121094 19.558594 11.339844 C 19.496094 11.402344 19.433594 11.464844 19.371094 11.527344 C 19.304688 11.378906 19.238281 11.234375 19.175781 11.085938 C 19.140625 11.003906 19.101562 10.921875 19.066406 10.835938 C 18.984375 10.550781 19.007812 10.390625 19.085938 10.109375 C 19.148438 10.109375 19.210938 10.109375 19.277344 10.109375 C 19.277344 10.046875 19.277344 9.984375 19.277344 9.921875 C 19.59375 9.816406 19.839844 9.816406 20.175781 9.8125 Z M 20.175781 9.8125 "/>
<path style=" stroke:none;fill-rule:nonzero;fill:rgb(25.490198%,45.490196%,71.764708%);fill-opacity:1;" d="M 6.898438 18.519531 C 7.085938 18.519531 7.273438 18.519531 7.464844 18.519531 C 7.140625 18.789062 6.785156 18.957031 6.402344 19.121094 C 6.335938 19.152344 6.269531 19.179688 6.199219 19.210938 C 4.210938 20.054688 2.238281 20.25 0.09375 20.21875 C 0.0625 20.15625 0.03125 20.097656 0 20.03125 C 0.0625 20.03125 0.121094 20.027344 0.183594 20.027344 C 2.25 19.960938 4.121094 19.804688 6.050781 19.023438 C 6.597656 18.804688 6.597656 18.804688 6.804688 18.804688 C 6.835938 18.710938 6.867188 18.617188 6.898438 18.519531 Z M 6.898438 18.519531 "/>
<path style=" stroke:none;fill-rule:nonzero;fill:rgb(25.490198%,47.843137%,74.901962%);fill-opacity:1;" d="M 15.117188 15.96875 C 15.023438 15.96875 14.929688 15.96875 14.835938 15.96875 C 14.835938 16.03125 14.835938 16.09375 14.835938 16.15625 C 14.742188 16.171875 14.742188 16.171875 14.652344 16.191406 C 13.082031 16.476562 11.480469 16.789062 10.023438 17.457031 C 9.730469 17.574219 9.730469 17.574219 9.449219 17.480469 C 9.683594 17.363281 9.914062 17.246094 10.148438 17.132812 C 10.328125 17.039062 10.507812 16.945312 10.683594 16.847656 C 10.964844 16.722656 11.238281 16.652344 11.542969 16.59375 C 11.957031 16.503906 12.363281 16.398438 12.769531 16.289062 C 13.078125 16.210938 13.378906 16.148438 13.695312 16.105469 C 13.972656 16.09375 13.972656 16.09375 14.078125 15.96875 C 14.761719 15.839844 14.761719 15.839844 15.117188 15.96875 Z M 15.117188 15.96875 "/>
<path style=" stroke:none;fill-rule:nonzero;fill:rgb(27.058825%,48.627451%,74.901962%);fill-opacity:1;" d="M 5.007812 11.148438 C 5.054688 11.289062 5.054688 11.289062 5.101562 11.433594 C 4.789062 12.058594 4.328125 12.511719 3.761719 12.910156 C 3.578125 13.027344 3.578125 13.027344 3.496094 13.226562 C 3.324219 13.34375 3.324219 13.34375 3.105469 13.464844 C 3.035156 13.503906 2.964844 13.542969 2.894531 13.585938 C 2.242188 13.890625 1.65625 13.914062 0.949219 13.902344 C 0.859375 13.902344 0.765625 13.898438 0.671875 13.898438 C 0.449219 13.898438 0.222656 13.894531 0 13.890625 C 0 13.859375 0 13.828125 0 13.796875 C 0.0546875 13.792969 0.109375 13.789062 0.164062 13.785156 C 1.765625 13.683594 2.980469 13.460938 4.15625 12.285156 C 4.464844 11.921875 4.738281 11.539062 5.007812 11.148438 Z M 5.007812 11.148438 "/>
<path style=" stroke:none;fill-rule:nonzero;fill:rgb(28.235295%,49.019608%,74.901962%);fill-opacity:1;" d="M 6.707031 16.722656 C 6.707031 16.785156 6.707031 16.847656 6.707031 16.914062 C 5.253906 17.765625 3.632812 18.667969 1.890625 18.613281 C 1.890625 18.550781 1.890625 18.488281 1.890625 18.425781 C 1.96875 18.417969 2.046875 18.410156 2.125 18.402344 C 3.535156 18.242188 4.707031 17.707031 5.941406 17.03125 C 6.015625 16.992188 6.085938 16.953125 6.160156 16.910156 C 6.257812 16.855469 6.257812 16.855469 6.355469 16.800781 C 6.519531 16.722656 6.519531 16.722656 6.707031 16.722656 Z M 6.707031 16.722656 "/>
<path style=" stroke:none;fill-rule:nonzero;fill:rgb(26.274511%,45.09804%,71.764708%);fill-opacity:1;" d="M 15.402344 7.746094 C 15.753906 7.867188 15.773438 7.957031 15.941406 8.277344 C 15.984375 8.367188 16.03125 8.457031 16.078125 8.546875 C 16.125 8.640625 16.171875 8.734375 16.222656 8.828125 C 16.269531 8.921875 16.320312 9.015625 16.367188 9.109375 C 16.722656 9.800781 16.722656 9.800781 16.722656 10.015625 C 16.785156 10.015625 16.847656 10.015625 16.914062 10.015625 C 16.9375 10.070312 16.960938 10.121094 16.984375 10.175781 C 17.144531 10.542969 17.308594 10.910156 17.492188 11.269531 C 17.886719 12.054688 17.886719 12.054688 17.765625 12.472656 C 17.730469 12.398438 17.695312 12.324219 17.660156 12.25 C 16.746094 10.316406 16.746094 10.316406 15.703125 8.453125 C 15.402344 7.953125 15.402344 7.953125 15.402344 7.746094 Z M 15.402344 7.746094 "/>
<path style=" stroke:none;fill-rule:nonzero;fill:rgb(26.666668%,46.666667%,73.725492%);fill-opacity:1;" d="M 10.488281 3.589844 C 10.550781 3.621094 10.613281 3.652344 10.675781 3.683594 C 10.554688 3.78125 10.433594 3.875 10.3125 3.96875 C 10.242188 4.019531 10.175781 4.074219 10.105469 4.128906 C 9.921875 4.253906 9.921875 4.253906 9.730469 4.253906 C 9.707031 4.304688 9.683594 4.355469 9.660156 4.410156 C 9.523438 4.671875 9.359375 4.882812 9.164062 5.101562 C 9.101562 5.101562 9.039062 5.101562 8.976562 5.101562 C 8.976562 5.164062 8.976562 5.226562 8.976562 5.292969 C 8.871094 5.394531 8.871094 5.394531 8.765625 5.503906 C 8.5 5.769531 8.308594 6.035156 8.109375 6.355469 C 7.769531 6.886719 7.769531 6.886719 7.558594 6.992188 C 8.027344 5.695312 9.222656 4.207031 10.488281 3.589844 Z M 10.488281 3.589844 "/>
<path style=" stroke:none;fill-rule:nonzero;fill:rgb(21.960784%,45.882353%,77.254903%);fill-opacity:1;" d="M 13.605469 5.386719 C 14.316406 5.621094 14.953125 6.65625 15.332031 7.28125 C 15.402344 7.464844 15.402344 7.464844 15.308594 7.746094 C 15.242188 7.65625 15.179688 7.566406 15.113281 7.476562 C 15.027344 7.355469 14.945312 7.234375 14.859375 7.117188 C 14.796875 7.027344 14.796875 7.027344 14.730469 6.9375 C 14.308594 6.3125 14.308594 6.3125 13.773438 5.800781 C 13.71875 5.757812 13.664062 5.714844 13.605469 5.667969 C 13.605469 5.574219 13.605469 5.480469 13.605469 5.386719 Z M 13.605469 5.386719 "/>
<path style=" stroke:none;fill-rule:nonzero;fill:rgb(28.235295%,49.019608%,75.294119%);fill-opacity:1;" d="M 13.039062 14.457031 C 12.980469 14.476562 12.925781 14.492188 12.867188 14.511719 C 12.601562 14.59375 12.335938 14.679688 12.070312 14.765625 C 11.976562 14.792969 11.882812 14.824219 11.785156 14.855469 C 11.195312 15.042969 10.605469 15.234375 10.019531 15.4375 C 9.828125 15.496094 9.828125 15.496094 9.636719 15.496094 C 9.636719 15.433594 9.636719 15.371094 9.636719 15.308594 C 10 15.183594 10.363281 15.0625 10.722656 14.941406 C 10.828125 14.90625 10.929688 14.871094 11.03125 14.835938 C 12.582031 14.316406 12.582031 14.316406 13.039062 14.457031 Z M 13.039062 14.457031 "/>
<path style=" stroke:none;fill-rule:nonzero;fill:rgb(23.921569%,43.137255%,70.588237%);fill-opacity:1;" d="M 3.96875 14.835938 C 3.828125 14.894531 3.6875 14.953125 3.550781 15.011719 C 3.472656 15.042969 3.394531 15.078125 3.3125 15.113281 C 2.617188 15.355469 1.929688 15.4375 1.191406 15.472656 C 1.109375 15.476562 1.023438 15.484375 0.9375 15.488281 C 0.859375 15.492188 0.777344 15.496094 0.695312 15.5 C 0.621094 15.503906 0.550781 15.507812 0.476562 15.511719 C 0.285156 15.496094 0.285156 15.496094 0 15.308594 C 0.125 15.304688 0.246094 15.300781 0.375 15.296875 C 1.417969 15.257812 2.363281 15.164062 3.355469 14.8125 C 3.613281 14.734375 3.714844 14.757812 3.96875 14.835938 Z M 3.96875 14.835938 "/>
<path style=" stroke:none;fill-rule:nonzero;fill:rgb(25.882354%,44.705883%,69.01961%);fill-opacity:1;" d="M 12.4375 5.0625 C 12.507812 5.058594 12.578125 5.058594 12.652344 5.058594 C 13.058594 5.0625 13.3125 5.09375 13.605469 5.386719 C 13.574219 5.449219 13.542969 5.511719 13.511719 5.574219 C 13.4375 5.527344 13.363281 5.480469 13.289062 5.433594 C 12.753906 5.210938 12.277344 5.183594 11.734375 5.394531 C 11.503906 5.511719 11.277344 5.632812 11.054688 5.765625 C 10.960938 5.8125 10.960938 5.8125 10.867188 5.859375 C 11.125 5.136719 11.765625 5.042969 12.4375 5.0625 Z M 12.4375 5.0625 "/>
<path style=" stroke:none;fill-rule:nonzero;fill:rgb(25.882354%,44.313726%,67.843139%);fill-opacity:1;" d="M 6.707031 12.09375 C 6.769531 12.125 6.832031 12.15625 6.898438 12.1875 C 6.402344 12.835938 5.878906 13.421875 5.292969 13.984375 C 5.230469 13.953125 5.167969 13.921875 5.101562 13.890625 C 5.144531 13.851562 5.183594 13.808594 5.226562 13.769531 C 5.902344 13.132812 5.902344 13.132812 6.425781 12.378906 C 6.488281 12.378906 6.550781 12.378906 6.613281 12.378906 C 6.644531 12.285156 6.675781 12.191406 6.707031 12.09375 Z M 6.707031 12.09375 "/>
<path style=" stroke:none;fill-rule:nonzero;fill:rgb(23.137255%,54.901963%,90.196079%);fill-opacity:1;" d="M 11.714844 3.308594 C 13.421875 3.253906 13.421875 3.253906 14.078125 3.589844 C 13.746094 3.703125 13.578125 3.632812 13.246094 3.542969 C 12.824219 3.449219 12.414062 3.453125 12 3.589844 C 12 3.527344 12 3.464844 12 3.402344 C 11.90625 3.371094 11.8125 3.339844 11.714844 3.308594 Z M 11.714844 3.308594 "/>
<path style=" stroke:none;fill-rule:nonzero;fill:rgb(25.098041%,52.156866%,83.92157%);fill-opacity:1;" d="M 14.078125 3.683594 C 14.238281 3.746094 14.394531 3.808594 14.550781 3.875 C 14.664062 3.917969 14.777344 3.960938 14.894531 4.003906 C 15.203125 4.152344 15.324219 4.246094 15.496094 4.535156 C 14.882812 4.414062 14.433594 4.210938 14.078125 3.683594 Z M 14.078125 3.683594 "/>
<path style=" stroke:none;fill-rule:nonzero;fill:rgb(28.235295%,48.627451%,72.549021%);fill-opacity:1;" d="M 19.085938 10.109375 C 19.242188 10.109375 19.398438 10.109375 19.558594 10.109375 C 19.371094 10.203125 19.371094 10.203125 19.179688 10.300781 C 19.226562 10.402344 19.269531 10.5 19.316406 10.605469 C 19.535156 11.121094 19.535156 11.121094 19.558594 11.339844 C 19.496094 11.402344 19.433594 11.464844 19.371094 11.527344 C 19.304688 11.378906 19.238281 11.234375 19.175781 11.085938 C 19.140625 11.003906 19.101562 10.921875 19.066406 10.835938 C 18.984375 10.550781 19.007812 10.390625 19.085938 10.109375 Z M 19.085938 10.109375 "/>
<path style=" stroke:none;fill-rule:nonzero;fill:rgb(24.705882%,54.901963%,91.37255%);fill-opacity:1;" d="M 13.226562 15.96875 C 13.257812 16.0625 13.289062 16.15625 13.324219 16.253906 C 12.917969 16.34375 12.511719 16.4375 12.09375 16.535156 C 12.125 16.441406 12.15625 16.347656 12.1875 16.253906 C 12.34375 16.222656 12.5 16.191406 12.660156 16.15625 C 12.660156 16.09375 12.660156 16.03125 12.660156 15.96875 C 12.945312 15.875 12.945312 15.875 13.226562 15.96875 Z M 13.226562 15.96875 "/>
<path style=" stroke:none;fill-rule:nonzero;fill:rgb(24.705882%,53.333336%,90.588236%);fill-opacity:1;" d="M 15.308594 6.992188 C 15.339844 7.054688 15.371094 7.117188 15.402344 7.179688 C 15.464844 7.210938 15.527344 7.242188 15.589844 7.277344 C 15.558594 7.339844 15.527344 7.398438 15.496094 7.464844 C 15.558594 7.464844 15.621094 7.464844 15.683594 7.464844 C 15.820312 7.6875 15.882812 7.792969 15.839844 8.054688 C 15.820312 8.109375 15.800781 8.164062 15.78125 8.21875 C 15.753906 8.160156 15.726562 8.101562 15.695312 8.039062 C 15.605469 7.828125 15.605469 7.828125 15.402344 7.746094 C 15.289062 7.46875 15.289062 7.46875 15.210938 7.179688 C 15.242188 7.117188 15.273438 7.054688 15.308594 6.992188 Z M 15.308594 6.992188 "/>
<path style=" stroke:none;fill-rule:nonzero;fill:rgb(25.490198%,45.490196%,73.725492%);fill-opacity:1;" d="M 14.550781 6.613281 C 14.90625 6.703125 15.0625 6.824219 15.246094 7.128906 C 15.402344 7.464844 15.402344 7.464844 15.308594 7.746094 C 15.179688 7.578125 15.054688 7.40625 14.929688 7.234375 C 14.859375 7.140625 14.789062 7.042969 14.714844 6.945312 C 14.550781 6.707031 14.550781 6.707031 14.550781 6.613281 Z M 14.550781 6.613281 "/>
<path style=" stroke:none;fill-rule:nonzero;fill:rgb(25.882354%,49.411765%,78.823531%);fill-opacity:1;" d="M 16.535156 6.046875 C 16.761719 6.117188 16.886719 6.1875 17 6.394531 C 17.070312 6.5625 17.132812 6.730469 17.195312 6.898438 C 17.101562 6.945312 17.101562 6.945312 17.007812 6.992188 C 16.734375 6.679688 16.582031 6.464844 16.535156 6.046875 Z M 16.535156 6.046875 "/>
<path style=" stroke:none;fill-rule:nonzero;fill:rgb(23.137255%,50.980395%,86.666667%);fill-opacity:1;" d="M 13.511719 5.007812 C 13.640625 5.203125 13.640625 5.203125 13.699219 5.386719 C 13.636719 5.355469 13.570312 5.324219 13.503906 5.296875 C 13.191406 5.183594 12.917969 5.15625 12.585938 5.136719 C 12.476562 5.128906 12.363281 5.125 12.253906 5.117188 C 12.167969 5.113281 12.085938 5.105469 12 5.101562 C 12 5.070312 12 5.039062 12 5.007812 C 13.082031 4.867188 13.082031 4.867188 13.511719 5.007812 Z M 13.511719 5.007812 "/>
<path style=" stroke:none;fill-rule:nonzero;fill:rgb(27.843139%,46.666667%,72.156864%);fill-opacity:1;" d="M 4.820312 13.984375 C 4.914062 14.015625 5.007812 14.046875 5.101562 14.078125 C 4.800781 14.328125 4.507812 14.5625 4.15625 14.738281 C 4.09375 14.707031 4.03125 14.679688 3.96875 14.644531 C 4.210938 14.28125 4.402344 14.273438 4.820312 14.171875 C 4.820312 14.109375 4.820312 14.046875 4.820312 13.984375 Z M 4.820312 13.984375 "/>
<path style=" stroke:none;fill-rule:nonzero;fill:rgb(29.803923%,48.627451%,70.588237%);fill-opacity:1;" d="M 5.007812 11.148438 C 5.039062 11.242188 5.070312 11.335938 5.101562 11.433594 C 4.996094 11.621094 4.996094 11.621094 4.84375 11.824219 C 4.792969 11.890625 4.742188 11.957031 4.691406 12.023438 C 4.535156 12.1875 4.535156 12.1875 4.253906 12.285156 C 4.386719 11.996094 4.542969 11.753906 4.734375 11.503906 C 4.8125 11.402344 4.8125 11.402344 4.890625 11.300781 C 4.929688 11.25 4.96875 11.203125 5.007812 11.148438 Z M 5.007812 11.148438 "/>
<path style=" stroke:none;fill-rule:nonzero;fill:rgb(28.627452%,46.666667%,72.941178%);fill-opacity:1;" d="M 17.953125 12.566406 C 18.046875 12.597656 18.140625 12.628906 18.234375 12.660156 C 18.324219 12.855469 18.324219 12.855469 18.394531 13.09375 C 18.417969 13.171875 18.441406 13.25 18.46875 13.328125 C 18.484375 13.390625 18.503906 13.449219 18.519531 13.511719 C 18.425781 13.558594 18.425781 13.558594 18.332031 13.605469 C 18.265625 13.488281 18.203125 13.367188 18.140625 13.246094 C 18.105469 13.179688 18.070312 13.113281 18.035156 13.042969 C 17.953125 12.851562 17.953125 12.851562 17.953125 12.566406 Z M 17.953125 12.566406 "/>
<path style=" stroke:none;fill-rule:nonzero;fill:rgb(20.392157%,52.941179%,78.823531%);fill-opacity:1;" d="M 15.117188 15.96875 C 15.023438 15.96875 14.929688 15.96875 14.835938 15.96875 C 14.835938 16.03125 14.835938 16.09375 14.835938 16.15625 C 14.515625 16.214844 14.515625 16.214844 14.171875 16.253906 C 14.109375 16.191406 14.046875 16.128906 13.984375 16.0625 C 14.25 15.796875 14.789062 15.847656 15.117188 15.96875 Z M 15.117188 15.96875 "/>
<path style=" stroke:none;fill-rule:nonzero;fill:rgb(21.960784%,54.509807%,89.411765%);fill-opacity:1;" d="M 18.140625 11.714844 C 18.125 11.769531 18.109375 11.820312 18.09375 11.875 C 18.042969 12.113281 18.039062 12.324219 18.046875 12.566406 C 17.953125 12.613281 17.953125 12.613281 17.859375 12.660156 C 17.796875 12.378906 17.734375 12.101562 17.667969 11.8125 C 17.859375 11.714844 17.859375 11.714844 18.140625 11.714844 Z M 18.140625 11.714844 "/>
<path style=" stroke:none;fill-rule:nonzero;fill:rgb(23.921569%,53.725493%,91.764706%);fill-opacity:1;" d="M 16.0625 8.410156 C 16.257812 8.449219 16.257812 8.449219 16.441406 8.503906 C 16.410156 8.691406 16.378906 8.878906 16.347656 9.070312 C 16.082031 8.9375 16.066406 8.773438 15.96875 8.503906 C 16 8.472656 16.03125 8.441406 16.0625 8.410156 Z M 16.0625 8.410156 "/>
<path style=" stroke:none;fill-rule:nonzero;fill:rgb(24.705882%,53.725493%,90.196079%);fill-opacity:1;" d="M 7.179688 7.84375 C 7.242188 7.96875 7.304688 8.09375 7.371094 8.21875 C 7.25 8.351562 7.121094 8.476562 6.992188 8.597656 C 6.929688 8.597656 6.867188 8.597656 6.804688 8.597656 C 6.929688 8.347656 7.054688 8.09375 7.179688 7.84375 Z M 7.179688 7.84375 "/>
<path style=" stroke:none;fill-rule:nonzero;fill:rgb(22.352941%,54.509807%,91.764706%);fill-opacity:1;" d="M 12.378906 14.738281 C 12.316406 14.75 12.257812 14.757812 12.195312 14.769531 C 12.097656 14.800781 12.097656 14.800781 12 14.835938 C 11.96875 14.929688 11.9375 15.023438 11.90625 15.117188 C 11.78125 15.085938 11.65625 15.054688 11.527344 15.023438 C 11.527344 14.960938 11.527344 14.898438 11.527344 14.835938 C 12.058594 14.632812 12.058594 14.632812 12.378906 14.738281 Z M 12.378906 14.738281 "/>
</g>
</svg>
