<svg width="20" height="20" viewBox="0 0 20 20" fill="none" xmlns="http://www.w3.org/2000/svg">
<path fill-rule="evenodd" clip-rule="evenodd" d="M10.0001 2C5.58235 2 2 5.6722 2 10.2025C2 13.8266 4.29226 16.9013 7.47093 17.9859C7.87077 18.0619 8.01755 17.808 8.01755 17.5913C8.01755 17.3957 8.01013 16.7496 8.00667 16.0642C5.78107 16.5604 5.31141 15.0964 5.31141 15.0964C4.9475 14.1483 4.42315 13.8962 4.42315 13.8962C3.6973 13.3871 4.47787 13.3975 4.47787 13.3975C5.28121 13.4552 5.7042 14.2428 5.7042 14.2428C6.41771 15.4968 7.57573 15.1343 8.03221 14.9246C8.10405 14.3947 8.31136 14.0325 8.54016 13.8278C6.76325 13.6204 4.8953 12.9171 4.8953 9.77407C4.8953 8.87851 5.20781 8.14677 5.71957 7.57235C5.63651 7.36562 5.36267 6.53146 5.79707 5.40163C5.79707 5.40163 6.46885 5.18118 7.99765 6.24242C8.63584 6.0607 9.32021 5.96951 10.0001 5.96645C10.6799 5.96951 11.3649 6.0607 12.0042 6.24242C13.5311 5.18118 14.202 5.40163 14.202 5.40163C14.6374 6.53146 14.3635 7.36562 14.2804 7.57235C14.7934 8.14677 15.1038 8.87851 15.1038 9.77407C15.1038 12.9245 13.2323 13.6183 11.4508 13.8213C11.7378 14.0758 11.9934 14.5751 11.9934 15.3403C11.9934 16.4377 11.9842 17.321 11.9842 17.5913C11.9842 17.8096 12.1282 18.0654 12.5337 17.9848C15.7107 16.899 18 13.8254 18 10.2025C18 5.6722 14.4182 2 10.0001 2Z" fill="#67748A"/>
<path fill-rule="evenodd" clip-rule="evenodd" d="M3.1353 10.4936C3.12337 10.521 3.08103 10.5291 3.04246 10.5103C3.00318 10.4924 2.98111 10.455 2.99385 10.4276C3.00551 10.3994 3.04794 10.3916 3.08713 10.4103C3.12651 10.4284 3.14893 10.4661 3.1353 10.4936Z" fill="#67748A"/>
<path fill-rule="evenodd" clip-rule="evenodd" d="M3.35165 10.7424C3.32581 10.7667 3.27531 10.7554 3.24104 10.7169C3.20561 10.6785 3.19898 10.6272 3.22517 10.6024C3.25181 10.578 3.30078 10.5895 3.3363 10.6279C3.37173 10.6667 3.37865 10.7177 3.35165 10.7424Z" fill="#67748A"/>
<path fill-rule="evenodd" clip-rule="evenodd" d="M3.5667 11.0596C3.53351 11.083 3.47924 11.061 3.44569 11.012C3.41252 10.963 3.41252 10.9043 3.44641 10.8807C3.48006 10.8572 3.53351 10.8784 3.56752 10.927C3.6006 10.9767 3.6006 11.0355 3.5667 11.0596Z" fill="#67748A"/>
</svg>
