<svg xmlns="http://www.w3.org/2000/svg" viewBox="0 0 16 16">
  <g>
    <path class="ti-background" fill="#FF6E70" d="M16,8 C16,12.4188737 12.4182648,16.0006088 8,16.0006088 C3.58173516,16.0006088 0,12.4188737 0,8 C0,3.58173516 3.58173516,5.34996883e-14 8,5.34996883e-14 C12.4182648,5.34996883e-14 16,3.58173516 16,8"></path>
    <path class="ti-foreground" fill="#FFF" d="M10.1780168,11.4316034 C10.151395,11.354158 10.1138824,11.282158 10.0648739,11.2162084 C10.0164706,11.1496538 9.97895798,11.1230319 9.95233613,11.1363429 C9.78413445,11.2198387 9.60020168,11.2912336 9.40114286,11.3487126 C9.20208403,11.4061916 9.02904202,11.4352336 8.88322689,11.4352336 C8.7192605,11.4352336 8.59401681,11.397721 8.50810084,11.325721 C8.42157983,11.2525109 8.35986555,11.1169815 8.32235294,10.9203429 C8.28423529,10.7237042 8.26547899,10.4363092 8.26547899,10.0599731 L8.26547899,6.24276303 L9.69337815,6.24276303 C9.74178151,6.24276303 9.78715966,6.19617479 9.82951261,6.10239328 C9.8712605,6.01042689 9.89243697,5.89546891 9.89243697,5.75812437 C9.89243697,5.70004034 9.87791597,5.64861176 9.84887395,5.60504874 C9.82043697,5.56088067 9.78171429,5.53667899 9.73331092,5.5324437 L8.26547899,5.5324437 L8.26547899,3.6792 C8.26547899,3.60235966 8.21465546,3.54790588 8.1245042,3.51099832 C7.95811765,3.45896471 7.86070588,3.63987227 7.86070588,3.63987227 C7.41418487,4.67207395 6.53747899,5.46891429 5.4532437,5.80834286 C5.4532437,5.80834286 5.23179832,5.86098151 5.28867227,6.09271261 C5.29532773,6.11267899 5.30137815,6.13264538 5.31105882,6.15261176 C5.34191597,6.21735126 5.37942857,6.25062857 5.42359664,6.25607395 L6.13391597,6.25607395 L6.13391597,10.6517042 C6.13391597,11.2755025 6.32329412,11.7117378 6.70205042,11.959805 C7.08020168,12.2072672 7.58843697,12.3306958 8.22554622,12.3306958 C8.42521008,12.3306958 8.65633613,12.2937882 8.91952941,12.218763 C9.18272269,12.1431328 9.43078992,12.0469311 9.66312605,11.9295529 C9.89606723,11.8127798 10.0672941,11.6941916 10.1780168,11.5737882 C10.2046387,11.5568471 10.2046387,11.5090487 10.1780168,11.4316034"></path>
  </g>
</svg>