<svg width="20" height="20" viewBox="0 0 20 20" fill="none" xmlns="http://www.w3.org/2000/svg">
<path d="M11.946 10.0084H13.5525C13.616 10.0084 13.6769 9.98314 13.7218 9.93824C13.7667 9.89334 13.7919 9.83245 13.7919 9.76896C13.7918 9.7361 13.7853 9.70357 13.7728 9.67319L11.0099 2.15322C10.9929 2.10898 10.9631 2.0708 10.9243 2.04352C10.8855 2.01624 10.8395 2.00109 10.7921 2H9.18082C9.11732 2 9.05643 2.02522 9.01153 2.07012C8.96663 2.11502 8.94141 2.17592 8.94141 2.23941C8.94144 2.26717 8.9463 2.29472 8.95577 2.32081L11.721 9.85993C11.7393 9.90442 11.7705 9.94237 11.8106 9.96884C11.8508 9.99532 11.898 10.0091 11.946 10.0084Z" fill="#0073FF"/>
<path d="M11.6613 18.0001H13.2677C13.3312 18.0001 13.3921 17.9749 13.437 17.93C13.4819 17.8851 13.5072 17.8242 13.5072 17.7607C13.5071 17.7329 13.5023 17.7054 13.4928 17.6793L7.79714 2.1581C7.77993 2.11349 7.74976 2.07505 7.7105 2.04774C7.67124 2.02043 7.6247 2.0055 7.57688 2.00488H5.97281C5.90932 2.00488 5.84842 2.0301 5.80352 2.075C5.75863 2.1199 5.7334 2.1808 5.7334 2.2443C5.73343 2.27206 5.73829 2.2996 5.74776 2.3257L11.4434 17.8493C11.4608 17.8931 11.4908 17.9307 11.5296 17.9576C11.5683 17.9844 11.6141 17.9992 11.6613 18.0001Z" fill="#0073FF"/>
<path d="M8.49644 17.9999H10.1005C10.1608 18.0001 10.219 17.9775 10.2634 17.9367C10.3078 17.8958 10.3351 17.8397 10.3399 17.7796C10.3398 17.7479 10.335 17.7165 10.3255 17.6862L7.55315 10.1591C7.53609 10.1148 7.50628 10.0767 7.46749 10.0494C7.4287 10.0221 7.38268 10.007 7.33528 10.0059H5.72163C5.66066 10.0095 5.60339 10.0364 5.56155 10.0809C5.51971 10.1254 5.49647 10.1842 5.49658 10.2453C5.49651 10.2715 5.50138 10.2975 5.51095 10.3219L8.27139 17.8514C8.28966 17.8959 8.32088 17.9339 8.36102 17.9603C8.40116 17.9868 8.44836 18.0006 8.49644 17.9999Z" fill="#0073FF"/>
<path d="M12.14 2.32809L13.4352 5.84986C13.4522 5.8941 13.4821 5.93229 13.5208 5.95957C13.5596 5.98685 13.6056 6.00199 13.6531 6.00309H15.2523C15.3158 6.00309 15.3767 5.97786 15.4216 5.93296C15.4665 5.88806 15.4917 5.82717 15.4917 5.76367C15.4917 5.73591 15.4869 5.70836 15.4774 5.68227L14.1822 2.1581C14.1651 2.11386 14.1353 2.07568 14.0965 2.0484C14.0577 2.02112 14.0117 2.00598 13.9643 2.00488H12.3578C12.2943 2.00488 12.2334 2.0301 12.1885 2.075C12.1436 2.1199 12.1184 2.1808 12.1184 2.2443C12.1204 2.2733 12.1278 2.3017 12.14 2.32809Z" fill="#0073FF"/>
<path d="M5.53463 18H7.13871C7.2022 18 7.26309 17.9748 7.30799 17.9299C7.35289 17.885 7.37812 17.8241 7.37812 17.7606C7.37809 17.7328 7.37323 17.7053 7.36375 17.6792L6.06135 14.1478C6.04413 14.1032 6.01396 14.0648 5.97471 14.0375C5.93545 14.0102 5.88891 13.9952 5.84109 13.9946H4.23941C4.17592 13.9946 4.11502 14.0198 4.07013 14.0647C4.02523 14.1096 4 14.1705 4 14.234C4.00009 14.2626 4.00494 14.2909 4.01436 14.3178L5.30958 17.8492C5.32747 17.8941 5.35856 17.9326 5.39874 17.9595C5.43891 17.9864 5.48628 18.0005 5.53463 18Z" fill="#0073FF"/>
</svg>
