<svg width="20" height="20" viewBox="0 0 20 20" fill="none" xmlns="http://www.w3.org/2000/svg">
<path d="M18 8.31782V2H2V10.5607H13.0005V11.6822H2V18H18V9.43927H6.99947V8.31782H18ZM9.99572 16.3563C9.55912 16.3563 9.20813 16.0054 9.20813 15.5688C9.20813 15.1322 9.55912 14.7812 9.99572 14.7812C10.4323 14.7812 10.7833 15.1322 10.7833 15.5688C10.7833 16.0054 10.4323 16.3563 9.99572 16.3563ZM13.5399 13.9165H6.45158L6.79401 12.7951H13.2317L13.5399 13.9165ZM9.99572 3.64366C10.4323 3.64366 10.7833 3.99465 10.7833 4.43125C10.7833 4.86784 10.4323 5.21883 9.99572 5.21883C9.55912 5.21883 9.20813 4.86784 9.20813 4.43125C9.20813 3.99465 9.55912 3.64366 9.99572 3.64366ZM6.78545 7.19636L6.44302 6.07491H13.5399L13.2231 7.19636H6.78545Z" fill="#FFD201"/>
</svg>
