<svg width="20" height="20" viewBox="0 0 20 20" fill="none" xmlns="http://www.w3.org/2000/svg">
<path d="M9.89176 2C5.85583 2 6.10786 3.74633 6.10786 3.74633L6.11235 5.55551H9.96374V6.09871H4.58259C4.58259 6.09871 2 5.80647 2 9.8697C2 13.9329 4.25414 13.7888 4.25414 13.7888H5.59943V11.9033C5.59943 11.9033 5.52692 9.65422 7.81758 9.65422C10.1082 9.65422 11.6375 9.65422 11.6375 9.65422C11.6375 9.65422 13.7836 9.68883 13.7836 7.58466C13.7836 5.48049 13.7836 4.10547 13.7836 4.10547C13.7836 4.10547 14.1095 2 9.89175 2L9.89176 2ZM7.76809 3.21659C8.15128 3.21659 8.46098 3.52561 8.46098 3.90794C8.46098 4.29028 8.15128 4.59929 7.76809 4.59929C7.38491 4.59929 7.0752 4.29028 7.0752 3.90794C7.0752 3.52561 7.38491 3.21659 7.76809 3.21659Z" fill="#0D84E8"/>
<path d="M10.1084 17.9999C14.1443 17.9999 13.8923 16.2536 13.8923 16.2536L13.8878 14.4444H10.0364V13.9012H15.4176C15.4176 13.9012 18.0002 14.1935 18.0002 10.1302C18.0002 6.06699 15.746 6.21108 15.746 6.21108H14.4007V8.09658C14.4007 8.09658 14.4733 10.3457 12.1826 10.3457C9.89192 10.3457 8.36269 10.3457 8.36269 10.3457C8.36269 10.3457 6.21653 10.3111 6.21653 12.4153C6.21653 14.5194 6.21653 15.8945 6.21653 15.8945C6.21653 15.8945 5.89068 17.9999 10.1084 17.9999H10.1084ZM12.2321 16.7833C11.8489 16.7833 11.5392 16.4743 11.5392 16.092C11.5392 15.7096 11.8489 15.4006 12.2321 15.4006C12.6153 15.4006 12.925 15.7096 12.925 16.092C12.925 16.4743 12.6153 16.7833 12.2321 16.7833Z" fill="#EAB159"/>
</svg>
