<svg width="20" height="20" viewBox="0 0 20 20" fill="none" xmlns="http://www.w3.org/2000/svg">
<path d="M4.66675 8.44442V7.11108L10.0556 10.8333L15.4445 7.11108V8.27775L10.0556 12.2222L4.66675 8.44442Z" fill="#59CA8B"/>
<path d="M4.66675 10.6666V9.33325L10.0556 13.0555L15.4445 9.33325V10.4999L10.0556 14.4444L4.66675 10.6666Z" fill="#59CA8B"/>
<path fill-rule="evenodd" clip-rule="evenodd" d="M18 10C18 14.4183 14.4183 18 10 18C5.58172 18 2 14.4183 2 10C2 5.58172 5.58172 2 10 2C14.4183 2 18 5.58172 18 10ZM10 17C13.866 17 17 13.866 17 10C17 6.13401 13.866 3 10 3C6.13401 3 3 6.13401 3 10C3 13.866 6.13401 17 10 17Z" fill="#59CA8B"/>
</svg>
