<svg width="20" height="20" viewBox="0 0 20 20" fill="none" xmlns="http://www.w3.org/2000/svg">
<path fill-rule="evenodd" clip-rule="evenodd" d="M10.25 13C12.8734 13 15 10.8734 15 8.25C15 5.62665 12.8734 3.5 10.25 3.5C7.62665 3.5 5.5 5.62665 5.5 8.25C5.5 10.8734 7.62665 13 10.25 13ZM10.25 15.5C14.2541 15.5 17.5 12.2541 17.5 8.25C17.5 4.24594 14.2541 1 10.25 1C6.24594 1 3 4.24594 3 8.25C3 12.2541 6.24594 15.5 10.25 15.5Z" fill="#6D778B"/>
<path fill-rule="evenodd" clip-rule="evenodd" d="M3 18C3 17.4477 3.46371 17 4.03571 17H16.4643C17.0363 17 17.5 17.4477 17.5 18C17.5 18.5523 17.0363 19 16.4643 19H4.03571C3.46371 19 3 18.5523 3 18Z" fill="#EF678A"/>
</svg>
