<svg width="20" height="20" viewBox="0 0 20 20" fill="none" xmlns="http://www.w3.org/2000/svg">
<path fill-rule="evenodd" clip-rule="evenodd" d="M7.45568 3.94123C9.22549 2.01815 12.1562 1.45402 14.5657 2.56405C17.767 4.03904 18.9349 7.79639 17.192 10.6947L13.2711 17.2076C13.052 17.5715 12.6914 17.8371 12.2686 17.9459C11.8458 18.0547 11.3953 17.998 11.016 17.7881L15.7629 9.90158C17.0275 7.79804 16.1817 5.07139 13.8607 3.99783C12.1193 3.19237 9.99043 3.59474 8.70393 4.97997C7.9943 5.74043 7.59587 6.72224 7.58259 7.74331C7.56931 8.76443 7.94206 9.75548 8.63166 10.5328C8.75559 10.6722 8.88899 10.8037 9.03093 10.9264L6.25968 15.5387C6.15131 15.719 6.00702 15.877 5.83505 16.0037C5.66309 16.1305 5.46681 16.2235 5.25742 16.2774C5.04804 16.3313 4.82965 16.3451 4.61473 16.3179C4.39981 16.2907 4.19256 16.2232 4.00482 16.1191L7.0133 11.1118C6.58114 10.5135 6.27081 9.84197 6.09865 9.1328L4.25511 12.2074C4.03597 12.5713 3.67541 12.8368 3.25259 12.9457C2.82978 13.0545 2.37928 12.9978 2 12.7878L6.76741 4.85706C6.96584 4.53137 7.19632 4.2247 7.45568 3.94123ZM12.9582 6.46562C14.1063 7.10245 14.5029 8.51872 13.8385 9.62094L9.26689 17.2067C9.04776 17.5706 8.6872 17.8361 8.26439 17.945C7.84157 18.0538 7.39106 17.997 7.01178 17.7872L11.2567 10.7248C10.9161 10.656 10.5951 10.5169 10.3159 10.3173C10.0367 10.1177 9.80594 9.86231 9.63955 9.56873C9.47312 9.27511 9.37504 8.95036 9.35207 8.61678C9.3291 8.28325 9.38175 7.94889 9.50645 7.6368C9.63114 7.32471 9.82485 7.04229 10.0742 6.8091C10.3236 6.57591 10.6227 6.3975 10.9509 6.28615C11.2791 6.1748 11.6285 6.13318 11.9751 6.16417C12.3216 6.19516 12.6571 6.298 12.9582 6.46562ZM11.2953 7.89125C11.2167 7.94917 11.1508 8.02139 11.1013 8.10377H11.1011C11.0265 8.22789 10.9919 8.37042 11.0017 8.51342C11.0115 8.65637 11.0652 8.79337 11.156 8.90702C11.2469 9.02066 11.3707 9.10592 11.512 9.15196C11.6533 9.19803 11.8056 9.20279 11.9497 9.16571C12.0938 9.12859 12.2232 9.05134 12.3215 8.94359C12.4199 8.83584 12.4828 8.70254 12.5023 8.5605C12.5218 8.41842 12.497 8.27401 12.431 8.14551C12.365 8.01701 12.2608 7.91017 12.1316 7.83854C12.0458 7.79095 11.9512 7.76009 11.8529 7.74766C11.7547 7.73527 11.6549 7.74153 11.5593 7.76617C11.4636 7.79081 11.3739 7.83328 11.2953 7.89125Z" fill="#655CFC"/>
</svg>
