<svg xmlns="http://www.w3.org/2000/svg" width="20px" height="20px" style="max-width:100%;max-height:70vh" viewBox="0 0 1024 1024"><path fill="#6D8FE9" stroke="#6D8FE9" d="M42 0h178.5l1 1 2.5-1 .5 5 1.5-3.5-.5-1.5 3.5 1.5-1 2 1.5-.5 1.5.5-1 2 1.5 1.5 2.5-1.5-1 2 1 2.5 3 .5-2 1q1.3 2.8 2.5.5 2.6-.7 1.5 2l-3.5-1-.5 2 3 .5-2.5 1.5-1.5-.5.5 2.5 6-3-.5 1.5 1 3-.5 1.5q2.3-.7 1.5 1.5l-1 2.5q2.7-1.1 2 1.5l1 2q-3.8 1.8-.5 3.5l2-4 .5 1.5-1 2.5 2.5-1 1.5 4-3 1.5 1.5 2.5 1.5-3 5 .5-4 2 2.5 4.5q1.3-2.2 2.5.5l-1 2h2l1 3-.5 1.5 2 1 1-2 1.5 2.5-3 1-.5 1.5-.5-2-2 .5 2.5 3.5 2 1 1-2 1.5 3.5-.5 1.5q2.6-.8 1.5 2.5l-.5 1.5 3.5.5-5 1q.8 2.3 4.5 1.5l2.5-1.5v2l-1 3 5 1.5-1 3.5 2.5 1.5 1-2 .5 1.5-3 1 1.5 2.5 1.5-.5.5 1.5 1.5-.5-1 2 2 4-1 2 1.5.5 1.5-.5-1 2 2.5-1.5 1.5 1.5-.5 1.5-1.5-.5q-1.5 4.4 1.5 3.5l2.5 1.5v2l.5 1.5 1.5-.5v2l-1 5 1.5-.5 2 1 1-2q2.8 1.3.5 2.5l-1 2 1.5.5 2-1q3 1.5 0 3v-2l-2.5 1.5 1.5 3.5h2q2.3-.7 1.5 1.5-2.5 1.5 1 3l.5 1.5 1.5-.5-1 3 1.5-.5 1.5.5-4 3 6 2-2 .5 1.5 3 4.5 2.5-1.5.5q-1.2-2.3-2.5.5l.5 1.5 3-1 1.5 2.5-1 2 3 1-1 2 2 1-.5 2.5-1.5-.5.5 2.5 2.5-1q-1.5 3.7 1.5 3l2-1 1.5.5.5-1.5.5 1.5-2 3 1.5 2.5 1.5-.5-1 2q3.1 1.8 1.5 3.5l1.5.5-1 2.5 2.5-1 .5 2.5q.8 2.3-1.5 1.5v1l2.5.5-1.5 2.5 2 1 2.5-1.5q-3.5 1.5-1 3l-1 2 2.5.5v-2q1.8 3.1 3.5 1.5l-1 2 3 1h-2l-1 4 1.5-.5 1.5-.5-.5-1.5q2.3-.7 1.5 1.5l-1 2.5 2 .5-1 3 2.5 3.5 1-3 1.5 1.5q-3.5 1.5-1 3l-.5 2.5q-1.3-2.2-2.5.5l2.5 1.5 2-3 .5 3q2.7-1.1 2 1.5l-1 2h2l-2 3 2.5-1.5 1.5.5-2 .5 1.5 3 2.5-1.5-1 2v2l.5 1.5q1.8-3.7 3.5-.5l-1 2.5-2 .5 4 2 1 4-1 2 1.5-.5 2.5 1.5-1.5 4.5 2-1 3.5 2.5-.5 1.5-1.5-.5q.8 2.3-1.5 1.5v1l5-1-.5 1.5q-.7 2.3 1.5 1.5l1.5-.5v2l-1 2 2 .5 2 3.5-1 2v2l.5 1.5 1.5-.5.5 1.5.5-2 3 1.5q-2-1.7-4 2l1.5.5h2l2.5 1.5-2 3 1.5 2.5 1.5-.5v2.5q3-1.2 2 2.5h2q1.5 4.4-1.5 3.5v1l4-1-1 2-1.5.5 4 3 3 8.5 3 1.5-1 4 1.5.5 1.5-.5-1 3 1.5-.5q3-.9 1.5 3.5l3 4q-2.2 1.2.5 2.5l1.5-.5-.5-1.5 1.5 3.5-1 2 3 1-1 2.5 3 .5-1 1 1.5 2.5-1.5.5 1.5 2.5 1-2q2.8 1.3.5 2.5l1.5 2.5 2.5.5-1 2 1.5-.5 1.5.5-2 .5.5 2q1.2-2.2 2.5.5l-1 2 4 6-1 3h1l.5-1.5 1 2 1.5-.5-.5 1.5 1.5.5-1 2.5q2.7-1.1 2 1.5l.5 1.5-1.5.5 3 1.5 3 5.5-1 2 3-1 1 3-1 2q2 3.7 4 2l-1 2 1.5 3.5 2.5 1.5-1 2.5q2.7-1.1 2 1.5l4.5 5.5-1.5-.5v1.5h2q-1.1 2.7 1.5 2v2l1.5.5-1 3 1.5 1.5 1.5.5-1 2h2l-1 1 3.5 3.5q2.6-.8 1.5 2.5l-1 1 4 4 1 3.5 2 .5v2l4 6-1 2.5 3 1.5 1 4.5 2 .5-.5 1.5q2.3-.7 1.5 1.5l3 4-.5 1.5q3-.8 1.5 3h2v2.5l7 12-.5 1.5q3.3-1.1 2.5 1.5l2.5 4.5 1.5.5v4l5 6 2 6 6 8 1 4 4 5 15 28-12.5-11.5q-2.2.8-1.5-1.5l-14-12V483h-3v-2h-2q1.1-2.7-1.5-2l-2.5-4h-2q1.1-2.7-1.5-2l-5.5-3v-2q-2.7 1.1-2-1.5l-3.5-4.5h-2l-1.5-.5q2.8-1.8-1.5-3.5l-4.5-3.5-.5-1.5q-1.2 2.3-2.5-.5l-.5-2.5-1.5.5q.8-2.2-1.5-1.5l-5-6-2 1v-1l1.5-.5-3-1q2.7-1.7-1.5-3.5l-3-2-1 2-.5-1.5q2.7-1.7-1.5-3.5l-2.5-1.5-.5-1.5-1 2-1.5-2.5.5-1.5H426q1.1-2.7-1.5-2l-4-6-1 2-2-3-1.5-.5q2.3-1.3-.5-2.5l-1.5.5-1.5-2.5-1.5-.5q2.3-1.2-.5-2.5l-2-1-2 1v-1q2.3.8 1.5-1.5l-2.5-1.5v2l-3.5-1.5V405q-2.7 1.1-2-1.5h-2l-2-3 2-1-4-1 2-1q-5.9-.1-8-4l3-1-3.5-1.5-1.5.5-.5-1.5-1.5.5q2.2-1.2-.5-2.5l-2.5-1.5q.8-2.2-1.5-1.5v2q-2.8-1.2-.5-2.5l-.5-1.5q-1.2 2.3-2.5-.5l-.5-2.5-1.5.5-.5-3.5-1 2-1-3-1 2-.5-4-5-2 1-2.5-1.5-2.5-1 3-3-4-1.5.5 1-2-2.5-2.5h-2l-4.5-1q.8-3.4-2-4.5l1-2.5h-4v-1.5l-5-3q2.5-1.5-1-3l-.5-1.5-2 5-.5-1.5.5-1.5-1.5-.5v-4q.8-2.2-1.5-1.5l-7.5-4.5-1.5-4.5-2 1-2-3-5.5.5 2-4-1.5-.5-1.5.5 3-1.5q1.1-2.7-1.5-2l-4 1-1-3-1.5-.5 1-2-2 1-.5 1.5-.5-1.5.5-1.5-3.5-2.5 1-2-2-.5-.5 3-1.5-1.5 1-3-2.5-2.5-.5 1.5q2.3 1.3-.5 2.5l-1-3-2-1h-2l-1.5-.5 1.5-.5 1.5.5q.7-2.6-2-1.5v-2.5q-1.2-2.7-2.5-.5l-2.5-.5 3-1-3.5-1.5-1.5.5 1-2-1.5-.5-1.5.5q2.3-1.2-.5-2.5l-1.5.5q2.3-1.2-.5-2.5l-1 2-2-5q-1.2 2.3-2.5-.5h2l-1.5-2.5-5 2v-1q2.6.7 1.5-2h4v-2.5h-1l-.5 1.5-3-3-1 1-2-1q-1.2 2.3-2.5-.5l2-.5q1.1-2.7-1.5-2-1.7 3.8-3.5.5h2l-1.5-3.5-4 1-1-2 2 1 4.5-1.5-3.5-2.5h-2l-2 1-1.5-3q-3 1.3-2-2.5l-1.5-1.5-3 1-2.5-2.5 2.5 1.5 3.5-1.5-3-1V264q3.7 1.5 3-1.5l-1.5.5-2-1-1 3-1.5-3-2 .5 1 2-2.5.5-1.5-.5 2-.5q1.1-2.7-1.5-2l-.5-2.5-1.5-2.5-1.5.5 2 4-.5 1.5-1.5-2.5 1-1-3-3q-1.1-3.3 1.5-2.5v-1l-3 1v-2q-2.2.8-1.5-1.5l-4-1.5q1.3-3-2.5-2l-1-3-.5 2-2 .5.5 1.5q-2.7-1.2-.5-2.5 1.5-4.4-1.5-3.5-1.7 3.8-3.5.5l2-3-2.5-.5-1.5.5q2.2-1.3-.5-2.5l-1.5.5.5-1.5-2 1-2-3q1.5 3.5 3 1 4.4 1.5 3.5-1.5l-1.5-1.5q-1.7 3.8-3.5.5l-2.5-3.5-1.5.5-2-3-1-2.5-2.5 1q-1.5-3.5-3-1l-1.5-.5 2-1-.5-1.5 1.5.5 1-2-4-2q2.7-1.8-1.5-3.5l-1.5.5 1 2q-2.2 1.3.5 2.5l1.5.5-1.5.5-2.5-3.5q2.2-1.2-.5-2.5l-1.5.5.5 1.5-2 1 .5-1.5 1-3.5-4.5 2v-1l2.5-1.5-.5-2.5-2 3-1.5-.5q3.8-1.7.5-3.5l-2 3-1.5-.5 2-.5q1.1-2.7-1.5-2l-1.5-2.5.5-1.5q-2.2.8-1.5-1.5l1-2.5q-2.7-1.1-2 1.5l-3 2 .5 1.5-2.5-1.5 2-1-.5-1.5 4.5-2-.5-2-2 1q-1.4-2.6-6-2l-1 3q-3 .7-1.5-3 2.7 1.1 2-1.5h-2l-1.5-3.5q-1.2 2.3-2.5-.5l.5-1.5-3 1v-1l1.5-.5-1-2.5-3.5-2-1.5.5.5-1.5-3 1-.5-2.5-1.5-3.5-1.5.5q.7-2.6-2-1.5v-2.5l-2.5-1.5-1.5.5 1-2-2.5-.5q-3.3 1.1-2.5-1.5l.5-1.5-3 1q1.7-2-2-4l-4.5.5.5 1.5q-2.2.8-1.5-1.5l3-1.5 1-2.5v-2q.8-2.2-1.5-1.5l-1.5-.5 1 3-1 2.5-2-.5 1-4-3-2 2 3-2.5-1.5-2 1q1.6-1.7-1.5-3.5l1-3-1.5-2.5-.5 2-3-.5 2-1q-1.2-2.8-2.5-.5l-2 1 1-3-2.5-.5 2-1-3-1 .5-1.5-3 2 .5-3.5-2-2-.5-1.5-.5 2-2.5 1 .5-1.5q.8-2.2-1.5-1.5v-1l1.5-.5-1-2.5q-2.7-1.1-2 1.5h-1l1-3.5-2.5 1v-2q-2.2.8-1.5-1.5h-1q.8 2.3-1.5 1.5l-3.5-1.5 3-2-.5-1.5-1.5.5q2.3-1.3-.5-2.5-1.2 2.3-2.5-.5l-.5-1.5-1.5.5.5-1.5q-2.6-.8-1.5 2.5l.5 1.5-3.5-5.5 2-.5-.5-2-1.5.5q-.7-2.2 1.5-1.5 1.8 3.8 3.5.5l-4.5-3.5-2 3-.5-1.5 1-3q-2-4.5-4-1l3 2q-1.3 2.8-2.5.5-3 .9-1.5-3.5l-1.5.5-1.5-.5 1.5-2.5 2.5 1.5-1.5-2.5q-3.3 1.1-2.5-1.5h-1l1 3-2.5 1.5-2.5-1.5 3-1-2.5-1.5-1.5.5-2.5-5.5-2 3-1.5-2.5h2L71.5 99l-4 1 1-2 2.5 1q1.1-2.7-1.5-2L65 95.5l2-1-4-2 .5-1.5-2 1-2-1 1 3q-2.2.8-1.5-1.5v-2L58 86q3.7 1.5 3-1.5l-1.5.5q-4.4 1.5-3.5-1.5l1.5.5 3.5-1.5-.5-1.5-2 2-2-2-2.5 1.5-.5-1.5-1 3-1-3-1.5.5 1-2-3.5-2.5-2.5 1-2 3.5.5 1.5q-2.2.8-1.5-1.5l.5-2.5 1.5.5 2-4-4 2zm187 5q-3 6 1 5zm3 6-4 2 5 1 2-1zm5 9v1h2zm1 4q0 4 2 1zm12 18-1 3h1zm9 20q-1 3 2 2 1-3-2-2Zm7 7-2 2h2zM45 70l-2 3 3-2zm3 0 1 2q1-3-1-2Zm0 2-3 1-1 2 2-1 2 1h2l-2-1zm222 1-2 2h2zM54 75l-2 2h2zm215 2 1 2q1-3-1-2ZM55 78l-1 3h1zm220 8-2 2h2zM59 87q-1 3 2 2l1 2 1-2 5 2h1q-1-3-4-2-2-4-3-1zm11 4-2 2h2zm208 1v3q3-1 0-3ZM73 95q-3 1-1 3-1 2 2 1zm6 2-1 3h1zm-4 2 1 2q1-3-1-2Zm209 1v3q3-1 0-3Zm-207 1 1 2q1-3-1-2Zm3 1-2 2 1 1 2-1zm8 2v1h2zm203 11-2 2h2zm3 1-2 3 2-1zm-197 3 1 2q1-3-1-2Zm3 3q-2 3 1 2zm5 3-2 2h2zm194 4v2l2-1zm-189 1-1 2q2 3 3 0zm7 4q-5 2-1 4l1-2zm184 0v1h3zm-181 3q-2 3 1 2zm-1 2 1 4v-2h2zm4 4 1 2q2-1 1 2l2 1-1-4zm187 9v2l2-1zm3 1q-3 4 2 3zm-182 1-1 2h3zm7 0-2 2h3zm179 6-2 2 2 1zm-172 1-3 2 4 3zm4 7-1 2 3-1 1 1q1-3-3-2Zm4 3 1 1 1 2 1-2zm4 2-2 2h3zm4 3-1 2q4 1 3-1zm0 3v3q4 1 3-1zm168 1-1 3h1zm-160 3q-2 3 1 2zm1 4 1 1 2 5h1l-2-4q1-3-2-2Zm7 4-2 3h2q3-1 0-3Zm5 4q-2 3 1 2zm8 6-2 2h2zm-1 4 3 4v-3zm5 1-1 3h1zm150 3 1 2q1-3-1-2Zm-149 1 1 2q1-3-1-2Zm2 2 1 2q1-3-1-2Zm151 3q-2 3 1 2zm-143 5-1 3h2l1-2zm8 3-2 2h2zm-2 3 1 2 2-1zm5 4v3l2-1q1-3-2-2Zm6 4v2l-1 2h3q1 2 2 0l-2-1v-1zm139 1 1 2q1-3-1-2Zm-135 4v2l2-1zm2 2q-1 4 5 3v-1q-4 1-3-2zm135 0v1h2zm-127 3q-2 3-3 1l-1 2 2 1h2zm1 5v2l2-1v2h1q1-5-3-3Zm130 3v1h2zm-122 5v1h2zm34 31 1 2q1-3-1-2Zm6 6v3l3-1zm10 9v3l2 1-1-2q1-3-1-2Zm5 4-2 1v1l3-1zm13 11-1 3h1zm0 4v1h3zm7 5-2 2 1 1 3-1zm8 8v2h3q1-3-3-2Zm19 14-2 2 2 1zm4 7 2 2q1-3-2-2Zm5 2-2 2h2zM234.5 3l1 2zm2 4 1 2z" opacity=".996"/><path fill="#6D8FE9" stroke="#6D8FE9" d="m246.5 26 .5 2-2-.5zm8 15 1 2zm16 26 1.5 3.5-2-1zm4 5-1 2zM46 79q2.7-1.1 2 1.5 2.7 1.8-1.5 3.5l1-3-2 1 .5-1.5zm232.5 4 1 2zm-236 1 .5 4.5h-1zM53 85l2 .5-2 1zm-.5 4q2.3-.7 1.5 1.5h-3zm10 7-1 2zm-1 3-1 2zm10 7 2.5 1q1 3-2 2zm10 6-.5 1.5-.5 1.5-1-2zm3.5 6 2 .5v2l1 2-2-1zm4.5 7 1 2zm214 6 2.5 1.5-1.5-.5zm11 14q2.8 1.2.5 2.5l1 2-2-1 1-2zm-200 1 1.5.5-2.5 1.5zm11 9q2.3-.7 1.5 1.5zm12 13 1.5 2.5h-1zm9 4 2.5 1.5q1.3 4.8-2 3.5l1-3.5-1.5.5-1.5-.5zm5 3 1 2zm-1 2 1 2zm4 2 2.5 3.5-2 .5zm-6 1 1 2zm20 12 1.5 2.5-2 1v-2zm8 8 1 2q-2.8.7-1-2Zm7 7 .5 2.5h-1zm49 43 .5 2.5h-1zm153 25 1 2zM272 286l2 .5-2 1zm34.5 33 1.5 3.5-2-1zm18 18 1 2z" opacity=".996"/><path fill="#7FA1EF" stroke="#7FA1EF" d="M224.5 0q2.7 1.3.5 2.5l-.5 2.5zm4 0 2 1q1.3-2.3 6-1h252l1 1 14.5.5-3 1 4 3 .5 2.5q1.5-3.5 3-1l2-1 .5 2-5 .5 2.5 1.5q1.2-2.2 2.5.5l-3 1 1.5 2.5-2.5.5 3 2-1.5 2.5q2.6-.7 1.5 2l-2 .5.5 1.5q-2.2-.7-1.5-4.5v-2l-.5-1.5q-2.8 1.3-.5 2.5.8 2.6-2.5 1.5l1 2 1.5-.5-3 4 1 2.5h2q-1.5-3.7 1.5-3 1.1 2.8 4.5 2l-.5 2-1.5-.5-.5 2.5-.5-2-3 .5 2 3h-1q.8-2.2-1.5-1.5-2.7 1.3-.5 2.5l1 2-4 3 .5 1.5 5.5-4.5-.5-1.5 2.5.5-2 3 1 4.5 2-.5-.5-1.5 1.5 1.5-.5 2.5-3-2-3.5 1.5q1.3 2.8 2.5.5 3.8-1.2 2.5 2.5l-3 1.5v2q-2.7-1.1-2 1.5h3l.5-2.5 1.5 2.5-2 1 1.5 2.5 1.5-.5-3 1q.8 2.3-1.5 1.5l-1.5-.5q-.8 2.6 2.5 1.5v2l3.5-1q1.1 2.7-1.5 2v2q-4.4-1.5-3.5 1.5l1.5 2.5 1-2 3.5 1.5-3 1 1 2-1.5-.5-3-1-.5 2q3.7-1.5 3 1.5l3 1v2l1 2-1.5-.5-2.5 1.5 1 2.5 2 .5q-1.3 2.8-2.5.5-2.6-.7-1.5 2l5 1.5-5 1 3 2-1.5-.5-2 1-2.5-1.5 2.5 3.5 2.5-1q-1 3 2 2v3.5h-2l-1 3 3 4v2q.8 2.3-1.5 1.5-1.2-2.2-2.5.5l1 3q-.7 2.3 1.5 1.5l1 2-2-1-.5 2.5 1.5-.5 1.5.5-2 1 1 2h-1l-.5-1.5-.5 2.5 2 4h-1l-1.5-3.5q-3.2 1.8.5 3.5-.7 2.6 2 1.5v3.5q-3.7 1.8-.5 3.5l1.5.5-1.5.5q-1.2-2.3-2.5.5l2 .5.5 2 1-2 .5 1.5-3.5 4.5-1.5.5 3.5.5 1.5-.5-1 3 2 3-1 2.5 2 .5-1.5.5q-1.5-2.5-3 1l-2.5.5 3.5.5 1.5-.5-3 2 2.5 1.5 1.5-.5-1 2 1 2-.5 1.5 2.5 1.5h-2l-1 2 1 2h-1l-.5-1.5-.5 2-2 .5v2q-1.3 4.2 3.5 2.5 3 1.5 0 3l-2.5 1.5 1.5.5 1.5-.5-3 2 1 1v6.5l4 2.5-2.5-1.5q-2.2-.7-1.5 1.5l.5 1.5-1.5.5 4 1.5-1 2.5 1 2.5-3.5-1 .5 1.5-1 2 .5 2.5q2.3.8 1.5-1.5l.5-2.5q4.5 2 1 4l-3.5 1 1.5 3 1.5-.5q.8 2.3-1.5 1.5l-1.5-.5q-.8 2.6 2.5 1.5l-1.5 2.5-1 2 1.5 1.5 2.5-1.5-2 4 1.5 2.5q-2.2.8-1.5-1.5h-1l1 5-1 2.5 3.5-2-.5 1.5q.8 2.6-2.5 1.5l1.5 2.5-1 2 2 1-2 1 3 2q.8 2.3-1.5 1.5l-2.5 1q1.1 2.7-1.5 2v1l2 1 .5-3 3 1.5-2 1 3 2-.5 2.5q-4.2 1.3-2.5-3.5h-1q.8 2.3-1.5 1.5l1.5 2.5-1 1 2 2-1 2 2 .5v3q-2.7-1.1-2 1.5l-.5 2.5q-2.2.8-1.5-1.5h-1v2.5h3q-1.1 2.7 1.5 2l-.5-1.5.5-4.5 1.5 2.5q-2.5 1.5 1 3l-.5 1.5-1.5-.5 1 2-1.5-.5-1.5.5 2 3h-2q-1.1 3.3 1.5 2.5l2.5-1.5-.5 2.5h-2l-1.5.5 3 2-2 .5v3q2.7-1.1 2 1.5l1 2-2 4q.8 2.3-1.5 1.5v1q3.8-1 2.5 2h-2q1.5 3.8-1.5 3l1 2 2-1q3 1.5 0 3l-2-1-.5 1.5.5 2.5 2-1 1 3 1.5-.5-4 2 1.5 3.5 1.5-.5q.8 2.3-1.5 1.5l-3-1v1l2.5 1.5-2 1 2 1q-2.5 1.5 1 3l-1.5 3.5-1.5.5 3 1 1 3-2 4 2 1 .5-1.5.5 1.5-.5 2.5-2.5-.5.5-1.5q-2.6-.8-1.5 2.5l3 4q-4 2 0 4l-1 2 2 1-2 1 1 2h-1l-.5-1.5-.5 2.5q5.2 2.2 1.5 4.5l-1.5.5 1 2-.5 1.5q2.3-.7 1.5 1.5l-.5 3.5 1.5.5-2 1 1 2v4l1 3h-2l2 5h-2l.5 2.5 1.5-.5-1.5 4.5q3-.9 1.5 3.5l-1 4.5 2 .5q-3.5 1.5-1 3l-2 4v2q-1.1 3.3 1.5 2.5l-.5 3.5 1 4v2l-1 4h2l-3 4 2 4v6l-1 3.5q2.7-1.1 2 1.5v2l-2 8h2v2l-1 5 .5 1.5-1.5.5q3.5 1.5 1 3l1 5-1 4 1 3v2l-1 3 2 10-1 1v8l1 5-1 2 1 3-.5 15.5-28-50-1.5.5 1-2-6-9 .5-1.5-2.5-1.5-1-4.5-3-.5v-2l-6-11V427h-2q1.5-3.7-1.5-3 1.6-1.7-1.5-3.5l-1-3.5-2-.5.5-1.5q-2.6.8-1.5-2.5l-2.5-3.5q-2.2.8-1.5-1.5l1-1-3-3-2-4 .5-1.5q-2.2.8-1.5-1.5l-5-6 1-3.5-2.5 1q1.9-2.7-3.5-5.5l1-2-3-2 .5-3.5-1.5-.5.5-1.5H439v-2q-2.7 1.1-2-1.5 2.8-1.7-1.5-3.5l-1.5.5v-2l-2-3-.5-2.5-2.5-1.5v-2l-.5-1.5-1.5.5q2.5-1.5-1-3l1-2-1.5-3.5-2.5 1.5 1-2-1.5-2.5q-1.2 2.3-2.5-.5l1-2.5-3-1.5 2-1-1-2.5q-2.7 1.1-2-1.5l.5-1.5-2.5-1.5-.5-1.5-1 2-.5-2.5q2.3-1.2-.5-2.5l-1.5.5 1-2-5-9 .5-1.5-3.5-1.5 1-2-2-1-.5 1.5-1-2-1.5.5 3-2q-3.1-1.7-1.5-3.5l-2.5.5 1 2h-1l-1-2 2-3-3-1 1-2-2.5-1.5-1.5.5 1-3q-3.9-2.1-3-7.5l-2 .5.5 1.5-2.5-.5 2-4-1.5.5-1.5-.5 1-4-3-1.5-3-8.5-2.5-2.5-1.5-.5 2-1-5-2 1.5.5q3 .9 1.5-3.5h-2V259q-3 1.3-2-2.5h-2l-2-4 1.5-2.5-2 1-2.5-1.5v-2l-.5-1.5-1.5.5-1-2 1-2.5-3-.5 3-1-1-2.5-4-2.5 2-1-2-.5q1.4-3.7-4.5-2v-1q2.3.8 1.5-1.5l-.5-1.5 2.5 1.5-1.5-2.5-2-1-2 1 1.5-2.5-1.5-3.5-1.5.5.5 1.5-1.5-2.5 1-3-1.5-2.5-3.5 2 .5-2q1.2 2.3 2.5-.5l-3-1 2-.5 1-2.5q-1.5-3-3 0l.5 1.5-1.5-2.5 1-3-.5-1.5q-1.7 3.8-3.5.5l-.5-1.5-1.5.5 1-2-1-2 1-2.5q-3 1.3-2-2.5h-1l-1.5 2.5-2.5-1.5 3-1-.5-2.5-2 1v-1l1.5-.5-4-2 2-3-.5-2.5-3-2-1.5.5 1-4-2.5-3.5-3 1-1.5-3-2-.5 2-1-2-1 1.5-2.5-2.5-.5 2-.5-.5-2-3 2 1-2 1.5-.5-2-.5 1-2.5-1.5-.5-1.5.5q2.3-1.2-.5-2.5l-2 4-1.5-.5 2-1-1-1q3.1-1.7 1.5-3.5 1.3 2.3 2.5-.5l-.5-1.5-1.5.5-1-3.5-3.5-1 2 4q-3.7 1.3-2.5-2.5h-2q-.7-2.6 2-1.5v-3l-2.5 1-1.5-3.5 3-1-2-1 1-2-3-1 1-3h-2l.5-1.5-2.5.5.5 1.5-2.5-.5 2-3-5-2 2-3h-2q-.7-2.2 1.5-1.5v-1l-3.5-.5 4-3-1.5-.5-1.5.5-.5-2.5-1.5 2.5.5 1.5-1.5-2.5 2-3-3 1 .5-1.5-2.5-1.5 1-2-2-4 .5-1.5-1.5-.5 2-3-2-1-.5 1.5-2-1-1.5.5 1-5h-1l-1.5 2.5.5-1.5-.5-1.5-1.5.5.5-2.5 1.5.5-1-2 .5-1.5-3.5-1 .5-4 1.5.5-1.5-2.5-2.5 1.5q.8-2.2-1.5-1.5l.5-1.5-.5-1.5-1.5.5 1-5-.5-1.5-1.5.5-.5-1.5q-1.2 2.3-2.5-.5l1-2-4.5-2.5-2 3-.5-1.5 3.5-4.5-2.5-.5 1-3-2 1q.8 2.3-1.5 1.5l1-3q-3.7.8-4.5-1.5l5-1-4-1 1-3.5-2-.5 1-2-1.5-2.5-1 2-3-2q-1.3 2.3-2.5-.5h2l-1-2 2-.5.5 2 1.5-2.5-2.5-1.5-1.5.5 2-3-1.5.5-2 1 .5-3.5 1-2-3-1-.5-2.5-1.5 3.5.5 1.5-2.5-4.5 3-1q-2.3-1.2.5-2.5 1.3 2.3 2.5-.5l-5-.5-2.5 5-.5-1.5v-2l-.5-1.5-1 2-.5-1.5 1-2.5-2-.5 1.5-.5 2 3 2.5-1-.5-2-1.5.5 1-2-1.5.5q-2.2.8-1.5-1.5h-1l-.5 1.5q-3.2-1.7.5-3.5l-.5-1.5-1.5.5 1-2.5q-2.7 1.1-2-1.5l-2.5 1.5-1.5-1.5 3.5-1.5 1.5.5q.8-2.2-1.5-1.5l-.5-2.5q1.3-3.7-2.5-2.5l-2.5 1.5 4 2-2.5.5q-1.7-3.1-3.5-1.5l1.5-3.5h2l1.5-.5-3-.5q1.1-2.7-1.5-2l-2 3-.5-1.5.5-1.5-3.5-.5 6-3-1.5-3.5q-1.2 2.3-2.5-.5l1-2-1.5-.5-1.5.5 1-2zM503 6v5h1q1-4-1-5Zm-268 4-1 2 3-1zm270 0 1 4 1-2q1-3-2-2Zm-267 2-2 2h3q1-3-1-2Zm264 3 1 2h1zm-1 8q0 4 2 1zm-254 3-2 2h2zm257 1-1 2 2 1zm2 11q-1 3 2 2 1-3-2-2Zm-3 2-2 2h2zm-247 6-2 2h2zm250 12v4l2-1-2-1zm-235 9-1 3h1zm237 4-2 3h2zm-238 2v2l2 1q1-4-2-3Zm235 6q-2 3 1 2zm2 11q-3 2 0 3 3-1 0-3Zm-2 4 1 2h2zm-1 4v3h1q1-4-1-3Zm4 2q0 4 2 1zm-4 6v2l2-1zm-210 10v3l2-1q1-3-2-2Zm214 6q-3 2 0 3 3-1 0-3Zm-3 1-3 2h4zm-203 9-1 2h3zm209 10-2 3 2-1zm-4 10q-3 5 1 4v-2zm3 0-1 2v1h2zm-2 6-2 3 3 1q3-2-1-4Zm-1 22-1 2 2 1zm-174 1 1 2q1-3-1-2Zm175 48v1q2-1 1 2 3 1 2-1zm-140 17v2l2-1zm142 2v2l2-1zm2 25 1 4 1-2zm1 53-1 2 2 1z"/><path fill="#7FA1EF" stroke="#7FA1EF" d="m509.5 1-1 2-1.5.5 2 1-1.5.5-1.5-3zm-281 4 1.5 5q-4.1 1.2-1.5-5Zm6 17 1 2zm24 37 1 2zm.5 3q3-1 2 2-3 1-2-2Zm1.5 6 1 2zm4 4 1.5 2.5-2-1zm4 5q2.3-.7 1.5 1.5zm3 5 2 3 1.5-.5v2q.8 2.3-1.5 1.5 1.7-2.3-2.5-4.5zm6 10 2.5 3.5-2 1 1-2h-2zm236 0-1 2zm-233 10 1 2zm229 3 1.5 3-2-.5zm-221 6-1 2zm1 2 1.5 4-2-.5v-2zm14 27 .5 1.5-2 1zm3 8 1 2zm205 16-1 2zm-195 2 1 2zm12 14 .5 2.5h-1zm3 6 1.5 2.5-2-1zm12 23q2.3-.7 1.5 1.5zm23 43 2.5.5-2.5.5zm6 8 2.5 1.5-1.5-.5zm9 14 1.5 2.5-2 1v-2z"/><path fill="#9CBAF5" stroke="#9CBAF5" d="M489.5 0h18l2 2q1.5-3.5 3-1 8.2-1.7 12 1h2l16 1 9 2h2l11 1 6 2 20 3 5 2h5l54 16 48 20L740 69l.5 2h2L775 91q-1.1 2.7 1.5 2l5.5 3v2q2.7-1.1 2 1.5 2.2-1.8 4.5 2.5l3.5 2.5.5 1.5 1.5-.5q-.7 2.3 1.5 1.5l2 3 1-1 3 3 5.5 4.5.5 1.5 1.5-.5q-2.3 1.3.5 2.5 1.7-2.7 3.5 1.5l.5 1.5q1.2-2.3 2.5.5l-.5 1.5q5-.5 5.5 3.5l.5 1.5q1.8-2.7 3.5 1.5l-.5 1.5h2l5.5 5.5q-1.1 3.3 1.5 2.5h2l17.5 17.5-12.5-11.5-1.5.5q2.8-1.7-1.5-3.5l-.5 4q-2.7-1.1-2 1.5l-2.5 1.5q-1.2-2.2-2.5.5l.5 1.5-4-1 1 2q4.8-1.3 3.5 2l-3 .5 3 1-3.5.5-2-1 .5 1.5-1 3 .5 1.5-5-4 1.5 2.5-.5 1.5-2-3-.5 1.5 1.5 3.5h2l2-1-1 2-4.5 1.5 2 1-2 3v2l-.5 2.5-.5-2.5 1-3-.5-2.5q-4.3 1.8-1.5 3.5l-.5 1.5-.5-2-2 .5 1 2q-1.5 3-3 0l1-2-1.5-.5-1 3-2-1-1.5 2.5 1.5-.5q4.6-1.3 2.5 4.5-1.3 2.7-2.5.5l-4 2-1-2q-3 1.5 0 3 3.3-1.1 2.5 1.5l.5 1.5h-6q-2.2-.7-1.5 1.5l-5 2 4.5 1.5q3.7-2 2-4 2.3-.7 1.5 1.5v2l-2.5 2.5-5-2-.5 1.5 2.5 1.5h2l1.5.5-3.5 1.5q-1.2-2.2-2.5.5l1 2q-1.3 2.8-2.5.5l-3.5 1.5 3 4-.5 2.5-2.5-1.5 2-1-3.5-.5-3 3-1-1q-2.7-.6-1.5 5.5l2.5 3.5-1.5-.5-.5 1.5-1-2 1.5-.5-4.5-2.5.5 1.5 1 4h-2l-.5 1.5h-2l-2-1-.5 2.5.5 1.5q-1.2-2.2-2.5.5l3.5 1.5 1.5.5-5 3 1 2-3 1 1 2h-1q.8-2.2-1.5-1.5l-1-3-3.5 2.5-4.5 7.5q-4.2-1.1-2.5 3h-3.5l-2 3 3-2 2.5 1q1 3-2 2l-.5-2q-2.7 1.3-.5 2.5l1.5 2.5 1.5.5-1.5.5-2-1-1.5.5 1-3.5-3.5-2-.5 2.5v2l-.5 1.5h-2l-1.5.5 4 .5 1 4.5-2.5.5-1.5-1.5-.5-2.5-1.5 2.5q3.7 1.8.5 3.5l-3-2q-2.7 1.2-.5 2.5.8 2.3-1.5 1.5v2l-2-1-1 2-1.5-.5q-.7 2.3 1.5 1.5v1l-2-1-1 3-1.5-.5q-.7 2.3 1.5 1.5l2.5 1.5-1.5.5q-1.2-2.2-2.5.5l.5 1.5-1.5-.5 1 2-1.5.5-2.5-.5q1.1-3.3-1.5-2.5l-.5 2.5 1 3.5q-3.7-1.5-3 1.5h2l-1.5 2.5-.5-2q-4.1-1.7-3 2.5l-.5 2.5q-1.2-2.2-2.5.5l-2 3 1 2-2-1 1-2q-1.5-3-3 0l1 5-2.5 3.5-1.5.5.5 1.5q-1.2-2.2-2.5.5l-3.5 6.5-5.5 1.5 1 2.5-5-1 1.5 3 1.5-.5-3.5 1.5v-2q-2.6-.8-1.5 2.5l1 3-1.5-.5q-3.3-1.1-2.5 1.5l-3 2 3 1.5-.5 3-1-2-2 4-1.5-2.5 2-3-2.5 1.5-1.5.5.5 2.5 1.5.5-2 .5-.5 2-1-2-.5 2.5 1 4h-1q.9-3.4-4.5-1.5l2 5 1.5.5-2.5.5-2-3-.5 2-2 .5 1 2.5-2.5-1-1.5 3 4 1.5-2.5 1.5-2-3-2.5.5 1 4.5-2 .5q2.5 1.5-1 3l-.5 1.5q-1.7-3.7-3.5-.5l3 2-1.5-.5-1.5.5.5 1.5-1.5-.5v1.5h-4v1.5l3 1h-2l-.5 1.5-2.5-1-1 2.5.5 1.5q-2.2.8-1.5-1.5h-1l-1 3 2 .5-.5 2q-1.2-2.2-2.5.5l3 2-1.5.5h-2l-3 2-1.5 3.5-.5 1.5-1-2-2 4-2-3-.5 3-2 .5 2 3-1.5-.5-1.5.5q3.8 1.8.5 3.5-1.5-3.5-3-1l-1.5.5 2 1-2 1 .5 1.5H628v2q-3-1-2 2h-3v1.5l1 4h-1q.8-2.2-1.5-1.5l.5 1.5-.5 1.5q-1.2-2.2-2.5.5l1 2h-1l-.5-1.5-1 3-2-1-3 5-1.5-.5 1 2-2 .5-2.5 6-1-2-4.5 1.5 4 2-4 1 .5 1.5-2-1 1 2 1.5.5-1.5.5-1.5-.5q.8 3.8-1.5 4.5l-3.5 1.5 1 3-2-1-.5-1.5-3.5 5.5 2 1-5 3-1.5 2.5-1.5-.5-.5 2.5-1.5-.5-6.5 8.5-1.5.5 1 2-2.5 1.5-1.5-.5 1 2-2 3.5-2 .5.5 1.5-2-1q1.7 2-2 4l-3.5 2.5.5 1.5q-2.2.8-1.5-1.5h-1l1 3h-2l-5 8.5q-2.7-1.1-2 1.5l-4 3-2 3q-3.1 1.8-1.5 3.5-1.2-2.2-2.5.5l-2 4.5-3 1.5q.7 2.6-2 1.5v3h-1.5l-1.5 3-3 1.5-9.5 12.5-.5-16.5-1-1 1-3-1-2v-12l1-1-2-10 1-3v-2l-2-7h2l-.5-3.5-1 2-.5-1.5 2-3-1.5-2.5 1.5-.5-1-3 1-3-2-3 2-7v-2l-2-3 1-2v-6l-2-4 2-3-1-2 1-3v-2l-.5-1.5-1.5.5 2-4-.5-2.5q-2.6.8-1.5-2.5l1-3-1-3 2.5-3.5q-3 .9-1.5-3.5l-.5-1.5 1.5.5q1.5-4.4-1.5-3.5l1.5-2.5-2-2 1-5-1-2h2l-1.5-3.5-1.5.5 2-4-2-3 2-4q.8-2.2-1.5-1.5l.5-1.5-1-2 3-2-3-1v-2l1.5-3.5 1.5-.5-3-2h2l-2-3q2.5-1.5-1-3l1-2-1-3.5 2-.5-1-2 1-2-1.5.5-1.5-.5 3-2-.5-2.5q-1.2 2.3-2.5-.5l2-1-1-2h1l.5 1.5.5-2.5-3-1 1.5-2.5-1.5-.5 2-1-3-2 3-1-1-3 2-4-1.5.5-1.5-.5v-2l1-2-1.5-2.5h1.5v-3q3 1 2-2l-3-.5 2-.5q1.1-2.7-1.5-2v-1l1.5-.5-3-5 1.5.5 2 1 .5-2q-3.3 1.1-2-3l2-.5-3-2 2-1-2-.5 1-4.5-.5-1.5q2.6.7 1.5-2-3 1-2-2h-3v-2.5l-.5-1.5 1.5 3 2-.5v-2l-1-3.5-2-.5 1.5-.5 2.5 1.5-.5 1.5q3 .7 1.5-3l-3-1.5h2l-2-3 1-1-1.5-2.5q2.3.8 1.5-1.5l-3-2 2-.5q-1.1-2.7 1.5-2l2.5-1-1.5-3-2.5-1.5 2-3-3-3 1-1 1-4-1-3 2-2-3-3 1-1 2-3-3-.5 1-2.5-2-3 2-4-.5-1.5-2.5 1.5 6-5q.8-2.6-2.5-1.5l-1-2 1.5-.5-2-3q2.5-1.5 1-7l-.5-1.5 1.5-.5-2-1 .5-1.5-1.5-.5 1.5-.5 2 1v-3q-4.8 1.7-3.5-2.5 2.2-1.2-.5-2.5l-1.5-.5 2-1-2-1 1-2-.5-1.5 1 1 2.5-1.5q-2.8 1.7 1.5 3.5l1.5-2.5-2-1 1-2-1.5.5-4.5 1 .5-4 2.5 1.5 1-2-2-1 2-1-3.5-.5v2q-3-1.5 0-3 4 .5 4.5-2.5l-.5-1.5-3 2-1.5-.5-.5 1.5-1.5-2.5q1.8 1.6 3.5-1.5l1 1 2.5-2.5v-2l-.5-2.5-4 1v-1l1.5-.5-1-2 2-3.5-2-.5 3-5q1.5-4.4-1.5-3.5l-1 3h-2q-3.7.8-4.5-1.5l1.5.5 3-2q1.3 2.2 2.5-.5l-.5-1.5-1.5.5 2-4q1.1-3.3-1.5-2.5l-1.5.5 3-1.5.5-3 2 1-1-2q-2.2.8-1.5-1.5h-1l-1 3 .5 1.5-1.5-2.5 1-2h-2q-.7-2.2 1.5-1.5 1.3 2.3 2.5-.5-2.5-1.5 1-3l-2.5-3.5 3.5 1-.5-2-1.5.5q2.2-1.3-.5-2.5l-3.5-1.5 1.5-.5 3 2 .5-2.5q-2 1.7-4-2 4.5-2.5-1-5l.5-1.5q1.3 2.3 2.5-.5l-1.5-2.5q1 3 6 2v-1l-4.5-1-.5-2-2.5 1 1.5-3 2.5.5-.5 1.5 2 1 1-2q-2.2.8-1.5-1.5l-1.5-3.5-1.5-.5 2-4.5q-3.8 1.5-3-1.5l1.5.5 3 1 .5-1.5-.5-1.5 2.5-.5-3.5-1.5-1 2q-3-2-2.5-7.5h1q-.7 2.3 1.5 1.5v1l-1.5.5 3.5.5v-2q2.6.7 1.5-2l-3.5 1v-2q-3.3 1.1-2.5-1.5 2-3.7 4-2l-2.5-3.5-1.5.5 2-3h-2l2-3q-5.5-2.5-1-5-.7-2.6 2-1.5 1.1 2.7-1.5 2l1 2q2.3-.7 1.5-4.5l-1.5-2.5-3.5 2.5.5 1.5-2.5-.5 1.5-2.5 2.5-1.5-2-3q2.5-1.5-1-3l1-3q-2 1.7-4-2l2.5-.5q1.2 2.3 2.5-.5l-3-4 1.5.5q3.3 1.1 2.5-1.5-2.8-1.7 1.5-3.5l2.5-.5-1.5-1.5-2.5.5-.5 1.5-.5-4q2.7-1.1 2 1.5l1.5-.5 2.5-.5-3.5-1.5-2.5-1.5-1.5-3.5-2.5-1.5 3-1-14.5-.5zM506 2l1 2 2-1zm2 4-1 2q5 2 4-1h-1zm-1 9v2l2-1zm1 3-1 4 2-1q2 1 1-2zm-2 6q1 4-1 3v2q-1 2 2 1l-1-1 3-1 1 2v-2h2v-2zm2 9q0 4 2 1zm0 10 2 3q1-4-2-3Zm0 2q-2 3 1 2zm1 3-1 3h2zm-1 6-2 2h2zm1 17v3q3-1 0-3Zm2 2-2 2h2zm-3 15-1 3q1 2 3 0l-1 2 2 1v-4h-2q1-3-1-2Zm3 14-2 2h2zm0 4-2 2h2zm319 37 1 2h1zm4 1-3 3 2 3 1-2v-4Zm-4 1-2 2 2 3h1zm6 0-2 2h2zm-16 4v1h2zm-308 2-2 3 2-1zm313 0q-3 2 0 3h1zm-6 5v2l2-1zm5 2q-2 3 1 2zm-314 3-2 2h2zm299 6-1 3 2-1q2 1 1-1zm-4 5v2l2-1zm-1 3v1h2zm-2 2-2 4 3-1zm-3 4-2 2h2zm2 1 2 3v-1zm-288 9-2 2h2zm280 1q-2 3 1 2zm-2 3-1 3h1zm-279 1q-2 3 1 2zm0 5-2 2h2zm276 0-3 3-1-1h-1q1 2-1 1l-1 2 2-1 2 1 4-3q1-3-1-2Zm-13 7 1 2 2-1zm-4 3-1 3h1zm5 0-2 2h2zm2 1-1 2-3 2h4zm-266 1q-2 3 1 2zm258 5 1 1 1 1q1-3-2-2Zm-3 1q-2 3 1 2zm-254 1-3 2h3zm251 2q-2 3 1 2zm3 0v1h3zm2 2-1 2v1l3-1zm-13 6q-2 3 1 2zm-245 4 1 3 2-1zm242 1v1h2zm-2 1-3 2 2 2q4-2 1-4Zm-239 1q-2 5 3 4v-2zm1 14q-2 6 2 7v-1q-4-2-1-3zm2 23-2 3 2-1zm202 1 1 2h1zm2 3-2 2h2zm-206 10v3l2-1zm193 1 1 2 2-1zm4 1-3 1 1 2 3-1q1-3-1-2Zm-5 2-4 1 1 2 3-1zm1 3-4 3v2q-1 2 2 1l2-4zm-7 4-3 3h3zm-184 1-2 2h2zm186 0q-2 3 1 2zm-5 3 1 2q1-3-1-2Zm-20 21 1 2 2-1zm-4 4q-2 3 1 2zm-25 32-1 3h1zm-4 5v3q3-1 0-3Zm-16 16v2l2-1zm-2 3 1 2q1-3-1-2Zm-27 34 1 2q1-3-1-2ZM494.5 2l-1 2z" opacity=".996"/><path fill="#9CBAF5" stroke="#9CBAF5" d="m497.5 4 1.5 2.5h-1zm5 2q2.3.8 1.5 4.5h-1l-.5-2.5-2 1V8q2.5.7 2-2Zm-1 5 1 2zm0 4 2.5 1.5-1.5.5zm-1 4-1 2zm-8 20 1 2zm10 1 .5 2-2-.5zm1 3 1 2zm-1 14 1.5.5-3.5 1.5v-1zm0 10 1 2zm-2 1 1 2zm-2 12-1 2zm5 18q2.6-.8 1.5 2.5h-1zm-2 3 1 2zm1 11 1.5 2.5h-1zm1 18-1 2zm1 5 .5 2.5-.5 1.5-1.5-2.5zm3 5 1 2zm325 12 1.5 3.5h-1zm7 0q2.3-.7 1.5 1.5zm-9 7-.5 1.5-.5 1.5-.5-1.5zm-4 5 .5 1.5-2 1zm31 0 3 4zm-35 3 1 2zm40 2 1 2zm3 4 1 2zm-53 3 2.5.5-3 2zm-306 4 1.5 2.5-2-1zm310 0 .5 2-2-.5zm-8 2q2.6-.7 1.5 2l-3-.5zm-301 4-1 2zm-1 3 1 2zm380 9 1 2zm-95 3 1 2zm-4 7 2.5 1.5-1.5.5zm-280 21 3.5 1.5q.7 2.6-2 1.5 1.1-2.7-1.5-2zm260 2-2 3zm-260 6v3q-3-1.5 0-3Zm250.5 3 3 .5-2.5 1.5zm-11.5 15 .5 2.5-2-1zm-4 4-1 2zm-4 2 1 2q-2.8.7-1-2Zm194 8 1 2zm-209 11 .5 1.5-3 2zm-19 23-1 2zm-6 6-1 2zm-8 4 .5 2.5h-1zm-179 29-1 2zm157 0 .5 2-2-.5zM615 400q3-1 2 2-3 1-2-2Zm-1.5 5-1 2zm-99 25 1 2z" opacity=".996"/><path fill="#B7CCF8" stroke="#B7CCF8" d="m508.5 0 2.5.5-2.5.5zm289 109 1 2zm5 4 1 2zm5 4 2.5 1-.5 2zm6 5 3.5 2.5-1.5.5zm8 7 4.5 3.5-1.5.5zm11 10 22.5 22.5v1.5q2.7-1.1 2 1.5l5 3.5 4.5 7q2.6-.7 1.5 2h2v1.5l3 4.5q2.7-1.1 2 1.5 8.7 7.2 13 17.5l3 1.5 3 4v2.5q2.7-1.1 2 1.5 5 3.5 6 9.5 2.7-1.1 2 1.5l8 11v2.5q2.7-1.1 2 1.5l15 24 3 8 3 3 11 22 20 50-.5 1.5q2.3-.7 1.5 1.5l-.5 1.5q2.3-.7 1.5 1.5l-.5 1.5q2.3-.7 1.5 1.5-2.5 1.5 1 3l3 10q-2.5 1.5 1 3l1 4q-2.5 1.5 1 3l6 25q-2.5 1.5 1 3l-1 3 2 4q-2.5 1.5 1 3l-1 3 2 2-1 3q2.6 1.4 2 6l-1 1 2 4-1.5 2.5q2.6-.8 1.5 2.5l1 2-2-1q1.1-3.3-1.5-2.5l.5 1.5-.5 1.5-4-5-2.5 1.5.5 1.5-3-1-1 3-2.5-1.5-.5 1.5-1-2-3 2q-1.2-2.3-2.5.5l.5 1.5-1-3-3 2-2-1v2l-3-2-1.5 2.5 2 3h-3l1-2.5h-2q1.1 2.7-1.5 2v-3h2q2.6.7 1.5-2l-4 1-.5-2-1 3q-1.2-2.2-2.5.5.8 2.3-1.5 1.5l-1.5-.5 1 3-2-1-1.5-3.5q-3.7-1.2-2.5 2.5l1.5-.5 1.5.5-2 .5q1.1 2.7-1.5 2l-1-3-2-1-.5 2-5.5 2v-1l3.5-1.5-1.5-.5-4 1-2-1 .5 1.5-1.5 3.5-.5-2-6-1-.5-2-.5 2.5 2 3-2 1 1-2h-2q.8-2.6-2.5-1.5l-2 1q-1.2-2.2-2.5.5l.5 1.5-2.5-.5-1.5-2.5-.5 2.5 1.5 2.5-3-2-.5 2.5 1 2-4 1 1-1q-3.1-1.7-1.5-3.5l-2-1-2 1-4-3-2 4-1-2-.5 2-4.5 2-3-1-2 1-1-2q-2.7 1.3-.5 2.5l-1.5 2.5-2.5-1.5q1.1-4.2-3-2.5l-1.5 3-1-1-3.5 2.5.5-1.5-2 1 1-2q2.3.8 1.5-1.5l-2.5-.5-1.5.5q2.3 1.3-.5 2.5l-1-1-3 3-2-1-1.5.5-1.5-2.5-.5 2.5.5 1.5-2.5-.5 1-2.5-4 2.5-1.5 2.5-1.5-3-4 1.5 2 1 .5-1.5 1.5 2.5-3.5.5q-1.2-3-5.5-2l-.5 4-2-3q-1.2 2.2-2.5-.5l-.5-1.5-.5 2q-3.8-1.5-3 1.5l1 2h-1l-.5-1.5-1.5.5q2.3-1.2-.5-2.5l-1 2-.5-2-2-.5.5-1.5q-2.2-.7-1.5 1.5l-.5 1.5 2.5 1.5-3.5 2.5q1.6-1.7-1.5-3.5l-.5-4.5-1.5 4.5 1.5 2.5-1.5-.5q.8 2.3-1.5 1.5l-2 2-3.5-1.5q.8-2.2-1.5-1.5l-2.5.5-1.5 2.5.5-1.5 1-2-2-.5q1.1 2.7-1.5 2-1.7-3.8-3.5-.5l1 2q-1.5 3-3 0l-.5-1.5-1 3-1-2-1 3-.5-2.5 1-2-1.5.5-3.5.5 2 .5q1.3 3.3-3.5 2v2l-1.5-.5-.5 1.5-1.5-2.5.5-1.5q-4.2-1.3-2.5 3.5h-1l-.5-3.5-.5 2-2.5 1h-2l-3-1-2.5 1-.5-2-1.5 2.5.5 1.5-2 1-1-3-2.5 1.5.5-1.5-3-1-.5 2-2 .5.5 1.5-2.5-.5 1-2-3.5 2.5-1.5.5 2 1-2.5 1.5-.5-2.5-.5-1.5h-2l-2.5 1.5 2 1-2 1 .5 1.5H736q1.1-2.7-1.5-2-1.2-2.2-2.5.5l2 .5q1 3-2 2l-.5-2-2 1-3.5-.5-1.5 2.5-.5-3-3 1.5-.5 1.5q-1.5-3.5-3-1l-1.5.5.5 1.5-3-2 1 3-3 1-.5-2.5.5-1.5-3.5.5 2 .5q1.1 2.7-1.5 2l-3-2h-2l-10 3-1.5-.5 1 2-2.5-1.5-1 1-3 1v-1l1.5-.5-3.5-.5v2l-5 1-1.5-.5-.5 2.5-2.5-.5q.9-3-3.5-1.5l-2-1 1 2 1.5.5-1.5.5q-2-4-4 0l-4-1-2 3-3-1-4 1-3-1-3.5 1.5 3 1-2.5.5q-1.5-3.5-3-1l-3-1-2.5 1.5.5 1.5-2-1v2l-2-3-.5 2-3.5 2-1-3-4 2q-3.3-1.1-2.5 1.5l-2.5-1.5-1 1-3 1h-2l-5 1-1.5-.5-.5 1.5-.5-2-2 .5.5 1.5-2-1-3 2-3-2 1 3q-2-4-4 0l-3 1q-2-4-4 0-4.7-1.2-6 1h-4l-4 1-1.5-.5-.5 1.5-2-1-3 2-3-1-3 1h-2l-10 1-5 2h-2l-23.5 4 10.5-14q2.3.8 1.5-1.5l3-1.5v-3q2.7 1.1 2-1.5l3-1.5 6-10q2.7 1.1 2-1.5l4-3 2-3q4.2-2.3 2.5-4.5l1.5.5 2.5-6.5.5 2 2-.5q-2.7-1.8 1.5-3.5l2.5-1.5q-2.2-1.2.5-2.5l1.5-.5-.5-1.5 2.5 1-1-2.5 3-1-1-2 2-1-.5 1.5 2.5-1.5-1-2 6-5 1-2-.5-1.5 1.5.5.5-1.5 1.5.5.5-2.5q1.3 2.3 2.5-.5l1.5-2.5 1.5-.5-1-1 3-3 1.5-3.5 2 3 .5-1.5-1-2 .5-2.5 3 1-1-3q2.3-.7 1.5 1.5h1l1-4-.5-1.5 5.5-1.5-4-2 4.5-1.5 1 2 1.5-3.5-2-1 1.5-.5 1.5.5q-.7-2.2 1.5-1.5l-.5-1.5.5-1.5q1.3 2.3 2.5-.5l1-3q-2.2-1.3.5-2.5v2l5-4 1.5.5-1-2 2-.5.5 2 .5-3.5h-2l1-2.5q3.7 1.5 3-1.5l-1.5-2.5q2.6-.7 1.5 2h2q-1.2-3 2.5-2v-2l1.5-.5-2-1 2-1-.5-1.5q1.3 2.3 2.5-.5l-2-1 5-2.5-.5-3-1 2-.5-1.5q1.5-3 3 0l1.5 2.5.5-1.5-.5-1.5 1.5.5-1-2 2 1 .5 1.5 1.5-2.5-2-4 2.5 1.5 3-2h2l1.5-.5-3-2 2-4 .5-2.5.5 2 2-.5v-2q-.7-2.2 1.5-1.5l1.5.5-1-3.5h4v-1.5h-2l1.5-2.5 1 2 2.5-1.5-2-1 7-4.5-1-4.5 3-.5 3-4.5-2-1 1.5-.5 2.5 1 .5-2 2 3 2.5-.5-3-2 1-1-1.5-2.5q5.4-1.9 4.5 1.5h1l-.5-3.5h-2l-2 1-.5-2 3.5 1 3.5-5.5-1.5-2.5 2 1 5.5-4.5q-.8-2.6 2.5-1.5l1.5.5q.2-5.2-3-7l2.5 1.5q2.3.8 1.5-1.5l-.5-1.5 2 1v-2q2.3-.7 1.5 1.5l-.5 1.5q3.3 1.1 2.5-1.5l-.5-1.5 3.5-.5-2-.5.5-2 1.5.5-2-3 2-1-.5 1.5 5-4q1.5 2.5 3-1l1.5-.5-2.5-.5-1.5.5-1-3.5 4.5-1q1.3 2.3 2.5-.5l-1-3 1.5-1.5 1.5.5 1-3-1-2h1l.5 1.5 2.5-1.5.5 1.5.5-3h3v-2q3.8 1.5 3-1.5l-1-2.5-2-.5 4.5-2.5-.5 1.5.5 2.5h2l1.5-.5-1-2 2.5-3.5-3 2 1.5-2.5q.8-2.2-1.5-1.5v-1l3 2 1.5-4.5-2-3 2.5-.5 3 3 1.5-.5-.5-1.5q2.3.8 1.5-1.5h-2l2.5-3.5-1.5-.5 3.5-2.5 2.5.5.5 2.5 1-2 2 3 .5-1.5-1-3.5-4-.5 2.5-1.5 1.5.5 1-2-1-3q2.2 1.7 4.5-2.5h3.5q-1.7-4.1 2.5-3l5.5-8.5-1.5-2.5q1.5 3.5 3 1l2.5-1.5.5-1.5 2.5 1 1-2.5-3.5-2.5-2.5 1.5 4 1-3.5.5-2-1v2q-2.2.8-1.5-1.5l3-1.5.5-2q1.5 2.5 3-1 3.3-1.1 2.5 1.5h1l-1-3 2.5 1.5 2-1 1.5.5-1.5-2.5-2 1-1-2h2q2.3.8 1.5-1.5l2.5-1.5 2.5 1v-5.5l-1.5-.5-3.5-1.5h2l.5-1.5 1 2 2.5-1 .5-2 1 2 5.5-4.5v-2l1-3-.5-1.5 1.5.5.5-1.5 1.5.5.5-1.5 5 2q3-1.5 0-3h-2l-3.5-.5 4-1-1-2h1l.5 1.5.5-2 3-1.5-3.5-1.5-3 2 3-4 1 2 2.5-1.5-2-.5-1-2.5h2l.5-1.5 2 3 1.5-.5-1 2 1.5-.5 3-1q1.2 2.2 2.5-.5 2.1-5.8-2.5-4.5v1l1.5.5-1.5.5-1.5-2.5 3-2-.5-1.5h2l2 1q3.5-5 10.5-6.5l-2.5-1.5-3.5.5q3.5-1.5 1-3l1.5-2.5 2 1 1-2 1 2-1.5.5q1.5 3 3 0l-1-3 1.5-.5 4 1v-1l-2.5-.5 3-.5q1.3-3.3-3.5-2h-2l-2-1-2 1v-1l3.5-2.5-1.5-.5h-2l-2.5-.5 3.5-1.5 3 2 1.5-.5-2 3 1.5-.5 2-1v2l2.5-.5-1-3-2-3q3.1-1.7 1.5-3.5l3 2 1.5-.5.5 1.5 1.5-.5-2 3-1.5 2.5 2.5-1.5q-.7-2.6 2-1.5v-3.5l-5-3.5zm-2.5 6v2l2-1zm2 2-1 3h1zm8 5 1 2q1-3-1-2Zm-6 1-1 3h1zm-15 15 1 3 1-2zm0 5-1 3h1zm-2 7-2 2h2zm-8 2-2 2h3q1-3-1-2Zm-6 1v2h3q1-4-3-2Zm-2 4 1 2q1-3-1-2Zm-3 6-2 1 1 2 3-1zm-5 1-3 5h3l-1-1 1-2 2 3v-3zm-3 7q0 3-2 2v1h3zm0 4 1 2h1zm-11 7-1 4h1zm3 2 1 2q1-3-1-2Zm-9 9q-2 3 1 2zm-3 3-3 2h2q1 2 2 0 1-3-1-2Zm-12 14 1 2 2-1zm-4 2q-1 3 2 2 1-3-2-2Zm-1 2-1 3h2zm-10 7-2 2q3 1 2 3l2-1zm4 4-2 2 2 1zm-12 3-1 2 2 1zm4 3q-2 3 1 2zm-22 19v2l2-1zm-2 5-1 2 2 1zm-2 4-2 3 2-1zm-18 18-2 2h3zm-4 6-1 3h1zm-4 3-3 4 2 2 2-4 1 2v-3zm-14 17-2 2h2zm-3 4 1 3 2-1zm-1 5-2 2h2zm-6 3 1 2q1-3-1-2Zm-13 15 1 2q1-3-1-2Zm-14 15-2 2h2zm-1 3q-3 2 0 3 3-1 0-3Zm-20 22q-1 3 2 2 1-3-2-2Zm350 32q-2 3 1 2zm19 1 1 2h1zm-37 3 1 6v-4q1-3-1-2Zm12 1-1 3h1zm-18 1v3l2-1zm4 0-1 3h1zm16 0 1 1 1 1q1-3-2-2Zm-42 1v4-1q2-2 0-3Zm-16 1v1h2zm14 1-4 2h4zm17 0v1h3zm-9 2-1 3h2zm-29 1v3l-1 2 3-1zm14 1-2 1v1l4-1zm-46 1-2 2h2zm40 0q1 3-1 2l-2 3 4-2 1-2zm-17 3q-3 2 0 3 3-1 0-3Zm-6 1-2 2h3q1 2 2 0zm21 2 1 2q1-3-1-2Zm-26 2q-2 3 1 2zm-39 1 1 2 2-1zm-3 1-1 3q-1 2 2 1l1-3zm-21 6q-2 3 1 2zm-27 1v2l2-1zm6 0v3l2-1q1-3-2-2Zm18 0-3 2 1 2h3q2-1 0-2 1-3-1-2Zm-35 1v2l2-1zm-4 3-1 3h1zm12 0v1h3zm-34 4 1 2q1-3-1-2Zm-13 2-2 2h2zm2 1q-1 4 2 3 1-4-2-3Z" opacity=".996"/><path fill="#B7CCF8" stroke="#B7CCF8" d="m819 156 2.5 1 1.5-.5-1.5 1.5-2.5-.5zm-5.5 4 1.5 3.5-3 2 2-3-3 1zm4 2-1 2zm-8 4 1.5 3-2.5 1-.5-2.5zm5 0 2.5.5q-2.1 3.3-2.5-.5Z" opacity=".996"/><path fill="#B7CCF8" stroke="#B7CCF8" d="m812.5 168 2.5 1.5-1.5.5zm-5 3-2 3-.5-2zm-4 2v2l2.5.5-2.5.5q-3-1.5 0-3Zm-15 16 2 3zm0 7-.5 1.5-.5 1.5-.5-1.5zm-8 4 1.5 2.5h-1zm-9 5q3 1.5 0 3zm3.5 3 3 .5-2.5 1.5zm-2.5 2q1.8 3.1 3.5 1.5.8 2.3-1.5 1.5l-2.5-.5zm-2 1 .5 2.5h-1zm-15 19 1 2q-2.8.7-1-2Zm5 0-2 3zm-11 4-1 2zm2 0 3.5 1.5-2.5.5zm-1 2 3.5 2.5-1.5.5-1-1-3.5 2.5 1-2h-2zm-10 13-1 2zm-7 5 1 2zm-7 8 1.5 2.5h-1zm-2 4 2.5.5q-2.1 3.3-2.5-.5Zm-2 1 1 2zm-2 6 1 2zm-4 2 2 1 1.5-.5-2.5 1.5zm-13 16 1.5 3-3.5 1-1.5-2.5 1.5.5 2.5-.5zm-8 7q1.8 3.1 3.5 1.5 1.3 3.8-2.5 2.5-4.5-2-1-4Zm-24 30 1 2q-2.8.7-1-2Zm-5 6 1 2zm-18 22-.5 1.5-.5 1.5-.5-1.5zm-2 4 .5 2.5h-1zm-3 2-1 2zm-4 4 1 2zM627 381l2 .5-2 1zm355.5 57 1 2-2.5-.5zm-14.5 3 2 .5-.5 2.5zm-4.5 1q3 1.5 0 3zm14 0 1 2q-2.8.7-1-2Zm4 0-1 2zm8 5 .5 2.5h-1zm-57 1 1 2zm-17 1 1 2zm6 0 1 2zm-32 5 1 2zm101 1 .5 3.5h-1zm-131 3 1 2zm-11 1q3 1.5 0 3l-1.5-.5 2-1zm-11 2 1 2-2.5-.5zm154 4 .5 2.5h-1zm1 13 .5 3.5h-1zM705 482l2 .5-2 1zm-5.5 1 .5 2-2-.5zm-5 1 1 2zm299 9 .5 3.5h-1zm0 9 .5 19.5h-1zm0 25 .5 3.5h-1zm-5 57 .5 2.5h-1z" opacity=".996"/><path fill="#5071DE" stroke="#5071DE" d="m45 284 5 2.5-1.5-.5-2-1-1.5.5zm6.5 2q1.8 3.1 3.5 1.5-2.5 1.5 1 3 .8 2.3-1.5 1.5v-2q-2.2.8-1.5-1.5zm11 4 3 4zm-16 1 2.5.5-2 1 .5 1.5-2.5-1.5zm12 0-1 2zm-5 2 1.5 3 2 .5q-2 3.5-4-1zm-3 2q2.6-.7 1.5 2l-3.5 1-2.5-.5zm9 2 1 2-2 1 .5-1.5zm4 0 3.5 1-.5 3-2.5-.5z" opacity=".996"/><path fill="#5071DE" stroke="#5071DE" d="m44.5 298 5.5 1.5-2 1 3 2-1 2 1.5 2.5.5-2 2-.5-2-.5.5-3 1.5.5.5-2.5 3.5 4.5-1 2 .5 2.5 3 2 .5-1.5-2-3 1.5-1.5q1.8 3.1 3.5 1.5l.5 1.5.5-3 3-.5-.5-1.5 2.5.5-2.5 4.5-1.5-.5q.8 2.3-1.5 1.5v1l3 1 3-1h2q4.8-.7 5.5 2.5l-2.5-1.5q-2.2-.7-1.5 1.5h-1l-.5-1.5h-2q-3-.9-1.5 3.5l-.5 1.5 5-2v1l-1.5.5 2.5 1.5h2l2.5 1.5.5 1.5 1.5-2.5-3-2 .5-1.5.5 2q2.7 1.1 2-1.5h1l-1 2 4.5 1.5q1.3-2.2 2.5.5l-1.5 2.5-1-2-2.5 1.5 3 2q-.9 3 3.5 1.5v-1q-2.6.7-1.5-2l2.5 1 .5-1.5-1-2 .5-1.5q-3.7 1.3-2.5-2.5h1q-.7 2.3 1.5 1.5l1.5 3.5 1 3h-2l1.5 2.5 5-4-.5 1.5.5 1.5 1.5-.5-.5 2.5h-2l-1.5.5 3 2 .5-1.5q1.3 2.3 2.5-.5l-.5-1.5 2.5.5q-3.7 1.8-.5 3.5l2.5-1-1-2.5h3l-1 2 2 1 .5-3.5 1.5 2.5-1 2.5q-3-1-2 2l2.5-1 .5 3 2.5 1 1.5-1.5-.5-3.5 6.5 4.5-2 .5-.5 2-1.5-.5v1.5h4l1-4 2 .5-2 4.5 2.5 1 1.5-2.5-2-1 2-.5 1.5-3 1.5.5-2 .5-1 5.5 1.5.5q2.8-1.2.5-2.5-1.1-3.3 1.5-2.5 1.3-2.2 2.5.5h-2l-1 2 2.5 1.5 1-2 .5 1.5-2 4 1.5.5 5-3v1l-2.5 1.5.5 2.5 1.5-.5-1 2 1.5-.5 1.5-.5-.5-1.5q3-.8 1.5 3h4v1.5h1l-1.5-3.5-2 1-1-3-2.5-.5 2.5-.5q1.5 3.5 3 1l1.5.5-.5 1.5q5.2.2 7-3l-2 3-3.5 1.5 2 1 .5-1.5 2.5 1.5-3 2 .5 1.5 3.5-2.5q-.8-2.6 2.5-1.5v1l-2.5 1.5q1.3 2.8 2.5.5l4.5 1.5q-2.7 1.8 1.5 3.5l1.5-1.5-.5-3.5 3-1 2.5 3.5q-2.2 1.3.5 2.5l1.5-.5-1.5 1.5-2.5-1.5 1.5 3.5 3-1q2.3.8 1.5-1.5l2-1-1 2 .5 1.5-1.5-.5-1 2 1.5 1.5q1.5-3.5 3-1l3.5 1.5-2 1q1.3 2.8 2.5.5l1.5-.5-.5-1.5h2q3.3-1.1 2.5 1.5v4l1.5 1.5 2.5-1.5-2-.5q-1-3 2-2l1.5 3 1.5-.5-.5 1.5 2.5-1.5q-2.3-1.2.5-2.5 3.3 1.8-.5 3.5-.8 2.6 2.5 1.5v-2l8 4 1.5-.5q.7 2.6-2 1.5v2l2.5 1 .5-4 6 4.5-5-3 1.5 3.5 4.5 1.5-.5 1.5q2.3.8 1.5-1.5h1l1.5 3.5q3.3-1.1 2.5 1.5h1l1.5-3.5 3 4 1-3 3.5 1q-1.1 2.7 1.5 2v1q-2.2-.7-1.5 1.5l1.5-.5 3-2q1.2-2.2 2.5.5l-3 1 2 1-3 1 4 1.5q-1.5-3.7 1.5-3l2.5.5q1.1 3.3-1.5 2.5-1.2-2.2-2.5.5l7 1.5.5-2 .5 2 3 .5-3 1 3 1-.5 1.5 4 1 2-3 1 4 1-5 2 4 1.5-.5-.5-1.5 2.5.5-1.5 2.5 3 1 2.5-1 .5 2 1.5-.5-1 3 1.5 1.5 8 3v-1l-1.5-.5 1.5-3.5 1 3 1-1 2.5 1.5-1-2q1.8 1.6 3.5-1.5l1.5 1.5h-2l1 2q-1.7-1.6-3.5 1.5l-2.5-1.5 1.5 3.5h2q2.3.8 1.5-1.5h1l1.5 4.5 1.5-.5.5 1.5h2l2 1 1-3 3 2-3-5 4 4 1-1q3.8-.7 4.5 1.5l-1.5-.5-3.5.5 3 2-.5 1.5-1-2-1.5.5-.5-1.5-1.5 3 3 .5-2 1 2.5.5 5-1 2-1 1 2-1.5-.5 1.5 2.5 2-1-.5 1.5v1.5h5.5l.5 2h1.5l2.5.5q-.7 2.3 1.5 1.5l3 1v-2l1 3 3.5 1.5q-2.2 1.3.5 2.5l.5-3.5-1-2h1l2.5 5.5 2-1 2 1-1-2-1.5-.5 2-1-.5-1.5 3 7 2.5-4.5-.5-1.5 2.5 1.5-2 1 1 2.5-2 .5 3 1q-1.1 3.3 1.5 2.5l1.5-.5.5 2.5 3.5-2.5-1 2q1.8-1.6 3.5 1.5l4.5-1 .5 4 2-4q-.2 4.7 3 6l4 1 2-1 1 3 1.5-.5-.5-1.5 1.5.5q-.8-2.6 2.5-1.5l1.5-.5-3 4 2.5 1.5 2-4 1 2q-3-.8-1.5 3l3.5 1-1-3q1.5 3.5 3 1l3-1v1l-2.5 1.5.5 1.5 2.5-1.5-1 3 4 2 .5 1.5 1-2 2.5 1.5-.5 1.5q2.3.8 1.5-1.5l2-1-1 2 4 1.5.5 2 2-5 .5 1.5-1 3.5 2-.5-.5-1.5 4.5 2.5.5 2.5 1-2q.8 2.8 5 2l-.5-1.5.5-1.5 1 2 2-1v1l-3.5 2.5q1.3 2.8 2.5.5l3.5 1.5q-.9 3 3.5 1.5l-.5-1.5-1-2 2 1 1 2-.5 1.5q2.3.8 1.5-1.5l2 1-2 1 3.5 1.5q1.5-2.5 3 1l2.5-1.5q-3.7 1.8-.5 3.5l2-1 .5 2h5v2.5q1.8-1.6 3.5 1.5l1-1 3-1-.5 1.5q-.8 2.6 2.5 1.5l10 6h2l3 2 2.5-1.5q-2.3 1.3.5 2.5 1.5-2.5 3 1l3.5 1q-1.1 2.7 1.5 2l4-1 1 3 3 1q1.5-2.5 3 1l6 3 1.5-.5q-.8 2.6 2.5 1.5l8 5h2l14.5 6.5-1.5 1.5-16 2-11 3h-6l-5 2h-2l-4 1h-2l-3 1h-2l-2 1h-2l-2-1-5 2h-4l-5 1-2 2-3.5-.5-.5 1.5-2-1-3 1-2-1-4 2-6 2-2-1-12 3h-2l-4.5.5.5 1.5-2.5-1-.5 2-2.5-.5.5-1.5-5 1-1.5-.5q.8 2.3-1.5 1.5l-3 1-3.5-.5q.8 2.3-1.5 1.5h-2l-6 2-2-1-3 1h-2q-4.6-.6-6 2l-1.5-.5-.5 1.5-2-1-2.5 1.5.5 1.5-3-2-2 3-1-3h-2l-1.5.5 1 2h-1q.7-2.6-2-1.5 1.1 2.7-1.5 2l-1.5-.5q.7 2.6-2 1.5 1.1-2.7-1.5-2l-1 3-2.5-.5 1-2-1.5.5q-2.2-.7-1.5 1.5l-.5 2.5-3.5-1.5 3-1-3.5-1.5-5 3-1.5-.5q.8 2.3-1.5 1.5l-3-1 .5 1.5-.5 1.5q-1.5-3.5-3-1-2.2-.7-1.5 1.5l.5 1.5-3-4-.5 1.5.5 1.5-2 1-2-3-.5 1.5.5 1.5q-3 .9-1.5-3.5h-1l-1.5 2.5-1-2-2 3-2-1-1 2-2.5-1.5 1 4h-1l-2.5-3.5-3 2-2.5-1 1 2.5-1.5-.5-5-1v1l1.5.5-4 .5.5 2 1.5-.5q-2.3 3.7-4.5-1.5h-4l-6 4-3.5-1-.5-2-3 5 1-3-3 1-1-2-1 3-2.5-.5-.5-1.5-3 2h-4l-2.5.5 3 1q-1.2 2.8-2.5.5l-2 1-2.5-1.5-1.5 2.5-1-3-3-1-.5 4-2 .5.5 1.5-1.5-1.5 1.5-2.5-4 2-2-1h-2q-2.6-.7-1.5 2 3-1 2 2l-3.5 1-2-2-2.5 1.5q2.3-1.2-.5-2.5l-2.5 1.5q.8-2.6-2.5-1.5v1l1.5.5-2 1 2 1-2 1 .5 1.5-2.5-.5 1-4-1.5.5-3.5 1-.5 2-1-3-1.5 3q-2.7 1.1-2-1.5l-1.5.5q-2.6-.8-1.5 2.5l-3 2q2.3-1.2-.5-2.5l-.5 2h-2q1.1-2.7-1.5-2l-2 1v-1l1.5-.5-3-1 .5-1.5q-2.2-.7-1.5 1.5l-.5 1.5 1.5.5-3 2q-.7 2.3 1.5 1.5v1l-2-1-2 1v-1q2.3.8 1.5-1.5 2.3-1.2-.5-2.5l-1 3-2.5-1.5 1 3q-1.2 2.8-2.5.5l-2-1-1 2-.5-1.5 1-2.5q-3-1.2-2 2.5h-1l-.5-2.5-.5 2-2.5-1-2.5 1-.5 2h-2q-3.3-1.1-2.5 1.5l-2 1q.8-2.2-1.5-1.5h-2l-2.5 1.5.5 1.5-2.5-.5 2-3-3 2-.5 1.5-1-3-4 5-1.5-.5-.5 1.5-.5-2-2-.5 2-.5-.5-3-.5 2-4.5 1-2-1-2.5.5q.8 2.3-1.5 1.5l-1 3-4-1-1 3-1-3q-3.3-1.1-2.5 1.5l-.5 2.5-2.5-1-.5-2-1 3-3-1-3-1-.5 1.5.5 1.5-2-3-1.5.5.5-1.5q-2.6-.7-1.5 2h-3v1.5l.5 1.5q-2.6.8-1.5-2.5h-1q.5 4-2.5 4.5l-1.5-.5 2-1-2.5-3.5-3 1-1.5-.5q-.8 2.6 2.5 1.5v1l-1.5.5q2.3 1.3-.5 2.5l-1.5-.5 2-1-1.5-2.5-4 1-1.5-.5-.5 2.5-1-2q-3 1.5 0 3 3.3 1.1 2.5-1.5h1q1.3 4.2-3.5 2.5l-4-2-3.5 2.5 2 3-3.5-2.5-1 1-3.5-.5q1.3-2.7 2.5-.5l3.5-1.5q-1.2-2.7-2.5-.5l-4.5-1-.5 5-1-4-5 1-2-1-1.5 2.5.5 1.5-2.5-.5-.5-1.5-4.5 2.5 2 1-3.5 4.5-2-1-1 24-.5-263.5v-4l1-6v-34l1-1-1-1V307l2-.5-2-4 4-2-3-.5zm2.5 4-3 2 3 1h2l-1-1v-1zm8 3-2 2 2 1zm7 2v2l2-1zm2 2q-2 3 1 2l1 2v-3zm3 7v1h2zm9 0q-2 3 1 2zm5 1q-1 3 2 2 1-3-2-2Zm-10 1v2l2-1zm10 2v1h2zm25 7-1 2-3 1 3 1q4-2 1-4Zm-5 3-1 2 2-1zm15 2-2 2 1 1 3-1zm-5 2 1 2q1-3-1-2Zm17 4q-2 4 2 3v-2zm23 11q-2 3 1 2zm11 2v1h2zm0 2-2 2q2 3 3 0t-1-2Zm-4 1 1 2q1-3-1-2Zm34 14q-2 3 1 2zm8 1-1 3h1zm25 12v2l2-1zm30 14v1h2zm3 1 4 6 1-4h-1zm33 14-2 2h2zm-57 151-1 2q4 1 3-1zm-17 5-1 3h2zm-28 6v2l2 1q1-4-2-3Zm-37 6 2 3 1-1zm-13 3-1 3h1zm-16 1v1h2zm-17 3v1h2zm16 0q-2 3 1 2zm-37 5-2 2h2zm9 0-2 2h2zm-23 1v1h4zm-17 2-1 3h1zm-10 6-1 5 3 1 1-2v-2l-2 1zm29.5-300 2 1 1.5-.5-.5 2.5z" opacity=".996"/><path fill="#5071DE" stroke="#5071DE" d="M72.5 301q3 1.5 0 3-3-1.5 0-3Zm-8 1-1 2-1.5-.5zm14 2 1 2zm-5 2q5.8-1.7 4.5 2l-4.5-1zm9 1 1 2zm3 0 3.5 1.5-1.5 1.5zm10 0-1 2zm-5 1 1 2q-2.8.7-1-2Zm-5 2 .5 2.5h-1zm9 1 .5 2.5h-1zm-19 1 1 2q-2.8.7-1-2Zm26 0-1 2-1.5-.5zm-18 2 1 2zm23 0-1 2-1.5-.5zm-8 4 4.5 1.5-2.5 1.5-.5-2zm13 0q2.3-.7 1.5 1.5l-2 1zm-3 2-.5 1.5-.5 1.5-1-2zm6.5 1q3-1 2 2-3 1-2-2Zm4.5 0-.5 1.5-3.5 4.5 2.5-3.5zm4 0 3.5 1.5-.5 1.5-1-2-3 3-2.5-.5 1-2.5zm-10 5-2 3zm7 1 3 2 1.5-.5-1.5 3.5v-2l-3-2-1.5.5zm-4 1 3.5 2.5-1.5.5zm9.5 1 2 .5-2 1zm15.5 3 1 2zm5 0-1 2zm4 1 1 2-1-1-2.5 1.5zm-15 2 1 2-1.5-.5-.5 1.5-.5-1.5zm9 0-1 2zm2 1 1 2zm-7 1 .5 2.5h-1zm13 0 3.5.5-2 .5q1.5 3.7-1.5 3v-2l-1.5-.5zm5 4 1 2zm-4 1 2.5.5v2q-.7 2.3 1.5 1.5v1l-2 1q1.6-1.7-1.5-3.5l-.5-1.5-1.5.5zm7 0 1.5 3 2 .5-1.5.5zm8 3q2.8 1.3.5 2.5l1 2-2-1 1-2z" opacity=".996"/><path fill="#5071DE" stroke="#5071DE" d="M172.5 348v3q-3-1.5 0-3Zm4 0 3.5 1.5-1.5.5zm-9 2 1 2zm10 2 .5 1.5-2 1zm8 0v3l-2.5-.5zm4 1 .5 2-2-.5zm5 2 2.5 1.5-1.5.5zm-21 1 2.5.5q.8 2.3-1.5 1.5zm18 0-1 2z" opacity=".996"/><path fill="#5071DE" stroke="#5071DE" d="m177.5 357 1 2q-2.8.7-1-2Zm6.5 0 2 .5-2 1zm12.5 1-1 2zm-6 2-.5 1.5-.5 1.5-.5-1.5zm9 1q-1.6 1.8 1.5 3.5l-1.5 1.5q1.6-1.7-1.5-3.5zm-4 1q2.3-.7 1.5 1.5l-2 1zm10 2-.5 1.5.5 1.5 2-1 1 2-2-1-2.5 1zm6 3-1 2zm6 0 2.5 1.5-1.5.5zm-7 3 2.5 1.5-1.5.5zm17 1v2l2.5.5-2.5.5q-3-1.5 0-3Zm-15 2 1 2zm10 1 1.5 2.5-1.5 2.5-.5-1.5 1-2zm3 1 4.5 3.5h-3zm-10 1 1.5 2.5h-1zm4 0 1.5.5-2.5 1.5zm13 0 3.5 2q1 3-2 2zm9 2 2 3zm6 3-1 2zm-7 4 .5 2.5h-1zm5 1-1 2zm15 1q3 1.5 0 3zm-5 2 1 2zm9 3q3 1.5 0 3zm4 2 1.5.5-2.5 1.5zm7 2 1 2-2.5-.5zm-9 2 1 2zm19 1-1 2zm7 4 1 2zm8 8 .5 2-2-.5zm8 1 1 2zm0 3 1 2-1.5-.5-.5 1.5-.5-1.5zm7 0-1 2zm-4 2 1 2zm6 1-1 2zm8 0 2.5.5-.5 3.5 2.5.5-2.5.5-3.5-2.5 1.5.5 1.5-.5zm15 12 2.5 1.5-1.5.5zm10 3-1 2zm16 7-1 2zm12 4-1 2zm6 3 .5 2-2-.5zm18 10q2.3-.7 1.5 1.5zm33 14-1 2zm-72 70-1 2-1.5-.5zm-122 29 1 2zm-2 1 1 2q-2.8.7-1-2Zm-41 3-1 2zm-37 5 .5 1.5-2.5 1.5v-1q2.5.7 2-2Zm-73 18 1 2zm-30 1 .5 2.5h-1zm2 0 1 2zm-8 3q2.3-.7 1.5 1.5h-3z" opacity=".996"/><path fill="#6384E5" stroke="#6384E5" d="M44.5 68v2l1.5.5-1.5 2.5 3.5-1.5-.5-1.5q2.3-.7 1.5 1.5L48 74l3 1.5q-4 2 0 4l1.5 4.5 2-6 .5 2.5-1 2 2.5-1.5 4.5.5 2 3h-2l3.5 4.5q4.8-.7 5.5 2.5-.7 2.3 1.5 1.5l1.5-.5-3 1.5-1 2.5 1.5.5 3.5-2.5-1 2 1 2.5 2.5-1-.5 1.5 2 3h4q-2.5 1.5 1 3-.8 2.6 2.5 1.5l1.5 2.5-1 4.5 2.5 1q3-1.5 0-3l-1.5-.5 3.5-1.5 2.5 2.5h-2l.5 2.5 2.5-.5.5-1.5 1.5 2.5-.5 1.5 1.5.5-.5 1.5q2.3-.7 1.5 1.5 1.8 4.3 3.5 1.5l1.5.5-2 1 1.5 3.5 2.5-1.5 1 3h-1q.7-2.6-2-1.5l1 2.5-2.5.5-1.5.5 5 1.5.5-2 .5 2 3.5 1-.5-1.5-2-3 2-1q-2.2 1.3.5 2.5l1.5-.5-.5 1.5 1.5.5-2 3.5 3.5-1v1q-2.2-.7-1.5 1.5 3.5 1.5 1 3-.7 2.6 2 1.5l.5-2 3 4 .5-1.5-1-2 1-2h-2q2-3.5 4 1l-2 1 3 1-2 .5-1 2.5 2 1-.5 1.5 2.5.5-2 1 3 1-.5 1.5 2-1 3 1 2.5-1.5-2 3v2l.5 2.5 1-2 3 2 .5-2-3-1.5q3.1-1.7 1.5-3.5l1.5 1.5-1.5 2.5 2.5 1.5-1 2q2.7.8 2 5l-.5 1.5q2.3.8 1.5-1.5v-2l.5-2.5 2.5 1-1 2.5v2q.8 2.3-1.5 1.5v1l5 1 1.5-1.5-2.5-3.5 2 1 1.5-.5 2.5 5.5 1.5-.5-.5 1.5q4.4-1.5 3.5 1.5l-1.5-.5-1.5.5 2 3.5 2.5 1 .5-2-2-.5 3.5-.5-.5 1.5.5 1.5q1.3-2.2 2.5.5l-2.5.5-1.5-.5v2.5q2.7-1.1 2 1.5l3 1 1.5 3.5 3 1 .5-2q-3.8 1.5-3-1.5l-.5-1.5 3 1 1.5-.5-1 2 1 2q-2.2 1.3.5 2.5 2.3-.7 1.5 1.5l3 2q-2.2 1.3.5 2.5 2.8-1.2.5-2.5.8-2.2-1.5-1.5l-1-2 3.5 1 .5 2 2-1v1l-1.5.5 1 3-1 2 3-2 .5-1.5 1 3 1.5.5-1.5.5-2.5-1q-1.3 3.3 3.5 2l2.5 1 .5-2 2.5 4-5 2.5 2.5 1.5 1.5-3q2.7-1.1 2 1.5 2.3 4 7 4.5l.5 3 1-3 .5 2.5-1 3.5 2-.5-.5-1.5 1.5-.5-.5-1.5q2.8 1.3.5 2.5v1.5h2q-1.1 2.7 1.5 2 3.7 2 2 4l3 1 1.5-.5-.5 1.5 2.5 1.5 2 3h-2l1 3.5 2-.5-.5-1.5q3.8-.7 4.5 1.5l-2.5.5q-2.2-.7-1.5 1.5l4.5.5q3.3-1.1 2.5 1.5h2v2l.5 1.5 2-1 1 3 2.5.5q-1.2 2.8-2.5.5l-2.5-.5 1-2-3 2 4 2-1 2 3-1-.5 1.5h1.5v4h2l1-2.5-3-4.5 2 .5-.5 1.5h2.5q-1.2 3 2.5 2 1.7 3.1 3.5 1.5l-.5 3.5-3.5-.5q-.8 2.6 2.5 1.5l1.5 3 4.5 1 1.5-.5-3 1.5 1.5 4 2.5-1.5-.5-1.5 4.5 2.5-3 .5 1 2.5-.5 1.5 2.5-1.5-.5-1.5 1 3q2.3-.7 1.5 1.5l2.5-1.5 1 1 2-1 .5 2q-3.8-1.5-3 1.5l3 1q-2.2 1.3.5 2.5 1.3-2.2 2.5.5h-2v2.5q2.7-1.1 2 1.5l2.5-1.5 2-1-1 2-1.5.5 2.5 1.5 2.5-1.5q-2.2 1.3.5 2.5l1.5.5-4 1 4 2 .5 2.5 3-2 2.5 1.5-1.5.5-1.5-.5q.8 2.3-1.5 1.5l1 2h2l2-1 3.5 2.5.5-1.5.5 3q2.7-1.1 2 1.5l-1 2 1.5 3.5 1.5-2.5-.5-1.5 2.5.5q-2.2 1.3.5 2.5l3.5 1.5-3 2 2.5 1.5q1.3-2.2 2.5.5l-3 1 .5 1.5h2l3 1h2q2.3-.7 1.5 1.5l1 2-1 2 1.5-.5 3-1 3 9 .5-3 3 1.5h-2l1.5 2.5 1.5-.5-.5 1.5q2.3.8 1.5-1.5h1l1 3-.5 1.5q2.6.8 1.5-2.5h1l-1 3 6 1.5q1.1 2.7-1.5 2v1l1.5.5-1 3h1l1.5-2.5 2 1 1.5-.5q-2.3 1.3.5 2.5l1.5.5-1.5.5-1.5-.5 1.5 2.5 2-1 2 5 .5-2q3.7-1.5 3 1.5l-3 1 8 3.5 1.5 3 2-1 .5 2.5.5 1.5h2l1.5.5-3 2 2 1 .5-1.5 1 2 2.5-1.5 1 3h-2v1.5h4q-1.1 3.3 3 2v2q-3.3-1.1-2 3l4.5 1 1-1 3.5 3.5-1 2h2l.5 1.5 1.5-.5q-2.3 1.3.5 2.5l1-3 2.5 3.5h-2q-.7 2.3 1.5 1.5l2.5.5-.5 1.5q3-.9 1.5 3.5h1l.5-1.5 1 3 1-2 1 4 1.5-.5 1.5 3.5 2.5-1.5-1 2.5q2.7-1.1 2 1.5l2.5 1.5v-2l2 4 1.5-.5-1 2 1.5-.5 3.5 1.5-3 1q2.1 3.9 8 4l-2 1 4 1-2 1q1.2 2.8 2.5.5l1.5.5-2 .5.5 2 1.5-.5q-.7 2.3 1.5 1.5v-2q2.8 1.3.5 2.5l.5 2.5 1-2 1 2 2-1 2 3 1.5-.5-.5 1.5 2.5 1.5-.5 1.5 2-1 .5 2.5.5 1.5q1.3-2.2 2.5.5l-.5 1.5 2.5 1.5.5 1.5 1-2 2 4q1.2-2.2 2.5.5l-.5 1.5q2.6-.7 1.5 2h2.5l4 5 9.5 7.5-.5 1.5 3.5 1.5 4.5 5.5q2.3-.7 1.5 1.5h2l1.5 3.5 1.5-.5 3.5 4.5 3.5 2.5-.5 1.5 2 1q1.3-2.3 2.5.5l2 4.5h2q-1.1 2.7 1.5 2l5.5 3v2q2.7-1.1 2 1.5l4 2.5 2 4h3v2.5l14 12q-.7 2.3 1.5 1.5l11 12-14-7q-1.5 2.5-3-1l-8.5-3-.5-2h-2l-7-4h-2l-4.5-1.5 2-1-3.5-.5-2.5 1q1.1-2.7-1.5-2l-3-2-1 1-3-3-1 1-3-2-1 1-3-3-10.5-4q1.3-3-2.5-2v2q-2.3-4.3-4.5-2.5V474h-5v-1.5l-1.5.5-4-3h-2l-6-3H414l-.5-2-1.5.5.5-1.5-3 1-1-3q-4.2.8-5-2l-1 2-1-3h-4q-2.6.8-1.5-2.5h-1l-.5 2.5-.5-2-4-1.5 1-2-2 1q.8 2.3-1.5 1.5v-2l-2-1-1 2-2-3-2.5-.5 1-3-3 1 1-2-1.5-.5-1 3-4.5-2-.5-3-1 2-2.5-1.5 2-3.5q-3.8-1.5-3 1.5l-.5 2.5-3.5-2.5.5-1.5-2 1-4-1-2.5-2.5-.5-3.5-2 4-.5-4-3 .5 2 1-2.5 1.5v-2l-2 1-1-3-1.5.5-.5-1.5-2.5 1.5-.5-2.5-2.5 1-.5-3-5.5.5q2.3-1.2-.5-2.5l-1.5.5.5 1.5-1-3-3 2 .5-1.5-1.5-3.5-2 5v-4l-3-1-1.5.5.5-1.5-3 1v-2q-2.2.8-1.5-1.5l-2.5-.5q-2.6.7-1.5-2h-5.5q.6-2.7-2.5-2l-.5 2-.5-1.5v-2q.8-2.2-1.5-1.5l-5 1-2.5-.5 2-1-3-.5 1-2.5-2-.5q1.1 2.7-1.5 2l-4-3-1.5.5-.5-1.5-1.5.5-.5-2.5h-2l-2-1-1.5.5-.5-1.5h-2l-3 1-1-3-5.5-2.5q2.3-1.2-.5-2.5l-2 5-1-2-2.5 1.5q3.8-1.7.5-3.5l-1.5.5q2.3-1.3-.5-2.5l-2.5-.5 3-1-3-2-.5-2.5-1 5-1-4-2 3-4-1-4-4-6-1-1.5.5.5-1.5-3.5-1.5 3-1-2-1 3-1q-1.3-2.7-2.5-.5l-3 2-1.5.5q-.7-2.2 1.5-1.5v-1q-2.6.7-1.5-2h-2.5l-1.5-.5-.5 2.5-3-4-2 4-.5-2-3.5 1-.5-2.5-.5-2.5-.5 2-2.5 1 1-3-5.5-2.5 1-3-2-.5-.5 4-2.5-1-1-2.5.5-1.5q-2.6-.8-1.5 2.5h-1l1-3-4.5-1.5 1.5 2.5-1.5 1.5-1.5-.5 2-1-3.5-1.5v2q-2.2.8-1.5-1.5l1-2-1.5.5-2-1-3.5 2.5.5-1.5q-2.2-.7-1.5 1.5h-1l1-2-1.5-3.5-4 2q-1.7-3.1-3.5-1.5 2.3-1.2-.5-2.5l-1.5-.5 2-1-2.5-1.5-3.5 2.5 1-3q.8-2.2-1.5-1.5l-3.5.5-.5-1.5-3 1-2.5-1.5-.5 1.5-1-2 1.5-.5q-3.1-1.7-1.5-3.5l-4-1v1l1.5.5-1.5.5h-2l-3-2-1.5.5 1.5-2.5 1.5-.5-2.5-1.5-1 2-1-3-2.5.5 1 3-2.5 1.5-1-2 2.5 1v-2h-4q1.5-3.7-1.5-3v2l-2 1-1.5-4.5.5-1.5-2.5 1.5.5 1.5-4.5-2-.5-3-2 1 .5-1.5-.5-4.5-.5 2-2 .5 2 1-1.5 2.5-2.5-1 2-4.5-2-.5-1 4h-4v-1.5h2q.8-2.6-2.5-1.5l-1.5.5-.5-1.5-2 3-1-2 1.5-.5-2-.5-.5-3-2.5 1-.5-2q-1.5 3.5-3 1l-4 2v-3l2 1-3-4-1 2-2-3 1.5-.5v-2l-.5-1.5-2.5 1.5v2l-.5 1.5-4-6q-2.6-.7-1.5 2l2 .5-4 .5-1.5-3-5 2 1-2 2.5-.5-2-.5-.5-2-1 2-2-3-1.5.5.5 1.5q-2.2.8-1.5-1.5l-4.5-2.5-2 1-2.5-.5 3-1q-1.5-4.4 1.5-3.5v-1l-4.5 1-.5 3-.5-2-2.5 1 .5-1.5-2.5-4.5-.5 1.5 1 2-2.5-1.5-2.5-1.5 1-2-2 1-.5 2.5-1-3q-2.2-.7-1.5 1.5l-2.5 1.5v-1q2.3.8 1.5-1.5l-2.5-.5-4.5-1.5 3.5-1.5v2l2 1 1.5-2.5-3-2 2-1-5.5-1.5-.5 2 3 .5-4 2 2 4-2 .5v12.5l1 1-1 1-.5 32.5L42 89.5l1-5-.5-1.5 1.5-.5-2-4 2.5-3.5-1.5-.5v-2l1-2q-2.2-1.3.5-2.5Zm1.5 6v4l4-2zm0 5q-1 3 2 2 1-3-2-2Zm11 4-1 2h4zm-4 2v2l2-1zm5 1 1 3v-2h2zm-5 3 1 2q1-3-1-2Zm6 0q-1 3 2 2 1-3-2-2Zm4 0q-2 3 1 2l-1 2 4 2-2 1h4l1-2-1-1v-2l-2 1v-1zm-3 3q-2 3 1 2zm9 6-1 2h3zm4 1v3l2-1zm4 3v5l2-1zm3 2-1 3 3 1v-2zm-8 3q-1 3 2 2 1-3-2-2Zm7 1 2 2h1zm6 0-2 3h2q3-1 0-3Zm-5 5 1 2q1-3-1-2Zm12 4v2l2-1zm-7 1v2l2-1zm10 0v3q-1 2 2 1l1 3q2 3 3 0l-2-1zm-2 2 1 2q1-3-1-2Zm2 2-1 3h1zm24 22-2 2h2zm9 6-3 2h3zm-2 5 1 2q1-3-1-2Zm5 1 2 2q1-3-2-2Zm6 9q-2 3 1 2zm8 0-2 2 4 1zm2 4-1 2h3zm0 3-1 2 2-1zm2 1-2 3q-1 2 2 1zm7 7-1 3h2zm17 16q-2 4 2 3v-2zm4 4q-2 3 1 2zm8 2q-2 3 1 2zm2 2-2 2 1 1 2-1zm-3 3-1 3h1zm8 2-2 3 2-1zm4 3q-2 3 1 2zm-1 2q-2 3 1 2zm4 1-2 3 2-1zm8 6q0 3-2 2l1 2 2-1zm10 14 1 1q1 2 2 0zm13 9-1 3h3l1-2zm3 6-1 3h1zm14 12-1 2 2 1zM45 284v2l2-1zm227 2v2l2-1zm-218 2q-2 3 1 2zm220 0 1 2 3-1zm-218 2-2 2h2zm-9 1-2 2 3 1-1-1 2-1zm236 2-1 2 3 2zm-228 1-2 2q2 4 4 1l-2-1zm-4 1-2 3 3-1q1-3-1-2Zm9 2q-2 3 1 2zm4 0v4h3v-3zm-9 2v5l2-1zm-2 2q-3 4 1 3zm237 2v1h2zm-225 1v4q2 1 1-1l3-1zm230 0-1 3h2zm-231 1-2 2h2zm10 1v1l4 1q1-4-4-2Zm17 2q-2 3 1 2zm-18 1 1 3v-2h2zm225 0 1 1 1 1q1-3-2-2Zm-212 1-1 3h1zm9 1-1 3h1zm-19 1q-2 3 1 2zm13 1-1 3h3l-2-1zm-6 4v2l3-1zm8 0v4h1zm21 1 1 2q1-3-1-2Zm-12 1 1 2 2-1zm207 0-1 3h1zm-200 2 1 2q1-3-1-2Zm8 0q-1 3 2 2 1-3-2-2Zm6 1v2l2-1zm192 1v1h3zm-206 1-2 3 2-1zm2 0-2 5h2l1-2zm-5 3-2 2h3q1-3-1-2Zm18 1 1 2h1zm4 1v2l2-1zm194 0q0 4 2 1zm-205 1-2 2 4 1h1zm12 4v3l2-1q1-3-2-2Zm13 3-1 3h1zm13 0-2 2h2v2q3 1 1-3h2zm-22 1-2 2 2 1zm7 3v1h2zm5 1-1 2 2-1zm11 0 2 4v-3zm-7 1v1h2zm191 2-2 2h2l1 1q1-4-1-3Zm-187 1 1 2 2-1zm12 2v2l-2-1 1 2 3-1zm3 2-5 3h2l1 2 2-3zm24 3-2 2h2zm-14 3-2 2h2zm2 1q-2 3 1 2zm6 0v2l2-1zm-3 3v3l2-1q1-3-2-2Zm-3 2 1 2h1zm18 0 1 2q1-3-1-2Zm-11 1q-1 3 2 2 1-3-2-2Zm20 2-1 3h2zm-1 4-2 2h2zm24 4v1h2zm-1 4v2l2-1zm7 1q-1 3 2 2 1-3-2-2Zm1 6v3h3q2 1 1-2h-1zm6 1-1 3h1zm3 4v1h2zm14 6 2 2h1zm4 0 1 2q1-3-1-2Zm18 5-2 3 2-1zm-6 1-2 2h2l1 1zm16 7v3q3-1 0-3Zm5 0v1h3zm-1 2v2l2-1zm7 1-2 2h2zm27 11v1h2zm8 3 1 2h1zm0 2-2 2 1 2 2-1zm93 2-1 2 2 1zm-56 14q-2 3 1 2zm12 4-2 2h2zm18 10 1 2q1-3-1-2Zm18 9q-2 3 1 2z"/><path fill="#6384E5" stroke="#6384E5" d="m53.5 75 .5 2-2 .5.5 1.5q-3.5-2 1-4Zm11 11 1 2zm14 11 1.5 3.5-2-1zm9 7 2.5.5-2.5.5zm29 30 .5 1.5-1.5 2.5q-3.5-2 1-4Zm5 8 4.5 2 1 3.5-2-1q.8-2.2-1.5-1.5zm16 12 1 2-2.5-.5zm23 22 2.5.5q.7 3-3 1.5zm9 6v3q-2.2.8-1.5-1.5zm18 18 1 2 1.5-.5q.8 2.3-1.5 1.5zm25 23 .5 2-2-.5zm24.5 26q4.1-1.7 3 2.5h-1l-.5-1.5-1.5.5zm54.5 50 1 2zm-236 10q1.8 3.1 3.5 1.5l-1.5 1.5zm11 7 7.5 3.5h-3q.8-2.2-1.5-1.5l-3-1zm19 16-1 2zm-43 23 .5 3.5h-1zm313 3 .5 2-2-.5zm-203 2 1 2zm219 13 1 2zm-172 3 2.5 1.5-1.5-.5zm25.5 5 2 .5v2l-1.5 2.5.5-1.5zm165.5 76 1 2z"/><path fill="#DBE6FB" stroke="#DBE6FB" d="m520.5 513 12 4 7 4q1.5-2.5 3 1l5 2q1.3-2.2 2.5.5l-.5 1.5 2-1 3 2h2l6 4 3.5-1q-1.2 3 2.5 2l2.5.5.5 1.5 1.5-.5.5 1.5h2l4 2h2q3.3-1.1 2.5 1.5l1 2.5 2-.5-.5-1.5h4l3 3 7 4q1.5-2.5 3 1l1.5-.5-.5-1.5 5 4q1.3-2.2 2.5.5l.5 1.5h4l2-1q-1.7 2 2 4 4.4-1.5 3.5 1.5h1q-.7-2.6 2-1.5l1.5 3 2-1-.5 1.5.5 1.5 4-1-.5 1.5q-.9 3.4 4.5 1.5l1.5-.5.5 3.5.5-3 2 .5-1 2 3-1q-.8 2.6 2.5 1.5v-2l2.5.5q-3.7 1.8-.5 3.5l1-2 .5 2 2 .5-2 .5.5 2 3-2 5 3 1.5-.5-1 4 2 .5q-1.7-4.1 2.5-3l2-1 2 4 3-2v1q-3-.8-1.5 3l2-.5-.5-1.5 1.5.5.5-1.5.5 3 3.5-1 2.5.5q-.8 3 3 1.5l.5-2 2.5 5 2-.5-.5-1.5q2.3.8 1.5-1.5h1l-1 4h2l.5 1.5 1-2 4 3q1.3-2.2 2.5.5l-2.5.5-2-1-1 2q2.3-.7 1.5 1.5h1q-.9-3 3.5-1.5l-.5 1.5.5 1.5 2-3 1 3q3.3 1.1 2.5-1.5l-.5-1.5q2.6-.8 1.5 2.5l2.5.5q2.6-.8 1.5 2.5l-1 2 2-1 1-2-.5-1.5q2 4 8 4l3.5-2-.5 2-1.5-.5 1.5 4.5 2.5-.5.5-1.5.5 1.5-.5 1.5 4-2v2q2.3-.7 1.5 1.5h2q-.7 2.3 1.5 1.5v-2q2.3-.7 1.5 1.5l1.5 2.5 1-2 .5 2 2.5 1 2-4-.5 1.5-1 3 3 .5 1.5-3 1 2-1.5-.5 2 3h2l-.5 1.5q2.6.8 1.5-2.5l-.5-1.5 3.5 2.5q-1.1 3.3 1.5 2.5l-.5-1.5.5-1.5 1 2 1.5-.5-1 3 1.5-.5 2.5-1.5-.5-1.5 3 4 1.5-.5-1.5-2.5 2.5.5v4q-.7 2.3 1.5 1.5l-.5-1.5.5-1.5.5 2 5 1q-1.1 2.7 1.5 2h5.5q-1.1 2.7 1.5 2v-2l1 3q2.3-.7 1.5 1.5l2-1 .5-1.5 1.5 4q4.1-1.7 3 2.5l1.5-.5 4-3 .5 2.5 1.5 2.5 2.5-1.5-2 3 1.5 3.5 1-5 2 5 1.5-3.5-2-1 3.5-1.5-.5 3.5q-1 3.8 2 2.5-1.1-2.7 1.5-2l-1 3 4.5-2.5-.5-1.5 1.5 2.5-.5 1.5 2-1 2.5.5-1 2 2.5.5 4 3 1.5-.5.5 2.5 3-2 2 3q-2.2.8-1.5-1.5l-2 1 3.5 2.5q1.8-3.7 3.5-.5l.5 1.5.5-2q2.7 1.1 2-1.5l-.5-1.5 2 4 1.5-.5-.5 3.5q4.4-1.5 3.5 1.5h1q1.3-3.7-2.5-2.5v-1l5.5 1q-1.3 4.1 2 3l1.5-3q-.6 4.6 2 6l.5-1.5-1-3 .5-1.5 1.5 2.5-.5 1.5 2.5-1.5q-2.2-1.2.5-2.5v4l3 2 1.5-.5.5 1.5q1.5-2.5 3 1l2-1-.5 1.5-.5 1.5q-1.2-2.2-2.5.5l.5 2.5.5-2h3q-1 3 2 2l.5-4 2 4 5-2q1.5 3.5 3 1l1.5.5-2 .5 1.5 3 1.5-.5-.5-1.5q3.8-1.2 2.5 2.5-2.3 1.3.5 2.5 2.8-1.2.5-2.5l1.5-2.5-.5 1.5.5 1.5 1.5-.5q-2.2 1.3.5 2.5l2-5 4 3 1.5-.5-1 2 .5 2.5 3-2 3.5 1.5-3 1 .5 1.5 3-1 1.5 1.5 2 4.5 3-.5-2-.5.5-3 1 2 1-2 2 5 5-3v2l2.5.5-3 4 2.5.5 1-3 4.5 1-1-2.5 1.5.5 2.5.5-1.5 2.5 3-1-.5 1.5.5 1.5 1.5-.5-1 4 2.5-1.5 2-1 1 2 1.5-.5.5 1.5 4-3 .5 2.5.5 1.5 1.5-.5-2 3 2.5.5 1-3v2l2.5-1.5.5-1.5.5 1.5q-2.2 1.3.5 2.5l2-1 1 1 2.5-1.5 1 2-1.5-.5-1.5.5 1 2h-1l-1.5-2.5-2 1-3-1-1.5 1.5 3 1-.5 1.5q2.6.7 1.5-2h2q-1.3 3.3 3.5 2l3-2 4 2 1.5-.5-4 9v2l-2 3v2l-14 32-24 44.5q-3-1.2-2 2.5l-9 14.5q-3-1.2-2 2.5l-2 3.5q-2.7-1.1-2 1.5l-1 2.5h-2v3q-2.7-1.1-2 1.5l-1 2.5q-3-1.2-2 2.5l-3 1.5-1.5 4q-2.2-.7-1.5 1.5l-2.5 3.5q-2.6-.8-1.5 2.5l-4 3-1 3.5-3 1.5-3.5 5.5 1.5-2.5-1-1-3.5-6.5-1.5.5 1-2-3 2 .5 1.5-3 1q-3-1.5 0-3l5-3 2 1-2-3-2 2-1-1-2.5 1.5.5-1.5q-3.3 1.1-2.5-1.5l-1.5.5-1.5-.5 2-1-3.5-4.5-1.5-.5 2-.5-2-3.5 1-2-4 1 1.5 2.5 1.5.5-1.5 2.5-3-1v1l2.5 1.5-1.5-.5-3.5-2.5 3-1-3.5-4.5-1.5.5 1.5-3.5.5 2 2 .5-.5 1.5 2.5-.5-1.5-3.5-1.5.5q.9-3-3.5-1.5l-2-3q-1.5 2.5-3-1l-2.5 1.5-1-3q2.3-1.2-.5-2.5l-2 1v-1l1.5-.5-.5-2.5-3-2v2q-2.2.8-1.5-1.5l1-2-2-1-1.5 2.5-2.5-.5 3.5-4.5-2 1-1-3-2.5 1.5 1.5 2.5-2.5-1.5-2-4h1q-.7 2.3 1.5 1.5l2.5-1.5-2-.5-.5-2-3 1q-2.2.8-1.5-1.5l-1.5-2.5-1.5.5-.5-1.5q-1.2 2.3-2.5-.5l1-3h-1q.7 2.6-2 1.5.6-4.6-3-6.5 2.3-1.2-.5-2.5l-3-1-1.5.5 1-2-2-1-1.5 3.5v-2l-2.5-1.5.5-2.5 1.5-.5-3.5-1.5.5 1.5-.5 2.5-2-3-1.5 3.5.5 1.5-1.5-2.5 1-4.5q-4.2-1-5.5 2v-3q1.3 2.2 2.5-.5l-4.5-7.5-1 2-1-3-1 2-1.5-3 4-1q1.1-2.7-1.5-2l-1.5-.5q1.1 3.3-1.5 2.5l-4 1v-1l1.5-.5-.5-1.5 1.5-.5q-1.2-2.7-2.5-.5l-5.5-3.5q.8-2.6-2.5-1.5l-1.5.5 1-3-3-1.5-1.5-3-1.5.5.5 1.5q-2.7-1.2-.5-2.5l.5-1.5q1.3 2.3 2.5-.5l-4-1.5-.5 3-3.5-2.5q-1.1-3.3 1.5-2.5l2 1-1.5-2.5q.8-2.6-2.5-1.5v1l1.5.5-4 1.5 1-3.5-1.5-3.5-1 3-1-2-4 2v-1l1.5-.5-.5-2.5-3.5-.5.5-3.5-3.5-1 1 2.5h-3l1-2-2-.5 1-3.5-.5-2.5-3.5 1.5 1 2h-1l-1-2 2-2-3.5-3.5q-1.2 2.2-2.5-.5l2-1-2.5-1.5-1 1-3.5-2.5 1 3h-1l-2-3 2-.5q1.3-3-2.5-2l-1.5-.5 1 2-2-1 1-3-3.5-4.5q-4.2 1.3-2.5-3.5h-1l-1.5 3.5v-2l-2.5-.5 1-1-3-5-2.5-3.5H703q1.1-2.7-1.5-2l-1.5-.5-.5 1.5-2.5-1.5 2-.5-.5-4-1 3-.5-2q-5.2 2.1-4-2.5h-2q3.5-1.5 1-3l-.5-1.5-1 3-3-2-1.5.5 2-4-2.5 1.5-2 1-.5-2 3-.5-4-2 .5-1.5-3.5-1.5 2-1-2-.5-1.5-3-3-1-1.5.5q.8-2.2-1.5-1.5v-1q3.3 1.1 2.5-1.5l-1.5.5-1.5-.5.5-1.5-2 1-3-4-1.5.5 1-2-4-1.5q1.5-3.7-1.5-3l-1.5.5-1.5-3.5-2.5 1q1.1-2.7-1.5-2h-2l-2.5-2.5q2.5-1.5-1-3l-1.5-2.5-2.5-1.5-.5-2.5-1 2-1-3-2 1-.5-2.5.5-1.5-3 1q-3-.5-2.5-4.5l.5-1.5-3 1-2.5-3.5 2-1-2-.5-.5-3-3.5 2-1-2.5q2.3-1.2-.5-2.5l-2 1-4-6-1.5.5-.5-1.5-1 2-.5-1.5 1.5-2.5-2-1-3 1-1.5-2.5 1-2.5-4-.5 1-2h-2q.7-2.6-2-1.5l1 2.5-2-1 1-3h-2q.8-2.2-1.5-1.5l-1.5.5-1.5-3.5q-1.2 2.3-2.5-.5l-1-3.5-3-.5 1-2.5-2.5-1q-1.2 2.3-2.5-.5.8-2.2-1.5-1.5l-2.5-1.5 1-2-6-4-.5-1.5-1.5.5-.5-1.5-1.5.5q.5-5-3.5-5.5l-2.5-1.5-.5-2.5-2.5 1q1.1-2.7-1.5-2v-2l-3-2-3.5-2-1.5-4-1.5.5-.5-2.5h-2q-2.2.8-1.5-1.5l-2-3.5-8-5.5-1.5-2.5-9.5-7q1.1-2.7-1.5-2zm89.5 37-2 2h2zm56 21-2 2h2zm12 5-2 3 2-1zm6 1q-2 3 1 2zm-5 1 1 2 2-1zm29 10q-2 3 1 2zm-2 4v1h2zm10 1v2l2-1zm4 0-1 3 2 1q1-5-1-4Zm-108 2-2 3h2zm135 11v3q3-1 0-3Zm17 7v1h2zm5 0 1 2h1zm-134 6q-1 3 2 2 1-3-2-2Zm147 6-1 3h1zm17 5 1 2q1-3-1-2Zm6 1-1 2h3zm-5 3q-2 3 1 2zm-145 1q-2 3 1 2zm168 5q-1 3 2 2 1-3-2-2Zm6 5v2l2-1zm8 0v2l2-1zm4 0q-2 3 1 2zm7 2 1 2q1-3-1-2Zm9 2q-1 3 2 2 1-3-2-2Zm6 1-2 4 2-1zm-25 1q-2 3 1 2zm33 6 1 1-1 2h2q2-4-2-3Zm8 1-3 2 3 1h1zm12 2v1h2zm2 4v1h2zm-8 1v2l2-1zm16 1-2 2h2zm-5 3-1 4 2-1zm5 3v2l2-1zm11 0v2l2-1zm2 8-1 2 2-1zm18 0 2 2h2zm8 0-2 2 2 1zm-232 2 1 2q1-3-1-2Zm217 3-2 2h2zm7 2-2 2h2zm15 3-1 2 3-1zm5 0 1 2q1-3-1-2Zm-1 2v3q3 1 2-1zm-230 4 1 2q1-3-1-2Zm25 24 3 3v-1zm28 23v1h2zm-1 2 1 2q1-3-1-2Zm5 1-1 2 2 1zm13 13-1 3h1zm40 36v2l2-1zm3 2q-2 3 1 2zm3 3q-2 3 1 2zm1 4v1q2-1 1 2 4 1 3-1h-1v-1zm0 2q-2 3 1 2zm22 15 1 2q1-3-1-2Zm-1 1-2 2h2zm7 3-2 2h3zm-1 3q0 4 2 1zm8 0-1 4h1zm-2 4-1 3h1zm1 3-1 3h3q2 1 1-2zM518.5 514l.5 507.5h-1z" opacity=".996"/><path fill="#DBE6FB" stroke="#DBE6FB" d="m634.5 556 2.5 1.5-1.5-.5zm29 11 .5 1.5-2 1zm74 30 1 2zm9 1-1 2zm24 8 1 2zm6 5 2.5.5-3.5 1.5zm33 11-1 2zm22 6-1 2zm-12 2 1 2zm4 1 2.5.5q-2.1 3.3-2.5-.5Zm5 2 2.5 1.5-1.5.5zm4.5 3 2 .5-.5 2.5zm17.5 2 1 2zm-8.5 1 2 .5-2 1zm-184.5 2-1 2zm189 0 2.5 1.5-1.5-.5zm-183 7 .5 2.5h-1zm205 1 2.5.5q-2.1 3.3-2.5-.5Zm22 0 2 3-2.5-1zm-18 3v3q-3-1.5 0-3Zm41 8-1 2zm-5 4 1 2h-2l-1.5-.5zm4 2 2.5.5-1.5 2.5zm19 7 1 2zm3 3 2.5 1.5-1.5.5zm8 2 1 2zm15 2q2.3-.7 1.5 1.5zm3 2 3.5.5-3 2-.5-1.5-2.5 2.5 1.5 2.5q-4.2-1.8-1.5-3.5-.7-2.2 1.5-1.5zm-257 3 2.5.5-2.5.5zm2 2 1 2zm25 23 1 4q-4.5-2-1-4Zm22 22-1 2-1.5-.5zm10 8 .5 2.5h-1zm7 9 2.5.5-3 2zm8 5-1 2zm3 3 1.5.5-2.5 1.5zm-8 6 1.5 1.5-.5 2.5q-4.5-2-1-4Zm6 5q3 1.5 0 3zm2 4 2 3zm17 2 1.5 2.5-2-1zm3 0 2.5.5q-2.1 3.3-2.5-.5Zm3 2 2.5.5-3 2zm4 2 .5 4.5.5 1.5 1.5-.5q-1.5 3-3 0l-.5-1.5-1.5.5q-.7-2.2 1.5-1.5zm3 7 1 2zm-3 13-1 2zm4 3 1 2zm1 3 1 2zm19 0 1.5 4.5-2-1zm-14 3-1 2zm4 4-1 2zm-3 1-2 3zm7 1-2 3zm28 12 .5 2.5h-1zm-13 2-1 2zm1 3 1 2zm1 3 1 2zm5 1-3 4zm21 3-.5 1.5.5 1.5q1.3-2.2 2.5.5l-3 1.5-1-3.5zm-22 2-1 2zm6 4-1 2zm15 5-3 4zm-9 10-1 2zm-5 5-1 2zm-20 20-6 7zm-20 18-2 3zm-6 5-2 3z" opacity=".996"/><path fill="#CDDCFA" stroke="#CDDCFA" d="m833.5 139 1 2zm20 20 1 2zm77 106 1 2zm51 137 1 2zm1 5 1 2zm1 5 1 2zm1 5 1 2zm1 5 1.5 2.5-2-1zm-25 4 1.5 2.5h-1l-.5-1.5-1.5.5zm14 1 1 2zm9 1-1 2zm3 1 1 2zm-27 2 2.5 1.5-1.5.5zm4 0 2 3-2 1 .5-1.5zm19 1 4 3 1.5-.5q.8 2.3-1.5 1.5z" opacity=".996"/><path fill="#CDDCFA" stroke="#CDDCFA" d="m979.5 434 5 4 2.5-1 3 9.5-1 3 2 5-1 4 2 3-1 2v2l1 11 1 1-1 4 1 1 1 19-1 1v19l1 4-1 1q1.5 11.5-1 19v2l-1 14v2l-1 12-1 1v2l-1 11-1 1v4l-1 4v2l-2 9v2l-1 3v2l-4 16q2.5 1.5-1 3l1 2-2 2q-.5 11-5 18v5l-3 5-5 19-1.5 1.5-1.5.5 1 2h-1q.8-2.6-2.5-1.5l-1-1-2.5 1.5.5-1.5-5 1-5 3-1-1-2.5 1.5q3.7-1.7.5-3.5l-3.5-1.5 1.5-.5 4 3 1.5-1.5q-3.7-1.7-.5-3.5 1.2 2.3 2.5-.5-1.3-2.7-2.5-.5l-5 2-2.5-1.5 2-1q-3.1-1.7-1.5-3.5l-5 2-3-2-1.5.5-.5-1.5-1.5.5 1-1-1.5-2.5 1.5.5q.8-2.6-2.5-1.5l1-3q-3.7-1-2.5 2h-3.5v2h-2l-4-2-3.5.5 1-2-2.5-5.5-1 2-1-2-.5 3 2 .5-3.5 1.5q-1.2-2.2-2.5.5 2.3 1.3-.5 2.5l-1.5-3 3-1.5-.5-1.5 2.5 1.5-2.5-4.5-2 3-2.5-1.5v-2l-.5-1.5h-2l-1.5.5.5 1.5-3.5-1-.5 2-1.5-2.5 2.5-.5 2.5-.5-5-3 2.5-.5q1.8 3.8 3.5.5l-.5-1.5-1 1-3-3-1.5.5.5 1.5-1.5-.5 1 4-3.5-2.5-2 2-2.5-1.5-.5 1.5-.5-1.5.5-1.5-2-1-.5 1.5.5 1.5-4.5-2.5 1.5.5 2.5-1.5-2.5-3.5-5 2-2-4-.5 4q-3 1-2-2h-3l-.5 2-1-3-1 3q-2.7-1.2-.5-2.5l1-3-2.5 1.5-1-1q-2.6.7-1.5-2l2-.5-3-1.5-.5 2-.5-2q-2.7-1.1-2 1.5l-2-1-.5-4.5-1.5 2.5v2l-.5 1.5-1-2 1.5-.5-2-.5q1.5-4.5-3-3l-.5 3-.5-2-4-.5q2.5-1.5-1-3l-.5-2.5-.5 2q-2.7-1.1-2 1.5h-1l-.5-1.5-2 3 .5-1.5-.5-1.5-2 1-2.5-2.5 1.5-2.5-4 3-2.5-1.5 1.5-.5 1.5.5-.5-2.5-5.5.5 1.5-2.5-2 1-2-3h-2l-1.5-.5 1-2-2.5 1.5-3.5 1.5 1 2h-1l-.5-1.5-4 2 .5-1.5.5-1.5 2 1 1-2q-2.6.8-1.5-2.5 2.3-1.2-.5-2.5l-2.5.5 2 1-1.5 3.5-2-5-2 7q-1.7-3.1-3.5-1.5 1.3-2.7 2.5-.5 2.6.8 1.5-2.5h-2l2-3-3.5.5-1.5-.5 2-.5-.5-2-3 1-2 1-.5-3q-4.1 1.7-3-2.5l-2-1 1 2-3 1q2.3 1.3-.5 2.5l.5-3.5q.8-2.2-1.5-1.5l-2.5-1q1.3-3.3-3.5-2h-2l-3 1-5-3-3 1-2.5-1.5 4-2-3-2-.5-1.5-3.5 2.5 1.5 2.5-2.5-.5v-2l-.5-2.5-3 2-1-2 1.5.5-.5-2.5-1.5.5.5-1.5H751q1.5 3.7-1.5 3l-1.5-3q-2.7 1.1-2-1.5h-1q.8 2.6-2.5 1.5l-2.5-.5.5-1.5q-2.2.8-1.5-1.5h-1l-.5 1.5-1.5-4-2 .5.5 1.5q-2.2.8-1.5-1.5l-2.5 1.5-3 1v-1l3.5-1q1.1-2.7-1.5-2l-2-1-2 1q-1.7-3.1-3.5-1.5l-.5-2.5-1 4-1.5-1.5.5-2.5q2.3.8 1.5-1.5l-1.5.5q-5.6.6-7-3l-1.5 2.5q2.3 1.3-.5 2.5l-3-1-3 1v-3l4 2 1.5-5-2 .5.5 1.5q-2.2.8-1.5-1.5l-1-3.5-2 .5 1 2.5q-3.8-1.5-3 1.5h-1l2-3-2-1-1.5 2.5-.5-1.5.5-1.5q-4.4-1.5-3.5 1.5h-1q.8-2.2-1.5-1.5v-2l-2.5-1.5-.5-1.5-1.5.5q1.1-3.3-1.5-2.5v2q-2.2.8-1.5-1.5l-1.5.5q-2.6.7-1.5-2h-3v-1.5l-2 1-1.5 2.5-.5-1.5.5-1.5q-3.7 1.3-2.5-2.5h-1l-1.5 2.5q-2.6.8-1.5-2.5l-4 2 2-4-2.5-1.5.5 1.5q.8 2.3-1.5 1.5v-2H662q1.5 3.8-1.5 3l.5-1.5-.5-3.5q-1.5 2.5-3-1l-3 1-2-1-1.5.5q-.7-2.2 1.5-1.5v-1q-2.2.8-1.5-1.5h-1l-.5 1.5-4-2 1 3q-4.2-1.7-1.5-3.5l-.5-1.5-2.5 1.5 1-2-2-.5-.5 3-1-4-5.5 1 1-2.5-3.5-.5-1.5.5 1-2-1.5-.5-2.5 1.5v-2q.7-2.6-2-1.5l1 2.5-2-1q.9-3-3.5-1.5l-5-4-4.5 1.5 1-2-3.5-1.5-2 1-5-4-2.5 1.5.5-1.5-4-2-1.5.5.5-1.5-3-2q-1.5 2.5-3-1l-2 2q-2.2.8-1.5-1.5l-1-2.5-3 .5.5 1.5-7-5-1.5.5-.5-1.5-1.5.5-.5-1.5H566q1.3-3-2.5-2l-1 1-3-3-4-2-2.5 1.5.5-1.5-2 1-2.5-1.5q2.3-1.2-.5-2.5l-2 1-6-4h-2l-19-7-1.5.5q-.8-2.6 2.5-1.5l12-3h7l4-2 2 1 4-2h5l6-2 2 1 2-1h4l3-1 1.5.5.5-1.5 3 1 3-2h4q5.8 1.3 7-2l1.5.5.5-1.5.5 2h2.5l4-3q1.5 3.5 3 1l5.5-2 .5 2 1-2 2 1 5-2h2l4-2 1 3 .5-2 3.5-1h6q2.3.8 1.5-1.5h1l.5 1.5 5-3 3 1v-2q1.5 3.5 3 1l2.5-.5-.5-1.5 6 2 2-1 1 1q1.8-3.1 3.5-1.5l.5-1.5 4 1 4-3 4.5 1 .5 2 2.5-.5 1.5-3.5v2l5.5-1.5-.5-1.5 5 1 2.5-.5-1-2 2.5 1.5 8.5-2.5-.5-1.5 2 1q1.5-2.5 3 1l3.5 1q1.1-2.7-1.5-2l-2.5-1.5 1.5-.5 4.5 1.5-1 3 1.5-.5 2.5-.5-1.5-2.5 2 1 3-2 2.5 1.5 1.5-2.5q2.6-.8 1.5 2.5l2-1 2.5-3.5 1 3 1.5-.5-.5-1.5 1 1 4.5-3.5q.8 2.3-1.5 1.5v1q2.6-.7 1.5 2h3.5v-1q-3 .7-1.5-3 3-1.2 2 2.5l3.5-.5 1.5-.5-2-1 .5-2.5 3 2 1.5-.5.5 1.5 3.5-2.5-.5-1.5 2.5.5.5 1.5 2.5-1-1-2.5 2.5 1.5 3 1 3-2 1.5.5.5-1.5.5 2 2-.5-.5-1.5 1.5.5.5-2.5.5 2.5-.5 1.5 2.5-.5-.5-1.5q1.5 3.5 3 1 2.3.8 1.5-1.5h1l.5 3.5.5-4 11.5-3 2 4 .5-2.5-1-3.5q2.7-1.1 2 1.5v2l.5 1.5 2.5-.5-2-3 1.5-1.5q1.8 3.1 3.5 1.5l-.5 1.5 3-2 3 1 1.5-.5q-2.2-1.2.5-2.5v2l3.5-1 1.5 3q2.6.7 1.5-2-2.7 1.1-2-1.5l-.5-1.5q1.8 3.8 3.5.5l.5-3.5q-.6 4.6 2 6l1.5-.5-1.5 2.5 3.5-2.5-4-3h2q-.7-2.2 1.5-1.5v2q2.3-.7 1.5 1.5h1l.5-1.5 2.5 1.5V461q3.8 1.5 3-1.5l-.5-1.5 2 3q1.8-2.8 3.5 1.5l.5 1.5.5-4q-2.7 1.1-2-1.5l1-2.5 2 .5-1 3.5 8.5 2-.5-1.5-.5-1.5-1 2q-4.2-1.7-1.5-3.5.8-2.2-1.5-1.5l-1.5.5q-.8-2.6 2.5-1.5l1.5 3 3.5-1 1 2-1.5-.5 1.5 2.5 4-5q2.3-.7 1.5 1.5l-.5 1.5 2.5-.5-1-3 2 1 .5 1.5h2l4-3q1.3 2.3 2.5-.5l-.5-1.5 2 1 1-3q2.8 1.3.5 2.5.8 2.3-1.5 1.5v1l2 1 4.5-2.5q-.8-3 3-1.5l.5 3 1-2 2.5 1.5-1-2 4.5-5.5.5 1.5-.5 1.5 2.5.5q-2.3 1.3.5 2.5l1.5-.5-1-3 1.5-1.5 1 3q2.3.8 1.5-1.5h1l.5 1.5 2-4 2 1 .5-1.5v-2l.5-1.5 2.5 3.5-3 2 2.5 1.5 2.5-1.5-.5 1.5q2.3.8 1.5-1.5l3-1.5q-1.1-2.7 1.5-2h2l4-1 1 3 4.5-1 .5 2q2.8-1.2.5-2.5l.5-2.5.5 2 3.5-1v2q3.3-1.1 2.5 1.5h1l1-3-1.5.5q-2.6.8-1.5-2.5h1l.5 1.5 2.5-1.5-.5-1.5 2.5 1.5-2 1 3.5.5 2-1 2.5 1 1-2.5-4-1 3.5-.5 2.5.5-1.5 2.5 2 1 .5-3 4 1.5.5 2.5 1.5-3.5-3-5 2 1 1.5 3.5.5-4.5-.5-1.5q2.3-.7 1.5 1.5v2l.5 2.5 3.5-2.5q-.7 2.3 1.5 1.5l2.5-1 .5 2 2-5 .5 2.5q-2.3 1.3.5 2.5l1.5-.5-.5-1.5 1.5-.5-2-1 5.5-3.5-2.5 3.5-1 2 2 .5q-1.1-2.7 1.5-2l3 1 2.5-1.5q-3.7-1.7-.5-3.5l2 1h2l2 1 1-2 .5 1.5-.5 1.5 2.5-.5zm-8.5 2 2 4v-1l3 1q1-4-1-3h-2zm-3 5v2l2-1zm-20 1-2 2h2zm30 0q-2 3 1 2zm-24 1-2 2h2zm-13 2-2 2h2zm-30 1-4 2 1 2 4-3zm20 0v1h2zm-25 1q0 3-3 2l1 2 2-1zm-27 5 1 2 2-1zm-92 15-4 1 1 2 4-1q1-3-1-2Zm4 0-1 3h1zm-9 2-1 2 2 1zm-18 2 1 2h1zm-32 6q-1 3 2 2 1-3-2-2Zm-27 5v2l2-1zm-5 1-2 2h2zm-52 8v1h2zm45 89q-2 3 1 2zm29 10 1 2q1-3-1-2Zm21 10-1 3h1zm23 11-3 2h3zm11 0v1h2zm-6 2 2 2q1-3-2-2Zm37 15v2l2-1zm25 8v2l2-1zm-3 1q-2 3 1 2zm12 2v2l2-1zm0 3v1h2zm19 6-2 3 2-1zm30 1q-2 3 1 2zm-27 1-1 3h3v-2zm18 7 2 3q1-4-2-3Zm33 13-3 2h2l4 2 1-2zm15 6-2 2 2 1zm4 2-3 2h3zm2 1-2 2h2zm5 1-1 3 2 1zm17 0 1 2q1-3-1-2Zm3 2v3l3-2zm-7 1-2 2h2zm4 0v2l2-1zm-10 4q1 3-1 2v1l3-1q1-3-2-2Zm2.5-252-1 2zm3 0-1 2zm-19 3-1 2z" opacity=".996"/><path fill="#CDDCFA" stroke="#CDDCFA" d="m936.5 438 2.5.5q-2.1 3.3-2.5-.5Zm4 0 2.5 1.5-2 1zm-22 1q2.8 1.3.5 2.5l-.5 1.5zm9 0-1 2zm-25 1 2.5.5-2.5.5zm14 1 .5 2-4-.5zm0 3-1 2-1.5-.5zm-53 2 .5 2-2-.5zm28 0 1.5.5-3.5 1.5v-1zm-23 2 .5 2 2.5-1-1 2-2.5-1.5zm10 0-1 2-1.5-.5zm-35 7-1 2zm-18 3-1 2zm-39.5 5 3 1.5h-3zm-11 1 2 .5-2 1zm9.5 0-1 2-1.5-.5zm-12 2 3.5 2.5-1.5.5zm-24 5q2.3-.7 1.5 1.5zm-139 79 .5 2-2-.5zm69.5 28 3 .5-2.5 1.5zm-1.5 3 1 2zm9 0 1 2zm7 5-1 2zm4 1-1 2zm18.5 6 2 .5-2 1zm30.5 13q3 1.5 0 3zm15 9 1.5 2.5h-1zm16 1-.5 1.5-1.5 2.5.5-1.5zm-12 1 1 2zm5 1-1 2zm8 1 2.5 1.5-1.5.5zm-6 1q3 1.5 0 3zm5 1 1.5 2.5h-1zm4 4 2 4 1.5-.5q-2 3.5-4-1zm9 0 1 2zm5 1 .5 1.5-2 1zm4 8 1 2q-2.8.7-1-2Zm10 4-.5 1.5-.5 1.5-.5-1.5zm13.5 2q3-1 2 2-3 1-2-2Zm13.5 1 1 2zm-7.5 4 2 .5-.5 2.5zm5.5 0 1 2zm2.5 0 2 .5-2 1zm3.5 0 1 2q-2.8.7-1-2Zm-16 2 1 2zm28 3 2.5 1.5-1.5.5zm-15 1 1 2q-2.8.7-1-2Zm26 6 2 1 1.5-.5-1 1 1.5 2.5q-1.3-2.2-2.5.5l.5 1.5-1.5-1.5q3.8-1.7.5-3.5zm7 0q3.8-1.2 2.5 2.5 3.8 1.8.5 3.5l-1-3-1.5-.5.5-1.5-2 1zm-11 1 1 2zm10 3-1 2zm15.5 4 2 .5-2 1zm-7.5 1-1 2zm6 0-1 2zm12 1q4.2 1.7 1.5 3.5l-1.5 2.5-.5-3.5zm-12 4 2 3-1.5-.5-.5 1.5-.5-1.5zm-3 1 1 2zm33 4-1 2zm9 1 1 3 2-1v3l-4.5-3.5zm-14 2-1 2zm5 1 1.5.5-2.5 1.5zm10 2 .5 1.5-2 1zm9 2-1 2zm-8 1 .5 2-2-.5zm7 2 .5 2-2-.5zm4 0-1 2zm16 3q2.3-.7 1.5 1.5v2q.7 2.6-2 1.5l-1-2.5 2-1zm-21 1 2.5.5q-2.1 3.3-2.5-.5Zm25 1 .5 1.5-2.5 3.5.5-1.5zm5 0 .5 1.5-1.5 2.5-.5-1.5zm-20 1-1 2zm3 4 2.5 1.5-1.5-.5zm13 0v3l-2.5-1.5zm-4 3 4.5 2.5-1.5-.5q-3.8-.2-3-2Zm0 12 .5 1.5-2 1zm-35 69-1 2zm-63 82-1 2zm-20 20-2 3z" opacity=".996"/><path fill="#3252D4" stroke="#3252D4" d="m516.5 512 1.5.5-23 27.5q-2.7-1.1-2 1.5-5.3 2.8-6 8.5l-3 1.5q.8 2.3-1.5 1.5l-1.5 3-2 .5q2.3 1.3-.5 2.5l-2.5 1.5-4 6.5-3 1.5q2.7 1.8-1.5 3.5l-3 2-1.5 2.5.5 1.5-2.5.5.5 1.5-3.5 1-2.5 4H454v4h-3q1.5 3.8-1.5 3l-5 7-3 2v2l-2.5 1.5q.8 2.6-2.5 1.5 1.7 2-2 4l-1.5.5.5 1.5-2.5 1.5q.8 2.6-2.5 1.5l.5 1.5q.7 2.6-2 1.5v2h-1.5v2q-1.7-2.8-3.5 1.5l-2 4 .5 1.5-5.5 2.5q.7 2.6-2 1.5v3.5h-1l-.5-1.5-1.5 3.5.5 1.5-1.5-.5q.7 3-3 1.5v3.5l-1.5-.5-1.5.5.5 1.5q-2.2-.7-1.5 1.5 2.3 1.3-.5 2.5-1.2-2.3-2.5.5l-2 3-2.5 5.5v-2l-2.5.5 1 1q-4.3 2.3-2.5 4.5l-1.5-.5-3 5 .5 1.5-2-1v2l-1.5-.5-1.5 3.5q-2.2-.7-1.5 1.5l.5 1.5q-1.2-2.2-2.5.5l2 1-1.5.5h-2q-2.2-.7-1.5 1.5l1.5 2.5-4-2v1l2.5 1.5q-1.3 2.7-2.5.5-2.2-.7-1.5 1.5l.5 1.5q-1.7-2.7-3.5 1.5l-2 3 1.5 2.5-2-1-3.5 2-.5-2-1.5 1.5 1.5 2.5-2.5 1.5-.5 3.5-2-1-1 3-2.5 1.5.5 1.5 1.5-.5-3 1-1.5 3.5v-2q-2.2-.7-1.5 1.5l-2 2 1.5 2.5-3.5.5 2 1-1.5.5-2-1 1 3-3-1-5.5 7.5 1.5 2.5-2-1-3.5 4.5v2.5h-4v1.5l-1.5 4.5-1-2-3.5 4.5v2.5q-2.7-1.1-2 1.5h-2l-1.5 2.5-1.5.5 1.5 3.5 1.5-.5-1.5 1.5-2.5-1.5q.7 3-3 1.5v2l2.5-1 1 2-1-1-2.5 1.5q.8-2.2-1.5-1.5v2l-1.5.5 1 2-3 1 2 3-2.5-1.5-2.5 1.5-2 3 1 2h-4l1 2-4 1 2 4h-2l-1 2 .5 1.5-1.5-.5 1 2-2-1 1-2-2-1q1.1 3.3-1.5 2.5v2l-2.5.5.5 1.5-1.5.5 1.5 2.5-2-1-1.5 3-2.5-1-2.5 5.5 1.5.5 1.5-.5-3 2-.5-1.5-3.5 2.5 1.5 2.5-3-1-1 4q2.3-.7 1.5 1.5l-3.5 4.5-1-3-2 4-1-2-2.5 4.5.5 1.5q-4-.5-4.5 2.5l.5 1.5 1.5-.5q.7 3-3 1.5l-.5-2-3.5 5.5.5 1.5q-1.2-2.2-2.5.5l-3 5.5-4 2.5-1 3.5-2.5 1-1.5-.5-.5 4.5-1-2-.5 2.5.5 1.5-1.5-.5q.7 3-3 1.5v2.5l-4 5 .5 1.5q-1.3-2.2-2.5.5l.5 1.5h-2l-1.5.5 1 3-.5 1.5-1-2-1 3-3.5.5.5 1.5q-1.2-2.2-2.5.5l.5 1.5-2-1-2.5 5.5q2.3 1.3-.5 2.5-1.3-2.2-2.5.5l3 .5-.5 2-2-1-2 3-.5-2-2 .5 1 1-3 3q-.7 2.3 1.5 1.5 1.2-2.2 2.5.5l-2.5.5-3-1-.5 2.5.5 1.5-2-1-4.5 2.5 2 1-4 3 3 2-1.5-.5-2-1-1.5 4h-2q1.1 2.7-1.5 2l.5 1.5-1 2 .5 1.5-1.5-.5 1 3-2.5 1.5-1.5-.5-.5 1.5-1-2q-2.6 1.4-2 6l-1-2-.5 2-2.5 1-1.5-.5-2 4 1.5 2.5-1-1-3 3-5-1 1 2 2.5.5-.5 4.5-4-1-1.5 3.5 3 1-4 2 .5 1.5-2.5-1.5 2-1q-2-3.5-4 1v2l2 3-1.5-.5-2.5 1.5.5 1.5-4-2-.5 2 2 .5-3 2 .5 1.5-3.5 1.5.5 1.5-1.5-.5-.5 2.5h-2l-1.5.5 2 1-1 2.5q-2.7-1.1-2 1.5l-1 2 2-1q-.7-2.2 1.5-1.5l-3 4-2-3-1.5 2.5.5 1.5-2.5 1.5q.8 2.6-2.5 1.5v1l1.5.5-2 .5q1.1 2.7-1.5 2v1l1.5.5-2 .5q1.8 4.5-3.5 3v2q-2.6-.7-1.5 2l4 .5-3.5.5h-2q-4-.5-4.5 2.5.8 2.3-1.5 1.5l-.5 2.5-.5 1.5-1-4q.3 4.3-2.5 5.5l2 1-4 2 .5 3.5-3-2-2.5 1.5 1 4-1.5 3.5-2-1 2 4-3.5-2.5-2 3-.5 2.5-2-1-1.5 2.5.5 1.5-3-2q-2.8 1.3-.5 2.5l1 2-1 3.5-4 .5 1.5 2.5q-.5-3.5-5-3v1l4.5 3.5-6 2 1.5 2.5-3-2 1 3q-4.5-.5-5 3H42V635.5l1-1-1-2 1-2v-25l1-1-1-5 2.5-.5 3 1v-2l2 1 1.5-.5.5 1.5 3-4 2 1 1.5-2.5-.5-1.5 1.5.5.5-1.5.5 1.5-1 2 3 1 .5 3.5.5-5 4.5 1h4l1.5-.5-.5-1.5 3 1 2.5-1.5.5 1.5 1-3 4 1v-1l-1.5-.5.5-1.5-1.5-.5 1.5-.5 2 3 1-2 3 1 1.5-.5.5 1.5 2.5-1.5q.8 2.3-1.5 1.5l1 2 3-5 3.5 1q-1.1-2.7 1.5-2l4 2 3.5-1.5-.5-1.5 2 2 2-2 2.5 1.5q-.8-2.6 2.5-1.5h2q2.3.8 1.5-1.5h-2l1.5-3.5-.5 1.5 2.5 3.5-1.5.5 2.5.5 1.5-1.5-1.5-2.5 2.5 1 .5-2h2l4 1 2.5-1-1-3.5h1q.3 4.8 3.5 6.5l.5-1.5-1-3h1l.5 2.5q3.7-2 2-4l2.5.5-1 3h1l2.5-3.5 1 2 2-1h2l1.5-.5q-1.2-2.7-2.5-.5l-1.5-.5 3.5-1.5 5 2 2.5-.5q-.7-2.2 1.5-1.5h2q2.3.8 1.5-1.5l-.5-1.5 2 4 .5-3q2.7-1.1 2 1.5l1.5-.5 2 1 1-3 2.5 1.5-1-3 2.5 1.5 2.5-2.5q-.7-2.2 1.5-1.5v2l4.5 1q-1 3 2 2l1-4q3-1.2 2 2.5h1q-1.1-3.3 1.5-2.5l1.5-.5q-.7 2.6 2 1.5l1.5-3 1 3 .5-2 4.5-2 1 4 2.5-1.5-2-1 2-1-2-1 3-.5.5 2 4.5-2.5-2-1 1.5-.5 3 5 3.5-1q1.1-2.7-1.5-2l-2.5 1 .5-3 1 2 .5-2 2.5 1 2-1q1.5 2.5 3-1l2.5.5-.5 1.5q3 .9 1.5-3.5l2-1-.5 1.5 4 2 1.5-2.5-4-1 1.5-1.5 2.5.5 1 2q-2.2 1.3.5 2.5l2.5-1.5-.5-1.5 3-1q1.3 2.3 2.5-.5l.5-1.5.5 2 2.5-1 1 2 2.5-.5.5-2.5 1 2 3-1 1.5.5 1.5-4.5.5 1.5-1 2.5 5.5-2h2l7-2 1 3 .5-2 4-.5-3-2 1.5.5 5.5 1q-1.1-2.7 1.5-2h2l2-1 2.5 1.5.5-2.5 2.5 1.5-1-2 2.5 1.5 2.5-1.5.5-1.5 1 2 2-3 .5 4 2-.5-1-2h3l-1 2 1.5-.5 1.5-.5-1-2q1.8-3.2 3.5.5l2-1 2.5 1.5-1-2 2.5-.5 2.5 1 .5-2 2 1 4-3 4 2 .5-2 2.5-1 1 2 3.5-2q-1 3 2 2l1.5-3v2l3-2 2-1 2.5.5.5 2.5 2-3 2 1 4-2 1.5.5 1.5-2.5 2 1v-2l4 1h2l4-1 2 1 5-2h2q2.3.8 1.5-1.5l3.5.5 2.5-.5-2-1 1.5-.5 2.5 1 .5-2 4 1 2-1 2.5 1.5-1-2 1.5.5 7-2 2 1 12-3h2q5.6.6 7-3l3 1 2-1h2l2 1 1-2 3 1 2-2 5-1h4l5-2 2 1 3-1 2-1h2l3-1h2l4-1h2l10-1zM327 548v1h2zm-87 23q-2 3 1 2zm-85 9-2 3 2-1zm-42 8q-2 3 1 2zm-16 2-1 3h2zm-11 2 1 2 2-1zm-4 2-1 2-3 1h4zm-15 3-1 2h3zm3 0 2 3v-1zm-11 1-1 3h1zm-13 2-1 2 2-1zm1 1v2l2-1zm6 0 1 2q1-3-1-2Zm213 201-1 3h1zm5 1 1 2q1-3-1-2Zm-8 6-2 3 3-2zm-8 8v2l2-1zm-4 4v2l2-1zm-47 53-2 3 3-2zm-18 25-1 2q2 3 3 0zm-15 14-1 2 2-1zm-3 8v1h2zm-4 2-1 3h1zm-25 31-2 2h2zm-16 14-2 2h3q1-3-1-2Zm-9 10v2l2-1zm-17 19q0 4 2 1zm-8 10 1 2q1-3-1-2Zm-2 7 1 2q1-3-1-2Zm-8 4v1h2zm2 2v2l2-1zm201.5-467-1 2zm-59 10-1 2zm-39 8 1 2zm-37 5 1 2z" opacity=".996"/><path fill="#3252D4" stroke="#3252D4" d="m129.5 579 .5 1.5-2 1zm-12 3-1 2-1.5-.5zm5 0 2.5.5-2.5.5zm-20 2-1 2zm3 1 2.5.5-2.5.5zm-35 6 4.5.5-4.5.5zm-17 2 .5 2.5h-1zm298 118-1 2zm-9 8 1 2q-2.8.7-1-2Zm-13 15 2.5 1.5-3 .5zm-4 6v3l-2.5-.5zm-71 83 1 2zm-3 5v3l-2.5-1.5zm-7 7 1.5 2.5-2-1zm2 0 1 2zm-11 24-1 2zm-16 5-.5 1.5-.5 3.5-1.5-2.5zm0 7 1 3 1.5-.5-1.5 1.5q-1.7-3.1-3.5-1.5zm7 0 2.5.5-.5 2.5zm-9 4 1 2zm10 0-1 2zm-7 1q2.8 1.3.5 2.5l-.5 1.5-.5-1.5zm-2 4-2.5 3.5.5 1.5-1-1-2 2-2.5-.5 4-2-1-2h1l.5 1.5zm6 0-1 2zm-13 1 1 2zm-3 2 2.5.5q-1.2 2.8-2.5.5l-5.5 4.5 1.5-2.5-1.5-.5 1.5-.5 1 1zm13 0 .5 2.5-1.5 1.5-.5-2.5z" opacity=".996"/><path fill="#3252D4" stroke="#3252D4" d="m208.5 886 2.5 1.5-3.5 2.5-.5-2.5zm-9 2q3.3-1.1 2.5 1.5l-1.5-.5zm13 0 1 3q1.8-3.7 3.5-.5l-1.5 1.5-5.5-1.5zm-6 3 3.5 1.5-3.5-.5-1.5 1.5-3.5 4.5-2.5-.5 5-3zm-11 2-1 2zm5 0 2.5.5-2.5.5zm-3 4 2 3 1.5-.5q-2 3.5-4-1zm4 5q3 1.5 0 3zm-5 1 2 3-3.5-1.5zm-15 7q2.3-.7 1.5 1.5zm9 3-1 2zm-3 8-1 2zm-19 3 1 2 1.5-.5q-1.5 3-3 0zm22 0-1 2zm-24 9 2.5.5-2.5.5zm7 0 2 3zm3 0 1 2zm-10 2 2.5.5q-2.1 3.3-2.5-.5Zm4 0 .5 1.5-.5 2.5q-2.7-1.2-.5-2.5zm-13 5 1 2zm12 1-1 2zm-5 1 1.5.5-2.5 1.5zm-6 1 3.5 1.5h-2q-.7 2.3 1.5 1.5v1l-2.5-1.5zm-8 2 2.5.5-2.5.5zm15 0q1.8 3.1 3.5 1.5l-.5 2.5h-4l-1.5-1.5 3-1zm-17 3 2.5.5q-2.1 3.3-2.5-.5Zm13 0q4.5 2 1 4l-3.5-1.5zm-6 1 2.5 1.5-2 1 .5-1.5zm11 1v3l-2.5-.5zm-15 2-1 2zm10 2 1.5 2.5-2 1v-2zm-9 2 1.5 3.5-2-1zm2 0 1.5 3.5h-1zm2 0 3.5 1.5-2.5.5zm-11 3-1 2-1.5-.5zm12 0 2 3-1.5-.5-.5 1.5-.5-1.5zm-19 1 1 2zm16 1 1.5 1.5-.5 2.5-1.5-1.5zm8 0-1 2zm-20 7v2l2-1v2l2.5 1.5-.5 1.5-.5-2-5-2.5z" opacity=".996"/><path fill="#3252D4" stroke="#3252D4" d="M147.5 968v3q-3-1.5 0-3Zm8 0-1 2zm-21 1 1 2zm17 1 1 2zm-12 3 .5 2.5-1.5 1.5-.5-2.5zm-14 1 .5 2.5h-1zm7 1 2.5 1.5-1.5-.5zm11 0 1 2zm-20 1 2.5 3.5-2 .5-.5-2-2 3 .5-1.5zm11 3v3q-3-1.5 0-3Zm6 2 2.5.5q-2.1 3.3-2.5-.5Zm-19 1-.5 1.5-.5 1.5-1-2zm10 1h2l2 1 1.5-.5q-1.2 2.8-2.5.5l-1.5.5.5 1.5zm-3 2 3.5 1.5-2.5.5zm11 1-1 2zm-22 1 .5 2.5h-1zm10 1 2.5.5-.5 2.5q-1.7-3.1-3.5-1.5zm7 1 2 3-2.5-.5zm-15 4-1 2zm6 0 1 2zm-7 3-1 2zm-4 1-2 3zm6 0-1 2zm3 1 .5 2.5-2.5 3.5v-3l1.5.5-1-2zm-15 2q2.3-.7 1.5 1.5h-3zm6 0 1 2 1-1q1.8 3.1 3.5 1.5v2l-.5 1.5-1-2-.5 2-2 .5 1 2h-1l-.5-1.5-1 2-.5-1.5 4-4-1.5-1.5-1 2zm11 2 2.5.5q-3.1 1.8-1.5 3.5l-1.5-1.5zm-17 5 2.5 1.5-1.5-.5zm11 0-1 2zm-21 1 1 2zm18 2 1 2zm-6 3 2 3 1.5-.5q-1.5 3-3 0zm-2 1 1 2zm-6 1 2.5.5v2l-.5 1.5zm-2 2 2.5 2.5-1 3-.5 1.5-.5-1.5 1-3-1.5-1.5-1.5 3.5 1 2h-1l-1-2zm9 0 1 2-1-1-3.5 2.5.5-2.5q1.5 2.5 3-1Zm-18 2-1 2zm4 2 2 3zm-6 1 1 2zm415 1 3.5.5-3.5.5z" opacity=".996"/><path fill="#1535CA" stroke="#1535CA" d="m517.5 513 .5 510-9.5 1-4-1-1 1h-397l-4.5-.5-.5-1.5-1 2-1-2-1 2h-2l-3-1-2 1h-2l-5-1-2 1 2-3 2.5-.5-1.5-2.5 2.5-1.5-1.5-2.5q2.3-.7 1.5 1.5l2-1-.5-2.5-1.5-.5 2.5-.5h2q4.8 1.7 3.5-2.5l-2.5-1.5-2 3-.5-1.5.5-1.5q-2.2-.7-1.5 1.5l-2-1 3.5-1.5h2l2 1 .5-1.5q-2.3-1.2.5-2.5l2 1 2-3 2 1 .5-2.5 2-3 2.5-1.5 1.5.5-1-3h2l-1-4 2.5-1.5 2 1q3-1.5 0-3l-1.5.5 1.5-2.5 1 2 3.5-1.5-2-1q2.8-1.2 2.5-5.5l1 4 1.5-2.5-.5-1.5q2.3.8 1.5-1.5l5-3-1-2h1l.5 1.5.5-2 2-.5-.5-1.5q4.8 1.7 3.5-2.5l-.5-3.5 2.5 1q-1.1-2.7 1.5-2v-1l-1.5-.5 3-.5 1-2.5-2-1 2-1q-.7 2.3 1.5 1.5l.5-2.5.5-1.5 1 2 1.5-4q2.7 1.1 2-1.5l.5-1.5-1.5-.5 2.5-1.5 1.5.5 1.5-3.5 3.5-1.5-.5-1.5 2.5-1.5-2-.5-.5-2-3 2v-1l2.5-1.5 2.5-3.5-1.5 2.5.5 1.5 1.5-.5-.5 1.5 3 1 1-3 1.5-.5-1-2v-2l2.5-2.5q1.8 3.8 3.5.5l-1-3 5-2-3-1 4-2-4-2 1.5-.5 4 1-.5-1.5 5-5 .5-2.5h2q2.3.8 1.5-1.5h1l.5 1.5q-.4-5.9 3.5-7.5l-1-2 2-1-.5 1.5 1.5.5-.5 1.5q2.6.8 1.5-2.5l-.5-1.5q1.3 2.3 2.5-.5l-1-2 2-.5-1-2.5 1.5.5q2.6.8 1.5-2.5-2.7-1.8 1.5-3.5l2 1-.5-1.5 1.5-2.5 3.5-1.5-2-1 1.5-.5 2.5 1 .5-3 3 1v-1q-2.2.8-1.5-1.5l.5-2.5q1.3 2.3 2.5-.5l-.5-1.5q2.3-.7 1.5 1.5h1l1-2-1.5-2.5q1.2 2.2 2.5-.5l-.5-1.5q1.8 3.8 3.5.5l-1-3 2.5-3.5 2 1-1.5-2.5.5-1.5 1 2q1.3-2.7 5.5-2.5-3.7-1.7-.5-3.5 1.3 2.3 2.5-.5l-.5-1.5 1.5-.5-.5-1.5q1.8 2.8 3.5-1.5l-1-2h1l.5 1.5 2.5-3.5-.5-1.5 1.5.5V842q3.8 1.5 3-1.5l1.5-3.5 1 2 1.5-5.5-.5-1.5 1 1q1.8-3.1 3.5-1.5l2.5-3.5q2.3.8 1.5-1.5l-2-3 2 1 .5 1.5 2.5-3.5h-2q-.7-2.2 1.5-1.5 1.7 2.7 3.5-1.5l-1-2.5 2.5 1 1-3 .5 2q3.7 1.5 3-1.5h-2l-2-3 3-1 1.5-2.5 2 1 2-4 1 2 3-5q2.3-.7 1.5 1.5h1l1-3.5-2.5 1-1-2q1.3 2.3 2.5-.5-2.3-1.2.5-2.5l3 1-2-4 2 1 3.5-3.5q-.7-3.7 1.5-4.5l2.5 1 1.5-3 1.5-.5-.5-1.5 1.5-.5-.5-1.5 2.5-.5-.5-1.5q2.6.8 1.5-2.5h4l1-4-.5-1.5 3.5-.5-1-2 1.5-2.5 2 3 .5-1.5q-2.5-1.5 1-3l1.5-2.5 2 1 .5-1.5q-2.2-1.3.5-2.5l1.5.5-1-2 2-1-.5-1.5q2.6.7 1.5-2h3v-1.5q3.1-1.7 1.5-3.5l2.5-1.5.5-1.5 1.5.5q-.7-2.6 2-1.5v-2.5l.5-2.5 1.5.5 1.5-2.5 1 2 1.5-5.5-.5-1.5 4.5 1v-2.5l3.5-4.5 1.5-.5-1-1 4-4-1-2h2l.5-1.5 3 1-1-3 5.5-1.5q-4-2 0-4-.7-2.2 1.5-1.5l1.5.5 2.5-5.5 2.5-1.5-.5-1.5 2 1 2-5 1.5-.5q-3.7-1.7-.5-3.5l.5 2 5-2.5-1-2.5q2.7 1.1 2-1.5l3-4.5 3-1.5-2-1 3-.5q-1.1-2.7 1.5-2v-2q1.8 2.8 3.5-1.5-.7-2.2 1.5-1.5l3-5q2.3.8 1.5-1.5l6-7q-2.2-1.2.5-2.5l3 1 1.5-6q2.7 1.1 2-1.5l.5-2.5q1.8 3.8 3.5.5l-1-2.5 2-.5-.5-1.5 2 1 .5-4q3.8 1.5 3-1.5l2.5-4.5 1 2 .5-4q2.7 1.1 2-1.5l6-3-1-2 5.5-6.5h1.5v-2q2.7 1.1 2-1.5h-2l4-1.5 1.5-3 1.5-.5-.5-1.5 3.5-2.5-.5-1.5q3.3 1.1 2.5-1.5l3-2-.5-1.5 3-2v-2l1.5.5q-.5-4.5 3-5l-.5-1.5 2.5 1v-3h3v-4h1.5l2.5-4 4-1.5-.5-1.5 2.5-.5-1-2 3-1.5q-1.1-2.7 1.5-2l3-5q2.3.8 1.5-1.5l5.5-6.5 2.5-1.5-.5-1.5q2.3.8 1.5-1.5l3-1.5 1.5-3q2.3.8 1.5-1.5l6-8.5q2.7 1.1 2-1.5zM343 719q-2 3 1 2zm-13 15-1 2h3zm-19 21v2l2-1zm-32 38v2l2-1zm-8 11v3q3-1 0-3Zm-7 6-2 2h3zm-14 19 1 2h1zm-5 3-2 2h2zm-26 33-2 2 1 2h1zm-6 6 1 1 1 1q1-3-2-2Zm-15 14v2l2-1zm2 3 1 1 1 1q1-3-2-2Zm1 5v1h2zm-19 17 1 2q1-3-1-2Zm-15 23v1h2zm-16 12v1h2zm-6 6v2l2-1zm8 5-1 3h1zm-24 16v1h3zm-3 2-1 3h1zm-1 4q-2 3 1 2zm-5 5 1 2q1-3-1-2Zm-2 4-1 3h1zm-9 13 1 2q1-3-1-2Zm9 4-2 2h2zm-18 14-1 3h1zm217.5-275-1 2zm-40 47-1 2z" opacity=".996"/><path fill="#1535CA" stroke="#1535CA" d="m265.5 802 .5 2.5h-1zm-53 60 1.5 2.5h-1zm-7 11-3 4-.5-1.5zm-19 22-1 2zm-10 11 .5 1.5-2.5 1.5v-1q2.5.7 2-2Zm-6 7 1.5.5-2.5 1.5zm-7 10 .5 2.5h-1zm-33 36-.5 1.5-.5 1.5-.5-1.5zm-1 4 1 2zm-3 1 1.5 2.5-2-1zm-4 4q2.6-.7 1.5 2l-3-.5zm-3 5 1.5 2.5-2-1zm-5.5 5 3 1.5-3 1-.5 1.5-.5-1.5zm-4.5 6-1 2zm-8 11 1 2zm-5 2 2.5.5q-2.1 3.3-2.5-.5Zm-18 21 2.5.5-2.5.5zm2.5 2 2 .5-2 1z" opacity=".996"/><path fill="#F4F7FE" stroke="#F4F7FE" d="m519.5 515 11.5 18.5-.5 1.5q2.6-.8 1.5 2.5l2 3.5 2 .5-1 2.5q3-1.2 2 2.5l7 10v2.5q2.7-1.1 2 1.5l1 4.5 3 1.5.5 3.5 1.5-.5-.5 3.5 4.5 3.5.5 2.5 1.5-.5q.8 2.3-1.5 1.5v1q4.2-1.3 2.5 3.5l.5 2.5 3.5 1.5-1 3 2 1-.5 1.5h1.5q-1.5 3.8 1.5 3v2l1.5.5-.5 1.5q2.3-.7 1.5 1.5-2.2 1.2.5 2.5l1.5-.5-.5-1.5q3.7 2 2 4l2.5 1.5-2 1 .5-1.5-2-1-.5 1.5 1.5 3.5 1.5-.5q-2.2 1.3.5 2.5l2.5.5-1 2.5 2.5-1q2.8 1.3.5 2.5-1.5 4.4 1.5 3.5v-2q2.8 1.3.5 2.5l4 5h-2l-1 2 1.5.5 3.5-.5-1 2.5 2 .5q-2.5 1.5 1 3 .8 2.3-1.5 1.5v1l2.5.5-.5 1.5q2.3-.7 1.5 1.5l-.5 1.5 3 1 1.5-.5-1 1 1.5 2.5-1.5.5 2.5 3.5 1.5-.5-1 2 3 1.5q-.9 6.5 3 9.5-2.2 1.3.5 2.5l3-1 .5 1.5-.5 3.5 2-1 .5 2.5.5 2.5 1.5-.5q-2.5 1.5 1 3l-1 2 2.5 4.5 3-1v1l-2.5 1.5 1.5 2.5 2.5 1.5.5 1.5 1-2 .5 1.5-1 2 3-1-1 2 1.5 2.5q-3.7-1-2.5 2l2.5-1 3.5 2v2q-2.7-1.1-2 1.5l-1 2 2 1 .5-2.5.5 2 3.5 2 1.5-.5-1 3 2.5 3.5 1.5-.5q-3.7 1.8-.5 3.5 1.8-2.7 3.5 1.5l-4.5-1.5-1.5.5.5 2.5 2 1 1.5-.5-.5 1.5q3.3 1.1 2.5-1.5h1l-1 2 .5 3.5-2.5.5q.5 4 5.5 3.5l1.5-.5-1 2 2 1 .5-1.5 1 2-1.5.5.5 1.5q-2.2-.7-1.5 1.5h2l-1 2 2.5.5 2.5.5-2.5.5-1.5-.5q-.7 2.3 1.5 1.5 2.8 1.3.5 2.5l.5 1.5 1-1 3 3q3.3-1.1 2.5 1.5l-2 1 .5-1.5-4.5 1 .5 2h2l3.5 1.5 2 4-3 1 5 .5.5 3q1.7-2.7 3.5 1.5l-1.5-.5-2.5.5 3 2-1 5h1q-1.1-3.3 1.5-2.5l2-1v1q-2.2-.7-1.5 1.5l1.5-.5 1.5.5-2 .5q-1.1 2.7 1.5 2l1.5-.5.5 2.5 1.5-.5-1.5 2.5q-.7-2.7-5-2v1l5.5 2.5-.5 1.5 3.5 1.5-3 2 8 5-.5 1.5-2-3-3.5.5 4 1.5.5 3 2-1v1l-1.5.5.5 1.5-2-1 1.5 2.5 1.5 3.5 2-1q2.8 1.3.5 2.5-.7 2.3 1.5 1.5l2-1 2.5 1.5-1.5.5q-1.2-2.2-2.5.5l3.5 2.5 1-2 .5 1.5-.5 1.5 2-1-2 3-2-3-3.5 2.5 1.5.5 2-1v1l-1.5.5 5 2v2l-1 3 3 1 1 2-2 3 3 1-.5 1.5 1.5.5q-2.7 1.8 1.5 3.5l.5-2.5-2.5-4.5-1.5-.5 1.5-.5 3.5 2-1-2.5 1.5.5 3.5 2.5-3.5-.5-1.5 1.5.5 1.5 2-1v1q-2.6-.8-1.5 2.5h1q-.7-2.2 1.5-1.5 2.8 1.3.5 2.5l-1 2 3 2-1-2 5 3 1.5-3.5-.5 1.5-1 3 2 1-1.5.5-1.5-.5-.5 1.5-.5-2-3.5 1-1.5-.5q-.9 3 3.5 1.5v1l-1.5.5q1.8 3.3 3.5-.5 2.6-.7 1.5 2l-2 .5 1.5 2.5-1.5.5 4 1.5q-1.3-4.1 2-3l-1 2.5 2.5 3.5 1.5-.5-3 4 3 1v2l-1 4 3 4-1 2 3-1-.5 1.5 3.5 1.5.5 1.5 3.5-2-.5 2-1.5-.5 1 2-2.5.5q-2.2-.7-1.5 1.5l1.5 2.5 1-3h2l1.5.5-3 2v2l2.5 3.5 1.5-.5-.5-1.5h2l2.5 1.5-.5 3.5-2-4-1.5 1.5q3.5 1.5 1 3l.5 1.5 1.5-.5-1.5 2.5 2-1 .5 2.5q-2.2 1.3.5 2.5l1.5-3.5-.5-1.5 2 1 1.5-2.5h-2q1.5-3 3 0l-2 3 .5 1.5-2-1-.5 2.5v4l2.5 2.5 1.5-.5-.5-1.5 1.5.5 1.5-3.5 2 3-2.5-1.5q1.3 4.8-1 6l4 .5q-1.1 2.7 1.5 2v1l-4-2 1 3-1.5.5 4 1.5 1 3.5-1 2q3.1 1.8 1.5 3.5l1.5.5-3 2q6.2-.2 8.5 3.5l3-2 4.5 3.5-4 1.5-1 2.5 1 2-.5 1.5 2.5-1.5-1-2 4 1-2 3.5-2.5 1-1.5-.5q-.9 3 3.5 1.5l3.5 1q1.1 2.7-1.5 2l1 3-1.5.5 3.5 1.5 4-3v1l-2.5 1.5 1.5.5 1.5-.5q-2.2 1.3.5 2.5l8-6-2 3-11 7-2-3-3.5 1.5 4 2q-1.2 2.5-5 1.5l-2.5 4-10 6-1.5-.5q.8 2.3-1.5 1.5l-12 7H722q1.1 2.7-1.5 2l-46 22-52 18-52 12-12 1-7 2h-7l-1 1-25 2 .5-1.5zM606 671l-1 2q4 1 3-1zm10 19v1h2zm0 2v2l2-1zm12 13-3 2h3l-1 2 2 2 1-3zm9 25 1 2q1-3-1-2Zm11 13q-3 4 1 3zm4 7-2 2h2zm1 2-2 2h2zm3 8-1 2 2 1zm4 9 1 2 2-1zm8 12v3q3-1 0-3Zm10 20v2l2-1zm6 8 1 2q1-3-1-2Zm12 19-3 1 1 2 2-1zm7 15q0 4 2 1zm3 3-3 2 3 1 1-2zm-1 3-2 2 1 1 2-1zm8 13-1 2q2 3 3 0zm5 12 1 2q1-3-1-2Zm15 20q-3 2 0 3h1zm-3 4v4q2 1 1-3l3 1h1q-1-3-5-2Zm3 2-1 2h3zm13 16-3 2 1 2 2-1 1 1zm2 1 1 3 1-2zm4 0-2 2 1 1 2-1zm-5 5v2q-4-1-3 3h1q-1-3 2-2h2q2 1 1-1h-2q1-3-1-2Zm-1 8v2h3q1-4-3-2Zm5 0q-1 2 2 1l1 1q1-4-3-2Zm4 3-2 2h2zm-6 4 1 2 2-1zm11 0-3 3 2 2 2-1 1-2zM628.5 700l-1 2zm10 25 1 2z" opacity=".996"/><path fill="#F4F7FE" stroke="#F4F7FE" d="m651.5 738-1.5 2.5-.5 1.5-.5-3zm3 8q4.5 2 1 4l-1.5-1.5zm2 5 1.5 3.5h-1zm4 4-1 2-1.5-.5zm9 24 2.5.5-2.5.5zm10 12q3 1.5 0 3-3-1.5 0-3Zm11 17-1 2zm2 1 3.5 1.5-.5 2.5-1-3q-3 .5-2-1Zm-3.5 2 4 1q1.3 3-2.5 2zm20.5 24-1 2zm2 15 2.5 3.5-2 .5-.5 2-.5-1.5 1-2zm5 1 .5 1.5-.5 2.5q-2.7-1.3-.5-2.5zm-4 6 2.5 1.5-1.5.5zm6 0-2 3zm6 12 2.5 3.5-3-2zm-3 3 2.5.5-2.5.5zm8 3 1.5.5-2.5 1.5zm4 0q3 1.5 0 3zm1 6 2.5 1.5-1.5.5zm86 14-1 2zm-78 7 2.5 1.5-1.5-.5zm1 4 1 2 1.5-.5-3.5 2.5-1.5-2.5h2zm2 5-1 2zm47 7-1 2zm-31 3 1.5 2.5h-1zm-4 2q2.3-.7 1.5 1.5l-2 1zm28 0-2 3zm-21 2 1 2zm16 2-1 2-1.5-.5zm-22 4 1 2zm6 3 1 2q-2.8.7-1-2Z" opacity=".996"/><path fill="#E5EDFD" stroke="#E5EDFD" d="m993.5 490 .5 2.5h-1zm-474 23 8.5 7q-1.1 2.7 1.5 2l9.5 8.5 2.5 3.5 5.5 3 2 5 2.5 1 1.5-.5.5 2.5 1.5-.5 1 3.5 5 2q-1.1 2.7 1.5 2v2l3 2 1.5-.5.5 2.5 1.5-.5-.5 1.5 4.5 3.5.5 2.5 1.5-.5.5 1.5 1.5-.5 1.5 2.5 4.5 2.5-1 2 4 1.5.5 2q1.5-2.5 3 1 2.3-.7 1.5 1.5l-.5 1.5q3.3-1.1 2.5 1.5l1.5 2.5 1-2 3 6 2.5-1 .5 2 1.5-.5 2 3h2l-1 2 4 .5-1 3.5 2-1 .5-1.5.5 3-2 .5 2.5.5h2l1.5.5v2l.5 1.5q1.3-2.2 2.5.5l2.5 4.5 2-1 1.5 3.5q-.7 2.3 1.5 1.5l1-3 1.5 4 3 1.5-.5 1.5-.5-2-2 .5 2.5 3.5 3-1-.5 1.5.5 2.5.5-2q3-1 2 2l-2 .5 2.5 1.5 2-1-.5 1.5.5 2.5 2-1 1 3 1-2 2 4 2 1 1.5-.5-1 2 3 1-1 3 1.5 1.5h2l3 2 1-3q-1.6 1.8 1.5 3.5l.5 2.5 2.5-1q-1.7 4.1 2.5 3l1.5-.5v2l.5 1.5 2.5-1.5q-4 2 0 4l.5 1.5 2-1v2l2-1 .5 2-3 .5 2 .5.5 2h2l3-1q2.8 1.3.5 2.5-.7 2.3 1.5 1.5l2.5 1.5-1.5.5-2-1 1 2h2l4 4 2.5-1.5-2 4 2 .5.5-2 1 2 1.5-.5 3 5h-1l-.5-1.5-.5 3h4v1.5h1l.5-2.5.5 4-2 .5 2.5 1.5 2-3v2q2.6-.7 1.5 2h4.5q2.3-.7 1.5 1.5l-1 2 2 2-1 1q3.1 1.8 1.5 3.5l3 1 1-3 .5 4 4 1.5.5 1.5 2.5-1 2 3.5-3-1 1.5 2.5 3-1 1.5 2.5q-2.8 1.8 1.5 3.5l3.5-2.5-1.5 2.5 1.5.5-2 1q1.3 2.7 2.5.5l3.5 3.5-.5 1.5 3-1 1 4-1.5-.5q-1.1 3.3 1.5 2.5h2l1.5-.5-1-2h1q-.7 2.3 1.5 1.5v-2q3 1.5 0 3l-1.5.5 6 3-1 2 3 2 .5 1.5 1-3 1.5 3.5-1 3.5 4-1.5-2-1 3-.5.5 2 1.5-.5-.5 2.5-2 1v-2q-2.6-.8-1.5 2.5l3.5 2.5.5-3 3.5-1q-1.6 1.8 1.5 3.5-3.5 1.5-1 3-.7 2.3 1.5 1.5l3-2v1l-1.5.5v4.5q3.7-1.5 3 1.5l3.5 2.5-2-4 2.5 1 1 2.5-.5 1.5 2.5-1.5.5-1.5 1.5 2.5-3 2 .5 1.5-1.5.5 3.5.5 2.5-1 .5-3 2.5 1q1.1 2.7-1.5 2l-2.5 1 1.5 3 2-3-.5 1.5.5 2.5 2-3-.5 1.5v2l4 5-.5 1.5q5.3-1.7 3.5 3.5h1l.5-1.5 2 3 .5-2.5-.5-1.5 4.5 2.5-1.5-.5-1.5.5 1.5 3.5 2 1 1-3q2.8 1.3.5 2.5l.5 1.5h2q4-.5 4.5 2.5v2l1 4.5q2.7 1.1 2-1.5l-.5-1.5 4 7 1.5-.5 1 3.5 2-.5-.5-1.5q1.7 3.1 3.5 1.5-.7 2.3 1.5 1.5v1l-3.5 1.5 2.5 3.5 1.5-.5-1.5-2.5 3-2-.5 1.5.5 2.5 2-1-2.5 3.5 1.5 1.5 2-3 1.5.5q-.7-2.2 1.5-1.5l-1.5 2.5q-.7 2.6 2 1.5l.5-2 1 2q-2.6-.7-1.5 2l2.5 1 1-2 2 3-2-1q-3 1.5 0 3l4-1 1.5 3-3 .5 4 2 .5 1.5 1.5-.5-.5 1.5q4.4-1.5 3.5 1.5 2-1.7 4 2-2.2 1.3.5 2.5l2.5-1.5 1 2v2q.8 2.3-1.5 1.5v1l2 1 4.5-3-.5 2-1.5-.5 2 5.5 4.5-3 1 2-2.5.5q5.5.5 7 5l1.5 3.5h2.5q-1.1 2.7 1.5 2l-2 3-2.5-1.5 1 2-4.5 6.5-4.5 3.5q2.8 1.8-1.5 3.5-3.3-1.1-2.5 1.5l-8 8 1 1-17.5 17.5h-2l-7.5 7.5-.5 1.5-1.5-.5-1.5 3.5-1-1-4.5 4.5-2.5 3.5-1-1-3 3q-2.6-.8-1.5 2.5-2-1.7-4 2l-1.5 2.5-5.5 2.5.5 1.5-3.5 1.5-1.5 2.5q-1.2-2.2-2.5.5l-1.5 2.5q-1.2-2.2-2.5.5l-1.5 2.5q-1.2-2.2-2.5.5.8 2.6-2.5 1.5l-2.5 1.5.5 1.5q-1.2-2.3-2.5.5v1.5q-3.7-1.5-3 1.5l-3.5 1.5-1.5.5.5 1.5h-2l-1.5.5.5 1.5-3-1-1.5 1.5q.8 2.3-1.5 1.5v2l-1.5-.5-.5 1.5-4.5-2.5 4-2-.5-1.5q1.3 2.2 2.5-.5l-3.5-1.5-2 1-2-3 1 1 3-3q2.6.7 1.5-2-3.8-1.5-3 1.5l-2 1 .5-1.5-2.5-.5 4-1-4-.5q1.1-2.7-1.5-2l-3.5-2-.5 2-.5-3 3-.5-.5-1.5 3-1 1.5.5-1.5-3.5-1 2-1-3-1 3-2-1-1 3-1-4 3.5-2.5-1.5-.5-2.5 1.5 1.5-2.5-4.5-.5 3-2-2-1q2.5-1.5-1-3l-2-3 3 1-1-3.5-3.5-1-3.5 1 1-2.5-2-.5q1.5 3.8-1.5 3l.5-1.5q-1.3-4.2 3.5-2.5l3 2-1-3 2 1 .5-2-5.5 1-4-2-1 1-1.5-.5 2.5-1.5 2 2 2.5-1.5.5 1.5q2.8-1.2 1.5-6.5h-1l-1.5 3.5-2-1-1.5.5 1-3-3.5-3.5-1.5.5.5-2.5 1.5.5-.5-2.5-2 1-.5-2.5 1-2-5.5-4.5-1 2-1.5-.5-.5 1.5-1-2-1.5.5.5-2.5 3 1q2.3.8 1.5-1.5l-3-5.5 3-1.5-.5-1.5-1.5.5-1.5-2.5-2.5.5 3 2-2.5.5-1.5-1.5-.5-1.5q-1.3 2.3-2.5-.5h2l1-2-4-5h2q.7-5.3-3-6l1-2-2 1-1 2 .5 1.5-2 1-.5-1.5 1.5-2.5-1.5-.5 2-1-2.5-3.5 2.5-.5-4-1.5-1.5 3 .5-1.5q.8-2.2-1.5-1.5v-1q2.3.8 1.5-1.5l3-1.5q1.1-2.7-1.5-2l-3.5 2.5.5-2.5 1.5-.5-4-.5q1.1-2.7-1.5-2l-1.5-3 3-1.5-1.5-.5-2 1v-1l3-1 1.5.5-1-2 .5-1.5q-2.2-.7-1.5 1.5h-1l-.5-2.5-1 3q-1.7-3.1-3.5-1.5l1.5-2.5-2 1q1.6-1.7-1.5-3.5l1-1-.5-1.5-1.5.5 2-3-3.5.5-4.5-3.5 3.5 2.5q2.3.8 1.5-1.5l-2.5-3.5 2 1 1-2-4-1-1.5.5.5-1.5-1.5-.5 4-3-3-2 1.5-2.5-3.5 1 1-2.5-2.5-1.5-3 2v-1l1.5-.5-2.5-4.5-2 1v-1l3.5-1.5-1-3.5-2.5 1v-2l-2-1-1.5.5 1-3-2.5-3.5q-1.2 2.3-2.5-.5 2 1.7 4-2l-1.5-.5-1.5.5q2.2-1.2-.5-2.5-4 .5-4.5-2.5l4-.5-1-4q-3-1.2-2 2.5h-1l-.5-3.5-1 2-.5-1.5 3-1-1.5-2.5q-2.2-.7-1.5 1.5l-2 1v-2l1-2-1-2h1l.5 1.5.5-3-5-.5.5-1.5-1.5-.5.5-1.5-1.5-.5 1.5-2.5-3 1-1.5-3 4.5-1 1.5.5q.8-2.6-2.5-1.5l-1.5-.5q.7 2.6-2 1.5l-1-4.5q2.3-1.2-.5-2.5-2.2.8-1.5-1.5l-2-4.5 2-.5-3-3 1-1-.5-1.5-3 1-3.5-1.5.5-2.5 2.5-.5-1.5-3.5-3-1-1.5.5.5-1.5-1.5-.5.5-2.5 1.5-.5-3-3 1-1-.5-1.5-2.5 1.5-.5-1.5q-1.2 2.3-2.5-.5l3-1-3-1 3-2-2-.5-.5-2-2 4-.5-2.5 1-3.5q3 1 2-2l-2.5-1-1 2-.5-2h-2q1.1-2.7-1.5-2v-1l4 1-1.5-2.5-.5-1.5-1.5.5-.5-1.5-3 1v-1q3.3 1.1 2.5-1.5l-4-3 1-2-3-2v-4l-.5-1.5-2.5 1.5q3.8-1.7.5-3.5l-1.5.5 1-3h-1q.7 3-3 1.5l-1-2.5 2.5 1.5 1.5-1.5-4-2 3-2-.5-1.5-3 1q-2.7-1.2-.5-2.5l-.5-1.5-1.5.5v-2l-1-6.5-2.5-1-2 1v-1l2.5-1.5-.5-1.5-1.5.5-.5-1.5-1.5.5 1-1-1.5-2.5 2 1-2-3-2 1v-2l-1.5-.5 1-2.5-2-.5.5-1.5-2.5-.5 2-.5-1.5-3-1.5.5 1.5-2.5q-2.2.8-1.5-1.5-1.3-2.7-2.5-.5l-2.5-1.5h2l1-2-3-4.5q-3.3 1.3-2-3.5 2.3-1.2-.5-2.5l-2.5 1 1-2.5-5-3-2-5 3-1q-1.2-2.7-2.5-.5l-2.5-1.5 1-2.5-2-.5.5-1.5-1.5-.5.5-1.5H565q1.5-3.8-1.5-3v-2l-1.5-.5 1-3h-2l.5-1.5-2.5-.5v-2q1.7-4.8-2.5-3.5-2.8-1.2-.5-2.5l-.5-2.5-1 2-.5-1.5q2.8-1.8-1.5-3.5l-1.5-.5q2.5-1.5-1-3l-.5-3.5-1.5.5.5-1.5q-3 .9-1.5-3.5l-3-1h2q.7-2.6-2-1.5v-2.5l-6-8-1-4.5q-2.7 1.1-2-1.5l.5-1.5q-2.2.8-1.5-1.5-2.7-1.1-2-4.5l-2-.5 1-1-3-3v-2l-9-14zm38.5 65-2 2h2zm106 70-1 3h1zm19 19 1 2 2-1zm21 18v1h2zm20 18 1 2q1-3-1-2Zm-93 2-2 2 2 1zm110 13-2 3 2-1zm5 3-1 2h3zm-102 8q-2 3 1 2zm118 6q-2 3 1 2zm-116 2v1h2zm3 2 1 3 1-2zm114 1-1 3h1zm7 9v3q3-1 0-3Zm-112 3-1 3h1zm1 6-2 2h3zm7 10-5 3h4l2 2zm135 6q0 4 2 1zm-134 2 1 3 2-1zm137 0v3q3-1 0-3Zm-134 3v1h2zm135 2v2l2-1zm-135 1v1h3zm161 17q-2 3 1 2zm-147 4v2l2-1zm148 1-1 4h1zm6 1 1 2q1-3-1-2Zm-1 3v2l2-1zm-144 1v1h2zm-4 2v2l2-1zm3 1-2 2h3q1-3-1-2Zm155 1-2 4h3l1-1-2-1zm-153 4v2l2-1zm154 0v2q3 1 1 3l4 1v-1l1-2-2 1-1-2q1-3-3-2Zm-156 2 1 3 1-2zm165 5v2l3 2-1-2q1-3-2-2Zm-3 1-1 3h1zm-157 3q-2 3 1 2zm3 0-1 2-2 1 1 2 3-1v-2zm4 0-1 3h1zm157 0q-2 3 2 2 1 2 2 0-1-3-2-1zm7 4v2l2 1q1-4-2-3Zm-3 1-3 2 4 1v-2zm6 2-1 3h1zm-169 3q-2 3 1 2zm172 0 1 2q1-3-1-2Zm-169 1v3l2-1q1-3-2-2Zm164 1q-2 3 1 2zm-163 3q-3 2 0 3h1zm6 7v4h2zm8 13 1 2q1-3-1-2Zm2 9v1h2zm3 2 2 5v-3zm4 8 2 3h1zm0 2-1 3h1zm15 22-2 3 1 1 2-1zm9 11 1 2h1zm-5 5v2l2-1zm6 1-1 2-3 2q1 2 3 0 2 1 1-1 2-2 0-3Zm4 0 1 2q1-3-1-2Zm-2 10q-2 3 1 2zm9 1q-2 3 1 2zm228.5-403 .5 2.5h-1z" opacity=".992"/><path fill="#E5EDFD" stroke="#E5EDFD" d="m654.5 635 1 2q-2.8.7-1-2Zm8 3 2 3zM616 692l2 .5-2 1zm104.5 1 1 2zm5 3-1 2zm-107 1 1 2zm10 16 1.5 2.5h-1zm8 17q2.3-.7 1.5 1.5zm4 5 1 2zm132 6 .5 2q3.4.8 4.5-2l-2 5v-2l-3.5-1.5zm-122 14-1 2zm2 3 1 2zm138 1 .5 2.5h-1zm7 1q3 1.5 0 3zm18 19-.5 1.5-.5 1.5-.5-1.5zm-139 17-.5 1.5-.5 1.5-.5-1.5zm161 2 1 2zm-160 1 1.5.5-2.5 1.5zm.5 2 2 .5-4 3zm220 7 2 .5-2 1zm-46.5 4 2.5 1.5-.5 1.5-.5-2zm38.5 7 2 .5-2 1zm-206.5 4 1 2zm180 1-1 2zm9 4 1.5 4.5-2 1v-2zm6 1-1 2zm2 3 .5 2-2-.5zm-179 13-1 2zm13 22 .5 1.5-2 1zm12 21-1 2zm1 4-1 2zm6 11 1.5 2.5h-1zm4 7 1 2zm8.5 20q3.8-1.5 3 1.5h-3zm3 7 3 .5-2.5 1.5zm3.5 8 2.5.5-2.5.5z" opacity=".992"/></svg>