<svg xmlns="http://www.w3.org/2000/svg" width="24" height="24" overflow="hidden" viewBox="0 0 268.1 273.9">
<style>.B{filter:url(#J)}.C{color-interpolation-filters:sRGB}</style>
<defs><radialGradient id="B" cx="109.6" cy="135.9" r="71.5" fx="109.6" fy="135.9" gradientTransform="matrix(-1.93688 1.043 1.45573 2.55542 290.5 -400.6)" href="#L"><stop offset=".2" stop-color="#ff4541"/><stop offset=".3" stop-color="#ff4540"/><stop offset=".5" stop-color="#ff4640"/><stop offset=".5" stop-color="#ff473f"/><stop offset=".7" stop-color="#ff5138"/><stop offset=".8" stop-color="#ff5b33"/><stop offset=".9" stop-color="#ff6c29"/><stop offset="1" stop-color="#ff8c18"/></radialGradient><radialGradient id="C" cx="45.3" cy="279.3" r="71.5" fx="45.3" fy="279.3" gradientTransform="matrix(-3.5126 -4.45809 -1.69255 1.26062 870.8 191.6)" href="#L"><stop offset=".1" stop-color="#0cba65"/><stop offset=".2" stop-color="#0bb86d"/><stop offset=".3" stop-color="#09b479"/><stop offset=".4" stop-color="#08ad93"/><stop offset=".5" stop-color="#0aa6a9"/><stop offset=".6" stop-color="#0d9cc6"/><stop offset=".7" stop-color="#1893dd"/><stop offset=".8" stop-color="#258bf1"/><stop offset=".9" stop-color="#3086ff"/></radialGradient><radialGradient id="D" cx="304" cy="118" r="47.9" fx="304" fy="118" gradientTransform="matrix(2.06435 0 0 2.59204 -297.7 -151.8)" href="#L"><stop offset=".4" stop-color="#fb4e5a"/><stop offset="1" stop-color="#ff4540"/></radialGradient><radialGradient id="E" cx="181" cy="177.2" r="71.5" fx="181" fy="177.2" gradientTransform="matrix(-.24858 2.08314 2.96249 .33417 -255.2 -331.2)" href="#L"><stop offset=".4" stop-color="#ff4e3a"/><stop offset=".5" stop-color="#ff8a1b"/><stop offset=".5" stop-color="#ffa312"/><stop offset=".6" stop-color="#ffb60c"/><stop offset=".8" stop-color="#ffcd0a"/><stop offset=".9" stop-color="#fecf0a"/><stop offset=".9" stop-color="#fecf08"/><stop offset="1" stop-color="#fdcd01"/></radialGradient><radialGradient id="F" cx="207.7" cy="108.1" r="41.1" fx="207.7" fy="108.1" gradientTransform="matrix(-1.2492 1.34326 -3.89684 -3.4257 880.5 194.9)" href="#L"><stop offset=".3" stop-color="#ff4c3c"/><stop offset=".6" stop-color="#ff692c"/><stop offset=".7" stop-color="#ff7825"/><stop offset=".9" stop-color="#ff8d1b"/><stop offset="1" stop-color="#ff9f13"/></radialGradient><radialGradient id="G" cx="109.6" cy="135.9" r="71.5" fx="109.6" fy="135.9" gradientTransform="matrix(-1.93688 -1.043 1.45573 -2.55542 290.5 838.7)" href="#L"><stop offset=".2" stop-color="#0fbc5f"/><stop offset=".3" stop-color="#0fbc5f"/><stop offset=".4" stop-color="#0fbc5e"/><stop offset=".5" stop-color="#0fbc5d"/><stop offset=".5" stop-color="#12bc58"/><stop offset=".7" stop-color="#28bf3c"/><stop offset=".8" stop-color="#38c02b"/><stop offset=".9" stop-color="#52c218"/><stop offset=".9" stop-color="#67c30f"/><stop offset="1" stop-color="#86c504"/></radialGradient><radialGradient id="H" cx="154.9" cy="146" r="71.5" fx="154.9" fy="146" gradientTransform="rotate(-92.3 196.5 419.8)scale(1.93892 2.92905)" href="#L"><stop offset=".1" stop-color="#1abd4d"/><stop offset=".3" stop-color="#6ec30d"/><stop offset=".3" stop-color="#8ac502"/><stop offset=".4" stop-color="#a2c600"/><stop offset=".5" stop-color="#c8c903"/><stop offset=".5" stop-color="#ebcb03"/><stop offset=".6" stop-color="#f7cd07"/><stop offset=".7" stop-color="#fdcd04"/><stop offset=".8" stop-color="#fdce05"/><stop offset=".9" stop-color="#ffce0a"/></radialGradient><linearGradient id="A" x1="219.7" x2="254.5" y1="329.5" y2="329.5" href="#L"><stop offset="0" stop-color="#0fbc5c"/><stop offset="1" stop-color="#0cba65"/></linearGradient><linearGradient id="L" gradientUnits="userSpaceOnUse"/><filter id="I" width="1.1" height="1.1" x="-.1" y="-.1" class="C"><feGaussianBlur stdDeviation="1.7"/></filter><filter id="J" width="1" height="1" x="0" y="0" class="C"><feGaussianBlur stdDeviation=".2"/></filter><clipPath id="K"><path d="M371.4 193.2H237v53.5h77.1a62 62 0 0 1-8 21.8 65 65 0 0 1-16.4 18.2 87 87 0 0 1-52.8 16.2 85 85 0 0 1-79.3-55q-.7-1.5-1.2-3.4a81 81 0 0 1 .3-51.9 85.4 85.4 0 0 1 101.7-54.8 78 78 0 0 1 33.5 18.3l40.8-39.7A139 139 0 0 0 237 80a145 145 0 0 0-82.8 25.7 140 140 0 0 0-45 51c-9.7 18.9-15 39.8-15 62.3s5.3 43.7 15 62.4a142 142 0 0 0 43.7 50 145 145 0 0 0 84 26.6q34-.1 60.4-11.6a124 124 0 0 0 34.3-21.8Q352 306 363 280.2c11-26 11-36.8 11-58 0-9.8-1-19.9-2.6-29"/></clipPath></defs><g clip-path="url(#K)" transform="matrix(.95792 0 0 .98525 -90.2 -78.9)"><path fill="url(#H)" d="M92 220c.2 22.1 6.6 45 16.2 63.4v.1c7 13.4 16.4 24 27.2 34.5l65.4-23.7c-12.4-6.2-14.3-10-23.1-17a82 82 0 0 1-20-31.7h-.2l.2-.1a83 83 0 0 1-3.2-25.5z" class="B"/><path fill="url(#D)" d="M237 79a106 106 0 0 0 0 57.2q11.3 0 21.5 2.6a78 78 0 0 1 33.5 18.3l41.8-40.7A136 136 0 0 0 237.1 79z" class="B"/><path fill="url(#B)" d="M237 78.9c-31.7 0-61 9.7-85 26.3a146 146 0 0 0-24.3 21.2c-1.9 17.7 14.3 39.5 46.3 39.3a85 85 0 0 1 64-29.5h.1z" class="B"/><path fill="url(#C)" d="m341.5 226.4-28.3 19.3a62 62 0 0 1-8.1 21.8 65 65 0 0 1-16.4 18.1A87 87 0 0 1 236 302c-14.8 25.1-17.4 37.7 1 58q34.4-.2 61.1-11.9a125 125 0 0 0 34.8-22q20.6-18.7 31.8-45a119 119 0 0 0 11.2-58.8z" class="B"/><path fill="#3086ff" d="M235 191.2v57.5h136c1.2-7.9 5.2-18 5.2-26.5 0-9.8-1-21.9-2.7-31z" class="B"/><path fill="url(#E)" d="M128.4 124.3a139 139 0 0 0-21.3 30.4 143 143 0 0 0-15 64.3v1c4.3 8.2 59.6 6.6 62.4 0v-1c0-9.2 1.6-16 4.4-24.3a85 85 0 0 1 16.2-28c1.6-2 5.8-6.4 7-9 .5-1-.8-1.5-.9-1.9s-1.8 0-2.2-.4c-1.3-.9-3.8-1.4-5.4-1.8-3.3-1-8.7-3-11.7-5-9.5-6.7-24.4-14.7-33.5-24.3" class="B"/><path fill="url(#F)" d="M162.1 155.9c22.1 13.3 28.5-6.8 43.2-13l-25.6-52.7a145 145 0 0 0-26.5 14.5 141 141 0 0 0-32.2 30.7z" filter="url(#I)"/><path fill="url(#G)" d="M171.1 290.2c-29.7 10.7-34.3 11-37 29.3a145 145 0 0 0 16.7 14 152 152 0 0 0 86.1 26.6h.2v-59.2h-.1a76 76 0 0 1-38.6-10.5c-3-1.7-8.4 2.7-11.1.8-3.8-2.8-13 2.3-16.2-1" class="B"/><path fill="url(#A)" d="M219.7 299v60q8.2 1 17.3 1a176 176 0 0 0 17.5-.8v-59.8A105 105 0 0 1 237 301a84 84 0 0 1-17.3-1.9" class="B" opacity=".5"/></g>
</svg>