<svg xmlns="http://www.w3.org/2000/svg" width="24" height="24">
<path d="M10.844 13.746c.195-1.879 1.375-3.402 2.75-3.402s2.117 1.523 1.918 3.402-1.328 3.426-2.617 3.426-2.336-1.18-2.051-3.426M12 22.254a10.24 10.24 0 0 1-7.898-3.707c1.703.543 3.602.063 5.082-1.398.16-.156.305-.324.438-.5.676 1.461 1.984 2.203 3.297 2.203 2.223 0 4.102-2.293 4.32-5.129s-1.375-5.082-3.492-5.082c-.77-.012-1.523.191-2.184.59l.656-3.82a1.07 1.07 0 0 0-.195-.871c-.199-.305-.371-.437-.633-.437H8.336c-.184.008-.328.148-.352.328-.082.359-.137.723-.172 1.09-.023.242.152.328.348.328h2.227l-1.246 7.484c-.203 1.012-.695 1.941-1.418 2.684-1.223 1.223-3.469 1.504-4.801.172-.457-.477-1.176-1.656-1.176-4.187C1.746 6.336 6.336 1.746 12 1.746S22.254 6.336 22.254 12 17.664 22.254 12 22.254M12 0a12 12 0 1 0 0 24 12 12 0 0 0 8.484-20.484A12 12 0 0 0 12 0" fill="rgb(12.941177%,12.941177%,14.117648%)"/>
</svg>