<svg width="20" height="20" viewBox="0 0 20 20" fill="none" xmlns="http://www.w3.org/2000/svg">
<path d="M15.841 8.96198C15.7596 8.3677 15.4245 7.85831 14.8166 7.39132L14.4671 7.16021L14.2325 7.50455C13.9358 7.94791 13.7826 8.56581 13.8304 9.15536C13.8544 9.3629 13.9214 9.73553 14.1368 10.061C13.9214 10.1742 13.4953 10.3345 12.9257 10.3251H2.059L2.03984 10.4477C1.9393 11.042 1.9393 12.891 3.16001 14.3154C4.08873 15.3955 5.47698 15.9474 7.29605 15.9474C11.231 15.9474 14.1416 14.1645 15.5059 10.9194C16.0421 10.9288 17.1957 10.9241 17.7893 9.80627C17.8037 9.78269 17.842 9.71195 17.9426 9.50442L18 9.38648L17.6649 9.1648C17.3059 8.92897 16.4777 8.84408 15.841 8.96198ZM10.7523 5H9.10081V6.48101H10.7523V5ZM10.7523 6.77819H9.10081V8.25448H10.7523V6.77819ZM8.79921 6.77819H7.14767V8.25448H8.79921V6.77819ZM6.84607 6.77819H5.19454V8.25448H6.84607V6.77819ZM4.89294 8.55166H3.2414V10.0327H4.89294V8.55166ZM6.84607 8.55166H5.19454V10.0327H6.84607V8.55166ZM8.79921 8.55166H7.14767V10.0327H8.79921V8.55166ZM10.7523 8.55166H9.10081V10.0327H10.7523V8.55166ZM12.7055 8.55166H11.0539V10.0327H12.7055V8.55166Z" fill="#2496ED"/>
</svg>
