<svg width="20" height="20" viewBox="0 0 20 20" fill="none" xmlns="http://www.w3.org/2000/svg">
<path fill-rule="evenodd" clip-rule="evenodd" d="M8.74584 5.03589H4.38026L0.422852 11.859L2.60244 15.6606H6.96983L9.9818 10.3721L13.0712 15.6513L17.3942 15.6831L19.5769 11.9024L15.6467 5.06362L11.2646 5.0504L9.99862 7.24316L8.74584 5.03589ZM7.84521 6.58264L8.66188 8.02151H6.9706L6.15395 6.58264H7.84521ZM2.20834 11.8635L4.81849 7.36324L5.63066 8.79422L3.04826 13.3284L2.20834 11.8635ZM6.07074 14.1138H4.38097L6.96983 9.56826H8.6596L6.07074 14.1138ZM13.5121 13.3422L10.87 8.8274L11.7149 7.36402L14.357 11.8788L13.5121 13.3422ZM16.5049 14.1298L14.8505 14.1176L15.6961 12.6529L17.3506 12.6651L16.5049 14.1298ZM14.7501 6.60766L17.3423 11.1182L15.6969 11.1061L13.0614 6.60257L14.7501 6.60766Z" fill="#9AEE86"/>
</svg>
