<svg xmlns="http://www.w3.org/2000/svg" width="50" height="50" fill="none"><path fill="#9098EF" fill-rule="evenodd" d="M4.77125 8.39739c0-2.00377 1.62237-3.62614 3.62614-3.62614h8.68631V45.2288H8.39739c-2.00309 0-3.62614-1.6244-3.62614-3.6262V8.39739ZM20.2645 45.2288h21.3381c2.0011 0 3.6262-1.6251 3.6262-3.6262V26.5891H20.2645v18.6397Zm24.9643-21.8205V8.39739c0-2.00377-1.6224-3.62614-3.6262-3.62614H20.2645V23.4083h24.9643ZM8.39739 0C3.75853 0 0 3.75853 0 8.39739V41.6026C0 46.2381 3.75785 50 8.39739 50H41.6026C46.2388 50 50 46.2388 50 41.6026V8.39739C50 3.75853 46.2415 0 41.6026 0H8.39739Z" clip-rule="evenodd"/></svg>