<svg xmlns="http://www.w3.org/2000/svg" width="20px" height="20px" viewBox="0 0 10240 10240"><path d="M1920 0h6400q1920 0 1920 1920v6400q0 1920-1920 1920H1920Q0 10240 0 8320V1920Q0 0 1920 0"/><path d="M4450 4160v-310a2010 2010 0 00-330-30 2420 2420 0 00-2410 2410c0 820 410 1540 1030 1980a2400 2400 0 01-650-1640 2400 2400 0 01 2360-2410" fill="#00F2EA"/><path d="M4510 7680c590 0 1070-470 1100-1060V1360h960c-20-110-30-220-30-340H5220v5260a1100 1100 0 01-1100 1060c-190 0-360-40-510-120 200 280 530 460 900 460" fill="#00F2EA"/><path d="M7370 2550a1800 1800 0 01-450-1190h-350a1830 1830 0 00 800 1190M4120 5140c-610 0-1100 490-1100 1100 0 430 240 800 590 980a1100 1100 0 01 1220-1700V4180a2010 2010 0 00-320-30h-60v1030a1360 1360 0 00-330-40" fill="#FF004F"/><path d="M8370 3140v1020a3060 3060 0 01-1830-590v2670a2420 2420 0 01-3800 1980 2430 2430 0 00 1770 770 2420 2420 0 00 2420-2420V3910a3140 3140 0 00 1820 590V3180c-130 0-260-10-380-40" fill="#FF004F"/><path d="M6530 6240V3570a3140 3140 0 00 1830 590V3140a1850 1850 0 01-990-590 1820 1820 0 01-810-1190h-950v5260a1100 1100 0 01-1100 1060 1110 1110 0 01-900-460 1110 1110 0 01-590-980 1110 1110 0 01 1430-1050V4160a2410 2410 0 00-2370 2410c0 640 250 1220 650 1650a2430 2430 0 00 1390 430 2410 2410 0 00 2420-2410" fill="#FFF"/></svg>
