<svg xmlns="http://www.w3.org/2000/svg" width="40" height="40" viewBox="0 0 40 40">
  <path fill="#ff6532" fill-rule="evenodd" d="M30.289 6.423c-2.43-.813-5.958-1.362-9.977-1.362-4.018 0-7.545.549-9.976 1.362-1.228.41-2.033.842-2.48 1.195q-.14.111-.204.18c.052.171.196.395.562.67.524.394 1.372.783 2.563 1.119 2.368.666 5.731 1.023 9.536 1.023s7.167-.357 9.535-1.023c1.191-.336 2.04-.725 2.563-1.119.366-.275.51-.499.562-.67a2 2 0 0 0-.204-.18c-.447-.353-1.252-.784-2.48-1.195m-20.24 5.624c-.885-.25-1.71-.552-2.424-.922v4.393c0 .196.097.514.625.941.535.433 1.391.869 2.576 1.252 2.36.764 5.71 1.222 9.486 1.222 3.778 0 7.128-.458 9.487-1.222 1.185-.383 2.041-.82 2.576-1.252.528-.427.625-.745.625-.94v-4.394c-.715.37-1.539.673-2.424.922-2.7.76-6.336 1.124-10.264 1.124s-7.564-.364-10.263-1.124m25.576 3.471V7.622c0-2.829-6.856-5.122-15.313-5.122C11.857 2.5 5 4.793 5 7.622v24.756c0 2.829 6.856 5.122 15.313 5.122 8.456 0 15.312-2.293 15.312-5.122zM33 19.134c-.7.393-1.505.726-2.375 1.008-2.708.877-6.358 1.352-10.313 1.352-3.954 0-7.604-.475-10.312-1.352-.87-.282-1.676-.615-2.375-1.008v4.28c0 .196.097.514.625.942.535.432 1.391.868 2.576 1.252 2.36.763 5.71 1.221 9.486 1.221 3.778 0 7.128-.458 9.487-1.221 1.185-.384 2.041-.82 2.576-1.252.528-.428.625-.746.625-.941v-4.28Zm-23 8.904c-.87-.281-1.676-.615-2.375-1.007v5.143c.044.048.116.117.231.208.447.353 1.252.785 2.48 1.195 2.43.813 5.958 1.362 9.976 1.362s7.546-.549 9.977-1.362c1.228-.41 2.033-.842 2.48-1.195a2 2 0 0 0 .231-.208v-5.143c-.7.392-1.505.726-2.375 1.007-2.708.877-6.358 1.352-10.313 1.352-3.954 0-7.604-.475-10.312-1.352m23.06 4.06-.01.016zm-25.495 0 .01.016zm3.997-15.726c.725 0 1.313-.573 1.313-1.28s-.588-1.281-1.313-1.281c-.724 0-1.312.573-1.312 1.28s.588 1.281 1.313 1.281Zm1.313 6.83c0 .706-.588 1.28-1.313 1.28-.724 0-1.312-.574-1.312-1.28 0-.708.588-1.281 1.313-1.281.724 0 1.312.573 1.312 1.28Zm-1.313 9.176c.725 0 1.313-.573 1.313-1.28s-.588-1.28-1.313-1.28c-.724 0-1.312.572-1.312 1.28 0 .707.588 1.28 1.313 1.28Z" clip-rule="evenodd"/>
</svg>
