<?xml version="1.0" encoding="UTF-8"?>
<svg xmlns="http://www.w3.org/2000/svg" xmlns:xlink="http://www.w3.org/1999/xlink" width="24px" height="24px" viewBox="0 0 24 24" version="1.1">
<g id="surface1">
<path style=" stroke:none;fill-rule:evenodd;fill:rgb(75.294119%,48.627451%,86.666667%);fill-opacity:1;" d="M 9.074219 7.648438 C 9.273438 8.332031 9.261719 9.066406 9.050781 9.617188 L 8.972656 9.816406 L 8.804688 9.816406 C 8.613281 9.816406 8.621094 9.828125 8.703125 9.574219 C 8.75 9.425781 8.757812 9.375 8.734375 9.359375 C 8.714844 9.347656 8.71875 9.335938 8.75 9.328125 C 8.78125 9.320312 8.777344 9.316406 8.730469 9.316406 C 8.695312 9.3125 8.664062 9.324219 8.664062 9.335938 C 8.664062 9.347656 8.617188 9.359375 8.558594 9.359375 C 8.484375 9.359375 8.445312 9.371094 8.429688 9.398438 C 8.417969 9.417969 8.398438 9.433594 8.390625 9.433594 C 8.359375 9.425781 8.21875 9.460938 8.191406 9.484375 C 8.152344 9.515625 8.011719 9.53125 8.027344 9.503906 C 8.035156 9.492188 8.039062 9.480469 8.035156 9.480469 C 8.027344 9.480469 7.976562 9.550781 7.917969 9.636719 L 7.8125 9.789062 L 7.640625 9.792969 L 7.464844 9.792969 L 7.558594 9.589844 L 7.421875 9.558594 C 7.347656 9.542969 7.273438 9.539062 7.261719 9.546875 C 7.25 9.554688 7.25 9.546875 7.257812 9.527344 C 7.273438 9.507812 7.269531 9.5 7.246094 9.511719 C 7.226562 9.515625 7.214844 9.535156 7.21875 9.550781 C 7.222656 9.566406 7.214844 9.574219 7.199219 9.5625 C 7.1875 9.554688 7.179688 9.539062 7.1875 9.527344 C 7.195312 9.515625 7.179688 9.503906 7.152344 9.503906 C 7.125 9.503906 7.109375 9.492188 7.117188 9.480469 C 7.125 9.46875 7.125 9.457031 7.121094 9.457031 C 7.113281 9.457031 7.0625 9.527344 7.011719 9.613281 L 6.910156 9.769531 L 6.78125 9.769531 C 6.703125 9.769531 6.648438 9.757812 6.648438 9.742188 C 6.648438 9.699219 6.761719 9.488281 6.828125 9.410156 C 6.863281 9.367188 6.886719 9.328125 6.882812 9.320312 C 6.875 9.3125 6.855469 9.332031 6.839844 9.359375 C 6.828125 9.386719 6.800781 9.40625 6.785156 9.40625 C 6.769531 9.40625 6.675781 9.488281 6.574219 9.585938 C 6.433594 9.730469 6.382812 9.765625 6.324219 9.769531 L 6.253906 9.769531 L 6.347656 9.667969 C 6.402344 9.613281 6.503906 9.523438 6.582031 9.46875 L 6.714844 9.367188 L 6.59375 9.351562 C 6.523438 9.34375 6.386719 9.335938 6.289062 9.335938 L 6.113281 9.335938 L 5.90625 9.539062 C 5.707031 9.734375 5.691406 9.742188 5.589844 9.742188 L 5.480469 9.742188 L 5.382812 9.929688 C 4.964844 10.71875 4.746094 11.917969 4.902344 12.582031 C 4.953125 12.789062 4.949219 12.785156 5.042969 12.71875 C 5.289062 12.542969 5.554688 12.457031 7.054688 12.082031 C 8.875 11.628906 9.402344 11.378906 9.863281 10.753906 C 10.050781 10.496094 10.273438 10.019531 10.273438 9.867188 C 10.273438 9.847656 10.164062 9.839844 9.933594 9.839844 L 9.597656 9.839844 L 9.613281 9.6875 C 9.632812 9.511719 9.621094 9.503906 9.398438 9.503906 C 9.300781 9.503906 9.285156 9.496094 9.296875 9.460938 C 9.425781 9.027344 9.363281 8.300781 9.144531 7.699219 C 9.054688 7.449219 9.007812 7.417969 9.074219 7.648438 M 12.964844 9.976562 C 12.878906 10.101562 12.878906 10.109375 12.984375 10.054688 C 13.039062 10.027344 13.117188 9.984375 13.160156 9.957031 L 13.234375 9.914062 L 13.125 9.910156 C 13.027344 9.910156 13.003906 9.921875 12.964844 9.976562 M 2.425781 10.382812 C 1.957031 10.894531 1.414062 11.800781 1.117188 12.5625 L 1.007812 12.839844 L 1.09375 13.097656 C 1.289062 13.664062 1.59375 14.3125 1.921875 14.851562 C 2.101562 15.148438 2.578125 15.851562 2.613281 15.875 C 2.652344 15.898438 2.671875 15.621094 2.640625 15.515625 C 2.625 15.464844 2.597656 15.367188 2.578125 15.300781 C 2.535156 15.148438 2.535156 14.910156 2.578125 14.832031 L 2.613281 14.773438 L 2.640625 14.851562 C 2.765625 15.199219 2.890625 15.210938 2.785156 14.863281 C 2.726562 14.675781 2.695312 14.285156 2.730469 14.160156 L 2.75 14.074219 L 2.808594 14.183594 C 2.835938 14.242188 2.90625 14.351562 2.957031 14.421875 L 3.054688 14.550781 L 3.160156 14.351562 C 3.277344 14.132812 3.425781 13.910156 3.605469 13.695312 C 3.667969 13.617188 3.71875 13.546875 3.71875 13.535156 C 3.71875 13.523438 3.765625 13.53125 3.820312 13.550781 C 3.964844 13.601562 4.109375 13.597656 4.09375 13.542969 C 4.0625 13.4375 3.980469 12.839844 3.957031 12.503906 C 3.910156 11.890625 3.972656 11.058594 4.09375 10.628906 C 4.105469 10.59375 3.664062 10.511719 3.636719 10.539062 C 3.628906 10.546875 3.617188 10.578125 3.601562 10.609375 C 3.582031 10.660156 3.578125 10.644531 3.578125 10.53125 C 3.574219 10.375 3.574219 10.375 3.335938 10.363281 L 3.203125 10.355469 L 3.175781 10.546875 C 2.992188 11.796875 3.15625 12.890625 3.59375 13.390625 L 3.707031 13.519531 L 3.582031 13.453125 C 2.941406 13.105469 2.625 11.992188 2.765625 10.589844 L 2.796875 10.273438 L 2.726562 10.273438 C 2.683594 10.273438 2.628906 10.265625 2.601562 10.257812 C 2.5625 10.246094 2.523438 10.277344 2.425781 10.382812 M 4.28125 10.601562 C 4.214844 10.992188 4.265625 12.070312 4.382812 12.636719 C 4.445312 12.949219 4.421875 12.929688 4.585938 12.8125 L 4.726562 12.714844 L 4.710938 12.613281 C 4.648438 12.28125 4.699219 11.472656 4.816406 10.886719 C 4.886719 10.527344 4.910156 10.5625 4.617188 10.523438 C 4.28125 10.476562 4.300781 10.46875 4.28125 10.601562 M 16.074219 11.011719 C 15.773438 11.019531 15.769531 11.019531 15.832031 11.148438 C 15.871094 11.230469 15.875 11.230469 16.023438 11.230469 C 16.179688 11.230469 16.167969 11.238281 16.375 11.066406 C 16.421875 11.023438 16.429688 10.988281 16.386719 10.996094 C 16.371094 11 16.230469 11.003906 16.074219 11.011719 M 12.515625 11.125 C 12.066406 11.300781 11.585938 11.414062 10.054688 11.699219 C 7.964844 12.09375 7.367188 12.226562 6.539062 12.484375 C 4.882812 13 3.953125 13.625 3.539062 14.507812 C 3.460938 14.667969 3.382812 14.789062 3.277344 14.90625 C 2.613281 15.644531 2.589844 16.714844 3.210938 17.851562 L 3.347656 18.097656 L 3.378906 17.867188 C 3.496094 16.910156 3.953125 16.292969 4.859375 15.863281 C 5.363281 15.621094 5.8125 15.507812 7.429688 15.214844 C 9.113281 14.910156 9.445312 14.804688 10.066406 14.386719 C 10.320312 14.21875 10.824219 13.949219 11.160156 13.804688 C 11.269531 13.757812 9.140625 13.757812 8.578125 13.800781 C 7.332031 13.90625 6.003906 14.351562 4.609375 15.136719 C 4.457031 15.222656 4.292969 15.316406 4.246094 15.339844 L 4.164062 15.386719 L 4.246094 15.3125 C 4.644531 14.957031 5.84375 14.269531 6.550781 13.996094 C 7.808594 13.511719 8.6875 13.421875 10.820312 13.574219 L 11.644531 13.628906 L 11.960938 13.546875 C 12.285156 13.464844 12.691406 13.382812 13.234375 13.296875 C 13.65625 13.230469 13.847656 13.183594 13.722656 13.179688 C 13.636719 13.175781 13.628906 13.167969 13.566406 13.046875 C 13.492188 12.890625 13.460938 12.875 13.167969 12.847656 L 12.953125 12.828125 L 12.878906 12.699219 L 12.808594 12.566406 L 12.914062 12.582031 C 12.972656 12.589844 13.09375 12.605469 13.183594 12.613281 L 13.351562 12.632812 L 13.289062 12.527344 C 13.257812 12.46875 13.179688 12.324219 13.117188 12.207031 L 13.003906 11.996094 L 13.097656 12.011719 C 13.148438 12.019531 13.175781 12.019531 13.15625 12.011719 C 13.132812 12 13.015625 11.800781 12.964844 11.679688 C 12.957031 11.667969 12.980469 11.667969 13.011719 11.675781 C 13.125 11.710938 13.035156 11.664062 12.910156 11.621094 C 12.785156 11.578125 12.777344 11.570312 12.667969 11.375 C 12.542969 11.148438 12.539062 11.136719 12.585938 11.136719 C 12.601562 11.136719 12.648438 11.121094 12.6875 11.105469 C 12.726562 11.085938 12.78125 11.058594 12.816406 11.046875 C 12.988281 10.96875 12.75 11.03125 12.515625 11.125 M 21.070312 13.519531 C 21.070312 13.6875 21.484375 13.925781 21.5625 13.804688 C 21.574219 13.785156 21.316406 13.621094 21.089844 13.496094 C 21.082031 13.488281 21.070312 13.5 21.070312 13.519531 M 21.980469 13.871094 C 21.984375 13.925781 21.992188 13.96875 22 13.96875 C 22.003906 13.96875 22.007812 13.925781 22.007812 13.871094 C 22.007812 13.820312 22 13.777344 21.988281 13.777344 C 21.980469 13.777344 21.976562 13.820312 21.980469 13.871094 M 0.640625 14.296875 C 0.519531 15.105469 0.519531 15.566406 0.640625 15.941406 C 0.785156 16.402344 0.972656 16.835938 1.164062 17.1875 C 1.222656 17.296875 1.265625 17.390625 1.257812 17.398438 C 1.242188 17.414062 1.25 17.425781 0.917969 16.871094 C 0.5625 16.273438 0.578125 16.285156 0.617188 16.589844 C 0.652344 16.882812 0.738281 17.308594 0.761719 17.332031 C 0.773438 17.339844 1.148438 17.425781 1.597656 17.519531 C 2.042969 17.613281 2.4375 17.699219 2.472656 17.707031 C 2.527344 17.71875 2.523438 17.707031 2.421875 17.566406 C 1.667969 16.507812 1.121094 15.429688 0.816406 14.410156 C 0.6875 13.988281 0.6875 13.984375 0.640625 14.296875 M 1.027344 14.082031 C 0.949219 14.085938 0.886719 14.097656 0.886719 14.101562 C 0.886719 14.152344 1.023438 14.632812 1.105469 14.867188 C 1.40625 15.738281 1.890625 16.558594 2.589844 17.375 C 2.675781 17.476562 2.675781 17.464844 2.640625 17.167969 C 2.625 17.066406 2.605469 16.824219 2.59375 16.632812 L 2.574219 16.28125 L 2.308594 15.886719 C 1.96875 15.375 1.660156 14.863281 1.429688 14.417969 C 1.296875 14.164062 1.234375 14.066406 1.203125 14.070312 C 1.183594 14.070312 1.101562 14.078125 1.027344 14.082031 M 8.339844 15.351562 C 8.234375 15.367188 7.816406 15.425781 7.410156 15.480469 C 6.351562 15.617188 5.824219 15.730469 5.367188 15.910156 C 4.457031 16.273438 3.847656 16.921875 3.558594 17.832031 C 3.445312 18.191406 3.445312 18.1875 3.523438 18.207031 C 3.558594 18.214844 3.628906 18.230469 3.675781 18.242188 L 3.765625 18.265625 L 3.78125 18.5625 L 3.902344 18.589844 C 3.972656 18.605469 4.0625 18.625 4.105469 18.632812 L 4.1875 18.648438 L 4.226562 18.441406 C 4.28125 18.175781 4.273438 18.179688 4.53125 18.234375 L 4.746094 18.28125 L 4.828125 18.109375 C 5.230469 17.300781 6.101562 16.761719 7.273438 16.597656 C 7.617188 16.546875 7.90625 16.492188 8.015625 16.453125 C 8.0625 16.433594 8.152344 16.402344 8.214844 16.378906 C 8.324219 16.339844 8.554688 16.007812 8.472656 16.007812 C 8.460938 16.007812 8.472656 15.949219 8.496094 15.875 C 8.523438 15.800781 8.550781 15.667969 8.558594 15.578125 C 8.566406 15.492188 8.574219 15.394531 8.582031 15.367188 C 8.59375 15.304688 8.605469 15.304688 8.339844 15.351562 M 7.628906 16.871094 C 6.742188 16.972656 5.816406 17.550781 5.359375 18.289062 C 5.175781 18.585938 5.167969 18.558594 5.457031 18.621094 L 5.707031 18.675781 L 5.851562 18.558594 C 5.933594 18.496094 6.046875 18.417969 6.105469 18.386719 L 6.214844 18.332031 L 6.652344 18.429688 L 7.089844 18.523438 L 7.21875 18.464844 C 7.382812 18.394531 7.476562 18.316406 7.59375 18.171875 C 7.675781 18.070312 7.699219 18.054688 7.75 18.0625 C 7.84375 18.082031 7.867188 18.039062 7.921875 17.710938 C 7.949219 17.546875 8.003906 17.292969 8.039062 17.148438 C 8.078125 17.003906 8.105469 16.882812 8.101562 16.878906 C 8.085938 16.859375 7.785156 16.855469 7.628906 16.871094 "/>
<path style=" stroke:none;fill-rule:evenodd;fill:rgb(88.235295%,32.941177%,42.352942%);fill-opacity:1;" d="M 17.933594 2.429688 C 17.632812 2.855469 17.5 3.5 17.480469 4.691406 C 17.472656 5.074219 17.472656 5.382812 17.480469 5.375 C 17.558594 5.300781 17.882812 4.664062 17.96875 4.414062 C 18.085938 4.085938 18.09375 4.011719 18.003906 3.992188 C 17.90625 3.972656 17.902344 3.953125 17.886719 3.585938 C 17.871094 3.167969 17.921875 2.738281 18.039062 2.371094 C 18.0625 2.296875 18.011719 2.324219 17.933594 2.429688 M 18.054688 3.589844 C 18.054688 3.667969 18.058594 3.695312 18.066406 3.652344 C 18.070312 3.609375 18.070312 3.546875 18.066406 3.507812 C 18.058594 3.472656 18.054688 3.507812 18.054688 3.589844 M 14.785156 3.949219 C 14.828125 3.996094 14.871094 4.03125 14.878906 4.03125 C 14.882812 4.03125 14.851562 3.996094 14.808594 3.949219 C 14.761719 3.902344 14.722656 3.863281 14.714844 3.863281 C 14.707031 3.863281 14.738281 3.902344 14.785156 3.949219 M 9.722656 4.007812 C 9.414062 4.039062 9.097656 4.125 9.097656 4.175781 C 9.097656 4.25 9.378906 4.40625 9.671875 4.5 C 10.140625 4.644531 10.277344 4.65625 11.820312 4.679688 C 12.597656 4.691406 13.332031 4.710938 13.449219 4.726562 C 14.429688 4.847656 14.964844 5.164062 15.347656 5.84375 C 15.457031 6.042969 15.460938 6.046875 15.558594 6.054688 L 15.660156 6.0625 L 15.554688 6.066406 C 15.414062 6.074219 15.453125 6.121094 15.601562 6.121094 C 15.667969 6.121094 15.71875 6.113281 15.71875 6.109375 C 15.71875 5.898438 15.390625 5.4375 15.078125 5.214844 C 14.898438 5.085938 14.902344 5.089844 15.03125 5.105469 C 15.316406 5.136719 15.410156 4.882812 15.1875 4.691406 C 14.96875 4.507812 14.683594 4.464844 14.125 4.546875 C 13.792969 4.59375 13.332031 4.59375 13.128906 4.546875 C 12.902344 4.496094 12.695312 4.414062 12.710938 4.386719 C 12.722656 4.371094 12.714844 4.367188 12.699219 4.378906 C 12.6875 4.386719 12.65625 4.382812 12.632812 4.371094 C 12.226562 4.152344 10.460938 3.929688 9.722656 4.007812 M 14.71875 4.089844 C 14.671875 4.1875 14.65625 4.199219 14.5625 4.207031 C 14.5 4.210938 14.527344 4.21875 14.644531 4.21875 C 14.746094 4.222656 14.894531 4.246094 14.972656 4.269531 L 15.117188 4.3125 L 15.066406 4.246094 C 15.039062 4.207031 15.007812 4.175781 14.996094 4.175781 C 14.984375 4.175781 14.929688 4.132812 14.871094 4.082031 L 14.769531 3.984375 L 14.71875 4.089844 M 18.386719 4.101562 C 18.320312 4.191406 18.234375 4.382812 18.019531 4.90625 C 17.691406 5.710938 17.4375 6.097656 17.101562 6.320312 C 16.960938 6.414062 16.933594 6.398438 17.015625 6.285156 C 17.097656 6.167969 17.171875 5.984375 17.195312 5.828125 L 17.210938 5.714844 L 17.066406 5.707031 C 16.933594 5.699219 16.921875 5.703125 16.910156 5.75 C 16.902344 5.78125 16.808594 5.9375 16.699219 6.101562 C 16.453125 6.472656 16.363281 6.664062 16.261719 7.046875 C 16.214844 7.21875 16.164062 7.410156 16.144531 7.472656 C 16.121094 7.539062 16.113281 7.582031 16.125 7.570312 C 16.164062 7.523438 16.367188 7.222656 16.367188 7.207031 C 16.367188 7.128906 16.726562 6.808594 17.347656 6.335938 L 17.570312 6.164062 L 17.941406 6.167969 C 18.148438 6.167969 18.335938 6.179688 18.367188 6.191406 C 18.460938 6.226562 18.679688 6.050781 18.722656 5.902344 C 18.761719 5.757812 18.636719 5.269531 18.589844 5.390625 C 18.550781 5.496094 18.34375 5.773438 18.257812 5.835938 C 18.121094 5.933594 18.109375 5.921875 18.207031 5.769531 C 18.460938 5.371094 18.523438 5.125 18.503906 4.539062 C 18.492188 4.015625 18.480469 3.972656 18.386719 4.101562 M 9.261719 4.601562 C 9.296875 4.703125 9.332031 4.792969 9.339844 4.796875 C 9.347656 4.800781 9.410156 4.84375 9.480469 4.894531 C 9.808594 5.140625 10.191406 5.296875 11.121094 5.558594 C 11.148438 5.566406 11.160156 5.5625 11.152344 5.550781 C 11.113281 5.488281 12.121094 5.832031 12.335938 5.957031 C 12.410156 6 12.464844 6.003906 12.921875 6.007812 L 13.429688 6.007812 L 12.949219 6.023438 C 12.683594 6.03125 12.472656 6.039062 12.480469 6.042969 C 12.488281 6.046875 12.691406 6.054688 12.9375 6.0625 C 13.179688 6.066406 13.539062 6.078125 13.734375 6.082031 C 13.957031 6.089844 14.085938 6.085938 14.074219 6.070312 C 14.066406 6.058594 13.945312 6.046875 13.804688 6.042969 L 13.546875 6.039062 L 13.800781 6.023438 L 14.050781 6.011719 L 13.859375 5.816406 C 13.496094 5.445312 13.222656 5.359375 11.820312 5.160156 C 10.40625 4.957031 9.824219 4.800781 9.308594 4.472656 C 9.257812 4.441406 9.210938 4.414062 9.207031 4.414062 C 9.199219 4.414062 9.226562 4.5 9.261719 4.601562 M 17.214844 5.496094 C 17.214844 5.59375 17.21875 5.636719 17.226562 5.585938 C 17.230469 5.535156 17.230469 5.457031 17.226562 5.40625 C 17.21875 5.355469 17.214844 5.398438 17.214844 5.496094 M 10.664062 5.863281 L 10.15625 6.160156 L 10.234375 6.203125 C 10.273438 6.226562 10.574219 6.394531 10.894531 6.574219 C 12.394531 7.414062 12.84375 7.863281 12.902344 8.601562 L 12.917969 8.773438 L 12.453125 9.039062 C 12.058594 9.269531 11.984375 9.304688 11.972656 9.269531 C 11.960938 9.246094 11.953125 9.328125 11.953125 9.449219 C 11.949219 9.851562 11.851562 10.195312 11.652344 10.488281 C 11.59375 10.574219 11.550781 10.644531 11.554688 10.648438 C 11.578125 10.675781 12.121094 10.449219 12.1875 10.382812 C 12.347656 10.230469 12.886719 9.214844 12.886719 9.058594 C 12.890625 8.875 12.890625 8.871094 12.910156 8.914062 C 12.921875 8.941406 12.933594 8.957031 12.933594 8.953125 C 12.933594 8.945312 12.96875 8.808594 13.011719 8.652344 C 13.289062 7.558594 12.945312 6.613281 12.039062 6.003906 C 11.867188 5.886719 11.332031 5.609375 11.21875 5.582031 C 11.1875 5.574219 11.007812 5.664062 10.664062 5.863281 M 17.824219 6.113281 C 17.789062 6.117188 17.730469 6.117188 17.695312 6.113281 C 17.65625 6.109375 17.6875 6.101562 17.761719 6.101562 C 17.832031 6.101562 17.863281 6.109375 17.824219 6.113281 M 19.453125 6.164062 C 19.027344 6.292969 18.9375 6.351562 18.265625 6.925781 C 17.644531 7.453125 17.480469 7.5625 17.160156 7.644531 C 16.992188 7.6875 16.949219 7.679688 17.0625 7.621094 C 17.207031 7.546875 17.445312 7.277344 17.652344 6.953125 C 17.773438 6.761719 16.328125 7.601562 16.046875 7.882812 C 15.992188 7.941406 15.894531 8.085938 15.832031 8.207031 C 15.769531 8.328125 15.675781 8.492188 15.625 8.574219 C 15.578125 8.65625 15.523438 8.75 15.503906 8.78125 L 15.476562 8.839844 L 15.589844 8.820312 C 16.117188 8.746094 17.164062 8.238281 18.265625 7.519531 L 18.683594 7.246094 L 18.449219 7.472656 C 17.574219 8.316406 16.445312 8.921875 15.507812 9.054688 L 15.300781 9.085938 L 15.171875 9.238281 C 15.007812 9.429688 15.003906 9.429688 15.496094 9.324219 C 17.875 8.8125 19.21875 7.894531 19.6875 6.457031 C 19.816406 6.0625 19.8125 6.054688 19.453125 6.164062 M 18.402344 6.136719 C 18.339844 6.140625 18.234375 6.140625 18.164062 6.136719 C 18.09375 6.132812 18.144531 6.128906 18.277344 6.128906 C 18.40625 6.128906 18.464844 6.132812 18.402344 6.136719 M 15.726562 6.253906 C 15.726562 6.304688 15.730469 6.324219 15.738281 6.292969 C 15.742188 6.265625 15.742188 6.21875 15.738281 6.199219 C 15.730469 6.175781 15.726562 6.199219 15.726562 6.253906 M 9.40625 6.4375 C 9.40625 6.441406 9.378906 6.546875 9.347656 6.671875 L 9.289062 6.898438 L 9.386719 7.105469 C 9.511719 7.367188 9.621094 7.539062 9.945312 7.980469 C 10.546875 8.800781 10.75 9.226562 10.722656 9.59375 C 10.714844 9.660156 10.722656 9.710938 10.730469 9.707031 C 10.765625 9.683594 10.753906 10.054688 10.714844 10.234375 C 10.675781 10.421875 10.570312 10.660156 10.457031 10.820312 C 10.304688 11.03125 10.3125 11.035156 10.550781 10.890625 C 11.339844 10.417969 11.871094 9.703125 11.90625 9.070312 C 11.910156 9.015625 11.910156 9.015625 11.929688 9.085938 C 11.96875 9.230469 11.925781 8.820312 11.878906 8.617188 C 11.8125 8.339844 11.808594 8.332031 11.703125 8.398438 L 11.621094 8.449219 L 11.554688 8.335938 C 11.304688 7.90625 10.96875 7.589844 10.140625 6.996094 C 9.875 6.808594 9.601562 6.605469 9.535156 6.542969 C 9.464844 6.480469 9.40625 6.429688 9.40625 6.4375 M 8.355469 7.074219 C 8.1875 7.597656 7.851562 7.96875 6.839844 8.753906 C 6.582031 8.953125 6.320312 9.164062 6.253906 9.222656 L 6.132812 9.328125 L 6.429688 9.34375 L 6.730469 9.359375 L 7.066406 9.1875 C 7.523438 8.949219 7.761719 8.71875 8.042969 8.234375 C 8.226562 7.917969 8.414062 7.328125 8.425781 7.039062 C 8.433594 6.859375 8.421875 6.867188 8.355469 7.074219 M 7.175781 7.691406 C 7.117188 7.75 7.074219 7.800781 7.082031 7.800781 C 7.089844 7.800781 7.140625 7.75 7.199219 7.691406 C 7.257812 7.632812 7.300781 7.585938 7.292969 7.585938 C 7.289062 7.585938 7.234375 7.632812 7.175781 7.691406 M 8.484375 8.191406 L 8.386719 8.292969 L 8.488281 8.195312 C 8.585938 8.109375 8.601562 8.089844 8.585938 8.089844 C 8.582031 8.089844 8.535156 8.132812 8.484375 8.191406 M 5.007812 8.328125 C 4.75 8.460938 4.367188 8.761719 4.367188 8.832031 C 4.367188 8.851562 4.679688 8.902344 4.789062 8.902344 C 4.832031 8.902344 4.867188 8.867188 4.957031 8.71875 C 5.019531 8.617188 5.128906 8.453125 5.199219 8.359375 C 5.269531 8.261719 5.320312 8.183594 5.3125 8.183594 C 5.300781 8.1875 5.164062 8.25 5.007812 8.328125 M 18.527344 8.464844 C 17.550781 9.125 16.332031 9.53125 15.085938 9.613281 L 14.84375 9.628906 L 14.710938 9.75 C 14.628906 9.824219 14.601562 9.859375 14.640625 9.84375 C 14.832031 9.761719 15.371094 9.710938 16.429688 9.671875 C 17.644531 9.628906 18.078125 9.457031 18.5 8.851562 C 18.550781 8.773438 18.601562 8.722656 18.613281 8.730469 C 18.621094 8.738281 18.625 8.730469 18.617188 8.707031 C 18.609375 8.683594 18.609375 8.660156 18.621094 8.652344 C 18.632812 8.648438 18.648438 8.597656 18.65625 8.546875 C 18.664062 8.496094 18.679688 8.433594 18.6875 8.414062 C 18.707031 8.355469 18.671875 8.367188 18.527344 8.464844 M 19.5625 9.710938 C 19.269531 9.863281 18.910156 10.21875 18.789062 10.476562 C 18.667969 10.734375 18.671875 10.875 18.816406 11.222656 C 18.863281 11.335938 18.832031 11.425781 18.746094 11.425781 C 18.609375 11.425781 18.441406 11.207031 18.414062 10.992188 L 18.402344 10.898438 L 18.289062 10.957031 C 17.878906 11.164062 17.339844 11.617188 16.984375 12.054688 C 16.328125 12.859375 15.621094 13.210938 13.660156 13.695312 C 11.851562 14.144531 11.15625 14.398438 10.332031 14.917969 C 8.464844 16.09375 7.726562 17.964844 8.230469 20.253906 C 8.253906 20.367188 8.28125 20.492188 8.289062 20.53125 C 8.316406 20.644531 8.191406 20.339844 8.109375 20.089844 C 7.933594 19.539062 7.867188 19.101562 7.867188 18.484375 C 7.867188 18.09375 7.863281 18.027344 7.832031 18.050781 C 7.816406 18.066406 7.777344 18.070312 7.746094 18.0625 C 7.699219 18.050781 7.671875 18.070312 7.59375 18.171875 C 7.476562 18.316406 7.382812 18.394531 7.21875 18.464844 L 7.089844 18.523438 L 6.652344 18.425781 L 6.210938 18.332031 L 6.113281 18.382812 C 5.839844 18.523438 5.597656 18.777344 5.453125 19.070312 L 5.367188 19.242188 L 5.210938 19.207031 C 5.125 19.1875 5.039062 19.167969 5.023438 19.164062 C 4.949219 19.140625 5.195312 18.515625 5.398438 18.222656 C 5.859375 17.542969 6.679688 17.019531 7.507812 16.882812 L 7.714844 16.847656 L 7.414062 16.859375 C 6.238281 16.902344 5.171875 17.417969 4.828125 18.109375 L 4.746094 18.28125 L 4.53125 18.234375 C 4.269531 18.179688 4.28125 18.167969 4.21875 18.46875 C 4.171875 18.699219 4.167969 19.085938 4.210938 19.722656 C 4.238281 20.164062 5.820312 21.359375 6.96875 21.808594 C 7.316406 21.945312 7.367188 21.976562 7.125 21.910156 C 6.160156 21.648438 5.3125 21.226562 4.601562 20.65625 C 4.414062 20.503906 4.300781 20.433594 4.148438 20.371094 C 3.539062 20.121094 2.9375 19.675781 2.589844 19.214844 C 2.351562 18.902344 2.339844 18.847656 2.550781 19.042969 C 2.773438 19.253906 2.929688 19.347656 3.285156 19.488281 C 3.621094 19.625 3.605469 19.632812 3.445312 19.386719 C 3.289062 19.148438 3.070312 18.726562 3 18.53125 C 2.964844 18.433594 2.9375 18.394531 2.902344 18.390625 C 2.878906 18.390625 2.652344 18.34375 2.394531 18.289062 L 1.933594 18.1875 L 1.832031 18.074219 C 1.71875 17.953125 1.699219 17.960938 1.78125 18.089844 C 1.828125 18.167969 1.828125 18.171875 1.785156 18.160156 C 1.6875 18.128906 0.929688 17.976562 0.917969 17.984375 C 0.84375 18.0625 1.503906 19.429688 1.921875 20.050781 C 3.277344 22.082031 5.632812 23.414062 8.160156 23.589844 C 8.945312 23.644531 16.601562 23.625 16.988281 23.566406 C 17.347656 23.515625 17.367188 23.515625 17.769531 23.59375 C 18.109375 23.664062 18.359375 23.609375 18.445312 23.449219 C 18.527344 23.285156 18.441406 22.96875 18.285156 22.871094 L 18.203125 22.824219 L 18.28125 22.824219 C 18.492188 22.824219 18.574219 22.949219 18.578125 23.273438 C 18.578125 23.527344 18.589844 23.554688 18.71875 23.550781 C 19.046875 23.539062 19.113281 23.089844 18.839844 22.746094 C 18.757812 22.644531 18.765625 22.632812 18.882812 22.703125 C 18.929688 22.734375 18.980469 22.792969 19.011719 22.867188 C 19.105469 23.082031 19.117188 23.101562 19.167969 23.105469 C 19.425781 23.144531 19.25 22.597656 18.941406 22.390625 C 18.558594 22.140625 18.171875 22.152344 17.476562 22.445312 C 17.054688 22.621094 17.03125 22.617188 17.019531 22.4375 C 17.011719 22.253906 17.0625 22.1875 17.4375 21.921875 C 18.152344 21.410156 18.449219 20.867188 18.300781 20.363281 C 18.246094 20.179688 18.230469 20.167969 17.878906 20.0625 C 16.816406 19.738281 16.457031 19.304688 15.972656 17.753906 C 15.625 16.644531 14.507812 15.914062 13.023438 15.824219 C 12.871094 15.816406 12.746094 15.804688 12.75 15.800781 C 12.8125 15.738281 13.515625 15.671875 13.824219 15.699219 C 15.023438 15.800781 15.859375 16.636719 16.285156 18.152344 C 16.605469 19.277344 17.1875 19.792969 18.296875 19.921875 C 19.613281 20.074219 20.816406 19.511719 21.128906 18.59375 C 21.140625 18.558594 21.15625 18.554688 21.210938 18.570312 C 21.292969 18.59375 21.601562 18.589844 21.84375 18.566406 C 22.027344 18.546875 22.027344 18.546875 22.101562 18.617188 C 22.355469 18.871094 22.882812 18.671875 22.96875 18.289062 C 23.003906 18.136719 22.957031 18.03125 22.804688 17.925781 C 22.671875 17.832031 22.671875 17.785156 22.808594 17.835938 C 23.039062 17.917969 23.03125 17.558594 22.796875 17.371094 C 22.746094 17.332031 22.699219 17.269531 22.691406 17.230469 C 22.660156 17.089844 22.457031 16.96875 22.167969 16.917969 C 21.886719 16.871094 21.730469 16.902344 21.128906 17.128906 L 20.933594 17.203125 L 20.605469 17.050781 L 20.273438 16.894531 L 19.851562 16.886719 C 19.605469 16.882812 19.402344 16.871094 19.367188 16.855469 C 19.316406 16.832031 19.3125 16.828125 19.355469 16.824219 C 19.863281 16.808594 20.199219 16.738281 20.519531 16.582031 C 20.855469 16.425781 20.96875 16.394531 21.371094 16.367188 C 21.882812 16.335938 22.445312 16.152344 22.515625 15.996094 C 22.542969 15.941406 22.554688 15.9375 22.6875 15.9375 C 22.957031 15.9375 23.222656 15.738281 23.324219 15.472656 C 23.417969 15.21875 23.410156 15.183594 23.148438 14.957031 C 23.023438 14.84375 22.925781 14.746094 22.933594 14.734375 C 22.96875 14.675781 23.089844 14.71875 23.257812 14.84375 C 23.453125 14.992188 23.488281 15 23.519531 14.914062 C 23.582031 14.753906 23.527344 14.535156 23.335938 14.148438 C 23.148438 13.78125 23.109375 13.664062 23.074219 13.371094 C 22.890625 11.855469 21.917969 10.761719 20.566406 10.558594 C 20.308594 10.519531 20.296875 10.511719 20.234375 10.351562 C 20.183594 10.203125 20.015625 9.953125 19.851562 9.769531 L 19.753906 9.660156 L 19.792969 9.757812 C 19.898438 10.011719 19.835938 10.421875 19.621094 10.84375 C 19.449219 11.191406 19.4375 11.347656 19.558594 11.664062 C 19.617188 11.8125 19.617188 11.808594 19.558594 11.808594 C 19.441406 11.808594 19.273438 11.523438 19.273438 11.328125 C 19.273438 11.183594 19.320312 11.027344 19.46875 10.691406 C 19.621094 10.339844 19.707031 10 19.699219 9.796875 L 19.691406 9.648438 L 19.5625 9.710938 M 10.476562 10.175781 C 10.46875 10.1875 10.382812 10.242188 10.285156 10.292969 C 10.132812 10.378906 10.101562 10.410156 10.019531 10.542969 C 9.972656 10.628906 9.855469 10.785156 9.761719 10.898438 L 9.589844 11.101562 L 9.777344 10.945312 C 10.03125 10.734375 10.5625 10.152344 10.503906 10.152344 C 10.496094 10.152344 10.484375 10.164062 10.476562 10.175781 M 20.429688 10.769531 C 20.558594 11.050781 20.480469 11.453125 20.253906 11.699219 C 20.117188 11.847656 20.101562 11.835938 20.183594 11.65625 C 20.296875 11.421875 20.351562 11.160156 20.351562 10.890625 C 20.351562 10.621094 20.359375 10.613281 20.429688 10.769531 M 12.960938 11.679688 C 13.058594 11.902344 13.132812 12 13.21875 12.023438 C 13.917969 12.210938 14.582031 12.292969 15.003906 12.242188 C 15.386719 12.195312 15.398438 12.175781 15.035156 12.175781 C 14.574219 12.175781 13.890625 12.003906 12.988281 11.667969 C 12.96875 11.660156 12.957031 11.667969 12.960938 11.679688 M 0.679688 12.636719 C 0.679688 12.6875 0.683594 12.707031 0.6875 12.675781 C 0.695312 12.648438 0.695312 12.605469 0.6875 12.582031 C 0.683594 12.558594 0.679688 12.582031 0.679688 12.636719 M 21.703125 12.839844 C 22.167969 12.984375 22.382812 13.539062 22.210938 14.171875 C 22.152344 14.398438 22.175781 14.390625 21.628906 14.390625 L 21.152344 14.386719 L 20.96875 14.296875 C 20.453125 14.042969 20.382812 13.5625 20.792969 13.109375 C 21.054688 12.824219 21.359375 12.734375 21.703125 12.839844 M 14.550781 12.832031 C 14.574219 12.839844 14.609375 12.839844 14.632812 12.832031 C 14.65625 12.828125 14.636719 12.820312 14.59375 12.820312 C 14.546875 12.820312 14.527344 12.828125 14.550781 12.832031 M 21.3125 13.054688 C 21.289062 13.070312 21.289062 13.078125 21.304688 13.078125 C 21.320312 13.078125 21.335938 13.105469 21.339844 13.132812 C 21.347656 13.171875 21.414062 13.226562 21.59375 13.332031 C 21.726562 13.410156 21.84375 13.492188 21.847656 13.511719 C 21.855469 13.53125 21.859375 13.5 21.859375 13.445312 C 21.863281 13.328125 21.816406 13.203125 21.738281 13.136719 C 21.703125 13.105469 21.691406 13.101562 21.707031 13.128906 C 21.714844 13.148438 21.703125 13.136719 21.675781 13.105469 C 21.652344 13.074219 21.617188 13.054688 21.601562 13.066406 C 21.589844 13.074219 21.574219 13.070312 21.574219 13.058594 C 21.574219 13.027344 21.359375 13.023438 21.3125 13.054688 M 9.351562 13.769531 C 9.394531 13.773438 9.472656 13.773438 9.519531 13.769531 C 9.570312 13.765625 9.535156 13.761719 9.445312 13.761719 C 9.351562 13.757812 9.3125 13.765625 9.351562 13.769531 M 10.195312 13.769531 C 10.398438 13.773438 10.722656 13.773438 10.914062 13.769531 C 11.109375 13.765625 10.945312 13.761719 10.546875 13.761719 C 10.152344 13.761719 9.992188 13.765625 10.195312 13.769531 M 16.980469 15.3125 C 17.277344 16.03125 18.015625 16.566406 18.996094 16.78125 L 19.140625 16.8125 L 19.019531 16.820312 C 17.988281 16.886719 17.003906 16.171875 16.90625 15.289062 C 16.886719 15.105469 16.894531 15.105469 16.980469 15.3125 M 8.785156 15.28125 C 8.570312 15.324219 8.578125 15.3125 8.558594 15.546875 C 8.550781 15.648438 8.523438 15.792969 8.5 15.871094 C 8.429688 16.070312 8.484375 16.046875 8.636719 15.804688 C 8.707031 15.691406 8.828125 15.523438 8.90625 15.429688 C 9.089844 15.207031 9.097656 15.21875 8.785156 15.28125 M 21.605469 18.761719 C 21.65625 18.765625 21.738281 18.765625 21.785156 18.761719 C 21.835938 18.757812 21.796875 18.753906 21.695312 18.753906 C 21.597656 18.753906 21.554688 18.757812 21.605469 18.761719 M 3.675781 18.964844 C 3.71875 19.054688 3.757812 19.125 3.761719 19.121094 C 3.777344 19.101562 3.734375 18.886719 3.710938 18.886719 C 3.699219 18.886719 3.667969 18.867188 3.640625 18.847656 C 3.605469 18.816406 3.613281 18.84375 3.675781 18.964844 M 21.238281 19.042969 C 21.054688 19.355469 20.695312 19.664062 20.292969 19.847656 C 20.0625 19.957031 20.058594 19.964844 20.058594 20.277344 C 20.0625 20.875 20.578125 21.269531 21.589844 21.445312 C 22.429688 21.59375 23.023438 21.421875 23.242188 20.96875 C 23.386719 20.664062 23.523438 19.570312 23.417969 19.53125 C 23.355469 19.503906 23.21875 19.699219 23.1875 19.863281 C 23.136719 20.09375 23.070312 20.195312 22.960938 20.203125 C 22.832031 20.214844 22.769531 20.15625 22.78125 20.039062 L 22.789062 19.949219 L 22.691406 19.984375 C 22.519531 20.046875 22.054688 20.054688 21.808594 19.996094 C 21.464844 19.914062 20.976562 19.621094 20.976562 19.5 C 20.976562 19.449219 21.253906 19.234375 21.449219 19.132812 L 21.621094 19.042969 L 21.472656 18.972656 L 21.320312 18.898438 L 21.238281 19.042969 M 19.835938 20.410156 C 19.226562 20.671875 20.195312 21.535156 21.390625 21.792969 C 22.566406 22.050781 24.003906 21.554688 23.445312 21.085938 L 23.371094 21.023438 L 23.304688 21.125 C 22.960938 21.664062 22.015625 21.773438 20.953125 21.402344 C 20.355469 21.191406 20.113281 20.988281 19.972656 20.570312 L 19.90625 20.378906 L 19.835938 20.410156 M 19.546875 21.128906 C 19.523438 21.214844 19.601562 21.5 19.703125 21.707031 C 19.921875 22.15625 20.273438 22.453125 20.863281 22.691406 L 20.957031 22.726562 L 20.882812 22.832031 C 20.65625 23.160156 20.730469 23.316406 21.101562 23.316406 L 21.34375 23.316406 L 21.363281 23.398438 C 21.414062 23.644531 21.652344 23.71875 21.78125 23.527344 C 21.976562 23.238281 21.753906 22.921875 21.378906 22.953125 C 21.21875 22.964844 21.199219 22.957031 21.234375 22.90625 C 21.277344 22.839844 21.367188 22.824219 21.710938 22.828125 C 22.449219 22.832031 22.914062 22.605469 23.257812 22.074219 C 23.46875 21.75 23.433594 21.726562 22.953125 21.890625 L 22.570312 22.019531 L 22.09375 22.019531 C 21.109375 22.015625 20.445312 21.777344 19.746094 21.171875 C 19.613281 21.058594 19.566406 21.046875 19.546875 21.128906 "/>
<path style=" stroke:none;fill-rule:evenodd;fill:rgb(5.490196%,5.098039%,5.098039%);fill-opacity:1;" d="M 12.109375 0.09375 C 12.019531 0.238281 11.972656 0.253906 11.617188 0.285156 C 9.53125 0.472656 7.777344 1.429688 7.125 2.746094 C 6.984375 3.03125 6.964844 3.125 7.015625 3.246094 L 7.054688 3.335938 L 7.289062 3.335938 C 8.375 3.335938 9.316406 4.5625 8.972656 5.519531 C 8.941406 5.605469 8.910156 5.679688 8.902344 5.6875 C 8.894531 5.695312 8.855469 5.753906 8.816406 5.820312 C 8.714844 5.976562 8.550781 6.140625 8.535156 6.09375 C 8.390625 5.613281 8.257812 5.355469 8.046875 5.140625 C 7.957031 5.042969 7.929688 5 7.957031 4.996094 C 8.027344 4.980469 7.992188 4.945312 7.90625 4.945312 C 7.808594 4.945312 7.804688 4.957031 7.886719 5.042969 C 7.945312 5.101562 7.949219 5.117188 7.925781 5.222656 C 7.910156 5.289062 7.90625 5.445312 7.914062 5.570312 C 7.949219 6.226562 7.65625 6.726562 7.121094 6.914062 C 5.785156 7.382812 5.175781 7.640625 4.460938 8.046875 C 4.167969 8.210938 4.140625 8.195312 4.179688 7.871094 C 4.207031 7.644531 4.195312 7.585938 4.113281 7.585938 C 3.886719 7.585938 3.625 7.949219 3.382812 8.601562 L 3.304688 8.8125 L 2.988281 9.09375 C 2.074219 9.921875 1.46875 10.699219 0.96875 11.683594 C 0.828125 11.964844 0.820312 11.976562 0.808594 11.898438 C 0.765625 11.671875 0.742188 11.203125 0.753906 10.894531 C 0.765625 10.511719 0.757812 10.511719 0.660156 10.894531 C 0.539062 11.378906 0.5 11.6875 0.488281 12.296875 C 0.480469 12.84375 0.476562 12.882812 0.410156 13.101562 C 0.144531 14 0.03125 15.21875 0.117188 16.207031 C 0.484375 20.222656 3.875 23.503906 8.003906 23.832031 C 8.652344 23.882812 18.527344 23.851562 18.71875 23.800781 C 19.277344 23.640625 19.523438 23.351562 19.523438 22.859375 C 19.523438 22.203125 19.066406 21.832031 18.265625 21.839844 C 18.085938 21.84375 17.925781 21.84375 17.90625 21.84375 C 17.886719 21.839844 17.945312 21.761719 18.039062 21.664062 C 18.414062 21.277344 18.597656 20.875 18.613281 20.414062 C 18.621094 20.125 18.589844 20.148438 19.042969 20.125 C 19.246094 20.117188 19.472656 20.101562 19.550781 20.085938 C 19.722656 20.058594 19.726562 20.0625 19.597656 20.15625 C 19.386719 20.300781 19.28125 20.539062 19.226562 20.976562 C 19.132812 21.703125 19.574219 22.410156 20.394531 22.851562 C 20.464844 22.890625 20.464844 22.894531 20.445312 22.996094 C 20.382812 23.355469 20.585938 23.582031 20.957031 23.5625 L 21.144531 23.550781 L 21.167969 23.632812 C 21.394531 24.316406 22.304688 23.886719 22.105469 23.191406 L 22.085938 23.117188 L 22.207031 23.085938 C 22.910156 22.921875 23.410156 22.5625 23.683594 22.035156 C 23.921875 21.582031 23.945312 21.214844 23.761719 20.949219 L 23.660156 20.796875 L 23.722656 20.425781 C 23.871094 19.53125 23.722656 18.902344 23.226562 18.371094 L 23.15625 18.292969 L 23.210938 18.023438 C 23.28125 17.636719 23.246094 17.421875 23.066406 17.195312 C 23.011719 17.128906 22.945312 17.03125 22.917969 16.972656 C 22.679688 16.5 21.929688 16.386719 21.175781 16.707031 L 20.941406 16.804688 L 20.859375 16.761719 C 20.632812 16.640625 20.777344 16.574219 21.382812 16.523438 C 21.921875 16.480469 22.175781 16.410156 22.613281 16.179688 C 22.71875 16.125 22.824219 16.078125 22.851562 16.078125 C 23.128906 16.078125 23.554688 15.636719 23.609375 15.296875 C 23.617188 15.246094 23.652344 15.144531 23.6875 15.070312 C 23.847656 14.753906 23.835938 14.480469 23.648438 14.027344 C 23.464844 13.585938 23.429688 13.460938 23.398438 13.199219 C 23.214844 11.457031 22.25 10.425781 20.5625 10.164062 C 20.480469 10.152344 20.464844 10.136719 20.386719 9.984375 C 20.226562 9.679688 19.859375 9.40625 19.601562 9.402344 C 19.316406 9.398438 18.820312 9.769531 18.503906 10.222656 C 18.292969 10.527344 18.25 10.394531 18.457031 10.078125 C 18.835938 9.492188 19.164062 8.65625 19.261719 8.042969 C 19.277344 7.949219 19.308594 7.902344 19.542969 7.65625 C 19.886719 7.300781 20.0625 6.960938 20.0625 6.65625 C 20.0625 6.527344 19.972656 6.523438 19.90625 6.652344 C 19.847656 6.765625 19.847656 6.722656 19.910156 6.535156 C 20 6.25 20.070312 5.890625 20.074219 5.660156 C 20.078125 5.359375 20.054688 5.347656 19.820312 5.542969 C 19.726562 5.625 19.566406 5.738281 19.472656 5.792969 L 19.304688 5.898438 L 19.242188 5.582031 C 19.207031 5.410156 19.117188 5.058594 19.042969 4.800781 C 18.828125 4.074219 18.84375 3.625 19.09375 3.382812 C 19.203125 3.277344 19.199219 3.246094 19.066406 3.226562 C 18.84375 3.191406 18.664062 3.269531 18.558594 3.449219 L 18.496094 3.5625 L 18.460938 3.476562 C 18.34375 3.210938 18.40625 2.636719 18.597656 2.214844 C 18.722656 1.9375 18.738281 1.859375 18.683594 1.800781 C 18.523438 1.621094 17.949219 1.917969 17.738281 2.289062 L 17.671875 2.402344 L 17.566406 2.285156 C 17.5 2.214844 17.429688 2.09375 17.378906 1.972656 C 17.273438 1.714844 17.234375 1.679688 17.152344 1.769531 C 17.078125 1.847656 17.0625 1.835938 16.992188 1.660156 C 16.929688 1.492188 16.832031 1.355469 16.695312 1.230469 C 16.554688 1.097656 16.554688 1.097656 16.574219 1.285156 L 16.589844 1.441406 L 16.304688 1.261719 C 15.625 0.839844 14.996094 0.585938 14.152344 0.394531 C 13.957031 0.347656 13.734375 0.285156 13.660156 0.253906 C 13.511719 0.183594 13.476562 0.179688 13.394531 0.222656 C 13.28125 0.289062 12.804688 0.203125 12.5625 0.0742188 C 12.34375 -0.0390625 12.191406 -0.0351562 12.109375 0.09375 M 12.636719 0.589844 C 12.875 0.683594 12.917969 0.691406 13.335938 0.734375 C 14 0.796875 14.152344 0.875 14.402344 1.300781 C 14.445312 1.378906 14.492188 1.441406 14.5 1.441406 C 14.515625 1.441406 14.445312 1.160156 14.398438 1.035156 C 14.34375 0.894531 14.625 1.058594 14.8125 1.273438 C 15.058594 1.5625 15.105469 1.59375 15.085938 1.46875 C 15.058594 1.304688 15.050781 1.222656 15.0625 1.222656 C 15.085938 1.222656 15.507812 1.488281 15.632812 1.578125 C 15.816406 1.710938 15.96875 1.847656 16.078125 1.980469 C 16.214844 2.136719 16.214844 2.136719 16.257812 1.980469 C 16.324219 1.753906 16.394531 1.804688 16.417969 2.09375 C 16.4375 2.375 16.507812 2.402344 16.59375 2.160156 C 16.652344 2 16.664062 1.996094 16.777344 2.097656 C 16.851562 2.164062 16.890625 2.183594 16.964844 2.183594 C 17.066406 2.183594 17.066406 2.183594 17.175781 2.472656 C 17.207031 2.558594 17.273438 2.710938 17.320312 2.8125 L 17.40625 3 L 17.367188 3.167969 C 17.269531 3.570312 17.25 3.789062 17.234375 4.800781 C 17.210938 5.953125 17.199219 6.042969 17 6.304688 C 16.925781 6.402344 16.96875 6.410156 17.101562 6.320312 C 17.441406 6.09375 17.691406 5.710938 18.023438 4.894531 C 18.457031 3.835938 18.496094 3.808594 18.503906 4.570312 C 18.511719 5.160156 18.457031 5.375 18.207031 5.769531 C 18.109375 5.921875 18.121094 5.933594 18.257812 5.835938 C 18.34375 5.773438 18.550781 5.496094 18.589844 5.390625 C 18.636719 5.269531 18.761719 5.757812 18.722656 5.902344 C 18.65625 6.121094 18.234375 6.359375 17.3125 6.703125 C 16.582031 6.976562 16.496094 7.03125 16.273438 7.359375 C 16.105469 7.609375 16.101562 7.609375 16.144531 7.472656 C 16.164062 7.410156 16.214844 7.21875 16.261719 7.046875 C 16.363281 6.667969 16.457031 6.46875 16.679688 6.132812 C 16.859375 5.863281 16.929688 5.730469 16.953125 5.597656 C 16.972656 5.480469 16.941406 5.5 16.75 5.710938 C 16.65625 5.816406 16.5625 5.902344 16.546875 5.902344 C 16.457031 5.902344 16.5 5.605469 16.636719 5.296875 C 16.804688 4.914062 16.773438 4.726562 16.574219 4.9375 C 16.386719 5.132812 16.339844 4.980469 16.453125 4.5625 C 16.546875 4.21875 16.496094 4.066406 16.378906 4.335938 C 16.113281 4.929688 16.140625 4.921875 15.882812 4.511719 C 15.597656 4.058594 15.582031 4.015625 15.550781 3.683594 C 15.519531 3.289062 15.457031 3.140625 15.421875 3.378906 C 15.359375 3.816406 15.265625 3.820312 15.238281 3.390625 C 15.21875 3.058594 15.152344 2.976562 15.109375 3.226562 C 15.074219 3.433594 15.066406 3.457031 15.027344 3.457031 C 14.972656 3.457031 14.894531 3.3125 14.84375 3.121094 C 14.792969 2.90625 14.761719 2.835938 14.710938 2.808594 C 14.648438 2.773438 14.640625 2.800781 14.640625 3.007812 C 14.640625 3.148438 14.632812 3.195312 14.609375 3.1875 C 14.550781 3.167969 14.445312 2.957031 14.425781 2.828125 C 14.390625 2.5625 14.21875 2.558594 14.191406 2.820312 C 14.183594 2.878906 14.171875 2.929688 14.167969 2.929688 C 14.164062 2.929688 14.058594 2.878906 13.9375 2.816406 C 12.496094 2.09375 10.351562 1.96875 9.671875 2.566406 L 9.613281 2.617188 L 9.71875 2.566406 C 11.050781 1.917969 13.925781 2.808594 15.042969 4.21875 L 15.121094 4.316406 L 14.96875 4.265625 C 14.746094 4.195312 14.335938 4.214844 13.847656 4.320312 C 13.46875 4.402344 12.910156 4.433594 12.707031 4.386719 C 12.667969 4.378906 12.691406 4.394531 12.765625 4.429688 C 13.09375 4.582031 13.582031 4.625 14.125 4.546875 C 14.683594 4.464844 14.96875 4.507812 15.1875 4.691406 C 15.410156 4.882812 15.316406 5.136719 15.03125 5.105469 C 14.902344 5.089844 14.898438 5.085938 15.078125 5.214844 C 15.496094 5.511719 15.769531 5.988281 15.730469 6.347656 C 15.574219 7.8125 14.550781 9.214844 13.042969 10.035156 L 12.851562 10.136719 L 12.898438 10.066406 C 14.335938 7.871094 13.820312 6.316406 11.417969 5.609375 C 11.164062 5.53125 11.027344 5.523438 11.25 5.59375 C 11.402344 5.644531 11.855469 5.878906 12.046875 6.007812 C 13.320312 6.867188 13.445312 8.324219 12.394531 10.09375 C 12.210938 10.398438 12.160156 10.441406 11.832031 10.558594 C 11.507812 10.671875 11.523438 10.679688 11.652344 10.488281 C 11.859375 10.179688 11.953125 9.84375 11.949219 9.414062 C 11.945312 9.171875 11.914062 8.917969 11.90625 9.070312 C 11.871094 9.703125 11.339844 10.417969 10.550781 10.890625 C 10.3125 11.035156 10.304688 11.03125 10.457031 10.820312 C 10.648438 10.554688 10.75 10.222656 10.75 9.878906 C 10.753906 9.660156 10.742188 9.664062 10.644531 9.898438 C 10.46875 10.320312 9.886719 10.921875 9.300781 11.292969 C 8.800781 11.605469 8.410156 11.742188 7.09375 12.074219 C 5.542969 12.460938 5.289062 12.542969 5.042969 12.71875 C 4.949219 12.785156 4.953125 12.789062 4.910156 12.601562 C 4.765625 11.964844 4.917969 10.929688 5.269531 10.152344 C 5.632812 9.355469 5.988281 8.886719 7.007812 7.871094 C 7.625 7.253906 7.757812 7.109375 7.839844 6.957031 C 7.941406 6.78125 8.125 6.332031 8.152344 6.191406 C 8.199219 5.953125 8.425781 6.578125 8.425781 6.949219 C 8.425781 7.511719 8.097656 8.285156 7.648438 8.777344 L 7.527344 8.910156 L 7.691406 8.808594 C 9.058594 7.96875 9.609375 6.761719 9.375 5.113281 C 9.246094 4.179688 8.699219 3.542969 7.808594 3.273438 C 7.417969 3.160156 7.398438 3.078125 7.683594 2.722656 C 7.832031 2.53125 7.925781 2.457031 8.464844 2.097656 C 9.453125 1.4375 10.40625 1.101562 10.941406 1.226562 C 11.179688 1.28125 11.175781 1.171875 10.933594 1.085938 C 10.769531 1.03125 10.339844 1.03125 10.035156 1.089844 C 9.757812 1.144531 9.753906 1.140625 9.957031 1.003906 C 10.558594 0.605469 11.625 0.523438 12.25 0.828125 C 12.582031 0.988281 12.589844 0.984375 12.472656 0.761719 C 12.335938 0.5 12.359375 0.476562 12.636719 0.589844 M 18.253906 2.292969 C 18.269531 2.359375 18.269531 2.371094 18.183594 2.6875 C 18.101562 2.996094 18.070312 3.25 18.070312 3.695312 C 18.070312 4.242188 17.867188 4.835938 17.503906 5.339844 C 17.363281 5.53125 17.527344 3.4375 17.691406 2.929688 C 17.84375 2.460938 18.195312 2.0625 18.253906 2.292969 M 19.757812 6.1875 C 19.695312 6.617188 19.304688 7.320312 18.871094 7.777344 C 18.238281 8.449219 17.066406 8.984375 15.496094 9.324219 C 15.003906 9.429688 15.007812 9.429688 15.171875 9.238281 L 15.300781 9.085938 L 15.507812 9.054688 C 16.445312 8.921875 17.574219 8.316406 18.449219 7.472656 L 18.683594 7.246094 L 18.265625 7.519531 C 17.164062 8.238281 16.117188 8.746094 15.589844 8.820312 L 15.476562 8.839844 L 15.503906 8.78125 C 15.523438 8.75 15.578125 8.65625 15.625 8.574219 C 15.675781 8.492188 15.769531 8.328125 15.832031 8.207031 C 15.894531 8.085938 15.992188 7.941406 16.046875 7.882812 C 16.328125 7.601562 17.773438 6.761719 17.652344 6.953125 C 17.445312 7.277344 17.207031 7.546875 17.0625 7.621094 C 16.949219 7.679688 16.992188 7.6875 17.160156 7.644531 C 17.480469 7.5625 17.644531 7.453125 18.265625 6.925781 C 18.9375 6.351562 19.027344 6.292969 19.453125 6.164062 C 19.753906 6.070312 19.777344 6.074219 19.757812 6.1875 M 6.015625 8.152344 C 5.296875 9.246094 4.878906 10.308594 4.722656 11.4375 C 4.691406 11.675781 4.683594 12.460938 4.710938 12.613281 L 4.726562 12.714844 L 4.585938 12.8125 C 4.421875 12.929688 4.441406 12.949219 4.371094 12.574219 C 4.273438 12.042969 4.261719 11.898438 4.261719 11.269531 C 4.261719 10.578125 4.285156 10.363281 4.421875 9.941406 C 4.511719 9.65625 4.496094 9.640625 4.371094 9.894531 C 3.9375 10.78125 3.800781 12.609375 4.09375 13.542969 C 4.109375 13.597656 3.964844 13.601562 3.820312 13.550781 C 3.765625 13.53125 3.71875 13.523438 3.71875 13.535156 C 3.71875 13.546875 3.667969 13.617188 3.605469 13.695312 C 3.425781 13.910156 3.277344 14.132812 3.160156 14.351562 L 3.054688 14.550781 L 2.957031 14.421875 C 2.90625 14.351562 2.835938 14.242188 2.808594 14.183594 L 2.75 14.074219 L 2.730469 14.160156 C 2.695312 14.285156 2.726562 14.675781 2.785156 14.863281 C 2.894531 15.214844 2.765625 15.207031 2.640625 14.851562 L 2.613281 14.773438 L 2.578125 14.832031 C 2.535156 14.910156 2.535156 15.148438 2.578125 15.300781 C 2.597656 15.367188 2.625 15.464844 2.640625 15.515625 C 2.671875 15.621094 2.652344 15.898438 2.613281 15.875 C 2.578125 15.851562 2.101562 15.148438 1.921875 14.851562 C 1.59375 14.3125 1.289062 13.664062 1.09375 13.097656 L 1.007812 12.839844 L 1.117188 12.5625 C 1.46875 11.65625 2.191406 10.53125 2.773438 9.984375 L 2.859375 9.898438 L 2.847656 9.972656 C 2.539062 11.574219 2.851562 13.054688 3.582031 13.453125 L 3.707031 13.519531 L 3.59375 13.390625 C 3.089844 12.816406 2.976562 11.683594 3.253906 9.992188 C 3.386719 9.183594 3.652344 8.363281 3.839844 8.195312 C 3.964844 8.082031 4 8.488281 3.890625 8.808594 C 3.742188 9.257812 3.621094 9.917969 3.589844 10.429688 C 3.578125 10.667969 3.578125 10.664062 3.6875 10.199219 C 3.882812 9.359375 4.382812 8.644531 4.988281 8.34375 C 5.378906 8.148438 6.1875 7.8125 6.210938 7.835938 C 6.214844 7.839844 6.128906 7.980469 6.015625 8.152344 M 18.6875 8.417969 C 18.679688 8.441406 18.660156 8.53125 18.640625 8.617188 C 18.304688 10.078125 17.164062 11.601562 15.773438 12.441406 C 15.195312 12.789062 15.082031 12.816406 14.203125 12.832031 C 13.355469 12.847656 13.316406 12.867188 13.804688 13 C 13.964844 13.042969 14.105469 13.089844 14.117188 13.101562 C 14.152344 13.132812 13.636719 13.242188 12.769531 13.382812 C 12.550781 13.417969 12.207031 13.488281 12.003906 13.539062 L 11.632812 13.632812 L 10.789062 13.574219 C 8.875 13.4375 8.179688 13.484375 7.078125 13.816406 C 6.191406 14.085938 4.792969 14.824219 4.246094 15.3125 L 4.164062 15.386719 L 4.246094 15.339844 C 4.292969 15.316406 4.457031 15.222656 4.609375 15.136719 C 5.960938 14.375 7.1875 13.953125 8.464844 13.808594 C 8.992188 13.75 11.300781 13.734375 11.183594 13.792969 C 10.511719 14.113281 10.332031 14.210938 10.066406 14.390625 C 9.457031 14.796875 9.085938 14.914062 7.609375 15.183594 C 5.75 15.515625 5.328125 15.625 4.789062 15.894531 C 3.945312 16.316406 3.515625 16.902344 3.386719 17.816406 L 3.347656 18.101562 L 3.222656 17.875 C 2.589844 16.722656 2.609375 15.648438 3.277344 14.90625 C 3.382812 14.789062 3.460938 14.667969 3.539062 14.507812 C 3.953125 13.625 4.878906 13.003906 6.539062 12.484375 C 7.332031 12.238281 8.007812 12.085938 9.925781 11.722656 C 11.40625 11.445312 11.636719 11.398438 12.007812 11.289062 C 12.945312 11.019531 13.875 10.492188 14.664062 9.789062 L 14.84375 9.628906 L 15.085938 9.613281 C 16.339844 9.527344 17.550781 9.125 18.527344 8.464844 C 18.675781 8.367188 18.703125 8.355469 18.6875 8.417969 M 19.644531 10.179688 C 19.613281 10.308594 19.53125 10.539062 19.46875 10.691406 C 19.320312 11.027344 19.273438 11.183594 19.273438 11.328125 C 19.273438 11.523438 19.441406 11.808594 19.558594 11.808594 C 19.617188 11.808594 19.617188 11.8125 19.558594 11.664062 C 19.4375 11.347656 19.449219 11.191406 19.621094 10.84375 C 19.835938 10.421875 19.898438 10.011719 19.792969 9.757812 L 19.753906 9.660156 L 19.851562 9.769531 C 20.015625 9.953125 20.183594 10.203125 20.234375 10.351562 C 20.296875 10.511719 20.308594 10.519531 20.566406 10.558594 C 21.917969 10.761719 22.890625 11.855469 23.074219 13.371094 C 23.109375 13.664062 23.148438 13.78125 23.335938 14.148438 C 23.527344 14.535156 23.582031 14.753906 23.519531 14.914062 C 23.488281 15 23.453125 14.992188 23.257812 14.84375 C 23.089844 14.71875 22.96875 14.675781 22.933594 14.734375 C 22.925781 14.746094 23.023438 14.84375 23.148438 14.957031 C 23.410156 15.183594 23.417969 15.21875 23.324219 15.472656 C 23.222656 15.738281 22.957031 15.9375 22.6875 15.9375 C 22.554688 15.9375 22.542969 15.941406 22.515625 15.996094 C 22.445312 16.152344 21.882812 16.335938 21.371094 16.367188 C 20.96875 16.394531 20.855469 16.425781 20.519531 16.582031 C 20.199219 16.738281 19.863281 16.808594 19.355469 16.824219 C 19.3125 16.828125 19.316406 16.832031 19.367188 16.855469 C 19.402344 16.871094 19.605469 16.882812 19.851562 16.886719 L 20.273438 16.894531 L 20.605469 17.050781 L 20.933594 17.203125 L 21.128906 17.128906 C 21.730469 16.902344 21.886719 16.871094 22.167969 16.917969 C 22.457031 16.96875 22.660156 17.089844 22.691406 17.230469 C 22.699219 17.269531 22.746094 17.332031 22.796875 17.371094 C 23.03125 17.558594 23.039062 17.917969 22.808594 17.835938 C 22.671875 17.785156 22.671875 17.832031 22.804688 17.925781 C 22.957031 18.03125 23.003906 18.136719 22.96875 18.289062 C 22.882812 18.671875 22.355469 18.871094 22.101562 18.617188 C 22.027344 18.546875 22.027344 18.546875 21.84375 18.566406 C 21.601562 18.589844 21.292969 18.59375 21.210938 18.570312 C 21.15625 18.554688 21.140625 18.558594 21.128906 18.59375 C 20.816406 19.511719 19.613281 20.074219 18.296875 19.921875 C 17.1875 19.792969 16.605469 19.277344 16.285156 18.152344 C 15.859375 16.636719 15.023438 15.800781 13.824219 15.699219 C 13.515625 15.671875 12.8125 15.738281 12.75 15.800781 C 12.746094 15.804688 12.871094 15.816406 13.023438 15.824219 C 14.507812 15.914062 15.625 16.644531 15.972656 17.753906 C 16.457031 19.304688 16.816406 19.738281 17.878906 20.0625 C 18.230469 20.167969 18.246094 20.179688 18.300781 20.363281 C 18.449219 20.867188 18.152344 21.410156 17.4375 21.921875 C 17.0625 22.1875 17.011719 22.253906 17.019531 22.4375 C 17.03125 22.617188 17.054688 22.621094 17.476562 22.445312 C 18.171875 22.152344 18.558594 22.140625 18.941406 22.390625 C 19.25 22.597656 19.425781 23.144531 19.167969 23.105469 C 19.117188 23.101562 19.105469 23.082031 19.011719 22.867188 C 18.980469 22.792969 18.929688 22.734375 18.882812 22.703125 C 18.765625 22.632812 18.757812 22.644531 18.839844 22.746094 C 19.113281 23.089844 19.046875 23.539062 18.71875 23.550781 C 18.589844 23.554688 18.578125 23.527344 18.578125 23.273438 C 18.574219 22.949219 18.492188 22.824219 18.28125 22.824219 L 18.203125 22.824219 L 18.285156 22.871094 C 18.441406 22.96875 18.527344 23.285156 18.445312 23.449219 C 18.359375 23.609375 18.109375 23.664062 17.769531 23.59375 C 17.367188 23.515625 17.347656 23.515625 16.988281 23.566406 C 16.601562 23.625 8.945312 23.644531 8.160156 23.589844 C 4.289062 23.320312 1.089844 20.390625 0.625 16.691406 C 0.609375 16.574219 0.59375 16.445312 0.585938 16.410156 C 0.570312 16.292969 0.613281 16.355469 0.902344 16.839844 C 1.273438 17.457031 1.308594 17.496094 1.070312 17.015625 C 0.527344 15.917969 0.460938 15.476562 0.640625 14.273438 C 0.6875 13.960938 0.6875 13.960938 0.816406 14.398438 C 1.171875 15.605469 1.761719 16.695312 2.761719 18 C 2.8125 18.066406 2.882812 18.21875 2.9375 18.367188 C 3.046875 18.675781 3.257812 19.097656 3.441406 19.382812 C 3.609375 19.632812 3.621094 19.625 3.285156 19.488281 C 2.929688 19.347656 2.773438 19.253906 2.550781 19.042969 C 2.339844 18.847656 2.351562 18.902344 2.589844 19.214844 C 2.9375 19.675781 3.539062 20.121094 4.148438 20.371094 C 4.300781 20.433594 4.414062 20.503906 4.601562 20.65625 C 5.3125 21.226562 6.160156 21.648438 7.125 21.910156 C 7.367188 21.976562 7.316406 21.945312 6.96875 21.808594 C 5.367188 21.179688 4.089844 20 3.519531 18.621094 C 3.410156 18.355469 3.410156 18.273438 3.519531 17.925781 C 3.992188 16.425781 4.9375 15.804688 7.1875 15.503906 C 8.007812 15.394531 8.578125 15.316406 8.816406 15.273438 C 9.082031 15.230469 9.074219 15.222656 8.917969 15.417969 C 8.757812 15.613281 8.558594 15.90625 8.421875 16.160156 C 8.285156 16.40625 8.113281 16.476562 7.351562 16.582031 C 6.492188 16.707031 5.90625 16.941406 5.433594 17.34375 C 5.320312 17.441406 5.125 17.667969 5.210938 17.601562 C 5.5625 17.332031 5.734375 17.246094 6.265625 17.078125 C 6.855469 16.894531 7.066406 16.863281 7.625 16.859375 C 7.875 16.859375 8.089844 16.867188 8.097656 16.871094 C 8.101562 16.878906 8.082031 16.988281 8.050781 17.109375 C 7.746094 18.28125 7.828125 19.5625 8.269531 20.519531 C 8.3125 20.617188 8.316406 20.640625 8.230469 20.253906 C 7.726562 17.964844 8.464844 16.09375 10.332031 14.917969 C 11.15625 14.398438 11.851562 14.144531 13.660156 13.695312 C 15.621094 13.210938 16.328125 12.859375 16.984375 12.054688 C 17.339844 11.617188 17.878906 11.164062 18.289062 10.957031 L 18.402344 10.898438 L 18.414062 10.992188 C 18.441406 11.207031 18.609375 11.425781 18.746094 11.425781 C 18.832031 11.425781 18.863281 11.335938 18.816406 11.222656 C 18.671875 10.875 18.667969 10.734375 18.789062 10.476562 C 18.910156 10.21875 19.269531 9.863281 19.5625 9.710938 L 19.691406 9.648438 L 19.699219 9.796875 C 19.703125 9.898438 19.6875 10.023438 19.644531 10.179688 M 20.351562 10.890625 C 20.351562 11.160156 20.296875 11.421875 20.183594 11.65625 C 20.101562 11.835938 20.117188 11.847656 20.253906 11.699219 C 20.480469 11.453125 20.558594 11.050781 20.429688 10.769531 C 20.359375 10.613281 20.351562 10.621094 20.351562 10.890625 M 0.828125 12.984375 C 1.039062 13.722656 1.558594 14.742188 2.25 15.792969 L 2.574219 16.285156 L 2.59375 16.632812 C 2.605469 16.824219 2.625 17.066406 2.640625 17.167969 C 2.683594 17.515625 2.707031 17.523438 2.34375 17.074219 C 1.300781 15.796875 0.65625 14 0.675781 12.433594 L 0.675781 12.277344 L 0.71875 12.515625 C 0.742188 12.648438 0.789062 12.859375 0.828125 12.984375 M 21.226562 12.824219 C 21.082031 12.871094 20.980469 12.929688 20.867188 13.035156 L 20.761719 13.132812 L 20.824219 13.207031 C 20.875 13.273438 20.882812 13.296875 20.871094 13.394531 C 20.835938 13.683594 21 13.839844 21.496094 13.992188 C 21.722656 14.0625 21.894531 13.996094 21.949219 13.820312 C 21.984375 13.710938 22.007812 13.792969 22 14.011719 L 21.996094 14.246094 L 21.863281 14.191406 C 21.792969 14.164062 21.628906 14.121094 21.5 14.101562 C 20.984375 14.019531 20.699219 13.800781 20.640625 13.441406 L 20.625 13.332031 L 20.582031 13.425781 C 20.429688 13.765625 20.582031 14.105469 20.96875 14.296875 L 21.152344 14.386719 L 21.628906 14.390625 C 22.175781 14.390625 22.152344 14.398438 22.210938 14.171875 C 22.441406 13.320312 21.917969 12.609375 21.226562 12.824219 M 21.699219 13.109375 C 22.074219 13.394531 21.707031 14.007812 21.292969 13.789062 C 21.085938 13.683594 20.953125 13.1875 21.097656 13.078125 C 21.195312 13.007812 21.59375 13.027344 21.699219 13.109375 M 16.90625 15.289062 C 17.003906 16.171875 17.988281 16.886719 19.019531 16.820312 L 19.140625 16.8125 L 18.996094 16.78125 C 18.015625 16.566406 17.277344 16.03125 16.980469 15.3125 C 16.894531 15.105469 16.886719 15.105469 16.90625 15.289062 M 23.265625 19.019531 C 23.417969 19.324219 23.457031 19.535156 23.441406 19.929688 C 23.398438 21.085938 23.054688 21.496094 22.140625 21.488281 C 20.921875 21.480469 20.0625 20.980469 20.058594 20.277344 C 20.058594 19.964844 20.0625 19.957031 20.292969 19.847656 C 20.703125 19.660156 21.0625 19.351562 21.238281 19.035156 C 21.398438 18.75 21.390625 18.757812 21.6875 18.757812 C 21.925781 18.757812 21.964844 18.765625 22.136719 18.835938 C 22.425781 18.953125 22.589844 18.921875 22.859375 18.699219 L 22.980469 18.597656 L 23.070312 18.699219 C 23.121094 18.757812 23.207031 18.902344 23.265625 19.019531 M 20.085938 20.839844 C 20.460938 21.445312 22.214844 21.839844 22.925781 21.476562 C 23.050781 21.414062 23.222656 21.253906 23.304688 21.125 L 23.371094 21.023438 L 23.445312 21.085938 C 24.003906 21.554688 22.566406 22.050781 21.390625 21.792969 C 20.195312 21.535156 19.226562 20.671875 19.835938 20.410156 L 19.90625 20.378906 L 19.972656 20.570312 C 20.007812 20.675781 20.058594 20.796875 20.085938 20.839844 M 19.746094 21.171875 C 20.445312 21.777344 21.109375 22.015625 22.09375 22.019531 L 22.570312 22.019531 L 22.953125 21.890625 C 23.433594 21.726562 23.46875 21.75 23.257812 22.074219 C 22.914062 22.605469 22.449219 22.832031 21.710938 22.828125 C 21.367188 22.824219 21.277344 22.839844 21.234375 22.90625 C 21.199219 22.957031 21.21875 22.964844 21.378906 22.953125 C 21.753906 22.921875 21.976562 23.238281 21.78125 23.527344 C 21.652344 23.71875 21.414062 23.644531 21.363281 23.398438 L 21.34375 23.316406 L 21.101562 23.316406 C 20.730469 23.316406 20.65625 23.160156 20.882812 22.832031 L 20.957031 22.726562 L 20.863281 22.691406 C 20.140625 22.398438 19.710938 21.953125 19.570312 21.351562 C 19.503906 21.058594 19.554688 21.007812 19.746094 21.171875 "/>
<path style=" stroke:none;fill-rule:evenodd;fill:rgb(96.862745%,80.784315%,51.764709%);fill-opacity:1;" d="M 12.382812 0.546875 C 12.382812 0.5625 12.429688 0.65625 12.484375 0.761719 C 12.609375 1 12.589844 1.003906 12.230469 0.828125 C 11.691406 0.5625 10.773438 0.601562 10.144531 0.910156 C 9.945312 1.007812 9.753906 1.144531 9.851562 1.117188 C 10.191406 1.023438 10.691406 1.007812 10.925781 1.078125 C 11.234375 1.175781 11.207031 1.285156 10.886719 1.222656 C 10.089844 1.074219 7.945312 2.175781 7.546875 2.9375 C 7.449219 3.125 7.480469 3.164062 7.804688 3.265625 C 8.394531 3.445312 8.828125 3.773438 9.113281 4.257812 C 9.273438 4.527344 9.832031 4.792969 10.570312 4.945312 C 10.867188 5.003906 10.917969 5.003906 10.984375 4.941406 L 11.035156 4.890625 L 11.644531 4.957031 C 13.367188 5.136719 14.164062 5.453125 14.5 6.085938 C 14.566406 6.214844 14.546875 6.222656 14.746094 5.992188 C 14.941406 5.769531 14.941406 5.78125 14.675781 5.507812 C 14.0625 4.882812 13.433594 4.714844 11.507812 4.679688 C 10.335938 4.660156 10.183594 4.644531 9.742188 4.519531 C 9.371094 4.414062 9.027344 4.210938 9.121094 4.152344 C 9.507812 3.902344 11.265625 3.964844 12.300781 4.269531 C 12.90625 4.445312 13.117188 4.453125 13.847656 4.308594 C 14.09375 4.261719 14.378906 4.214844 14.480469 4.207031 L 14.671875 4.191406 L 14.765625 3.980469 L 14.851562 4.066406 C 15.011719 4.21875 14.992188 4.15625 14.832031 3.992188 C 13.558594 2.695312 10.996094 1.976562 9.746094 2.566406 C 9.546875 2.660156 9.542969 2.660156 9.621094 2.59375 C 10.367188 1.949219 12.449219 2.058594 13.96875 2.820312 L 14.183594 2.929688 L 14.183594 2.824219 C 14.183594 2.703125 14.234375 2.640625 14.332031 2.640625 C 14.402344 2.640625 14.414062 2.660156 14.4375 2.824219 C 14.476562 3.101562 14.617188 3.25 14.617188 3.015625 C 14.617188 2.675781 14.757812 2.710938 14.84375 3.078125 C 14.941406 3.484375 15.046875 3.5625 15.09375 3.265625 C 15.140625 2.96875 15.222656 3.035156 15.242188 3.382812 C 15.261719 3.765625 15.335938 3.792969 15.398438 3.445312 C 15.460938 3.121094 15.519531 3.199219 15.5625 3.667969 C 15.597656 4.042969 15.585938 4.007812 15.871094 4.464844 C 16.078125 4.796875 16.089844 4.8125 16.132812 4.792969 C 16.152344 4.785156 16.21875 4.65625 16.285156 4.507812 C 16.4375 4.148438 16.460938 4.117188 16.515625 4.230469 C 16.535156 4.277344 16.523438 4.347656 16.464844 4.5625 C 16.347656 5.011719 16.378906 5.109375 16.585938 4.90625 C 16.703125 4.792969 16.707031 4.789062 16.742188 4.835938 C 16.796875 4.90625 16.769531 5.015625 16.597656 5.417969 C 16.519531 5.605469 16.484375 5.878906 16.542969 5.878906 C 16.683594 5.878906 16.941406 5.421875 17.0625 4.957031 C 17.1875 4.476562 17.222656 3.351562 17.125 2.773438 C 17.082031 2.5 17.078125 2.519531 17.132812 2.519531 C 17.179688 2.519531 17.179688 2.515625 17.121094 2.371094 C 17.058594 2.203125 17.035156 2.183594 16.925781 2.183594 C 16.871094 2.183594 16.820312 2.160156 16.753906 2.101562 L 16.660156 2.015625 L 16.605469 2.152344 C 16.503906 2.417969 16.417969 2.40625 16.414062 2.125 C 16.410156 1.839844 16.335938 1.765625 16.269531 1.976562 C 16.21875 2.136719 16.203125 2.136719 16.066406 1.976562 C 15.917969 1.804688 15.679688 1.613281 15.351562 1.410156 C 15.042969 1.214844 15.0625 1.214844 15.082031 1.390625 C 15.105469 1.582031 15.074219 1.589844 14.9375 1.421875 C 14.703125 1.144531 14.371094 0.894531 14.410156 1.023438 C 14.414062 1.046875 14.445312 1.148438 14.472656 1.246094 C 14.550781 1.507812 14.511719 1.511719 14.355469 1.253906 C 14.132812 0.878906 13.980469 0.804688 13.253906 0.734375 C 12.964844 0.703125 12.84375 0.679688 12.699219 0.625 C 12.464844 0.535156 12.382812 0.515625 12.382812 0.546875 M 18.125 2.269531 C 18.0625 2.3125 17.992188 2.53125 17.9375 2.828125 C 17.886719 3.121094 17.886719 3.121094 17.996094 3.121094 L 18.085938 3.121094 L 18.113281 2.945312 C 18.128906 2.851562 18.167969 2.675781 18.203125 2.558594 C 18.285156 2.28125 18.257812 2.175781 18.125 2.269531 M 9.441406 5.695312 C 9.449219 5.71875 9.457031 5.820312 9.457031 5.921875 L 9.457031 6.101562 L 9.640625 6.285156 C 9.746094 6.386719 9.910156 6.523438 10.007812 6.589844 L 10.1875 6.714844 L 10.398438 6.589844 C 10.652344 6.441406 10.648438 6.464844 10.421875 6.335938 C 10.148438 6.183594 9.773438 5.9375 9.636719 5.824219 C 9.425781 5.648438 9.421875 5.644531 9.441406 5.695312 M 8.675781 8.015625 C 8.640625 8.054688 8.632812 8.109375 8.628906 8.25 C 8.621094 8.5625 8.519531 8.800781 8.183594 9.277344 C 7.996094 9.539062 8.003906 9.527344 8.089844 9.515625 C 8.128906 9.511719 8.175781 9.496094 8.191406 9.484375 C 8.222656 9.460938 8.367188 9.425781 8.390625 9.4375 C 8.398438 9.441406 8.414062 9.425781 8.425781 9.402344 C 8.445312 9.371094 8.480469 9.359375 8.558594 9.359375 C 8.617188 9.359375 8.664062 9.347656 8.664062 9.335938 C 8.664062 9.324219 8.691406 9.3125 8.722656 9.3125 C 8.773438 9.3125 8.789062 9.292969 8.828125 9.148438 C 8.933594 8.792969 8.945312 8.328125 8.851562 8.328125 C 8.839844 8.328125 8.835938 8.316406 8.84375 8.304688 C 8.851562 8.289062 8.847656 8.28125 8.835938 8.28125 C 8.824219 8.28125 8.8125 8.265625 8.8125 8.25 C 8.796875 8.140625 8.789062 8.113281 8.761719 8.078125 C 8.746094 8.058594 8.738281 8.03125 8.746094 8.019531 C 8.773438 7.972656 8.71875 7.96875 8.675781 8.015625 M 8.195312 8.464844 C 8.144531 8.511719 7.960938 8.640625 7.792969 8.753906 C 7.476562 8.964844 7.390625 9.050781 7.195312 9.347656 C 7.105469 9.484375 7.105469 9.492188 7.152344 9.5 C 7.179688 9.503906 7.195312 9.515625 7.1875 9.527344 C 7.179688 9.539062 7.1875 9.554688 7.199219 9.5625 C 7.214844 9.574219 7.222656 9.566406 7.21875 9.550781 C 7.214844 9.535156 7.226562 9.515625 7.246094 9.511719 C 7.261719 9.503906 7.273438 9.507812 7.265625 9.519531 C 7.257812 9.53125 7.269531 9.542969 7.292969 9.542969 C 7.3125 9.542969 7.378906 9.550781 7.441406 9.5625 L 7.550781 9.578125 L 7.605469 9.476562 C 7.695312 9.316406 8.015625 8.820312 8.179688 8.585938 C 8.339844 8.355469 8.34375 8.332031 8.195312 8.464844 M 17.125 10.429688 C 16.828125 10.539062 16.511719 10.554688 15.871094 10.496094 C 15.355469 10.449219 15.386719 10.433594 15.367188 10.730469 L 15.351562 10.960938 L 15.566406 10.988281 C 16.066406 11.050781 16.558594 11 16.953125 10.839844 L 17.144531 10.761719 L 17.199219 10.597656 C 17.277344 10.363281 17.28125 10.371094 17.125 10.429688 M 21.113281 13.082031 C 20.964844 13.195312 21.101562 13.417969 21.265625 13.332031 C 21.351562 13.285156 21.375 13.097656 21.292969 13.074219 C 21.269531 13.066406 21.234375 13.054688 21.214844 13.046875 C 21.191406 13.035156 21.148438 13.050781 21.113281 13.082031 M 20.6875 13.25 C 20.496094 13.59375 20.871094 13.976562 21.503906 14.089844 C 21.65625 14.117188 21.824219 14.160156 21.875 14.183594 L 21.972656 14.226562 L 21.980469 14.007812 L 21.984375 13.792969 L 21.914062 13.886719 C 21.785156 14.066406 21.746094 14.078125 21.507812 14.003906 C 21 13.847656 20.871094 13.734375 20.863281 13.449219 C 20.863281 13.324219 20.847656 13.257812 20.816406 13.214844 C 20.757812 13.132812 20.753906 13.136719 20.6875 13.25 M 23.0625 18.863281 C 22.953125 18.949219 22.746094 18.984375 22.324219 18.984375 C 21.765625 18.984375 21.492188 19.070312 21.125 19.367188 C 20.945312 19.515625 20.945312 19.503906 21.109375 19.648438 C 21.476562 19.980469 22.261719 20.144531 22.691406 19.984375 L 22.789062 19.949219 L 22.78125 20.039062 C 22.769531 20.15625 22.832031 20.214844 22.960938 20.203125 C 23.070312 20.195312 23.136719 20.09375 23.183594 19.863281 C 23.207031 19.761719 23.242188 19.6875 23.296875 19.621094 C 23.433594 19.460938 23.421875 19.328125 23.238281 18.976562 C 23.144531 18.796875 23.148438 18.800781 23.0625 18.863281 "/>
<path style=" stroke:none;fill-rule:evenodd;fill:rgb(87.058824%,54.901963%,51.372552%);fill-opacity:1;" d="M 11.140625 2.175781 C 11.203125 2.183594 11.308594 2.183594 11.371094 2.175781 C 11.433594 2.171875 11.382812 2.167969 11.257812 2.167969 C 11.128906 2.167969 11.078125 2.171875 11.140625 2.175781 M 17.089844 2.539062 C 17.089844 2.546875 17.105469 2.652344 17.125 2.773438 C 17.183594 3.117188 17.199219 4.050781 17.152344 4.441406 C 17.101562 4.871094 17.046875 5.070312 16.855469 5.542969 C 16.84375 5.570312 16.855469 5.566406 16.890625 5.535156 C 16.953125 5.480469 16.984375 5.523438 16.960938 5.640625 L 16.945312 5.710938 L 17.078125 5.710938 C 17.183594 5.710938 17.207031 5.703125 17.210938 5.671875 C 17.210938 5.648438 17.222656 5.195312 17.234375 4.667969 C 17.253906 3.707031 17.269531 3.535156 17.363281 3.160156 L 17.40625 2.996094 L 17.320312 2.824219 C 17.273438 2.730469 17.226562 2.621094 17.210938 2.585938 C 17.1875 2.527344 17.085938 2.488281 17.089844 2.539062 M 14.621094 2.996094 C 14.617188 3.128906 14.609375 3.167969 14.585938 3.152344 C 14.5625 3.140625 14.5625 3.144531 14.585938 3.167969 C 14.632812 3.21875 14.644531 3.183594 14.632812 2.996094 L 14.625 2.820312 L 14.621094 2.996094 M 17.882812 3.425781 C 17.882812 3.703125 17.90625 3.945312 17.929688 3.96875 C 17.9375 3.972656 17.972656 3.984375 18.007812 3.992188 L 18.078125 4.011719 L 18.0625 3.773438 C 18.054688 3.644531 18.058594 3.445312 18.066406 3.328125 L 18.085938 3.121094 L 17.878906 3.121094 L 17.882812 3.425781 M 12.421875 4.695312 C 13.578125 4.789062 14.1875 5.007812 14.675781 5.507812 C 14.941406 5.78125 14.941406 5.769531 14.746094 5.992188 C 14.546875 6.222656 14.566406 6.214844 14.5 6.085938 C 14.164062 5.453125 13.367188 5.136719 11.644531 4.957031 L 11.035156 4.890625 L 10.984375 4.941406 C 10.953125 4.96875 10.902344 4.992188 10.871094 4.996094 C 10.757812 5 10.996094 5.039062 11.757812 5.148438 C 13.234375 5.363281 13.492188 5.445312 13.859375 5.816406 L 14.050781 6.011719 L 13.800781 6.023438 L 13.546875 6.039062 L 13.804688 6.042969 C 13.945312 6.046875 14.066406 6.058594 14.074219 6.070312 C 14.085938 6.089844 13.902344 6.089844 12.902344 6.0625 L 12.546875 6.050781 L 12.738281 6.179688 C 13.863281 6.949219 14.003906 8.25 13.125 9.707031 L 12.996094 9.925781 L 13.140625 9.910156 C 13.445312 9.886719 14.277344 9.226562 14.722656 8.652344 C 15.296875 7.917969 15.667969 7.046875 15.714844 6.34375 L 15.726562 6.121094 L 15.605469 6.121094 C 15.453125 6.121094 15.417969 6.078125 15.558594 6.066406 L 15.660156 6.054688 L 15.5625 6.050781 C 15.460938 6.046875 15.460938 6.046875 15.347656 5.847656 C 14.921875 5.082031 14.3125 4.773438 13.089844 4.703125 C 12.730469 4.683594 12.175781 4.675781 12.421875 4.695312 M 9.347656 4.878906 C 9.359375 4.917969 9.382812 5.113281 9.40625 5.308594 L 9.445312 5.664062 L 9.578125 5.773438 C 9.730469 5.902344 10.15625 6.1875 10.421875 6.335938 C 10.648438 6.464844 10.652344 6.441406 10.398438 6.589844 L 10.1875 6.714844 L 10.007812 6.589844 C 9.910156 6.523438 9.746094 6.386719 9.640625 6.285156 L 9.457031 6.101562 L 9.453125 5.902344 C 9.449219 5.75 9.445312 5.789062 9.429688 6.058594 L 9.414062 6.421875 L 9.535156 6.535156 C 9.601562 6.601562 9.875 6.808594 10.136719 6.996094 C 10.96875 7.585938 11.304688 7.90625 11.554688 8.335938 L 11.621094 8.449219 L 11.703125 8.398438 C 11.773438 8.355469 11.792969 8.351562 11.808594 8.378906 C 11.847656 8.441406 11.925781 8.816406 11.941406 9.023438 C 11.96875 9.347656 11.925781 9.347656 12.453125 9.039062 L 12.917969 8.773438 L 12.902344 8.601562 C 12.84375 7.867188 12.367188 7.386719 10.902344 6.578125 C 10.636719 6.433594 10.359375 6.277344 10.289062 6.234375 L 10.160156 6.15625 L 10.660156 5.867188 C 10.933594 5.710938 11.15625 5.578125 11.152344 5.574219 C 11.148438 5.570312 10.976562 5.519531 10.773438 5.460938 C 10.179688 5.289062 9.761719 5.105469 9.480469 4.894531 C 9.324219 4.78125 9.328125 4.78125 9.347656 4.878906 M 12.691406 6.019531 C 12.824219 6.023438 13.046875 6.023438 13.183594 6.019531 C 13.316406 6.011719 13.207031 6.011719 12.9375 6.011719 C 12.664062 6.011719 12.554688 6.011719 12.691406 6.019531 M 17.695312 6.113281 C 17.730469 6.117188 17.789062 6.117188 17.824219 6.113281 C 17.863281 6.109375 17.832031 6.101562 17.761719 6.101562 C 17.6875 6.101562 17.65625 6.109375 17.695312 6.113281 M 18.164062 6.136719 C 18.234375 6.140625 18.339844 6.140625 18.402344 6.136719 C 18.464844 6.132812 18.40625 6.128906 18.277344 6.128906 C 18.144531 6.128906 18.09375 6.132812 18.164062 6.136719 M 8.175781 6.167969 C 8.167969 6.1875 8.128906 6.300781 8.085938 6.421875 C 7.890625 6.980469 7.804688 7.097656 7.125 7.753906 C 6.324219 8.527344 5.496094 9.527344 5.496094 9.722656 C 5.496094 9.808594 5.707031 9.738281 5.832031 9.609375 C 6.035156 9.402344 6.40625 9.089844 6.875 8.722656 C 7.859375 7.964844 8.183594 7.597656 8.363281 7.046875 L 8.433594 6.835938 L 8.394531 6.660156 C 8.347656 6.457031 8.199219 6.113281 8.175781 6.167969 M 17.34375 6.335938 C 16.835938 6.722656 16.621094 6.90625 16.492188 7.054688 L 16.355469 7.210938 L 16.480469 7.101562 C 16.636719 6.957031 16.707031 6.921875 17.285156 6.707031 C 17.789062 6.519531 18.425781 6.226562 18.398438 6.195312 C 18.386719 6.1875 18.199219 6.175781 17.980469 6.167969 L 17.578125 6.15625 L 17.34375 6.335938 M 9.25 7.027344 C 9.226562 7.089844 9.171875 7.210938 9.128906 7.296875 L 9.050781 7.457031 L 9.136719 7.679688 C 9.359375 8.28125 9.429688 9.019531 9.296875 9.460938 C 9.285156 9.496094 9.300781 9.503906 9.398438 9.503906 C 9.621094 9.503906 9.632812 9.511719 9.613281 9.6875 L 9.597656 9.839844 L 10.277344 9.839844 L 10.257812 9.917969 C 10.25 9.960938 10.207031 10.089844 10.167969 10.203125 L 10.089844 10.40625 L 10.277344 10.300781 C 10.488281 10.179688 10.550781 10.105469 10.660156 9.828125 C 10.832031 9.390625 10.671875 8.96875 9.945312 7.980469 C 9.617188 7.535156 9.523438 7.390625 9.394531 7.125 L 9.292969 6.914062 L 9.25 7.027344 M 8.96875 7.601562 C 8.859375 7.773438 8.519531 8.179688 8.410156 8.269531 C 8.351562 8.320312 8.308594 8.363281 8.3125 8.371094 C 8.320312 8.375 8.257812 8.472656 8.179688 8.589844 C 7.875 9.019531 7.628906 9.425781 7.527344 9.65625 L 7.464844 9.792969 L 7.640625 9.789062 L 7.8125 9.789062 L 8.0625 9.4375 C 8.519531 8.804688 8.621094 8.589844 8.628906 8.25 C 8.632812 8.109375 8.640625 8.054688 8.675781 8.015625 C 8.71875 7.96875 8.773438 7.972656 8.746094 8.019531 C 8.738281 8.03125 8.746094 8.058594 8.761719 8.078125 C 8.789062 8.113281 8.796875 8.140625 8.8125 8.25 C 8.8125 8.265625 8.824219 8.28125 8.835938 8.28125 C 8.847656 8.28125 8.851562 8.289062 8.84375 8.304688 C 8.835938 8.316406 8.839844 8.328125 8.851562 8.328125 C 8.972656 8.328125 8.925781 8.84375 8.75 9.417969 C 8.6875 9.613281 8.640625 9.785156 8.640625 9.796875 C 8.640625 9.808594 8.714844 9.816406 8.804688 9.816406 L 8.972656 9.816406 L 9.050781 9.617188 C 9.261719 9.066406 9.273438 8.335938 9.078125 7.65625 L 9.03125 7.5 L 8.96875 7.601562 M 5.84375 7.980469 C 5.660156 8.050781 5.46875 8.125 5.417969 8.144531 C 5.320312 8.1875 5.148438 8.402344 4.953125 8.722656 L 4.839844 8.910156 L 4.707031 8.894531 C 4.632812 8.886719 4.523438 8.875 4.464844 8.867188 L 4.355469 8.855469 L 4.242188 9.007812 C 3.957031 9.390625 3.625 10.191406 3.625 10.5 C 3.625 10.53125 4.066406 10.605469 4.09375 10.578125 C 4.101562 10.570312 4.140625 10.46875 4.179688 10.351562 C 4.261719 10.113281 4.445312 9.710938 4.484375 9.6875 C 4.523438 9.664062 4.519531 9.675781 4.460938 9.820312 C 4.421875 9.925781 4.296875 10.40625 4.296875 10.46875 C 4.296875 10.476562 4.40625 10.496094 4.542969 10.511719 C 4.675781 10.527344 4.808594 10.550781 4.835938 10.558594 C 4.878906 10.574219 4.894531 10.539062 5.003906 10.203125 C 5.253906 9.449219 5.667969 8.613281 6.089844 8.019531 C 6.226562 7.828125 6.238281 7.828125 5.84375 7.980469 M 3.808594 8.257812 C 3.605469 8.535156 3.386719 9.210938 3.265625 9.949219 C 3.238281 10.121094 3.210938 10.28125 3.203125 10.308594 C 3.195312 10.347656 3.207031 10.355469 3.269531 10.355469 C 3.3125 10.359375 3.402344 10.363281 3.46875 10.367188 L 3.589844 10.378906 L 3.59375 10.285156 C 3.625 9.863281 3.742188 9.265625 3.878906 8.828125 C 4.003906 8.433594 3.960938 8.058594 3.808594 8.257812 M 18.519531 8.820312 C 18.132812 9.433594 17.648438 9.628906 16.429688 9.671875 C 15.601562 9.703125 15.160156 9.734375 14.898438 9.78125 C 14.625 9.832031 14.640625 9.824219 14.433594 10 C 14.0625 10.308594 13.667969 10.566406 13.144531 10.835938 C 12.960938 10.933594 12.824219 11.015625 12.84375 11.019531 C 12.859375 11.027344 12.832031 11.046875 12.78125 11.0625 C 12.726562 11.078125 12.671875 11.101562 12.660156 11.113281 C 12.648438 11.125 12.617188 11.136719 12.59375 11.136719 C 12.539062 11.136719 12.539062 11.140625 12.667969 11.371094 L 12.78125 11.574219 L 13.273438 11.753906 C 14.234375 12.101562 14.546875 12.175781 15.046875 12.175781 C 15.410156 12.175781 15.386719 12.199219 14.972656 12.242188 C 14.625 12.28125 14.253906 12.246094 13.5625 12.109375 C 13.265625 12.050781 13.019531 12.003906 13.019531 12.007812 C 13.015625 12.007812 13.085938 12.148438 13.175781 12.3125 C 13.261719 12.476562 13.328125 12.617188 13.3125 12.621094 C 13.300781 12.625 13.1875 12.617188 13.0625 12.601562 C 12.792969 12.566406 12.800781 12.558594 12.886719 12.710938 L 12.957031 12.835938 L 13.167969 12.851562 C 13.285156 12.859375 13.402344 12.875 13.433594 12.886719 C 13.46875 12.902344 13.488281 12.898438 13.496094 12.875 C 13.507812 12.847656 13.589844 12.839844 13.960938 12.839844 C 14.972656 12.839844 15.214844 12.78125 15.851562 12.386719 C 17.082031 11.628906 18.050781 10.394531 18.515625 9.011719 C 18.613281 8.714844 18.617188 8.667969 18.519531 8.820312 M 12.894531 8.953125 C 12.894531 9 12.898438 9.015625 12.90625 8.992188 C 12.910156 8.972656 12.910156 8.933594 12.90625 8.910156 C 12.898438 8.886719 12.894531 8.90625 12.894531 8.953125 M 7.414062 8.988281 C 7.371094 9.023438 7.203125 9.117188 7.042969 9.195312 C 6.71875 9.363281 6.515625 9.496094 6.359375 9.65625 L 6.253906 9.769531 L 6.324219 9.769531 C 6.378906 9.769531 6.425781 9.734375 6.527344 9.632812 C 6.777344 9.378906 6.980469 9.230469 6.828125 9.414062 C 6.761719 9.492188 6.648438 9.699219 6.648438 9.742188 C 6.648438 9.757812 6.703125 9.769531 6.777344 9.769531 L 6.90625 9.769531 L 7.085938 9.496094 C 7.1875 9.347656 7.324219 9.160156 7.390625 9.078125 C 7.457031 8.996094 7.507812 8.929688 7.507812 8.929688 C 7.503906 8.929688 7.460938 8.957031 7.414062 8.988281 M 2.636719 10.132812 C 2.527344 10.257812 2.464844 10.332031 2.496094 10.304688 C 2.546875 10.261719 2.578125 10.253906 2.679688 10.265625 L 2.804688 10.277344 L 2.820312 10.136719 C 2.828125 10.058594 2.839844 9.976562 2.847656 9.953125 C 2.867188 9.882812 2.84375 9.902344 2.636719 10.132812 M 17.257812 10.410156 C 17.257812 10.683594 17.097656 10.820312 16.660156 10.933594 C 16.515625 10.972656 16.421875 11.007812 16.386719 11.046875 C 16.230469 11.203125 16.179688 11.230469 16.019531 11.230469 L 15.867188 11.230469 L 15.824219 11.125 C 15.777344 11.011719 15.777344 11.011719 15.496094 10.976562 L 15.351562 10.960938 L 15.367188 10.730469 C 15.386719 10.433594 15.355469 10.449219 15.871094 10.496094 C 16.511719 10.554688 16.828125 10.539062 17.125 10.429688 C 17.234375 10.390625 17.257812 10.386719 17.257812 10.410156 M 9.636719 11.023438 L 9.539062 11.125 L 9.640625 11.027344 C 9.738281 10.941406 9.753906 10.921875 9.738281 10.921875 C 9.734375 10.921875 9.6875 10.964844 9.636719 11.023438 M 0.6875 12.574219 C 0.710938 13.089844 0.824219 13.980469 0.878906 14.066406 C 0.894531 14.089844 1.0625 14.09375 1.171875 14.074219 L 1.242188 14.058594 L 1.125 13.792969 C 0.914062 13.324219 0.773438 12.863281 0.6875 12.382812 C 0.679688 12.351562 0.679688 12.4375 0.6875 12.574219 M 13.511719 12.929688 C 13.511719 13.070312 13.78125 13.265625 13.839844 13.167969 C 13.847656 13.15625 13.875 13.152344 13.898438 13.160156 C 13.921875 13.167969 13.949219 13.164062 13.957031 13.152344 C 13.964844 13.140625 14 13.132812 14.039062 13.132812 C 14.121094 13.136719 14.160156 13.113281 14.109375 13.09375 C 14.03125 13.0625 13.511719 12.921875 13.511719 12.929688 M 21.335938 13.238281 C 21.335938 13.332031 21.207031 13.386719 21.121094 13.324219 L 21.058594 13.277344 L 21.070312 13.382812 C 21.082031 13.488281 21.085938 13.488281 21.34375 13.644531 L 21.605469 13.800781 L 21.683594 13.753906 C 21.757812 13.707031 21.839844 13.578125 21.839844 13.507812 C 21.839844 13.441406 21.335938 13.171875 21.335938 13.238281 M 0.742188 17.339844 C 0.742188 17.351562 0.914062 17.960938 0.917969 17.96875 C 0.921875 17.972656 1.109375 18.011719 1.332031 18.058594 C 1.558594 18.105469 1.761719 18.152344 1.785156 18.160156 C 1.828125 18.171875 1.828125 18.167969 1.78125 18.089844 C 1.699219 17.960938 1.71875 17.953125 1.832031 18.074219 L 1.933594 18.1875 L 2.425781 18.292969 C 2.695312 18.351562 2.917969 18.398438 2.921875 18.394531 C 2.953125 18.375 2.804688 18.074219 2.683594 17.914062 L 2.535156 17.71875 L 1.640625 17.527344 C 1.148438 17.421875 0.742188 17.339844 0.742188 17.339844 M 3.433594 18.277344 C 3.433594 18.445312 3.632812 18.886719 3.707031 18.886719 C 3.726562 18.886719 3.746094 18.941406 3.753906 19.011719 C 3.773438 19.148438 3.847656 19.292969 4.074219 19.613281 C 4.242188 19.855469 4.242188 19.855469 4.207031 19.601562 C 4.191406 19.480469 4.179688 19.214844 4.175781 19.015625 C 4.175781 18.65625 4.175781 18.648438 4.121094 18.636719 C 4.09375 18.628906 4.003906 18.609375 3.925781 18.59375 L 3.78125 18.5625 L 3.765625 18.265625 L 3.675781 18.242188 C 3.429688 18.179688 3.433594 18.179688 3.433594 18.277344 M 5.128906 18.726562 C 5.035156 18.957031 4.988281 19.152344 5.023438 19.164062 C 5.039062 19.167969 5.125 19.1875 5.210938 19.207031 L 5.367188 19.242188 L 5.453125 19.070312 C 5.5 18.976562 5.578125 18.851562 5.625 18.792969 C 5.671875 18.734375 5.707031 18.683594 5.703125 18.679688 C 5.695312 18.671875 5.257812 18.574219 5.222656 18.574219 C 5.203125 18.574219 5.164062 18.640625 5.128906 18.726562 M 22.875 18.695312 C 22.632812 18.917969 22.410156 18.960938 22.144531 18.847656 C 21.925781 18.753906 21.480469 18.734375 21.394531 18.816406 C 21.3125 18.894531 21.320312 18.90625 21.480469 18.976562 L 21.625 19.039062 L 21.457031 19.128906 C 21.289062 19.21875 21.054688 19.382812 20.996094 19.457031 C 20.976562 19.480469 21.035156 19.441406 21.121094 19.371094 C 21.496094 19.070312 21.695312 19.007812 22.332031 18.984375 C 23.042969 18.960938 23.207031 18.894531 23.0625 18.699219 C 23.023438 18.644531 22.988281 18.601562 22.984375 18.601562 C 22.984375 18.601562 22.933594 18.644531 22.875 18.695312 "/>
</g>
</svg>
