<svg version="1.1" id="Layer_1" xmlns="http://www.w3.org/2000/svg" xmlns:xlink="http://www.w3.org/1999/xlink" x="0px" y="0px"
	 width="100%" viewBox="0 0 1024 896" enable-background="new 0 0 1024 896" xml:space="preserve">
<path fill="#000000" opacity="1.000000" stroke="none" 
	d="
M814.777222,533.766968 
	C735.522888,612.829102 656.843262,691.972351 577.682922,770.832275 
	C575.131531,768.038940 575.700439,765.945190 575.698486,764.040588 
	C575.658325,724.213562 575.701660,684.386536 575.602783,644.559753 
	C575.594238,641.100037 576.710754,638.643005 579.131165,636.232910 
	C625.885620,589.677246 672.585388,543.066650 719.267090,496.437927 
	C733.176208,482.544556 747.006714,468.572357 760.850525,454.613770 
	C766.082764,449.338013 766.122314,448.675446 760.827881,443.368408 
	C724.707031,407.161469 688.539917,371.000702 652.417603,334.795258 
	C627.948914,310.270172 603.549988,285.675446 579.052002,261.179688 
	C576.789551,258.917450 575.619751,256.645508 575.627869,253.330841 
	C575.726074,213.337463 575.684265,173.343750 575.700500,133.350128 
	C575.701111,131.717941 575.387878,130.005646 576.442017,128.456390 
	C578.676880,127.551903 579.773804,129.330734 580.997803,130.556473 
	C617.378479,166.988525 653.708984,203.470734 690.110657,239.881729 
	C719.798645,269.577301 749.587097,299.172394 779.296021,328.847015 
	C817.725403,367.231995 856.122070,405.649719 894.527039,444.059143 
	C899.317505,448.850189 899.327942,449.155304 894.510925,453.960724 
	C869.267700,479.142639 844.006958,504.307129 818.763306,529.488647 
	C817.467102,530.781616 816.271057,532.174988 814.777222,533.766968 
z"/>
<path fill="#000000" opacity="1.000000" stroke="none" 
	d="
M360.750336,630.753174 
	C384.050873,607.471313 407.079712,584.418701 430.130188,561.387756 
	C450.476532,541.058594 470.867004,520.773560 491.200317,500.431458 
	C506.472778,485.152344 521.720947,469.848541 536.903564,454.480255 
	C541.505493,449.822021 541.543030,448.271057 537.044495,443.718048 
	C514.260559,420.658325 491.427216,397.647156 468.557404,374.672546 
	C445.691681,351.702026 422.772125,328.785004 399.857422,305.863251 
	C385.403381,291.404785 370.993988,276.900055 356.386292,262.598114 
	C352.733276,259.021515 350.775757,255.439636 350.806763,250.053268 
	C351.028320,211.560318 350.911011,173.065399 350.901703,134.571106 
	C350.901581,134.071182 350.871582,133.568756 350.910431,133.071793 
	C351.048920,131.299957 350.471069,129.039658 352.567322,128.226807 
	C354.676117,127.409088 355.858215,129.515533 357.070648,130.719467 
	C371.007324,144.558472 384.871246,158.470718 398.756897,172.361115 
	C420.516113,194.127731 442.295258,215.874420 464.033081,237.662369 
	C496.702087,270.406738 529.303650,303.218445 562.006714,335.928680 
	C592.596863,366.525635 623.284485,397.025269 653.923279,427.573608 
	C659.812012,433.444977 665.597290,439.422791 671.581665,445.194489 
	C674.378418,447.891815 674.249512,450.126190 671.597473,452.763580 
	C646.247253,477.973175 620.900635,503.186615 595.621155,528.467102 
	C574.585876,549.503235 553.678589,570.667297 532.647766,591.707886 
	C510.910797,613.454895 489.049927,635.078003 467.323181,656.835205 
	C446.534241,677.653381 425.863495,698.589539 405.111664,719.444763 
	C389.275238,735.360168 373.411926,751.249023 357.497467,767.086182 
	C356.166290,768.410828 354.855530,770.709900 352.594055,769.865723 
	C349.975586,768.888306 350.849762,766.170837 350.846924,764.140015 
	C350.791443,724.479248 350.823181,684.818298 350.735626,645.157654 
	C350.728882,642.097717 351.443237,639.711792 353.772400,637.659363 
	C356.134949,635.577515 358.259338,633.225464 360.750336,630.753174 
z"/>
<path fill="#000000" opacity="1.000000" stroke="none" 
	d="
M445.093262,442.916138 
	C451.037323,448.673950 451.181274,448.817352 445.294281,454.726776 
	C420.851929,479.262299 396.278870,503.667603 371.824341,528.191040 
	C352.183746,547.887024 332.702972,567.742493 313.045380,587.421387 
	C290.110565,610.380920 267.015869,633.180786 244.073990,656.133301 
	C223.090118,677.126892 202.239441,698.253601 181.288681,719.280457 
	C165.494202,735.132385 149.675003,750.960449 133.731003,766.661255 
	C132.366547,768.004822 131.074402,770.917725 128.579407,769.736572 
	C126.363617,768.687683 126.970871,765.926697 126.967339,763.817200 
	C126.923233,737.484924 126.922569,711.152649 126.910202,684.820312 
	C126.903938,671.487488 126.935913,658.154419 126.857964,644.822021 
	C126.841484,642.003235 127.550934,639.831299 129.661148,637.731445 
	C151.310120,616.188171 172.827072,594.512268 194.423721,572.916321 
	C212.619324,554.721252 230.896637,536.607788 249.092163,518.412659 
	C270.683868,496.821472 292.183807,475.138306 313.836273,453.608398 
	C317.148926,450.314484 317.393158,447.951233 313.931183,444.507111 
	C293.465210,424.146790 273.173645,403.611145 252.825867,383.132050 
	C238.210800,368.422638 223.641113,353.667877 208.976273,339.008301 
	C190.671829,320.710449 172.279129,302.500885 153.947556,284.230072 
	C145.955460,276.264435 138.088272,268.172119 130.016113,260.289093 
	C127.778603,258.103973 126.952034,255.703979 126.954628,252.728180 
	C126.989334,212.896530 126.991875,173.064880 127.018326,133.233215 
	C127.019531,131.417191 126.738754,129.183533 128.570114,128.254395 
	C130.742996,127.151985 131.785812,129.508392 132.976471,130.693863 
	C155.676971,153.295242 178.321915,175.952408 200.983063,198.593323 
	C221.162781,218.755005 241.365631,238.893570 261.526398,259.074188 
	C282.758392,280.327148 303.935730,301.634705 325.168030,322.887421 
	C346.514893,344.254791 367.908936,365.575043 389.265533,386.932739 
	C406.525024,404.193237 423.759430,421.478790 441.005432,438.752777 
	C442.295349,440.044769 443.589325,441.332733 445.093262,442.916138 
z"/>
</svg>