<svg width="20" height="20" viewBox="0 0 20 20" fill="none" xmlns="http://www.w3.org/2000/svg">
<path fill-rule="evenodd" clip-rule="evenodd" d="M9.65908 18.0001C13.8891 18.0001 17.3182 14.4184 17.3182 10.0001C17.3182 9.16598 17.196 8.36171 16.9692 7.60571L17.1638 7.50445L17.9006 7.79563L18.0001 7.4897L17.3403 7.23235L17.5784 6.50186L17.3012 6.39196L17.037 7.20892L16.8699 7.29689C15.8087 4.20876 12.9808 2 9.65908 2C5.42909 2 2 5.58175 2 10.0001C2 11.3776 2.33332 12.6738 2.92032 13.8055L2.91731 13.7966L5.3445 11.9045C5.66166 11.6563 6.0709 11.5339 6.49376 11.5957C6.91723 11.6588 7.27553 11.8934 7.51245 12.2218L8.67444 13.8327C8.95606 14.2232 9.38131 14.502 9.88502 14.575C10.8907 14.7223 11.8241 13.9948 11.9698 12.9505C12.0562 12.3381 11.8525 11.7541 11.4675 11.3453C11.1453 11.0699 10.7489 10.9172 10.5768 10.8522C10.3906 10.7819 10.076 10.7007 9.96413 10.673L9.93043 10.6649C8.89315 10.4167 7.70581 10.1326 7.09208 9.39943C6.4717 8.65835 6.35873 7.93294 6.47897 7.07522C6.71707 5.3734 8.23797 4.18812 9.87674 4.42782C10.6952 4.5472 11.3882 5.00127 11.8478 5.63785L12.8155 6.97935L13.1555 7.45106C13.4528 7.83089 13.8588 7.89715 14.2902 7.74429L14.6645 7.5788C14.7013 7.56302 14.732 7.53332 14.7474 7.49125C14.7605 7.45724 14.7605 7.42011 14.751 7.38702L14.7036 7.22773C14.6906 7.18256 14.6917 7.13277 14.7095 7.08513C14.7391 7.00348 14.8078 6.94995 14.8848 6.93852L16.2091 6.81138C16.4342 6.78015 16.4993 6.91594 16.4993 6.91594L16.6976 7.38759L16.6461 7.41466L16.7255 7.62927C16.7078 7.67416 16.6748 7.72579 16.6154 7.77891C16.6154 7.77891 15.976 8.41807 15.6607 8.73193C15.6144 8.77809 15.5152 8.79038 15.444 8.77249C15.3728 8.75459 15.3328 8.68908 15.295 8.61801C15.2571 8.54693 15.224 8.48616 15.1566 8.46375C15.0997 8.44485 15.0612 8.46586 15.0299 8.48292C15.0241 8.48608 15.0185 8.48911 15.0132 8.49172L14.5993 8.69602C13.7488 9.1377 12.9671 8.85933 12.2717 7.92398L11.0553 6.25462C10.7485 5.82748 10.2832 5.52404 9.73452 5.44299C8.63587 5.28276 7.67382 6.09239 7.43476 7.21758C7.28243 7.93453 7.6725 8.76147 8.16867 9.04191C8.60339 9.28761 9.14766 9.44672 10.0419 9.65245C10.9362 9.85819 11.9787 10.2964 12.5063 11.0501C12.8818 11.6316 13.0571 12.3549 12.9529 13.104C12.7278 14.7137 11.2898 15.8346 9.74047 15.6082C9.004 15.5001 8.375 15.1071 7.94207 14.5523L6.71285 12.8268C6.62519 12.7051 6.49164 12.619 6.33469 12.5955C6.18722 12.5744 6.04507 12.6116 5.93047 12.6932L3.42807 14.653L3.42776 14.6527C4.81725 16.6795 7.09051 18.0001 9.65908 18.0001Z" fill="#1068BF"/>
</svg>
