<svg width="20" height="20" viewBox="0 0 20 20" fill="none" xmlns="http://www.w3.org/2000/svg">
<path d="M7.55632 3.09074H11.896L7.39098 16.4386C7.34468 16.5757 7.25653 16.6949 7.13894 16.7794C7.02135 16.8638 6.88025 16.9092 6.73548 16.9092H3.35815C3.24847 16.9093 3.14036 16.8832 3.04277 16.8331C2.94518 16.783 2.86091 16.7105 2.79693 16.6214C2.73295 16.5323 2.69111 16.4292 2.67486 16.3208C2.65861 16.2123 2.66842 16.1015 2.70348 15.9976L6.90065 3.56141C6.94693 3.42419 7.0351 3.30495 7.15272 3.22049C7.27035 3.13602 7.41151 3.09075 7.55632 3.09074Z" fill="url(#paint0_linear_3433_196)"/>
<path d="M13.8624 12.0435H6.98072C6.91674 12.0434 6.85422 12.0626 6.80131 12.0986C6.7484 12.1345 6.70755 12.1856 6.68407 12.2451C6.6606 12.3046 6.6556 12.3698 6.66971 12.4322C6.68383 12.4946 6.71641 12.5513 6.76322 12.595L11.1852 16.7223C11.314 16.8424 11.4835 16.9092 11.6596 16.9091H15.5562L13.8624 12.0435Z" fill="#0078D4"/>
<path d="M7.55641 3.09058C7.41002 3.09002 7.26728 3.13628 7.14905 3.22261C7.03082 3.30893 6.94329 3.4308 6.89924 3.57041L2.70874 15.9861C2.67132 16.0904 2.65958 16.2022 2.67449 16.312C2.68941 16.4218 2.73056 16.5264 2.79445 16.6169C2.85834 16.7075 2.9431 16.7813 3.04155 16.8321C3.14001 16.883 3.24926 16.9094 3.36008 16.9091H6.82458C6.95361 16.886 7.07421 16.8291 7.17406 16.7442C7.27391 16.6593 7.34943 16.5494 7.39291 16.4257L8.22858 13.9629L11.2136 16.7471C11.3387 16.8505 11.4956 16.9078 11.6579 16.9091H15.5401L13.8374 12.0434L8.87391 12.0446L11.9117 3.09058H7.55641Z" fill="url(#paint1_linear_3433_196)"/>
<path d="M13.0991 3.56058C13.0529 3.42358 12.9648 3.30454 12.8474 3.22022C12.7299 3.1359 12.589 3.09056 12.4444 3.09058H7.60791C7.75248 3.09058 7.89341 3.13594 8.01086 3.22025C8.1283 3.30457 8.21634 3.4236 8.26258 3.56058L12.4599 15.9972C12.495 16.1012 12.5048 16.212 12.4886 16.3205C12.4724 16.429 12.4305 16.5321 12.3665 16.6212C12.3026 16.7103 12.2183 16.7829 12.1207 16.833C12.0231 16.8831 11.915 16.9092 11.8052 16.9092H16.6419C16.7516 16.9092 16.8597 16.8831 16.9573 16.833C17.0549 16.7829 17.1391 16.7102 17.2031 16.6211C17.2671 16.532 17.3089 16.4289 17.3251 16.3205C17.3413 16.212 17.3315 16.1012 17.2964 15.9972L13.0991 3.56058Z" fill="url(#paint2_linear_3433_196)"/>
<defs>
<linearGradient id="paint0_linear_3433_196" x1="9.13798" y1="4.11474" x2="4.63115" y2="17.4291" gradientUnits="userSpaceOnUse">
<stop stop-color="#114A8B"/>
<stop offset="1" stop-color="#0669BC"/>
</linearGradient>
<linearGradient id="paint1_linear_3433_196" x1="10.5459" y1="10.3194" x2="9.50341" y2="10.6719" gradientUnits="userSpaceOnUse">
<stop stop-opacity="0.3"/>
<stop offset="0.071" stop-opacity="0.2"/>
<stop offset="0.321" stop-opacity="0.1"/>
<stop offset="0.623" stop-opacity="0.05"/>
<stop offset="1" stop-opacity="0"/>
</linearGradient>
<linearGradient id="paint2_linear_3433_196" x1="9.97241" y1="3.72624" x2="14.9196" y2="16.9064" gradientUnits="userSpaceOnUse">
<stop stop-color="#3CCBF4"/>
<stop offset="1" stop-color="#2892DF"/>
</linearGradient>
</defs>
</svg>
