<?xml version="1.0" encoding="UTF-8"?>
<svg xmlns="http://www.w3.org/2000/svg" xmlns:xlink="http://www.w3.org/1999/xlink" width="24px" height="24px" viewBox="0 0 24 24" version="1.1">
<g id="surface1">
<path style=" stroke:none;fill-rule:evenodd;fill:rgb(29.411766%,29.803923%,29.803923%);fill-opacity:1;" d="M 5.628906 5.667969 C 5.417969 5.675781 5.183594 5.695312 5.113281 5.707031 C 4.714844 5.777344 4.515625 5.8125 4.441406 5.824219 C 4.394531 5.832031 4.34375 5.847656 4.332031 5.855469 C 4.320312 5.867188 4.269531 5.882812 4.222656 5.890625 C 4.082031 5.917969 3.734375 6.035156 3.574219 6.105469 C 3.523438 6.125 3.476562 6.144531 3.472656 6.144531 C 3.453125 6.144531 3.097656 6.304688 3.046875 6.335938 C 3.027344 6.347656 2.957031 6.386719 2.890625 6.417969 C 2.703125 6.515625 2.375 6.722656 2.136719 6.898438 C 1.703125 7.21875 1.152344 7.800781 0.859375 8.25 C 0.65625 8.554688 0.363281 9.085938 0.359375 9.148438 C 0.359375 9.160156 0.332031 9.222656 0.300781 9.292969 C 0.230469 9.449219 0.0703125 9.921875 0.0703125 9.980469 C 0.0703125 10.003906 0.0546875 10.042969 0.0351562 10.070312 C -0.0078125 10.128906 -0.0195312 13.191406 0.0273438 13.203125 C 0.0390625 13.210938 0.0625 13.257812 0.0742188 13.308594 C 0.113281 13.507812 0.148438 13.621094 0.167969 13.644531 C 0.183594 13.65625 0.191406 13.691406 0.191406 13.71875 C 0.191406 13.75 0.203125 13.78125 0.214844 13.785156 C 0.226562 13.792969 0.242188 13.832031 0.25 13.871094 C 0.261719 13.910156 0.292969 13.996094 0.324219 14.0625 C 0.359375 14.128906 0.382812 14.1875 0.382812 14.195312 C 0.382812 14.21875 0.550781 14.542969 0.664062 14.742188 C 0.886719 15.125 1.1875 15.507812 1.5625 15.890625 C 1.769531 16.101562 2.410156 16.609375 2.472656 16.609375 C 2.484375 16.609375 2.496094 16.617188 2.496094 16.628906 C 2.496094 16.640625 2.527344 16.664062 2.5625 16.679688 C 2.597656 16.691406 2.675781 16.734375 2.734375 16.773438 C 2.796875 16.8125 2.859375 16.84375 2.875 16.847656 C 2.890625 16.847656 2.902344 16.859375 2.902344 16.871094 C 2.902344 16.886719 2.914062 16.894531 2.925781 16.894531 C 2.941406 16.894531 3.027344 16.933594 3.125 16.976562 C 3.488281 17.148438 3.628906 17.207031 3.65625 17.207031 C 3.671875 17.207031 3.753906 17.234375 3.839844 17.265625 C 3.925781 17.296875 4.0625 17.339844 4.140625 17.363281 C 4.21875 17.386719 4.304688 17.414062 4.332031 17.425781 C 4.359375 17.433594 4.433594 17.449219 4.5 17.457031 C 4.566406 17.464844 4.691406 17.488281 4.777344 17.507812 C 5.234375 17.625 6.78125 17.640625 7.152344 17.535156 C 7.210938 17.515625 7.332031 17.488281 7.414062 17.472656 C 7.5625 17.445312 7.773438 17.390625 7.882812 17.351562 C 7.910156 17.34375 7.976562 17.320312 8.027344 17.304688 C 8.082031 17.289062 8.15625 17.261719 8.195312 17.242188 C 8.234375 17.226562 8.304688 17.199219 8.351562 17.183594 C 8.398438 17.167969 8.484375 17.132812 8.542969 17.105469 C 8.730469 17.027344 9.21875 16.773438 9.238281 16.75 C 9.246094 16.742188 9.289062 16.714844 9.335938 16.691406 C 9.433594 16.640625 9.925781 16.308594 9.976562 16.257812 C 9.996094 16.238281 10.019531 16.222656 10.027344 16.222656 C 10.035156 16.222656 10.082031 16.191406 10.128906 16.148438 C 10.175781 16.109375 10.238281 16.058594 10.273438 16.035156 C 10.339844 15.992188 10.367188 15.96875 10.558594 15.796875 C 10.632812 15.730469 10.734375 15.644531 10.789062 15.597656 C 10.839844 15.554688 11.105469 15.296875 11.375 15.03125 C 11.648438 14.761719 11.902344 14.507812 11.949219 14.464844 C 11.992188 14.421875 12.054688 14.347656 12.082031 14.300781 C 12.132812 14.226562 12.363281 13.945312 12.578125 13.703125 C 12.621094 13.65625 12.785156 13.457031 12.941406 13.261719 C 13.101562 13.0625 13.277344 12.851562 13.328125 12.789062 C 13.382812 12.730469 13.476562 12.621094 13.535156 12.546875 C 13.59375 12.476562 13.730469 12.308594 13.835938 12.179688 C 13.941406 12.046875 14.074219 11.890625 14.125 11.832031 C 14.179688 11.773438 14.242188 11.691406 14.261719 11.652344 C 14.285156 11.613281 14.332031 11.546875 14.371094 11.507812 C 14.40625 11.46875 14.453125 11.410156 14.476562 11.382812 C 14.566406 11.25 15.316406 10.46875 15.539062 10.273438 C 15.691406 10.140625 15.894531 9.976562 15.96875 9.921875 C 16.203125 9.765625 16.3125 9.695312 16.335938 9.695312 C 16.351562 9.695312 16.367188 9.6875 16.371094 9.675781 C 16.382812 9.648438 16.789062 9.457031 16.835938 9.457031 C 16.855469 9.457031 16.875 9.445312 16.882812 9.433594 C 16.890625 9.417969 16.921875 9.40625 16.949219 9.40625 C 16.976562 9.40625 17.046875 9.390625 17.109375 9.375 C 17.46875 9.261719 17.960938 9.257812 18.371094 9.363281 C 18.425781 9.375 18.503906 9.394531 18.546875 9.402344 C 18.589844 9.40625 18.628906 9.421875 18.636719 9.433594 C 18.644531 9.445312 18.671875 9.457031 18.695312 9.457031 C 18.738281 9.457031 19.015625 9.589844 19.167969 9.6875 C 19.605469 9.960938 20.035156 10.578125 20.113281 11.050781 C 20.125 11.117188 20.144531 11.21875 20.15625 11.28125 C 20.195312 11.449219 20.191406 11.96875 20.148438 12.128906 C 20.128906 12.203125 20.113281 12.289062 20.113281 12.320312 C 20.113281 12.390625 19.988281 12.730469 19.917969 12.839844 C 19.90625 12.859375 19.886719 12.890625 19.878906 12.910156 C 19.753906 13.199219 19.300781 13.613281 18.933594 13.78125 C 18.617188 13.929688 18.632812 13.921875 18.226562 14.003906 C 17.925781 14.0625 17.210938 14.039062 17.125 13.964844 C 17.070312 13.914062 17 13.949219 16.902344 14.070312 C 16.777344 14.222656 16.394531 14.679688 16.152344 14.96875 C 16.050781 15.085938 15.949219 15.207031 15.921875 15.242188 C 15.898438 15.277344 15.808594 15.386719 15.722656 15.484375 C 15.023438 16.289062 14.644531 16.761719 14.671875 16.796875 C 14.683594 16.8125 14.804688 16.878906 14.9375 16.945312 C 15.277344 17.105469 15.371094 17.144531 15.589844 17.21875 C 15.695312 17.257812 15.789062 17.296875 15.804688 17.308594 C 15.816406 17.320312 15.851562 17.328125 15.882812 17.328125 C 15.910156 17.328125 15.957031 17.335938 15.976562 17.347656 C 16.0625 17.390625 16.269531 17.449219 16.335938 17.449219 C 16.371094 17.449219 16.480469 17.472656 16.570312 17.496094 C 17.007812 17.621094 18.5625 17.644531 19.007812 17.53125 C 19.082031 17.515625 19.203125 17.488281 19.285156 17.472656 C 19.363281 17.457031 19.460938 17.433594 19.5 17.421875 C 19.539062 17.410156 19.617188 17.394531 19.675781 17.386719 C 19.730469 17.378906 19.78125 17.359375 19.789062 17.347656 C 19.796875 17.335938 19.828125 17.328125 19.859375 17.328125 C 19.890625 17.328125 19.945312 17.3125 19.984375 17.292969 C 20.019531 17.273438 20.070312 17.257812 20.09375 17.257812 C 20.113281 17.257812 20.140625 17.246094 20.148438 17.230469 C 20.15625 17.21875 20.183594 17.207031 20.207031 17.207031 C 20.25 17.207031 20.632812 17.050781 20.796875 16.964844 C 20.847656 16.9375 20.957031 16.882812 21.035156 16.839844 C 21.550781 16.582031 22.375 15.90625 22.71875 15.457031 C 22.769531 15.390625 22.820312 15.335938 22.828125 15.335938 C 22.839844 15.335938 22.847656 15.324219 22.847656 15.308594 C 22.847656 15.296875 22.863281 15.269531 22.878906 15.25 C 22.945312 15.179688 22.96875 15.144531 23.113281 14.914062 C 23.320312 14.582031 23.558594 14.109375 23.652344 13.835938 C 23.671875 13.769531 23.703125 13.695312 23.710938 13.667969 C 23.722656 13.640625 23.746094 13.578125 23.761719 13.523438 C 23.777344 13.472656 23.796875 13.390625 23.8125 13.34375 C 23.863281 13.15625 23.90625 12.964844 23.925781 12.816406 C 23.9375 12.730469 23.960938 12.65625 23.972656 12.652344 C 24.007812 12.640625 24.011719 10.679688 23.976562 10.679688 C 23.964844 10.679688 23.949219 10.628906 23.941406 10.566406 C 23.921875 10.421875 23.859375 10.109375 23.832031 10.03125 C 23.824219 10 23.785156 9.875 23.75 9.757812 C 23.710938 9.636719 23.667969 9.507812 23.648438 9.464844 C 23.632812 9.421875 23.617188 9.375 23.617188 9.363281 C 23.617188 9.347656 23.605469 9.316406 23.59375 9.292969 C 23.582031 9.269531 23.511719 9.128906 23.4375 8.976562 C 23.363281 8.824219 23.273438 8.644531 23.234375 8.578125 C 23.195312 8.515625 23.144531 8.429688 23.121094 8.390625 C 23.066406 8.292969 22.785156 7.90625 22.695312 7.804688 C 22.578125 7.671875 22.335938 7.40625 22.308594 7.378906 C 22.277344 7.351562 22.070312 7.167969 21.953125 7.058594 C 21.847656 6.96875 21.441406 6.671875 21.417969 6.671875 C 21.410156 6.671875 21.371094 6.644531 21.324219 6.613281 C 21.28125 6.578125 21.238281 6.550781 21.230469 6.550781 C 21.21875 6.550781 21.175781 6.527344 21.136719 6.496094 C 21.035156 6.425781 20.636719 6.234375 20.351562 6.121094 C 20.007812 5.984375 19.917969 5.953125 19.679688 5.898438 C 19.621094 5.886719 19.5625 5.867188 19.550781 5.851562 C 19.535156 5.839844 19.496094 5.832031 19.460938 5.832031 C 19.425781 5.832031 19.371094 5.820312 19.339844 5.808594 C 19.308594 5.796875 19.160156 5.769531 19.007812 5.75 C 18.855469 5.726562 18.6875 5.699219 18.628906 5.6875 C 18.496094 5.65625 17.257812 5.65625 17.140625 5.6875 C 17.09375 5.699219 16.953125 5.726562 16.835938 5.75 C 16.539062 5.800781 16.386719 5.832031 16.34375 5.855469 C 16.324219 5.867188 16.269531 5.882812 16.222656 5.890625 C 16.136719 5.90625 16.109375 5.917969 15.953125 5.984375 C 15.902344 6.007812 15.847656 6.023438 15.828125 6.023438 C 15.808594 6.023438 15.773438 6.035156 15.75 6.046875 C 15.667969 6.089844 15.429688 6.191406 15.414062 6.191406 C 15.398438 6.191406 15.238281 6.273438 14.953125 6.421875 C 14.894531 6.453125 14.800781 6.507812 14.746094 6.539062 C 14.695312 6.574219 14.636719 6.605469 14.617188 6.617188 C 14.597656 6.625 14.527344 6.667969 14.464844 6.710938 C 14.402344 6.753906 14.34375 6.792969 14.335938 6.792969 C 14.324219 6.792969 13.730469 7.21875 13.703125 7.246094 C 13.699219 7.253906 13.617188 7.320312 13.523438 7.394531 C 13.429688 7.472656 13.335938 7.550781 13.308594 7.578125 C 13.28125 7.601562 13.175781 7.695312 13.070312 7.789062 C 12.878906 7.957031 12.445312 8.386719 12.179688 8.667969 C 12.101562 8.75 12.015625 8.828125 11.992188 8.835938 C 11.96875 8.847656 11.945312 8.875 11.933594 8.898438 C 11.925781 8.921875 11.90625 8.953125 11.894531 8.964844 C 11.824219 9.035156 10.953125 10.074219 10.339844 10.8125 C 10.046875 11.164062 9.792969 11.464844 9.679688 11.597656 C 9.609375 11.675781 9.550781 11.753906 9.550781 11.769531 C 9.550781 11.785156 9.515625 11.835938 9.472656 11.882812 C 9.429688 11.925781 9.363281 12.007812 9.324219 12.0625 C 9.226562 12.1875 8.414062 13.003906 8.292969 13.09375 C 8.238281 13.132812 8.167969 13.1875 8.136719 13.21875 C 8.101562 13.246094 8.0625 13.273438 8.046875 13.273438 C 8.03125 13.273438 8.007812 13.285156 8 13.304688 C 7.949219 13.390625 7.371094 13.726562 7.066406 13.847656 C 6.351562 14.136719 5.554688 14.109375 4.824219 13.769531 C 4.5625 13.648438 4.0625 13.207031 4.011719 13.050781 C 4.003906 13.03125 3.976562 12.988281 3.949219 12.949219 C 3.882812 12.859375 3.792969 12.671875 3.765625 12.570312 C 3.753906 12.527344 3.722656 12.425781 3.695312 12.347656 C 3.644531 12.21875 3.640625 12.160156 3.640625 11.699219 C 3.640625 11.132812 3.667969 10.996094 3.832031 10.644531 C 3.863281 10.578125 3.886719 10.515625 3.886719 10.503906 C 3.886719 10.375 4.351562 9.871094 4.640625 9.6875 C 5.132812 9.371094 5.929688 9.203125 6.414062 9.3125 C 6.46875 9.324219 6.570312 9.347656 6.636719 9.359375 C 6.914062 9.421875 6.886719 9.429688 7.046875 9.238281 C 7.125 9.144531 7.273438 8.960938 7.378906 8.835938 C 7.484375 8.710938 7.597656 8.574219 7.632812 8.535156 C 7.664062 8.492188 7.800781 8.328125 7.929688 8.171875 C 8.0625 8.011719 8.238281 7.800781 8.316406 7.707031 C 8.394531 7.609375 8.53125 7.445312 8.617188 7.34375 C 8.703125 7.242188 8.824219 7.09375 8.890625 7.011719 C 8.957031 6.929688 9.070312 6.796875 9.136719 6.714844 L 9.265625 6.5625 L 9.1875 6.5 C 9.144531 6.460938 9.09375 6.433594 9.078125 6.433594 C 9.0625 6.433594 9.003906 6.40625 8.953125 6.371094 C 8.898438 6.339844 8.851562 6.3125 8.84375 6.3125 C 8.835938 6.3125 8.761719 6.28125 8.679688 6.242188 C 8.597656 6.203125 8.472656 6.148438 8.398438 6.121094 C 8.328125 6.089844 8.25 6.058594 8.226562 6.046875 C 8.203125 6.035156 8.164062 6.023438 8.140625 6.023438 C 8.117188 6.023438 8.078125 6.007812 8.050781 5.992188 C 8.023438 5.972656 7.976562 5.953125 7.945312 5.945312 C 7.910156 5.9375 7.804688 5.910156 7.703125 5.882812 C 7.390625 5.792969 7.359375 5.789062 7.128906 5.75 C 7.003906 5.726562 6.847656 5.699219 6.78125 5.6875 C 6.621094 5.65625 6.101562 5.648438 5.628906 5.667969 "/>
<path style=" stroke:none;fill-rule:evenodd;fill:rgb(3.137255%,82.745099%,75.686276%);fill-opacity:1;" d="M 9.15625 6.691406 C 9.085938 6.765625 9.023438 6.835938 9.023438 6.84375 C 9.023438 6.855469 8.910156 6.996094 8.59375 7.371094 C 8.519531 7.457031 8.394531 7.609375 8.316406 7.703125 C 8.128906 7.9375 7.707031 8.441406 7.441406 8.761719 C 6.871094 9.4375 6.882812 9.417969 7.039062 9.5 C 7.304688 9.632812 7.578125 9.792969 7.65625 9.855469 C 7.703125 9.894531 7.765625 9.941406 7.800781 9.960938 C 8.039062 10.082031 8.734375 10.765625 9.242188 11.375 C 9.3125 11.457031 9.410156 11.570312 9.460938 11.625 L 9.546875 11.722656 L 9.675781 11.589844 C 9.789062 11.472656 10.054688 11.160156 10.3125 10.84375 C 10.53125 10.570312 11.832031 9.03125 11.898438 8.964844 C 12.007812 8.847656 11.949219 8.765625 11.304688 8.125 C 10.660156 7.488281 10.363281 7.242188 9.757812 6.832031 C 9.261719 6.5 9.328125 6.515625 9.15625 6.691406 M 14.089844 11.875 C 13.96875 12.015625 13.785156 12.238281 13.558594 12.519531 C 13.488281 12.609375 13.382812 12.730469 13.328125 12.789062 C 13.277344 12.851562 13.109375 13.050781 12.964844 13.234375 C 12.816406 13.421875 12.652344 13.621094 12.601562 13.679688 C 12.363281 13.945312 12.132812 14.222656 12.085938 14.300781 C 12.054688 14.347656 12.007812 14.410156 11.980469 14.433594 C 11.949219 14.457031 11.929688 14.496094 11.929688 14.515625 C 11.929688 14.640625 13.195312 15.859375 13.667969 16.183594 C 13.761719 16.25 13.921875 16.363281 14.027344 16.4375 C 14.273438 16.605469 14.570312 16.765625 14.617188 16.757812 C 14.640625 16.753906 14.828125 16.542969 15.039062 16.289062 C 15.25 16.039062 15.429688 15.820312 15.445312 15.804688 C 15.457031 15.792969 15.53125 15.703125 15.605469 15.613281 C 15.679688 15.519531 15.777344 15.40625 15.824219 15.359375 C 15.867188 15.3125 15.929688 15.238281 15.960938 15.191406 C 15.992188 15.144531 16.105469 15.011719 16.210938 14.890625 C 16.316406 14.773438 16.488281 14.574219 16.589844 14.449219 C 16.691406 14.324219 16.820312 14.167969 16.878906 14.105469 C 17.015625 13.945312 17.019531 13.949219 16.613281 13.753906 C 16.527344 13.714844 16.449219 13.679688 16.4375 13.679688 C 16.410156 13.679688 16.027344 13.425781 15.875 13.308594 C 15.480469 13.003906 15.011719 12.546875 14.394531 11.863281 C 14.253906 11.703125 14.238281 11.703125 14.089844 11.875 "/>
<path style=" stroke:none;fill-rule:evenodd;fill:rgb(98.431373%,98.431373%,98.431373%);fill-opacity:1;" d="M 0 4.96875 C 0 8.277344 0.0078125 9.933594 0.0234375 9.925781 C 0.0390625 9.914062 0.046875 9.886719 0.046875 9.859375 C 0.046875 9.808594 0.140625 9.523438 0.207031 9.359375 C 0.226562 9.3125 0.25 9.253906 0.261719 9.226562 C 0.292969 9.152344 0.410156 8.898438 0.4375 8.84375 C 0.453125 8.820312 0.492188 8.742188 0.527344 8.675781 C 0.558594 8.609375 0.609375 8.523438 0.636719 8.484375 C 0.664062 8.445312 0.695312 8.394531 0.707031 8.371094 C 1.0625 7.773438 1.917969 6.902344 2.4375 6.617188 C 2.515625 6.570312 2.554688 6.546875 2.699219 6.453125 C 2.832031 6.371094 3.394531 6.097656 3.4375 6.097656 C 3.457031 6.097656 3.480469 6.085938 3.492188 6.074219 C 3.535156 6.03125 4.058594 5.859375 4.261719 5.820312 C 4.300781 5.8125 4.386719 5.789062 4.453125 5.773438 C 4.652344 5.71875 4.796875 5.6875 4.863281 5.6875 C 4.898438 5.6875 5.007812 5.671875 5.109375 5.652344 C 5.511719 5.574219 6.460938 5.570312 6.851562 5.644531 C 6.929688 5.65625 7.054688 5.679688 7.128906 5.6875 C 7.308594 5.710938 7.515625 5.753906 7.570312 5.78125 C 7.597656 5.792969 7.679688 5.816406 7.753906 5.832031 C 7.824219 5.847656 7.917969 5.875 7.957031 5.890625 C 7.996094 5.90625 8.070312 5.933594 8.125 5.949219 C 8.578125 6.089844 9.304688 6.464844 9.875 6.851562 C 10.148438 7.035156 10.3125 7.164062 10.738281 7.515625 C 10.789062 7.558594 10.96875 7.726562 11.132812 7.882812 C 11.414062 8.152344 11.574219 8.3125 11.871094 8.636719 L 11.988281 8.765625 L 12.546875 8.210938 C 12.851562 7.910156 13.207031 7.578125 13.332031 7.472656 C 13.625 7.234375 14.035156 6.917969 14.101562 6.882812 C 14.128906 6.863281 14.261719 6.777344 14.394531 6.691406 C 14.527344 6.601562 14.644531 6.527344 14.652344 6.527344 C 14.660156 6.527344 14.703125 6.503906 14.742188 6.472656 C 14.828125 6.414062 15.285156 6.183594 15.480469 6.101562 C 15.550781 6.070312 15.644531 6.03125 15.683594 6.011719 C 15.722656 5.992188 15.804688 5.964844 15.863281 5.945312 C 15.921875 5.925781 16 5.898438 16.03125 5.886719 C 16.066406 5.871094 16.140625 5.847656 16.199219 5.832031 C 16.257812 5.816406 16.363281 5.789062 16.429688 5.769531 C 16.6875 5.703125 16.75 5.6875 16.820312 5.6875 C 16.859375 5.6875 16.921875 5.675781 16.957031 5.664062 C 17.175781 5.582031 18.222656 5.570312 18.707031 5.644531 C 18.800781 5.65625 18.941406 5.679688 19.019531 5.691406 C 19.429688 5.75 20.046875 5.917969 20.347656 6.050781 C 20.402344 6.074219 20.453125 6.097656 20.460938 6.097656 C 20.484375 6.097656 21.128906 6.410156 21.144531 6.429688 C 21.160156 6.449219 21.242188 6.5 21.289062 6.519531 C 21.34375 6.542969 21.703125 6.785156 21.757812 6.832031 C 21.78125 6.855469 21.867188 6.925781 21.949219 6.984375 C 22.382812 7.308594 23.023438 8.058594 23.320312 8.601562 C 23.417969 8.777344 23.59375 9.136719 23.59375 9.164062 C 23.59375 9.171875 23.617188 9.234375 23.652344 9.300781 C 23.683594 9.367188 23.710938 9.441406 23.710938 9.46875 C 23.710938 9.496094 23.722656 9.527344 23.734375 9.542969 C 23.753906 9.566406 23.808594 9.730469 23.867188 9.949219 C 23.886719 10.027344 23.914062 10.125 23.929688 10.164062 C 23.941406 10.207031 23.953125 10.265625 23.953125 10.296875 C 23.953125 10.328125 23.964844 10.371094 23.976562 10.390625 C 23.992188 10.414062 24 8.589844 24 5.214844 L 24 0 L 0 0 L 0 4.96875 M 5.6875 9.375 C 5.320312 9.410156 4.890625 9.574219 4.570312 9.804688 C 4.359375 9.957031 4.109375 10.230469 4.011719 10.414062 C 3.988281 10.460938 3.945312 10.539062 3.917969 10.585938 C 3.660156 11.046875 3.601562 11.898438 3.792969 12.460938 C 3.847656 12.625 3.984375 12.917969 4.015625 12.933594 C 4.023438 12.9375 4.03125 12.949219 4.03125 12.964844 C 4.03125 13.109375 4.542969 13.566406 4.894531 13.730469 C 5.101562 13.824219 5.128906 13.835938 5.242188 13.867188 C 5.296875 13.882812 5.398438 13.910156 5.46875 13.929688 C 5.617188 13.972656 6.445312 13.984375 6.566406 13.945312 C 6.605469 13.933594 6.699219 13.90625 6.78125 13.882812 C 6.910156 13.847656 6.976562 13.820312 7.152344 13.746094 C 7.304688 13.683594 7.390625 13.636719 7.507812 13.566406 C 7.574219 13.523438 7.636719 13.488281 7.640625 13.488281 C 7.652344 13.488281 7.863281 13.347656 7.980469 13.257812 C 8.457031 12.90625 9.511719 11.832031 9.476562 11.738281 C 9.460938 11.703125 9.082031 11.246094 8.902344 11.050781 C 8.566406 10.683594 7.878906 10.03125 7.828125 10.03125 C 7.816406 10.03125 7.792969 10.015625 7.773438 9.996094 C 7.691406 9.894531 7.109375 9.566406 6.898438 9.503906 C 6.847656 9.488281 6.792969 9.464844 6.78125 9.457031 C 6.691406 9.390625 6.042969 9.34375 5.6875 9.375 M 17.375 9.375 C 17.183594 9.40625 17.042969 9.441406 16.976562 9.472656 C 16.933594 9.488281 16.882812 9.503906 16.863281 9.503906 C 16.839844 9.503906 16.804688 9.515625 16.78125 9.527344 C 16.757812 9.539062 16.675781 9.578125 16.597656 9.617188 C 16.515625 9.652344 16.445312 9.691406 16.441406 9.699219 C 16.433594 9.707031 16.394531 9.730469 16.351562 9.75 C 16.3125 9.773438 16.210938 9.835938 16.128906 9.894531 C 16.046875 9.949219 15.960938 10.007812 15.9375 10.019531 C 15.785156 10.113281 15.253906 10.609375 14.929688 10.96875 C 14.804688 11.105469 14.664062 11.253906 14.621094 11.300781 C 14.578125 11.34375 14.542969 11.386719 14.542969 11.398438 C 14.542969 11.40625 14.511719 11.445312 14.46875 11.484375 C 14.429688 11.523438 14.375 11.585938 14.347656 11.621094 L 14.300781 11.6875 L 14.449219 11.847656 C 14.800781 12.234375 15.074219 12.523438 15.265625 12.707031 C 15.644531 13.074219 15.785156 13.199219 15.949219 13.300781 C 16.015625 13.34375 16.074219 13.386719 16.082031 13.398438 C 16.09375 13.414062 16.484375 13.65625 16.5 13.65625 C 16.503906 13.65625 16.597656 13.695312 16.707031 13.746094 C 16.816406 13.796875 16.972656 13.859375 17.050781 13.882812 C 17.132812 13.90625 17.222656 13.933594 17.25 13.945312 C 17.347656 13.984375 18.175781 13.972656 18.332031 13.929688 C 18.40625 13.910156 18.511719 13.882812 18.5625 13.867188 C 18.734375 13.820312 19.121094 13.640625 19.175781 13.582031 C 19.183594 13.578125 19.238281 13.535156 19.296875 13.488281 C 19.445312 13.375 19.636719 13.179688 19.691406 13.085938 C 19.71875 13.042969 19.746094 13.007812 19.757812 13.007812 C 19.765625 13.007812 19.777344 12.996094 19.777344 12.976562 C 19.777344 12.960938 19.800781 12.910156 19.832031 12.863281 C 19.878906 12.789062 19.910156 12.722656 19.992188 12.515625 C 20.003906 12.488281 20.03125 12.386719 20.050781 12.289062 C 20.074219 12.1875 20.101562 12.0625 20.113281 12.003906 C 20.140625 11.875 20.144531 11.492188 20.113281 11.378906 C 20.101562 11.332031 20.078125 11.214844 20.0625 11.125 C 20.035156 10.972656 20 10.851562 19.941406 10.714844 C 19.851562 10.5 19.808594 10.425781 19.679688 10.253906 C 19.597656 10.144531 19.480469 10.011719 19.421875 9.960938 C 19.1875 9.761719 19.164062 9.742188 19.140625 9.742188 C 19.128906 9.742188 19.101562 9.730469 19.082031 9.710938 C 19.019531 9.660156 18.738281 9.523438 18.636719 9.496094 C 18.609375 9.488281 18.511719 9.460938 18.421875 9.433594 C 18.257812 9.382812 17.542969 9.34375 17.375 9.375 M 23.964844 12.941406 C 23.960938 12.972656 23.949219 13.023438 23.945312 13.054688 C 23.9375 13.089844 23.914062 13.179688 23.890625 13.261719 C 23.871094 13.339844 23.847656 13.429688 23.839844 13.464844 C 23.828125 13.527344 23.8125 13.570312 23.75 13.710938 C 23.730469 13.761719 23.710938 13.816406 23.710938 13.835938 C 23.710938 13.855469 23.703125 13.890625 23.691406 13.914062 C 23.679688 13.9375 23.65625 13.992188 23.636719 14.039062 C 23.59375 14.144531 23.476562 14.394531 23.441406 14.460938 C 23.429688 14.484375 23.386719 14.5625 23.351562 14.628906 C 23.152344 15.003906 22.839844 15.429688 22.464844 15.828125 C 22.210938 16.09375 21.566406 16.632812 21.496094 16.632812 C 21.488281 16.632812 21.421875 16.675781 21.34375 16.726562 C 21.269531 16.78125 21.195312 16.824219 21.175781 16.824219 C 21.160156 16.824219 21.144531 16.835938 21.144531 16.847656 C 21.144531 16.859375 21.125 16.871094 21.097656 16.871094 C 21.070312 16.871094 21.042969 16.882812 21.035156 16.898438 C 20.992188 16.96875 20.28125 17.265625 19.859375 17.386719 C 19.78125 17.410156 19.695312 17.4375 19.667969 17.449219 C 19.640625 17.460938 19.585938 17.472656 19.546875 17.480469 C 19.507812 17.488281 19.390625 17.511719 19.285156 17.535156 C 18.730469 17.644531 18.414062 17.671875 17.664062 17.65625 C 17.300781 17.652344 16.9375 17.632812 16.859375 17.617188 C 16.367188 17.523438 16.164062 17.476562 16.09375 17.449219 C 16.066406 17.4375 15.96875 17.410156 15.875 17.386719 C 15.785156 17.363281 15.695312 17.335938 15.683594 17.328125 C 15.671875 17.320312 15.605469 17.292969 15.539062 17.269531 C 15.472656 17.246094 15.398438 17.21875 15.371094 17.207031 C 15.34375 17.195312 15.269531 17.164062 15.203125 17.136719 C 14.855469 16.984375 14.304688 16.691406 14.144531 16.570312 C 14.101562 16.539062 14.0625 16.511719 14.054688 16.511719 C 13.945312 16.511719 13.011719 15.730469 12.421875 15.140625 C 12.132812 14.851562 11.890625 14.617188 11.886719 14.617188 C 11.886719 14.617188 11.683594 14.8125 11.441406 15.054688 C 11.199219 15.292969 10.925781 15.558594 10.835938 15.636719 C 10.746094 15.714844 10.625 15.816406 10.574219 15.867188 C 10.46875 15.957031 10.152344 16.207031 10.054688 16.277344 C 9.640625 16.570312 9.554688 16.632812 9.539062 16.632812 C 9.53125 16.632812 9.488281 16.660156 9.445312 16.691406 C 9.402344 16.726562 9.359375 16.753906 9.347656 16.753906 C 9.335938 16.753906 9.308594 16.769531 9.289062 16.789062 C 9.222656 16.84375 8.625 17.144531 8.398438 17.230469 C 8.289062 17.273438 8.175781 17.316406 8.148438 17.328125 C 8.0625 17.363281 7.957031 17.394531 7.8125 17.433594 C 7.734375 17.457031 7.636719 17.484375 7.597656 17.496094 C 7.523438 17.515625 7.285156 17.566406 7.019531 17.617188 C 6.8125 17.65625 5.613281 17.675781 5.304688 17.640625 C 4.785156 17.585938 4.066406 17.433594 3.828125 17.328125 C 3.800781 17.320312 3.726562 17.289062 3.660156 17.269531 C 3.59375 17.246094 3.507812 17.214844 3.46875 17.199219 C 3.429688 17.179688 3.359375 17.152344 3.3125 17.136719 C 3.203125 17.09375 2.707031 16.835938 2.613281 16.777344 C 2.574219 16.75 2.511719 16.707031 2.472656 16.679688 C 2.433594 16.652344 2.394531 16.632812 2.386719 16.632812 C 2.363281 16.632812 2.101562 16.433594 2.09375 16.410156 C 2.085938 16.398438 2.070312 16.390625 2.050781 16.390625 C 2.035156 16.390625 2.015625 16.382812 2.011719 16.375 C 2.007812 16.363281 1.949219 16.3125 1.882812 16.261719 C 1.597656 16.03125 1.148438 15.550781 0.894531 15.203125 C 0.726562 14.972656 0.40625 14.445312 0.40625 14.398438 C 0.40625 14.390625 0.382812 14.332031 0.347656 14.269531 C 0.316406 14.207031 0.289062 14.144531 0.289062 14.125 C 0.289062 14.109375 0.261719 14.046875 0.230469 13.988281 C 0.199219 13.929688 0.167969 13.855469 0.164062 13.824219 C 0.15625 13.789062 0.125 13.703125 0.0976562 13.632812 C 0.0703125 13.558594 0.046875 13.476562 0.046875 13.449219 C 0.046875 13.417969 0.0390625 13.386719 0.0234375 13.378906 C 0.0078125 13.371094 0 15.144531 0 18.683594 L 0 24 L 24 24 L 24 18.445312 C 24 15.386719 23.996094 12.886719 23.988281 12.886719 C 23.980469 12.886719 23.972656 12.914062 23.964844 12.941406 "/>
<path style=" stroke:none;fill-rule:evenodd;fill:rgb(52.941179%,52.549022%,52.549022%);fill-opacity:1;" d="M 5.449219 5.640625 C 5.191406 5.660156 4.558594 5.761719 4.429688 5.808594 L 4.355469 5.832031 L 4.441406 5.820312 C 4.484375 5.816406 4.625 5.792969 4.753906 5.773438 C 4.878906 5.75 5.039062 5.722656 5.113281 5.707031 C 5.453125 5.648438 6.589844 5.648438 6.910156 5.710938 C 6.984375 5.722656 7.128906 5.75 7.234375 5.769531 C 7.339844 5.789062 7.53125 5.832031 7.65625 5.867188 C 7.78125 5.902344 7.910156 5.9375 7.945312 5.941406 L 8.003906 5.953125 L 7.945312 5.925781 C 7.457031 5.703125 6.34375 5.578125 5.449219 5.640625 M 17.328125 5.640625 C 17.078125 5.660156 16.511719 5.765625 16.414062 5.808594 C 16.328125 5.84375 16.535156 5.8125 17.027344 5.707031 C 17.324219 5.648438 18.414062 5.648438 18.769531 5.707031 C 19.148438 5.777344 19.363281 5.8125 19.441406 5.820312 L 19.523438 5.832031 L 19.453125 5.808594 C 19.382812 5.785156 19.222656 5.753906 18.742188 5.675781 C 18.492188 5.636719 17.636719 5.613281 17.328125 5.640625 M 4.128906 5.882812 C 3.976562 5.925781 3.746094 6.007812 3.433594 6.128906 C 2.21875 6.59375 1.054688 7.667969 0.460938 8.867188 C 0.292969 9.203125 0.09375 9.726562 0.0585938 9.917969 C 0.0507812 9.96875 0.03125 10.007812 0.0195312 10.007812 C 0.0078125 10.007812 0 10.03125 0 10.0625 C 0 10.113281 0.00390625 10.113281 0.0351562 10.070312 C 0.0546875 10.042969 0.0703125 10.003906 0.0703125 9.980469 C 0.0703125 9.921875 0.230469 9.449219 0.300781 9.292969 C 0.332031 9.222656 0.359375 9.160156 0.359375 9.148438 C 0.363281 9.085938 0.65625 8.554688 0.859375 8.25 C 1.152344 7.800781 1.703125 7.21875 2.136719 6.898438 C 2.375 6.722656 2.703125 6.515625 2.890625 6.417969 C 2.957031 6.386719 3.027344 6.347656 3.046875 6.335938 C 3.097656 6.304688 3.453125 6.144531 3.472656 6.144531 C 3.476562 6.144531 3.523438 6.125 3.574219 6.105469 C 3.746094 6.03125 4.097656 5.914062 4.230469 5.890625 C 4.28125 5.882812 4.328125 5.863281 4.332031 5.851562 C 4.351562 5.824219 4.308594 5.828125 4.128906 5.882812 M 16.03125 5.917969 C 15.894531 5.964844 15.734375 6.023438 15.675781 6.050781 C 15.617188 6.078125 15.515625 6.121094 15.445312 6.148438 C 14.554688 6.5 13.457031 7.316406 12.328125 8.46875 C 12.144531 8.65625 11.988281 8.808594 11.972656 8.808594 C 11.960938 8.808594 11.953125 8.820312 11.953125 8.832031 C 11.953125 8.878906 12.039062 8.816406 12.179688 8.667969 C 12.445312 8.386719 12.878906 7.957031 13.070312 7.789062 C 13.175781 7.695312 13.28125 7.601562 13.308594 7.578125 C 13.335938 7.550781 13.429688 7.472656 13.523438 7.394531 C 13.617188 7.320312 13.699219 7.253906 13.703125 7.246094 C 13.730469 7.21875 14.324219 6.792969 14.335938 6.792969 C 14.34375 6.792969 14.402344 6.753906 14.464844 6.710938 C 14.527344 6.667969 14.597656 6.625 14.617188 6.617188 C 14.636719 6.605469 14.695312 6.574219 14.746094 6.539062 C 14.800781 6.507812 14.894531 6.453125 14.953125 6.421875 C 15.238281 6.273438 15.398438 6.191406 15.414062 6.191406 C 15.429688 6.191406 15.667969 6.089844 15.75 6.046875 C 15.773438 6.035156 15.808594 6.023438 15.828125 6.023438 C 15.859375 6.023438 15.976562 5.980469 16.082031 5.929688 C 16.101562 5.917969 16.164062 5.902344 16.21875 5.894531 C 16.273438 5.882812 16.324219 5.867188 16.332031 5.855469 C 16.355469 5.816406 16.296875 5.832031 16.03125 5.917969 M 19.546875 5.851562 C 19.5625 5.863281 19.621094 5.886719 19.679688 5.898438 C 19.917969 5.953125 20.007812 5.984375 20.351562 6.121094 C 20.636719 6.234375 21.035156 6.425781 21.136719 6.496094 C 21.175781 6.527344 21.21875 6.550781 21.230469 6.550781 C 21.238281 6.550781 21.28125 6.578125 21.324219 6.613281 C 21.371094 6.644531 21.410156 6.671875 21.417969 6.671875 C 21.441406 6.671875 21.847656 6.96875 21.953125 7.058594 C 22.070312 7.167969 22.277344 7.351562 22.308594 7.378906 C 22.335938 7.40625 22.578125 7.671875 22.695312 7.804688 C 22.785156 7.90625 23.066406 8.292969 23.121094 8.390625 C 23.144531 8.429688 23.195312 8.515625 23.234375 8.578125 C 23.273438 8.644531 23.363281 8.824219 23.4375 8.976562 C 23.511719 9.128906 23.578125 9.269531 23.589844 9.289062 C 23.601562 9.308594 23.617188 9.359375 23.625 9.402344 C 23.640625 9.472656 23.6875 9.535156 23.6875 9.488281 C 23.6875 9.417969 23.46875 8.941406 23.308594 8.652344 C 23.191406 8.441406 22.925781 8.03125 22.855469 7.957031 C 22.832031 7.929688 22.765625 7.847656 22.710938 7.777344 C 22.339844 7.285156 21.527344 6.644531 20.847656 6.308594 C 20.371094 6.074219 19.441406 5.746094 19.546875 5.851562 M 8.050781 5.988281 C 8.078125 6.007812 8.117188 6.023438 8.140625 6.023438 C 8.164062 6.023438 8.203125 6.035156 8.226562 6.046875 C 8.25 6.058594 8.328125 6.089844 8.398438 6.121094 C 8.472656 6.148438 8.597656 6.203125 8.679688 6.242188 C 8.761719 6.28125 8.835938 6.3125 8.84375 6.3125 C 8.851562 6.3125 8.898438 6.339844 8.953125 6.371094 C 9.003906 6.40625 9.058594 6.433594 9.074219 6.433594 C 9.121094 6.433594 9.265625 6.558594 9.25 6.585938 C 9.238281 6.601562 9.246094 6.597656 9.265625 6.582031 C 9.335938 6.515625 8.59375 6.125 8.136719 5.984375 C 8 5.945312 7.992188 5.945312 8.050781 5.988281 M 5.640625 9.316406 C 5.042969 9.417969 4.617188 9.632812 4.226562 10.03125 C 4.125 10.136719 3.886719 10.464844 3.886719 10.503906 C 3.886719 10.515625 3.863281 10.578125 3.832031 10.644531 C 3.710938 10.898438 3.648438 11.144531 3.652344 11.324219 C 3.652344 11.398438 3.660156 11.425781 3.664062 11.386719 C 3.832031 9.894531 5.234375 9 6.75 9.417969 C 6.925781 9.464844 6.929688 9.464844 6.941406 9.40625 C 6.953125 9.367188 6.949219 9.363281 6.921875 9.386719 C 6.882812 9.417969 6.890625 9.417969 6.414062 9.3125 C 6.289062 9.28125 5.820312 9.285156 5.640625 9.316406 M 17.339844 9.316406 C 17.273438 9.328125 17.171875 9.355469 17.109375 9.371094 C 17.046875 9.390625 16.976562 9.40625 16.949219 9.40625 C 16.921875 9.40625 16.890625 9.417969 16.882812 9.433594 C 16.875 9.445312 16.855469 9.457031 16.835938 9.457031 C 16.789062 9.457031 16.382812 9.648438 16.371094 9.675781 C 16.367188 9.6875 16.351562 9.695312 16.335938 9.695312 C 16.3125 9.695312 16.203125 9.765625 15.96875 9.921875 C 15.894531 9.976562 15.691406 10.140625 15.539062 10.273438 C 15.316406 10.46875 14.566406 11.25 14.476562 11.382812 C 14.453125 11.410156 14.40625 11.46875 14.371094 11.507812 C 14.292969 11.589844 14.222656 11.710938 14.242188 11.730469 C 14.25 11.738281 14.265625 11.71875 14.277344 11.683594 C 14.371094 11.460938 15.566406 10.238281 15.949219 9.980469 C 16 9.941406 16.09375 9.878906 16.152344 9.835938 C 17.199219 9.09375 18.671875 9.167969 19.503906 10.003906 C 19.644531 10.144531 19.921875 10.523438 19.921875 10.578125 C 19.921875 10.589844 19.949219 10.664062 19.980469 10.742188 C 20.15625 11.136719 20.203125 11.742188 20.101562 12.21875 C 19.894531 13.144531 19.324219 13.714844 18.347656 13.957031 C 18.117188 14.015625 17.375 14.015625 17.195312 13.957031 C 17.0625 13.917969 16.933594 13.90625 16.953125 13.941406 C 16.960938 13.953125 16.992188 13.957031 17.019531 13.949219 C 17.042969 13.945312 17.089844 13.949219 17.121094 13.960938 C 17.285156 14.042969 17.917969 14.066406 18.226562 14.003906 C 18.632812 13.921875 18.617188 13.929688 18.933594 13.78125 C 19.160156 13.679688 19.285156 13.59375 19.492188 13.398438 C 19.65625 13.242188 19.882812 12.945312 19.933594 12.816406 C 19.941406 12.796875 19.964844 12.742188 19.988281 12.695312 C 20.054688 12.539062 20.113281 12.371094 20.113281 12.320312 C 20.113281 12.289062 20.128906 12.203125 20.148438 12.128906 C 20.191406 11.96875 20.195312 11.449219 20.15625 11.28125 C 20.144531 11.21875 20.125 11.117188 20.113281 11.050781 C 20.035156 10.578125 19.605469 9.960938 19.167969 9.6875 C 19.015625 9.589844 18.738281 9.457031 18.695312 9.457031 C 18.671875 9.457031 18.644531 9.445312 18.636719 9.433594 C 18.628906 9.421875 18.589844 9.40625 18.546875 9.402344 C 18.503906 9.394531 18.425781 9.375 18.371094 9.363281 C 18.074219 9.289062 17.617188 9.265625 17.339844 9.316406 M 23.6875 9.546875 C 23.6875 9.566406 23.714844 9.664062 23.75 9.765625 C 23.851562 10.078125 23.902344 10.296875 23.941406 10.566406 C 23.957031 10.691406 24 10.722656 24 10.609375 C 24 10.570312 23.992188 10.535156 23.980469 10.535156 C 23.972656 10.535156 23.949219 10.464844 23.933594 10.375 C 23.871094 10.003906 23.691406 9.40625 23.6875 9.546875 M 3.640625 11.851562 C 3.648438 12.132812 3.660156 12.246094 3.699219 12.355469 C 3.726562 12.429688 3.753906 12.527344 3.765625 12.570312 C 3.792969 12.671875 3.882812 12.859375 3.949219 12.949219 C 3.976562 12.988281 4.003906 13.03125 4.011719 13.050781 C 4.046875 13.15625 4.398438 13.503906 4.609375 13.640625 C 4.746094 13.730469 4.8125 13.765625 5.003906 13.847656 C 5.609375 14.105469 6.425781 14.105469 7.066406 13.847656 C 7.371094 13.726562 7.949219 13.390625 8 13.304688 C 8.007812 13.285156 8.03125 13.273438 8.046875 13.273438 C 8.0625 13.273438 8.101562 13.246094 8.136719 13.21875 C 8.167969 13.1875 8.238281 13.132812 8.289062 13.09375 C 8.648438 12.824219 9.6875 11.6875 9.574219 11.6875 C 9.5625 11.6875 9.539062 11.714844 9.527344 11.746094 C 9.480469 11.871094 8.671875 12.726562 8.292969 13.046875 C 7.800781 13.46875 7.339844 13.734375 6.851562 13.886719 C 6.785156 13.90625 6.707031 13.933594 6.675781 13.949219 C 6.574219 13.988281 6.113281 14.019531 5.855469 14.003906 C 5.566406 13.984375 5.125 13.890625 5.027344 13.824219 C 5.015625 13.816406 4.957031 13.789062 4.902344 13.769531 C 4.625 13.660156 4.25 13.351562 4.070312 13.078125 C 3.78125 12.652344 3.6875 12.359375 3.648438 11.785156 L 3.628906 11.484375 L 3.640625 11.851562 M 23.941406 12.703125 C 23.933594 12.730469 23.929688 12.785156 23.929688 12.820312 C 23.929688 12.878906 23.886719 13.070312 23.832031 13.273438 C 23.78125 13.457031 23.730469 13.621094 23.710938 13.667969 C 23.699219 13.695312 23.671875 13.769531 23.652344 13.835938 C 23.535156 14.179688 23.097656 14.996094 22.933594 15.183594 C 22.863281 15.261719 22.847656 15.289062 22.847656 15.3125 C 22.847656 15.324219 22.839844 15.335938 22.828125 15.335938 C 22.820312 15.335938 22.769531 15.390625 22.71875 15.457031 C 22.375 15.90625 21.550781 16.582031 21.035156 16.839844 C 20.957031 16.882812 20.847656 16.9375 20.796875 16.964844 C 20.632812 17.050781 20.25 17.207031 20.207031 17.207031 C 20.183594 17.207031 20.15625 17.21875 20.148438 17.230469 C 20.140625 17.246094 20.113281 17.257812 20.09375 17.257812 C 20.070312 17.257812 20.019531 17.273438 19.984375 17.292969 C 19.945312 17.3125 19.894531 17.328125 19.867188 17.328125 C 19.84375 17.328125 19.804688 17.339844 19.78125 17.351562 C 19.734375 17.378906 19.496094 17.433594 19.175781 17.492188 C 19.019531 17.519531 18.875 17.574219 18.996094 17.558594 C 19.105469 17.546875 19.5625 17.449219 19.644531 17.425781 C 19.683594 17.410156 19.8125 17.371094 19.933594 17.335938 C 20.050781 17.300781 20.164062 17.261719 20.183594 17.253906 C 20.203125 17.246094 20.273438 17.21875 20.339844 17.195312 C 21.453125 16.816406 22.695312 15.757812 23.292969 14.675781 C 23.328125 14.609375 23.378906 14.523438 23.398438 14.484375 C 23.609375 14.101562 23.953125 13.085938 23.953125 12.847656 C 23.953125 12.816406 23.960938 12.789062 23.976562 12.78125 C 24.003906 12.761719 24.007812 12.648438 23.980469 12.648438 C 23.96875 12.648438 23.949219 12.671875 23.941406 12.703125 M 0 13.246094 C 0 13.273438 0.0078125 13.296875 0.0195312 13.296875 C 0.0273438 13.296875 0.0585938 13.375 0.0820312 13.46875 C 0.179688 13.851562 0.390625 14.328125 0.699219 14.855469 C 1.050781 15.464844 1.835938 16.261719 2.449219 16.632812 C 2.519531 16.679688 2.613281 16.738281 2.65625 16.765625 C 2.902344 16.929688 3.582031 17.226562 4.007812 17.355469 C 4.09375 17.378906 4.199219 17.410156 4.242188 17.425781 C 4.289062 17.441406 4.328125 17.445312 4.335938 17.4375 C 4.351562 17.421875 4.347656 17.421875 4.140625 17.363281 C 4.0625 17.339844 3.925781 17.296875 3.839844 17.265625 C 3.753906 17.234375 3.671875 17.207031 3.65625 17.207031 C 3.628906 17.207031 3.488281 17.148438 3.125 16.976562 C 3.027344 16.933594 2.941406 16.894531 2.925781 16.894531 C 2.914062 16.894531 2.902344 16.886719 2.902344 16.871094 C 2.902344 16.859375 2.890625 16.847656 2.875 16.847656 C 2.859375 16.84375 2.796875 16.8125 2.734375 16.773438 C 2.675781 16.734375 2.597656 16.691406 2.5625 16.679688 C 2.527344 16.664062 2.496094 16.640625 2.496094 16.628906 C 2.496094 16.617188 2.484375 16.609375 2.472656 16.609375 C 2.433594 16.609375 2.121094 16.378906 1.875 16.167969 C 1.277344 15.664062 0.804688 15.058594 0.464844 14.371094 C 0.421875 14.28125 0.382812 14.203125 0.382812 14.195312 C 0.382812 14.1875 0.359375 14.128906 0.324219 14.0625 C 0.292969 13.996094 0.261719 13.910156 0.25 13.871094 C 0.242188 13.832031 0.226562 13.792969 0.214844 13.785156 C 0.203125 13.78125 0.191406 13.746094 0.191406 13.714844 C 0.191406 13.683594 0.183594 13.652344 0.167969 13.644531 C 0.15625 13.636719 0.140625 13.597656 0.132812 13.554688 C 0.125 13.511719 0.105469 13.445312 0.09375 13.402344 C 0.0820312 13.363281 0.0664062 13.300781 0.0585938 13.265625 C 0.046875 13.191406 0 13.175781 0 13.246094 M 11.386719 15.019531 C 11.109375 15.292969 10.839844 15.554688 10.789062 15.597656 C 10.734375 15.644531 10.632812 15.730469 10.558594 15.796875 C 10.367188 15.96875 10.339844 15.992188 10.273438 16.035156 C 10.238281 16.058594 10.175781 16.109375 10.128906 16.148438 C 10.082031 16.191406 10.035156 16.222656 10.027344 16.222656 C 10.019531 16.222656 9.996094 16.238281 9.976562 16.257812 C 9.925781 16.308594 9.433594 16.640625 9.335938 16.691406 C 9.289062 16.714844 9.246094 16.742188 9.238281 16.75 C 9.21875 16.773438 8.730469 17.027344 8.542969 17.105469 C 8.484375 17.132812 8.398438 17.167969 8.351562 17.183594 C 8.304688 17.199219 8.234375 17.226562 8.195312 17.242188 C 8.15625 17.261719 8.082031 17.289062 8.027344 17.304688 C 7.976562 17.320312 7.910156 17.34375 7.882812 17.351562 C 7.859375 17.363281 7.789062 17.382812 7.726562 17.402344 C 7.667969 17.417969 7.632812 17.433594 7.648438 17.441406 C 7.722656 17.464844 8.363281 17.230469 8.804688 17.011719 C 9.449219 16.695312 9.984375 16.328125 10.691406 15.722656 C 10.964844 15.488281 11.945312 14.519531 11.910156 14.519531 C 11.898438 14.519531 11.660156 14.746094 11.386719 15.019531 M 14.59375 16.773438 C 14.59375 16.890625 15.832031 17.378906 16.449219 17.503906 C 16.550781 17.527344 16.644531 17.546875 16.652344 17.554688 C 16.78125 17.632812 18.386719 17.660156 18.792969 17.59375 C 18.890625 17.578125 18.855469 17.574219 18.648438 17.585938 C 17.835938 17.632812 16.898438 17.589844 16.570312 17.496094 C 16.480469 17.472656 16.371094 17.449219 16.335938 17.449219 C 16.269531 17.449219 16.0625 17.390625 15.976562 17.347656 C 15.957031 17.335938 15.910156 17.328125 15.882812 17.328125 C 15.851562 17.328125 15.816406 17.320312 15.804688 17.308594 C 15.789062 17.296875 15.695312 17.257812 15.589844 17.21875 C 15.273438 17.113281 14.71875 16.851562 14.664062 16.789062 C 14.632812 16.75 14.59375 16.738281 14.59375 16.773438 M 4.523438 17.484375 C 4.617188 17.503906 4.742188 17.53125 4.808594 17.546875 C 4.871094 17.5625 4.929688 17.566406 4.9375 17.558594 C 4.941406 17.554688 4.90625 17.539062 4.855469 17.523438 C 4.804688 17.511719 4.710938 17.492188 4.648438 17.476562 C 4.585938 17.460938 4.496094 17.449219 4.445312 17.449219 C 4.375 17.453125 4.390625 17.460938 4.523438 17.484375 M 7.378906 17.476562 C 7.328125 17.488281 7.230469 17.511719 7.164062 17.53125 C 6.917969 17.597656 5.964844 17.625 5.242188 17.585938 L 4.957031 17.570312 L 5.230469 17.601562 C 5.78125 17.667969 6.878906 17.636719 7.246094 17.546875 C 7.59375 17.460938 7.617188 17.453125 7.546875 17.453125 C 7.507812 17.453125 7.433594 17.464844 7.378906 17.476562 "/>
<path style=" stroke:none;fill-rule:evenodd;fill:rgb(63.921571%,75.686276%,74.901962%);fill-opacity:1;" d="M 5.6875 5.59375 C 5.496094 5.605469 5.265625 5.628906 5.171875 5.644531 C 5.078125 5.660156 4.945312 5.679688 4.871094 5.6875 C 4.636719 5.71875 4.464844 5.757812 4.421875 5.785156 C 4.386719 5.808594 4.390625 5.808594 4.441406 5.796875 C 5.742188 5.488281 7.230469 5.597656 8.40625 6.085938 C 8.910156 6.296875 9.132812 6.417969 9.738281 6.824219 C 10.433594 7.285156 11.339844 8.085938 11.820312 8.660156 C 11.976562 8.847656 11.945312 8.859375 12.328125 8.46875 C 13.457031 7.316406 14.554688 6.5 15.445312 6.148438 C 15.515625 6.121094 15.617188 6.078125 15.675781 6.050781 C 16.433594 5.710938 17.871094 5.519531 18.648438 5.660156 C 18.734375 5.675781 18.910156 5.703125 19.042969 5.726562 C 20.4375 5.941406 21.964844 6.796875 22.710938 7.777344 C 22.765625 7.847656 22.832031 7.929688 22.855469 7.957031 C 22.988281 8.101562 23.351562 8.699219 23.480469 8.988281 C 23.519531 9.066406 23.566406 9.175781 23.59375 9.226562 C 23.617188 9.28125 23.652344 9.378906 23.675781 9.445312 C 23.695312 9.511719 23.722656 9.585938 23.734375 9.613281 C 23.785156 9.714844 23.886719 10.113281 23.933594 10.375 C 23.949219 10.464844 23.972656 10.535156 23.984375 10.535156 C 23.996094 10.535156 24 10.507812 23.992188 10.46875 C 23.949219 10.265625 23.929688 10.171875 23.894531 10.042969 C 23.871094 9.964844 23.84375 9.863281 23.832031 9.816406 C 23.804688 9.699219 23.757812 9.570312 23.734375 9.542969 C 23.722656 9.527344 23.710938 9.496094 23.710938 9.46875 C 23.710938 9.441406 23.683594 9.367188 23.652344 9.300781 C 23.617188 9.234375 23.59375 9.171875 23.59375 9.164062 C 23.59375 9.136719 23.417969 8.777344 23.320312 8.601562 C 23.023438 8.058594 22.382812 7.308594 21.949219 6.984375 C 21.867188 6.925781 21.78125 6.855469 21.757812 6.832031 C 21.730469 6.808594 21.621094 6.734375 21.515625 6.664062 C 21.246094 6.488281 21.230469 6.480469 21.191406 6.464844 C 21.171875 6.453125 21.152344 6.441406 21.144531 6.429688 C 21.128906 6.414062 20.484375 6.097656 20.460938 6.097656 C 20.453125 6.097656 20.402344 6.074219 20.347656 6.050781 C 20.046875 5.917969 19.429688 5.75 19.019531 5.691406 C 18.941406 5.679688 18.800781 5.65625 18.707031 5.644531 C 18.222656 5.570312 17.175781 5.582031 16.957031 5.664062 C 16.921875 5.675781 16.859375 5.6875 16.820312 5.6875 C 16.75 5.6875 16.6875 5.703125 16.429688 5.769531 C 16.363281 5.789062 16.257812 5.816406 16.199219 5.832031 C 16.140625 5.847656 16.066406 5.871094 16.03125 5.886719 C 16 5.898438 15.921875 5.925781 15.863281 5.945312 C 15.804688 5.964844 15.722656 5.992188 15.683594 6.011719 C 15.644531 6.03125 15.550781 6.070312 15.480469 6.101562 C 15.285156 6.183594 14.828125 6.414062 14.742188 6.472656 C 14.703125 6.503906 14.660156 6.527344 14.652344 6.527344 C 14.644531 6.527344 14.527344 6.601562 14.394531 6.691406 C 14.261719 6.777344 14.128906 6.863281 14.101562 6.882812 C 14.035156 6.917969 13.625 7.234375 13.332031 7.472656 C 13.207031 7.578125 12.851562 7.910156 12.546875 8.210938 L 11.988281 8.765625 L 11.871094 8.636719 C 11.574219 8.3125 11.414062 8.152344 11.132812 7.882812 C 10.96875 7.726562 10.789062 7.558594 10.738281 7.515625 C 10.3125 7.164062 10.148438 7.035156 9.875 6.851562 C 9.304688 6.464844 8.578125 6.089844 8.125 5.949219 C 8.070312 5.933594 7.996094 5.90625 7.957031 5.890625 C 7.917969 5.875 7.824219 5.847656 7.753906 5.832031 C 7.679688 5.816406 7.597656 5.792969 7.570312 5.78125 C 7.511719 5.753906 7.335938 5.71875 7.128906 5.6875 C 7.042969 5.675781 6.921875 5.65625 6.863281 5.644531 C 6.804688 5.628906 6.621094 5.613281 6.457031 5.605469 C 6.289062 5.597656 6.128906 5.585938 6.097656 5.582031 C 6.0625 5.578125 5.878906 5.582031 5.6875 5.59375 M 4.21875 5.824219 C 4.207031 5.832031 4.160156 5.847656 4.109375 5.855469 C 3.988281 5.882812 3.519531 6.046875 3.492188 6.074219 C 3.480469 6.085938 3.457031 6.097656 3.4375 6.097656 C 3.394531 6.097656 2.832031 6.371094 2.699219 6.453125 C 2.554688 6.546875 2.515625 6.570312 2.4375 6.617188 C 1.917969 6.902344 1.0625 7.773438 0.707031 8.371094 C 0.695312 8.394531 0.664062 8.445312 0.636719 8.484375 C 0.609375 8.523438 0.558594 8.609375 0.527344 8.675781 C 0.492188 8.742188 0.453125 8.820312 0.4375 8.84375 C 0.40625 8.902344 0.304688 9.121094 0.253906 9.253906 C 0.230469 9.304688 0.203125 9.371094 0.191406 9.394531 C 0.140625 9.523438 0.046875 9.8125 0.046875 9.859375 C 0.046875 9.886719 0.0390625 9.914062 0.0234375 9.925781 C -0.00390625 9.941406 -0.0078125 10.007812 0.0195312 10.007812 C 0.03125 10.007812 0.0507812 9.96875 0.0585938 9.917969 C 0.09375 9.726562 0.292969 9.203125 0.460938 8.867188 C 0.988281 7.800781 1.941406 6.851562 3.023438 6.3125 C 3.355469 6.148438 3.871094 5.949219 4.246094 5.847656 C 4.355469 5.820312 4.367188 5.8125 4.304688 5.808594 C 4.265625 5.808594 4.226562 5.816406 4.21875 5.824219 M 5.675781 9.347656 C 4.957031 9.441406 4.414062 9.765625 4.035156 10.324219 C 3.84375 10.613281 3.671875 11.097656 3.675781 11.339844 C 3.675781 11.40625 3.691406 11.367188 3.71875 11.207031 C 3.761719 10.96875 3.839844 10.722656 3.917969 10.585938 C 3.945312 10.539062 3.988281 10.460938 4.011719 10.414062 C 4.253906 9.953125 4.785156 9.585938 5.46875 9.40625 C 5.75 9.335938 6.660156 9.367188 6.78125 9.457031 C 6.792969 9.464844 6.847656 9.488281 6.898438 9.503906 C 7.109375 9.566406 7.691406 9.894531 7.773438 9.996094 C 7.792969 10.015625 7.816406 10.03125 7.828125 10.03125 C 7.878906 10.03125 8.566406 10.683594 8.902344 11.050781 C 9.082031 11.246094 9.460938 11.703125 9.476562 11.738281 C 9.511719 11.832031 8.457031 12.90625 7.980469 13.257812 C 7.863281 13.347656 7.652344 13.488281 7.640625 13.488281 C 7.636719 13.488281 7.574219 13.523438 7.507812 13.566406 C 7.351562 13.660156 7.289062 13.691406 6.972656 13.824219 C 6.945312 13.835938 6.859375 13.863281 6.78125 13.882812 C 6.699219 13.90625 6.605469 13.933594 6.566406 13.945312 C 6.445312 13.984375 5.617188 13.972656 5.46875 13.929688 C 5.398438 13.910156 5.296875 13.882812 5.242188 13.867188 C 4.78125 13.742188 4.03125 13.183594 4.03125 12.964844 C 4.03125 12.949219 4.023438 12.9375 4.015625 12.933594 C 3.984375 12.917969 3.847656 12.625 3.792969 12.460938 C 3.726562 12.269531 3.675781 11.929688 3.667969 11.652344 L 3.664062 11.4375 L 3.652344 11.617188 C 3.609375 12.550781 4.148438 13.476562 4.902344 13.769531 C 4.957031 13.789062 5.015625 13.816406 5.027344 13.824219 C 5.125 13.890625 5.566406 13.984375 5.855469 14.003906 C 6.113281 14.019531 6.574219 13.988281 6.675781 13.949219 C 6.707031 13.933594 6.785156 13.90625 6.851562 13.886719 C 7.339844 13.734375 7.800781 13.46875 8.292969 13.046875 C 8.675781 12.71875 9.527344 11.820312 9.527344 11.742188 C 9.527344 11.703125 9.382812 11.527344 8.863281 10.9375 C 8.582031 10.617188 7.953125 10.039062 7.800781 9.960938 C 7.765625 9.941406 7.703125 9.894531 7.65625 9.855469 C 7.574219 9.789062 7.242188 9.597656 7.042969 9.503906 C 6.722656 9.355469 6.144531 9.289062 5.675781 9.347656 M 17.386719 9.347656 C 17.269531 9.367188 17.140625 9.390625 17.101562 9.40625 L 17.027344 9.429688 L 17.113281 9.421875 C 17.15625 9.414062 17.273438 9.394531 17.363281 9.382812 C 17.613281 9.339844 18.207031 9.371094 18.421875 9.433594 C 18.511719 9.460938 18.609375 9.488281 18.636719 9.496094 C 18.738281 9.523438 19.019531 9.660156 19.082031 9.710938 C 19.101562 9.730469 19.128906 9.742188 19.140625 9.742188 C 19.164062 9.742188 19.1875 9.761719 19.421875 9.960938 C 19.480469 10.011719 19.597656 10.144531 19.679688 10.253906 C 19.808594 10.425781 19.851562 10.5 19.941406 10.714844 C 20 10.851562 20.035156 10.972656 20.0625 11.125 C 20.078125 11.214844 20.101562 11.332031 20.113281 11.378906 C 20.144531 11.492188 20.140625 11.875 20.113281 12.003906 C 20.101562 12.0625 20.074219 12.1875 20.050781 12.289062 C 20.03125 12.386719 20.003906 12.488281 19.992188 12.515625 C 19.910156 12.722656 19.878906 12.789062 19.832031 12.863281 C 19.800781 12.910156 19.777344 12.960938 19.777344 12.976562 C 19.777344 12.996094 19.765625 13.007812 19.757812 13.007812 C 19.746094 13.007812 19.71875 13.042969 19.691406 13.085938 C 19.636719 13.179688 19.445312 13.375 19.296875 13.488281 C 19.238281 13.535156 19.183594 13.578125 19.175781 13.582031 C 19.121094 13.640625 18.734375 13.820312 18.5625 13.867188 C 18.511719 13.882812 18.40625 13.910156 18.332031 13.929688 C 18.175781 13.972656 17.347656 13.984375 17.25 13.945312 C 17.222656 13.933594 17.132812 13.90625 17.050781 13.882812 C 16.972656 13.859375 16.816406 13.796875 16.707031 13.746094 C 16.597656 13.695312 16.503906 13.65625 16.5 13.65625 C 16.484375 13.65625 16.09375 13.414062 16.082031 13.398438 C 16.074219 13.386719 16.015625 13.34375 15.949219 13.300781 C 15.785156 13.199219 15.644531 13.074219 15.265625 12.707031 C 15.074219 12.523438 14.800781 12.234375 14.449219 11.847656 L 14.300781 11.6875 L 14.347656 11.621094 C 14.375 11.585938 14.429688 11.523438 14.46875 11.484375 C 14.511719 11.445312 14.542969 11.40625 14.542969 11.398438 C 14.542969 11.386719 14.578125 11.34375 14.621094 11.300781 C 14.664062 11.253906 14.804688 11.105469 14.929688 10.96875 C 15.253906 10.609375 15.785156 10.113281 15.9375 10.019531 C 15.960938 10.007812 16.046875 9.949219 16.128906 9.894531 C 16.210938 9.835938 16.3125 9.773438 16.351562 9.75 C 16.394531 9.730469 16.433594 9.707031 16.441406 9.699219 C 16.445312 9.691406 16.515625 9.652344 16.597656 9.617188 C 16.675781 9.578125 16.757812 9.539062 16.78125 9.527344 C 16.804688 9.515625 16.839844 9.503906 16.859375 9.503906 C 16.910156 9.503906 17.023438 9.457031 17.007812 9.441406 C 16.96875 9.402344 16.386719 9.671875 16.152344 9.835938 C 16.09375 9.878906 16 9.941406 15.949219 9.980469 C 15.628906 10.195312 15.015625 10.796875 14.503906 11.398438 C 14.234375 11.710938 14.238281 11.695312 14.386719 11.855469 C 15.171875 12.707031 15.472656 13 15.875 13.308594 C 16.027344 13.425781 16.410156 13.679688 16.4375 13.679688 C 16.457031 13.679688 16.648438 13.765625 16.855469 13.875 C 16.90625 13.898438 16.976562 13.921875 17.011719 13.921875 C 17.046875 13.921875 17.128906 13.9375 17.195312 13.957031 C 17.601562 14.089844 18.457031 13.984375 18.9375 13.75 C 19.980469 13.238281 20.464844 11.835938 19.980469 10.742188 C 19.949219 10.664062 19.921875 10.589844 19.921875 10.578125 C 19.921875 10.523438 19.644531 10.144531 19.503906 10.003906 C 18.988281 9.484375 18.1875 9.238281 17.386719 9.347656 M 23.96875 12.785156 C 23.960938 12.792969 23.953125 12.820312 23.953125 12.847656 C 23.953125 12.949219 23.84375 13.359375 23.730469 13.691406 C 23.65625 13.910156 23.472656 14.351562 23.398438 14.484375 C 23.378906 14.523438 23.328125 14.609375 23.292969 14.675781 C 22.695312 15.757812 21.460938 16.808594 20.339844 17.195312 C 20.273438 17.21875 20.199219 17.246094 20.171875 17.257812 C 20.144531 17.265625 20.082031 17.292969 20.027344 17.3125 C 19.976562 17.332031 19.949219 17.351562 19.96875 17.351562 C 20.070312 17.355469 20.996094 16.960938 21.035156 16.898438 C 21.042969 16.882812 21.070312 16.871094 21.097656 16.871094 C 21.125 16.871094 21.144531 16.859375 21.144531 16.847656 C 21.144531 16.835938 21.160156 16.824219 21.175781 16.824219 C 21.195312 16.824219 21.269531 16.78125 21.34375 16.726562 C 21.421875 16.675781 21.488281 16.632812 21.496094 16.632812 C 21.566406 16.632812 22.210938 16.09375 22.464844 15.828125 C 22.839844 15.429688 23.152344 15.003906 23.351562 14.628906 C 23.386719 14.5625 23.429688 14.484375 23.441406 14.460938 C 23.476562 14.394531 23.59375 14.144531 23.636719 14.039062 C 23.65625 13.992188 23.679688 13.9375 23.691406 13.914062 C 23.703125 13.890625 23.710938 13.855469 23.710938 13.835938 C 23.710938 13.816406 23.730469 13.761719 23.75 13.710938 C 23.8125 13.570312 23.828125 13.527344 23.839844 13.464844 C 23.847656 13.429688 23.871094 13.339844 23.894531 13.261719 C 23.929688 13.128906 23.949219 13.039062 23.992188 12.835938 C 24.003906 12.769531 24 12.753906 23.96875 12.785156 M 0 13.332031 C 0 13.347656 0.0117188 13.371094 0.0234375 13.378906 C 0.0390625 13.386719 0.046875 13.417969 0.046875 13.449219 C 0.046875 13.476562 0.0703125 13.558594 0.0976562 13.632812 C 0.125 13.703125 0.15625 13.789062 0.164062 13.824219 C 0.167969 13.855469 0.199219 13.929688 0.230469 13.988281 C 0.261719 14.046875 0.289062 14.109375 0.289062 14.125 C 0.289062 14.144531 0.316406 14.207031 0.347656 14.269531 C 0.382812 14.332031 0.40625 14.390625 0.40625 14.398438 C 0.40625 14.445312 0.726562 14.972656 0.894531 15.203125 C 1.148438 15.550781 1.597656 16.03125 1.882812 16.261719 C 1.949219 16.3125 2.007812 16.363281 2.011719 16.375 C 2.015625 16.382812 2.035156 16.390625 2.050781 16.390625 C 2.070312 16.390625 2.085938 16.398438 2.09375 16.410156 C 2.101562 16.433594 2.363281 16.632812 2.386719 16.632812 C 2.394531 16.632812 2.4375 16.65625 2.480469 16.683594 C 2.519531 16.714844 2.585938 16.757812 2.621094 16.78125 C 2.707031 16.839844 3.207031 17.09375 3.3125 17.136719 C 3.359375 17.152344 3.429688 17.179688 3.46875 17.199219 C 3.507812 17.214844 3.59375 17.246094 3.660156 17.269531 C 3.726562 17.289062 3.800781 17.320312 3.828125 17.328125 C 3.902344 17.363281 4.226562 17.453125 4.308594 17.464844 C 4.386719 17.472656 4.292969 17.441406 4.007812 17.355469 C 3.574219 17.222656 2.902344 16.929688 2.65625 16.765625 C 2.613281 16.738281 2.519531 16.679688 2.449219 16.632812 C 1.835938 16.261719 1.050781 15.464844 0.699219 14.855469 C 0.390625 14.328125 0.179688 13.851562 0.0820312 13.46875 C 0.0429688 13.3125 0 13.242188 0 13.332031 M 11.421875 15.027344 C 10.003906 16.4375 8.789062 17.199219 7.5 17.484375 C 7.164062 17.558594 7.0625 17.589844 7.132812 17.589844 C 7.246094 17.59375 7.917969 17.417969 8.148438 17.328125 C 8.175781 17.316406 8.289062 17.273438 8.398438 17.230469 C 8.625 17.144531 9.222656 16.84375 9.289062 16.789062 C 9.308594 16.769531 9.335938 16.753906 9.347656 16.753906 C 9.359375 16.753906 9.402344 16.726562 9.445312 16.691406 C 9.488281 16.660156 9.53125 16.632812 9.539062 16.632812 C 9.554688 16.632812 9.640625 16.570312 10.054688 16.277344 C 10.152344 16.207031 10.46875 15.957031 10.574219 15.867188 C 10.625 15.816406 10.746094 15.714844 10.835938 15.636719 C 10.925781 15.558594 11.199219 15.292969 11.441406 15.054688 C 11.683594 14.8125 11.886719 14.617188 11.886719 14.617188 C 11.890625 14.617188 12.132812 14.851562 12.421875 15.140625 C 13.011719 15.730469 13.945312 16.511719 14.054688 16.511719 C 14.0625 16.511719 14.101562 16.539062 14.144531 16.570312 C 14.304688 16.691406 14.855469 16.984375 15.203125 17.136719 C 15.269531 17.164062 15.34375 17.195312 15.371094 17.207031 C 15.398438 17.21875 15.472656 17.246094 15.539062 17.269531 C 15.605469 17.292969 15.671875 17.320312 15.683594 17.328125 C 15.695312 17.335938 15.785156 17.363281 15.875 17.386719 C 15.96875 17.410156 16.066406 17.4375 16.09375 17.449219 C 16.117188 17.460938 16.195312 17.480469 16.261719 17.496094 C 16.324219 17.507812 16.449219 17.535156 16.53125 17.554688 C 16.617188 17.574219 16.710938 17.589844 16.746094 17.589844 C 16.820312 17.585938 16.832031 17.589844 16.453125 17.507812 C 15.84375 17.378906 15.019531 17.0625 14.648438 16.820312 C 14.558594 16.757812 14.433594 16.683594 14.375 16.65625 C 14.277344 16.605469 14.164062 16.53125 13.667969 16.183594 C 13.503906 16.074219 13.367188 15.960938 13.046875 15.675781 C 12.816406 15.46875 12.167969 14.832031 12.035156 14.679688 L 11.914062 14.539062 L 11.421875 15.027344 M 19.738281 17.394531 C 19.675781 17.414062 19.5 17.457031 19.355469 17.488281 C 19.210938 17.519531 19.046875 17.554688 18.996094 17.566406 L 18.898438 17.589844 L 19.007812 17.578125 C 19.066406 17.574219 19.195312 17.550781 19.296875 17.53125 C 19.394531 17.511719 19.515625 17.488281 19.566406 17.480469 C 19.617188 17.472656 19.664062 17.457031 19.671875 17.445312 C 19.675781 17.433594 19.707031 17.421875 19.734375 17.421875 C 19.765625 17.421875 19.820312 17.40625 19.859375 17.390625 C 19.953125 17.347656 19.890625 17.347656 19.738281 17.394531 M 4.398438 17.488281 C 4.414062 17.503906 4.746094 17.570312 4.882812 17.582031 C 4.976562 17.589844 4.972656 17.589844 4.859375 17.558594 C 4.617188 17.496094 4.367188 17.457031 4.398438 17.488281 M 5.074219 17.621094 C 5.179688 17.660156 6.84375 17.660156 6.972656 17.621094 C 7.054688 17.597656 7.035156 17.597656 6.839844 17.609375 C 6.546875 17.632812 5.527344 17.632812 5.230469 17.609375 C 5.050781 17.597656 5.019531 17.597656 5.074219 17.621094 M 16.90625 17.621094 C 17.039062 17.660156 18.699219 17.660156 18.804688 17.621094 C 18.859375 17.601562 18.832031 17.597656 18.660156 17.609375 C 18.378906 17.632812 17.304688 17.632812 17.027344 17.609375 C 16.839844 17.597656 16.824219 17.597656 16.90625 17.621094 "/>
</g>
</svg>
