<svg width="20" height="20" viewBox="0 0 20 20" fill="none" xmlns="http://www.w3.org/2000/svg">
<path fill-rule="evenodd" clip-rule="evenodd" d="M6.29303 4.30068C7.41208 2.7134 8.8101 2.45913 10.7184 3.53989L10.7764 3.57305L16.2875 6.75489L17.4143 4.80327L19.1218 5.78911L15.4912 12.0774L13.7837 11.0916L15.2973 8.47002L9.78617 5.28818C8.25656 4.40507 7.84995 5.30364 6.93823 7.06956L6.91045 7.12334L6.9044 7.11988L6.85609 7.20357L5.17681 6.23404L6.29303 4.30068ZM4.58345 7.031L6.29098 8.01684L4.77741 10.6384L10.2885 13.8203C11.8181 14.7034 12.2247 13.8048 13.1364 12.0389L13.1642 11.9851L13.1703 11.9886L13.2186 11.9049L14.8979 12.8744L13.7816 14.8078C12.6626 16.3951 11.2646 16.6493 9.35626 15.5686L9.29828 15.5354L3.78718 12.3536L2.66041 14.3052L0.952881 13.3193L4.58345 7.031Z" fill="#D30602"/>
</svg>
