<svg width="20" height="20" viewBox="0 0 20 20" fill="none" xmlns="http://www.w3.org/2000/svg">
<path d="M6.50904 9.48656C6.50904 9.68411 6.53033 9.84429 6.5676 9.96176C6.61016 10.0792 6.66338 10.2073 6.73787 10.3462C6.76447 10.3889 6.77513 10.4316 6.77513 10.469C6.77513 10.5224 6.74321 10.5758 6.67401 10.6292L6.33876 10.8534C6.29087 10.8855 6.24297 10.9015 6.20041 10.9015C6.14718 10.9015 6.09399 10.8748 6.04077 10.8267C5.96628 10.7466 5.90242 10.6612 5.84919 10.5758C5.79596 10.485 5.74277 10.3836 5.68421 10.2607C5.26914 10.752 4.74764 10.9976 4.11973 10.9976C3.67272 10.9976 3.31617 10.8694 3.05544 10.6131C2.79467 10.3569 2.66162 10.0151 2.66162 9.588C2.66162 9.13417 2.82127 8.76574 3.14589 8.48812C3.47051 8.21046 3.90152 8.07165 4.44965 8.07165C4.63059 8.07165 4.81683 8.08765 5.0137 8.11436C5.21061 8.14106 5.41282 8.18376 5.62569 8.23183V7.84207C5.62569 7.43627 5.54053 7.15329 5.37559 6.98777C5.20528 6.82226 4.91792 6.74215 4.50817 6.74215C4.32193 6.74215 4.13036 6.76352 3.93345 6.81156C3.73658 6.85963 3.545 6.91837 3.35876 6.99311C3.27361 7.03048 3.20975 7.05185 3.17249 7.06251C3.13526 7.07321 3.10863 7.07855 3.08737 7.07855C3.01284 7.07855 2.97561 7.02514 2.97561 6.91304V6.65138C2.97561 6.56598 2.98624 6.5019 3.01284 6.46454C3.03947 6.42713 3.08737 6.38976 3.16185 6.35239C3.3481 6.25629 3.5716 6.17621 3.83236 6.11214C4.09309 6.0427 4.36982 6.01067 4.66252 6.01067C5.29577 6.01067 5.75874 6.15485 6.05673 6.44317C6.34939 6.73149 6.4984 7.16932 6.4984 7.75663V9.48656H6.50904ZM4.34853 10.2981C4.52414 10.2981 4.70508 10.2661 4.89665 10.202C5.08823 10.1379 5.2585 10.0205 5.40219 9.86032C5.48734 9.75885 5.5512 9.64674 5.58313 9.5186C5.61506 9.39045 5.63632 9.23561 5.63632 9.05406V8.82981C5.48201 8.79244 5.31703 8.7604 5.14675 8.73907C4.97648 8.7177 4.8115 8.70704 4.64655 8.70704C4.29 8.70704 4.02924 8.77644 3.85363 8.92058C3.67802 9.06476 3.5929 9.26764 3.5929 9.5346C3.5929 9.78555 3.65675 9.97243 3.78977 10.1006C3.91748 10.234 4.10376 10.2981 4.34853 10.2981ZM8.62165 10.8748C8.5259 10.8748 8.46204 10.8588 8.41944 10.8214C8.37688 10.7894 8.33962 10.7146 8.30769 10.6131L7.05716 6.48587C7.02523 6.3791 7.00927 6.30969 7.00927 6.27232C7.00927 6.18688 7.05183 6.13881 7.13699 6.13881H7.65848C7.7596 6.13881 7.82876 6.15485 7.86602 6.19221C7.90858 6.22425 7.94051 6.29899 7.97244 6.40046L8.86645 9.93506L9.69661 6.40046C9.7232 6.29366 9.75513 6.22425 9.79773 6.19221C9.84029 6.16018 9.91478 6.13881 10.0106 6.13881H10.4363C10.5374 6.13881 10.6066 6.15485 10.6491 6.19221C10.6917 6.22425 10.729 6.29899 10.7503 6.40046L11.5911 9.97776L12.5117 6.40046C12.5436 6.29366 12.5808 6.22425 12.6181 6.19221C12.6606 6.16018 12.7298 6.13881 12.8256 6.13881H13.3205C13.4057 6.13881 13.4536 6.18155 13.4536 6.27232C13.4536 6.29899 13.4482 6.32569 13.4429 6.35773C13.4376 6.38976 13.4269 6.4325 13.4057 6.4912L12.1232 10.6185C12.0912 10.7253 12.054 10.7947 12.0114 10.8267C11.9689 10.8588 11.8997 10.8801 11.8092 10.8801H11.3516C11.2505 10.8801 11.1813 10.8641 11.1387 10.8267C11.0962 10.7894 11.0589 10.72 11.0376 10.6131L10.2128 7.16932L9.39328 10.6078C9.36669 10.7146 9.33476 10.784 9.29216 10.8214C9.2496 10.8588 9.17511 10.8748 9.07932 10.8748H8.62165ZM15.4597 11.0189C15.183 11.0189 14.9063 10.9869 14.6402 10.9228C14.3742 10.8588 14.1666 10.7894 14.0283 10.7093C13.9431 10.6612 13.8846 10.6078 13.8633 10.5598C13.842 10.5117 13.8314 10.4583 13.8314 10.4103V10.1379C13.8314 10.0258 13.8739 9.97243 13.9538 9.97243C13.9857 9.97243 14.0176 9.97776 14.0496 9.98846C14.0815 9.99913 14.1294 10.0205 14.1826 10.0418C14.3635 10.1219 14.5604 10.186 14.768 10.2287C14.9808 10.2715 15.1883 10.2928 15.4012 10.2928C15.7365 10.2928 15.9972 10.234 16.1781 10.1166C16.3591 9.99913 16.4549 9.82829 16.4549 9.60937C16.4549 9.45986 16.407 9.33705 16.3112 9.23561C16.2154 9.13417 16.0345 9.04339 15.7737 8.95795L15.0021 8.7177C14.6136 8.59489 14.3263 8.41335 14.1507 8.17309C13.9751 7.93818 13.8846 7.67652 13.8846 7.3989C13.8846 7.17465 13.9325 6.97711 14.0283 6.80623C14.124 6.63538 14.2518 6.48587 14.4114 6.36843C14.571 6.24562 14.752 6.15485 14.9648 6.09077C15.1777 6.0267 15.4012 6 15.6353 6C15.7524 6 15.8748 6.00533 15.9919 6.02137C16.1143 6.03737 16.226 6.05874 16.3378 6.08011C16.4442 6.10677 16.5453 6.13348 16.6411 6.16551C16.7369 6.19755 16.8114 6.22958 16.8646 6.26162C16.9391 6.30436 16.9923 6.34706 17.0243 6.3951C17.0562 6.43783 17.0721 6.49657 17.0721 6.57131V6.82226C17.0721 6.93437 17.0296 6.99311 16.9498 6.99311C16.9072 6.99311 16.838 6.97174 16.7475 6.92904C16.4442 6.79023 16.1036 6.72082 15.7258 6.72082C15.4225 6.72082 15.183 6.76886 15.0181 6.8703C14.8531 6.97174 14.768 7.12658 14.768 7.3455C14.768 7.49501 14.8212 7.62316 14.9276 7.7246C15.034 7.82604 15.2309 7.92748 15.513 8.01825L16.2686 8.25854C16.6517 8.38131 16.9285 8.55219 17.0934 8.77111C17.2584 8.98999 17.3382 9.24094 17.3382 9.5186C17.3382 9.74818 17.2903 9.95643 17.1999 10.1379C17.1041 10.3195 16.9764 10.4797 16.8114 10.6078C16.6464 10.7413 16.4495 10.8374 16.2207 10.9068C15.9813 10.9816 15.7311 11.0189 15.4597 11.0189Z" fill="#FF9900"/>
<path fill-rule="evenodd" clip-rule="evenodd" d="M16.4654 13.6137C14.7147 14.9111 12.171 15.5999 9.9839 15.5999C6.91874 15.5999 4.15688 14.4626 2.07088 12.5725C1.90592 12.423 2.05492 12.2201 2.25181 12.3376C4.5081 13.651 7.29123 14.4466 10.1701 14.4466C12.1125 14.4466 14.2464 14.0408 16.21 13.2079C16.5027 13.0744 16.7528 13.4001 16.4654 13.6137Z" fill="#FF9900"/>
<path fill-rule="evenodd" clip-rule="evenodd" d="M17.1941 12.7808C16.9706 12.4925 15.7147 12.642 15.1454 12.7114C14.9751 12.7328 14.9485 12.5833 15.1028 12.4711C16.1032 11.7664 17.7475 11.9693 17.9391 12.2042C18.1307 12.4444 17.8859 14.0943 16.9493 14.8845C16.8057 15.0073 16.6673 14.9433 16.7311 14.7831C16.944 14.2545 17.4176 13.0638 17.1941 12.7808Z" fill="#FF9900"/>
</svg>
