<?xml version="1.0" encoding="utf-8"?>
<!-- Generator: Adobe Illustrator 27.0.0, SVG Export Plug-In . SVG Version: 6.00 Build 0)  -->
	 <svg width="20" height="20" fill="none" xmlns="http://www.w3.org/2000/svg"
   viewBox="0 0 300 300" style="enable-background:new 0 0 300 300;">
<style type="text/css">
	.st0{fill:#19E57F;}
</style>
<g>
	<path class="st0" d="M260.8,63.8l-91.6-52.9c-11.9-6.9-26.5-6.9-38.4,0l-91.6,52.9c-11.9,6.9-19.2,19.5-19.2,33.2v105.8
		c0,13.7,7.3,26.4,19.2,33.2l91.6,52.9c11.9,6.9,26.5,6.9,38.4,0l91.6-52.9c11.9-6.9,19.2-19.5,19.2-33.2V97
		C279.9,83.3,272.6,70.7,260.8,63.8z M62.6,214.5c-3.9,0-7.7-1.3-10.9-4.1c-6.9-6-7.7-16.5-1.7-23.4l87.4-100.9
		c6-6.9,16.5-7.7,23.4-1.7c6.9,6,7.7,16.5,1.7,23.4l-87.4,100.9C71.9,212.6,67.2,214.5,62.6,214.5z M248.2,210.5
		c-3.1,2.7-7,4-10.8,4c-4.7,0-9.3-2-12.6-5.8L183,159.8l-41.8,48.9c-3.3,3.8-7.9,5.8-12.6,5.8c-3.8,0-7.6-1.3-10.8-4
		c-7-6-7.8-16.4-1.8-23.4l54.2-63.3l0.3-0.3c0.2-0.2,0.4-0.5,0.6-0.7c0.2-0.2,0.4-0.4,0.7-0.7c0.2-0.2,0.4-0.4,0.7-0.6
		c0,0,0,0,0.1-0.1c0.2-0.1,0.4-0.3,0.6-0.4c0.4-0.3,0.8-0.6,1.2-0.8c0.1-0.1,0.3-0.2,0.5-0.3c0.3-0.2,0.6-0.3,0.9-0.5
		c0.2-0.1,0.4-0.2,0.6-0.3c0.3-0.1,0.5-0.2,0.8-0.3c0,0,0.1,0,0.1,0c0.2-0.1,0.5-0.2,0.8-0.3c0.2-0.1,0.4-0.1,0.5-0.2
		c0.1,0,0.2-0.1,0.4-0.1c0.3-0.1,0.6-0.1,0.8-0.2c0.3-0.1,0.5-0.1,0.8-0.2c0,0,0.1,0,0.1,0c0.2,0,0.4-0.1,0.6-0.1c0.1,0,0.2,0,0.3,0
		c0.1,0,0.3,0,0.4,0c0.2,0,0.3,0,0.5,0c0.5,0,1,0,1.4,0c0.2,0,0.3,0,0.5,0c0.1,0,0.3,0,0.4,0c0.1,0,0.1,0,0.2,0
		c0.2,0,0.5,0.1,0.8,0.1c0.3,0,0.6,0.1,0.9,0.2c0.4,0.1,0.7,0.2,1.1,0.3c0.2,0.1,0.4,0.1,0.6,0.2c0.3,0.1,0.6,0.2,0.8,0.3
		c0.5,0.2,1.1,0.5,1.6,0.7c0.2,0.1,0.5,0.2,0.7,0.4c0.2,0.1,0.3,0.2,0.5,0.3c0.4,0.2,0.8,0.5,1.2,0.8c0.2,0.2,0.4,0.3,0.6,0.5
		c0.2,0.2,0.5,0.4,0.7,0.6c0.2,0.2,0.4,0.4,0.7,0.7c0.2,0.2,0.4,0.5,0.6,0.7l0.3,0.3l54.2,63.3C256,194.1,255.2,204.6,248.2,210.5z"
		/>
</g>
</svg>
