<svg width="20" height="20" viewBox="0 0 20 20" fill="none" xmlns="http://www.w3.org/2000/svg">
<mask id="mask0_3443_1174" style="mask-type:luminance" maskUnits="userSpaceOnUse" x="4" y="2" width="12" height="16">
<path d="M4 2H16V18H4V2Z" fill="white"/>
</mask>
<g mask="url(#mask0_3443_1174)">
<path d="M15.9999 5.35986L16 14.6932C15.9743 16.5219 13.3011 17.9999 10.0075 17.9999C6.71386 17.9999 4.04088 16.5219 4.0151 14.6932L4.01489 5.35986C4.04068 7.18851 6.71386 8.66654 10.0075 8.66654C13.3011 8.66654 15.9741 7.18851 15.9999 5.35986Z" fill="url(#paint0_linear_3443_1174)"/>
<path fill-rule="evenodd" clip-rule="evenodd" d="M10.0075 8.66664C6.69789 8.66664 4.01489 7.17429 4.01489 5.33336C4.01489 3.49239 6.69789 2 10.0075 2C13.3171 2 16 3.49239 16 5.33336C16 7.17429 13.3171 8.66664 10.0075 8.66664ZM9.98352 7.04C8.32872 7.04 6.98722 6.2938 6.98722 5.37332C6.98722 4.45284 8.32872 3.70668 9.98352 3.70668C11.6383 3.70668 12.9798 4.45284 12.9798 5.37332C12.9798 6.2938 11.6383 7.04 9.98352 7.04Z" fill="#8D6AF1"/>
<path d="M11.925 13.2995V15.7205C11.925 15.857 12.0576 15.9426 12.1641 15.8749L13.858 14.798C13.9078 14.7664 13.9385 14.7075 13.9385 14.6437V9.4095C13.9385 9.2709 13.8023 9.18561 13.6958 9.25754L10.1133 11.6782C10.0629 11.7122 9.99967 11.7126 9.94886 11.6791L6.26962 9.25266C6.1631 9.18241 6.02832 9.26781 6.02832 9.40559V14.7459C6.02832 14.8121 6.0613 14.8728 6.11397 14.9034L7.80789 15.8905C7.91428 15.9525 8.04182 15.8667 8.04182 15.733V13.2918C8.04182 13.1556 8.17385 13.07 8.28038 13.1371L9.95064 14.1893C10.0006 14.2208 10.0618 14.22 10.1111 14.1874L11.6835 13.1467C11.79 13.0762 11.925 13.1616 11.925 13.2995Z" fill="white"/>
</g>
<defs>
<linearGradient id="paint0_linear_3443_1174" x1="10.0075" y1="6.79986" x2="10.0075" y2="17.9999" gradientUnits="userSpaceOnUse">
<stop stop-color="#35198E"/>
<stop offset="1" stop-color="#8D6AF1"/>
</linearGradient>
</defs>
</svg>
