<svg xmlns="http://www.w3.org/2000/svg" width="20px" height="20px" viewBox="0 0 10240 10240"><path d="M5120 640a4480 4480 0 10 0 8960 4480 4480 0 00 0-8960m2270 3850c-10 50-30 110-70 180v10c-210 430-730 1280-730 1280l-10-10-150 270h740L5750 8100l320-1280h-580l200-850-590 170s-310 180-900-350c0 0-390-350-160-430 90-40 470-90 770-130l640-80s-1230 20-1520-20c-300-50-670-540-750-960 0 0-120-240 270-130s1980 440 1980 440-2080-640-2220-790-400-840-370-1270c0 0 20-100 130-70 0 0 1530 690 2580 1080 1050 380 1960 570 1840 1060" fill="#1296DB"/></svg>
