<svg width="20" height="20" viewBox="0 0 20 20" fill="none" xmlns="http://www.w3.org/2000/svg">
<path d="M10 2.5C14.14 2.5 17.5 5.86 17.5 10C17.5 14.14 14.14 17.5 10 17.5C5.86 17.5 2.5 14.14 2.5 10C2.5 5.86 5.86 2.5 10 2.5ZM10 4.48C6.94 4.48 4.48 6.94 4.48 10C4.48 13.06 6.94 15.52 10 15.52C13.06 15.52 15.52 13.06 15.52 10C15.52 6.94 13.06 4.48 10 4.48ZM11.86 10.3C12.7216 10.3 13.42 10.9984 13.42 11.86C13.42 12.7216 12.7216 13.42 11.86 13.42C10.9984 13.42 10.3 12.7216 10.3 11.86C10.3 10.9984 10.9984 10.3 11.86 10.3ZM8.14 10.3C9.00156 10.3 9.7 10.9984 9.7 11.86C9.7 12.7216 9.00156 13.42 8.14 13.42C7.27844 13.42 6.58 12.7216 6.58 11.86C6.58 10.9984 7.27844 10.3 8.14 10.3ZM11.86 6.58C12.7216 6.58 13.42 7.27844 13.42 8.14C13.42 9.00156 12.7216 9.7 11.86 9.7C10.9984 9.7 10.3 9.00156 10.3 8.14C10.3 7.27844 10.9984 6.58 11.86 6.58ZM8.14 6.58C9.00156 6.58 9.7 7.27844 9.7 8.14C9.7 9.00156 9.00156 9.7 8.14 9.7C7.27844 9.7 6.58 9.00156 6.58 8.14C6.58 7.27844 7.27844 6.58 8.14 6.58Z" fill="#F12E45"/>
</svg>
