<svg width="20" height="20" viewBox="0 0 20 20" fill="none" xmlns="http://www.w3.org/2000/svg">
<path d="M12.7123 13.7036C11.8281 14.3502 10.7419 14.6593 9.64972 14.5751C8.5576 14.4908 7.53162 14.0188 6.75705 13.2443C5.98248 12.4697 5.51048 11.4437 5.42623 10.3516C5.34202 9.25949 5.65111 8.17326 6.29772 7.28913L7.73061 8.72261C7.45154 9.21818 7.34236 9.79145 7.41962 10.3549C7.49692 10.9184 7.7565 11.441 8.15869 11.8432C8.56088 12.2453 9.08362 12.5048 9.64711 12.582C10.2106 12.6592 10.7839 12.5499 11.2794 12.2707L12.7123 13.7036ZM5.29713 13.7127C4.3864 12.5608 3.93044 11.1144 4.01587 9.64842C4.1013 8.18244 4.72214 6.79886 5.76055 5.7605C6.79895 4.7221 8.18252 4.10126 9.64855 4.01583C11.1146 3.9304 12.5609 4.38635 13.7129 5.29709L15.1397 3.87031C13.6069 2.58475 11.648 1.92017 9.64943 2.00766C7.65082 2.09515 5.75751 2.92833 4.34295 4.3429C2.92833 5.75747 2.09515 7.65073 2.00766 9.6493C1.92017 11.6479 2.58475 13.6067 3.87031 15.1395L5.29713 13.7127ZM10.0008 5.41183C9.02535 5.40909 8.07486 5.71962 7.28922 6.29764L8.72269 7.73052C9.32509 7.39212 10.0371 7.30631 10.7026 7.49191L11.4658 5.64985C10.9936 5.49153 10.4988 5.41115 10.0008 5.41183ZM15.9509 9.2824C16.0762 10.3248 15.9256 11.3818 15.5141 12.3477C15.1025 13.3136 14.4445 14.1544 13.6059 14.7861C12.7673 15.4178 11.7775 15.8181 10.7355 15.947C9.69351 16.076 8.636 15.929 7.66867 15.5208C7.1741 15.3121 6.71006 15.0374 6.28922 14.7042L4.86181 16.1309C6.02863 17.1091 7.45031 17.7339 8.95996 17.932C10.4696 18.1301 12.0043 17.8933 13.384 17.2493C14.7637 16.6053 15.9309 15.581 16.7486 14.2967C17.5663 13.0124 18.0004 11.5213 18 9.99882C18 9.75595 17.9895 9.51654 17.9684 9.28054L15.9509 9.2824ZM14.538 9.29936H10.9965C10.7324 9.29936 10.4791 9.40429 10.2924 9.59103C10.1056 9.77776 10.0008 10.031 10.0008 10.2951C10.0008 10.5592 10.1056 10.8124 10.2924 10.9992C10.4791 11.1859 10.7324 11.2908 10.9965 11.2908H12.2824L13.7038 12.7121C14.1403 12.1195 14.4262 11.4296 14.5368 10.7019C14.6072 10.237 14.6072 9.76421 14.5368 9.29936H14.538Z" fill="#FF6310"/>
</svg>
