<svg width="20" height="20" viewBox="0 0 20 20" fill="none" xmlns="http://www.w3.org/2000/svg">
<path d="M9.2978 2C5.26741 2 2 5.26741 2 9.29811C2 13.3285 5.26741 16.5959 9.2978 16.5959C13.3282 16.5959 16.5953 13.3285 16.5953 9.29811C16.5953 5.26741 13.3279 2 9.2978 2ZM9.2978 14.8352C6.23961 14.8352 3.76034 12.356 3.76034 9.2978C3.76034 6.23961 6.23961 3.76066 9.2978 3.76066C12.356 3.76066 14.8353 6.23993 14.8353 9.29811C14.8353 12.3563 12.356 14.8352 9.2978 14.8352Z" fill="#4285F4"/>
<path d="M5.83374 9.01631V11.2848C6.16938 11.861 6.64292 12.3448 7.21181 12.6927V9.01631H5.83374ZM8.56628 7.104V13.2112C8.80068 13.2544 9.04043 13.2805 9.28678 13.2805C9.51143 13.2805 9.73041 13.2569 9.9453 13.221V7.104H8.56628ZM11.4266 9.95894V12.6528C12.0045 12.2853 12.4791 11.7763 12.8053 11.174V9.95925L11.4266 9.95894ZM14.5493 13.7933L13.7932 14.55C13.7292 14.6142 13.6932 14.7011 13.6932 14.7918C13.6932 14.8824 13.7292 14.9694 13.7932 15.0336L16.661 17.9005C16.7252 17.9645 16.8122 18.0005 16.9028 18.0005C16.9935 18.0005 17.0804 17.9645 17.1446 17.9005L17.9007 17.1447C17.9643 17.0804 18 16.9936 18 16.9031C18 16.8126 17.9643 16.7258 17.9007 16.6615L15.0325 13.7933C14.9683 13.7295 14.8814 13.6937 14.7909 13.6937C14.7004 13.6937 14.6135 13.7295 14.5493 13.7933Z" fill="#4285F4"/>
</svg>
