<svg width="20" height="20" viewBox="0 0 20 20" fill="none" xmlns="http://www.w3.org/2000/svg">
<path fill-rule="evenodd" clip-rule="evenodd" d="M7.96484 11.2201L8.53801 15.682C8.28365 15.7178 8.2442 15.7361 7.96617 15.7755C7.72073 14.9095 7.25189 14.3442 6.73929 14.0147C6.28767 13.724 5.66377 13.6587 5.06673 13.7773L5.0283 13.8213C5.44324 13.7781 5.93319 13.8382 6.43688 14.1572C6.93021 14.4692 7.32885 15.2759 7.47519 15.7615C7.66294 16.3822 7.79298 17.046 7.28776 17.7498C6.92478 18.2548 5.85859 18.533 5.00688 17.9121C4.38596 17.4594 4.86239 17.1757 3.62167 16.1458C3.10866 15.7194 3.28985 14.9958 3.59308 14.5387C3.99275 13.7666 6.05596 12.7856 5.93914 11.5511C5.89753 11.1026 5.82579 10.5184 5.40891 10.1179C5.39364 10.2843 5.42141 10.444 5.42141 10.444C5.42141 10.444 5.25058 10.2266 5.16552 9.92859C5.08026 9.81392 5.01426 9.77785 4.92428 9.62546C4.86024 9.80203 4.86884 10.0064 4.86884 10.0064C4.86884 10.0064 4.72845 9.67537 4.70611 9.39663C4.62289 9.52144 4.6023 9.75858 4.6023 9.75858C4.6023 9.75858 4.41999 9.23727 4.46159 8.95637C4.37838 8.71196 4.13243 8.22734 4.20181 7.12589C4.65661 7.44389 5.65629 7.36826 6.04602 6.79437C6.17525 6.60438 6.26369 6.08532 5.98105 5.06248C5.80007 4.40671 5.3507 3.43009 5.17495 3.05952L5.15435 3.07438C5.24617 3.37342 5.43678 3.99874 5.50954 4.30239C5.7309 5.22265 5.79013 5.54269 5.68642 5.96675C5.59798 6.33629 5.38657 6.57681 4.84958 6.84694C4.31289 7.11739 3.60036 6.45896 3.55568 6.42258C3.03426 6.00682 2.63019 5.32943 2.5854 5.00027C2.53867 4.63995 2.79323 4.42362 2.92143 4.1293C2.7381 4.18157 2.53345 4.27462 2.53345 4.27462C2.53345 4.27462 2.77755 4.02211 3.07894 3.80342C3.20407 3.72082 3.27663 3.66856 3.40821 3.55931C3.2178 3.55614 3.06337 3.56136 3.06337 3.56136C3.06337 3.56136 3.38033 3.38981 3.7096 3.26499C3.46877 3.25433 3.2384 3.26315 3.2384 3.26315C3.2384 3.26315 3.94704 2.94618 4.50658 2.71427C4.89118 2.55645 5.26667 2.60298 5.47808 2.90826C5.75508 3.30783 6.04653 3.52529 6.66336 3.65964C7.04284 3.49168 7.15751 3.4059 7.63363 3.27585C8.05277 2.81542 8.38172 2.75588 8.38172 2.75588C8.38172 2.75588 8.21848 2.90509 8.17502 3.14068C8.41267 2.95346 8.67297 2.79717 8.67297 2.79717C8.67297 2.79717 8.57213 2.92179 8.47847 3.11937L8.49978 3.15165C8.77729 2.98522 9.10308 2.85436 9.10308 2.85436C9.10308 2.85436 9.00972 2.97241 8.90047 3.1248C9.10984 3.12296 9.53369 3.13361 9.69827 3.15268C10.6696 3.17348 10.8711 2.11518 11.2438 1.98257C11.7106 1.81563 11.9191 1.715 12.7151 2.49609C13.3974 3.1662 13.931 4.36664 13.6661 4.63493C13.4442 4.85865 13.006 4.54844 12.5208 3.94392C12.2645 3.62357 12.0705 3.24491 11.9794 2.76366C11.9024 2.35774 11.6044 2.12194 11.6044 2.12194C11.6044 2.12194 11.7776 2.50757 11.7776 2.84759C11.7776 3.03308 11.801 3.72728 12.0985 4.117C12.0686 4.17367 12.0551 4.39841 12.0226 4.44176C11.6759 4.02313 10.9319 3.72359 10.811 3.63525C11.2209 3.97138 12.1648 4.74397 12.5273 5.48469C12.8703 6.18493 12.668 6.82717 12.8412 6.99329C12.8906 7.04043 13.579 7.89766 13.711 8.32818C13.9421 9.07894 13.7253 9.86752 13.4227 10.3563L12.5791 10.4879C12.4556 10.4538 12.3726 10.4367 12.2616 10.3727C12.3227 10.2643 12.4436 9.9949 12.4454 9.93956L12.3973 9.85604C12.1346 10.2281 11.6949 10.5893 11.3293 10.7966C10.8511 11.0678 10.2995 11.0258 9.94043 10.9149C8.9221 10.6008 7.95869 9.91271 7.72647 9.73204C7.72647 9.73204 7.7194 9.87633 7.76255 9.90882C8.01977 10.1985 8.6082 10.7219 9.17696 11.0872L7.96484 11.2201ZM11.4385 9.06306C11.8247 9.35143 12.163 9.5446 12.5202 9.49746C12.7392 9.46887 12.9329 9.12157 13.0697 8.80665C13.1636 8.59001 13.1636 8.35574 13.0263 8.27991C12.9571 8.24117 12.6332 8.25624 12.4059 8.28329C11.9729 8.33474 11.5051 8.48497 11.4024 8.5646C11.2162 8.70858 11.3007 8.95955 11.4385 9.06306ZM11.4822 5.55202C11.4991 5.55489 11.5144 5.55776 11.5264 5.56216C11.6671 5.61084 11.5719 5.65921 11.5464 5.71742C11.5217 5.7746 11.4824 5.8118 11.541 5.99719C11.5423 6.00088 11.5433 6.00426 11.5446 6.00815C11.5475 6.01512 11.5511 6.02394 11.554 6.03183C11.561 6.04945 11.5685 6.06718 11.5782 6.08716C11.6847 6.30432 11.801 6.50866 11.9958 6.61288C12.046 6.60489 12.0982 6.59864 12.1518 6.59628C12.3349 6.58819 12.45 6.61708 12.5234 6.65685C12.5302 6.61995 12.5317 6.56687 12.5275 6.48806C12.513 6.21383 12.5821 5.74652 12.0543 5.50088C11.8548 5.40824 11.5753 5.43663 11.4822 5.55202ZM7.9839 7.41868C8.02366 7.45301 8.05717 7.47719 8.08792 7.49748C8.20444 7.44184 8.33807 7.3865 8.49117 7.33679C8.75024 7.25276 8.96555 7.20941 9.14232 7.18625C9.22687 7.09156 9.32566 6.92524 9.30096 6.62354C9.26745 6.21383 8.95694 6.27962 9.19018 6.05755C9.31264 5.94134 8.58197 5.78916 8.01485 6.17581C7.59663 6.4608 7.58341 7.0724 7.9839 7.41868ZM17 15.8005L9.10933 17.2228L8.42702 11.5295L9.55142 11.3751C9.73291 11.4568 9.85958 11.4879 10.078 11.5433C10.4174 11.6317 10.8108 11.7162 11.3925 11.4235C11.5279 11.3561 11.8104 11.0982 11.9242 10.9507L16.5307 10.1158L17 15.8005ZM16.5148 15.3899L16.1073 11.0131L14.9613 13.4165L13.4525 12.4216L12.1939 14.5233L10.7306 14.0956L9.44167 16.0616L9.50797 16.6801L16.5148 15.3899Z" fill="#7D6BCF"/>
</svg>
