<svg width="16" height="16" viewBox="0 0 16 16" fill="none" xmlns="http://www.w3.org/2000/svg">
<path fill-rule="evenodd" clip-rule="evenodd" d="M9.05888 7.0221C8.87043 7.07485 8.67933 7.1283 8.45813 7.1884C8.35008 7.219 8.32548 7.22595 8.22493 7.1037C8.10433 6.9597 8.01588 6.86655 7.84698 6.7818C7.34038 6.5192 6.84983 6.59545 6.39148 6.9089C5.84468 7.2816 5.56323 7.8322 5.57128 8.51835C5.57928 9.19605 6.02158 9.75515 6.65688 9.8483C7.20368 9.92455 7.66203 9.72125 8.02388 9.28925C8.09623 9.1961 8.16063 9.09435 8.24103 8.9758H6.68903C6.52013 8.9758 6.47993 8.8657 6.53623 8.72165C6.64078 8.45905 6.83378 8.0186 6.94633 7.79835C6.97048 7.7475 7.02678 7.6628 7.14738 7.6628H9.73513C9.85138 7.2748 10.04 6.9082 10.2916 6.5613C10.8786 5.74805 11.5863 5.3245 12.5432 5.14665C13.3634 4.99415 14.1354 5.07885 14.835 5.57865C15.4703 6.0361 15.8643 6.65445 15.9688 7.4677C16.1055 8.61125 15.7919 9.5431 15.0441 10.3393C14.5133 10.9069 13.862 11.2627 13.1141 11.4236C12.9715 11.4514 12.8288 11.4646 12.6884 11.4776C12.6152 11.4844 12.5425 11.4911 12.4708 11.4999C11.739 11.4829 11.0716 11.2627 10.5087 10.7544C10.1128 10.3939 9.84018 9.95095 9.70463 9.43525C9.61058 9.63535 9.49813 9.82695 9.36683 10.0092C8.78783 10.814 8.03193 11.3138 7.07503 11.4493C6.28693 11.5594 5.55518 11.3985 4.91186 10.8902C4.3168 10.4158 3.97906 9.789 3.8906 9.0097C3.78606 8.08635 4.04339 7.2562 4.57412 6.5277C5.14508 5.7399 5.90098 5.2401 6.82573 5.0622C7.58163 4.9182 8.30533 5.0114 8.95673 5.4773C9.38288 5.77375 9.68848 6.1804 9.88953 6.6717C9.93778 6.74795 9.90558 6.7903 9.80908 6.8157C9.52728 6.8911 9.29518 6.95605 9.05888 7.0221ZM14.3791 7.987C14.3807 8.01545 14.3823 8.04545 14.3847 8.0776C14.3445 8.8061 13.9987 9.34825 13.3634 9.69555C12.9372 9.92425 12.4949 9.9497 12.0527 9.7464C11.4737 9.4753 11.1681 8.8061 11.3128 8.14535C11.4898 7.3491 11.9722 6.8493 12.7201 6.6714C13.484 6.48505 14.2158 6.9594 14.3606 7.79805C14.3719 7.85805 14.3753 7.918 14.3791 7.987Z" fill="#00ACD7"/>
<path d="M1.2224 6.92584C1.20631 6.95124 1.21435 6.96819 1.24652 6.96819L3.64139 6.97669C3.66552 6.97669 3.70572 6.95124 3.72181 6.92584L3.85851 6.70558C3.87459 6.68019 3.86655 6.65479 3.83439 6.65479H1.47972C1.44756 6.65479 1.40735 6.67174 1.39127 6.69714L1.2224 6.92584Z" fill="#00ACD7"/>
<path d="M0.00804145 7.70513C-0.00804145 7.73053 3.72529e-09 7.74748 0.0321658 7.74748L3.31964 7.73903C3.3518 7.73903 3.38397 7.72208 3.39201 7.68818L3.45635 7.48488C3.46439 7.45948 3.4483 7.43408 3.41614 7.43408H0.265368C0.233202 7.43408 0.192995 7.45098 0.176912 7.47643L0.00804145 7.70513Z" fill="#00ACD7"/>
<path d="M1.95409 8.47598C1.938 8.50138 1.94604 8.52678 1.97821 8.52678L3.21512 8.53528C3.23924 8.53528 3.27141 8.50988 3.27141 8.47598L3.28749 8.27268C3.28749 8.23878 3.27141 8.21338 3.23924 8.21338H2.14708C2.11491 8.21338 2.08275 8.23878 2.06667 8.26418L1.95409 8.47598Z" fill="#00ACD7"/>
</svg>
