<svg width="20" height="20" viewBox="0 0 20 20" fill="none" xmlns="http://www.w3.org/2000/svg">
<path d="M16.5996 2.97642C16.6088 3.17833 16.5541 3.37817 16.4426 3.55054C16.3311 3.72292 16.1672 3.86095 15.9719 3.94611C15.7766 4.03127 15.5584 4.06045 15.3461 4.02955C15.1329 3.99848 14.9346 3.90907 14.7764 3.77271C14.6175 3.63577 14.5056 3.45827 14.4548 3.26245C14.4038 3.06673 14.416 2.86071 14.4898 2.67048C14.5634 2.48128 14.6954 2.31653 14.8694 2.19697C15.0427 2.07783 15.2504 2.00955 15.4657 2.0009C15.7537 1.98957 16.035 2.08571 16.2477 2.26873C16.4604 2.45175 16.5866 2.70619 16.5992 2.97608L16.5996 2.97642Z" fill="#8B8B8B"/>
<path d="M10.2533 13.4008C7.35494 13.4008 4.82394 12.4133 3.50952 10.9512C3.99874 12.2629 4.91108 13.3994 6.1199 14.2039C7.32872 15.0085 8.77347 15.4401 10.2551 15.4401C11.7368 15.4401 13.1819 15.0081 14.3904 14.2039C15.5989 13.3998 16.5108 12.2629 17 10.9512C15.6827 12.4133 13.1517 13.4008 10.2533 13.4008Z" fill="#E27330"/>
<path d="M10.2519 5.47152C13.1502 5.47152 15.6816 6.45941 16.9956 7.92115C16.5064 6.60946 15.5941 5.4729 14.3853 4.66837C13.1764 3.86385 11.7321 3.43188 10.2508 3.43188C8.76945 3.43188 7.32396 3.86385 6.1155 4.66803C4.90705 5.47221 3.99434 6.60912 3.50513 7.92081C4.82213 6.46216 7.3535 5.47152 10.2519 5.47152Z" fill="#E27330"/>
<path d="M6.27444 16.6571C6.28644 16.9113 6.21761 17.1632 6.07654 17.3813C5.93549 17.599 5.72947 17.7727 5.48283 17.8798C5.23619 17.987 4.96593 18.0241 4.69381 17.9849C4.4217 17.9458 4.17543 17.8331 3.97568 17.6608C3.77593 17.4884 3.63526 17.2649 3.57065 17.0173C3.50668 16.7698 3.52235 16.5104 3.61569 16.2711C3.7091 16.0321 3.87599 15.8247 4.09568 15.6737C4.31536 15.5226 4.57677 15.4381 4.84778 15.4278C5.21072 15.4141 5.56406 15.5356 5.83211 15.766C6.10001 15.9974 6.25896 16.3177 6.27444 16.6574V16.6571Z" fill="#8B8B8B"/>
<path d="M3.83991 5.14031C3.68115 5.14718 3.52312 5.10872 3.38688 5.03112C3.25064 4.95351 3.14209 4.83951 3.07489 4.70457C3.00769 4.56962 2.98517 4.41785 3.00954 4.2702C3.03391 4.12255 3.10443 3.98452 3.21224 3.87464C3.32005 3.76476 3.46035 3.68715 3.61469 3.65144C3.76902 3.61573 3.93222 3.62466 4.08175 3.67617C4.23128 3.72767 4.36125 3.81935 4.45466 3.94056C4.56462 4.0818 4.61892 4.25395 4.60843 4.42805C4.59794 4.60215 4.5233 4.76758 4.39706 4.89651C4.25307 5.04417 4.05221 5.13138 3.83954 5.14031H3.83991Z" fill="#8B8B8B"/>
</svg>
