<svg xmlns="http://www.w3.org/2000/svg" width="48" height="48" fill="currentColor"><path fill="url(#i885de9-a)" d="M22.21 32.541c5.486-3.167 7.292-10.312 4.033-15.957-3.26-5.645-10.35-7.654-15.837-4.486S3.113 22.411 6.373 28.056s10.35 7.653 15.836 4.485Z"/><path fill="url(#i885de9-b)" d="M29.371 16.715c2.849-2.85 2.781-7.537-.152-10.468-2.932-2.932-7.62-2.998-10.468-.148-2.849 2.85-2.78 7.536.152 10.468 2.933 2.931 7.62 2.998 10.468.148"/><path fill="url(#i885de9-c)" d="M26.299 43.22c9.487 0 17.178-7.692 17.178-17.18S35.787 8.862 26.299 8.862 9.12 16.553 9.12 26.041s7.691 17.178 17.179 17.178Z"/><path fill="url(#i885de9-d)" fill-rule="evenodd" d="M19.569 5.387c-10.085 6.23-13.61 19.35-7.815 29.845q.585 1.067 1.274 2.039l.45.069 9.966 3.327 9.468-6.343c-1.585.05-8.18-3.693-12.49-11.872-5.4-10.248-3.173-14.982-.843-17.065z" clip-rule="evenodd"/><path fill="url(#i885de9-e)" fill-opacity=".2" fill-rule="evenodd" d="M19.569 5.387c-10.085 6.23-13.61 19.35-7.815 29.845q.585 1.067 1.274 2.039l.45.069 9.966 3.327 9.468-6.343c-1.585.05-8.18-3.693-12.49-11.872-5.4-10.248-3.173-14.982-.843-17.065z" clip-rule="evenodd"/><path fill="url(#i885de9-f)" fill-rule="evenodd" d="M39.364 37.197a17.24 17.24 0 0 0 3.638-7.109c-1.708-4.877-8.58-6.25-12.34-2.433-2.889 2.927-5.89 5.385-8.146 5.825C9.469 36.041 3.919 25.287 4.873 20.339a19.8 19.8 0 0 0 .05 7.73C7.119 38.831 17.619 45.771 28.38 43.574a19.8 19.8 0 0 0 8.727-4.18s.04-.03.054-.045a20 20 0 0 0 2.202-2.157z" clip-rule="evenodd"/><defs><radialGradient id="i885de9-c" cx="0" cy="0" r="1" gradientTransform="rotate(134.83 18.217 8.044)scale(25.8925 33.4033)" gradientUnits="userSpaceOnUse"><stop offset=".39" stop-color="#028FDC"/><stop offset=".59" stop-color="#0078D4"/><stop offset="1" stop-color="#1A508B"/></radialGradient><radialGradient id="i885de9-d" cx="0" cy="0" r="1" gradientTransform="rotate(139.44 12.632 13.895)scale(23.3006 28.7495)" gradientUnits="userSpaceOnUse"><stop offset=".46" stop-color="#40D9FA"/><stop offset=".9" stop-color="#0095E6"/></radialGradient><radialGradient id="i885de9-e" cx="0" cy="0" r="1" gradientTransform="matrix(-2.65308 24.58184 -17.45831 -1.88425 18.408 11.264)" gradientUnits="userSpaceOnUse"><stop offset=".77" stop-opacity="0"/><stop offset="1"/></radialGradient><radialGradient id="i885de9-f" cx="0" cy="0" r="1" gradientTransform="rotate(85.97 -.743 30.959)scale(38.4749 70.1578)" gradientUnits="userSpaceOnUse"><stop offset=".1" stop-color="#BDF5FF"/><stop offset=".47" stop-color="#40D9FA"/></radialGradient><linearGradient id="i885de9-a" x1="39.509" x2="4.448" y1="16.973" y2="25.058" gradientUnits="userSpaceOnUse"><stop offset=".2" stop-color="#028FDC"/><stop offset=".51" stop-color="#0078D4"/><stop offset="1" stop-color="#0B315B"/></linearGradient><linearGradient id="i885de9-b" x1="41.995" x2="18.831" y1="27.841" y2="6.612" gradientUnits="userSpaceOnUse"><stop offset=".04" stop-color="#028FDC"/><stop offset=".46" stop-color="#0078D4"/><stop offset="1" stop-color="#0B315B"/></linearGradient></defs></svg>