<svg width="16" height="16" viewBox="0 0 16 16" fill="none" xmlns="http://www.w3.org/2000/svg">
<path fill-rule="evenodd" clip-rule="evenodd" d="M4.81734 5.41546C6.49295 3.46959 9.50699 3.46959 11.1826 5.41546L13.4082 7.99999L11.1826 10.5846C9.50699 12.5304 6.49295 12.5304 4.81734 10.5846L2.59176 7.99999L4.81734 5.41546ZM12.0919 4.63243C9.93759 2.1306 6.06237 2.1306 3.90802 4.63243L1.34531 7.60848V8.39151L3.90802 11.3675C6.06237 13.8694 9.93759 13.8694 12.0919 11.3675L14.6546 8.39151V7.60848L12.0919 4.63243ZM6.79997 7.99999C6.79997 7.33726 7.33723 6.79999 7.99997 6.79999C8.66271 6.79999 9.19997 7.33726 9.19997 7.99999C9.19997 8.66274 8.66271 9.19999 7.99997 9.19999C7.33723 9.19999 6.79997 8.66274 6.79997 7.99999ZM7.99997 5.59999C6.67448 5.59999 5.59997 6.67451 5.59997 7.99999C5.59997 9.32548 6.67448 10.4 7.99997 10.4C9.32545 10.4 10.4 9.32548 10.4 7.99999C10.4 6.67451 9.32545 5.59999 7.99997 5.59999Z" fill="#030615"/>
</svg>
