<svg width="100" height="100" viewBox="0 0 100 100" fill="none" xmlns="http://www.w3.org/2000/svg">
<path fill-rule="evenodd" clip-rule="evenodd" d="M42.1054 20.3984C38.8329 20.4009 36.1844 23.0513 36.1869 26.3172C36.1844 29.5832 38.8353 32.2336 42.1078 32.236H48.0288V26.3196C48.0312 23.0537 45.3803 20.4033 42.1054 20.3984C42.1078 20.3984 42.1078 20.3984 42.1054 20.3984V20.3984ZM42.1054 36.1851H26.321C23.0485 36.1875 20.3976 38.8379 20.4 42.1039C20.3952 45.3699 23.0461 48.0203 26.3186 48.0251H42.1054C45.3779 48.0227 48.0288 45.3723 48.0264 42.1063C48.0288 38.8379 45.3779 36.1875 42.1054 36.1851V36.1851Z" fill="#36C5F0"/>
<path fill-rule="evenodd" clip-rule="evenodd" d="M79.5999 42.1039C79.6023 38.8379 76.9514 36.1875 73.679 36.1851C70.4065 36.1875 67.7556 38.8379 67.758 42.1039V48.0251H73.679C76.9514 48.0227 79.6023 45.3723 79.5999 42.1039ZM63.8131 42.1039V26.3172C63.8155 23.0537 61.167 20.4033 57.8945 20.3984C54.622 20.4009 51.9712 23.0513 51.9736 26.3172V42.1039C51.9687 45.3699 54.6196 48.0203 57.8921 48.0251C61.1646 48.0227 63.8155 45.3723 63.8131 42.1039Z" fill="#2EB67D"/>
<path fill-rule="evenodd" clip-rule="evenodd" d="M57.8924 79.6017C61.1649 79.5993 63.8158 76.9489 63.8134 73.6829C63.8158 70.417 61.1649 67.7666 57.8924 67.7641H51.9714V73.6829C51.969 76.9465 54.6199 79.5969 57.8924 79.6017ZM57.8924 63.8127H73.6792C76.9517 63.8102 79.6026 61.1598 79.6002 57.8939C79.605 54.6279 76.9541 51.9775 73.6816 51.9727H57.8948C54.6223 51.9751 51.9714 54.6255 51.9739 57.8914C51.9714 61.1598 54.6199 63.8102 57.8924 63.8127V63.8127Z" fill="#ECB22E"/>
<path fill-rule="evenodd" clip-rule="evenodd" d="M20.4 57.8914C20.3976 61.1574 23.0485 63.8078 26.321 63.8102C29.5935 63.8078 32.2444 61.1574 32.242 57.8914V51.9727H26.321C23.0485 51.9751 20.3976 54.6255 20.4 57.8914ZM36.1869 57.8914V73.6781C36.182 76.9441 38.8329 79.5945 42.1054 79.5993C45.3779 79.5969 48.0288 76.9465 48.0264 73.6805V57.8963C48.0312 54.6303 45.3803 51.9799 42.1078 51.9751C38.8329 51.9751 36.1844 54.6255 36.1869 57.8914C36.1869 57.8939 36.1869 57.8914 36.1869 57.8914Z" fill="#E01E5A"/>
</svg>
