<svg width="64" height="64" viewBox="0 0 64 64" fill="none" xmlns="http://www.w3.org/2000/svg">
<path d="M44.9736 29.1739L31.9782 36.6509L18.1541 28.6843L17.5 29.0403V34.8262L31.9782 43.1934L44.9736 35.7163V38.7872L31.9782 46.2643L18.1541 38.2976L17.5 38.6537V39.6329L31.9782 48L46.5 39.6329V33.847L45.8459 33.4909L31.9782 41.4576L19.0263 33.9805V30.9541L31.9782 38.3867L46.5 30.0195V24.3227L45.7586 23.9221L31.9782 31.8442L19.724 24.7677L31.9782 17.7357L42.0954 23.5216L43.0112 23.032V22.3199L31.9782 16L17.5 24.3227V25.2128L31.9782 33.58L44.9736 26.1029V29.1739Z" fill="#FF3621"/>
</svg>
