<svg width="64" height="64" viewBox="0 0 64 64" fill="none" xmlns="http://www.w3.org/2000/svg">
<path d="M46.6401 17.3309C47.3924 18.0543 47.8843 19.009 48 20.0506C48 20.4846 47.8843 20.774 47.6239 21.3237C47.3635 21.8734 44.1519 27.4286 43.1971 28.962C42.6474 29.859 42.358 30.9295 42.358 31.9711C42.358 33.0416 42.6474 34.0832 43.1971 34.9801C44.1519 36.5136 47.3635 42.0976 47.6239 42.6474C47.8843 43.1971 48 43.4575 48 43.8915C47.8843 44.9331 47.4213 45.8879 46.6691 46.5823C45.9457 47.3345 44.991 47.8264 43.9783 47.9132C43.5443 47.9132 43.255 47.7975 42.7342 47.5371C42.2134 47.2767 36.5425 44.1519 35.009 43.1971C34.8933 43.1392 34.7776 43.0524 34.6329 42.9946L27.0524 38.5099C27.226 39.9566 27.8626 41.3454 28.9041 42.358C29.1067 42.5606 29.3092 42.7342 29.5407 42.9078C29.3671 42.9946 29.1646 43.0814 28.991 43.1971C27.4575 44.1519 21.8734 47.3635 21.3237 47.6239C20.774 47.8843 20.5136 48 20.0506 48C19.009 47.8843 18.0543 47.4213 17.3599 46.6691C16.6076 45.9457 16.1157 44.991 16 43.9494C16.0289 43.5154 16.1447 43.0814 16.3761 42.7052C16.6365 42.1555 19.8481 36.5714 20.8029 35.038C21.3526 34.141 21.642 33.0995 21.642 32.0289C21.642 30.9584 21.3526 29.9168 20.8029 29.0199C19.8481 27.4286 16.6076 21.8445 16.3761 21.2948C16.1447 20.9186 16.0289 20.4846 16 20.0506C16.1157 19.009 16.5787 18.0543 17.3309 17.3309C18.0543 16.5787 19.009 16.1157 20.0506 16C20.4846 16.0289 20.9186 16.1447 21.3237 16.3761C21.7866 16.5787 25.8662 18.9512 28.0362 20.2242C30.2062 21.4973 28.528 20.5136 28.528 20.5136C28.7016 20.6293 28.8463 20.7161 28.962 20.774L29.1935 20.9186L36.9186 25.4901C36.745 23.7541 35.8481 22.1627 34.4593 21.0922C34.6329 21.0054 34.8354 20.9186 35.009 20.8029C36.5425 19.8481 42.1266 16.6076 42.6763 16.3761C43.0524 16.1447 43.4864 16.0289 43.9494 16C44.962 16.1157 45.9168 16.5787 46.6401 17.3309ZM32.405 34.0543L34.0543 32.405C34.2857 32.1736 34.2857 31.8264 34.0543 31.595L32.405 29.9457C32.1736 29.7143 31.8264 29.7143 31.595 29.9457L29.9457 31.595C29.7143 31.8264 29.7143 32.1736 29.9457 32.405L31.595 34.0543C31.7975 34.2568 32.1736 34.2568 32.405 34.0543Z" fill="#FF694A"/>
</svg>
