<svg width="64" height="64" viewBox="0 0 64 64" fill="none" xmlns="http://www.w3.org/2000/svg">
<g clip-path="url(#clip0_838_19217)">
<path d="M38.7944 28H47.68C48.5195 28 49.2 28.6805 49.2 29.52V37.6136C49.2 40.6989 46.6989 43.2 43.6136 43.2H43.5872C40.5019 43.2004 38.0004 40.6997 38 37.6144C38 37.6141 38 37.6139 38 37.6136V28.7944C38 28.3557 38.3557 28 38.7944 28Z" fill="#5059C9"/>
<path d="M44.8002 26.4C46.7884 26.4 48.4002 24.7882 48.4002 22.8C48.4002 20.8117 46.7884 19.2 44.8002 19.2C42.812 19.2 41.2002 20.8117 41.2002 22.8C41.2002 24.7882 42.812 26.4 44.8002 26.4Z" fill="#5059C9"/>
<path d="M33.5994 26.4C36.4713 26.4 38.7994 24.0719 38.7994 21.2C38.7994 18.3281 36.4713 16 33.5994 16C30.7275 16 28.3994 18.3281 28.3994 21.2C28.3994 24.0719 30.7275 26.4 33.5994 26.4Z" fill="#7B83EB"/>
<path d="M40.5336 28H25.8663C25.0369 28.0205 24.3807 28.7089 24.4 29.5384V38.7696C24.2841 43.7474 28.2223 47.8782 33.2 48C38.1776 47.8782 42.1158 43.7474 42 38.7696V29.5384C42.0192 28.7089 41.363 28.0205 40.5336 28Z" fill="#7B83EB"/>
<path opacity="0.1" d="M33.9998 28V40.936C33.9959 41.5292 33.6364 42.0621 33.0878 42.288C32.9132 42.3619 32.7255 42.4 32.5358 42.4H25.1038C24.9998 42.136 24.9038 41.872 24.8238 41.6C24.5438 40.682 24.4009 39.7277 24.3998 38.768V29.536C24.3806 28.7078 25.0357 28.0205 25.8638 28H33.9998Z" fill="black"/>
<path opacity="0.2" d="M33.1998 28V41.736C33.1998 41.9256 33.1617 42.1133 33.0878 42.288C32.862 42.8365 32.3291 43.196 31.7358 43.2H25.4798C25.3438 42.936 25.2158 42.672 25.1038 42.4C24.9918 42.128 24.9038 41.872 24.8238 41.6C24.5438 40.682 24.4009 39.7277 24.3998 38.768V29.536C24.3806 28.7078 25.0357 28.0205 25.8638 28H33.1998Z" fill="black"/>
<path opacity="0.2" d="M33.1998 28V40.136C33.1937 40.942 32.5418 41.5939 31.7358 41.6H24.8238C24.5438 40.682 24.4009 39.7277 24.3998 38.768V29.536C24.3806 28.7078 25.0357 28.0205 25.8638 28H33.1998Z" fill="black"/>
<path opacity="0.2" d="M32.3998 28V40.136C32.3937 40.942 31.7418 41.5939 30.9358 41.6H24.8238C24.5438 40.682 24.4009 39.7277 24.3998 38.768V29.536C24.3806 28.7078 25.0357 28.0205 25.8638 28H32.3998Z" fill="black"/>
<path opacity="0.1" d="M34 23.864V26.384C33.864 26.392 33.736 26.4 33.6 26.4C33.4639 26.4 33.336 26.392 33.1999 26.384C32.9299 26.3661 32.6621 26.3232 32.4 26.256C30.7799 25.8724 29.4416 24.7362 28.8 23.2C28.6896 22.942 28.6038 22.6742 28.5439 22.4H32.5359C33.3432 22.4031 33.9969 23.0567 34 23.864Z" fill="black"/>
<path opacity="0.2" d="M33.1998 24.6641V26.3841C32.9298 26.3661 32.662 26.3233 32.3998 26.2561C30.7798 25.8724 29.4414 24.7363 28.7998 23.2001H31.7358C32.5431 23.2031 33.1967 23.8568 33.1998 24.6641Z" fill="black"/>
<path opacity="0.2" d="M33.1998 24.6641V26.3841C32.9298 26.3661 32.662 26.3233 32.3998 26.2561C30.7798 25.8724 29.4414 24.7363 28.7998 23.2001H31.7358C32.5431 23.2031 33.1967 23.8568 33.1998 24.6641Z" fill="black"/>
<path opacity="0.2" d="M32.3998 24.664V26.2559C30.7798 25.8723 29.4414 24.7362 28.7998 23.2H30.9358C31.7431 23.203 32.3967 23.8567 32.3998 24.664Z" fill="black"/>
<path d="M16.2662 23.2H30.9334C31.7433 23.2 32.3998 23.8565 32.3998 24.6663V39.3335C32.3998 40.1434 31.7433 40.7999 30.9334 40.7999H16.2662C15.4563 40.7999 14.7998 40.1434 14.7998 39.3335V24.6663C14.7998 23.8565 15.4563 23.2 16.2662 23.2Z" fill="url(#paint0_linear_838_19217)"/>
<path d="M27.4586 28.7824H24.5266V36.7664H22.6586V28.7824H19.7402V27.2336H27.4586V28.7824Z" fill="white"/>
</g>
<defs>
<linearGradient id="paint0_linear_838_19217" x1="17.8573" y1="22.0541" x2="29.3423" y2="41.9458" gradientUnits="userSpaceOnUse">
<stop stop-color="#5A62C3"/>
<stop offset="0.5" stop-color="#4D55BD"/>
<stop offset="1" stop-color="#3940AB"/>
</linearGradient>
<clipPath id="clip0_838_19217">
<rect width="34.4" height="32" fill="white" transform="translate(14.7998 16)"/>
</clipPath>
</defs>
</svg>
