<svg width="100" height="100" viewBox="0 0 100 100" fill="none" xmlns="http://www.w3.org/2000/svg">
<path fill-rule="evenodd" clip-rule="evenodd" d="M43.7292 25.1794H21.9013L2.11426 59.2949L13.0122 78.303H34.8492L49.909 51.8606L65.3562 78.2563L86.9708 78.4156L97.8847 59.5119L78.2334 25.3181L56.3231 25.252L49.9931 36.2158L43.7292 25.1794ZM39.2261 32.9132L43.3094 40.1076H34.853L30.7697 32.9132H39.2261ZM11.0417 59.3173L24.0924 36.8162L28.1533 43.9711L15.2413 66.6422L11.0417 59.3173ZM30.3537 70.5692H21.9048L34.8492 47.8413H43.298L30.3537 70.5692ZM67.5606 66.7111L54.3499 44.137L58.5743 36.8201L71.785 59.3942L67.5606 66.7111ZM82.5247 70.6488L74.2525 70.5879L78.4807 63.2644L86.7529 63.3254L82.5247 70.6488ZM73.7503 33.0383L86.7115 55.591L78.4847 55.5305L65.307 33.0128L73.7503 33.0383Z" fill="#9AEE86"/>
</svg>
