<svg width="64" height="64" viewBox="0 0 64 64" fill="none" xmlns="http://www.w3.org/2000/svg">
<path d="M26.2202 27.0917L35.9921 18.6359C38.8308 16.1794 43.0631 16.5613 45.4452 19.4888C47.08 21.7025 47.4038 24.3404 46.4268 26.6249C46.0884 27.416 46.0908 28.3597 46.622 29.0286C47.3244 29.9128 48.6332 29.9712 49.233 29.0099C51.4037 25.5318 51.546 20.8814 48.3603 16.9662C44.6274 12.3785 37.9948 11.78 33.546 15.6297L26.7988 21.4681C26.0637 20.443 24.8829 19.7784 23.5517 19.7784C21.3226 19.7784 19.5156 21.6418 19.5156 23.9406C19.5156 26.2393 21.3226 28.1028 23.5517 28.1028C24.4739 28.1028 25.324 27.7837 26.0037 27.247C26.079 27.2029 26.1515 27.1512 26.2202 27.0917Z" fill="#F56551"/>
<path d="M37.2191 26.6332L45.4187 36.7103C47.8007 39.6378 47.4304 44.0025 44.5916 46.4589C42.4449 48.1447 39.887 48.4788 37.6717 47.4712C36.9045 47.1223 35.9894 47.1246 35.3408 47.6724C34.4834 48.3969 34.4268 49.7464 35.3589 50.3651C38.7317 52.6035 43.2411 52.7503 47.0377 49.4651C51.4865 45.6155 52.0668 38.7756 48.3338 34.1878L42.6723 27.2298C43.6662 26.4717 44.3108 25.254 44.3108 23.8812C44.3108 21.5825 42.5038 19.719 40.2747 19.719C38.0456 19.719 36.2386 21.5825 36.2386 23.8812C36.2386 24.8323 36.548 25.7089 37.0686 26.4098C37.1112 26.4874 37.1615 26.5622 37.2191 26.6332Z" fill="#F56551"/>
<path d="M37.5944 37.9769L27.8226 46.4326C24.9839 48.8891 20.7515 48.5072 18.3695 45.5797C16.7347 43.3659 16.4108 40.7281 17.3878 38.4435C17.7262 37.6524 17.7239 36.7087 17.1926 36.0399C16.4902 35.1556 15.1815 35.0973 14.5817 36.0585C12.411 39.5368 12.2687 44.1871 15.4543 48.1022C19.1873 52.6901 25.8199 53.2885 30.2687 49.4389L37.0159 43.6004C37.751 44.6255 38.9317 45.2901 40.263 45.2901C42.492 45.2901 44.2991 43.4266 44.2991 41.1279C44.2991 38.8292 42.492 36.9658 40.263 36.9658C39.3407 36.9658 38.4907 37.2847 37.811 37.8216C37.7357 37.8656 37.6632 37.9174 37.5944 37.9769Z" fill="#F56551"/>
<path d="M26.575 38.3629L18.3755 28.2858C15.9935 25.3583 16.3638 20.9937 19.2026 18.5373C21.3492 16.8514 23.9071 16.5174 26.1225 17.525C26.8896 17.8739 27.8047 17.8716 28.4533 17.3236C29.3107 16.5993 29.3673 15.2497 28.4352 14.6311C25.0625 12.3926 20.553 12.2458 16.7565 15.531C12.3077 19.3807 11.7274 26.2205 15.4604 30.8083L21.1219 37.7663C20.1279 38.5244 19.4833 39.7421 19.4833 41.1149C19.4833 43.4137 21.2904 45.2772 23.5194 45.2772C25.7485 45.2772 27.5554 43.4137 27.5554 41.1149C27.5554 40.1638 27.2462 39.2872 26.7256 38.5863C26.6829 38.5087 26.6327 38.4339 26.575 38.3629Z" fill="#F56551"/>
</svg>
