<svg width="20" height="20" viewBox="0 0 20 20" fill="none" xmlns="http://www.w3.org/2000/svg">
<path d="M14.1667 14.1665C14.5139 14.1665 14.809 14.045 15.0521 13.8019C15.2951 13.5589 15.4167 13.2637 15.4167 12.9165C15.4167 12.5693 15.2951 12.2741 15.0521 12.0311C14.809 11.788 14.5139 11.6665 14.1667 11.6665C13.8194 11.6665 13.5243 11.788 13.2812 12.0311C13.0382 12.2741 12.9167 12.5693 12.9167 12.9165C12.9167 13.2637 13.0382 13.5589 13.2812 13.8019C13.5243 14.045 13.8194 14.1665 14.1667 14.1665ZM14.1667 16.6665C14.5972 16.6665 14.9931 16.5658 15.3542 16.3644C15.7153 16.163 16.0069 15.8957 16.2292 15.5623C15.9236 15.3818 15.5972 15.2429 15.25 15.1457C14.9028 15.0484 14.5417 14.9998 14.1667 14.9998C13.7917 14.9998 13.4306 15.0484 13.0833 15.1457C12.7361 15.2429 12.4097 15.3818 12.1042 15.5623C12.3264 15.8957 12.6181 16.163 12.9792 16.3644C13.3403 16.5658 13.7361 16.6665 14.1667 16.6665ZM10 18.3332C8.06944 17.8471 6.47569 16.7394 5.21874 15.0103C3.9618 13.2811 3.33333 11.3609 3.33333 9.24984V4.1665L10 1.6665L16.6667 4.1665V8.89567C16.4028 8.78456 16.1319 8.68386 15.8542 8.59359C15.5764 8.50331 15.2917 8.43734 15 8.39567V5.33317L10 3.45817L4.99999 5.33317V9.24984C4.99999 9.90261 5.0868 10.5554 5.26041 11.2082C5.43402 11.8609 5.67708 12.4825 5.98958 13.0728C6.30208 13.663 6.68055 14.2082 7.12499 14.7082C7.56944 15.2082 8.0625 15.6248 8.60416 15.9582C8.75694 16.4026 8.95833 16.8262 9.20833 17.229C9.45833 17.6318 9.74305 17.9929 10.0625 18.3123C10.0486 18.3123 10.0382 18.3158 10.0312 18.3228C10.0243 18.3297 10.0139 18.3332 10 18.3332ZM14.1667 18.3332C13.0139 18.3332 12.0312 17.9269 11.2187 17.1144C10.4062 16.3019 10 15.3193 10 14.1665C10 13.0137 10.4062 12.0311 11.2187 11.2186C12.0312 10.4061 13.0139 9.99984 14.1667 9.99984C15.3194 9.99984 16.3021 10.4061 17.1146 11.2186C17.9271 12.0311 18.3333 13.0137 18.3333 14.1665C18.3333 15.3193 17.9271 16.3019 17.1146 17.1144C16.3021 17.9269 15.3194 18.3332 14.1667 18.3332Z" fill="#A4ACB9"/>
</svg>
