<svg width="20" height="20" viewBox="0 0 20 20" fill="none" xmlns="http://www.w3.org/2000/svg">
<path d="M15.0003 17.5H5.83366V6.66671L11.667 0.833374L12.7087 1.87504C12.8059 1.97226 12.8857 2.10421 12.9482 2.27087C13.0107 2.43754 13.042 2.59726 13.042 2.75004V3.04171L12.1253 6.66671H17.5003C17.9448 6.66671 18.3337 6.83337 18.667 7.16671C19.0003 7.50004 19.167 7.88893 19.167 8.33337V10C19.167 10.0973 19.1531 10.2014 19.1253 10.3125C19.0975 10.4237 19.0698 10.5278 19.042 10.625L16.542 16.5C16.417 16.7778 16.2087 17.0139 15.917 17.2084C15.6253 17.4028 15.3198 17.5 15.0003 17.5ZM7.50033 15.8334H15.0003L17.5003 10V8.33337H10.0003L11.1253 3.75004L7.50033 7.37504V15.8334ZM5.83366 6.66671V8.33337H3.33366V15.8334H5.83366V17.5H1.66699V6.66671H5.83366Z" fill="#030615"/>
</svg>
