<svg width="20" height="20" viewBox="0 0 20 20" fill="none" xmlns="http://www.w3.org/2000/svg">
<path d="M9.98178 18C11.2938 18 12.5239 17.6993 13.672 17.098C14.82 16.4966 15.7768 15.6553 16.5421 14.574V16.5421H18V12.1686H13.6264V13.6264H15.4123C14.7927 14.5376 14.0061 15.2513 13.0524 15.7677C12.0987 16.284 11.0752 16.5421 9.98178 16.5421C8.58466 16.5421 7.31815 16.1412 6.18223 15.3394C5.04632 14.5376 4.24753 13.4746 3.78588 12.1503L2.36446 12.4784C2.91116 14.1306 3.88307 15.4639 5.28018 16.4784C6.6773 17.4928 8.24449 18 9.98178 18ZM17.9636 9.25285C17.8785 8.43888 17.6841 7.65831 17.3804 6.91116C17.0767 6.16401 16.6576 5.47456 16.123 4.84282L15.0843 5.88155C15.473 6.37965 15.7889 6.91116 16.0319 7.47608C16.2749 8.041 16.4267 8.63326 16.4875 9.25285H17.9636ZM14.0638 4.86105L15.1025 3.82232C14.4586 3.28778 13.7661 2.8656 13.0251 2.55581C12.284 2.24601 11.5125 2.06074 10.7107 2V3.45786C11.3303 3.5186 11.9195 3.67046 12.4784 3.91344C13.0372 4.15642 13.5657 4.47229 14.0638 4.86105ZM5.88155 4.86105C6.37965 4.47229 6.91116 4.15642 7.47608 3.91344C8.041 3.67046 8.63326 3.5186 9.25285 3.45786V2C8.43888 2.07289 7.65831 2.2612 6.91116 2.56492C6.16401 2.86864 5.47456 3.28778 4.84282 3.82232L5.88155 4.86105ZM3.45786 9.25285C3.5186 8.63326 3.67046 8.041 3.91344 7.47608C4.15641 6.91116 4.47229 6.37965 4.86105 5.88155L3.82232 4.84282C3.28778 5.47456 2.86864 6.16401 2.56492 6.91116C2.2612 7.65831 2.07289 8.43888 2 9.25285H3.45786Z" fill="#030615"/>
</svg>
