<svg width="20" height="20" viewBox="0 0 20 20" fill="none" xmlns="http://www.w3.org/2000/svg">
<path d="M10.042 15.8334L12.417 13.4792L10.042 11.125L9.16699 12L10.0628 12.8959C9.67394 12.9097 9.29546 12.8472 8.92741 12.7084C8.55935 12.5695 8.22949 12.3542 7.93783 12.0625C7.66005 11.7847 7.44824 11.4653 7.30241 11.1042C7.15658 10.7431 7.08366 10.382 7.08366 10.0209C7.08366 9.78474 7.11491 9.54863 7.17741 9.31252C7.23991 9.07641 7.32671 8.84724 7.43783 8.62502L6.52116 7.70835C6.28505 8.05558 6.11144 8.42363 6.00033 8.81252C5.88921 9.20141 5.83366 9.59724 5.83366 10C5.83366 10.5278 5.93783 11.0486 6.14616 11.5625C6.35449 12.0764 6.66005 12.5347 7.06283 12.9375C7.4656 13.3403 7.91699 13.6424 8.41699 13.8438C8.91699 14.0452 9.43088 14.1528 9.95866 14.1667L9.16699 14.9584L10.042 15.8334ZM13.4795 12.2917C13.7156 11.9445 13.8892 11.5764 14.0003 11.1875C14.1114 10.7986 14.167 10.4028 14.167 10C14.167 9.47224 14.0663 8.94794 13.8649 8.4271C13.6635 7.90627 13.3614 7.44446 12.9587 7.04169C12.5559 6.63891 12.101 6.3403 11.5941 6.14585C11.0871 5.95141 10.5698 5.85419 10.042 5.85419L10.8337 5.04169L9.95866 4.16669L7.58366 6.52085L9.95866 8.87502L10.8337 8.00002L9.91699 7.08335C10.292 7.08335 10.6739 7.15627 11.0628 7.3021C11.4517 7.44794 11.785 7.65974 12.0628 7.93752C12.3406 8.2153 12.5524 8.53474 12.6982 8.89585C12.8441 9.25696 12.917 9.61808 12.917 9.97919C12.917 10.2153 12.8857 10.4514 12.8232 10.6875C12.7607 10.9236 12.6739 11.1528 12.5628 11.375L13.4795 12.2917ZM10.0003 18.3334C8.84755 18.3334 7.76421 18.1146 6.75033 17.6771C5.73644 17.2396 4.85449 16.6459 4.10449 15.8959C3.35449 15.1459 2.76074 14.2639 2.32324 13.25C1.88574 12.2361 1.66699 11.1528 1.66699 10C1.66699 8.84724 1.88574 7.76391 2.32324 6.75002C2.76074 5.73613 3.35449 4.85419 4.10449 4.10419C4.85449 3.35419 5.73644 2.76044 6.75033 2.32294C7.76421 1.88544 8.84755 1.66669 10.0003 1.66669C11.1531 1.66669 12.2364 1.88544 13.2503 2.32294C14.2642 2.76044 15.1462 3.35419 15.8962 4.10419C16.6462 4.85419 17.2399 5.73613 17.6774 6.75002C18.1149 7.76391 18.3337 8.84724 18.3337 10C18.3337 11.1528 18.1149 12.2361 17.6774 13.25C17.2399 14.2639 16.6462 15.1459 15.8962 15.8959C15.1462 16.6459 14.2642 17.2396 13.2503 17.6771C12.2364 18.1146 11.1531 18.3334 10.0003 18.3334ZM10.0003 16.6667C11.8614 16.6667 13.4378 16.0209 14.7295 14.7292C16.0212 13.4375 16.667 11.8611 16.667 10C16.667 8.13891 16.0212 6.56252 14.7295 5.27085C13.4378 3.97919 11.8614 3.33335 10.0003 3.33335C8.13921 3.33335 6.56283 3.97919 5.27116 5.27085C3.97949 6.56252 3.33366 8.13891 3.33366 10C3.33366 11.8611 3.97949 13.4375 5.27116 14.7292C6.56283 16.0209 8.13921 16.6667 10.0003 16.6667Z" fill="#030615"/>
</svg>
