<svg width="20" height="20" viewBox="0 0 20 20" fill="none" xmlns="http://www.w3.org/2000/svg">
<path fill-rule="evenodd" clip-rule="evenodd" d="M3 3V14.75C3 15.3467 3.23705 15.919 3.65901 16.341C4.08097 16.7629 4.65326 17 5.25 17H17V15.5H5.25C5.05109 15.5 4.86032 15.421 4.71967 15.2803C4.57902 15.1397 4.5 14.9489 4.5 14.75V3H3ZM16.297 8.013L16.81 7.466L15.716 6.44L15.203 6.987L11.983 10.421L9.707 8.146C9.51947 7.95853 9.26516 7.85321 9 7.85321C8.73484 7.85321 8.48053 7.95853 8.293 8.146L6.22 10.22L5.69 10.75L6.75 11.81L7.28 11.28L9 9.56L11.287 11.847C11.3818 11.9418 11.4946 12.0167 11.6189 12.067C11.7432 12.1173 11.8763 12.1422 12.0104 12.14C12.1444 12.1379 12.2767 12.1088 12.3993 12.0545C12.5219 12.0002 12.6323 11.9218 12.724 11.824L16.297 8.013Z" fill="#030615"/>
</svg>
