<svg width="20" height="20" viewBox="0 0 20 20" fill="none" xmlns="http://www.w3.org/2000/svg">
<path d="M10.0003 18.3333C8.01421 18.3333 6.25727 17.7083 4.72949 16.4583C3.20171 15.2083 2.23644 13.6111 1.83366 11.6666H3.54199C3.93088 13.1388 4.72255 14.3402 5.91699 15.2708C7.11144 16.2013 8.47255 16.6666 10.0003 16.6666C11.1948 16.6666 12.3059 16.3715 13.3337 15.7812C14.3614 15.1909 15.167 14.375 15.7503 13.3333H13.3337V11.6666H18.3337V16.6666H16.667V15C15.8753 16.0555 14.8962 16.875 13.7295 17.4583C12.5628 18.0416 11.3198 18.3333 10.0003 18.3333ZM10.0003 12.5C9.30588 12.5 8.7156 12.2569 8.22949 11.7708C7.74338 11.2847 7.50033 10.6944 7.50033 9.99996C7.50033 9.30551 7.74338 8.71524 8.22949 8.22913C8.7156 7.74301 9.30588 7.49996 10.0003 7.49996C10.6948 7.49996 11.285 7.74301 11.7712 8.22913C12.2573 8.71524 12.5003 9.30551 12.5003 9.99996C12.5003 10.6944 12.2573 11.2847 11.7712 11.7708C11.285 12.2569 10.6948 12.5 10.0003 12.5ZM1.66699 8.33329V3.33329H3.33366V4.99996C4.12533 3.9444 5.10449 3.12496 6.27116 2.54163C7.43783 1.95829 8.68088 1.66663 10.0003 1.66663C11.9864 1.66663 13.7434 2.29163 15.2712 3.54163C16.7989 4.79163 17.7642 6.38885 18.167 8.33329H16.4587C16.0698 6.86107 15.2781 5.65968 14.0837 4.72913C12.8892 3.79857 11.5281 3.33329 10.0003 3.33329C8.80588 3.33329 7.69477 3.62843 6.66699 4.21871C5.63921 4.80899 4.83366 5.62496 4.25033 6.66663H6.66699V8.33329H1.66699Z" fill="#030615"/>
</svg>
