<svg width="20" height="20" viewBox="0 0 20 20" fill="none" xmlns="http://www.w3.org/2000/svg">
<path d="M3.33366 16.6666C2.87533 16.6666 2.48296 16.5035 2.15658 16.1771C1.83019 15.8507 1.66699 15.4583 1.66699 15V4.99998C1.66699 4.54165 1.83019 4.14929 2.15658 3.8229C2.48296 3.49651 2.87533 3.33331 3.33366 3.33331H8.33366L10.0003 4.99998H16.667C17.1253 4.99998 17.5177 5.16317 17.8441 5.48956C18.1705 5.81595 18.3337 6.20831 18.3337 6.66665V15C18.3337 15.4583 18.1705 15.8507 17.8441 16.1771C17.5177 16.5035 17.1253 16.6666 16.667 16.6666H3.33366ZM3.33366 15H16.667V6.66665H9.31283L7.64616 4.99998H3.33366V15Z" fill="#030615"/>
</svg>
