<svg width="20" height="20" viewBox="0 0 20 20" fill="none" xmlns="http://www.w3.org/2000/svg">
<path d="M3.9375 16.6667C3.10417 16.6667 2.39236 16.3681 1.80208 15.7709C1.21181 15.1737 0.902778 14.4514 0.875 13.6042C0.875 13.4792 0.881944 13.3542 0.895833 13.2292C0.909722 13.1042 0.930556 12.9792 0.958333 12.8542L2.70833 5.85421C2.90278 5.10421 3.29861 4.49657 3.89583 4.03129C4.49306 3.56601 5.17361 3.33337 5.9375 3.33337H14.0625C14.8264 3.33337 15.5069 3.56601 16.1042 4.03129C16.7014 4.49657 17.0972 5.10421 17.2917 5.85421L19.0417 12.8542C19.0694 12.9792 19.0938 13.1077 19.1146 13.2396C19.1354 13.3716 19.1458 13.5 19.1458 13.625C19.1458 14.4723 18.8438 15.191 18.2396 15.7813C17.6354 16.3716 16.9097 16.6667 16.0625 16.6667C15.4792 16.6667 14.9375 16.5139 14.4375 16.2084C13.9375 15.9028 13.5625 15.4862 13.3125 14.9584L12.7292 13.75C12.6597 13.6112 12.5556 13.507 12.4167 13.4375C12.2778 13.3681 12.1319 13.3334 11.9792 13.3334H8.02083C7.86806 13.3334 7.72222 13.3681 7.58333 13.4375C7.44444 13.507 7.34028 13.6112 7.27083 13.75L6.6875 14.9584C6.4375 15.4862 6.0625 15.9028 5.5625 16.2084C5.0625 16.5139 4.52083 16.6667 3.9375 16.6667ZM4 15C4.26389 15 4.50347 14.9306 4.71875 14.7917C4.93403 14.6528 5.09722 14.4653 5.20833 14.2292L5.79167 13.0417C6 12.6112 6.30556 12.2743 6.70833 12.0313C7.11111 11.7882 7.54861 11.6667 8.02083 11.6667H11.9792C12.4514 11.6667 12.8889 11.7917 13.2917 12.0417C13.6944 12.2917 14.0069 12.625 14.2292 13.0417L14.8125 14.2292C14.9236 14.4653 15.0868 14.6528 15.3021 14.7917C15.5174 14.9306 15.7569 15 16.0208 15C16.4097 15 16.7431 14.8716 17.0208 14.6146C17.2986 14.3577 17.4444 14.0348 17.4583 13.6459C17.4583 13.6598 17.4444 13.5278 17.4167 13.25L15.6667 6.27087C15.5694 5.89587 15.375 5.59032 15.0833 5.35421C14.7917 5.1181 14.4514 5.00004 14.0625 5.00004H5.9375C5.54861 5.00004 5.20486 5.1181 4.90625 5.35421C4.60764 5.59032 4.41667 5.89587 4.33333 6.27087L2.58333 13.25C2.55556 13.3334 2.54167 13.4584 2.54167 13.625C2.54167 14.0139 2.68403 14.3403 2.96875 14.6042C3.25347 14.8681 3.59722 15 4 15ZM11.25 9.16671C11.4861 9.16671 11.684 9.08685 11.8438 8.92712C12.0035 8.7674 12.0833 8.56948 12.0833 8.33337C12.0833 8.09726 12.0035 7.89935 11.8438 7.73962C11.684 7.5799 11.4861 7.50004 11.25 7.50004C11.0139 7.50004 10.816 7.5799 10.6562 7.73962C10.4965 7.89935 10.4167 8.09726 10.4167 8.33337C10.4167 8.56948 10.4965 8.7674 10.6562 8.92712C10.816 9.08685 11.0139 9.16671 11.25 9.16671ZM12.9167 7.50004C13.1528 7.50004 13.3507 7.42018 13.5104 7.26046C13.6701 7.10073 13.75 6.90282 13.75 6.66671C13.75 6.4306 13.6701 6.23268 13.5104 6.07296C13.3507 5.91323 13.1528 5.83337 12.9167 5.83337C12.6806 5.83337 12.4826 5.91323 12.3229 6.07296C12.1632 6.23268 12.0833 6.4306 12.0833 6.66671C12.0833 6.90282 12.1632 7.10073 12.3229 7.26046C12.4826 7.42018 12.6806 7.50004 12.9167 7.50004ZM12.9167 10.8334C13.1528 10.8334 13.3507 10.7535 13.5104 10.5938C13.6701 10.4341 13.75 10.2362 13.75 10C13.75 9.76393 13.6701 9.56601 13.5104 9.40629C13.3507 9.24657 13.1528 9.16671 12.9167 9.16671C12.6806 9.16671 12.4826 9.24657 12.3229 9.40629C12.1632 9.56601 12.0833 9.76393 12.0833 10C12.0833 10.2362 12.1632 10.4341 12.3229 10.5938C12.4826 10.7535 12.6806 10.8334 12.9167 10.8334ZM14.5833 9.16671C14.8194 9.16671 15.0174 9.08685 15.1771 8.92712C15.3368 8.7674 15.4167 8.56948 15.4167 8.33337C15.4167 8.09726 15.3368 7.89935 15.1771 7.73962C15.0174 7.5799 14.8194 7.50004 14.5833 7.50004C14.3472 7.50004 14.1493 7.5799 13.9896 7.73962C13.8299 7.89935 13.75 8.09726 13.75 8.33337C13.75 8.56948 13.8299 8.7674 13.9896 8.92712C14.1493 9.08685 14.3472 9.16671 14.5833 9.16671ZM7.08333 10.4167C7.26389 10.4167 7.41319 10.3577 7.53125 10.2396C7.64931 10.1216 7.70833 9.97226 7.70833 9.79171V8.95837H8.54167C8.72222 8.95837 8.87153 8.89935 8.98958 8.78129C9.10764 8.66323 9.16667 8.51393 9.16667 8.33337C9.16667 8.15282 9.10764 8.00351 8.98958 7.88546C8.87153 7.7674 8.72222 7.70837 8.54167 7.70837H7.70833V6.87504C7.70833 6.69448 7.64931 6.54518 7.53125 6.42712C7.41319 6.30907 7.26389 6.25004 7.08333 6.25004C6.90278 6.25004 6.75347 6.30907 6.63542 6.42712C6.51736 6.54518 6.45833 6.69448 6.45833 6.87504V7.70837H5.625C5.44444 7.70837 5.29514 7.7674 5.17708 7.88546C5.05903 8.00351 5 8.15282 5 8.33337C5 8.51393 5.05903 8.66323 5.17708 8.78129C5.29514 8.89935 5.44444 8.95837 5.625 8.95837H6.45833V9.79171C6.45833 9.97226 6.51736 10.1216 6.63542 10.2396C6.75347 10.3577 6.90278 10.4167 7.08333 10.4167Z" fill="#030615"/>
</svg>
