<svg width="20" height="20" viewBox="0 0 20 20" fill="none" xmlns="http://www.w3.org/2000/svg">
<path fill-rule="evenodd" clip-rule="evenodd" d="M16 5H4C3.72386 5 3.5 5.22386 3.5 5.5V7H16.5V5.5C16.5 5.22386 16.2761 5 16 5ZM3.5 14.5V8.5H16.5V14.5C16.5 14.7761 16.2761 15 16 15H4C3.72386 15 3.5 14.7761 3.5 14.5ZM4 3.5C2.89543 3.5 2 4.39543 2 5.5V14.5C2 15.6046 2.89543 16.5 4 16.5H16C17.1046 16.5 18 15.6046 18 14.5V5.5C18 4.39543 17.1046 3.5 16 3.5H4ZM6 12.75C6.41421 12.75 6.75 12.4142 6.75 12C6.75 11.5858 6.41421 11.25 6 11.25C5.58579 11.25 5.25 11.5858 5.25 12C5.25 12.4142 5.58579 12.75 6 12.75Z" fill="#030615"/>
</svg>
