<svg width="20" height="20" viewBox="0 0 20 20" fill="none" xmlns="http://www.w3.org/2000/svg">
<path d="M16.3997 18C17.2834 18 17.9997 17.2837 17.9997 16.4C17.9997 15.5164 17.2834 14.8 16.3997 14.8C15.5161 14.8 14.7998 15.5164 14.7998 16.4C14.7998 17.2837 15.5161 18 16.3997 18Z" fill="#030615"/>
<path d="M16.3997 11.5999C17.2834 11.5999 17.9997 10.8835 17.9997 9.99987C17.9997 9.11624 17.2834 8.3999 16.3997 8.3999C15.5161 8.3999 14.7998 9.11624 14.7998 9.99987C14.7998 10.8835 15.5161 11.5999 16.3997 11.5999Z" fill="#030615"/>
<path d="M16.3997 5.19997C17.2834 5.19997 17.9997 4.48363 17.9997 3.59997C17.9997 2.71634 17.2834 2 16.3997 2C15.5161 2 14.7998 2.71634 14.7998 3.59997C14.7998 4.48363 15.5161 5.19997 16.3997 5.19997Z" fill="#030615"/>
<path d="M13.1995 14.8003C14.0831 14.8003 14.7994 14.084 14.7994 13.2003C14.7994 12.3167 14.0831 11.6003 13.1995 11.6003C12.3159 11.6003 11.5996 12.3167 11.5996 13.2003C11.5996 14.084 12.3159 14.8003 13.1995 14.8003Z" fill="#030615"/>
<path d="M13.1995 8.39968C14.0831 8.39968 14.7994 7.68334 14.7994 6.79971C14.7994 5.91605 14.0831 5.19971 13.1995 5.19971C12.3159 5.19971 11.5996 5.91605 11.5996 6.79971C11.5996 7.68334 12.3159 8.39968 13.1995 8.39968Z" fill="#030615"/>
<path d="M9.99935 18C10.883 18 11.5993 17.2837 11.5993 16.4C11.5993 15.5164 10.883 14.8 9.99935 14.8C9.11573 14.8 8.39941 15.5164 8.39941 16.4C8.39941 17.2837 9.11573 18 9.99935 18Z" fill="#030615"/>
<path d="M9.99935 11.5999C10.883 11.5999 11.5993 10.8835 11.5993 9.99987C11.5993 9.11624 10.883 8.3999 9.99935 8.3999C9.11573 8.3999 8.39941 9.11624 8.39941 9.99987C8.39941 10.8835 9.11573 11.5999 9.99935 11.5999Z" fill="#030615"/>
<path d="M9.99935 5.19997C10.883 5.19997 11.5993 4.48363 11.5993 3.59997C11.5993 2.71634 10.883 2 9.99935 2C9.11573 2 8.39941 2.71634 8.39941 3.59997C8.39941 4.48363 9.11573 5.19997 9.99935 5.19997Z" fill="#030615"/>
<path d="M6.79915 14.8003C7.68278 14.8003 8.39909 14.084 8.39909 13.2003C8.39909 12.3167 7.68278 11.6003 6.79915 11.6003C5.91553 11.6003 5.19922 12.3167 5.19922 13.2003C5.19922 14.084 5.91553 14.8003 6.79915 14.8003Z" fill="#030615"/>
<path d="M6.79915 8.39968C7.68278 8.39968 8.39909 7.68334 8.39909 6.79971C8.39909 5.91605 7.68278 5.19971 6.79915 5.19971C5.91553 5.19971 5.19922 5.91605 5.19922 6.79971C5.19922 7.68334 5.91553 8.39968 6.79915 8.39968Z" fill="#030615"/>
<path d="M3.59994 11.5999C4.48356 11.5999 5.19987 10.8835 5.19987 9.99987C5.19987 9.11624 4.48356 8.3999 3.59994 8.3999C2.71631 8.3999 2 9.11624 2 9.99987C2 10.8835 2.71631 11.5999 3.59994 11.5999Z" fill="#030615"/>
</svg>
