<svg width="20" height="20" viewBox="0 0 20 20" fill="none" xmlns="http://www.w3.org/2000/svg">
<path d="M7.32783 17.3515C7.3281 17.441 7.34675 17.5293 7.38273 17.6112C7.41866 17.693 7.47105 17.7666 7.5367 17.8273C7.6023 17.888 7.67974 17.9345 7.76412 17.9638C7.84851 17.9932 7.93807 18.0049 8.02716 17.9981C11.414 17.7557 14.6127 15.3588 15.634 11.6152C15.6876 11.3999 15.8492 11.2919 16.0644 11.2919C16.1747 11.2963 16.2789 11.3441 16.3543 11.4248C16.4296 11.5056 16.4702 11.6127 16.4671 11.7232C16.4671 12.5579 15.3941 14.7394 13.8598 16.0054C13.7815 16.0712 13.7192 16.1538 13.6774 16.247C13.6355 16.3403 13.6152 16.4418 13.618 16.544C13.6196 16.6271 13.6375 16.709 13.6708 16.7852C13.7041 16.8613 13.7521 16.9301 13.812 16.9877C13.8719 17.0452 13.9426 17.0904 14.02 17.1205C14.0974 17.1507 14.18 17.1653 14.2631 17.1634C14.3975 17.1634 14.6127 17.0826 14.8816 16.8401C15.9546 15.8703 17.9996 13.1501 17.9996 10.1604C17.9996 5.7771 14.6108 2 9.88152 2C5.66154 2 2.00586 5.44754 2.00586 9.43365C2.00586 12.073 4.10259 14.0657 6.87087 14.0657C8.99475 14.0657 10.957 12.5579 11.4948 10.4837C11.5484 10.2683 11.7094 10.1604 11.9246 10.1604C12.035 10.1648 12.1392 10.2126 12.2147 10.2933C12.2902 10.374 12.3308 10.4811 12.3279 10.5916C12.3279 11.5344 10.5537 14.8221 6.95164 14.8221C6.09139 14.8221 5.01651 14.5797 4.26351 14.1484C4.16271 14.0995 4.0529 14.072 3.94099 14.0676C3.85528 14.0643 3.76984 14.0788 3.69002 14.1101C3.61016 14.1414 3.5377 14.189 3.47708 14.2497C3.41651 14.3105 3.36915 14.383 3.33797 14.463C3.3068 14.5429 3.29249 14.6284 3.29596 14.7142C3.29944 14.824 3.33089 14.9311 3.3873 15.0253C3.44376 15.1196 3.52335 15.1979 3.61848 15.2528C4.61317 15.821 5.79599 16.1146 7.00531 16.1146C10.016 16.1146 12.7577 14.0676 13.5644 11.0513C13.618 10.836 13.7796 10.728 13.9942 10.728C14.1046 10.7325 14.2088 10.7802 14.2843 10.8609C14.3597 10.9416 14.4004 11.0488 14.3975 11.1593C14.3975 12.3981 12.1935 16.3842 7.94639 16.7075C7.78204 16.7197 7.62803 16.7922 7.51384 16.9111C7.39969 17.0299 7.33345 17.1868 7.32783 17.3515Z" fill="#DEDEFC"/>
<path d="M11.5374 7.03682C12.1171 7.03248 12.6861 7.19275 13.1784 7.49899C13.2281 7.22663 13.2556 6.9506 13.2604 6.67376C13.2604 5.39513 12.286 4.24976 11.0993 4.24976C10.1766 4.24976 9.59969 5.01437 9.59969 5.95897C9.5953 6.46928 9.7745 6.96413 10.1046 7.35316C10.5519 7.13981 11.0419 7.03161 11.5374 7.03682Z" fill="white"/>
<path d="M14.3176 11.6688C14.4823 11.1056 14.5549 10.7147 14.5549 10.4609C14.5499 10.3513 14.5029 10.2478 14.4237 10.1718C14.3445 10.0959 14.2392 10.0533 14.1295 10.053C14.0273 10.0549 13.9287 10.0909 13.8493 10.1553C13.77 10.2197 13.7144 10.3088 13.6915 10.4085C13.6466 10.5935 13.5507 11.0948 13.4561 11.4131C13.4952 11.2939 13.5309 11.1729 13.5633 11.05C13.617 10.8341 13.7786 10.7267 13.9932 10.7267C14.1035 10.731 14.2077 10.7786 14.2832 10.8592C14.3587 10.9398 14.3994 11.0469 14.3965 11.1573C14.3914 11.3309 14.3636 11.5031 14.3138 11.6694L14.3176 11.6688Z" fill="#C9C6FA"/>
<path d="M16.6024 11.0803C16.5972 10.9708 16.5503 10.8675 16.4713 10.7916C16.3922 10.7157 16.2871 10.673 16.1776 10.6724C16.0755 10.6744 15.977 10.7105 15.8978 10.7749C15.8186 10.8393 15.7631 10.9283 15.7402 11.0278C15.6948 11.2173 15.5969 11.7262 15.501 12.0438H15.5054C15.5521 11.9024 15.5957 11.759 15.6316 11.6132C15.6853 11.3972 15.8469 11.2899 16.0621 11.2899C16.1724 11.2942 16.2765 11.3418 16.3519 11.4224C16.4273 11.503 16.4678 11.6101 16.4648 11.7205C16.4617 11.8546 16.4433 11.9878 16.4099 12.1177C16.5437 11.6479 16.6024 11.3082 16.6024 11.0803Z" fill="#C9C6FA"/>
<path d="M11.5371 7.03685C11.8252 7.0363 12.1121 7.07475 12.3898 7.15113C12.5357 6.95219 12.6085 6.70908 12.5962 6.46268C12.5839 6.21623 12.487 5.98163 12.3221 5.79827C12.1571 5.61491 11.9339 5.49399 11.6903 5.45587C11.4467 5.41779 11.1973 5.46478 10.9842 5.58903L11.4261 6.31644L10.5986 5.9584C10.4865 6.13934 10.4303 6.34935 10.4371 6.56206C10.4438 6.77482 10.5132 6.98085 10.6365 7.15429C10.9301 7.07516 11.233 7.03566 11.5371 7.03685Z" fill="#0E0F34"/>
<path d="M5.16243 11.7181C5.511 11.7181 5.7936 11.4354 5.7936 11.0867C5.7936 10.738 5.511 10.4553 5.16243 10.4553C4.81386 10.4553 4.53125 10.738 4.53125 11.0867C4.53125 11.4354 4.81386 11.7181 5.16243 11.7181Z" fill="#C9C6FA"/>
<path d="M5.16243 9.19238C5.511 9.19238 5.7936 8.90968 5.7936 8.56097C5.7936 8.21226 5.511 7.92957 5.16243 7.92957C4.81386 7.92957 4.53125 8.21226 4.53125 8.56097C4.53125 8.90968 4.81386 9.19238 5.16243 9.19238Z" fill="#C9C6FA"/>
<path d="M3.89973 10.4552C4.2483 10.4552 4.53086 10.1725 4.53086 9.82379C4.53086 9.47508 4.2483 9.19238 3.89973 9.19238C3.55111 9.19238 3.26855 9.47508 3.26855 9.82379C3.26855 10.1725 3.55111 10.4552 3.89973 10.4552Z" fill="#C9C6FA"/>
<path d="M6.74007 14.0645H6.86629C8.99017 14.0645 10.9525 12.5566 11.4902 10.4824C11.5439 10.2671 11.7048 10.1592 11.92 10.1592C12.0304 10.1636 12.1346 10.2114 12.2101 10.292C12.2856 10.3728 12.3262 10.4799 12.3233 10.5904C12.3137 10.8108 12.2639 11.0276 12.1763 11.2301C12.1915 11.2066 12.2048 11.1818 12.216 11.1562C12.3757 10.791 12.4582 10.3967 12.4584 9.99815C12.4584 9.37872 12.0279 8.97465 11.41 8.97465C10.3326 8.97465 10.1168 9.91545 9.66236 10.9213C9.19086 11.9656 8.32489 13.0953 6.14108 13.0953C3.87205 13.0953 1.54051 11.506 2.10921 8.2744C2.11611 8.23399 2.12183 8.19801 2.12622 8.16455C2.04293 8.58201 2.00064 9.0067 2 9.43239C2.00631 12.0339 4.03803 14.0039 6.74007 14.0645Z" fill="#C9C6FA"/>
</svg>
