<svg width="20" height="20" viewBox="0 0 20 20" fill="none" xmlns="http://www.w3.org/2000/svg">
<path fill-rule="evenodd" clip-rule="evenodd" d="M7.32406 17.3516C7.32434 17.441 7.343 17.5293 7.37899 17.6112C7.41494 17.693 7.46734 17.7666 7.53302 17.8273C7.59864 17.8879 7.67611 17.9344 7.76053 17.9638C7.84496 17.9932 7.93455 18.0049 8.02368 17.9981C11.4118 17.7557 14.6118 15.3588 15.6334 11.6152C15.6871 11.3999 15.8488 11.2919 16.0641 11.2919C16.1745 11.2963 16.2786 11.3441 16.354 11.4248C16.4295 11.5055 16.47 11.6127 16.4669 11.7232C16.4669 12.5579 15.3935 14.7394 13.8586 16.0054C13.7803 16.0712 13.7179 16.1538 13.6761 16.247C13.6342 16.3403 13.6139 16.4418 13.6167 16.544C13.6183 16.6271 13.6362 16.709 13.6695 16.7852C13.7028 16.8613 13.7508 16.9301 13.8108 16.9877C13.8707 17.0452 13.9414 17.0903 14.0189 17.1205C14.0963 17.1507 14.179 17.1652 14.262 17.1634C14.3965 17.1634 14.6118 17.0826 14.8808 16.8401C15.9542 15.8703 18 13.1501 18 10.1604C18 5.7771 14.61 2 9.87876 2C5.65712 2 2 5.4475 2 9.43365C2 12.0729 4.09756 14.0657 6.86692 14.0657C8.9916 14.0657 10.9547 12.5579 11.4927 10.4837C11.5463 10.2683 11.7073 10.1604 11.9226 10.1604C12.0331 10.1649 12.1373 10.2126 12.2128 10.2933C12.2883 10.374 12.329 10.4811 12.3261 10.5916C12.3261 11.5344 10.5512 14.8221 6.94773 14.8221C6.08714 14.8221 5.01184 14.5797 4.25854 14.1484C4.1577 14.0995 4.04785 14.072 3.93589 14.0676C3.85015 14.0643 3.76467 14.0788 3.68482 14.1101C3.60493 14.1414 3.53244 14.189 3.4718 14.2497C3.41121 14.3105 3.36383 14.383 3.33264 14.463C3.30145 14.5429 3.28714 14.6284 3.29061 14.7142C3.29409 14.824 3.32555 14.9311 3.38198 15.0253C3.43846 15.1196 3.51804 15.1979 3.61325 15.2528C4.60834 15.821 5.79162 16.1146 7.00142 16.1146C10.0133 16.1146 12.7561 14.0676 13.5631 11.0513C13.6167 10.836 13.7784 10.7281 13.9931 10.7281C14.1035 10.7325 14.2077 10.7802 14.2832 10.8609C14.3587 10.9416 14.3994 11.0488 14.3965 11.1593C14.3965 12.3981 12.1916 16.3842 7.94287 16.7075C7.77846 16.7197 7.62439 16.7922 7.51015 16.9111C7.39596 17.03 7.32969 17.1868 7.32406 17.3516ZM5.1617 11.6775C5.48236 11.6775 5.74235 11.4176 5.74235 11.0969C5.74235 10.7762 5.48236 10.5162 5.1617 10.5162C4.84103 10.5162 4.58105 10.7762 4.58105 11.0969C4.58105 11.4176 4.84103 11.6775 5.1617 11.6775ZM5.74235 8.58071C5.74235 8.93701 5.48236 9.22587 5.1617 9.22587C4.84103 9.22587 4.58105 8.93701 4.58105 8.58071C4.58105 8.2244 4.84103 7.93555 5.1617 7.93555C5.48236 7.93555 5.74235 8.2244 5.74235 8.58071ZM3.93522 10.5163C4.29153 10.5163 4.58036 10.2274 4.58036 9.87111C4.58036 9.51481 4.29153 9.22595 3.93522 9.22595C3.57887 9.22595 3.29004 9.51481 3.29004 9.87111C3.29004 10.2274 3.57887 10.5163 3.93522 10.5163ZM13.1442 7.54856C12.6584 7.23237 12.0968 7.06689 11.5247 7.07137C11.0357 7.06599 10.5521 7.17771 10.1107 7.398C9.7849 6.99632 9.60805 6.48538 9.61238 5.95849C9.61238 4.98319 10.1817 4.19373 11.0924 4.19373C12.2635 4.19373 13.2252 5.37632 13.2252 6.69651C13.2204 6.98235 13.1933 7.26735 13.1442 7.54856Z" fill="#030615"/>
<path d="M11.5049 7.09807C11.7973 7.09753 12.0885 7.13522 12.3704 7.21009C12.5184 7.01508 12.5924 6.77679 12.5799 6.53527C12.5673 6.29374 12.4691 6.06374 12.3016 5.88401C12.1341 5.70428 11.9077 5.58576 11.6604 5.54838C11.413 5.51106 11.1599 5.55712 10.9436 5.67891L11.3921 6.39192L10.5522 6.04097C10.4385 6.21833 10.3814 6.42418 10.3882 6.63273C10.3951 6.84122 10.4655 7.04318 10.5907 7.21319C10.8887 7.13562 11.1962 7.09691 11.5049 7.09807Z" fill="#030615"/>
</svg>
