<svg width="20" height="20" viewBox="0 0 20 20" fill="none" xmlns="http://www.w3.org/2000/svg">
<path d="M11.667 16.6667V15H14.167C14.4031 15 14.601 14.9202 14.7607 14.7605C14.9205 14.6007 15.0003 14.4028 15.0003 14.1667V12.5C15.0003 11.9723 15.1531 11.4931 15.4587 11.0625C15.7642 10.632 16.167 10.3264 16.667 10.1459V9.85421C16.167 9.67365 15.7642 9.3681 15.4587 8.93754C15.1531 8.50698 15.0003 8.02782 15.0003 7.50004V5.83337C15.0003 5.59726 14.9205 5.39935 14.7607 5.23962C14.601 5.0799 14.4031 5.00004 14.167 5.00004H11.667V3.33337H14.167C14.8614 3.33337 15.4517 3.57643 15.9378 4.06254C16.4239 4.54865 16.667 5.13893 16.667 5.83337V7.50004C16.667 7.73615 16.7469 7.93407 16.9066 8.09379C17.0663 8.25351 17.2642 8.33337 17.5003 8.33337H18.3337V11.6667H17.5003C17.2642 11.6667 17.0663 11.7466 16.9066 11.9063C16.7469 12.066 16.667 12.2639 16.667 12.5V14.1667C16.667 14.8612 16.4239 15.4514 15.9378 15.9375C15.4517 16.4237 14.8614 16.6667 14.167 16.6667H11.667ZM5.83366 16.6667C5.13921 16.6667 4.54894 16.4237 4.06283 15.9375C3.57671 15.4514 3.33366 14.8612 3.33366 14.1667V12.5C3.33366 12.2639 3.2538 12.066 3.09408 11.9063C2.93435 11.7466 2.73644 11.6667 2.50033 11.6667H1.66699V8.33337H2.50033C2.73644 8.33337 2.93435 8.25351 3.09408 8.09379C3.2538 7.93407 3.33366 7.73615 3.33366 7.50004V5.83337C3.33366 5.13893 3.57671 4.54865 4.06283 4.06254C4.54894 3.57643 5.13921 3.33337 5.83366 3.33337H8.33366V5.00004H5.83366C5.59755 5.00004 5.39963 5.0799 5.23991 5.23962C5.08019 5.39935 5.00033 5.59726 5.00033 5.83337V7.50004C5.00033 8.02782 4.84755 8.50698 4.54199 8.93754C4.23644 9.3681 3.83366 9.67365 3.33366 9.85421V10.1459C3.83366 10.3264 4.23644 10.632 4.54199 11.0625C4.84755 11.4931 5.00033 11.9723 5.00033 12.5V14.1667C5.00033 14.4028 5.08019 14.6007 5.23991 14.7605C5.39963 14.9202 5.59755 15 5.83366 15H8.33366V16.6667H5.83366Z" fill="#030615"/>
</svg>
