<svg width="20" height="20" viewBox="0 0 20 20" fill="none" xmlns="http://www.w3.org/2000/svg">
<path d="M10.0003 1.66669C5.40866 1.66669 1.66699 5.40835 1.66699 10C1.66699 14.5917 5.40866 18.3334 10.0003 18.3334C14.592 18.3334 18.3337 14.5917 18.3337 10C18.3337 5.40835 14.592 1.66669 10.0003 1.66669ZM10.0003 16.6667C6.32533 16.6667 3.33366 13.675 3.33366 10C3.33366 6.32502 6.32533 3.33335 10.0003 3.33335C13.6753 3.33335 16.667 6.32502 16.667 10C16.667 13.675 13.6753 16.6667 10.0003 16.6667ZM12.1587 7.15835L13.3337 8.33335L10.0003 11.6667L6.66699 8.33335L7.84199 7.15835L9.16699 8.47502V5.00002H10.8337V8.47502L12.1587 7.15835ZM14.167 14.1667H5.83366V12.5H14.167V14.1667Z" fill="#030615"/>
</svg>
