<svg width="20" height="20" viewBox="0 0 20 20" fill="none" xmlns="http://www.w3.org/2000/svg">
<path d="M11.7167 7.51667L12.4833 8.28333L4.93333 15.8333H4.16667V15.0667L11.7167 7.51667ZM14.7167 2.5C14.5083 2.5 14.2917 2.58333 14.1333 2.74167L12.6083 4.26667L15.7333 7.39167L17.2583 5.86667C17.3356 5.78957 17.3969 5.698 17.4387 5.59719C17.4805 5.49638 17.502 5.38831 17.502 5.27917C17.502 5.17003 17.4805 5.06196 17.4387 4.96115C17.3969 4.86034 17.3356 4.76876 17.2583 4.69167L15.3083 2.74167C15.1417 2.575 14.9333 2.5 14.7167 2.5ZM11.7167 5.15833L2.5 14.375V17.5H5.625L14.8417 8.28333L11.7167 5.15833Z" fill="#030615"/>
</svg>
