<svg width="20" height="20" viewBox="0 0 20 20" fill="none" xmlns="http://www.w3.org/2000/svg">
<path d="M3.33366 17.5C2.87533 17.5 2.48296 17.3368 2.15658 17.0104C1.83019 16.684 1.66699 16.2917 1.66699 15.8333V4.16667C1.66699 3.70833 1.83019 3.31597 2.15658 2.98958C2.48296 2.66319 2.87533 2.5 3.33366 2.5H16.667C17.1253 2.5 17.5177 2.66319 17.8441 2.98958C18.1705 3.31597 18.3337 3.70833 18.3337 4.16667V15.8333C18.3337 16.2917 18.1705 16.684 17.8441 17.0104C17.5177 17.3368 17.1253 17.5 16.667 17.5H3.33366ZM3.33366 15.8333H16.667V4.16667H3.33366V15.8333ZM4.16699 14.1667H8.33366V12.5H4.16699V14.1667ZM12.1253 12.5L16.2503 8.375L15.0628 7.1875L12.1253 10.1458L10.9378 8.95833L9.77116 10.1458L12.1253 12.5ZM4.16699 10.8333H8.33366V9.16667H4.16699V10.8333ZM4.16699 7.5H8.33366V5.83333H4.16699V7.5Z" fill="#030615"/>
</svg>
