<svg width="20" height="20" viewBox="0 0 20 20" fill="none" xmlns="http://www.w3.org/2000/svg">
<g clip-path="url(#clip0_3686_10025)">
<path fill-rule="evenodd" clip-rule="evenodd" d="M17.7273 4.77272H2.27273C1.64513 4.77272 1.13636 5.28148 1.13636 5.90908V14.0909C1.13636 14.7185 1.64513 15.2273 2.27273 15.2273H17.7273C18.3549 15.2273 18.8636 14.7185 18.8636 14.0909V5.90908C18.8636 5.28148 18.3549 4.77272 17.7273 4.77272ZM2.27273 3.63635C1.01754 3.63635 0 4.65389 0 5.90908V14.0909C0 15.3461 1.01754 16.3636 2.27273 16.3636H17.7273C18.9825 16.3636 20 15.3461 20 14.0909V5.90908C20 4.65389 18.9825 3.63635 17.7273 3.63635H2.27273Z" fill="#030615"/>
<path d="M5.44395 10.976H6.83587C6.81674 11.4142 6.71151 11.7842 6.52018 12.0862C6.32885 12.3854 6.0562 12.6126 5.70224 12.7675C5.35147 12.9225 4.92735 13 4.4299 13C4.04405 13 3.70125 12.9466 3.40149 12.8397C3.10174 12.7301 2.84664 12.5698 2.63617 12.3587C2.42571 12.1476 2.26627 11.8871 2.15785 11.5772C2.05262 11.2645 2 10.9051 2 10.499V9.50902C2 9.10287 2.0558 8.74349 2.16741 8.43086C2.28221 8.11824 2.44484 7.85638 2.65531 7.64529C2.86896 7.43153 3.12566 7.27121 3.42541 7.16433C3.72835 7.05478 4.06956 7 4.44903 7C4.95605 7 5.38017 7.08016 5.72137 7.24048C6.06258 7.4008 6.32566 7.6346 6.51061 7.94188C6.69875 8.24649 6.81196 8.61924 6.85022 9.06012H5.45351C5.44395 8.78223 5.40568 8.56446 5.33871 8.40681C5.27494 8.24649 5.17289 8.13427 5.03259 8.07014C4.89228 8.00334 4.69776 7.96994 4.44903 7.96994C4.26408 7.96994 4.10463 7.998 3.9707 8.05411C3.83677 8.10755 3.72676 8.19439 3.64066 8.31463C3.55456 8.43487 3.49078 8.59252 3.44933 8.78758C3.41106 8.98263 3.39193 9.22044 3.39193 9.501V10.499C3.39193 10.7742 3.40947 11.0094 3.44454 11.2044C3.47962 11.3968 3.53543 11.5544 3.61196 11.6774C3.68849 11.8003 3.79213 11.8898 3.92287 11.9459C4.0568 12.002 4.22581 12.0301 4.4299 12.0301C4.66587 12.0301 4.85561 12.0007 4.9991 11.9419C5.14579 11.8831 5.25421 11.7776 5.32436 11.6253C5.39452 11.4729 5.43438 11.2565 5.44395 10.976Z" fill="#030615"/>
<path d="M10.6577 11.3848C10.6577 11.2806 10.6465 11.1857 10.6242 11.1002C10.6019 11.0147 10.5541 10.9359 10.4807 10.8637C10.4106 10.7916 10.3069 10.7194 10.1698 10.6473C10.0359 10.5752 9.86049 10.5003 9.64365 10.4228C9.38535 10.332 9.13503 10.2358 8.89268 10.1343C8.65032 10.0301 8.43189 9.90982 8.23737 9.77355C8.04285 9.63727 7.88819 9.47695 7.77339 9.29259C7.66178 9.10554 7.60598 8.88644 7.60598 8.63527C7.60598 8.38945 7.65859 8.16633 7.76383 7.96593C7.87225 7.76553 8.02531 7.59452 8.22302 7.45291C8.42073 7.30862 8.65192 7.19773 8.91659 7.12024C9.18445 7.04275 9.48261 7.00401 9.81106 7.00401C10.2575 7.00401 10.6433 7.0815 10.9686 7.23647C11.2971 7.39145 11.5506 7.60387 11.7291 7.87375C11.9109 8.14362 12.0018 8.45357 12.0018 8.80361H10.6051C10.6051 8.63794 10.5764 8.49232 10.519 8.36673C10.4648 8.23848 10.3771 8.13828 10.2559 8.06613C10.1347 7.99399 9.97848 7.95792 9.78714 7.95792C9.60857 7.95792 9.46029 7.98864 9.3423 8.0501C9.2275 8.10888 9.14141 8.19038 9.08401 8.29459C9.0298 8.39613 9.00269 8.51102 9.00269 8.63928C9.00269 8.73547 9.0298 8.82231 9.08401 8.8998C9.14141 8.97462 9.21953 9.04275 9.31839 9.10421C9.41724 9.16299 9.53363 9.22044 9.66756 9.27655C9.80468 9.33267 9.95456 9.38744 10.1172 9.44088C10.4329 9.54509 10.7119 9.65999 10.9543 9.78557C11.1966 9.90848 11.3991 10.0474 11.5617 10.2024C11.7244 10.3547 11.8471 10.5271 11.93 10.7194C12.013 10.9118 12.0544 11.1309 12.0544 11.3768C12.0544 11.6199 12.0034 11.8417 11.9013 12.0421C11.8025 12.2398 11.6574 12.4108 11.4661 12.5551C11.2747 12.6967 11.0435 12.8063 10.7725 12.8838C10.5046 12.9613 10.2049 13 9.87324 13C9.55117 13 9.24664 12.9626 8.95964 12.8878C8.67265 12.8103 8.41913 12.6941 8.1991 12.5391C7.98226 12.3814 7.81166 12.1824 7.68729 11.9419C7.56293 11.6987 7.50075 11.4115 7.50075 11.0802H8.90224C8.90224 11.2565 8.92297 11.4075 8.96442 11.5331C9.00588 11.656 9.06966 11.7548 9.15575 11.8297C9.24185 11.9018 9.34708 11.9566 9.47145 11.994C9.599 12.0287 9.7441 12.0461 9.90673 12.0461C10.0917 12.0461 10.2384 12.0167 10.3468 11.9579C10.4584 11.8991 10.5381 11.8203 10.5859 11.7214C10.6338 11.6226 10.6577 11.5104 10.6577 11.3848Z" fill="#030615"/>
<path d="M15.1683 11.6733L16.4885 7.08417H18L15.9815 12.9198H14.9626L15.1683 11.6733ZM14.0395 7.08417L15.3549 11.6733L15.5701 12.9198H14.5465L12.5423 7.08417H14.0395Z" fill="#030615"/>
</g>
<defs>
<clipPath id="clip0_3686_10025">
<rect width="20" height="20" fill="white"/>
</clipPath>
</defs>
</svg>
