<svg width="20" height="20" viewBox="0 0 20 20" fill="none" xmlns="http://www.w3.org/2000/svg">
<path d="M5.83324 4.99998H14.1666L9.99157 10.25L5.83324 4.99998ZM3.54157 4.67498C5.2249 6.83331 8.33324 10.8333 8.33324 10.8333V15.8333C8.33324 16.2916 8.70824 16.6666 9.16657 16.6666H10.8332C11.2916 16.6666 11.6666 16.2916 11.6666 15.8333V10.8333C11.6666 10.8333 14.7666 6.83331 16.4499 4.67498C16.5454 4.55196 16.6045 4.40459 16.6203 4.24965C16.6362 4.09472 16.6082 3.93844 16.5396 3.79862C16.471 3.6588 16.3645 3.54106 16.2323 3.45879C16.1 3.37653 15.9473 3.33305 15.7916 3.33331H4.1999C3.50824 3.33331 3.11657 4.12498 3.54157 4.67498Z" fill="#030615"/>
</svg>
