<svg width="20" height="20" viewBox="0 0 20 20" fill="none" xmlns="http://www.w3.org/2000/svg">
<path d="M7.50008 16.1666C6.37508 15.7222 5.448 15.0243 4.71883 14.0729C3.98966 13.1215 3.54869 12.0416 3.39591 10.8333H5.08341C5.20841 11.5694 5.47925 12.243 5.89591 12.8541C6.31258 13.4652 6.8473 13.9583 7.50008 14.3333V16.1666ZM10.4167 18.3333C10.0695 18.3333 9.77439 18.2118 9.53133 17.9687C9.28828 17.7257 9.16675 17.4305 9.16675 17.0833V12.0833C9.16675 11.7361 9.28828 11.4409 9.53133 11.1979C9.77439 10.9548 10.0695 10.8333 10.4167 10.8333H12.2501C12.4584 10.8333 12.6563 10.8819 12.8438 10.9791C13.0313 11.0763 13.1806 11.2152 13.2917 11.3958L13.7501 12.0833H17.0834C17.4306 12.0833 17.7258 12.2048 17.9688 12.4479C18.2119 12.6909 18.3334 12.9861 18.3334 13.3333V17.0833C18.3334 17.4305 18.2119 17.7257 17.9688 17.9687C17.7258 18.2118 17.4306 18.3333 17.0834 18.3333H10.4167ZM2.91675 9.16663C2.56953 9.16663 2.27439 9.0451 2.03133 8.80204C1.78828 8.55899 1.66675 8.26385 1.66675 7.91663V2.91663C1.66675 2.5694 1.78828 2.27426 2.03133 2.03121C2.27439 1.78815 2.56953 1.66663 2.91675 1.66663H4.75008C4.95841 1.66663 5.15633 1.71524 5.34383 1.81246C5.53133 1.90968 5.68064 2.04857 5.79175 2.22913L6.25008 2.91663H9.58341C9.93064 2.91663 10.2258 3.03815 10.4688 3.28121C10.7119 3.52426 10.8334 3.8194 10.8334 4.16663V7.91663C10.8334 8.26385 10.7119 8.55899 10.4688 8.80204C10.2258 9.0451 9.93064 9.16663 9.58341 9.16663H2.91675ZM15.0001 9.99996C15.0001 9.09718 14.7779 8.26038 14.3334 7.48954C13.889 6.71871 13.2779 6.11107 12.5001 5.66663V3.83329C13.764 4.34718 14.7744 5.16315 15.5313 6.28121C16.2883 7.39926 16.6667 8.63885 16.6667 9.99996H15.0001ZM10.8334 16.6666H16.6667V13.75H12.8542L12.0209 12.5H10.8334V16.6666ZM3.33341 7.49996H9.16675V4.58329H5.35425L4.52091 3.33329H3.33341V7.49996Z" fill="#030615"/>
</svg>
