<svg width="20" height="20" viewBox="0 0 20 20" fill="none" xmlns="http://www.w3.org/2000/svg">
<path fill-rule="evenodd" clip-rule="evenodd" d="M5.57773 2L2 12.2121L9.88707 17.9025L9.9715 17.9697L9.97587 17.9665L10.0223 18L10.2747 17.7847L10.4479 17.6278L17.9997 12.2091L14.283 2.15765L12.0738 8.92419H7.78071L5.57773 2ZM6.72291 8.92419L5.53215 5.18545L4.22232 8.92419H6.72291ZM3.86654 9.93972H7.04634L8.97473 15.9945L3.20394 11.831L3.86654 9.93972ZM8.10381 9.93972H11.7423L9.89954 15.5839L8.10381 9.93972ZM12.8049 9.93972L10.7799 16.1422L16.7839 11.8341L16.0834 9.93972H12.8049ZM15.7079 8.92419L14.3422 5.23089L13.1364 8.92419H15.7079Z" fill="#030615"/>
</svg>
