<svg width="20" height="20" viewBox="0 0 20 20" fill="none" xmlns="http://www.w3.org/2000/svg">
<path d="M13.0625 9.16663H15.8333V5.83329H13.0625V9.16663ZM8.60417 9.16663H11.375V5.83329H8.60417V9.16663ZM4.16667 9.16663H6.9375V5.83329H4.16667V9.16663ZM4.16667 14.1666H6.9375V10.8333H4.16667V14.1666ZM8.60417 14.1666H11.375V10.8333H8.60417V14.1666ZM13.0625 14.1666H15.8333V10.8333H13.0625V14.1666ZM2.5 14.1666V5.83329C2.5 5.37496 2.66319 4.9826 2.98958 4.65621C3.31597 4.32982 3.70833 4.16663 4.16667 4.16663H15.8333C16.2917 4.16663 16.684 4.32982 17.0104 4.65621C17.3368 4.9826 17.5 5.37496 17.5 5.83329V14.1666C17.5 14.625 17.3368 15.0173 17.0104 15.3437C16.684 15.6701 16.2917 15.8333 15.8333 15.8333H4.16667C3.70833 15.8333 3.31597 15.6701 2.98958 15.3437C2.66319 15.0173 2.5 14.625 2.5 14.1666Z" fill="#030615"/>
</svg>
