<svg width="20" height="20" viewBox="0 0 20 20" fill="none" xmlns="http://www.w3.org/2000/svg">
<path d="M10.0003 17.5L8.79199 16.4167C7.38921 15.1528 6.22949 14.0625 5.31283 13.1459C4.39616 12.2292 3.66699 11.4063 3.12533 10.6771C2.58366 9.94796 2.20519 9.27782 1.98991 8.66671C1.77463 8.0556 1.66699 7.4306 1.66699 6.79171C1.66699 5.48615 2.10449 4.39587 2.97949 3.52087C3.85449 2.64587 4.94477 2.20837 6.25033 2.20837C6.97255 2.20837 7.66005 2.36115 8.31283 2.66671C8.9656 2.97226 9.5281 3.40282 10.0003 3.95837C10.4725 3.40282 11.035 2.97226 11.6878 2.66671C12.3406 2.36115 13.0281 2.20837 13.7503 2.20837C15.0559 2.20837 16.1462 2.64587 17.0212 3.52087C17.8962 4.39587 18.3337 5.48615 18.3337 6.79171C18.3337 7.4306 18.226 8.0556 18.0107 8.66671C17.7955 9.27782 17.417 9.94796 16.8753 10.6771C16.3337 11.4063 15.6045 12.2292 14.6878 13.1459C13.7712 14.0625 12.6114 15.1528 11.2087 16.4167L10.0003 17.5ZM10.0003 15.25C11.3337 14.0556 12.4309 13.0313 13.292 12.1771C14.1531 11.323 14.8337 10.5799 15.3337 9.94796C15.8337 9.31601 16.1809 8.75351 16.3753 8.26046C16.5698 7.7674 16.667 7.27782 16.667 6.79171C16.667 5.95837 16.3892 5.26393 15.8337 4.70837C15.2781 4.15282 14.5837 3.87504 13.7503 3.87504C13.0975 3.87504 12.4934 4.05907 11.9378 4.42712C11.3823 4.79518 11.0003 5.26393 10.792 5.83337H9.20866C9.00033 5.26393 8.61838 4.79518 8.06283 4.42712C7.50727 4.05907 6.9031 3.87504 6.25033 3.87504C5.41699 3.87504 4.72255 4.15282 4.16699 4.70837C3.61144 5.26393 3.33366 5.95837 3.33366 6.79171C3.33366 7.27782 3.43088 7.7674 3.62533 8.26046C3.81977 8.75351 4.16699 9.31601 4.66699 9.94796C5.16699 10.5799 5.84755 11.323 6.70866 12.1771C7.56977 13.0313 8.66699 14.0556 10.0003 15.25Z" fill="#030615"/>
</svg>
