<svg width="20" height="20" viewBox="0 0 20 20" fill="none" xmlns="http://www.w3.org/2000/svg">
<path d="M10.833 2.5C8.84388 2.5 6.93623 3.29018 5.52971 4.6967C4.12318 6.10322 3.33301 8.01088 3.33301 10H0.833008L4.07467 13.2417L4.13301 13.3583L7.49967 10H4.99967C4.99967 6.775 7.60801 4.16667 10.833 4.16667C14.058 4.16667 16.6663 6.775 16.6663 10C16.6663 13.225 14.058 15.8333 10.833 15.8333C9.22467 15.8333 7.76634 15.175 6.71634 14.1167L5.53301 15.3C6.22752 15.9983 7.05341 16.5523 7.96306 16.9299C8.87271 17.3075 9.84811 17.5012 10.833 17.5C12.8221 17.5 14.7298 16.7098 16.1363 15.3033C17.5428 13.8968 18.333 11.9891 18.333 10C18.333 8.01088 17.5428 6.10322 16.1363 4.6967C14.7298 3.29018 12.8221 2.5 10.833 2.5ZM9.99967 6.66667V10.8333L13.5413 12.9333L14.183 11.8667L11.2497 10.125V6.66667H9.99967Z" fill="#030615"/>
</svg>
