<svg width="20" height="20" viewBox="0 0 20 20" fill="none" xmlns="http://www.w3.org/2000/svg">
<path d="M12.4997 14.1667H5.83301V12.5H9.16634C8.9719 12.2639 8.81565 12.0035 8.69759 11.7188C8.57954 11.4341 8.48579 11.1389 8.41634 10.8334H3.74967V9.16671H8.41634C8.48579 8.86115 8.57954 8.56601 8.69759 8.28129C8.81565 7.99657 8.9719 7.73615 9.16634 7.50004H3.33301V5.83337H12.4997C13.6525 5.83337 14.6351 6.23962 15.4476 7.05212C16.2601 7.86462 16.6663 8.84726 16.6663 10C16.6663 11.1528 16.2601 12.1355 15.4476 12.948C14.6351 13.7605 13.6525 14.1667 12.4997 14.1667ZM12.4997 12.5C13.1941 12.5 13.7844 12.257 14.2705 11.7709C14.7566 11.2848 14.9997 10.6945 14.9997 10C14.9997 9.3056 14.7566 8.71532 14.2705 8.22921C13.7844 7.7431 13.1941 7.50004 12.4997 7.50004C11.8052 7.50004 11.215 7.7431 10.7288 8.22921C10.2427 8.71532 9.99967 9.3056 9.99967 10C9.99967 10.6945 10.2427 11.2848 10.7288 11.7709C11.215 12.257 11.8052 12.5 12.4997 12.5ZM3.33301 14.1667V12.5H4.99967V14.1667H3.33301Z" fill="#030615"/>
</svg>
