<svg width="20" height="20" viewBox="0 0 20 20" fill="none" xmlns="http://www.w3.org/2000/svg">
<path d="M6.16699 18.3333L5.00033 17.1667L10.7503 11.3958L13.667 14.3125L17.9795 10L19.167 11.1875L13.667 16.6667L10.7503 13.75L6.16699 18.3333ZM3.33366 17.5C2.87533 17.5 2.48296 17.3368 2.15658 17.0104C1.83019 16.684 1.66699 16.2917 1.66699 15.8333V4.16667C1.66699 3.70833 1.83019 3.31597 2.15658 2.98958C2.48296 2.66319 2.87533 2.5 3.33366 2.5H15.0003C15.4587 2.5 15.851 2.66319 16.1774 2.98958C16.5038 3.31597 16.667 3.70833 16.667 4.16667V7.66667H3.33366V17.5ZM3.33366 6H15.0003V4.16667H3.33366V6Z" fill="#030615"/>
</svg>
