<svg width="20" height="20" viewBox="0 0 20 20" fill="none" xmlns="http://www.w3.org/2000/svg">
<path d="M4.16667 16.6667V15H5.5L7.14583 9.52083C7.25694 9.15972 7.46181 8.87153 7.76042 8.65625C8.05903 8.44097 8.38889 8.33333 8.75 8.33333H11.25C11.6111 8.33333 11.941 8.44097 12.2396 8.65625C12.5382 8.87153 12.7431 9.15972 12.8542 9.52083L14.5 15H15.8333V16.6667H4.16667ZM7.25 15H12.75L11.25 10H8.75L7.25 15ZM9.16667 6.66667V2.5H10.8333V6.66667H9.16667ZM14.125 8.72917L12.9375 7.54167L15.8958 4.60417L17.0625 5.77083L14.125 8.72917ZM15 12.5V10.8333H19.1667V12.5H15ZM5.875 8.72917L2.9375 5.77083L4.10417 4.60417L7.0625 7.54167L5.875 8.72917ZM0.833333 12.5V10.8333H5V12.5H0.833333Z" fill="#030615"/>
</svg>
