<svg width="20" height="20" viewBox="0 0 20 20" fill="none" xmlns="http://www.w3.org/2000/svg">
<path d="M10.0003 1.66663C6.77533 1.66663 4.16699 4.27496 4.16699 7.49996C4.16699 11.875 10.0003 18.3333 10.0003 18.3333C10.0003 18.3333 15.8337 11.875 15.8337 7.49996C15.8337 4.27496 13.2253 1.66663 10.0003 1.66663ZM5.83366 7.49996C5.83366 5.19996 7.70033 3.33329 10.0003 3.33329C12.3003 3.33329 14.167 5.19996 14.167 7.49996C14.167 9.89996 11.767 13.4916 10.0003 15.7333C8.26699 13.5083 5.83366 9.87496 5.83366 7.49996Z" fill="#030615"/>
<path d="M10.0003 9.58329C11.1509 9.58329 12.0837 8.65055 12.0837 7.49996C12.0837 6.34937 11.1509 5.41663 10.0003 5.41663C8.84973 5.41663 7.91699 6.34937 7.91699 7.49996C7.91699 8.65055 8.84973 9.58329 10.0003 9.58329Z" fill="#030615"/>
</svg>
