<svg width="20" height="20" viewBox="0 0 20 20" fill="none" xmlns="http://www.w3.org/2000/svg">
<g clip-path="url(#clip0_3686_9552)">
<path d="M14.9997 6.66671H14.1663V5.00004C14.1663 2.70004 12.2997 0.833374 9.99967 0.833374C7.69967 0.833374 5.83301 2.70004 5.83301 5.00004V6.66671H4.99967C4.08301 6.66671 3.33301 7.41671 3.33301 8.33337V16.6667C3.33301 17.5834 4.08301 18.3334 4.99967 18.3334H14.9997C15.9163 18.3334 16.6663 17.5834 16.6663 16.6667V8.33337C16.6663 7.41671 15.9163 6.66671 14.9997 6.66671ZM7.49967 5.00004C7.49967 3.61671 8.61634 2.50004 9.99967 2.50004C11.383 2.50004 12.4997 3.61671 12.4997 5.00004V6.66671H7.49967V5.00004ZM14.9997 16.6667H4.99967V8.33337H14.9997V16.6667ZM9.99967 14.1667C10.9163 14.1667 11.6663 13.4167 11.6663 12.5C11.6663 11.5834 10.9163 10.8334 9.99967 10.8334C9.08301 10.8334 8.33301 11.5834 8.33301 12.5C8.33301 13.4167 9.08301 14.1667 9.99967 14.1667Z" fill="#030615"/>
</g>
<defs>
<clipPath id="clip0_3686_9552">
<rect width="20" height="20" fill="white"/>
</clipPath>
</defs>
</svg>
