<svg width="16" height="16" viewBox="0 0 16 16" fill="none" xmlns="http://www.w3.org/2000/svg">
<g id="tag">
<path id="Vector" d="M6.7201 10.5596C7.78676 10.5596 8.69343 10.1863 9.4401 9.43961C10.1868 8.69294 10.5601 7.78628 10.5601 6.71961C10.5601 5.65294 10.1868 4.74628 9.4401 3.99961C8.69343 3.25294 7.78676 2.87961 6.7201 2.87961C5.65343 2.87961 4.74676 3.25294 4.0001 3.99961C3.25343 4.74628 2.8801 5.65294 2.8801 6.71961C2.8801 7.78628 3.25343 8.69294 4.0001 9.43961C4.74676 10.1863 5.65343 10.5596 6.7201 10.5596ZM6.0481 8.99161L9.6641 5.35961L8.7521 4.44761L6.0481 7.16761L4.6881 5.82361L3.7761 6.71961L6.0481 8.99161ZM6.7201 11.8396C5.29076 11.8396 4.0801 11.3436 3.0881 10.3516C2.0961 9.35961 1.6001 8.14894 1.6001 6.71961C1.6001 5.29028 2.0961 4.07961 3.0881 3.08761C4.0801 2.09561 5.29076 1.59961 6.7201 1.59961C8.14943 1.59961 9.3601 2.09561 10.3521 3.08761C11.3441 4.07961 11.8401 5.29028 11.8401 6.71961C11.8401 7.31694 11.7468 7.87961 11.5601 8.40761C11.3734 8.93561 11.1094 9.41828 10.7681 9.85561L14.4001 13.5036L13.5041 14.3996L9.8561 10.7676C9.41876 11.1089 8.9361 11.3729 8.4081 11.5596C7.8801 11.7463 7.31743 11.8396 6.7201 11.8396Z" fill="#3F485B"/>
</g>
</svg>
