<svg width="20" height="20" viewBox="0 0 20 20" fill="none" xmlns="http://www.w3.org/2000/svg">
<path d="M3.54199 15.25C3.01421 14.625 2.5906 13.9375 2.27116 13.1875C1.95171 12.4375 1.75033 11.6528 1.66699 10.8334H3.37533C3.45866 11.4306 3.61144 12.0035 3.83366 12.5521C4.05588 13.1007 4.34755 13.6112 4.70866 14.0834L3.54199 15.25ZM1.66699 9.16671C1.7781 8.34726 1.98644 7.56254 2.29199 6.81254C2.59755 6.06254 3.01421 5.37504 3.54199 4.75004L4.70866 5.91671C4.34755 6.38893 4.05588 6.89935 3.83366 7.44796C3.61144 7.99657 3.45866 8.56948 3.37533 9.16671H1.66699ZM9.12533 18.2917C8.30588 18.2084 7.52463 18.0105 6.78158 17.698C6.03852 17.3855 5.34755 16.9723 4.70866 16.4584L5.87533 15.25C6.36144 15.6112 6.87533 15.9098 7.41699 16.1459C7.95866 16.382 8.5281 16.5417 9.12533 16.625V18.2917ZM5.91699 4.75004L4.70866 3.54171C5.36144 3.02782 6.06283 2.61462 6.81283 2.30212C7.56283 1.98962 8.34755 1.79171 9.16699 1.70837V3.37504C8.56977 3.45837 7.99685 3.6181 7.44824 3.85421C6.89963 4.09032 6.38921 4.38893 5.91699 4.75004ZM10.792 18.2917V16.625C11.4031 16.5417 11.983 16.3855 12.5316 16.1563C13.0802 15.9271 13.5975 15.625 14.0837 15.25L15.292 16.4584C14.6392 16.9862 13.9344 17.4028 13.1774 17.7084C12.4205 18.0139 11.6253 18.2084 10.792 18.2917ZM14.1253 4.75004C13.6392 4.38893 13.1184 4.09032 12.5628 3.85421C12.0073 3.6181 11.4309 3.45837 10.8337 3.37504V1.70837C11.6531 1.79171 12.4413 1.98962 13.1982 2.30212C13.9552 2.61462 14.6531 3.02782 15.292 3.54171L14.1253 4.75004ZM16.4587 15.25L15.292 14.0834C15.6531 13.6112 15.9448 13.1007 16.167 12.5521C16.3892 12.0035 16.542 11.4306 16.6253 10.8334H18.3337C18.2225 11.6528 18.0142 12.4375 17.7087 13.1875C17.4031 13.9375 16.9864 14.625 16.4587 15.25ZM16.6253 9.16671C16.542 8.56948 16.3892 7.99657 16.167 7.44796C15.9448 6.89935 15.6531 6.38893 15.292 5.91671L16.4587 4.75004C16.9864 5.37504 17.41 6.06254 17.7295 6.81254C18.0489 7.56254 18.2503 8.34726 18.3337 9.16671H16.6253Z" fill="#030615"/>
<path d="M8.65561 11.3441L9.99967 14.1667L11.3437 11.3441L14.1663 10L11.3437 8.65598L9.99967 5.83337L8.65561 8.65598L5.83301 10L8.65561 11.3441Z" fill="#030615"/>
</svg>
