<svg width="20" height="20" viewBox="0 0 20 20" fill="none" xmlns="http://www.w3.org/2000/svg">
<path d="M11.667 16.6666V15H14.167C14.4031 15 14.601 14.9201 14.7607 14.7604C14.9205 14.6007 15.0003 14.4028 15.0003 14.1666V12.5C15.0003 11.9722 15.1531 11.493 15.4587 11.0625C15.7642 10.6319 16.167 10.3264 16.667 10.1458V9.85415C16.167 9.67359 15.7642 9.36803 15.4587 8.93748C15.1531 8.50692 15.0003 8.02776 15.0003 7.49998V5.83331C15.0003 5.5972 14.9205 5.39929 14.7607 5.23956C14.601 5.07984 14.4031 4.99998 14.167 4.99998H11.667V3.33331H14.167C14.8614 3.33331 15.4517 3.57637 15.9378 4.06248C16.4239 4.54859 16.667 5.13887 16.667 5.83331V7.49998C16.667 7.73609 16.7469 7.93401 16.9066 8.09373C17.0663 8.25345 17.2642 8.33331 17.5003 8.33331H18.3337V11.6666H17.5003C17.2642 11.6666 17.0663 11.7465 16.9066 11.9062C16.7469 12.066 16.667 12.2639 16.667 12.5V14.1666C16.667 14.8611 16.4239 15.4514 15.9378 15.9375C15.4517 16.4236 14.8614 16.6666 14.167 16.6666H11.667ZM5.83366 16.6666C5.13921 16.6666 4.54894 16.4236 4.06283 15.9375C3.57671 15.4514 3.33366 14.8611 3.33366 14.1666V12.5C3.33366 12.2639 3.2538 12.066 3.09408 11.9062C2.93435 11.7465 2.73644 11.6666 2.50033 11.6666H1.66699V8.33331H2.50033C2.73644 8.33331 2.93435 8.25345 3.09408 8.09373C3.2538 7.93401 3.33366 7.73609 3.33366 7.49998V5.83331C3.33366 5.13887 3.57671 4.54859 4.06283 4.06248C4.54894 3.57637 5.13921 3.33331 5.83366 3.33331H8.33366V4.99998H5.83366C5.59755 4.99998 5.39963 5.07984 5.23991 5.23956C5.08019 5.39929 5.00033 5.5972 5.00033 5.83331V7.49998C5.00033 8.02776 4.84755 8.50692 4.54199 8.93748C4.23644 9.36803 3.83366 9.67359 3.33366 9.85415V10.1458C3.83366 10.3264 4.23644 10.6319 4.54199 11.0625C4.84755 11.493 5.00033 11.9722 5.00033 12.5V14.1666C5.00033 14.4028 5.08019 14.6007 5.23991 14.7604C5.39963 14.9201 5.59755 15 5.83366 15H8.33366V16.6666H5.83366Z" fill="#030615"/>
</svg>
