<svg width="20" height="20" viewBox="0 0 20 20" fill="none" xmlns="http://www.w3.org/2000/svg">
<path fill-rule="evenodd" clip-rule="evenodd" d="M10.744 7.19999C12.0798 7.19999 13.1626 6.03594 13.1626 4.6C13.1626 3.16406 12.0798 2 10.744 2C9.40825 2 8.3254 3.16406 8.3254 4.6C8.3254 6.03594 9.40825 7.19999 10.744 7.19999ZM13.9692 8.00001H11.0928C11.1251 8.0796 11.1428 8.16599 11.1428 8.25628V15.436C11.1428 15.8325 10.8018 16.1538 10.3811 16.1538H7.27362C8.01648 17.2437 9.20473 17.9644 10.5582 18C12.8734 17.9391 14.7051 15.8737 14.6512 13.3848V8.76921C14.6602 8.35446 14.355 8.01027 13.9692 8.00001ZM17.9202 5.40001C17.9202 6.39412 17.1706 7.20001 16.2458 7.20001C15.3211 7.20001 14.5714 6.39412 14.5714 5.40001C14.5714 4.4059 15.3211 3.60001 16.2458 3.60001C17.1706 3.60001 17.9202 4.4059 17.9202 5.40001ZM2.66654 7.53846H9.33344C9.70156 7.53846 9.99998 7.81393 9.99998 8.15373V14.3078C9.99998 14.6476 9.70156 14.9231 9.33344 14.9231H2.66654C2.29842 14.9231 2 14.6476 2 14.3078V8.15373C2 7.81393 2.29842 7.53846 2.66654 7.53846ZM7.7147 9.56909H6.41228V13.6923H5.58251V9.56909H4.28613V8.76924H7.7147V9.56909Z" fill="#030615"/>
<path fill-rule="evenodd" clip-rule="evenodd" d="M14.9893 16.1502C15.4703 15.3753 15.7368 14.4679 15.7131 13.503V8.76917H17.2248C17.6531 8.76917 18.0003 9.09978 18.0003 9.50762V13.4397C18.0003 14.9387 16.7243 16.1538 15.1501 16.1538H15.1367C15.0872 16.1538 15.0381 16.1526 14.9893 16.1502Z" fill="#030615"/>
</svg>
