<svg width="20" height="20" viewBox="0 0 20 20" fill="none" xmlns="http://www.w3.org/2000/svg">
<path d="M10.0003 18.3333C8.84755 18.3333 7.76421 18.1145 6.75033 17.677C5.73644 17.2395 4.85449 16.6458 4.10449 15.8958C3.35449 15.1458 2.76074 14.2638 2.32324 13.25C1.88574 12.2361 1.66699 11.1527 1.66699 9.99996C1.66699 8.84718 1.88574 7.76385 2.32324 6.74996C2.76074 5.73607 3.35449 4.85413 4.10449 4.10413C4.85449 3.35413 5.73644 2.76038 6.75033 2.32288C7.76421 1.88538 8.84755 1.66663 10.0003 1.66663C11.1531 1.66663 12.2364 1.88538 13.2503 2.32288C14.2642 2.76038 15.1462 3.35413 15.8962 4.10413C16.6462 4.85413 17.2399 5.73607 17.6774 6.74996C18.1149 7.76385 18.3337 8.84718 18.3337 9.99996C18.3337 11.1527 18.1149 12.2361 17.6774 13.25C17.2399 14.2638 16.6462 15.1458 15.8962 15.8958C15.1462 16.6458 14.2642 17.2395 13.2503 17.677C12.2364 18.1145 11.1531 18.3333 10.0003 18.3333ZM10.0003 16.6666C10.7503 16.6666 11.4725 16.5451 12.167 16.302C12.8614 16.059 13.5003 15.7083 14.0837 15.25L4.75033 5.91663C4.29199 6.49996 3.9413 7.13885 3.69824 7.83329C3.45519 8.52774 3.33366 9.24996 3.33366 9.99996C3.33366 11.8611 3.97949 13.4375 5.27116 14.7291C6.56283 16.0208 8.13921 16.6666 10.0003 16.6666ZM15.2503 14.0833C15.7087 13.5 16.0594 12.8611 16.3024 12.1666C16.5455 11.4722 16.667 10.75 16.667 9.99996C16.667 8.13885 16.0212 6.56246 14.7295 5.27079C13.4378 3.97913 11.8614 3.33329 10.0003 3.33329C9.25033 3.33329 8.5281 3.45482 7.83366 3.69788C7.13921 3.94093 6.50033 4.29163 5.91699 4.74996L15.2503 14.0833Z" fill="#030615"/>
</svg>
