<svg width="16" height="16" viewBox="0 0 16 16" fill="none" xmlns="http://www.w3.org/2000/svg">
<g id="not">
<path id="Vector" d="M7.99992 14.6673C7.0777 14.6673 6.21103 14.4923 5.39992 14.1423C4.58881 13.7923 3.88325 13.3173 3.28325 12.7173C2.68325 12.1173 2.20825 11.4118 1.85825 10.6007C1.50825 9.78954 1.33325 8.92287 1.33325 8.00065C1.33325 7.07843 1.50825 6.21176 1.85825 5.40065C2.20825 4.58954 2.68325 3.88398 3.28325 3.28398C3.88325 2.68398 4.58881 2.20898 5.39992 1.85898C6.21103 1.50898 7.0777 1.33398 7.99992 1.33398C8.92214 1.33398 9.78881 1.50898 10.5999 1.85898C11.411 2.20898 12.1166 2.68398 12.7166 3.28398C13.3166 3.88398 13.7916 4.58954 14.1416 5.40065C14.4916 6.21176 14.6666 7.07843 14.6666 8.00065C14.6666 8.92287 14.4916 9.78954 14.1416 10.6007C13.7916 11.4118 13.3166 12.1173 12.7166 12.7173C12.1166 13.3173 11.411 13.7923 10.5999 14.1423C9.78881 14.4923 8.92214 14.6673 7.99992 14.6673ZM7.99992 13.334C8.59992 13.334 9.1777 13.2368 9.73325 13.0423C10.2888 12.8479 10.7999 12.5673 11.2666 12.2007L3.79992 4.73398C3.43325 5.20065 3.1527 5.71176 2.95825 6.26732C2.76381 6.82287 2.66659 7.40065 2.66659 8.00065C2.66659 9.48954 3.18325 10.7507 4.21659 11.784C5.24992 12.8173 6.51103 13.334 7.99992 13.334ZM12.1999 11.2673C12.5666 10.8007 12.8471 10.2895 13.0416 9.73398C13.236 9.17843 13.3333 8.60065 13.3333 8.00065C13.3333 6.51176 12.8166 5.25065 11.7833 4.21732C10.7499 3.18398 9.48881 2.66732 7.99992 2.66732C7.39992 2.66732 6.82214 2.76454 6.26658 2.95898C5.71103 3.15343 5.19992 3.43398 4.73325 3.80065L12.1999 11.2673Z" fill="#3F485B"/>
</g>
</svg>
