<svg width="20" height="20" viewBox="0 0 20 20" fill="none" xmlns="http://www.w3.org/2000/svg">
<path d="M3.33317 15.8333V14.1666H4.99984V8.33329C4.99984 7.87496 5.05887 7.42357 5.17692 6.97913C5.29498 6.53468 5.47206 6.11107 5.70817 5.70829L6.95817 6.95829C6.86095 7.18052 6.78803 7.40621 6.73942 7.63538C6.69081 7.86454 6.6665 8.09718 6.6665 8.33329V14.1666H11.8332L1.1665 3.49996L2.33317 2.33329L17.6665 17.6666L16.4998 18.8333L13.4582 15.8333H3.33317ZM14.9998 12.625L13.3332 10.9583V8.33329C13.3332 7.41663 13.0068 6.6319 12.354 5.97913C11.7012 5.32635 10.9165 4.99996 9.99984 4.99996C9.63873 4.99996 9.2915 5.05551 8.95817 5.16663C8.62484 5.27774 8.31928 5.4444 8.0415 5.66663L6.83317 4.45829C7.11095 4.23607 7.40956 4.04163 7.729 3.87496C8.04845 3.70829 8.38873 3.58329 8.74984 3.49996V2.91663C8.74984 2.5694 8.87137 2.27426 9.11442 2.03121C9.35748 1.78815 9.65262 1.66663 9.99984 1.66663C10.3471 1.66663 10.6422 1.78815 10.8853 2.03121C11.1283 2.27426 11.2498 2.5694 11.2498 2.91663V3.49996C12.3609 3.77774 13.2637 4.36454 13.9582 5.26038C14.6526 6.15621 14.9998 7.18052 14.9998 8.33329V12.625ZM9.99984 18.3333C9.5415 18.3333 9.14914 18.1701 8.82275 17.8437C8.49637 17.5173 8.33317 17.125 8.33317 16.6666H11.6665C11.6665 17.125 11.5033 17.5173 11.1769 17.8437C10.8505 18.1701 10.4582 18.3333 9.99984 18.3333Z" fill="#030615"/>
</svg>
