<svg width="13" height="13" viewBox="0 0 13 13" fill="none" xmlns="http://www.w3.org/2000/svg">
<path d="M12.0018 5.24C12.1648 4.8 12.2055 4.36 12.1648 3.92C12.124 3.48 11.9611 3.04 11.7574 2.64C11.3907 2.04 10.8611 1.56 10.25 1.28C9.59812 1 8.90554 0.92 8.21295 1.08C7.88703 0.76 7.52036 0.48 7.11296 0.28C6.70555 0.08 6.21667 0 5.76852 0C5.07594 0 4.38335 0.2 3.81299 0.6C3.24262 1 2.83522 1.56 2.63151 2.2C2.14263 2.32 1.73522 2.52 1.32782 2.76C0.961157 3.04 0.675974 3.4 0.431532 3.76C0.0648681 4.36 -0.0573531 5.04 0.0241277 5.72C0.105609 6.4 0.390791 7.04 0.838936 7.56C0.675974 8 0.635234 8.44 0.675974 8.88C0.716715 9.32 0.879676 9.76 1.08338 10.16C1.45004 10.76 1.97967 11.24 2.59077 11.52C3.24262 11.8 3.93521 11.88 4.62779 11.72C4.95372 12.04 5.32038 12.32 5.72778 12.52C6.13519 12.72 6.62407 12.8 7.07222 12.8C7.7648 12.8 8.45739 12.6 9.02776 12.2C9.59812 11.8 10.0055 11.24 10.2092 10.6C10.6574 10.52 11.1055 10.32 11.4722 10.04C11.8388 9.76 12.1648 9.44 12.3685 9.04C12.7351 8.44 12.8574 7.76 12.7759 7.08C12.6944 6.4 12.45 5.76 12.0018 5.24ZM7.11296 11.96C6.46111 11.96 5.97223 11.76 5.52408 11.4C5.52408 11.4 5.56482 11.36 5.60556 11.36L8.21295 9.88C8.29443 9.84 8.33517 9.8 8.37591 9.72C8.41665 9.64 8.41665 9.6 8.41665 9.52V5.92L9.51664 6.56V9.52C9.55738 10.92 8.41665 11.96 7.11296 11.96ZM1.85745 9.76C1.57226 9.28 1.45004 8.72 1.57226 8.16C1.57226 8.16 1.613 8.2 1.65374 8.2L4.26113 9.68C4.34261 9.72 4.38335 9.72 4.46483 9.72C4.54631 9.72 4.62779 9.72 4.66853 9.68L7.84628 7.88V9.12L5.19816 10.64C4.62779 10.96 3.97595 11.04 3.36484 10.88C2.71299 10.72 2.18337 10.32 1.85745 9.76ZM1.16486 4.2C1.45004 3.72 1.89819 3.36 2.42781 3.16V3.24V6.2C2.42781 6.28 2.42781 6.36 2.46855 6.4C2.50929 6.48 2.55003 6.52 2.63151 6.56L5.80926 8.36L4.70927 9L2.10189 7.52C1.53152 7.2 1.12412 6.68 0.961157 6.08C0.798195 5.48 0.838936 4.76 1.16486 4.2ZM10.1685 6.24L6.99074 4.44L8.09073 3.8L10.6981 5.28C11.1055 5.52 11.4314 5.84 11.6351 6.24C11.8388 6.64 11.9611 7.08 11.9203 7.56C11.8796 8 11.7166 8.44 11.4314 8.8C11.1463 9.16 10.7796 9.44 10.3314 9.6V6.56C10.3314 6.48 10.3314 6.4 10.2907 6.36C10.2907 6.36 10.25 6.28 10.1685 6.24ZM11.2685 4.64C11.2685 4.64 11.2277 4.6 11.187 4.6L8.57961 3.12C8.49813 3.08 8.45739 3.08 8.37591 3.08C8.29443 3.08 8.21295 3.08 8.17221 3.12L4.99446 4.92V3.68L7.64258 2.16C8.04999 1.92 8.49813 1.84 8.98702 1.84C9.43516 1.84 9.88331 2 10.2907 2.28C10.6574 2.56 10.9833 2.92 11.1463 3.32C11.3092 3.72 11.35 4.2 11.2685 4.64ZM4.42409 6.88L3.3241 6.24V3.24C3.3241 2.8 3.44632 2.32 3.69076 1.96C3.93521 1.56 4.30187 1.28 4.70927 1.08C5.11668 0.88 5.60556 0.8 6.05371 0.88C6.50185 0.92 6.95 1.12 7.31666 1.4C7.31666 1.4 7.27592 1.44 7.23518 1.44L4.62779 2.92C4.54631 2.96 4.50557 3 4.46483 3.08C4.42409 3.16 4.42409 3.2 4.42409 3.28V6.88ZM4.99446 5.6L6.42037 4.8L7.84628 5.6V7.2L6.42037 8L4.99446 7.2V5.6Z" fill="white"/>
</svg>
