<svg width="20" height="20" viewBox="0 0 20 20" fill="none" xmlns="http://www.w3.org/2000/svg">
<path d="M4.87533 14.25C5.58366 13.7084 6.37533 13.2813 7.25033 12.9688C8.12533 12.6563 9.04199 12.5 10.0003 12.5C10.9587 12.5 11.8753 12.6563 12.7503 12.9688C13.6253 13.2813 14.417 13.7084 15.1253 14.25C15.6114 13.6806 15.9899 13.0347 16.2607 12.3125C16.5316 11.5903 16.667 10.8195 16.667 10C16.667 8.1528 16.0177 6.57988 14.7191 5.28127C13.4205 3.98266 11.8475 3.33335 10.0003 3.33335C8.1531 3.33335 6.58019 3.98266 5.28158 5.28127C3.98296 6.57988 3.33366 8.1528 3.33366 10C3.33366 10.8195 3.46908 11.5903 3.73991 12.3125C4.01074 13.0347 4.38921 13.6806 4.87533 14.25ZM10.0003 10.8334C9.18088 10.8334 8.48991 10.5521 7.92741 9.9896C7.36491 9.4271 7.08366 8.73613 7.08366 7.91669C7.08366 7.09724 7.36491 6.40627 7.92741 5.84377C8.48991 5.28127 9.18088 5.00002 10.0003 5.00002C10.8198 5.00002 11.5107 5.28127 12.0732 5.84377C12.6357 6.40627 12.917 7.09724 12.917 7.91669C12.917 8.73613 12.6357 9.4271 12.0732 9.9896C11.5107 10.5521 10.8198 10.8334 10.0003 10.8334ZM10.0003 18.3334C8.84755 18.3334 7.76421 18.1146 6.75033 17.6771C5.73644 17.2396 4.85449 16.6459 4.10449 15.8959C3.35449 15.1459 2.76074 14.2639 2.32324 13.25C1.88574 12.2361 1.66699 11.1528 1.66699 10C1.66699 8.84724 1.88574 7.76391 2.32324 6.75002C2.76074 5.73613 3.35449 4.85419 4.10449 4.10419C4.85449 3.35419 5.73644 2.76044 6.75033 2.32294C7.76421 1.88544 8.84755 1.66669 10.0003 1.66669C11.1531 1.66669 12.2364 1.88544 13.2503 2.32294C14.2642 2.76044 15.1462 3.35419 15.8962 4.10419C16.6462 4.85419 17.2399 5.73613 17.6774 6.75002C18.1149 7.76391 18.3337 8.84724 18.3337 10C18.3337 11.1528 18.1149 12.2361 17.6774 13.25C17.2399 14.2639 16.6462 15.1459 15.8962 15.8959C15.1462 16.6459 14.2642 17.2396 13.2503 17.6771C12.2364 18.1146 11.1531 18.3334 10.0003 18.3334ZM10.0003 16.6667C10.7364 16.6667 11.4309 16.559 12.0837 16.3438C12.7364 16.1285 13.3337 15.8195 13.8753 15.4167C13.3337 15.0139 12.7364 14.7049 12.0837 14.4896C11.4309 14.2743 10.7364 14.1667 10.0003 14.1667C9.26421 14.1667 8.56977 14.2743 7.91699 14.4896C7.26421 14.7049 6.66699 15.0139 6.12533 15.4167C6.66699 15.8195 7.26421 16.1285 7.91699 16.3438C8.56977 16.559 9.26421 16.6667 10.0003 16.6667ZM10.0003 9.16669C10.3614 9.16669 10.66 9.04863 10.8962 8.81252C11.1323 8.57641 11.2503 8.2778 11.2503 7.91669C11.2503 7.55558 11.1323 7.25696 10.8962 7.02085C10.66 6.78474 10.3614 6.66669 10.0003 6.66669C9.63921 6.66669 9.3406 6.78474 9.10449 7.02085C8.86838 7.25696 8.75033 7.55558 8.75033 7.91669C8.75033 8.2778 8.86838 8.57641 9.10449 8.81252C9.3406 9.04863 9.63921 9.16669 10.0003 9.16669Z" fill="#030615"/>
</svg>
