<svg width="20" height="20" viewBox="0 0 20 20" fill="none" xmlns="http://www.w3.org/2000/svg">
<path d="M9.99984 18.3333C8.86095 18.3333 7.78456 18.1145 6.77067 17.677C5.75678 17.2395 4.87136 16.6423 4.11442 15.8854C3.35748 15.1284 2.76025 14.243 2.32275 13.2291C1.88525 12.2152 1.6665 11.1388 1.6665 9.99996C1.6665 8.84718 1.8922 7.76385 2.34359 6.74996C2.79498 5.73607 3.40609 4.85413 4.17692 4.10413C4.94775 3.35413 5.84706 2.76038 6.87484 2.32288C7.90261 1.88538 8.99984 1.66663 10.1665 1.66663C11.2776 1.66663 12.3262 1.8576 13.3123 2.23954C14.2984 2.62149 15.163 3.14926 15.9061 3.82288C16.6491 4.49649 17.2394 5.2951 17.6769 6.21871C18.1144 7.14232 18.3332 8.13885 18.3332 9.20829C18.3332 10.8055 17.8471 12.0312 16.8748 12.8854C15.9026 13.7395 14.7221 14.1666 13.3332 14.1666H11.7915C11.6665 14.1666 11.5797 14.2013 11.5311 14.2708C11.4825 14.3402 11.4582 14.4166 11.4582 14.5C11.4582 14.6666 11.5623 14.9062 11.7707 15.2187C11.979 15.5312 12.0832 15.8888 12.0832 16.2916C12.0832 16.9861 11.8922 17.5 11.5103 17.8333C11.1283 18.1666 10.6248 18.3333 9.99984 18.3333ZM5.4165 10.8333C5.77761 10.8333 6.07623 10.7152 6.31234 10.4791C6.54845 10.243 6.6665 9.9444 6.6665 9.58329C6.6665 9.22218 6.54845 8.92357 6.31234 8.68746C6.07623 8.45135 5.77761 8.33329 5.4165 8.33329C5.05539 8.33329 4.75678 8.45135 4.52067 8.68746C4.28456 8.92357 4.1665 9.22218 4.1665 9.58329C4.1665 9.9444 4.28456 10.243 4.52067 10.4791C4.75678 10.7152 5.05539 10.8333 5.4165 10.8333ZM7.9165 7.49996C8.27761 7.49996 8.57623 7.3819 8.81234 7.14579C9.04845 6.90968 9.1665 6.61107 9.1665 6.24996C9.1665 5.88885 9.04845 5.59024 8.81234 5.35413C8.57623 5.11801 8.27761 4.99996 7.9165 4.99996C7.55539 4.99996 7.25678 5.11801 7.02067 5.35413C6.78456 5.59024 6.6665 5.88885 6.6665 6.24996C6.6665 6.61107 6.78456 6.90968 7.02067 7.14579C7.25678 7.3819 7.55539 7.49996 7.9165 7.49996ZM12.0832 7.49996C12.4443 7.49996 12.7429 7.3819 12.979 7.14579C13.2151 6.90968 13.3332 6.61107 13.3332 6.24996C13.3332 5.88885 13.2151 5.59024 12.979 5.35413C12.7429 5.11801 12.4443 4.99996 12.0832 4.99996C11.7221 4.99996 11.4234 5.11801 11.1873 5.35413C10.9512 5.59024 10.8332 5.88885 10.8332 6.24996C10.8332 6.61107 10.9512 6.90968 11.1873 7.14579C11.4234 7.3819 11.7221 7.49996 12.0832 7.49996ZM14.5832 10.8333C14.9443 10.8333 15.2429 10.7152 15.479 10.4791C15.7151 10.243 15.8332 9.9444 15.8332 9.58329C15.8332 9.22218 15.7151 8.92357 15.479 8.68746C15.2429 8.45135 14.9443 8.33329 14.5832 8.33329C14.2221 8.33329 13.9234 8.45135 13.6873 8.68746C13.4512 8.92357 13.3332 9.22218 13.3332 9.58329C13.3332 9.9444 13.4512 10.243 13.6873 10.4791C13.9234 10.7152 14.2221 10.8333 14.5832 10.8333ZM9.99984 16.6666C10.1248 16.6666 10.2255 16.6319 10.3019 16.5625C10.3783 16.493 10.4165 16.4027 10.4165 16.2916C10.4165 16.0972 10.3123 15.868 10.104 15.6041C9.89567 15.3402 9.7915 14.9444 9.7915 14.4166C9.7915 13.8333 9.99289 13.368 10.3957 13.0208C10.7984 12.6736 11.2915 12.5 11.8748 12.5H13.3332C14.2498 12.5 15.0346 12.2326 15.6873 11.6979C16.3401 11.1632 16.6665 10.3333 16.6665 9.20829C16.6665 7.52774 16.0241 6.12843 14.7394 5.01038C13.4547 3.89232 11.9304 3.33329 10.1665 3.33329C8.27761 3.33329 6.6665 3.97913 5.33317 5.27079C3.99984 6.56246 3.33317 8.13885 3.33317 9.99996C3.33317 11.8472 3.98248 13.4201 5.28109 14.7187C6.5797 16.0173 8.15261 16.6666 9.99984 16.6666Z" fill="#030615"/>
</svg>
