<svg width="16" height="16" viewBox="0 0 16 16" fill="none" xmlns="http://www.w3.org/2000/svg">
<path d="M7.91302 1.60156C4.68427 1.60156 4.88589 2.99863 4.88589 2.99863L4.88949 4.44597H7.9706V4.88053H3.66568C3.66568 4.88053 1.59961 4.64674 1.59961 7.89732C1.59961 11.1479 3.40292 11.0326 3.40292 11.0326H4.47915V9.52424C4.47915 9.52424 4.42114 7.72494 6.25367 7.72494C8.0862 7.72494 9.30959 7.72494 9.30959 7.72494C9.30959 7.72494 11.0265 7.75263 11.0265 6.06929C11.0265 4.38595 11.0265 3.28594 11.0265 3.28594C11.0265 3.28594 11.2872 1.60156 7.91301 1.60156L7.91302 1.60156ZM6.21409 2.57484C6.52063 2.57484 6.7684 2.82205 6.7684 3.12792C6.7684 3.43378 6.52063 3.681 6.21409 3.681C5.90754 3.681 5.65977 3.43378 5.65977 3.12792C5.65977 2.82205 5.90754 2.57484 6.21409 2.57484Z" fill="#67748A"/>
<path d="M8.08692 14.4003C11.3157 14.4003 11.114 13.0033 11.114 13.0033L11.1104 11.5559H8.02934V11.1214H12.3343C12.3343 11.1214 14.4003 11.3552 14.4003 8.10457C14.4003 4.85398 12.597 4.96926 12.597 4.96926H11.5208V6.47765C11.5208 6.47765 11.5788 8.27695 9.74626 8.27695C7.91373 8.27695 6.69035 8.27695 6.69035 8.27695C6.69035 8.27695 4.97342 8.24926 4.97342 9.9326C4.97342 11.6159 4.97342 12.716 4.97342 12.716C4.97342 12.716 4.71274 14.4003 8.08693 14.4003H8.08692ZM9.78585 13.4271C9.47931 13.4271 9.23154 13.1798 9.23154 12.874C9.23154 12.5681 9.47931 12.3209 9.78585 12.3209C10.0924 12.3209 10.3402 12.5681 10.3402 12.874C10.3402 13.1798 10.0924 13.4271 9.78585 13.4271Z" fill="#67748A"/>
</svg>
