<svg width="20" height="20" viewBox="0 0 20 20" fill="none" xmlns="http://www.w3.org/2000/svg">
<path d="M10.0003 1.66663C5.40033 1.66663 1.66699 5.39996 1.66699 9.99996C1.66699 14.6 5.40033 18.3333 10.0003 18.3333C14.6003 18.3333 18.3337 14.6 18.3337 9.99996C18.3337 5.39996 14.6003 1.66663 10.0003 1.66663ZM10.0003 16.6666C6.31699 16.6666 3.33366 13.6833 3.33366 9.99996C3.33366 6.31663 6.31699 3.33329 10.0003 3.33329C13.6837 3.33329 16.667 6.31663 16.667 9.99996C16.667 13.6833 13.6837 16.6666 10.0003 16.6666Z" fill="#030615"/>
<path d="M9.99967 14.1667C12.3009 14.1667 14.1663 12.3012 14.1663 10C14.1663 7.69885 12.3009 5.83337 9.99967 5.83337C7.69849 5.83337 5.83301 7.69885 5.83301 10C5.83301 12.3012 7.69849 14.1667 9.99967 14.1667Z" fill="#030615"/>
</svg>
