<svg width="20" height="20" viewBox="0 0 20 20" fill="none" xmlns="http://www.w3.org/2000/svg">
<path d="M7.5 17.5L6.3125 16.3334L7.64583 15H7.5C5.875 15 4.49653 14.4341 3.36458 13.3021C2.23264 12.1702 1.66667 10.7917 1.66667 9.16671C1.66667 7.54171 2.23264 6.16324 3.36458 5.03129C4.49653 3.89935 5.875 3.33337 7.5 3.33337H12.5C14.125 3.33337 15.5035 3.89935 16.6354 5.03129C17.7674 6.16324 18.3333 7.54171 18.3333 9.16671C18.3333 10.7917 17.7674 12.1702 16.6354 13.3021C15.5035 14.4341 14.125 15 12.5 15V13.3334C13.6528 13.3334 14.6354 12.9271 15.4479 12.1146C16.2604 11.3021 16.6667 10.3195 16.6667 9.16671C16.6667 8.01393 16.2604 7.03129 15.4479 6.21879C14.6354 5.40629 13.6528 5.00004 12.5 5.00004H7.5C6.34722 5.00004 5.36458 5.40629 4.55208 6.21879C3.73958 7.03129 3.33333 8.01393 3.33333 9.16671C3.33333 10.3195 3.73958 11.3091 4.55208 12.1355C5.36458 12.9618 6.34722 13.4167 7.5 13.5H7.83333L6.33333 12L7.5 10.8334L10.8333 14.1667L7.5 17.5Z" fill="#3F485B"/>
</svg>
