<svg width="20" height="20" viewBox="0 0 20 20" fill="none" xmlns="http://www.w3.org/2000/svg">
<path d="M9.12467 12.9583L13.833 8.24996L12.6455 7.06246L9.12467 10.5833L7.37467 8.83329L6.18717 10.0208L9.12467 12.9583ZM9.99967 18.3333C8.06912 17.8472 6.47537 16.7395 5.21842 15.0104C3.96148 13.2812 3.33301 11.3611 3.33301 9.24996V4.16663L9.99967 1.66663L16.6663 4.16663V9.24996C16.6663 11.3611 16.0379 13.2812 14.7809 15.0104C13.524 16.7395 11.9302 17.8472 9.99967 18.3333ZM9.99967 16.5833C11.4441 16.125 12.6386 15.2083 13.583 13.8333C14.5275 12.4583 14.9997 10.9305 14.9997 9.24996V5.31246L9.99967 3.43746L4.99967 5.31246V9.24996C4.99967 10.9305 5.4719 12.4583 6.41634 13.8333C7.36079 15.2083 8.55523 16.125 9.99967 16.5833Z" fill="#030615"/>
</svg>
