<svg width="20" height="20" viewBox="0 0 20 20" fill="none" xmlns="http://www.w3.org/2000/svg">
<path d="M6.46699 13.5333C5.55866 12.6333 5.00033 11.3833 5.00033 9.99994C5.00033 8.61661 5.55866 7.36661 6.46699 6.46661L7.65033 7.64994C7.04199 8.24994 6.66699 9.08328 6.66699 9.99994C6.66699 10.9166 7.04199 11.7499 7.64199 12.3583L6.46699 13.5333ZM13.5337 13.5333C14.442 12.6333 15.0003 11.3833 15.0003 9.99994C15.0003 8.61661 14.442 7.36661 13.5337 6.46661L12.3503 7.64994C12.9587 8.24994 13.3337 9.08328 13.3337 9.99994C13.3337 10.9166 12.9587 11.7499 12.3587 12.3583L13.5337 13.5333ZM10.0003 8.33328C9.08366 8.33328 8.33366 9.08328 8.33366 9.99994C8.33366 10.9166 9.08366 11.6666 10.0003 11.6666C10.917 11.6666 11.667 10.9166 11.667 9.99994C11.667 9.08328 10.917 8.33328 10.0003 8.33328ZM16.667 9.99994C16.667 11.8416 15.917 13.5083 14.7087 14.7083L15.892 15.8916C17.4003 14.3833 18.3337 12.2999 18.3337 9.99994C18.3337 7.69994 17.4003 5.61661 15.892 4.10828L14.7087 5.29161C15.3303 5.90786 15.8235 6.64134 16.1596 7.44954C16.4958 8.25775 16.6682 9.12462 16.667 9.99994ZM5.29199 5.29161L4.10866 4.10828C2.60033 5.61661 1.66699 7.69994 1.66699 9.99994C1.66699 12.2999 2.60033 14.3833 4.10866 15.8916L5.29199 14.7083C4.08366 13.5083 3.33366 11.8416 3.33366 9.99994C3.33366 8.15828 4.08366 6.49161 5.29199 5.29161Z" fill="#030615"/>
</svg>
