<svg width="20" height="20" viewBox="0 0 20 20" fill="none" xmlns="http://www.w3.org/2000/svg">
<path d="M11.6667 10C11.6667 9.08333 10.9167 8.33333 10 8.33333C9.08333 8.33333 8.33333 9.08333 8.33333 10C8.33333 10.9167 9.08333 11.6667 10 11.6667C10.9167 11.6667 11.6667 10.9167 11.6667 10ZM10 2.5C8.01088 2.5 6.10322 3.29018 4.6967 4.6967C3.29018 6.10322 2.5 8.01088 2.5 10H0L3.33333 13.3333L6.66667 10H4.16667C4.16667 6.775 6.775 4.16667 10 4.16667C13.225 4.16667 15.8333 6.775 15.8333 10C15.8345 11.0715 15.5402 12.1226 14.983 13.0377C14.4257 13.9529 13.627 14.6968 12.6746 15.1877C11.7221 15.6785 10.6528 15.8974 9.58411 15.8202C8.51541 15.743 7.48866 15.3727 6.61667 14.75L5.43333 15.95C6.37887 16.6756 7.48372 17.1654 8.65631 17.3788C9.8289 17.5922 11.0355 17.5231 12.176 17.1772C13.3166 16.8312 14.3583 16.2185 15.2147 15.3897C16.0712 14.5609 16.7179 13.5398 17.1011 12.4113C17.4842 11.2827 17.5929 10.079 17.4181 8.90008C17.2434 7.72112 16.7901 6.60078 16.096 5.63193C15.4018 4.66308 14.4868 3.87361 13.4266 3.32895C12.3665 2.78429 11.1919 2.50012 10 2.5Z" fill="#030615"/>
</svg>
