<svg width="20" height="20" viewBox="0 0 20 20" fill="none" xmlns="http://www.w3.org/2000/svg">
<path fill-rule="evenodd" clip-rule="evenodd" d="M7.86632 2C6.98186 2.00065 6.26606 2.71698 6.26671 3.59967C6.26606 4.48236 6.98251 5.19869 7.86697 5.19935H9.46723V3.60033C9.46789 2.71764 8.75143 2.0013 7.86632 2C7.86697 2 7.86697 2 7.86632 2V2ZM7.86632 6.26667H3.60026C2.7158 6.26732 1.99935 6.98365 2 7.86634C1.99869 8.74903 2.71515 9.46536 3.59961 9.46667H7.86632C8.75078 9.46601 9.46723 8.74968 9.46658 7.86699C9.46723 6.98365 8.75078 6.26732 7.86632 6.26667Z" fill="#36C5F0"/>
<path fill-rule="evenodd" clip-rule="evenodd" d="M18 7.86634C18.0007 6.98365 17.2842 6.26732 16.3998 6.26667C15.5153 6.26732 14.7989 6.98365 14.7995 7.86634V9.46667H16.3998C17.2842 9.46601 18.0007 8.74968 18 7.86634ZM13.7333 7.86634V3.59967C13.734 2.71764 13.0182 2.0013 12.1337 2C11.2493 2.00065 10.5328 2.71698 10.5334 3.59967V7.86634C10.5321 8.74903 11.2486 9.46536 12.1331 9.46667C13.0175 9.46601 13.734 8.74968 13.7333 7.86634Z" fill="#2EB67D"/>
<path fill-rule="evenodd" clip-rule="evenodd" d="M12.1331 18C13.0176 17.9994 13.734 17.2831 13.7334 16.4004C13.734 15.5177 13.0176 14.8013 12.1331 14.8007H10.5328V16.4004C10.5322 17.2824 11.2486 17.9987 12.1331 18ZM12.1331 13.7327H16.3998C17.2843 13.7321 18.0007 13.0157 18.0001 12.133C18.0014 11.2503 17.2849 10.534 16.4005 10.5327H12.1338C11.2493 10.5334 10.5328 11.2497 10.5335 12.1324C10.5328 13.0157 11.2486 13.7321 12.1331 13.7327Z" fill="#ECB22E"/>
<path fill-rule="evenodd" clip-rule="evenodd" d="M2 12.133C1.99935 13.0157 2.7158 13.732 3.60026 13.7327C4.48472 13.732 5.20118 13.0157 5.20052 12.133V10.5333H3.60026C2.7158 10.534 1.99935 11.2503 2 12.133ZM6.26671 12.133V16.3997C6.2654 17.2824 6.98186 17.9987 7.86632 18C8.75078 17.9993 9.46723 17.283 9.46658 16.4003V12.1343C9.46789 11.2516 8.75143 10.5353 7.86697 10.534C6.98186 10.534 6.26606 11.2503 6.26671 12.133C6.26671 12.1337 6.26671 12.133 6.26671 12.133Z" fill="#E01E5A"/>
</svg>
