<svg width="17" height="16" viewBox="0 0 17 16" fill="none" xmlns="http://www.w3.org/2000/svg">
<path fill-rule="evenodd" clip-rule="evenodd" d="M4.84096 5.12621L5.93387 6.21912L6.24745 6.5327L6.87093 5.90921L6.55735 5.59564L4.81196 3.85025C4.58105 3.61933 4.20778 3.61824 3.97821 3.84781L2.243 5.58301L1.93126 5.89476L2.5584 6.5219L2.87015 6.21016L3.95664 5.12367L3.9782 12.4834C3.9782 12.4834 4.83733 12.5112 4.8625 12.486L4.84096 5.12621Z" fill="#030615"/>
<path d="M10.4027 7.47461L15.5016 7.47462L15.5016 8.70538L10.4027 8.70538L10.4027 7.47461Z" fill="#030615"/>
<path d="M7.76538 10.8153L15.6775 10.8153L15.6775 12.046L7.76538 12.046L7.76538 10.8153Z" fill="#030615"/>
<path d="M11.9852 3.95813L15.5016 3.95813L15.5016 5.1889L11.9852 5.1889L11.9852 3.95813Z" fill="#030615"/>
</svg>
