<svg width="20" height="20" viewBox="0 0 20 20" fill="none" xmlns="http://www.w3.org/2000/svg">
<path d="M5.00033 13.3334H11.667V11.6667H5.00033V13.3334ZM5.00033 10H15.0003V8.33337H5.00033V10ZM3.33366 16.6667C2.87533 16.6667 2.48296 16.5035 2.15658 16.1771C1.83019 15.8507 1.66699 15.4584 1.66699 15V5.00004C1.66699 4.54171 1.83019 4.14935 2.15658 3.82296C2.48296 3.49657 2.87533 3.33337 3.33366 3.33337H8.33366L10.0003 5.00004H16.667C17.1253 5.00004 17.5177 5.16324 17.8441 5.48962C18.1705 5.81601 18.3337 6.20837 18.3337 6.66671V15C18.3337 15.4584 18.1705 15.8507 17.8441 16.1771C17.5177 16.5035 17.1253 16.6667 16.667 16.6667H3.33366ZM3.33366 15H16.667V6.66671H9.31283L7.64616 5.00004H3.33366V15Z" fill="#030615"/>
</svg>
