<svg width="20" height="20" viewBox="0 0 20 20" fill="none" xmlns="http://www.w3.org/2000/svg">
<path d="M16.9833 7.14169L15.9583 8.68335C16.4526 9.66925 16.6946 10.7624 16.6626 11.8648C16.6306 12.9672 16.3256 14.0445 15.775 15H4.22498C3.50929 13.7584 3.21273 12.3193 3.37926 10.8959C3.5458 9.47253 4.16657 8.14071 5.14955 7.09788C6.13252 6.05504 7.42537 5.35672 8.83643 5.10643C10.2475 4.85614 11.7016 5.06721 12.9833 5.70835L14.525 4.68335C12.9554 3.67687 11.0936 3.22586 9.23739 3.40247C7.38119 3.57908 5.63785 4.3731 4.28622 5.65753C2.9346 6.94196 2.05278 8.64258 1.78183 10.4874C1.51088 12.3322 1.86644 14.2145 2.79165 15.8334C2.93707 16.0852 3.14589 16.2947 3.39734 16.4409C3.64879 16.5871 3.93412 16.6649 4.22498 16.6667H15.7666C16.0603 16.6679 16.3491 16.5914 16.6037 16.4451C16.8584 16.2987 17.0698 16.0877 17.2166 15.8334C17.9845 14.5033 18.3698 12.9869 18.3301 11.4516C18.2904 9.91638 17.8272 8.42195 16.9916 7.13335L16.9833 7.14169Z" fill="#030615"/>
<path d="M8.82475 12.8417C8.97954 12.9967 9.16335 13.1196 9.36568 13.2035C9.56801 13.2874 9.78489 13.3305 10.0039 13.3305C10.2229 13.3305 10.4398 13.2874 10.6421 13.2035C10.8445 13.1196 11.0283 12.9967 11.1831 12.8417L15.8997 5.76672L8.82475 10.4834C8.66979 10.6382 8.54686 10.822 8.46298 11.0243C8.37911 11.2267 8.33594 11.4435 8.33594 11.6626C8.33594 11.8816 8.37911 12.0985 8.46298 12.3008C8.54686 12.5031 8.66979 12.6869 8.82475 12.8417Z" fill="#030615"/>
</svg>
