<svg width="20" height="20" viewBox="0 0 20 20" fill="none" xmlns="http://www.w3.org/2000/svg">
<path d="M16.6663 15L12.4997 15L12.4997 5.00004L16.6663 5.00004L16.6663 15ZM18.333 15L18.333 5.00004C18.333 4.08337 17.583 3.33337 16.6663 3.33337L12.4997 3.33337C11.583 3.33337 10.833 4.08337 10.833 5.00004L10.833 15C10.833 15.9167 11.583 16.6667 12.4997 16.6667L16.6663 16.6667C17.583 16.6667 18.333 15.9167 18.333 15ZM7.49967 15L3.33301 15L3.33301 5.00004L7.49967 5.00004L7.49967 15ZM9.16634 15L9.16634 5.00004C9.16634 4.08337 8.41634 3.33337 7.49967 3.33337L3.33301 3.33337C2.41634 3.33337 1.66634 4.08337 1.66634 5.00004L1.66634 15C1.66634 15.9167 2.41634 16.6667 3.33301 16.6667L7.49967 16.6667C8.41634 16.6667 9.16634 15.9167 9.16634 15Z" fill="#030615"/>
</svg>
