<svg width="20" height="20" viewBox="0 0 20 20" fill="none" xmlns="http://www.w3.org/2000/svg">
<path d="M4.16667 15.8333H11.6667V11.6667H15.8333V4.16667H4.16667V15.8333ZM4.16667 17.5C3.70833 17.5 3.31597 17.3368 2.98958 17.0104C2.66319 16.684 2.5 16.2917 2.5 15.8333V4.16667C2.5 3.70833 2.66319 3.31597 2.98958 2.98958C3.31597 2.66319 3.70833 2.5 4.16667 2.5H15.8333C16.2917 2.5 16.684 2.66319 17.0104 2.98958C17.3368 3.31597 17.5 3.70833 17.5 4.16667V12.5L12.5 17.5H4.16667ZM5.83333 11.6667V10H10V11.6667H5.83333ZM5.83333 8.33333V6.66667H14.1667V8.33333H5.83333Z" fill="#030615"/>
</svg>
