<svg width="20" height="20" viewBox="0 0 20 20" fill="none" xmlns="http://www.w3.org/2000/svg">
<path d="M10 17.5C7.90278 17.5 6.12847 17.1771 4.67708 16.5312C3.22569 15.8854 2.5 15.0972 2.5 14.1667V5.83333C2.5 4.91667 3.23264 4.13194 4.69792 3.47917C6.16319 2.82639 7.93056 2.5 10 2.5C12.0694 2.5 13.8368 2.82639 15.3021 3.47917C16.7674 4.13194 17.5 4.91667 17.5 5.83333V14.1667C17.5 15.0972 16.7743 15.8854 15.3229 16.5312C13.8715 17.1771 12.0972 17.5 10 17.5ZM10 7.52083C11.2361 7.52083 12.4792 7.34375 13.7292 6.98958C14.9792 6.63542 15.6806 6.25694 15.8333 5.85417C15.6806 5.45139 14.9826 5.06944 13.7396 4.70833C12.4965 4.34722 11.25 4.16667 10 4.16667C8.73611 4.16667 7.49653 4.34375 6.28125 4.69792C5.06597 5.05208 4.36111 5.4375 4.16667 5.85417C4.36111 6.27083 5.06597 6.65278 6.28125 7C7.49653 7.34722 8.73611 7.52083 10 7.52083ZM10 11.6667C10.5833 11.6667 11.1458 11.6389 11.6875 11.5833C12.2292 11.5278 12.7465 11.4479 13.2396 11.3438C13.7326 11.2396 14.1979 11.1111 14.6354 10.9583C15.0729 10.8056 15.4722 10.6319 15.8333 10.4375V7.9375C15.4722 8.13194 15.0729 8.30556 14.6354 8.45833C14.1979 8.61111 13.7326 8.73958 13.2396 8.84375C12.7465 8.94792 12.2292 9.02778 11.6875 9.08333C11.1458 9.13889 10.5833 9.16667 10 9.16667C9.41667 9.16667 8.84722 9.13889 8.29167 9.08333C7.73611 9.02778 7.21181 8.94792 6.71875 8.84375C6.22569 8.73958 5.76389 8.61111 5.33333 8.45833C4.90278 8.30556 4.51389 8.13194 4.16667 7.9375V10.4375C4.51389 10.6319 4.90278 10.8056 5.33333 10.9583C5.76389 11.1111 6.22569 11.2396 6.71875 11.3438C7.21181 11.4479 7.73611 11.5278 8.29167 11.5833C8.84722 11.6389 9.41667 11.6667 10 11.6667ZM10 15.8333C10.6389 15.8333 11.2882 15.7847 11.9479 15.6875C12.6076 15.5903 13.2153 15.4618 13.7708 15.3021C14.3264 15.1424 14.7917 14.9618 15.1667 14.7604C15.5417 14.559 15.7639 14.3542 15.8333 14.1458V12.1042C15.4722 12.2986 15.0729 12.4722 14.6354 12.625C14.1979 12.7778 13.7326 12.9062 13.2396 13.0104C12.7465 13.1146 12.2292 13.1944 11.6875 13.25C11.1458 13.3056 10.5833 13.3333 10 13.3333C9.41667 13.3333 8.84722 13.3056 8.29167 13.25C7.73611 13.1944 7.21181 13.1146 6.71875 13.0104C6.22569 12.9062 5.76389 12.7778 5.33333 12.625C4.90278 12.4722 4.51389 12.2986 4.16667 12.1042V14.1667C4.23611 14.375 4.45486 14.5764 4.82292 14.7708C5.19097 14.9653 5.65278 15.1424 6.20833 15.3021C6.76389 15.4618 7.375 15.5903 8.04167 15.6875C8.70833 15.7847 9.36111 15.8333 10 15.8333Z" fill="#030615"/>
</svg>
