<svg width="20" height="20" viewBox="0 0 20 20" fill="none" xmlns="http://www.w3.org/2000/svg">
<g clip-path="url(#clip0_3688_10041)">
<path d="M9.16683 4.16671V0.833374H10.8335V4.16671H9.16683ZM14.7085 6.45837L13.5627 5.31254L15.896 2.91671L17.0627 4.10421L14.7085 6.45837ZM15.8335 10.8334V9.16671H19.1668V10.8334H15.8335ZM9.16683 19.1667V15.8334H10.8335V19.1667H9.16683ZM5.29183 6.41671L2.91683 4.10421L4.10433 2.93754L6.4585 5.29171L5.29183 6.41671ZM15.8752 17.0834L13.5627 14.6875L14.6877 13.5625L17.0627 15.8542L15.8752 17.0834ZM0.833496 10.8334V9.16671H4.16683V10.8334H0.833496ZM4.10433 17.0834L2.93766 15.8959L5.271 13.5625L5.87516 14.125L6.47933 14.7084L4.10433 17.0834ZM10.0002 15C8.61127 15 7.43072 14.5139 6.4585 13.5417C5.48627 12.5695 5.00016 11.3889 5.00016 10C5.00016 8.61115 5.48627 7.4306 6.4585 6.45837C7.43072 5.48615 8.61127 5.00004 10.0002 5.00004C11.3891 5.00004 12.5696 5.48615 13.5418 6.45837C14.5141 7.4306 15.0002 8.61115 15.0002 10C15.0002 11.3889 14.5141 12.5695 13.5418 13.5417C12.5696 14.5139 11.3891 15 10.0002 15ZM10.0002 13.3334C10.9168 13.3334 11.7016 13.007 12.3543 12.3542C13.0071 11.7014 13.3335 10.9167 13.3335 10C13.3335 9.08337 13.0071 8.29865 12.3543 7.64587C11.7016 6.9931 10.9168 6.66671 10.0002 6.66671C9.0835 6.66671 8.29877 6.9931 7.646 7.64587C6.99322 8.29865 6.66683 9.08337 6.66683 10C6.66683 10.9167 6.99322 11.7014 7.646 12.3542C8.29877 13.007 9.0835 13.3334 10.0002 13.3334Z" fill="#030615"/>
</g>
<defs>
<clipPath id="clip0_3688_10041">
<rect width="20" height="20" fill="white"/>
</clipPath>
</defs>
</svg>
