<svg width="20" height="20" viewBox="0 0 20 20" fill="none" xmlns="http://www.w3.org/2000/svg">
<path d="M3.33301 16.6666V15H5.62467L5.29134 14.7083C4.56912 14.0694 4.06217 13.3403 3.77051 12.5208C3.47884 11.7014 3.33301 10.875 3.33301 10.0416C3.33301 8.49998 3.79481 7.12845 4.71842 5.92706C5.64204 4.72567 6.8469 3.93054 8.33301 3.54165V5.29165C7.33301 5.65276 6.52745 6.26734 5.91634 7.1354C5.30523 8.00345 4.99967 8.9722 4.99967 10.0416C4.99967 10.6666 5.11773 11.2743 5.35384 11.8646C5.58995 12.4548 5.95801 13 6.45801 13.5L6.66634 13.7083V11.6666H8.33301V16.6666H3.33301ZM11.6663 16.4583V14.7083C12.6663 14.3472 13.4719 13.7326 14.083 12.8646C14.6941 11.9965 14.9997 11.0278 14.9997 9.95831C14.9997 9.33331 14.8816 8.72567 14.6455 8.1354C14.4094 7.54512 14.0413 6.99998 13.5413 6.49998L13.333 6.29165V8.33331H11.6663V3.33331H16.6663V4.99998H14.3747L14.708 5.29165C15.3886 5.9722 15.8851 6.71179 16.1976 7.5104C16.5101 8.30901 16.6663 9.12498 16.6663 9.95831C16.6663 11.5 16.2045 12.8715 15.2809 14.0729C14.3573 15.2743 13.1525 16.0694 11.6663 16.4583Z" fill="#030615"/>
</svg>
