<svg width="20" height="20" viewBox="0 0 20 20" fill="none" xmlns="http://www.w3.org/2000/svg">
<path d="M2.52051 14.1666V5.83329C2.52051 5.37496 2.6837 4.9826 3.01009 4.65621C3.33648 4.32982 3.72884 4.16663 4.18717 4.16663H15.833C16.2913 4.16663 16.6837 4.32982 17.0101 4.65621C17.3365 4.9826 17.4997 5.37496 17.4997 5.83329V14.1666C17.4997 14.625 17.3365 15.0173 17.0101 15.3437C16.6837 15.6701 16.2913 15.8333 15.833 15.8333H4.18717C3.72884 15.8333 3.33648 15.6701 3.01009 15.3437C2.6837 15.0173 2.52051 14.625 2.52051 14.1666ZM4.16634 14.1666H6.93717V5.83329H4.16634V14.1666ZM8.60384 14.1666H11.3747V5.83329H8.60384V14.1666ZM13.0413 14.1666H15.8122V5.83329H13.0413V14.1666Z" fill="#030615"/>
</svg>
