<svg width="20" height="20" viewBox="0 0 20 20" fill="none" xmlns="http://www.w3.org/2000/svg">
<path fill-rule="evenodd" clip-rule="evenodd" d="M9.25 13.75V16.4572C6.2595 16.1136 3.88638 13.7405 3.5428 10.75H6.25H7V9.25H6.25H3.5428C3.88638 6.2595 6.2595 3.88638 9.25 3.5428V6.25V7H10.75V6.25V3.5428C13.7405 3.88638 16.1136 6.2595 16.4572 9.25H13.75H13V10.75H13.75H16.4572C16.1136 13.7405 13.7405 16.1136 10.75 16.4572V13.75V13H9.25V13.75ZM17.9653 10.75C17.6102 14.5697 14.5697 17.6102 10.75 17.9653V18H10H9.25V17.9653C5.43032 17.6102 2.38984 14.5697 2.03469 10.75H2V10V9.25H2.03469C2.38984 5.43032 5.43032 2.38984 9.25 2.03469V2H10H10.75V2.03469C14.5697 2.38984 17.6102 5.43032 17.9653 9.25H18V10V10.75H17.9653Z" fill="#030615"/>
</svg>
