<svg width="20" height="20" viewBox="0 0 20 20" fill="none" xmlns="http://www.w3.org/2000/svg">
<path fill-rule="evenodd" clip-rule="evenodd" d="M6.02168 6.76932C8.11619 4.33698 11.8837 4.33698 13.9783 6.76932L16.7602 9.99999L13.9783 13.2307C11.8837 15.663 8.1162 15.663 6.02168 13.2307L3.23971 9.99999L6.02168 6.76932ZM15.1149 5.79054C12.422 2.66324 7.57797 2.66325 4.88503 5.79054L1.68164 9.5106V10.4894L4.88503 14.2094C7.57797 17.3367 12.422 17.3367 15.1149 14.2094L18.3183 10.4894V9.5106L15.1149 5.79054ZM8.49997 9.99999C8.49997 9.17157 9.17154 8.49999 9.99997 8.49999C10.8284 8.49999 11.5 9.17157 11.5 9.99999C11.5 10.8284 10.8284 11.5 9.99997 11.5C9.17154 11.5 8.49997 10.8284 8.49997 9.99999ZM9.99997 6.99999C8.34311 6.99999 6.99997 8.34314 6.99997 9.99999C6.99997 11.6568 8.34311 13 9.99997 13C11.6568 13 13 11.6568 13 9.99999C13 8.34314 11.6568 6.99999 9.99997 6.99999Z" fill="#030615"/>
</svg>
