<svg width="20" height="20" viewBox="0 0 20 20" fill="none" xmlns="http://www.w3.org/2000/svg">
<path d="M0.833496 17.5L10.0002 1.66669L19.1668 17.5H0.833496ZM3.7085 15.8334H16.2918L10.0002 5.00002L3.7085 15.8334ZM10.0002 15C10.2363 15 10.4342 14.9202 10.5939 14.7604C10.7536 14.6007 10.8335 14.4028 10.8335 14.1667C10.8335 13.9306 10.7536 13.7327 10.5939 13.5729C10.4342 13.4132 10.2363 13.3334 10.0002 13.3334C9.76405 13.3334 9.56614 13.4132 9.40641 13.5729C9.24669 13.7327 9.16683 13.9306 9.16683 14.1667C9.16683 14.4028 9.24669 14.6007 9.40641 14.7604C9.56614 14.9202 9.76405 15 10.0002 15ZM9.16683 12.5H10.8335V8.33335H9.16683V12.5Z" fill="#030615"/>
</svg>
