<svg width="20" height="20" viewBox="0 0 20 20" fill="none" xmlns="http://www.w3.org/2000/svg">
<path d="M10.2288 15.8333C10.3955 15.8194 10.5379 15.7534 10.6559 15.6354C10.774 15.5173 10.833 15.375 10.833 15.2083C10.833 15.0138 10.7705 14.8576 10.6455 14.7395C10.5205 14.6215 10.3608 14.5694 10.1663 14.5833C9.5969 14.625 8.99273 14.4687 8.35384 14.1145C7.71495 13.7604 7.31217 13.118 7.14551 12.1875C7.11773 12.0347 7.04481 11.9097 6.92676 11.8125C6.8087 11.7152 6.67329 11.6666 6.52051 11.6666C6.32606 11.6666 6.16634 11.7395 6.04134 11.8854C5.91634 12.0312 5.87467 12.2013 5.91634 12.3958C6.15245 13.6597 6.70801 14.5625 7.58301 15.1041C8.45801 15.6458 9.33995 15.8888 10.2288 15.8333ZM9.99967 18.3333C8.0969 18.3333 6.51009 17.6805 5.23926 16.375C3.96842 15.0694 3.33301 13.4444 3.33301 11.5C3.33301 10.1111 3.88509 8.60065 4.98926 6.96871C6.09342 5.33676 7.76356 3.5694 9.99967 1.66663C12.2358 3.5694 13.9059 5.33676 15.0101 6.96871C16.1143 8.60065 16.6663 10.1111 16.6663 11.5C16.6663 13.4444 16.0309 15.0694 14.7601 16.375C13.4893 17.6805 11.9025 18.3333 9.99967 18.3333ZM9.99967 16.6666C11.4441 16.6666 12.6386 16.177 13.583 15.1979C14.5275 14.2187 14.9997 12.9861 14.9997 11.5C14.9997 10.4861 14.5795 9.34024 13.7393 8.06246C12.899 6.78468 11.6525 5.38885 9.99967 3.87496C8.3469 5.38885 7.10037 6.78468 6.26009 8.06246C5.41981 9.34024 4.99967 10.4861 4.99967 11.5C4.99967 12.9861 5.4719 14.2187 6.41634 15.1979C7.36079 16.177 8.55523 16.6666 9.99967 16.6666Z" fill="#030615"/>
</svg>
