<svg width="100" height="100" viewBox="0 0 100 100" fill="none" xmlns="http://www.w3.org/2000/svg">
<path fill-rule="evenodd" clip-rule="evenodd" d="M73.0644 29.0547C75.6103 29.7387 77.6241 31.7525 78.3081 34.2983C79.562 38.934 79.6 48.5474 79.6 48.5474C79.6 48.5474 79.6 58.1987 78.3461 62.7964C77.6621 65.3422 75.6483 67.3561 73.1024 68.0401C68.5047 69.294 50 69.294 50 69.294C50 69.294 31.4952 69.294 26.8976 68.0401C24.3517 67.3561 22.3379 65.3422 21.6539 62.7964C20.4 58.1607 20.4 48.5474 20.4 48.5474C20.4 48.5474 20.4 38.934 21.6159 34.3363C22.2999 31.7905 24.3137 29.7766 26.8596 29.0927C31.4572 27.8388 49.962 27.8008 49.962 27.8008C49.962 27.8008 68.4667 27.8008 73.0644 29.0547ZM59.4234 48.5474L44.0724 57.4388V39.656L59.4234 48.5474Z" fill="#E81313"/>
</svg>
