<svg width="100" height="100" viewBox="0 0 100 100" fill="none" xmlns="http://www.w3.org/2000/svg">
<path fill-rule="evenodd" clip-rule="evenodd" d="M50.0002 20.3984C33.6547 20.3984 20.4 33.9856 20.4 50.7476C20.4 64.1568 28.8814 75.5332 40.6424 79.5462C42.1219 79.8273 42.6649 78.888 42.6649 78.0863C42.6649 77.3626 42.6375 74.9719 42.6247 72.4359C34.3899 74.2718 32.6522 68.855 32.6522 68.855C31.3057 65.347 29.3657 64.4142 29.3657 64.4142C26.68 62.5306 29.5681 62.5692 29.5681 62.5692C32.5405 62.7828 34.1055 65.6967 34.1055 65.6967C36.7455 70.3366 41.0302 68.9952 42.7192 68.2196C42.985 66.2587 43.752 64.9187 44.5986 64.1614C38.024 63.3939 31.1126 60.7915 31.1126 49.1625C31.1126 45.8489 32.2689 43.1415 34.1624 41.0161C33.8551 40.2512 32.8419 37.1648 34.4491 32.9845C34.4491 32.9845 36.9348 32.1688 42.5913 36.0954C44.9526 35.423 47.4848 35.0856 50.0002 35.0743C52.5158 35.0856 55.0499 35.423 57.4154 36.0954C63.0652 32.1688 65.5475 32.9845 65.5475 32.9845C67.1585 37.1648 66.1448 40.2512 65.8376 41.0161C67.7355 43.1415 68.884 45.8489 68.884 49.1625C68.884 60.8192 61.9594 63.386 55.3681 64.1373C56.4299 65.0791 57.3757 66.9261 57.3757 69.7577C57.3757 73.8179 57.3414 77.0861 57.3414 78.0863C57.3414 78.894 57.8742 79.8403 59.3747 79.5423C71.1295 75.5247 79.6 64.1523 79.6 50.7476C79.6 33.9856 66.3473 20.3984 50.0002 20.3984Z" fill="#8590A1"/>
<path fill-rule="evenodd" clip-rule="evenodd" d="M24.6004 51.8262C24.5563 51.9277 24.3996 51.9578 24.2569 51.8882C24.1116 51.8216 24.0299 51.6836 24.0771 51.5821C24.1202 51.4777 24.2772 51.449 24.4222 51.5182C24.5679 51.5851 24.6509 51.7245 24.6004 51.8262Z" fill="#67748A"/>
<path fill-rule="evenodd" clip-rule="evenodd" d="M25.4002 52.745C25.3046 52.8351 25.1177 52.7932 24.9909 52.6508C24.8599 52.5086 24.8353 52.3187 24.9322 52.2271C25.0308 52.1369 25.212 52.1792 25.3434 52.3213C25.4745 52.4651 25.5001 52.6537 25.4002 52.745Z" fill="#67748A"/>
<path fill-rule="evenodd" clip-rule="evenodd" d="M26.1966 53.92C26.0738 54.0067 25.873 53.9253 25.7489 53.7441C25.6262 53.5628 25.6262 53.3454 25.7516 53.2583C25.8761 53.1712 26.0738 53.2495 26.1997 53.4295C26.3221 53.6135 26.3221 53.8311 26.1966 53.92Z" fill="#67748A"/>
</svg>
