<svg width="100" height="100" viewBox="0 0 100 100" fill="none" xmlns="http://www.w3.org/2000/svg">
<path d="M25.3345 49.9987V68.4987V31.4987V49.9987ZM56.1679 77.7487C57.0415 77.7487 57.7738 77.4532 58.3648 76.8622C58.9557 76.2713 59.2512 75.539 59.2512 74.6654C59.2512 73.7918 58.9557 73.0595 58.3648 72.4685C57.7738 71.8775 57.0415 71.582 56.1679 71.582C55.2943 71.582 54.562 71.8775 53.971 72.4685C53.38 73.0595 53.0845 73.7918 53.0845 74.6654C53.0845 75.539 53.38 76.2713 53.971 76.8622C54.562 77.4532 55.2943 77.7487 56.1679 77.7487ZM74.6679 46.9154C75.5415 46.9154 76.2738 46.6199 76.8648 46.0289C77.4557 45.4379 77.7512 44.7056 77.7512 43.832C77.7512 42.9584 77.4557 42.2261 76.8648 41.6352C76.2738 41.0442 75.5415 40.7487 74.6679 40.7487C73.7943 40.7487 73.062 41.0442 72.471 41.6352C71.88 42.2261 71.5845 42.9584 71.5845 43.832C71.5845 44.7056 71.88 45.4379 72.471 46.0289C73.062 46.6199 73.7943 46.9154 74.6679 46.9154ZM31.5012 46.9154H46.9179V40.7487H31.5012V46.9154ZM31.5012 59.2487H46.9179V53.082H31.5012V59.2487ZM25.3345 74.6654C23.6387 74.6654 22.187 74.0615 20.9793 72.8539C19.7717 71.6463 19.1679 70.1945 19.1679 68.4987V31.4987C19.1679 29.8029 19.7717 28.3511 20.9793 27.1435C22.187 25.9359 23.6387 25.332 25.3345 25.332H74.6679C76.3637 25.332 77.8154 25.9359 79.0231 27.1435C80.2307 28.3511 80.8345 29.8029 80.8345 31.4987H25.3345V68.4987H40.7512V74.6654H25.3345ZM56.1679 83.9154C53.5984 83.9154 51.4144 83.0161 49.6158 81.2174C47.8172 79.4188 46.9179 77.2348 46.9179 74.6654C46.9179 72.6612 47.496 70.8626 48.6523 69.2695C49.8085 67.6765 51.2859 66.5716 53.0845 65.9549V56.1654H71.5845V52.5424C69.7859 51.9258 68.3085 50.8209 67.1523 49.2279C65.996 47.6348 65.4179 45.8362 65.4179 43.832C65.4179 41.2626 66.3172 39.0786 68.1158 37.2799C69.9144 35.4813 72.0984 34.582 74.6679 34.582C77.2373 34.582 79.4214 35.4813 81.22 37.2799C83.0186 39.0786 83.9179 41.2626 83.9179 43.832C83.9179 45.8362 83.3398 47.6348 82.1835 49.2279C81.0273 50.8209 79.5498 51.9258 77.7512 52.5424V62.332H59.2512V65.9549C61.0498 66.5716 62.5273 67.6765 63.6835 69.2695C64.8398 70.8626 65.4179 72.6612 65.4179 74.6654C65.4179 77.2348 64.5186 79.4188 62.72 81.2174C60.9213 83.0161 58.7373 83.9154 56.1679 83.9154Z" fill="#8590A1"/>
</svg>
