<svg width="16" height="16" viewBox="0 0 16 16" fill="none" xmlns="http://www.w3.org/2000/svg">
<path d="M2.66692 13.3333C2.30025 13.3333 1.98637 13.2028 1.72525 12.9416C1.46414 12.6805 1.33359 12.3666 1.33359 12V3.99998C1.33359 3.63332 1.46414 3.31943 1.72525 3.05832C1.98637 2.7972 2.30025 2.66665 2.66692 2.66665H6.66692L8.00025 3.99998H13.3336C13.7003 3.99998 14.0141 4.13054 14.2753 4.39165C14.5364 4.65276 14.6669 4.96665 14.6669 5.33332V12C14.6669 12.3666 14.5364 12.6805 14.2753 12.9416C14.0141 13.2028 13.7003 13.3333 13.3336 13.3333H2.66692ZM2.66692 12H13.3336V5.33332H7.45025L6.11692 3.99998H2.66692V12Z" fill="#030615"/>
</svg>
