<svg width="16" height="16" viewBox="0 0 16 16" fill="none" xmlns="http://www.w3.org/2000/svg">
<path d="M3.6 13.0667C3.1 12.5667 2.70833 11.9889 2.425 11.3333C2.14167 10.6778 2 9.99999 2 9.29999C2 8.59999 2.13333 7.90833 2.4 7.22499C2.66667 6.54166 3.1 5.89999 3.7 5.29999C4.08889 4.9111 4.56944 4.57777 5.14167 4.29999C5.71389 4.02222 6.39167 3.80277 7.175 3.64166C7.95833 3.48055 8.85278 3.38333 9.85833 3.34999C10.8639 3.31666 11.9889 3.35555 13.2333 3.46666C13.3222 4.64444 13.35 5.72777 13.3167 6.71666C13.2833 7.70555 13.1917 8.59722 13.0417 9.39166C12.8917 10.1861 12.6806 10.8805 12.4083 11.475C12.1361 12.0694 11.8 12.5667 11.4 12.9667C10.8111 13.5555 10.1861 13.9861 9.525 14.2583C8.86389 14.5305 8.18889 14.6667 7.5 14.6667C6.77778 14.6667 6.07222 14.525 5.38333 14.2417C4.69444 13.9583 4.1 13.5667 3.6 13.0667ZM5.46667 12.8C5.78889 12.9889 6.11944 13.125 6.45833 13.2083C6.79722 13.2917 7.14444 13.3333 7.5 13.3333C8.01111 13.3333 8.51667 13.2305 9.01667 13.025C9.51667 12.8194 9.99444 12.4889 10.45 12.0333C10.65 11.8333 10.8528 11.5528 11.0583 11.1917C11.2639 10.8305 11.4417 10.3583 11.5917 9.77499C11.7417 9.19166 11.8556 8.4861 11.9333 7.65833C12.0111 6.83055 12.0222 5.84444 11.9667 4.69999C11.4222 4.67777 10.8083 4.66944 10.125 4.67499C9.44167 4.68055 8.76111 4.73333 8.08333 4.83333C7.40556 4.93333 6.76111 5.09444 6.15 5.31666C5.53889 5.53888 5.03889 5.84444 4.65 6.23333C4.15 6.73333 3.80556 7.22777 3.61667 7.71666C3.42778 8.20555 3.33333 8.67777 3.33333 9.13333C3.33333 9.78888 3.45833 10.3639 3.70833 10.8583C3.95833 11.3528 4.17778 11.7 4.36667 11.9C4.83333 11.0111 5.45 10.1583 6.21667 9.34166C6.98333 8.52499 7.87778 7.85555 8.9 7.33333C8.1 8.03333 7.40278 8.82499 6.80833 9.70833C6.21389 10.5917 5.76667 11.6222 5.46667 12.8Z" fill="#030615"/>
</svg>
