<svg width="16" height="16" viewBox="0 0 16 16" fill="none" xmlns="http://www.w3.org/2000/svg">
<path d="M7.98307 10.0166C7.42752 10.0166 6.95529 9.82219 6.56641 9.4333C6.17752 9.04441 5.98307 8.57219 5.98307 8.01663C5.98307 7.46108 6.17752 6.98885 6.56641 6.59996C6.95529 6.21108 7.42752 6.01663 7.98307 6.01663C8.53863 6.01663 9.01085 6.21108 9.39974 6.59996C9.78863 6.98885 9.98307 7.46108 9.98307 8.01663C9.98307 8.57219 9.78863 9.04441 9.39974 9.4333C9.01085 9.82219 8.53863 10.0166 7.98307 10.0166ZM7.98307 14.6666L5.14974 11.8333L6.09974 10.8833L7.99974 12.7833L9.88307 10.9L10.8164 11.8333L7.98307 14.6666ZM4.14974 10.85L1.31641 8.01663L4.14974 5.1833L5.09974 6.1333L3.19974 8.0333L5.08307 9.91663L4.14974 10.85ZM6.08307 5.09996L5.14974 4.16663L7.98307 1.3333L10.8164 4.16663L9.86641 5.11663L7.96641 3.21663L6.08307 5.09996ZM11.8164 10.85L10.8664 9.89996L12.7664 7.99996L10.8831 6.11663L11.8164 5.1833L14.6497 8.01663L11.8164 10.85Z" fill="#030615"/>
</svg>
