<svg width="20" height="20" viewBox="0 0 20 20" fill="none" xmlns="http://www.w3.org/2000/svg">
<path d="M18 10.1798C18 9.65317 17.9523 9.15317 17.8706 8.6665H10.1736V11.6732H14.5806C14.3831 12.6598 13.8041 13.4932 12.9459 14.0598V16.0598H15.5751C17.1145 14.6665 18 12.6132 18 10.1798Z" fill="#4285F4"/>
<path d="M10.1735 18.0002C12.3804 18.0002 14.2263 17.2802 15.575 16.0602L12.9458 14.0602C12.2101 14.5402 11.277 14.8335 10.1735 14.8335C8.04152 14.8335 6.23648 13.4269 5.58939 11.5269H2.87842V13.5869C4.22028 16.2002 6.97893 18.0002 10.1735 18.0002Z" fill="#34A853"/>
<path d="M5.58965 11.5267C5.41936 11.0467 5.33081 10.5333 5.33081 9.99999C5.33081 9.46666 5.42617 8.95333 5.58965 8.47333V6.41333H2.87868C2.32014 7.49333 2 8.70666 2 9.99999C2 11.2933 2.32014 12.5067 2.87868 13.5867L5.58965 11.5267Z" fill="#FBBC05"/>
<path d="M10.1735 5.16667C11.3791 5.16667 12.4554 5.57334 13.3068 6.36667L15.6363 4.08667C14.2263 2.79333 12.3804 2 10.1735 2C6.97893 2 4.22028 3.8 2.87842 6.41334L5.58939 8.47334C6.23648 6.57334 8.04152 5.16667 10.1735 5.16667Z" fill="#EA4335"/>
</svg>
