<svg width="20" height="20" viewBox="0 0 20 20" fill="none" xmlns="http://www.w3.org/2000/svg">
<path d="M9.93884 16.9473C11.8791 16.9473 13.7399 16.1765 15.1119 14.8045C16.4839 13.4325 17.2546 11.5717 17.2546 9.63146C17.2546 7.6912 16.4839 5.8304 15.1119 4.45842C13.7399 3.08644 11.8791 2.31567 9.93884 2.31567C7.99857 2.31567 6.13777 3.08644 4.76579 4.45842C3.39382 5.8304 2.62305 7.6912 2.62305 9.63146C2.62305 11.5717 3.39382 13.4325 4.76579 14.8045C6.13777 16.1765 7.99857 16.9473 9.93884 16.9473Z" fill="#FFD21E"/>
<path d="M17.2547 9.63153C17.2547 7.69126 16.4839 5.83046 15.1119 4.45848C13.74 3.08651 11.8792 2.31574 9.9389 2.31574C7.99863 2.31574 6.13783 3.08651 4.76586 4.45848C3.39388 5.83046 2.62311 7.69126 2.62311 9.63153C2.62311 11.5718 3.39388 13.4326 4.76586 14.8046C6.13783 16.1765 7.99863 16.9473 9.9389 16.9473C11.8792 16.9473 13.74 16.1765 15.1119 14.8046C16.4839 13.4326 17.2547 11.5718 17.2547 9.63153ZM1.78101 9.63153C1.78101 8.56022 1.99202 7.4994 2.40199 6.50964C2.81196 5.51988 3.41287 4.62056 4.1704 3.86303C4.92793 3.10549 5.82725 2.50459 6.81701 2.09462C7.80677 1.68464 8.86759 1.47363 9.9389 1.47363C11.0102 1.47363 12.071 1.68464 13.0608 2.09462C14.0506 2.50459 14.9499 3.10549 15.7074 3.86303C16.4649 4.62056 17.0658 5.51988 17.4758 6.50964C17.8858 7.4994 18.0968 8.56022 18.0968 9.63153C18.0968 11.7951 17.2373 13.8701 15.7074 15.4C14.1775 16.9299 12.1025 17.7894 9.9389 17.7894C7.77529 17.7894 5.7003 16.9299 4.1704 15.4C2.6405 13.8701 1.78101 11.7951 1.78101 9.63153Z" fill="#FF9D0B"/>
<path d="M12.3158 7.64195C12.5853 7.73458 12.6906 8.28616 12.9621 8.143C13.146 8.04537 13.2968 7.89539 13.3955 7.71204C13.4942 7.52869 13.5362 7.3202 13.5164 7.11294C13.4965 6.90568 13.4157 6.70896 13.284 6.54767C13.1523 6.38637 12.9758 6.26774 12.7767 6.20678C12.5777 6.14581 12.365 6.14526 12.1656 6.20519C11.9662 6.26511 11.789 6.38282 11.6565 6.54343C11.524 6.70404 11.4422 6.90034 11.4212 7.10749C11.4003 7.31464 11.4413 7.52335 11.539 7.70721C11.6674 7.94931 12.0758 7.55563 12.3179 7.63984L12.3158 7.64195ZM7.35793 7.64195C7.08845 7.73458 6.98109 8.28616 6.71161 8.143C6.52772 8.04537 6.37691 7.89539 6.27825 7.71204C6.1796 7.52869 6.13754 7.3202 6.15738 7.11294C6.17723 6.90568 6.25809 6.70896 6.38975 6.54767C6.5214 6.38637 6.69793 6.26774 6.89702 6.20678C7.0961 6.14581 7.30879 6.14526 7.50818 6.20519C7.70758 6.26511 7.88473 6.38282 8.01722 6.54343C8.14971 6.70404 8.2316 6.90034 8.25252 7.10749C8.27345 7.31464 8.23247 7.52335 8.13477 7.70721C8.00635 7.94931 7.59582 7.55563 7.35582 7.63984L7.35793 7.64195Z" fill="#3A3B45"/>
<path d="M9.88635 12.6926C11.9558 12.6926 12.6232 10.8484 12.6232 9.90103C12.6232 9.40839 12.2927 9.56418 11.7621 9.82524C11.2716 10.0673 10.6127 10.4021 9.88845 10.4021C8.37477 10.4021 7.15161 8.95366 7.15161 9.90103C7.15161 10.8484 7.81687 12.6926 9.88845 12.6926H9.88635Z" fill="#FF323D"/>
<path fill-rule="evenodd" clip-rule="evenodd" d="M8.30099 12.2106C8.41208 11.9848 8.56849 11.7844 8.76046 11.6217C8.95243 11.4591 9.17585 11.3378 9.41678 11.2653C9.50099 11.24 9.58731 11.3853 9.67784 11.5348C9.76205 11.6779 9.85047 11.8232 9.93889 11.8232C10.0336 11.8232 10.1284 11.68 10.2189 11.539C10.3136 11.3916 10.4063 11.2485 10.4968 11.2758C10.949 11.4194 11.327 11.7346 11.5494 12.1537C12.3347 11.5348 12.6231 10.5242 12.6231 9.90109C12.6231 9.40846 12.2926 9.56425 11.762 9.8253L11.7326 9.84004C11.2463 10.0821 10.5978 10.4021 9.88626 10.4021C9.17468 10.4021 8.52836 10.0821 8.03994 9.84004C7.49257 9.56846 7.14941 9.39793 7.14941 9.90109C7.14941 10.5432 7.45678 11.5979 8.30099 12.2106Z" fill="#3A3B45"/>
<path d="M14.8863 8.6316C15.0678 8.6316 15.2418 8.55952 15.3701 8.4312C15.4984 8.30289 15.5705 8.12886 15.5705 7.94739C15.5705 7.76593 15.4984 7.5919 15.3701 7.46358C15.2418 7.33527 15.0678 7.26318 14.8863 7.26318C14.7049 7.26318 14.5308 7.33527 14.4025 7.46358C14.2742 7.5919 14.2021 7.76593 14.2021 7.94739C14.2021 8.12886 14.2742 8.30289 14.4025 8.4312C14.5308 8.55952 14.7049 8.6316 14.8863 8.6316ZM5.09685 8.6316C5.27831 8.6316 5.45234 8.55952 5.58066 8.4312C5.70897 8.30289 5.78106 8.12886 5.78106 7.94739C5.78106 7.76593 5.70897 7.5919 5.58066 7.46358C5.45234 7.33527 5.27831 7.26318 5.09685 7.26318C4.91538 7.26318 4.74135 7.33527 4.61304 7.46358C4.48472 7.5919 4.41264 7.76593 4.41264 7.94739C4.41264 8.12886 4.48472 8.30289 4.61304 8.4312C4.74135 8.55952 4.91538 8.6316 5.09685 8.6316ZM3.68843 10.9474C3.34737 10.9474 3.04421 11.0863 2.83158 11.3411C2.65027 11.565 2.55141 11.8445 2.55158 12.1327C2.41902 12.0928 2.28157 12.0715 2.14316 12.0695C1.81685 12.0695 1.52211 12.1937 1.31369 12.419C1.12774 12.6121 1.01051 12.861 0.980071 13.1273C0.949633 13.3936 1.00768 13.6626 1.14527 13.8927C0.958949 14.0448 0.826769 14.253 0.768426 14.4863C0.717899 14.6758 0.667373 15.0758 0.936847 15.4842C0.835828 15.6395 0.775716 15.8179 0.762097 16.0026C0.748479 16.1874 0.781796 16.3726 0.858952 16.5411C1.07369 17.0295 1.61053 17.4127 2.65264 17.8253C3.29895 18.0821 3.89264 18.2463 3.89685 18.2484C4.64682 18.4562 5.41984 18.5694 6.1979 18.5853C7.43158 18.5853 8.31369 18.2063 8.82106 17.4611C9.6379 16.2632 9.52211 15.1663 8.46316 14.1095C7.88 13.5242 7.49053 12.6632 7.41053 12.4737C7.24632 11.9137 6.81264 11.2906 6.09474 11.2906C5.90375 11.2936 5.71625 11.3421 5.54781 11.4322C5.37937 11.5223 5.23487 11.6513 5.12632 11.8084C4.91579 11.5432 4.70948 11.3348 4.52421 11.2148C4.27699 11.0474 3.98689 10.9546 3.68843 10.9474ZM3.68843 11.7895C3.79579 11.7895 3.92843 11.8358 4.07158 11.9263C4.52211 12.2127 5.38737 13.7011 5.70527 14.28C5.81053 14.4737 5.99369 14.5558 6.15579 14.5558C6.48211 14.5558 6.73474 14.2337 6.18737 13.8232C5.36211 13.2063 5.65053 12.1979 6.04421 12.1369C6.06106 12.1327 6.08 12.1327 6.09474 12.1327C6.45264 12.1327 6.61053 12.7495 6.61053 12.7495C6.61053 12.7495 7.07369 13.9116 7.86948 14.7074C8.66316 15.5011 8.70527 16.139 8.12632 16.9874C7.73053 17.5663 6.97474 17.7411 6.1979 17.7411C5.39579 17.7411 4.57053 17.5516 4.10948 17.4337C4.08632 17.4274 1.2779 16.6337 1.63369 15.96C1.69264 15.8463 1.79158 15.8 1.91579 15.8C2.41685 15.8 3.32632 16.5453 3.72 16.5453C3.80632 16.5453 3.86737 16.5095 3.89474 16.419C4.06106 15.819 1.35579 15.5663 1.58316 14.699C1.62527 14.5453 1.73264 14.4842 1.88632 14.4842C2.54737 14.4842 4.03369 15.6484 4.34527 15.6484C4.36843 15.6484 4.38737 15.6421 4.39579 15.6274C4.55158 15.3748 4.46527 15.1979 3.36421 14.5327C2.26737 13.8674 1.49474 13.4674 1.93264 12.9895C1.98316 12.9348 2.05474 12.9095 2.14316 12.9095C2.81053 12.9095 4.38737 14.3453 4.38737 14.3453C4.38737 14.3453 4.81264 14.7874 5.07158 14.7874C5.13053 14.7874 5.18106 14.7663 5.21474 14.7074C5.39579 14.4 3.5179 12.9769 3.41264 12.3895C3.34106 11.9895 3.46316 11.7895 3.68843 11.7895Z" fill="#FF9D0B"/>
<path d="M8.12632 16.9873C8.70527 16.1367 8.66316 15.4988 7.86948 14.7051C7.07369 13.9115 6.61053 12.7473 6.61053 12.7473C6.61053 12.7473 6.4379 12.0736 6.04421 12.1367C5.65053 12.1999 5.36211 13.2062 6.18737 13.823C7.01053 14.4399 6.02316 14.8588 5.70527 14.2799C5.38948 13.7009 4.52211 12.2125 4.07158 11.9262C3.62316 11.642 3.30737 11.7999 3.41263 12.3894C3.5179 12.9767 5.3979 14.3999 5.21474 14.7051C5.03158 15.0146 4.38737 14.3451 4.38737 14.3451C4.38737 14.3451 2.37263 12.5115 1.93263 12.9894C1.49474 13.4673 2.26737 13.8673 3.36421 14.5325C4.46527 15.1978 4.55158 15.3746 4.39579 15.6273C4.2379 15.8799 1.81053 13.8315 1.58316 14.7009C1.35579 15.5662 4.06105 15.8167 3.89474 16.4167C3.72632 17.0167 1.98737 15.2841 1.63369 15.9578C1.27579 16.6336 4.08632 17.4273 4.10948 17.4336C5.01474 17.6694 7.32 18.1683 8.12632 16.9873Z" fill="#FFD21E"/>
<path d="M16.2948 10.9473C16.6358 10.9473 16.9411 11.0862 17.1516 11.3409C17.3329 11.5649 17.4318 11.8444 17.4316 12.1325C17.5649 12.0925 17.703 12.0712 17.8422 12.0694C18.1685 12.0694 18.4632 12.1936 18.6716 12.4188C18.8576 12.6119 18.9748 12.8609 19.0052 13.1272C19.0357 13.3935 18.9776 13.6625 18.84 13.8925C19.0256 14.0449 19.157 14.2532 19.2148 14.4862C19.2653 14.6757 19.3158 15.0757 19.0464 15.4841C19.1474 15.6394 19.2075 15.8177 19.2211 16.0025C19.2347 16.1873 19.2014 16.3725 19.1243 16.5409C18.9095 17.0294 18.3727 17.4125 17.3327 17.8252C16.6843 18.082 16.0906 18.2462 16.0864 18.2483C15.3364 18.4561 14.5634 18.5693 13.7853 18.5852C12.5516 18.5852 11.6695 18.2062 11.1622 17.4609C10.3453 16.2631 10.4611 15.1662 11.5201 14.1094C12.1053 13.5241 12.4948 12.6631 12.5748 12.4736C12.739 11.9136 13.1706 11.2904 13.8885 11.2904C14.0795 11.2934 14.267 11.342 14.4354 11.4321C14.6038 11.5222 14.7483 11.6511 14.8569 11.8083C15.0674 11.5431 15.2737 11.3346 15.4611 11.2146C15.7077 11.0477 15.997 10.9549 16.2948 10.9473ZM16.2948 11.7894C16.1874 11.7894 16.0569 11.8357 15.9116 11.9262C15.4632 12.2125 14.5958 13.701 14.2779 14.2799C14.235 14.3625 14.1704 14.4318 14.091 14.4804C14.0116 14.529 13.9205 14.5551 13.8274 14.5557C13.5032 14.5557 13.2485 14.2336 13.7979 13.8231C14.6211 13.2062 14.3327 12.1978 13.939 12.1367C13.9223 12.134 13.9054 12.1326 13.8885 12.1325C13.5306 12.1325 13.3727 12.7494 13.3727 12.7494C13.3727 12.7494 12.9095 13.9115 12.1158 14.7073C11.32 15.5009 11.2779 16.1388 11.859 16.9873C12.2527 17.5662 13.0106 17.7409 13.7853 17.7409C14.5895 17.7409 15.4127 17.5515 15.8758 17.4336C15.8969 17.4273 18.7074 16.6336 18.3516 15.9599C18.2906 15.8462 18.1937 15.7999 18.0695 15.7999C17.5685 15.7999 16.6569 16.5452 16.2653 16.5452C16.1769 16.5452 16.1158 16.5094 16.0906 16.4188C15.9222 15.8188 18.6274 15.5662 18.4 14.6988C18.36 14.5452 18.2527 14.4841 18.0969 14.4841C17.4358 14.4841 15.9495 15.6483 15.6379 15.6483C15.6169 15.6483 15.5979 15.642 15.5895 15.6273C15.4337 15.3746 15.5179 15.1978 16.6169 14.5325C17.7179 13.8673 18.4906 13.4673 18.0485 12.9894C18.0001 12.9346 17.9285 12.9094 17.8422 12.9094C17.1727 12.9094 15.5958 14.3452 15.5958 14.3452C15.5958 14.3452 15.1706 14.7873 14.9137 14.7873C14.8848 14.7886 14.8561 14.7818 14.8308 14.7676C14.8055 14.7535 14.7846 14.7326 14.7706 14.7073C14.5874 14.3999 16.4653 12.9767 16.5706 12.3894C16.6422 11.9894 16.52 11.7894 16.2948 11.7894Z" fill="#FF9D0B"/>
<path d="M11.859 16.9873C11.28 16.1367 11.32 15.4988 12.1158 14.7051C12.9095 13.9115 13.3726 12.7473 13.3726 12.7473C13.3726 12.7473 13.5453 12.0736 13.9411 12.1367C14.3326 12.1999 14.6211 13.2062 13.7979 13.823C12.9726 14.4399 13.9621 14.8588 14.2779 14.2799C14.5958 13.7009 15.4632 12.2125 15.9116 11.9262C16.36 11.642 16.6779 11.7999 16.5705 12.3894C16.4653 12.9767 14.5874 14.3999 14.7705 14.7051C14.9516 15.0146 15.5958 14.3451 15.5958 14.3451C15.5958 14.3451 17.6126 12.5115 18.0505 12.9894C18.4884 13.4673 17.7179 13.8673 16.619 14.5325C15.5179 15.1978 15.4337 15.3746 15.5874 15.6273C15.7453 15.8799 18.1726 13.8315 18.4 14.7009C18.6274 15.5662 15.9242 15.8167 16.0905 16.4167C16.259 17.0167 17.9958 15.2841 18.3516 15.9578C18.7074 16.6336 15.899 17.4273 15.8758 17.4336C14.9684 17.6694 12.6632 18.1683 11.859 16.9873Z" fill="#FFD21E"/>
</svg>
