<svg width="20" height="20" viewBox="0 0 20 20" fill="none" xmlns="http://www.w3.org/2000/svg">
<path d="M9.53213 7.03641H10.468V9.58875H12.8235V10.4965H10.468V13.0488H9.53213V10.4965H7.20654V9.58875H9.53213V7.03641Z" fill="#E8762C"/>
<path d="M5.19282 3.34907H5.987V5.61806H8.08583V6.32716H5.987V8.62427H5.19282V6.32716H3.09399V5.61806H5.19282V3.34907Z" fill="#EB912C"/>
<path d="M14.0131 11.5468H14.8073V13.8144H16.9343V14.4954H14.8073V16.7925H14.0131V14.4954H11.9143V13.8144H14.0131V11.5468Z" fill="#1F447E"/>
<path d="M9.67371 1.56238H10.3543V3.17957H11.801V3.77441H10.3543V5.3916H9.67371V3.77441H8.25586V3.17957H9.67371V1.56238Z" fill="#25447A"/>
<path d="M5.2213 11.5468H5.95958V13.8429H8.08688V14.4954H5.95712V16.7925H5.21884V14.4954H3.09399V13.8429H5.2213V11.5468Z" fill="#C72035"/>
<path d="M16.3182 8.14224H16.9989V9.7306H18.4375V10.3543H16.9989V11.9426H16.3182V10.3543H14.9004V9.7306H16.3182V8.14224Z" fill="#5B6591"/>
<path fill-rule="evenodd" clip-rule="evenodd" d="M14.0131 3.34907H14.8073V5.61806H16.9343V6.32716H14.8073V8.62427H14.0131V6.32716H11.9143V5.61806H14.0131V3.34907Z" fill="#5D7095"/>
<path d="M11.793 16.3956V16.8776H10.3748V18.4375H9.8643V16.8776H8.44645V16.3956H9.8643V14.8357H10.3748V16.3956H11.793ZM2.97262 8.2559H3.48309V9.81578H4.90234V10.2978H3.48309V11.8281H2.97262V10.2967H1.5625V9.78625L2.97262 9.78906V8.2559Z" fill="#5B6591"/>
</svg>
