<svg width="24" height="24" viewBox="0 0 24 24" fill="none" xmlns="http://www.w3.org/2000/svg">
<path d="M9.27411 9.78175L13.4088 6.31233C14.6099 5.30445 16.4007 5.46112 17.4086 6.66227C18.1003 7.57057 18.2373 8.65288 17.8239 9.59023C17.6808 9.91482 17.6818 10.302 17.9066 10.5765C18.2037 10.9392 18.7575 10.9632 19.0113 10.5688C19.9298 9.14172 19.99 7.23366 18.6421 5.62728C17.0626 3.74491 14.2562 3.49938 12.3738 5.07888L9.51894 7.47439C9.2079 7.05379 8.70829 6.78108 8.14501 6.78108C7.20184 6.78108 6.43726 7.54567 6.43726 8.48884C6.43726 9.43201 7.20184 10.1966 8.14501 10.1966C8.53521 10.1966 8.89491 10.0657 9.1825 9.84546C9.21435 9.82736 9.24505 9.80615 9.27411 9.78175Z" fill="#F56551"/>
<path d="M13.9284 9.59348L17.3978 13.7281C18.4057 14.9293 18.249 16.7201 17.0479 17.728C16.1396 18.4197 15.0573 18.5567 14.1199 18.1433C13.7953 18.0001 13.4081 18.0011 13.1337 18.2259C12.7709 18.5231 12.7469 19.0768 13.1413 19.3307C14.5684 20.2491 16.4764 20.3093 18.0829 18.9614C19.9652 17.3819 20.2108 14.5755 18.6313 12.6931L16.2358 9.83826C16.6563 9.52722 16.9291 9.02761 16.9291 8.46434C16.9291 7.52118 16.1645 6.75659 15.2213 6.75659C14.2781 6.75659 13.5135 7.52118 13.5135 8.46434C13.5135 8.85457 13.6444 9.21423 13.8647 9.50182C13.8828 9.53367 13.904 9.56437 13.9284 9.59348Z" fill="#F56551"/>
<path d="M14.0868 14.248L9.9522 17.7174C8.75104 18.7253 6.96025 18.5686 5.95236 17.3675C5.26067 16.4591 5.1236 15.3768 5.53701 14.4395C5.68018 14.1149 5.67922 13.7277 5.4544 13.4533C5.15721 13.0905 4.60347 13.0665 4.34966 13.4609C3.43121 14.888 3.37099 16.7961 4.7189 18.4024C6.2984 20.2848 9.10479 20.5304 10.9872 18.9509L13.842 16.5553C14.1531 16.9759 14.6527 17.2486 15.216 17.2486C16.1591 17.2486 16.9237 16.484 16.9237 15.5409C16.9237 14.5977 16.1591 13.8332 15.216 13.8332C14.8257 13.8332 14.4661 13.964 14.1785 14.1843C14.1466 14.2023 14.1159 14.2236 14.0868 14.248Z" fill="#F56551"/>
<path d="M9.42453 14.4064L5.95516 10.2718C4.94727 9.07062 5.10394 7.27983 6.3051 6.27194C7.2134 5.58025 8.2957 5.44318 9.23306 5.85659C9.55765 5.99976 9.94485 5.9988 10.2193 5.77398C10.5821 5.47679 10.606 4.92305 10.2116 4.66924C8.78455 3.75079 6.87648 3.69057 5.2701 5.03848C3.38773 6.61798 3.1422 9.42436 4.7217 11.3068L7.11721 14.1616C6.69662 14.4727 6.42391 14.9723 6.42391 15.5355C6.42391 16.4787 7.18849 17.2433 8.13166 17.2433C9.07484 17.2433 9.83939 16.4787 9.83939 15.5355C9.83939 15.1453 9.70852 14.7856 9.48824 14.4981C9.47019 14.4662 9.44894 14.4355 9.42453 14.4064Z" fill="#F56551"/>
</svg>
