<svg width="20" height="20" viewBox="0 0 20 20" fill="none" xmlns="http://www.w3.org/2000/svg">
<path fill-rule="evenodd" clip-rule="evenodd" d="M16.2336 4.3389C16.9217 4.52375 17.466 5.06804 17.6508 5.7561C17.9897 7.00899 18 9.60719 18 9.60719C18 9.60719 18 12.2157 17.6611 13.4583C17.4763 14.1463 16.932 14.6906 16.2439 14.8755C15.0013 15.2144 10 15.2144 10 15.2144C10 15.2144 4.99872 15.2144 3.7561 14.8755C3.06804 14.6906 2.52375 14.1463 2.3389 13.4583C2 12.2054 2 9.60719 2 9.60719C2 9.60719 2 7.00899 2.32863 5.76637C2.51348 5.07831 3.05777 4.53402 3.74583 4.34917C4.98845 4.01027 9.98973 4 9.98973 4C9.98973 4 14.991 4 16.2336 4.3389ZM12.5469 9.60718L8.39795 12.0103V7.2041L12.5469 9.60718Z" fill="#FF0000"/>
</svg>
