<svg width="20" height="20" viewBox="0 0 20 20" fill="none" xmlns="http://www.w3.org/2000/svg">
<path fill-rule="evenodd" clip-rule="evenodd" d="M12.616 2.03627L3.76277 2.69019C3.04853 2.75195 2.80005 3.21867 2.80005 3.77803V13.4836C2.80005 13.9193 2.95477 14.2921 3.32805 14.7903L5.40917 17.4964C5.75109 17.9321 6.06197 18.0255 6.71477 17.9945L16.9959 17.3721C17.8652 17.3102 18.1143 16.9054 18.1143 16.2212V5.30235C18.1143 4.94875 17.9746 4.84683 17.5634 4.54507L14.6668 2.50283C13.9831 2.00571 13.7036 1.94283 12.616 2.03611V2.03627ZM6.94725 5.12363C6.10773 5.18011 5.91733 5.19291 5.44053 4.80523L4.22837 3.84107C4.10517 3.71627 4.16709 3.56059 4.47749 3.52955L12.9884 2.90763C13.7031 2.84523 14.0752 3.09435 14.3548 3.31195L15.8144 4.36955C15.8768 4.40107 16.032 4.58715 15.8453 4.58715L7.05605 5.11627L6.94725 5.12363ZM5.96853 16.1279V6.85867C5.96853 6.45387 6.09285 6.26715 6.46501 6.23579L16.56 5.64475C16.9024 5.61387 17.0572 5.83147 17.0572 6.23563V15.4431C17.0572 15.8479 16.9948 16.1903 16.4359 16.2212L6.77557 16.7812C6.21669 16.8121 5.96869 16.626 5.96869 16.1279H5.96853ZM15.5045 7.35563C15.5664 7.63563 15.5045 7.91563 15.2245 7.94763L14.7589 8.03995V14.8836C14.3546 15.1012 13.9824 15.2255 13.6714 15.2255C13.1743 15.2255 13.0501 15.0699 12.6778 14.6036L9.63301 9.81323V14.4479L10.5962 14.666C10.5962 14.666 10.5962 15.226 9.81909 15.226L7.67669 15.3503C7.61429 15.2255 7.67669 14.9147 7.89381 14.8527L8.45333 14.6975V8.56955L7.67685 8.50667C7.61445 8.22667 7.76965 7.82235 8.20485 7.79099L10.5036 7.63627L13.6716 12.4886V8.19579L12.864 8.10299C12.8016 7.76011 13.0501 7.51099 13.3605 7.48059L15.5045 7.35563Z" fill="#67748A"/>
</svg>
