<svg width="20" height="20" viewBox="0 0 20 20" fill="none" xmlns="http://www.w3.org/2000/svg">
<path fill-rule="evenodd" clip-rule="evenodd" d="M8.47606 6.08738C12.0527 6.08738 14.9521 5.17239 14.9521 4.04369C14.9521 2.91499 12.0527 2 8.47606 2C4.89943 2 2 2.91499 2 4.04369C2 5.17239 4.89943 6.08738 8.47606 6.08738ZM8.47594 17.8722C11.3463 17.8722 13.6949 17.0735 13.8788 16.0637H13.8905L14.6895 7.72568L14.9167 5.35497L14.951 4.99617L14.9521 4.98477H14.9167C14.746 5.4993 13.9704 5.95703 12.8183 6.28581C11.6696 6.61362 10.1467 6.81325 8.47606 6.81325C6.80541 6.81325 5.2825 6.61362 4.13384 6.28581C2.98173 5.95702 2.20611 5.4993 2.03548 4.98477H2L2.00109 4.99617L2.03548 5.35498L2.26265 7.72568L3.06165 16.0637H3.07311C3.25696 17.0735 5.60562 17.8722 8.47594 17.8722ZM12.6159 8.39813L11.9556 15.2883C11.856 15.3362 11.7218 15.3922 11.5472 15.451C10.8286 15.6926 9.74734 15.8722 8.47594 15.8722C7.20453 15.8722 6.12329 15.6926 5.40468 15.451C5.23025 15.3923 5.0961 15.3363 4.99652 15.2885L4.33625 8.39813C5.55627 8.66753 6.98297 8.81325 8.47606 8.81325C9.96915 8.81325 11.3959 8.66753 12.6159 8.39813Z" fill="#D85547"/>
<path d="M8.54742 9.86154L14.1352 14.5548C15.8988 15.6675 17.5382 14.1328 13.8292 9.69071" stroke="#D85547" stroke-width="1.6" stroke-linecap="round"/>
</svg>
