<svg width="20" height="20" viewBox="0 0 20 20" fill="none" xmlns="http://www.w3.org/2000/svg">
<path d="M14.6341 3.44993C11.3757 1.17122 6.93945 1.61923 4.20308 4.50337C1.46671 7.38751 1.25456 11.8389 3.70424 14.97L6.15006 13.1757C4.93599 11.6705 4.68944 9.60415 5.51521 7.85576C6.34098 6.10733 8.09384 4.98433 10.0282 4.96447L9.97027 6.87451L14.6341 3.44993Z" fill="#0194E2"/>
<path d="M16.4426 5.2325C16.3615 5.12059 16.2766 5.01061 16.1897 4.90454L13.8346 6.64093C15.1641 8.11142 15.5091 10.2237 14.7163 12.0404C13.9236 13.8571 12.1401 15.0416 10.1573 15.0683L10.2152 13.1602L5.49927 16.633C8.73114 18.8081 13.0596 18.3471 15.7603 15.5403C18.4612 12.7334 18.7531 8.39265 16.4523 5.24987L16.4426 5.2325Z" fill="#0194E2"/>
</svg>
