<svg width="20" height="20" viewBox="0 0 20 20" fill="none" xmlns="http://www.w3.org/2000/svg">
<path d="M15.2478 5.14196C15.2368 5.06196 15.1667 5.01768 15.1088 5.01281C15.051 5.00798 13.8275 4.9173 13.8275 4.9173C13.8275 4.9173 12.9778 4.07374 12.8846 3.98037C12.7912 3.88705 12.609 3.91544 12.5383 3.93626C12.5278 3.93933 12.3526 3.99341 12.0627 4.08311C11.7789 3.26634 11.278 2.51577 10.3967 2.51577C10.3724 2.51577 10.3474 2.51675 10.3223 2.51818C10.0717 2.18672 9.76121 2.04272 9.49305 2.04272C7.44017 2.04272 6.4594 4.60903 6.1519 5.91314C5.3542 6.16031 4.78751 6.33604 4.71513 6.35878C4.26987 6.49845 4.25579 6.51248 4.19732 6.93204C4.15332 7.24968 2.98828 16.2595 2.98828 16.2595L12.0665 17.9604L16.9854 16.8963C16.9854 16.8963 15.2586 5.22196 15.2478 5.14196ZM11.561 4.23829L10.7928 4.47604C10.7931 4.4219 10.7934 4.36864 10.7934 4.3104C10.7934 3.80278 10.7229 3.39407 10.6099 3.07007C11.064 3.12705 11.3664 3.64371 11.561 4.23829ZM10.0466 3.17072C10.1728 3.48705 10.2549 3.94103 10.2549 4.55363C10.2549 4.58497 10.2546 4.61363 10.2544 4.64262C9.7548 4.79735 9.21195 4.96535 8.6679 5.1339C8.97338 3.95494 9.54598 3.38552 10.0466 3.17072ZM9.43667 2.59335C9.52527 2.59335 9.61453 2.62344 9.69995 2.68223C9.04204 2.99182 8.33683 3.77155 8.03902 5.32864L6.78499 5.71703C7.13382 4.52935 7.96214 2.59335 9.43667 2.59335Z" fill="#95BF46"/>
<path d="M15.1089 5.01282C15.0511 5.008 13.8277 4.91732 13.8277 4.91732C13.8277 4.91732 12.978 4.07376 12.8847 3.98039C12.8498 3.94565 12.8028 3.92784 12.7536 3.92017L12.0671 17.9603L16.9856 16.8963C16.9856 16.8963 15.2588 5.22197 15.248 5.14197C15.2369 5.06197 15.1669 5.0177 15.1089 5.01282Z" fill="#5E8E3E"/>
<path d="M10.3969 7.73062L9.7904 9.53478C9.7904 9.53478 9.25901 9.25117 8.60761 9.25117C7.65265 9.25117 7.60459 9.85045 7.60459 10.0015C7.60459 10.8255 9.75254 11.1412 9.75254 13.0713C9.75254 14.5898 8.78942 15.5676 7.49079 15.5676C5.93243 15.5676 5.1355 14.5977 5.1355 14.5977L5.55276 13.2191C5.55276 13.2191 6.37194 13.9224 7.06317 13.9224C7.51484 13.9224 7.69857 13.5668 7.69857 13.3069C7.69857 12.2321 5.93637 12.1842 5.93637 10.418C5.93637 8.93144 7.00333 7.49292 9.15709 7.49292C9.98695 7.49292 10.3969 7.73062 10.3969 7.73062Z" fill="white"/>
</svg>
