<svg xmlns="http://www.w3.org/2000/svg" width="14px" height="14px" viewBox="0 -100 1200 1200" version="1.1">
  <g>
    <path fill="currentColor" d="M568.2,644.1c-54.4,0-108.7-20.7-150.1-62.1c-11.2-11.2-11.2-29.5,0-40.8c11.2-11.2,29.5-11.2,40.8,0c60.3,60.3,158.4,60.3,218.7,0l209.6-209.6c60.3-60.3,60.3-158.4,0-218.7c-60.3-60.3-158.4-60.3-218.7,0L491.6,289.7c-11.2,11.2-29.5,11.2-40.8,0c-11.2-11.2-11.2-29.5,0-40.8L627.7,72.1c82.8-82.8,217.5-82.8,300.2,0c82.7,82.8,82.8,217.5,0,300.2L718.3,582C676.9,623.4,622.5,644.1,568.2,644.1L568.2,644.1L568.2,644.1z M222.2,990c-54.4,0-108.7-20.7-150.1-62.1c-82.8-82.8-82.8-217.5,0-300.2L281.7,418c82.8-82.8,217.5-82.8,300.2,0c11.2,11.2,11.2,29.5,0,40.8c-11.2,11.2-29.5,11.2-40.8,0c-60.3-60.3-158.4-60.3-218.7,0L112.9,668.4c-60.3,60.3-60.3,158.4,0,218.7c60.3,60.3,158.4,60.3,218.7,0l176.9-176.9c11.2-11.2,29.5-11.2,40.8,0c11.2,11.2,11.2,29.5,0,40.8L372.3,927.9C330.9,969.3,276.6,990,222.2,990L222.2,990L222.2,990z" />
  </g>
</svg>