<svg width="16" height="16" viewBox="0 0 16 16" fill="none" xmlns="http://www.w3.org/2000/svg">
<g id="Component 2">
<path id="Exclude" fill-rule="evenodd" clip-rule="evenodd" d="M8.0001 14.4C11.5347 14.4 14.4001 11.5346 14.4001 8.00001C14.4001 4.46538 11.5347 1.60001 8.0001 1.60001C4.46548 1.60001 1.6001 4.46538 1.6001 8.00001C1.6001 11.5346 4.46548 14.4 8.0001 14.4ZM11.8011 7.00898C12.0194 6.75959 11.9941 6.38054 11.7447 6.16233C11.4953 5.94413 11.1163 5.9694 10.898 6.21878L8.98859 8.40107L7.57531 6.28114C7.47171 6.12575 7.30167 6.02746 7.1153 6.01525C6.92895 6.00304 6.74753 6.07831 6.62455 6.21886L4.19895 8.99085C3.98075 9.24023 4.00601 9.61929 4.25538 9.83753C4.50476 10.0557 4.88383 10.0305 5.10203 9.78105L7.01155 7.59885L8.42485 9.71881C8.52845 9.87417 8.6985 9.97249 8.88487 9.98465C9.07123 9.99689 9.25265 9.92161 9.37563 9.78105L11.8011 7.00898Z" fill="#25A46C"/>
</g>
</svg>
