<svg width="16" height="16" viewBox="0 0 16 16" fill="none" xmlns="http://www.w3.org/2000/svg">
<g id="Component 1">
<path id="Subtract" fill-rule="evenodd" clip-rule="evenodd" d="M8.0001 14.4C11.5347 14.4 14.4001 11.5346 14.4001 8.00001C14.4001 4.46538 11.5347 1.60001 8.0001 1.60001C4.46548 1.60001 1.6001 4.46538 1.6001 8.00001C1.6001 11.5346 4.46548 14.4 8.0001 14.4ZM9.81034 4.83473C9.67666 4.70102 9.48775 4.63817 9.30059 4.66513C9.11342 4.69208 8.94992 4.80568 8.85938 4.97169L6.47136 9.34972L5.19038 8.06873C4.95606 7.83441 4.57616 7.83441 4.34185 8.06873C4.10754 8.30305 4.10754 8.68294 4.34185 8.91726L6.18985 10.7653C6.32356 10.899 6.51247 10.9618 6.69963 10.9349C6.8868 10.9079 7.0503 10.7943 7.14085 10.6283L9.52886 6.25028L10.8099 7.53126C11.0442 7.76557 11.4241 7.76557 11.6583 7.53126C11.8927 7.29694 11.8927 6.91705 11.6583 6.68273L9.81034 4.83473Z" fill="#E59D2F"/>
</g>
</svg>
