<svg width="170" height="36" viewBox="0 0 170 36" fill="none" xmlns="http://www.w3.org/2000/svg">
<path d="M61.7624 0.55542H64.939V28.969H61.7624V26.4629H61.6828C60.4908 28.0129 58.5843 29.5231 55.3253 29.5231C50.2392 29.5231 46.186 25.5096 46.186 18.8339C46.186 12.1581 50.2392 8.14469 55.3253 8.14469C58.5843 8.14469 60.4908 9.57531 61.6828 11.3242H61.7624V0.55542ZM61.7624 18.8339C61.7624 14.0661 59.4182 10.9264 55.6435 10.9264C51.471 10.9264 49.3641 14.8602 49.3641 18.8339C49.3641 22.8075 51.471 26.7414 55.6435 26.7414C59.4182 26.7414 61.7624 23.6017 61.7624 18.8339Z" fill="#163B36"/>
<path d="M76.8032 10.9265C72.9489 10.9265 71.676 12.0389 71.4785 14.9797H68.299C68.4979 11.0856 70.9216 8.14478 76.8032 8.14478C80.6575 8.14478 84.114 9.65495 84.114 14.5378V24.3931C84.114 25.9828 84.3982 26.8565 86.4184 26.6179V28.8441C85.8213 29.0651 85.1882 29.1726 84.5516 29.1609C82.6436 29.1609 81.4914 28.6452 80.936 26.419H80.8507C79.5792 28.3269 77.3147 29.5189 73.9775 29.5189C69.8845 29.5189 67.3003 27.1748 67.3003 23.7566C67.3003 19.1479 70.717 17.956 75.9664 16.9629C79.3846 16.3265 80.9388 15.8889 80.9388 13.863C80.936 12.2775 80.0608 10.9265 76.8032 10.9265ZM80.936 21.1383V17.7613C80.3393 18.3566 78.3915 18.9135 76.2477 19.3511C72.3124 20.185 70.4798 21.1781 70.4798 23.6018C70.4798 25.5907 71.6717 26.7415 74.2957 26.7415C78.0747 26.7415 80.936 25.0324 80.936 21.1383Z" fill="#163B36"/>
<path d="M102.445 8.70168H105.624V27.8539C105.624 33.2524 102.208 36 96.6442 36C91.0808 36 87.782 33.0592 87.4652 29.607H90.6532C91.051 31.6726 92.7202 33.2226 96.495 33.2226C100.27 33.2226 102.455 31.5931 102.455 27.824V24.7554H102.375C101.183 26.5028 99.2767 27.9334 95.9381 27.9334C90.9316 27.9334 86.8784 24.7156 86.8784 18.0398C86.8784 11.364 90.9316 8.14478 95.9381 8.14478C99.2767 8.14478 101.183 9.65496 102.375 11.2049H102.455L102.445 8.70168ZM102.445 18.0398C102.445 13.2706 100.101 10.9265 96.3259 10.9265C92.1534 10.9265 90.048 14.0662 90.048 18.0398C90.048 22.0134 92.1534 25.1517 96.3259 25.1517C100.106 25.1517 102.445 22.8076 102.445 18.0398Z" fill="#163B36"/>
<path d="M125.16 23.4043C125.16 27.0981 121.783 29.5232 117.173 29.5232C110.975 29.5232 108.113 26.5823 107.915 22.2123H111.094C111.292 24.4769 112.089 26.7415 117.173 26.7415C120.63 26.7415 121.981 24.9528 121.981 23.6018C121.981 20.6624 119.318 20.5033 116.419 19.7872C113.319 19.0329 108.709 18.6748 108.709 13.907C108.709 10.7276 111.53 8.14478 116.299 8.14478C121.346 8.14478 124.048 11.006 124.365 14.5023H121.187C120.868 12.9538 120.114 10.9265 116.299 10.9265C113.438 10.9265 111.895 12.0786 111.895 13.6684C111.895 16.0523 114.637 16.2512 117.459 16.9274C121.067 17.8011 125.16 18.3964 125.16 23.4043Z" fill="#163B36"/>
<path d="M135.905 11.4834H131.927V23.6814C131.927 25.9871 133.205 26.3807 135.905 26.186V28.9691C135.121 29.1332 134.322 29.2132 133.521 29.2078C130.821 29.2078 128.751 28.1352 128.751 24.0024V11.4863H125.768V8.70174H128.751V1.94641H131.931V8.70174H135.909L135.905 11.4834Z" fill="#163B36"/>
<path d="M152.8 22.728H155.979C154.945 26.5028 152.045 29.5232 146.999 29.5232C140.839 29.5232 137.104 25.1915 137.104 18.834C137.104 12.0786 140.919 8.14478 146.84 8.14478C153.197 8.14478 156.297 12.4764 156.297 19.6679H140.283C140.283 23.3247 142.468 26.7415 146.88 26.7415C150.933 26.7415 152.442 24.1189 152.8 22.728ZM140.283 16.8933H153.118C153.118 13.6343 150.654 10.9265 146.84 10.9265C143.025 10.9265 140.283 13.6258 140.283 16.8933Z" fill="#163B36"/>
<path d="M169.409 8.26419V11.4437H169.329C164.925 10.7333 161.859 13.8276 161.859 18.1592V28.9692H158.68V8.70175H161.859V12.7152H161.939C163.011 10.0528 164.638 8.14485 167.542 8.14485C168.166 8.13835 168.79 8.17823 169.409 8.26419Z" fill="#163B36"/>
<path d="M11.9886 34.541C11.9892 34.7421 12.0312 34.941 12.1121 35.1251C12.1929 35.3093 12.3109 35.4748 12.4585 35.6113C12.6062 35.7478 12.7804 35.8524 12.9703 35.9185C13.1601 35.9847 13.3616 36.011 13.5621 35.9957C21.1824 35.4502 28.3796 30.0573 30.6774 21.6341C30.7981 21.1496 31.1616 20.9067 31.6459 20.9067C31.8941 20.9167 32.1284 21.0242 32.298 21.2058C32.4676 21.3874 32.5588 21.6286 32.5519 21.877C32.5519 23.7552 30.1377 28.6636 26.6854 31.5121C26.5094 31.6601 26.3692 31.846 26.275 32.0558C26.1808 32.2656 26.1352 32.494 26.1415 32.7239C26.145 32.9109 26.1854 33.0953 26.2603 33.2666C26.3351 33.4379 26.4431 33.5927 26.5779 33.7222C26.7128 33.8517 26.8718 33.9532 27.046 34.0211C27.2202 34.089 27.406 34.1217 27.5929 34.1176C27.8953 34.1176 28.3796 33.9358 28.9846 33.3902C31.3988 31.2081 36 25.0878 36 18.3609C36 8.4985 28.3753 0 17.7344 0C8.23948 0 0.0141602 7.75691 0.0141602 16.7257C0.0141602 22.6641 4.73179 27.1478 10.9604 27.1478C15.7391 27.1478 20.1543 23.7552 21.3642 19.0882C21.4849 18.6038 21.8471 18.3609 22.3313 18.3609C22.5797 18.3709 22.8141 18.4783 22.984 18.6598C23.1538 18.8414 23.2453 19.0826 23.2388 19.3312C23.2388 21.4522 19.2468 28.8497 11.1422 28.8497C9.20658 28.8497 6.78812 28.3042 5.09392 27.3339C4.86712 27.2239 4.62007 27.162 4.36824 27.152C4.17542 27.1446 3.98315 27.1772 3.80352 27.2477C3.62389 27.3182 3.4608 27.4252 3.32448 27.5618C3.18817 27.6985 3.08158 27.8618 3.01144 28.0417C2.94129 28.2215 2.9091 28.4139 2.91688 28.6068C2.92471 28.8539 2.99547 29.0949 3.12247 29.3069C3.24946 29.519 3.42848 29.6951 3.64256 29.8186C5.88067 31.0972 8.54197 31.7579 11.2629 31.7579C18.0369 31.7579 24.2059 27.152 26.0208 20.3654C26.1415 19.881 26.505 19.638 26.9879 19.638C27.2363 19.648 27.4707 19.7554 27.6405 19.937C27.8104 20.1186 27.9019 20.3598 27.8953 20.6084C27.8953 23.3957 22.9363 32.3645 13.3803 33.0919C13.0106 33.1193 12.664 33.2824 12.4072 33.5499C12.1503 33.8173 12.0012 34.1703 11.9886 34.541Z" fill="#4F43DD"/>
<path d="M21.4581 11.3328C22.7624 11.323 24.0427 11.6836 25.1504 12.3727C25.2623 11.7598 25.3241 11.1388 25.335 10.5159C25.335 7.639 23.1423 5.06189 20.4725 5.06189C18.3963 5.06189 17.0983 6.78233 17.0983 8.90767C17.0884 10.0558 17.4917 11.1692 18.2344 12.0445C19.2407 11.5645 20.3433 11.3211 21.4581 11.3328Z" fill="white"/>
<path d="M27.7139 21.7549C28.0845 20.4877 28.2478 19.6083 28.2478 19.0371C28.2365 18.7905 28.1308 18.5577 27.9527 18.3868C27.7745 18.216 27.5375 18.1202 27.2907 18.1194C27.0607 18.1237 26.8389 18.2047 26.6603 18.3496C26.4817 18.4946 26.3567 18.695 26.3051 18.9192C26.2043 19.3355 25.9884 20.4635 25.7754 21.1795C25.8634 20.9115 25.9439 20.6392 26.0168 20.3626C26.1375 19.8768 26.5011 19.6352 26.9839 19.6352C27.2322 19.6449 27.4666 19.752 27.6365 19.9333C27.8063 20.1147 27.8979 20.3557 27.8914 20.6042C27.88 20.9947 27.8174 21.3821 27.7053 21.7563L27.7139 21.7549Z" fill="#352D8E"/>
<path d="M32.8546 20.4308C32.8429 20.1845 32.7374 19.9521 32.5596 19.7814C32.3818 19.6106 32.1453 19.5146 31.8988 19.5131C31.6692 19.5177 31.4476 19.5988 31.2693 19.7437C31.091 19.8886 30.9662 20.089 30.9147 20.3129C30.8124 20.7391 30.5923 21.8842 30.3765 22.5988H30.3864C30.4915 22.2805 30.5895 21.9581 30.6704 21.6299C30.7911 21.144 31.1547 20.9025 31.639 20.9025C31.8871 20.9121 32.1214 21.0193 32.291 21.2007C32.4606 21.3821 32.5519 21.6231 32.545 21.8714C32.5381 22.173 32.4966 22.4728 32.4214 22.765C32.7225 21.708 32.8546 20.9437 32.8546 20.4308Z" fill="#352D8E"/>
<path d="M21.4578 11.3328C22.106 11.3315 22.7514 11.418 23.3764 11.5899C23.7046 11.1423 23.8685 10.5952 23.8407 10.0408C23.813 9.48641 23.5951 8.9585 23.2239 8.54593C22.8527 8.13335 22.3507 7.86131 21.8025 7.77557C21.2542 7.68983 20.6932 7.79563 20.2138 8.07517L21.2079 9.7118L19.3461 8.90627C19.0939 9.31335 18.9675 9.78585 18.9827 10.2645C18.9978 10.7432 19.1539 11.2067 19.4313 11.597C20.092 11.4189 20.7736 11.33 21.4578 11.3328Z" fill="#163B36"/>
<path d="M7.11494 21.8657C7.89925 21.8657 8.53506 21.2296 8.53506 20.445C8.53506 19.6604 7.89925 19.0243 7.11494 19.0243C6.33063 19.0243 5.69482 19.6604 5.69482 20.445C5.69482 21.2296 6.33063 21.8657 7.11494 21.8657Z" fill="#352D8E"/>
<path d="M7.11494 16.1829C7.89925 16.1829 8.53506 15.5469 8.53506 14.7622C8.53506 13.9776 7.89925 13.3416 7.11494 13.3416C6.33063 13.3416 5.69482 13.9776 5.69482 14.7622C5.69482 15.5469 6.33063 16.1829 7.11494 16.1829Z" fill="#352D8E"/>
<path d="M4.27461 19.0243C5.05892 19.0243 5.69473 18.3883 5.69473 17.6037C5.69473 16.819 5.05892 16.183 4.27461 16.183C3.4903 16.183 2.85449 16.819 2.85449 17.6037C2.85449 18.3883 3.4903 19.0243 4.27461 19.0243Z" fill="#352D8E"/>
<path d="M10.6651 27.1449H10.9491C15.7278 27.1449 20.143 23.7524 21.3529 19.0854C21.4736 18.601 21.8357 18.358 22.32 18.358C22.5684 18.368 22.8028 18.4754 22.9726 18.657C23.1425 18.8386 23.234 19.0798 23.2275 19.3284C23.2058 19.8243 23.0937 20.312 22.8966 20.7675C22.9308 20.7146 22.9608 20.659 22.986 20.6013C23.3454 19.7797 23.531 18.8926 23.5314 17.9958C23.5314 16.6021 22.5628 15.6929 21.1725 15.6929C18.7484 15.6929 18.2627 17.8097 17.2402 20.0728C16.1794 22.4226 14.231 24.9642 9.3174 24.9642C4.21207 24.9642 -1.03384 21.3884 0.245682 14.1173C0.261303 14.0264 0.274083 13.9454 0.284024 13.8701C0.0965386 14.8095 0.00141057 15.7649 0 16.7228C0.0142012 22.576 4.58556 27.0086 10.6651 27.1449Z" fill="#352D8E"/>
</svg>
