<svg width="503" height="106" viewBox="0 0 503 106" fill="none" xmlns="http://www.w3.org/2000/svg">
<path d="M180.916 0H190.437V84.9664H180.916V77.4798H180.678C175.997 83.58 169.65 86.6301 161.637 86.6301C156.56 86.6301 151.919 85.3625 147.714 82.8274C143.588 80.213 140.296 76.4895 137.836 71.657C135.456 66.8244 134.266 61.1599 134.266 54.6637C134.266 48.1674 135.456 42.503 137.836 37.6704C140.296 32.8378 143.588 29.154 147.714 26.6188C151.919 24.0045 156.56 22.6973 161.637 22.6973C169.968 22.6973 176.315 25.8662 180.678 32.204H180.916V0ZM162.589 78.3117C168.222 78.3117 172.665 76.1727 175.918 71.8946C179.25 67.5374 180.916 61.7937 180.916 54.6637C180.916 47.5336 179.25 41.8296 175.918 37.5516C172.665 33.1943 168.222 31.0157 162.589 31.0157C158.623 31.0157 155.211 32.1248 152.355 34.343C149.499 36.5613 147.357 39.4925 145.929 43.1368C144.501 46.7018 143.787 50.5441 143.787 54.6637C143.787 58.7833 144.501 62.6652 145.929 66.3094C147.357 69.8744 149.499 72.7661 152.355 74.9843C155.211 77.2025 158.623 78.3117 162.589 78.3117Z" fill="#163B36"/>
<path d="M238.245 39.8094C238.245 33.9469 234.119 31.0157 225.868 31.0157C220.156 31.0157 216.15 31.9268 213.849 33.7489C211.548 35.571 210.239 38.7003 209.922 43.1368H200.401C200.719 36.8782 202.94 31.9268 207.066 28.2825C211.191 24.559 217.459 22.6973 225.868 22.6973C232.374 22.6973 237.65 24.2025 241.696 27.213C245.742 30.1442 247.765 35.0164 247.765 41.8296V71.3005C247.765 73.9148 248.202 75.7765 249.074 76.8857C249.947 77.9155 251.811 78.2721 254.668 77.9552V84.6099C252.763 85.2437 250.899 85.5605 249.074 85.5605C246.06 85.5605 243.679 85.006 241.934 83.8969C240.268 82.7085 239.038 80.5299 238.245 77.361H238.007C236.023 80.2922 233.286 82.5897 229.796 84.2534C226.384 85.8378 222.259 86.6301 217.419 86.6301C211.31 86.6301 206.431 85.0456 202.781 81.8767C199.211 78.7078 197.426 74.5486 197.426 69.3991C197.426 64.9626 198.458 61.4372 200.52 58.8229C202.583 56.2085 205.4 54.228 208.97 52.8812C212.619 51.4552 217.419 50.1876 223.369 49.0785C227.257 48.3655 230.192 47.6921 232.176 47.0583C234.159 46.4245 235.666 45.5531 236.698 44.4439C237.729 43.3348 238.245 41.79 238.245 39.8094ZM218.371 78.3117C224.321 78.3117 229.121 76.9253 232.771 74.1525C236.42 71.3005 238.245 67.1016 238.245 61.5561V51.4552C236.658 53.0396 231.977 54.6241 224.202 56.2085C218.014 57.5553 213.571 59.1398 210.874 60.9619C208.256 62.784 206.947 65.438 206.947 68.9238C206.947 75.1824 210.755 78.3117 218.371 78.3117Z" fill="#163B36"/>
<path d="M302.598 24.361H312.119V81.639C312.119 89.5613 309.739 95.5822 304.979 99.7018C300.298 103.901 293.713 106 285.224 106C279.829 106 275.108 105.129 271.062 103.386C267.016 101.722 263.843 99.4245 261.542 96.4933C259.32 93.562 258.051 90.3535 257.734 86.8677H267.254C267.889 90.1951 269.595 92.8094 272.371 94.7108C275.227 96.6913 279.353 97.6816 284.748 97.6816C296.648 97.6816 302.598 92.2945 302.598 81.5202V72.37H302.36C297.997 78.7078 291.571 81.8767 283.082 81.8767C277.925 81.8767 273.284 80.7676 269.158 78.5493C265.112 76.3311 261.899 73.0037 259.519 68.5673C257.139 64.1308 255.949 58.704 255.949 52.287C255.949 45.87 257.139 40.4432 259.519 36.0067C261.899 31.5703 265.112 28.2429 269.158 26.0247C273.284 23.8064 277.925 22.6973 283.082 22.6973C291.253 22.6973 297.68 25.7474 302.36 31.8475H302.598V24.361ZM284.272 73.5583C290.063 73.5583 294.546 71.7758 297.719 68.2108C300.972 64.5665 302.598 59.2586 302.598 52.287C302.598 45.3154 300.972 40.0471 297.719 36.4821C294.546 32.8378 290.063 31.0157 284.272 31.0157C278.242 31.0157 273.601 32.9963 270.348 36.9574C267.095 40.9185 265.469 46.0284 265.469 52.287C265.469 58.5456 267.095 63.6555 270.348 67.6166C273.601 71.5777 278.242 73.5583 284.272 73.5583Z" fill="#163B36"/>
<path d="M347.432 48.9596C348.146 49.1181 350.883 49.7915 355.643 50.9798C360.483 52.0889 364.172 54.1091 366.71 57.0404C369.249 59.9716 370.519 63.7347 370.519 68.3296C370.519 71.9738 369.487 75.1824 367.424 77.9552C365.362 80.728 362.506 82.867 358.856 84.3722C355.286 85.8774 351.2 86.6301 346.599 86.6301C337.634 86.6301 330.85 84.6891 326.249 80.8072C321.647 76.9253 319.188 71.5777 318.871 64.7646H328.391C328.788 68.9634 330.176 72.2907 332.556 74.7466C335.016 77.1233 339.696 78.3117 346.599 78.3117C351.359 78.3117 354.929 77.361 357.309 75.4596C359.768 73.4791 360.998 71.3005 360.998 68.9238C360.998 66.5471 360.403 64.6854 359.213 63.3386C358.102 61.9918 356.674 61.0015 354.929 60.3677C353.184 59.6547 350.764 58.9417 347.67 58.2287L344.338 57.5157C342.592 57.1196 341.442 56.8423 340.886 56.6839C336.761 55.8124 333.389 54.9013 330.771 53.9507C328.153 52.9208 325.892 51.2967 323.988 49.0785C322.163 46.8602 321.251 43.8102 321.251 39.9283C321.251 36.7593 322.163 33.8677 323.988 31.2534C325.812 28.639 328.431 26.5792 331.842 25.074C335.333 23.4895 339.379 22.6973 343.981 22.6973C351.2 22.6973 356.912 24.4798 361.117 28.0448C365.322 31.6099 367.662 36.1652 368.138 41.7108H358.618C357.983 38.6211 356.635 36.0859 354.572 34.1054C352.589 32.0456 349.058 31.0157 343.981 31.0157C339.776 31.0157 336.523 31.7683 334.222 33.2735C331.921 34.7788 330.771 36.7593 330.771 39.2152C330.771 41.1166 331.326 42.6218 332.437 43.7309C333.548 44.8401 334.936 45.6719 336.602 46.2265C338.348 46.781 340.767 47.4148 343.862 48.1278L347.432 48.9596Z" fill="#163B36"/>
<path d="M402.62 32.6794H390.72V69.1614C390.72 72.0135 391.394 73.994 392.743 75.1031C394.091 76.2123 396.313 76.7668 399.407 76.7668C400.756 76.7668 401.827 76.7272 402.62 76.648V84.9664C400.478 85.4417 398.098 85.6794 395.48 85.6794C390.958 85.6794 387.427 84.5307 384.888 82.2332C382.429 79.9357 381.199 75.8954 381.199 70.1121V32.6794H372.274V24.361H381.199V4.1592H390.72V24.361H402.62V32.6794Z" fill="#163B36"/>
<path d="M435.439 78.3117C440.834 78.3117 444.96 77.0441 447.816 74.509C450.672 71.9738 452.457 69.2407 453.171 66.3094H462.691C461.025 72.3303 457.892 77.2422 453.29 81.0448C448.768 84.7683 442.937 86.6301 435.796 86.6301C429.767 86.6301 424.491 85.3229 419.969 82.7085C415.526 80.015 412.114 76.2519 409.734 71.4193C407.354 66.5867 406.164 61.0015 406.164 54.6637C406.164 44.6816 408.782 36.8782 414.019 31.2534C419.255 25.5493 426.355 22.6973 435.32 22.6973C444.682 22.6973 451.743 25.7078 456.503 31.7287C461.263 37.7496 463.643 46.2265 463.643 57.1592H415.685C415.685 60.9619 416.438 64.4873 417.946 67.7354C419.453 70.9043 421.674 73.4791 424.61 75.4596C427.625 77.361 431.235 78.3117 435.439 78.3117ZM435.32 31.0157C431.592 31.0157 428.22 31.8079 425.205 33.3924C422.269 34.9768 419.929 37.1555 418.184 39.9283C416.518 42.6218 415.685 45.5927 415.685 48.8408H454.123C454.123 45.5927 453.33 42.6218 451.743 39.9283C450.236 37.1555 448.054 34.9768 445.198 33.3924C442.342 31.8079 439.049 31.0157 435.32 31.0157Z" fill="#163B36"/>
<path d="M497.227 22.6973C499.29 22.6973 501.154 22.8161 502.82 23.0538V32.5605H502.582C501.313 32.3229 500.083 32.204 498.893 32.204C493.339 32.204 488.817 34.145 485.327 38.0269C481.915 41.9088 480.209 46.781 480.209 52.6435V84.9664H470.689V24.361H480.209V36.3632H480.447C482.193 32.006 484.374 28.639 486.993 26.2623C489.69 23.8857 493.101 22.6973 497.227 22.6973Z" fill="#163B36"/>
<path d="M35.3293 101.706C35.3323 102.298 35.4571 102.883 35.696 103.425C35.9349 103.967 36.2827 104.454 36.7179 104.855C37.153 105.257 37.6662 105.565 38.2254 105.76C38.7846 105.955 39.378 106.032 39.9685 105.988C62.4508 104.382 83.6841 88.5017 90.4644 63.6998C90.8213 62.2724 91.8919 61.5586 93.3193 61.5586C94.7468 61.5586 95.9958 62.8076 95.9958 64.4135C95.9958 69.9449 88.8585 84.3978 78.688 92.784C77.6174 93.6762 77.0821 94.9252 77.0821 96.3526C77.0821 98.6722 79.0448 100.457 81.3644 100.457C82.2566 100.457 83.6841 99.9213 85.4684 98.3154C92.6056 91.8919 106.166 73.8704 106.166 54.0645C106.166 25.0249 83.6716 0 52.2802 0C24.2666 0 0 22.8391 0 49.2469C0 66.7331 13.9176 79.937 32.296 79.937C46.392 79.937 59.4175 69.9449 62.9861 56.2057C63.3429 54.7783 64.4135 54.0645 65.841 54.0645C67.2684 54.0645 68.5174 55.3136 68.5174 56.9194C68.5174 63.1645 56.741 84.9331 32.8313 84.9331C27.1215 84.9331 19.9843 83.3272 14.9882 80.4723C14.3192 80.1477 13.5901 79.9654 12.847 79.937C10.349 79.937 8.56468 81.7213 8.56468 84.2193C8.56468 85.6468 9.45683 87.0742 10.7058 87.788C17.3078 91.535 25.1587 93.4977 33.1881 93.4977C53.1724 93.4977 71.3723 79.937 76.7252 59.9528C77.0821 58.5253 78.1527 57.8116 79.5801 57.8116C81.0076 57.8116 82.2566 59.0606 82.2566 60.6665C82.2566 68.8743 67.6253 95.2821 39.4332 97.4232C37.1136 97.6017 35.3293 99.5644 35.3293 101.706Z" fill="#4F43DD"/>
<path d="M63.2497 33.3667C67.0975 33.3381 70.8747 34.401 74.1429 36.4321C74.4735 34.6276 74.6566 32.7992 74.6907 30.965C74.6907 22.4931 68.2208 14.9062 60.3431 14.9062C54.2158 14.9062 50.3866 19.9701 50.3866 26.2295C50.3614 29.6113 51.5547 32.8892 53.7482 35.4633C56.6067 34.0787 59.8024 33.3667 63.2497 33.3667Z" fill="white"/>
<path d="M81.7204 64.0572C82.8106 60.3262 83.2942 57.7354 83.2942 56.0528C83.2942 54.7466 82.1094 53.3513 80.4714 53.3513C79.7928 53.3622 79.1375 53.6003 78.6102 54.0276C78.083 54.455 77.7142 55.0468 77.563 55.7084C77.265 56.9306 76.6262 60.253 75.9982 62.3621C76.2587 61.5698 76.4966 60.7675 76.7119 59.955C77.0688 58.5276 78.1393 57.8139 79.5668 57.8139C80.9942 57.8139 82.2432 59.0629 82.2432 60.6688C82.2095 61.818 82.0247 62.9579 81.6937 64.059L81.7204 64.0572Z" fill="#352D8E"/>
<path d="M96.8854 60.1568C96.8854 58.8507 95.7006 57.4553 94.0644 57.4553C93.3874 57.4688 92.7342 57.7078 92.2084 58.1345C91.6826 58.5611 91.3141 59.1509 91.1613 59.8106C90.8598 61.0489 90.2103 64.4373 89.5751 66.541H89.6055C89.9124 65.6042 90.2014 64.655 90.4637 63.6861C90.8205 62.2587 91.8911 61.5449 93.3185 61.5449C94.746 61.5449 95.995 62.794 95.995 64.3998C95.9734 65.2882 95.8507 66.1711 95.6293 67.0317C96.4946 63.9163 96.8854 61.6663 96.8854 60.1568Z" fill="#352D8E"/>
<path d="M22.0366 62.0933C21.1896 62.0933 20.3617 61.8421 19.6575 61.3716C18.9532 60.901 18.4044 60.2322 18.0802 59.4497C17.7561 58.6672 17.6713 57.8062 17.8366 56.9755C18.0018 56.1448 18.4097 55.3817 19.0086 54.7828C19.6075 54.1839 20.3704 53.7761 21.2011 53.6108C22.0318 53.4456 22.8929 53.5304 23.6754 53.8546C24.4579 54.1787 25.1267 54.7275 25.5973 55.4318C26.0678 56.136 26.3189 56.964 26.3189 57.8109C26.3189 58.9467 25.8678 60.0359 25.0647 60.839C24.2616 61.6421 23.1723 62.0933 22.0366 62.0933V62.0933Z" fill="#352D8E"/>
<path d="M22.0366 45.3208C21.1896 45.3208 20.3617 45.0696 19.6575 44.5991C18.9532 44.1285 18.4044 43.4597 18.0802 42.6772C17.7561 41.8947 17.6713 41.0337 17.8366 40.203C18.0018 39.3723 18.4097 38.6093 19.0086 38.0104C19.6075 37.4115 20.3704 37.0036 21.2011 36.8384C22.0318 36.6731 22.8929 36.758 23.6754 37.0821C24.4579 37.4062 25.1267 37.9551 25.5973 38.6593C26.0678 39.3635 26.3189 40.1915 26.3189 41.0385C26.3189 42.1742 25.8678 43.2634 25.0647 44.0665C24.2616 44.8696 23.1723 45.3208 22.0366 45.3208V45.3208Z" fill="#352D8E"/>
<path d="M13.6505 53.707C12.8035 53.707 11.9756 53.4559 11.2714 52.9853C10.5671 52.5148 10.0183 51.8459 9.69414 51.0634C9.37002 50.281 9.28522 49.4199 9.45045 48.5892C9.61569 47.7585 10.0236 46.9955 10.6224 46.3966C11.2213 45.7977 11.9843 45.3898 12.815 45.2246C13.6457 45.0594 14.5068 45.1442 15.2893 45.4683C16.0718 45.7924 16.7406 46.3413 17.2111 47.0455C17.6817 47.7498 17.9328 48.5777 17.9328 49.4247C17.9328 50.5604 17.4816 51.6497 16.6786 52.4528C15.8755 53.2558 14.7862 53.707 13.6505 53.707Z" fill="#352D8E"/>
<path d="M31.4384 79.9263C31.7239 79.9263 32.0093 79.9371 32.2965 79.9371C46.3926 79.9371 59.418 69.9449 62.9866 56.2058C63.3435 54.7783 64.4141 54.0646 65.8415 54.0646C67.269 54.0646 68.518 55.3136 68.518 56.9195C68.518 57.0373 68.518 57.1622 68.5055 57.2888C68.5055 57.3245 68.5055 57.362 68.5055 57.3995C68.4966 57.5012 68.4859 57.6047 68.4734 57.7135C68.4734 57.7474 68.4645 57.7813 68.4592 57.817C68.4199 58.1096 68.3605 58.4231 68.2808 58.7573C68.2808 58.7769 68.2718 58.7984 68.2665 58.8198C68.229 58.9768 68.1897 59.1392 68.1451 59.3051L68.1344 59.3461C67.9809 59.9082 67.7775 60.5149 67.5402 61.1572C67.6426 61.0012 67.7321 60.8371 67.8078 60.6665C68.8681 58.2476 69.4149 55.6351 69.4137 52.994C69.4137 48.8901 66.5588 46.2136 62.4549 46.2136C55.3034 46.2136 53.8724 52.448 50.8569 59.1106C47.7255 66.0302 41.9782 73.5136 27.4825 73.5136C12.4176 73.5136 -3.05772 62.9861 0.717874 41.5744C0.764266 41.3086 0.801758 41.0677 0.828522 40.8464C0.28144 43.6132 0.0053301 46.4267 0.0041511 49.247C0.000582483 66.4602 13.4865 79.5231 31.4384 79.9263Z" fill="#352D8E"/>
<path d="M63.2497 33.3664C65.1625 33.3632 67.067 33.6189 68.9113 34.1266C69.8523 32.8035 70.3142 31.199 70.2206 29.5781C70.1269 27.9572 69.4834 26.4166 68.3962 25.2107C67.309 24.0048 65.8431 23.2056 64.2405 22.945C62.6379 22.6845 60.9944 22.9782 59.5812 23.7776L62.5199 28.5952L57.0296 26.2221C56.2851 27.4204 55.9117 28.8121 55.9565 30.2222C56.0013 31.6322 56.4622 32.9975 57.2812 34.1462C59.2271 33.6218 61.2343 33.3595 63.2497 33.3664Z" fill="#163B36"/>
</svg>
