<svg width="64" height="24" viewBox="0 0 64 24" fill="none" xmlns="http://www.w3.org/2000/svg">
<rect width="64" height="24" rx="8" fill="#655CFC" fill-opacity="0.1"/>
<g clip-path="url(#clip0_257_1458)">
<path fill-rule="evenodd" clip-rule="evenodd" d="M12.3014 7.05303C13.7005 5.48284 16.0175 5.02223 17.9224 5.92856C20.4532 7.13289 21.3765 10.2008 19.9986 12.5672L16.8989 17.885C16.7257 18.1821 16.4406 18.3989 16.1063 18.4878C15.7721 18.5766 15.4159 18.5303 15.1161 18.3589L18.8689 11.9196C19.8686 10.2021 19.1999 7.9758 17.365 7.09924C15.9883 6.44158 14.3053 6.77012 13.2882 7.90116C12.7272 8.52206 12.4122 9.32371 12.4017 10.1574C12.3912 10.9912 12.6859 11.8003 13.2311 12.435C13.3291 12.5489 13.4345 12.6562 13.5467 12.7564L11.3559 16.5223C11.2702 16.6695 11.1561 16.7986 11.0202 16.902C10.8842 17.0055 10.729 17.0815 10.5635 17.1255C10.398 17.1695 10.2253 17.1807 10.0554 17.1585C9.8855 17.1364 9.72166 17.0812 9.57323 16.9962L11.9516 12.9078C11.61 12.4192 11.3647 11.871 11.2286 11.2919L9.77111 13.8023C9.59786 14.0994 9.31281 14.3163 8.97855 14.4051C8.64428 14.494 8.28813 14.4477 7.98828 14.2763L11.7573 7.8008C11.9141 7.53488 12.0963 7.28447 12.3014 7.05303ZM16.6515 9.11419C17.5592 9.63415 17.8727 10.7905 17.3475 11.6905L13.7333 17.8842C13.56 18.1814 13.275 18.3982 12.9407 18.487C12.6065 18.5759 12.2503 18.5295 11.9505 18.3582L15.3064 12.5918C15.0371 12.5356 14.7833 12.4221 14.5626 12.2591C14.3419 12.0961 14.1594 11.8876 14.0279 11.6479C13.8963 11.4081 13.8188 11.143 13.8006 10.8706C13.7825 10.5983 13.8241 10.3253 13.9227 10.0704C14.0212 9.81563 14.1744 9.58503 14.3715 9.39463C14.5687 9.20423 14.8052 9.05856 15.0646 8.96765C15.3241 8.87673 15.6003 8.84275 15.8743 8.86805C16.1483 8.89335 16.4134 8.97732 16.6515 9.11419ZM15.3369 10.2782C15.2748 10.3255 15.2226 10.3845 15.1835 10.4517H15.1833C15.1244 10.5531 15.0971 10.6694 15.1047 10.7862C15.1125 10.9029 15.1549 11.0148 15.2268 11.1076C15.2986 11.2004 15.3965 11.27 15.5082 11.3076C15.6199 11.3452 15.7403 11.3491 15.8542 11.3188C15.9682 11.2885 16.0705 11.2254 16.1482 11.1374C16.226 11.0495 16.2757 10.9406 16.2911 10.8246C16.3065 10.7086 16.2869 10.5907 16.2347 10.4858C16.1825 10.3809 16.1002 10.2937 15.998 10.2352C15.9302 10.1963 15.8554 10.1711 15.7777 10.161C15.7001 10.1508 15.6212 10.156 15.5455 10.1761C15.4699 10.1962 15.399 10.2309 15.3369 10.2782Z" fill="#655CFC"/>
</g>
<g clip-path="url(#clip1_257_1458)">
<path fill-rule="evenodd" clip-rule="evenodd" d="M22.6258 14.2849L25.3504 7.37137H26.9479L29.6726 14.2849H28.1496L27.5627 12.7363H24.7356L24.1488 14.2849H22.6258ZM27.097 11.4919C26.9107 10.9511 26.7446 10.4671 26.5986 10.04C26.4527 9.61291 26.3037 9.17197 26.1515 8.71721C25.9994 9.17197 25.8488 9.61291 25.6997 10.04C25.5538 10.4671 25.3877 10.9511 25.2014 11.4919H27.097ZM30.1336 8.10882C30.1336 7.88758 30.202 7.70937 30.3386 7.57417C30.4752 7.43897 30.6553 7.37137 30.8789 7.37137C31.1024 7.37137 31.2825 7.43897 31.4191 7.57417C31.5558 7.70937 31.6241 7.88758 31.6241 8.10882C31.6241 8.33005 31.5558 8.50827 31.4191 8.64347C31.2825 8.77867 31.1024 8.84627 30.8789 8.84627C30.6553 8.84627 30.4752 8.77867 30.3386 8.64347C30.202 8.50827 30.1336 8.33005 30.1336 8.10882ZM30.2082 14.2849V9.6759H31.5495V14.2849H30.2082ZM32.686 9.6759V14.2849H34.0273V12.2523C34.0273 11.7669 34.1376 11.3936 34.358 11.1324C34.5785 10.8681 34.8688 10.736 35.229 10.736C35.4029 10.736 35.5798 10.7652 35.7599 10.8236L35.9462 9.6759C35.732 9.61444 35.5239 9.58372 35.3221 9.58372C34.729 9.58372 34.2633 9.83414 33.9248 10.335V9.6759H32.686ZM36.4585 14.2849V7.37137H37.7999V10.1322C37.9955 9.96012 38.2191 9.82646 38.4706 9.73121C38.7221 9.63288 38.9938 9.58372 39.2856 9.58372C39.7234 9.58372 40.1131 9.68819 40.4546 9.89713C40.7962 10.103 41.0648 10.3872 41.2604 10.7498C41.456 11.1093 41.5538 11.5195 41.5538 11.9804C41.5538 12.4413 41.456 12.8531 41.2604 13.2156C41.0648 13.5752 40.7962 13.8594 40.4546 14.0683C40.1131 14.2742 39.7234 14.3771 39.2856 14.3771C38.9845 14.3771 38.7034 14.3264 38.4426 14.225C38.1818 14.1205 37.9536 13.9746 37.758 13.7872L37.7254 14.2849H36.4585ZM39.1154 13.2249C39.4569 13.2249 39.7395 13.1066 39.963 12.87C40.1866 12.6334 40.2984 12.3368 40.2984 11.9804C40.2984 11.624 40.1866 11.3275 39.963 11.0909C39.7395 10.8543 39.4569 10.736 39.1154 10.736C38.7738 10.736 38.4913 10.8543 38.2677 11.0909C38.0441 11.3275 37.9324 11.624 37.9324 11.9804C37.9324 12.3368 38.0441 12.6334 38.2677 12.87C38.4913 13.1066 38.7738 13.2249 39.1154 13.2249ZM43.7951 11.9297L42.7052 9.6759H41.3034L43.4737 14.0545L42.4118 16.5895H43.823L46.72 9.6759H45.3041L44.0466 12.681C44.0156 12.5304 43.9783 12.3922 43.9348 12.2662C43.8914 12.1402 43.8448 12.028 43.7951 11.9297ZM46.9016 9.6759H47.6701V8.52363H49.0115V9.6759H50.1433V10.8282H49.0115V12.5243C49.0115 12.7424 49.0813 12.9145 49.2211 13.0405C49.3639 13.1634 49.544 13.2249 49.7614 13.2249C49.9228 13.2249 50.0889 13.1895 50.2597 13.1189V14.2066C49.9647 14.3203 49.6744 14.3771 49.3887 14.3771C48.8361 14.3771 48.4107 14.2312 48.1126 13.9393C47.8176 13.6443 47.6701 13.2233 47.6701 12.6764V10.8282H46.9016V9.6759ZM52.6863 12.999C52.4627 12.8392 52.309 12.6318 52.2252 12.3768H55.858V11.9758C55.858 11.5118 55.7524 11.1001 55.5413 10.7406C55.3301 10.3811 55.0414 10.0984 54.675 9.89252C54.3117 9.68665 53.8957 9.58372 53.4268 9.58372C52.9548 9.58372 52.5326 9.68819 52.1599 9.89713C51.7905 10.103 51.4986 10.3857 51.2844 10.7452C51.0701 11.1016 50.963 11.5088 50.963 11.9666C50.963 12.4306 51.0748 12.8454 51.2983 13.211C51.5219 13.5736 51.8308 13.8594 52.2252 14.0683C52.6195 14.2742 53.0744 14.3771 53.5898 14.3771C53.9127 14.3771 54.2496 14.3249 54.6005 14.2204C54.9544 14.1159 55.3115 13.9239 55.6717 13.6443L54.8613 12.6856C54.6874 12.8484 54.4934 12.9821 54.2791 13.0866C54.068 13.188 53.8009 13.2387 53.478 13.2387C53.1769 13.2387 52.9129 13.1588 52.6863 12.999ZM54.398 11.4007C54.3239 11.2375 54.2175 11.0988 54.0788 10.9849C53.877 10.8189 53.6348 10.736 53.3523 10.736C53.0666 10.736 52.8182 10.8205 52.6071 10.9895C52.4655 11.1045 52.357 11.2416 52.2815 11.4007H54.398Z" fill="#231F1B"/>
</g>
<defs>
<clipPath id="clip0_257_1458">
<rect width="12.7054" height="13.064" fill="white" transform="translate(7.98828 5.46802)"/>
</clipPath>
<clipPath id="clip1_257_1458">
<rect width="33.4536" height="9.36443" fill="white" transform="translate(22.5584 7.31778)"/>
</clipPath>
</defs>
</svg>
