<?xml version="1.0" encoding="UTF-8"?>
<svg xmlns="http://www.w3.org/2000/svg" xmlns:xlink="http://www.w3.org/1999/xlink" width="16px" height="16px" viewBox="0 0 16 15" version="1.1">
<g id="surface1">
<path style=" stroke:none;fill-rule:evenodd;fill:rgb(38.039216%,36.862745%,100%);fill-opacity:1;" d="M 5.53125 1.820312 C 7.230469 0.015625 10.042969 -0.511719 12.355469 0.527344 C 15.425781 1.910156 16.546875 5.433594 14.875 8.152344 L 11.113281 14.257812 C 10.902344 14.597656 10.554688 14.847656 10.148438 14.949219 C 9.742188 15.050781 9.3125 15 8.945312 14.800781 L 13.503906 7.40625 C 14.71875 5.4375 13.90625 2.878906 11.679688 1.871094 C 10.007812 1.117188 7.960938 1.496094 6.726562 2.792969 C 6.046875 3.507812 5.664062 4.425781 5.652344 5.382812 C 5.640625 6.339844 5.996094 7.269531 6.660156 8 C 6.777344 8.128906 6.90625 8.253906 7.042969 8.367188 L 4.382812 12.691406 C 4.277344 12.863281 4.140625 13.007812 3.972656 13.128906 C 3.808594 13.246094 3.621094 13.335938 3.417969 13.386719 C 3.21875 13.4375 3.007812 13.449219 2.804688 13.421875 C 2.597656 13.398438 2.398438 13.335938 2.21875 13.238281 L 5.105469 8.542969 C 4.691406 7.980469 4.390625 7.351562 4.226562 6.6875 L 2.457031 9.570312 C 2.246094 9.910156 1.902344 10.160156 1.496094 10.261719 C 1.089844 10.363281 0.65625 10.308594 0.292969 10.113281 L 4.871094 2.679688 C 5.058594 2.375 5.28125 2.085938 5.53125 1.820312 Z M 10.8125 4.1875 C 11.914062 4.785156 12.292969 6.109375 11.65625 7.144531 L 7.269531 14.257812 C 7.058594 14.597656 6.710938 14.847656 6.304688 14.949219 C 5.898438 15.050781 5.46875 14.996094 5.105469 14.800781 L 9.179688 8.179688 C 8.851562 8.113281 8.542969 7.984375 8.273438 7.796875 C 8.007812 7.609375 7.785156 7.371094 7.625 7.097656 C 7.464844 6.820312 7.371094 6.515625 7.351562 6.203125 C 7.328125 5.890625 7.378906 5.578125 7.5 5.285156 C 7.617188 4.992188 7.804688 4.726562 8.042969 4.507812 C 8.28125 4.289062 8.570312 4.121094 8.882812 4.019531 C 9.199219 3.914062 9.535156 3.875 9.867188 3.902344 C 10.199219 3.933594 10.523438 4.03125 10.8125 4.1875 Z M 9.214844 5.523438 C 9.140625 5.578125 9.078125 5.644531 9.027344 5.722656 C 8.957031 5.839844 8.925781 5.972656 8.933594 6.105469 C 8.941406 6.242188 8.996094 6.367188 9.082031 6.476562 C 9.167969 6.582031 9.289062 6.660156 9.421875 6.703125 C 9.558594 6.75 9.703125 6.753906 9.84375 6.71875 C 9.980469 6.683594 10.105469 6.609375 10.199219 6.507812 C 10.292969 6.410156 10.355469 6.285156 10.375 6.152344 C 10.390625 6.015625 10.367188 5.882812 10.304688 5.761719 C 10.242188 5.640625 10.140625 5.539062 10.019531 5.472656 C 9.9375 5.429688 9.84375 5.398438 9.75 5.386719 C 9.65625 5.375 9.558594 5.382812 9.46875 5.40625 C 9.375 5.429688 9.289062 5.46875 9.214844 5.523438 Z M 9.214844 5.523438 "/>
</g>
</svg>
