<svg width="20" height="20" viewBox="0 0 20 20" fill="none" xmlns="http://www.w3.org/2000/svg">
    <path
        d="M3.20825 17.7917C2.65597 17.7917 2.20825 17.344 2.20825 16.7917V3.1875C2.20825 2.63522 2.65597 2.1875 3.20825 2.1875H16.8124C17.3647 2.1875 17.8124 2.63522 17.8124 3.1875V16.7917C17.8124 17.344 17.3647 17.7917 16.8124 17.7917H3.20825ZM3.85409 6.9375H16.1458V3.85417H3.85409V6.9375ZM8.37492 11.5417H11.6249V8.1875H8.37492V11.5417ZM8.37492 16.1458H11.6249V12.7917H8.37492V16.1458ZM3.85409 11.5417H7.12492V8.1875H3.85409V11.5417ZM12.8749 11.5417H16.1458V8.1875H12.8749V11.5417ZM3.85409 16.1458H7.12492V12.7917H3.85409V16.1458ZM12.8749 16.1458H16.1458V12.7917H12.8749V16.1458Z"
        fill="black" />
</svg>