<svg width="16" height="16" viewBox="0 0 16 16" fill="none" xmlns="http://www.w3.org/2000/svg">
    <path
        d="M2.98755 15.0125C1.88298 15.0125 0.987549 14.1171 0.987549 13.0125V2.96875C0.987549 1.86418 1.88298 0.96875 2.98755 0.96875H13.0313C14.1359 0.96875 15.0313 1.86418 15.0313 2.96875V13.0125C15.0313 14.1171 14.1359 15.0125 13.0313 15.0125H2.98755ZM2.4688 5.24375H13.5313V2.46875H2.4688V5.24375ZM6.53755 9.3875H9.46255V6.36875H6.53755V9.3875ZM6.53755 13.5312H9.46255V10.5125H6.53755V13.5312ZM2.4688 9.3875H5.41255V6.36875H2.4688V9.3875ZM10.5875 9.3875H13.5313V6.36875H10.5875V9.3875ZM2.4688 13.5312H5.41255V10.5125H2.4688V13.5312ZM10.5875 13.5312H13.5313V10.5125H10.5875V13.5312Z"
        fill="black" />
</svg>