<svg width="16" height="16" viewBox="0 0 16 16" fill="none" xmlns="http://www.w3.org/2000/svg">
<path d="M11.8569 3.37221C10.9439 2.6123 9.81224 2.11481 8.5603 2V3.09886C9.50609 3.20273 10.3699 3.57995 11.0806 4.14852L11.8569 3.37221Z" fill="black"/>
<path d="M7.46687 3.09886V2C6.21494 2.10934 5.08327 2.6123 4.17029 3.37221L4.9466 4.14852C5.6573 3.57995 6.52109 3.20273 7.46687 3.09886Z" fill="black"/>
<path d="M4.17586 4.91938L3.39955 4.14307C2.63964 5.05605 2.14215 6.18771 2.02734 7.43965H3.1262C3.23008 6.49386 3.6073 5.63008 4.17586 4.91938Z" fill="black"/>
<path d="M12.9012 7.43965H14.0001C13.8853 6.18771 13.3878 5.05605 12.6279 4.14307L11.8516 4.91938C12.4201 5.63008 12.7973 6.49386 12.9012 7.43965Z" fill="black"/>
<path d="M5.28027 7.98629L7.16091 8.83914L8.01376 10.7198L8.86661 8.83914L10.7472 7.98629L8.86661 7.13345L8.01376 5.25281L7.16091 7.13345L5.28027 7.98629Z" fill="black"/>
<path d="M8.01367 12.9066C6.31344 12.9066 4.81549 12.0373 3.93531 10.7198H5.28018V9.62638H2V12.9066H3.09339V11.4305C4.18132 12.9831 5.97449 14 8.01367 14C10.6761 14 12.9339 12.2669 13.7212 9.86692L12.6497 9.62091C11.9772 11.5289 10.1567 12.9066 8.01367 12.9066Z" fill="black"/>
</svg>
