<svg width="20" height="20" viewBox="0 0 20 20" fill="none" xmlns="http://www.w3.org/2000/svg">
<path d="M9.99992 16.8748C9.33325 16.3609 8.61103 15.9512 7.83325 15.6457C7.05547 15.3401 6.24992 15.1873 5.41659 15.1873C4.84714 15.1873 4.28464 15.2637 3.72909 15.4165C3.17353 15.5693 2.63881 15.7846 2.12492 16.0623C1.80547 16.229 1.4895 16.2186 1.177 16.0311C0.864502 15.8436 0.708252 15.5762 0.708252 15.229V5.18734C0.708252 4.99289 0.753391 4.81234 0.843669 4.64567C0.933946 4.479 1.06936 4.354 1.24992 4.27067C1.9027 3.95123 2.57631 3.70817 3.27075 3.5415C3.9652 3.37484 4.68047 3.2915 5.41659 3.2915C6.22214 3.2915 7.01033 3.39567 7.78117 3.604C8.552 3.81234 9.29158 4.13178 9.99992 4.56234V15.229C10.7083 14.7707 11.4513 14.4234 12.2291 14.1873C13.0069 13.9512 13.7916 13.8332 14.5833 13.8332C15.0833 13.8332 15.6284 13.8818 16.2187 13.979C16.8089 14.0762 17.3749 14.2776 17.9166 14.5832V3.9165C18.0555 3.97206 18.1944 4.02761 18.3333 4.08317C18.4721 4.13873 18.611 4.20123 18.7499 4.27067C18.9166 4.36789 19.0485 4.49984 19.1458 4.6665C19.243 4.83317 19.2916 5.00678 19.2916 5.18734V15.2707C19.2916 15.6179 19.1353 15.8783 18.8228 16.0519C18.5103 16.2255 18.1944 16.229 17.8749 16.0623C17.361 15.7846 16.8263 15.5693 16.2708 15.4165C15.7152 15.2637 15.1527 15.1873 14.5833 15.1873C13.7499 15.1873 12.9444 15.3401 12.1666 15.6457C11.3888 15.9512 10.6666 16.3609 9.99992 16.8748ZM11.2499 13.2915V5.81234L16.6666 0.354004V8.5415L11.2499 13.2915ZM8.62492 14.5415V5.39567C8.18047 5.14567 7.65617 4.96164 7.052 4.84359C6.44783 4.72553 5.9027 4.6665 5.41659 4.6665C4.76381 4.6665 4.15617 4.73248 3.59367 4.86442C3.03117 4.99636 2.5277 5.1665 2.08325 5.37484V14.5832C2.56936 14.3471 3.09367 14.163 3.65617 14.0311C4.21867 13.8991 4.81242 13.8332 5.43742 13.8332C6.03464 13.8332 6.60061 13.8957 7.13534 14.0207C7.67006 14.1457 8.16658 14.3193 8.62492 14.5415ZM8.62492 14.5415V5.39567V14.5415Z" fill="#09086E"/>
</svg>
