<svg width="16" height="16" viewBox="0 0 16 16" fill="none" xmlns="http://www.w3.org/2000/svg">
    <path fill-rule="evenodd" clip-rule="evenodd" d="M1 11L1 15L7 15L7 11L1 11Z" fill="none" />
    <path fill-rule="evenodd" clip-rule="evenodd" d="M6 12L2 12L2 14L6 14L6 12ZM1 11L7 11L7 15L1 15L1 11Z"
        fill="black" />
    <path fill-rule="evenodd" clip-rule="evenodd" d="M9 11L9 15L15 15L15 11L9 11Z" fill="none" />
    <path fill-rule="evenodd" clip-rule="evenodd" d="M14 12L10 12L10 14L14 14L14 12ZM9 11L15 11L15 15L9 15L9 11Z"
        fill="black" />
    <path fill-rule="evenodd" clip-rule="evenodd"
        d="M1 1V5L4.06573 5L5 6.40141L5 10L11 10V6.40141L11.9343 5L15 5V1H9L9 5L10.7324 5L10.0658 6L5.93424 6L5.26758 5L7 5L7 1H1Z"
        fill="#171615" />
</svg>