<svg xmlns="http://www.w3.org/2000/svg" width="39" height="51"><g transform="translate(-1638 -2281)"><use xlinkHref="#A" fill="#767677" x="1669.3" y="2281.31"/><g fill="#f37726"><use xlinkHref="#B" x="1639.74" y="2311.98"/><use xlinkHref="#C" x="1639.73" y="2285.48"/></g><use xlinkHref="#D" fill="#989798" x="1639.8" y="2323.81"/><use xlinkHref="#E" fill="#6f7070" x="1638.36" y="2286.06"/></g><defs><path id="A" d="M5.894 2.844c.025.588-.123 1.17-.425 1.672s-.746.904-1.275 1.152-1.119.333-1.695.243a2.94 2.94 0 0 1-1.543-.748 2.98 2.98 0 0 1-.871-1.486c-.138-.571-.105-1.171.095-1.724A2.97 2.97 0 0 1 1.208.574 2.93 2.93 0 0 1 2.823.003c.781-.033 1.542.247 2.118.78s.918 1.274.952 2.061z"/><path id="B" d="M18.265 7.134C10.415 7.134 3.559 4.258 0 0c1.325 3.82 3.796 7.131 7.069 9.473s7.187 3.6 11.2 3.6 7.927-1.258 11.2-3.6S35.213 3.82 36.538 0c-3.567 4.258-10.423 7.134-18.273 7.134z"/><path id="C" d="M18.273 5.939c7.85 0 14.706 2.877 18.265 7.134-1.325-3.82-3.796-7.131-7.069-9.473S22.282 0 18.269 0s-7.927 1.258-11.2 3.6S1.325 9.253 0 13.073c3.567-4.249 10.423-7.134 18.273-7.134z"/><path id="D" d="M7.428 3.583a3.77 3.77 0 0 1-.536 2.109c-.382.634-.941 1.139-1.608 1.452s-1.41.42-2.137.306-1.404-.442-1.945-.944S.279 5.353.105 4.632a3.78 3.78 0 0 1 .122-2.173C.48 1.762.932 1.157 1.526.72S2.829.033 3.564.003c.983-.041 1.941.314 2.666.985a3.76 3.76 0 0 1 1.198 2.596h0z"/><path id="E" d="M2.275 4.396c-.431.019-.858-.092-1.227-.318s-.663-.557-.845-.952-.244-.835-.178-1.265.257-.831.549-1.151.672-.546 1.091-.649.859-.078 1.265.072.757.417 1.011.769a2.21 2.21 0 0 1-.156 2.784c-.391.429-.934.684-1.511.709h0z"/></defs></svg>