<svg width="16" height="16" viewBox="0 0 16 16" fill="none" xmlns="http://www.w3.org/2000/svg">
<path fill-rule="evenodd" clip-rule="evenodd" d="M9.30287 0.361207C9.48831 0.701924 9.37097 1.13325 9.04077 1.32461L1.37149 5.7691V14.0832L5.06446 11.9422C5.39463 11.7508 5.81266 11.8718 5.99816 12.2125C6.18366 12.5532 6.06639 12.9846 5.73623 13.176L1.02166 15.9092C0.809328 16.0323 0.549653 16.03 0.339451 15.9031C0.129248 15.7761 6.44151e-05 15.5437 6.44151e-05 15.2924V5.35497C6.44151e-05 5.09918 0.133858 4.8633 0.349996 4.73805L8.36921 0.0907631C8.69941 -0.100592 9.11742 0.0204903 9.30287 0.361207Z" fill="#00A8A8"/>
<path fill-rule="evenodd" clip-rule="evenodd" d="M0.297674 4.77164C0.609887 4.55047 1.03674 4.63234 1.25109 4.9545L7.86272 14.8919C8.07707 15.2141 7.99773 15.6545 7.68551 15.8757C7.3733 16.0969 6.94644 16.015 6.7321 15.6928L0.120464 5.75544C-0.0938785 5.43328 -0.0145389 4.99282 0.297674 4.77164Z" fill="#00A8A8"/>
<path fill-rule="evenodd" clip-rule="evenodd" d="M8.31955 0.124141C8.63188 -0.0968533 9.05869 -0.0147424 9.27286 0.307541L11.0716 3.01423C11.2857 3.33651 11.2062 3.77692 10.8938 3.99792C10.5815 4.21891 10.1547 4.1368 9.94051 3.81452L8.14181 1.10783C7.92764 0.785548 8.00721 0.345135 8.31955 0.124141Z" fill="#00A8A8"/>
<path fill-rule="evenodd" clip-rule="evenodd" d="M15.6606 0.09701C15.8708 0.223938 16 0.456383 16 0.707686V10.6427C16 10.8984 15.8663 11.1342 15.6503 11.2595L7.6334 15.9092C7.42107 16.0323 7.16137 16.03 6.95114 15.9031C6.74091 15.7762 6.6117 15.5437 6.6117 15.2924V5.35497C6.6117 5.09921 6.74546 4.86336 6.96156 4.73809L14.9784 0.0908062C15.1908 -0.0322789 15.4504 -0.0299175 15.6606 0.09701ZM7.98312 5.76904V14.083L14.6286 10.2287V1.91675L7.98312 5.76904Z" fill="#00A8A8"/>
</svg>
