<svg width="12" height="12" viewBox="0 0 12 12" fill="none" xmlns="http://www.w3.org/2000/svg">
<path fill-rule="evenodd" clip-rule="evenodd" d="M7.01729 0.298076C7.17037 0.579244 7.0735 0.935186 6.80094 1.0931L1.13212 4.37729V10.4182L3.7914 8.877C4.06394 8.71904 4.40901 8.8189 4.56214 9.10004C4.71526 9.38118 4.61846 9.73714 4.34592 9.8951L0.843349 11.9251C0.668077 12.0267 0.453723 12.0247 0.280207 11.92C0.106691 11.8153 5.31698e-05 11.6234 5.31698e-05 11.4161V4.03554C5.31698e-05 3.82445 0.110496 3.6298 0.288912 3.52644L6.24658 0.0748997C6.51915 -0.0830105 6.86421 0.0169091 7.01729 0.298076Z" fill="#00A8A8"/>
<path fill-rule="evenodd" clip-rule="evenodd" d="M0.245721 3.55416C0.503444 3.37165 0.855803 3.43921 1.03274 3.70506L5.94468 11.0856C6.12162 11.3514 6.05612 11.7149 5.7984 11.8974C5.54068 12.0799 5.18832 12.0124 5.01139 11.7465L0.0994398 4.36601C-0.077494 4.10016 -0.0120015 3.73668 0.245721 3.55416Z" fill="#00A8A8"/>
<path fill-rule="evenodd" clip-rule="evenodd" d="M6.20539 0.102444C6.46321 -0.0799255 6.81553 -0.0121658 6.99232 0.253789L8.32862 2.26405C8.50542 2.53 8.43973 2.89344 8.18191 3.07581C7.92409 3.25818 7.57176 3.19042 7.39497 2.92446L6.05867 0.914207C5.88188 0.648252 5.94757 0.284813 6.20539 0.102444Z" fill="#00A8A8"/>
<path fill-rule="evenodd" clip-rule="evenodd" d="M11.7199 0.0800548C11.8934 0.184798 12 0.376618 12 0.583998V7.96272C12 8.17373 11.8896 8.36832 11.7113 8.47172L5.75538 11.9251C5.58011 12.0267 5.36574 12.0248 5.1922 11.92C5.01866 11.8153 4.912 11.6235 4.912 11.4161V4.03554C4.912 3.82448 5.02241 3.62985 5.2008 3.52647L11.1567 0.0749354C11.332 -0.0266373 11.5463 -0.0246886 11.7199 0.0800548ZM6.04407 4.37724V10.418L10.8679 7.6211V1.58175L6.04407 4.37724Z" fill="#00A8A8"/>
</svg>
