<?xml version="1.0" encoding="UTF-8"?> <svg xmlns="http://www.w3.org/2000/svg" width="170" height="43" viewBox="0 0 170 43" fill="none"><path d="M86.4655 17.5454C85.4092 16.9293 84.2356 16.6359 82.9153 16.6359C81.595 16.6359 80.392 16.9293 79.3651 17.5454C78.3088 18.1616 77.4873 18.9831 76.9005 20.0687C76.2844 21.1249 75.991 22.3572 75.991 23.7069C75.991 25.0859 76.2844 26.2888 76.9005 27.3451C77.5167 28.4013 78.3382 29.2522 79.3651 29.8683C80.4213 30.4845 81.595 30.7779 82.9153 30.7779C84.2356 30.7779 85.4092 30.4845 86.4655 29.8683C87.5217 29.2522 88.3432 28.4307 88.93 27.3451C89.5462 26.2888 89.8396 25.0565 89.8396 23.7069C89.8396 22.3279 89.5462 21.1249 88.93 20.0687C88.3139 18.9831 87.4924 18.1322 86.4655 17.5454ZM86.6122 26.0541C86.2601 26.7583 85.7613 27.3157 85.1158 27.7265C84.4703 28.1373 83.7368 28.3426 82.9446 28.3426C82.1524 28.3426 81.3896 28.1373 80.7441 27.7265C80.0986 27.3157 79.5998 26.7583 79.2184 26.0541C78.8663 25.3499 78.6903 24.5578 78.6903 23.6775C78.6609 22.7973 78.837 22.0051 79.2184 21.301C79.5705 20.5968 80.0986 20.0394 80.7441 19.6286C81.3896 19.2178 82.1231 19.0124 82.9446 19.0124C83.7661 19.0124 84.4703 19.2178 85.1158 19.5992C85.7613 20.01 86.2601 20.5381 86.6122 21.2423C86.9642 21.9465 87.1403 22.7387 87.1403 23.6482C87.1403 24.5578 86.9642 25.3499 86.6122 26.0541Z" fill="black"></path><path d="M69.5949 18.3082C69.5949 19.0711 69.5949 19.8046 69.6243 20.5087C69.6536 21.2129 69.6536 21.8877 69.6829 22.5332C69.7123 23.1787 69.7416 23.7949 69.8003 24.3817C69.8296 24.9685 69.8883 25.4966 69.947 26.0247C69.9763 26.1714 69.9763 26.3181 70.0057 26.4648L59.4725 12.3521H56.9199V30.5138H59.7072V22.9733C59.7072 22.8266 59.7072 22.6506 59.7072 22.4159C59.7072 22.2105 59.6779 21.9464 59.6779 21.6237C59.6486 21.3009 59.6192 20.8902 59.5899 20.3914C59.5605 19.8926 59.5019 19.2471 59.4432 18.5136C59.3845 17.9855 59.3552 17.3693 59.2965 16.6652L69.859 30.5138H72.4116V12.3521H69.6243V18.3082H69.5949Z" fill="black"></path><path d="M97.087 12.3521H94.417V16.8999H91.6003V19.4818H94.417V30.5138H97.087V19.4818H100.256V16.8999H97.087V12.3521Z" fill="black"></path><path d="M169 23.1787C169.03 22.2398 168.883 21.3596 168.56 20.538C168.267 19.7459 167.827 19.0417 167.269 18.4549C166.712 17.8681 166.037 17.3986 165.274 17.0759C164.511 16.7531 163.69 16.5771 162.81 16.5771C161.812 16.5771 160.873 16.7531 160.022 17.1052C159.171 17.4573 158.438 17.9561 157.822 18.6016C157.206 19.2471 156.736 20.0099 156.384 20.8901C156.032 21.7703 155.856 22.7386 155.856 23.8242C155.856 25.1738 156.149 26.3768 156.765 27.4037C157.382 28.4306 158.233 29.2521 159.318 29.8389C160.404 30.4257 161.636 30.7191 163.044 30.7191C163.69 30.7191 164.335 30.6311 165.01 30.4551C165.685 30.279 166.301 30.015 166.888 29.7215C167.475 29.4281 168.003 29.0467 168.414 28.636L167.064 26.7582C166.389 27.345 165.773 27.7557 165.186 27.9905C164.599 28.2252 163.983 28.3132 163.308 28.3132C162.369 28.3132 161.519 28.1372 160.785 27.7557C160.052 27.3743 159.494 26.8462 159.113 26.142C158.819 25.6139 158.614 25.0271 158.555 24.3523H168.971L169 23.1787ZM166.272 22.2104H158.673C158.761 21.829 158.878 21.4476 159.025 21.1248C159.347 20.45 159.846 19.9219 160.462 19.5698C161.108 19.2177 161.9 19.0417 162.81 19.0417C163.396 19.0417 163.954 19.159 164.453 19.4231C164.951 19.6872 165.362 20.0393 165.685 20.4794C166.008 20.9195 166.213 21.4476 166.242 22.0051V22.2104H166.272Z" fill="black"></path><path d="M153.185 12.3521H150.515V30.4844H153.185V12.3521Z" fill="black"></path><path d="M127.718 18.983C127.454 18.5429 127.102 18.1321 126.692 17.7801C126.251 17.3986 125.723 17.1052 125.137 16.8998C124.55 16.6945 123.904 16.5771 123.2 16.5771C121.997 16.5771 120.941 16.8705 119.973 17.4867C119.004 18.1028 118.242 18.9243 117.684 19.9806C117.127 21.0368 116.833 22.2691 116.833 23.6188C116.833 24.9684 117.097 26.1714 117.655 27.257C118.212 28.3426 118.946 29.1641 119.885 29.8096C120.794 30.4257 121.821 30.7485 122.965 30.7485C123.611 30.7485 124.256 30.6311 124.843 30.4257C125.43 30.2203 125.987 29.9563 126.486 29.6042C126.985 29.2521 127.396 28.8707 127.718 28.4306C127.718 28.4306 127.718 28.4306 127.718 28.4012V30.4844H130.418V16.8998H127.718V18.983ZM127.308 26.054C126.956 26.7582 126.457 27.3156 125.841 27.6971C125.225 28.1078 124.491 28.2839 123.699 28.2839C122.907 28.2839 122.203 28.0785 121.586 27.6971C120.97 27.2863 120.501 26.7582 120.149 26.054C119.797 25.3498 119.621 24.5577 119.621 23.6481C119.621 22.7679 119.797 21.9757 120.149 21.3009C120.501 20.5967 121 20.0686 121.586 19.6578C122.203 19.2471 122.907 19.071 123.699 19.071C124.52 19.071 125.225 19.2764 125.841 19.6578C126.457 20.0686 126.956 20.5967 127.308 21.3009C127.66 22.0051 127.836 22.7679 127.836 23.6481C127.836 24.5577 127.66 25.3498 127.308 26.054Z" fill="black"></path><path d="M144.501 17.516C143.562 16.8999 142.477 16.6065 141.244 16.6065C140.687 16.6065 140.159 16.6945 139.601 16.8705C139.073 17.0466 138.574 17.2813 138.105 17.6041C137.635 17.8975 137.283 18.2495 136.99 18.6016C136.931 18.6603 136.873 18.7483 136.843 18.807V12.3521H134.173V30.4258H136.843V28.6947C137.166 29.0761 137.547 29.3988 137.988 29.7216C138.457 30.0443 138.985 30.3084 139.572 30.4844C140.159 30.6605 140.746 30.7778 141.332 30.7778C142.535 30.7778 143.592 30.4844 144.56 29.8683C145.499 29.2521 146.262 28.4013 146.79 27.345C147.347 26.2594 147.611 25.0565 147.611 23.6775C147.611 22.3278 147.347 21.0955 146.79 20.0393C146.203 18.9537 145.44 18.1322 144.501 17.516ZM144.472 26.0541C144.12 26.7582 143.621 27.3157 143.005 27.7264C142.389 28.1372 141.684 28.3426 140.892 28.3426C140.071 28.3426 139.367 28.1372 138.75 27.7264C138.134 27.3157 137.635 26.7582 137.283 26.0541C136.931 25.3499 136.726 24.5577 136.726 23.6481C136.726 22.7679 136.902 21.9758 137.283 21.2716C137.635 20.5674 138.134 20.01 138.75 19.6285C139.367 19.2178 140.1 19.0417 140.892 19.0417C141.714 19.0417 142.418 19.2471 143.034 19.6285C143.65 20.0393 144.149 20.5674 144.501 21.2716C144.853 21.9758 145.029 22.7679 145.029 23.6481C145 24.5577 144.824 25.3499 144.472 26.0541Z" fill="black"></path><path d="M113.106 18.4842C112.549 17.8974 111.874 17.4279 111.111 17.1052C110.348 16.7824 109.526 16.6064 108.646 16.6064C107.649 16.6064 106.71 16.7824 105.859 17.1345C105.008 17.4866 104.275 17.9854 103.658 18.6309C103.042 19.2764 102.573 20.0392 102.221 20.9194C101.869 21.7996 101.693 22.7679 101.693 23.8534C101.693 25.2031 101.986 26.4061 102.602 27.433C103.218 28.4599 104.069 29.2814 105.155 29.8682C106.24 30.455 107.473 30.7484 108.881 30.7484C109.526 30.7484 110.172 30.6604 110.847 30.4844C111.522 30.3083 112.138 30.0442 112.725 29.7508C113.311 29.4281 113.839 29.076 114.25 28.6653L112.901 26.7875C112.226 27.3743 111.61 27.785 111.023 28.0198C110.436 28.2545 109.82 28.3425 109.145 28.3425C108.206 28.3425 107.355 28.1665 106.622 27.785C105.888 27.4036 105.331 26.8755 104.949 26.1713C104.656 25.6432 104.451 25.0564 104.392 24.3816H114.808L114.837 23.2373C114.866 22.2984 114.72 21.4182 114.397 20.5967C114.104 19.7458 113.693 19.071 113.106 18.4842ZM112.108 22.2104H104.509C104.597 21.829 104.715 21.4475 104.861 21.1248C105.184 20.45 105.683 19.9219 106.299 19.5698C106.945 19.2177 107.737 19.0416 108.646 19.0416C109.233 19.0416 109.791 19.159 110.289 19.4231C110.788 19.6871 111.199 20.0392 111.522 20.4793C111.844 20.9194 112.05 21.4475 112.079 22.005V22.2104H112.108Z" fill="black"></path><path d="M42.1913 1.02696C41.8392 0.821579 41.4285 0.821579 41.0764 1.02696L28.7535 7.95127L24.2351 1.37904C24.2057 1.3497 24.1764 1.32036 24.1764 1.29102L24.1471 1.26168C24.1177 1.203 24.059 1.17366 24.0297 1.14432L24.0003 1.11498C23.971 1.08564 23.9123 1.0563 23.8536 1.02696C23.8243 1.02696 23.8243 0.997621 23.795 0.997621C23.7656 0.968281 23.7069 0.968281 23.6776 0.93894C23.6483 0.93894 23.6189 0.9096 23.5896 0.9096C23.5602 0.9096 23.5309 0.9096 23.4722 0.88026C23.4429 0.88026 23.3842 0.88026 23.3549 0.88026C23.3255 0.88026 23.2962 0.88026 23.2668 0.88026C23.2082 0.88026 23.1788 0.88026 23.1201 0.9096C23.0908 0.9096 23.0908 0.9096 23.0615 0.9096C23.0028 0.9096 22.9734 0.93894 22.9148 0.968281C22.8854 0.968281 22.8854 0.968281 22.8561 0.997621C22.8267 0.997621 22.7974 1.02696 22.7681 1.02696L0.557465 13.4966C0.528125 13.4966 0.528125 13.5259 0.498785 13.5259H0.469444C0.410764 13.5553 0.352083 13.6139 0.322743 13.6433L0.293403 13.6726C0.264063 13.702 0.234722 13.7606 0.205382 13.79L0.176042 13.8193C0.146701 13.878 0.117361 13.9367 0.0880208 13.9954V14.0247C0.0586806 14.0834 0.0586806 14.1127 0.0586806 14.1714C0.0586806 14.2007 0.0586806 14.2007 0.0586806 14.2301C0 14.3474 0 14.4061 0 14.4648V41.1058C0 41.4872 0.205382 41.8686 0.557465 42.074C0.733507 42.162 0.938889 42.2207 1.11493 42.2207C1.29097 42.2207 1.49635 42.162 1.6724 42.074L13.9953 35.1497L18.4844 41.7513C18.4844 41.7513 18.4844 41.7513 18.5137 41.7806C18.5137 41.8099 18.5431 41.8099 18.5431 41.8393C18.5724 41.8686 18.5724 41.8686 18.6017 41.898L18.6311 41.9273C18.6604 41.9566 18.6604 41.9566 18.6898 41.986L18.7191 42.0153C18.7484 42.0447 18.7778 42.0447 18.8071 42.074C18.8071 42.074 18.8365 42.074 18.8365 42.1034C18.8365 42.1034 18.8365 42.1034 18.8658 42.1034C18.8951 42.1327 18.9245 42.1327 18.9538 42.1327C18.9832 42.1327 18.9832 42.1327 19.0125 42.162C19.0418 42.162 19.0712 42.1914 19.1005 42.1914C19.1299 42.1914 19.1299 42.1914 19.1592 42.2207C19.1885 42.2207 19.2179 42.2207 19.2472 42.2501H19.2766C19.3352 42.2501 19.3646 42.2501 19.4233 42.2501C19.4233 42.2501 19.4233 42.2501 19.4526 42.2501C19.4819 42.2501 19.5406 42.2501 19.57 42.2501C19.5993 42.2501 19.5993 42.2501 19.6286 42.2501C19.658 42.2501 19.6873 42.25 19.7167 42.2207C19.746 42.2207 19.746 42.2207 19.7753 42.1914C19.8047 42.1914 19.834 42.162 19.8634 42.162C19.8927 42.162 19.8927 42.1327 19.9221 42.1327C19.9221 42.1327 19.9514 42.1327 19.9514 42.1034L42.162 29.6337C42.5141 29.4284 42.7194 29.0763 42.7194 28.6655V1.99519C42.7194 1.58443 42.5141 1.23234 42.1913 1.02696ZM2.22986 39.228V18.0443L12.7043 33.3306L2.22986 39.228ZM18.8658 13.4966C18.5137 13.702 18.3083 14.054 18.3083 14.4648V37.5263L2.72865 14.8462L22.9734 3.4622L26.7877 9.03686L18.8658 13.4966ZM40.5189 27.9907L20.5382 39.228V15.1103L40.5189 3.90231V27.9907Z" fill="#00D2D2"></path></svg> 