<svg width="67" height="24" viewBox="0 0 67 24" fill="none" xmlns="http://www.w3.org/2000/svg">
<rect x="-0.000732422" width="67" height="24" rx="8" fill="#00D2D2" fill-opacity="0.1"/>
<g clip-path="url(#clip0_1_112)">
<path d="M33.9389 10.8044C33.622 10.6182 33.27 10.5295 32.8739 10.5295C32.4778 10.5295 32.1169 10.6182 31.8088 10.8044C31.4919 10.9907 31.2455 11.2391 31.0694 11.5673C30.8846 11.8866 30.7966 12.2592 30.7966 12.6672C30.7966 13.0841 30.8846 13.4478 31.0694 13.7671C31.2543 14.0864 31.5007 14.3437 31.8088 14.53C32.1257 14.7162 32.4778 14.8049 32.8739 14.8049C33.27 14.8049 33.622 14.7162 33.9389 14.53C34.2558 14.3437 34.5022 14.0953 34.6783 13.7671C34.8631 13.4478 34.9512 13.0752 34.9512 12.6672C34.9512 12.2503 34.8631 11.8866 34.6783 11.5673C34.4934 11.2391 34.247 10.9818 33.9389 10.8044ZM33.9829 13.3768C33.8773 13.5897 33.7277 13.7582 33.534 13.8824C33.3404 14.0066 33.1203 14.0687 32.8827 14.0687C32.645 14.0687 32.4162 14.0066 32.2225 13.8824C32.0289 13.7582 31.8792 13.5897 31.7648 13.3768C31.6592 13.1639 31.6064 12.9245 31.6064 12.6583C31.5975 12.3922 31.6504 12.1527 31.7648 11.9398C31.8704 11.7269 32.0289 11.5584 32.2225 11.4342C32.4162 11.31 32.6362 11.2479 32.8827 11.2479C33.1291 11.2479 33.3404 11.31 33.534 11.4253C33.7277 11.5495 33.8773 11.7092 33.9829 11.9221C34.0885 12.135 34.1414 12.3745 34.1414 12.6495C34.1414 12.9245 34.0885 13.1639 33.9829 13.3768Z" fill="black"/>
<path d="M28.8777 11.035C28.8777 11.2657 28.8777 11.4874 28.8866 11.7003C28.8954 11.9132 28.8954 12.1172 28.9041 12.3124C28.913 12.5075 28.9218 12.6938 28.9394 12.8712C28.9482 13.0486 28.9658 13.2083 28.9834 13.3679C28.9922 13.4123 28.9922 13.4566 29.001 13.501L25.841 9.23436H25.0752V14.7251H25.9114V12.4454C25.9114 12.4011 25.9114 12.3479 25.9114 12.2769C25.9114 12.2148 25.9026 12.135 25.9026 12.0374C25.8939 11.9398 25.885 11.8156 25.8762 11.6648C25.8674 11.514 25.8498 11.3189 25.8322 11.0971C25.8146 10.9375 25.8058 10.7512 25.7882 10.5383L28.957 14.7251H29.7228V9.23436H28.8866V11.035H28.8777Z" fill="black"/>
<path d="M37.1254 9.23436H36.3244V10.6093H35.4794V11.3898H36.3244V14.7251H37.1254V11.3898H38.0761V10.6093H37.1254V9.23436Z" fill="black"/>
<path d="M58.6993 12.5075C58.7083 12.2237 58.6642 11.9576 58.5673 11.7092C58.4794 11.4697 58.3474 11.2568 58.18 11.0794C58.0129 10.902 57.8104 10.76 57.5815 10.6625C57.3526 10.5649 57.1063 10.5117 56.8423 10.5117C56.5429 10.5117 56.2612 10.5649 56.0059 10.6713C55.7506 10.7778 55.5307 10.9286 55.3459 11.1237C55.1611 11.3189 55.0201 11.5495 54.9145 11.8156C54.8089 12.0817 54.7561 12.3745 54.7561 12.7027C54.7561 13.1107 54.844 13.4744 55.0288 13.7848C55.2139 14.0953 55.4692 14.3437 55.7947 14.5211C56.1205 14.6985 56.4901 14.7872 56.9125 14.7872C57.1063 14.7872 57.2998 14.7606 57.5023 14.7074C57.7048 14.6541 57.8896 14.5743 58.0657 14.4856C58.2418 14.3969 58.4002 14.2816 58.5235 14.1574L58.1185 13.5897C57.916 13.7671 57.7312 13.8913 57.5551 13.9622C57.379 14.0332 57.1942 14.0598 56.9917 14.0598C56.71 14.0598 56.455 14.0066 56.2348 13.8913C56.0149 13.776 55.8475 13.6163 55.7332 13.4034C55.645 13.2437 55.5835 13.0663 55.5658 12.8623H58.6906L58.6993 12.5075ZM57.8809 12.2148H55.6012C55.6276 12.0995 55.6627 11.9842 55.7068 11.8866C55.8034 11.6826 55.9531 11.5229 56.1379 11.4165C56.3317 11.31 56.5693 11.2568 56.8423 11.2568C57.0181 11.2568 57.1855 11.2923 57.3352 11.3721C57.4846 11.4519 57.6079 11.5584 57.7048 11.6914C57.8017 11.8245 57.8632 11.9842 57.8719 12.1527V12.2148H57.8809Z" fill="black"/>
<path d="M53.9548 9.23436H53.1538V14.7162H53.9548V9.23436Z" fill="black"/>
<path d="M46.3147 11.239C46.2355 11.106 46.1299 10.9818 46.0069 10.8754C45.8746 10.76 45.7162 10.6713 45.5404 10.6092C45.3643 10.5472 45.1705 10.5117 44.9593 10.5117C44.5984 10.5117 44.2816 10.6004 43.9912 10.7867C43.7005 10.9729 43.4719 11.2213 43.3045 11.5406C43.1374 11.86 43.0492 12.2325 43.0492 12.6406C43.0492 13.0486 43.1284 13.4123 43.2958 13.7405C43.4629 14.0687 43.6831 14.3171 43.9648 14.5122C44.2375 14.6985 44.5456 14.7961 44.8888 14.7961C45.0826 14.7961 45.2761 14.7606 45.4522 14.6985C45.6283 14.6364 45.7954 14.5566 45.9451 14.4501C46.0948 14.3437 46.2181 14.2284 46.3147 14.0953C46.3147 14.0953 46.3147 14.0953 46.3147 14.0864V14.7162H47.1247V10.6092H46.3147V11.239ZM46.1917 13.3768C46.0861 13.5897 45.9364 13.7582 45.7516 13.8735C45.5668 13.9977 45.3466 14.0509 45.109 14.0509C44.8714 14.0509 44.6602 13.9888 44.4751 13.8735C44.2903 13.7493 44.1496 13.5897 44.044 13.3768C43.9384 13.1639 43.8856 12.9244 43.8856 12.6494C43.8856 12.3833 43.9384 12.1438 44.044 11.9398C44.1496 11.7269 44.2993 11.5673 44.4751 11.4431C44.6602 11.3189 44.8714 11.2657 45.109 11.2657C45.3553 11.2657 45.5668 11.3277 45.7516 11.4431C45.9364 11.5673 46.0861 11.7269 46.1917 11.9398C46.2973 12.1527 46.3501 12.3833 46.3501 12.6494C46.3501 12.9244 46.2973 13.1639 46.1917 13.3768Z" fill="black"/>
<path d="M51.3496 10.7955C51.0679 10.6093 50.7424 10.5206 50.3725 10.5206C50.2054 10.5206 50.047 10.5472 49.8796 10.6004C49.7212 10.6536 49.5715 10.7246 49.4308 10.8222C49.2898 10.9109 49.1842 11.0173 49.0963 11.1237C49.0786 11.1415 49.0612 11.1681 49.0522 11.1858V9.23436H48.2512V14.6985H49.0522V14.1751C49.1491 14.2904 49.2634 14.388 49.3957 14.4856C49.5364 14.5832 49.6948 14.663 49.8709 14.7162C50.047 14.7695 50.2231 14.8049 50.3989 14.8049C50.7598 14.8049 51.0769 14.7162 51.3673 14.53C51.649 14.3437 51.8779 14.0864 52.0363 13.7671C52.2034 13.4389 52.2826 13.0752 52.2826 12.6583C52.2826 12.2503 52.2034 11.8777 52.0363 11.5584C51.8602 11.2302 51.6313 10.9818 51.3496 10.7955ZM51.3409 13.3768C51.2353 13.5897 51.0856 13.7582 50.9008 13.8824C50.716 14.0066 50.5045 14.0687 50.2669 14.0687C50.0206 14.0687 49.8094 14.0066 49.6243 13.8824C49.4395 13.7582 49.2898 13.5897 49.1842 13.3768C49.0786 13.1639 49.0171 12.9244 49.0171 12.6494C49.0171 12.3833 49.0699 12.1438 49.1842 11.9309C49.2898 11.7181 49.4395 11.5495 49.6243 11.4342C49.8094 11.31 50.0293 11.2568 50.2669 11.2568C50.5135 11.2568 50.7247 11.3189 50.9095 11.4342C51.0943 11.5584 51.244 11.7181 51.3496 11.9309C51.4552 12.1438 51.508 12.3833 51.508 12.6494C51.4993 12.9244 51.4465 13.1639 51.3409 13.3768Z" fill="black"/>
<path d="M41.9311 11.0882C41.764 10.9108 41.5615 10.7689 41.3326 10.6713C41.1037 10.5737 40.8571 10.5205 40.5931 10.5205C40.294 10.5205 40.0123 10.5737 39.757 10.6802C39.5017 10.7866 39.2818 10.9374 39.0967 11.1326C38.9119 11.3277 38.7712 11.5584 38.6656 11.8245C38.56 12.0906 38.5072 12.3833 38.5072 12.7115C38.5072 13.1195 38.5951 13.4832 38.7799 13.7937C38.9647 14.1042 39.22 14.3525 39.5458 14.5299C39.8713 14.7073 40.2412 14.796 40.6636 14.796C40.8571 14.796 41.0509 14.7694 41.2534 14.7162C41.4559 14.663 41.6407 14.5831 41.8168 14.4944C41.9926 14.3969 42.151 14.2904 42.2743 14.1663L41.8696 13.5985C41.6671 13.776 41.4823 13.9001 41.3062 13.9711C41.1301 14.0421 40.9453 14.0687 40.7428 14.0687C40.4611 14.0687 40.2058 14.0155 39.9859 13.9001C39.7657 13.7848 39.5986 13.6252 39.484 13.4123C39.3961 13.2526 39.3346 13.0752 39.3169 12.8712H42.4417L42.4504 12.5252C42.4591 12.2414 42.4153 11.9753 42.3184 11.7269C42.2305 11.4697 42.1072 11.2656 41.9311 11.0882ZM41.6317 12.2148H39.352C39.3784 12.0995 39.4138 11.9841 39.4576 11.8866C39.5545 11.6826 39.7042 11.5229 39.889 11.4164C40.0828 11.31 40.3204 11.2568 40.5931 11.2568C40.7692 11.2568 40.9366 11.2923 41.086 11.3721C41.2357 11.4519 41.359 11.5584 41.4559 11.6914C41.5525 11.8245 41.6143 11.9841 41.623 12.1527V12.2148H41.6317Z" fill="black"/>
<path d="M20.6567 5.81048C20.551 5.74838 20.4278 5.74838 20.3222 5.81048L16.6253 7.90387L15.2698 5.91692C15.261 5.90805 15.2522 5.89918 15.2522 5.89031L15.2434 5.88144C15.2346 5.8637 15.217 5.85483 15.2082 5.84596L15.1994 5.83709C15.1906 5.82822 15.173 5.81935 15.1553 5.81048C15.1466 5.81048 15.1466 5.80161 15.1378 5.80161C15.1289 5.79274 15.1113 5.79274 15.1025 5.78386C15.0938 5.78386 15.0849 5.77499 15.0761 5.77499C15.0673 5.77499 15.0585 5.77499 15.0409 5.76612C15.0321 5.76612 15.0145 5.76612 15.0057 5.76612C14.9969 5.76612 14.9881 5.76612 14.9793 5.76612C14.9617 5.76612 14.9529 5.76612 14.9353 5.77499C14.9265 5.77499 14.9265 5.77499 14.9177 5.77499C14.9001 5.77499 14.8913 5.78386 14.8737 5.79274C14.8649 5.79274 14.8649 5.79274 14.8561 5.80161C14.8473 5.80161 14.8385 5.81048 14.8297 5.81048L8.16651 9.58037C8.15771 9.58037 8.15771 9.58922 8.1489 9.58922H8.1401C8.1225 9.59811 8.10489 9.61583 8.09609 9.62472L8.08729 9.63358C8.07849 9.64246 8.06968 9.66018 8.06088 9.66907L8.05208 9.67793C8.04328 9.69567 8.03448 9.71342 8.02567 9.73117V9.74002C8.01687 9.75777 8.01687 9.76663 8.01687 9.78438C8.01687 9.79323 8.01687 9.79323 8.01687 9.80212C7.99927 9.83758 7.99927 9.85533 7.99927 9.87308V17.9273C7.99927 18.0426 8.06088 18.1579 8.16651 18.22C8.21932 18.2466 8.28093 18.2644 8.33375 18.2644C8.38656 18.2644 8.44817 18.2466 8.50099 18.22L12.1979 16.1267L13.5446 18.1225C13.5446 18.1225 13.5446 18.1225 13.5534 18.1313C13.5534 18.1402 13.5622 18.1402 13.5622 18.1491C13.571 18.1579 13.571 18.1579 13.5798 18.1668L13.5886 18.1757C13.5974 18.1846 13.5974 18.1846 13.6062 18.1934L13.615 18.2023C13.6238 18.2112 13.6326 18.2112 13.6414 18.22C13.6414 18.22 13.6502 18.22 13.6502 18.2289C13.6502 18.2289 13.6502 18.2289 13.659 18.2289C13.6678 18.2378 13.6766 18.2378 13.6854 18.2378C13.6942 18.2378 13.6942 18.2378 13.703 18.2466C13.7118 18.2466 13.7206 18.2555 13.7294 18.2555C13.7382 18.2555 13.7382 18.2555 13.747 18.2644C13.7558 18.2644 13.7646 18.2644 13.7734 18.2733H13.7822C13.7998 18.2733 13.8086 18.2733 13.8263 18.2733C13.8263 18.2733 13.8263 18.2733 13.835 18.2733C13.8438 18.2733 13.8614 18.2733 13.8703 18.2733C13.8791 18.2733 13.8791 18.2733 13.8878 18.2733C13.8967 18.2733 13.9055 18.2733 13.9143 18.2644C13.9231 18.2644 13.9231 18.2644 13.9319 18.2555C13.9407 18.2555 13.9495 18.2466 13.9583 18.2466C13.9671 18.2466 13.9671 18.2378 13.9759 18.2378C13.9759 18.2378 13.9847 18.2378 13.9847 18.2289L20.6479 14.459C20.7535 14.397 20.8151 14.2905 20.8151 14.1663V6.1032C20.8151 5.97901 20.7535 5.87257 20.6567 5.81048ZM8.66823 17.3596V10.9553L11.8106 15.5767L8.66823 17.3596ZM13.659 9.58037C13.5534 9.64246 13.4918 9.74888 13.4918 9.87308V16.8452L8.81786 9.98838L14.8913 6.54671L16.0356 8.23207L13.659 9.58037ZM20.1549 13.9623L14.1607 17.3596V10.0682L20.1549 6.67977V13.9623Z" fill="#00D2D2"/>
</g>
<defs>
<clipPath id="clip0_1_112">
<rect width="51" height="13" fill="white" transform="translate(7.99927 5.5)"/>
</clipPath>
</defs>
</svg>
