<svg width="16" height="16" viewBox="0 0 16 16" fill="none" xmlns="http://www.w3.org/2000/svg">
<path d="M14.9408 8.91426L12.9576 8.65557C12.9855 8.4419 13 8.22314 13 8C13 7.77686 12.9855 7.5581 12.9576 7.34443L14.9408 7.08573C14.9799 7.38496 15 7.69013 15 8C15 8.30987 14.9799 8.61504 14.9408 8.91426ZM14.4688 5.32049C14.2328 4.7514 13.9239 4.22019 13.5538 3.73851L11.968 4.95716C12.2328 5.30185 12.4533 5.68119 12.6214 6.08659L14.4688 5.32049ZM12.2615 2.4462L11.0428 4.03204C10.6981 3.76716 10.3188 3.54673 9.91341 3.37862L10.6795 1.53116C11.2486 1.76715 11.7798 2.07605 12.2615 2.4462ZM8.91426 1.05917L8.65557 3.04237C8.4419 3.01449 8.22314 3 8 3C7.77686 3 7.5581 3.01449 7.34443 3.04237L7.08574 1.05917C7.38496 1.02013 7.69013 1 8 1C8.30987 1 8.61504 1.02013 8.91426 1.05917ZM5.32049 1.53116L6.08659 3.37862C5.68119 3.54673 5.30185 3.76716 4.95716 4.03204L3.73851 2.4462C4.22019 2.07605 4.7514 1.76715 5.32049 1.53116ZM2.4462 3.73851L4.03204 4.95716C3.76716 5.30185 3.54673 5.68119 3.37862 6.08659L1.53116 5.32049C1.76715 4.7514 2.07605 4.22019 2.4462 3.73851ZM1.05917 7.08574C1.02013 7.38496 1 7.69013 1 8C1 8.30987 1.02013 8.61504 1.05917 8.91426L3.04237 8.65557C3.01449 8.4419 3 8.22314 3 8C3 7.77686 3.01449 7.5581 3.04237 7.34443L1.05917 7.08574ZM1.53116 10.6795L3.37862 9.91341C3.54673 10.3188 3.76716 10.6981 4.03204 11.0428L2.4462 12.2615C2.07605 11.7798 1.76715 11.2486 1.53116 10.6795ZM3.73851 13.5538L4.95716 11.968C5.30185 12.2328 5.68119 12.4533 6.08659 12.6214L5.32049 14.4688C4.7514 14.2328 4.22019 13.9239 3.73851 13.5538ZM7.08574 14.9408L7.34443 12.9576C7.5581 12.9855 7.77686 13 8 13C8.22314 13 8.4419 12.9855 8.65557 12.9576L8.91427 14.9408C8.61504 14.9799 8.30987 15 8 15C7.69013 15 7.38496 14.9799 7.08574 14.9408ZM10.6795 14.4688L9.91341 12.6214C10.3188 12.4533 10.6981 12.2328 11.0428 11.968L12.2615 13.5538C11.7798 13.9239 11.2486 14.2328 10.6795 14.4688ZM13.5538 12.2615L11.968 11.0428C12.2328 10.6981 12.4533 10.3188 12.6214 9.91341L14.4688 10.6795C14.2328 11.2486 13.924 11.7798 13.5538 12.2615Z" fill="#171615"/>
</svg>
