<?xml version="1.0" encoding="UTF-8"?>
<svg width="121px" height="119px" viewBox="0 0 121 119" version="1.1" xmlns="http://www.w3.org/2000/svg" xmlns:xlink="http://www.w3.org/1999/xlink">
    <!-- Generator: Sketch 63.1 (92452) - https://sketch.com -->
    <title>Fill 5</title>
    <desc>Created with Sketch.</desc>
    <g id="Page-1" stroke="none" stroke-width="1" fill="none" fill-rule="evenodd">
        <path d="M60.609,0.445 C27.262,0.445 0.221,27.481 0.221,60.833 C0.221,87.514 17.524,110.15 41.518,118.135 C44.536,118.694 45.644,116.825 45.644,115.23 C45.644,113.79 45.588,109.033 45.562,103.987 C28.762,107.64 25.217,96.862 25.217,96.862 C22.47,89.882 18.512,88.026 18.512,88.026 C13.033,84.278 18.925,84.355 18.925,84.355 C24.989,84.781 28.182,90.578 28.182,90.578 C33.568,99.81 42.309,97.141 45.755,95.598 C46.297,91.695 47.862,89.031 49.589,87.523 C36.176,85.996 22.076,80.818 22.076,57.679 C22.076,51.086 24.435,45.699 28.298,41.47 C27.671,39.949 25.604,33.807 28.883,25.489 C28.883,25.489 33.954,23.866 45.494,31.679 C50.311,30.341 55.477,29.67 60.609,29.647 C65.741,29.67 70.911,30.341 75.737,31.679 C87.263,23.866 92.327,25.489 92.327,25.489 C95.614,33.807 93.546,39.949 92.919,41.47 C96.791,45.699 99.134,51.086 99.134,57.679 C99.134,80.873 85.007,85.98 71.56,87.475 C73.726,89.349 75.656,93.024 75.656,98.658 C75.656,106.738 75.586,113.241 75.586,115.23 C75.586,116.837 76.673,118.72 79.734,118.127 C103.715,110.133 120.996,87.505 120.996,60.833 C120.996,27.481 93.959,0.445 60.609,0.445" id="Fill-5" fill="#161514"></path>
    </g>
</svg>